G04*
G04 #@! TF.GenerationSoftware,Altium Limited,Altium Designer,21.6.4 (81)*
G04*
G04 Layer_Physical_Order=2*
G04 Layer_Color=16711680*
%FSAX25Y25*%
%MOIN*%
G70*
G04*
G04 #@! TF.SameCoordinates,9A5FF030-8DC4-432F-A364-1BA2AF03453A*
G04*
G04*
G04 #@! TF.FilePolarity,Positive*
G04*
G01*
G75*
%ADD13C,0.00787*%
%ADD24C,0.00984*%
%ADD25C,0.01968*%
%ADD26R,0.07874X0.07874*%
%ADD27C,0.07874*%
%ADD28C,0.11811*%
%ADD29C,0.03150*%
%ADD30C,0.02362*%
%ADD31R,0.03937X0.02756*%
%ADD32R,0.02362X0.03937*%
G04:AMPARAMS|DCode=33|XSize=35.43mil|YSize=169.29mil|CornerRadius=13.82mil|HoleSize=0mil|Usage=FLASHONLY|Rotation=0.000|XOffset=0mil|YOffset=0mil|HoleType=Round|Shape=RoundedRectangle|*
%AMROUNDEDRECTD33*
21,1,0.03543,0.14165,0,0,0.0*
21,1,0.00780,0.16929,0,0,0.0*
1,1,0.02764,0.00390,-0.07083*
1,1,0.02764,-0.00390,-0.07083*
1,1,0.02764,-0.00390,0.07083*
1,1,0.02764,0.00390,0.07083*
%
%ADD33ROUNDEDRECTD33*%
G04:AMPARAMS|DCode=34|XSize=35.43mil|YSize=188.98mil|CornerRadius=13.82mil|HoleSize=0mil|Usage=FLASHONLY|Rotation=0.000|XOffset=0mil|YOffset=0mil|HoleType=Round|Shape=RoundedRectangle|*
%AMROUNDEDRECTD34*
21,1,0.03543,0.16134,0,0,0.0*
21,1,0.00780,0.18898,0,0,0.0*
1,1,0.02764,0.00390,-0.08067*
1,1,0.02764,-0.00390,-0.08067*
1,1,0.02764,-0.00390,0.08067*
1,1,0.02764,0.00390,0.08067*
%
%ADD34ROUNDEDRECTD34*%
%ADD35R,0.01575X0.02756*%
%ADD36R,0.01968X0.02165*%
%ADD37R,0.01968X0.02165*%
%ADD38R,0.03543X0.02362*%
%ADD39R,0.03150X0.02362*%
%ADD40R,0.02165X0.01968*%
%ADD41C,0.04370*%
G36*
X-0007300Y0074918D02*
Y0068526D01*
X-0007339Y0068476D01*
X-0007608Y0067825D01*
X-0007700Y0067126D01*
X-0007608Y0066427D01*
X-0007396Y0065914D01*
X-0008106Y0065204D01*
X-0008323Y0064878D01*
X-0008399Y0064494D01*
Y0063510D01*
X-0008676D01*
Y0062779D01*
X-0009176Y0062368D01*
X-0009547Y0062442D01*
X-0010354Y0062282D01*
X-0011037Y0061825D01*
X-0011494Y0061141D01*
X-0011655Y0060335D01*
X-0011494Y0059528D01*
X-0011037Y0058845D01*
X-0010354Y0058388D01*
X-0009547Y0058227D01*
X-0008741Y0058388D01*
X-0008057Y0058845D01*
X-0007600Y0059528D01*
X-0007552Y0059770D01*
X-0006215D01*
Y0059474D01*
X-0005034D01*
Y0061640D01*
X-0004640D01*
Y0062033D01*
X-0002789D01*
X-0002430Y0062393D01*
X-0002419Y0062400D01*
X-0000611Y0064208D01*
X-0000394Y0064180D01*
Y0067126D01*
X0000394D01*
Y0064180D01*
X0000611Y0064208D01*
X0001772Y0063047D01*
Y0062500D01*
X0003347D01*
Y0061713D01*
X0001772D01*
Y0059941D01*
X0002671D01*
X0002862Y0059479D01*
X0002369Y0058986D01*
X0000865D01*
X0000319Y0058877D01*
X-0004362D01*
X-0004938Y0058762D01*
X-0005426Y0058436D01*
X-0005426Y0058436D01*
X-0008938Y0054924D01*
X-0009179Y0054564D01*
X-0010003Y0053740D01*
X-0010827D01*
Y0052409D01*
X-0010856Y0052264D01*
Y0050528D01*
X-0011774Y0049609D01*
X-0014567D01*
Y0049137D01*
X-0014604Y0049130D01*
X-0015092Y0048803D01*
X-0015092Y0048803D01*
X-0016616Y0047280D01*
X-0016942Y0046791D01*
X-0017056Y0046215D01*
Y0041782D01*
X-0016942Y0041206D01*
X-0016616Y0040718D01*
Y0040238D01*
X-0017041Y0039812D01*
X-0017367Y0039324D01*
X-0017482Y0038748D01*
Y0014870D01*
X-0018232Y0014119D01*
X-0018431Y0014179D01*
X-0019685Y0014303D01*
X-0020890Y0014184D01*
X-0020932Y0014216D01*
X-0020989Y0014718D01*
X-0020790Y0014850D01*
X-0020698Y0014941D01*
X-0020592Y0015015D01*
X-0020005Y0015619D01*
X-0019935Y0015728D01*
X-0019846Y0015822D01*
X-0019401Y0016538D01*
X-0019356Y0016659D01*
X-0019290Y0016770D01*
X-0019007Y0017564D01*
X-0018988Y0017692D01*
X-0018947Y0017815D01*
X-0018840Y0018651D01*
X-0018849Y0018780D01*
X-0018835Y0018908D01*
X-0018908Y0019748D01*
X-0018945Y0019872D01*
X-0018958Y0020001D01*
X-0019208Y0020805D01*
X-0019255Y0020891D01*
X-0019281Y0020985D01*
X-0019469Y0021362D01*
X-0019489Y0021388D01*
X-0019499Y0021419D01*
X-0020213Y0022679D01*
X-0021306Y0025361D01*
X-0022045Y0028161D01*
X-0022418Y0031032D01*
X-0022418Y0033928D01*
X-0022045Y0036800D01*
X-0021306Y0039600D01*
X-0020213Y0042282D01*
X-0019499Y0043541D01*
X-0019489Y0043572D01*
X-0019469Y0043598D01*
X-0019281Y0043976D01*
X-0019255Y0044070D01*
X-0019208Y0044155D01*
X-0018958Y0044960D01*
X-0018945Y0045089D01*
X-0018908Y0045213D01*
X-0018835Y0046052D01*
X-0018849Y0046181D01*
X-0018840Y0046310D01*
X-0018947Y0047146D01*
X-0018988Y0047269D01*
X-0019007Y0047396D01*
X-0019290Y0048190D01*
X-0019356Y0048302D01*
X-0019401Y0048423D01*
X-0019846Y0049138D01*
X-0019935Y0049233D01*
X-0020005Y0049341D01*
X-0020592Y0049946D01*
X-0020437Y0050387D01*
X-0020405Y0050432D01*
X-0020079Y0050400D01*
Y0057087D01*
X-0019685D01*
Y0057480D01*
X-0012999D01*
X-0013089Y0058399D01*
X-0013472Y0059660D01*
X-0014093Y0060823D01*
X-0014930Y0061842D01*
X-0015949Y0062678D01*
X-0016733Y0063098D01*
X-0016795Y0063697D01*
X-0016751Y0063758D01*
X-0016366Y0063777D01*
X-0016279Y0063799D01*
X-0016190Y0063799D01*
X-0015433Y0063950D01*
X-0015324Y0063995D01*
X-0015207Y0064018D01*
X-0014494Y0064314D01*
X-0014396Y0064379D01*
X-0014286Y0064425D01*
X-0013645Y0064854D01*
X-0013561Y0064937D01*
X-0013462Y0065003D01*
X-0012917Y0065549D01*
X-0012851Y0065648D01*
X-0012767Y0065731D01*
X-0012338Y0066373D01*
X-0012293Y0066482D01*
X-0012227Y0066581D01*
X-0011931Y0067294D01*
X-0011908Y0067410D01*
X-0011863Y0067520D01*
X-0011712Y0068277D01*
X-0011712Y0068366D01*
X-0011690Y0068452D01*
X-0011671Y0068838D01*
X-0011676Y0068868D01*
X-0011670Y0068898D01*
Y0072238D01*
X-0011170Y0072404D01*
X-0010651Y0072057D01*
X-0009921Y0071912D01*
X-0009192Y0072057D01*
X-0008573Y0072471D01*
X-0008160Y0073089D01*
X-0008015Y0073819D01*
Y0074680D01*
X-0007565Y0075022D01*
X-0007300Y0074918D01*
D02*
G37*
G36*
X0008015Y0074918D02*
Y0073819D01*
X0008160Y0073089D01*
X0008573Y0072471D01*
X0009192Y0072057D01*
X0009921Y0071912D01*
X0010651Y0072057D01*
X0011170Y0072404D01*
X0011670Y0072238D01*
Y0068898D01*
X0011676Y0068868D01*
X0011671Y0068838D01*
X0011690Y0068452D01*
X0011712Y0068366D01*
X0011712Y0068277D01*
X0011863Y0067520D01*
X0011908Y0067410D01*
X0011931Y0067294D01*
X0012227Y0066581D01*
X0012293Y0066483D01*
X0012338Y0066373D01*
X0012767Y0065731D01*
X0012851Y0065648D01*
X0012917Y0065549D01*
X0013462Y0065003D01*
X0013561Y0064937D01*
X0013645Y0064854D01*
X0014286Y0064425D01*
X0014396Y0064379D01*
X0014494Y0064314D01*
X0015207Y0064018D01*
X0015324Y0063995D01*
X0015433Y0063950D01*
X0016190Y0063799D01*
X0016279Y0063799D01*
X0016366Y0063777D01*
X0016751Y0063758D01*
X0016795Y0063697D01*
X0016733Y0063098D01*
X0015949Y0062678D01*
X0014930Y0061842D01*
X0014093Y0060823D01*
X0013472Y0059660D01*
X0013089Y0058399D01*
X0012999Y0057480D01*
X0019685D01*
Y0057087D01*
X0020079D01*
Y0050400D01*
X0020405Y0050432D01*
X0020437Y0050387D01*
X0020592Y0049946D01*
X0020005Y0049341D01*
X0019935Y0049233D01*
X0019846Y0049138D01*
X0019401Y0048423D01*
X0019356Y0048302D01*
X0019290Y0048190D01*
X0019007Y0047396D01*
X0018988Y0047269D01*
X0018947Y0047146D01*
X0018840Y0046310D01*
X0018849Y0046181D01*
X0018835Y0046052D01*
X0018908Y0045213D01*
X0018945Y0045089D01*
X0018958Y0044960D01*
X0019208Y0044155D01*
X0019255Y0044070D01*
X0019281Y0043976D01*
X0019469Y0043598D01*
X0019489Y0043572D01*
X0019499Y0043541D01*
X0020213Y0042282D01*
X0021306Y0039600D01*
X0022045Y0036800D01*
X0022418Y0033928D01*
X0022418Y0031032D01*
X0022045Y0028161D01*
X0021306Y0025361D01*
X0020213Y0022679D01*
X0019499Y0021419D01*
X0019489Y0021388D01*
X0019469Y0021362D01*
X0019281Y0020985D01*
X0019255Y0020891D01*
X0019208Y0020805D01*
X0018958Y0020001D01*
X0018945Y0019872D01*
X0018908Y0019748D01*
X0018835Y0018908D01*
X0018849Y0018780D01*
X0018840Y0018651D01*
X0018947Y0017815D01*
X0018988Y0017692D01*
X0019007Y0017564D01*
X0019290Y0016770D01*
X0019356Y0016659D01*
X0019401Y0016538D01*
X0019846Y0015822D01*
X0019935Y0015728D01*
X0020005Y0015619D01*
X0020592Y0015015D01*
X0020698Y0014941D01*
X0020790Y0014850D01*
X0020989Y0014718D01*
X0020932Y0014216D01*
X0020890Y0014184D01*
X0019685Y0014303D01*
X0018431Y0014179D01*
X0017225Y0013813D01*
X0016114Y0013219D01*
X0015139Y0012420D01*
X0014340Y0011446D01*
X0013746Y0010334D01*
X0013380Y0009128D01*
X0013256Y0007874D01*
X0013380Y0006620D01*
X0013582Y0005953D01*
X0012668Y0005039D01*
X0007677D01*
Y0005906D01*
X0007401D01*
Y0009252D01*
X0008366D01*
Y0012598D01*
X0004232D01*
Y0009252D01*
X0005394D01*
Y0006627D01*
X0005217Y0006201D01*
X0004035D01*
Y0004035D01*
X0003642D01*
Y0003642D01*
X0002067D01*
Y0002305D01*
X0000526Y0000764D01*
X0000083Y0000822D01*
X0000000Y0000838D01*
X-0000083Y0000822D01*
X-0000611Y0000752D01*
X-0002756Y0002897D01*
Y0003543D01*
X-0004331D01*
Y0003937D01*
X-0004724D01*
Y0006102D01*
X-0005906D01*
Y0005807D01*
X-0006738D01*
X-0006904Y0005918D01*
X-0006948Y0005927D01*
X-0007648Y0006627D01*
X-0008136Y0006953D01*
X-0008712Y0007068D01*
X-0012906D01*
X-0013299Y0007441D01*
X-0013256Y0007874D01*
X-0013380Y0009128D01*
X-0013746Y0010334D01*
X-0014340Y0011446D01*
X-0015139Y0012420D01*
X-0015145Y0012425D01*
X-0015170Y0012924D01*
X-0014912Y0013182D01*
X-0014586Y0013670D01*
X-0014471Y0014246D01*
Y0028723D01*
X-0013971Y0028823D01*
X-0013969Y0028818D01*
X-0013212Y0027831D01*
X-0012225Y0027074D01*
X-0011076Y0026598D01*
X-0010236Y0026487D01*
Y0031201D01*
Y0035914D01*
X-0011076Y0035804D01*
X-0012225Y0035328D01*
X-0013212Y0034570D01*
X-0013969Y0033583D01*
X-0013971Y0033579D01*
X-0014471Y0033678D01*
Y0038124D01*
X-0014207Y0038389D01*
X-0009646D01*
Y0041834D01*
X-0009350D01*
Y0043605D01*
X-0012106D01*
Y0044393D01*
X-0009350D01*
Y0046164D01*
X-0009646D01*
Y0047480D01*
X-0008286Y0048840D01*
X-0007960Y0049328D01*
X-0007845Y0049904D01*
Y0051383D01*
X-0007685Y0051502D01*
X-0007185Y0051251D01*
Y0050295D01*
X-0005807D01*
Y0052165D01*
X-0005020D01*
Y0050295D01*
X-0003642D01*
Y0051934D01*
X-0003142Y0052308D01*
X-0002662Y0052213D01*
X-0001856Y0052373D01*
X-0001172Y0052830D01*
X-0000945Y0052853D01*
X0000886Y0051022D01*
Y0047539D01*
X0003759D01*
X0003966Y0047039D01*
X0002428Y0045501D01*
X0000579D01*
X0000003Y0045387D01*
X-0000486Y0045061D01*
X-0002738Y0042809D01*
X-0003064Y0042320D01*
X-0003102Y0042129D01*
X-0005118D01*
Y0038389D01*
X-0002677D01*
X-0001403Y0037115D01*
X-0001727Y0036732D01*
X-0003063D01*
Y0035256D01*
X-0001686D01*
Y0036419D01*
X-0001188Y0036697D01*
X-0001025Y0036594D01*
Y0034862D01*
Y0030563D01*
X-0008545Y0023043D01*
X-0008871Y0022555D01*
X-0008952Y0022146D01*
X-0010531D01*
Y0018799D01*
X-0006004D01*
Y0020524D01*
X-0005975Y0020669D01*
Y0021335D01*
X-0005631Y0021628D01*
X-0005170Y0021479D01*
X-0005107Y0021162D01*
X-0004585Y0020381D01*
X-0003804Y0019859D01*
X-0003276Y0019754D01*
Y0022084D01*
X-0002882D01*
Y0022478D01*
X-0000552D01*
X-0000657Y0023006D01*
X-0001179Y0023787D01*
X-0001960Y0024309D01*
X-0002325Y0024382D01*
X-0002470Y0024860D01*
X0001544Y0028875D01*
X0001870Y0029363D01*
X0001985Y0029939D01*
Y0034862D01*
Y0037361D01*
X0001939Y0037591D01*
X0002246Y0037990D01*
X0002746Y0037883D01*
Y0025620D01*
X0002823Y0025236D01*
X0003040Y0024910D01*
X0004756Y0023194D01*
Y0022982D01*
X0000180Y0018406D01*
X-0002657D01*
Y0015059D01*
X-0000589D01*
X-0000492Y0015040D01*
X-0000394D01*
X-0000297Y0015059D01*
X0001870D01*
Y0017257D01*
X0006176Y0021562D01*
X0007709D01*
Y0024712D01*
X0006077D01*
X0004753Y0026036D01*
Y0037795D01*
X0005906D01*
Y0040551D01*
Y0043307D01*
X0005144D01*
X0004953Y0043769D01*
X0006332Y0045148D01*
X0006810Y0044829D01*
X0007386Y0044714D01*
X0015562D01*
X0015707Y0044743D01*
X0017137D01*
Y0047696D01*
X0015707D01*
X0015562Y0047725D01*
X0011713D01*
Y0052461D01*
X0008366D01*
X0008366Y0052461D01*
X0007903Y0052549D01*
Y0054921D01*
X0007874Y0055067D01*
Y0055917D01*
X0008652Y0056071D01*
X0009336Y0056528D01*
X0009792Y0057212D01*
X0009953Y0058018D01*
X0009792Y0058825D01*
X0009336Y0059508D01*
X0008652Y0059965D01*
X0007845Y0060126D01*
X0007570Y0060401D01*
X0007608Y0060590D01*
Y0062106D01*
X0007569Y0062303D01*
X0007608Y0062500D01*
Y0065374D01*
X0007493Y0065950D01*
X0007442Y0066026D01*
X0007608Y0066427D01*
X0007700Y0067126D01*
X0007608Y0067825D01*
X0007339Y0068476D01*
X0007300Y0068526D01*
Y0074679D01*
X0007750Y0075022D01*
X0008015Y0074918D01*
D02*
G37*
G36*
X0014770Y0003778D02*
X0015139Y0003328D01*
X0016114Y0002529D01*
X0017225Y0001935D01*
X0017985Y0001704D01*
X0017911Y0001204D01*
X0016811D01*
X0016781Y0001198D01*
X0016751Y0001203D01*
X0016366Y0001184D01*
X0016279Y0001162D01*
X0016190Y0001162D01*
X0015433Y0001011D01*
X0015324Y0000966D01*
X0015207Y0000943D01*
X0014494Y0000647D01*
X0014396Y0000581D01*
X0014286Y0000536D01*
X0013645Y0000107D01*
X0013561Y0000023D01*
X0013462Y-0000043D01*
X0012917Y-0000588D01*
X0012851Y-0000687D01*
X0012767Y-0000771D01*
X0012338Y-0001412D01*
X0012293Y-0001522D01*
X0012227Y-0001620D01*
X0011931Y-0002333D01*
X0011908Y-0002450D01*
X0011863Y-0002559D01*
X0011712Y-0003316D01*
X0011712Y-0003405D01*
X0011690Y-0003492D01*
X0011671Y-0003878D01*
X0011676Y-0003907D01*
X0011670Y-0003937D01*
Y-0007278D01*
X0011170Y-0007443D01*
X0010651Y-0007097D01*
X0009921Y-0006952D01*
X0009192Y-0007097D01*
X0008573Y-0007510D01*
X0008160Y-0008129D01*
X0008015Y-0008858D01*
Y-0009719D01*
X0007565Y-0010062D01*
X0007300Y-0009957D01*
Y-0003565D01*
X0007339Y-0003515D01*
X0007608Y-0002864D01*
X0007700Y-0002165D01*
X0007608Y-0001467D01*
X0007339Y-0000815D01*
X0007124Y-0000536D01*
X0007325Y-0000236D01*
X0007401Y0000149D01*
Y0002165D01*
X0007677D01*
Y0003032D01*
X0013084D01*
X0013468Y0003108D01*
X0013794Y0003326D01*
X0014271Y0003803D01*
X0014770Y0003778D01*
D02*
G37*
G36*
X-0014187Y0004172D02*
X-0013611Y0004057D01*
X-0013611Y0004057D01*
X-0009336D01*
X-0008742Y0003463D01*
X-0008592Y0003363D01*
Y0000097D01*
X-0008477Y-0000479D01*
X-0008151Y-0000967D01*
X-0007613Y-0001505D01*
X-0007700Y-0002165D01*
X-0007608Y-0002864D01*
X-0007339Y-0003515D01*
X-0007300Y-0003565D01*
Y-0009719D01*
X-0007750Y-0010061D01*
X-0008015Y-0009957D01*
Y-0008858D01*
X-0008160Y-0008129D01*
X-0008573Y-0007510D01*
X-0009192Y-0007097D01*
X-0009921Y-0006952D01*
X-0010651Y-0007097D01*
X-0011170Y-0007443D01*
X-0011670Y-0007278D01*
Y-0003937D01*
X-0011676Y-0003907D01*
X-0011671Y-0003878D01*
X-0011690Y-0003492D01*
X-0011712Y-0003405D01*
X-0011712Y-0003316D01*
X-0011863Y-0002559D01*
X-0011908Y-0002450D01*
X-0011931Y-0002333D01*
X-0012227Y-0001620D01*
X-0012293Y-0001522D01*
X-0012338Y-0001412D01*
X-0012767Y-0000771D01*
X-0012851Y-0000687D01*
X-0012917Y-0000588D01*
X-0013462Y-0000043D01*
X-0013561Y0000023D01*
X-0013645Y0000107D01*
X-0014286Y0000536D01*
X-0014396Y0000581D01*
X-0014494Y0000647D01*
X-0015207Y0000943D01*
X-0015324Y0000966D01*
X-0015433Y0001011D01*
X-0016190Y0001162D01*
X-0016279Y0001162D01*
X-0016366Y0001184D01*
X-0016752Y0001203D01*
X-0016781Y0001198D01*
X-0016811Y0001204D01*
X-0017911Y0001204D01*
X-0017985Y0001704D01*
X-0017225Y0001935D01*
X-0016114Y0002529D01*
X-0015139Y0003328D01*
X-0014355Y0004284D01*
X-0014187Y0004172D01*
D02*
G37*
%LPC*%
G36*
X-0003065Y0061246D02*
X-0004246D01*
Y0059474D01*
X-0003065D01*
Y0061246D01*
D02*
G37*
G36*
X-0012999Y0056693D02*
X-0019291D01*
Y0050400D01*
X-0018373Y0050490D01*
X-0017111Y0050873D01*
X-0015949Y0051495D01*
X-0014930Y0052331D01*
X-0014093Y0053350D01*
X-0013472Y0054513D01*
X-0013089Y0055775D01*
X-0012999Y0056693D01*
D02*
G37*
G36*
X0019291Y0056693D02*
X0012999D01*
X0013089Y0055775D01*
X0013472Y0054513D01*
X0014093Y0053350D01*
X0014930Y0052331D01*
X0015949Y0051495D01*
X0017111Y0050873D01*
X0018373Y0050490D01*
X0019291Y0050400D01*
Y0056693D01*
D02*
G37*
G36*
X-0000197Y0049609D02*
X-0005118D01*
Y0045869D01*
X-0000197D01*
Y0049609D01*
D02*
G37*
G36*
X0017432Y0044054D02*
X0015956D01*
Y0042676D01*
X0017432D01*
Y0044054D01*
D02*
G37*
G36*
X0015168D02*
X0013692D01*
Y0042676D01*
X0015168D01*
Y0044054D01*
D02*
G37*
G36*
X0017432Y0041889D02*
X0015956D01*
Y0040511D01*
X0017432D01*
Y0041889D01*
D02*
G37*
G36*
X0015168D02*
X0013692D01*
Y0040511D01*
X0015168D01*
Y0041889D01*
D02*
G37*
G36*
X-0003851Y0036732D02*
X-0005229D01*
Y0035256D01*
X-0003851D01*
Y0036732D01*
D02*
G37*
G36*
X-0001686Y0034468D02*
X-0003063D01*
Y0032992D01*
X-0001686D01*
Y0034468D01*
D02*
G37*
G36*
X-0009449Y0035914D02*
Y0031594D01*
X-0005129D01*
X-0005240Y0032434D01*
X-0005271Y0032509D01*
X-0004930Y0032992D01*
X-0003851D01*
Y0034468D01*
X-0005229D01*
Y0033723D01*
X-0005680Y0033596D01*
X-0005729Y0033601D01*
X-0006473Y0034570D01*
X-0007460Y0035328D01*
X-0008609Y0035804D01*
X-0009449Y0035914D01*
D02*
G37*
G36*
X0008268Y0043307D02*
X0007988Y0043307D01*
X0006693D01*
Y0040551D01*
Y0037795D01*
X0008268D01*
X0008636Y0038083D01*
X0008812Y0038061D01*
X0009136Y0037737D01*
Y0035630D01*
X0005413D01*
Y0026772D01*
X0014272D01*
Y0035630D01*
X0010943D01*
Y0038091D01*
X0011713D01*
Y0043012D01*
X0008645D01*
X0008268Y0043307D01*
D02*
G37*
G36*
X-0005129Y0030807D02*
X-0009449D01*
Y0026487D01*
X-0008609Y0026598D01*
X-0007460Y0027074D01*
X-0006473Y0027831D01*
X-0005716Y0028818D01*
X-0005240Y0029967D01*
X-0005129Y0030807D01*
D02*
G37*
G36*
X0013352Y0025403D02*
X0012824Y0025298D01*
X0012103Y0024816D01*
X0011646Y0024712D01*
X0011646Y0024712D01*
X0011646Y0024712D01*
X0008693D01*
Y0021562D01*
X0009252D01*
Y0020414D01*
X0008866D01*
Y0018684D01*
X0008311Y0018129D01*
X0007382D01*
X0007285Y0018110D01*
X0004232D01*
Y0014764D01*
X0006249D01*
X0006465Y0014721D01*
X0006571D01*
X0006787Y0014764D01*
X0008366D01*
Y0016123D01*
X0008727D01*
X0009111Y0016199D01*
X0009437Y0016416D01*
X0010285Y0017265D01*
X0011819D01*
Y0020414D01*
X0011260D01*
Y0021302D01*
X0011760Y0021506D01*
X0012061Y0021357D01*
X0012348Y0021166D01*
X0012508Y0020710D01*
X0012508Y0020710D01*
X0012508Y0020710D01*
Y0019233D01*
X0014279D01*
X0016051D01*
Y0020710D01*
X0015362D01*
X0015210Y0021210D01*
X0015449Y0021369D01*
X0015971Y0022151D01*
X0016076Y0022679D01*
X0013746D01*
Y0023073D01*
X0013352D01*
Y0025403D01*
D02*
G37*
G36*
X0014140D02*
Y0023466D01*
X0016076D01*
X0015971Y0023994D01*
X0015449Y0024776D01*
X0014668Y0025298D01*
X0014140Y0025403D01*
D02*
G37*
G36*
X-0000552Y0021690D02*
X-0002488D01*
Y0019754D01*
X-0001960Y0019859D01*
X-0001179Y0020381D01*
X-0000657Y0021162D01*
X-0000552Y0021690D01*
D02*
G37*
G36*
X0016051Y0018446D02*
X0014673D01*
Y0016970D01*
X0016051D01*
Y0018446D01*
D02*
G37*
G36*
X0013886D02*
X0012508D01*
Y0016970D01*
X0013886D01*
Y0018446D01*
D02*
G37*
G36*
X-0005709Y0014961D02*
X-0007874D01*
Y0013386D01*
X-0005709D01*
Y0014961D01*
D02*
G37*
G36*
X-0008661D02*
X-0010827D01*
Y0013386D01*
X-0008661D01*
Y0014961D01*
D02*
G37*
G36*
X-0005709Y0012598D02*
X-0007874D01*
Y0011024D01*
X-0005709D01*
Y0012598D01*
D02*
G37*
G36*
X-0008661D02*
X-0010827D01*
Y0011024D01*
X-0008661D01*
Y0012598D01*
D02*
G37*
G36*
X-0000130Y0010006D02*
Y0008069D01*
X0001807D01*
X0001702Y0008597D01*
X0001179Y0009379D01*
X0000398Y0009901D01*
X-0000130Y0010006D01*
D02*
G37*
G36*
X-0000917D02*
X-0001445Y0009901D01*
X-0002227Y0009379D01*
X-0002749Y0008597D01*
X-0002854Y0008069D01*
X-0000917D01*
Y0010006D01*
D02*
G37*
G36*
X0001807Y0007282D02*
X-0000130D01*
Y0005345D01*
X0000398Y0005451D01*
X0001179Y0005973D01*
X0001702Y0006754D01*
X0001807Y0007282D01*
D02*
G37*
G36*
X-0000917D02*
X-0002854D01*
X-0002749Y0006754D01*
X-0002606Y0006540D01*
X-0002915Y0006102D01*
X-0003157Y0006102D01*
X-0003937D01*
Y0004331D01*
X-0002756D01*
Y0005656D01*
X-0002756Y0005865D01*
X-0002256Y0006016D01*
X-0002227Y0005973D01*
X-0001445Y0005451D01*
X-0000917Y0005345D01*
Y0007282D01*
D02*
G37*
G36*
X0003248Y0006201D02*
X0002067D01*
Y0004429D01*
X0003248D01*
Y0006201D01*
D02*
G37*
%LPD*%
D13*
X0003767Y0055610D02*
X0005723Y0057566D01*
X0003051Y0055610D02*
X0003767D01*
X0005723Y0057566D02*
X0007393D01*
X0002461Y0055020D02*
X0003051Y0055610D01*
X0007393Y0057566D02*
X0007845Y0058018D01*
X0002461Y0054921D02*
Y0055020D01*
X-0013284Y0043999D02*
X-0012894Y0044390D01*
X-0005711Y0052464D02*
X-0005413Y0052165D01*
X0010039Y0033760D02*
Y0040551D01*
X0009941Y0033661D02*
X0010039Y0033760D01*
X0022543Y0049747D02*
G03*
X0020547Y0044135I0001428J-0003669D01*
G01*
X-0012874Y-0019882D02*
G03*
X-0009724Y-0023031I0003145J-0000004D01*
G01*
X0020547Y0020825D02*
G03*
X0020547Y0044135I-0020547J0011655D01*
G01*
X-0016811Y0064961D02*
G03*
X-0012874Y0068898I-0000001J0003938D01*
G01*
Y-0003937D02*
G03*
X-0016811Y0000000I-0003938J-0000001D01*
G01*
X-0009724Y0087992D02*
G03*
X-0012874Y0084842I-0000004J-0003145D01*
G01*
X0020547Y0020825D02*
G03*
X0022543Y0015214I0003424J-0001942D01*
G01*
X-0022543Y0015214D02*
G03*
X-0019488Y0000000I0002857J-0007340D01*
G01*
X0012874Y0084842D02*
G03*
X0009724Y0087992I-0003145J0000004D01*
G01*
X0019488Y0000000D02*
G03*
X0022543Y0015214I0000197J0007874D01*
G01*
X-0022543D02*
G03*
X-0020547Y0020825I-0001428J0003669D01*
G01*
X0012874Y0068898D02*
G03*
X0016811Y0064961I0003938J0000001D01*
G01*
Y0000000D02*
G03*
X0012874Y-0003937I0000001J-0003938D01*
G01*
X-0019488Y0064961D02*
G03*
X-0022543Y0049747I-0000197J-0007874D01*
G01*
X-0020547Y0044135D02*
G03*
X-0020547Y0020825I0020547J-0011655D01*
G01*
X0022543Y0049747D02*
G03*
X0019488Y0064961I-0002858J0007340D01*
G01*
X-0020547Y0044135D02*
G03*
X-0022543Y0049747I-0003424J0001942D01*
G01*
X0009724Y-0023031D02*
G03*
X0012874Y-0019882I0000004J0003145D01*
G01*
X-0019488Y0064961D02*
X-0016811D01*
X0012874Y-0019882D02*
Y-0003937D01*
X-0012874Y0068898D02*
Y0084842D01*
X-0009724Y-0023031D02*
X0009724D01*
X-0009724Y0087992D02*
X0009724D01*
X-0012874Y-0019882D02*
Y-0003937D01*
X0012874Y0068898D02*
Y0084842D01*
X-0019488Y0000000D02*
X-0016811D01*
X0016811Y0064961D02*
X0019488D01*
X0016811Y0000000D02*
X0019488D01*
D24*
X-0002328Y0053986D02*
X-0000659D01*
X-0002662Y0054321D02*
X-0002328Y0053986D01*
X0001851Y0051476D02*
X0001870D01*
X0002559Y0050787D01*
Y0050000D02*
Y0050787D01*
X-0000659Y0053986D02*
X0001851Y0051476D01*
X0000886Y0017692D02*
X0006233Y0023039D01*
X-0000492Y0016043D02*
X-0000394D01*
X0000197Y0016732D02*
X0000886Y0017421D01*
X0006233Y0023039D02*
Y0023137D01*
X0000886Y0017421D02*
Y0017692D01*
X-0000394Y0016732D02*
X0000197D01*
X0007382Y0017126D02*
X0008727D01*
X0010250Y0018649D01*
X0007382Y0016535D02*
Y0017126D01*
X0006465Y0015724D02*
X0006571D01*
X0007382Y0016535D01*
X0005000Y-0001249D02*
X0006398Y0000149D01*
Y0004035D01*
X0005000Y-0002165D02*
Y-0001249D01*
X-0007691Y0060754D02*
X-0007396Y0061049D01*
X-0008542Y0060754D02*
X-0007691D01*
X-0008961Y0060335D02*
X-0008542Y0060754D01*
X-0007396Y0061049D02*
Y0061640D01*
X-0009547Y0060335D02*
X-0008961D01*
X0016923Y0007874D02*
X0019685D01*
X0006398Y0004035D02*
X0013084D01*
X0016923Y0007874D01*
X0006398Y0010145D02*
X0006465Y0010212D01*
X0006398Y0004035D02*
Y0010145D01*
X-0007396Y0064494D02*
X-0005000Y0066890D01*
Y0067126D01*
X-0007396Y0061640D02*
Y0064494D01*
X0003750Y0025620D02*
X0006233Y0023137D01*
X0003750Y0025620D02*
Y0038573D01*
X0002559Y0039764D02*
X0003750Y0038573D01*
X0010250Y0018649D02*
Y0018840D01*
X0010170Y0023137D02*
X0010256Y0023051D01*
Y0018926D02*
X0010342Y0018840D01*
X0010256Y0018926D02*
Y0023051D01*
X0002559Y0039764D02*
Y0040551D01*
D25*
X-0015977Y0038748D02*
X-0014466Y0040259D01*
X-0015977Y0014246D02*
Y0038748D01*
X-0019685Y0010537D02*
X-0015977Y0014246D01*
X-0019685Y0007874D02*
Y0010537D01*
X0000480Y0029939D02*
Y0034862D01*
X-0008366Y0020472D02*
X-0007677D01*
X-0007480Y0020669D02*
Y0021979D01*
X0000480Y0034862D02*
Y0037361D01*
X-0007677Y0020472D02*
X-0007480Y0020669D01*
Y0021979D02*
X0000480Y0029939D01*
X0002992Y0057480D02*
X0006102Y0060590D01*
X0000756Y0057372D02*
X0000865Y0057480D01*
X-0004362Y0057372D02*
X0000756D01*
X-0007874Y0053860D02*
X-0004362Y0057372D01*
X0000865Y0057480D02*
X0002992D01*
X0006102Y0060590D02*
Y0062106D01*
X-0017802Y0005991D02*
X-0014039D01*
X-0013611Y0005563D02*
X-0008712D01*
X-0007677Y0004528D01*
X-0007480D01*
X-0019685Y0007874D02*
X-0017802Y0005991D01*
X-0007480Y0004528D02*
X-0007087Y0004134D01*
Y0000097D02*
Y0004134D01*
X-0014039Y0005991D02*
X-0013611Y0005563D01*
X-0007087Y0000097D02*
X-0005000Y-0001990D01*
Y-0002165D02*
Y-0001990D01*
X0000000Y-0002165D02*
Y-0001987D01*
X-0004331Y0002343D02*
Y0003937D01*
Y0002343D02*
X0000000Y-0001987D01*
Y-0002165D02*
Y-0000667D01*
X0000612Y-0001279D02*
X0003642Y0001751D01*
X0005221Y0066256D02*
X0006102Y0065374D01*
Y0062500D02*
Y0065374D01*
X0003347Y0062106D02*
Y0063601D01*
X0000271Y0066677D02*
X0003347Y0063601D01*
X0006398Y0050098D02*
Y0054921D01*
X0006233Y0049933D02*
X0006299Y0050000D01*
X-0001673Y0040652D02*
Y0041744D01*
X-0001697Y0040629D02*
X-0001673Y0040652D01*
Y0041744D02*
X0000579Y0043996D01*
X0003051D02*
X0006102Y0047047D01*
X-0002287Y0040629D02*
X-0001697D01*
X0000579Y0043996D02*
X0003051D01*
X0000271Y0066677D02*
Y0067126D01*
X0000000D02*
X0000271D01*
X0000000Y0066948D02*
Y0067126D01*
X-0004640Y0061640D02*
Y0062311D01*
X-0003487Y0063465D01*
X-0003483D01*
X0000000Y0066948D01*
X0005221Y0066256D02*
Y0067126D01*
X0005000D02*
X0005221D01*
X-0009350Y0052165D02*
Y0052264D01*
Y0049904D02*
Y0052165D01*
X-0012106Y0047739D02*
X-0011516D01*
X-0009350Y0049904D01*
Y0052264D02*
X-0007874Y0053740D01*
Y0053860D01*
X0003642Y0001751D02*
Y0004035D01*
X-0014028Y0040259D02*
X-0012106D01*
X-0015551Y0041782D02*
Y0046215D01*
Y0041782D02*
X-0014028Y0040259D01*
X-0015551Y0046215D02*
X-0014028Y0047739D01*
X-0012106D01*
X-0002067Y0040259D02*
X-0001673Y0039865D01*
Y0039514D02*
Y0039865D01*
X-0002657Y0040259D02*
X-0002067D01*
X-0001673Y0039514D02*
X0000480Y0037361D01*
X0007386Y0046219D02*
X0015562D01*
X0006233Y0047372D02*
X0007386Y0046219D01*
X0006233Y0047372D02*
Y0049933D01*
X-0003457Y0034776D02*
Y0034862D01*
D26*
X0009843Y0031201D02*
D03*
D27*
X-0009843D02*
D03*
D28*
X0019685Y0007874D02*
D03*
X-0019685Y0057087D02*
D03*
X0019685D02*
D03*
X-0019685Y0007874D02*
D03*
D29*
X-0002662Y0054321D02*
D03*
X0007845Y0058018D02*
D03*
X-0009547Y0060335D02*
D03*
X-0002882Y0022084D02*
D03*
X0013746Y0023073D02*
D03*
X-0000524Y0007676D02*
D03*
D30*
X0000000Y-0013484D02*
D03*
Y0078445D02*
D03*
D31*
X-0012106Y0040259D02*
D03*
Y0043999D02*
D03*
Y0047739D02*
D03*
X-0002657D02*
D03*
Y0040259D02*
D03*
D32*
X0010039Y0050000D02*
D03*
X0006299D02*
D03*
X0002559D02*
D03*
Y0040551D02*
D03*
X0006299D02*
D03*
X0010039D02*
D03*
D33*
X0005000Y-0009843D02*
D03*
X-0005000Y0074803D02*
D03*
D34*
Y-0010827D02*
D03*
X0000000D02*
D03*
X0005000Y0075787D02*
D03*
X0000000D02*
D03*
D35*
X-0004640Y0061640D02*
D03*
X-0007396D02*
D03*
X0003347Y0062106D02*
D03*
X0006102D02*
D03*
X-0004331Y0003937D02*
D03*
X-0007087D02*
D03*
X0003642Y0004035D02*
D03*
X0006398D02*
D03*
D36*
X-0003457Y0034862D02*
D03*
X0000480D02*
D03*
X-0009350Y0052165D02*
D03*
X-0005413D02*
D03*
X0014279Y0018840D02*
D03*
X0010342D02*
D03*
D37*
X0006398Y0054921D02*
D03*
X0002461D02*
D03*
X0010170Y0023137D02*
D03*
X0006233D02*
D03*
D38*
X-0008268Y0012992D02*
D03*
Y0020472D02*
D03*
X-0000394Y0016732D02*
D03*
D39*
X0006299Y0016437D02*
D03*
Y0010925D02*
D03*
D40*
X0015562Y0042282D02*
D03*
Y0046219D02*
D03*
D41*
X0005000Y-0002165D02*
D03*
X0000000D02*
D03*
X-0005000D02*
D03*
Y0067126D02*
D03*
X0000000D02*
D03*
X0005000D02*
D03*
M02*
