M48
;Layer_Color=9474304
;FILE_FORMAT=2:5
INCH
;TYPE=PLATED
T1F00S00C0.01181
T3F00S00C0.02600
T4F00S00C0.02795
T5F00S00C0.08268
;TYPE=NON_PLATED
%
T01
X-0008045Y0012920
X-0010821Y0020663
X-0009773Y0027589
X-0006221Y0029823
X-0010039Y0036595
X-0017683Y0031293
X-0035138Y0037071
Y0077677
X-0017134Y0072958
X-0010039Y0070546
X-0005557Y0065341
X0001905Y0066542
X0006703Y0075849
X0009460Y0078056
X0016486Y0079626
X0017898Y0082694
X0014419Y0087428
X0006890Y0089882
X0006885Y0099520
X0012008Y0096555
X-0003051Y0101772
X-0000660Y0080063
X-0015514Y0087816
X0001905Y0048072
X0003049Y0039807
X0004639Y0033106
X0009398Y0032269
X0010925Y0020666
X0017832Y0037648
Y0041535
X0017008Y0045965
X0020308Y0048248
X0035138Y0037071
X0035138Y0077677
T03
X-0015059Y0099429
Y0104429
Y0109429
X-0008459
Y0104429
T04
X-0023819Y0032071
Y0037071
Y0042071
Y0072677
Y0077677
Y0082677
X0023819
Y0077677
Y0072677
X0023819Y0042071
Y0037071
Y0032071
T05
X-0029528Y0008161
X0029528
Y0106587
X-0029528
M30
