G04*
G04 #@! TF.GenerationSoftware,Altium Limited,Altium Designer,21.3.2 (30)*
G04*
G04 Layer_Color=65535*
%FSAX25Y25*%
%MOIN*%
G70*
G04*
G04 #@! TF.SameCoordinates,95C765EB-83B6-4E62-A68E-D1C90A93CB07*
G04*
G04*
G04 #@! TF.FilePolarity,Positive*
G04*
G01*
G75*
%ADD10C,0.00394*%
G36*
X0143757Y0080889D02*
X0143784Y0080883D01*
X0143812Y0080873D01*
X0143843Y0080858D01*
X0143874Y0080839D01*
X0143905Y0080815D01*
X0143908Y0080812D01*
X0143917Y0080802D01*
X0143930Y0080787D01*
X0143945Y0080765D01*
X0143957Y0080737D01*
X0143970Y0080707D01*
X0143979Y0080669D01*
X0143982Y0080629D01*
Y0080623D01*
Y0080611D01*
X0143979Y0080592D01*
X0143973Y0080564D01*
X0143964Y0080537D01*
X0143948Y0080506D01*
X0143930Y0080475D01*
X0143905Y0080444D01*
X0143902Y0080441D01*
X0143893Y0080431D01*
X0143874Y0080419D01*
X0143852Y0080407D01*
X0143825Y0080394D01*
X0143794Y0080382D01*
X0143760Y0080373D01*
X0143719Y0080370D01*
X0143701D01*
X0143682Y0080373D01*
X0143655Y0080379D01*
X0143627Y0080388D01*
X0143596Y0080401D01*
X0143565Y0080416D01*
X0143534Y0080441D01*
X0143531Y0080444D01*
X0143522Y0080453D01*
X0143509Y0080472D01*
X0143497Y0080493D01*
X0143485Y0080518D01*
X0143472Y0080552D01*
X0143463Y0080589D01*
X0143460Y0080629D01*
Y0080635D01*
Y0080648D01*
X0143463Y0080669D01*
X0143469Y0080694D01*
X0143479Y0080725D01*
X0143491Y0080756D01*
X0143509Y0080787D01*
X0143534Y0080815D01*
X0143537Y0080818D01*
X0143546Y0080827D01*
X0143565Y0080839D01*
X0143587Y0080855D01*
X0143614Y0080867D01*
X0143645Y0080879D01*
X0143679Y0080889D01*
X0143719Y0080892D01*
X0143738D01*
X0143757Y0080889D01*
D02*
G37*
G36*
X0131789Y0077224D02*
X0131387D01*
Y0077647D01*
X0131378D01*
X0131375Y0077641D01*
X0131366Y0077626D01*
X0131347Y0077604D01*
X0131325Y0077573D01*
X0131295Y0077536D01*
X0131261Y0077496D01*
X0131217Y0077453D01*
X0131165Y0077406D01*
X0131109Y0077360D01*
X0131044Y0077317D01*
X0130973Y0077277D01*
X0130896Y0077240D01*
X0130813Y0077209D01*
X0130720Y0077187D01*
X0130621Y0077171D01*
X0130516Y0077165D01*
X0130494D01*
X0130470Y0077168D01*
X0130439Y0077171D01*
X0130398Y0077175D01*
X0130352Y0077184D01*
X0130300Y0077193D01*
X0130244Y0077209D01*
X0130185Y0077224D01*
X0130123Y0077249D01*
X0130062Y0077273D01*
X0129997Y0077307D01*
X0129935Y0077345D01*
X0129873Y0077391D01*
X0129815Y0077443D01*
X0129759Y0077502D01*
X0129756Y0077505D01*
X0129746Y0077518D01*
X0129734Y0077536D01*
X0129716Y0077564D01*
X0129694Y0077598D01*
X0129669Y0077638D01*
X0129645Y0077688D01*
X0129620Y0077743D01*
X0129592Y0077805D01*
X0129567Y0077873D01*
X0129543Y0077950D01*
X0129521Y0078031D01*
X0129502Y0078117D01*
X0129490Y0078213D01*
X0129481Y0078312D01*
X0129478Y0078417D01*
Y0078420D01*
Y0078423D01*
Y0078432D01*
Y0078445D01*
X0129481Y0078475D01*
X0129484Y0078519D01*
X0129487Y0078574D01*
X0129493Y0078633D01*
X0129502Y0078701D01*
X0129518Y0078775D01*
X0129533Y0078852D01*
X0129555Y0078936D01*
X0129580Y0079016D01*
X0129611Y0079103D01*
X0129645Y0079183D01*
X0129688Y0079264D01*
X0129734Y0079341D01*
X0129790Y0079415D01*
X0129793Y0079418D01*
X0129805Y0079430D01*
X0129824Y0079449D01*
X0129849Y0079474D01*
X0129879Y0079501D01*
X0129917Y0079535D01*
X0129963Y0079569D01*
X0130012Y0079603D01*
X0130071Y0079637D01*
X0130133Y0079671D01*
X0130201Y0079705D01*
X0130275Y0079733D01*
X0130355Y0079758D01*
X0130442Y0079776D01*
X0130531Y0079789D01*
X0130627Y0079792D01*
X0130649D01*
X0130677Y0079789D01*
X0130711Y0079786D01*
X0130754Y0079779D01*
X0130803Y0079770D01*
X0130856Y0079758D01*
X0130915Y0079742D01*
X0130976Y0079721D01*
X0131038Y0079693D01*
X0131100Y0079659D01*
X0131162Y0079619D01*
X0131220Y0079572D01*
X0131279Y0079520D01*
X0131332Y0079455D01*
X0131378Y0079384D01*
X0131387D01*
Y0080938D01*
X0131789D01*
Y0077224D01*
D02*
G37*
G36*
X0146003Y0079789D02*
X0146031D01*
X0146065Y0079783D01*
X0146105Y0079776D01*
X0146148Y0079770D01*
X0146195Y0079758D01*
X0146244Y0079746D01*
X0146297Y0079727D01*
X0146349Y0079705D01*
X0146402Y0079677D01*
X0146451Y0079647D01*
X0146501Y0079613D01*
X0146547Y0079569D01*
X0146590Y0079523D01*
X0146593Y0079520D01*
X0146599Y0079511D01*
X0146612Y0079495D01*
X0146624Y0079474D01*
X0146640Y0079446D01*
X0146658Y0079412D01*
X0146680Y0079372D01*
X0146701Y0079328D01*
X0146720Y0079276D01*
X0146741Y0079220D01*
X0146760Y0079155D01*
X0146775Y0079087D01*
X0146788Y0079013D01*
X0146800Y0078933D01*
X0146806Y0078849D01*
X0146809Y0078757D01*
Y0077224D01*
X0146408D01*
Y0078655D01*
Y0078658D01*
Y0078664D01*
Y0078673D01*
Y0078689D01*
X0146405Y0078707D01*
Y0078729D01*
X0146398Y0078778D01*
X0146389Y0078840D01*
X0146377Y0078908D01*
X0146358Y0078979D01*
X0146334Y0079053D01*
X0146303Y0079128D01*
X0146266Y0079199D01*
X0146219Y0079267D01*
X0146161Y0079328D01*
X0146096Y0079378D01*
X0146059Y0079399D01*
X0146015Y0079418D01*
X0145972Y0079433D01*
X0145926Y0079443D01*
X0145876Y0079449D01*
X0145824Y0079452D01*
X0145796D01*
X0145774Y0079449D01*
X0145750Y0079446D01*
X0145719Y0079440D01*
X0145685Y0079433D01*
X0145651Y0079424D01*
X0145611Y0079412D01*
X0145570Y0079396D01*
X0145530Y0079378D01*
X0145487Y0079356D01*
X0145447Y0079328D01*
X0145404Y0079298D01*
X0145363Y0079264D01*
X0145326Y0079223D01*
X0145323Y0079220D01*
X0145317Y0079214D01*
X0145308Y0079202D01*
X0145295Y0079183D01*
X0145280Y0079162D01*
X0145264Y0079134D01*
X0145246Y0079103D01*
X0145227Y0079069D01*
X0145209Y0079029D01*
X0145190Y0078985D01*
X0145175Y0078939D01*
X0145159Y0078890D01*
X0145147Y0078834D01*
X0145138Y0078778D01*
X0145132Y0078716D01*
X0145129Y0078655D01*
Y0077224D01*
X0144727D01*
Y0079733D01*
X0145129D01*
Y0079316D01*
X0145138D01*
X0145141Y0079322D01*
X0145150Y0079338D01*
X0145169Y0079359D01*
X0145190Y0079390D01*
X0145221Y0079427D01*
X0145255Y0079467D01*
X0145299Y0079511D01*
X0145348Y0079554D01*
X0145404Y0079597D01*
X0145465Y0079640D01*
X0145533Y0079681D01*
X0145604Y0079718D01*
X0145685Y0079749D01*
X0145771Y0079770D01*
X0145864Y0079786D01*
X0145963Y0079792D01*
X0145981D01*
X0146003Y0079789D01*
D02*
G37*
G36*
X0129027Y0079773D02*
X0129060D01*
X0129098Y0079767D01*
X0129138Y0079761D01*
X0129178Y0079755D01*
X0129212Y0079742D01*
Y0079325D01*
X0129206Y0079328D01*
X0129193Y0079338D01*
X0129169Y0079350D01*
X0129135Y0079365D01*
X0129088Y0079381D01*
X0129039Y0079393D01*
X0128977Y0079403D01*
X0128906Y0079406D01*
X0128881D01*
X0128863Y0079403D01*
X0128841Y0079399D01*
X0128816Y0079393D01*
X0128758Y0079375D01*
X0128724Y0079362D01*
X0128690Y0079347D01*
X0128653Y0079325D01*
X0128616Y0079304D01*
X0128582Y0079276D01*
X0128544Y0079242D01*
X0128510Y0079205D01*
X0128477Y0079162D01*
X0128473Y0079158D01*
X0128470Y0079149D01*
X0128461Y0079137D01*
X0128449Y0079118D01*
X0128436Y0079093D01*
X0128421Y0079063D01*
X0128405Y0079029D01*
X0128390Y0078988D01*
X0128375Y0078945D01*
X0128359Y0078896D01*
X0128344Y0078840D01*
X0128331Y0078781D01*
X0128319Y0078716D01*
X0128310Y0078649D01*
X0128307Y0078578D01*
X0128304Y0078500D01*
Y0077224D01*
X0127902D01*
Y0079733D01*
X0128304D01*
Y0079214D01*
X0128313D01*
Y0079217D01*
X0128316Y0079226D01*
X0128322Y0079239D01*
X0128328Y0079257D01*
X0128338Y0079279D01*
X0128350Y0079307D01*
X0128378Y0079365D01*
X0128415Y0079433D01*
X0128461Y0079501D01*
X0128514Y0079566D01*
X0128575Y0079628D01*
X0128578Y0079631D01*
X0128585Y0079634D01*
X0128594Y0079640D01*
X0128606Y0079653D01*
X0128622Y0079662D01*
X0128643Y0079674D01*
X0128690Y0079702D01*
X0128749Y0079730D01*
X0128816Y0079755D01*
X0128891Y0079770D01*
X0128931Y0079773D01*
X0128971Y0079776D01*
X0128996D01*
X0129027Y0079773D01*
D02*
G37*
G36*
X0139789Y0077224D02*
X0139387D01*
Y0077620D01*
X0139378D01*
X0139375Y0077613D01*
X0139366Y0077601D01*
X0139350Y0077576D01*
X0139332Y0077548D01*
X0139304Y0077514D01*
X0139270Y0077477D01*
X0139233Y0077434D01*
X0139187Y0077394D01*
X0139137Y0077351D01*
X0139078Y0077311D01*
X0139016Y0077270D01*
X0138945Y0077236D01*
X0138868Y0077209D01*
X0138788Y0077184D01*
X0138698Y0077171D01*
X0138602Y0077165D01*
X0138581D01*
X0138565Y0077168D01*
X0138544D01*
X0138519Y0077171D01*
X0138491Y0077178D01*
X0138463Y0077181D01*
X0138395Y0077199D01*
X0138318Y0077221D01*
X0138238Y0077255D01*
X0138198Y0077277D01*
X0138154Y0077298D01*
X0138111Y0077326D01*
X0138071Y0077354D01*
X0138031Y0077388D01*
X0137991Y0077425D01*
X0137951Y0077468D01*
X0137913Y0077511D01*
X0137879Y0077561D01*
X0137845Y0077617D01*
X0137818Y0077675D01*
X0137790Y0077737D01*
X0137765Y0077805D01*
X0137743Y0077879D01*
X0137728Y0077960D01*
X0137716Y0078043D01*
X0137709Y0078136D01*
X0137706Y0078231D01*
Y0079733D01*
X0138105D01*
Y0078296D01*
Y0078293D01*
Y0078287D01*
Y0078278D01*
Y0078262D01*
X0138108Y0078244D01*
Y0078222D01*
X0138114Y0078173D01*
X0138124Y0078111D01*
X0138136Y0078046D01*
X0138157Y0077972D01*
X0138182Y0077901D01*
X0138213Y0077827D01*
X0138253Y0077753D01*
X0138303Y0077688D01*
X0138361Y0077626D01*
X0138433Y0077576D01*
X0138470Y0077555D01*
X0138513Y0077536D01*
X0138559Y0077521D01*
X0138606Y0077511D01*
X0138658Y0077505D01*
X0138714Y0077502D01*
X0138742D01*
X0138763Y0077505D01*
X0138788Y0077508D01*
X0138816Y0077514D01*
X0138850Y0077521D01*
X0138884Y0077530D01*
X0138921Y0077539D01*
X0138961Y0077555D01*
X0139001Y0077573D01*
X0139041Y0077595D01*
X0139081Y0077620D01*
X0139122Y0077647D01*
X0139159Y0077681D01*
X0139196Y0077719D01*
X0139199Y0077722D01*
X0139205Y0077728D01*
X0139214Y0077740D01*
X0139227Y0077759D01*
X0139239Y0077780D01*
X0139258Y0077805D01*
X0139273Y0077836D01*
X0139292Y0077870D01*
X0139310Y0077910D01*
X0139325Y0077953D01*
X0139344Y0078000D01*
X0139356Y0078049D01*
X0139369Y0078105D01*
X0139378Y0078160D01*
X0139384Y0078222D01*
X0139387Y0078287D01*
Y0079733D01*
X0139789D01*
Y0077224D01*
D02*
G37*
G36*
X0143914D02*
X0143512D01*
Y0079733D01*
X0143914D01*
Y0077224D01*
D02*
G37*
G36*
X0142700D02*
X0142298D01*
Y0080938D01*
X0142700D01*
Y0077224D01*
D02*
G37*
G36*
X0126298Y0079789D02*
X0126320D01*
X0126341Y0079786D01*
X0126369Y0079783D01*
X0126400Y0079776D01*
X0126465Y0079764D01*
X0126542Y0079742D01*
X0126620Y0079715D01*
X0126703Y0079674D01*
X0126786Y0079625D01*
X0126827Y0079597D01*
X0126867Y0079563D01*
X0126904Y0079526D01*
X0126941Y0079489D01*
X0126975Y0079446D01*
X0127006Y0079396D01*
X0127037Y0079347D01*
X0127064Y0079291D01*
X0127086Y0079229D01*
X0127108Y0079165D01*
X0127123Y0079097D01*
X0127136Y0079019D01*
X0127142Y0078942D01*
X0127145Y0078856D01*
Y0077224D01*
X0126743D01*
Y0077613D01*
X0126734D01*
X0126731Y0077607D01*
X0126721Y0077595D01*
X0126706Y0077573D01*
X0126684Y0077542D01*
X0126656Y0077508D01*
X0126622Y0077471D01*
X0126585Y0077431D01*
X0126539Y0077391D01*
X0126487Y0077348D01*
X0126431Y0077307D01*
X0126366Y0077270D01*
X0126298Y0077236D01*
X0126221Y0077205D01*
X0126140Y0077184D01*
X0126054Y0077171D01*
X0125961Y0077165D01*
X0125924D01*
X0125900Y0077168D01*
X0125869Y0077171D01*
X0125831Y0077175D01*
X0125791Y0077181D01*
X0125748Y0077190D01*
X0125652Y0077215D01*
X0125606Y0077230D01*
X0125557Y0077249D01*
X0125507Y0077270D01*
X0125461Y0077298D01*
X0125417Y0077329D01*
X0125374Y0077363D01*
X0125371Y0077366D01*
X0125365Y0077372D01*
X0125356Y0077385D01*
X0125340Y0077400D01*
X0125325Y0077419D01*
X0125309Y0077443D01*
X0125288Y0077471D01*
X0125269Y0077502D01*
X0125251Y0077539D01*
X0125232Y0077579D01*
X0125214Y0077623D01*
X0125198Y0077669D01*
X0125183Y0077719D01*
X0125173Y0077771D01*
X0125167Y0077830D01*
X0125164Y0077888D01*
Y0077891D01*
Y0077898D01*
Y0077907D01*
X0125167Y0077919D01*
Y0077935D01*
X0125170Y0077953D01*
X0125176Y0078000D01*
X0125189Y0078055D01*
X0125207Y0078117D01*
X0125232Y0078185D01*
X0125269Y0078256D01*
X0125312Y0078327D01*
X0125365Y0078398D01*
X0125399Y0078432D01*
X0125433Y0078466D01*
X0125473Y0078500D01*
X0125513Y0078531D01*
X0125560Y0078562D01*
X0125609Y0078590D01*
X0125662Y0078615D01*
X0125720Y0078639D01*
X0125782Y0078661D01*
X0125847Y0078680D01*
X0125918Y0078695D01*
X0125992Y0078707D01*
X0126743Y0078812D01*
Y0078815D01*
Y0078819D01*
Y0078828D01*
Y0078840D01*
X0126740Y0078871D01*
X0126734Y0078911D01*
X0126728Y0078961D01*
X0126715Y0079016D01*
X0126700Y0079072D01*
X0126678Y0079134D01*
X0126650Y0079192D01*
X0126616Y0079251D01*
X0126576Y0079304D01*
X0126527Y0079353D01*
X0126465Y0079393D01*
X0126397Y0079424D01*
X0126360Y0079436D01*
X0126317Y0079446D01*
X0126273Y0079449D01*
X0126227Y0079452D01*
X0126205D01*
X0126184Y0079449D01*
X0126150Y0079446D01*
X0126110Y0079443D01*
X0126063Y0079436D01*
X0126011Y0079427D01*
X0125955Y0079415D01*
X0125893Y0079396D01*
X0125828Y0079378D01*
X0125760Y0079353D01*
X0125689Y0079322D01*
X0125618Y0079285D01*
X0125547Y0079245D01*
X0125476Y0079199D01*
X0125408Y0079143D01*
Y0079554D01*
X0125411Y0079557D01*
X0125424Y0079563D01*
X0125445Y0079576D01*
X0125473Y0079591D01*
X0125510Y0079610D01*
X0125550Y0079628D01*
X0125600Y0079650D01*
X0125655Y0079674D01*
X0125714Y0079696D01*
X0125779Y0079718D01*
X0125850Y0079736D01*
X0125924Y0079755D01*
X0126005Y0079770D01*
X0126085Y0079783D01*
X0126171Y0079789D01*
X0126261Y0079792D01*
X0126283D01*
X0126298Y0079789D01*
D02*
G37*
G36*
X0120662Y0080734D02*
X0120699Y0080731D01*
X0120742Y0080725D01*
X0120792Y0080719D01*
X0120847Y0080710D01*
X0120903Y0080697D01*
X0120962Y0080682D01*
X0121023Y0080663D01*
X0121082Y0080642D01*
X0121144Y0080617D01*
X0121200Y0080586D01*
X0121255Y0080552D01*
X0121308Y0080512D01*
X0121311Y0080509D01*
X0121320Y0080503D01*
X0121333Y0080490D01*
X0121348Y0080472D01*
X0121370Y0080450D01*
X0121391Y0080422D01*
X0121416Y0080391D01*
X0121441Y0080357D01*
X0121465Y0080317D01*
X0121490Y0080274D01*
X0121512Y0080225D01*
X0121533Y0080175D01*
X0121549Y0080119D01*
X0121561Y0080061D01*
X0121570Y0079999D01*
X0121573Y0079934D01*
Y0079931D01*
Y0079922D01*
Y0079906D01*
X0121570Y0079885D01*
X0121567Y0079857D01*
X0121564Y0079829D01*
X0121561Y0079795D01*
X0121555Y0079758D01*
X0121533Y0079674D01*
X0121505Y0079588D01*
X0121487Y0079542D01*
X0121465Y0079498D01*
X0121441Y0079455D01*
X0121413Y0079412D01*
X0121410Y0079409D01*
X0121407Y0079403D01*
X0121397Y0079390D01*
X0121382Y0079375D01*
X0121367Y0079359D01*
X0121348Y0079338D01*
X0121323Y0079316D01*
X0121299Y0079291D01*
X0121268Y0079267D01*
X0121234Y0079239D01*
X0121196Y0079214D01*
X0121156Y0079186D01*
X0121113Y0079162D01*
X0121070Y0079140D01*
X0120968Y0079100D01*
Y0079090D01*
X0120971D01*
X0120983Y0079087D01*
X0121002Y0079084D01*
X0121027Y0079081D01*
X0121057Y0079075D01*
X0121091Y0079066D01*
X0121132Y0079053D01*
X0121172Y0079041D01*
X0121261Y0079007D01*
X0121311Y0078985D01*
X0121357Y0078958D01*
X0121404Y0078930D01*
X0121450Y0078899D01*
X0121496Y0078862D01*
X0121536Y0078822D01*
X0121539Y0078819D01*
X0121546Y0078812D01*
X0121555Y0078800D01*
X0121570Y0078781D01*
X0121586Y0078757D01*
X0121604Y0078732D01*
X0121623Y0078698D01*
X0121645Y0078664D01*
X0121663Y0078624D01*
X0121682Y0078578D01*
X0121700Y0078531D01*
X0121716Y0078479D01*
X0121731Y0078420D01*
X0121740Y0078361D01*
X0121747Y0078299D01*
X0121750Y0078231D01*
Y0078225D01*
Y0078213D01*
X0121747Y0078188D01*
X0121743Y0078157D01*
X0121740Y0078117D01*
X0121731Y0078074D01*
X0121722Y0078024D01*
X0121709Y0077972D01*
X0121691Y0077913D01*
X0121669Y0077854D01*
X0121645Y0077796D01*
X0121614Y0077734D01*
X0121577Y0077672D01*
X0121533Y0077613D01*
X0121484Y0077558D01*
X0121425Y0077502D01*
X0121422Y0077499D01*
X0121410Y0077490D01*
X0121391Y0077477D01*
X0121367Y0077459D01*
X0121335Y0077437D01*
X0121295Y0077416D01*
X0121252Y0077388D01*
X0121203Y0077363D01*
X0121144Y0077338D01*
X0121082Y0077314D01*
X0121017Y0077289D01*
X0120943Y0077267D01*
X0120866Y0077249D01*
X0120785Y0077236D01*
X0120699Y0077227D01*
X0120609Y0077224D01*
X0119587D01*
Y0080737D01*
X0120628D01*
X0120662Y0080734D01*
D02*
G37*
G36*
X0141130Y0079733D02*
X0141763D01*
Y0079387D01*
X0141130D01*
Y0077975D01*
Y0077972D01*
Y0077963D01*
Y0077950D01*
Y0077935D01*
X0141133Y0077913D01*
X0141136Y0077888D01*
X0141142Y0077836D01*
X0141152Y0077774D01*
X0141167Y0077715D01*
X0141189Y0077660D01*
X0141201Y0077635D01*
X0141217Y0077613D01*
X0141220Y0077610D01*
X0141232Y0077598D01*
X0141254Y0077579D01*
X0141285Y0077561D01*
X0141325Y0077539D01*
X0141374Y0077524D01*
X0141433Y0077511D01*
X0141501Y0077505D01*
X0141526D01*
X0141553Y0077508D01*
X0141590Y0077514D01*
X0141631Y0077527D01*
X0141677Y0077539D01*
X0141720Y0077561D01*
X0141763Y0077589D01*
Y0077246D01*
X0141760D01*
X0141757Y0077243D01*
X0141748Y0077240D01*
X0141739Y0077233D01*
X0141705Y0077221D01*
X0141665Y0077209D01*
X0141609Y0077196D01*
X0141544Y0077184D01*
X0141470Y0077175D01*
X0141387Y0077171D01*
X0141359D01*
X0141325Y0077178D01*
X0141285Y0077184D01*
X0141235Y0077193D01*
X0141180Y0077212D01*
X0141118Y0077233D01*
X0141059Y0077264D01*
X0140997Y0077301D01*
X0140935Y0077351D01*
X0140880Y0077409D01*
X0140855Y0077443D01*
X0140830Y0077481D01*
X0140809Y0077521D01*
X0140790Y0077564D01*
X0140772Y0077610D01*
X0140756Y0077663D01*
X0140744Y0077715D01*
X0140735Y0077774D01*
X0140732Y0077836D01*
X0140728Y0077904D01*
Y0079387D01*
X0140299D01*
Y0079733D01*
X0140728D01*
Y0080345D01*
X0141130Y0080475D01*
Y0079733D01*
D02*
G37*
G36*
X0148599Y0079789D02*
X0148633Y0079786D01*
X0148676Y0079783D01*
X0148722Y0079776D01*
X0148775Y0079764D01*
X0148830Y0079752D01*
X0148892Y0079736D01*
X0148954Y0079715D01*
X0149016Y0079687D01*
X0149081Y0079656D01*
X0149143Y0079619D01*
X0149201Y0079576D01*
X0149260Y0079526D01*
X0149312Y0079470D01*
X0149316Y0079467D01*
X0149325Y0079455D01*
X0149337Y0079436D01*
X0149356Y0079412D01*
X0149374Y0079381D01*
X0149399Y0079341D01*
X0149424Y0079294D01*
X0149448Y0079242D01*
X0149473Y0079180D01*
X0149498Y0079115D01*
X0149522Y0079041D01*
X0149541Y0078964D01*
X0149560Y0078877D01*
X0149572Y0078788D01*
X0149581Y0078689D01*
X0149584Y0078587D01*
Y0078377D01*
X0147811D01*
Y0078370D01*
Y0078358D01*
X0147814Y0078337D01*
X0147817Y0078309D01*
X0147820Y0078272D01*
X0147826Y0078231D01*
X0147832Y0078188D01*
X0147845Y0078139D01*
X0147872Y0078034D01*
X0147891Y0077981D01*
X0147913Y0077925D01*
X0147937Y0077873D01*
X0147965Y0077820D01*
X0147999Y0077774D01*
X0148036Y0077728D01*
X0148039Y0077725D01*
X0148046Y0077719D01*
X0148058Y0077706D01*
X0148076Y0077694D01*
X0148098Y0077675D01*
X0148126Y0077657D01*
X0148157Y0077635D01*
X0148191Y0077617D01*
X0148231Y0077595D01*
X0148277Y0077573D01*
X0148324Y0077555D01*
X0148379Y0077536D01*
X0148435Y0077524D01*
X0148497Y0077511D01*
X0148562Y0077505D01*
X0148629Y0077502D01*
X0148648D01*
X0148670Y0077505D01*
X0148701D01*
X0148738Y0077511D01*
X0148781Y0077518D01*
X0148830Y0077527D01*
X0148886Y0077536D01*
X0148945Y0077552D01*
X0149006Y0077570D01*
X0149071Y0077592D01*
X0149136Y0077620D01*
X0149204Y0077650D01*
X0149272Y0077688D01*
X0149340Y0077731D01*
X0149408Y0077780D01*
Y0077403D01*
X0149405Y0077400D01*
X0149393Y0077394D01*
X0149374Y0077382D01*
X0149349Y0077366D01*
X0149316Y0077348D01*
X0149275Y0077329D01*
X0149229Y0077307D01*
X0149176Y0077286D01*
X0149115Y0077261D01*
X0149050Y0077240D01*
X0148979Y0077221D01*
X0148901Y0077202D01*
X0148818Y0077187D01*
X0148728Y0077175D01*
X0148633Y0077168D01*
X0148534Y0077165D01*
X0148509D01*
X0148484Y0077168D01*
X0148447Y0077171D01*
X0148401Y0077175D01*
X0148348Y0077184D01*
X0148293Y0077193D01*
X0148231Y0077209D01*
X0148166Y0077227D01*
X0148098Y0077249D01*
X0148027Y0077277D01*
X0147959Y0077307D01*
X0147888Y0077348D01*
X0147823Y0077394D01*
X0147758Y0077447D01*
X0147699Y0077505D01*
X0147696Y0077508D01*
X0147687Y0077521D01*
X0147672Y0077542D01*
X0147653Y0077570D01*
X0147628Y0077604D01*
X0147604Y0077647D01*
X0147576Y0077697D01*
X0147548Y0077756D01*
X0147520Y0077817D01*
X0147492Y0077891D01*
X0147468Y0077969D01*
X0147443Y0078055D01*
X0147424Y0078148D01*
X0147409Y0078247D01*
X0147400Y0078355D01*
X0147397Y0078466D01*
Y0078469D01*
Y0078472D01*
Y0078482D01*
Y0078491D01*
X0147400Y0078522D01*
X0147403Y0078565D01*
X0147406Y0078615D01*
X0147415Y0078670D01*
X0147424Y0078735D01*
X0147437Y0078806D01*
X0147455Y0078880D01*
X0147477Y0078958D01*
X0147505Y0079038D01*
X0147536Y0079118D01*
X0147573Y0079195D01*
X0147619Y0079276D01*
X0147669Y0079350D01*
X0147727Y0079421D01*
X0147730Y0079424D01*
X0147743Y0079436D01*
X0147761Y0079455D01*
X0147786Y0079480D01*
X0147820Y0079508D01*
X0147860Y0079539D01*
X0147903Y0079572D01*
X0147956Y0079606D01*
X0148012Y0079640D01*
X0148076Y0079674D01*
X0148144Y0079705D01*
X0148215Y0079733D01*
X0148293Y0079758D01*
X0148376Y0079776D01*
X0148463Y0079789D01*
X0148552Y0079792D01*
X0148574D01*
X0148599Y0079789D01*
D02*
G37*
G36*
X0135556Y0080793D02*
X0135577D01*
X0135599Y0080790D01*
X0135627D01*
X0135689Y0080781D01*
X0135760Y0080771D01*
X0135840Y0080756D01*
X0135926Y0080734D01*
X0136016Y0080710D01*
X0136112Y0080676D01*
X0136208Y0080635D01*
X0136307Y0080589D01*
X0136406Y0080533D01*
X0136498Y0080469D01*
X0136591Y0080391D01*
X0136677Y0080305D01*
X0136684Y0080299D01*
X0136696Y0080283D01*
X0136718Y0080255D01*
X0136749Y0080215D01*
X0136779Y0080166D01*
X0136820Y0080107D01*
X0136860Y0080039D01*
X0136900Y0079962D01*
X0136940Y0079872D01*
X0136980Y0079776D01*
X0137020Y0079671D01*
X0137054Y0079557D01*
X0137082Y0079433D01*
X0137104Y0079304D01*
X0137116Y0079168D01*
X0137122Y0079023D01*
Y0079019D01*
Y0079013D01*
Y0079001D01*
Y0078985D01*
X0137119Y0078964D01*
Y0078939D01*
X0137116Y0078911D01*
Y0078880D01*
X0137113Y0078846D01*
X0137110Y0078809D01*
X0137098Y0078726D01*
X0137085Y0078630D01*
X0137067Y0078531D01*
X0137042Y0078423D01*
X0137011Y0078312D01*
X0136974Y0078201D01*
X0136931Y0078086D01*
X0136878Y0077975D01*
X0136817Y0077864D01*
X0136745Y0077762D01*
X0136665Y0077663D01*
X0136659Y0077657D01*
X0136643Y0077641D01*
X0136619Y0077617D01*
X0136582Y0077586D01*
X0136535Y0077548D01*
X0136480Y0077505D01*
X0136418Y0077462D01*
X0136344Y0077416D01*
X0136260Y0077369D01*
X0136168Y0077323D01*
X0136069Y0077280D01*
X0135960Y0077243D01*
X0135843Y0077212D01*
X0135720Y0077187D01*
X0135587Y0077171D01*
X0135448Y0077165D01*
X0135414D01*
X0135398Y0077168D01*
X0135377D01*
X0135352Y0077171D01*
X0135324Y0077175D01*
X0135259Y0077181D01*
X0135188Y0077190D01*
X0135105Y0077205D01*
X0135018Y0077227D01*
X0134922Y0077252D01*
X0134827Y0077286D01*
X0134728Y0077326D01*
X0134626Y0077372D01*
X0134527Y0077428D01*
X0134431Y0077496D01*
X0134335Y0077570D01*
X0134249Y0077657D01*
X0134242Y0077663D01*
X0134230Y0077678D01*
X0134209Y0077706D01*
X0134178Y0077746D01*
X0134144Y0077796D01*
X0134107Y0077854D01*
X0134066Y0077922D01*
X0134026Y0078003D01*
X0133983Y0078089D01*
X0133943Y0078185D01*
X0133906Y0078290D01*
X0133872Y0078404D01*
X0133841Y0078528D01*
X0133819Y0078658D01*
X0133807Y0078794D01*
X0133801Y0078939D01*
Y0078942D01*
Y0078948D01*
Y0078961D01*
Y0078976D01*
X0133804Y0078998D01*
Y0079019D01*
X0133807Y0079047D01*
Y0079078D01*
X0133810Y0079112D01*
X0133816Y0079152D01*
X0133825Y0079233D01*
X0133838Y0079325D01*
X0133859Y0079424D01*
X0133881Y0079532D01*
X0133912Y0079640D01*
X0133949Y0079752D01*
X0133992Y0079866D01*
X0134045Y0079977D01*
X0134107Y0080085D01*
X0134178Y0080190D01*
X0134258Y0080289D01*
X0134264Y0080295D01*
X0134280Y0080311D01*
X0134304Y0080336D01*
X0134341Y0080370D01*
X0134388Y0080407D01*
X0134446Y0080450D01*
X0134511Y0080496D01*
X0134585Y0080543D01*
X0134672Y0080589D01*
X0134765Y0080635D01*
X0134867Y0080679D01*
X0134978Y0080716D01*
X0135098Y0080750D01*
X0135225Y0080774D01*
X0135361Y0080790D01*
X0135506Y0080796D01*
X0135537D01*
X0135556Y0080793D01*
D02*
G37*
G36*
X0123570Y0079789D02*
X0123610Y0079786D01*
X0123656Y0079783D01*
X0123712Y0079773D01*
X0123770Y0079764D01*
X0123835Y0079749D01*
X0123906Y0079730D01*
X0123977Y0079708D01*
X0124049Y0079681D01*
X0124123Y0079647D01*
X0124194Y0079606D01*
X0124265Y0079560D01*
X0124330Y0079508D01*
X0124392Y0079446D01*
X0124395Y0079443D01*
X0124404Y0079430D01*
X0124419Y0079409D01*
X0124441Y0079381D01*
X0124466Y0079347D01*
X0124490Y0079304D01*
X0124521Y0079254D01*
X0124549Y0079195D01*
X0124580Y0079131D01*
X0124608Y0079059D01*
X0124633Y0078982D01*
X0124657Y0078896D01*
X0124679Y0078803D01*
X0124694Y0078704D01*
X0124704Y0078599D01*
X0124707Y0078488D01*
Y0078485D01*
Y0078482D01*
Y0078472D01*
Y0078460D01*
X0124704Y0078429D01*
X0124701Y0078389D01*
X0124697Y0078337D01*
X0124688Y0078278D01*
X0124679Y0078213D01*
X0124663Y0078142D01*
X0124645Y0078068D01*
X0124623Y0077987D01*
X0124595Y0077907D01*
X0124565Y0077827D01*
X0124524Y0077746D01*
X0124478Y0077669D01*
X0124425Y0077595D01*
X0124367Y0077524D01*
X0124364Y0077521D01*
X0124351Y0077508D01*
X0124333Y0077490D01*
X0124305Y0077468D01*
X0124271Y0077440D01*
X0124231Y0077409D01*
X0124181Y0077379D01*
X0124126Y0077345D01*
X0124064Y0077311D01*
X0123996Y0077280D01*
X0123922Y0077249D01*
X0123842Y0077221D01*
X0123752Y0077199D01*
X0123659Y0077181D01*
X0123563Y0077168D01*
X0123458Y0077165D01*
X0123434D01*
X0123406Y0077168D01*
X0123366Y0077171D01*
X0123319Y0077175D01*
X0123264Y0077184D01*
X0123205Y0077193D01*
X0123140Y0077209D01*
X0123069Y0077227D01*
X0122998Y0077252D01*
X0122924Y0077280D01*
X0122850Y0077314D01*
X0122775Y0077354D01*
X0122701Y0077400D01*
X0122633Y0077453D01*
X0122569Y0077514D01*
X0122565Y0077518D01*
X0122553Y0077530D01*
X0122538Y0077552D01*
X0122516Y0077579D01*
X0122491Y0077613D01*
X0122463Y0077657D01*
X0122436Y0077706D01*
X0122405Y0077765D01*
X0122374Y0077827D01*
X0122343Y0077898D01*
X0122315Y0077975D01*
X0122290Y0078058D01*
X0122269Y0078145D01*
X0122253Y0078241D01*
X0122241Y0078343D01*
X0122238Y0078448D01*
Y0078451D01*
Y0078454D01*
Y0078463D01*
Y0078475D01*
X0122241Y0078509D01*
X0122244Y0078553D01*
X0122247Y0078605D01*
X0122256Y0078667D01*
X0122266Y0078735D01*
X0122281Y0078809D01*
X0122300Y0078886D01*
X0122321Y0078967D01*
X0122349Y0079050D01*
X0122383Y0079134D01*
X0122423Y0079214D01*
X0122467Y0079291D01*
X0122519Y0079365D01*
X0122581Y0079436D01*
X0122584Y0079440D01*
X0122596Y0079452D01*
X0122618Y0079470D01*
X0122646Y0079492D01*
X0122680Y0079520D01*
X0122723Y0079548D01*
X0122772Y0079582D01*
X0122828Y0079616D01*
X0122890Y0079647D01*
X0122961Y0079681D01*
X0123038Y0079708D01*
X0123122Y0079736D01*
X0123211Y0079758D01*
X0123307Y0079776D01*
X0123409Y0079789D01*
X0123517Y0079792D01*
X0123542D01*
X0123570Y0079789D01*
D02*
G37*
G36*
X0126789Y0063194D02*
X0126823Y0063191D01*
X0126864Y0063188D01*
X0126910Y0063178D01*
X0126962Y0063169D01*
X0127021Y0063154D01*
X0127080Y0063135D01*
X0127142Y0063114D01*
X0127204Y0063086D01*
X0127268Y0063055D01*
X0127330Y0063015D01*
X0127389Y0062968D01*
X0127448Y0062916D01*
X0127500Y0062857D01*
X0127503Y0062854D01*
X0127513Y0062842D01*
X0127525Y0062823D01*
X0127543Y0062795D01*
X0127562Y0062761D01*
X0127587Y0062721D01*
X0127611Y0062672D01*
X0127636Y0062619D01*
X0127661Y0062557D01*
X0127685Y0062489D01*
X0127710Y0062415D01*
X0127729Y0062335D01*
X0127747Y0062248D01*
X0127760Y0062156D01*
X0127769Y0062057D01*
X0127772Y0061955D01*
Y0061952D01*
Y0061949D01*
Y0061939D01*
Y0061927D01*
X0127769Y0061893D01*
X0127766Y0061850D01*
X0127763Y0061797D01*
X0127757Y0061735D01*
X0127747Y0061667D01*
X0127735Y0061593D01*
X0127716Y0061516D01*
X0127698Y0061433D01*
X0127673Y0061349D01*
X0127642Y0061266D01*
X0127608Y0061182D01*
X0127568Y0061099D01*
X0127519Y0061022D01*
X0127466Y0060948D01*
X0127463Y0060944D01*
X0127451Y0060932D01*
X0127435Y0060913D01*
X0127410Y0060889D01*
X0127380Y0060861D01*
X0127342Y0060827D01*
X0127296Y0060793D01*
X0127247Y0060759D01*
X0127191Y0060725D01*
X0127126Y0060691D01*
X0127058Y0060657D01*
X0126984Y0060629D01*
X0126904Y0060605D01*
X0126817Y0060586D01*
X0126725Y0060574D01*
X0126629Y0060571D01*
X0126607D01*
X0126582Y0060574D01*
X0126548Y0060577D01*
X0126508Y0060583D01*
X0126462Y0060592D01*
X0126409Y0060605D01*
X0126351Y0060623D01*
X0126292Y0060645D01*
X0126230Y0060672D01*
X0126168Y0060706D01*
X0126103Y0060747D01*
X0126042Y0060796D01*
X0125983Y0060852D01*
X0125927Y0060917D01*
X0125875Y0060991D01*
X0125865D01*
Y0059477D01*
X0125464D01*
Y0063138D01*
X0125865D01*
Y0062696D01*
X0125875D01*
X0125878Y0062703D01*
X0125890Y0062718D01*
X0125906Y0062743D01*
X0125930Y0062774D01*
X0125961Y0062814D01*
X0125998Y0062854D01*
X0126045Y0062900D01*
X0126094Y0062947D01*
X0126153Y0062993D01*
X0126218Y0063039D01*
X0126289Y0063080D01*
X0126366Y0063120D01*
X0126450Y0063151D01*
X0126542Y0063175D01*
X0126638Y0063191D01*
X0126743Y0063197D01*
X0126765D01*
X0126789Y0063194D01*
D02*
G37*
G36*
X0139724Y0063178D02*
X0139758D01*
X0139795Y0063172D01*
X0139835Y0063166D01*
X0139875Y0063160D01*
X0139910Y0063148D01*
Y0062730D01*
X0139903Y0062734D01*
X0139891Y0062743D01*
X0139866Y0062755D01*
X0139832Y0062771D01*
X0139786Y0062786D01*
X0139736Y0062798D01*
X0139675Y0062808D01*
X0139604Y0062811D01*
X0139579D01*
X0139560Y0062808D01*
X0139539Y0062805D01*
X0139514Y0062798D01*
X0139455Y0062780D01*
X0139421Y0062767D01*
X0139387Y0062752D01*
X0139350Y0062730D01*
X0139313Y0062709D01*
X0139279Y0062681D01*
X0139242Y0062647D01*
X0139208Y0062610D01*
X0139174Y0062567D01*
X0139171Y0062564D01*
X0139168Y0062554D01*
X0139159Y0062542D01*
X0139146Y0062523D01*
X0139134Y0062499D01*
X0139119Y0062468D01*
X0139103Y0062434D01*
X0139088Y0062394D01*
X0139072Y0062350D01*
X0139057Y0062301D01*
X0139041Y0062245D01*
X0139029Y0062187D01*
X0139016Y0062122D01*
X0139007Y0062054D01*
X0139004Y0061983D01*
X0139001Y0061905D01*
Y0060629D01*
X0138599D01*
Y0063138D01*
X0139001D01*
Y0062619D01*
X0139010D01*
Y0062622D01*
X0139013Y0062631D01*
X0139020Y0062644D01*
X0139026Y0062662D01*
X0139035Y0062684D01*
X0139047Y0062712D01*
X0139075Y0062771D01*
X0139112Y0062839D01*
X0139159Y0062906D01*
X0139211Y0062971D01*
X0139273Y0063033D01*
X0139276Y0063036D01*
X0139282Y0063039D01*
X0139292Y0063046D01*
X0139304Y0063058D01*
X0139319Y0063067D01*
X0139341Y0063080D01*
X0139387Y0063107D01*
X0139446Y0063135D01*
X0139514Y0063160D01*
X0139588Y0063175D01*
X0139628Y0063178D01*
X0139669Y0063182D01*
X0139693D01*
X0139724Y0063178D01*
D02*
G37*
G36*
X0144956Y0060228D02*
Y0060224D01*
X0144952Y0060218D01*
X0144946Y0060209D01*
X0144940Y0060194D01*
X0144934Y0060175D01*
X0144925Y0060156D01*
X0144900Y0060107D01*
X0144866Y0060048D01*
X0144829Y0059980D01*
X0144782Y0059912D01*
X0144730Y0059838D01*
X0144671Y0059767D01*
X0144606Y0059696D01*
X0144535Y0059628D01*
X0144458Y0059569D01*
X0144375Y0059520D01*
X0144331Y0059501D01*
X0144285Y0059483D01*
X0144239Y0059467D01*
X0144189Y0059458D01*
X0144140Y0059452D01*
X0144087Y0059449D01*
X0144062D01*
X0144032Y0059452D01*
X0143994D01*
X0143954Y0059458D01*
X0143911Y0059464D01*
X0143865Y0059470D01*
X0143825Y0059483D01*
Y0059841D01*
X0143831Y0059838D01*
X0143846Y0059835D01*
X0143871Y0059829D01*
X0143902Y0059820D01*
X0143939Y0059810D01*
X0143979Y0059804D01*
X0144022Y0059801D01*
X0144062Y0059798D01*
X0144075D01*
X0144090Y0059801D01*
X0144112Y0059804D01*
X0144137Y0059810D01*
X0144168Y0059816D01*
X0144199Y0059829D01*
X0144236Y0059844D01*
X0144270Y0059863D01*
X0144310Y0059888D01*
X0144347Y0059915D01*
X0144384Y0059949D01*
X0144421Y0059993D01*
X0144458Y0060039D01*
X0144489Y0060095D01*
X0144520Y0060159D01*
X0144721Y0060632D01*
X0143741Y0063138D01*
X0144186D01*
X0144866Y0061207D01*
Y0061204D01*
X0144869Y0061198D01*
X0144872Y0061189D01*
X0144878Y0061170D01*
X0144884Y0061145D01*
X0144891Y0061111D01*
X0144903Y0061068D01*
X0144915Y0061015D01*
X0144931D01*
Y0061019D01*
X0144934Y0061028D01*
X0144937Y0061040D01*
X0144943Y0061062D01*
X0144949Y0061086D01*
X0144956Y0061117D01*
X0144968Y0061158D01*
X0144980Y0061201D01*
X0145694Y0063138D01*
X0146108D01*
X0144956Y0060228D01*
D02*
G37*
G36*
X0134545Y0060629D02*
X0134150D01*
X0133201Y0063138D01*
X0133640D01*
X0134280Y0061315D01*
Y0061312D01*
X0134283Y0061306D01*
X0134286Y0061297D01*
X0134292Y0061281D01*
X0134298Y0061263D01*
X0134304Y0061244D01*
X0134317Y0061195D01*
X0134332Y0061142D01*
X0134347Y0061083D01*
X0134357Y0061022D01*
X0134366Y0060963D01*
X0134375D01*
Y0060966D01*
Y0060972D01*
X0134378Y0060982D01*
X0134381Y0060994D01*
Y0061012D01*
X0134388Y0061031D01*
X0134394Y0061077D01*
X0134406Y0061130D01*
X0134419Y0061185D01*
X0134437Y0061244D01*
X0134456Y0061303D01*
X0135120Y0063138D01*
X0135543D01*
X0134545Y0060629D01*
D02*
G37*
G36*
X0142508Y0063194D02*
X0142530D01*
X0142552Y0063191D01*
X0142579Y0063188D01*
X0142610Y0063182D01*
X0142675Y0063169D01*
X0142752Y0063148D01*
X0142830Y0063120D01*
X0142913Y0063080D01*
X0142997Y0063030D01*
X0143037Y0063002D01*
X0143077Y0062968D01*
X0143114Y0062931D01*
X0143151Y0062894D01*
X0143185Y0062851D01*
X0143216Y0062801D01*
X0143247Y0062752D01*
X0143274Y0062696D01*
X0143296Y0062635D01*
X0143318Y0062570D01*
X0143333Y0062502D01*
X0143346Y0062424D01*
X0143352Y0062347D01*
X0143355Y0062261D01*
Y0060629D01*
X0142953D01*
Y0061019D01*
X0142944D01*
X0142941Y0061012D01*
X0142932Y0061000D01*
X0142916Y0060978D01*
X0142894Y0060948D01*
X0142867Y0060913D01*
X0142833Y0060876D01*
X0142796Y0060836D01*
X0142749Y0060796D01*
X0142697Y0060753D01*
X0142641Y0060713D01*
X0142576Y0060676D01*
X0142508Y0060642D01*
X0142431Y0060611D01*
X0142351Y0060589D01*
X0142264Y0060577D01*
X0142171Y0060571D01*
X0142134D01*
X0142110Y0060574D01*
X0142079Y0060577D01*
X0142042Y0060580D01*
X0142001Y0060586D01*
X0141958Y0060595D01*
X0141862Y0060620D01*
X0141816Y0060635D01*
X0141767Y0060654D01*
X0141717Y0060676D01*
X0141671Y0060703D01*
X0141628Y0060734D01*
X0141584Y0060768D01*
X0141581Y0060771D01*
X0141575Y0060777D01*
X0141566Y0060790D01*
X0141550Y0060805D01*
X0141535Y0060824D01*
X0141519Y0060849D01*
X0141498Y0060876D01*
X0141479Y0060907D01*
X0141461Y0060944D01*
X0141442Y0060985D01*
X0141424Y0061028D01*
X0141408Y0061074D01*
X0141393Y0061124D01*
X0141384Y0061176D01*
X0141377Y0061235D01*
X0141374Y0061294D01*
Y0061297D01*
Y0061303D01*
Y0061312D01*
X0141377Y0061325D01*
Y0061340D01*
X0141380Y0061358D01*
X0141387Y0061405D01*
X0141399Y0061460D01*
X0141418Y0061522D01*
X0141442Y0061590D01*
X0141479Y0061661D01*
X0141523Y0061732D01*
X0141575Y0061803D01*
X0141609Y0061837D01*
X0141643Y0061871D01*
X0141683Y0061905D01*
X0141723Y0061936D01*
X0141770Y0061967D01*
X0141819Y0061995D01*
X0141872Y0062020D01*
X0141930Y0062044D01*
X0141992Y0062066D01*
X0142057Y0062085D01*
X0142128Y0062100D01*
X0142202Y0062112D01*
X0142953Y0062217D01*
Y0062221D01*
Y0062224D01*
Y0062233D01*
Y0062245D01*
X0142950Y0062276D01*
X0142944Y0062316D01*
X0142938Y0062366D01*
X0142925Y0062421D01*
X0142910Y0062477D01*
X0142888Y0062539D01*
X0142860Y0062598D01*
X0142826Y0062656D01*
X0142786Y0062709D01*
X0142737Y0062758D01*
X0142675Y0062798D01*
X0142607Y0062829D01*
X0142570Y0062842D01*
X0142527Y0062851D01*
X0142483Y0062854D01*
X0142437Y0062857D01*
X0142415D01*
X0142394Y0062854D01*
X0142360Y0062851D01*
X0142320Y0062848D01*
X0142273Y0062842D01*
X0142221Y0062832D01*
X0142165Y0062820D01*
X0142103Y0062801D01*
X0142039Y0062783D01*
X0141971Y0062758D01*
X0141900Y0062727D01*
X0141828Y0062690D01*
X0141757Y0062650D01*
X0141686Y0062604D01*
X0141618Y0062548D01*
Y0062959D01*
X0141621Y0062962D01*
X0141634Y0062968D01*
X0141655Y0062981D01*
X0141683Y0062996D01*
X0141720Y0063015D01*
X0141760Y0063033D01*
X0141810Y0063055D01*
X0141866Y0063080D01*
X0141924Y0063101D01*
X0141989Y0063123D01*
X0142060Y0063141D01*
X0142134Y0063160D01*
X0142215Y0063175D01*
X0142295Y0063188D01*
X0142382Y0063194D01*
X0142471Y0063197D01*
X0142493D01*
X0142508Y0063194D01*
D02*
G37*
G36*
X0140747Y0060629D02*
X0140345D01*
Y0064343D01*
X0140747D01*
Y0060629D01*
D02*
G37*
G36*
X0122025Y0063769D02*
X0121011D01*
Y0060629D01*
X0120600D01*
Y0063769D01*
X0119587D01*
Y0064143D01*
X0122025D01*
Y0063769D01*
D02*
G37*
G36*
X0137008Y0063194D02*
X0137042Y0063191D01*
X0137085Y0063188D01*
X0137132Y0063182D01*
X0137184Y0063169D01*
X0137240Y0063157D01*
X0137302Y0063141D01*
X0137363Y0063120D01*
X0137425Y0063092D01*
X0137490Y0063061D01*
X0137552Y0063024D01*
X0137611Y0062981D01*
X0137669Y0062931D01*
X0137722Y0062876D01*
X0137725Y0062872D01*
X0137734Y0062860D01*
X0137747Y0062842D01*
X0137765Y0062817D01*
X0137784Y0062786D01*
X0137808Y0062746D01*
X0137833Y0062700D01*
X0137858Y0062647D01*
X0137882Y0062585D01*
X0137907Y0062520D01*
X0137932Y0062446D01*
X0137951Y0062369D01*
X0137969Y0062282D01*
X0137981Y0062193D01*
X0137991Y0062094D01*
X0137994Y0061992D01*
Y0061782D01*
X0136220D01*
Y0061776D01*
Y0061763D01*
X0136223Y0061742D01*
X0136226Y0061714D01*
X0136229Y0061677D01*
X0136235Y0061637D01*
X0136242Y0061593D01*
X0136254Y0061544D01*
X0136282Y0061439D01*
X0136300Y0061386D01*
X0136322Y0061331D01*
X0136347Y0061278D01*
X0136375Y0061226D01*
X0136409Y0061179D01*
X0136446Y0061133D01*
X0136449Y0061130D01*
X0136455Y0061124D01*
X0136467Y0061111D01*
X0136486Y0061099D01*
X0136507Y0061080D01*
X0136535Y0061062D01*
X0136566Y0061040D01*
X0136600Y0061022D01*
X0136640Y0061000D01*
X0136687Y0060978D01*
X0136733Y0060960D01*
X0136789Y0060941D01*
X0136844Y0060929D01*
X0136906Y0060917D01*
X0136971Y0060910D01*
X0137039Y0060907D01*
X0137057D01*
X0137079Y0060910D01*
X0137110D01*
X0137147Y0060917D01*
X0137190Y0060923D01*
X0137240Y0060932D01*
X0137295Y0060941D01*
X0137354Y0060957D01*
X0137416Y0060975D01*
X0137481Y0060997D01*
X0137546Y0061025D01*
X0137614Y0061056D01*
X0137682Y0061093D01*
X0137750Y0061136D01*
X0137818Y0061185D01*
Y0060808D01*
X0137814Y0060805D01*
X0137802Y0060799D01*
X0137784Y0060787D01*
X0137759Y0060771D01*
X0137725Y0060753D01*
X0137685Y0060734D01*
X0137638Y0060713D01*
X0137586Y0060691D01*
X0137524Y0060666D01*
X0137459Y0060645D01*
X0137388Y0060626D01*
X0137311Y0060608D01*
X0137227Y0060592D01*
X0137138Y0060580D01*
X0137042Y0060574D01*
X0136943Y0060571D01*
X0136918D01*
X0136894Y0060574D01*
X0136857Y0060577D01*
X0136810Y0060580D01*
X0136758Y0060589D01*
X0136702Y0060598D01*
X0136640Y0060614D01*
X0136575Y0060632D01*
X0136507Y0060654D01*
X0136436Y0060682D01*
X0136368Y0060713D01*
X0136297Y0060753D01*
X0136232Y0060799D01*
X0136168Y0060852D01*
X0136109Y0060910D01*
X0136106Y0060913D01*
X0136097Y0060926D01*
X0136081Y0060948D01*
X0136063Y0060975D01*
X0136038Y0061009D01*
X0136013Y0061053D01*
X0135985Y0061102D01*
X0135957Y0061161D01*
X0135930Y0061222D01*
X0135902Y0061297D01*
X0135877Y0061374D01*
X0135852Y0061460D01*
X0135834Y0061553D01*
X0135818Y0061652D01*
X0135809Y0061760D01*
X0135806Y0061871D01*
Y0061875D01*
Y0061878D01*
Y0061887D01*
Y0061896D01*
X0135809Y0061927D01*
X0135812Y0061970D01*
X0135815Y0062020D01*
X0135825Y0062075D01*
X0135834Y0062140D01*
X0135846Y0062211D01*
X0135865Y0062285D01*
X0135886Y0062363D01*
X0135914Y0062443D01*
X0135945Y0062523D01*
X0135982Y0062601D01*
X0136029Y0062681D01*
X0136078Y0062755D01*
X0136137Y0062826D01*
X0136140Y0062829D01*
X0136152Y0062842D01*
X0136171Y0062860D01*
X0136195Y0062885D01*
X0136229Y0062913D01*
X0136269Y0062944D01*
X0136313Y0062978D01*
X0136365Y0063012D01*
X0136421Y0063046D01*
X0136486Y0063080D01*
X0136554Y0063111D01*
X0136625Y0063138D01*
X0136702Y0063163D01*
X0136785Y0063182D01*
X0136872Y0063194D01*
X0136962Y0063197D01*
X0136983D01*
X0137008Y0063194D01*
D02*
G37*
G36*
X0131369Y0064198D02*
X0131390D01*
X0131412Y0064195D01*
X0131440D01*
X0131502Y0064186D01*
X0131573Y0064176D01*
X0131653Y0064161D01*
X0131740Y0064139D01*
X0131829Y0064115D01*
X0131925Y0064081D01*
X0132021Y0064041D01*
X0132120Y0063994D01*
X0132219Y0063939D01*
X0132311Y0063874D01*
X0132404Y0063797D01*
X0132491Y0063710D01*
X0132497Y0063704D01*
X0132509Y0063688D01*
X0132531Y0063661D01*
X0132562Y0063620D01*
X0132592Y0063571D01*
X0132633Y0063512D01*
X0132673Y0063444D01*
X0132713Y0063367D01*
X0132753Y0063277D01*
X0132793Y0063182D01*
X0132833Y0063077D01*
X0132867Y0062962D01*
X0132895Y0062839D01*
X0132917Y0062709D01*
X0132929Y0062573D01*
X0132935Y0062428D01*
Y0062424D01*
Y0062418D01*
Y0062406D01*
Y0062391D01*
X0132932Y0062369D01*
Y0062344D01*
X0132929Y0062316D01*
Y0062285D01*
X0132926Y0062251D01*
X0132923Y0062214D01*
X0132911Y0062131D01*
X0132898Y0062035D01*
X0132880Y0061936D01*
X0132855Y0061828D01*
X0132824Y0061717D01*
X0132787Y0061606D01*
X0132744Y0061491D01*
X0132691Y0061380D01*
X0132630Y0061269D01*
X0132558Y0061167D01*
X0132478Y0061068D01*
X0132472Y0061062D01*
X0132457Y0061046D01*
X0132432Y0061022D01*
X0132395Y0060991D01*
X0132348Y0060954D01*
X0132293Y0060910D01*
X0132231Y0060867D01*
X0132157Y0060821D01*
X0132073Y0060774D01*
X0131981Y0060728D01*
X0131882Y0060685D01*
X0131774Y0060648D01*
X0131656Y0060617D01*
X0131533Y0060592D01*
X0131400Y0060577D01*
X0131261Y0060571D01*
X0131227D01*
X0131211Y0060574D01*
X0131190D01*
X0131165Y0060577D01*
X0131137Y0060580D01*
X0131072Y0060586D01*
X0131001Y0060595D01*
X0130918Y0060611D01*
X0130831Y0060632D01*
X0130735Y0060657D01*
X0130640Y0060691D01*
X0130541Y0060731D01*
X0130439Y0060777D01*
X0130340Y0060833D01*
X0130244Y0060901D01*
X0130148Y0060975D01*
X0130062Y0061062D01*
X0130055Y0061068D01*
X0130043Y0061083D01*
X0130022Y0061111D01*
X0129991Y0061151D01*
X0129957Y0061201D01*
X0129920Y0061260D01*
X0129879Y0061327D01*
X0129839Y0061408D01*
X0129796Y0061494D01*
X0129756Y0061590D01*
X0129719Y0061695D01*
X0129685Y0061810D01*
X0129654Y0061933D01*
X0129632Y0062063D01*
X0129620Y0062199D01*
X0129614Y0062344D01*
Y0062347D01*
Y0062353D01*
Y0062366D01*
Y0062381D01*
X0129617Y0062403D01*
Y0062424D01*
X0129620Y0062452D01*
Y0062483D01*
X0129623Y0062517D01*
X0129629Y0062557D01*
X0129638Y0062638D01*
X0129651Y0062730D01*
X0129672Y0062829D01*
X0129694Y0062937D01*
X0129725Y0063046D01*
X0129762Y0063157D01*
X0129805Y0063271D01*
X0129858Y0063382D01*
X0129920Y0063490D01*
X0129991Y0063596D01*
X0130071Y0063695D01*
X0130077Y0063701D01*
X0130093Y0063716D01*
X0130117Y0063741D01*
X0130154Y0063775D01*
X0130201Y0063812D01*
X0130260Y0063855D01*
X0130324Y0063902D01*
X0130398Y0063948D01*
X0130485Y0063994D01*
X0130578Y0064041D01*
X0130680Y0064084D01*
X0130791Y0064121D01*
X0130912Y0064155D01*
X0131038Y0064180D01*
X0131174Y0064195D01*
X0131319Y0064201D01*
X0131350D01*
X0131369Y0064198D01*
D02*
G37*
G36*
X0123684Y0063194D02*
X0123724Y0063191D01*
X0123770Y0063188D01*
X0123826Y0063178D01*
X0123885Y0063169D01*
X0123950Y0063154D01*
X0124021Y0063135D01*
X0124092Y0063114D01*
X0124163Y0063086D01*
X0124237Y0063052D01*
X0124308Y0063012D01*
X0124379Y0062965D01*
X0124444Y0062913D01*
X0124506Y0062851D01*
X0124509Y0062848D01*
X0124518Y0062836D01*
X0124534Y0062814D01*
X0124555Y0062786D01*
X0124580Y0062752D01*
X0124605Y0062709D01*
X0124636Y0062659D01*
X0124663Y0062601D01*
X0124694Y0062536D01*
X0124722Y0062465D01*
X0124747Y0062387D01*
X0124772Y0062301D01*
X0124793Y0062208D01*
X0124809Y0062109D01*
X0124818Y0062004D01*
X0124821Y0061893D01*
Y0061890D01*
Y0061887D01*
Y0061878D01*
Y0061865D01*
X0124818Y0061834D01*
X0124815Y0061794D01*
X0124812Y0061742D01*
X0124802Y0061683D01*
X0124793Y0061618D01*
X0124778Y0061547D01*
X0124759Y0061473D01*
X0124738Y0061392D01*
X0124710Y0061312D01*
X0124679Y0061232D01*
X0124639Y0061151D01*
X0124592Y0061074D01*
X0124540Y0061000D01*
X0124481Y0060929D01*
X0124478Y0060926D01*
X0124466Y0060913D01*
X0124447Y0060895D01*
X0124419Y0060873D01*
X0124385Y0060846D01*
X0124345Y0060815D01*
X0124296Y0060784D01*
X0124240Y0060750D01*
X0124178Y0060716D01*
X0124110Y0060685D01*
X0124036Y0060654D01*
X0123956Y0060626D01*
X0123866Y0060605D01*
X0123774Y0060586D01*
X0123678Y0060574D01*
X0123573Y0060571D01*
X0123548D01*
X0123520Y0060574D01*
X0123480Y0060577D01*
X0123434Y0060580D01*
X0123378Y0060589D01*
X0123319Y0060598D01*
X0123254Y0060614D01*
X0123183Y0060632D01*
X0123112Y0060657D01*
X0123038Y0060685D01*
X0122964Y0060719D01*
X0122890Y0060759D01*
X0122816Y0060805D01*
X0122748Y0060858D01*
X0122683Y0060920D01*
X0122680Y0060923D01*
X0122667Y0060935D01*
X0122652Y0060957D01*
X0122630Y0060985D01*
X0122606Y0061019D01*
X0122578Y0061062D01*
X0122550Y0061111D01*
X0122519Y0061170D01*
X0122488Y0061232D01*
X0122457Y0061303D01*
X0122429Y0061380D01*
X0122405Y0061463D01*
X0122383Y0061550D01*
X0122368Y0061646D01*
X0122355Y0061748D01*
X0122352Y0061853D01*
Y0061856D01*
Y0061859D01*
Y0061868D01*
Y0061881D01*
X0122355Y0061915D01*
X0122358Y0061958D01*
X0122361Y0062010D01*
X0122371Y0062072D01*
X0122380Y0062140D01*
X0122395Y0062214D01*
X0122414Y0062292D01*
X0122436Y0062372D01*
X0122463Y0062455D01*
X0122497Y0062539D01*
X0122538Y0062619D01*
X0122581Y0062696D01*
X0122633Y0062771D01*
X0122695Y0062842D01*
X0122698Y0062845D01*
X0122711Y0062857D01*
X0122732Y0062876D01*
X0122760Y0062897D01*
X0122794Y0062925D01*
X0122837Y0062953D01*
X0122887Y0062987D01*
X0122942Y0063021D01*
X0123004Y0063052D01*
X0123075Y0063086D01*
X0123152Y0063114D01*
X0123236Y0063141D01*
X0123326Y0063163D01*
X0123421Y0063182D01*
X0123523Y0063194D01*
X0123631Y0063197D01*
X0123656D01*
X0123684Y0063194D01*
D02*
G37*
%LPC*%
G36*
X0130677Y0079452D02*
X0130661D01*
X0130643Y0079449D01*
X0130615D01*
X0130584Y0079443D01*
X0130550Y0079436D01*
X0130510Y0079430D01*
X0130466Y0079418D01*
X0130420Y0079406D01*
X0130374Y0079387D01*
X0130327Y0079365D01*
X0130278Y0079338D01*
X0130232Y0079307D01*
X0130185Y0079273D01*
X0130139Y0079229D01*
X0130099Y0079183D01*
X0130096Y0079180D01*
X0130089Y0079171D01*
X0130080Y0079155D01*
X0130065Y0079134D01*
X0130049Y0079106D01*
X0130034Y0079072D01*
X0130012Y0079035D01*
X0129994Y0078988D01*
X0129975Y0078939D01*
X0129957Y0078883D01*
X0129938Y0078822D01*
X0129923Y0078757D01*
X0129907Y0078683D01*
X0129898Y0078608D01*
X0129892Y0078525D01*
X0129889Y0078438D01*
Y0078432D01*
Y0078420D01*
Y0078395D01*
X0129892Y0078367D01*
X0129895Y0078330D01*
X0129898Y0078287D01*
X0129904Y0078241D01*
X0129913Y0078188D01*
X0129938Y0078080D01*
X0129954Y0078021D01*
X0129972Y0077966D01*
X0129997Y0077910D01*
X0130025Y0077854D01*
X0130055Y0077802D01*
X0130089Y0077753D01*
X0130093Y0077749D01*
X0130099Y0077743D01*
X0130111Y0077731D01*
X0130127Y0077712D01*
X0130148Y0077694D01*
X0130173Y0077672D01*
X0130201Y0077650D01*
X0130235Y0077629D01*
X0130272Y0077604D01*
X0130312Y0077583D01*
X0130355Y0077561D01*
X0130405Y0077542D01*
X0130457Y0077527D01*
X0130513Y0077514D01*
X0130572Y0077505D01*
X0130633Y0077502D01*
X0130649D01*
X0130667Y0077505D01*
X0130689D01*
X0130717Y0077508D01*
X0130751Y0077514D01*
X0130788Y0077524D01*
X0130828Y0077533D01*
X0130871Y0077545D01*
X0130915Y0077561D01*
X0130961Y0077579D01*
X0131004Y0077604D01*
X0131051Y0077632D01*
X0131094Y0077663D01*
X0131137Y0077700D01*
X0131177Y0077743D01*
X0131180Y0077746D01*
X0131186Y0077756D01*
X0131196Y0077768D01*
X0131211Y0077786D01*
X0131227Y0077811D01*
X0131245Y0077839D01*
X0131264Y0077873D01*
X0131282Y0077913D01*
X0131301Y0077953D01*
X0131322Y0078000D01*
X0131338Y0078052D01*
X0131353Y0078105D01*
X0131369Y0078163D01*
X0131378Y0078225D01*
X0131384Y0078290D01*
X0131387Y0078358D01*
Y0078726D01*
Y0078729D01*
Y0078738D01*
Y0078757D01*
X0131384Y0078778D01*
X0131381Y0078803D01*
X0131378Y0078834D01*
X0131372Y0078868D01*
X0131363Y0078905D01*
X0131338Y0078985D01*
X0131322Y0079029D01*
X0131304Y0079072D01*
X0131279Y0079115D01*
X0131251Y0079158D01*
X0131220Y0079202D01*
X0131186Y0079242D01*
X0131183Y0079245D01*
X0131177Y0079251D01*
X0131165Y0079260D01*
X0131149Y0079276D01*
X0131131Y0079291D01*
X0131106Y0079310D01*
X0131078Y0079328D01*
X0131047Y0079347D01*
X0131013Y0079365D01*
X0130973Y0079387D01*
X0130933Y0079403D01*
X0130887Y0079418D01*
X0130837Y0079433D01*
X0130788Y0079443D01*
X0130732Y0079449D01*
X0130677Y0079452D01*
D02*
G37*
G36*
X0126743Y0078491D02*
X0126137Y0078408D01*
X0126134D01*
X0126125Y0078404D01*
X0126110D01*
X0126091Y0078401D01*
X0126069Y0078395D01*
X0126042Y0078389D01*
X0125980Y0078377D01*
X0125912Y0078358D01*
X0125844Y0078333D01*
X0125776Y0078303D01*
X0125745Y0078287D01*
X0125717Y0078268D01*
X0125711Y0078262D01*
X0125696Y0078250D01*
X0125671Y0078225D01*
X0125646Y0078188D01*
X0125621Y0078139D01*
X0125609Y0078111D01*
X0125597Y0078080D01*
X0125587Y0078046D01*
X0125581Y0078006D01*
X0125578Y0077966D01*
X0125575Y0077919D01*
Y0077916D01*
Y0077910D01*
Y0077901D01*
X0125578Y0077888D01*
X0125581Y0077854D01*
X0125591Y0077811D01*
X0125606Y0077765D01*
X0125631Y0077712D01*
X0125662Y0077663D01*
X0125705Y0077617D01*
X0125708D01*
X0125711Y0077610D01*
X0125730Y0077598D01*
X0125757Y0077579D01*
X0125797Y0077561D01*
X0125850Y0077539D01*
X0125909Y0077521D01*
X0125980Y0077508D01*
X0126057Y0077502D01*
X0126085D01*
X0126107Y0077505D01*
X0126131Y0077508D01*
X0126162Y0077514D01*
X0126193Y0077521D01*
X0126230Y0077530D01*
X0126307Y0077555D01*
X0126347Y0077570D01*
X0126391Y0077592D01*
X0126431Y0077617D01*
X0126471Y0077644D01*
X0126511Y0077675D01*
X0126548Y0077712D01*
X0126551Y0077715D01*
X0126558Y0077722D01*
X0126567Y0077734D01*
X0126579Y0077749D01*
X0126595Y0077771D01*
X0126610Y0077796D01*
X0126629Y0077824D01*
X0126647Y0077858D01*
X0126663Y0077895D01*
X0126681Y0077935D01*
X0126697Y0077978D01*
X0126712Y0078024D01*
X0126725Y0078074D01*
X0126734Y0078126D01*
X0126740Y0078182D01*
X0126743Y0078241D01*
Y0078491D01*
D02*
G37*
G36*
X0120532Y0080364D02*
X0119998D01*
Y0079229D01*
X0120452D01*
X0120473Y0079233D01*
X0120501Y0079236D01*
X0120535Y0079239D01*
X0120572Y0079242D01*
X0120613Y0079251D01*
X0120696Y0079270D01*
X0120785Y0079298D01*
X0120829Y0079316D01*
X0120872Y0079338D01*
X0120912Y0079362D01*
X0120949Y0079390D01*
X0120952Y0079393D01*
X0120959Y0079396D01*
X0120968Y0079409D01*
X0120980Y0079421D01*
X0120996Y0079436D01*
X0121011Y0079458D01*
X0121030Y0079483D01*
X0121048Y0079511D01*
X0121064Y0079542D01*
X0121082Y0079576D01*
X0121098Y0079613D01*
X0121113Y0079653D01*
X0121125Y0079699D01*
X0121135Y0079746D01*
X0121141Y0079798D01*
X0121144Y0079851D01*
Y0079857D01*
Y0079872D01*
X0121141Y0079897D01*
X0121135Y0079931D01*
X0121122Y0079971D01*
X0121110Y0080014D01*
X0121088Y0080061D01*
X0121061Y0080107D01*
X0121023Y0080156D01*
X0120980Y0080203D01*
X0120925Y0080246D01*
X0120860Y0080283D01*
X0120823Y0080302D01*
X0120782Y0080317D01*
X0120739Y0080330D01*
X0120693Y0080342D01*
X0120643Y0080351D01*
X0120588Y0080357D01*
X0120532Y0080364D01*
D02*
G37*
G36*
X0120470Y0078859D02*
X0119998D01*
Y0077595D01*
X0120591D01*
X0120616Y0077598D01*
X0120647Y0077601D01*
X0120680Y0077604D01*
X0120721Y0077610D01*
X0120764Y0077617D01*
X0120853Y0077635D01*
X0120946Y0077666D01*
X0120993Y0077688D01*
X0121036Y0077709D01*
X0121076Y0077734D01*
X0121116Y0077765D01*
X0121119Y0077768D01*
X0121125Y0077774D01*
X0121135Y0077783D01*
X0121147Y0077796D01*
X0121162Y0077814D01*
X0121181Y0077836D01*
X0121196Y0077861D01*
X0121218Y0077888D01*
X0121237Y0077922D01*
X0121252Y0077956D01*
X0121271Y0077997D01*
X0121286Y0078037D01*
X0121299Y0078083D01*
X0121308Y0078132D01*
X0121314Y0078182D01*
X0121317Y0078238D01*
Y0078241D01*
Y0078244D01*
Y0078253D01*
X0121314Y0078265D01*
X0121311Y0078296D01*
X0121305Y0078333D01*
X0121292Y0078383D01*
X0121274Y0078435D01*
X0121246Y0078491D01*
X0121212Y0078550D01*
X0121166Y0078605D01*
X0121141Y0078633D01*
X0121110Y0078661D01*
X0121079Y0078689D01*
X0121042Y0078714D01*
X0121002Y0078738D01*
X0120959Y0078763D01*
X0120912Y0078781D01*
X0120863Y0078800D01*
X0120807Y0078819D01*
X0120748Y0078831D01*
X0120687Y0078843D01*
X0120619Y0078852D01*
X0120548Y0078856D01*
X0120470Y0078859D01*
D02*
G37*
G36*
X0148546Y0079452D02*
X0148518D01*
X0148500Y0079449D01*
X0148475Y0079446D01*
X0148444Y0079443D01*
X0148413Y0079436D01*
X0148379Y0079427D01*
X0148302Y0079403D01*
X0148262Y0079387D01*
X0148222Y0079365D01*
X0148181Y0079344D01*
X0148138Y0079316D01*
X0148101Y0079285D01*
X0148061Y0079248D01*
X0148058Y0079245D01*
X0148052Y0079239D01*
X0148042Y0079226D01*
X0148030Y0079211D01*
X0148015Y0079189D01*
X0147996Y0079168D01*
X0147977Y0079137D01*
X0147956Y0079106D01*
X0147934Y0079069D01*
X0147916Y0079029D01*
X0147894Y0078985D01*
X0147876Y0078939D01*
X0147857Y0078886D01*
X0147842Y0078834D01*
X0147826Y0078775D01*
X0147817Y0078716D01*
X0149173D01*
Y0078720D01*
Y0078732D01*
Y0078750D01*
X0149170Y0078775D01*
X0149167Y0078803D01*
X0149164Y0078837D01*
X0149158Y0078874D01*
X0149152Y0078914D01*
X0149130Y0079001D01*
X0149099Y0079093D01*
X0149081Y0079137D01*
X0149059Y0079180D01*
X0149034Y0079220D01*
X0149003Y0079257D01*
X0149000Y0079260D01*
X0148997Y0079267D01*
X0148988Y0079276D01*
X0148972Y0079288D01*
X0148957Y0079304D01*
X0148935Y0079319D01*
X0148914Y0079338D01*
X0148886Y0079356D01*
X0148855Y0079372D01*
X0148821Y0079390D01*
X0148781Y0079406D01*
X0148741Y0079421D01*
X0148697Y0079433D01*
X0148651Y0079443D01*
X0148599Y0079449D01*
X0148546Y0079452D01*
D02*
G37*
G36*
X0135475Y0080422D02*
X0135451D01*
X0135423Y0080419D01*
X0135383Y0080416D01*
X0135336Y0080410D01*
X0135281Y0080401D01*
X0135222Y0080388D01*
X0135157Y0080373D01*
X0135086Y0080351D01*
X0135012Y0080326D01*
X0134938Y0080292D01*
X0134864Y0080255D01*
X0134786Y0080209D01*
X0134715Y0080156D01*
X0134644Y0080095D01*
X0134576Y0080024D01*
X0134573Y0080020D01*
X0134561Y0080005D01*
X0134545Y0079983D01*
X0134524Y0079953D01*
X0134496Y0079912D01*
X0134468Y0079863D01*
X0134437Y0079807D01*
X0134406Y0079742D01*
X0134372Y0079671D01*
X0134341Y0079591D01*
X0134314Y0079505D01*
X0134286Y0079412D01*
X0134264Y0079313D01*
X0134249Y0079205D01*
X0134236Y0079093D01*
X0134233Y0078973D01*
Y0078970D01*
Y0078967D01*
Y0078958D01*
Y0078945D01*
Y0078930D01*
X0134236Y0078911D01*
X0134239Y0078865D01*
X0134242Y0078809D01*
X0134252Y0078747D01*
X0134261Y0078676D01*
X0134276Y0078599D01*
X0134292Y0078519D01*
X0134317Y0078432D01*
X0134341Y0078346D01*
X0134375Y0078259D01*
X0134412Y0078173D01*
X0134459Y0078086D01*
X0134511Y0078006D01*
X0134570Y0077929D01*
X0134573Y0077925D01*
X0134585Y0077913D01*
X0134604Y0077891D01*
X0134632Y0077867D01*
X0134666Y0077836D01*
X0134706Y0077805D01*
X0134752Y0077768D01*
X0134805Y0077731D01*
X0134867Y0077694D01*
X0134932Y0077660D01*
X0135006Y0077626D01*
X0135083Y0077595D01*
X0135166Y0077570D01*
X0135256Y0077552D01*
X0135349Y0077536D01*
X0135448Y0077533D01*
X0135472D01*
X0135503Y0077536D01*
X0135543Y0077539D01*
X0135593Y0077545D01*
X0135648Y0077552D01*
X0135710Y0077564D01*
X0135778Y0077579D01*
X0135849Y0077601D01*
X0135923Y0077626D01*
X0136001Y0077657D01*
X0136075Y0077694D01*
X0136152Y0077734D01*
X0136223Y0077786D01*
X0136294Y0077845D01*
X0136359Y0077910D01*
X0136362Y0077913D01*
X0136375Y0077929D01*
X0136390Y0077950D01*
X0136412Y0077981D01*
X0136436Y0078018D01*
X0136464Y0078065D01*
X0136495Y0078120D01*
X0136526Y0078185D01*
X0136557Y0078256D01*
X0136588Y0078333D01*
X0136616Y0078420D01*
X0136640Y0078516D01*
X0136662Y0078618D01*
X0136677Y0078726D01*
X0136690Y0078843D01*
X0136693Y0078967D01*
Y0078970D01*
Y0078976D01*
Y0078985D01*
Y0078998D01*
Y0079013D01*
X0136690Y0079035D01*
X0136687Y0079081D01*
X0136684Y0079140D01*
X0136674Y0079208D01*
X0136665Y0079282D01*
X0136653Y0079362D01*
X0136634Y0079446D01*
X0136612Y0079535D01*
X0136588Y0079625D01*
X0136557Y0079715D01*
X0136520Y0079801D01*
X0136477Y0079888D01*
X0136427Y0079968D01*
X0136368Y0080042D01*
X0136365Y0080045D01*
X0136353Y0080058D01*
X0136334Y0080076D01*
X0136310Y0080101D01*
X0136276Y0080132D01*
X0136235Y0080163D01*
X0136189Y0080197D01*
X0136137Y0080234D01*
X0136075Y0080268D01*
X0136007Y0080302D01*
X0135936Y0080336D01*
X0135855Y0080364D01*
X0135769Y0080388D01*
X0135676Y0080407D01*
X0135580Y0080419D01*
X0135475Y0080422D01*
D02*
G37*
G36*
X0123486Y0079452D02*
X0123471D01*
X0123449Y0079449D01*
X0123421D01*
X0123390Y0079443D01*
X0123353Y0079440D01*
X0123310Y0079430D01*
X0123264Y0079418D01*
X0123217Y0079406D01*
X0123168Y0079387D01*
X0123115Y0079365D01*
X0123066Y0079341D01*
X0123013Y0079310D01*
X0122964Y0079276D01*
X0122918Y0079236D01*
X0122874Y0079189D01*
X0122871Y0079186D01*
X0122865Y0079177D01*
X0122853Y0079162D01*
X0122840Y0079140D01*
X0122822Y0079115D01*
X0122803Y0079081D01*
X0122782Y0079044D01*
X0122763Y0079001D01*
X0122741Y0078951D01*
X0122720Y0078896D01*
X0122701Y0078837D01*
X0122683Y0078772D01*
X0122670Y0078701D01*
X0122658Y0078627D01*
X0122652Y0078547D01*
X0122649Y0078463D01*
Y0078457D01*
Y0078445D01*
X0122652Y0078420D01*
Y0078389D01*
X0122655Y0078352D01*
X0122661Y0078309D01*
X0122667Y0078259D01*
X0122677Y0078207D01*
X0122689Y0078151D01*
X0122704Y0078096D01*
X0122723Y0078037D01*
X0122745Y0077978D01*
X0122769Y0077919D01*
X0122800Y0077864D01*
X0122834Y0077808D01*
X0122874Y0077759D01*
X0122878Y0077756D01*
X0122884Y0077746D01*
X0122899Y0077734D01*
X0122918Y0077719D01*
X0122939Y0077700D01*
X0122967Y0077678D01*
X0123001Y0077654D01*
X0123038Y0077632D01*
X0123078Y0077607D01*
X0123125Y0077583D01*
X0123174Y0077561D01*
X0123230Y0077542D01*
X0123288Y0077527D01*
X0123350Y0077514D01*
X0123415Y0077505D01*
X0123486Y0077502D01*
X0123505D01*
X0123523Y0077505D01*
X0123551D01*
X0123582Y0077511D01*
X0123619Y0077514D01*
X0123662Y0077524D01*
X0123709Y0077533D01*
X0123755Y0077545D01*
X0123804Y0077564D01*
X0123854Y0077583D01*
X0123903Y0077607D01*
X0123953Y0077635D01*
X0123999Y0077669D01*
X0124046Y0077709D01*
X0124086Y0077753D01*
X0124089Y0077756D01*
X0124095Y0077765D01*
X0124104Y0077780D01*
X0124120Y0077799D01*
X0124135Y0077827D01*
X0124154Y0077858D01*
X0124172Y0077895D01*
X0124191Y0077938D01*
X0124209Y0077987D01*
X0124231Y0078040D01*
X0124246Y0078098D01*
X0124262Y0078163D01*
X0124277Y0078231D01*
X0124286Y0078309D01*
X0124293Y0078389D01*
X0124296Y0078472D01*
Y0078479D01*
Y0078494D01*
Y0078519D01*
X0124293Y0078550D01*
X0124290Y0078590D01*
X0124283Y0078633D01*
X0124277Y0078686D01*
X0124271Y0078738D01*
X0124243Y0078856D01*
X0124228Y0078914D01*
X0124206Y0078976D01*
X0124185Y0079035D01*
X0124154Y0079090D01*
X0124123Y0079146D01*
X0124086Y0079195D01*
X0124083Y0079199D01*
X0124076Y0079208D01*
X0124064Y0079220D01*
X0124046Y0079236D01*
X0124024Y0079254D01*
X0123999Y0079276D01*
X0123968Y0079300D01*
X0123931Y0079325D01*
X0123891Y0079347D01*
X0123848Y0079372D01*
X0123798Y0079393D01*
X0123746Y0079412D01*
X0123687Y0079427D01*
X0123625Y0079440D01*
X0123557Y0079449D01*
X0123486Y0079452D01*
D02*
G37*
G36*
X0126644Y0062857D02*
X0126610D01*
X0126585Y0062854D01*
X0126555Y0062851D01*
X0126521Y0062845D01*
X0126484Y0062836D01*
X0126440Y0062826D01*
X0126397Y0062814D01*
X0126351Y0062798D01*
X0126304Y0062777D01*
X0126258Y0062755D01*
X0126212Y0062727D01*
X0126165Y0062693D01*
X0126119Y0062656D01*
X0126079Y0062613D01*
X0126076Y0062610D01*
X0126069Y0062601D01*
X0126060Y0062588D01*
X0126045Y0062570D01*
X0126029Y0062545D01*
X0126011Y0062517D01*
X0125992Y0062483D01*
X0125974Y0062446D01*
X0125952Y0062403D01*
X0125934Y0062357D01*
X0125915Y0062307D01*
X0125900Y0062251D01*
X0125884Y0062193D01*
X0125875Y0062134D01*
X0125869Y0062069D01*
X0125865Y0062001D01*
Y0061652D01*
Y0061649D01*
Y0061640D01*
Y0061621D01*
X0125869Y0061599D01*
X0125872Y0061572D01*
X0125875Y0061541D01*
X0125881Y0061507D01*
X0125890Y0061470D01*
X0125915Y0061386D01*
X0125930Y0061343D01*
X0125949Y0061297D01*
X0125974Y0061253D01*
X0126001Y0061207D01*
X0126032Y0061164D01*
X0126066Y0061124D01*
X0126069Y0061120D01*
X0126076Y0061114D01*
X0126088Y0061105D01*
X0126103Y0061090D01*
X0126122Y0061074D01*
X0126147Y0061056D01*
X0126174Y0061037D01*
X0126208Y0061015D01*
X0126242Y0060997D01*
X0126283Y0060975D01*
X0126326Y0060957D01*
X0126369Y0060941D01*
X0126419Y0060926D01*
X0126471Y0060917D01*
X0126527Y0060910D01*
X0126582Y0060907D01*
X0126598D01*
X0126616Y0060910D01*
X0126644D01*
X0126672Y0060917D01*
X0126709Y0060923D01*
X0126749Y0060932D01*
X0126789Y0060941D01*
X0126836Y0060957D01*
X0126882Y0060975D01*
X0126928Y0060997D01*
X0126978Y0061025D01*
X0127024Y0061056D01*
X0127071Y0061093D01*
X0127114Y0061136D01*
X0127154Y0061185D01*
X0127157Y0061189D01*
X0127163Y0061198D01*
X0127173Y0061213D01*
X0127188Y0061238D01*
X0127204Y0061266D01*
X0127219Y0061300D01*
X0127237Y0061343D01*
X0127259Y0061389D01*
X0127278Y0061442D01*
X0127296Y0061501D01*
X0127312Y0061562D01*
X0127330Y0061633D01*
X0127342Y0061708D01*
X0127352Y0061788D01*
X0127358Y0061875D01*
X0127361Y0061964D01*
Y0061970D01*
Y0061983D01*
Y0062004D01*
X0127358Y0062032D01*
X0127355Y0062069D01*
X0127352Y0062109D01*
X0127346Y0062153D01*
X0127336Y0062202D01*
X0127315Y0062307D01*
X0127299Y0062363D01*
X0127278Y0062415D01*
X0127256Y0062471D01*
X0127231Y0062523D01*
X0127200Y0062573D01*
X0127166Y0062619D01*
X0127163Y0062622D01*
X0127157Y0062628D01*
X0127148Y0062641D01*
X0127132Y0062656D01*
X0127111Y0062675D01*
X0127089Y0062693D01*
X0127061Y0062715D01*
X0127030Y0062740D01*
X0126993Y0062761D01*
X0126956Y0062783D01*
X0126913Y0062801D01*
X0126867Y0062820D01*
X0126814Y0062836D01*
X0126762Y0062848D01*
X0126706Y0062854D01*
X0126644Y0062857D01*
D02*
G37*
G36*
X0142953Y0061896D02*
X0142348Y0061813D01*
X0142344D01*
X0142335Y0061810D01*
X0142320D01*
X0142301Y0061806D01*
X0142280Y0061800D01*
X0142252Y0061794D01*
X0142190Y0061782D01*
X0142122Y0061763D01*
X0142054Y0061739D01*
X0141986Y0061708D01*
X0141955Y0061692D01*
X0141927Y0061674D01*
X0141921Y0061667D01*
X0141906Y0061655D01*
X0141881Y0061630D01*
X0141856Y0061593D01*
X0141832Y0061544D01*
X0141819Y0061516D01*
X0141807Y0061485D01*
X0141797Y0061451D01*
X0141791Y0061411D01*
X0141788Y0061371D01*
X0141785Y0061325D01*
Y0061321D01*
Y0061315D01*
Y0061306D01*
X0141788Y0061294D01*
X0141791Y0061260D01*
X0141801Y0061216D01*
X0141816Y0061170D01*
X0141841Y0061117D01*
X0141872Y0061068D01*
X0141915Y0061022D01*
X0141918D01*
X0141921Y0061015D01*
X0141940Y0061003D01*
X0141967Y0060985D01*
X0142008Y0060966D01*
X0142060Y0060944D01*
X0142119Y0060926D01*
X0142190Y0060913D01*
X0142267Y0060907D01*
X0142295D01*
X0142317Y0060910D01*
X0142341Y0060913D01*
X0142372Y0060920D01*
X0142403Y0060926D01*
X0142440Y0060935D01*
X0142517Y0060960D01*
X0142558Y0060975D01*
X0142601Y0060997D01*
X0142641Y0061022D01*
X0142681Y0061049D01*
X0142721Y0061080D01*
X0142759Y0061117D01*
X0142762Y0061120D01*
X0142768Y0061127D01*
X0142777Y0061139D01*
X0142789Y0061155D01*
X0142805Y0061176D01*
X0142820Y0061201D01*
X0142839Y0061229D01*
X0142857Y0061263D01*
X0142873Y0061300D01*
X0142891Y0061340D01*
X0142907Y0061383D01*
X0142922Y0061430D01*
X0142935Y0061479D01*
X0142944Y0061532D01*
X0142950Y0061587D01*
X0142953Y0061646D01*
Y0061896D01*
D02*
G37*
G36*
X0136955Y0062857D02*
X0136928D01*
X0136909Y0062854D01*
X0136884Y0062851D01*
X0136854Y0062848D01*
X0136823Y0062842D01*
X0136789Y0062832D01*
X0136711Y0062808D01*
X0136671Y0062792D01*
X0136631Y0062771D01*
X0136591Y0062749D01*
X0136548Y0062721D01*
X0136511Y0062690D01*
X0136470Y0062653D01*
X0136467Y0062650D01*
X0136461Y0062644D01*
X0136452Y0062631D01*
X0136440Y0062616D01*
X0136424Y0062594D01*
X0136406Y0062573D01*
X0136387Y0062542D01*
X0136365Y0062511D01*
X0136344Y0062474D01*
X0136325Y0062434D01*
X0136303Y0062391D01*
X0136285Y0062344D01*
X0136266Y0062292D01*
X0136251Y0062239D01*
X0136235Y0062180D01*
X0136226Y0062122D01*
X0137583D01*
Y0062125D01*
Y0062137D01*
Y0062156D01*
X0137580Y0062180D01*
X0137577Y0062208D01*
X0137574Y0062242D01*
X0137567Y0062279D01*
X0137561Y0062319D01*
X0137540Y0062406D01*
X0137509Y0062499D01*
X0137490Y0062542D01*
X0137468Y0062585D01*
X0137444Y0062625D01*
X0137413Y0062662D01*
X0137410Y0062665D01*
X0137407Y0062672D01*
X0137397Y0062681D01*
X0137382Y0062693D01*
X0137366Y0062709D01*
X0137345Y0062724D01*
X0137323Y0062743D01*
X0137295Y0062761D01*
X0137265Y0062777D01*
X0137231Y0062795D01*
X0137190Y0062811D01*
X0137150Y0062826D01*
X0137107Y0062839D01*
X0137061Y0062848D01*
X0137008Y0062854D01*
X0136955Y0062857D01*
D02*
G37*
G36*
X0131288Y0063827D02*
X0131264D01*
X0131236Y0063824D01*
X0131196Y0063821D01*
X0131149Y0063815D01*
X0131094Y0063806D01*
X0131035Y0063793D01*
X0130970Y0063778D01*
X0130899Y0063756D01*
X0130825Y0063732D01*
X0130751Y0063698D01*
X0130677Y0063661D01*
X0130599Y0063614D01*
X0130528Y0063562D01*
X0130457Y0063500D01*
X0130389Y0063429D01*
X0130386Y0063426D01*
X0130374Y0063410D01*
X0130358Y0063389D01*
X0130337Y0063358D01*
X0130309Y0063318D01*
X0130281Y0063268D01*
X0130250Y0063212D01*
X0130219Y0063148D01*
X0130185Y0063077D01*
X0130154Y0062996D01*
X0130127Y0062910D01*
X0130099Y0062817D01*
X0130077Y0062718D01*
X0130062Y0062610D01*
X0130049Y0062499D01*
X0130046Y0062378D01*
Y0062375D01*
Y0062372D01*
Y0062363D01*
Y0062350D01*
Y0062335D01*
X0130049Y0062316D01*
X0130052Y0062270D01*
X0130055Y0062214D01*
X0130065Y0062153D01*
X0130074Y0062081D01*
X0130089Y0062004D01*
X0130105Y0061924D01*
X0130130Y0061837D01*
X0130154Y0061751D01*
X0130188Y0061664D01*
X0130226Y0061578D01*
X0130272Y0061491D01*
X0130324Y0061411D01*
X0130383Y0061334D01*
X0130386Y0061331D01*
X0130398Y0061318D01*
X0130417Y0061297D01*
X0130445Y0061272D01*
X0130479Y0061241D01*
X0130519Y0061210D01*
X0130565Y0061173D01*
X0130618Y0061136D01*
X0130680Y0061099D01*
X0130745Y0061065D01*
X0130819Y0061031D01*
X0130896Y0061000D01*
X0130979Y0060975D01*
X0131069Y0060957D01*
X0131162Y0060941D01*
X0131261Y0060938D01*
X0131285D01*
X0131316Y0060941D01*
X0131356Y0060944D01*
X0131406Y0060951D01*
X0131462Y0060957D01*
X0131523Y0060969D01*
X0131591Y0060985D01*
X0131662Y0061006D01*
X0131737Y0061031D01*
X0131814Y0061062D01*
X0131888Y0061099D01*
X0131965Y0061139D01*
X0132036Y0061192D01*
X0132107Y0061250D01*
X0132172Y0061315D01*
X0132175Y0061318D01*
X0132188Y0061334D01*
X0132203Y0061355D01*
X0132225Y0061386D01*
X0132249Y0061423D01*
X0132277Y0061470D01*
X0132308Y0061525D01*
X0132339Y0061590D01*
X0132370Y0061661D01*
X0132401Y0061739D01*
X0132429Y0061825D01*
X0132453Y0061921D01*
X0132475Y0062023D01*
X0132491Y0062131D01*
X0132503Y0062248D01*
X0132506Y0062372D01*
Y0062375D01*
Y0062381D01*
Y0062391D01*
Y0062403D01*
Y0062418D01*
X0132503Y0062440D01*
X0132500Y0062486D01*
X0132497Y0062545D01*
X0132487Y0062613D01*
X0132478Y0062687D01*
X0132466Y0062767D01*
X0132447Y0062851D01*
X0132426Y0062941D01*
X0132401Y0063030D01*
X0132370Y0063120D01*
X0132333Y0063206D01*
X0132290Y0063293D01*
X0132240Y0063373D01*
X0132181Y0063447D01*
X0132178Y0063450D01*
X0132166Y0063463D01*
X0132148Y0063481D01*
X0132123Y0063506D01*
X0132089Y0063537D01*
X0132049Y0063568D01*
X0132002Y0063602D01*
X0131950Y0063639D01*
X0131888Y0063673D01*
X0131820Y0063707D01*
X0131749Y0063741D01*
X0131668Y0063769D01*
X0131582Y0063793D01*
X0131489Y0063812D01*
X0131394Y0063824D01*
X0131288Y0063827D01*
D02*
G37*
G36*
X0123600Y0062857D02*
X0123585D01*
X0123563Y0062854D01*
X0123536D01*
X0123505Y0062848D01*
X0123468Y0062845D01*
X0123424Y0062836D01*
X0123378Y0062823D01*
X0123332Y0062811D01*
X0123282Y0062792D01*
X0123230Y0062771D01*
X0123180Y0062746D01*
X0123128Y0062715D01*
X0123078Y0062681D01*
X0123032Y0062641D01*
X0122989Y0062594D01*
X0122986Y0062591D01*
X0122979Y0062582D01*
X0122967Y0062567D01*
X0122955Y0062545D01*
X0122936Y0062520D01*
X0122918Y0062486D01*
X0122896Y0062449D01*
X0122878Y0062406D01*
X0122856Y0062357D01*
X0122834Y0062301D01*
X0122816Y0062242D01*
X0122797Y0062177D01*
X0122785Y0062106D01*
X0122772Y0062032D01*
X0122766Y0061952D01*
X0122763Y0061868D01*
Y0061862D01*
Y0061850D01*
X0122766Y0061825D01*
Y0061794D01*
X0122769Y0061757D01*
X0122775Y0061714D01*
X0122782Y0061664D01*
X0122791Y0061612D01*
X0122803Y0061556D01*
X0122819Y0061501D01*
X0122837Y0061442D01*
X0122859Y0061383D01*
X0122884Y0061325D01*
X0122915Y0061269D01*
X0122949Y0061213D01*
X0122989Y0061164D01*
X0122992Y0061161D01*
X0122998Y0061151D01*
X0123013Y0061139D01*
X0123032Y0061124D01*
X0123054Y0061105D01*
X0123081Y0061083D01*
X0123115Y0061059D01*
X0123152Y0061037D01*
X0123193Y0061012D01*
X0123239Y0060988D01*
X0123288Y0060966D01*
X0123344Y0060948D01*
X0123403Y0060932D01*
X0123465Y0060920D01*
X0123529Y0060910D01*
X0123600Y0060907D01*
X0123619D01*
X0123638Y0060910D01*
X0123665D01*
X0123696Y0060917D01*
X0123733Y0060920D01*
X0123777Y0060929D01*
X0123823Y0060938D01*
X0123869Y0060951D01*
X0123919Y0060969D01*
X0123968Y0060988D01*
X0124018Y0061012D01*
X0124067Y0061040D01*
X0124114Y0061074D01*
X0124160Y0061114D01*
X0124200Y0061158D01*
X0124203Y0061161D01*
X0124209Y0061170D01*
X0124218Y0061185D01*
X0124234Y0061204D01*
X0124249Y0061232D01*
X0124268Y0061263D01*
X0124286Y0061300D01*
X0124305Y0061343D01*
X0124324Y0061392D01*
X0124345Y0061445D01*
X0124361Y0061504D01*
X0124376Y0061569D01*
X0124392Y0061637D01*
X0124401Y0061714D01*
X0124407Y0061794D01*
X0124410Y0061878D01*
Y0061884D01*
Y0061899D01*
Y0061924D01*
X0124407Y0061955D01*
X0124404Y0061995D01*
X0124398Y0062038D01*
X0124392Y0062091D01*
X0124385Y0062143D01*
X0124358Y0062261D01*
X0124342Y0062319D01*
X0124320Y0062381D01*
X0124299Y0062440D01*
X0124268Y0062496D01*
X0124237Y0062551D01*
X0124200Y0062601D01*
X0124197Y0062604D01*
X0124191Y0062613D01*
X0124178Y0062625D01*
X0124160Y0062641D01*
X0124138Y0062659D01*
X0124114Y0062681D01*
X0124083Y0062706D01*
X0124046Y0062730D01*
X0124005Y0062752D01*
X0123962Y0062777D01*
X0123913Y0062798D01*
X0123860Y0062817D01*
X0123801Y0062832D01*
X0123740Y0062845D01*
X0123672Y0062854D01*
X0123600Y0062857D01*
D02*
G37*
%LPD*%
D10*
X0005110Y0056181D02*
G03*
X0007468Y0052575I0003938J0000001D01*
G01*
X0008835Y0026492D02*
G03*
X0007468Y0026165I-0000959J0000989D01*
G01*
X0009177Y-0012874D02*
G03*
X0008835Y-0012878I-0000087J-0007370D01*
G01*
X-0007468Y0052575D02*
G03*
X-0005110Y0056181I-0001580J0003607D01*
G01*
X-0008835Y0012878D02*
G03*
X-0007468Y0013205I0000959J-0000989D01*
G01*
X-0044539Y-0065866D02*
G03*
X-0047591Y-0069016I0000103J-0003152D01*
G01*
X-0005110Y-0016811D02*
G03*
X-0007468Y-0013205I-0003938J-0000001D01*
G01*
X-0008835Y-0052248D02*
G03*
X-0009177Y-0052244I-0000256J-0007363D01*
G01*
X0047587Y0009724D02*
G03*
X0044441Y0012874I-0003145J0000004D01*
G01*
X-0044539Y0091614D02*
G03*
X-0047591Y0088465I0000103J-0003152D01*
G01*
X0044441Y-0012874D02*
G03*
X0047587Y-0009724I0000000J0003145D01*
G01*
X-0008835Y0052248D02*
G03*
X-0007468Y0052575I0000959J-0000989D01*
G01*
X0008835Y-0026492D02*
G03*
X0009177Y-0026496I0000256J0007366D01*
G01*
X-0047591Y0029646D02*
G03*
X-0044539Y0026496I0003154J0000003D01*
G01*
X0005110Y-0061929D02*
G03*
X0007468Y-0065535I0003938J0000001D01*
G01*
X-0009177Y0012874D02*
G03*
X-0008835Y0012878I0000087J0007370D01*
G01*
X-0007468Y-0026165D02*
G03*
X-0005110Y-0022559I-0001580J0003607D01*
G01*
X-0007468Y-0052575D02*
G03*
X-0008835Y-0052248I-0000408J0001315D01*
G01*
X0009177Y0026496D02*
G03*
X0008835Y0026492I-0000087J-0007370D01*
G01*
X0007468Y0065535D02*
G03*
X0005110Y0061929I0001580J-0003607D01*
G01*
X-0047591Y0069016D02*
G03*
X-0044539Y0065866I0003154J0000003D01*
G01*
X0007468Y-0026165D02*
G03*
X0008835Y-0026492I0000408J-0001315D01*
G01*
X-0008835Y0026492D02*
G03*
X-0009177Y0026496I-0000256J-0007366D01*
G01*
X0007468Y-0052575D02*
G03*
X0005110Y-0056181I0001580J-0003607D01*
G01*
X-0044539Y0012874D02*
G03*
X-0047591Y0009724I0000103J-0003152D01*
G01*
Y-0088465D02*
G03*
X-0044539Y-0091614I0003154J0000003D01*
G01*
X0044441Y0026496D02*
G03*
X0047587Y0029646I0000000J0003145D01*
G01*
X0008835Y0065862D02*
G03*
X0007468Y0065535I-0000959J0000989D01*
G01*
X0008835Y0012878D02*
G03*
X0009177Y0012874I0000256J0007366D01*
G01*
X-0008835Y0065862D02*
G03*
X-0009177Y0065866I-0000256J-0007363D01*
G01*
X0008835Y-0052248D02*
G03*
X0007468Y-0052575I-0000959J0000989D01*
G01*
X-0007468Y0026165D02*
G03*
X-0008835Y0026492I-0000408J0001315D01*
G01*
X0044441Y-0091614D02*
G03*
X0047587Y-0088465I0000000J0003145D01*
G01*
X-0008835Y-0026492D02*
G03*
X-0007468Y-0026165I0000959J-0000989D01*
G01*
X-0005110Y-0056181D02*
G03*
X-0007468Y-0052575I-0003938J-0000001D01*
G01*
X0047587Y0049095D02*
G03*
X0044441Y0052244I-0003145J0000004D01*
G01*
X0007468Y0013205D02*
G03*
X0008835Y0012878I0000408J-0001315D01*
G01*
X0005110Y-0022559D02*
G03*
X0007468Y-0026165I0003938J0000001D01*
G01*
X0047587Y-0069016D02*
G03*
X0044441Y-0065866I-0003145J0000004D01*
G01*
X-0047591Y-0009724D02*
G03*
X-0044539Y-0012874I0003154J0000003D01*
G01*
X-0007468Y-0065535D02*
G03*
X-0005110Y-0061929I-0001580J0003607D01*
G01*
X-0009177Y-0026496D02*
G03*
X-0008835Y-0026492I0000087J0007370D01*
G01*
X0009177Y0065866D02*
G03*
X0008835Y0065862I-0000087J-0007367D01*
G01*
X0005110Y0016811D02*
G03*
X0007468Y0013205I0003938J0000001D01*
G01*
X-0007468Y0065535D02*
G03*
X-0008835Y0065862I-0000408J0001315D01*
G01*
X0007468Y-0013205D02*
G03*
X0005110Y-0016811I0001580J-0003607D01*
G01*
X0009177Y-0052244D02*
G03*
X0008835Y-0052248I-0000087J-0007367D01*
G01*
X-0005110Y0022559D02*
G03*
X-0007468Y0026165I-0003938J-0000001D01*
G01*
X-0008835Y-0012878D02*
G03*
X-0009177Y-0012874I-0000256J-0007366D01*
G01*
X-0044539Y-0026496D02*
G03*
X-0047591Y-0029646I0000103J-0003152D01*
G01*
X0008835Y0052248D02*
G03*
X0009177Y0052244I0000256J0007363D01*
G01*
X0044441Y0065866D02*
G03*
X0047587Y0069016I0000000J0003145D01*
G01*
X0008835Y-0012878D02*
G03*
X0007468Y-0013205I-0000959J0000989D01*
G01*
X-0005110Y0061929D02*
G03*
X-0007468Y0065535I-0003938J-0000001D01*
G01*
X-0009177Y0052244D02*
G03*
X-0008835Y0052248I0000087J0007367D01*
G01*
X0044441Y-0052244D02*
G03*
X0047587Y-0049095I0000000J0003145D01*
G01*
X-0007468Y0013205D02*
G03*
X-0005110Y0016811I-0001580J0003607D01*
G01*
X0008835Y-0065862D02*
G03*
X0009177Y-0065866I0000256J0007363D01*
G01*
X-0007468Y-0013205D02*
G03*
X-0008835Y-0012878I-0000408J0001315D01*
G01*
Y-0065862D02*
G03*
X-0007468Y-0065535I0000959J-0000989D01*
G01*
X0007468Y0052575D02*
G03*
X0008835Y0052248I0000408J-0001315D01*
G01*
X0007468Y0026165D02*
G03*
X0005110Y0022559I0001580J-0003607D01*
G01*
X0047587Y0088465D02*
G03*
X0044441Y0091614I-0003145J0000004D01*
G01*
X0047587Y-0029646D02*
G03*
X0044441Y-0026496I-0003145J0000004D01*
G01*
X-0044539Y0052244D02*
G03*
X-0047591Y0049095I0000103J-0003152D01*
G01*
X0007468Y-0065535D02*
G03*
X0008835Y-0065862I0000408J-0001315D01*
G01*
X-0009177Y-0065866D02*
G03*
X-0008835Y-0065862I0000087J0007367D01*
G01*
X-0047591Y-0049095D02*
G03*
X-0044539Y-0052244I0003154J0000003D01*
G01*
X0005110Y0016811D02*
Y0022559D01*
X0047587Y0069016D02*
Y0088465D01*
X0009177Y-0026496D02*
X0044441D01*
X-0047591Y0029646D02*
Y0049095D01*
X-0044539Y-0091614D02*
X0044441D01*
X-0044539Y-0065866D02*
X-0009177D01*
X0009177Y0026496D02*
X0044441D01*
X0047587Y-0088465D02*
Y-0069016D01*
X-0047591Y-0088465D02*
Y-0069016D01*
X-0005110Y-0022559D02*
Y-0016811D01*
X-0044539Y0091614D02*
X0044441D01*
X0005110Y-0022559D02*
Y-0016811D01*
X-0044539Y0026496D02*
X-0009177D01*
X-0044539Y-0026496D02*
X-0009177D01*
X0047587Y0029646D02*
Y0049095D01*
X-0047591Y0069016D02*
Y0088465D01*
X0009177Y-0012874D02*
X0044441D01*
X-0005110Y0016811D02*
Y0022559D01*
X0009177Y-0065866D02*
X0044441D01*
X-0047591Y-0049095D02*
Y-0029646D01*
X0009177Y0052244D02*
X0044441D01*
X0047587Y-0009724D02*
Y0009724D01*
X-0044539Y0065866D02*
X-0009177D01*
X0005110Y-0061929D02*
Y-0056181D01*
Y0056181D02*
Y0061929D01*
X0009177Y-0052244D02*
X0044441D01*
X-0044539Y0012874D02*
X-0009177D01*
X-0044539Y-0052244D02*
X-0009177D01*
X-0005110Y0056181D02*
Y0061929D01*
X-0047591Y-0009724D02*
Y0009724D01*
X-0005110Y-0061929D02*
Y-0056181D01*
X0009177Y0065866D02*
X0044441D01*
X0009177Y0012874D02*
X0044441D01*
X-0044539Y0052244D02*
X-0009177D01*
X0047587Y-0049095D02*
Y-0029646D01*
X-0044539Y-0012874D02*
X-0009177D01*
M02*
