G04*
G04 #@! TF.GenerationSoftware,Altium Limited,Altium Designer,21.9.2 (33)*
G04*
G04 Layer_Color=32896*
%FSAX25Y25*%
%MOIN*%
G70*
G04*
G04 #@! TF.SameCoordinates,A6586CB6-8B30-4D09-AE0A-FB24D08DFB98*
G04*
G04*
G04 #@! TF.FilePolarity,Positive*
G04*
G01*
G75*
%ADD11C,0.00787*%
%ADD12C,0.00394*%
%ADD61C,0.00630*%
%ADD62R,0.19595X0.12760*%
%ADD63R,0.06004X0.04921*%
G36*
X0094583Y0072803D02*
X0094608D01*
X0094664Y0072779D01*
X0094695Y0072760D01*
X0094726Y0072735D01*
X0094732Y0072729D01*
X0094738Y0072723D01*
X0094769Y0072686D01*
X0094794Y0072624D01*
X0094800Y0072587D01*
X0094806Y0072550D01*
Y0072543D01*
Y0072531D01*
X0094800Y0072513D01*
X0094794Y0072488D01*
X0094775Y0072426D01*
X0094750Y0072395D01*
X0094726Y0072364D01*
X0094719D01*
X0094713Y0072351D01*
X0094676Y0072327D01*
X0094620Y0072302D01*
X0094583Y0072296D01*
X0094546Y0072290D01*
X0094527D01*
X0094509Y0072296D01*
X0094484D01*
X0094422Y0072321D01*
X0094391Y0072333D01*
X0094360Y0072358D01*
Y0072364D01*
X0094348Y0072370D01*
X0094336Y0072389D01*
X0094323Y0072407D01*
X0094298Y0072469D01*
X0094292Y0072506D01*
X0094286Y0072550D01*
Y0072556D01*
Y0072568D01*
X0094292Y0072587D01*
X0094298Y0072618D01*
X0094317Y0072673D01*
X0094336Y0072704D01*
X0094360Y0072735D01*
X0094366Y0072742D01*
X0094373Y0072748D01*
X0094410Y0072772D01*
X0094472Y0072797D01*
X0094509Y0072810D01*
X0094564D01*
X0094583Y0072803D01*
D02*
G37*
G36*
X0082593Y0069139D02*
X0082191D01*
Y0069560D01*
X0082178D01*
Y0069554D01*
X0082166Y0069541D01*
X0082147Y0069516D01*
X0082129Y0069485D01*
X0082098Y0069448D01*
X0082061Y0069411D01*
X0082017Y0069368D01*
X0081968Y0069325D01*
X0081912Y0069275D01*
X0081844Y0069232D01*
X0081776Y0069195D01*
X0081695Y0069157D01*
X0081615Y0069126D01*
X0081522Y0069102D01*
X0081423Y0069089D01*
X0081318Y0069083D01*
X0081275D01*
X0081238Y0069089D01*
X0081200Y0069096D01*
X0081151Y0069102D01*
X0081046Y0069126D01*
X0080922Y0069164D01*
X0080798Y0069226D01*
X0080730Y0069263D01*
X0080674Y0069306D01*
X0080612Y0069362D01*
X0080557Y0069417D01*
Y0069424D01*
X0080544Y0069436D01*
X0080532Y0069455D01*
X0080513Y0069479D01*
X0080495Y0069510D01*
X0080470Y0069554D01*
X0080445Y0069603D01*
X0080420Y0069659D01*
X0080389Y0069721D01*
X0080365Y0069789D01*
X0080340Y0069863D01*
X0080321Y0069944D01*
X0080303Y0070030D01*
X0080290Y0070129D01*
X0080284Y0070228D01*
X0080278Y0070334D01*
Y0070340D01*
Y0070358D01*
Y0070395D01*
X0080284Y0070439D01*
X0080290Y0070488D01*
X0080297Y0070550D01*
X0080303Y0070618D01*
X0080315Y0070693D01*
X0080352Y0070854D01*
X0080408Y0071021D01*
X0080445Y0071101D01*
X0080489Y0071182D01*
X0080532Y0071256D01*
X0080588Y0071330D01*
X0080594Y0071336D01*
X0080600Y0071349D01*
X0080618Y0071367D01*
X0080643Y0071392D01*
X0080674Y0071417D01*
X0080717Y0071448D01*
X0080761Y0071485D01*
X0080810Y0071522D01*
X0080934Y0071590D01*
X0081077Y0071652D01*
X0081157Y0071671D01*
X0081244Y0071689D01*
X0081330Y0071702D01*
X0081429Y0071708D01*
X0081479D01*
X0081516Y0071702D01*
X0081553Y0071695D01*
X0081603Y0071689D01*
X0081714Y0071658D01*
X0081838Y0071609D01*
X0081900Y0071578D01*
X0081962Y0071534D01*
X0082024Y0071491D01*
X0082079Y0071435D01*
X0082129Y0071373D01*
X0082178Y0071299D01*
X0082191D01*
Y0072859D01*
X0082593D01*
Y0069139D01*
D02*
G37*
G36*
X0096861Y0071702D02*
X0096935Y0071695D01*
X0097028Y0071677D01*
X0097127Y0071646D01*
X0097232Y0071596D01*
X0097338Y0071528D01*
X0097381Y0071491D01*
X0097424Y0071442D01*
X0097437Y0071429D01*
X0097461Y0071392D01*
X0097492Y0071330D01*
X0097536Y0071244D01*
X0097573Y0071138D01*
X0097610Y0071008D01*
X0097635Y0070854D01*
X0097641Y0070674D01*
Y0069139D01*
X0097239D01*
Y0070569D01*
Y0070575D01*
Y0070606D01*
X0097232Y0070643D01*
Y0070693D01*
X0097220Y0070754D01*
X0097208Y0070823D01*
X0097189Y0070897D01*
X0097164Y0070971D01*
X0097133Y0071045D01*
X0097096Y0071114D01*
X0097047Y0071182D01*
X0096991Y0071244D01*
X0096929Y0071293D01*
X0096849Y0071330D01*
X0096762Y0071361D01*
X0096657Y0071367D01*
X0096644D01*
X0096607Y0071361D01*
X0096552Y0071355D01*
X0096483Y0071336D01*
X0096403Y0071312D01*
X0096316Y0071268D01*
X0096236Y0071213D01*
X0096155Y0071138D01*
X0096149Y0071126D01*
X0096124Y0071101D01*
X0096093Y0071052D01*
X0096056Y0070983D01*
X0096019Y0070903D01*
X0095988Y0070804D01*
X0095964Y0070693D01*
X0095957Y0070569D01*
Y0069139D01*
X0095555D01*
Y0071652D01*
X0095957D01*
Y0071231D01*
X0095970D01*
X0095976Y0071237D01*
X0095982Y0071250D01*
X0096001Y0071275D01*
X0096025Y0071305D01*
X0096050Y0071342D01*
X0096087Y0071380D01*
X0096131Y0071423D01*
X0096180Y0071473D01*
X0096236Y0071516D01*
X0096298Y0071559D01*
X0096366Y0071596D01*
X0096440Y0071633D01*
X0096514Y0071664D01*
X0096601Y0071689D01*
X0096694Y0071702D01*
X0096793Y0071708D01*
X0096830D01*
X0096861Y0071702D01*
D02*
G37*
G36*
X0079863Y0071689D02*
X0079937Y0071683D01*
X0079981Y0071671D01*
X0080012Y0071658D01*
Y0071244D01*
X0080006Y0071250D01*
X0079993Y0071256D01*
X0079969Y0071268D01*
X0079937Y0071287D01*
X0079894Y0071299D01*
X0079839Y0071312D01*
X0079777Y0071318D01*
X0079708Y0071324D01*
X0079696D01*
X0079665Y0071318D01*
X0079616Y0071312D01*
X0079560Y0071293D01*
X0079486Y0071262D01*
X0079418Y0071219D01*
X0079343Y0071157D01*
X0079275Y0071076D01*
X0079269Y0071064D01*
X0079251Y0071033D01*
X0079220Y0070977D01*
X0079189Y0070903D01*
X0079158Y0070810D01*
X0079127Y0070693D01*
X0079108Y0070563D01*
X0079102Y0070414D01*
Y0069139D01*
X0078699D01*
Y0071652D01*
X0079102D01*
Y0071132D01*
X0079114D01*
Y0071138D01*
X0079120Y0071144D01*
X0079133Y0071175D01*
X0079151Y0071225D01*
X0079182Y0071287D01*
X0079213Y0071349D01*
X0079263Y0071417D01*
X0079312Y0071485D01*
X0079374Y0071547D01*
X0079380Y0071553D01*
X0079405Y0071572D01*
X0079442Y0071596D01*
X0079492Y0071621D01*
X0079548Y0071646D01*
X0079616Y0071671D01*
X0079690Y0071689D01*
X0079770Y0071695D01*
X0079826D01*
X0079863Y0071689D01*
D02*
G37*
G36*
X0090603Y0069139D02*
X0090201D01*
Y0069535D01*
X0090188D01*
Y0069529D01*
X0090176Y0069516D01*
X0090163Y0069492D01*
X0090139Y0069467D01*
X0090083Y0069393D01*
X0089996Y0069312D01*
X0089947Y0069269D01*
X0089891Y0069226D01*
X0089829Y0069188D01*
X0089755Y0069151D01*
X0089681Y0069126D01*
X0089600Y0069102D01*
X0089507Y0069089D01*
X0089414Y0069083D01*
X0089377D01*
X0089334Y0069089D01*
X0089272Y0069102D01*
X0089204Y0069114D01*
X0089130Y0069139D01*
X0089049Y0069170D01*
X0088969Y0069219D01*
X0088882Y0069275D01*
X0088802Y0069343D01*
X0088727Y0069430D01*
X0088659Y0069535D01*
X0088597Y0069653D01*
X0088554Y0069795D01*
X0088529Y0069962D01*
X0088517Y0070049D01*
Y0070148D01*
Y0071652D01*
X0088913D01*
Y0070210D01*
Y0070204D01*
Y0070179D01*
X0088919Y0070135D01*
X0088925Y0070086D01*
X0088932Y0070024D01*
X0088944Y0069962D01*
X0088963Y0069888D01*
X0088987Y0069814D01*
X0089025Y0069739D01*
X0089062Y0069671D01*
X0089111Y0069603D01*
X0089173Y0069541D01*
X0089241Y0069492D01*
X0089322Y0069455D01*
X0089421Y0069424D01*
X0089526Y0069417D01*
X0089538D01*
X0089575Y0069424D01*
X0089631Y0069430D01*
X0089693Y0069442D01*
X0089773Y0069473D01*
X0089854Y0069510D01*
X0089934Y0069560D01*
X0090009Y0069634D01*
X0090015Y0069647D01*
X0090040Y0069671D01*
X0090071Y0069721D01*
X0090108Y0069789D01*
X0090139Y0069869D01*
X0090170Y0069968D01*
X0090194Y0070080D01*
X0090201Y0070204D01*
Y0071652D01*
X0090603D01*
Y0069139D01*
D02*
G37*
G36*
X0094738D02*
X0094336D01*
Y0071652D01*
X0094738D01*
Y0069139D01*
D02*
G37*
G36*
X0093518D02*
X0093116D01*
Y0072859D01*
X0093518D01*
Y0069139D01*
D02*
G37*
G36*
X0077140Y0071702D02*
X0077195Y0071695D01*
X0077263Y0071677D01*
X0077338Y0071658D01*
X0077418Y0071627D01*
X0077505Y0071590D01*
X0077585Y0071541D01*
X0077666Y0071479D01*
X0077740Y0071404D01*
X0077808Y0071312D01*
X0077864Y0071206D01*
X0077907Y0071083D01*
X0077932Y0070940D01*
X0077944Y0070773D01*
Y0069139D01*
X0077542D01*
Y0069529D01*
X0077530D01*
Y0069523D01*
X0077517Y0069510D01*
X0077505Y0069485D01*
X0077480Y0069461D01*
X0077418Y0069387D01*
X0077338Y0069306D01*
X0077226Y0069226D01*
X0077096Y0069151D01*
X0077016Y0069126D01*
X0076935Y0069102D01*
X0076849Y0069089D01*
X0076756Y0069083D01*
X0076719D01*
X0076694Y0069089D01*
X0076626Y0069096D01*
X0076545Y0069108D01*
X0076446Y0069133D01*
X0076354Y0069164D01*
X0076254Y0069213D01*
X0076168Y0069275D01*
X0076162Y0069288D01*
X0076137Y0069312D01*
X0076100Y0069356D01*
X0076063Y0069417D01*
X0076025Y0069492D01*
X0075988Y0069578D01*
X0075964Y0069684D01*
X0075957Y0069801D01*
Y0069807D01*
Y0069832D01*
X0075964Y0069869D01*
X0075970Y0069913D01*
X0075982Y0069968D01*
X0076001Y0070030D01*
X0076025Y0070098D01*
X0076063Y0070166D01*
X0076106Y0070241D01*
X0076162Y0070315D01*
X0076230Y0070383D01*
X0076310Y0070445D01*
X0076403Y0070507D01*
X0076515Y0070556D01*
X0076638Y0070594D01*
X0076787Y0070625D01*
X0077542Y0070730D01*
Y0070736D01*
Y0070754D01*
X0077536Y0070792D01*
Y0070829D01*
X0077523Y0070878D01*
X0077517Y0070934D01*
X0077480Y0071052D01*
X0077449Y0071107D01*
X0077418Y0071163D01*
X0077375Y0071219D01*
X0077325Y0071268D01*
X0077263Y0071312D01*
X0077195Y0071342D01*
X0077115Y0071361D01*
X0077022Y0071367D01*
X0076979D01*
X0076948Y0071361D01*
X0076904D01*
X0076861Y0071349D01*
X0076750Y0071330D01*
X0076626Y0071293D01*
X0076490Y0071237D01*
X0076415Y0071200D01*
X0076347Y0071163D01*
X0076273Y0071114D01*
X0076205Y0071058D01*
Y0071473D01*
X0076211D01*
X0076224Y0071485D01*
X0076242Y0071497D01*
X0076273Y0071510D01*
X0076304Y0071528D01*
X0076347Y0071547D01*
X0076397Y0071565D01*
X0076453Y0071590D01*
X0076576Y0071633D01*
X0076725Y0071671D01*
X0076886Y0071695D01*
X0077059Y0071708D01*
X0077096D01*
X0077140Y0071702D01*
D02*
G37*
G36*
X0071451Y0072649D02*
X0071494D01*
X0071538Y0072642D01*
X0071637Y0072630D01*
X0071754Y0072599D01*
X0071878Y0072562D01*
X0071996Y0072506D01*
X0072101Y0072432D01*
X0072107D01*
X0072113Y0072420D01*
X0072144Y0072395D01*
X0072188Y0072345D01*
X0072237Y0072277D01*
X0072281Y0072191D01*
X0072324Y0072092D01*
X0072355Y0071980D01*
X0072367Y0071918D01*
Y0071850D01*
Y0071844D01*
Y0071838D01*
Y0071801D01*
X0072361Y0071745D01*
X0072349Y0071677D01*
X0072330Y0071590D01*
X0072299Y0071504D01*
X0072262Y0071417D01*
X0072206Y0071330D01*
X0072200Y0071318D01*
X0072175Y0071293D01*
X0072138Y0071256D01*
X0072089Y0071206D01*
X0072027Y0071157D01*
X0071952Y0071101D01*
X0071860Y0071058D01*
X0071761Y0071014D01*
Y0071008D01*
X0071779D01*
X0071798Y0071002D01*
X0071816Y0070996D01*
X0071884Y0070983D01*
X0071965Y0070959D01*
X0072052Y0070922D01*
X0072144Y0070878D01*
X0072237Y0070816D01*
X0072324Y0070736D01*
X0072336Y0070723D01*
X0072361Y0070693D01*
X0072392Y0070649D01*
X0072435Y0070581D01*
X0072472Y0070495D01*
X0072510Y0070395D01*
X0072534Y0070278D01*
X0072540Y0070148D01*
Y0070142D01*
Y0070129D01*
Y0070104D01*
X0072534Y0070074D01*
X0072528Y0070037D01*
X0072522Y0069993D01*
X0072497Y0069888D01*
X0072460Y0069770D01*
X0072404Y0069647D01*
X0072367Y0069591D01*
X0072324Y0069529D01*
X0072268Y0069473D01*
X0072212Y0069417D01*
X0072206D01*
X0072200Y0069405D01*
X0072181Y0069393D01*
X0072157Y0069374D01*
X0072126Y0069356D01*
X0072082Y0069331D01*
X0071990Y0069281D01*
X0071872Y0069226D01*
X0071736Y0069182D01*
X0071575Y0069151D01*
X0071494Y0069145D01*
X0071402Y0069139D01*
X0070374D01*
Y0072655D01*
X0071420D01*
X0071451Y0072649D01*
D02*
G37*
G36*
X0091946Y0071652D02*
X0092584D01*
Y0071305D01*
X0091946D01*
Y0069888D01*
Y0069876D01*
Y0069845D01*
X0091952Y0069801D01*
X0091958Y0069745D01*
X0091983Y0069628D01*
X0092002Y0069572D01*
X0092033Y0069529D01*
X0092039Y0069523D01*
X0092051Y0069510D01*
X0092070Y0069498D01*
X0092101Y0069479D01*
X0092138Y0069455D01*
X0092188Y0069442D01*
X0092250Y0069430D01*
X0092318Y0069424D01*
X0092342D01*
X0092373Y0069430D01*
X0092410Y0069436D01*
X0092497Y0069461D01*
X0092540Y0069479D01*
X0092584Y0069504D01*
Y0069157D01*
X0092577D01*
X0092559Y0069145D01*
X0092528Y0069139D01*
X0092485Y0069126D01*
X0092429Y0069114D01*
X0092367Y0069102D01*
X0092293Y0069096D01*
X0092206Y0069089D01*
X0092175D01*
X0092144Y0069096D01*
X0092101Y0069102D01*
X0092051Y0069114D01*
X0091996Y0069126D01*
X0091940Y0069151D01*
X0091878Y0069182D01*
X0091816Y0069219D01*
X0091754Y0069269D01*
X0091699Y0069325D01*
X0091649Y0069399D01*
X0091606Y0069479D01*
X0091575Y0069578D01*
X0091550Y0069690D01*
X0091544Y0069820D01*
Y0071305D01*
X0091117D01*
Y0071652D01*
X0091544D01*
Y0072265D01*
X0091946Y0072395D01*
Y0071652D01*
D02*
G37*
G36*
X0099473Y0071702D02*
X0099516Y0071695D01*
X0099560Y0071689D01*
X0099671Y0071671D01*
X0099795Y0071627D01*
X0099919Y0071572D01*
X0099981Y0071534D01*
X0100043Y0071491D01*
X0100098Y0071442D01*
X0100154Y0071386D01*
X0100160Y0071380D01*
X0100166Y0071373D01*
X0100179Y0071355D01*
X0100197Y0071330D01*
X0100216Y0071293D01*
X0100241Y0071256D01*
X0100266Y0071213D01*
X0100290Y0071157D01*
X0100315Y0071095D01*
X0100340Y0071033D01*
X0100364Y0070959D01*
X0100383Y0070878D01*
X0100402Y0070792D01*
X0100414Y0070705D01*
X0100426Y0070606D01*
Y0070501D01*
Y0070290D01*
X0098650D01*
Y0070284D01*
Y0070272D01*
Y0070253D01*
X0098656Y0070222D01*
X0098662Y0070185D01*
Y0070148D01*
X0098681Y0070049D01*
X0098712Y0069950D01*
X0098749Y0069838D01*
X0098805Y0069733D01*
X0098873Y0069640D01*
X0098885Y0069628D01*
X0098910Y0069603D01*
X0098959Y0069572D01*
X0099028Y0069529D01*
X0099114Y0069485D01*
X0099213Y0069455D01*
X0099331Y0069430D01*
X0099467Y0069417D01*
X0099510D01*
X0099541Y0069424D01*
X0099578D01*
X0099622Y0069430D01*
X0099727Y0069455D01*
X0099845Y0069485D01*
X0099975Y0069535D01*
X0100111Y0069603D01*
X0100179Y0069647D01*
X0100247Y0069696D01*
Y0069318D01*
X0100241D01*
X0100235Y0069306D01*
X0100216Y0069300D01*
X0100185Y0069281D01*
X0100154Y0069263D01*
X0100117Y0069244D01*
X0100067Y0069226D01*
X0100018Y0069201D01*
X0099956Y0069176D01*
X0099888Y0069157D01*
X0099739Y0069120D01*
X0099566Y0069096D01*
X0099374Y0069083D01*
X0099325D01*
X0099287Y0069089D01*
X0099244Y0069096D01*
X0099189Y0069102D01*
X0099071Y0069126D01*
X0098935Y0069164D01*
X0098799Y0069226D01*
X0098730Y0069269D01*
X0098662Y0069312D01*
X0098600Y0069362D01*
X0098539Y0069424D01*
X0098532Y0069430D01*
X0098526Y0069442D01*
X0098514Y0069461D01*
X0098489Y0069485D01*
X0098470Y0069523D01*
X0098446Y0069566D01*
X0098415Y0069616D01*
X0098390Y0069671D01*
X0098359Y0069733D01*
X0098334Y0069807D01*
X0098303Y0069888D01*
X0098285Y0069974D01*
X0098266Y0070067D01*
X0098248Y0070166D01*
X0098241Y0070272D01*
X0098235Y0070383D01*
Y0070389D01*
Y0070408D01*
Y0070439D01*
X0098241Y0070482D01*
X0098248Y0070532D01*
X0098254Y0070587D01*
X0098260Y0070655D01*
X0098278Y0070723D01*
X0098316Y0070872D01*
X0098371Y0071033D01*
X0098409Y0071114D01*
X0098458Y0071188D01*
X0098508Y0071268D01*
X0098563Y0071336D01*
X0098569Y0071342D01*
X0098582Y0071355D01*
X0098600Y0071373D01*
X0098625Y0071392D01*
X0098656Y0071423D01*
X0098693Y0071454D01*
X0098743Y0071485D01*
X0098792Y0071522D01*
X0098910Y0071590D01*
X0099052Y0071652D01*
X0099133Y0071671D01*
X0099213Y0071689D01*
X0099300Y0071702D01*
X0099393Y0071708D01*
X0099442D01*
X0099473Y0071702D01*
D02*
G37*
G36*
X0086431Y0072711D02*
X0086493Y0072704D01*
X0086567Y0072692D01*
X0086647Y0072673D01*
X0086734Y0072655D01*
X0086821Y0072630D01*
X0086920Y0072599D01*
X0087013Y0072556D01*
X0087112Y0072506D01*
X0087211Y0072451D01*
X0087304Y0072382D01*
X0087397Y0072308D01*
X0087483Y0072221D01*
X0087489Y0072215D01*
X0087502Y0072197D01*
X0087527Y0072172D01*
X0087551Y0072135D01*
X0087588Y0072085D01*
X0087625Y0072023D01*
X0087663Y0071955D01*
X0087706Y0071881D01*
X0087749Y0071788D01*
X0087787Y0071695D01*
X0087824Y0071590D01*
X0087861Y0071473D01*
X0087885Y0071355D01*
X0087910Y0071225D01*
X0087923Y0071083D01*
X0087929Y0070940D01*
Y0070928D01*
Y0070903D01*
Y0070860D01*
X0087923Y0070798D01*
X0087916Y0070723D01*
X0087904Y0070643D01*
X0087892Y0070550D01*
X0087873Y0070445D01*
X0087848Y0070340D01*
X0087817Y0070228D01*
X0087780Y0070117D01*
X0087737Y0070006D01*
X0087681Y0069888D01*
X0087619Y0069783D01*
X0087551Y0069677D01*
X0087471Y0069578D01*
X0087465Y0069572D01*
X0087452Y0069560D01*
X0087421Y0069535D01*
X0087390Y0069504D01*
X0087341Y0069461D01*
X0087285Y0069424D01*
X0087223Y0069374D01*
X0087149Y0069331D01*
X0087068Y0069288D01*
X0086976Y0069238D01*
X0086876Y0069201D01*
X0086765Y0069164D01*
X0086647Y0069126D01*
X0086524Y0069102D01*
X0086394Y0069089D01*
X0086251Y0069083D01*
X0086220D01*
X0086177Y0069089D01*
X0086128D01*
X0086066Y0069096D01*
X0085991Y0069108D01*
X0085911Y0069126D01*
X0085818Y0069145D01*
X0085725Y0069170D01*
X0085626Y0069201D01*
X0085527Y0069244D01*
X0085428Y0069288D01*
X0085329Y0069343D01*
X0085230Y0069411D01*
X0085137Y0069485D01*
X0085050Y0069572D01*
X0085044Y0069578D01*
X0085032Y0069597D01*
X0085007Y0069622D01*
X0084982Y0069659D01*
X0084945Y0069708D01*
X0084908Y0069770D01*
X0084871Y0069838D01*
X0084828Y0069919D01*
X0084784Y0070006D01*
X0084747Y0070098D01*
X0084710Y0070204D01*
X0084673Y0070321D01*
X0084648Y0070439D01*
X0084623Y0070569D01*
X0084611Y0070711D01*
X0084605Y0070854D01*
Y0070866D01*
Y0070891D01*
X0084611Y0070934D01*
Y0070996D01*
X0084617Y0071064D01*
X0084630Y0071151D01*
X0084642Y0071244D01*
X0084661Y0071342D01*
X0084685Y0071448D01*
X0084716Y0071559D01*
X0084753Y0071671D01*
X0084797Y0071782D01*
X0084852Y0071893D01*
X0084914Y0072005D01*
X0084982Y0072110D01*
X0085063Y0072209D01*
X0085069Y0072215D01*
X0085081Y0072234D01*
X0085112Y0072259D01*
X0085150Y0072290D01*
X0085193Y0072327D01*
X0085249Y0072370D01*
X0085317Y0072413D01*
X0085391Y0072463D01*
X0085478Y0072513D01*
X0085571Y0072556D01*
X0085669Y0072599D01*
X0085781Y0072636D01*
X0085905Y0072667D01*
X0086035Y0072698D01*
X0086171Y0072711D01*
X0086313Y0072717D01*
X0086381D01*
X0086431Y0072711D01*
D02*
G37*
G36*
X0074404Y0071702D02*
X0074447Y0071695D01*
X0074503Y0071689D01*
X0074626Y0071664D01*
X0074769Y0071621D01*
X0074911Y0071559D01*
X0074986Y0071522D01*
X0075054Y0071479D01*
X0075122Y0071423D01*
X0075184Y0071361D01*
X0075190Y0071355D01*
X0075196Y0071342D01*
X0075215Y0071324D01*
X0075233Y0071299D01*
X0075258Y0071262D01*
X0075283Y0071219D01*
X0075314Y0071169D01*
X0075345Y0071114D01*
X0075369Y0071045D01*
X0075400Y0070977D01*
X0075425Y0070897D01*
X0075450Y0070810D01*
X0075468Y0070717D01*
X0075487Y0070618D01*
X0075493Y0070513D01*
X0075499Y0070402D01*
Y0070395D01*
Y0070377D01*
Y0070346D01*
X0075493Y0070303D01*
X0075487Y0070253D01*
X0075481Y0070191D01*
X0075468Y0070129D01*
X0075456Y0070055D01*
X0075419Y0069907D01*
X0075357Y0069745D01*
X0075320Y0069665D01*
X0075270Y0069585D01*
X0075221Y0069510D01*
X0075159Y0069442D01*
X0075153Y0069436D01*
X0075140Y0069430D01*
X0075122Y0069411D01*
X0075097Y0069387D01*
X0075060Y0069362D01*
X0075023Y0069331D01*
X0074973Y0069294D01*
X0074918Y0069263D01*
X0074856Y0069232D01*
X0074787Y0069195D01*
X0074713Y0069164D01*
X0074633Y0069139D01*
X0074546Y0069114D01*
X0074453Y0069102D01*
X0074354Y0069089D01*
X0074249Y0069083D01*
X0074193D01*
X0074156Y0069089D01*
X0074113Y0069096D01*
X0074057Y0069102D01*
X0073995Y0069114D01*
X0073927Y0069126D01*
X0073785Y0069170D01*
X0073636Y0069232D01*
X0073562Y0069269D01*
X0073494Y0069318D01*
X0073426Y0069368D01*
X0073358Y0069430D01*
X0073351Y0069436D01*
X0073345Y0069448D01*
X0073327Y0069467D01*
X0073308Y0069492D01*
X0073283Y0069529D01*
X0073252Y0069572D01*
X0073221Y0069622D01*
X0073197Y0069677D01*
X0073166Y0069745D01*
X0073135Y0069814D01*
X0073104Y0069888D01*
X0073079Y0069974D01*
X0073042Y0070160D01*
X0073036Y0070259D01*
X0073030Y0070364D01*
Y0070371D01*
Y0070395D01*
Y0070426D01*
X0073036Y0070470D01*
X0073042Y0070519D01*
X0073048Y0070581D01*
X0073061Y0070649D01*
X0073073Y0070723D01*
X0073110Y0070885D01*
X0073172Y0071045D01*
X0073215Y0071126D01*
X0073259Y0071206D01*
X0073308Y0071281D01*
X0073370Y0071349D01*
X0073376Y0071355D01*
X0073388Y0071367D01*
X0073407Y0071380D01*
X0073432Y0071404D01*
X0073469Y0071429D01*
X0073512Y0071460D01*
X0073562Y0071497D01*
X0073618Y0071528D01*
X0073680Y0071559D01*
X0073754Y0071596D01*
X0073828Y0071627D01*
X0073915Y0071652D01*
X0074001Y0071677D01*
X0074100Y0071695D01*
X0074206Y0071702D01*
X0074311Y0071708D01*
X0074366D01*
X0074404Y0071702D01*
D02*
G37*
G36*
X0085311Y0049206D02*
X0085366Y0049194D01*
X0085428Y0049181D01*
X0085496Y0049157D01*
X0085577Y0049126D01*
X0085651Y0049082D01*
X0085731Y0049033D01*
X0085806Y0048965D01*
X0085874Y0048878D01*
X0085936Y0048779D01*
X0085991Y0048668D01*
X0086028Y0048525D01*
X0086059Y0048370D01*
X0086066Y0048191D01*
Y0046643D01*
X0085663D01*
Y0048086D01*
Y0048092D01*
Y0048104D01*
Y0048123D01*
Y0048154D01*
X0085657Y0048228D01*
X0085645Y0048315D01*
X0085632Y0048414D01*
X0085608Y0048513D01*
X0085577Y0048606D01*
X0085533Y0048686D01*
X0085527Y0048692D01*
X0085509Y0048717D01*
X0085478Y0048748D01*
X0085428Y0048779D01*
X0085372Y0048816D01*
X0085298Y0048841D01*
X0085205Y0048866D01*
X0085100Y0048872D01*
X0085088D01*
X0085057Y0048866D01*
X0085007Y0048859D01*
X0084945Y0048841D01*
X0084877Y0048816D01*
X0084803Y0048773D01*
X0084729Y0048717D01*
X0084661Y0048637D01*
X0084654Y0048624D01*
X0084636Y0048593D01*
X0084605Y0048544D01*
X0084574Y0048476D01*
X0084537Y0048395D01*
X0084512Y0048302D01*
X0084487Y0048191D01*
X0084481Y0048073D01*
Y0046643D01*
X0084079D01*
Y0048135D01*
Y0048141D01*
Y0048166D01*
X0084073Y0048203D01*
Y0048253D01*
X0084060Y0048309D01*
X0084048Y0048370D01*
X0084029Y0048432D01*
X0084011Y0048507D01*
X0083980Y0048575D01*
X0083943Y0048637D01*
X0083893Y0048698D01*
X0083837Y0048754D01*
X0083775Y0048804D01*
X0083695Y0048841D01*
X0083608Y0048866D01*
X0083509Y0048872D01*
X0083497D01*
X0083466Y0048866D01*
X0083416Y0048859D01*
X0083354Y0048847D01*
X0083286Y0048816D01*
X0083212Y0048779D01*
X0083138Y0048723D01*
X0083070Y0048649D01*
X0083064Y0048637D01*
X0083045Y0048612D01*
X0083014Y0048562D01*
X0082983Y0048494D01*
X0082952Y0048414D01*
X0082921Y0048315D01*
X0082903Y0048203D01*
X0082896Y0048073D01*
Y0046643D01*
X0082494D01*
Y0049157D01*
X0082896D01*
Y0048754D01*
X0082909D01*
X0082915Y0048760D01*
X0082921Y0048773D01*
X0082940Y0048798D01*
X0082958Y0048829D01*
X0083020Y0048897D01*
X0083107Y0048983D01*
X0083218Y0049070D01*
X0083348Y0049138D01*
X0083429Y0049169D01*
X0083509Y0049194D01*
X0083596Y0049206D01*
X0083689Y0049212D01*
X0083732D01*
X0083781Y0049206D01*
X0083843Y0049194D01*
X0083912Y0049175D01*
X0083986Y0049150D01*
X0084060Y0049119D01*
X0084134Y0049070D01*
X0084141Y0049064D01*
X0084165Y0049045D01*
X0084196Y0049014D01*
X0084240Y0048971D01*
X0084283Y0048915D01*
X0084326Y0048853D01*
X0084370Y0048779D01*
X0084400Y0048692D01*
X0084407Y0048698D01*
X0084413Y0048717D01*
X0084431Y0048742D01*
X0084450Y0048773D01*
X0084481Y0048816D01*
X0084518Y0048859D01*
X0084562Y0048903D01*
X0084611Y0048952D01*
X0084667Y0049002D01*
X0084729Y0049045D01*
X0084797Y0049095D01*
X0084871Y0049132D01*
X0084951Y0049163D01*
X0085038Y0049187D01*
X0085137Y0049206D01*
X0085236Y0049212D01*
X0085273D01*
X0085311Y0049206D01*
D02*
G37*
G36*
X0098186Y0049194D02*
X0098260Y0049187D01*
X0098303Y0049175D01*
X0098334Y0049163D01*
Y0048748D01*
X0098328Y0048754D01*
X0098316Y0048760D01*
X0098291Y0048773D01*
X0098260Y0048791D01*
X0098217Y0048804D01*
X0098161Y0048816D01*
X0098099Y0048822D01*
X0098031Y0048829D01*
X0098018D01*
X0097988Y0048822D01*
X0097938Y0048816D01*
X0097882Y0048798D01*
X0097808Y0048767D01*
X0097740Y0048723D01*
X0097666Y0048661D01*
X0097598Y0048581D01*
X0097591Y0048568D01*
X0097573Y0048538D01*
X0097542Y0048482D01*
X0097511Y0048408D01*
X0097480Y0048315D01*
X0097449Y0048197D01*
X0097430Y0048067D01*
X0097424Y0047919D01*
Y0046643D01*
X0097022D01*
Y0049157D01*
X0097424D01*
Y0048637D01*
X0097437D01*
Y0048643D01*
X0097443Y0048649D01*
X0097455Y0048680D01*
X0097474Y0048730D01*
X0097505Y0048791D01*
X0097536Y0048853D01*
X0097585Y0048921D01*
X0097635Y0048989D01*
X0097697Y0049051D01*
X0097703Y0049057D01*
X0097728Y0049076D01*
X0097765Y0049101D01*
X0097814Y0049126D01*
X0097870Y0049150D01*
X0097938Y0049175D01*
X0098012Y0049194D01*
X0098093Y0049200D01*
X0098149D01*
X0098186Y0049194D01*
D02*
G37*
G36*
X0103392Y0046241D02*
X0103385Y0046235D01*
X0103379Y0046210D01*
X0103360Y0046167D01*
X0103336Y0046117D01*
X0103305Y0046062D01*
X0103261Y0045994D01*
X0103218Y0045925D01*
X0103169Y0045851D01*
X0103107Y0045777D01*
X0103045Y0045709D01*
X0102971Y0045641D01*
X0102890Y0045585D01*
X0102810Y0045535D01*
X0102717Y0045492D01*
X0102624Y0045467D01*
X0102519Y0045461D01*
X0102463D01*
X0102426Y0045467D01*
X0102345Y0045480D01*
X0102259Y0045498D01*
Y0045857D01*
X0102265D01*
X0102284Y0045851D01*
X0102308Y0045845D01*
X0102339Y0045839D01*
X0102413Y0045820D01*
X0102494Y0045814D01*
X0102506D01*
X0102543Y0045820D01*
X0102599Y0045832D01*
X0102667Y0045857D01*
X0102742Y0045901D01*
X0102779Y0045932D01*
X0102816Y0045969D01*
X0102853Y0046006D01*
X0102890Y0046055D01*
X0102921Y0046111D01*
X0102952Y0046173D01*
X0103156Y0046643D01*
X0102172Y0049157D01*
X0102618D01*
X0103299Y0047219D01*
Y0047213D01*
X0103305Y0047201D01*
X0103311Y0047182D01*
X0103317Y0047157D01*
X0103323Y0047120D01*
X0103336Y0047083D01*
X0103348Y0047027D01*
X0103367D01*
Y0047040D01*
X0103379Y0047077D01*
X0103392Y0047132D01*
X0103416Y0047213D01*
X0104128Y0049157D01*
X0104543D01*
X0103392Y0046241D01*
D02*
G37*
G36*
X0092961Y0046643D02*
X0092565D01*
X0091612Y0049157D01*
X0092051D01*
X0092695Y0047330D01*
X0092701Y0047324D01*
X0092708Y0047300D01*
X0092720Y0047256D01*
X0092732Y0047213D01*
X0092745Y0047157D01*
X0092763Y0047095D01*
X0092782Y0046978D01*
X0092788D01*
Y0046984D01*
X0092794Y0047009D01*
X0092800Y0047046D01*
X0092807Y0047089D01*
X0092819Y0047145D01*
X0092831Y0047201D01*
X0092869Y0047318D01*
X0093537Y0049157D01*
X0093958D01*
X0092961Y0046643D01*
D02*
G37*
G36*
X0100984Y0049206D02*
X0101039Y0049200D01*
X0101107Y0049181D01*
X0101182Y0049163D01*
X0101262Y0049132D01*
X0101349Y0049095D01*
X0101429Y0049045D01*
X0101510Y0048983D01*
X0101584Y0048909D01*
X0101652Y0048816D01*
X0101708Y0048711D01*
X0101751Y0048587D01*
X0101776Y0048445D01*
X0101788Y0048278D01*
Y0046643D01*
X0101386D01*
Y0047033D01*
X0101374D01*
Y0047027D01*
X0101361Y0047015D01*
X0101349Y0046990D01*
X0101324Y0046965D01*
X0101262Y0046891D01*
X0101182Y0046811D01*
X0101070Y0046730D01*
X0100940Y0046656D01*
X0100860Y0046631D01*
X0100779Y0046606D01*
X0100693Y0046594D01*
X0100600Y0046588D01*
X0100563D01*
X0100538Y0046594D01*
X0100470Y0046600D01*
X0100389Y0046613D01*
X0100290Y0046637D01*
X0100197Y0046668D01*
X0100098Y0046718D01*
X0100012Y0046780D01*
X0100005Y0046792D01*
X0099981Y0046817D01*
X0099944Y0046860D01*
X0099906Y0046922D01*
X0099869Y0046996D01*
X0099832Y0047083D01*
X0099807Y0047188D01*
X0099801Y0047306D01*
Y0047312D01*
Y0047337D01*
X0099807Y0047374D01*
X0099814Y0047417D01*
X0099826Y0047473D01*
X0099845Y0047535D01*
X0099869Y0047603D01*
X0099906Y0047671D01*
X0099950Y0047745D01*
X0100005Y0047820D01*
X0100074Y0047888D01*
X0100154Y0047949D01*
X0100247Y0048011D01*
X0100358Y0048061D01*
X0100482Y0048098D01*
X0100631Y0048129D01*
X0101386Y0048234D01*
Y0048240D01*
Y0048259D01*
X0101380Y0048296D01*
Y0048333D01*
X0101367Y0048383D01*
X0101361Y0048439D01*
X0101324Y0048556D01*
X0101293Y0048612D01*
X0101262Y0048668D01*
X0101219Y0048723D01*
X0101169Y0048773D01*
X0101107Y0048816D01*
X0101039Y0048847D01*
X0100959Y0048866D01*
X0100866Y0048872D01*
X0100823D01*
X0100792Y0048866D01*
X0100748D01*
X0100705Y0048853D01*
X0100594Y0048835D01*
X0100470Y0048798D01*
X0100334Y0048742D01*
X0100259Y0048705D01*
X0100191Y0048668D01*
X0100117Y0048618D01*
X0100049Y0048562D01*
Y0048977D01*
X0100055D01*
X0100067Y0048989D01*
X0100086Y0049002D01*
X0100117Y0049014D01*
X0100148Y0049033D01*
X0100191Y0049051D01*
X0100241Y0049070D01*
X0100296Y0049095D01*
X0100420Y0049138D01*
X0100569Y0049175D01*
X0100730Y0049200D01*
X0100903Y0049212D01*
X0100940D01*
X0100984Y0049206D01*
D02*
G37*
G36*
X0099170Y0046643D02*
X0098768D01*
Y0050364D01*
X0099170D01*
Y0046643D01*
D02*
G37*
G36*
X0071451Y0050153D02*
X0071494D01*
X0071538Y0050147D01*
X0071637Y0050135D01*
X0071754Y0050104D01*
X0071878Y0050067D01*
X0071996Y0050011D01*
X0072101Y0049937D01*
X0072107D01*
X0072113Y0049924D01*
X0072144Y0049899D01*
X0072188Y0049850D01*
X0072237Y0049782D01*
X0072281Y0049695D01*
X0072324Y0049596D01*
X0072355Y0049485D01*
X0072367Y0049423D01*
Y0049355D01*
Y0049349D01*
Y0049342D01*
Y0049305D01*
X0072361Y0049249D01*
X0072349Y0049181D01*
X0072330Y0049095D01*
X0072299Y0049008D01*
X0072262Y0048921D01*
X0072206Y0048835D01*
X0072200Y0048822D01*
X0072175Y0048798D01*
X0072138Y0048760D01*
X0072089Y0048711D01*
X0072027Y0048661D01*
X0071952Y0048606D01*
X0071860Y0048562D01*
X0071761Y0048519D01*
Y0048513D01*
X0071779D01*
X0071798Y0048507D01*
X0071816Y0048500D01*
X0071884Y0048488D01*
X0071965Y0048463D01*
X0072052Y0048426D01*
X0072144Y0048383D01*
X0072237Y0048321D01*
X0072324Y0048240D01*
X0072336Y0048228D01*
X0072361Y0048197D01*
X0072392Y0048154D01*
X0072435Y0048086D01*
X0072472Y0047999D01*
X0072510Y0047900D01*
X0072534Y0047782D01*
X0072540Y0047652D01*
Y0047646D01*
Y0047634D01*
Y0047609D01*
X0072534Y0047578D01*
X0072528Y0047541D01*
X0072522Y0047498D01*
X0072497Y0047392D01*
X0072460Y0047275D01*
X0072404Y0047151D01*
X0072367Y0047095D01*
X0072324Y0047033D01*
X0072268Y0046978D01*
X0072212Y0046922D01*
X0072206D01*
X0072200Y0046910D01*
X0072181Y0046897D01*
X0072157Y0046879D01*
X0072126Y0046860D01*
X0072082Y0046835D01*
X0071990Y0046786D01*
X0071872Y0046730D01*
X0071736Y0046687D01*
X0071575Y0046656D01*
X0071494Y0046650D01*
X0071402Y0046643D01*
X0070374D01*
Y0050159D01*
X0071420D01*
X0071451Y0050153D01*
D02*
G37*
G36*
X0078378Y0049157D02*
X0079015D01*
Y0048810D01*
X0078378D01*
Y0047392D01*
Y0047380D01*
Y0047349D01*
X0078384Y0047306D01*
X0078390Y0047250D01*
X0078415Y0047132D01*
X0078433Y0047077D01*
X0078464Y0047033D01*
X0078470Y0047027D01*
X0078483Y0047015D01*
X0078501Y0047002D01*
X0078532Y0046984D01*
X0078570Y0046959D01*
X0078619Y0046947D01*
X0078681Y0046934D01*
X0078749Y0046928D01*
X0078774D01*
X0078805Y0046934D01*
X0078842Y0046941D01*
X0078929Y0046965D01*
X0078972Y0046984D01*
X0079015Y0047009D01*
Y0046662D01*
X0079009D01*
X0078991Y0046650D01*
X0078960Y0046643D01*
X0078916Y0046631D01*
X0078860Y0046619D01*
X0078799Y0046606D01*
X0078724Y0046600D01*
X0078638Y0046594D01*
X0078607D01*
X0078576Y0046600D01*
X0078532Y0046606D01*
X0078483Y0046619D01*
X0078427Y0046631D01*
X0078372Y0046656D01*
X0078310Y0046687D01*
X0078248Y0046724D01*
X0078186Y0046773D01*
X0078130Y0046829D01*
X0078081Y0046903D01*
X0078037Y0046984D01*
X0078006Y0047083D01*
X0077982Y0047194D01*
X0077975Y0047324D01*
Y0048810D01*
X0077548D01*
Y0049157D01*
X0077975D01*
Y0049769D01*
X0078378Y0049899D01*
Y0049157D01*
D02*
G37*
G36*
X0076675D02*
X0077313D01*
Y0048810D01*
X0076675D01*
Y0047392D01*
Y0047380D01*
Y0047349D01*
X0076682Y0047306D01*
X0076688Y0047250D01*
X0076713Y0047132D01*
X0076731Y0047077D01*
X0076762Y0047033D01*
X0076768Y0047027D01*
X0076781Y0047015D01*
X0076799Y0047002D01*
X0076830Y0046984D01*
X0076867Y0046959D01*
X0076917Y0046947D01*
X0076979Y0046934D01*
X0077047Y0046928D01*
X0077072D01*
X0077103Y0046934D01*
X0077140Y0046941D01*
X0077226Y0046965D01*
X0077270Y0046984D01*
X0077313Y0047009D01*
Y0046662D01*
X0077307D01*
X0077288Y0046650D01*
X0077257Y0046643D01*
X0077214Y0046631D01*
X0077158Y0046619D01*
X0077096Y0046606D01*
X0077022Y0046600D01*
X0076935Y0046594D01*
X0076904D01*
X0076873Y0046600D01*
X0076830Y0046606D01*
X0076781Y0046619D01*
X0076725Y0046631D01*
X0076669Y0046656D01*
X0076607Y0046687D01*
X0076545Y0046724D01*
X0076484Y0046773D01*
X0076428Y0046829D01*
X0076378Y0046903D01*
X0076335Y0046984D01*
X0076304Y0047083D01*
X0076279Y0047194D01*
X0076273Y0047324D01*
Y0048810D01*
X0075846D01*
Y0049157D01*
X0076273D01*
Y0049769D01*
X0076675Y0049899D01*
Y0049157D01*
D02*
G37*
G36*
X0095462Y0049206D02*
X0095505Y0049200D01*
X0095549Y0049194D01*
X0095660Y0049175D01*
X0095784Y0049132D01*
X0095908Y0049076D01*
X0095970Y0049039D01*
X0096032Y0048996D01*
X0096087Y0048946D01*
X0096143Y0048890D01*
X0096149Y0048884D01*
X0096155Y0048878D01*
X0096168Y0048859D01*
X0096186Y0048835D01*
X0096205Y0048798D01*
X0096230Y0048760D01*
X0096254Y0048717D01*
X0096279Y0048661D01*
X0096304Y0048599D01*
X0096329Y0048538D01*
X0096353Y0048463D01*
X0096372Y0048383D01*
X0096391Y0048296D01*
X0096403Y0048210D01*
X0096415Y0048110D01*
Y0048005D01*
Y0047795D01*
X0094639D01*
Y0047789D01*
Y0047776D01*
Y0047758D01*
X0094645Y0047727D01*
X0094651Y0047690D01*
Y0047652D01*
X0094670Y0047553D01*
X0094701Y0047454D01*
X0094738Y0047343D01*
X0094794Y0047238D01*
X0094862Y0047145D01*
X0094874Y0047132D01*
X0094899Y0047108D01*
X0094948Y0047077D01*
X0095016Y0047033D01*
X0095103Y0046990D01*
X0095202Y0046959D01*
X0095320Y0046934D01*
X0095456Y0046922D01*
X0095499D01*
X0095530Y0046928D01*
X0095567D01*
X0095611Y0046934D01*
X0095716Y0046959D01*
X0095833Y0046990D01*
X0095964Y0047040D01*
X0096100Y0047108D01*
X0096168Y0047151D01*
X0096236Y0047201D01*
Y0046823D01*
X0096230D01*
X0096223Y0046811D01*
X0096205Y0046804D01*
X0096174Y0046786D01*
X0096143Y0046767D01*
X0096106Y0046749D01*
X0096056Y0046730D01*
X0096007Y0046705D01*
X0095945Y0046681D01*
X0095877Y0046662D01*
X0095728Y0046625D01*
X0095555Y0046600D01*
X0095363Y0046588D01*
X0095314D01*
X0095276Y0046594D01*
X0095233Y0046600D01*
X0095177Y0046606D01*
X0095060Y0046631D01*
X0094924Y0046668D01*
X0094787Y0046730D01*
X0094719Y0046773D01*
X0094651Y0046817D01*
X0094589Y0046866D01*
X0094527Y0046928D01*
X0094521Y0046934D01*
X0094515Y0046947D01*
X0094503Y0046965D01*
X0094478Y0046990D01*
X0094459Y0047027D01*
X0094434Y0047071D01*
X0094404Y0047120D01*
X0094379Y0047176D01*
X0094348Y0047238D01*
X0094323Y0047312D01*
X0094292Y0047392D01*
X0094274Y0047479D01*
X0094255Y0047572D01*
X0094236Y0047671D01*
X0094230Y0047776D01*
X0094224Y0047888D01*
Y0047894D01*
Y0047912D01*
Y0047943D01*
X0094230Y0047987D01*
X0094236Y0048036D01*
X0094243Y0048092D01*
X0094249Y0048160D01*
X0094267Y0048228D01*
X0094305Y0048377D01*
X0094360Y0048538D01*
X0094397Y0048618D01*
X0094447Y0048692D01*
X0094496Y0048773D01*
X0094552Y0048841D01*
X0094558Y0048847D01*
X0094571Y0048859D01*
X0094589Y0048878D01*
X0094614Y0048897D01*
X0094645Y0048928D01*
X0094682Y0048959D01*
X0094732Y0048989D01*
X0094781Y0049027D01*
X0094899Y0049095D01*
X0095041Y0049157D01*
X0095122Y0049175D01*
X0095202Y0049194D01*
X0095289Y0049206D01*
X0095382Y0049212D01*
X0095431D01*
X0095462Y0049206D01*
D02*
G37*
G36*
X0089848Y0050215D02*
X0089910Y0050209D01*
X0089984Y0050196D01*
X0090064Y0050178D01*
X0090151Y0050159D01*
X0090238Y0050135D01*
X0090337Y0050104D01*
X0090430Y0050060D01*
X0090529Y0050011D01*
X0090628Y0049955D01*
X0090720Y0049887D01*
X0090813Y0049813D01*
X0090900Y0049726D01*
X0090906Y0049720D01*
X0090919Y0049701D01*
X0090943Y0049676D01*
X0090968Y0049639D01*
X0091005Y0049590D01*
X0091042Y0049528D01*
X0091079Y0049460D01*
X0091123Y0049386D01*
X0091166Y0049293D01*
X0091203Y0049200D01*
X0091241Y0049095D01*
X0091278Y0048977D01*
X0091302Y0048859D01*
X0091327Y0048730D01*
X0091339Y0048587D01*
X0091346Y0048445D01*
Y0048432D01*
Y0048408D01*
Y0048364D01*
X0091339Y0048302D01*
X0091333Y0048228D01*
X0091321Y0048148D01*
X0091309Y0048055D01*
X0091290Y0047949D01*
X0091265Y0047844D01*
X0091234Y0047733D01*
X0091197Y0047621D01*
X0091154Y0047510D01*
X0091098Y0047392D01*
X0091036Y0047287D01*
X0090968Y0047182D01*
X0090888Y0047083D01*
X0090882Y0047077D01*
X0090869Y0047064D01*
X0090838Y0047040D01*
X0090807Y0047009D01*
X0090758Y0046965D01*
X0090702Y0046928D01*
X0090640Y0046879D01*
X0090566Y0046835D01*
X0090485Y0046792D01*
X0090393Y0046742D01*
X0090293Y0046705D01*
X0090182Y0046668D01*
X0090064Y0046631D01*
X0089941Y0046606D01*
X0089811Y0046594D01*
X0089668Y0046588D01*
X0089637D01*
X0089594Y0046594D01*
X0089544D01*
X0089482Y0046600D01*
X0089408Y0046613D01*
X0089328Y0046631D01*
X0089235Y0046650D01*
X0089142Y0046674D01*
X0089043Y0046705D01*
X0088944Y0046749D01*
X0088845Y0046792D01*
X0088746Y0046848D01*
X0088647Y0046916D01*
X0088554Y0046990D01*
X0088467Y0047077D01*
X0088461Y0047083D01*
X0088449Y0047102D01*
X0088424Y0047126D01*
X0088399Y0047163D01*
X0088362Y0047213D01*
X0088325Y0047275D01*
X0088288Y0047343D01*
X0088244Y0047423D01*
X0088201Y0047510D01*
X0088164Y0047603D01*
X0088127Y0047708D01*
X0088090Y0047826D01*
X0088065Y0047943D01*
X0088040Y0048073D01*
X0088028Y0048216D01*
X0088022Y0048358D01*
Y0048370D01*
Y0048395D01*
X0088028Y0048439D01*
Y0048500D01*
X0088034Y0048568D01*
X0088046Y0048655D01*
X0088059Y0048748D01*
X0088077Y0048847D01*
X0088102Y0048952D01*
X0088133Y0049064D01*
X0088170Y0049175D01*
X0088214Y0049287D01*
X0088269Y0049398D01*
X0088331Y0049509D01*
X0088399Y0049615D01*
X0088480Y0049714D01*
X0088486Y0049720D01*
X0088498Y0049738D01*
X0088529Y0049763D01*
X0088566Y0049794D01*
X0088610Y0049831D01*
X0088665Y0049875D01*
X0088734Y0049918D01*
X0088808Y0049968D01*
X0088894Y0050017D01*
X0088987Y0050060D01*
X0089086Y0050104D01*
X0089198Y0050141D01*
X0089322Y0050172D01*
X0089452Y0050203D01*
X0089588Y0050215D01*
X0089730Y0050221D01*
X0089798D01*
X0089848Y0050215D01*
D02*
G37*
G36*
X0080755Y0049206D02*
X0080798Y0049200D01*
X0080854Y0049194D01*
X0080977Y0049169D01*
X0081120Y0049126D01*
X0081262Y0049064D01*
X0081336Y0049027D01*
X0081405Y0048983D01*
X0081473Y0048928D01*
X0081535Y0048866D01*
X0081541Y0048859D01*
X0081547Y0048847D01*
X0081565Y0048829D01*
X0081584Y0048804D01*
X0081609Y0048767D01*
X0081634Y0048723D01*
X0081665Y0048674D01*
X0081695Y0048618D01*
X0081720Y0048550D01*
X0081751Y0048482D01*
X0081776Y0048401D01*
X0081801Y0048315D01*
X0081819Y0048222D01*
X0081838Y0048123D01*
X0081844Y0048018D01*
X0081850Y0047906D01*
Y0047900D01*
Y0047881D01*
Y0047850D01*
X0081844Y0047807D01*
X0081838Y0047758D01*
X0081832Y0047696D01*
X0081819Y0047634D01*
X0081807Y0047560D01*
X0081770Y0047411D01*
X0081708Y0047250D01*
X0081671Y0047170D01*
X0081621Y0047089D01*
X0081572Y0047015D01*
X0081510Y0046947D01*
X0081504Y0046941D01*
X0081491Y0046934D01*
X0081473Y0046916D01*
X0081448Y0046891D01*
X0081411Y0046866D01*
X0081374Y0046835D01*
X0081324Y0046798D01*
X0081268Y0046767D01*
X0081207Y0046736D01*
X0081138Y0046699D01*
X0081064Y0046668D01*
X0080984Y0046643D01*
X0080897Y0046619D01*
X0080804Y0046606D01*
X0080705Y0046594D01*
X0080600Y0046588D01*
X0080544D01*
X0080507Y0046594D01*
X0080464Y0046600D01*
X0080408Y0046606D01*
X0080346Y0046619D01*
X0080278Y0046631D01*
X0080136Y0046674D01*
X0079987Y0046736D01*
X0079913Y0046773D01*
X0079845Y0046823D01*
X0079777Y0046872D01*
X0079708Y0046934D01*
X0079702Y0046941D01*
X0079696Y0046953D01*
X0079678Y0046971D01*
X0079659Y0046996D01*
X0079634Y0047033D01*
X0079603Y0047077D01*
X0079572Y0047126D01*
X0079548Y0047182D01*
X0079517Y0047250D01*
X0079486Y0047318D01*
X0079455Y0047392D01*
X0079430Y0047479D01*
X0079393Y0047665D01*
X0079387Y0047764D01*
X0079380Y0047869D01*
Y0047875D01*
Y0047900D01*
Y0047931D01*
X0079387Y0047974D01*
X0079393Y0048024D01*
X0079399Y0048086D01*
X0079411Y0048154D01*
X0079424Y0048228D01*
X0079461Y0048389D01*
X0079523Y0048550D01*
X0079566Y0048630D01*
X0079610Y0048711D01*
X0079659Y0048785D01*
X0079721Y0048853D01*
X0079727Y0048859D01*
X0079739Y0048872D01*
X0079758Y0048884D01*
X0079783Y0048909D01*
X0079820Y0048934D01*
X0079863Y0048965D01*
X0079913Y0049002D01*
X0079969Y0049033D01*
X0080030Y0049064D01*
X0080105Y0049101D01*
X0080179Y0049132D01*
X0080266Y0049157D01*
X0080352Y0049181D01*
X0080451Y0049200D01*
X0080557Y0049206D01*
X0080662Y0049212D01*
X0080717D01*
X0080755Y0049206D01*
D02*
G37*
G36*
X0074404D02*
X0074447Y0049200D01*
X0074503Y0049194D01*
X0074626Y0049169D01*
X0074769Y0049126D01*
X0074911Y0049064D01*
X0074986Y0049027D01*
X0075054Y0048983D01*
X0075122Y0048928D01*
X0075184Y0048866D01*
X0075190Y0048859D01*
X0075196Y0048847D01*
X0075215Y0048829D01*
X0075233Y0048804D01*
X0075258Y0048767D01*
X0075283Y0048723D01*
X0075314Y0048674D01*
X0075345Y0048618D01*
X0075369Y0048550D01*
X0075400Y0048482D01*
X0075425Y0048401D01*
X0075450Y0048315D01*
X0075468Y0048222D01*
X0075487Y0048123D01*
X0075493Y0048018D01*
X0075499Y0047906D01*
Y0047900D01*
Y0047881D01*
Y0047850D01*
X0075493Y0047807D01*
X0075487Y0047758D01*
X0075481Y0047696D01*
X0075468Y0047634D01*
X0075456Y0047560D01*
X0075419Y0047411D01*
X0075357Y0047250D01*
X0075320Y0047170D01*
X0075270Y0047089D01*
X0075221Y0047015D01*
X0075159Y0046947D01*
X0075153Y0046941D01*
X0075140Y0046934D01*
X0075122Y0046916D01*
X0075097Y0046891D01*
X0075060Y0046866D01*
X0075023Y0046835D01*
X0074973Y0046798D01*
X0074918Y0046767D01*
X0074856Y0046736D01*
X0074787Y0046699D01*
X0074713Y0046668D01*
X0074633Y0046643D01*
X0074546Y0046619D01*
X0074453Y0046606D01*
X0074354Y0046594D01*
X0074249Y0046588D01*
X0074193D01*
X0074156Y0046594D01*
X0074113Y0046600D01*
X0074057Y0046606D01*
X0073995Y0046619D01*
X0073927Y0046631D01*
X0073785Y0046674D01*
X0073636Y0046736D01*
X0073562Y0046773D01*
X0073494Y0046823D01*
X0073426Y0046872D01*
X0073358Y0046934D01*
X0073351Y0046941D01*
X0073345Y0046953D01*
X0073327Y0046971D01*
X0073308Y0046996D01*
X0073283Y0047033D01*
X0073252Y0047077D01*
X0073221Y0047126D01*
X0073197Y0047182D01*
X0073166Y0047250D01*
X0073135Y0047318D01*
X0073104Y0047392D01*
X0073079Y0047479D01*
X0073042Y0047665D01*
X0073036Y0047764D01*
X0073030Y0047869D01*
Y0047875D01*
Y0047900D01*
Y0047931D01*
X0073036Y0047974D01*
X0073042Y0048024D01*
X0073048Y0048086D01*
X0073061Y0048154D01*
X0073073Y0048228D01*
X0073110Y0048389D01*
X0073172Y0048550D01*
X0073215Y0048630D01*
X0073259Y0048711D01*
X0073308Y0048785D01*
X0073370Y0048853D01*
X0073376Y0048859D01*
X0073388Y0048872D01*
X0073407Y0048884D01*
X0073432Y0048909D01*
X0073469Y0048934D01*
X0073512Y0048965D01*
X0073562Y0049002D01*
X0073618Y0049033D01*
X0073680Y0049064D01*
X0073754Y0049101D01*
X0073828Y0049132D01*
X0073915Y0049157D01*
X0074001Y0049181D01*
X0074100Y0049200D01*
X0074206Y0049206D01*
X0074311Y0049212D01*
X0074366D01*
X0074404Y0049206D01*
D02*
G37*
G36*
X-0013513Y0035648D02*
X-0013450Y0035640D01*
X-0013388Y0035624D01*
X-0013329Y0035602D01*
X-0013272Y0035574D01*
X-0013219Y0035539D01*
X-0013171Y0035498D01*
X-0013127Y0035453D01*
X-0013088Y0035403D01*
X-0013055Y0035348D01*
X-0013029Y0035291D01*
X-0013009Y0035231D01*
X-0012996Y0035169D01*
X-0012990Y0035105D01*
X-0012991Y0035042D01*
X-0013000Y0034979D01*
X-0013015Y0034918D01*
X-0013037Y0034858D01*
X-0013066Y0034802D01*
X-0013092Y0034761D01*
X-0013092Y0034761D01*
X-0013092Y0034761D01*
X-0013124Y0034714D01*
X-0013274Y0034511D01*
X-0013430Y0034312D01*
X-0013430Y0034312D01*
X-0013430Y0034312D01*
X-0013432Y0034309D01*
X-0013432Y0034309D01*
X-0013475Y0034256D01*
X-0013544Y0034157D01*
X-0013607Y0034055D01*
X-0013665Y0033949D01*
X-0013715Y0033839D01*
X-0013759Y0033727D01*
X-0013796Y0033613D01*
X-0013826Y0033496D01*
X-0013849Y0033378D01*
X-0013864Y0033258D01*
X-0013873Y0033138D01*
X-0013874Y0033018D01*
X-0013868Y0032897D01*
X-0013855Y0032778D01*
X-0013834Y0032659D01*
X-0013811Y0032558D01*
X-0013811Y0032558D01*
X-0013778Y0032425D01*
X-0013745Y0032258D01*
X-0013719Y0032089D01*
X-0013700Y0031919D01*
X-0013689Y0031749D01*
X-0013686Y0031578D01*
X-0013689Y0031408D01*
X-0013700Y0031237D01*
X-0013719Y0031068D01*
X-0013745Y0030899D01*
X-0013778Y0030732D01*
X-0013819Y0030566D01*
X-0013867Y0030402D01*
X-0013921Y0030240D01*
X-0013983Y0030081D01*
X-0014052Y0029925D01*
X-0014128Y0029772D01*
X-0014210Y0029622D01*
X-0014298Y0029476D01*
X-0014393Y0029335D01*
X-0014494Y0029197D01*
X-0014601Y0029064D01*
X-0014713Y0028936D01*
X-0014831Y0028812D01*
X-0014955Y0028694D01*
X-0015083Y0028582D01*
X-0015216Y0028475D01*
X-0015354Y0028374D01*
X-0015496Y0028279D01*
X-0015642Y0028190D01*
X-0015791Y0028108D01*
X-0015944Y0028033D01*
X-0016100Y0027964D01*
X-0016260Y0027902D01*
X-0016421Y0027847D01*
X-0016585Y0027800D01*
X-0016751Y0027759D01*
X-0016918Y0027726D01*
X-0017087Y0027700D01*
X-0017256Y0027681D01*
X-0017427Y0027670D01*
X-0017597Y0027666D01*
X-0017768Y0027670D01*
X-0017938Y0027681D01*
X-0018108Y0027700D01*
X-0018277Y0027726D01*
X-0018444Y0027759D01*
X-0018610Y0027800D01*
X-0018774Y0027847D01*
X-0018935Y0027902D01*
X-0019094Y0027964D01*
X-0019251Y0028033D01*
X-0019404Y0028108D01*
X-0019553Y0028190D01*
X-0019699Y0028279D01*
X-0019841Y0028374D01*
X-0019979Y0028475D01*
X-0020112Y0028582D01*
X-0020240Y0028694D01*
X-0020364Y0028812D01*
X-0020482Y0028936D01*
X-0020594Y0029064D01*
X-0020701Y0029197D01*
X-0020802Y0029335D01*
X-0020897Y0029476D01*
X-0020985Y0029622D01*
X-0021067Y0029772D01*
X-0021143Y0029925D01*
X-0021212Y0030081D01*
X-0021273Y0030240D01*
X-0021328Y0030402D01*
X-0021368Y0030537D01*
X-0021368Y0030537D01*
X-0021398Y0030638D01*
X-0021440Y0030751D01*
X-0021488Y0030861D01*
X-0021543Y0030968D01*
X-0021604Y0031072D01*
X-0021672Y0031172D01*
X-0021745Y0031267D01*
X-0021824Y0031359D01*
X-0021908Y0031444D01*
X-0021998Y0031525D01*
X-0022092Y0031601D01*
X-0022190Y0031670D01*
X-0022293Y0031733D01*
X-0022399Y0031790D01*
X-0022508Y0031841D01*
X-0022569Y0031865D01*
X-0022570Y0031865D01*
X-0022574Y0031867D01*
X-0022573Y0031867D01*
X-0022801Y0031958D01*
X-0023032Y0032060D01*
X-0023083Y0032084D01*
X-0023083Y0032084D01*
X-0023083Y0032084D01*
X-0023127Y0032106D01*
X-0023179Y0032140D01*
X-0023228Y0032181D01*
X-0023272Y0032226D01*
X-0023310Y0032276D01*
X-0023343Y0032330D01*
X-0023369Y0032388D01*
X-0023389Y0032447D01*
X-0023402Y0032509D01*
X-0023407Y0032572D01*
X-0023406Y0032635D01*
X-0023398Y0032698D01*
X-0023383Y0032759D01*
X-0023361Y0032818D01*
X-0023333Y0032874D01*
X-0023298Y0032927D01*
X-0023258Y0032976D01*
X-0023212Y0033020D01*
X-0023162Y0033058D01*
X-0023108Y0033090D01*
X-0023051Y0033117D01*
X-0022991Y0033136D01*
X-0022929Y0033149D01*
X-0022866Y0033155D01*
X-0022803Y0033154D01*
X-0022741Y0033146D01*
X-0022680Y0033131D01*
X-0022620Y0033109D01*
X-0022608Y0033102D01*
X-0022607Y0033103D01*
X-0022607Y0033103D01*
X-0022539Y0033071D01*
X-0022332Y0032981D01*
X-0022121Y0032897D01*
X-0021908Y0032821D01*
X-0021693Y0032752D01*
X-0021475Y0032690D01*
X-0021256Y0032635D01*
X-0021034Y0032587D01*
X-0020812Y0032547D01*
X-0020588Y0032513D01*
X-0020363Y0032488D01*
X-0020137Y0032469D01*
X-0019911Y0032458D01*
X-0019685Y0032454D01*
X-0019459Y0032458D01*
X-0019233Y0032469D01*
X-0019007Y0032488D01*
X-0018782Y0032513D01*
X-0018559Y0032547D01*
X-0018336Y0032587D01*
X-0018115Y0032635D01*
X-0017895Y0032690D01*
X-0017678Y0032752D01*
X-0017462Y0032821D01*
X-0017249Y0032898D01*
X-0017039Y0032981D01*
X-0016831Y0033071D01*
X-0016626Y0033167D01*
X-0016425Y0033271D01*
X-0016227Y0033381D01*
X-0016033Y0033497D01*
X-0015843Y0033620D01*
X-0015657Y0033749D01*
X-0015475Y0033883D01*
X-0015298Y0034024D01*
X-0015125Y0034170D01*
X-0014958Y0034323D01*
X-0014795Y0034480D01*
X-0014638Y0034642D01*
X-0014486Y0034810D01*
X-0014339Y0034983D01*
X-0014199Y0035160D01*
X-0014064Y0035342D01*
X-0014018Y0035407D01*
X-0014018Y0035408D01*
X-0014017Y0035408D01*
X-0014009Y0035420D01*
X-0013969Y0035469D01*
X-0013923Y0035513D01*
X-0013873Y0035551D01*
X-0013819Y0035584D01*
X-0013761Y0035610D01*
X-0013701Y0035630D01*
X-0013639Y0035643D01*
X-0013576Y0035649D01*
X-0013513Y0035648D01*
D02*
G37*
G36*
X0013106Y0034561D02*
X0013106Y0034561D01*
X0013106Y0034562D01*
X0013106Y0034561D01*
D02*
G37*
G36*
X-0023083Y0032083D02*
X-0023083Y0032083D01*
X-0023083Y0032084D01*
X-0023083Y0032083D01*
D02*
G37*
G36*
X0013650Y0035440D02*
X0013712Y0035428D01*
X0013772Y0035408D01*
X0013829Y0035382D01*
X0013883Y0035349D01*
X0013934Y0035311D01*
X0013979Y0035267D01*
X0014019Y0035218D01*
X0014027Y0035206D01*
X0014027Y0035207D01*
X0014028Y0035206D01*
X0014070Y0035145D01*
X0014205Y0034963D01*
X0014346Y0034786D01*
X0014492Y0034613D01*
X0014644Y0034446D01*
X0014802Y0034283D01*
X0014964Y0034126D01*
X0015132Y0033974D01*
X0015304Y0033827D01*
X0015482Y0033687D01*
X0015664Y0033552D01*
X0015850Y0033423D01*
X0016040Y0033300D01*
X0016234Y0033184D01*
X0016432Y0033074D01*
X0016633Y0032971D01*
X0016838Y0032874D01*
X0017045Y0032784D01*
X0017256Y0032701D01*
X0017469Y0032625D01*
X0017684Y0032555D01*
X0017902Y0032493D01*
X0018121Y0032438D01*
X0018342Y0032390D01*
X0018565Y0032350D01*
X0018789Y0032317D01*
X0019014Y0032291D01*
X0019239Y0032272D01*
X0019465Y0032261D01*
X0019692Y0032257D01*
X0019918Y0032261D01*
X0020144Y0032272D01*
X0020370Y0032291D01*
X0020594Y0032317D01*
X0020818Y0032350D01*
X0021041Y0032390D01*
X0021262Y0032438D01*
X0021482Y0032493D01*
X0021699Y0032555D01*
X0021915Y0032625D01*
X0022128Y0032701D01*
X0022338Y0032784D01*
X0022546Y0032874D01*
X0022618Y0032908D01*
X0022619Y0032908D01*
X0022619Y0032908D01*
X0022632Y0032914D01*
X0022691Y0032936D01*
X0022753Y0032952D01*
X0022816Y0032960D01*
X0022879Y0032961D01*
X0022942Y0032955D01*
X0023004Y0032942D01*
X0023064Y0032922D01*
X0023122Y0032896D01*
X0023176Y0032863D01*
X0023226Y0032825D01*
X0023272Y0032781D01*
X0023313Y0032732D01*
X0023347Y0032679D01*
X0023376Y0032622D01*
X0023398Y0032563D01*
X0023413Y0032502D01*
X0023421Y0032439D01*
X0023423Y0032375D01*
X0023417Y0032312D01*
X0023404Y0032250D01*
X0023384Y0032190D01*
X0023358Y0032133D01*
X0023325Y0032078D01*
X0023286Y0032028D01*
X0023242Y0031982D01*
X0023193Y0031942D01*
X0023140Y0031907D01*
X0023096Y0031885D01*
X0023097Y0031885D01*
X0023097Y0031885D01*
X0023046Y0031861D01*
X0022814Y0031759D01*
X0022580Y0031665D01*
X0022580D01*
X0022580Y0031665D01*
X0022577Y0031664D01*
X0022576Y0031664D01*
X0022513Y0031639D01*
X0022404Y0031588D01*
X0022298Y0031531D01*
X0022195Y0031468D01*
X0022097Y0031398D01*
X0022003Y0031323D01*
X0021913Y0031242D01*
X0021829Y0031156D01*
X0021750Y0031065D01*
X0021677Y0030970D01*
X0021609Y0030870D01*
X0021548Y0030766D01*
X0021493Y0030659D01*
X0021445Y0030549D01*
X0021403Y0030436D01*
X0021373Y0030337D01*
X0021373Y0030337D01*
X0021335Y0030205D01*
X0021280Y0030044D01*
X0021218Y0029884D01*
X0021149Y0029728D01*
X0021074Y0029575D01*
X0020992Y0029425D01*
X0020903Y0029280D01*
X0020808Y0029138D01*
X0020707Y0029000D01*
X0020601Y0028867D01*
X0020488Y0028739D01*
X0020370Y0028615D01*
X0020247Y0028497D01*
X0020119Y0028385D01*
X0019985Y0028278D01*
X0019848Y0028177D01*
X0019706Y0028082D01*
X0019560Y0027994D01*
X0019410Y0027911D01*
X0019257Y0027836D01*
X0019101Y0027767D01*
X0018942Y0027705D01*
X0018780Y0027651D01*
X0018616Y0027603D01*
X0018451Y0027562D01*
X0018283Y0027529D01*
X0018114Y0027503D01*
X0017945Y0027484D01*
X0017775Y0027473D01*
X0017604Y0027470D01*
X0017433Y0027473D01*
X0017263Y0027484D01*
X0017093Y0027503D01*
X0016925Y0027529D01*
X0016757Y0027562D01*
X0016591Y0027603D01*
X0016428Y0027651D01*
X0016266Y0027705D01*
X0016107Y0027767D01*
X0015951Y0027836D01*
X0015798Y0027911D01*
X0015648Y0027994D01*
X0015502Y0028082D01*
X0015360Y0028177D01*
X0015223Y0028278D01*
X0015089Y0028385D01*
X0014961Y0028497D01*
X0014838Y0028615D01*
X0014720Y0028739D01*
X0014607Y0028867D01*
X0014500Y0029000D01*
X0014400Y0029138D01*
X0014305Y0029280D01*
X0014216Y0029425D01*
X0014134Y0029575D01*
X0014059Y0029728D01*
X0013990Y0029884D01*
X0013928Y0030044D01*
X0013873Y0030205D01*
X0013825Y0030369D01*
X0013785Y0030535D01*
X0013751Y0030702D01*
X0013725Y0030871D01*
X0013707Y0031040D01*
X0013696Y0031211D01*
X0013692Y0031381D01*
X0013696Y0031552D01*
X0013707Y0031722D01*
X0013725Y0031892D01*
X0013751Y0032061D01*
X0013785Y0032228D01*
X0013818Y0032365D01*
X0013818Y0032365D01*
X0013842Y0032467D01*
X0013863Y0032586D01*
X0013876Y0032706D01*
X0013882Y0032826D01*
X0013881Y0032946D01*
X0013872Y0033067D01*
X0013857Y0033186D01*
X0013834Y0033304D01*
X0013804Y0033421D01*
X0013767Y0033536D01*
X0013723Y0033648D01*
X0013672Y0033757D01*
X0013615Y0033863D01*
X0013552Y0033966D01*
X0013483Y0034064D01*
X0013441Y0034116D01*
X0013441Y0034116D01*
X0013439Y0034119D01*
X0013439Y0034119D01*
X0013288Y0034312D01*
X0013138Y0034516D01*
X0013106Y0034562D01*
X0013106Y0034562D01*
X0013106Y0034562D01*
X0013079Y0034603D01*
X0013051Y0034659D01*
X0013029Y0034718D01*
X0013014Y0034780D01*
X0013006Y0034842D01*
X0013004Y0034905D01*
X0013010Y0034968D01*
X0013023Y0035030D01*
X0013043Y0035090D01*
X0013069Y0035147D01*
X0013102Y0035201D01*
X0013140Y0035251D01*
X0013184Y0035297D01*
X0013232Y0035337D01*
X0013285Y0035371D01*
X0013342Y0035400D01*
X0013401Y0035422D01*
X0013462Y0035437D01*
X0013524Y0035445D01*
X0013588Y0035446D01*
X0013650Y0035440D01*
D02*
G37*
G36*
X0015480Y-0032689D02*
X0015542Y-0032702D01*
X0015602Y-0032721D01*
X0015659Y-0032748D01*
X0015713Y-0032780D01*
X0015763Y-0032818D01*
X0015809Y-0032862D01*
X0015849Y-0032911D01*
X0015883Y-0032964D01*
X0015912Y-0033020D01*
X0015934Y-0033079D01*
X0015949Y-0033140D01*
X0015957Y-0033203D01*
X0015958Y-0033266D01*
X0015952Y-0033329D01*
X0015939Y-0033391D01*
X0015920Y-0033450D01*
X0015893Y-0033508D01*
X0015861Y-0033562D01*
X0015822Y-0033612D01*
X0015779Y-0033657D01*
X0015730Y-0033698D01*
X0015718Y-0033705D01*
X0015719Y-0033706D01*
X0015718Y-0033706D01*
X0015657Y-0033749D01*
X0015475Y-0033884D01*
X0015298Y-0034024D01*
X0015125Y-0034171D01*
X0014957Y-0034323D01*
X0014795Y-0034480D01*
X0014638Y-0034643D01*
X0014485Y-0034810D01*
X0014339Y-0034983D01*
X0014198Y-0035160D01*
X0014064Y-0035342D01*
X0013935Y-0035528D01*
X0013812Y-0035718D01*
X0013696Y-0035912D01*
X0013586Y-0036110D01*
X0013483Y-0036311D01*
X0013386Y-0036516D01*
X0013296Y-0036724D01*
X0013213Y-0036934D01*
X0013136Y-0037147D01*
X0013067Y-0037363D01*
X0013005Y-0037580D01*
X0012950Y-0037800D01*
X0012902Y-0038021D01*
X0012862Y-0038243D01*
X0012829Y-0038467D01*
X0012803Y-0038692D01*
X0012784Y-0038918D01*
X0012773Y-0039144D01*
X0012769Y-0039370D01*
X0012773Y-0039596D01*
X0012784Y-0039822D01*
X0012803Y-0040048D01*
X0012829Y-0040273D01*
X0012862Y-0040497D01*
X0012902Y-0040719D01*
X0012950Y-0040940D01*
X0013005Y-0041160D01*
X0013067Y-0041378D01*
X0013136Y-0041593D01*
X0013213Y-0041806D01*
X0013296Y-0042017D01*
X0013386Y-0042224D01*
X0013420Y-0042296D01*
X0013420Y-0042297D01*
X0013420Y-0042297D01*
X0013426Y-0042310D01*
X0013448Y-0042370D01*
X0013464Y-0042431D01*
X0013472Y-0042494D01*
X0013473Y-0042557D01*
X0013467Y-0042621D01*
X0013454Y-0042682D01*
X0013434Y-0042743D01*
X0013408Y-0042800D01*
X0013375Y-0042855D01*
X0013337Y-0042905D01*
X0013293Y-0042950D01*
X0013244Y-0042991D01*
X0013191Y-0043026D01*
X0013134Y-0043054D01*
X0013075Y-0043076D01*
X0013013Y-0043091D01*
X0012951Y-0043100D01*
X0012887Y-0043101D01*
X0012824Y-0043095D01*
X0012762Y-0043082D01*
X0012702Y-0043062D01*
X0012644Y-0043036D01*
X0012590Y-0043003D01*
X0012540Y-0042965D01*
X0012494Y-0042921D01*
X0012454Y-0042872D01*
X0012419Y-0042819D01*
X0012397Y-0042775D01*
X0012397Y-0042775D01*
X0012397Y-0042775D01*
X0012373Y-0042724D01*
X0012271Y-0042493D01*
X0012177Y-0042259D01*
Y-0042259D01*
X0012177Y-0042259D01*
X0012176Y-0042255D01*
X0012175Y-0042254D01*
X0012151Y-0042191D01*
X0012100Y-0042082D01*
X0012043Y-0041976D01*
X0011980Y-0041874D01*
X0011910Y-0041775D01*
X0011835Y-0041681D01*
X0011754Y-0041592D01*
X0011668Y-0041507D01*
X0011577Y-0041428D01*
X0011482Y-0041355D01*
X0011382Y-0041288D01*
X0011278Y-0041226D01*
X0011171Y-0041171D01*
X0011061Y-0041123D01*
X0010948Y-0041082D01*
X0010849Y-0041052D01*
X0010849Y-0041052D01*
X0010717Y-0041013D01*
X0010555Y-0040958D01*
X0010396Y-0040896D01*
X0010240Y-0040828D01*
X0010087Y-0040752D01*
X0009937Y-0040670D01*
X0009792Y-0040582D01*
X0009650Y-0040487D01*
X0009512Y-0040386D01*
X0009379Y-0040279D01*
X0009251Y-0040167D01*
X0009127Y-0040049D01*
X0009009Y-0039925D01*
X0008897Y-0039797D01*
X0008790Y-0039664D01*
X0008689Y-0039526D01*
X0008594Y-0039384D01*
X0008506Y-0039238D01*
X0008423Y-0039089D01*
X0008348Y-0038936D01*
X0008279Y-0038779D01*
X0008217Y-0038620D01*
X0008162Y-0038459D01*
X0008115Y-0038295D01*
X0008074Y-0038129D01*
X0008041Y-0037962D01*
X0008015Y-0037793D01*
X0007996Y-0037623D01*
X0007985Y-0037453D01*
X0007981Y-0037282D01*
X0007985Y-0037112D01*
X0007996Y-0036941D01*
X0008015Y-0036772D01*
X0008041Y-0036603D01*
X0008074Y-0036436D01*
X0008115Y-0036270D01*
X0008162Y-0036106D01*
X0008217Y-0035944D01*
X0008279Y-0035785D01*
X0008348Y-0035629D01*
X0008423Y-0035476D01*
X0008506Y-0035326D01*
X0008594Y-0035180D01*
X0008689Y-0035039D01*
X0008790Y-0034901D01*
X0008897Y-0034768D01*
X0009009Y-0034639D01*
X0009127Y-0034516D01*
X0009251Y-0034398D01*
X0009379Y-0034286D01*
X0009512Y-0034179D01*
X0009650Y-0034078D01*
X0009792Y-0033983D01*
X0009937Y-0033895D01*
X0010087Y-0033812D01*
X0010240Y-0033737D01*
X0010396Y-0033668D01*
X0010555Y-0033606D01*
X0010717Y-0033551D01*
X0010881Y-0033504D01*
X0011047Y-0033463D01*
X0011214Y-0033430D01*
X0011383Y-0033404D01*
X0011552Y-0033385D01*
X0011723Y-0033374D01*
X0011893Y-0033370D01*
X0012064Y-0033374D01*
X0012234Y-0033385D01*
X0012404Y-0033404D01*
X0012573Y-0033430D01*
X0012740Y-0033463D01*
X0012877Y-0033496D01*
X0012877Y-0033496D01*
X0012979Y-0033521D01*
X0013098Y-0033541D01*
X0013217Y-0033554D01*
X0013338Y-0033560D01*
X0013458Y-0033559D01*
X0013578Y-0033551D01*
X0013698Y-0033535D01*
X0013816Y-0033512D01*
X0013933Y-0033482D01*
X0014048Y-0033445D01*
X0014160Y-0033401D01*
X0014269Y-0033351D01*
X0014375Y-0033294D01*
X0014478Y-0033230D01*
X0014576Y-0033161D01*
X0014628Y-0033120D01*
X0014628Y-0033120D01*
X0014631Y-0033117D01*
X0014631Y-0033117D01*
X0014824Y-0032966D01*
X0015028Y-0032816D01*
X0015074Y-0032785D01*
X0015074Y-0032785D01*
X0015115Y-0032758D01*
X0015171Y-0032729D01*
X0015230Y-0032707D01*
X0015292Y-0032692D01*
X0015354Y-0032684D01*
X0015417Y-0032683D01*
X0015480Y-0032689D01*
D02*
G37*
G36*
X-0015357Y-0032676D02*
X-0015294Y-0032685D01*
X-0015233Y-0032700D01*
X-0015173Y-0032722D01*
X-0015117Y-0032750D01*
X-0015076Y-0032777D01*
X-0015076Y-0032777D01*
X-0015076Y-0032777D01*
X-0015029Y-0032809D01*
X-0014826Y-0032959D01*
X-0014627Y-0033114D01*
Y-0033114D01*
X-0014627Y-0033115D01*
X-0014624Y-0033117D01*
X-0014624Y-0033117D01*
X-0014571Y-0033160D01*
X-0014472Y-0033229D01*
X-0014370Y-0033292D01*
X-0014264Y-0033349D01*
X-0014154Y-0033400D01*
X-0014042Y-0033444D01*
X-0013928Y-0033481D01*
X-0013811Y-0033511D01*
X-0013693Y-0033534D01*
X-0013573Y-0033549D01*
X-0013453Y-0033558D01*
X-0013333Y-0033559D01*
X-0013212Y-0033553D01*
X-0013092Y-0033540D01*
X-0012974Y-0033519D01*
X-0012873Y-0033496D01*
X-0012873Y-0033496D01*
X-0012740Y-0033463D01*
X-0012573Y-0033430D01*
X-0012404Y-0033404D01*
X-0012234Y-0033385D01*
X-0012064Y-0033374D01*
X-0011893Y-0033370D01*
X-0011723Y-0033374D01*
X-0011552Y-0033385D01*
X-0011383Y-0033404D01*
X-0011214Y-0033430D01*
X-0011047Y-0033463D01*
X-0010881Y-0033504D01*
X-0010717Y-0033551D01*
X-0010555Y-0033606D01*
X-0010396Y-0033668D01*
X-0010240Y-0033737D01*
X-0010087Y-0033812D01*
X-0009937Y-0033895D01*
X-0009792Y-0033983D01*
X-0009650Y-0034078D01*
X-0009512Y-0034179D01*
X-0009379Y-0034286D01*
X-0009251Y-0034398D01*
X-0009127Y-0034516D01*
X-0009009Y-0034639D01*
X-0009002Y-0034648D01*
X-0010264Y-0034986D01*
X-0010461Y-0034250D01*
X-0010461Y-0034250D01*
X-0010473Y-0034217D01*
X-0010489Y-0034186D01*
X-0010510Y-0034158D01*
X-0010536Y-0034134D01*
X-0010565Y-0034115D01*
X-0010596Y-0034099D01*
X-0010630Y-0034089D01*
X-0010664Y-0034085D01*
X-0010699Y-0034086D01*
X-0010734Y-0034092D01*
X-0010766Y-0034104D01*
X-0010797Y-0034121D01*
X-0010825Y-0034142D01*
X-0010849Y-0034167D01*
X-0010851Y-0034170D01*
X-0010851Y-0034170D01*
X-0012269Y-0035975D01*
X-0012269Y-0035975D01*
X-0012287Y-0036001D01*
X-0012302Y-0036033D01*
X-0012312Y-0036066D01*
X-0012316Y-0036101D01*
X-0012316Y-0036136D01*
X-0012309Y-0036170D01*
X-0012298Y-0036203D01*
X-0012281Y-0036234D01*
X-0012260Y-0036261D01*
X-0012234Y-0036285D01*
X-0012206Y-0036305D01*
X-0012178Y-0036318D01*
X-0012177Y-0036319D01*
X-0010046Y-0037176D01*
X-0010045Y-0037176D01*
X-0010042Y-0037177D01*
X-0010009Y-0037187D01*
X-0009974Y-0037191D01*
X-0009939Y-0037190D01*
X-0009905Y-0037184D01*
X-0009872Y-0037172D01*
X-0009841Y-0037156D01*
X-0009814Y-0037135D01*
X-0009790Y-0037109D01*
X-0009770Y-0037080D01*
X-0009755Y-0037049D01*
X-0009745Y-0037016D01*
X-0009740Y-0036981D01*
X-0009741Y-0036946D01*
X-0009748Y-0036912D01*
X-0009748Y-0036912D01*
X-0009945Y-0036176D01*
X-0008301Y-0035735D01*
X-0008279Y-0035785D01*
X-0008217Y-0035944D01*
X-0008162Y-0036106D01*
X-0008115Y-0036270D01*
X-0008074Y-0036436D01*
X-0008041Y-0036603D01*
X-0008015Y-0036772D01*
X-0007996Y-0036941D01*
X-0007985Y-0037112D01*
X-0007981Y-0037282D01*
X-0007985Y-0037453D01*
X-0007996Y-0037623D01*
X-0008015Y-0037793D01*
X-0008041Y-0037962D01*
X-0008074Y-0038129D01*
X-0008115Y-0038295D01*
X-0008162Y-0038459D01*
X-0008217Y-0038620D01*
X-0008279Y-0038779D01*
X-0008348Y-0038936D01*
X-0008423Y-0039089D01*
X-0008506Y-0039238D01*
X-0008594Y-0039384D01*
X-0008689Y-0039526D01*
X-0008790Y-0039664D01*
X-0008897Y-0039797D01*
X-0009009Y-0039925D01*
X-0009127Y-0040049D01*
X-0009251Y-0040167D01*
X-0009379Y-0040279D01*
X-0009512Y-0040386D01*
X-0009650Y-0040487D01*
X-0009792Y-0040582D01*
X-0009937Y-0040670D01*
X-0010087Y-0040752D01*
X-0010240Y-0040828D01*
X-0010396Y-0040896D01*
X-0010555Y-0040958D01*
X-0010717Y-0041013D01*
X-0010852Y-0041052D01*
X-0010852Y-0041053D01*
X-0010852D01*
Y-0041053D01*
X-0010953Y-0041083D01*
X-0011066Y-0041124D01*
X-0011176Y-0041173D01*
X-0011283Y-0041228D01*
X-0011387Y-0041289D01*
X-0011487Y-0041357D01*
X-0011583Y-0041430D01*
X-0011674Y-0041509D01*
X-0011760Y-0041593D01*
X-0011840Y-0041682D01*
X-0011916Y-0041777D01*
X-0011985Y-0041875D01*
X-0012048Y-0041978D01*
X-0012105Y-0042084D01*
X-0012156Y-0042193D01*
X-0012180Y-0042254D01*
X-0012180Y-0042255D01*
X-0012182Y-0042258D01*
X-0012182Y-0042258D01*
X-0012273Y-0042485D01*
X-0012375Y-0042717D01*
X-0012399Y-0042768D01*
X-0012399Y-0042768D01*
X-0012421Y-0042811D01*
X-0012455Y-0042864D01*
X-0012496Y-0042913D01*
X-0012541Y-0042957D01*
X-0012591Y-0042995D01*
X-0012645Y-0043027D01*
X-0012703Y-0043054D01*
X-0012763Y-0043073D01*
X-0012824Y-0043086D01*
X-0012887Y-0043092D01*
X-0012950Y-0043091D01*
X-0013013Y-0043083D01*
X-0013074Y-0043068D01*
X-0013133Y-0043046D01*
X-0013189Y-0043017D01*
X-0013242Y-0042983D01*
X-0013291Y-0042943D01*
X-0013334Y-0042897D01*
X-0013373Y-0042847D01*
X-0013406Y-0042793D01*
X-0013432Y-0042736D01*
X-0013452Y-0042676D01*
X-0013464Y-0042614D01*
X-0013470Y-0042551D01*
X-0013469Y-0042488D01*
X-0013461Y-0042426D01*
X-0013446Y-0042364D01*
X-0013424Y-0042305D01*
X-0013417Y-0042293D01*
X-0013418Y-0042292D01*
X-0013418Y-0042292D01*
X-0013386Y-0042224D01*
X-0013296Y-0042017D01*
X-0013213Y-0041806D01*
X-0013136Y-0041593D01*
X-0013067Y-0041378D01*
X-0013005Y-0041160D01*
X-0012950Y-0040940D01*
X-0012902Y-0040719D01*
X-0012862Y-0040497D01*
X-0012829Y-0040273D01*
X-0012803Y-0040048D01*
X-0012798Y-0039988D01*
X-0011406Y-0039615D01*
X-0011208Y-0040351D01*
X-0011209Y-0040351D01*
X-0011197Y-0040384D01*
X-0011180Y-0040415D01*
X-0011159Y-0040442D01*
X-0011134Y-0040466D01*
X-0011105Y-0040486D01*
X-0011073Y-0040501D01*
X-0011040Y-0040511D01*
X-0011005Y-0040516D01*
X-0010970Y-0040515D01*
X-0010936Y-0040508D01*
X-0010903Y-0040497D01*
X-0010872Y-0040480D01*
X-0010845Y-0040459D01*
X-0010821Y-0040433D01*
X-0010819Y-0040431D01*
X-0010819Y-0040431D01*
X-0009401Y-0038625D01*
X-0009400Y-0038625D01*
X-0009383Y-0038599D01*
X-0009368Y-0038568D01*
X-0009358Y-0038534D01*
X-0009353Y-0038500D01*
X-0009354Y-0038465D01*
X-0009360Y-0038430D01*
X-0009372Y-0038397D01*
X-0009389Y-0038367D01*
X-0009410Y-0038339D01*
X-0009435Y-0038315D01*
X-0009464Y-0038295D01*
X-0009492Y-0038282D01*
X-0009492Y-0038282D01*
X-0011624Y-0037425D01*
X-0011624Y-0037425D01*
X-0011627Y-0037424D01*
X-0011661Y-0037414D01*
X-0011695Y-0037409D01*
X-0011730Y-0037410D01*
X-0011765Y-0037416D01*
X-0011797Y-0037428D01*
X-0011828Y-0037445D01*
X-0011856Y-0037466D01*
X-0011880Y-0037491D01*
X-0011900Y-0037520D01*
X-0011915Y-0037552D01*
X-0011925Y-0037585D01*
X-0011929Y-0037620D01*
X-0011928Y-0037655D01*
X-0011922Y-0037689D01*
X-0011922Y-0037689D01*
X-0011725Y-0038425D01*
X-0012801Y-0038713D01*
X-0012803Y-0038692D01*
X-0012829Y-0038467D01*
X-0012862Y-0038243D01*
X-0012902Y-0038021D01*
X-0012950Y-0037800D01*
X-0013005Y-0037580D01*
X-0013067Y-0037363D01*
X-0013136Y-0037147D01*
X-0013213Y-0036934D01*
X-0013296Y-0036724D01*
X-0013386Y-0036516D01*
X-0013483Y-0036311D01*
X-0013586Y-0036110D01*
X-0013696Y-0035912D01*
X-0013812Y-0035718D01*
X-0013935Y-0035528D01*
X-0014064Y-0035342D01*
X-0014198Y-0035160D01*
X-0014339Y-0034983D01*
X-0014486Y-0034810D01*
X-0014638Y-0034643D01*
X-0014795Y-0034480D01*
X-0014957Y-0034323D01*
X-0015125Y-0034171D01*
X-0015298Y-0034024D01*
X-0015475Y-0033884D01*
X-0015657Y-0033749D01*
X-0015722Y-0033703D01*
X-0015723Y-0033703D01*
X-0015722Y-0033702D01*
X-0015735Y-0033694D01*
X-0015784Y-0033654D01*
X-0015828Y-0033608D01*
X-0015866Y-0033558D01*
X-0015899Y-0033504D01*
X-0015925Y-0033446D01*
X-0015945Y-0033386D01*
X-0015958Y-0033324D01*
X-0015964Y-0033261D01*
X-0015963Y-0033198D01*
X-0015955Y-0033135D01*
X-0015939Y-0033073D01*
X-0015917Y-0033014D01*
X-0015889Y-0032957D01*
X-0015854Y-0032904D01*
X-0015814Y-0032855D01*
X-0015768Y-0032811D01*
X-0015718Y-0032773D01*
X-0015663Y-0032740D01*
X-0015606Y-0032714D01*
X-0015546Y-0032694D01*
X-0015484Y-0032681D01*
X-0015420Y-0032675D01*
X-0015357Y-0032676D01*
D02*
G37*
G36*
X-0012398Y-0042768D02*
X-0012399Y-0042768D01*
D01*
X-0012398Y-0042768D01*
D02*
G37*
%LPC*%
G36*
X0081479Y0071367D02*
X0081442D01*
X0081417Y0071361D01*
X0081349Y0071355D01*
X0081268Y0071336D01*
X0081176Y0071299D01*
X0081077Y0071250D01*
X0080984Y0071188D01*
X0080940Y0071144D01*
X0080897Y0071095D01*
X0080891Y0071083D01*
X0080866Y0071045D01*
X0080829Y0070983D01*
X0080792Y0070903D01*
X0080755Y0070798D01*
X0080717Y0070668D01*
X0080693Y0070519D01*
X0080686Y0070352D01*
Y0070346D01*
Y0070334D01*
Y0070309D01*
X0080693Y0070278D01*
Y0070247D01*
X0080699Y0070204D01*
X0080711Y0070104D01*
X0080736Y0069993D01*
X0080773Y0069882D01*
X0080823Y0069770D01*
X0080891Y0069665D01*
X0080903Y0069653D01*
X0080928Y0069628D01*
X0080971Y0069585D01*
X0081033Y0069541D01*
X0081114Y0069498D01*
X0081207Y0069455D01*
X0081312Y0069430D01*
X0081436Y0069417D01*
X0081467D01*
X0081491Y0069424D01*
X0081553Y0069430D01*
X0081627Y0069448D01*
X0081714Y0069479D01*
X0081807Y0069516D01*
X0081894Y0069578D01*
X0081980Y0069659D01*
X0081986Y0069671D01*
X0082011Y0069702D01*
X0082048Y0069758D01*
X0082086Y0069826D01*
X0082123Y0069913D01*
X0082160Y0070018D01*
X0082184Y0070142D01*
X0082191Y0070272D01*
Y0070643D01*
Y0070649D01*
Y0070655D01*
Y0070693D01*
X0082178Y0070748D01*
X0082166Y0070823D01*
X0082141Y0070903D01*
X0082104Y0070990D01*
X0082055Y0071076D01*
X0081986Y0071157D01*
X0081980Y0071163D01*
X0081949Y0071188D01*
X0081906Y0071225D01*
X0081850Y0071262D01*
X0081776Y0071299D01*
X0081689Y0071336D01*
X0081590Y0071361D01*
X0081479Y0071367D01*
D02*
G37*
G36*
X0077542Y0070408D02*
X0076935Y0070321D01*
X0076923D01*
X0076892Y0070315D01*
X0076843Y0070303D01*
X0076781Y0070290D01*
X0076713Y0070272D01*
X0076638Y0070247D01*
X0076576Y0070222D01*
X0076515Y0070185D01*
X0076508Y0070179D01*
X0076490Y0070166D01*
X0076471Y0070142D01*
X0076446Y0070104D01*
X0076415Y0070055D01*
X0076397Y0069993D01*
X0076378Y0069919D01*
X0076372Y0069832D01*
Y0069826D01*
Y0069801D01*
X0076378Y0069770D01*
X0076391Y0069727D01*
X0076403Y0069677D01*
X0076428Y0069628D01*
X0076459Y0069578D01*
X0076502Y0069529D01*
X0076508Y0069523D01*
X0076527Y0069510D01*
X0076558Y0069492D01*
X0076595Y0069473D01*
X0076644Y0069455D01*
X0076706Y0069436D01*
X0076775Y0069424D01*
X0076855Y0069417D01*
X0076867D01*
X0076904Y0069424D01*
X0076960Y0069430D01*
X0077028Y0069442D01*
X0077103Y0069467D01*
X0077189Y0069504D01*
X0077270Y0069560D01*
X0077344Y0069628D01*
X0077350Y0069640D01*
X0077375Y0069665D01*
X0077406Y0069708D01*
X0077443Y0069770D01*
X0077480Y0069851D01*
X0077511Y0069937D01*
X0077536Y0070043D01*
X0077542Y0070154D01*
Y0070408D01*
D02*
G37*
G36*
X0071259Y0072283D02*
X0070789D01*
Y0071144D01*
X0071265D01*
X0071327Y0071151D01*
X0071402Y0071163D01*
X0071488Y0071182D01*
X0071581Y0071213D01*
X0071662Y0071250D01*
X0071742Y0071305D01*
X0071748Y0071312D01*
X0071773Y0071336D01*
X0071804Y0071373D01*
X0071841Y0071429D01*
X0071872Y0071491D01*
X0071903Y0071572D01*
X0071928Y0071664D01*
X0071934Y0071770D01*
Y0071776D01*
Y0071794D01*
X0071928Y0071819D01*
X0071921Y0071850D01*
X0071897Y0071931D01*
X0071878Y0071980D01*
X0071847Y0072030D01*
X0071816Y0072073D01*
X0071767Y0072123D01*
X0071717Y0072166D01*
X0071649Y0072203D01*
X0071575Y0072234D01*
X0071482Y0072259D01*
X0071377Y0072277D01*
X0071259Y0072283D01*
D02*
G37*
G36*
Y0070773D02*
X0070789D01*
Y0069510D01*
X0071408D01*
X0071470Y0069516D01*
X0071556Y0069529D01*
X0071643Y0069554D01*
X0071736Y0069578D01*
X0071829Y0069622D01*
X0071909Y0069677D01*
X0071915Y0069684D01*
X0071940Y0069708D01*
X0071971Y0069745D01*
X0072008Y0069801D01*
X0072045Y0069869D01*
X0072076Y0069950D01*
X0072101Y0070049D01*
X0072107Y0070154D01*
Y0070160D01*
Y0070179D01*
X0072101Y0070210D01*
X0072095Y0070253D01*
X0072082Y0070296D01*
X0072064Y0070352D01*
X0072039Y0070408D01*
X0072002Y0070464D01*
X0071959Y0070519D01*
X0071903Y0070575D01*
X0071835Y0070631D01*
X0071748Y0070674D01*
X0071655Y0070717D01*
X0071538Y0070748D01*
X0071408Y0070767D01*
X0071259Y0070773D01*
D02*
G37*
G36*
X0099387Y0071367D02*
X0099337D01*
X0099287Y0071355D01*
X0099219Y0071342D01*
X0099145Y0071318D01*
X0099059Y0071281D01*
X0098978Y0071231D01*
X0098897Y0071163D01*
X0098891Y0071157D01*
X0098867Y0071126D01*
X0098836Y0071083D01*
X0098792Y0071021D01*
X0098749Y0070946D01*
X0098712Y0070854D01*
X0098681Y0070748D01*
X0098656Y0070631D01*
X0100012D01*
Y0070637D01*
Y0070649D01*
Y0070662D01*
Y0070686D01*
X0100005Y0070754D01*
X0099993Y0070829D01*
X0099968Y0070922D01*
X0099944Y0071008D01*
X0099900Y0071095D01*
X0099845Y0071175D01*
X0099838Y0071182D01*
X0099814Y0071206D01*
X0099777Y0071237D01*
X0099727Y0071275D01*
X0099659Y0071305D01*
X0099578Y0071336D01*
X0099492Y0071361D01*
X0099387Y0071367D01*
D02*
G37*
G36*
X0086282Y0072339D02*
X0086227D01*
X0086189Y0072333D01*
X0086140Y0072327D01*
X0086090Y0072321D01*
X0086028Y0072308D01*
X0085960Y0072290D01*
X0085818Y0072240D01*
X0085744Y0072209D01*
X0085663Y0072172D01*
X0085589Y0072123D01*
X0085515Y0072067D01*
X0085447Y0072005D01*
X0085379Y0071937D01*
X0085372Y0071931D01*
X0085366Y0071918D01*
X0085348Y0071893D01*
X0085323Y0071863D01*
X0085298Y0071825D01*
X0085273Y0071776D01*
X0085242Y0071720D01*
X0085211Y0071658D01*
X0085174Y0071584D01*
X0085143Y0071510D01*
X0085119Y0071423D01*
X0085094Y0071330D01*
X0085069Y0071231D01*
X0085050Y0071120D01*
X0085044Y0071008D01*
X0085038Y0070891D01*
Y0070885D01*
Y0070860D01*
Y0070829D01*
X0085044Y0070785D01*
X0085050Y0070730D01*
X0085057Y0070662D01*
X0085069Y0070594D01*
X0085081Y0070519D01*
X0085119Y0070352D01*
X0085180Y0070173D01*
X0085218Y0070086D01*
X0085261Y0070006D01*
X0085317Y0069919D01*
X0085372Y0069845D01*
X0085379Y0069838D01*
X0085391Y0069826D01*
X0085409Y0069807D01*
X0085434Y0069783D01*
X0085465Y0069752D01*
X0085509Y0069721D01*
X0085558Y0069684D01*
X0085608Y0069647D01*
X0085669Y0069609D01*
X0085738Y0069572D01*
X0085886Y0069510D01*
X0085973Y0069485D01*
X0086059Y0069467D01*
X0086152Y0069455D01*
X0086251Y0069448D01*
X0086307D01*
X0086350Y0069455D01*
X0086394Y0069461D01*
X0086456Y0069467D01*
X0086518Y0069479D01*
X0086586Y0069498D01*
X0086728Y0069541D01*
X0086809Y0069572D01*
X0086883Y0069609D01*
X0086957Y0069653D01*
X0087031Y0069702D01*
X0087099Y0069758D01*
X0087168Y0069826D01*
X0087174Y0069832D01*
X0087180Y0069845D01*
X0087198Y0069863D01*
X0087217Y0069894D01*
X0087248Y0069937D01*
X0087273Y0069981D01*
X0087304Y0070037D01*
X0087335Y0070098D01*
X0087366Y0070173D01*
X0087397Y0070253D01*
X0087427Y0070340D01*
X0087452Y0070433D01*
X0087471Y0070532D01*
X0087489Y0070643D01*
X0087495Y0070761D01*
X0087502Y0070885D01*
Y0070891D01*
Y0070915D01*
Y0070953D01*
X0087495Y0070996D01*
X0087489Y0071058D01*
X0087483Y0071126D01*
X0087477Y0071200D01*
X0087458Y0071281D01*
X0087421Y0071448D01*
X0087366Y0071627D01*
X0087328Y0071714D01*
X0087285Y0071801D01*
X0087229Y0071881D01*
X0087174Y0071955D01*
X0087168Y0071961D01*
X0087161Y0071974D01*
X0087143Y0071992D01*
X0087112Y0072017D01*
X0087081Y0072042D01*
X0087044Y0072079D01*
X0086994Y0072110D01*
X0086945Y0072147D01*
X0086883Y0072184D01*
X0086815Y0072215D01*
X0086740Y0072253D01*
X0086660Y0072277D01*
X0086573Y0072302D01*
X0086487Y0072321D01*
X0086387Y0072333D01*
X0086282Y0072339D01*
D02*
G37*
G36*
X0074280Y0071367D02*
X0074243D01*
X0074218Y0071361D01*
X0074144Y0071355D01*
X0074057Y0071336D01*
X0073958Y0071305D01*
X0073853Y0071256D01*
X0073754Y0071188D01*
X0073704Y0071151D01*
X0073661Y0071101D01*
X0073649Y0071089D01*
X0073624Y0071052D01*
X0073593Y0070996D01*
X0073549Y0070915D01*
X0073506Y0070810D01*
X0073475Y0070686D01*
X0073450Y0070544D01*
X0073438Y0070377D01*
Y0070371D01*
Y0070358D01*
Y0070334D01*
X0073444Y0070303D01*
Y0070266D01*
X0073450Y0070222D01*
X0073469Y0070123D01*
X0073494Y0070012D01*
X0073537Y0069894D01*
X0073593Y0069776D01*
X0073667Y0069671D01*
X0073680Y0069659D01*
X0073710Y0069634D01*
X0073760Y0069591D01*
X0073828Y0069547D01*
X0073915Y0069498D01*
X0074020Y0069455D01*
X0074144Y0069430D01*
X0074280Y0069417D01*
X0074317D01*
X0074342Y0069424D01*
X0074416Y0069430D01*
X0074503Y0069448D01*
X0074596Y0069479D01*
X0074701Y0069523D01*
X0074794Y0069585D01*
X0074880Y0069665D01*
X0074887Y0069677D01*
X0074911Y0069715D01*
X0074948Y0069770D01*
X0074986Y0069851D01*
X0075023Y0069956D01*
X0075060Y0070080D01*
X0075085Y0070222D01*
X0075091Y0070389D01*
Y0070395D01*
Y0070408D01*
Y0070433D01*
Y0070470D01*
X0075085Y0070507D01*
X0075078Y0070550D01*
X0075066Y0070655D01*
X0075041Y0070773D01*
X0075004Y0070891D01*
X0074948Y0071008D01*
X0074880Y0071114D01*
X0074868Y0071126D01*
X0074843Y0071151D01*
X0074794Y0071194D01*
X0074726Y0071244D01*
X0074639Y0071287D01*
X0074540Y0071330D01*
X0074416Y0071355D01*
X0074280Y0071367D01*
D02*
G37*
G36*
X0101386Y0047912D02*
X0100779Y0047826D01*
X0100767D01*
X0100736Y0047820D01*
X0100686Y0047807D01*
X0100625Y0047795D01*
X0100556Y0047776D01*
X0100482Y0047751D01*
X0100420Y0047727D01*
X0100358Y0047690D01*
X0100352Y0047683D01*
X0100334Y0047671D01*
X0100315Y0047646D01*
X0100290Y0047609D01*
X0100259Y0047560D01*
X0100241Y0047498D01*
X0100222Y0047423D01*
X0100216Y0047337D01*
Y0047330D01*
Y0047306D01*
X0100222Y0047275D01*
X0100235Y0047232D01*
X0100247Y0047182D01*
X0100272Y0047132D01*
X0100303Y0047083D01*
X0100346Y0047033D01*
X0100352Y0047027D01*
X0100371Y0047015D01*
X0100402Y0046996D01*
X0100439Y0046978D01*
X0100488Y0046959D01*
X0100550Y0046941D01*
X0100618Y0046928D01*
X0100699Y0046922D01*
X0100711D01*
X0100748Y0046928D01*
X0100804Y0046934D01*
X0100872Y0046947D01*
X0100946Y0046971D01*
X0101033Y0047009D01*
X0101113Y0047064D01*
X0101188Y0047132D01*
X0101194Y0047145D01*
X0101219Y0047170D01*
X0101250Y0047213D01*
X0101287Y0047275D01*
X0101324Y0047355D01*
X0101355Y0047442D01*
X0101380Y0047547D01*
X0101386Y0047659D01*
Y0047912D01*
D02*
G37*
G36*
X0071259Y0049788D02*
X0070789D01*
Y0048649D01*
X0071265D01*
X0071327Y0048655D01*
X0071402Y0048668D01*
X0071488Y0048686D01*
X0071581Y0048717D01*
X0071662Y0048754D01*
X0071742Y0048810D01*
X0071748Y0048816D01*
X0071773Y0048841D01*
X0071804Y0048878D01*
X0071841Y0048934D01*
X0071872Y0048996D01*
X0071903Y0049076D01*
X0071928Y0049169D01*
X0071934Y0049274D01*
Y0049280D01*
Y0049299D01*
X0071928Y0049324D01*
X0071921Y0049355D01*
X0071897Y0049435D01*
X0071878Y0049485D01*
X0071847Y0049534D01*
X0071816Y0049578D01*
X0071767Y0049627D01*
X0071717Y0049670D01*
X0071649Y0049707D01*
X0071575Y0049738D01*
X0071482Y0049763D01*
X0071377Y0049782D01*
X0071259Y0049788D01*
D02*
G37*
G36*
Y0048278D02*
X0070789D01*
Y0047015D01*
X0071408D01*
X0071470Y0047021D01*
X0071556Y0047033D01*
X0071643Y0047058D01*
X0071736Y0047083D01*
X0071829Y0047126D01*
X0071909Y0047182D01*
X0071915Y0047188D01*
X0071940Y0047213D01*
X0071971Y0047250D01*
X0072008Y0047306D01*
X0072045Y0047374D01*
X0072076Y0047454D01*
X0072101Y0047553D01*
X0072107Y0047659D01*
Y0047665D01*
Y0047683D01*
X0072101Y0047714D01*
X0072095Y0047758D01*
X0072082Y0047801D01*
X0072064Y0047857D01*
X0072039Y0047912D01*
X0072002Y0047968D01*
X0071959Y0048024D01*
X0071903Y0048079D01*
X0071835Y0048135D01*
X0071748Y0048179D01*
X0071655Y0048222D01*
X0071538Y0048253D01*
X0071408Y0048271D01*
X0071259Y0048278D01*
D02*
G37*
G36*
X0095375Y0048872D02*
X0095326D01*
X0095276Y0048859D01*
X0095208Y0048847D01*
X0095134Y0048822D01*
X0095047Y0048785D01*
X0094967Y0048736D01*
X0094886Y0048668D01*
X0094880Y0048661D01*
X0094855Y0048630D01*
X0094824Y0048587D01*
X0094781Y0048525D01*
X0094738Y0048451D01*
X0094701Y0048358D01*
X0094670Y0048253D01*
X0094645Y0048135D01*
X0096001D01*
Y0048141D01*
Y0048154D01*
Y0048166D01*
Y0048191D01*
X0095994Y0048259D01*
X0095982Y0048333D01*
X0095957Y0048426D01*
X0095933Y0048513D01*
X0095889Y0048599D01*
X0095833Y0048680D01*
X0095827Y0048686D01*
X0095802Y0048711D01*
X0095765Y0048742D01*
X0095716Y0048779D01*
X0095648Y0048810D01*
X0095567Y0048841D01*
X0095481Y0048866D01*
X0095375Y0048872D01*
D02*
G37*
G36*
X0089699Y0049844D02*
X0089644D01*
X0089606Y0049837D01*
X0089557Y0049831D01*
X0089507Y0049825D01*
X0089445Y0049813D01*
X0089377Y0049794D01*
X0089235Y0049745D01*
X0089161Y0049714D01*
X0089080Y0049676D01*
X0089006Y0049627D01*
X0088932Y0049571D01*
X0088863Y0049509D01*
X0088795Y0049441D01*
X0088789Y0049435D01*
X0088783Y0049423D01*
X0088765Y0049398D01*
X0088740Y0049367D01*
X0088715Y0049330D01*
X0088690Y0049280D01*
X0088659Y0049225D01*
X0088628Y0049163D01*
X0088591Y0049088D01*
X0088560Y0049014D01*
X0088535Y0048928D01*
X0088511Y0048835D01*
X0088486Y0048736D01*
X0088467Y0048624D01*
X0088461Y0048513D01*
X0088455Y0048395D01*
Y0048389D01*
Y0048364D01*
Y0048333D01*
X0088461Y0048290D01*
X0088467Y0048234D01*
X0088474Y0048166D01*
X0088486Y0048098D01*
X0088498Y0048024D01*
X0088535Y0047857D01*
X0088597Y0047677D01*
X0088635Y0047591D01*
X0088678Y0047510D01*
X0088734Y0047423D01*
X0088789Y0047349D01*
X0088795Y0047343D01*
X0088808Y0047330D01*
X0088826Y0047312D01*
X0088851Y0047287D01*
X0088882Y0047256D01*
X0088925Y0047225D01*
X0088975Y0047188D01*
X0089025Y0047151D01*
X0089086Y0047114D01*
X0089154Y0047077D01*
X0089303Y0047015D01*
X0089390Y0046990D01*
X0089476Y0046971D01*
X0089569Y0046959D01*
X0089668Y0046953D01*
X0089724D01*
X0089767Y0046959D01*
X0089811Y0046965D01*
X0089872Y0046971D01*
X0089934Y0046984D01*
X0090003Y0047002D01*
X0090145Y0047046D01*
X0090225Y0047077D01*
X0090300Y0047114D01*
X0090374Y0047157D01*
X0090448Y0047207D01*
X0090516Y0047262D01*
X0090584Y0047330D01*
X0090591Y0047337D01*
X0090597Y0047349D01*
X0090615Y0047368D01*
X0090634Y0047399D01*
X0090665Y0047442D01*
X0090690Y0047485D01*
X0090720Y0047541D01*
X0090751Y0047603D01*
X0090782Y0047677D01*
X0090813Y0047758D01*
X0090844Y0047844D01*
X0090869Y0047937D01*
X0090888Y0048036D01*
X0090906Y0048148D01*
X0090912Y0048265D01*
X0090919Y0048389D01*
Y0048395D01*
Y0048420D01*
Y0048457D01*
X0090912Y0048500D01*
X0090906Y0048562D01*
X0090900Y0048630D01*
X0090894Y0048705D01*
X0090875Y0048785D01*
X0090838Y0048952D01*
X0090782Y0049132D01*
X0090745Y0049218D01*
X0090702Y0049305D01*
X0090646Y0049386D01*
X0090591Y0049460D01*
X0090584Y0049466D01*
X0090578Y0049478D01*
X0090560Y0049497D01*
X0090529Y0049522D01*
X0090498Y0049547D01*
X0090461Y0049584D01*
X0090411Y0049615D01*
X0090361Y0049652D01*
X0090300Y0049689D01*
X0090232Y0049720D01*
X0090157Y0049757D01*
X0090077Y0049782D01*
X0089990Y0049806D01*
X0089903Y0049825D01*
X0089804Y0049837D01*
X0089699Y0049844D01*
D02*
G37*
G36*
X0080631Y0048872D02*
X0080594D01*
X0080569Y0048866D01*
X0080495Y0048859D01*
X0080408Y0048841D01*
X0080309Y0048810D01*
X0080204Y0048760D01*
X0080105Y0048692D01*
X0080055Y0048655D01*
X0080012Y0048606D01*
X0080000Y0048593D01*
X0079975Y0048556D01*
X0079944Y0048500D01*
X0079900Y0048420D01*
X0079857Y0048315D01*
X0079826Y0048191D01*
X0079801Y0048049D01*
X0079789Y0047881D01*
Y0047875D01*
Y0047863D01*
Y0047838D01*
X0079795Y0047807D01*
Y0047770D01*
X0079801Y0047727D01*
X0079820Y0047628D01*
X0079845Y0047516D01*
X0079888Y0047399D01*
X0079944Y0047281D01*
X0080018Y0047176D01*
X0080030Y0047163D01*
X0080061Y0047139D01*
X0080111Y0047095D01*
X0080179Y0047052D01*
X0080266Y0047002D01*
X0080371Y0046959D01*
X0080495Y0046934D01*
X0080631Y0046922D01*
X0080668D01*
X0080693Y0046928D01*
X0080767Y0046934D01*
X0080854Y0046953D01*
X0080946Y0046984D01*
X0081052Y0047027D01*
X0081145Y0047089D01*
X0081231Y0047170D01*
X0081238Y0047182D01*
X0081262Y0047219D01*
X0081299Y0047275D01*
X0081336Y0047355D01*
X0081374Y0047460D01*
X0081411Y0047584D01*
X0081436Y0047727D01*
X0081442Y0047894D01*
Y0047900D01*
Y0047912D01*
Y0047937D01*
Y0047974D01*
X0081436Y0048011D01*
X0081429Y0048055D01*
X0081417Y0048160D01*
X0081392Y0048278D01*
X0081355Y0048395D01*
X0081299Y0048513D01*
X0081231Y0048618D01*
X0081219Y0048630D01*
X0081194Y0048655D01*
X0081145Y0048698D01*
X0081077Y0048748D01*
X0080990Y0048791D01*
X0080891Y0048835D01*
X0080767Y0048859D01*
X0080631Y0048872D01*
D02*
G37*
G36*
X0074280D02*
X0074243D01*
X0074218Y0048866D01*
X0074144Y0048859D01*
X0074057Y0048841D01*
X0073958Y0048810D01*
X0073853Y0048760D01*
X0073754Y0048692D01*
X0073704Y0048655D01*
X0073661Y0048606D01*
X0073649Y0048593D01*
X0073624Y0048556D01*
X0073593Y0048500D01*
X0073549Y0048420D01*
X0073506Y0048315D01*
X0073475Y0048191D01*
X0073450Y0048049D01*
X0073438Y0047881D01*
Y0047875D01*
Y0047863D01*
Y0047838D01*
X0073444Y0047807D01*
Y0047770D01*
X0073450Y0047727D01*
X0073469Y0047628D01*
X0073494Y0047516D01*
X0073537Y0047399D01*
X0073593Y0047281D01*
X0073667Y0047176D01*
X0073680Y0047163D01*
X0073710Y0047139D01*
X0073760Y0047095D01*
X0073828Y0047052D01*
X0073915Y0047002D01*
X0074020Y0046959D01*
X0074144Y0046934D01*
X0074280Y0046922D01*
X0074317D01*
X0074342Y0046928D01*
X0074416Y0046934D01*
X0074503Y0046953D01*
X0074596Y0046984D01*
X0074701Y0047027D01*
X0074794Y0047089D01*
X0074880Y0047170D01*
X0074887Y0047182D01*
X0074911Y0047219D01*
X0074948Y0047275D01*
X0074986Y0047355D01*
X0075023Y0047460D01*
X0075060Y0047584D01*
X0075085Y0047727D01*
X0075091Y0047894D01*
Y0047900D01*
Y0047912D01*
Y0047937D01*
Y0047974D01*
X0075085Y0048011D01*
X0075078Y0048055D01*
X0075066Y0048160D01*
X0075041Y0048278D01*
X0075004Y0048395D01*
X0074948Y0048513D01*
X0074880Y0048618D01*
X0074868Y0048630D01*
X0074843Y0048655D01*
X0074794Y0048698D01*
X0074726Y0048748D01*
X0074639Y0048791D01*
X0074540Y0048835D01*
X0074416Y0048859D01*
X0074280Y0048872D01*
D02*
G37*
G36*
X-0016122Y0031167D02*
X-0016191Y0031161D01*
X-0016259Y0031146D01*
X-0016259Y0031146D01*
X-0018540Y0030535D01*
X-0018540Y0030535D01*
X-0018606Y0030514D01*
X-0018669Y0030485D01*
X-0018728Y0030449D01*
X-0018783Y0030407D01*
X-0018833Y0030359D01*
X-0018877Y0030306D01*
X-0018915Y0030248D01*
X-0018946Y0030186D01*
X-0018970Y0030121D01*
X-0018986Y0030054D01*
X-0018996Y0029986D01*
X-0018997Y0029917D01*
X-0018990Y0029848D01*
X-0018976Y0029780D01*
X-0018955Y0029714D01*
X-0018926Y0029652D01*
X-0018890Y0029592D01*
X-0018848Y0029537D01*
X-0018800Y0029488D01*
X-0018747Y0029444D01*
X-0018689Y0029406D01*
X-0018627Y0029375D01*
X-0018563Y0029351D01*
X-0018495Y0029334D01*
X-0018427Y0029325D01*
X-0018358Y0029324D01*
X-0018289Y0029330D01*
X-0018221Y0029344D01*
X-0018221Y0029345D01*
X-0015940Y0029956D01*
X-0015939Y0029956D01*
X-0015874Y0029977D01*
X-0015811Y0030006D01*
X-0015752Y0030042D01*
X-0015697Y0030084D01*
X-0015647Y0030132D01*
X-0015603Y0030185D01*
X-0015565Y0030243D01*
X-0015534Y0030305D01*
X-0015510Y0030369D01*
X-0015493Y0030436D01*
X-0015484Y0030505D01*
X-0015483Y0030574D01*
X-0015489Y0030643D01*
X-0015504Y0030711D01*
X-0015525Y0030776D01*
X-0015554Y0030839D01*
X-0015590Y0030898D01*
X-0015632Y0030953D01*
X-0015680Y0031003D01*
X-0015733Y0031047D01*
X-0015791Y0031085D01*
X-0015853Y0031116D01*
X-0015917Y0031140D01*
X-0015984Y0031157D01*
X-0016053Y0031166D01*
X-0016122Y0031167D01*
D02*
G37*
G36*
X0016129Y0030970D02*
X0016060Y0030969D01*
X0015992Y0030960D01*
X0015924Y0030943D01*
X0015860Y0030919D01*
X0015798Y0030888D01*
X0015740Y0030850D01*
X0015687Y0030806D01*
X0015639Y0030756D01*
X0015597Y0030701D01*
X0015561Y0030642D01*
X0015532Y0030579D01*
X0015511Y0030514D01*
X0015497Y0030446D01*
X0015490Y0030377D01*
X0015491Y0030308D01*
X0015500Y0030239D01*
X0015517Y0030172D01*
X0015541Y0030107D01*
X0015572Y0030046D01*
X0015610Y0029988D01*
X0015654Y0029935D01*
X0015704Y0029887D01*
X0015759Y0029845D01*
X0015818Y0029809D01*
X0015881Y0029780D01*
X0015947Y0029759D01*
X0015947Y0029759D01*
X0018228Y0029147D01*
X0018228Y0029147D01*
X0018296Y0029133D01*
X0018365Y0029127D01*
X0018434Y0029128D01*
X0018503Y0029137D01*
X0018570Y0029153D01*
X0018634Y0029177D01*
X0018696Y0029209D01*
X0018754Y0029247D01*
X0018807Y0029291D01*
X0018855Y0029340D01*
X0018897Y0029395D01*
X0018933Y0029454D01*
X0018962Y0029517D01*
X0018983Y0029583D01*
X0018998Y0029651D01*
X0019004Y0029719D01*
X0019003Y0029789D01*
X0018994Y0029857D01*
X0018977Y0029924D01*
X0018953Y0029989D01*
X0018922Y0030051D01*
X0018884Y0030109D01*
X0018840Y0030162D01*
X0018790Y0030210D01*
X0018735Y0030252D01*
X0018676Y0030288D01*
X0018613Y0030316D01*
X0018548Y0030338D01*
X0018547Y0030338D01*
X0016266Y0030949D01*
X0016266Y0030950D01*
X0016198Y0030964D01*
X0016129Y0030970D01*
D02*
G37*
G36*
X0010940Y-0034978D02*
X0010871Y-0034980D01*
X0010802Y-0034989D01*
X0010735Y-0035005D01*
X0010670Y-0035029D01*
X0010609Y-0035061D01*
X0010551Y-0035098D01*
X0010498Y-0035142D01*
X0010449Y-0035192D01*
X0010407Y-0035247D01*
X0010372Y-0035306D01*
X0010343Y-0035369D01*
X0010321Y-0035435D01*
X0010322Y-0035435D01*
X0010125Y-0036171D01*
X0009389Y-0035974D01*
X0009389Y-0035973D01*
X0009321Y-0035959D01*
X0009252Y-0035953D01*
X0009183Y-0035954D01*
X0009115Y-0035963D01*
X0009048Y-0035980D01*
X0008983Y-0036004D01*
X0008921Y-0036035D01*
X0008863Y-0036073D01*
X0008810Y-0036117D01*
X0008762Y-0036167D01*
X0008720Y-0036222D01*
X0008684Y-0036281D01*
X0008655Y-0036344D01*
X0008634Y-0036409D01*
X0008619Y-0036477D01*
X0008613Y-0036546D01*
X0008614Y-0036615D01*
X0008623Y-0036683D01*
X0008640Y-0036751D01*
X0008664Y-0036815D01*
X0008695Y-0036877D01*
X0008733Y-0036935D01*
X0008777Y-0036988D01*
X0008827Y-0037036D01*
X0008882Y-0037078D01*
X0008941Y-0037114D01*
X0009004Y-0037143D01*
X0009070Y-0037164D01*
X0009070Y-0037164D01*
X0009806Y-0037361D01*
X0009608Y-0038097D01*
X0009608Y-0038097D01*
X0009594Y-0038164D01*
X0009588Y-0038233D01*
X0009589Y-0038302D01*
X0009598Y-0038371D01*
X0009614Y-0038438D01*
X0009639Y-0038503D01*
X0009670Y-0038565D01*
X0009708Y-0038622D01*
X0009752Y-0038676D01*
X0009801Y-0038724D01*
X0009856Y-0038766D01*
X0009916Y-0038802D01*
X0009978Y-0038830D01*
X0010044Y-0038852D01*
X0010112Y-0038866D01*
X0010181Y-0038873D01*
X0010250Y-0038871D01*
X0010318Y-0038862D01*
X0010385Y-0038846D01*
X0010450Y-0038822D01*
X0010512Y-0038790D01*
X0010570Y-0038752D01*
X0010623Y-0038708D01*
X0010671Y-0038659D01*
X0010713Y-0038604D01*
X0010749Y-0038544D01*
X0010778Y-0038482D01*
X0010799Y-0038416D01*
X0010799Y-0038416D01*
X0010996Y-0037680D01*
X0011732Y-0037877D01*
X0011732Y-0037878D01*
X0011799Y-0037892D01*
X0011868Y-0037898D01*
X0011937Y-0037897D01*
X0012006Y-0037888D01*
X0012073Y-0037871D01*
X0012138Y-0037847D01*
X0012200Y-0037816D01*
X0012257Y-0037778D01*
X0012310Y-0037734D01*
X0012359Y-0037684D01*
X0012401Y-0037629D01*
X0012436Y-0037570D01*
X0012465Y-0037507D01*
X0012487Y-0037442D01*
X0012501Y-0037374D01*
X0012507Y-0037305D01*
X0012506Y-0037236D01*
X0012497Y-0037168D01*
X0012480Y-0037100D01*
X0012456Y-0037036D01*
X0012425Y-0036974D01*
X0012387Y-0036916D01*
X0012343Y-0036863D01*
X0012293Y-0036815D01*
X0012239Y-0036773D01*
X0012179Y-0036737D01*
X0012116Y-0036708D01*
X0012051Y-0036687D01*
X0012051Y-0036687D01*
X0011315Y-0036490D01*
X0011512Y-0035754D01*
X0011512Y-0035754D01*
X0011526Y-0035686D01*
X0011533Y-0035618D01*
X0011532Y-0035548D01*
X0011523Y-0035480D01*
X0011506Y-0035413D01*
X0011482Y-0035348D01*
X0011451Y-0035286D01*
X0011413Y-0035228D01*
X0011369Y-0035175D01*
X0011319Y-0035127D01*
X0011264Y-0035085D01*
X0011205Y-0035049D01*
X0011142Y-0035021D01*
X0011076Y-0034999D01*
X0011009Y-0034985D01*
X0010940Y-0034978D01*
D02*
G37*
%LPD*%
D11*
X-0021122Y0010098D02*
Y0020898D01*
D12*
X0024520Y0033155D02*
G03*
X0011812Y0039509I-0004835J0006215D01*
G01*
X-0011812D02*
G03*
X-0024520Y0033155I-0007873J-0000139D01*
G01*
X0007107Y0035717D02*
G03*
X0011812Y0039509I0000768J0003861D01*
G01*
X-0011812D02*
G03*
X-0007107Y0035717I0003936J0000069D01*
G01*
X0007107D02*
G03*
X-0007107Y0035717I-0007107J-0035717D01*
G01*
X0024520Y0033155D02*
G03*
X0024309Y0027116I0002417J-0003108D01*
G01*
X-0024309D02*
G03*
X-0024520Y0033155I-0002628J0002932D01*
G01*
X0024309Y-0027116D02*
G03*
X0024309Y0027116I-0024309J0027116D01*
G01*
X-0024309Y0027116D02*
G03*
X-0024309Y-0027116I0024309J-0027116D01*
G01*
X0024309Y-0027116D02*
G03*
X0024520Y-0033155I0002628J-0002932D01*
G01*
X-0024520Y-0033156D02*
G03*
X-0024309Y-0027116I-0002417J0003108D01*
G01*
X0017769Y-0047008D02*
G03*
X0024520Y-0033155I0001916J0007637D01*
G01*
X-0024520Y-0033156D02*
G03*
X-0017769Y-0047008I0004834J-0006215D01*
G01*
X0017769Y-0047008D02*
G03*
X0012874Y-0050825I-0000958J-0003819D01*
G01*
X-0012874Y-0050825D02*
G03*
X-0017769Y-0047008I-0003937J-0000001D01*
G01*
X-0012874Y-0070276D02*
G03*
X-0009724Y-0073425I0003145J-0000004D01*
G01*
X0009724D02*
G03*
X0012874Y-0070276I0000004J0003145D01*
G01*
Y-0051461D02*
X0012874Y-0050825D01*
X-0012874Y-0050825D02*
X-0012874Y-0051465D01*
X0012874Y-0070276D02*
Y-0051461D01*
X-0012874Y-0070276D02*
Y-0051465D01*
X-0009724Y-0073425D02*
X0009724D01*
D61*
X0018866Y-0013917D02*
Y-0017853D01*
Y-0013917D02*
X0017178D01*
X0016616Y-0014105D01*
X0016429Y-0014292D01*
X0016241Y-0014667D01*
Y-0015042D01*
X0016429Y-0015417D01*
X0016616Y-0015604D01*
X0017178Y-0015792D01*
X0018866D01*
X0017553D02*
X0016241Y-0017853D01*
X0014423Y-0015229D02*
X0014798Y-0015417D01*
X0015173Y-0015792D01*
X0015360Y-0016354D01*
Y-0016729D01*
X0015173Y-0017291D01*
X0014798Y-0017666D01*
X0014423Y-0017853D01*
X0013861D01*
X0013486Y-0017666D01*
X0013111Y-0017291D01*
X0012924Y-0016729D01*
Y-0016354D01*
X0013111Y-0015792D01*
X0013486Y-0015417D01*
X0013861Y-0015229D01*
X0014423D01*
X0011499Y-0013917D02*
Y-0017104D01*
X0011312Y-0017666D01*
X0010937Y-0017853D01*
X0010562D01*
X0012061Y-0015229D02*
X0010750D01*
X0007750D02*
Y-0017853D01*
Y-0015792D02*
X0008125Y-0015417D01*
X0008500Y-0015229D01*
X0009063D01*
X0009437Y-0015417D01*
X0009812Y-0015792D01*
X0010000Y-0016354D01*
Y-0016729D01*
X0009812Y-0017291D01*
X0009437Y-0017666D01*
X0009063Y-0017853D01*
X0008500D01*
X0008125Y-0017666D01*
X0007750Y-0017291D01*
X0006701Y-0015229D02*
Y-0017853D01*
Y-0016354D02*
X0006513Y-0015792D01*
X0006138Y-0015417D01*
X0005764Y-0015229D01*
X0005201D01*
X0004658D02*
X0003533Y-0017853D01*
X0002409Y-0015229D02*
X0003533Y-0017853D01*
X0003908Y-0018603D01*
X0004283Y-0018978D01*
X0004658Y-0019165D01*
X0004845D01*
X-0004152Y-0014854D02*
X-0003964Y-0014480D01*
X-0003589Y-0014105D01*
X-0003215Y-0013917D01*
X-0002465D01*
X-0002090Y-0014105D01*
X-0001715Y-0014480D01*
X-0001528Y-0014854D01*
X-0001340Y-0015417D01*
Y-0016354D01*
X-0001528Y-0016916D01*
X-0001715Y-0017291D01*
X-0002090Y-0017666D01*
X-0002465Y-0017853D01*
X-0003215D01*
X-0003589Y-0017666D01*
X-0003964Y-0017291D01*
X-0004152Y-0016916D01*
X-0006195Y-0015229D02*
X-0005820Y-0015417D01*
X-0005445Y-0015792D01*
X-0005258Y-0016354D01*
Y-0016729D01*
X-0005445Y-0017291D01*
X-0005820Y-0017666D01*
X-0006195Y-0017853D01*
X-0006757D01*
X-0007132Y-0017666D01*
X-0007507Y-0017291D01*
X-0007694Y-0016729D01*
Y-0016354D01*
X-0007507Y-0015792D01*
X-0007132Y-0015417D01*
X-0006757Y-0015229D01*
X-0006195D01*
X-0008557D02*
Y-0017853D01*
Y-0015979D02*
X-0009119Y-0015417D01*
X-0009494Y-0015229D01*
X-0010056D01*
X-0010431Y-0015417D01*
X-0010618Y-0015979D01*
Y-0017853D01*
X-0012212Y-0013917D02*
Y-0017104D01*
X-0012399Y-0017666D01*
X-0012774Y-0017853D01*
X-0013149D01*
X-0011649Y-0015229D02*
X-0012961D01*
X-0013711D02*
Y-0017853D01*
Y-0016354D02*
X-0013898Y-0015792D01*
X-0014273Y-0015417D01*
X-0014648Y-0015229D01*
X-0015211D01*
X-0016504D02*
X-0016129Y-0015417D01*
X-0015754Y-0015792D01*
X-0015567Y-0016354D01*
Y-0016729D01*
X-0015754Y-0017291D01*
X-0016129Y-0017666D01*
X-0016504Y-0017853D01*
X-0017066D01*
X-0017441Y-0017666D01*
X-0017816Y-0017291D01*
X-0018003Y-0016729D01*
Y-0016354D01*
X-0017816Y-0015792D01*
X-0017441Y-0015417D01*
X-0017066Y-0015229D01*
X-0016504D01*
X-0018866Y-0013917D02*
Y-0017853D01*
X0012486Y-0021129D02*
Y-0020942D01*
X0012298Y-0020567D01*
X0012111Y-0020379D01*
X0011736Y-0020192D01*
X0010986D01*
X0010611Y-0020379D01*
X0010424Y-0020567D01*
X0010237Y-0020942D01*
Y-0021317D01*
X0010424Y-0021691D01*
X0010799Y-0022254D01*
X0012673Y-0024128D01*
X0010049D01*
X0006919Y-0020754D02*
X0007106Y-0020379D01*
X0007669Y-0020192D01*
X0008044D01*
X0008606Y-0020379D01*
X0008981Y-0020942D01*
X0009168Y-0021879D01*
Y-0022816D01*
X0008981Y-0023566D01*
X0008606Y-0023941D01*
X0008044Y-0024128D01*
X0007856D01*
X0007294Y-0023941D01*
X0006919Y-0023566D01*
X0006731Y-0023004D01*
Y-0022816D01*
X0006919Y-0022254D01*
X0007294Y-0021879D01*
X0007856Y-0021691D01*
X0008044D01*
X0008606Y-0021879D01*
X0008981Y-0022254D01*
X0009168Y-0022816D01*
X0005869Y-0022441D02*
X0002496D01*
X0001333Y-0020942D02*
X0000958Y-0020754D01*
X0000396Y-0020192D01*
Y-0024128D01*
X-0001741Y-0023753D02*
X-0001553Y-0023941D01*
X-0001741Y-0024128D01*
X-0001928Y-0023941D01*
X-0001741Y-0023753D01*
X-0002978Y-0021129D02*
Y-0020942D01*
X-0003165Y-0020567D01*
X-0003353Y-0020379D01*
X-0003727Y-0020192D01*
X-0004477D01*
X-0004852Y-0020379D01*
X-0005040Y-0020567D01*
X-0005227Y-0020942D01*
Y-0021317D01*
X-0005040Y-0021691D01*
X-0004665Y-0022254D01*
X-0002790Y-0024128D01*
X-0005414D01*
D62*
X0007611Y0014852D02*
D03*
D63*
X-0009498Y-0022047D02*
D03*
M02*
