<svg width="1371" height="93" viewBox="0 0 1371 93" fill="none" xmlns="http://www.w3.org/2000/svg">
<path d="M1 68.5186H0.5V68.0186V61.9762V55.9339V55.4339H1H601H1201H1201.5V55.9339V61.9762V68.0186V68.5186H1201H601H1Z" fill="black" stroke="white"/>
<path d="M1 52.1875H0.5V51.6875V45.6451V39.6028V39.1028H1H601H1201H1201.5V39.6028V45.6451V51.6875V52.1875H1201H601H1Z" fill="black" stroke="white"/>
<path d="M1 35.8569H0.5V35.3569V29.3146V23.2722V22.7722H1H601H1201H1201.5V23.2722V29.3146V35.3569V35.8569H1201H601H1Z" fill="black" stroke="white"/>
<path d="M1242.43 2.60811L1242.44 2.60258L1242.45 2.59741C1243.38 2.16901 1244.25 1.95459 1246.63 1.83833C1248.99 1.72289 1252.94 1.70132 1260.09 1.70132H1275.63H1275.75H1276.38H1276.5H1322.86H1369.22H1369.97V2.45132V46.6589V90.8664V91.6164H1369.22H1306.88C1300.22 91.6164 1294.25 91.621 1288.89 91.6251C1265.47 91.6429 1253.76 91.6519 1247.55 91.2336C1243.75 90.9781 1241.86 90.5591 1240.6 89.7765C1239.96 89.3782 1239.51 88.9072 1239.09 88.4097C1238.98 88.283 1238.88 88.156 1238.77 88.027C1238.45 87.6411 1238.11 87.2377 1237.66 86.7754C1230.11 79.0918 1221.25 75.5445 1209.6 75.5014H1203.81H1203.06V74.7514V46.6589V18.5664V17.8164H1203.81H1209.16C1214.98 17.8164 1218.08 17.3872 1222.29 16.0235L1222.3 16.0221C1228.22 14.1453 1233.47 10.8174 1237.87 6.28454C1238.62 5.51948 1239.49 4.73698 1240.3 4.08359C1241.09 3.44028 1241.88 2.88561 1242.43 2.60811Z" fill="black" stroke="white" stroke-width="1.5"/>
<line x1="1277.36" y1="1.0015" x2="1277.25" y2="92.0015" stroke="white" stroke-width="2.5"/>
</svg>
