<svg version="1.1" xmlns="http://www.w3.org/2000/svg" xmlns:xlink="http://www.w3.org/1999/xlink" stroke-linecap="round" stroke-linejoin="round" stroke-width="0" fill-rule="evenodd" width="36.500055682600006mm" height="35mm" viewBox="-21500 -17500 36500.0556826 35000" id="Swg5pELfw8u-2y9ZUnnc"><g transform="translate(0,0) scale(1,-1)" fill="currentColor" stroke="currentColor"><path d="M -16080 -1270 A 120 120 0 0 1 -16320 -1270 120 120 0 0 1 -16080 -1270 M -16080 0 A 120 120 0 0 1 -16320 0 120 120 0 0 1 -16080 0 M -16080 1270 A 120 120 0 0 1 -16320 1270 120 120 0 0 1 -16080 1270 M -21276.1 -3055.1 -8877.8 -3055.1 M -8856.6 -3125.1 -21199.3 -3125.1 M -21096.1 -3195.1 -8832 -3195.1 M -8837.4 -3182 -8499 -3999 M -8513 -3965.1 -15657.3 -3965.1 M -15635.3 -4035.1 -8481.7 -4035.1 M -8482.9 -4032.9 -8066.1 -4812.7 M -8070.2 -4805.1 -15599.9 -4805.1 M -15599.8 -4735.1 -8107.6 -4735.1 M -8145 -4665.1 -15599.8 -4665.1 M -15599.7 -4595.1 -8182.4 -4595.1 M -8219.8 -4525.1 -15599.7 -4525.1 M -15599.7 -4455.1 -8257.3 -4455.1 M -8294.7 -4385.1 -15599.6 -4385.1 M -15599.6 -4315.1 -8332.1 -4315.1 M -8369.5 -4245.1 -15601.1 -4245.1 M -15599.6 -4300 A 1000 1000 0 0 1 -16599.6 -3300 M -16600 -3300 -20700.5 -3300 A 800 800 0 0 0 -21500 -2500 L -21500 2500 A 800 800 0 0 0 -20700 3300 L -16600 3300 M -20933.8 -3265.1 -8802.9 -3265.1 M -8774 -3335.1 -16337.1 -3335.1 M -16153.4 -3405.1 -8745 -3405.1 M -8716 -3475.1 -16034.3 -3475.1 M -15943.8 -3545.1 -8687 -3545.1 M -8658 -3615.1 -15870.9 -3615.1 M -15811 -3685.1 -8629 -3685.1 M -8600 -3755.1 -15761.1 -3755.1 M -15719.5 -3825.1 -8571 -3825.1 M -8850 -3146.7 -9106.7 -2300.5 M -9108.2 -2285.1 -17422.3 -2285.1 M -17428.3 -2270.7 -17375 -2399.3 M -17371 -2425.1 -9068.9 -2425.1 M -9090.1 -2355.1 -17393.3 -2355.1 M -17368.8 -2430.4 -17368.8 -2569.6 M -17368.8 -2565.1 -9026.4 -2565.1 M -9047.7 -2495.1 -17368.8 -2495.1 M -17375 -2600.7 -17428.3 -2729.3 M -17418.2 -2705.1 -8983.9 -2705.1 M -9005.2 -2635.1 -17389.2 -2635.1 M -17445.9 -2755.7 -17544.3 -2854.1 M -17535.3 -2845.1 -8941.5 -2845.1 M -8962.7 -2775.1 -17465.3 -2775.1 M -17570.7 -2871.7 -17699.3 -2925 M -17675.3 -2915.1 -8920.2 -2915.1 M -8899 -2985.1 -21336.2 -2985.1 M -21383.9 -2915.1 -18624.7 -2915.1 M -18600.7 -2925 -18729.3 -2871.7 M -18755.7 -2854.1 -18854.1 -2755.7 M -18834.7 -2775.1 -21451.2 -2775.1 M -21473.3 -2705.1 -18881.8 -2705.1 M -18871.7 -2729.3 -18925 -2600.7 M -18931.2 -2569.6 -18931.2 -2430.4 M -18929 -2425.1 -21500 -2425.1 M -21500 -2355.1 -18906.7 -2355.1 M -18925 -2399.3 -18871.7 -2270.7 M -18877.7 -2285.1 -21500 -2285.1 M -21500 -2215.1 -18824.9 -2215.1 M -18854.1 -2244.3 -18755.7 -2145.9 M -18753.7 -2145.1 -21500 -2145.1 M -21500 -2075.1 -18600.8 -2075.1 M -18600.7 -2075 -18729.3 -2128.3 M -18500 -2068.8 -17800 -2068.8 M -17699.3 -2075 -17570.7 -2128.3 M -17546.3 -2145.1 -9139.5 -2145.1 M -9153.4 -2075.1 -17699.2 -2075.1 M -17544.3 -2145.9 -17445.9 -2244.3 M -17475.2 -2215.1 -9125.6 -2215.1 M -9115.8 -2264.1 -9288.3 -1396.8 M -9289.2 -1375.1 -15570.4 -1375.1 M -15568.8 -1371.2 -15568.8 -1168.8 M -15570.4 -1165.1 -9313 -1165.1 M -9306.1 -1235.1 -15568.8 -1235.1 M -15568.8 -1305.1 -9299.2 -1305.1 M -9293.8 -1359.6 -9380.5 -479.6 M -9379.1 -465.1 -15769 -465.1 M -15796 -495.4 -15661.4 -344.3 M -15651.7 -325.1 -9382.3 -325.1 M -9382.3 -255.1 -15621.7 -255.1 M -15646.2 -319.2 -15574.1 -130.1 M -15574.6 -115.1 -9382.3 -115.1 M -9382.3 -45.1 -15568.8 -45.1 M -15568.8 -101.2 -15568.8 101.2 M -15568.8 94.9 -9382.3 94.9 M -9382.3 24.9 -15568.8 24.9 M -15568.8 1168.8 -15568.8 1371.2 M -15568.8 1354.9 -9294.3 1354.9 M -9293.8 1359.6 -9380.5 479.6 M -9381.8 444.9 -15751 444.9 M -15796 495.4 -15661.4 344.3 M -15646.2 319.2 -15574.1 130.1 M -15587.4 164.9 -9382.3 164.9 M -9382.3 234.9 -15614.1 234.9 M -15640.7 304.9 -9382.3 304.9 M -9382.3 374.9 -15688.7 374.9 M -15819.2 513.5 -15998.8 606.8 M -16026.9 615.4 -16196.6 635 -16026.9 654.6 M -16026.4 654.9 -9363.2 654.9 M -9356.3 724.9 -15880.1 724.9 M -15819.2 756.5 -15998.8 663.2 M -15956.8 584.9 -9370.1 584.9 M -9377 514.9 -15822.1 514.9 M -15796 774.6 -15661.4 925.7 M -15658.2 934.9 -9335.7 934.9 M -9328.8 1004.9 -15625.5 1004.9 M -15646.2 950.8 -15574.1 1139.9 M -15574.3 1144.9 -9315 1144.9 M -9308.1 1214.9 -15568.8 1214.9 M -15568.8 1284.9 -9301.2 1284.9 M -9288.3 1396.8 -9115.8 2264.1 M -9115.4 2264.9 -17434 2264.9 M -17428.3 2270.7 -17375 2399.3 M -17375 2404.9 -9075 2404.9 M -9096.2 2334.9 -17401.7 2334.9 M -17368.8 2430.4 -17368.8 2569.6 M -17368.8 2544.9 -9032.5 2544.9 M -9011.3 2614.9 -17380.9 2614.9 M -17375 2600.7 -17428.3 2729.3 M -17445.6 2754.9 -8968.8 2754.9 M -8947.6 2824.9 -17515.2 2824.9 M -17544.3 2854.1 -17445.9 2755.7 M -17409.9 2684.9 -8990.1 2684.9 M -8926.4 2894.9 -17626.7 2894.9 M -17570.7 2871.7 -17699.3 2925 M -17800 2931.2 -18500 2931.2 M -18600.7 2925 -18729.3 2871.7 M -18755.7 2854.1 -18854.1 2755.7 M -18854.4 2754.9 -21458.3 2754.9 M -21478.4 2684.9 -18890.1 2684.9 M -18871.7 2729.3 -18925 2600.7 M -18919.1 2614.9 -21491.7 2614.9 M -21498.8 2544.9 -18931.2 2544.9 M -18931.2 2569.6 -18931.2 2430.4 M -18925 2404.9 -21500 2404.9 M -21500 2334.9 -18898.3 2334.9 M -18871.7 2270.7 -18925 2399.3 M -18931.2 2474.9 -21500 2474.9 M -21500 -2495.1 -18931.2 -2495.1 M -18931.2 -2565.1 -21497.4 -2565.1 M -21488.5 -2635.1 -18910.8 -2635.1 M -18764.7 -2845.1 -21421.8 -2845.1 M -21500 -2005.1 -9167.3 -2005.1 M -9181.2 -1935.1 -21500 -1935.1 M -21500 -1865.1 -16421.1 -1865.1 M -16453.4 -1856.9 -16257.2 -1906.7 M -16227.9 -1908.6 -16026.9 -1885.4 M -15998.8 -1876.8 -15819.2 -1783.5 M -15841.6 -1795.1 -9209.1 -1795.1 M -9195.2 -1865.1 -15976.3 -1865.1 M -15796 -1765.4 -15661.4 -1614.3 M -15646.2 -1589.2 -15574.1 -1400.1 M -15591.3 -1445.1 -9278.7 -1445.1 M -9264.8 -1515.1 -15617.9 -1515.1 M -15644.6 -1585.1 -9250.9 -1585.1 M -9236.9 -1655.1 -15697.7 -1655.1 M -15760.1 -1725.1 -9223 -1725.1 M -9319.9 -1095.1 -15591.2 -1095.1 M -15574.1 -1139.9 -15646.2 -950.8 M -15644.5 -955.1 -9333.7 -955.1 M -9340.6 -885.1 -15697.6 -885.1 M -15661.4 -925.7 -15796 -774.6 M -15819.2 -756.5 -15998.8 -663.2 M -15976.1 -675.1 -9361.3 -675.1 M -9368.1 -605.1 -15995.6 -605.1 M -15998.8 -606.8 -15819.2 -513.5 M -15860.8 -535.1 -9375 -535.1 M -9382.3 -442.1 -9382.3 0 -9382.3 442.1 M -9349.5 794.9 -15777.9 794.9 M -15715.5 864.9 -9342.6 864.9 M -9321.9 1074.9 -15598.9 1074.9 M -15574.1 1400.1 -15646.2 1589.2 M -15636.9 1564.9 -9254.9 1564.9 M -9268.8 1494.9 -15610.3 1494.9 M -15661.4 1614.3 -15796 1765.4 M -15812.1 1774.9 -9213.1 1774.9 M -9199.2 1844.9 -15937.6 1844.9 M -15998.8 1876.8 -15819.2 1783.5 M -15742.1 1704.9 -9227 1704.9 M -9240.9 1634.9 -15679.8 1634.9 M -16026.9 1885.4 -16227.9 1908.6 M -16257.3 1906.7 -16453.4 1856.9 M -16478.6 1844.9 -21500 1844.9 M -21500 1914.9 -9185.3 1914.9 M -9171.3 1984.9 -21500 1984.9 M -21500 2054.9 -9157.4 2054.9 M -9143.5 2124.9 -17578.8 2124.9 M -17570.7 2128.3 -17699.3 2075 M -17800 2068.8 -18500 2068.8 M -18600.7 2075 -18729.3 2128.3 M -18721.2 2124.9 -21500 2124.9 M -21500 2194.9 -18804.7 2194.9 M -18755.7 2145.9 -18854.1 2244.3 M -18866 2264.9 -21500 2264.9 M -21431.1 2824.9 -18784.9 2824.9 M -18673.3 2894.9 -21395.8 2894.9 M -21351 2964.9 -8905.1 2964.9 M -8883.9 3034.9 -21294.9 3034.9 M -21223.5 3104.9 -8862.7 3104.9 M -8850 3146.7 -9106.7 2300.4 M -9129.6 2194.9 -17495.3 2194.9 M -17544.3 2145.9 -17445.9 2244.3 M -17368.8 2474.9 -9053.8 2474.9 M -8838.8 3174.9 -21129.5 3174.9 M -20991.7 3244.9 -8811.3 3244.9 M -8837.4 3182 -8499 3999 M -8488.4 4014.9 -15639.2 4014.9 M -15621.2 4084.9 -8455.1 4084.9 M -8482.9 4032.9 -8066.1 4812.7 M -8080.9 4784.9 -15599.9 4784.9 M -15599.8 4714.9 -8118.4 4714.9 M -8155.8 4644.9 -15599.8 4644.9 M -15599.7 4574.9 -8193.2 4574.9 M -8230.6 4504.9 -15599.7 4504.9 M -15599.6 4434.9 -8268 4434.9 M -8305.4 4364.9 -15599.6 4364.9 M -15599.6 4300 -15600 5000 A 1000 1000 0 0 1 -16600 6000 L -19000 6000 A 1000 1000 0 0 0 -20000 7000 L -20000 15000 A 2500 2500 0 0 0 -17500 17500 L -15250 17500 A 250 250 0 0 0 -15000 17250 L -15000 17000 A 1000 1000 0 0 1 -13357.2 16234 M -19296.3 6044.9 -7176.5 6044.9 M -7119 6114.9 -19465.4 6114.9 M -19579.3 6184.9 -7061.6 6184.9 M -7004.1 6254.9 -19667 6254.9 M -19737.7 6324.9 -6943.7 6324.9 M -6947 6321.7 -6321.7 6947 M -6309.8 6954.9 -19999 6954.9 M -20000 15004.9 -19096.2 15004.9 M -19096.2 15000 -19096.2 15149.2 M -19096.2 15144.9 -19995.8 15144.9 M -19998.9 15074.9 -19096.2 15074.9 M -19096.2 15000 -19096.2 14850.8 M -19096.2 14864.9 -20000 14864.9 M -20000 14794.9 -19086.6 14794.9 M -19094.6 14835 -19036.4 14542.2 M -19031.8 14527 -18917.6 14251.3 M -18910.1 14237.3 -18744.3 13989.1 M -18734.2 13976.8 -18523.1 13765.8 M -18510.8 13755.7 -18262.7 13589.9 M -18248.7 13582.4 -17973 13468.2 M -17959.7 13464.9 -20000 13464.9 M -20000 13394.9 -10285.8 13394.9 M -10215.9 13324.9 -20000 13324.9 M -20000 13254.9 -10146 13254.9 M -10076 13184.9 -20000 13184.9 M -20000 13114.9 -10006.1 13114.9 M -9936.2 13044.9 -20000 13044.9 M -20000 12974.9 -9866.2 12974.9 M -9796.3 12904.9 -20000 12904.9 M -20000 12834.9 -9726.4 12834.9 M -9656.4 12764.9 -20000 12764.9 M -20000 12694.9 -9589.7 12694.9 M -9589.5 12691.9 A 999.9856199 999.9856199 0 0 1 -8287.5 12504.7 M 5118.5 14098.7 A 15000.0020417 15000.0020417 0 0 1 -8286.4 12503 M -8319.4 12484.9 15000 12484.9 M 15000 12554.9 -8207.5 12554.9 M -8099.4 12624.9 15000 12624.9 M 15000 12694.9 -7989.2 12694.9 M -7876.9 12764.9 15000 12764.9 M 15000 12834.9 -7762.3 12834.9 M -7645.3 12904.9 15000 12904.9 M 15000 12974.9 -7525.9 12974.9 M -7403.9 13044.9 15000 13044.9 M 15000 13114.9 -7279.2 13114.9 M -7151.6 13184.9 15000 13184.9 M 15000 13254.9 -7021 13254.9 M -6887.2 13324.9 15000 13324.9 M 15000 13394.9 -6750 13394.9 M -6609.2 13464.9 12040.3 13464.9 M 12042.2 13463.6 12335 13405.4 M 12350.8 13403.8 12649.2 13403.8 M 12665 13405.4 12957.8 13463.6 M 12959.7 13464.9 15000 13464.9 M 15000 13534.9 13134 13534.9 M 13248.7 13582.4 12973 13468.2 M 13262.7 13589.9 13510.9 13755.7 M 13523.2 13765.8 13734.2 13976.8 M 13744.3 13989.1 13910.1 14237.3 M 13908.5 14234.9 15000 14234.9 M 15000 14304.9 13939.8 14304.9 M 13917.6 14251.3 14031.8 14527 M 14026.8 14514.9 15000 14514.9 M 15000 14444.9 13997.8 14444.9 M 13968.8 14374.9 15000 14374.9 M 15000 14164.9 13861.7 14164.9 M 13814.9 14094.9 15000 14094.9 M 15000 14024.9 13768.2 14024.9 M 13712.2 13954.9 15000 13954.9 M 15000 13884.9 13642.3 13884.9 M 13572.3 13814.9 15000 13814.9 M 15000 13744.9 13494.7 13744.9 M 13389.9 13674.9 15000 13674.9 M 15000 13604.9 13285.1 13604.9 M 12027 13468.2 11751.3 13582.4 M 11737.3 13589.9 11489.1 13755.7 M 11476.8 13765.8 11265.8 13976.8 M 11255.7 13989.1 11089.9 14237.3 M 11091.5 14234.9 6111.5 14234.9 M 6193.3 14304.9 11060.2 14304.9 M 11082.4 14251.3 10968.2 14527 M 10973.2 14514.9 6415.8 14514.9 M 6346.1 14444.9 11002.2 14444.9 M 11031.2 14374.9 6276.3 14374.9 M 5120.6 14104.6 A 1000.00288 1000.00288 0 0 1 6217.8 14329.2 M 6220 14318.4 9100 17208.4 M 9800 17498.4 A 1000 1000 0 0 1 9092.9 17205.5 M 9066.6 17174.9 13730 17174.9 M 13846.3 17104.9 8996.9 17104.9 M 8927.1 17034.9 13950.1 17034.9 M 14043.6 16964.9 8857.4 16964.9 M 8787.6 16894.9 14128.9 16894.9 M 14207 16824.9 8717.8 16824.9 M 8648.1 16754.9 14279 16754.9 M 14345.5 16684.9 8578.3 16684.9 M 8508.6 16614.9 14407.1 16614.9 M 14464.3 16544.9 12915 16544.9 M 12957.8 16536.4 12665 16594.6 M 12649.2 16596.2 12350.8 16596.2 M 12335 16594.6 12042.2 16536.4 M 12027 16531.8 11751.3 16417.6 M 11737.3 16410.1 11489.1 16244.3 M 11476.8 16234.2 11265.8 16023.2 M 11255.7 16010.9 11089.9 15762.7 M 11098.1 15774.9 7671.5 15774.9 M 7741.2 15844.9 11144.8 15844.9 M 11191.6 15914.9 7811 15914.9 M 7880.7 15984.9 11238.4 15984.9 M 11297.6 16054.9 7950.5 16054.9 M 8020.3 16124.9 11367.6 16124.9 M 11437.6 16194.9 8090 16194.9 M 8159.8 16264.9 11520 16264.9 M 11624.8 16334.9 8229.5 16334.9 M 8299.3 16404.9 11729.5 16404.9 M 11889.7 16474.9 8369 16474.9 M 8438.8 16544.9 12085 16544.9 M 12973 16531.8 13248.7 16417.6 M 13262.7 16410.1 13510.9 16244.3 M 13523.2 16234.2 13734.2 16023.2 M 13744.3 16010.9 13910.1 15762.7 M 13901.9 15774.9 14876.4 15774.9 M 14898.1 15704.9 13935.7 15704.9 M 13917.6 15748.7 14031.8 15473 M 14036.4 15457.8 14094.6 15165 M 14096.2 15149.2 14096.2 15000 14096.2 14850.8 M 14096.2 14864.9 15000 14864.9 M 15000 14934.9 14096.2 14934.9 M 14096.2 15004.9 15000 15004.9 M 15000 14998.4 A 2500 2500 0 0 1 12500 17498.4 L 9800 17498.4 M 9508.2 17454.9 12964.3 17454.9 M 13244.7 17384.9 9337.2 17384.9 M 9222.6 17314.9 13440.1 17314.9 M 13596.9 17244.9 9134.6 17244.9 M 7601.7 15704.9 11064.3 15704.9 M 11082.4 15748.7 10968.2 15473 M 10963.6 15457.8 10905.4 15165 M 10903.8 15149.2 10903.8 15000 10903.8 14850.8 M 10903.8 14864.9 6764.6 14864.9 M 6834.4 14934.9 10903.8 14934.9 M 10903.8 15004.9 6904.1 15004.9 M 6973.9 15074.9 10903.8 15074.9 M 10903.8 15144.9 7043.7 15144.9 M 7113.4 15214.9 10915.3 15214.9 M 10929.2 15284.9 7183.2 15284.9 M 7252.9 15354.9 10943.1 15354.9 M 10957.1 15424.9 7322.7 15424.9 M 7392.4 15494.9 10977.3 15494.9 M 11006.3 15564.9 7462.2 15564.9 M 7531.9 15634.9 11035.3 15634.9 M 10905.4 14835 10963.6 14542.2 M 10955.1 14584.9 6485.6 14584.9 M 6555.3 14654.9 10941.2 14654.9 M 10927.3 14724.9 6625.1 14724.9 M 6694.9 14794.9 10913.3 14794.9 M 11138.3 14164.9 6007.2 14164.9 M 11185.1 14094.9 5861.3 14094.9 M 5144.8 14094.9 -5130 14094.9 M -5318.4 14024.9 11231.8 14024.9 M 11287.8 13954.9 -5499.5 13954.9 M -5673.9 13884.9 11357.7 13884.9 M 11427.7 13814.9 -5842.3 13814.9 M -6005.2 13744.9 11505.3 13744.9 M 11610.1 13674.9 -6162.9 13674.9 M -6316 13604.9 11714.9 13604.9 M 11866 13534.9 -6464.7 13534.9 M -4933.4 14164.9 4932.3 14164.9 M 4726.5 14234.9 -4727.6 14234.9 M -4511.3 14304.9 4510.2 14304.9 M 4281.9 14374.9 -4283 14374.9 M -4040.6 14444.9 4039.5 14444.9 M 3780.3 14514.9 -3781.3 14514.9 M -3501.6 14584.9 3500.5 14584.9 M 3194.9 14654.9 -3195.9 14654.9 M -2856 14724.9 2854.9 14724.9 M 2466.7 14794.9 -2467.8 14794.9 M -2003.3 14864.9 2002.2 14864.9 M 1386.9 14934.9 -1388 14934.9 M -1396.8 9288.3 -2264.1 9115.8 M -2300.5 9106.7 -3146.7 8850 M -3156.2 8844.9 -20000 8844.9 M -20000 8774.9 -3332.7 8774.9 M -3182 8837.4 -3999 8499 M -4005 8494.9 -20000 8494.9 M -20000 8424.9 -4141.4 8424.9 M -4032.9 8482.9 -4812.7 8066.1 M -4796.2 8074.9 -20000 8074.9 M -20000 8004.9 -4907.6 8004.9 M -4844.9 8046.8 -5580.2 7555.5 M -5610.3 7533.1 -6293.9 6972.2 M -6229.6 7024.9 -20000 7024.9 M -20000 7094.9 -6144.3 7094.9 M -6059 7164.9 -20000 7164.9 M -20000 7234.9 -5973.7 7234.9 M -5888.4 7304.9 -20000 7304.9 M -20000 7374.9 -5803.1 7374.9 M -5717.8 7444.9 -20000 7444.9 M -20000 7514.9 -5632.5 7514.9 M -5536.1 7584.9 -20000 7584.9 M -20000 7654.9 -5431.4 7654.9 M -5326.6 7724.9 -20000 7724.9 M -20000 7794.9 -5221.9 7794.9 M -5117.1 7864.9 -20000 7864.9 M -20000 7934.9 -5012.3 7934.9 M -6383.7 6884.9 -19993.4 6884.9 M -20000 8144.9 -4665.2 8144.9 M -4534.3 8214.9 -20000 8214.9 M -20000 8284.9 -4403.3 8284.9 M -4272.3 8354.9 -20000 8354.9 M -20000 8564.9 -3839.7 8564.9 M -3670.7 8634.9 -20000 8634.9 M -20000 8704.9 -3501.7 8704.9 M -2932.6 8914.9 -20000 8914.9 M -20000 8984.9 -2701.9 8984.9 M -2471.1 9054.9 -20000 9054.9 M -20000 9124.9 -2218.3 9124.9 M -1866.4 9194.9 -20000 9194.9 M -20000 9264.9 -1514.4 9264.9 M -1359.7 9293.8 -479.6 9380.5 M -442.1 9382.3 442.1 9382.3 M 479.6 9380.5 1359.6 9293.8 M 1396.8 9288.3 2264.1 9115.8 M 2300.4 9106.7 3146.7 8850 M 3156.2 8844.9 12344 8844.9 M 12344.5 8774.9 3332.7 8774.9 M 3182 8837.4 3999 8499 M 4005 8494.9 12396.9 8494.9 M 12375.9 8564.9 3839.7 8564.9 M 3670.7 8634.9 12360.3 8634.9 M 12349.9 8704.9 3501.7 8704.9 M 4032.9 8482.9 4812.7 8066.1 M 4796.2 8074.9 12641 8074.9 M 12685.5 8004.9 4907.6 8004.9 M 4844.9 8046.8 5580.2 7555.5 M 5610.3 7533.1 6293.9 6972.2 M 6309.8 6954.9 13290.2 6954.9 M 13326.6 6884.9 6383.7 6884.9 M 6321.7 6947 6947 6321.7 M 6943.7 6324.9 13601.3 6324.9 M 13633.6 6254.9 7004.1 6254.9 M 6972.2 6293.9 7533.1 5610.3 M 7521.2 5624.9 13905.4 5624.9 M 13933.5 5554.9 7572.4 5554.9 M 7555.5 5580.2 8046.8 4844.9 M 8040.1 4854.9 14192.6 4854.9 M 14216.3 4784.9 8080.9 4784.9 M 8066.1 4812.7 8482.9 4032.9 M 8488.4 4014.9 14452.7 4014.9 M 14472 3944.9 8521.3 3944.9 M 8499 3999 8837.4 3182 M 8838.8 3174.9 14660.1 3174.9 M 14675.1 3104.9 8862.6 3104.9 M 8850 3146.7 9106.7 2300.4 M 9115.4 2264.9 14828 2264.9 M 14838.5 2194.9 9129.6 2194.9 M 9115.8 2264.1 9288.3 1396.8 M 9282.7 1424.9 14932.2 1424.9 M 14938.7 1354.9 9294.3 1354.9 M 9293.8 1359.6 9380.5 479.6 M 9381.8 444.9 14993.4 444.9 M 14995.3 374.9 9382.3 374.9 M 9382.3 442.1 9382.3 0 9382.3 -442.1 M 9379.1 -465.1 14992.8 -465.1 M 14994.8 -395.1 9382.3 -395.1 M 9382.3 -325.1 14996.5 -325.1 M 14997.8 -255.1 9382.3 -255.1 M 9382.3 -185.1 14998.9 -185.1 M 14999.6 -115.1 9382.3 -115.1 M 9382.3 -45.1 14999.9 -45.1 M 15000 0 A 15000 15000 0 0 1 12500.8 8290.4 L 12542.5 8218.4 A 999.9782248 999.9782248 0 0 0 12644.3 9531.6 M 12550.5 8214.9 4534.3 8214.9 M 4403.3 8284.9 12496.8 8284.9 M 12456.7 8354.9 4272.3 8354.9 M 4141.4 8424.9 12423.6 8424.9 M 12596.1 8144.9 4665.2 8144.9 M 5012.3 7934.9 12729.4 7934.9 M 12772.7 7864.9 5117.1 7864.9 M 5221.8 7794.9 12815.6 7794.9 M 12857.9 7724.9 5326.6 7724.9 M 5431.4 7654.9 12899.7 7654.9 M 12941 7584.9 5536.1 7584.9 M 5632.5 7514.9 12981.8 7514.9 M 13022 7444.9 5717.8 7444.9 M 5803.1 7374.9 13061.8 7374.9 M 13101.1 7304.9 5888.4 7304.9 M 2932.6 8914.9 12348.5 8914.9 M 12357.9 8984.9 2701.9 8984.9 M 2471.1 9054.9 12372.4 9054.9 M 12392.3 9124.9 2218.3 9124.9 M 1866.3 9194.9 12417.9 9194.9 M 12449.7 9264.9 1514.4 9264.9 M 942.5 9334.9 12488.3 9334.9 M 12534.9 9404.9 -20000 9404.9 M -20000 9474.9 12590.7 9474.9 M 12640.1 9538.4 14710 11598.4 M 14707.1 11591.3 A 999.99041 999.99041 0 0 1 15000 12298.4 L 15000 14998.4 M 14998.8 15074.9 14096.2 15074.9 M 14096.2 15144.9 14995.7 15144.9 M 14990.6 15214.9 14084.7 15214.9 M 14070.8 15284.9 14983.5 15284.9 M 14974.5 15354.9 14056.9 15354.9 M 14042.9 15424.9 14963.4 15424.9 M 14950.2 15494.9 14022.7 15494.9 M 13993.7 15564.9 14935 15564.9 M 14917.6 15634.9 13964.7 15634.9 M 13855.2 15844.9 14852.3 15844.9 M 14825.9 15914.9 13808.4 15914.9 M 13761.6 15984.9 14797.1 15984.9 M 14765.8 16054.9 13702.4 16054.9 M 13632.4 16124.9 14731.8 16124.9 M 14695.1 16194.9 13562.4 16194.9 M 13480 16264.9 14655.4 16264.9 M 14612.8 16334.9 13375.2 16334.9 M 13270.5 16404.9 14566.8 16404.9 M 14517.4 16474.9 13110.3 16474.9 M 14094.6 14835 14036.4 14542.2 M 14044.9 14584.9 15000 14584.9 M 15000 14654.9 14058.8 14654.9 M 14072.7 14724.9 15000 14724.9 M 15000 14794.9 14086.7 14794.9 M 15000 12414.9 -8461.3 12414.9 M -8786.9 12344.9 15000 12344.9 M 14999.7 12274.9 -20000 12274.9 M -20000 12344.9 -8875.8 12344.9 M -9201.4 12414.9 -20000 12414.9 M -20000 12484.9 -9343.3 12484.9 M -9445.7 12554.9 -20000 12554.9 M -20000 12624.9 -9526.3 12624.9 M -9590 12698.4 -13055.3 16167.2 M -13055.4 16167.2 A 249.9934799 249.9934799 0 0 1 -13352.3 16233.2 M -13406.9 16194.9 -13082.5 16194.9 M -13013.1 16124.9 -13516.1 16124.9 M -13673.2 16054.9 -12943.1 16054.9 M -12873.2 15984.9 -16238.4 15984.9 M -16255.7 16010.9 -16089.9 15762.7 M -16098 15774.9 -12663.4 15774.9 M -12733.3 15844.9 -16144.8 15844.9 M -16191.6 15914.9 -12803.3 15914.9 M -12593.5 15704.9 -16064.3 15704.9 M -16082.4 15748.7 -15968.2 15473 M -15963.6 15457.8 -15905.4 15165 M -15903.8 15149.2 -15903.8 15000 -15903.8 14850.8 M -15903.8 14864.9 -11754.3 14864.9 M -11824.3 14934.9 -15903.8 14934.9 M -15903.8 15004.9 -11894.2 15004.9 M -11964.1 15074.9 -15903.8 15074.9 M -15903.8 15144.9 -12034.1 15144.9 M -12104 15214.9 -15915.3 15214.9 M -15929.2 15284.9 -12173.9 15284.9 M -12243.8 15354.9 -15943.1 15354.9 M -15957 15424.9 -12313.8 15424.9 M -12383.7 15494.9 -15977.3 15494.9 M -16006.3 15564.9 -12453.6 15564.9 M -12523.6 15634.9 -16035.3 15634.9 M -16265.8 16023.2 -16476.8 16234.2 M -16489.1 16244.3 -16737.2 16410.1 M -16729.5 16404.9 -14803.7 16404.9 M -14851 16474.9 -16889.7 16474.9 M -17027 16531.8 -16751.3 16417.6 M -16624.8 16334.9 -14746.8 16334.9 M -14678 16264.9 -16520 16264.9 M -16437.5 16194.9 -14593.2 16194.9 M -14483.9 16124.9 -16367.5 16124.9 M -16297.5 16054.9 -14326.8 16054.9 M -14890.4 16544.9 -17085 16544.9 M -17042.2 16536.4 -17334.9 16594.6 M -17350.8 16596.2 -17649.2 16596.2 M -17665 16594.6 -17957.7 16536.4 M -17973 16531.8 -18248.7 16417.6 M -18262.7 16410.1 -18510.8 16244.3 M -18523.1 16234.2 -18734.2 16023.2 M -18744.3 16010.9 -18910.1 15762.7 M -18901.9 15774.9 -19876.9 15774.9 M -19898.6 15704.9 -18935.7 15704.9 M -18917.6 15748.7 -19031.8 15473 M -19036.4 15457.8 -19094.6 15165 M -19084.7 15214.9 -19990.7 15214.9 M -19983.7 15284.9 -19070.8 15284.9 M -19056.8 15354.9 -19974.7 15354.9 M -19963.6 15424.9 -19042.9 15424.9 M -19022.7 15494.9 -19950.5 15494.9 M -19935.3 15564.9 -18993.7 15564.9 M -18964.7 15634.9 -19918 15634.9 M -19852.9 15844.9 -18855.2 15844.9 M -18808.4 15914.9 -19826.6 15914.9 M -19797.8 15984.9 -18761.6 15984.9 M -18702.4 16054.9 -19766.5 16054.9 M -19732.6 16124.9 -18632.4 16124.9 M -18562.4 16194.9 -19695.9 16194.9 M -19656.4 16264.9 -18480 16264.9 M -18375.2 16334.9 -19613.8 16334.9 M -19567.9 16404.9 -18270.5 16404.9 M -18110.3 16474.9 -19518.6 16474.9 M -19465.5 16544.9 -17915 16544.9 M -17972.7 17454.9 -15106.8 17454.9 M -15039.5 17384.9 -18249.8 17384.9 M -18444.1 17314.9 -15008.6 17314.9 M -18600.2 17244.9 -15000 17244.9 M -15000 17034.9 -18952.3 17034.9 M -19045.7 16964.9 -14999.4 16964.9 M -14994.5 16894.9 -19130.8 16894.9 M -19208.7 16824.9 -14984.6 16824.9 M -14969.5 16754.9 -19280.5 16754.9 M -19346.9 16684.9 -14949.1 16684.9 M -14922.9 16614.9 -19408.4 16614.9 M -18848.9 17104.9 -15000 17104.9 M -15000 17174.9 -18732.8 17174.9 M -19096.2 14934.9 -20000 14934.9 M -20000 14724.9 -19072.7 14724.9 M -19058.8 14654.9 -20000 14654.9 M -20000 14584.9 -19044.9 14584.9 M -19026.7 14514.9 -20000 14514.9 M -20000 14444.9 -18997.7 14444.9 M -18968.8 14374.9 -20000 14374.9 M -20000 14304.9 -18939.8 14304.9 M -18908.5 14234.9 -20000 14234.9 M -20000 14164.9 -18861.7 14164.9 M -18814.9 14094.9 -20000 14094.9 M -20000 14024.9 -18768.2 14024.9 M -18712.2 13954.9 -20000 13954.9 M -20000 13884.9 -18642.2 13884.9 M -18572.2 13814.9 -20000 13814.9 M -20000 13744.9 -18494.7 13744.9 M -18389.9 13674.9 -20000 13674.9 M -20000 13604.9 -18285.1 13604.9 M -18134 13534.9 -20000 13534.9 M -17957.7 13463.6 -17665 13405.4 M -17649.2 13403.8 -17350.8 13403.8 M -17334.9 13405.4 -17042.2 13463.6 M -17040.3 13464.9 -10355.7 13464.9 M -10425.7 13534.9 -16866 13534.9 M -16751.3 13582.4 -17027 13468.2 M -16737.2 13589.9 -16489.1 13755.7 M -16476.8 13765.8 -16265.8 13976.8 M -16255.7 13989.1 -16089.9 14237.3 M -16091.5 14234.9 -11125 14234.9 M -11194.9 14304.9 -16060.2 14304.9 M -16082.4 14251.3 -15968.2 14527 M -15973.2 14514.9 -11404.7 14514.9 M -11474.6 14584.9 -15955.1 14584.9 M -15963.6 14542.2 -15905.4 14835 M -15913.3 14794.9 -11684.4 14794.9 M -11614.5 14724.9 -15927.2 14724.9 M -15941.2 14654.9 -11544.5 14654.9 M -11334.8 14444.9 -16002.2 14444.9 M -16031.2 14374.9 -11264.8 14374.9 M -11055 14164.9 -16138.3 14164.9 M -16185 14094.9 -10985.1 14094.9 M -10915.2 14024.9 -16231.8 14024.9 M -16287.7 13954.9 -10845.3 13954.9 M -10775.3 13884.9 -16357.7 13884.9 M -16427.7 13814.9 -10705.4 13814.9 M -10635.5 13744.9 -16505.3 13744.9 M -16610.1 13674.9 -10565.5 13674.9 M -10495.6 13604.9 -16714.8 13604.9 M -20000 12204.9 14995.6 12204.9 M 14986.6 12134.9 -20000 12134.9 M -20000 12064.9 14972.4 12064.9 M 14952.8 11994.9 -20000 11994.9 M -20000 11924.9 14927.6 11924.9 M 14896.3 11854.9 -20000 11854.9 M -20000 11784.9 14858.1 11784.9 M 14812.1 11714.9 -20000 11714.9 M -20000 11644.9 14756.9 11644.9 M 14686.4 11574.9 -20000 11574.9 M -20000 11504.9 14616.1 11504.9 M 14545.7 11434.9 -20000 11434.9 M -20000 11364.9 14475.4 11364.9 M 14405.1 11294.9 -20000 11294.9 M -20000 11224.9 14334.7 11224.9 M 14264.4 11154.9 -20000 11154.9 M -20000 11084.9 14194 11084.9 M 14123.7 11014.9 -20000 11014.9 M -20000 10944.9 14053.4 10944.9 M 13983.1 10874.9 -20000 10874.9 M -20000 10804.9 13912.7 10804.9 M 13842.4 10734.9 -20000 10734.9 M -20000 10664.9 13772 10664.9 M 13701.7 10594.9 -20000 10594.9 M -20000 10524.9 13631.4 10524.9 M 13561 10454.9 -20000 10454.9 M -20000 10384.9 13490.7 10384.9 M 13420.4 10314.9 -20000 10314.9 M -20000 10244.9 13350 10244.9 M 13279.7 10174.9 -20000 10174.9 M -20000 10104.9 13209.4 10104.9 M 13139 10034.9 -20000 10034.9 M -20000 9964.9 13068.7 9964.9 M 12998.4 9894.9 -20000 9894.9 M -20000 9824.9 12928 9824.9 M 12857.7 9754.9 -20000 9754.9 M -20000 9684.9 12787.3 9684.9 M 12717 9614.9 -20000 9614.9 M -20000 9544.9 12646.7 9544.9 M 13139.9 7234.9 5973.7 7234.9 M 6059 7164.9 13178.2 7164.9 M 13216 7094.9 6144.3 7094.9 M 6229.6 7024.9 13253.3 7024.9 M 13362.5 6814.9 6453.7 6814.9 M 6523.7 6744.9 13398 6744.9 M 13433 6674.9 6593.7 6674.9 M 6663.7 6604.9 13467.6 6604.9 M 13501.7 6534.9 6733.7 6534.9 M 6803.7 6464.9 13535.3 6464.9 M 13568.5 6394.9 6873.7 6394.9 M 7061.6 6184.9 13665.5 6184.9 M 13697 6114.9 7119 6114.9 M 7176.5 6044.9 13728 6044.9 M 13758.6 5974.9 7233.9 5974.9 M 7291.4 5904.9 13788.8 5904.9 M 13818.6 5834.9 7348.8 5834.9 M 7406.3 5764.9 13848 5764.9 M 13876.9 5694.9 7463.7 5694.9 M 7619.1 5484.9 13961.2 5484.9 M 13988.5 5414.9 7665.9 5414.9 M 7712.7 5344.9 14015.4 5344.9 M 14041.9 5274.9 7759.5 5274.9 M 7806.2 5204.9 14068 5204.9 M 14093.7 5134.9 7853 5134.9 M 7899.8 5064.9 14119 5064.9 M 14143.9 4994.9 7946.5 4994.9 M 7993.3 4924.9 14168.5 4924.9 M 14239.7 4714.9 8118.4 4714.9 M 8155.8 4644.9 14262.7 4644.9 M 14285.3 4574.9 8193.2 4574.9 M 8230.6 4504.9 14307.6 4504.9 M 14329.4 4434.9 8268 4434.9 M 8305.4 4364.9 14350.9 4364.9 M 14372 4294.9 8342.8 4294.9 M 8380.3 4224.9 14392.7 4224.9 M 14413.1 4154.9 8417.7 4154.9 M 8455.1 4084.9 14433.1 4084.9 M 14490.9 3874.9 8550.3 3874.9 M 8579.3 3804.9 14509.4 3804.9 M 14527.6 3734.9 8608.3 3734.9 M 8637.3 3664.9 14545.4 3664.9 M 14562.8 3594.9 8666.3 3594.9 M 8695.3 3524.9 14580 3524.9 M 14596.7 3454.9 8724.3 3454.9 M 8753.3 3384.9 14613.1 3384.9 M 14629.1 3314.9 8782.3 3314.9 M 8811.3 3244.9 14644.8 3244.9 M 14689.8 3034.9 8883.9 3034.9 M 8905.1 2964.9 14704.1 2964.9 M 14718 2894.9 8926.4 2894.9 M 8947.6 2824.9 14731.6 2824.9 M 14744.9 2754.9 8968.8 2754.9 M 8990.1 2684.9 14757.8 2684.9 M 14770.3 2614.9 9011.3 2614.9 M 9032.5 2544.9 14782.5 2544.9 M 14794.4 2474.9 9053.8 2474.9 M 9075 2404.9 14806 2404.9 M 14817.2 2334.9 9096.2 2334.9 M 9143.5 2124.9 14848.7 2124.9 M 14858.6 2054.9 9157.4 2054.9 M 9171.3 1984.9 14868.1 1984.9 M 14877.3 1914.9 9185.3 1914.9 M 9199.2 1844.9 14886.1 1844.9 M 14894.6 1774.9 9213.1 1774.9 M 9227 1704.9 14902.8 1704.9 M 14910.6 1634.9 9240.9 1634.9 M 9254.9 1564.9 14918.1 1564.9 M 14925.3 1494.9 9268.8 1494.9 M 9301.2 1284.9 14944.9 1284.9 M 14950.7 1214.9 9308.1 1214.9 M 9315 1144.9 14956.3 1144.9 M 14961.4 1074.9 9321.9 1074.9 M 9328.8 1004.9 14966.3 1004.9 M 14970.8 934.9 9335.7 934.9 M 9342.6 864.9 14975 864.9 M 14978.9 794.9 9349.5 794.9 M 9356.3 724.9 14982.5 724.9 M 14985.7 654.9 9363.2 654.9 M 9370.1 584.9 14988.6 584.9 M 14991.2 514.9 9377 514.9 M 9382.3 304.9 14996.9 304.9 M 14998.2 234.9 9382.3 234.9 M 9382.3 164.9 14999.1 164.9 M 14999.7 94.9 9382.3 94.9 M 9382.3 24.9 15000 24.9 M 12545.8 -8222.2 A 15000.0556826 15000.0556826 0 0 1 15000 0 M 14990.5 -535.1 9375 -535.1 M 9380.5 -479.6 9293.8 -1359.6 M 9289.2 -1375.1 14936.8 -1375.1 M 14943.1 -1305.1 9299.2 -1305.1 M 9306.1 -1235.1 14949.1 -1235.1 M 14954.7 -1165.1 9313 -1165.1 M 9319.9 -1095.1 14960 -1095.1 M 14964.9 -1025.1 9326.8 -1025.1 M 9333.7 -955.1 14969.6 -955.1 M 14973.9 -885.1 9340.6 -885.1 M 9347.5 -815.1 14977.8 -815.1 M 14981.5 -745.1 9354.4 -745.1 M 9361.2 -675.1 14984.8 -675.1 M 14987.8 -605.1 9368.1 -605.1 M 9288.3 -1396.8 9115.8 -2264.1 M 9108.2 -2285.1 14824.9 -2285.1 M 14835.6 -2215.1 9125.6 -2215.1 M 9139.5 -2145.1 14845.8 -2145.1 M 14855.8 -2075.1 9153.4 -2075.1 M 9167.3 -2005.1 14865.4 -2005.1 M 14874.7 -1935.1 9181.2 -1935.1 M 9195.2 -1865.1 14883.6 -1865.1 M 14892.2 -1795.1 9209.1 -1795.1 M 9223 -1725.1 14900.5 -1725.1 M 14908.4 -1655.1 9236.9 -1655.1 M 9250.9 -1585.1 14916 -1585.1 M 14923.3 -1515.1 9264.8 -1515.1 M 9278.7 -1445.1 14930.2 -1445.1 M 14814 -2355.1 9090.1 -2355.1 M 9106.7 -2300.5 8850 -3146.7 M 8856.6 -3125.1 14670.9 -3125.1 M 14685.6 -3055.1 8877.8 -3055.1 M 8899 -2985.1 14700 -2985.1 M 14714 -2915.1 8920.2 -2915.1 M 8941.5 -2845.1 14727.7 -2845.1 M 14741.1 -2775.1 8962.7 -2775.1 M 8983.9 -2705.1 14754.1 -2705.1 M 14766.7 -2635.1 9005.2 -2635.1 M 9026.4 -2565.1 14779.1 -2565.1 M 14791 -2495.1 9047.7 -2495.1 M 9068.9 -2425.1 14802.7 -2425.1 M 14655.8 -3195.1 8831.9 -3195.1 M 8837.4 -3182 8499 -3999 M 8513 -3965.1 14466.5 -3965.1 M 14485.5 -3895.1 8542 -3895.1 M 8482.9 -4032.9 8066.1 -4812.7 M 8070.2 -4805.1 14209.6 -4805.1 M 14233 -4735.1 8107.6 -4735.1 M 8145 -4665.1 14256.1 -4665.1 M 14278.9 -4595.1 8182.4 -4595.1 M 8219.8 -4525.1 14301.2 -4525.1 M 14323.1 -4455.1 8257.2 -4455.1 M 8294.7 -4385.1 14344.7 -4385.1 M 14365.9 -4315.1 8332.1 -4315.1 M 8369.5 -4245.1 14386.8 -4245.1 M 14407.3 -4175.1 8406.9 -4175.1 M 8444.3 -4105.1 14427.4 -4105.1 M 14447.1 -4035.1 8481.7 -4035.1 M 8046.8 -4844.9 7555.5 -5580.2 M 7558.9 -5575 13925.5 -5575 M 13953.3 -5505.1 7605.7 -5505.1 M 7652.5 -5435.1 13980.7 -5435.1 M 14007.7 -5365 7699.2 -5365 M 7746 -5295.1 14034.3 -5295.1 M 14060.5 -5225 7792.8 -5225 M 7839.6 -5155 14086.4 -5155 M 14111.8 -5085.1 7886.3 -5085.1 M 7933.1 -5015 14136.8 -5015 M 14161.5 -4945 7979.9 -4945 M 8026.6 -4875.1 14185.7 -4875.1 M 13897.3 -5645.1 7504.6 -5645.1 M 7533.1 -5610.3 6972.2 -6293.9 M 6987.6 -6275.1 13624.4 -6275.1 M 13656.4 -6205 7045.1 -6205 M 7102.5 -6135 13688 -6135 M 13719.2 -6065.1 7159.9 -6065.1 M 7217.4 -5995 13749.9 -5995 M 13780.2 -5925 7274.8 -5925 M 7332.3 -5855.1 13810.1 -5855.1 M 13839.6 -5785 7389.7 -5785 M 7447.2 -5715.1 13868.6 -5715.1 M 13591.9 -6345 6923.6 -6345 M 6947 -6321.7 6321.7 -6947 M 6293.9 -6972.2 5610.3 -7533.1 M 5606.8 -7535 12970.1 -7535 M 13010.5 -7465.1 5693.3 -7465.1 M 5778.6 -7395.1 13050.4 -7395.1 M 13089.8 -7325 5863.9 -7325 M 5580.2 -7555.5 4844.9 -8046.8 M 4812.7 -8066.1 4032.9 -8482.9 M 3999 -8499 3182 -8837.4 M 3146.7 -8850 2300.4 -9106.7 M 2264.1 -9115.8 1396.8 -9288.3 M 1413.3 -9285.1 12459.2 -9285.1 M 12499.8 -9355.1 738.1 -9355.1 M 1359.6 -9293.8 479.6 -9380.5 M 442.1 -9382.3 -442.1 -9382.3 M -479.6 -9380.5 -1359.6 -9293.8 M -1396.8 -9288.3 -2264.1 -9115.8 M -2300.5 -9106.7 -3146.7 -8850 M -3182 -8837.4 -3999 -8499 M -4032.9 -8482.9 -4812.7 -8066.1 M -4758.5 -8095 -20000 -8095 M -20000 -8165 -4627.6 -8165 M -4496.6 -8235.1 -20000 -8235.1 M -20000 -8305 -4365.6 -8305 M -4234.7 -8375 -20000 -8375 M -20000 -8445.1 -4103.7 -8445.1 M -3960.1 -8515 -20000 -8515 M -20000 -8585 -3791.1 -8585 M -3622.1 -8655.1 -20000 -8655.1 M -20000 -8725 -3453.1 -8725 M -3284.1 -8795 -20000 -8795 M -20000 -8865.1 -3097 -8865.1 M -2866.3 -8935.1 -20000 -8935.1 M -20000 -9005 -2635.5 -9005 M -2404.8 -9075.1 -20000 -9075.1 M -20000 -9145.1 -2117.1 -9145.1 M -1765.2 -9215 -20000 -9215 M -20000 -8025.1 -4877.4 -8025.1 M -4844.9 -8046.8 -5580.2 -7555.5 M -5606.8 -7535 -20000 -7535 M -20000 -7465.1 -5693.3 -7465.1 M -5610.3 -7533.1 -6293.9 -6972.2 M -6290.4 -6975 -19999.7 -6975 M -19000 -6000 A 1000 1000 0 0 1 -20000 -7000 L -20000 -15000 A 2500 2500 0 0 1 -17500 -17500 L -14800 -17500 A 1000 1000 0 0 1 -14092.9 -17207.1 M -14100 -17210 -9590 -12700 M -8287.5 -12506.3 A 999.9875399 999.9875399 0 0 1 -9589.5 -12693.5 M -9605 -12715 -20000 -12715 M -20000 -12785 -9675 -12785 M -9745 -12855 -20000 -12855 M -20000 -12925 -9815 -12925 M -9885 -12995 -20000 -12995 M -20000 -13065 -9955 -13065 M -10025 -13135 -20000 -13135 M -20000 -13205 -10095 -13205 M -10165 -13275 -20000 -13275 M -20000 -13345 -10235 -13345 M -10305 -13415 -17286.3 -13415 M -17334.9 -13405.4 -17042.2 -13463.6 M -17027 -13468.2 -16751.3 -13582.4 M -16737.2 -13589.9 -16489.1 -13755.7 M -16478.7 -13765 -10655 -13765 M -10585 -13695 -16579.9 -13695 M -16476.8 -13765.8 -16265.8 -13976.8 M -16267.6 -13975 -10865 -13975 M -10935 -14045 -16218.3 -14045 M -16255.7 -13989.1 -16089.9 -14237.3 M -16082.4 -14251.3 -15968.2 -14527 M -15968.2 -14535 -11425 -14535 M -11355 -14465 -15993.9 -14465 M -16022.9 -14395 -11285 -14395 M -11215 -14325 -16051.9 -14325 M -16080.9 -14255 -11145 -14255 M -11075 -14185 -16124.8 -14185 M -16171.6 -14115 -11005 -14115 M -10795 -13905 -16337.6 -13905 M -16407.6 -13835 -10725 -13835 M -10515 -13625 -16684.7 -13625 M -16817.4 -13555 -10445 -13555 M -10375 -13485 -16986.4 -13485 M -17350.8 -13403.8 -17649.2 -13403.8 M -17665 -13405.4 -17957.7 -13463.6 M -17973 -13468.2 -18248.7 -13582.4 M -18262.7 -13589.9 -18510.8 -13755.7 M -18521.3 -13765 -20000 -13765 M -20000 -13835 -18592.4 -13835 M -18523.1 -13765.8 -18734.2 -13976.8 M -18732.4 -13975 -20000 -13975 M -20000 -13905 -18662.4 -13905 M -18744.3 -13989.1 -18910.1 -14237.3 M -18917.6 -14251.3 -19031.8 -14527 M -19031.8 -14535 -20000 -14535 M -20000 -14465 -19006.1 -14465 M -18977.1 -14395 -20000 -14395 M -20000 -14325 -18948.1 -14325 M -18919.1 -14255 -20000 -14255 M -20000 -14185 -18875.2 -14185 M -18828.4 -14115 -20000 -14115 M -20000 -14045 -18781.6 -14045 M -18420 -13695 -20000 -13695 M -20000 -13625 -18315.3 -13625 M -18182.6 -13555 -20000 -13555 M -20000 -13485 -18013.6 -13485 M -17713.6 -13415 -20000 -13415 M -20000 -12645 -9545 -12645 M -9468.8 -12575 -20000 -12575 M -20000 -12505 -9373.1 -12505 M -9244.9 -12435 -20000 -12435 M -20000 -12365 -9027.9 -12365 M -8634.7 -12365 15000 -12365 M 15000 -12300 15000 -15000 A 2500 2500 0 0 0 12500 -17500 L 9800 -17500 A 999.99041 999.99041 0 0 0 9092.9 -17207.1 M 14999.9 -15025 14096.2 -15025 M 14096.2 -15000 14096.2 -14850.8 M 14094.6 -14834.9 14036.4 -14542.2 M 14031.8 -14535 15000 -14535 M 15000 -14605 14048.9 -14605 M 14031.8 -14527 13917.6 -14251.3 M 13919.1 -14255 15000 -14255 M 15000 -14185 13875.2 -14185 M 13910.1 -14237.3 13744.3 -13989.1 M 13734.2 -13976.8 13523.2 -13765.8 M 13521.3 -13765 15000 -13765 M 15000 -13835 13592.4 -13835 M 13662.4 -13905 15000 -13905 M 15000 -13975 13732.4 -13975 M 13781.6 -14045 15000 -14045 M 15000 -14115 13828.4 -14115 M 13948.1 -14325 15000 -14325 M 15000 -14395 13977.1 -14395 M 14006.1 -14465 15000 -14465 M 15000 -13695 13420 -13695 M 13510.9 -13755.7 13262.7 -13589.9 M 13248.7 -13582.4 12973 -13468.2 M 12957.8 -13463.6 12665 -13405.4 M 12649.2 -13403.8 12350.8 -13403.8 M 12335 -13405.4 12042.2 -13463.6 M 12027 -13468.2 11751.3 -13582.4 M 11737.3 -13589.9 11489.1 -13755.7 M 11478.7 -13765 -5962.6 -13765 M -6121.7 -13695 11580 -13695 M 11476.8 -13765.8 11265.8 -13976.8 M 11267.6 -13975 -5452.2 -13975 M -5628.4 -13905 11337.6 -13905 M 11407.6 -13835 -5798.3 -13835 M -6275.9 -13625 11684.7 -13625 M 11817.4 -13555 -6425.7 -13555 M -6571.4 -13485 11986.4 -13485 M 12286.4 -13415 -6713.1 -13415 M -6851.2 -13345 15000 -13345 M 15000 -13275 -6985.9 -13275 M -7117.3 -13205 15000 -13205 M 15000 -13135 -7245.7 -13135 M -7371.2 -13065 15000 -13065 M 15000 -12995 -7493.9 -12995 M -7614 -12925 15000 -12925 M 15000 -12855 -7731.6 -12855 M -7846.8 -12785 15000 -12785 M 15000 -12715 -7959.7 -12715 M -8070.4 -12645 15000 -12645 M 15000 -12575 -8179.1 -12575 M -8285.7 -12505 15000 -12505 M 15000 -12435 -8417.8 -12435 M -8286.4 -12504.6 A 15000.0384416 15000.0384416 0 0 1 5118.5 -14100.3 M 6217.8 -14330.8 A 999.9782248 999.9782248 0 0 1 5120.6 -14106.2 M 5077.7 -14115 -5078.8 -14115 M -5269.3 -14045 5331.1 -14045 M 5675.1 -14045 11218.4 -14045 M 11255.7 -13989.1 11089.9 -14237.3 M 11082.4 -14251.3 10968.2 -14527 M 10968.2 -14535 6434.3 -14535 M 6364.5 -14465 10993.9 -14465 M 11022.9 -14395 6294.8 -14395 M 6225 -14325 11051.9 -14325 M 11080.9 -14255 6134.9 -14255 M 6220 -14320 9100 -17210 M 12852.5 -17475 9577.9 -17475 M 9374.6 -17405 13182.5 -17405 M 13393.1 -17335 9249.8 -17335 M 9156 -17265 13558.1 -17265 M 13696.6 -17195 9085.1 -17195 M 9015.3 -17125 13816.9 -17125 M 13923.7 -17055 8945.6 -17055 M 8875.8 -16985 14019.7 -16985 M 14107.1 -16915 8806.1 -16915 M 8736.3 -16845 14187 -16845 M 14260.5 -16775 8666.5 -16775 M 8596.8 -16705 14328.4 -16705 M 14391.2 -16635 8527 -16635 M 8457.3 -16565 12186.2 -16565 M 12042.2 -16536.4 12335 -16594.6 M 12350.8 -16596.2 12649.2 -16596.2 M 12665 -16594.6 12957.8 -16536.4 M 12973 -16531.8 13248.7 -16417.6 M 13262.7 -16410.1 13510.9 -16244.3 M 13523.2 -16234.2 13734.2 -16023.2 M 13744.3 -16010.9 13910.1 -15762.7 M 13917.6 -15748.7 14031.8 -15473 M 14036.4 -15457.7 14094.6 -15165 14994.5 -15165 M 14998.2 -15095 14096.2 -15095 M 14096.2 -15149.2 14096.2 -15000 M 14096.2 -14955 15000 -14955 M 15000 -14885 14096.2 -14885 M 14090.7 -14815 15000 -14815 M 15000 -14745 14076.7 -14745 M 14062.8 -14675 15000 -14675 M 14988.9 -15235 14080.7 -15235 M 14066.8 -15305 14981.3 -15305 M 14971.7 -15375 14052.8 -15375 M 14038.9 -15445 14960.1 -15445 M 14946.4 -15515 14014.4 -15515 M 13985.4 -15585 14930.6 -15585 M 14912.7 -15655 13956.4 -15655 M 13927.4 -15725 14892.6 -15725 M 14870.2 -15795 13888.5 -15795 M 13841.7 -15865 14845.6 -15865 M 14818.6 -15935 13794.9 -15935 M 13748.2 -16005 14789.1 -16005 M 14757 -16075 13682.3 -16075 M 13612.3 -16145 14722.4 -16145 M 14684.9 -16215 13542.3 -16215 M 13449.9 -16285 14644.5 -16285 M 14600.9 -16355 13345.1 -16355 M 13230.7 -16425 14554.1 -16425 M 14503.7 -16495 13061.7 -16495 M 12813.8 -16565 14449.5 -16565 M 12027 -16531.8 11751.3 -16417.6 M 11737.3 -16410.1 11489.1 -16244.3 M 11476.8 -16234.2 11265.8 -16023.2 M 11255.7 -16010.9 11089.9 -15762.7 M 11082.4 -15748.7 10968.2 -15473 M 10963.6 -15457.7 10905.4 -15165 7062.1 -15165 M 7131.9 -15235 10919.3 -15235 M 10933.2 -15305 7201.6 -15305 M 7271.4 -15375 10947.2 -15375 M 10961.1 -15445 7341.1 -15445 M 7410.9 -15515 10985.6 -15515 M 11014.6 -15585 7480.7 -15585 M 7550.4 -15655 11043.6 -15655 M 11072.6 -15725 7620.2 -15725 M 7689.9 -15795 11111.5 -15795 M 11158.3 -15865 7759.7 -15865 M 7829.5 -15935 11205.1 -15935 M 11251.8 -16005 7899.2 -16005 M 7969 -16075 11317.7 -16075 M 11387.7 -16145 8038.7 -16145 M 8108.5 -16215 11457.7 -16215 M 11550.1 -16285 8178.2 -16285 M 8248 -16355 11654.9 -16355 M 11769.3 -16425 8317.7 -16425 M 8387.5 -16495 11938.3 -16495 M 12713.6 -13415 15000 -13415 M 15000 -13485 13013.6 -13485 M 13182.6 -13555 15000 -13555 M 15000 -13625 13315.3 -13625 M 15000 -12300 A 1000 1000 0 0 1 14707.1 -11592.9 M 14705 -11595 -20000 -11595 M -20000 -11525 14634.7 -11525 M 14564.4 -11455 -20000 -11455 M -20000 -11385 14494 -11385 M 14423.7 -11315 -20000 -11315 M -20000 -11245 14353.3 -11245 M 14283 -11175 -20000 -11175 M -20000 -11105 14212.7 -11105 M 14142.3 -11035 -20000 -11035 M -20000 -10965 14072 -10965 M 14001.7 -10895 -20000 -10895 M -20000 -10825 13931.3 -10825 M 13861 -10755 -20000 -10755 M -20000 -10685 13790.7 -10685 M 13720.3 -10615 -20000 -10615 M -20000 -10545 13650 -10545 M 13579.6 -10475 -20000 -10475 M -20000 -10405 13509.3 -10405 M 13439 -10335 -20000 -10335 M -20000 -10265 13368.7 -10265 M 13298.3 -10195 -20000 -10195 M -20000 -10125 13228 -10125 M 13157.6 -10055 -20000 -10055 M -20000 -9985 13087.3 -9985 M 13017 -9915 -20000 -9915 M -20000 -9845 12946.6 -9845 M 12876.3 -9775.1 -20000 -9775.1 M -20000 -9705.1 12806 -9705.1 M 12735.6 -9635 -20000 -9635 M -20000 -9565.1 12665.3 -9565.1 M 12640.1 -9540 14710 -11600 M 14772.5 -11665 -20000 -11665 M -20000 -11735 14825.1 -11735 M 14868.9 -11805 -20000 -11805 M -20000 -11875 14905.2 -11875 M 14934.9 -11945 -20000 -11945 M -20000 -12015 14958.6 -12015 M 14976.6 -12085 -20000 -12085 M -20000 -12155 14989.5 -12155 M 14997.2 -12225 -20000 -12225 M -20000 -12295 15000 -12295 M 12542.5 -8220 A 1000.002 1000.002 0 0 1 12644.3 -9533.1 M 12607.3 -9495.1 -20000 -9495.1 M -20000 -9425 12548.7 -9425 M 12425.7 -9215 1765.2 -9215 M 2117.1 -9145.1 12398.5 -9145.1 M 12377.1 -9075.1 2404.8 -9075.1 M 2635.5 -9005 12361.2 -9005 M 12350.5 -8935.1 2866.3 -8935.1 M 3097 -8865.1 12344.7 -8865.1 M 12343.9 -8795 3284.1 -8795 M 3453.1 -8725 12348 -8725 M 12357.1 -8655.1 3622.1 -8655.1 M 3791.1 -8585 12371.3 -8585 M 12390.8 -8515 3960.1 -8515 M 4103.7 -8445.1 12416 -8445.1 M 12447.3 -8375 4234.7 -8375 M 4365.6 -8305 12485.5 -8305 M 12531.4 -8235.1 4496.6 -8235.1 M 4627.6 -8165 12583 -8165 M 12628.2 -8095 4758.5 -8095 M 4877.4 -8025.1 12672.8 -8025.1 M 12716.8 -7955 4982.2 -7955 M 5087 -7885 12760.3 -7885 M 12803.3 -7815.1 5191.7 -7815.1 M 5296.5 -7745 12845.8 -7745 M 12887.7 -7675 5401.3 -7675 M 5506 -7605.1 12929.2 -7605.1 M 13128.8 -7255.1 5949.2 -7255.1 M 6034.5 -7185.1 13167.2 -7185.1 M 13205.2 -7115 6119.8 -7115 M 6205.1 -7045.1 13242.6 -7045.1 M 13279.6 -6975 6290.3 -6975 M 6363.6 -6905 13316.2 -6905 M 13352.2 -6835.1 6433.6 -6835.1 M 6503.6 -6765 13387.8 -6765 M 13423 -6695 6573.6 -6695 M 6643.6 -6625.1 13457.7 -6625.1 M 13491.9 -6555 6713.6 -6555 M 6783.6 -6485.1 13525.7 -6485.1 M 13559 -6415.1 6853.6 -6415.1 M 6504 -14605 10951.1 -14605 M 10963.6 -14542.2 10905.4 -14834.9 M 10903.8 -14850.8 10903.8 -15000 10903.8 -15149.2 M 10903.8 -15095 6992.4 -15095 M 6922.6 -15025 10903.8 -15025 M 10903.8 -14955 6852.8 -14955 M 6783.1 -14885 10903.8 -14885 M 10909.3 -14815 6713.3 -14815 M 6643.6 -14745 10923.3 -14745 M 10937.2 -14675 6573.8 -14675 M 6037.7 -14185 11124.8 -14185 M 11171.6 -14115 5906.3 -14115 M 4878.8 -14185 -4879.9 -14185 M -3109.7 -14675 3108.7 -14675 M 2757.7 -14745 -2758.8 -14745 M -2354 -14815 2352.9 -14815 M 1859.5 -14885 -1860.6 -14885 M -1171.5 -14955 1170.4 -14955 M 3422.4 -14605 -3423.5 -14605 M -3709.5 -14535 3708.4 -14535 M 3972.7 -14465 -3973.7 -14465 M -4220.3 -14395 4219.2 -14395 M 4451 -14325 -4452.1 -14325 M -4671.4 -14255 4670.3 -14255 M -738.1 -9355.1 -20000 -9355.1 M -20000 -9285.1 -1413.3 -9285.1 M -4982.2 -7955 -20000 -7955 M -20000 -7885 -5087 -7885 M -5191.7 -7815.1 -20000 -7815.1 M -20000 -7745 -5296.5 -7745 M -5401.3 -7675 -20000 -7675 M -20000 -7605.1 -5506 -7605.1 M -5778.6 -7395.1 -20000 -7395.1 M -20000 -7325 -5863.9 -7325 M -5949.2 -7255.1 -20000 -7255.1 M -20000 -7185.1 -6034.5 -7185.1 M -6119.8 -7115 -20000 -7115 M -20000 -7045.1 -6205.1 -7045.1 M -6321.7 -6947 -6947 -6321.7 M -6923.6 -6345 -19755.7 -6345 M -19811.1 -6415.1 -6853.6 -6415.1 M -6783.6 -6485.1 -19857.2 -6485.1 M -19895.6 -6555 -6713.6 -6555 M -6643.6 -6625.1 -19927 -6625.1 M -19952.4 -6695 -6573.6 -6695 M -6503.6 -6765 -19972 -6765 M -19986.3 -6835.1 -6433.6 -6835.1 M -6363.6 -6905 -19995.5 -6905 M -19688.8 -6275.1 -6987.6 -6275.1 M -6972.2 -6293.9 -7533.1 -5610.3 M -7555.5 -5580.2 -8046.8 -4844.9 M -8026.7 -4875.1 -15599.9 -4875.1 M -15600 -4945 -7979.9 -4945 M -7933.1 -5015 -15600.1 -5015 M -16600 -6000 A 1000 1000 0 0 1 -15600 -5000 L -15599.6 -4300 M -15607.4 -4175.1 -8406.9 -4175.1 M -8444.3 -4105.1 -15618.7 -4105.1 M -15685.2 -3895.1 -8542 -3895.1 M -7886.3 -5085.1 -15603.6 -5085.1 M -15612.1 -5155 -7839.6 -5155 M -7792.8 -5225 -15625.7 -5225 M -15644.5 -5295.1 -7746 -5295.1 M -7699.2 -5365 -15669 -5365 M -15699.6 -5435.1 -7652.5 -5435.1 M -7605.7 -5505.1 -15736.9 -5505.1 M -15781.9 -5575 -7558.9 -5575 M -7504.6 -5645.1 -15835.9 -5645.1 M -15901 -5715.1 -7447.2 -5715.1 M -7389.7 -5785 -15980.6 -5785 M -16081.5 -5855.1 -7332.3 -5855.1 M -7274.8 -5925 -16220.2 -5925 M -16500.9 -5995 -7217.4 -5995 M -7159.9 -6065.1 -19354.8 -6065.1 M -19501.9 -6135 -7102.5 -6135 M -7045.1 -6205 -19606.7 -6205 M -19000 -6000 -16600 -6000 M -15963.6 -14542.2 -15905.4 -14834.9 M -15903.8 -14850.8 -15903.8 -15000 -15903.8 -15149.2 M -15905.4 -15165 -12055 -15165 M -11985 -15095 -15903.8 -15095 M -15903.8 -15025 -11915 -15025 M -11845 -14955 -15903.8 -14955 M -15903.8 -14885 -11775 -14885 M -11705 -14815 -15909.3 -14815 M -15923.2 -14745 -11635 -14745 M -11565 -14675 -15937.2 -14675 M -15905.4 -15165 -15963.6 -15457.7 M -15961.1 -15445 -12335 -15445 M -12265 -15375 -15947.1 -15375 M -15933.2 -15305 -12195 -15305 M -12125 -15235 -15919.3 -15235 M -15968.2 -15473 -16082.4 -15748.7 M -16089.9 -15762.7 -16255.7 -16010.9 M -16251.8 -16005 -12895 -16005 M -12825 -15935 -16205 -15935 M -16158.3 -15865 -12755 -15865 M -12685 -15795 -16111.5 -15795 M -16072.6 -15725 -12615 -15725 M -12545 -15655 -16043.6 -15655 M -16014.6 -15585 -12475 -15585 M -12405 -15515 -15985.6 -15515 M -16265.8 -16023.2 -16476.8 -16234.2 M -16489.1 -16244.3 -16737.2 -16410.1 M -16751.3 -16417.6 -17027 -16531.8 M -17042.2 -16536.4 -17334.9 -16594.6 M -17350.8 -16596.2 -17649.2 -16596.2 M -17665 -16594.6 -17957.7 -16536.4 M -17973 -16531.8 -18248.7 -16417.6 M -18262.7 -16410.1 -18510.8 -16244.3 M -18523.1 -16234.2 -18734.2 -16023.2 M -18744.3 -16010.9 -18910.1 -15762.7 M -18917.6 -15748.7 -19031.8 -15473 M -19036.4 -15457.7 -19094.6 -15165 -19994.5 -15165 M -19998.2 -15095 -19096.2 -15095 M -19096.2 -15149.2 -19096.2 -15000 -19096.2 -14850.8 M -19094.6 -14834.9 -19036.4 -14542.2 M -19048.9 -14605 -20000 -14605 M -15951.1 -14605 -11495 -14605 M -12965 -16075 -16317.7 -16075 M -16387.7 -16145 -13035 -16145 M -13105 -16215 -16457.7 -16215 M -16550.1 -16285 -13175 -16285 M -13245 -16355 -16654.9 -16355 M -16769.3 -16425 -13315 -16425 M -13385 -16495 -16938.3 -16495 M -17186.2 -16565 -13455 -16565 M -13525 -16635 -19391.2 -16635 M -19449.5 -16565 -17813.8 -16565 M -18061.7 -16495 -19503.7 -16495 M -19554.1 -16425 -18230.7 -16425 M -18345.1 -16355 -19600.9 -16355 M -19644.5 -16285 -18449.8 -16285 M -18542.3 -16215 -19684.9 -16215 M -19722.4 -16145 -18612.3 -16145 M -18682.3 -16075 -19757 -16075 M -19789.1 -16005 -18748.1 -16005 M -18794.9 -15935 -19818.6 -15935 M -19845.6 -15865 -18841.7 -15865 M -18888.5 -15795 -19870.2 -15795 M -19892.6 -15725 -18927.3 -15725 M -18956.4 -15655 -19912.7 -15655 M -19930.6 -15585 -18985.3 -15585 M -19014.3 -15515 -19946.4 -15515 M -19960.1 -15445 -19038.9 -15445 M -19052.8 -15375 -19971.7 -15375 M -19981.3 -15305 -19066.8 -15305 M -19080.7 -15235 -19988.9 -15235 M -19999.9 -15025 -19096.2 -15025 M -19096.2 -14955 -20000 -14955 M -20000 -14885 -19096.2 -14885 M -19090.6 -14815 -20000 -14815 M -20000 -14745 -19076.7 -14745 M -19062.8 -14675 -20000 -14675 M -19328.4 -16705 -13595 -16705 M -13665 -16775 -19260.5 -16775 M -19187 -16845 -13735 -16845 M -13805 -16915 -19107.1 -16915 M -19019.8 -16985 -13875 -16985 M -13945 -17055 -18923.7 -17055 M -18816.9 -17125 -14015 -17125 M -14085 -17195 -18696.6 -17195 M -18558.1 -17265 -14156 -17265 M -14249.8 -17335 -18393.1 -17335 M -18182.5 -17405 -14374.6 -17405 M -14577.9 -17475 -17852.5 -17475 M -9326.8 -1025.1 -15617.9 -1025.1 M -15760 -815.1 -9347.5 -815.1 M -9354.4 -745.1 -15841.3 -745.1 M -16026.9 -654.6 -16196.6 -635 -16026.9 -615.4 M -16263.8 -635 -16453.4 -586.9 M -16381.7 -605.1 -21500 -605.1 M -21500 -675.1 -16421.6 -675.1 M -16453.4 -683.1 -16263.8 -635 M -16536.4 -535.1 -21500 -535.1 M -21500 -465.1 -20734.4 -465.1 M -20735.5 -464.6 -20814.6 -385.5 M -20805 -395.1 -21500 -395.1 M -21500 -325.1 -20846.3 -325.1 M -20832.2 -359.2 -20875 -255.8 M -20875 -255.1 -21500 -255.1 M -21500 -185.1 -20881.2 -185.1 M -20881.2 -168.8 -20881.2 168.8 M -20881.2 164.9 -21500 164.9 M -21500 234.9 -20877 234.9 M -20875 255.8 -20832.2 359.2 M -20819 374.9 -21500 374.9 M -21500 304.9 -20854.7 304.9 M -20814.6 385.5 -20735.5 464.6 M -20755.2 444.9 -21500 444.9 M -21500 514.9 -20630.1 514.9 M -20605.8 525 -20709.2 482.2 M -20518.8 531.2 -16541.9 531.2 M -16456 584.9 -21500 584.9 M -21500 654.9 -16342.3 654.9 M -16263.8 635 -16453.4 683.1 M -16453.4 586.9 -16263.8 635 M -16522.1 724.9 -21500 724.9 M -21500 794.9 -20216.3 794.9 M -20209.2 787.8 -20105.8 745 M -20018.8 738.8 -16541.9 738.8 M -16541.9 -531.2 -20518.8 -531.2 M -20605.8 -525 -20709.2 -482.2 M -20709.2 -787.8 -20605.8 -745 M -20606 -745.1 -21500 -745.1 M -21500 -815.1 -20745.2 -815.1 M -20735.5 -805.4 -20814.6 -884.5 M -20814.8 -885.1 -21500 -885.1 M -21500 -955.1 -20850.5 -955.1 M -20832.2 -910.8 -20875 -1014.2 M -20875 -1025.1 -21500 -1025.1 M -21500 -1095.1 -20881.2 -1095.1 M -20881.2 -1101.2 -20881.2 -1438.8 M -20881.2 -1445.1 -21500 -1445.1 M -21500 -1375.1 -20881.2 -1375.1 M -20881.2 -1305.1 -21500 -1305.1 M -21500 -1235.1 -20881.2 -1235.1 M -20881.2 -1165.1 -21500 -1165.1 M -21500 -1515.1 -20875 -1515.1 M -20875 -1525.8 -20832.2 -1629.2 M -20814.8 -1655.1 -21500 -1655.1 M -21500 -1585.1 -20850.5 -1585.1 M -20814.6 -1655.5 -20735.5 -1734.6 M -20745 -1725.1 -21500 -1725.1 M -21500 -1795.1 -20589.5 -1795.1 M -20605.8 -1795 -20709.2 -1752.2 M -20518.8 -1801.2 -16541.9 -1801.2 M -16541.9 -738.8 -20518.8 -738.8 M -20881.2 -115.1 -21500 -115.1 M -21500 -45.1 -20881.2 -45.1 M -20881.2 24.9 -21500 24.9 M -21500 94.9 -20881.2 94.9 M -20314.6 884.5 -20235.5 805.4 M -20295 864.9 -21500 864.9 M -21500 934.9 -20342.2 934.9 M -20332.2 910.8 -20375 1014.2 M -20371.2 1004.9 -21500 1004.9 M -21500 1074.9 -20381.2 1074.9 M -20381.2 1101.2 -20381.2 1438.8 M -20381.2 1424.9 -21500 1424.9 M -21500 1354.9 -20381.2 1354.9 M -20381.2 1284.9 -21500 1284.9 M -21500 1214.9 -20381.2 1214.9 M -20381.2 1144.9 -21500 1144.9 M -15583.6 1424.9 -9282.7 1424.9 M -9382.3 -185.1 -15595.1 -185.1 M -15706.6 -395.1 -9382.3 -395.1 M -8782.3 3314.9 -16425.6 3314.9 M -16597.7 3300 A 1000 1000 0 0 1 -15597.7 4300 M -15597.8 4294.9 -8342.8 4294.9 M -8380.3 4224.9 -15600.6 4224.9 M -15608.3 4154.9 -8417.7 4154.9 M -8521.3 3944.9 -15662.9 3944.9 M -15692.6 3874.9 -8550.3 3874.9 M -8579.3 3804.9 -15728.9 3804.9 M -15772.7 3734.9 -8608.3 3734.9 M -8637.3 3664.9 -15825.3 3664.9 M -15888.6 3594.9 -8666.3 3594.9 M -8695.3 3524.9 -15965.9 3524.9 M -16063.1 3454.9 -8724.3 3454.9 M -8753.3 3384.9 -16194.5 3384.9 M -20235.5 1734.6 -20314.6 1655.5 M -20326.4 1634.9 -21500 1634.9 M -21500 1564.9 -20358.8 1564.9 M -20375 1525.8 -20332.2 1629.2 M -20265.2 1704.9 -21500 1704.9 M -21500 1774.9 -20154.3 1774.9 M -20105.8 1795 -20209.2 1752.2 M -20018.8 1801.2 -16541.9 1801.2 M -15599.9 4854.9 -8040.1 4854.9 M -8046.8 4844.9 -7555.5 5580.2 M -7572.4 5554.9 -15768.1 5554.9 M -15725.4 5484.9 -7619.1 5484.9 M -7665.9 5414.9 -15690.1 5414.9 M -15661.4 5344.9 -7712.7 5344.9 M -7759.5 5274.9 -15638.5 5274.9 M -15621.2 5204.9 -7806.2 5204.9 M -7853 5134.9 -15609.1 5134.9 M -15602.1 5064.9 -7899.8 5064.9 M -7946.5 4994.9 -15600 4994.9 M -15599.9 4924.9 -7993.3 4924.9 M -7533.1 5610.3 -6972.2 6293.9 M -6873.7 6394.9 -19796.2 6394.9 M -19844.8 6464.9 -6803.7 6464.9 M -6733.7 6534.9 -19885.3 6534.9 M -19918.6 6604.9 -6663.7 6604.9 M -6593.7 6674.9 -19945.7 6674.9 M -19966.9 6744.9 -6523.7 6744.9 M -6453.7 6814.9 -19982.7 6814.9 M -16377.5 5974.9 -7233.9 5974.9 M -7291.4 5904.9 -16174.4 5904.9 M -16049.6 5834.9 -7348.8 5834.9 M -7406.3 5764.9 -15955.9 5764.9 M -15880.9 5694.9 -7463.7 5694.9 M -7521.2 5624.9 -15819.3 5624.9 M -20381.1 1494.9 -21500 1494.9 M -18500 -2931.2 -17800 -2931.2 M -20000 9334.9 -942.5 9334.9 M 8802.9 -3265.1 14640.3 -3265.1 M 14624.6 -3335.1 8773.9 -3335.1 M 8745 -3405.1 14608.4 -3405.1 M 14591.9 -3475.1 8716 -3475.1 M 8687 -3545.1 14575.1 -3545.1 M 14557.9 -3615.1 8658 -3615.1 M 8629 -3685.1 14540.3 -3685.1 M 14522.4 -3755.1 8600 -3755.1 M 8571 -3825.1 14504.1 -3825.1" fill="none" stroke-width="250"/></g></svg>