<svg version="1.1" xmlns="http://www.w3.org/2000/svg" xmlns:xlink="http://www.w3.org/1999/xlink" stroke-linecap="round" stroke-linejoin="round" stroke-width="0" fill-rule="evenodd" width="28.0000001mm" height="25mm" viewBox="-14000 -12500 28000.0001 25000" id="ILSVSvV83MovXWdSR7EL"><g transform="translate(0,0) scale(1,-1)" fill="currentColor" stroke="currentColor"><path d="M -8580 -1270 A 120 120 0 0 1 -8820 -1270 120 120 0 0 1 -8580 -1270 M -8580 0 A 120 120 0 0 1 -8820 0 120 120 0 0 1 -8580 0 M -8580 1270 A 120 120 0 0 1 -8820 1270 120 120 0 0 1 -8580 1270 M 8820 0 A 120 120 0 0 1 8580 0 120 120 0 0 1 8820 0 M 8820 -1270 A 120 120 0 0 1 8580 -1270 120 120 0 0 1 8820 -1270 M 8820 1270 A 120 120 0 0 1 8580 1270 120 120 0 0 1 8820 1270 M -11760.5 -11775 11760.5 -11775 M 11828.4 -11705 -11828.4 -11705 M -11891.2 -11635 11891.2 -11635 M 11949.5 -11565 10313.8 -11565 M 10457.8 -11536.4 10165.1 -11594.6 M 10149.2 -11596.2 9850.8 -11596.2 M 9835 -11594.6 9542.3 -11536.4 M 9527 -11531.8 9251.3 -11417.6 M 9237.3 -11410.1 8989.2 -11244.3 M 8976.9 -11234.2 8765.8 -11023.2 M 8755.7 -11010.8 8589.9 -10762.7 M 8582.4 -10748.7 8468.2 -10473 M 8463.6 -10457.7 8405.4 -10165 -8405.4 -10165 -8463.6 -10457.7 M -8461.1 -10445 8461.1 -10445 M 8447.2 -10375 -8447.1 -10375 M -8433.2 -10305 8433.2 -10305 M 8485.7 -10515 -8485.6 -10515 M -8468.2 -10473 -8582.4 -10748.7 M -8589.9 -10762.7 -8755.7 -11010.8 M -8751.8 -11005 8751.9 -11005 M 8705.1 -10935 -8705 -10935 M -8658.3 -10865 8658.3 -10865 M 8611.5 -10795 -8611.5 -10795 M -8572.6 -10725 8572.6 -10725 M 8543.6 -10655 -8543.6 -10655 M -8514.6 -10585 8514.7 -10585 M 8817.7 -11075 -8817.7 -11075 M -8765.8 -11023.2 -8976.8 -11234.2 M -8989.1 -11244.3 -9237.3 -11410.1 M -9251.3 -11417.6 -9527 -11531.8 M -9542.2 -11536.4 -9834.9 -11594.6 M -9850.8 -11596.2 -10149.2 -11596.2 M -10165 -11594.6 -10457.7 -11536.4 M -10473 -11531.8 -10748.7 -11417.6 M -10762.7 -11410.1 -11010.8 -11244.3 M -11023.1 -11234.2 -11234.2 -11023.2 M -11244.3 -11010.8 -11410.1 -10762.7 M -11417.6 -10748.7 -11531.8 -10473 M -11536.4 -10457.7 -11594.6 -10165 -12494.5 -10165 M -12498.2 -10095 -11596.2 -10095 M -11596.2 -10149.2 -11596.2 -10000 -11596.2 -9850.8 M -11594.6 -9834.9 -11536.4 -9542.2 M -11531.8 -9535 -12500 -9535 M -12500 -9605 -11548.9 -9605 M -11562.8 -9675 -12500 -9675 M -12500 -9745 -11576.7 -9745 M -11590.6 -9815 -12500 -9815 M -12500 -9885 -11596.2 -9885 M -11596.2 -9955 -12500 -9955 M -12500 -10000 -12500 -6994.5 A 1000 1000 0 0 0 -11500 -6000 L -9100 -6000 A 1000 1000 0 0 1 -8100 -5000 L -8099.6 -4300 A 1000 1000 0 0 1 -9099.6 -3300 M -12500 -7015 12500 -7015 M 12500 -7000 12500 -10000 A 2500 2500 0 0 0 10000 -12500 L -10000 -12500 A 2500 2500 0 0 0 -12500 -10000 M 12499.9 -10025 11596.2 -10025 M 11596.2 -10000 11596.2 -9850.8 M 11594.7 -9834.9 11536.4 -9542.2 M 11531.8 -9535 12500 -9535 M 12500 -9465 11506.1 -9465 M 11531.8 -9527 11417.6 -9251.3 M 11419.1 -9255 12500 -9255 M 12500 -9325 11448.1 -9325 M 11477.1 -9395 12500 -9395 M 12500 -9185 11375.2 -9185 M 11410.1 -9237.3 11244.3 -8989.1 M 11234.2 -8976.8 11023.2 -8765.8 M 11021.3 -8765 12500 -8765 M 12500 -8835 11092.4 -8835 M 11162.4 -8905 12500 -8905 M 12500 -8975 11232.4 -8975 M 11281.6 -9045 12500 -9045 M 12500 -9115 11328.4 -9115 M 11010.9 -8755.7 10762.7 -8589.9 M 10748.7 -8582.4 10473 -8468.2 M 10457.8 -8463.6 10165.1 -8405.4 M 10149.2 -8403.8 9850.8 -8403.8 M 9835 -8405.4 9542.3 -8463.6 M 9527 -8468.2 9251.3 -8582.4 M 9237.3 -8589.9 8989.2 -8755.7 M 8978.7 -8765 -8978.7 -8765 M -8976.8 -8765.8 -8765.8 -8976.8 M -8767.6 -8975 8767.6 -8975 M 8765.8 -8976.8 8976.9 -8765.8 M 8907.6 -8835 -8907.6 -8835 M -8837.6 -8905 8837.6 -8905 M 8755.7 -8989.1 8589.9 -9237.3 M 8582.4 -9251.3 8468.2 -9527 M 8468.2 -9535 -8468.2 -9535 M -8468.2 -9527 -8582.4 -9251.3 M -8580.9 -9255 8580.9 -9255 M 8551.9 -9325 -8551.9 -9325 M -8522.9 -9395 8522.9 -9395 M 8493.9 -9465 -8493.9 -9465 M -8463.6 -9542.2 -8405.4 -9834.9 M -8403.8 -9850.8 -8403.8 -10000 -8403.8 -10149.2 M -8403.8 -10095 8403.8 -10095 M 8403.8 -10149.2 8403.8 -10000 8403.8 -9850.8 M 8405.4 -9834.9 8463.6 -9542.2 M 8451.1 -9605 -8451.1 -9605 M -8437.2 -9675 8437.2 -9675 M 8423.3 -9745 -8423.2 -9745 M -8409.3 -9815 8409.4 -9815 M 8403.8 -9885 -8403.8 -9885 M -8403.8 -9955 8403.8 -9955 M 8403.8 -10025 -8403.8 -10025 M -8419.3 -10235 8419.3 -10235 M 8624.8 -9185 -8624.8 -9185 M -8589.9 -9237.3 -8755.7 -8989.1 M -8718.4 -9045 8718.4 -9045 M 8671.6 -9115 -8671.6 -9115 M -8989.1 -8755.7 -9237.3 -8589.9 M -9251.3 -8582.4 -9527 -8468.2 M -9542.2 -8463.6 -9834.9 -8405.4 M -9850.8 -8403.8 -10149.2 -8403.8 M -10165 -8405.4 -10457.7 -8463.6 M -10473 -8468.2 -10748.7 -8582.4 M -10762.7 -8589.9 -11010.8 -8755.7 M -11021.3 -8765 -12500 -8765 M -12500 -8835 -11092.4 -8835 M -11023.1 -8765.8 -11234.2 -8976.8 M -11232.4 -8975 -12500 -8975 M -12500 -9045 -11281.6 -9045 M -11244.3 -8989.1 -11410.1 -9237.3 M -11417.6 -9251.3 -11531.8 -9527 M -11506.1 -9465 -12500 -9465 M -12500 -9395 -11477.1 -9395 M -11448.1 -9325 -12500 -9325 M -12500 -9255 -11419.1 -9255 M -11375.2 -9185 -12500 -9185 M -12500 -9115 -11328.4 -9115 M -11162.4 -8905 -12500 -8905 M -12500 -8695 -10920 -8695 M -10815.3 -8625 -12500 -8625 M -12500 -8555 -10682.6 -8555 M -10513.6 -8485 -12500 -8485 M -12500 -8415 -10213.6 -8415 M -9786.3 -8415 9786.4 -8415 M 9486.4 -8485 -9486.4 -8485 M -9317.4 -8555 9317.4 -8555 M 9184.7 -8625 -9184.7 -8625 M -9079.9 -8695 9080 -8695 M 10213.7 -8415 12500 -8415 M 12500 -8345 -12500 -8345 M -12500 -8275 12500 -8275 M 12500 -8205 -12500 -8205 M -12500 -8135 12500 -8135 M 12500 -8065 -12500 -8065 M -12500 -7995 12500 -7995 M 12500 -7925 -12500 -7925 M -12500 -7855 12500 -7855 M 12500 -7785 -12500 -7785 M -12500 -7715 12500 -7715 M 12500 -7645 -12500 -7645 M -12500 -7575 12500 -7575 M 12500 -7505 -12500 -7505 M -12500 -7435 12500 -7435 M 12500 -7365 -12500 -7365 M -12500 -7295 12500 -7295 M 12500 -7225 -12500 -7225 M -12500 -7155 12500 -7155 M 12500 -7085 -12500 -7085 M -12498.5 -6945 12498.5 -6945 M 12500 -7000 A 1000 1000 0 0 1 11500 -6000 L 9100 -6000 A 1000 1000 0 0 0 8100 -5000 L 8099.6 -4300 A 1000 1000 0 0 0 9099.6 -3300 M 8837.9 -5965 -8837.9 -5965 M -8654 -5895 8654 -5895 M 8534.9 -5825 -8534.9 -5825 M -8444.3 -5755 8444.3 -5755 M 8371.5 -5685 -8371.5 -5685 M -8311.5 -5615 8311.5 -5615 M 8261.6 -5545 -8261.6 -5545 M -8220 -5475 8220 -5475 M 8185.7 -5405 -8185.7 -5405 M -8157.8 -5335 8157.8 -5335 M 8135.8 -5265 -8135.8 -5265 M -8119.2 -5195 8119.2 -5195 M 8107.9 -5125 -8107.9 -5125 M -9100 -3300 -13200.4 -3300 A 800 800 0 0 0 -14000 -2500 L -14000 2500 A 800 800 0 0 0 -13200 3300 L -9100 3300 M -13515.8 -3235 13515.7 -3235 M 13644.6 -3165.1 -13644.7 -3165.1 M -13734.7 -3095.1 13734.7 -3095.1 M 13803.6 -3025 -13803.6 -3025 M -13858 -2955 13858 -2955 M 13901.2 -2885.1 11197.2 -2885.1 M 11229.3 -2871.7 11100.7 -2925 M 11000 -2931.2 10300 -2931.2 M 10300 -2068.8 11000 -2068.8 M 11100.7 -2075 11229.3 -2128.3 M 11255.7 -2145.9 11354.1 -2244.3 M 11358.6 -2255 14000 -2255 M 14000 -2185.1 11294.8 -2185.1 M 11371.7 -2270.7 11425 -2399.3 M 11423.3 -2395.1 14000 -2395.1 M 14000 -2465 11431.2 -2465 M 11431.2 -2430.4 11431.2 -2569.6 M 11431.2 -2535 13999.2 -2535 M 14000 -2500 14000 2500 A 800 800 0 0 1 13200 3300 L 9100 3300 M 8097.7 4300 A 1000 1000 0 0 1 9097.7 3300 M 8801.3 3344.9 -8801.3 3344.9 M -8632.2 3414.9 8632.2 3414.9 M 8518.4 3484.9 -8518.4 3484.9 M -8430.7 3554.9 8430.7 3554.9 M 8360 3624.9 -8360 3624.9 M -8301.6 3694.9 8301.6 3694.9 M 8252.9 3764.9 -8252.9 3764.9 M -8212.5 3834.9 8212.5 3834.9 M 8179.1 3904.9 -8179.1 3904.9 M -8152.1 3974.9 8152.1 3974.9 M 8130.8 4044.9 -8130.8 4044.9 M -8115 4114.9 8115 4114.9 M 8104.4 4184.9 -8104.4 4184.9 M -8098.8 4254.9 8098.8 4254.9 M 8099.6 4300 8100 5000 A 1000 1000 0 0 0 9100 6000 L 11500 6000 A 1000 1000 0 0 1 12500 7000 L 12500 10000 A 2500 2500 0 0 1 10000 12500 L -5250 12500 A 250 250 0 0 1 -5500 12250 L -5500 12000 A 1000 1000 0 0 0 -7500 12000 L -7500 12250 A 250 250 0 0 1 -7750 12500 L -10000 12500 A 2500 2500 0 0 1 -12500 10000 L -12500 7000 A 1000 1000 0 0 1 -11500 6000 L -9100 6000 A 1000 1000 0 0 0 -8100 5000 L -8099.6 4300 M 8100.3 5024.9 -8100.3 5024.9 M -11599.2 6004.9 11599.2 6004.9 M -5500 12024.9 11466.2 12024.9 M 11558.3 11954.9 -5501 11954.9 M -5506.6 11884.9 11642.3 11884.9 M 11719.3 11814.9 -5517.3 11814.9 M -5533.1 11744.9 11790.3 11744.9 M 11856 11674.9 -5554.3 11674.9 M -5581.4 11604.9 11916.8 11604.9 M 11973.3 11534.9 10460 11534.9 M 10457.8 11536.4 10165.1 11594.6 M 10149.2 11596.2 9850.8 11596.2 M 9835 11594.6 9542.3 11536.4 M 9540 11534.9 -5614.7 11534.9 M -5655.2 11464.9 9365.6 11464.9 M 9251.3 11417.6 9527 11531.8 M 9237.3 11410.1 8989.2 11244.3 M 8976.9 11234.2 8765.8 11023.2 M 8755.7 11010.9 8589.9 10762.7 M 8591.4 10764.9 -8591.4 10764.9 M -8589.9 10762.7 -8755.7 11010.9 M -8765.8 11023.2 -8976.8 11234.2 M -8989.1 11244.3 -9237.3 11410.1 M -9251.3 11417.6 -9527 11531.8 M -9540 11534.9 -7385.3 11534.9 M -7418.6 11604.9 -11916.8 11604.9 M -11973.3 11534.9 -10460 11534.9 M -10457.7 11536.4 -10165 11594.6 M -10149.2 11596.2 -9850.8 11596.2 M -9834.9 11594.6 -9542.2 11536.4 M -9365.6 11464.9 -7344.8 11464.9 M -7296.2 11394.9 -9214.6 11394.9 M -9109.8 11324.9 -7237.7 11324.9 M -7167 11254.9 -9005 11254.9 M -8927.6 11184.9 -7079.3 11184.9 M -6965.4 11114.9 -8857.5 11114.9 M -8787.5 11044.9 -6796.3 11044.9 M -6203.7 11044.9 8787.6 11044.9 M 8731.7 10974.9 -8731.7 10974.9 M -8684.9 10904.9 8684.9 10904.9 M 8638.2 10834.9 -8638.1 10834.9 M -8582.4 10748.7 -8468.2 10473 M -8473.1 10484.9 8473.2 10484.9 M 8468.2 10473 8582.4 10748.7 M 8560.2 10694.9 -8560.1 10694.9 M -8531.1 10624.9 8531.2 10624.9 M 8502.2 10554.9 -8502.1 10554.9 M -7445.7 11674.9 -11856 11674.9 M -11790.3 11744.9 -7466.9 11744.9 M -7482.7 11814.9 -11719.3 11814.9 M -11642.3 11884.9 -7493.4 11884.9 M -7499 11954.9 -11558.3 11954.9 M -11466.2 12024.9 -7500 12024.9 M -12499.9 6984.9 12499.9 6984.9 M 12500 7054.9 -12500 7054.9 M -12500 7124.9 12500 7124.9 M 12500 7194.9 -12500 7194.9 M -12500 7264.9 12500 7264.9 M 12500 7334.9 -12500 7334.9 M -12500 7404.9 12500 7404.9 M 12500 7474.9 -12500 7474.9 M -12500 7544.9 12500 7544.9 M 12500 7614.9 -12500 7614.9 M -12500 7684.9 12500 7684.9 M 12500 7754.9 -12500 7754.9 M -12500 7824.9 12500 7824.9 M 12500 7894.9 -12500 7894.9 M -12500 7964.9 12500 7964.9 M 12500 8034.9 -12500 8034.9 M -12500 8104.9 12500 8104.9 M 12500 8174.9 -12500 8174.9 M -12500 8244.9 12500 8244.9 M 12500 8314.9 -12500 8314.9 M -12500 8384.9 12500 8384.9 M 12500 8454.9 10414.2 8454.9 M 10457.8 8463.6 10165.1 8405.4 M 10149.2 8403.8 9850.8 8403.8 M 9835 8405.4 9542.3 8463.6 M 9527 8468.2 9251.3 8582.4 M 9237.3 8589.9 8989.2 8755.7 M 8976.9 8765.8 8765.8 8976.8 M 8755.7 8989.2 8589.9 9237.3 M 8598.2 9224.9 -8598.2 9224.9 M -8589.9 9237.3 -8755.7 8989.2 M -8765.8 8976.8 -8976.8 8765.8 M -8989.1 8755.7 -9237.3 8589.9 M -9229.8 8594.9 9229.8 8594.9 M 9125 8664.9 -9125 8664.9 M -9020.3 8734.9 9020.3 8734.9 M 8937.8 8804.9 -8937.7 8804.9 M -8867.7 8874.9 8867.8 8874.9 M 8797.8 8944.9 -8797.7 8944.9 M -8738.5 9014.9 8738.5 9014.9 M 8691.7 9084.9 -8691.7 9084.9 M -8644.9 9154.9 8645 9154.9 M 8582.4 9251.3 8468.2 9527 M 8463.6 9542.3 8405.4 9835 M 8403.8 9850.8 8403.8 10000 8403.8 10149.2 M 8403.8 10134.9 -8403.8 10134.9 M -8403.8 10149.2 -8403.8 10000 -8403.8 9850.8 M -8403.8 9854.9 8403.8 9854.9 M 8403.8 9924.9 -8403.8 9924.9 M -8403.8 9994.9 8403.8 9994.9 M 8403.8 10064.9 -8403.8 10064.9 M -8405.4 10165.1 -8463.6 10457.8 M -8455.1 10414.9 8455.1 10414.9 M 8463.6 10457.8 8405.4 10165.1 M 8413.3 10204.9 -8413.3 10204.9 M -8427.2 10274.9 8427.3 10274.9 M 8441.2 10344.9 -8441.1 10344.9 M -8405.4 9835 -8463.6 9542.3 M -8468.2 9527 -8582.4 9251.3 M -8564.3 9294.9 8564.4 9294.9 M 8535.4 9364.9 -8535.3 9364.9 M -8506.3 9434.9 8506.4 9434.9 M 8477.4 9504.9 -8477.4 9504.9 M -8457.1 9574.9 8457.1 9574.9 M 8443.2 9644.9 -8443.2 9644.9 M -8429.2 9714.9 8429.3 9714.9 M 8415.3 9784.9 -8415.3 9784.9 M -9251.3 8582.4 -9527 8468.2 M -9542.2 8463.6 -9834.9 8405.4 M -9850.8 8403.8 -10149.2 8403.8 M -10165 8405.4 -10457.7 8463.6 M -10473 8468.2 -10748.7 8582.4 M -10762.7 8589.9 -11010.8 8755.7 M -11023.1 8765.8 -11234.2 8976.8 M -11244.3 8989.2 -11410.1 9237.3 M -11401.8 9224.9 -12500 9224.9 M -12500 9294.9 -11435.6 9294.9 M -11417.6 9251.3 -11531.8 9527 M -11536.4 9542.3 -11594.6 9835 M -11596.2 9850.8 -11596.2 10000 -11596.2 10149.2 M -11596.2 10134.9 -12496.4 10134.9 M -12499.2 10064.9 -11596.2 10064.9 M -11596.2 9994.9 -12500 9994.9 M -12500 9924.9 -11596.2 9924.9 M -11596.2 9854.9 -12500 9854.9 M -12500 9784.9 -11584.7 9784.9 M -11570.7 9714.9 -12500 9714.9 M -12500 9644.9 -11556.8 9644.9 M -11542.9 9574.9 -12500 9574.9 M -12500 9504.9 -11522.6 9504.9 M -11493.6 9434.9 -12500 9434.9 M -12500 9364.9 -11464.6 9364.9 M -11355 9154.9 -12500 9154.9 M -12500 9084.9 -11308.3 9084.9 M -11261.5 9014.9 -12500 9014.9 M -12500 8944.9 -11202.2 8944.9 M -11132.2 8874.9 -12500 8874.9 M -12500 8804.9 -11062.2 8804.9 M -10979.7 8734.9 -12500 8734.9 M -12500 8664.9 -10875 8664.9 M -10770.2 8594.9 -12500 8594.9 M -12500 8524.9 -10609.8 8524.9 M -12500 8454.9 -10414.1 8454.9 M -9585.8 8454.9 9585.9 8454.9 M 9390.2 8524.9 -9390.1 8524.9 M -8745.2 5934.9 8745.2 5934.9 M 8598.1 5864.9 -8598.1 5864.9 M -8493.3 5794.9 8493.3 5794.9 M 8411.2 5724.9 -8411.2 5724.9 M -8344.3 5654.9 8344.3 5654.9 M 8288.9 5584.9 -8288.9 5584.9 M -8242.8 5514.9 8242.8 5514.9 M 8204.4 5444.9 -8204.4 5444.9 M -8172.9 5374.9 8172.9 5374.9 M 8147.6 5304.9 -8147.6 5304.9 M -8128 5234.9 8128 5234.9 M 8113.7 5164.9 -8113.7 5164.9 M -8104.5 5094.9 8104.5 5094.9 M 8100 4954.9 -8100 4954.9 M -9097.7 3300 A 1000 1000 0 0 1 -8097.7 4300 M -8099.6 4324.9 8099.6 4324.9 M 8099.6 4394.9 -8099.6 4394.9 M -8099.7 4464.9 8099.7 4464.9 M 8099.7 4534.9 -8099.7 4534.9 M -8099.7 4604.9 8099.7 4604.9 M 8099.8 4674.9 -8099.8 4674.9 M -8099.8 4744.9 8099.8 4744.9 M 8099.9 4814.9 -8099.9 4814.9 M -8099.9 4884.9 8099.9 4884.9 M 8296 1765.4 8161.4 1614.3 M 8151.6 1594.9 -8151.6 1594.9 M -8146.2 1589.2 -8074.1 1400.1 M -8074.5 1384.9 8074.5 1384.9 M 8074.1 1400.1 8146.2 1589.2 M 8121.7 1524.9 -8121.7 1524.9 M -8095 1454.9 8095 1454.9 M 8068.8 1371.2 8068.8 1168.8 M 8068.8 1174.9 -8068.8 1174.9 M -8068.8 1168.8 -8068.8 1371.2 M -8068.8 1314.9 8068.8 1314.9 M 8068.8 1244.9 -8068.8 1244.9 M -8074.1 1139.9 -8146.2 950.8 M -8140.8 964.9 8140.8 964.9 M 8146.2 950.8 8074.1 1139.9 M 8087.5 1104.9 -8087.5 1104.9 M -8114.1 1034.9 8114.1 1034.9 M 8161.4 925.7 8296 774.6 M 8319.2 756.5 8498.8 663.2 M 8526.9 654.6 8696.6 635 8526.9 615.4 M 8526.2 614.9 -8526.2 614.9 M -8526.9 615.4 -8696.6 635 -8526.9 654.6 M -8498.8 663.2 -8319.2 756.5 M -8322.3 754.9 8322.3 754.9 M 8251.2 824.9 -8251.2 824.9 M -8296 774.6 -8161.4 925.7 M -8188.8 894.9 8188.8 894.9 M 8457 684.9 -8457.1 684.9 M -8498.8 606.8 -8319.2 513.5 M -8296 495.4 -8161.4 344.3 M -8158.1 334.9 8158.1 334.9 M 8161.4 344.3 8296 495.4 M 8277.8 474.9 -8277.8 474.9 M -8215.4 404.9 8215.4 404.9 M 8146.2 319.2 8074.1 130.1 M 8074.3 124.9 -8074.3 124.9 M -8074.1 130.1 -8146.2 319.2 M -8125.5 264.9 8125.5 264.9 M 8098.8 194.9 -8098.8 194.9 M -8379.8 544.9 8379.8 544.9 M 8319.2 513.5 8498.8 606.8 M 8763.8 635 8953.4 586.9 M 8953.4 683.1 8763.8 635 M 8842.8 614.9 14000 614.9 M 14000 684.9 8955.8 684.9 M 9041.9 738.8 13018.8 738.8 M 13105.8 745 13209.2 787.8 M 13235.5 805.4 13314.6 884.5 M 13318.9 894.9 14000 894.9 M 14000 824.9 13255 824.9 M 13332.2 910.8 13375 1014.2 M 13376.9 1034.9 14000 1034.9 M 14000 1104.9 13381.2 1104.9 M 13381.2 1101.2 13381.2 1438.8 M 13381.2 1454.9 14000 1454.9 M 14000 1524.9 13375 1524.9 M 13375 1525.8 13332.2 1629.2 M 13314.6 1655.5 13235.5 1734.6 M 13234.7 1734.9 14000 1734.9 M 14000 1804.9 9036.5 1804.9 M 9041.9 1801.2 13018.8 1801.2 M 13105.8 1795 13209.2 1752.2 M 13305.2 1664.9 14000 1664.9 M 14000 1594.9 13346.4 1594.9 M 13381.2 1384.9 14000 1384.9 M 14000 1314.9 13381.2 1314.9 M 13381.2 1244.9 14000 1244.9 M 14000 1174.9 13381.2 1174.9 M 13354.6 964.9 14000 964.9 M 14000 754.9 13129.8 754.9 M 13105.8 525 13209.2 482.2 M 13216.4 474.9 14000 474.9 M 14000 544.9 9022.3 544.9 M 9041.9 531.2 13018.8 531.2 M 13235.5 464.6 13314.6 385.5 M 13295.2 404.9 14000 404.9 M 14000 334.9 13342.2 334.9 M 13332.2 359.2 13375 255.8 M 13371.2 264.9 14000 264.9 M 14000 194.9 13381.2 194.9 M 13381.2 168.8 13381.2 -168.8 M 13381.2 -155 14000 -155 M 14000 -225.1 13381.1 -225.1 M 13375 -255.8 13332.2 -359.2 M 13326.3 -365 14000 -365 M 14000 -435.1 13265 -435.1 M 13235.5 -464.6 13314.6 -385.5 M 13358.8 -295 14000 -295 M 14000 -505.1 13154 -505.1 M 13105.8 -525 13209.2 -482.2 M 13018.8 -531.2 9041.9 -531.2 M 8978.1 -575 14000 -575 M 14000 -645 8803.4 -645 M 8763.8 -635 8953.4 -683.1 M 9008.1 -715 14000 -715 M 14000 -785 12702.5 -785 M 12709.2 -787.8 12605.8 -745 M 12518.8 -738.8 9041.9 -738.8 M 8953.4 -586.9 8763.8 -635 M 8696.6 -635 8526.9 -654.6 M 8498.8 -663.2 8319.2 -756.5 M 8296 -774.6 8161.4 -925.7 M 8162 -925.1 -8162 -925.1 M -8161.4 -925.7 -8296 -774.6 M -8286.7 -785 8286.7 -785 M 8224.3 -855.1 -8224.3 -855.1 M -8146.2 -950.8 -8074.1 -1139.9 M -8076 -1135.1 8076 -1135.1 M 8074.1 -1139.9 8146.2 -950.8 M 8129.3 -995.1 -8129.3 -995.1 M -8102.6 -1065.1 8102.6 -1065.1 M 8068.8 -1168.8 8068.8 -1371.2 M 8068.8 -1345 -8068.8 -1345 M -8068.8 -1371.2 -8068.8 -1168.8 M -8068.8 -1205 8068.8 -1205 M 8068.8 -1275.1 -8068.8 -1275.1 M -8074.1 -1400.1 -8146.2 -1589.2 M -8161.4 -1614.3 -8296 -1765.4 M -8295.7 -1765.1 8295.7 -1765.1 M 8296 -1765.4 8161.4 -1614.3 M 8171 -1625 -8171 -1625 M -8133.2 -1555.1 8133.2 -1555.1 M 8146.2 -1589.2 8074.1 -1400.1 M 8079.8 -1415.1 -8079.8 -1415.1 M -8106.5 -1485 8106.5 -1485 M 8233.3 -1695.1 -8233.3 -1695.1 M -8319.2 -1783.5 -8498.8 -1876.8 M -8526.9 -1885.4 -8727.9 -1908.6 M -8757.2 -1906.7 -8953.4 -1856.9 M -8993.7 -1835 -14000 -1835 M -14000 -1765.1 -13178.1 -1765.1 M -13209.2 -1752.2 -13105.8 -1795 M -13018.8 -1801.2 -9041.9 -1801.2 M -8763.6 -1905.1 -14000 -1905.1 M -14000 -1975 14000 -1975 M 14000 -2045 -14000 -2045 M -14000 -2115.1 -11197.4 -2115.1 M -11229.3 -2128.3 -11100.7 -2075 M -11000 -2068.8 -10300 -2068.8 M -10199.3 -2075 -10070.7 -2128.3 M -10044.3 -2145.9 -9945.9 -2244.3 M -9941.5 -2255 9941.5 -2255 M 9945.9 -2244.3 10044.3 -2145.9 M 10070.7 -2128.3 10199.3 -2075 M 10102.6 -2115.1 -10102.6 -2115.1 M -10005.2 -2185.1 10005.2 -2185.1 M 9928.3 -2270.7 9875 -2399.3 M 9876.8 -2395.1 -9876.8 -2395.1 M -9875 -2399.3 -9928.3 -2270.7 M -9905.8 -2325.1 9905.8 -2325.1 M 9868.8 -2430.4 9868.8 -2569.6 M 9868.8 -2535 -9868.8 -2535 M -9868.8 -2569.6 -9868.8 -2430.4 M -9868.8 -2465 9868.8 -2465 M 9875 -2600.7 9928.3 -2729.3 M 9941.5 -2745 -9941.5 -2745 M -9945.9 -2755.7 -10044.3 -2854.1 M -10070.7 -2871.7 -10199.3 -2925 M -10300 -2931.2 -11000 -2931.2 M -11100.7 -2925 -11229.3 -2871.7 M -11255.7 -2854.1 -11354.1 -2755.7 M -11358.5 -2745 -13961.6 -2745 M -13980.6 -2675.1 -11394.2 -2675.1 M -11371.7 -2729.3 -11425 -2600.7 M -11423.2 -2605.1 -13993.1 -2605.1 M -13999.3 -2535 -11431.2 -2535 M -11431.2 -2569.6 -11431.2 -2430.4 M -11431.2 -2465 -14000 -2465 M -14000 2504.9 -11431.2 2504.9 M -11431.2 2569.6 -11431.2 2430.4 M -11431.2 2434.9 -14000 2434.9 M -14000 2364.9 -11410.8 2364.9 M -11425 2399.3 -11371.7 2270.7 M -11381.8 2294.9 -14000 2294.9 M -14000 2224.9 -11334.7 2224.9 M -11354.1 2244.3 -11255.7 2145.9 M -11264.7 2154.9 -14000 2154.9 M -14000 2084.9 -11124.7 2084.9 M -11100.7 2075 -11229.3 2128.3 M -11000 2068.8 -10300 2068.8 M -10199.3 2075 -10070.7 2128.3 M -10044.3 2145.9 -9945.9 2244.3 M -9965.3 2224.9 9965.3 2224.9 M 9945.9 2244.3 10044.3 2145.9 M 10035.3 2154.9 -10035.3 2154.9 M -10175.3 2084.9 10175.3 2084.9 M 10199.3 2075 10070.7 2128.3 M 9928.3 2270.7 9875 2399.3 M 9868.8 2430.4 9868.8 2569.6 M 9871 2574.9 -9871 2574.9 M -9868.8 2569.6 -9868.8 2430.4 M -9868.8 2434.9 9868.8 2434.9 M 9868.8 2504.9 -9868.8 2504.9 M -9875 2600.7 -9928.3 2729.3 M -9922.3 2714.9 9922.3 2714.9 M 9928.3 2729.3 9875 2600.7 M 9893.3 2644.9 -9893.3 2644.9 M -9945.9 2755.7 -10044.3 2854.1 M -10046.3 2854.9 10046.3 2854.9 M 10044.3 2854.1 9945.9 2755.7 M 9975.2 2784.9 -9975.2 2784.9 M -10070.7 2871.7 -10199.3 2925 M -10199.2 2924.9 10199.2 2924.9 M 10199.3 2925 10070.7 2871.7 M 9889.2 2364.9 -9889.2 2364.9 M -9875 2399.3 -9928.3 2270.7 M -9918.3 2294.9 9918.3 2294.9 M 8953.4 1856.9 8757.2 1906.7 M 8727.9 1908.6 8526.9 1885.4 M 8498.8 1876.8 8319.2 1783.5 M 8360.6 1804.9 -8360.6 1804.9 M -8319.2 1783.5 -8498.8 1876.8 M -8495.3 1874.9 8495.3 1874.9 M 8268.9 1734.9 -8268.9 1734.9 M -8296 1765.4 -8161.4 1614.3 M -8206.5 1664.9 8206.5 1664.9 M 8882.2 1874.9 14000 1874.9 M 14000 1944.9 -14000 1944.9 M -14000 1874.9 -8882.2 1874.9 M -8953.4 1856.9 -8757.3 1906.7 M -8728 1908.6 -8526.9 1885.4 M -9036.5 1804.9 -14000 1804.9 M -14000 1734.9 -12734.7 1734.9 M -12735.5 1734.6 -12814.6 1655.5 M -12805.2 1664.9 -14000 1664.9 M -14000 1594.9 -12846.4 1594.9 M -12832.2 1629.2 -12875 1525.8 M -12875 1524.9 -14000 1524.9 M -14000 1454.9 -12881.2 1454.9 M -12881.2 1438.8 -12881.2 1101.2 M -12881.2 1104.9 -14000 1104.9 M -14000 1174.9 -12881.2 1174.9 M -12881.2 1244.9 -14000 1244.9 M -14000 1314.9 -12881.2 1314.9 M -12881.2 1384.9 -14000 1384.9 M -14000 1034.9 -12876.9 1034.9 M -12875 1014.2 -12832.2 910.8 M -12818.9 894.9 -14000 894.9 M -14000 824.9 -12755 824.9 M -12735.5 805.4 -12814.6 884.5 M -12854.6 964.9 -14000 964.9 M -14000 754.9 -12629.9 754.9 M -12605.8 745 -12709.2 787.8 M -12518.8 738.8 -9041.9 738.8 M -8955.8 684.9 -14000 684.9 M -14000 614.9 -8842.8 614.9 M -8763.8 635 -8953.4 586.9 M -8953.4 683.1 -8763.8 635 M -9022.3 544.9 -14000 544.9 M -14000 474.9 -13216.4 474.9 M -13209.2 482.2 -13105.8 525 M -13018.8 531.2 -9041.9 531.2 M -9041.9 1801.2 -12518.8 1801.2 M -12605.8 1795 -12709.2 1752.2 M -14000 2014.9 14000 2014.9 M 14000 2084.9 11124.7 2084.9 M 11100.7 2075 11229.3 2128.3 M 11255.7 2145.9 11354.1 2244.3 M 11334.7 2224.9 14000 2224.9 M 14000 2154.9 11264.7 2154.9 M 11371.7 2270.7 11425 2399.3 M 11431.2 2430.4 11431.2 2569.6 M 11429 2574.9 13996.5 2574.9 M 14000 2504.9 11431.2 2504.9 M 11431.2 2434.9 14000 2434.9 M 14000 2364.9 11410.8 2364.9 M 11381.8 2294.9 14000 2294.9 M 13986.8 2644.9 11406.7 2644.9 M 11425 2600.7 11371.7 2729.3 M 11377.7 2714.9 13970.6 2714.9 M 13947.5 2784.9 11324.9 2784.9 M 11354.1 2755.7 11255.7 2854.1 M 11253.7 2854.9 13917 2854.9 M 13877.8 2924.9 11100.9 2924.9 M 11100.7 2925 11229.3 2871.7 M 11000 2931.2 10300 2931.2 M 10300 2068.8 11000 2068.8 M 13398.6 3274.9 -13398.7 3274.9 M -10300 2931.2 -11000 2931.2 M -11100.7 2925 -11229.3 2871.7 M -11253.7 2854.9 -13917 2854.9 M -13947.5 2784.9 -11324.9 2784.9 M -11354.1 2755.7 -11255.7 2854.1 M -11100.9 2924.9 -13877.8 2924.9 M -13828.5 2994.9 13828.5 2994.9 M 13766.4 3064.9 -13766.4 3064.9 M -13686.7 3134.9 13686.7 3134.9 M 13578.2 3204.9 -13578.2 3204.9 M -13970.6 2714.9 -11377.7 2714.9 M -11371.7 2729.3 -11425 2600.7 M -11429 2574.9 -13996.5 2574.9 M -13986.8 2644.9 -11406.7 2644.9 M -13235.5 464.6 -13314.6 385.5 M -13295.2 404.9 -14000 404.9 M -14000 334.9 -13342.2 334.9 M -13332.2 359.2 -13375 255.8 M -13371.2 264.9 -14000 264.9 M -14000 194.9 -13381.2 194.9 M -13381.2 168.8 -13381.2 -168.8 M -13381.2 -155 -14000 -155 M -14000 -225.1 -13381.1 -225.1 M -13375 -255.8 -13332.2 -359.2 M -13326.3 -365 -14000 -365 M -14000 -295 -13358.8 -295 M -13314.6 -385.5 -13235.5 -464.6 M -13209.2 -482.2 -13105.8 -525 M -13154 -505.1 -14000 -505.1 M -14000 -435.1 -13265 -435.1 M -13018.8 -531.2 -9041.9 -531.2 M -8978.1 -575 -14000 -575 M -14000 -645 -8803.4 -645 M -8763.8 -635 -8953.4 -683.1 M -9008.1 -715 -14000 -715 M -14000 -785 -13202.5 -785 M -13209.2 -787.8 -13105.8 -745 M -13018.8 -738.8 -9041.9 -738.8 M -8953.4 -586.9 -8763.8 -635 M -8696.6 -635 -8526.9 -654.6 M -8498.8 -663.2 -8319.2 -756.5 M -8399.1 -715 8399.1 -715 M 8437.8 -575 -8437.8 -575 M -8498.8 -606.8 -8319.2 -513.5 M -8312.2 -505.1 8312.2 -505.1 M 8319.2 -513.5 8498.8 -606.8 M 8526.9 -615.4 8696.6 -635 M 8609.7 -645 -8609.7 -645 M -8696.6 -635 -8526.9 -615.4 M -8296 -495.4 -8161.4 -344.3 M -8179.9 -365 8179.9 -365 M 8161.4 -344.3 8296 -495.4 M 8242.3 -435.1 -8242.3 -435.1 M -8146.2 -319.2 -8074.1 -130.1 M -8068.8 -101.2 -8068.8 101.2 M -8068.8 54.9 8068.8 54.9 M 8068.8 101.2 8068.8 -101.2 M 8068.8 -85.1 -8068.8 -85.1 M -8068.8 -15 8068.8 -15 M 8074.1 -130.1 8146.2 -319.2 M 8137 -295 -8137 -295 M -8110.3 -225.1 8110.3 -225.1 M 8083.6 -155 -8083.6 -155 M -8418.5 -1835 8418.5 -1835 M 8498.8 -1876.8 8319.2 -1783.5 M 8526.9 -1885.4 8728 -1908.6 M 8757.3 -1906.7 8953.4 -1856.9 M 8993.7 -1835 14000 -1835 M 14000 -1905.1 8763.6 -1905.1 M 8697 -1905.1 -8697 -1905.1 M -8719.5 -3375.1 8719.5 -3375.1 M 8580.8 -3445.1 -8580.8 -3445.1 M -8480 -3515 8480 -3515 M 8400.4 -3585.1 -8400.4 -3585.1 M -8335.3 -3655.1 8335.3 -3655.1 M 8281.4 -3725 -8281.4 -3725 M -8236.4 -3795 8236.4 -3795 M 8199.1 -3865.1 -8199.1 -3865.1 M -8168.5 -3935.1 8168.5 -3935.1 M 8144 -4005.1 -8144 -4005.1 M -8125.2 -4075 8125.2 -4075 M 8111.6 -4145.1 -8111.6 -4145.1 M -8103.2 -4215.1 8103.2 -4215.1 M 8099.7 -4285 -8099.7 -4285 M -8099.6 -4355.1 8099.6 -4355.1 M 8100 -4985 -8100 -4985 M -8099.9 -4915 8099.9 -4915 M 8099.9 -4845 -8099.9 -4845 M -8099.9 -4775.1 8099.9 -4775.1 M 8099.8 -4705 -8099.8 -4705 M -8099.8 -4635 8099.8 -4635 M 8099.7 -4565.1 -8099.7 -4565.1 M -8099.7 -4495 8099.7 -4495 M 8099.6 -4425 -8099.6 -4425 M -8101.5 -5055 8101.5 -5055 M 8999.1 -3305 -8999.1 -3305 M -10005.3 -2815 10005.3 -2815 M 10044.3 -2854.1 9945.9 -2755.7 M 9905.8 -2675.1 -9905.8 -2675.1 M -9928.3 -2729.3 -9875 -2600.7 M -9876.8 -2605.1 9876.8 -2605.1 M 10070.7 -2871.7 10199.3 -2925 M 10102.9 -2885.1 -10102.9 -2885.1 M -11762.4 -6035 11762.4 -6035 M 11946.1 -6105 -11946.2 -6105 M -12065.2 -6175 12065.2 -6175 M 12155.8 -6245 -12155.8 -6245 M -12228.6 -6315 12228.6 -6315 M 12288.6 -6385 -12288.6 -6385 M -12338.5 -6455 12338.5 -6455 M 12380 -6525 -12380 -6525 M -12414.3 -6595 12414.3 -6595 M 12442.2 -6665 -12442.2 -6665 M -12464.3 -6735 12464.3 -6735 M 12480.8 -6805 -12480.8 -6805 M -12492.2 -6875 12492.2 -6875 M 12500 -8485 10513.6 -8485 M 10682.6 -8555 12500 -8555 M 12500 -8625 10815.3 -8625 M 10920.1 -8695 12500 -8695 M 12500 -9605 11548.9 -9605 M 11562.8 -9675 12500 -9675 M 12500 -9745 11576.8 -9745 M 11590.7 -9815 12500 -9815 M 12500 -9885 11596.2 -9885 M 11596.2 -9955 12500 -9955 M 12498.2 -10095 11596.2 -10095 M 11596.2 -10149.2 11596.2 -10000 M 11594.6 -10165 12494.5 -10165 M 12488.9 -10235 11580.7 -10235 M 11594.7 -10165 11536.4 -10457.7 M 11538.9 -10445 12460.1 -10445 M 12471.7 -10375 11552.9 -10375 M 11566.8 -10305 12481.3 -10305 M 12446.4 -10515 11514.4 -10515 M 11531.8 -10473 11417.6 -10748.7 M 11410.1 -10762.7 11244.3 -11010.8 M 11248.2 -11005 12289.1 -11005 M 12318.6 -10935 11295 -10935 M 11341.7 -10865 12345.6 -10865 M 12370.2 -10795 11388.5 -10795 M 11427.4 -10725 12392.6 -10725 M 12412.7 -10655 11456.4 -10655 M 11485.4 -10585 12430.6 -10585 M 12257.1 -11075 11182.3 -11075 M 11234.2 -11023.2 11023.2 -11234.2 M 11010.9 -11244.3 10762.7 -11410.1 M 10748.7 -11417.6 10473 -11531.8 M 10561.7 -11495 12003.7 -11495 M 12054.1 -11425 10730.7 -11425 M 10845.1 -11355 12100.9 -11355 M 12144.5 -11285 10949.9 -11285 M 11042.3 -11215 12184.9 -11215 M 12222.4 -11145 11112.3 -11145 M 11196.6 -12195 -11196.6 -12195 M -11316.9 -12125 11316.9 -12125 M 11423.7 -12055 -11423.7 -12055 M -11519.7 -11985 11519.7 -11985 M 11607.1 -11915 -11607.1 -11915 M -11687 -11845 11687 -11845 M 11058.1 -12265 -11058.1 -12265 M -10893.1 -12335 10893.1 -12335 M 10682.5 -12405 -10682.5 -12405 M -10730.7 -11425 -12054.1 -11425 M -12100.9 -11355 -10845.1 -11355 M -10949.8 -11285 -12144.5 -11285 M -12184.9 -11215 -11042.3 -11215 M -11112.3 -11145 -12222.4 -11145 M -12257 -11075 -11182.3 -11075 M -11248.1 -11005 -12289.1 -11005 M -12318.6 -10935 -11294.9 -10935 M -11341.7 -10865 -12345.6 -10865 M -12370.2 -10795 -11388.5 -10795 M -11427.4 -10725 -12392.6 -10725 M -12412.7 -10655 -11456.4 -10655 M -11485.3 -10585 -12430.6 -10585 M -12446.4 -10515 -11514.3 -10515 M -11538.9 -10445 -12460.1 -10445 M -12471.7 -10375 -11552.8 -10375 M -11566.8 -10305 -12481.3 -10305 M -12003.7 -11495 -10561.7 -11495 M -11949.5 -11565 -10313.8 -11565 M -9686.2 -11565 9686.2 -11565 M 9438.3 -11495 -9438.3 -11495 M -9269.3 -11425 9269.3 -11425 M 9154.9 -11355 -9154.9 -11355 M -9050.1 -11285 9050.2 -11285 M 8957.7 -11215 -8957.7 -11215 M -8887.7 -11145 8887.7 -11145 M -10352.4 -12475 10352.5 -12475 M 11255.7 -2854.1 11354.1 -2755.7 M 11358.5 -2745 13961.5 -2745 M 13980.6 -2675.1 11394.2 -2675.1 M 11371.7 -2729.3 11425 -2600.7 M 11423.2 -2605.1 13993.1 -2605.1 M 13200.4 -3300 A 800.0001 800.0001 0 0 1 14000 -2500 M 14000 -2325.1 11394.2 -2325.1 M 11197.4 -2115.1 14000 -2115.1 M 14000 -1765.1 12678.2 -1765.1 M 12709.2 -1752.2 12605.8 -1795 M 12518.8 -1801.2 9041.9 -1801.2 M 9100 -3300 13200.4 -3300 M 13935.4 -2815 11294.8 -2815 M 12735.5 -1734.6 12814.6 -1655.5 M 12832.2 -1629.2 12875 -1525.8 M 12862.9 -1555.1 14000 -1555.1 M 14000 -1485 12881.2 -1485 M 12881.2 -1438.8 12881.2 -1101.2 M 12881.2 -1135.1 14000 -1135.1 M 14000 -1205 12881.2 -1205 M 12881.2 -1275.1 14000 -1275.1 M 14000 -1345 12881.2 -1345 M 12881.2 -1415.1 14000 -1415.1 M 14000 -1625 12833.9 -1625 M 12775.1 -1695.1 14000 -1695.1 M 14000 -1065.1 12881.2 -1065.1 M 12875 -1014.2 12832.2 -910.8 M 12838.1 -925.1 14000 -925.1 M 14000 -995.1 12867.1 -995.1 M 12814.6 -884.5 12735.5 -805.4 M 12785.2 -855.1 14000 -855.1 M 14000 -85.1 13381.2 -85.1 M 13381.2 -15 14000 -15 M 14000 54.9 13381.2 54.9 M 13381.2 124.9 14000 124.9 M 12199.1 6284.9 -12199.1 6284.9 M -12264.1 6354.9 12264.1 6354.9 M 12318.1 6424.9 -12318.1 6424.9 M -12363.1 6494.9 12363.1 6494.9 M 12400.4 6564.9 -12400.4 6564.9 M -12431 6634.9 12431 6634.9 M 12455.5 6704.9 -12455.5 6704.9 M -12474.3 6774.9 12474.3 6774.9 M 12487.9 6844.9 -12487.9 6844.9 M -12496.4 6914.9 12496.4 6914.9 M 12119.4 6214.9 -12119.4 6214.9 M -12018.5 6144.9 12018.5 6144.9 M 11879.8 6074.9 -11879.8 6074.9 M -11594.6 10165.1 -11536.4 10457.8 M -11544.9 10414.9 -12465.3 10414.9 M -12476.1 10344.9 -11558.8 10344.9 M -11572.8 10274.9 -12484.8 10274.9 M -12491.6 10204.9 -11586.7 10204.9 M -13381.2 124.9 -14000 124.9 M -14000 54.9 -13381.2 54.9 M -13381.2 -15 -14000 -15 M -14000 -85.1 -13381.2 -85.1 M -13235.5 -805.4 -13314.6 -884.5 M -13332.2 -910.8 -13375 -1014.2 M -13367.1 -995.1 -14000 -995.1 M -14000 -1065.1 -13381.2 -1065.1 M -13381.2 -1101.2 -13381.2 -1438.8 M -13381.2 -1415.1 -14000 -1415.1 M -14000 -1345 -13381.2 -1345 M -13381.2 -1275.1 -14000 -1275.1 M -14000 -1205 -13381.2 -1205 M -13381.2 -1135.1 -14000 -1135.1 M -14000 -925.1 -13338.1 -925.1 M -13285.2 -855.1 -14000 -855.1 M -14000 -1485 -13381.2 -1485 M -13375 -1525.8 -13332.2 -1629.2 M -13333.9 -1625 -14000 -1625 M -14000 -1555.1 -13362.9 -1555.1 M -13314.6 -1655.5 -13235.5 -1734.6 M -13275.1 -1695.1 -14000 -1695.1 M -14000 -2185.1 -11294.9 -2185.1 M -11255.7 -2145.9 -11354.1 -2244.3 M -11358.6 -2255 -14000 -2255 M -14000 -2325.1 -11394.2 -2325.1 M -11371.7 -2270.7 -11425 -2399.3 M -11423.3 -2395.1 -14000 -2395.1 M -13935.4 -2815 -11294.8 -2815 M -11197.2 -2885.1 -13901.2 -2885.1 M -12499.9 -10025 -11596.2 -10025 M -11580.7 -10235 -12488.9 -10235 M 11023.2 8765.8 11234.2 8976.8 M 11244.3 8989.2 11410.1 9237.3 M 11401.8 9224.9 12500 9224.9 M 12500 9154.9 11355.1 9154.9 M 11308.3 9084.9 12500 9084.9 M 12500 9014.9 11261.5 9014.9 M 11202.3 8944.9 12500 8944.9 M 12500 8874.9 11132.3 8874.9 M 11062.3 8804.9 12500 8804.9 M 12500 8734.9 10979.7 8734.9 M 11010.9 8755.7 10762.7 8589.9 M 10770.2 8594.9 12500 8594.9 M 12500 8664.9 10875 8664.9 M 10748.7 8582.4 10473 8468.2 M 10609.9 8524.9 12500 8524.9 M 12500 9294.9 11435.7 9294.9 M 11417.6 9251.3 11531.8 9527 M 11536.4 9542.3 11594.7 9835 M 11596.2 9850.8 11596.2 10000 11596.2 10149.2 M 11596.2 10134.9 12496.4 10134.9 M 12499.2 10064.9 11596.2 10064.9 M 11596.2 9994.9 12500 9994.9 M 12500 9924.9 11596.2 9924.9 M 11596.2 9854.9 12500 9854.9 M 12500 9784.9 11584.7 9784.9 M 11570.8 9714.9 12500 9714.9 M 12500 9644.9 11556.9 9644.9 M 11542.9 9574.9 12500 9574.9 M 12500 9504.9 11522.6 9504.9 M 11493.7 9434.9 12500 9434.9 M 12500 9364.9 11464.7 9364.9 M 11594.7 10165.1 11536.4 10457.8 M 11544.9 10414.9 12465.3 10414.9 M 12476.1 10344.9 11558.9 10344.9 M 11572.8 10274.9 12484.8 10274.9 M 12491.6 10204.9 11586.7 10204.9 M 11531.8 10473 11417.6 10748.7 M 11410.1 10762.7 11244.3 11010.9 M 11234.2 11023.2 11023.2 11234.2 M 11010.9 11244.3 10762.7 11410.1 M 10748.7 11417.6 10473 11531.8 M 10634.4 11464.9 12025.8 11464.9 M 12074.6 11394.9 10785.4 11394.9 M 10890.2 11324.9 12120 11324.9 M 12162.2 11254.9 10995 11254.9 M 11072.4 11184.9 12201.4 11184.9 M 12237.6 11114.9 11142.5 11114.9 M 11212.5 11044.9 12271.1 11044.9 M 12302.1 10974.9 11268.3 10974.9 M 11315.1 10904.9 12330.5 10904.9 M 12356.5 10834.9 11361.9 10834.9 M 11408.6 10764.9 12380.1 10764.9 M 12401.5 10694.9 11439.9 10694.9 M 11468.9 10624.9 12420.6 10624.9 M 12437.6 10554.9 11497.9 10554.9 M 11526.9 10484.9 12452.5 10484.9 M 11364.3 12094.9 -5500 12094.9 M -5500 12164.9 11250.2 12164.9 M 11120.3 12234.9 -5500 12234.9 M -5493.9 12304.9 10968.2 12304.9 M 10780.9 12374.9 -5466.5 12374.9 M -5406.5 12444.9 10521.9 12444.9 M 9214.6 11394.9 -5703.8 11394.9 M -5762.3 11324.9 9109.8 11324.9 M 9005.1 11254.9 -5833 11254.9 M -5920.7 11184.9 8927.6 11184.9 M 8857.6 11114.9 -6034.6 11114.9 M -7500 12094.9 -11364.3 12094.9 M -11250.3 12164.9 -7500 12164.9 M -7500 12234.9 -11120.3 12234.9 M -10968.2 12304.9 -7506.1 12304.9 M -7533.5 12374.9 -10780.9 12374.9 M -10521.9 12444.9 -7593.5 12444.9 M -10473 11531.8 -10748.7 11417.6 M -10762.7 11410.1 -11010.8 11244.3 M -11023.1 11234.2 -11234.2 11023.2 M -11244.3 11010.9 -11410.1 10762.7 M -11408.6 10764.9 -12380.1 10764.9 M -12401.5 10694.9 -11439.8 10694.9 M -11417.6 10748.7 -11531.8 10473 M -11526.8 10484.9 -12452.5 10484.9 M -12437.6 10554.9 -11497.8 10554.9 M -11468.8 10624.9 -12420.6 10624.9 M -12356.5 10834.9 -11361.8 10834.9 M -11315.1 10904.9 -12330.5 10904.9 M -12302.1 10974.9 -11268.3 10974.9 M -11212.4 11044.9 -12271.1 11044.9 M -12237.6 11114.9 -11142.4 11114.9 M -11072.4 11184.9 -12201.4 11184.9 M -12162.2 11254.9 -10994.9 11254.9 M -10890.2 11324.9 -12120 11324.9 M -12074.7 11394.9 -10785.4 11394.9 M -10634.4 11464.9 -12025.8 11464.9" fill="none" stroke-width="250"/></g></svg>