M48
;Layer_Color=9474304
;FILE_FORMAT=2:5
INCH
;TYPE=PLATED
T1F00S00C0.01181
T2F00S00C0.03150
T3F00S00C0.03622
T4F00S00C0.03937
T5F00S00C0.04331
T6F00S00C0.04724
T7F00S00C0.09055
T8F00S00C0.23622
;TYPE=NON_PLATED
T9F00S00C0.04528
T10F00S00C0.10827
%
T01
X0204900Y0036600
X0243800Y0030300
X0243300Y0077000
X0150800Y0076100
X0124100Y0076800
X0097000Y0071000
X0094200Y0069400
X0092600Y0064400
X0095815Y0061585
X0098700Y0064400
X0101100Y0066800
X0101600Y0010800
X0159000Y0040300
X0009700Y0064300
X-0003300Y0176300
X0003700Y0192000
X-0001900Y0226800
X-0030400Y0151000
X0029500Y0147500
X0027400Y0179900
X0045866Y0188092
X0049154Y0192520
X0059900Y0177600
X0063600Y0156000
X0079000Y0154600
X0083900Y0154000
X0088300Y0156300
X0087000Y0168500
X0090300Y0168900
X0084500Y0170400
X0082500Y0164600
X0079000Y0144000
Y0139000
X0075100Y0137200
X0074500Y0133200
X0077891Y0133854
X0079000Y0131000
X0079100Y0128100
X0075600Y0129800
Y0125600
X0079703Y0122897
X0081500Y0113100
X0088900Y0119300
X0095100Y0123600
X0095200Y0135100
X0105500Y0135400
X0103200Y0146100
X0098000Y0146000
X0095000
X0089300Y0140100
X0073724Y0142267
X0064900Y0136400
X0063900Y0133500
X0066800Y0132600
Y0126684
X0066500Y0123600
X0071000Y0130000
X0071900Y0117600
X0074200Y0106400
X0069400Y0096500
X0088600Y0097000
X0098000
Y0092000
X0104200Y0097100
X0087400Y0087900
X0054100Y0085400
X0030300Y0099200
X0118800Y0110000
X0121000Y0116000
X0127500Y0118700
X0138900Y0118300
X0139500Y0133800
X0136400Y0133900
X0142900Y0136900
X0142500Y0142700
X0139800Y0140100
X0138700Y0144500
X0136700Y0146600
X0128900Y0144400
X0125500Y0145000
X0121200Y0139300
X0121000Y0130000
X0117100Y0130300
X0112500Y0129000
X0152700Y0140900
X0157400Y0144500
X0161100Y0144200
X0160100Y0165100
X0163000
X0153900Y0170600
X0155100Y0176700
X0156500Y0186700
X0149400Y0193600
X0146200Y0168900
X0147100Y0164100
X0143000Y0165500
X0142000Y0171000
X0139000
X0137000Y0168000
X0134000Y0167200
X0123819Y0175591
X0113681Y0182874
X0112992Y0196358
X0098100Y0191100
X0075600Y0190800
X0092900Y0221700
X0088300Y0230900
X0053000Y0228100
X0018800Y0223100
X0164800Y0228000
X0144095Y0152795
X0146900Y0096900
X0131500Y0093000
X0181000Y0091900
X0185200Y0092300
X0181300Y0085200
X0177100Y0085800
X0180400Y0103600
X0189300Y0108600
X0199100Y0103400
X0196500Y0116900
X0198100Y0139100
X0206700Y0146000
X0214173Y0143701
X0204000Y0167000
X0198031Y0177854
X0169400Y0191200
X0169800Y0218100
X0172700Y0227000
X0174000Y0230000
X0165923Y0231849
X0188800Y0226900
X0191000Y0222100
X0168100Y0161700
X0166200Y0149400
X0170900Y0137300
X0170600Y0126800
X0170500Y0116500
X0198900Y0082300
X0239200Y0127700
X0243100Y0183800
X0293400Y0230500
X0288100Y0257700
X0286900Y0309600
X0222500Y0307900
X0200000Y0305600
X0197000Y0308800
X0191300Y0307000
X0182000Y0297200
X0182800Y0287800
X0193400Y0288300
X0198031Y0287000
X0220600Y0265000
X0220700Y0259100
X0195400Y0242800
X0195200Y0235500
X0177100Y0240000
X0171000Y0242100
X0168100Y0246200
X0164600Y0278800
X0164400Y0285000
X0142600Y0284100
X0138189Y0288583
X0129874Y0287968
X0125347Y0289839
X0126035Y0277142
X0126942Y0273058
X0127000Y0266213
X0122991Y0263042
X0136319Y0263878
Y0257876
X0133000Y0251000
X0121500Y0248300
X0116900Y0237800
X0101100Y0235900
X0092000Y0234700
X0084500Y0240200
X0077200Y0234400
X0077500Y0255800
X0066000Y0256700
X0070800Y0262400
X0075600Y0272200
X0079900Y0281000
X0092000Y0277000
X0095000Y0275000
X0098000Y0273000
X0102000Y0280000
X0100500Y0289700
X0095000Y0286000
X0092000
X0087500Y0293000
X0076673Y0296752
X0064468Y0296555
X0061600Y0310800
X0072700Y0306100
X0075000Y0314000
X0087100Y0309500
X0104700Y0303900
X0112400Y0305400
X0100300Y0299000
X0130905Y0298819
X0149400Y0296000
X0150300Y0301500
X0153800Y0308500
X0147800Y0277700
X0060200Y0266700
X0055118Y0268406
X0049300Y0254700
X0056000Y0240100
X0064272Y0246752
X0035700Y0241800
X0032300Y0259200
X0016900Y0252700
X0024500Y0285000
X0047574Y0281594
X0025900Y0311000
X-0027500Y0309000
X-0000400Y0265000
T02
X0317331Y0240247
Y0259341
T03
X0021354Y0268331
X0031197
X0039071
X0048913
T04
X0032953Y0201693
Y0211693
X0042953
Y0201693
X0052953
Y0211693
X0062953
Y0201693
X0072953
Y0211693
X0082953
Y0201693
X0092953
Y0211693
X0102953
Y0201693
X0112953
Y0211693
X0122953
Y0201693
X0132953
Y0211693
X0142953
Y0201693
X0152953
Y0211693
X0162953
Y0201693
X0172953
Y0211693
X0182953
Y0201693
X0192953
Y0211693
X0202953
Y0201693
X0212953
Y0211693
X0222953
Y0201693
T05
X-0024685Y0166378
X-0014685
Y0176378
X-0024685
Y0186378
X-0014685
Y0196378
X-0024685
Y0206378
Y0216378
Y0226378
X-0014685
Y0216378
Y0206378
X0174803Y0278400
Y0288400
Y0298400
Y0308400
X0232011Y0247469
Y0237469
X-0014685Y0236378
Y0246378
Y0256378
Y0266378
X-0024685
Y0276378
X-0014685
Y0286378
X-0024685
Y0256378
Y0246378
Y0236378
T06
X0329142Y0235965
Y0263623
T07
X0009268Y0279000
X0061000
T08
X0263779Y0246063
Y0293307
X0311024Y0293307
T09
X0098565Y0283843
Y0311402
T10
X0242126Y0013780
X0013780
Y0206693
X0242126
M30
