M48
;Layer_Color=9474304
;FILE_FORMAT=4:4
METRIC
;TYPE=PLATED
T1F00S00C0.3000
T2F00S00C0.5588
T3F00S00C0.7100
T4F00S00C4.0000
T5F00S00C4.2500
;TYPE=NON_PLATED
%
T01
X-00085000Y00250000
X-00065000Y00245000
X-00048443Y00241056
X-00050000Y00225000
X00054000Y00204355
X00035000Y00155000
X00080000Y00260000
X00124500Y00278250
X00145000Y00240000
X00192081Y00234787
X00233500Y00213000
X-00150000Y00240000
X-00175000Y00180000
X-00190000Y00300000
X-00175000Y00340000
X-00168314Y00335494
X-00144504Y00287253
X-00109818Y00313669
X-00233500Y00313000
X-00050000Y00315000
X00060000Y00335000
X00125000Y00340000
X00125000Y00290250
X00195000Y00280000
X00195000Y00325000
X00233500Y00313000
T02
X-00080000Y00217300
X-00080000Y00230000
X-00064252Y00230000
X-00064252Y00217300
X-00064252Y00204600
T03
X00205000Y00200300
X00205000Y00213000
X00205000Y00225700
X-00205000Y00300300
X-00205000Y00313000
X-00205000Y00325700
X00205000Y00325700
X00205000Y00313000
X00205000Y00300300
T04
X00000000Y00015600
X00114300Y00015600
X00215900Y00015600
X-00114300Y00015600
X-00215900Y00015600
T05
X00000000Y00105600
X00114300Y00105600
X00215900Y00105600
X-00114300Y00105600
X-00215900Y00105600
M30
