M48
;Layer_Color=9474304
;FILE_FORMAT=2:5
INCH
;TYPE=PLATED
T1F00S00C0.01181
T2F00S00C0.02600
T3F00S00C0.02795
T4F00S00C0.04331
T5F00S00C0.12126
;TYPE=NON_PLATED
%
T01
X-0027559Y-0029528
X-0011220Y-0029921
X-0007300Y-0034127
X-0009036Y-0036614
X-0011417Y-0042126
X0002164Y-0036936
X0004981Y-0036051
X0007464Y-0031890
X0015338Y-0034646
X0013271Y-0026772
Y-0021373
X0007074Y-0019112
X0001588Y-0019196
X0003133Y-0016680
X0008042Y-0012123
X0012598Y-0012205
X0015551Y-0012248
X0011039Y-0005044
X0009843Y0007786
X0008546Y0020177
X0000787Y0019291
X-0003543Y0016535
X-0023029Y0017350
X-0024016Y0014567
X-0027165Y0012992
X-0027264Y0016937
X-0026772Y0002756
X-0031102Y-0007874
X-0021161Y-0006759
X-0018110Y0010630
X-0045472Y-0000000
X-0001641Y-0011319
X0023228Y0000394
X0025098Y0017421
X0031377Y0024487
X0033465Y0026575
X0034843Y0009449
X0045472Y0000000
X0026083Y-0022108
X0028346Y-0027953
T02
X-0022151Y-0043189
Y-0038189
Y-0033189
X-0015551
Y-0038189
T03
X-0034252Y-0005000
Y0000000
Y0005000
X0034252Y0005000
X0034252Y0000000
X0034252Y-0005000
T04
X-0019862Y0029134
X-0009862
Y0039134
X-0019862
X0000138
Y0029134
X0010138
Y0039134
X0020138
Y0029134
T05
X-0039370Y-0039370
X0039370
Y0039370
X-0039370
M30
