G04*
G04 #@! TF.GenerationSoftware,Altium Limited,Altium Designer,21.5.1 (32)*
G04*
G04 Layer_Physical_Order=2*
G04 Layer_Color=16711680*
%FSAX25Y25*%
%MOIN*%
G70*
G04*
G04 #@! TF.SameCoordinates,E145FAAA-776B-438C-AE4F-039C15631CA5*
G04*
G04*
G04 #@! TF.FilePolarity,Positive*
G04*
G01*
G75*
%ADD13C,0.00787*%
%ADD66C,0.03937*%
%ADD67C,0.01968*%
%ADD68C,0.05906*%
%ADD69C,0.02756*%
%ADD70C,0.05512*%
%ADD71C,0.01378*%
%ADD72C,0.01575*%
%ADD73C,0.11811*%
G04:AMPARAMS|DCode=74|XSize=43.31mil|YSize=70.87mil|CornerRadius=19.49mil|HoleSize=0mil|Usage=FLASHONLY|Rotation=180.000|XOffset=0mil|YOffset=0mil|HoleType=Round|Shape=RoundedRectangle|*
%AMROUNDEDRECTD74*
21,1,0.04331,0.03189,0,0,180.0*
21,1,0.00433,0.07087,0,0,180.0*
1,1,0.03898,-0.00217,0.01595*
1,1,0.03898,0.00217,0.01595*
1,1,0.03898,0.00217,-0.01595*
1,1,0.03898,-0.00217,-0.01595*
%
%ADD74ROUNDEDRECTD74*%
%ADD75C,0.02756*%
%ADD76C,0.02362*%
G04:AMPARAMS|DCode=77|XSize=35.43mil|YSize=135.83mil|CornerRadius=13.82mil|HoleSize=0mil|Usage=FLASHONLY|Rotation=270.000|XOffset=0mil|YOffset=0mil|HoleType=Round|Shape=RoundedRectangle|*
%AMROUNDEDRECTD77*
21,1,0.03543,0.10819,0,0,270.0*
21,1,0.00780,0.13583,0,0,270.0*
1,1,0.02764,-0.05409,-0.00390*
1,1,0.02764,-0.05409,0.00390*
1,1,0.02764,0.05409,0.00390*
1,1,0.02764,0.05409,-0.00390*
%
%ADD77ROUNDEDRECTD77*%
G04:AMPARAMS|DCode=78|XSize=35.43mil|YSize=116.14mil|CornerRadius=13.82mil|HoleSize=0mil|Usage=FLASHONLY|Rotation=270.000|XOffset=0mil|YOffset=0mil|HoleType=Round|Shape=RoundedRectangle|*
%AMROUNDEDRECTD78*
21,1,0.03543,0.08850,0,0,270.0*
21,1,0.00780,0.11614,0,0,270.0*
1,1,0.02764,-0.04425,-0.00390*
1,1,0.02764,-0.04425,0.00390*
1,1,0.02764,0.04425,0.00390*
1,1,0.02764,0.04425,-0.00390*
%
%ADD78ROUNDEDRECTD78*%
%ADD79C,0.01181*%
%ADD80C,0.04331*%
D13*
X-0028913Y0088861D02*
X-0022636Y0082584D01*
X-0023771Y0043885D02*
X-0018832Y0038947D01*
X-0021513Y0057937D02*
X-0019938Y0056362D01*
X-0023771Y0043885D02*
Y0061104D01*
X-0025050Y0043098D02*
Y0061634D01*
X-0021704Y0057937D02*
X-0021513D01*
X-0025050Y0061634D02*
X-0022636Y0064048D01*
X-0021357Y0063518D02*
Y0086300D01*
X-0019938Y0056362D02*
X-0017193D01*
X-0023771Y0061104D02*
X-0021357Y0063518D01*
X-0026892Y0091835D02*
X-0021357Y0086300D01*
X-0030217Y0037931D02*
X-0025050Y0043098D01*
X-0017193Y0056362D02*
X-0016535Y0055704D01*
X-0022636Y0064048D02*
Y0082584D01*
X-0030217Y0015212D02*
Y0037931D01*
X-0009421Y0050348D02*
Y0062800D01*
X-0016568Y0069947D02*
X-0009421Y0062800D01*
X-0016535Y0024240D02*
Y0055704D01*
X0001982Y0024135D02*
X0019627Y0006490D01*
X0021244D02*
X0021319Y0006415D01*
X-0021753Y0024135D02*
X0001982D01*
X0019627Y0006490D02*
X0021244D01*
X0022644Y0008166D02*
Y0031558D01*
X0021319Y0006786D02*
Y0006841D01*
X0022644Y0008166D01*
X0019261Y0034941D02*
X0022644Y0031558D01*
X0025822Y0040837D02*
Y0041264D01*
X0027148Y0035100D02*
Y0039511D01*
X0025822Y0040837D02*
X0027148Y0039511D01*
X0006523Y0023737D02*
Y0026664D01*
X0015616Y0014645D02*
X0015616D01*
X0006523Y0023737D02*
X0015616Y0014645D01*
X0013012Y0024803D02*
X0020577D01*
X-0012605Y0015825D02*
X-0012303Y0015524D01*
X-0020098Y0015825D02*
X-0012605D01*
X-0030217Y0015212D02*
X-0023075Y0008071D01*
X-0019685D01*
X-0046133Y0091835D02*
X-0026892D01*
X-0059336Y0105038D02*
X-0046133Y0091835D01*
X-0059336Y0105038D02*
Y0107147D01*
X-0033987Y0088861D02*
X-0028913D01*
X-0033988Y0088861D02*
X-0033987Y0088861D01*
X-0000381Y0038196D02*
X0013012Y0024803D01*
X-0000381Y0038196D02*
Y0063808D01*
X-0026297Y0022024D02*
X-0020098Y0015825D01*
X-0026297Y0022024D02*
Y0028779D01*
X0040436Y0007854D02*
X0042799D01*
X0048755Y0017854D02*
X0053134D01*
X0038799Y0009491D02*
Y0011854D01*
Y0009491D02*
X0040436Y0007854D01*
X0038799Y0011854D02*
Y0018554D01*
X0041599Y0021354D01*
X0045255D01*
X0048755Y0017854D01*
X-0042799Y0056638D02*
X-0040436D01*
X-0053134Y0046638D02*
X-0048755D01*
X-0038799Y0052638D02*
Y0055001D01*
X-0040436Y0056638D02*
X-0038799Y0055001D01*
Y0045938D02*
Y0052638D01*
X-0041599Y0043138D02*
X-0038799Y0045938D01*
X-0045255Y0043138D02*
X-0041599D01*
X-0048755Y0046638D02*
X-0045255Y0043138D01*
X0040436Y0046638D02*
X0042799D01*
X0048755Y0056638D02*
X0053134D01*
X0038799Y0048274D02*
Y0050638D01*
Y0048274D02*
X0040436Y0046638D01*
X0038799Y0050638D02*
Y0057338D01*
X0041599Y0060138D01*
X0045255D01*
X0048755Y0056638D01*
X-0042799Y0017854D02*
X-0040436D01*
X-0053134Y0007854D02*
X-0048755D01*
X-0038799Y0013854D02*
Y0016218D01*
X-0040436Y0017854D02*
X-0038799Y0016218D01*
Y0007154D02*
Y0013854D01*
X-0041599Y0004354D02*
X-0038799Y0007154D01*
X-0045255Y0004354D02*
X-0041599D01*
X-0048755Y0007854D02*
X-0045255Y0004354D01*
X-0063660Y0003150D02*
G03*
X-0060510Y-0000000I0003145J-0000004D01*
G01*
X0063660Y0141890D02*
G03*
X0055785Y0149764I-0007874J0000000D01*
G01*
X-0040628Y0034803D02*
G03*
X-0044565Y0038740I-0003937J-0000000D01*
G01*
X0055785Y0072366D02*
G03*
X0063660Y0080240I-0000003J0007877D01*
G01*
X-0060510Y0025748D02*
G03*
X-0063660Y0022598I-0000004J-0003145D01*
G01*
X0040628Y0029687D02*
G03*
X0044565Y0025748I0003939J0000000D01*
G01*
X-0044565Y0064488D02*
G03*
X-0044565Y0072366I-0000002J0003939D01*
G01*
X0060510Y0038740D02*
G03*
X0063660Y0041890I0000004J0003145D01*
G01*
X0044569Y0072366D02*
G03*
X0044565Y0064488I-0000002J-0003939D01*
G01*
X-0063656Y0080240D02*
G03*
X-0055782Y0072366I0007877J0000003D01*
G01*
X-0060510Y0064488D02*
G03*
X-0063660Y0061339I-0000004J-0003145D01*
G01*
X-0044565Y0025748D02*
G03*
X-0040628Y0029687I-0000002J0003939D01*
G01*
X0060510Y0000000D02*
G03*
X0063660Y0003150I0000004J0003145D01*
G01*
X0044565Y0038740D02*
G03*
X0040628Y0034803I0000000J-0003937D01*
G01*
X-0055782Y0149764D02*
G03*
X-0063656Y0141890I0000000J-0007874D01*
G01*
X-0063660Y0041890D02*
G03*
X-0060510Y0038740I0003145J-0000004D01*
G01*
X0063660Y0061339D02*
G03*
X0060510Y0064488I-0003145J0000004D01*
G01*
X0063660Y0022598D02*
G03*
X0060510Y0025748I-0003145J0000004D01*
G01*
X-0063660Y0041890D02*
Y0061339D01*
X0044569Y0072366D02*
X0055785D01*
X0063660Y0003150D02*
Y0022598D01*
X-0060510Y0038740D02*
X-0044565D01*
X0063660Y0080240D02*
Y0141890D01*
X0044565Y0025748D02*
X0060510D01*
X-0055782Y0149764D02*
X0055785D01*
X-0040628Y0029687D02*
Y0034803D01*
X0040628Y0029687D02*
Y0034803D01*
X-0063656Y0080240D02*
Y0141890D01*
X-0060510Y0025748D02*
X-0044565D01*
X0044565Y0038740D02*
X0060510D01*
X-0055782Y0072366D02*
X-0044565D01*
X-0063660Y0003150D02*
Y0022598D01*
X0063660Y0041890D02*
Y0061339D01*
X-0060510Y0064488D02*
X-0044565D01*
X0044565D02*
X0060510D01*
X-0060510Y0000000D02*
X0060510D01*
D66*
X0010318Y0037693D02*
X0012726Y0040102D01*
X0010318Y0031742D02*
Y0037693D01*
X0012719Y0040114D02*
Y0041059D01*
X0014187Y0042527D01*
X-0004528Y0077854D02*
X0013087Y0060240D01*
X0012570Y0055791D02*
X0013087Y0056309D01*
Y0060240D01*
X0012570Y0044145D02*
Y0055791D01*
X0026493Y0008984D02*
X0029540Y0005937D01*
X0032801D02*
X0033073Y0006209D01*
X0029540Y0005937D02*
X0032801D01*
X0012570Y0044145D02*
X0014187Y0042527D01*
X0003485Y0015057D02*
X0003514Y0015086D01*
X0003485Y0007241D02*
Y0015057D01*
X-0000509Y0002756D02*
X0001797Y0005062D01*
Y0005553D01*
X-0010077Y0002756D02*
X-0000509D01*
X0001797Y0005553D02*
X0003485Y0007241D01*
X0022470Y0043294D02*
X0028669Y0049493D01*
X0035721D01*
X0035945Y0009081D02*
Y0015327D01*
X0033073Y0006209D02*
X0035945Y0009081D01*
X-0010157Y0002835D02*
X-0010077Y0002756D01*
X-0010165Y0002828D02*
X-0010157Y0002835D01*
X-0023905Y0002820D02*
X-0023898Y0002828D01*
X-0010165D01*
X0026280Y0008984D02*
X0026493D01*
D67*
X-0022059Y0104054D02*
X-0020662Y0105450D01*
X-0020321D01*
X-0020170Y0105601D01*
X-0022059Y0094876D02*
Y0104054D01*
X0014136Y0004231D02*
Y0009337D01*
X0014078Y0004172D02*
X0014136Y0004231D01*
X0004473Y0019000D02*
X0014136Y0009337D01*
X-0000789Y0019000D02*
X0004473D01*
X-0004024Y0015764D02*
X-0000789Y0019000D01*
X-0004024Y0015551D02*
Y0015764D01*
X-0007813Y0011763D02*
X-0004024Y0015551D01*
X-0021959Y0011763D02*
X-0007813D01*
D68*
X0037746Y0112268D02*
X0039850Y0114372D01*
X-0035505Y0105652D02*
X-0030783D01*
X-0044636D02*
X-0035736D01*
X0039850Y0114372D02*
X0042499Y0117021D01*
Y0124491D02*
Y0127633D01*
Y0117021D02*
Y0124491D01*
X-0008457Y0111484D02*
X0003913Y0099114D01*
X-0052636Y0123967D02*
X-0050899Y0122230D01*
Y0111915D02*
Y0122230D01*
X-0056777Y0124085D02*
X-0052911D01*
X-0056980Y0123883D02*
X-0056777Y0124085D01*
X-0057114Y0123883D02*
X-0056980D01*
X-0006201Y0121361D02*
Y0129232D01*
X-0008457Y0113914D02*
X-0006062Y0116309D01*
X-0006201Y0121361D02*
X-0006062Y0121222D01*
Y0116309D02*
Y0121222D01*
X0003913Y0099114D02*
X0015583D01*
X-0011813Y0111484D02*
X-0008457D01*
Y0113914D01*
X0015583Y0099114D02*
X0020280Y0103811D01*
X-0012605Y0110692D02*
X-0011813Y0111484D01*
X-0030783Y0105652D02*
X-0025742Y0110692D01*
X0037804Y0112210D02*
X0038644D01*
X0025356Y0103994D02*
X0029588D01*
X0037804Y0112210D01*
X-0025742Y0110692D02*
X-0012605D01*
X-0050899Y0111915D02*
X-0044636Y0105652D01*
X0020280Y0103854D02*
X0025279D01*
D69*
X-0014023Y0036567D02*
X-0013091Y0037500D01*
X-0014023Y0027358D02*
Y0036567D01*
D70*
X-0037284Y0124606D02*
X-0017008D01*
X0017598Y0139737D02*
X0053276D01*
X-0017008Y0124606D02*
Y0139567D01*
X-0043871Y0131193D02*
X-0037284Y0124606D01*
X-0048057Y0131193D02*
X-0043871D01*
X-0051286Y0134422D02*
X-0048057Y0131193D01*
X-0051286Y0134422D02*
Y0136042D01*
X-0054134Y0138890D02*
X-0051286Y0136042D01*
X-0054134Y0138890D02*
Y0140594D01*
X0053276Y0139737D02*
X0054134Y0140594D01*
X-0017008Y0139567D02*
X0017008D01*
Y0124606D02*
Y0139567D01*
D71*
X0013585Y0103937D02*
Y0104100D01*
X0009442Y0108243D02*
X0013585Y0104100D01*
X0009442Y0108243D02*
Y0113300D01*
X0038780Y0106365D02*
X0039043Y0106101D01*
Y0105127D02*
X0039075Y0105095D01*
X0039043Y0105127D02*
Y0106101D01*
X0039075Y0092815D02*
Y0105095D01*
X0028846Y0076711D02*
X0051968Y0099833D01*
X0023530Y0071395D02*
X0028846Y0076711D01*
X0023530Y0054478D02*
Y0071395D01*
X-0044505Y0112341D02*
Y0125077D01*
Y0112341D02*
X-0044477Y0112314D01*
X-0044532Y0125105D02*
X-0044505Y0125077D01*
X0051968Y0099833D02*
Y0129099D01*
D72*
X0035411Y0022327D02*
X0039370D01*
X0019221Y0038517D02*
X0035411Y0022327D01*
X-0033071Y0067963D02*
X-0024900Y0076133D01*
X-0033071Y0006004D02*
Y0067963D01*
X-0044855Y0094071D02*
X-0025542D01*
X-0020332Y0088861D01*
X0028068D01*
X0019221Y0038517D02*
Y0070960D01*
X0009927Y0080255D02*
X0019221Y0070960D01*
X0009732Y0080255D02*
X0009927D01*
X-0039567Y0041969D02*
X-0039242D01*
X-0036122Y0045089D01*
X-0038532Y0004035D02*
X-0035039D01*
X-0038656Y0003911D02*
X-0038532Y0004035D01*
X0028068Y0088861D02*
X0032087Y0084842D01*
X-0036122Y0045089D02*
Y0071161D01*
X-0035039Y0004035D02*
X-0033071Y0006004D01*
D73*
X-0054134Y0081539D02*
D03*
X0054134D02*
D03*
X-0054134Y0140594D02*
D03*
X0054134D02*
D03*
D74*
X0017008Y0139567D02*
D03*
X-0017008D02*
D03*
X0017008Y0124606D02*
D03*
X-0017008D02*
D03*
D75*
X0012726Y0040102D02*
D03*
X0013087Y0058902D02*
D03*
X-0002559Y0075295D02*
D03*
X-0023622Y0124114D02*
D03*
X-0008457Y0111484D02*
D03*
X-0006062Y0121222D02*
D03*
X-0020170Y0105601D02*
D03*
X-0052911Y0124085D02*
D03*
X-0057114Y0123883D02*
D03*
X-0005984Y0126516D02*
D03*
X-0013091Y0037500D02*
D03*
X-0014023Y0027358D02*
D03*
X0039370Y0022327D02*
D03*
X0012570Y0053198D02*
D03*
X-0024900Y0076133D02*
D03*
X0003514Y0015086D02*
D03*
X0014136Y0004115D02*
D03*
X0013585Y0103937D02*
D03*
X0022470Y0043294D02*
D03*
X0035721Y0049214D02*
D03*
X0023530Y0054478D02*
D03*
X0013994Y0042333D02*
D03*
X0035945Y0015327D02*
D03*
X-0039567Y0041969D02*
D03*
X-0038656Y0003911D02*
D03*
X0009442Y0113300D02*
D03*
X-0004132Y0110630D02*
D03*
X-0044532Y0125105D02*
D03*
X-0035387Y0106001D02*
D03*
X-0027173Y0123813D02*
D03*
X-0048371Y0130651D02*
D03*
X0024213Y0140748D02*
D03*
X0029134D02*
D03*
X0033957D02*
D03*
X0038780Y0106365D02*
D03*
X-0044477Y0112314D02*
D03*
X0039850Y0114372D02*
D03*
X0038644Y0112210D02*
D03*
X0025356Y0103994D02*
D03*
X-0005709Y0116142D02*
D03*
X-0006201Y0129232D02*
D03*
X0020280Y0103854D02*
D03*
X0042499Y0124491D02*
D03*
Y0127633D02*
D03*
X0026280Y0008984D02*
D03*
X-0040030Y0105652D02*
D03*
X-0022059Y0094876D02*
D03*
X0039075Y0092815D02*
D03*
X-0004528Y0077854D02*
D03*
X0009732Y0080255D02*
D03*
X0051968Y0129099D02*
D03*
X0010318Y0031742D02*
D03*
X-0021959Y0011763D02*
D03*
X-0004024Y0015551D02*
D03*
X-0036122Y0071161D02*
D03*
X0033073Y0006209D02*
D03*
X0003485Y0007854D02*
D03*
X-0010157Y0002835D02*
D03*
X-0023905Y0002820D02*
D03*
D76*
X-0021704Y0057937D02*
D03*
X-0018832Y0038947D02*
D03*
X0021319Y0006415D02*
D03*
X0019261Y0034941D02*
D03*
X0025822Y0041264D02*
D03*
X0020577Y0024803D02*
D03*
X-0012303Y0015524D02*
D03*
X-0019685Y0008071D02*
D03*
X-0021753Y0024135D02*
D03*
X-0016568Y0069947D02*
D03*
X0032087Y0084842D02*
D03*
X-0044855Y0094071D02*
D03*
X-0059373Y0107185D02*
D03*
X-0033988Y0088861D02*
D03*
X0015616Y0014645D02*
D03*
X-0000381Y0063808D02*
D03*
X0027148Y0035100D02*
D03*
X0006523Y0026664D02*
D03*
X-0009421Y0050348D02*
D03*
X-0026297Y0028779D02*
D03*
X0054118Y0012854D02*
D03*
X-0054118Y0051638D02*
D03*
X0054118D02*
D03*
X-0054118Y0012854D02*
D03*
D77*
X0054118D02*
D03*
Y0007854D02*
D03*
X-0054118Y0051638D02*
D03*
Y0056638D02*
D03*
X0054118Y0051638D02*
D03*
Y0046638D02*
D03*
X-0054118Y0012854D02*
D03*
Y0017854D02*
D03*
D78*
X0053134D02*
D03*
X-0053134Y0046638D02*
D03*
X0053134Y0056638D02*
D03*
X-0053134Y0007854D02*
D03*
D79*
X0042799Y0017854D02*
X0044965D01*
X0046167Y0016652D01*
Y0010048D02*
Y0016652D01*
Y0010048D02*
X0048360Y0007854D01*
X0054118D01*
X-0044965Y0046638D02*
X-0042799D01*
X-0046167Y0047840D02*
X-0044965Y0046638D01*
X-0046167Y0047840D02*
Y0054444D01*
X-0048360Y0056638D02*
X-0046167Y0054444D01*
X-0054118Y0056638D02*
X-0048360D01*
X0042799D02*
X0044965D01*
X0046167Y0055436D01*
Y0048831D02*
Y0055436D01*
Y0048831D02*
X0048360Y0046638D01*
X0054118D01*
X-0044965Y0007854D02*
X-0042799D01*
X-0046167Y0009056D02*
X-0044965Y0007854D01*
X-0046167Y0009056D02*
Y0015661D01*
X-0048360Y0017854D02*
X-0046167Y0015661D01*
X-0054118Y0017854D02*
X-0048360D01*
D80*
X0042799Y0007854D02*
D03*
Y0012854D02*
D03*
Y0017854D02*
D03*
X-0042799Y0056638D02*
D03*
Y0051638D02*
D03*
Y0046638D02*
D03*
X0042799D02*
D03*
Y0051638D02*
D03*
Y0056638D02*
D03*
X-0042799Y0017854D02*
D03*
Y0012854D02*
D03*
Y0007854D02*
D03*
M02*
