G04*
G04 #@! TF.GenerationSoftware,Altium Limited,Altium Designer,21.3.2 (30)*
G04*
G04 Layer_Color=8388736*
%FSAX25Y25*%
%MOIN*%
G70*
G04*
G04 #@! TF.SameCoordinates,922420EC-F797-4737-9FA0-C8A043E9FC0D*
G04*
G04*
G04 #@! TF.FilePolarity,Negative*
G04*
G01*
G75*
%ADD12C,0.00197*%
G04:AMPARAMS|DCode=21|XSize=35.43mil|YSize=188.98mil|CornerRadius=13.82mil|HoleSize=0mil|Usage=FLASHONLY|Rotation=180.000|XOffset=0mil|YOffset=0mil|HoleType=Round|Shape=RoundedRectangle|*
%AMROUNDEDRECTD21*
21,1,0.03543,0.16134,0,0,180.0*
21,1,0.00780,0.18898,0,0,180.0*
1,1,0.02764,-0.00390,0.08067*
1,1,0.02764,0.00390,0.08067*
1,1,0.02764,0.00390,-0.08067*
1,1,0.02764,-0.00390,-0.08067*
%
%ADD21ROUNDEDRECTD21*%
G04:AMPARAMS|DCode=22|XSize=35.43mil|YSize=169.29mil|CornerRadius=13.82mil|HoleSize=0mil|Usage=FLASHONLY|Rotation=180.000|XOffset=0mil|YOffset=0mil|HoleType=Round|Shape=RoundedRectangle|*
%AMROUNDEDRECTD22*
21,1,0.03543,0.14165,0,0,180.0*
21,1,0.00780,0.16929,0,0,180.0*
1,1,0.02764,-0.00390,0.07083*
1,1,0.02764,0.00390,0.07083*
1,1,0.02764,0.00390,-0.07083*
1,1,0.02764,-0.00390,-0.07083*
%
%ADD22ROUNDEDRECTD22*%
%ADD23R,0.03347X0.04528*%
%ADD24R,0.02756X0.02559*%
%ADD25R,0.02559X0.02756*%
%ADD26R,0.05906X0.04921*%
%ADD27R,0.02559X0.02756*%
%ADD28R,0.03740X0.02953*%
%ADD29R,0.04134X0.02953*%
%ADD30R,0.01968X0.03150*%
%ADD31C,0.08465*%
%ADD32R,0.08465X0.08465*%
%ADD33C,0.00591*%
%ADD34C,0.04370*%
%ADD35C,0.12205*%
G36*
X0064623Y0044275D02*
X0064650Y0044268D01*
X0064678Y0044259D01*
X0064709Y0044244D01*
X0064740Y0044225D01*
X0064771Y0044201D01*
X0064774Y0044197D01*
X0064783Y0044188D01*
X0064796Y0044173D01*
X0064811Y0044151D01*
X0064824Y0044123D01*
X0064836Y0044092D01*
X0064845Y0044055D01*
X0064848Y0044015D01*
Y0044009D01*
Y0043997D01*
X0064845Y0043978D01*
X0064839Y0043950D01*
X0064830Y0043922D01*
X0064814Y0043891D01*
X0064796Y0043861D01*
X0064771Y0043830D01*
X0064768Y0043827D01*
X0064759Y0043817D01*
X0064740Y0043805D01*
X0064719Y0043793D01*
X0064691Y0043780D01*
X0064660Y0043768D01*
X0064626Y0043759D01*
X0064586Y0043755D01*
X0064567D01*
X0064549Y0043759D01*
X0064521Y0043765D01*
X0064493Y0043774D01*
X0064462Y0043786D01*
X0064431Y0043802D01*
X0064400Y0043827D01*
X0064397Y0043830D01*
X0064388Y0043839D01*
X0064376Y0043857D01*
X0064363Y0043879D01*
X0064351Y0043904D01*
X0064338Y0043938D01*
X0064329Y0043975D01*
X0064326Y0044015D01*
Y0044021D01*
Y0044034D01*
X0064329Y0044055D01*
X0064335Y0044080D01*
X0064345Y0044111D01*
X0064357Y0044142D01*
X0064376Y0044173D01*
X0064400Y0044201D01*
X0064403Y0044203D01*
X0064413Y0044213D01*
X0064431Y0044225D01*
X0064453Y0044241D01*
X0064481Y0044253D01*
X0064512Y0044265D01*
X0064546Y0044275D01*
X0064586Y0044278D01*
X0064604D01*
X0064623Y0044275D01*
D02*
G37*
G36*
X0052655Y0040610D02*
X0052254D01*
Y0041033D01*
X0052244D01*
X0052241Y0041027D01*
X0052232Y0041012D01*
X0052213Y0040990D01*
X0052192Y0040959D01*
X0052161Y0040922D01*
X0052127Y0040882D01*
X0052083Y0040839D01*
X0052031Y0040792D01*
X0051975Y0040746D01*
X0051911Y0040703D01*
X0051839Y0040662D01*
X0051762Y0040625D01*
X0051679Y0040594D01*
X0051586Y0040573D01*
X0051487Y0040557D01*
X0051382Y0040551D01*
X0051360D01*
X0051336Y0040554D01*
X0051305Y0040557D01*
X0051265Y0040560D01*
X0051218Y0040570D01*
X0051166Y0040579D01*
X0051110Y0040594D01*
X0051051Y0040610D01*
X0050990Y0040635D01*
X0050928Y0040659D01*
X0050863Y0040693D01*
X0050801Y0040730D01*
X0050739Y0040777D01*
X0050681Y0040829D01*
X0050625Y0040888D01*
X0050622Y0040891D01*
X0050613Y0040903D01*
X0050600Y0040922D01*
X0050582Y0040950D01*
X0050560Y0040984D01*
X0050535Y0041024D01*
X0050511Y0041073D01*
X0050486Y0041129D01*
X0050458Y0041191D01*
X0050433Y0041259D01*
X0050409Y0041336D01*
X0050387Y0041416D01*
X0050369Y0041503D01*
X0050356Y0041599D01*
X0050347Y0041698D01*
X0050344Y0041803D01*
Y0041806D01*
Y0041809D01*
Y0041818D01*
Y0041830D01*
X0050347Y0041861D01*
X0050350Y0041905D01*
X0050353Y0041960D01*
X0050359Y0042019D01*
X0050369Y0042087D01*
X0050384Y0042161D01*
X0050400Y0042238D01*
X0050421Y0042322D01*
X0050446Y0042402D01*
X0050477Y0042489D01*
X0050511Y0042569D01*
X0050554Y0042649D01*
X0050600Y0042726D01*
X0050656Y0042801D01*
X0050659Y0042804D01*
X0050671Y0042816D01*
X0050690Y0042835D01*
X0050715Y0042859D01*
X0050745Y0042887D01*
X0050783Y0042921D01*
X0050829Y0042955D01*
X0050878Y0042989D01*
X0050937Y0043023D01*
X0050999Y0043057D01*
X0051067Y0043091D01*
X0051141Y0043119D01*
X0051221Y0043144D01*
X0051308Y0043162D01*
X0051398Y0043175D01*
X0051493Y0043178D01*
X0051515D01*
X0051543Y0043175D01*
X0051577Y0043172D01*
X0051620Y0043165D01*
X0051669Y0043156D01*
X0051722Y0043144D01*
X0051781Y0043128D01*
X0051842Y0043107D01*
X0051904Y0043079D01*
X0051966Y0043045D01*
X0052028Y0043005D01*
X0052087Y0042958D01*
X0052145Y0042906D01*
X0052198Y0042841D01*
X0052244Y0042770D01*
X0052254D01*
Y0044324D01*
X0052655D01*
Y0040610D01*
D02*
G37*
G36*
X0066869Y0043175D02*
X0066897D01*
X0066931Y0043168D01*
X0066971Y0043162D01*
X0067014Y0043156D01*
X0067061Y0043144D01*
X0067110Y0043131D01*
X0067163Y0043113D01*
X0067215Y0043091D01*
X0067268Y0043063D01*
X0067317Y0043032D01*
X0067367Y0042998D01*
X0067413Y0042955D01*
X0067456Y0042909D01*
X0067459Y0042906D01*
X0067466Y0042897D01*
X0067478Y0042881D01*
X0067490Y0042859D01*
X0067506Y0042832D01*
X0067524Y0042798D01*
X0067546Y0042757D01*
X0067567Y0042714D01*
X0067586Y0042662D01*
X0067608Y0042606D01*
X0067626Y0042541D01*
X0067642Y0042473D01*
X0067654Y0042399D01*
X0067666Y0042319D01*
X0067673Y0042235D01*
X0067676Y0042143D01*
Y0040610D01*
X0067274D01*
Y0042041D01*
Y0042044D01*
Y0042050D01*
Y0042059D01*
Y0042074D01*
X0067271Y0042093D01*
Y0042115D01*
X0067265Y0042164D01*
X0067255Y0042226D01*
X0067243Y0042294D01*
X0067225Y0042365D01*
X0067200Y0042439D01*
X0067169Y0042513D01*
X0067132Y0042584D01*
X0067085Y0042652D01*
X0067027Y0042714D01*
X0066962Y0042764D01*
X0066925Y0042785D01*
X0066882Y0042804D01*
X0066838Y0042819D01*
X0066792Y0042829D01*
X0066742Y0042835D01*
X0066690Y0042838D01*
X0066662D01*
X0066641Y0042835D01*
X0066616Y0042832D01*
X0066585Y0042825D01*
X0066551Y0042819D01*
X0066517Y0042810D01*
X0066477Y0042798D01*
X0066437Y0042782D01*
X0066396Y0042764D01*
X0066353Y0042742D01*
X0066313Y0042714D01*
X0066270Y0042683D01*
X0066229Y0042649D01*
X0066192Y0042609D01*
X0066189Y0042606D01*
X0066183Y0042600D01*
X0066174Y0042588D01*
X0066162Y0042569D01*
X0066146Y0042547D01*
X0066131Y0042520D01*
X0066112Y0042489D01*
X0066094Y0042455D01*
X0066075Y0042414D01*
X0066057Y0042371D01*
X0066041Y0042325D01*
X0066026Y0042275D01*
X0066013Y0042220D01*
X0066004Y0042164D01*
X0065998Y0042102D01*
X0065995Y0042041D01*
Y0040610D01*
X0065593D01*
Y0043119D01*
X0065995D01*
Y0042702D01*
X0066004D01*
X0066007Y0042708D01*
X0066016Y0042723D01*
X0066035Y0042745D01*
X0066057Y0042776D01*
X0066087Y0042813D01*
X0066121Y0042853D01*
X0066165Y0042897D01*
X0066214Y0042940D01*
X0066270Y0042983D01*
X0066331Y0043026D01*
X0066400Y0043066D01*
X0066471Y0043104D01*
X0066551Y0043134D01*
X0066637Y0043156D01*
X0066730Y0043172D01*
X0066829Y0043178D01*
X0066847D01*
X0066869Y0043175D01*
D02*
G37*
G36*
X0049893Y0043159D02*
X0049927D01*
X0049964Y0043153D01*
X0050004Y0043147D01*
X0050044Y0043141D01*
X0050078Y0043128D01*
Y0042711D01*
X0050072Y0042714D01*
X0050060Y0042723D01*
X0050035Y0042736D01*
X0050001Y0042751D01*
X0049955Y0042767D01*
X0049905Y0042779D01*
X0049843Y0042788D01*
X0049772Y0042791D01*
X0049747D01*
X0049729Y0042788D01*
X0049707Y0042785D01*
X0049683Y0042779D01*
X0049624Y0042761D01*
X0049590Y0042748D01*
X0049556Y0042733D01*
X0049519Y0042711D01*
X0049482Y0042689D01*
X0049448Y0042662D01*
X0049411Y0042628D01*
X0049377Y0042591D01*
X0049343Y0042547D01*
X0049340Y0042544D01*
X0049336Y0042535D01*
X0049327Y0042523D01*
X0049315Y0042504D01*
X0049303Y0042479D01*
X0049287Y0042448D01*
X0049272Y0042414D01*
X0049256Y0042374D01*
X0049241Y0042331D01*
X0049225Y0042282D01*
X0049210Y0042226D01*
X0049197Y0042167D01*
X0049185Y0042102D01*
X0049176Y0042034D01*
X0049173Y0041963D01*
X0049170Y0041886D01*
Y0040610D01*
X0048768D01*
Y0043119D01*
X0049170D01*
Y0042600D01*
X0049179D01*
Y0042603D01*
X0049182Y0042612D01*
X0049188Y0042625D01*
X0049194Y0042643D01*
X0049204Y0042665D01*
X0049216Y0042693D01*
X0049244Y0042751D01*
X0049281Y0042819D01*
X0049327Y0042887D01*
X0049380Y0042952D01*
X0049442Y0043014D01*
X0049445Y0043017D01*
X0049451Y0043020D01*
X0049460Y0043026D01*
X0049472Y0043039D01*
X0049488Y0043048D01*
X0049510Y0043060D01*
X0049556Y0043088D01*
X0049615Y0043116D01*
X0049683Y0043141D01*
X0049757Y0043156D01*
X0049797Y0043159D01*
X0049837Y0043162D01*
X0049862D01*
X0049893Y0043159D01*
D02*
G37*
G36*
X0060655Y0040610D02*
X0060254D01*
Y0041005D01*
X0060244D01*
X0060241Y0040999D01*
X0060232Y0040987D01*
X0060216Y0040962D01*
X0060198Y0040934D01*
X0060170Y0040900D01*
X0060136Y0040863D01*
X0060099Y0040820D01*
X0060053Y0040780D01*
X0060003Y0040737D01*
X0059944Y0040696D01*
X0059883Y0040656D01*
X0059812Y0040622D01*
X0059734Y0040594D01*
X0059654Y0040570D01*
X0059564Y0040557D01*
X0059469Y0040551D01*
X0059447D01*
X0059431Y0040554D01*
X0059410D01*
X0059385Y0040557D01*
X0059357Y0040563D01*
X0059330Y0040567D01*
X0059262Y0040585D01*
X0059184Y0040607D01*
X0059104Y0040641D01*
X0059064Y0040662D01*
X0059021Y0040684D01*
X0058977Y0040712D01*
X0058937Y0040740D01*
X0058897Y0040774D01*
X0058857Y0040811D01*
X0058817Y0040854D01*
X0058780Y0040897D01*
X0058746Y0040947D01*
X0058712Y0041002D01*
X0058684Y0041061D01*
X0058656Y0041123D01*
X0058631Y0041191D01*
X0058610Y0041265D01*
X0058594Y0041345D01*
X0058582Y0041429D01*
X0058576Y0041521D01*
X0058573Y0041617D01*
Y0043119D01*
X0058971D01*
Y0041682D01*
Y0041679D01*
Y0041673D01*
Y0041664D01*
Y0041648D01*
X0058974Y0041630D01*
Y0041608D01*
X0058980Y0041559D01*
X0058990Y0041497D01*
X0059002Y0041432D01*
X0059024Y0041358D01*
X0059048Y0041287D01*
X0059079Y0041212D01*
X0059119Y0041138D01*
X0059169Y0041073D01*
X0059228Y0041012D01*
X0059299Y0040962D01*
X0059336Y0040940D01*
X0059379Y0040922D01*
X0059425Y0040907D01*
X0059472Y0040897D01*
X0059524Y0040891D01*
X0059580Y0040888D01*
X0059608D01*
X0059629Y0040891D01*
X0059654Y0040894D01*
X0059682Y0040900D01*
X0059716Y0040907D01*
X0059750Y0040916D01*
X0059787Y0040925D01*
X0059827Y0040940D01*
X0059867Y0040959D01*
X0059907Y0040981D01*
X0059948Y0041005D01*
X0059988Y0041033D01*
X0060025Y0041067D01*
X0060062Y0041104D01*
X0060065Y0041107D01*
X0060071Y0041113D01*
X0060080Y0041126D01*
X0060093Y0041144D01*
X0060105Y0041166D01*
X0060124Y0041191D01*
X0060139Y0041222D01*
X0060158Y0041256D01*
X0060176Y0041296D01*
X0060192Y0041339D01*
X0060210Y0041385D01*
X0060223Y0041435D01*
X0060235Y0041491D01*
X0060244Y0041546D01*
X0060250Y0041608D01*
X0060254Y0041673D01*
Y0043119D01*
X0060655D01*
Y0040610D01*
D02*
G37*
G36*
X0064780D02*
X0064379D01*
Y0043119D01*
X0064780D01*
Y0040610D01*
D02*
G37*
G36*
X0063566D02*
X0063164D01*
Y0044324D01*
X0063566D01*
Y0040610D01*
D02*
G37*
G36*
X0047164Y0043175D02*
X0047186D01*
X0047207Y0043172D01*
X0047235Y0043168D01*
X0047266Y0043162D01*
X0047331Y0043150D01*
X0047408Y0043128D01*
X0047486Y0043100D01*
X0047569Y0043060D01*
X0047652Y0043011D01*
X0047693Y0042983D01*
X0047733Y0042949D01*
X0047770Y0042912D01*
X0047807Y0042875D01*
X0047841Y0042832D01*
X0047872Y0042782D01*
X0047903Y0042733D01*
X0047930Y0042677D01*
X0047952Y0042615D01*
X0047974Y0042550D01*
X0047989Y0042482D01*
X0048002Y0042405D01*
X0048008Y0042328D01*
X0048011Y0042241D01*
Y0040610D01*
X0047609D01*
Y0040999D01*
X0047600D01*
X0047597Y0040993D01*
X0047588Y0040981D01*
X0047572Y0040959D01*
X0047550Y0040928D01*
X0047523Y0040894D01*
X0047489Y0040857D01*
X0047452Y0040817D01*
X0047405Y0040777D01*
X0047353Y0040734D01*
X0047297Y0040693D01*
X0047232Y0040656D01*
X0047164Y0040622D01*
X0047087Y0040591D01*
X0047007Y0040570D01*
X0046920Y0040557D01*
X0046827Y0040551D01*
X0046790D01*
X0046766Y0040554D01*
X0046735Y0040557D01*
X0046698Y0040560D01*
X0046657Y0040567D01*
X0046614Y0040576D01*
X0046518Y0040601D01*
X0046472Y0040616D01*
X0046423Y0040635D01*
X0046373Y0040656D01*
X0046327Y0040684D01*
X0046284Y0040715D01*
X0046240Y0040749D01*
X0046237Y0040752D01*
X0046231Y0040758D01*
X0046222Y0040771D01*
X0046206Y0040786D01*
X0046191Y0040804D01*
X0046175Y0040829D01*
X0046154Y0040857D01*
X0046135Y0040888D01*
X0046117Y0040925D01*
X0046098Y0040965D01*
X0046080Y0041008D01*
X0046064Y0041055D01*
X0046049Y0041104D01*
X0046040Y0041157D01*
X0046033Y0041216D01*
X0046030Y0041274D01*
Y0041277D01*
Y0041284D01*
Y0041293D01*
X0046033Y0041305D01*
Y0041321D01*
X0046036Y0041339D01*
X0046043Y0041385D01*
X0046055Y0041441D01*
X0046073Y0041503D01*
X0046098Y0041571D01*
X0046135Y0041642D01*
X0046178Y0041713D01*
X0046231Y0041784D01*
X0046265Y0041818D01*
X0046299Y0041852D01*
X0046339Y0041886D01*
X0046379Y0041917D01*
X0046426Y0041948D01*
X0046475Y0041976D01*
X0046528Y0042000D01*
X0046586Y0042025D01*
X0046648Y0042047D01*
X0046713Y0042065D01*
X0046784Y0042081D01*
X0046858Y0042093D01*
X0047609Y0042198D01*
Y0042201D01*
Y0042204D01*
Y0042214D01*
Y0042226D01*
X0047606Y0042257D01*
X0047600Y0042297D01*
X0047594Y0042346D01*
X0047581Y0042402D01*
X0047566Y0042458D01*
X0047544Y0042520D01*
X0047517Y0042578D01*
X0047482Y0042637D01*
X0047442Y0042689D01*
X0047393Y0042739D01*
X0047331Y0042779D01*
X0047263Y0042810D01*
X0047226Y0042822D01*
X0047183Y0042832D01*
X0047139Y0042835D01*
X0047093Y0042838D01*
X0047071D01*
X0047050Y0042835D01*
X0047016Y0042832D01*
X0046976Y0042829D01*
X0046929Y0042822D01*
X0046877Y0042813D01*
X0046821Y0042801D01*
X0046759Y0042782D01*
X0046694Y0042764D01*
X0046627Y0042739D01*
X0046556Y0042708D01*
X0046484Y0042671D01*
X0046413Y0042631D01*
X0046342Y0042584D01*
X0046274Y0042529D01*
Y0042940D01*
X0046277Y0042943D01*
X0046290Y0042949D01*
X0046311Y0042961D01*
X0046339Y0042977D01*
X0046376Y0042995D01*
X0046416Y0043014D01*
X0046466Y0043036D01*
X0046521Y0043060D01*
X0046580Y0043082D01*
X0046645Y0043104D01*
X0046716Y0043122D01*
X0046790Y0043141D01*
X0046871Y0043156D01*
X0046951Y0043168D01*
X0047038Y0043175D01*
X0047127Y0043178D01*
X0047149D01*
X0047164Y0043175D01*
D02*
G37*
G36*
X0041528Y0044120D02*
X0041565Y0044117D01*
X0041608Y0044111D01*
X0041658Y0044105D01*
X0041714Y0044095D01*
X0041769Y0044083D01*
X0041828Y0044068D01*
X0041890Y0044049D01*
X0041948Y0044027D01*
X0042010Y0044003D01*
X0042066Y0043972D01*
X0042121Y0043938D01*
X0042174Y0043898D01*
X0042177Y0043894D01*
X0042186Y0043888D01*
X0042199Y0043876D01*
X0042214Y0043857D01*
X0042236Y0043836D01*
X0042257Y0043808D01*
X0042282Y0043777D01*
X0042307Y0043743D01*
X0042331Y0043703D01*
X0042356Y0043660D01*
X0042378Y0043610D01*
X0042399Y0043561D01*
X0042415Y0043505D01*
X0042427Y0043446D01*
X0042437Y0043385D01*
X0042440Y0043320D01*
Y0043317D01*
Y0043307D01*
Y0043292D01*
X0042437Y0043270D01*
X0042433Y0043242D01*
X0042430Y0043215D01*
X0042427Y0043181D01*
X0042421Y0043144D01*
X0042399Y0043060D01*
X0042372Y0042974D01*
X0042353Y0042927D01*
X0042331Y0042884D01*
X0042307Y0042841D01*
X0042279Y0042798D01*
X0042276Y0042794D01*
X0042273Y0042788D01*
X0042263Y0042776D01*
X0042248Y0042761D01*
X0042233Y0042745D01*
X0042214Y0042723D01*
X0042189Y0042702D01*
X0042165Y0042677D01*
X0042134Y0042652D01*
X0042100Y0042625D01*
X0042063Y0042600D01*
X0042022Y0042572D01*
X0041979Y0042547D01*
X0041936Y0042526D01*
X0041834Y0042485D01*
Y0042476D01*
X0041837D01*
X0041849Y0042473D01*
X0041868Y0042470D01*
X0041893Y0042467D01*
X0041924Y0042461D01*
X0041958Y0042452D01*
X0041998Y0042439D01*
X0042038Y0042427D01*
X0042127Y0042393D01*
X0042177Y0042371D01*
X0042223Y0042343D01*
X0042270Y0042316D01*
X0042316Y0042285D01*
X0042362Y0042248D01*
X0042402Y0042207D01*
X0042406Y0042204D01*
X0042412Y0042198D01*
X0042421Y0042186D01*
X0042437Y0042167D01*
X0042452Y0042143D01*
X0042470Y0042118D01*
X0042489Y0042084D01*
X0042511Y0042050D01*
X0042529Y0042010D01*
X0042548Y0041963D01*
X0042566Y0041917D01*
X0042582Y0041864D01*
X0042597Y0041806D01*
X0042606Y0041747D01*
X0042613Y0041685D01*
X0042616Y0041617D01*
Y0041611D01*
Y0041599D01*
X0042613Y0041574D01*
X0042610Y0041543D01*
X0042606Y0041503D01*
X0042597Y0041460D01*
X0042588Y0041410D01*
X0042576Y0041358D01*
X0042557Y0041299D01*
X0042535Y0041240D01*
X0042511Y0041181D01*
X0042480Y0041120D01*
X0042443Y0041058D01*
X0042399Y0040999D01*
X0042350Y0040944D01*
X0042291Y0040888D01*
X0042288Y0040885D01*
X0042276Y0040876D01*
X0042257Y0040863D01*
X0042233Y0040845D01*
X0042202Y0040823D01*
X0042162Y0040801D01*
X0042118Y0040774D01*
X0042069Y0040749D01*
X0042010Y0040724D01*
X0041948Y0040699D01*
X0041883Y0040675D01*
X0041809Y0040653D01*
X0041732Y0040635D01*
X0041652Y0040622D01*
X0041565Y0040613D01*
X0041475Y0040610D01*
X0040453D01*
Y0044123D01*
X0041494D01*
X0041528Y0044120D01*
D02*
G37*
G36*
X0061996Y0043119D02*
X0062630D01*
Y0042773D01*
X0061996D01*
Y0041361D01*
Y0041358D01*
Y0041348D01*
Y0041336D01*
Y0041321D01*
X0061999Y0041299D01*
X0062002Y0041274D01*
X0062009Y0041222D01*
X0062018Y0041160D01*
X0062033Y0041101D01*
X0062055Y0041046D01*
X0062067Y0041021D01*
X0062083Y0040999D01*
X0062086Y0040996D01*
X0062098Y0040984D01*
X0062120Y0040965D01*
X0062151Y0040947D01*
X0062191Y0040925D01*
X0062240Y0040910D01*
X0062299Y0040897D01*
X0062367Y0040891D01*
X0062392D01*
X0062420Y0040894D01*
X0062457Y0040900D01*
X0062497Y0040913D01*
X0062543Y0040925D01*
X0062586Y0040947D01*
X0062630Y0040975D01*
Y0040631D01*
X0062627D01*
X0062624Y0040628D01*
X0062614Y0040625D01*
X0062605Y0040619D01*
X0062571Y0040607D01*
X0062531Y0040594D01*
X0062475Y0040582D01*
X0062410Y0040570D01*
X0062336Y0040560D01*
X0062253Y0040557D01*
X0062225D01*
X0062191Y0040563D01*
X0062151Y0040570D01*
X0062101Y0040579D01*
X0062046Y0040598D01*
X0061984Y0040619D01*
X0061925Y0040650D01*
X0061863Y0040687D01*
X0061802Y0040737D01*
X0061746Y0040795D01*
X0061721Y0040829D01*
X0061696Y0040866D01*
X0061675Y0040907D01*
X0061656Y0040950D01*
X0061638Y0040996D01*
X0061622Y0041049D01*
X0061610Y0041101D01*
X0061601Y0041160D01*
X0061598Y0041222D01*
X0061594Y0041290D01*
Y0042773D01*
X0061165D01*
Y0043119D01*
X0061594D01*
Y0043731D01*
X0061996Y0043861D01*
Y0043119D01*
D02*
G37*
G36*
X0069465Y0043175D02*
X0069499Y0043172D01*
X0069542Y0043168D01*
X0069588Y0043162D01*
X0069641Y0043150D01*
X0069696Y0043137D01*
X0069758Y0043122D01*
X0069820Y0043100D01*
X0069882Y0043073D01*
X0069947Y0043042D01*
X0070009Y0043005D01*
X0070067Y0042961D01*
X0070126Y0042912D01*
X0070179Y0042856D01*
X0070182Y0042853D01*
X0070191Y0042841D01*
X0070203Y0042822D01*
X0070222Y0042798D01*
X0070240Y0042767D01*
X0070265Y0042726D01*
X0070290Y0042680D01*
X0070315Y0042628D01*
X0070339Y0042566D01*
X0070364Y0042501D01*
X0070389Y0042427D01*
X0070407Y0042349D01*
X0070426Y0042263D01*
X0070438Y0042173D01*
X0070447Y0042074D01*
X0070451Y0041973D01*
Y0041762D01*
X0068677D01*
Y0041756D01*
Y0041744D01*
X0068680Y0041722D01*
X0068683Y0041695D01*
X0068686Y0041657D01*
X0068692Y0041617D01*
X0068698Y0041574D01*
X0068711Y0041524D01*
X0068739Y0041420D01*
X0068757Y0041367D01*
X0068779Y0041311D01*
X0068804Y0041259D01*
X0068831Y0041206D01*
X0068865Y0041160D01*
X0068902Y0041113D01*
X0068906Y0041110D01*
X0068912Y0041104D01*
X0068924Y0041092D01*
X0068943Y0041080D01*
X0068964Y0041061D01*
X0068992Y0041043D01*
X0069023Y0041021D01*
X0069057Y0041002D01*
X0069097Y0040981D01*
X0069143Y0040959D01*
X0069190Y0040940D01*
X0069245Y0040922D01*
X0069301Y0040910D01*
X0069363Y0040897D01*
X0069428Y0040891D01*
X0069496Y0040888D01*
X0069514D01*
X0069536Y0040891D01*
X0069567D01*
X0069604Y0040897D01*
X0069647Y0040903D01*
X0069696Y0040913D01*
X0069752Y0040922D01*
X0069811Y0040937D01*
X0069873Y0040956D01*
X0069937Y0040978D01*
X0070002Y0041005D01*
X0070070Y0041036D01*
X0070138Y0041073D01*
X0070206Y0041117D01*
X0070274Y0041166D01*
Y0040789D01*
X0070271Y0040786D01*
X0070259Y0040780D01*
X0070240Y0040767D01*
X0070216Y0040752D01*
X0070182Y0040734D01*
X0070142Y0040715D01*
X0070095Y0040693D01*
X0070043Y0040672D01*
X0069981Y0040647D01*
X0069916Y0040625D01*
X0069845Y0040607D01*
X0069768Y0040588D01*
X0069684Y0040573D01*
X0069595Y0040560D01*
X0069499Y0040554D01*
X0069400Y0040551D01*
X0069375D01*
X0069350Y0040554D01*
X0069313Y0040557D01*
X0069267Y0040560D01*
X0069214Y0040570D01*
X0069159Y0040579D01*
X0069097Y0040594D01*
X0069032Y0040613D01*
X0068964Y0040635D01*
X0068893Y0040662D01*
X0068825Y0040693D01*
X0068754Y0040734D01*
X0068689Y0040780D01*
X0068624Y0040832D01*
X0068566Y0040891D01*
X0068563Y0040894D01*
X0068553Y0040907D01*
X0068538Y0040928D01*
X0068519Y0040956D01*
X0068494Y0040990D01*
X0068470Y0041033D01*
X0068442Y0041083D01*
X0068414Y0041141D01*
X0068386Y0041203D01*
X0068358Y0041277D01*
X0068334Y0041355D01*
X0068309Y0041441D01*
X0068291Y0041534D01*
X0068275Y0041633D01*
X0068266Y0041741D01*
X0068263Y0041852D01*
Y0041855D01*
Y0041858D01*
Y0041868D01*
Y0041877D01*
X0068266Y0041908D01*
X0068269Y0041951D01*
X0068272Y0042000D01*
X0068281Y0042056D01*
X0068291Y0042121D01*
X0068303Y0042192D01*
X0068322Y0042266D01*
X0068343Y0042343D01*
X0068371Y0042424D01*
X0068402Y0042504D01*
X0068439Y0042581D01*
X0068485Y0042662D01*
X0068535Y0042736D01*
X0068593Y0042807D01*
X0068597Y0042810D01*
X0068609Y0042822D01*
X0068627Y0042841D01*
X0068652Y0042866D01*
X0068686Y0042893D01*
X0068726Y0042924D01*
X0068770Y0042958D01*
X0068822Y0042992D01*
X0068878Y0043026D01*
X0068943Y0043060D01*
X0069011Y0043091D01*
X0069082Y0043119D01*
X0069159Y0043144D01*
X0069242Y0043162D01*
X0069329Y0043175D01*
X0069418Y0043178D01*
X0069440D01*
X0069465Y0043175D01*
D02*
G37*
G36*
X0056422Y0044179D02*
X0056444D01*
X0056465Y0044176D01*
X0056493D01*
X0056555Y0044166D01*
X0056626Y0044157D01*
X0056706Y0044142D01*
X0056793Y0044120D01*
X0056882Y0044095D01*
X0056978Y0044061D01*
X0057074Y0044021D01*
X0057173Y0043975D01*
X0057272Y0043919D01*
X0057364Y0043854D01*
X0057457Y0043777D01*
X0057543Y0043691D01*
X0057550Y0043684D01*
X0057562Y0043669D01*
X0057584Y0043641D01*
X0057615Y0043601D01*
X0057645Y0043551D01*
X0057686Y0043493D01*
X0057726Y0043425D01*
X0057766Y0043348D01*
X0057806Y0043258D01*
X0057846Y0043162D01*
X0057886Y0043057D01*
X0057920Y0042943D01*
X0057948Y0042819D01*
X0057970Y0042689D01*
X0057982Y0042553D01*
X0057989Y0042408D01*
Y0042405D01*
Y0042399D01*
Y0042387D01*
Y0042371D01*
X0057985Y0042349D01*
Y0042325D01*
X0057982Y0042297D01*
Y0042266D01*
X0057979Y0042232D01*
X0057976Y0042195D01*
X0057964Y0042112D01*
X0057951Y0042016D01*
X0057933Y0041917D01*
X0057908Y0041809D01*
X0057877Y0041698D01*
X0057840Y0041586D01*
X0057797Y0041472D01*
X0057744Y0041361D01*
X0057683Y0041249D01*
X0057612Y0041148D01*
X0057531Y0041049D01*
X0057525Y0041043D01*
X0057510Y0041027D01*
X0057485Y0041002D01*
X0057448Y0040971D01*
X0057401Y0040934D01*
X0057346Y0040891D01*
X0057284Y0040848D01*
X0057210Y0040801D01*
X0057126Y0040755D01*
X0057034Y0040709D01*
X0056935Y0040666D01*
X0056827Y0040628D01*
X0056709Y0040598D01*
X0056586Y0040573D01*
X0056453Y0040557D01*
X0056314Y0040551D01*
X0056280D01*
X0056264Y0040554D01*
X0056243D01*
X0056218Y0040557D01*
X0056190Y0040560D01*
X0056125Y0040567D01*
X0056054Y0040576D01*
X0055971Y0040591D01*
X0055884Y0040613D01*
X0055788Y0040638D01*
X0055693Y0040672D01*
X0055594Y0040712D01*
X0055492Y0040758D01*
X0055393Y0040814D01*
X0055297Y0040882D01*
X0055201Y0040956D01*
X0055115Y0041043D01*
X0055109Y0041049D01*
X0055096Y0041064D01*
X0055075Y0041092D01*
X0055044Y0041132D01*
X0055010Y0041181D01*
X0054973Y0041240D01*
X0054932Y0041308D01*
X0054892Y0041388D01*
X0054849Y0041475D01*
X0054809Y0041571D01*
X0054772Y0041676D01*
X0054738Y0041790D01*
X0054707Y0041914D01*
X0054685Y0042044D01*
X0054673Y0042180D01*
X0054667Y0042325D01*
Y0042328D01*
Y0042334D01*
Y0042346D01*
Y0042362D01*
X0054670Y0042384D01*
Y0042405D01*
X0054673Y0042433D01*
Y0042464D01*
X0054676Y0042498D01*
X0054682Y0042538D01*
X0054691Y0042618D01*
X0054704Y0042711D01*
X0054725Y0042810D01*
X0054747Y0042918D01*
X0054778Y0043026D01*
X0054815Y0043137D01*
X0054858Y0043252D01*
X0054911Y0043363D01*
X0054973Y0043471D01*
X0055044Y0043576D01*
X0055124Y0043675D01*
X0055130Y0043681D01*
X0055146Y0043697D01*
X0055170Y0043722D01*
X0055208Y0043755D01*
X0055254Y0043793D01*
X0055313Y0043836D01*
X0055377Y0043882D01*
X0055452Y0043929D01*
X0055538Y0043975D01*
X0055631Y0044021D01*
X0055733Y0044065D01*
X0055844Y0044102D01*
X0055964Y0044136D01*
X0056091Y0044160D01*
X0056227Y0044176D01*
X0056372Y0044182D01*
X0056403D01*
X0056422Y0044179D01*
D02*
G37*
G36*
X0044436Y0043175D02*
X0044476Y0043172D01*
X0044522Y0043168D01*
X0044578Y0043159D01*
X0044637Y0043150D01*
X0044701Y0043134D01*
X0044773Y0043116D01*
X0044844Y0043094D01*
X0044915Y0043066D01*
X0044989Y0043032D01*
X0045060Y0042992D01*
X0045131Y0042946D01*
X0045196Y0042893D01*
X0045258Y0042832D01*
X0045261Y0042829D01*
X0045270Y0042816D01*
X0045285Y0042794D01*
X0045307Y0042767D01*
X0045332Y0042733D01*
X0045357Y0042689D01*
X0045388Y0042640D01*
X0045415Y0042581D01*
X0045446Y0042516D01*
X0045474Y0042445D01*
X0045499Y0042368D01*
X0045523Y0042282D01*
X0045545Y0042189D01*
X0045561Y0042090D01*
X0045570Y0041985D01*
X0045573Y0041874D01*
Y0041871D01*
Y0041868D01*
Y0041858D01*
Y0041846D01*
X0045570Y0041815D01*
X0045567Y0041775D01*
X0045564Y0041722D01*
X0045554Y0041664D01*
X0045545Y0041599D01*
X0045530Y0041528D01*
X0045511Y0041453D01*
X0045489Y0041373D01*
X0045462Y0041293D01*
X0045431Y0041212D01*
X0045391Y0041132D01*
X0045344Y0041055D01*
X0045292Y0040981D01*
X0045233Y0040910D01*
X0045230Y0040907D01*
X0045217Y0040894D01*
X0045199Y0040876D01*
X0045171Y0040854D01*
X0045137Y0040826D01*
X0045097Y0040795D01*
X0045048Y0040764D01*
X0044992Y0040730D01*
X0044930Y0040696D01*
X0044862Y0040666D01*
X0044788Y0040635D01*
X0044708Y0040607D01*
X0044618Y0040585D01*
X0044525Y0040567D01*
X0044430Y0040554D01*
X0044324Y0040551D01*
X0044300D01*
X0044272Y0040554D01*
X0044232Y0040557D01*
X0044186Y0040560D01*
X0044130Y0040570D01*
X0044071Y0040579D01*
X0044006Y0040594D01*
X0043935Y0040613D01*
X0043864Y0040638D01*
X0043790Y0040666D01*
X0043716Y0040699D01*
X0043642Y0040740D01*
X0043567Y0040786D01*
X0043499Y0040839D01*
X0043435Y0040900D01*
X0043431Y0040903D01*
X0043419Y0040916D01*
X0043404Y0040937D01*
X0043382Y0040965D01*
X0043357Y0040999D01*
X0043330Y0041043D01*
X0043302Y0041092D01*
X0043271Y0041151D01*
X0043240Y0041212D01*
X0043209Y0041284D01*
X0043181Y0041361D01*
X0043156Y0041444D01*
X0043135Y0041531D01*
X0043119Y0041627D01*
X0043107Y0041728D01*
X0043104Y0041833D01*
Y0041837D01*
Y0041840D01*
Y0041849D01*
Y0041861D01*
X0043107Y0041895D01*
X0043110Y0041939D01*
X0043113Y0041991D01*
X0043123Y0042053D01*
X0043132Y0042121D01*
X0043147Y0042195D01*
X0043166Y0042272D01*
X0043187Y0042353D01*
X0043215Y0042436D01*
X0043249Y0042520D01*
X0043289Y0042600D01*
X0043333Y0042677D01*
X0043385Y0042751D01*
X0043447Y0042822D01*
X0043450Y0042825D01*
X0043462Y0042838D01*
X0043484Y0042856D01*
X0043512Y0042878D01*
X0043546Y0042906D01*
X0043589Y0042934D01*
X0043639Y0042968D01*
X0043694Y0043001D01*
X0043756Y0043032D01*
X0043827Y0043066D01*
X0043904Y0043094D01*
X0043988Y0043122D01*
X0044077Y0043144D01*
X0044173Y0043162D01*
X0044275Y0043175D01*
X0044383Y0043178D01*
X0044408D01*
X0044436Y0043175D01*
D02*
G37*
G36*
X0074433Y0005211D02*
X0074461Y0005205D01*
X0074489Y0005195D01*
X0074520Y0005180D01*
X0074551Y0005161D01*
X0074582Y0005137D01*
X0074585Y0005134D01*
X0074594Y0005125D01*
X0074607Y0005109D01*
X0074622Y0005087D01*
X0074634Y0005060D01*
X0074647Y0005029D01*
X0074656Y0004992D01*
X0074659Y0004951D01*
Y0004945D01*
Y0004933D01*
X0074656Y0004914D01*
X0074650Y0004887D01*
X0074641Y0004859D01*
X0074625Y0004828D01*
X0074607Y0004797D01*
X0074582Y0004766D01*
X0074579Y0004763D01*
X0074569Y0004754D01*
X0074551Y0004741D01*
X0074529Y0004729D01*
X0074502Y0004717D01*
X0074471Y0004704D01*
X0074437Y0004695D01*
X0074396Y0004692D01*
X0074378D01*
X0074359Y0004695D01*
X0074331Y0004701D01*
X0074304Y0004710D01*
X0074273Y0004723D01*
X0074242Y0004738D01*
X0074211Y0004763D01*
X0074208Y0004766D01*
X0074199Y0004775D01*
X0074186Y0004794D01*
X0074174Y0004815D01*
X0074162Y0004840D01*
X0074149Y0004874D01*
X0074140Y0004911D01*
X0074137Y0004951D01*
Y0004958D01*
Y0004970D01*
X0074140Y0004992D01*
X0074146Y0005016D01*
X0074155Y0005047D01*
X0074168Y0005078D01*
X0074186Y0005109D01*
X0074211Y0005137D01*
X0074214Y0005140D01*
X0074223Y0005149D01*
X0074242Y0005161D01*
X0074264Y0005177D01*
X0074291Y0005189D01*
X0074322Y0005202D01*
X0074356Y0005211D01*
X0074396Y0005214D01*
X0074415D01*
X0074433Y0005211D01*
D02*
G37*
G36*
X0051855Y0005115D02*
X0051898D01*
X0051948Y0005112D01*
X0052003Y0005109D01*
X0052062Y0005103D01*
X0052185Y0005087D01*
X0052309Y0005066D01*
X0052371Y0005050D01*
X0052426Y0005035D01*
X0052482Y0005013D01*
X0052529Y0004992D01*
Y0004528D01*
X0052525Y0004531D01*
X0052513Y0004537D01*
X0052498Y0004547D01*
X0052473Y0004562D01*
X0052442Y0004578D01*
X0052405Y0004596D01*
X0052362Y0004618D01*
X0052312Y0004636D01*
X0052257Y0004658D01*
X0052195Y0004676D01*
X0052130Y0004695D01*
X0052059Y0004710D01*
X0051985Y0004726D01*
X0051904Y0004735D01*
X0051818Y0004741D01*
X0051728Y0004744D01*
X0051679D01*
X0051645Y0004741D01*
X0051605Y0004738D01*
X0051558Y0004732D01*
X0051509Y0004726D01*
X0051459Y0004717D01*
X0051453D01*
X0051438Y0004710D01*
X0051413Y0004704D01*
X0051379Y0004695D01*
X0051342Y0004683D01*
X0051302Y0004667D01*
X0051258Y0004645D01*
X0051218Y0004624D01*
X0051215Y0004621D01*
X0051200Y0004611D01*
X0051181Y0004599D01*
X0051157Y0004581D01*
X0051132Y0004556D01*
X0051101Y0004528D01*
X0051073Y0004497D01*
X0051048Y0004460D01*
X0051045Y0004457D01*
X0051039Y0004442D01*
X0051027Y0004420D01*
X0051017Y0004392D01*
X0051005Y0004358D01*
X0050993Y0004315D01*
X0050987Y0004268D01*
X0050984Y0004216D01*
Y0004210D01*
Y0004194D01*
X0050987Y0004167D01*
X0050990Y0004136D01*
X0050996Y0004099D01*
X0051005Y0004058D01*
X0051017Y0004018D01*
X0051033Y0003981D01*
X0051036Y0003978D01*
X0051042Y0003966D01*
X0051055Y0003947D01*
X0051070Y0003923D01*
X0051092Y0003895D01*
X0051116Y0003864D01*
X0051147Y0003833D01*
X0051181Y0003802D01*
X0051184Y0003799D01*
X0051200Y0003790D01*
X0051221Y0003771D01*
X0051249Y0003752D01*
X0051283Y0003728D01*
X0051323Y0003703D01*
X0051370Y0003672D01*
X0051419Y0003644D01*
X0051422D01*
X0051425Y0003641D01*
X0051444Y0003632D01*
X0051475Y0003617D01*
X0051512Y0003595D01*
X0051561Y0003573D01*
X0051617Y0003545D01*
X0051679Y0003515D01*
X0051744Y0003481D01*
X0051747D01*
X0051753Y0003478D01*
X0051762Y0003471D01*
X0051775Y0003465D01*
X0051793Y0003456D01*
X0051812Y0003447D01*
X0051858Y0003422D01*
X0051914Y0003391D01*
X0051975Y0003357D01*
X0052037Y0003323D01*
X0052102Y0003283D01*
X0052105D01*
X0052108Y0003280D01*
X0052118Y0003274D01*
X0052130Y0003264D01*
X0052164Y0003243D01*
X0052204Y0003215D01*
X0052250Y0003181D01*
X0052300Y0003144D01*
X0052349Y0003101D01*
X0052399Y0003054D01*
X0052405Y0003048D01*
X0052420Y0003032D01*
X0052442Y0003008D01*
X0052473Y0002974D01*
X0052504Y0002934D01*
X0052538Y0002887D01*
X0052569Y0002835D01*
X0052600Y0002779D01*
Y0002776D01*
X0052603Y0002773D01*
X0052606Y0002764D01*
X0052612Y0002751D01*
X0052624Y0002720D01*
X0052640Y0002680D01*
X0052652Y0002628D01*
X0052664Y0002569D01*
X0052674Y0002504D01*
X0052677Y0002433D01*
Y0002430D01*
Y0002421D01*
Y0002408D01*
Y0002390D01*
X0052674Y0002368D01*
X0052671Y0002340D01*
X0052667Y0002313D01*
X0052664Y0002282D01*
X0052652Y0002211D01*
X0052634Y0002136D01*
X0052609Y0002062D01*
X0052575Y0001991D01*
Y0001988D01*
X0052572Y0001982D01*
X0052565Y0001973D01*
X0052556Y0001960D01*
X0052535Y0001929D01*
X0052504Y0001886D01*
X0052464Y0001840D01*
X0052417Y0001790D01*
X0052362Y0001744D01*
X0052300Y0001698D01*
X0052297D01*
X0052290Y0001691D01*
X0052281Y0001688D01*
X0052269Y0001679D01*
X0052254Y0001670D01*
X0052232Y0001661D01*
X0052185Y0001636D01*
X0052127Y0001611D01*
X0052059Y0001583D01*
X0051985Y0001559D01*
X0051901Y0001537D01*
X0051898D01*
X0051892Y0001534D01*
X0051880D01*
X0051861Y0001531D01*
X0051842Y0001525D01*
X0051818Y0001522D01*
X0051790Y0001518D01*
X0051756Y0001512D01*
X0051685Y0001503D01*
X0051605Y0001497D01*
X0051518Y0001491D01*
X0051425Y0001488D01*
X0051391D01*
X0051370Y0001491D01*
X0051339D01*
X0051302Y0001494D01*
X0051262Y0001497D01*
X0051218Y0001503D01*
X0051212D01*
X0051197Y0001506D01*
X0051172Y0001509D01*
X0051141Y0001512D01*
X0051104Y0001518D01*
X0051061Y0001525D01*
X0051017Y0001531D01*
X0050968Y0001540D01*
X0050962D01*
X0050946Y0001543D01*
X0050922Y0001549D01*
X0050891Y0001559D01*
X0050854Y0001565D01*
X0050814Y0001577D01*
X0050727Y0001602D01*
X0050721Y0001605D01*
X0050709Y0001608D01*
X0050687Y0001617D01*
X0050662Y0001627D01*
X0050634Y0001639D01*
X0050603Y0001654D01*
X0050573Y0001670D01*
X0050545Y0001688D01*
Y0002173D01*
X0050548Y0002170D01*
X0050560Y0002161D01*
X0050579Y0002146D01*
X0050600Y0002130D01*
X0050631Y0002109D01*
X0050665Y0002087D01*
X0050702Y0002062D01*
X0050745Y0002041D01*
X0050752Y0002038D01*
X0050767Y0002031D01*
X0050789Y0002019D01*
X0050820Y0002007D01*
X0050857Y0001991D01*
X0050897Y0001973D01*
X0050943Y0001954D01*
X0050990Y0001939D01*
X0050996Y0001936D01*
X0051011Y0001932D01*
X0051039Y0001926D01*
X0051070Y0001917D01*
X0051110Y0001905D01*
X0051153Y0001895D01*
X0051249Y0001877D01*
X0051255D01*
X0051271Y0001874D01*
X0051296Y0001871D01*
X0051329Y0001868D01*
X0051367Y0001861D01*
X0051407Y0001858D01*
X0051490Y0001855D01*
X0051527D01*
X0051552Y0001858D01*
X0051583D01*
X0051620Y0001861D01*
X0051660Y0001868D01*
X0051703Y0001874D01*
X0051796Y0001889D01*
X0051889Y0001914D01*
X0051978Y0001948D01*
X0052019Y0001970D01*
X0052056Y0001994D01*
X0052059Y0001997D01*
X0052065Y0002001D01*
X0052074Y0002010D01*
X0052087Y0002022D01*
X0052099Y0002035D01*
X0052114Y0002053D01*
X0052133Y0002075D01*
X0052152Y0002099D01*
X0052167Y0002127D01*
X0052185Y0002155D01*
X0052216Y0002226D01*
X0052226Y0002266D01*
X0052235Y0002310D01*
X0052241Y0002353D01*
X0052244Y0002402D01*
Y0002405D01*
Y0002408D01*
Y0002427D01*
X0052241Y0002452D01*
X0052238Y0002486D01*
X0052229Y0002526D01*
X0052219Y0002566D01*
X0052204Y0002609D01*
X0052182Y0002649D01*
X0052179Y0002656D01*
X0052170Y0002668D01*
X0052158Y0002686D01*
X0052139Y0002714D01*
X0052114Y0002742D01*
X0052083Y0002776D01*
X0052049Y0002807D01*
X0052009Y0002841D01*
X0052003Y0002844D01*
X0051991Y0002856D01*
X0051966Y0002875D01*
X0051935Y0002897D01*
X0051895Y0002921D01*
X0051852Y0002949D01*
X0051802Y0002980D01*
X0051747Y0003008D01*
X0051744D01*
X0051740Y0003011D01*
X0051731Y0003017D01*
X0051722Y0003023D01*
X0051691Y0003039D01*
X0051651Y0003060D01*
X0051601Y0003085D01*
X0051546Y0003113D01*
X0051487Y0003144D01*
X0051422Y0003178D01*
X0051419D01*
X0051413Y0003181D01*
X0051404Y0003187D01*
X0051391Y0003193D01*
X0051357Y0003212D01*
X0051311Y0003237D01*
X0051258Y0003264D01*
X0051200Y0003295D01*
X0051079Y0003366D01*
X0051076D01*
X0051073Y0003369D01*
X0051064Y0003376D01*
X0051051Y0003382D01*
X0051024Y0003403D01*
X0050987Y0003428D01*
X0050943Y0003459D01*
X0050897Y0003496D01*
X0050851Y0003533D01*
X0050804Y0003576D01*
X0050798Y0003583D01*
X0050786Y0003598D01*
X0050764Y0003620D01*
X0050736Y0003650D01*
X0050709Y0003691D01*
X0050678Y0003734D01*
X0050647Y0003783D01*
X0050619Y0003836D01*
Y0003839D01*
X0050616Y0003842D01*
X0050613Y0003851D01*
X0050610Y0003864D01*
X0050597Y0003895D01*
X0050585Y0003935D01*
X0050573Y0003984D01*
X0050560Y0004043D01*
X0050554Y0004108D01*
X0050551Y0004179D01*
Y0004182D01*
Y0004188D01*
Y0004204D01*
X0050554Y0004219D01*
Y0004241D01*
X0050557Y0004265D01*
X0050563Y0004321D01*
X0050576Y0004386D01*
X0050594Y0004457D01*
X0050622Y0004528D01*
X0050656Y0004596D01*
Y0004599D01*
X0050662Y0004605D01*
X0050668Y0004615D01*
X0050674Y0004627D01*
X0050699Y0004658D01*
X0050730Y0004701D01*
X0050770Y0004747D01*
X0050817Y0004797D01*
X0050869Y0004843D01*
X0050931Y0004890D01*
X0050934D01*
X0050940Y0004896D01*
X0050950Y0004902D01*
X0050962Y0004908D01*
X0050977Y0004917D01*
X0050996Y0004930D01*
X0051045Y0004955D01*
X0051104Y0004982D01*
X0051169Y0005010D01*
X0051243Y0005038D01*
X0051323Y0005060D01*
X0051327D01*
X0051333Y0005063D01*
X0051345Y0005066D01*
X0051360Y0005069D01*
X0051382Y0005072D01*
X0051404Y0005078D01*
X0051432Y0005084D01*
X0051462Y0005091D01*
X0051530Y0005100D01*
X0051605Y0005109D01*
X0051688Y0005115D01*
X0051771Y0005118D01*
X0051821D01*
X0051855Y0005115D01*
D02*
G37*
G36*
X0059620Y0001546D02*
X0059218D01*
Y0001970D01*
X0059209D01*
X0059206Y0001963D01*
X0059197Y0001948D01*
X0059178Y0001926D01*
X0059157Y0001895D01*
X0059126Y0001858D01*
X0059092Y0001818D01*
X0059048Y0001775D01*
X0058996Y0001729D01*
X0058940Y0001682D01*
X0058875Y0001639D01*
X0058804Y0001599D01*
X0058727Y0001562D01*
X0058644Y0001531D01*
X0058551Y0001509D01*
X0058452Y0001494D01*
X0058347Y0001488D01*
X0058325D01*
X0058301Y0001491D01*
X0058270Y0001494D01*
X0058230Y0001497D01*
X0058183Y0001506D01*
X0058131Y0001515D01*
X0058075Y0001531D01*
X0058016Y0001546D01*
X0057955Y0001571D01*
X0057893Y0001596D01*
X0057828Y0001630D01*
X0057766Y0001667D01*
X0057704Y0001713D01*
X0057645Y0001766D01*
X0057590Y0001824D01*
X0057587Y0001827D01*
X0057578Y0001840D01*
X0057565Y0001858D01*
X0057547Y0001886D01*
X0057525Y0001920D01*
X0057500Y0001960D01*
X0057476Y0002010D01*
X0057451Y0002065D01*
X0057423Y0002127D01*
X0057398Y0002195D01*
X0057374Y0002272D01*
X0057352Y0002353D01*
X0057333Y0002439D01*
X0057321Y0002535D01*
X0057312Y0002634D01*
X0057309Y0002739D01*
Y0002742D01*
Y0002745D01*
Y0002754D01*
Y0002767D01*
X0057312Y0002798D01*
X0057315Y0002841D01*
X0057318Y0002897D01*
X0057324Y0002955D01*
X0057333Y0003023D01*
X0057349Y0003097D01*
X0057364Y0003175D01*
X0057386Y0003258D01*
X0057411Y0003339D01*
X0057442Y0003425D01*
X0057476Y0003505D01*
X0057519Y0003586D01*
X0057565Y0003663D01*
X0057621Y0003737D01*
X0057624Y0003740D01*
X0057636Y0003752D01*
X0057655Y0003771D01*
X0057679Y0003796D01*
X0057710Y0003824D01*
X0057748Y0003858D01*
X0057794Y0003892D01*
X0057843Y0003926D01*
X0057902Y0003960D01*
X0057964Y0003994D01*
X0058032Y0004028D01*
X0058106Y0004055D01*
X0058186Y0004080D01*
X0058273Y0004099D01*
X0058362Y0004111D01*
X0058458Y0004114D01*
X0058480D01*
X0058508Y0004111D01*
X0058542Y0004108D01*
X0058585Y0004102D01*
X0058634Y0004092D01*
X0058687Y0004080D01*
X0058746Y0004065D01*
X0058807Y0004043D01*
X0058869Y0004015D01*
X0058931Y0003981D01*
X0058993Y0003941D01*
X0059052Y0003895D01*
X0059110Y0003842D01*
X0059163Y0003777D01*
X0059209Y0003706D01*
X0059218D01*
Y0005260D01*
X0059620D01*
Y0001546D01*
D02*
G37*
G36*
X0047655Y0004111D02*
X0047690Y0004108D01*
X0047730Y0004105D01*
X0047776Y0004095D01*
X0047829Y0004086D01*
X0047887Y0004071D01*
X0047946Y0004052D01*
X0048008Y0004031D01*
X0048070Y0004003D01*
X0048134Y0003972D01*
X0048196Y0003932D01*
X0048255Y0003885D01*
X0048314Y0003833D01*
X0048366Y0003774D01*
X0048369Y0003771D01*
X0048379Y0003759D01*
X0048391Y0003740D01*
X0048410Y0003712D01*
X0048428Y0003678D01*
X0048453Y0003638D01*
X0048478Y0003589D01*
X0048502Y0003536D01*
X0048527Y0003474D01*
X0048552Y0003406D01*
X0048576Y0003332D01*
X0048595Y0003252D01*
X0048613Y0003165D01*
X0048626Y0003073D01*
X0048635Y0002974D01*
X0048638Y0002872D01*
Y0002869D01*
Y0002866D01*
Y0002856D01*
Y0002844D01*
X0048635Y0002810D01*
X0048632Y0002767D01*
X0048629Y0002714D01*
X0048623Y0002653D01*
X0048613Y0002585D01*
X0048601Y0002510D01*
X0048583Y0002433D01*
X0048564Y0002350D01*
X0048539Y0002266D01*
X0048508Y0002183D01*
X0048474Y0002099D01*
X0048434Y0002016D01*
X0048385Y0001939D01*
X0048332Y0001864D01*
X0048329Y0001861D01*
X0048317Y0001849D01*
X0048301Y0001830D01*
X0048277Y0001806D01*
X0048246Y0001778D01*
X0048209Y0001744D01*
X0048162Y0001710D01*
X0048113Y0001676D01*
X0048057Y0001642D01*
X0047992Y0001608D01*
X0047924Y0001574D01*
X0047850Y0001546D01*
X0047770Y0001522D01*
X0047683Y0001503D01*
X0047591Y0001491D01*
X0047495Y0001488D01*
X0047473D01*
X0047449Y0001491D01*
X0047414Y0001494D01*
X0047374Y0001500D01*
X0047328Y0001509D01*
X0047276Y0001522D01*
X0047217Y0001540D01*
X0047158Y0001562D01*
X0047096Y0001589D01*
X0047034Y0001623D01*
X0046970Y0001664D01*
X0046908Y0001713D01*
X0046849Y0001769D01*
X0046793Y0001834D01*
X0046741Y0001908D01*
X0046732D01*
Y0000394D01*
X0046330D01*
Y0004055D01*
X0046732D01*
Y0003613D01*
X0046741D01*
X0046744Y0003620D01*
X0046756Y0003635D01*
X0046772Y0003660D01*
X0046797Y0003691D01*
X0046827Y0003731D01*
X0046865Y0003771D01*
X0046911Y0003817D01*
X0046960Y0003864D01*
X0047019Y0003910D01*
X0047084Y0003957D01*
X0047155Y0003997D01*
X0047232Y0004037D01*
X0047316Y0004068D01*
X0047408Y0004092D01*
X0047504Y0004108D01*
X0047609Y0004114D01*
X0047631D01*
X0047655Y0004111D01*
D02*
G37*
G36*
X0076272D02*
X0076300D01*
X0076334Y0004108D01*
X0076371Y0004105D01*
X0076411Y0004099D01*
X0076504Y0004086D01*
X0076600Y0004065D01*
X0076701Y0004037D01*
X0076800Y0004000D01*
Y0003592D01*
X0076797Y0003595D01*
X0076788Y0003601D01*
X0076773Y0003607D01*
X0076751Y0003620D01*
X0076726Y0003635D01*
X0076695Y0003650D01*
X0076658Y0003666D01*
X0076618Y0003684D01*
X0076572Y0003700D01*
X0076525Y0003715D01*
X0076473Y0003731D01*
X0076417Y0003746D01*
X0076355Y0003759D01*
X0076294Y0003765D01*
X0076232Y0003771D01*
X0076164Y0003774D01*
X0076124D01*
X0076096Y0003771D01*
X0076065Y0003768D01*
X0076031Y0003762D01*
X0075960Y0003746D01*
X0075957D01*
X0075945Y0003743D01*
X0075929Y0003737D01*
X0075907Y0003728D01*
X0075858Y0003706D01*
X0075805Y0003675D01*
X0075802Y0003672D01*
X0075796Y0003666D01*
X0075784Y0003657D01*
X0075768Y0003644D01*
X0075734Y0003610D01*
X0075704Y0003564D01*
Y0003561D01*
X0075697Y0003552D01*
X0075694Y0003539D01*
X0075688Y0003521D01*
X0075682Y0003502D01*
X0075676Y0003478D01*
X0075673Y0003450D01*
X0075669Y0003422D01*
Y0003419D01*
Y0003406D01*
X0075673Y0003388D01*
Y0003363D01*
X0075679Y0003339D01*
X0075685Y0003311D01*
X0075691Y0003283D01*
X0075704Y0003255D01*
X0075707Y0003252D01*
X0075710Y0003243D01*
X0075719Y0003230D01*
X0075731Y0003215D01*
X0075747Y0003199D01*
X0075762Y0003178D01*
X0075809Y0003138D01*
X0075812Y0003134D01*
X0075821Y0003128D01*
X0075836Y0003119D01*
X0075855Y0003107D01*
X0075880Y0003094D01*
X0075907Y0003079D01*
X0075941Y0003060D01*
X0075975Y0003045D01*
X0075978Y0003042D01*
X0075994Y0003039D01*
X0076012Y0003029D01*
X0076040Y0003020D01*
X0076074Y0003005D01*
X0076111Y0002989D01*
X0076152Y0002974D01*
X0076198Y0002955D01*
X0076201D01*
X0076204Y0002952D01*
X0076213Y0002949D01*
X0076226Y0002946D01*
X0076257Y0002934D01*
X0076297Y0002915D01*
X0076343Y0002897D01*
X0076396Y0002875D01*
X0076448Y0002850D01*
X0076498Y0002826D01*
X0076501D01*
X0076504Y0002822D01*
X0076519Y0002813D01*
X0076544Y0002801D01*
X0076575Y0002782D01*
X0076612Y0002757D01*
X0076649Y0002733D01*
X0076686Y0002702D01*
X0076723Y0002671D01*
X0076726Y0002668D01*
X0076739Y0002656D01*
X0076754Y0002640D01*
X0076776Y0002615D01*
X0076797Y0002588D01*
X0076822Y0002554D01*
X0076844Y0002517D01*
X0076865Y0002476D01*
X0076868Y0002470D01*
X0076875Y0002458D01*
X0076881Y0002433D01*
X0076890Y0002402D01*
X0076899Y0002365D01*
X0076909Y0002322D01*
X0076912Y0002272D01*
X0076915Y0002217D01*
Y0002214D01*
Y0002207D01*
Y0002198D01*
Y0002186D01*
X0076912Y0002152D01*
X0076906Y0002105D01*
X0076893Y0002056D01*
X0076881Y0002001D01*
X0076859Y0001945D01*
X0076831Y0001892D01*
X0076828Y0001886D01*
X0076816Y0001871D01*
X0076797Y0001846D01*
X0076773Y0001812D01*
X0076742Y0001778D01*
X0076705Y0001738D01*
X0076661Y0001701D01*
X0076612Y0001664D01*
X0076606Y0001661D01*
X0076587Y0001648D01*
X0076559Y0001633D01*
X0076522Y0001614D01*
X0076476Y0001593D01*
X0076420Y0001571D01*
X0076362Y0001549D01*
X0076297Y0001531D01*
X0076294D01*
X0076288Y0001528D01*
X0076278D01*
X0076266Y0001525D01*
X0076250Y0001522D01*
X0076232Y0001518D01*
X0076186Y0001509D01*
X0076127Y0001500D01*
X0076065Y0001494D01*
X0075997Y0001491D01*
X0075923Y0001488D01*
X0075886D01*
X0075858Y0001491D01*
X0075824D01*
X0075787Y0001497D01*
X0075740Y0001500D01*
X0075694Y0001506D01*
X0075642Y0001515D01*
X0075589Y0001525D01*
X0075478Y0001549D01*
X0075364Y0001586D01*
X0075308Y0001611D01*
X0075252Y0001636D01*
Y0002065D01*
X0075255Y0002062D01*
X0075268Y0002056D01*
X0075286Y0002044D01*
X0075311Y0002028D01*
X0075342Y0002010D01*
X0075376Y0001988D01*
X0075419Y0001966D01*
X0075466Y0001945D01*
X0075518Y0001923D01*
X0075574Y0001902D01*
X0075632Y0001880D01*
X0075694Y0001861D01*
X0075762Y0001846D01*
X0075830Y0001834D01*
X0075901Y0001827D01*
X0075975Y0001824D01*
X0075997D01*
X0076025Y0001827D01*
X0076059Y0001830D01*
X0076099Y0001837D01*
X0076142Y0001843D01*
X0076192Y0001855D01*
X0076241Y0001868D01*
X0076288Y0001886D01*
X0076337Y0001911D01*
X0076380Y0001939D01*
X0076420Y0001973D01*
X0076454Y0002013D01*
X0076482Y0002059D01*
X0076498Y0002115D01*
X0076504Y0002146D01*
Y0002177D01*
Y0002180D01*
Y0002195D01*
X0076501Y0002214D01*
X0076498Y0002235D01*
X0076491Y0002263D01*
X0076485Y0002291D01*
X0076473Y0002319D01*
X0076457Y0002347D01*
X0076454Y0002350D01*
X0076448Y0002359D01*
X0076439Y0002371D01*
X0076427Y0002390D01*
X0076408Y0002408D01*
X0076389Y0002430D01*
X0076365Y0002448D01*
X0076337Y0002470D01*
X0076334Y0002473D01*
X0076325Y0002479D01*
X0076306Y0002489D01*
X0076284Y0002504D01*
X0076260Y0002520D01*
X0076229Y0002535D01*
X0076192Y0002551D01*
X0076155Y0002566D01*
X0076148Y0002569D01*
X0076136Y0002572D01*
X0076114Y0002581D01*
X0076087Y0002594D01*
X0076056Y0002609D01*
X0076016Y0002625D01*
X0075975Y0002640D01*
X0075932Y0002659D01*
X0075929D01*
X0075926Y0002662D01*
X0075917Y0002665D01*
X0075904Y0002671D01*
X0075873Y0002683D01*
X0075833Y0002699D01*
X0075787Y0002720D01*
X0075738Y0002742D01*
X0075688Y0002767D01*
X0075639Y0002792D01*
X0075632Y0002795D01*
X0075617Y0002804D01*
X0075595Y0002816D01*
X0075564Y0002835D01*
X0075530Y0002860D01*
X0075496Y0002884D01*
X0075459Y0002912D01*
X0075425Y0002943D01*
X0075422Y0002946D01*
X0075413Y0002958D01*
X0075398Y0002974D01*
X0075379Y0002998D01*
X0075357Y0003026D01*
X0075336Y0003060D01*
X0075317Y0003094D01*
X0075299Y0003134D01*
X0075296Y0003141D01*
X0075292Y0003153D01*
X0075286Y0003178D01*
X0075280Y0003206D01*
X0075271Y0003243D01*
X0075265Y0003286D01*
X0075262Y0003335D01*
X0075258Y0003388D01*
Y0003391D01*
Y0003397D01*
Y0003406D01*
Y0003419D01*
X0075262Y0003450D01*
X0075268Y0003493D01*
X0075277Y0003542D01*
X0075292Y0003595D01*
X0075311Y0003647D01*
X0075339Y0003700D01*
Y0003703D01*
X0075342Y0003706D01*
X0075354Y0003722D01*
X0075373Y0003746D01*
X0075394Y0003780D01*
X0075425Y0003814D01*
X0075463Y0003851D01*
X0075506Y0003892D01*
X0075552Y0003926D01*
X0075555D01*
X0075558Y0003929D01*
X0075577Y0003941D01*
X0075605Y0003957D01*
X0075642Y0003978D01*
X0075688Y0004000D01*
X0075740Y0004024D01*
X0075799Y0004046D01*
X0075861Y0004065D01*
X0075864D01*
X0075870Y0004068D01*
X0075880Y0004071D01*
X0075892Y0004074D01*
X0075907Y0004077D01*
X0075926Y0004080D01*
X0075969Y0004089D01*
X0076025Y0004099D01*
X0076083Y0004108D01*
X0076148Y0004111D01*
X0076216Y0004114D01*
X0076247D01*
X0076272Y0004111D01*
D02*
G37*
G36*
X0072929D02*
X0072957D01*
X0072990Y0004108D01*
X0073027Y0004105D01*
X0073068Y0004099D01*
X0073160Y0004086D01*
X0073256Y0004065D01*
X0073358Y0004037D01*
X0073457Y0004000D01*
Y0003592D01*
X0073454Y0003595D01*
X0073445Y0003601D01*
X0073429Y0003607D01*
X0073408Y0003620D01*
X0073383Y0003635D01*
X0073352Y0003650D01*
X0073315Y0003666D01*
X0073275Y0003684D01*
X0073228Y0003700D01*
X0073182Y0003715D01*
X0073129Y0003731D01*
X0073074Y0003746D01*
X0073012Y0003759D01*
X0072950Y0003765D01*
X0072888Y0003771D01*
X0072821Y0003774D01*
X0072780D01*
X0072752Y0003771D01*
X0072722Y0003768D01*
X0072688Y0003762D01*
X0072617Y0003746D01*
X0072614D01*
X0072601Y0003743D01*
X0072586Y0003737D01*
X0072564Y0003728D01*
X0072515Y0003706D01*
X0072462Y0003675D01*
X0072459Y0003672D01*
X0072453Y0003666D01*
X0072440Y0003657D01*
X0072425Y0003644D01*
X0072391Y0003610D01*
X0072360Y0003564D01*
Y0003561D01*
X0072354Y0003552D01*
X0072351Y0003539D01*
X0072345Y0003521D01*
X0072338Y0003502D01*
X0072332Y0003478D01*
X0072329Y0003450D01*
X0072326Y0003422D01*
Y0003419D01*
Y0003406D01*
X0072329Y0003388D01*
Y0003363D01*
X0072335Y0003339D01*
X0072342Y0003311D01*
X0072348Y0003283D01*
X0072360Y0003255D01*
X0072363Y0003252D01*
X0072366Y0003243D01*
X0072376Y0003230D01*
X0072388Y0003215D01*
X0072403Y0003199D01*
X0072419Y0003178D01*
X0072465Y0003138D01*
X0072468Y0003134D01*
X0072478Y0003128D01*
X0072493Y0003119D01*
X0072512Y0003107D01*
X0072536Y0003094D01*
X0072564Y0003079D01*
X0072598Y0003060D01*
X0072632Y0003045D01*
X0072635Y0003042D01*
X0072650Y0003039D01*
X0072669Y0003029D01*
X0072697Y0003020D01*
X0072731Y0003005D01*
X0072768Y0002989D01*
X0072808Y0002974D01*
X0072855Y0002955D01*
X0072858D01*
X0072861Y0002952D01*
X0072870Y0002949D01*
X0072882Y0002946D01*
X0072913Y0002934D01*
X0072953Y0002915D01*
X0073000Y0002897D01*
X0073052Y0002875D01*
X0073105Y0002850D01*
X0073154Y0002826D01*
X0073157D01*
X0073160Y0002822D01*
X0073176Y0002813D01*
X0073201Y0002801D01*
X0073232Y0002782D01*
X0073269Y0002757D01*
X0073306Y0002733D01*
X0073343Y0002702D01*
X0073380Y0002671D01*
X0073383Y0002668D01*
X0073395Y0002656D01*
X0073411Y0002640D01*
X0073432Y0002615D01*
X0073454Y0002588D01*
X0073479Y0002554D01*
X0073500Y0002517D01*
X0073522Y0002476D01*
X0073525Y0002470D01*
X0073531Y0002458D01*
X0073537Y0002433D01*
X0073547Y0002402D01*
X0073556Y0002365D01*
X0073565Y0002322D01*
X0073568Y0002272D01*
X0073571Y0002217D01*
Y0002214D01*
Y0002207D01*
Y0002198D01*
Y0002186D01*
X0073568Y0002152D01*
X0073562Y0002105D01*
X0073550Y0002056D01*
X0073537Y0002001D01*
X0073516Y0001945D01*
X0073488Y0001892D01*
X0073485Y0001886D01*
X0073472Y0001871D01*
X0073454Y0001846D01*
X0073429Y0001812D01*
X0073398Y0001778D01*
X0073361Y0001738D01*
X0073318Y0001701D01*
X0073269Y0001664D01*
X0073262Y0001661D01*
X0073244Y0001648D01*
X0073216Y0001633D01*
X0073179Y0001614D01*
X0073133Y0001593D01*
X0073077Y0001571D01*
X0073018Y0001549D01*
X0072953Y0001531D01*
X0072950D01*
X0072944Y0001528D01*
X0072935D01*
X0072922Y0001525D01*
X0072907Y0001522D01*
X0072888Y0001518D01*
X0072842Y0001509D01*
X0072783Y0001500D01*
X0072722Y0001494D01*
X0072654Y0001491D01*
X0072579Y0001488D01*
X0072542D01*
X0072515Y0001491D01*
X0072481D01*
X0072443Y0001497D01*
X0072397Y0001500D01*
X0072351Y0001506D01*
X0072298Y0001515D01*
X0072246Y0001525D01*
X0072135Y0001549D01*
X0072020Y0001586D01*
X0071965Y0001611D01*
X0071909Y0001636D01*
Y0002065D01*
X0071912Y0002062D01*
X0071924Y0002056D01*
X0071943Y0002044D01*
X0071968Y0002028D01*
X0071999Y0002010D01*
X0072033Y0001988D01*
X0072076Y0001966D01*
X0072122Y0001945D01*
X0072175Y0001923D01*
X0072230Y0001902D01*
X0072289Y0001880D01*
X0072351Y0001861D01*
X0072419Y0001846D01*
X0072487Y0001834D01*
X0072558Y0001827D01*
X0072632Y0001824D01*
X0072654D01*
X0072681Y0001827D01*
X0072715Y0001830D01*
X0072756Y0001837D01*
X0072799Y0001843D01*
X0072848Y0001855D01*
X0072898Y0001868D01*
X0072944Y0001886D01*
X0072993Y0001911D01*
X0073037Y0001939D01*
X0073077Y0001973D01*
X0073111Y0002013D01*
X0073139Y0002059D01*
X0073154Y0002115D01*
X0073160Y0002146D01*
Y0002177D01*
Y0002180D01*
Y0002195D01*
X0073157Y0002214D01*
X0073154Y0002235D01*
X0073148Y0002263D01*
X0073142Y0002291D01*
X0073129Y0002319D01*
X0073114Y0002347D01*
X0073111Y0002350D01*
X0073105Y0002359D01*
X0073096Y0002371D01*
X0073083Y0002390D01*
X0073065Y0002408D01*
X0073046Y0002430D01*
X0073021Y0002448D01*
X0072993Y0002470D01*
X0072990Y0002473D01*
X0072981Y0002479D01*
X0072963Y0002489D01*
X0072941Y0002504D01*
X0072916Y0002520D01*
X0072885Y0002535D01*
X0072848Y0002551D01*
X0072811Y0002566D01*
X0072805Y0002569D01*
X0072793Y0002572D01*
X0072771Y0002581D01*
X0072743Y0002594D01*
X0072712Y0002609D01*
X0072672Y0002625D01*
X0072632Y0002640D01*
X0072589Y0002659D01*
X0072586D01*
X0072583Y0002662D01*
X0072573Y0002665D01*
X0072561Y0002671D01*
X0072530Y0002683D01*
X0072490Y0002699D01*
X0072443Y0002720D01*
X0072394Y0002742D01*
X0072345Y0002767D01*
X0072295Y0002792D01*
X0072289Y0002795D01*
X0072274Y0002804D01*
X0072252Y0002816D01*
X0072221Y0002835D01*
X0072187Y0002860D01*
X0072153Y0002884D01*
X0072116Y0002912D01*
X0072082Y0002943D01*
X0072079Y0002946D01*
X0072070Y0002958D01*
X0072054Y0002974D01*
X0072036Y0002998D01*
X0072014Y0003026D01*
X0071992Y0003060D01*
X0071974Y0003094D01*
X0071955Y0003134D01*
X0071952Y0003141D01*
X0071949Y0003153D01*
X0071943Y0003178D01*
X0071937Y0003206D01*
X0071927Y0003243D01*
X0071921Y0003286D01*
X0071918Y0003335D01*
X0071915Y0003388D01*
Y0003391D01*
Y0003397D01*
Y0003406D01*
Y0003419D01*
X0071918Y0003450D01*
X0071924Y0003493D01*
X0071934Y0003542D01*
X0071949Y0003595D01*
X0071968Y0003647D01*
X0071996Y0003700D01*
Y0003703D01*
X0071999Y0003706D01*
X0072011Y0003722D01*
X0072030Y0003746D01*
X0072051Y0003780D01*
X0072082Y0003814D01*
X0072119Y0003851D01*
X0072162Y0003892D01*
X0072209Y0003926D01*
X0072212D01*
X0072215Y0003929D01*
X0072233Y0003941D01*
X0072261Y0003957D01*
X0072298Y0003978D01*
X0072345Y0004000D01*
X0072397Y0004024D01*
X0072456Y0004046D01*
X0072518Y0004065D01*
X0072521D01*
X0072527Y0004068D01*
X0072536Y0004071D01*
X0072549Y0004074D01*
X0072564Y0004077D01*
X0072583Y0004080D01*
X0072626Y0004089D01*
X0072681Y0004099D01*
X0072740Y0004108D01*
X0072805Y0004111D01*
X0072873Y0004114D01*
X0072904D01*
X0072929Y0004111D01*
D02*
G37*
G36*
X0068816Y0004095D02*
X0068850D01*
X0068887Y0004089D01*
X0068927Y0004083D01*
X0068967Y0004077D01*
X0069001Y0004065D01*
Y0003647D01*
X0068995Y0003650D01*
X0068983Y0003660D01*
X0068958Y0003672D01*
X0068924Y0003688D01*
X0068878Y0003703D01*
X0068828Y0003715D01*
X0068766Y0003725D01*
X0068695Y0003728D01*
X0068671D01*
X0068652Y0003725D01*
X0068630Y0003722D01*
X0068606Y0003715D01*
X0068547Y0003697D01*
X0068513Y0003684D01*
X0068479Y0003669D01*
X0068442Y0003647D01*
X0068405Y0003626D01*
X0068371Y0003598D01*
X0068334Y0003564D01*
X0068300Y0003527D01*
X0068266Y0003484D01*
X0068263Y0003481D01*
X0068260Y0003471D01*
X0068250Y0003459D01*
X0068238Y0003440D01*
X0068226Y0003416D01*
X0068210Y0003385D01*
X0068195Y0003351D01*
X0068179Y0003311D01*
X0068164Y0003267D01*
X0068148Y0003218D01*
X0068133Y0003162D01*
X0068121Y0003104D01*
X0068108Y0003039D01*
X0068099Y0002971D01*
X0068096Y0002900D01*
X0068093Y0002822D01*
Y0001546D01*
X0067691D01*
Y0004055D01*
X0068093D01*
Y0003536D01*
X0068102D01*
Y0003539D01*
X0068105Y0003549D01*
X0068111Y0003561D01*
X0068117Y0003579D01*
X0068127Y0003601D01*
X0068139Y0003629D01*
X0068167Y0003688D01*
X0068204Y0003756D01*
X0068250Y0003824D01*
X0068303Y0003889D01*
X0068365Y0003950D01*
X0068368Y0003953D01*
X0068374Y0003957D01*
X0068383Y0003963D01*
X0068396Y0003975D01*
X0068411Y0003984D01*
X0068433Y0003997D01*
X0068479Y0004024D01*
X0068538Y0004052D01*
X0068606Y0004077D01*
X0068680Y0004092D01*
X0068720Y0004095D01*
X0068760Y0004099D01*
X0068785D01*
X0068816Y0004095D01*
D02*
G37*
G36*
X0064181D02*
X0064215D01*
X0064252Y0004089D01*
X0064292Y0004083D01*
X0064332Y0004077D01*
X0064366Y0004065D01*
Y0003647D01*
X0064360Y0003650D01*
X0064348Y0003660D01*
X0064323Y0003672D01*
X0064289Y0003688D01*
X0064243Y0003703D01*
X0064193Y0003715D01*
X0064131Y0003725D01*
X0064060Y0003728D01*
X0064036D01*
X0064017Y0003725D01*
X0063995Y0003722D01*
X0063971Y0003715D01*
X0063912Y0003697D01*
X0063878Y0003684D01*
X0063844Y0003669D01*
X0063807Y0003647D01*
X0063770Y0003626D01*
X0063736Y0003598D01*
X0063699Y0003564D01*
X0063665Y0003527D01*
X0063631Y0003484D01*
X0063628Y0003481D01*
X0063625Y0003471D01*
X0063615Y0003459D01*
X0063603Y0003440D01*
X0063591Y0003416D01*
X0063575Y0003385D01*
X0063560Y0003351D01*
X0063544Y0003311D01*
X0063529Y0003267D01*
X0063513Y0003218D01*
X0063498Y0003162D01*
X0063486Y0003104D01*
X0063473Y0003039D01*
X0063464Y0002971D01*
X0063461Y0002900D01*
X0063458Y0002822D01*
Y0001546D01*
X0063056D01*
Y0004055D01*
X0063458D01*
Y0003536D01*
X0063467D01*
Y0003539D01*
X0063470Y0003549D01*
X0063476Y0003561D01*
X0063482Y0003579D01*
X0063492Y0003601D01*
X0063504Y0003629D01*
X0063532Y0003688D01*
X0063569Y0003756D01*
X0063615Y0003824D01*
X0063668Y0003889D01*
X0063730Y0003950D01*
X0063733Y0003953D01*
X0063739Y0003957D01*
X0063748Y0003963D01*
X0063761Y0003975D01*
X0063776Y0003984D01*
X0063798Y0003997D01*
X0063844Y0004024D01*
X0063903Y0004052D01*
X0063971Y0004077D01*
X0064045Y0004092D01*
X0064085Y0004095D01*
X0064125Y0004099D01*
X0064150D01*
X0064181Y0004095D01*
D02*
G37*
G36*
X0074591Y0001546D02*
X0074189D01*
Y0004055D01*
X0074591D01*
Y0001546D01*
D02*
G37*
G36*
X0056666D02*
X0056264D01*
Y0005260D01*
X0056666D01*
Y0001546D01*
D02*
G37*
G36*
X0042891Y0004686D02*
X0041877D01*
Y0001546D01*
X0041466D01*
Y0004686D01*
X0040453D01*
Y0005060D01*
X0042891D01*
Y0004686D01*
D02*
G37*
G36*
X0078064Y0004055D02*
X0078698D01*
Y0003709D01*
X0078064D01*
Y0002297D01*
Y0002294D01*
Y0002285D01*
Y0002272D01*
Y0002257D01*
X0078067Y0002235D01*
X0078070Y0002211D01*
X0078077Y0002158D01*
X0078086Y0002096D01*
X0078101Y0002038D01*
X0078123Y0001982D01*
X0078135Y0001957D01*
X0078151Y0001936D01*
X0078154Y0001932D01*
X0078166Y0001920D01*
X0078188Y0001902D01*
X0078219Y0001883D01*
X0078259Y0001861D01*
X0078308Y0001846D01*
X0078367Y0001834D01*
X0078435Y0001827D01*
X0078460D01*
X0078488Y0001830D01*
X0078525Y0001837D01*
X0078565Y0001849D01*
X0078611Y0001861D01*
X0078654Y0001883D01*
X0078698Y0001911D01*
Y0001568D01*
X0078695D01*
X0078692Y0001565D01*
X0078682Y0001562D01*
X0078673Y0001555D01*
X0078639Y0001543D01*
X0078599Y0001531D01*
X0078543Y0001518D01*
X0078478Y0001506D01*
X0078404Y0001497D01*
X0078321Y0001494D01*
X0078293D01*
X0078259Y0001500D01*
X0078219Y0001506D01*
X0078169Y0001515D01*
X0078114Y0001534D01*
X0078052Y0001555D01*
X0077993Y0001586D01*
X0077931Y0001623D01*
X0077870Y0001673D01*
X0077814Y0001732D01*
X0077789Y0001766D01*
X0077764Y0001803D01*
X0077743Y0001843D01*
X0077724Y0001886D01*
X0077706Y0001932D01*
X0077690Y0001985D01*
X0077678Y0002038D01*
X0077669Y0002096D01*
X0077666Y0002158D01*
X0077662Y0002226D01*
Y0003709D01*
X0077233D01*
Y0004055D01*
X0077662D01*
Y0004667D01*
X0078064Y0004797D01*
Y0004055D01*
D02*
G37*
G36*
X0070469Y0004111D02*
X0070503Y0004108D01*
X0070546Y0004105D01*
X0070593Y0004099D01*
X0070645Y0004086D01*
X0070701Y0004074D01*
X0070763Y0004058D01*
X0070824Y0004037D01*
X0070886Y0004009D01*
X0070951Y0003978D01*
X0071013Y0003941D01*
X0071072Y0003898D01*
X0071130Y0003848D01*
X0071183Y0003793D01*
X0071186Y0003790D01*
X0071195Y0003777D01*
X0071207Y0003759D01*
X0071226Y0003734D01*
X0071245Y0003703D01*
X0071269Y0003663D01*
X0071294Y0003617D01*
X0071319Y0003564D01*
X0071343Y0003502D01*
X0071368Y0003437D01*
X0071393Y0003363D01*
X0071412Y0003286D01*
X0071430Y0003199D01*
X0071442Y0003110D01*
X0071452Y0003011D01*
X0071455Y0002909D01*
Y0002699D01*
X0069681D01*
Y0002693D01*
Y0002680D01*
X0069684Y0002659D01*
X0069687Y0002631D01*
X0069690Y0002594D01*
X0069696Y0002554D01*
X0069703Y0002510D01*
X0069715Y0002461D01*
X0069743Y0002356D01*
X0069761Y0002303D01*
X0069783Y0002248D01*
X0069808Y0002195D01*
X0069836Y0002143D01*
X0069870Y0002096D01*
X0069907Y0002050D01*
X0069910Y0002047D01*
X0069916Y0002041D01*
X0069928Y0002028D01*
X0069947Y0002016D01*
X0069968Y0001997D01*
X0069996Y0001979D01*
X0070027Y0001957D01*
X0070061Y0001939D01*
X0070101Y0001917D01*
X0070148Y0001895D01*
X0070194Y0001877D01*
X0070250Y0001858D01*
X0070305Y0001846D01*
X0070367Y0001834D01*
X0070432Y0001827D01*
X0070500Y0001824D01*
X0070518D01*
X0070540Y0001827D01*
X0070571D01*
X0070608Y0001834D01*
X0070651Y0001840D01*
X0070701Y0001849D01*
X0070756Y0001858D01*
X0070815Y0001874D01*
X0070877Y0001892D01*
X0070942Y0001914D01*
X0071007Y0001942D01*
X0071075Y0001973D01*
X0071143Y0002010D01*
X0071211Y0002053D01*
X0071279Y0002102D01*
Y0001726D01*
X0071276Y0001722D01*
X0071263Y0001716D01*
X0071245Y0001704D01*
X0071220Y0001688D01*
X0071186Y0001670D01*
X0071146Y0001651D01*
X0071099Y0001630D01*
X0071047Y0001608D01*
X0070985Y0001583D01*
X0070920Y0001562D01*
X0070849Y0001543D01*
X0070772Y0001525D01*
X0070688Y0001509D01*
X0070599Y0001497D01*
X0070503Y0001491D01*
X0070404Y0001488D01*
X0070379D01*
X0070355Y0001491D01*
X0070318Y0001494D01*
X0070271Y0001497D01*
X0070219Y0001506D01*
X0070163Y0001515D01*
X0070101Y0001531D01*
X0070036Y0001549D01*
X0069968Y0001571D01*
X0069897Y0001599D01*
X0069829Y0001630D01*
X0069758Y0001670D01*
X0069693Y0001716D01*
X0069629Y0001769D01*
X0069570Y0001827D01*
X0069567Y0001830D01*
X0069557Y0001843D01*
X0069542Y0001864D01*
X0069524Y0001892D01*
X0069499Y0001926D01*
X0069474Y0001970D01*
X0069446Y0002019D01*
X0069418Y0002078D01*
X0069391Y0002139D01*
X0069363Y0002214D01*
X0069338Y0002291D01*
X0069313Y0002378D01*
X0069295Y0002470D01*
X0069279Y0002569D01*
X0069270Y0002677D01*
X0069267Y0002788D01*
Y0002792D01*
Y0002795D01*
Y0002804D01*
Y0002813D01*
X0069270Y0002844D01*
X0069273Y0002887D01*
X0069276Y0002937D01*
X0069286Y0002992D01*
X0069295Y0003057D01*
X0069307Y0003128D01*
X0069326Y0003202D01*
X0069347Y0003280D01*
X0069375Y0003360D01*
X0069406Y0003440D01*
X0069443Y0003518D01*
X0069490Y0003598D01*
X0069539Y0003672D01*
X0069598Y0003743D01*
X0069601Y0003746D01*
X0069613Y0003759D01*
X0069632Y0003777D01*
X0069656Y0003802D01*
X0069690Y0003830D01*
X0069731Y0003861D01*
X0069774Y0003895D01*
X0069826Y0003929D01*
X0069882Y0003963D01*
X0069947Y0003997D01*
X0070015Y0004028D01*
X0070086Y0004055D01*
X0070163Y0004080D01*
X0070246Y0004099D01*
X0070333Y0004111D01*
X0070423Y0004114D01*
X0070444D01*
X0070469Y0004111D01*
D02*
G37*
G36*
X0061465D02*
X0061499Y0004108D01*
X0061542Y0004105D01*
X0061588Y0004099D01*
X0061641Y0004086D01*
X0061696Y0004074D01*
X0061758Y0004058D01*
X0061820Y0004037D01*
X0061882Y0004009D01*
X0061947Y0003978D01*
X0062009Y0003941D01*
X0062067Y0003898D01*
X0062126Y0003848D01*
X0062178Y0003793D01*
X0062182Y0003790D01*
X0062191Y0003777D01*
X0062203Y0003759D01*
X0062222Y0003734D01*
X0062240Y0003703D01*
X0062265Y0003663D01*
X0062290Y0003617D01*
X0062314Y0003564D01*
X0062339Y0003502D01*
X0062364Y0003437D01*
X0062389Y0003363D01*
X0062407Y0003286D01*
X0062426Y0003199D01*
X0062438Y0003110D01*
X0062447Y0003011D01*
X0062450Y0002909D01*
Y0002699D01*
X0060677D01*
Y0002693D01*
Y0002680D01*
X0060680Y0002659D01*
X0060683Y0002631D01*
X0060686Y0002594D01*
X0060692Y0002554D01*
X0060698Y0002510D01*
X0060711Y0002461D01*
X0060739Y0002356D01*
X0060757Y0002303D01*
X0060779Y0002248D01*
X0060804Y0002195D01*
X0060831Y0002143D01*
X0060865Y0002096D01*
X0060902Y0002050D01*
X0060905Y0002047D01*
X0060912Y0002041D01*
X0060924Y0002028D01*
X0060943Y0002016D01*
X0060964Y0001997D01*
X0060992Y0001979D01*
X0061023Y0001957D01*
X0061057Y0001939D01*
X0061097Y0001917D01*
X0061143Y0001895D01*
X0061190Y0001877D01*
X0061245Y0001858D01*
X0061301Y0001846D01*
X0061363Y0001834D01*
X0061428Y0001827D01*
X0061496Y0001824D01*
X0061514D01*
X0061536Y0001827D01*
X0061567D01*
X0061604Y0001834D01*
X0061647Y0001840D01*
X0061696Y0001849D01*
X0061752Y0001858D01*
X0061811Y0001874D01*
X0061873Y0001892D01*
X0061937Y0001914D01*
X0062002Y0001942D01*
X0062070Y0001973D01*
X0062138Y0002010D01*
X0062206Y0002053D01*
X0062274Y0002102D01*
Y0001726D01*
X0062271Y0001722D01*
X0062259Y0001716D01*
X0062240Y0001704D01*
X0062216Y0001688D01*
X0062182Y0001670D01*
X0062142Y0001651D01*
X0062095Y0001630D01*
X0062043Y0001608D01*
X0061981Y0001583D01*
X0061916Y0001562D01*
X0061845Y0001543D01*
X0061768Y0001525D01*
X0061684Y0001509D01*
X0061594Y0001497D01*
X0061499Y0001491D01*
X0061400Y0001488D01*
X0061375D01*
X0061350Y0001491D01*
X0061313Y0001494D01*
X0061267Y0001497D01*
X0061215Y0001506D01*
X0061159Y0001515D01*
X0061097Y0001531D01*
X0061032Y0001549D01*
X0060964Y0001571D01*
X0060893Y0001599D01*
X0060825Y0001630D01*
X0060754Y0001670D01*
X0060689Y0001716D01*
X0060624Y0001769D01*
X0060566Y0001827D01*
X0060562Y0001830D01*
X0060553Y0001843D01*
X0060538Y0001864D01*
X0060519Y0001892D01*
X0060495Y0001926D01*
X0060470Y0001970D01*
X0060442Y0002019D01*
X0060414Y0002078D01*
X0060386Y0002139D01*
X0060359Y0002214D01*
X0060334Y0002291D01*
X0060309Y0002378D01*
X0060290Y0002470D01*
X0060275Y0002569D01*
X0060266Y0002677D01*
X0060263Y0002788D01*
Y0002792D01*
Y0002795D01*
Y0002804D01*
Y0002813D01*
X0060266Y0002844D01*
X0060269Y0002887D01*
X0060272Y0002937D01*
X0060281Y0002992D01*
X0060290Y0003057D01*
X0060303Y0003128D01*
X0060321Y0003202D01*
X0060343Y0003280D01*
X0060371Y0003360D01*
X0060402Y0003440D01*
X0060439Y0003518D01*
X0060485Y0003598D01*
X0060535Y0003672D01*
X0060593Y0003743D01*
X0060597Y0003746D01*
X0060609Y0003759D01*
X0060627Y0003777D01*
X0060652Y0003802D01*
X0060686Y0003830D01*
X0060726Y0003861D01*
X0060769Y0003895D01*
X0060822Y0003929D01*
X0060878Y0003963D01*
X0060943Y0003997D01*
X0061010Y0004028D01*
X0061082Y0004055D01*
X0061159Y0004080D01*
X0061242Y0004099D01*
X0061329Y0004111D01*
X0061418Y0004114D01*
X0061440D01*
X0061465Y0004111D01*
D02*
G37*
G36*
X0054484D02*
X0054525Y0004108D01*
X0054571Y0004105D01*
X0054627Y0004095D01*
X0054685Y0004086D01*
X0054750Y0004071D01*
X0054821Y0004052D01*
X0054892Y0004031D01*
X0054963Y0004003D01*
X0055037Y0003969D01*
X0055109Y0003929D01*
X0055180Y0003882D01*
X0055245Y0003830D01*
X0055306Y0003768D01*
X0055309Y0003765D01*
X0055319Y0003752D01*
X0055334Y0003731D01*
X0055356Y0003703D01*
X0055380Y0003669D01*
X0055405Y0003626D01*
X0055436Y0003576D01*
X0055464Y0003518D01*
X0055495Y0003453D01*
X0055523Y0003382D01*
X0055547Y0003305D01*
X0055572Y0003218D01*
X0055594Y0003125D01*
X0055609Y0003026D01*
X0055619Y0002921D01*
X0055622Y0002810D01*
Y0002807D01*
Y0002804D01*
Y0002795D01*
Y0002782D01*
X0055619Y0002751D01*
X0055615Y0002711D01*
X0055612Y0002659D01*
X0055603Y0002600D01*
X0055594Y0002535D01*
X0055578Y0002464D01*
X0055560Y0002390D01*
X0055538Y0002310D01*
X0055510Y0002229D01*
X0055479Y0002149D01*
X0055439Y0002069D01*
X0055393Y0001991D01*
X0055340Y0001917D01*
X0055282Y0001846D01*
X0055279Y0001843D01*
X0055266Y0001830D01*
X0055248Y0001812D01*
X0055220Y0001790D01*
X0055186Y0001763D01*
X0055146Y0001732D01*
X0055096Y0001701D01*
X0055041Y0001667D01*
X0054979Y0001633D01*
X0054911Y0001602D01*
X0054837Y0001571D01*
X0054756Y0001543D01*
X0054667Y0001522D01*
X0054574Y0001503D01*
X0054478Y0001491D01*
X0054373Y0001488D01*
X0054348D01*
X0054321Y0001491D01*
X0054281Y0001494D01*
X0054234Y0001497D01*
X0054179Y0001506D01*
X0054120Y0001515D01*
X0054055Y0001531D01*
X0053984Y0001549D01*
X0053913Y0001574D01*
X0053839Y0001602D01*
X0053764Y0001636D01*
X0053690Y0001676D01*
X0053616Y0001722D01*
X0053548Y0001775D01*
X0053483Y0001837D01*
X0053480Y0001840D01*
X0053468Y0001852D01*
X0053452Y0001874D01*
X0053431Y0001902D01*
X0053406Y0001936D01*
X0053378Y0001979D01*
X0053350Y0002028D01*
X0053320Y0002087D01*
X0053289Y0002149D01*
X0053258Y0002220D01*
X0053230Y0002297D01*
X0053205Y0002380D01*
X0053184Y0002467D01*
X0053168Y0002563D01*
X0053156Y0002665D01*
X0053153Y0002770D01*
Y0002773D01*
Y0002776D01*
Y0002785D01*
Y0002798D01*
X0053156Y0002832D01*
X0053159Y0002875D01*
X0053162Y0002928D01*
X0053171Y0002989D01*
X0053180Y0003057D01*
X0053196Y0003131D01*
X0053214Y0003209D01*
X0053236Y0003289D01*
X0053264Y0003372D01*
X0053298Y0003456D01*
X0053338Y0003536D01*
X0053381Y0003613D01*
X0053434Y0003688D01*
X0053496Y0003759D01*
X0053499Y0003762D01*
X0053511Y0003774D01*
X0053533Y0003793D01*
X0053561Y0003814D01*
X0053594Y0003842D01*
X0053638Y0003870D01*
X0053687Y0003904D01*
X0053743Y0003938D01*
X0053805Y0003969D01*
X0053876Y0004003D01*
X0053953Y0004031D01*
X0054036Y0004058D01*
X0054126Y0004080D01*
X0054222Y0004099D01*
X0054324Y0004111D01*
X0054432Y0004114D01*
X0054457D01*
X0054484Y0004111D01*
D02*
G37*
G36*
X0044550D02*
X0044590Y0004108D01*
X0044637Y0004105D01*
X0044692Y0004095D01*
X0044751Y0004086D01*
X0044816Y0004071D01*
X0044887Y0004052D01*
X0044958Y0004031D01*
X0045029Y0004003D01*
X0045103Y0003969D01*
X0045174Y0003929D01*
X0045245Y0003882D01*
X0045310Y0003830D01*
X0045372Y0003768D01*
X0045375Y0003765D01*
X0045384Y0003752D01*
X0045400Y0003731D01*
X0045421Y0003703D01*
X0045446Y0003669D01*
X0045471Y0003626D01*
X0045502Y0003576D01*
X0045530Y0003518D01*
X0045561Y0003453D01*
X0045588Y0003382D01*
X0045613Y0003305D01*
X0045638Y0003218D01*
X0045659Y0003125D01*
X0045675Y0003026D01*
X0045684Y0002921D01*
X0045687Y0002810D01*
Y0002807D01*
Y0002804D01*
Y0002795D01*
Y0002782D01*
X0045684Y0002751D01*
X0045681Y0002711D01*
X0045678Y0002659D01*
X0045669Y0002600D01*
X0045659Y0002535D01*
X0045644Y0002464D01*
X0045625Y0002390D01*
X0045604Y0002310D01*
X0045576Y0002229D01*
X0045545Y0002149D01*
X0045505Y0002069D01*
X0045459Y0001991D01*
X0045406Y0001917D01*
X0045347Y0001846D01*
X0045344Y0001843D01*
X0045332Y0001830D01*
X0045313Y0001812D01*
X0045285Y0001790D01*
X0045252Y0001763D01*
X0045211Y0001732D01*
X0045162Y0001701D01*
X0045106Y0001667D01*
X0045044Y0001633D01*
X0044976Y0001602D01*
X0044902Y0001571D01*
X0044822Y0001543D01*
X0044732Y0001522D01*
X0044640Y0001503D01*
X0044544Y0001491D01*
X0044439Y0001488D01*
X0044414D01*
X0044386Y0001491D01*
X0044346Y0001494D01*
X0044300Y0001497D01*
X0044244Y0001506D01*
X0044186Y0001515D01*
X0044121Y0001531D01*
X0044050Y0001549D01*
X0043978Y0001574D01*
X0043904Y0001602D01*
X0043830Y0001636D01*
X0043756Y0001676D01*
X0043682Y0001722D01*
X0043614Y0001775D01*
X0043549Y0001837D01*
X0043546Y0001840D01*
X0043534Y0001852D01*
X0043518Y0001874D01*
X0043496Y0001902D01*
X0043472Y0001936D01*
X0043444Y0001979D01*
X0043416Y0002028D01*
X0043385Y0002087D01*
X0043354Y0002149D01*
X0043323Y0002220D01*
X0043295Y0002297D01*
X0043271Y0002380D01*
X0043249Y0002467D01*
X0043234Y0002563D01*
X0043221Y0002665D01*
X0043218Y0002770D01*
Y0002773D01*
Y0002776D01*
Y0002785D01*
Y0002798D01*
X0043221Y0002832D01*
X0043224Y0002875D01*
X0043228Y0002928D01*
X0043237Y0002989D01*
X0043246Y0003057D01*
X0043262Y0003131D01*
X0043280Y0003209D01*
X0043302Y0003289D01*
X0043330Y0003372D01*
X0043363Y0003456D01*
X0043404Y0003536D01*
X0043447Y0003613D01*
X0043499Y0003688D01*
X0043561Y0003759D01*
X0043564Y0003762D01*
X0043577Y0003774D01*
X0043598Y0003793D01*
X0043626Y0003814D01*
X0043660Y0003842D01*
X0043703Y0003870D01*
X0043753Y0003904D01*
X0043808Y0003938D01*
X0043870Y0003969D01*
X0043941Y0004003D01*
X0044019Y0004031D01*
X0044102Y0004058D01*
X0044192Y0004080D01*
X0044287Y0004099D01*
X0044389Y0004111D01*
X0044498Y0004114D01*
X0044522D01*
X0044550Y0004111D01*
D02*
G37*
G36*
X0079245Y0005057D02*
X0079251Y0005050D01*
X0079260Y0005035D01*
X0079276Y0005019D01*
X0079291Y0004995D01*
X0079313Y0004967D01*
X0079334Y0004936D01*
X0079362Y0004899D01*
X0079390Y0004859D01*
X0079421Y0004812D01*
X0079452Y0004763D01*
X0079486Y0004707D01*
X0079520Y0004649D01*
X0079554Y0004587D01*
X0079588Y0004522D01*
X0079625Y0004451D01*
X0079662Y0004377D01*
X0079696Y0004299D01*
X0079730Y0004219D01*
X0079767Y0004133D01*
X0079798Y0004046D01*
X0079832Y0003953D01*
X0079860Y0003861D01*
X0079887Y0003762D01*
X0079937Y0003558D01*
X0079958Y0003453D01*
X0079974Y0003345D01*
X0079989Y0003233D01*
X0079999Y0003119D01*
X0080005Y0003002D01*
X0080008Y0002884D01*
Y0002881D01*
Y0002869D01*
Y0002853D01*
Y0002829D01*
X0080005Y0002798D01*
X0080002Y0002761D01*
X0079999Y0002720D01*
X0079996Y0002671D01*
X0079992Y0002622D01*
X0079983Y0002563D01*
X0079977Y0002501D01*
X0079968Y0002436D01*
X0079955Y0002368D01*
X0079943Y0002294D01*
X0079927Y0002220D01*
X0079912Y0002143D01*
X0079872Y0001976D01*
X0079819Y0001806D01*
X0079758Y0001627D01*
X0079724Y0001537D01*
X0079683Y0001447D01*
X0079643Y0001358D01*
X0079597Y0001268D01*
X0079547Y0001178D01*
X0079495Y0001089D01*
X0079436Y0001002D01*
X0079378Y0000916D01*
X0079313Y0000833D01*
X0079242Y0000749D01*
X0078886D01*
X0078889Y0000752D01*
X0078895Y0000758D01*
X0078905Y0000774D01*
X0078920Y0000792D01*
X0078936Y0000814D01*
X0078957Y0000842D01*
X0078979Y0000873D01*
X0079007Y0000910D01*
X0079035Y0000953D01*
X0079062Y0000999D01*
X0079096Y0001049D01*
X0079127Y0001104D01*
X0079161Y0001163D01*
X0079195Y0001225D01*
X0079232Y0001290D01*
X0079269Y0001361D01*
X0079303Y0001432D01*
X0079340Y0001509D01*
X0079374Y0001589D01*
X0079408Y0001673D01*
X0079442Y0001760D01*
X0079473Y0001849D01*
X0079529Y0002038D01*
X0079578Y0002238D01*
X0079600Y0002340D01*
X0079615Y0002445D01*
X0079631Y0002554D01*
X0079640Y0002665D01*
X0079646Y0002776D01*
X0079649Y0002890D01*
Y0002894D01*
Y0002906D01*
Y0002921D01*
Y0002946D01*
X0079646Y0002974D01*
X0079643Y0003011D01*
X0079640Y0003051D01*
X0079637Y0003097D01*
X0079631Y0003150D01*
X0079625Y0003206D01*
X0079619Y0003267D01*
X0079609Y0003332D01*
X0079597Y0003400D01*
X0079584Y0003471D01*
X0079569Y0003545D01*
X0079554Y0003626D01*
X0079513Y0003790D01*
X0079461Y0003963D01*
X0079433Y0004052D01*
X0079399Y0004142D01*
X0079365Y0004235D01*
X0079325Y0004327D01*
X0079282Y0004420D01*
X0079235Y0004513D01*
X0079186Y0004605D01*
X0079133Y0004698D01*
X0079078Y0004791D01*
X0079016Y0004880D01*
X0078951Y0004970D01*
X0078880Y0005060D01*
X0079242D01*
X0079245Y0005057D01*
D02*
G37*
G36*
X0067234D02*
X0067228Y0005050D01*
X0067218Y0005035D01*
X0067203Y0005016D01*
X0067187Y0004995D01*
X0067166Y0004967D01*
X0067141Y0004933D01*
X0067116Y0004896D01*
X0067089Y0004853D01*
X0067058Y0004806D01*
X0067027Y0004754D01*
X0066993Y0004698D01*
X0066959Y0004639D01*
X0066925Y0004578D01*
X0066888Y0004510D01*
X0066854Y0004439D01*
X0066817Y0004364D01*
X0066780Y0004287D01*
X0066746Y0004204D01*
X0066712Y0004120D01*
X0066678Y0004034D01*
X0066647Y0003941D01*
X0066588Y0003749D01*
X0066539Y0003549D01*
X0066517Y0003447D01*
X0066501Y0003339D01*
X0066486Y0003230D01*
X0066477Y0003119D01*
X0066471Y0003005D01*
X0066467Y0002890D01*
Y0002887D01*
Y0002878D01*
Y0002860D01*
X0066471Y0002835D01*
Y0002807D01*
X0066474Y0002770D01*
X0066477Y0002730D01*
X0066480Y0002683D01*
X0066486Y0002634D01*
X0066492Y0002578D01*
X0066498Y0002520D01*
X0066508Y0002455D01*
X0066520Y0002387D01*
X0066532Y0002316D01*
X0066545Y0002241D01*
X0066563Y0002164D01*
X0066603Y0002001D01*
X0066653Y0001827D01*
X0066715Y0001651D01*
X0066752Y0001562D01*
X0066789Y0001469D01*
X0066832Y0001379D01*
X0066878Y0001287D01*
X0066925Y0001194D01*
X0066980Y0001104D01*
X0067036Y0001015D01*
X0067098Y0000925D01*
X0067163Y0000836D01*
X0067231Y0000749D01*
X0066872D01*
X0066869Y0000752D01*
X0066863Y0000758D01*
X0066854Y0000771D01*
X0066841Y0000789D01*
X0066823Y0000811D01*
X0066801Y0000839D01*
X0066780Y0000869D01*
X0066755Y0000903D01*
X0066727Y0000944D01*
X0066696Y0000990D01*
X0066665Y0001036D01*
X0066634Y0001089D01*
X0066600Y0001148D01*
X0066563Y0001206D01*
X0066529Y0001271D01*
X0066495Y0001339D01*
X0066458Y0001413D01*
X0066424Y0001488D01*
X0066387Y0001568D01*
X0066356Y0001651D01*
X0066322Y0001738D01*
X0066291Y0001827D01*
X0066260Y0001920D01*
X0066233Y0002016D01*
X0066186Y0002217D01*
X0066165Y0002322D01*
X0066149Y0002427D01*
X0066134Y0002538D01*
X0066124Y0002653D01*
X0066118Y0002767D01*
X0066115Y0002884D01*
Y0002887D01*
Y0002900D01*
Y0002915D01*
X0066118Y0002940D01*
Y0002971D01*
X0066121Y0003008D01*
X0066124Y0003051D01*
X0066128Y0003097D01*
X0066131Y0003150D01*
X0066140Y0003209D01*
X0066146Y0003271D01*
X0066155Y0003335D01*
X0066165Y0003406D01*
X0066180Y0003478D01*
X0066192Y0003555D01*
X0066211Y0003635D01*
X0066251Y0003802D01*
X0066301Y0003975D01*
X0066362Y0004157D01*
X0066396Y0004247D01*
X0066434Y0004340D01*
X0066477Y0004432D01*
X0066520Y0004525D01*
X0066569Y0004618D01*
X0066622Y0004707D01*
X0066678Y0004797D01*
X0066739Y0004887D01*
X0066804Y0004973D01*
X0066872Y0005060D01*
X0067237D01*
X0067234Y0005057D01*
D02*
G37*
%LPC*%
G36*
X0051543Y0042838D02*
X0051527D01*
X0051509Y0042835D01*
X0051481D01*
X0051450Y0042829D01*
X0051416Y0042822D01*
X0051376Y0042816D01*
X0051333Y0042804D01*
X0051286Y0042791D01*
X0051240Y0042773D01*
X0051194Y0042751D01*
X0051144Y0042723D01*
X0051098Y0042693D01*
X0051051Y0042658D01*
X0051005Y0042615D01*
X0050965Y0042569D01*
X0050962Y0042566D01*
X0050956Y0042557D01*
X0050946Y0042541D01*
X0050931Y0042520D01*
X0050915Y0042492D01*
X0050900Y0042458D01*
X0050878Y0042421D01*
X0050860Y0042374D01*
X0050841Y0042325D01*
X0050823Y0042269D01*
X0050804Y0042207D01*
X0050789Y0042143D01*
X0050773Y0042068D01*
X0050764Y0041994D01*
X0050758Y0041911D01*
X0050755Y0041824D01*
Y0041818D01*
Y0041806D01*
Y0041781D01*
X0050758Y0041753D01*
X0050761Y0041716D01*
X0050764Y0041673D01*
X0050770Y0041627D01*
X0050779Y0041574D01*
X0050804Y0041466D01*
X0050820Y0041407D01*
X0050838Y0041352D01*
X0050863Y0041296D01*
X0050891Y0041240D01*
X0050922Y0041188D01*
X0050956Y0041138D01*
X0050959Y0041135D01*
X0050965Y0041129D01*
X0050977Y0041117D01*
X0050993Y0041098D01*
X0051014Y0041080D01*
X0051039Y0041058D01*
X0051067Y0041036D01*
X0051101Y0041015D01*
X0051138Y0040990D01*
X0051178Y0040968D01*
X0051221Y0040947D01*
X0051271Y0040928D01*
X0051323Y0040913D01*
X0051379Y0040900D01*
X0051438Y0040891D01*
X0051499Y0040888D01*
X0051515D01*
X0051534Y0040891D01*
X0051555D01*
X0051583Y0040894D01*
X0051617Y0040900D01*
X0051654Y0040910D01*
X0051694Y0040919D01*
X0051737Y0040931D01*
X0051781Y0040947D01*
X0051827Y0040965D01*
X0051870Y0040990D01*
X0051917Y0041018D01*
X0051960Y0041049D01*
X0052003Y0041086D01*
X0052043Y0041129D01*
X0052046Y0041132D01*
X0052053Y0041141D01*
X0052062Y0041154D01*
X0052077Y0041172D01*
X0052093Y0041197D01*
X0052111Y0041225D01*
X0052130Y0041259D01*
X0052148Y0041299D01*
X0052167Y0041339D01*
X0052189Y0041385D01*
X0052204Y0041438D01*
X0052219Y0041491D01*
X0052235Y0041549D01*
X0052244Y0041611D01*
X0052250Y0041676D01*
X0052254Y0041744D01*
Y0042112D01*
Y0042115D01*
Y0042124D01*
Y0042143D01*
X0052250Y0042164D01*
X0052247Y0042189D01*
X0052244Y0042220D01*
X0052238Y0042254D01*
X0052229Y0042291D01*
X0052204Y0042371D01*
X0052189Y0042414D01*
X0052170Y0042458D01*
X0052145Y0042501D01*
X0052118Y0042544D01*
X0052087Y0042588D01*
X0052053Y0042628D01*
X0052049Y0042631D01*
X0052043Y0042637D01*
X0052031Y0042646D01*
X0052016Y0042662D01*
X0051997Y0042677D01*
X0051972Y0042696D01*
X0051945Y0042714D01*
X0051914Y0042733D01*
X0051880Y0042751D01*
X0051839Y0042773D01*
X0051799Y0042788D01*
X0051753Y0042804D01*
X0051703Y0042819D01*
X0051654Y0042829D01*
X0051598Y0042835D01*
X0051543Y0042838D01*
D02*
G37*
G36*
X0047609Y0041877D02*
X0047004Y0041793D01*
X0047001D01*
X0046991Y0041790D01*
X0046976D01*
X0046957Y0041787D01*
X0046936Y0041781D01*
X0046908Y0041775D01*
X0046846Y0041762D01*
X0046778Y0041744D01*
X0046710Y0041719D01*
X0046642Y0041688D01*
X0046611Y0041673D01*
X0046583Y0041654D01*
X0046577Y0041648D01*
X0046562Y0041636D01*
X0046537Y0041611D01*
X0046512Y0041574D01*
X0046488Y0041524D01*
X0046475Y0041497D01*
X0046463Y0041466D01*
X0046453Y0041432D01*
X0046447Y0041392D01*
X0046444Y0041352D01*
X0046441Y0041305D01*
Y0041302D01*
Y0041296D01*
Y0041287D01*
X0046444Y0041274D01*
X0046447Y0041240D01*
X0046457Y0041197D01*
X0046472Y0041151D01*
X0046497Y0041098D01*
X0046528Y0041049D01*
X0046571Y0041002D01*
X0046574D01*
X0046577Y0040996D01*
X0046596Y0040984D01*
X0046624Y0040965D01*
X0046664Y0040947D01*
X0046716Y0040925D01*
X0046775Y0040907D01*
X0046846Y0040894D01*
X0046923Y0040888D01*
X0046951D01*
X0046973Y0040891D01*
X0046997Y0040894D01*
X0047028Y0040900D01*
X0047059Y0040907D01*
X0047096Y0040916D01*
X0047174Y0040940D01*
X0047214Y0040956D01*
X0047257Y0040978D01*
X0047297Y0041002D01*
X0047337Y0041030D01*
X0047377Y0041061D01*
X0047414Y0041098D01*
X0047418Y0041101D01*
X0047424Y0041107D01*
X0047433Y0041120D01*
X0047445Y0041135D01*
X0047461Y0041157D01*
X0047476Y0041181D01*
X0047495Y0041209D01*
X0047513Y0041243D01*
X0047529Y0041280D01*
X0047547Y0041321D01*
X0047563Y0041364D01*
X0047578Y0041410D01*
X0047591Y0041460D01*
X0047600Y0041512D01*
X0047606Y0041568D01*
X0047609Y0041627D01*
Y0041877D01*
D02*
G37*
G36*
X0041398Y0043749D02*
X0040864D01*
Y0042615D01*
X0041318D01*
X0041340Y0042618D01*
X0041367Y0042621D01*
X0041401Y0042625D01*
X0041438Y0042628D01*
X0041479Y0042637D01*
X0041562Y0042656D01*
X0041652Y0042683D01*
X0041695Y0042702D01*
X0041738Y0042723D01*
X0041778Y0042748D01*
X0041815Y0042776D01*
X0041818Y0042779D01*
X0041825Y0042782D01*
X0041834Y0042794D01*
X0041846Y0042807D01*
X0041862Y0042822D01*
X0041877Y0042844D01*
X0041896Y0042869D01*
X0041914Y0042897D01*
X0041930Y0042927D01*
X0041948Y0042961D01*
X0041964Y0042998D01*
X0041979Y0043039D01*
X0041992Y0043085D01*
X0042001Y0043131D01*
X0042007Y0043184D01*
X0042010Y0043236D01*
Y0043242D01*
Y0043258D01*
X0042007Y0043283D01*
X0042001Y0043317D01*
X0041989Y0043357D01*
X0041976Y0043400D01*
X0041954Y0043446D01*
X0041927Y0043493D01*
X0041890Y0043542D01*
X0041846Y0043589D01*
X0041791Y0043632D01*
X0041726Y0043669D01*
X0041689Y0043687D01*
X0041649Y0043703D01*
X0041605Y0043715D01*
X0041559Y0043728D01*
X0041510Y0043737D01*
X0041454Y0043743D01*
X0041398Y0043749D01*
D02*
G37*
G36*
X0041337Y0042244D02*
X0040864D01*
Y0040981D01*
X0041457D01*
X0041482Y0040984D01*
X0041513Y0040987D01*
X0041547Y0040990D01*
X0041587Y0040996D01*
X0041630Y0041002D01*
X0041720Y0041021D01*
X0041812Y0041052D01*
X0041859Y0041073D01*
X0041902Y0041095D01*
X0041942Y0041120D01*
X0041982Y0041151D01*
X0041985Y0041154D01*
X0041992Y0041160D01*
X0042001Y0041169D01*
X0042013Y0041181D01*
X0042029Y0041200D01*
X0042047Y0041222D01*
X0042063Y0041246D01*
X0042084Y0041274D01*
X0042103Y0041308D01*
X0042118Y0041342D01*
X0042137Y0041382D01*
X0042152Y0041423D01*
X0042165Y0041469D01*
X0042174Y0041518D01*
X0042180Y0041568D01*
X0042183Y0041623D01*
Y0041627D01*
Y0041630D01*
Y0041639D01*
X0042180Y0041651D01*
X0042177Y0041682D01*
X0042171Y0041719D01*
X0042158Y0041769D01*
X0042140Y0041821D01*
X0042112Y0041877D01*
X0042078Y0041936D01*
X0042032Y0041991D01*
X0042007Y0042019D01*
X0041976Y0042047D01*
X0041945Y0042074D01*
X0041908Y0042099D01*
X0041868Y0042124D01*
X0041825Y0042149D01*
X0041778Y0042167D01*
X0041729Y0042186D01*
X0041673Y0042204D01*
X0041615Y0042217D01*
X0041553Y0042229D01*
X0041485Y0042238D01*
X0041414Y0042241D01*
X0041337Y0042244D01*
D02*
G37*
G36*
X0069412Y0042838D02*
X0069384D01*
X0069366Y0042835D01*
X0069341Y0042832D01*
X0069310Y0042829D01*
X0069279Y0042822D01*
X0069245Y0042813D01*
X0069168Y0042788D01*
X0069128Y0042773D01*
X0069088Y0042751D01*
X0069048Y0042730D01*
X0069004Y0042702D01*
X0068967Y0042671D01*
X0068927Y0042634D01*
X0068924Y0042631D01*
X0068918Y0042625D01*
X0068909Y0042612D01*
X0068896Y0042597D01*
X0068881Y0042575D01*
X0068862Y0042553D01*
X0068844Y0042523D01*
X0068822Y0042492D01*
X0068800Y0042455D01*
X0068782Y0042414D01*
X0068760Y0042371D01*
X0068742Y0042325D01*
X0068723Y0042272D01*
X0068708Y0042220D01*
X0068692Y0042161D01*
X0068683Y0042102D01*
X0070039D01*
Y0042105D01*
Y0042118D01*
Y0042136D01*
X0070036Y0042161D01*
X0070033Y0042189D01*
X0070030Y0042223D01*
X0070024Y0042260D01*
X0070018Y0042300D01*
X0069996Y0042387D01*
X0069965Y0042479D01*
X0069947Y0042523D01*
X0069925Y0042566D01*
X0069901Y0042606D01*
X0069870Y0042643D01*
X0069867Y0042646D01*
X0069863Y0042652D01*
X0069854Y0042662D01*
X0069839Y0042674D01*
X0069823Y0042689D01*
X0069802Y0042705D01*
X0069780Y0042723D01*
X0069752Y0042742D01*
X0069721Y0042757D01*
X0069687Y0042776D01*
X0069647Y0042791D01*
X0069607Y0042807D01*
X0069564Y0042819D01*
X0069517Y0042829D01*
X0069465Y0042835D01*
X0069412Y0042838D01*
D02*
G37*
G36*
X0056341Y0043808D02*
X0056317D01*
X0056289Y0043805D01*
X0056249Y0043802D01*
X0056203Y0043796D01*
X0056147Y0043786D01*
X0056088Y0043774D01*
X0056023Y0043759D01*
X0055952Y0043737D01*
X0055878Y0043712D01*
X0055804Y0043678D01*
X0055730Y0043641D01*
X0055652Y0043595D01*
X0055581Y0043542D01*
X0055510Y0043481D01*
X0055442Y0043409D01*
X0055439Y0043406D01*
X0055427Y0043391D01*
X0055411Y0043369D01*
X0055390Y0043338D01*
X0055362Y0043298D01*
X0055334Y0043249D01*
X0055303Y0043193D01*
X0055272Y0043128D01*
X0055238Y0043057D01*
X0055208Y0042977D01*
X0055180Y0042890D01*
X0055152Y0042798D01*
X0055130Y0042699D01*
X0055115Y0042591D01*
X0055102Y0042479D01*
X0055099Y0042359D01*
Y0042356D01*
Y0042353D01*
Y0042343D01*
Y0042331D01*
Y0042316D01*
X0055102Y0042297D01*
X0055106Y0042251D01*
X0055109Y0042195D01*
X0055118Y0042133D01*
X0055127Y0042062D01*
X0055143Y0041985D01*
X0055158Y0041905D01*
X0055183Y0041818D01*
X0055208Y0041732D01*
X0055242Y0041645D01*
X0055279Y0041559D01*
X0055325Y0041472D01*
X0055377Y0041392D01*
X0055436Y0041314D01*
X0055439Y0041311D01*
X0055452Y0041299D01*
X0055470Y0041277D01*
X0055498Y0041253D01*
X0055532Y0041222D01*
X0055572Y0041191D01*
X0055619Y0041154D01*
X0055671Y0041117D01*
X0055733Y0041080D01*
X0055798Y0041046D01*
X0055872Y0041012D01*
X0055949Y0040981D01*
X0056033Y0040956D01*
X0056122Y0040937D01*
X0056215Y0040922D01*
X0056314Y0040919D01*
X0056338D01*
X0056369Y0040922D01*
X0056410Y0040925D01*
X0056459Y0040931D01*
X0056515Y0040937D01*
X0056576Y0040950D01*
X0056644Y0040965D01*
X0056715Y0040987D01*
X0056790Y0041012D01*
X0056867Y0041043D01*
X0056941Y0041080D01*
X0057018Y0041120D01*
X0057089Y0041172D01*
X0057160Y0041231D01*
X0057225Y0041296D01*
X0057228Y0041299D01*
X0057241Y0041314D01*
X0057256Y0041336D01*
X0057278Y0041367D01*
X0057302Y0041404D01*
X0057330Y0041450D01*
X0057361Y0041506D01*
X0057392Y0041571D01*
X0057423Y0041642D01*
X0057454Y0041719D01*
X0057482Y0041806D01*
X0057507Y0041901D01*
X0057528Y0042004D01*
X0057543Y0042112D01*
X0057556Y0042229D01*
X0057559Y0042353D01*
Y0042356D01*
Y0042362D01*
Y0042371D01*
Y0042384D01*
Y0042399D01*
X0057556Y0042421D01*
X0057553Y0042467D01*
X0057550Y0042526D01*
X0057540Y0042594D01*
X0057531Y0042668D01*
X0057519Y0042748D01*
X0057500Y0042832D01*
X0057479Y0042921D01*
X0057454Y0043011D01*
X0057423Y0043100D01*
X0057386Y0043187D01*
X0057343Y0043273D01*
X0057293Y0043354D01*
X0057235Y0043428D01*
X0057231Y0043431D01*
X0057219Y0043443D01*
X0057200Y0043462D01*
X0057176Y0043487D01*
X0057142Y0043518D01*
X0057102Y0043549D01*
X0057055Y0043582D01*
X0057003Y0043619D01*
X0056941Y0043654D01*
X0056873Y0043687D01*
X0056802Y0043722D01*
X0056722Y0043749D01*
X0056635Y0043774D01*
X0056542Y0043793D01*
X0056447Y0043805D01*
X0056341Y0043808D01*
D02*
G37*
G36*
X0044352Y0042838D02*
X0044337D01*
X0044315Y0042835D01*
X0044287D01*
X0044256Y0042829D01*
X0044219Y0042825D01*
X0044176Y0042816D01*
X0044130Y0042804D01*
X0044083Y0042791D01*
X0044034Y0042773D01*
X0043982Y0042751D01*
X0043932Y0042726D01*
X0043880Y0042696D01*
X0043830Y0042662D01*
X0043784Y0042621D01*
X0043740Y0042575D01*
X0043737Y0042572D01*
X0043731Y0042563D01*
X0043719Y0042547D01*
X0043707Y0042526D01*
X0043688Y0042501D01*
X0043669Y0042467D01*
X0043648Y0042430D01*
X0043629Y0042387D01*
X0043608Y0042337D01*
X0043586Y0042282D01*
X0043567Y0042223D01*
X0043549Y0042158D01*
X0043537Y0042087D01*
X0043524Y0042013D01*
X0043518Y0041932D01*
X0043515Y0041849D01*
Y0041843D01*
Y0041830D01*
X0043518Y0041806D01*
Y0041775D01*
X0043521Y0041738D01*
X0043527Y0041695D01*
X0043534Y0041645D01*
X0043543Y0041592D01*
X0043555Y0041537D01*
X0043571Y0041481D01*
X0043589Y0041423D01*
X0043611Y0041364D01*
X0043635Y0041305D01*
X0043666Y0041249D01*
X0043700Y0041194D01*
X0043740Y0041144D01*
X0043744Y0041141D01*
X0043750Y0041132D01*
X0043765Y0041120D01*
X0043784Y0041104D01*
X0043805Y0041086D01*
X0043833Y0041064D01*
X0043867Y0041039D01*
X0043904Y0041018D01*
X0043944Y0040993D01*
X0043991Y0040968D01*
X0044040Y0040947D01*
X0044096Y0040928D01*
X0044155Y0040913D01*
X0044216Y0040900D01*
X0044281Y0040891D01*
X0044352Y0040888D01*
X0044371D01*
X0044389Y0040891D01*
X0044417D01*
X0044448Y0040897D01*
X0044485Y0040900D01*
X0044528Y0040910D01*
X0044575Y0040919D01*
X0044621Y0040931D01*
X0044671Y0040950D01*
X0044720Y0040968D01*
X0044769Y0040993D01*
X0044819Y0041021D01*
X0044865Y0041055D01*
X0044912Y0041095D01*
X0044952Y0041138D01*
X0044955Y0041141D01*
X0044961Y0041151D01*
X0044970Y0041166D01*
X0044986Y0041185D01*
X0045001Y0041212D01*
X0045020Y0041243D01*
X0045038Y0041280D01*
X0045057Y0041324D01*
X0045075Y0041373D01*
X0045097Y0041426D01*
X0045112Y0041484D01*
X0045128Y0041549D01*
X0045143Y0041617D01*
X0045153Y0041695D01*
X0045159Y0041775D01*
X0045162Y0041858D01*
Y0041864D01*
Y0041880D01*
Y0041905D01*
X0045159Y0041936D01*
X0045156Y0041976D01*
X0045149Y0042019D01*
X0045143Y0042071D01*
X0045137Y0042124D01*
X0045109Y0042241D01*
X0045094Y0042300D01*
X0045072Y0042362D01*
X0045051Y0042421D01*
X0045020Y0042476D01*
X0044989Y0042532D01*
X0044952Y0042581D01*
X0044949Y0042584D01*
X0044943Y0042594D01*
X0044930Y0042606D01*
X0044912Y0042621D01*
X0044890Y0042640D01*
X0044865Y0042662D01*
X0044834Y0042686D01*
X0044797Y0042711D01*
X0044757Y0042733D01*
X0044714Y0042757D01*
X0044664Y0042779D01*
X0044612Y0042798D01*
X0044553Y0042813D01*
X0044491Y0042825D01*
X0044423Y0042835D01*
X0044352Y0042838D01*
D02*
G37*
G36*
X0058508Y0003774D02*
X0058492D01*
X0058474Y0003771D01*
X0058446D01*
X0058415Y0003765D01*
X0058381Y0003759D01*
X0058341Y0003752D01*
X0058297Y0003740D01*
X0058251Y0003728D01*
X0058205Y0003709D01*
X0058158Y0003688D01*
X0058109Y0003660D01*
X0058063Y0003629D01*
X0058016Y0003595D01*
X0057970Y0003552D01*
X0057930Y0003505D01*
X0057927Y0003502D01*
X0057920Y0003493D01*
X0057911Y0003478D01*
X0057896Y0003456D01*
X0057880Y0003428D01*
X0057865Y0003394D01*
X0057843Y0003357D01*
X0057825Y0003311D01*
X0057806Y0003261D01*
X0057788Y0003206D01*
X0057769Y0003144D01*
X0057754Y0003079D01*
X0057738Y0003005D01*
X0057729Y0002931D01*
X0057723Y0002847D01*
X0057720Y0002761D01*
Y0002754D01*
Y0002742D01*
Y0002717D01*
X0057723Y0002689D01*
X0057726Y0002653D01*
X0057729Y0002609D01*
X0057735Y0002563D01*
X0057744Y0002510D01*
X0057769Y0002402D01*
X0057785Y0002344D01*
X0057803Y0002288D01*
X0057828Y0002232D01*
X0057856Y0002177D01*
X0057886Y0002124D01*
X0057920Y0002075D01*
X0057924Y0002072D01*
X0057930Y0002065D01*
X0057942Y0002053D01*
X0057958Y0002035D01*
X0057979Y0002016D01*
X0058004Y0001994D01*
X0058032Y0001973D01*
X0058066Y0001951D01*
X0058103Y0001926D01*
X0058143Y0001905D01*
X0058186Y0001883D01*
X0058236Y0001864D01*
X0058288Y0001849D01*
X0058344Y0001837D01*
X0058403Y0001827D01*
X0058464Y0001824D01*
X0058480D01*
X0058498Y0001827D01*
X0058520D01*
X0058548Y0001830D01*
X0058582Y0001837D01*
X0058619Y0001846D01*
X0058659Y0001855D01*
X0058702Y0001868D01*
X0058746Y0001883D01*
X0058792Y0001902D01*
X0058835Y0001926D01*
X0058881Y0001954D01*
X0058925Y0001985D01*
X0058968Y0002022D01*
X0059008Y0002065D01*
X0059011Y0002069D01*
X0059017Y0002078D01*
X0059027Y0002090D01*
X0059042Y0002109D01*
X0059058Y0002133D01*
X0059076Y0002161D01*
X0059095Y0002195D01*
X0059113Y0002235D01*
X0059132Y0002276D01*
X0059153Y0002322D01*
X0059169Y0002374D01*
X0059184Y0002427D01*
X0059200Y0002486D01*
X0059209Y0002547D01*
X0059215Y0002612D01*
X0059218Y0002680D01*
Y0003048D01*
Y0003051D01*
Y0003060D01*
Y0003079D01*
X0059215Y0003101D01*
X0059212Y0003125D01*
X0059209Y0003156D01*
X0059203Y0003190D01*
X0059194Y0003227D01*
X0059169Y0003308D01*
X0059153Y0003351D01*
X0059135Y0003394D01*
X0059110Y0003437D01*
X0059082Y0003481D01*
X0059052Y0003524D01*
X0059017Y0003564D01*
X0059014Y0003567D01*
X0059008Y0003573D01*
X0058996Y0003583D01*
X0058980Y0003598D01*
X0058962Y0003613D01*
X0058937Y0003632D01*
X0058909Y0003650D01*
X0058878Y0003669D01*
X0058844Y0003688D01*
X0058804Y0003709D01*
X0058764Y0003725D01*
X0058718Y0003740D01*
X0058668Y0003756D01*
X0058619Y0003765D01*
X0058563Y0003771D01*
X0058508Y0003774D01*
D02*
G37*
G36*
X0047510D02*
X0047476D01*
X0047452Y0003771D01*
X0047421Y0003768D01*
X0047387Y0003762D01*
X0047350Y0003752D01*
X0047306Y0003743D01*
X0047263Y0003731D01*
X0047217Y0003715D01*
X0047170Y0003694D01*
X0047124Y0003672D01*
X0047078Y0003644D01*
X0047031Y0003610D01*
X0046985Y0003573D01*
X0046945Y0003530D01*
X0046942Y0003527D01*
X0046936Y0003518D01*
X0046926Y0003505D01*
X0046911Y0003487D01*
X0046895Y0003462D01*
X0046877Y0003434D01*
X0046858Y0003400D01*
X0046840Y0003363D01*
X0046818Y0003320D01*
X0046800Y0003274D01*
X0046781Y0003224D01*
X0046766Y0003168D01*
X0046750Y0003110D01*
X0046741Y0003051D01*
X0046735Y0002986D01*
X0046732Y0002918D01*
Y0002569D01*
Y0002566D01*
Y0002557D01*
Y0002538D01*
X0046735Y0002517D01*
X0046738Y0002489D01*
X0046741Y0002458D01*
X0046747Y0002424D01*
X0046756Y0002387D01*
X0046781Y0002303D01*
X0046797Y0002260D01*
X0046815Y0002214D01*
X0046840Y0002170D01*
X0046868Y0002124D01*
X0046898Y0002081D01*
X0046933Y0002041D01*
X0046936Y0002038D01*
X0046942Y0002031D01*
X0046954Y0002022D01*
X0046970Y0002007D01*
X0046988Y0001991D01*
X0047013Y0001973D01*
X0047041Y0001954D01*
X0047075Y0001932D01*
X0047109Y0001914D01*
X0047149Y0001892D01*
X0047192Y0001874D01*
X0047235Y0001858D01*
X0047285Y0001843D01*
X0047337Y0001834D01*
X0047393Y0001827D01*
X0047449Y0001824D01*
X0047464D01*
X0047482Y0001827D01*
X0047510D01*
X0047538Y0001834D01*
X0047575Y0001840D01*
X0047615Y0001849D01*
X0047655Y0001858D01*
X0047702Y0001874D01*
X0047748Y0001892D01*
X0047795Y0001914D01*
X0047844Y0001942D01*
X0047890Y0001973D01*
X0047937Y0002010D01*
X0047980Y0002053D01*
X0048020Y0002102D01*
X0048023Y0002105D01*
X0048029Y0002115D01*
X0048039Y0002130D01*
X0048054Y0002155D01*
X0048070Y0002183D01*
X0048085Y0002217D01*
X0048104Y0002260D01*
X0048125Y0002306D01*
X0048144Y0002359D01*
X0048162Y0002418D01*
X0048178Y0002479D01*
X0048196Y0002551D01*
X0048209Y0002625D01*
X0048218Y0002705D01*
X0048224Y0002792D01*
X0048227Y0002881D01*
Y0002887D01*
Y0002900D01*
Y0002921D01*
X0048224Y0002949D01*
X0048221Y0002986D01*
X0048218Y0003026D01*
X0048212Y0003070D01*
X0048202Y0003119D01*
X0048181Y0003224D01*
X0048165Y0003280D01*
X0048144Y0003332D01*
X0048122Y0003388D01*
X0048097Y0003440D01*
X0048066Y0003490D01*
X0048033Y0003536D01*
X0048029Y0003539D01*
X0048023Y0003545D01*
X0048014Y0003558D01*
X0047998Y0003573D01*
X0047977Y0003592D01*
X0047955Y0003610D01*
X0047927Y0003632D01*
X0047897Y0003657D01*
X0047859Y0003678D01*
X0047822Y0003700D01*
X0047779Y0003718D01*
X0047733Y0003737D01*
X0047680Y0003752D01*
X0047628Y0003765D01*
X0047572Y0003771D01*
X0047510Y0003774D01*
D02*
G37*
G36*
X0070416D02*
X0070389D01*
X0070370Y0003771D01*
X0070345Y0003768D01*
X0070315Y0003765D01*
X0070284Y0003759D01*
X0070250Y0003749D01*
X0070172Y0003725D01*
X0070132Y0003709D01*
X0070092Y0003688D01*
X0070052Y0003666D01*
X0070009Y0003638D01*
X0069972Y0003607D01*
X0069931Y0003570D01*
X0069928Y0003567D01*
X0069922Y0003561D01*
X0069913Y0003549D01*
X0069901Y0003533D01*
X0069885Y0003511D01*
X0069867Y0003490D01*
X0069848Y0003459D01*
X0069826Y0003428D01*
X0069805Y0003391D01*
X0069786Y0003351D01*
X0069765Y0003308D01*
X0069746Y0003261D01*
X0069727Y0003209D01*
X0069712Y0003156D01*
X0069696Y0003097D01*
X0069687Y0003039D01*
X0071044D01*
Y0003042D01*
Y0003054D01*
Y0003073D01*
X0071041Y0003097D01*
X0071038Y0003125D01*
X0071034Y0003159D01*
X0071028Y0003196D01*
X0071022Y0003237D01*
X0071000Y0003323D01*
X0070970Y0003416D01*
X0070951Y0003459D01*
X0070929Y0003502D01*
X0070905Y0003542D01*
X0070874Y0003579D01*
X0070871Y0003583D01*
X0070868Y0003589D01*
X0070858Y0003598D01*
X0070843Y0003610D01*
X0070827Y0003626D01*
X0070806Y0003641D01*
X0070784Y0003660D01*
X0070756Y0003678D01*
X0070726Y0003694D01*
X0070692Y0003712D01*
X0070651Y0003728D01*
X0070611Y0003743D01*
X0070568Y0003756D01*
X0070521Y0003765D01*
X0070469Y0003771D01*
X0070416Y0003774D01*
D02*
G37*
G36*
X0061412D02*
X0061384D01*
X0061366Y0003771D01*
X0061341Y0003768D01*
X0061310Y0003765D01*
X0061279Y0003759D01*
X0061245Y0003749D01*
X0061168Y0003725D01*
X0061128Y0003709D01*
X0061088Y0003688D01*
X0061048Y0003666D01*
X0061004Y0003638D01*
X0060967Y0003607D01*
X0060927Y0003570D01*
X0060924Y0003567D01*
X0060918Y0003561D01*
X0060909Y0003549D01*
X0060896Y0003533D01*
X0060881Y0003511D01*
X0060862Y0003490D01*
X0060844Y0003459D01*
X0060822Y0003428D01*
X0060800Y0003391D01*
X0060782Y0003351D01*
X0060760Y0003308D01*
X0060742Y0003261D01*
X0060723Y0003209D01*
X0060708Y0003156D01*
X0060692Y0003097D01*
X0060683Y0003039D01*
X0062040D01*
Y0003042D01*
Y0003054D01*
Y0003073D01*
X0062036Y0003097D01*
X0062033Y0003125D01*
X0062030Y0003159D01*
X0062024Y0003196D01*
X0062018Y0003237D01*
X0061996Y0003323D01*
X0061965Y0003416D01*
X0061947Y0003459D01*
X0061925Y0003502D01*
X0061900Y0003542D01*
X0061870Y0003579D01*
X0061866Y0003583D01*
X0061863Y0003589D01*
X0061854Y0003598D01*
X0061839Y0003610D01*
X0061823Y0003626D01*
X0061802Y0003641D01*
X0061780Y0003660D01*
X0061752Y0003678D01*
X0061721Y0003694D01*
X0061687Y0003712D01*
X0061647Y0003728D01*
X0061607Y0003743D01*
X0061564Y0003756D01*
X0061517Y0003765D01*
X0061465Y0003771D01*
X0061412Y0003774D01*
D02*
G37*
G36*
X0054401D02*
X0054386D01*
X0054364Y0003771D01*
X0054336D01*
X0054305Y0003765D01*
X0054268Y0003762D01*
X0054225Y0003752D01*
X0054179Y0003740D01*
X0054132Y0003728D01*
X0054083Y0003709D01*
X0054030Y0003688D01*
X0053981Y0003663D01*
X0053928Y0003632D01*
X0053879Y0003598D01*
X0053832Y0003558D01*
X0053789Y0003511D01*
X0053786Y0003508D01*
X0053780Y0003499D01*
X0053768Y0003484D01*
X0053755Y0003462D01*
X0053737Y0003437D01*
X0053718Y0003403D01*
X0053697Y0003366D01*
X0053678Y0003323D01*
X0053656Y0003274D01*
X0053635Y0003218D01*
X0053616Y0003159D01*
X0053598Y0003094D01*
X0053585Y0003023D01*
X0053573Y0002949D01*
X0053567Y0002869D01*
X0053564Y0002785D01*
Y0002779D01*
Y0002767D01*
X0053567Y0002742D01*
Y0002711D01*
X0053570Y0002674D01*
X0053576Y0002631D01*
X0053582Y0002581D01*
X0053591Y0002529D01*
X0053604Y0002473D01*
X0053619Y0002418D01*
X0053638Y0002359D01*
X0053659Y0002300D01*
X0053684Y0002241D01*
X0053715Y0002186D01*
X0053749Y0002130D01*
X0053789Y0002081D01*
X0053792Y0002078D01*
X0053799Y0002069D01*
X0053814Y0002056D01*
X0053832Y0002041D01*
X0053854Y0002022D01*
X0053882Y0002001D01*
X0053916Y0001976D01*
X0053953Y0001954D01*
X0053993Y0001929D01*
X0054040Y0001905D01*
X0054089Y0001883D01*
X0054145Y0001864D01*
X0054203Y0001849D01*
X0054265Y0001837D01*
X0054330Y0001827D01*
X0054401Y0001824D01*
X0054420D01*
X0054438Y0001827D01*
X0054466D01*
X0054497Y0001834D01*
X0054534Y0001837D01*
X0054577Y0001846D01*
X0054624Y0001855D01*
X0054670Y0001868D01*
X0054719Y0001886D01*
X0054769Y0001905D01*
X0054818Y0001929D01*
X0054868Y0001957D01*
X0054914Y0001991D01*
X0054960Y0002031D01*
X0055001Y0002075D01*
X0055004Y0002078D01*
X0055010Y0002087D01*
X0055019Y0002102D01*
X0055035Y0002121D01*
X0055050Y0002149D01*
X0055068Y0002180D01*
X0055087Y0002217D01*
X0055106Y0002260D01*
X0055124Y0002310D01*
X0055146Y0002362D01*
X0055161Y0002421D01*
X0055177Y0002486D01*
X0055192Y0002554D01*
X0055201Y0002631D01*
X0055208Y0002711D01*
X0055211Y0002795D01*
Y0002801D01*
Y0002816D01*
Y0002841D01*
X0055208Y0002872D01*
X0055204Y0002912D01*
X0055198Y0002955D01*
X0055192Y0003008D01*
X0055186Y0003060D01*
X0055158Y0003178D01*
X0055143Y0003237D01*
X0055121Y0003298D01*
X0055099Y0003357D01*
X0055068Y0003413D01*
X0055037Y0003468D01*
X0055001Y0003518D01*
X0054997Y0003521D01*
X0054991Y0003530D01*
X0054979Y0003542D01*
X0054960Y0003558D01*
X0054939Y0003576D01*
X0054914Y0003598D01*
X0054883Y0003623D01*
X0054846Y0003647D01*
X0054806Y0003669D01*
X0054763Y0003694D01*
X0054713Y0003715D01*
X0054661Y0003734D01*
X0054602Y0003749D01*
X0054540Y0003762D01*
X0054472Y0003771D01*
X0054401Y0003774D01*
D02*
G37*
G36*
X0044467D02*
X0044451D01*
X0044430Y0003771D01*
X0044402D01*
X0044371Y0003765D01*
X0044334Y0003762D01*
X0044291Y0003752D01*
X0044244Y0003740D01*
X0044198Y0003728D01*
X0044148Y0003709D01*
X0044096Y0003688D01*
X0044046Y0003663D01*
X0043994Y0003632D01*
X0043944Y0003598D01*
X0043898Y0003558D01*
X0043855Y0003511D01*
X0043852Y0003508D01*
X0043846Y0003499D01*
X0043833Y0003484D01*
X0043821Y0003462D01*
X0043802Y0003437D01*
X0043784Y0003403D01*
X0043762Y0003366D01*
X0043744Y0003323D01*
X0043722Y0003274D01*
X0043700Y0003218D01*
X0043682Y0003159D01*
X0043663Y0003094D01*
X0043651Y0003023D01*
X0043639Y0002949D01*
X0043632Y0002869D01*
X0043629Y0002785D01*
Y0002779D01*
Y0002767D01*
X0043632Y0002742D01*
Y0002711D01*
X0043635Y0002674D01*
X0043642Y0002631D01*
X0043648Y0002581D01*
X0043657Y0002529D01*
X0043669Y0002473D01*
X0043685Y0002418D01*
X0043703Y0002359D01*
X0043725Y0002300D01*
X0043750Y0002241D01*
X0043781Y0002186D01*
X0043815Y0002130D01*
X0043855Y0002081D01*
X0043858Y0002078D01*
X0043864Y0002069D01*
X0043880Y0002056D01*
X0043898Y0002041D01*
X0043920Y0002022D01*
X0043947Y0002001D01*
X0043982Y0001976D01*
X0044019Y0001954D01*
X0044059Y0001929D01*
X0044105Y0001905D01*
X0044155Y0001883D01*
X0044210Y0001864D01*
X0044269Y0001849D01*
X0044331Y0001837D01*
X0044396Y0001827D01*
X0044467Y0001824D01*
X0044485D01*
X0044504Y0001827D01*
X0044532D01*
X0044563Y0001834D01*
X0044600Y0001837D01*
X0044643Y0001846D01*
X0044689Y0001855D01*
X0044736Y0001868D01*
X0044785Y0001886D01*
X0044834Y0001905D01*
X0044884Y0001929D01*
X0044933Y0001957D01*
X0044980Y0001991D01*
X0045026Y0002031D01*
X0045066Y0002075D01*
X0045069Y0002078D01*
X0045075Y0002087D01*
X0045085Y0002102D01*
X0045100Y0002121D01*
X0045116Y0002149D01*
X0045134Y0002180D01*
X0045153Y0002217D01*
X0045171Y0002260D01*
X0045190Y0002310D01*
X0045211Y0002362D01*
X0045227Y0002421D01*
X0045242Y0002486D01*
X0045258Y0002554D01*
X0045267Y0002631D01*
X0045273Y0002711D01*
X0045276Y0002795D01*
Y0002801D01*
Y0002816D01*
Y0002841D01*
X0045273Y0002872D01*
X0045270Y0002912D01*
X0045264Y0002955D01*
X0045258Y0003008D01*
X0045252Y0003060D01*
X0045224Y0003178D01*
X0045208Y0003237D01*
X0045187Y0003298D01*
X0045165Y0003357D01*
X0045134Y0003413D01*
X0045103Y0003468D01*
X0045066Y0003518D01*
X0045063Y0003521D01*
X0045057Y0003530D01*
X0045044Y0003542D01*
X0045026Y0003558D01*
X0045004Y0003576D01*
X0044980Y0003598D01*
X0044949Y0003623D01*
X0044912Y0003647D01*
X0044871Y0003669D01*
X0044828Y0003694D01*
X0044779Y0003715D01*
X0044726Y0003734D01*
X0044668Y0003749D01*
X0044606Y0003762D01*
X0044538Y0003771D01*
X0044467Y0003774D01*
D02*
G37*
%LPD*%
D12*
X0020547Y-0011458D02*
G03*
X0020547Y0011852I-0020547J0011655D01*
G01*
X0020547Y-0011458D02*
G03*
X0022543Y-0017070I0003424J-0001942D01*
G01*
X-0011932Y0026177D02*
G03*
X-0022542Y0017466I-0007753J-0001374D01*
G01*
X-0011931Y0026178D02*
G03*
X-0006954Y0023176I0003861J0000772D01*
G01*
X0006947Y0023176D02*
G03*
X-0006947Y0023176I-0006947J-0022979D01*
G01*
X0022543Y0017463D02*
G03*
X0020547Y0011852I0001428J-0003669D01*
G01*
X-0020547D02*
G03*
X-0022543Y0017463I-0003424J0001942D01*
G01*
X0006953Y0023176D02*
G03*
X0011931Y0026178I0001117J0003775D01*
G01*
X0022542Y0017466D02*
G03*
X0011932Y0026177I-0002857J0007338D01*
G01*
X-0022543Y-0017070D02*
G03*
X-0020547Y-0011458I-0001428J0003669D01*
G01*
X-0020547Y0011852D02*
G03*
X-0020547Y-0011458I0020547J-0011655D01*
G01*
X0016811Y-0032283D02*
G03*
X0012874Y-0036220I0000001J-0003938D01*
G01*
X0009724Y-0055315D02*
G03*
X0012874Y-0052165I0000004J0003145D01*
G01*
X-0022543Y-0017070D02*
G03*
X-0019488Y-0032283I0002857J-0007340D01*
G01*
X0019488D02*
G03*
X0022543Y-0017070I0000197J0007874D01*
G01*
X-0012874Y-0052165D02*
G03*
X-0009724Y-0055315I0003145J-0000004D01*
G01*
X-0012874Y-0036220D02*
G03*
X-0016811Y-0032283I-0003938J-0000001D01*
G01*
X0012874Y-0052165D02*
Y-0036220D01*
X-0009724Y-0055315D02*
X0009724D01*
X-0019488Y-0032283D02*
X-0016811D01*
X0016811D02*
X0019488D01*
X-0012874Y-0052165D02*
Y-0036220D01*
D21*
X0000000Y-0043110D02*
D03*
X0005000D02*
D03*
D22*
X-0005000Y-0042126D02*
D03*
D23*
X0003564Y-0015256D02*
D03*
X0007304D02*
D03*
X0011044D02*
D03*
Y-0005807D02*
D03*
X0003564D02*
D03*
D24*
X-0001224Y-0005792D02*
D03*
Y-0009729D02*
D03*
X-0002927Y-0018999D02*
D03*
Y-0015062D02*
D03*
D25*
X0003667Y-0020534D02*
D03*
X0007604D02*
D03*
D26*
X0014665Y0001181D02*
D03*
X0003445D02*
D03*
D27*
X-0007972Y-0013386D02*
D03*
X-0011909D02*
D03*
D28*
X-0007966Y-0023481D02*
D03*
Y-0017969D02*
D03*
D29*
X-0015711Y-0004626D02*
D03*
X-0007837Y-0000886D02*
D03*
Y-0008366D02*
D03*
D30*
X-0004930Y-0028702D02*
D03*
X-0007686D02*
D03*
X0005508Y-0029039D02*
D03*
X0008264D02*
D03*
D31*
X0014685Y0010531D02*
D03*
X-0005315D02*
D03*
X0004685D02*
D03*
D32*
X-0015315D02*
D03*
D33*
X-0009921Y-0042717D02*
D03*
X0009921D02*
D03*
D34*
X0005000Y-0034449D02*
D03*
X0000000D02*
D03*
X-0005000D02*
D03*
D35*
X-0019685Y0024606D02*
D03*
X0019685D02*
D03*
X-0019685Y-0024606D02*
D03*
X0019685D02*
D03*
M02*
