G04*
G04 #@! TF.GenerationSoftware,Altium Limited,Altium Designer,21.3.2 (30)*
G04*
G04 Layer_Color=16711935*
%FSAX25Y25*%
%MOIN*%
G70*
G04*
G04 #@! TF.SameCoordinates,922420EC-F797-4737-9FA0-C8A043E9FC0D*
G04*
G04*
G04 #@! TF.FilePolarity,Negative*
G04*
G01*
G75*
%ADD12C,0.00197*%
%ADD31C,0.08465*%
%ADD32R,0.08465X0.08465*%
%ADD33C,0.00591*%
%ADD35C,0.12205*%
G04:AMPARAMS|DCode=44|XSize=35.43mil|YSize=135.83mil|CornerRadius=13.82mil|HoleSize=0mil|Usage=FLASHONLY|Rotation=180.000|XOffset=0mil|YOffset=0mil|HoleType=Round|Shape=RoundedRectangle|*
%AMROUNDEDRECTD44*
21,1,0.03543,0.10819,0,0,180.0*
21,1,0.00780,0.13583,0,0,180.0*
1,1,0.02764,-0.00390,0.05409*
1,1,0.02764,0.00390,0.05409*
1,1,0.02764,0.00390,-0.05409*
1,1,0.02764,-0.00390,-0.05409*
%
%ADD44ROUNDEDRECTD44*%
G04:AMPARAMS|DCode=45|XSize=35.43mil|YSize=116.14mil|CornerRadius=13.82mil|HoleSize=0mil|Usage=FLASHONLY|Rotation=180.000|XOffset=0mil|YOffset=0mil|HoleType=Round|Shape=RoundedRectangle|*
%AMROUNDEDRECTD45*
21,1,0.03543,0.08850,0,0,180.0*
21,1,0.00780,0.11614,0,0,180.0*
1,1,0.02764,-0.00390,0.04425*
1,1,0.02764,0.00390,0.04425*
1,1,0.02764,0.00390,-0.04425*
1,1,0.02764,-0.00390,-0.04425*
%
%ADD45ROUNDEDRECTD45*%
%ADD47C,0.04331*%
G36*
X0064623Y0044275D02*
X0064650Y0044268D01*
X0064678Y0044259D01*
X0064709Y0044244D01*
X0064740Y0044225D01*
X0064771Y0044201D01*
X0064774Y0044197D01*
X0064783Y0044188D01*
X0064796Y0044173D01*
X0064811Y0044151D01*
X0064824Y0044123D01*
X0064836Y0044092D01*
X0064845Y0044055D01*
X0064848Y0044015D01*
Y0044009D01*
Y0043997D01*
X0064845Y0043978D01*
X0064839Y0043950D01*
X0064830Y0043922D01*
X0064814Y0043891D01*
X0064796Y0043861D01*
X0064771Y0043830D01*
X0064768Y0043827D01*
X0064759Y0043817D01*
X0064740Y0043805D01*
X0064719Y0043793D01*
X0064691Y0043780D01*
X0064660Y0043768D01*
X0064626Y0043759D01*
X0064586Y0043755D01*
X0064567D01*
X0064549Y0043759D01*
X0064521Y0043765D01*
X0064493Y0043774D01*
X0064462Y0043786D01*
X0064431Y0043802D01*
X0064400Y0043827D01*
X0064397Y0043830D01*
X0064388Y0043839D01*
X0064376Y0043857D01*
X0064363Y0043879D01*
X0064351Y0043904D01*
X0064338Y0043938D01*
X0064329Y0043975D01*
X0064326Y0044015D01*
Y0044021D01*
Y0044034D01*
X0064329Y0044055D01*
X0064335Y0044080D01*
X0064345Y0044111D01*
X0064357Y0044142D01*
X0064376Y0044173D01*
X0064400Y0044201D01*
X0064403Y0044203D01*
X0064413Y0044213D01*
X0064431Y0044225D01*
X0064453Y0044241D01*
X0064481Y0044253D01*
X0064512Y0044265D01*
X0064546Y0044275D01*
X0064586Y0044278D01*
X0064604D01*
X0064623Y0044275D01*
D02*
G37*
G36*
X0052655Y0040610D02*
X0052254D01*
Y0041033D01*
X0052244D01*
X0052241Y0041027D01*
X0052232Y0041012D01*
X0052213Y0040990D01*
X0052192Y0040959D01*
X0052161Y0040922D01*
X0052127Y0040882D01*
X0052083Y0040839D01*
X0052031Y0040792D01*
X0051975Y0040746D01*
X0051911Y0040703D01*
X0051839Y0040662D01*
X0051762Y0040625D01*
X0051679Y0040594D01*
X0051586Y0040573D01*
X0051487Y0040557D01*
X0051382Y0040551D01*
X0051360D01*
X0051336Y0040554D01*
X0051305Y0040557D01*
X0051265Y0040560D01*
X0051218Y0040570D01*
X0051166Y0040579D01*
X0051110Y0040594D01*
X0051051Y0040610D01*
X0050990Y0040635D01*
X0050928Y0040659D01*
X0050863Y0040693D01*
X0050801Y0040730D01*
X0050739Y0040777D01*
X0050681Y0040829D01*
X0050625Y0040888D01*
X0050622Y0040891D01*
X0050613Y0040903D01*
X0050600Y0040922D01*
X0050582Y0040950D01*
X0050560Y0040984D01*
X0050535Y0041024D01*
X0050511Y0041073D01*
X0050486Y0041129D01*
X0050458Y0041191D01*
X0050433Y0041259D01*
X0050409Y0041336D01*
X0050387Y0041416D01*
X0050369Y0041503D01*
X0050356Y0041599D01*
X0050347Y0041698D01*
X0050344Y0041803D01*
Y0041806D01*
Y0041809D01*
Y0041818D01*
Y0041830D01*
X0050347Y0041861D01*
X0050350Y0041905D01*
X0050353Y0041960D01*
X0050359Y0042019D01*
X0050369Y0042087D01*
X0050384Y0042161D01*
X0050400Y0042238D01*
X0050421Y0042322D01*
X0050446Y0042402D01*
X0050477Y0042489D01*
X0050511Y0042569D01*
X0050554Y0042649D01*
X0050600Y0042726D01*
X0050656Y0042801D01*
X0050659Y0042804D01*
X0050671Y0042816D01*
X0050690Y0042835D01*
X0050715Y0042859D01*
X0050745Y0042887D01*
X0050783Y0042921D01*
X0050829Y0042955D01*
X0050878Y0042989D01*
X0050937Y0043023D01*
X0050999Y0043057D01*
X0051067Y0043091D01*
X0051141Y0043119D01*
X0051221Y0043144D01*
X0051308Y0043162D01*
X0051398Y0043175D01*
X0051493Y0043178D01*
X0051515D01*
X0051543Y0043175D01*
X0051577Y0043172D01*
X0051620Y0043165D01*
X0051669Y0043156D01*
X0051722Y0043144D01*
X0051781Y0043128D01*
X0051842Y0043107D01*
X0051904Y0043079D01*
X0051966Y0043045D01*
X0052028Y0043005D01*
X0052087Y0042958D01*
X0052145Y0042906D01*
X0052198Y0042841D01*
X0052244Y0042770D01*
X0052254D01*
Y0044324D01*
X0052655D01*
Y0040610D01*
D02*
G37*
G36*
X0066869Y0043175D02*
X0066897D01*
X0066931Y0043168D01*
X0066971Y0043162D01*
X0067014Y0043156D01*
X0067061Y0043144D01*
X0067110Y0043131D01*
X0067163Y0043113D01*
X0067215Y0043091D01*
X0067268Y0043063D01*
X0067317Y0043032D01*
X0067367Y0042998D01*
X0067413Y0042955D01*
X0067456Y0042909D01*
X0067459Y0042906D01*
X0067466Y0042897D01*
X0067478Y0042881D01*
X0067490Y0042859D01*
X0067506Y0042832D01*
X0067524Y0042798D01*
X0067546Y0042757D01*
X0067567Y0042714D01*
X0067586Y0042662D01*
X0067608Y0042606D01*
X0067626Y0042541D01*
X0067642Y0042473D01*
X0067654Y0042399D01*
X0067666Y0042319D01*
X0067673Y0042235D01*
X0067676Y0042143D01*
Y0040610D01*
X0067274D01*
Y0042041D01*
Y0042044D01*
Y0042050D01*
Y0042059D01*
Y0042074D01*
X0067271Y0042093D01*
Y0042115D01*
X0067265Y0042164D01*
X0067255Y0042226D01*
X0067243Y0042294D01*
X0067225Y0042365D01*
X0067200Y0042439D01*
X0067169Y0042513D01*
X0067132Y0042584D01*
X0067085Y0042652D01*
X0067027Y0042714D01*
X0066962Y0042764D01*
X0066925Y0042785D01*
X0066882Y0042804D01*
X0066838Y0042819D01*
X0066792Y0042829D01*
X0066742Y0042835D01*
X0066690Y0042838D01*
X0066662D01*
X0066641Y0042835D01*
X0066616Y0042832D01*
X0066585Y0042825D01*
X0066551Y0042819D01*
X0066517Y0042810D01*
X0066477Y0042798D01*
X0066437Y0042782D01*
X0066396Y0042764D01*
X0066353Y0042742D01*
X0066313Y0042714D01*
X0066270Y0042683D01*
X0066229Y0042649D01*
X0066192Y0042609D01*
X0066189Y0042606D01*
X0066183Y0042600D01*
X0066174Y0042588D01*
X0066162Y0042569D01*
X0066146Y0042547D01*
X0066131Y0042520D01*
X0066112Y0042489D01*
X0066094Y0042455D01*
X0066075Y0042414D01*
X0066057Y0042371D01*
X0066041Y0042325D01*
X0066026Y0042275D01*
X0066013Y0042220D01*
X0066004Y0042164D01*
X0065998Y0042102D01*
X0065995Y0042041D01*
Y0040610D01*
X0065593D01*
Y0043119D01*
X0065995D01*
Y0042702D01*
X0066004D01*
X0066007Y0042708D01*
X0066016Y0042723D01*
X0066035Y0042745D01*
X0066057Y0042776D01*
X0066087Y0042813D01*
X0066121Y0042853D01*
X0066165Y0042897D01*
X0066214Y0042940D01*
X0066270Y0042983D01*
X0066331Y0043026D01*
X0066400Y0043066D01*
X0066471Y0043104D01*
X0066551Y0043134D01*
X0066637Y0043156D01*
X0066730Y0043172D01*
X0066829Y0043178D01*
X0066847D01*
X0066869Y0043175D01*
D02*
G37*
G36*
X0049893Y0043159D02*
X0049927D01*
X0049964Y0043153D01*
X0050004Y0043147D01*
X0050044Y0043141D01*
X0050078Y0043128D01*
Y0042711D01*
X0050072Y0042714D01*
X0050060Y0042723D01*
X0050035Y0042736D01*
X0050001Y0042751D01*
X0049955Y0042767D01*
X0049905Y0042779D01*
X0049843Y0042788D01*
X0049772Y0042791D01*
X0049747D01*
X0049729Y0042788D01*
X0049707Y0042785D01*
X0049683Y0042779D01*
X0049624Y0042761D01*
X0049590Y0042748D01*
X0049556Y0042733D01*
X0049519Y0042711D01*
X0049482Y0042689D01*
X0049448Y0042662D01*
X0049411Y0042628D01*
X0049377Y0042591D01*
X0049343Y0042547D01*
X0049340Y0042544D01*
X0049336Y0042535D01*
X0049327Y0042523D01*
X0049315Y0042504D01*
X0049303Y0042479D01*
X0049287Y0042448D01*
X0049272Y0042414D01*
X0049256Y0042374D01*
X0049241Y0042331D01*
X0049225Y0042282D01*
X0049210Y0042226D01*
X0049197Y0042167D01*
X0049185Y0042102D01*
X0049176Y0042034D01*
X0049173Y0041963D01*
X0049170Y0041886D01*
Y0040610D01*
X0048768D01*
Y0043119D01*
X0049170D01*
Y0042600D01*
X0049179D01*
Y0042603D01*
X0049182Y0042612D01*
X0049188Y0042625D01*
X0049194Y0042643D01*
X0049204Y0042665D01*
X0049216Y0042693D01*
X0049244Y0042751D01*
X0049281Y0042819D01*
X0049327Y0042887D01*
X0049380Y0042952D01*
X0049442Y0043014D01*
X0049445Y0043017D01*
X0049451Y0043020D01*
X0049460Y0043026D01*
X0049472Y0043039D01*
X0049488Y0043048D01*
X0049510Y0043060D01*
X0049556Y0043088D01*
X0049615Y0043116D01*
X0049683Y0043141D01*
X0049757Y0043156D01*
X0049797Y0043159D01*
X0049837Y0043162D01*
X0049862D01*
X0049893Y0043159D01*
D02*
G37*
G36*
X0060655Y0040610D02*
X0060254D01*
Y0041005D01*
X0060244D01*
X0060241Y0040999D01*
X0060232Y0040987D01*
X0060216Y0040962D01*
X0060198Y0040934D01*
X0060170Y0040900D01*
X0060136Y0040863D01*
X0060099Y0040820D01*
X0060053Y0040780D01*
X0060003Y0040737D01*
X0059944Y0040696D01*
X0059883Y0040656D01*
X0059812Y0040622D01*
X0059734Y0040594D01*
X0059654Y0040570D01*
X0059564Y0040557D01*
X0059469Y0040551D01*
X0059447D01*
X0059431Y0040554D01*
X0059410D01*
X0059385Y0040557D01*
X0059357Y0040563D01*
X0059330Y0040567D01*
X0059262Y0040585D01*
X0059184Y0040607D01*
X0059104Y0040641D01*
X0059064Y0040662D01*
X0059021Y0040684D01*
X0058977Y0040712D01*
X0058937Y0040740D01*
X0058897Y0040774D01*
X0058857Y0040811D01*
X0058817Y0040854D01*
X0058780Y0040897D01*
X0058746Y0040947D01*
X0058712Y0041002D01*
X0058684Y0041061D01*
X0058656Y0041123D01*
X0058631Y0041191D01*
X0058610Y0041265D01*
X0058594Y0041345D01*
X0058582Y0041429D01*
X0058576Y0041521D01*
X0058573Y0041617D01*
Y0043119D01*
X0058971D01*
Y0041682D01*
Y0041679D01*
Y0041673D01*
Y0041664D01*
Y0041648D01*
X0058974Y0041630D01*
Y0041608D01*
X0058980Y0041559D01*
X0058990Y0041497D01*
X0059002Y0041432D01*
X0059024Y0041358D01*
X0059048Y0041287D01*
X0059079Y0041212D01*
X0059119Y0041138D01*
X0059169Y0041073D01*
X0059228Y0041012D01*
X0059299Y0040962D01*
X0059336Y0040940D01*
X0059379Y0040922D01*
X0059425Y0040907D01*
X0059472Y0040897D01*
X0059524Y0040891D01*
X0059580Y0040888D01*
X0059608D01*
X0059629Y0040891D01*
X0059654Y0040894D01*
X0059682Y0040900D01*
X0059716Y0040907D01*
X0059750Y0040916D01*
X0059787Y0040925D01*
X0059827Y0040940D01*
X0059867Y0040959D01*
X0059907Y0040981D01*
X0059948Y0041005D01*
X0059988Y0041033D01*
X0060025Y0041067D01*
X0060062Y0041104D01*
X0060065Y0041107D01*
X0060071Y0041113D01*
X0060080Y0041126D01*
X0060093Y0041144D01*
X0060105Y0041166D01*
X0060124Y0041191D01*
X0060139Y0041222D01*
X0060158Y0041256D01*
X0060176Y0041296D01*
X0060192Y0041339D01*
X0060210Y0041385D01*
X0060223Y0041435D01*
X0060235Y0041491D01*
X0060244Y0041546D01*
X0060250Y0041608D01*
X0060254Y0041673D01*
Y0043119D01*
X0060655D01*
Y0040610D01*
D02*
G37*
G36*
X0064780D02*
X0064379D01*
Y0043119D01*
X0064780D01*
Y0040610D01*
D02*
G37*
G36*
X0063566D02*
X0063164D01*
Y0044324D01*
X0063566D01*
Y0040610D01*
D02*
G37*
G36*
X0047164Y0043175D02*
X0047186D01*
X0047207Y0043172D01*
X0047235Y0043168D01*
X0047266Y0043162D01*
X0047331Y0043150D01*
X0047408Y0043128D01*
X0047486Y0043100D01*
X0047569Y0043060D01*
X0047652Y0043011D01*
X0047693Y0042983D01*
X0047733Y0042949D01*
X0047770Y0042912D01*
X0047807Y0042875D01*
X0047841Y0042832D01*
X0047872Y0042782D01*
X0047903Y0042733D01*
X0047930Y0042677D01*
X0047952Y0042615D01*
X0047974Y0042550D01*
X0047989Y0042482D01*
X0048002Y0042405D01*
X0048008Y0042328D01*
X0048011Y0042241D01*
Y0040610D01*
X0047609D01*
Y0040999D01*
X0047600D01*
X0047597Y0040993D01*
X0047588Y0040981D01*
X0047572Y0040959D01*
X0047550Y0040928D01*
X0047523Y0040894D01*
X0047489Y0040857D01*
X0047452Y0040817D01*
X0047405Y0040777D01*
X0047353Y0040734D01*
X0047297Y0040693D01*
X0047232Y0040656D01*
X0047164Y0040622D01*
X0047087Y0040591D01*
X0047007Y0040570D01*
X0046920Y0040557D01*
X0046827Y0040551D01*
X0046790D01*
X0046766Y0040554D01*
X0046735Y0040557D01*
X0046698Y0040560D01*
X0046657Y0040567D01*
X0046614Y0040576D01*
X0046518Y0040601D01*
X0046472Y0040616D01*
X0046423Y0040635D01*
X0046373Y0040656D01*
X0046327Y0040684D01*
X0046284Y0040715D01*
X0046240Y0040749D01*
X0046237Y0040752D01*
X0046231Y0040758D01*
X0046222Y0040771D01*
X0046206Y0040786D01*
X0046191Y0040804D01*
X0046175Y0040829D01*
X0046154Y0040857D01*
X0046135Y0040888D01*
X0046117Y0040925D01*
X0046098Y0040965D01*
X0046080Y0041008D01*
X0046064Y0041055D01*
X0046049Y0041104D01*
X0046040Y0041157D01*
X0046033Y0041216D01*
X0046030Y0041274D01*
Y0041277D01*
Y0041284D01*
Y0041293D01*
X0046033Y0041305D01*
Y0041321D01*
X0046036Y0041339D01*
X0046043Y0041385D01*
X0046055Y0041441D01*
X0046073Y0041503D01*
X0046098Y0041571D01*
X0046135Y0041642D01*
X0046178Y0041713D01*
X0046231Y0041784D01*
X0046265Y0041818D01*
X0046299Y0041852D01*
X0046339Y0041886D01*
X0046379Y0041917D01*
X0046426Y0041948D01*
X0046475Y0041976D01*
X0046528Y0042000D01*
X0046586Y0042025D01*
X0046648Y0042047D01*
X0046713Y0042065D01*
X0046784Y0042081D01*
X0046858Y0042093D01*
X0047609Y0042198D01*
Y0042201D01*
Y0042204D01*
Y0042214D01*
Y0042226D01*
X0047606Y0042257D01*
X0047600Y0042297D01*
X0047594Y0042346D01*
X0047581Y0042402D01*
X0047566Y0042458D01*
X0047544Y0042520D01*
X0047517Y0042578D01*
X0047482Y0042637D01*
X0047442Y0042689D01*
X0047393Y0042739D01*
X0047331Y0042779D01*
X0047263Y0042810D01*
X0047226Y0042822D01*
X0047183Y0042832D01*
X0047139Y0042835D01*
X0047093Y0042838D01*
X0047071D01*
X0047050Y0042835D01*
X0047016Y0042832D01*
X0046976Y0042829D01*
X0046929Y0042822D01*
X0046877Y0042813D01*
X0046821Y0042801D01*
X0046759Y0042782D01*
X0046694Y0042764D01*
X0046627Y0042739D01*
X0046556Y0042708D01*
X0046484Y0042671D01*
X0046413Y0042631D01*
X0046342Y0042584D01*
X0046274Y0042529D01*
Y0042940D01*
X0046277Y0042943D01*
X0046290Y0042949D01*
X0046311Y0042961D01*
X0046339Y0042977D01*
X0046376Y0042995D01*
X0046416Y0043014D01*
X0046466Y0043036D01*
X0046521Y0043060D01*
X0046580Y0043082D01*
X0046645Y0043104D01*
X0046716Y0043122D01*
X0046790Y0043141D01*
X0046871Y0043156D01*
X0046951Y0043168D01*
X0047038Y0043175D01*
X0047127Y0043178D01*
X0047149D01*
X0047164Y0043175D01*
D02*
G37*
G36*
X0041528Y0044120D02*
X0041565Y0044117D01*
X0041608Y0044111D01*
X0041658Y0044105D01*
X0041714Y0044095D01*
X0041769Y0044083D01*
X0041828Y0044068D01*
X0041890Y0044049D01*
X0041948Y0044027D01*
X0042010Y0044003D01*
X0042066Y0043972D01*
X0042121Y0043938D01*
X0042174Y0043898D01*
X0042177Y0043894D01*
X0042186Y0043888D01*
X0042199Y0043876D01*
X0042214Y0043857D01*
X0042236Y0043836D01*
X0042257Y0043808D01*
X0042282Y0043777D01*
X0042307Y0043743D01*
X0042331Y0043703D01*
X0042356Y0043660D01*
X0042378Y0043610D01*
X0042399Y0043561D01*
X0042415Y0043505D01*
X0042427Y0043446D01*
X0042437Y0043385D01*
X0042440Y0043320D01*
Y0043317D01*
Y0043307D01*
Y0043292D01*
X0042437Y0043270D01*
X0042433Y0043242D01*
X0042430Y0043215D01*
X0042427Y0043181D01*
X0042421Y0043144D01*
X0042399Y0043060D01*
X0042372Y0042974D01*
X0042353Y0042927D01*
X0042331Y0042884D01*
X0042307Y0042841D01*
X0042279Y0042798D01*
X0042276Y0042794D01*
X0042273Y0042788D01*
X0042263Y0042776D01*
X0042248Y0042761D01*
X0042233Y0042745D01*
X0042214Y0042723D01*
X0042189Y0042702D01*
X0042165Y0042677D01*
X0042134Y0042652D01*
X0042100Y0042625D01*
X0042063Y0042600D01*
X0042022Y0042572D01*
X0041979Y0042547D01*
X0041936Y0042526D01*
X0041834Y0042485D01*
Y0042476D01*
X0041837D01*
X0041849Y0042473D01*
X0041868Y0042470D01*
X0041893Y0042467D01*
X0041924Y0042461D01*
X0041958Y0042452D01*
X0041998Y0042439D01*
X0042038Y0042427D01*
X0042127Y0042393D01*
X0042177Y0042371D01*
X0042223Y0042343D01*
X0042270Y0042316D01*
X0042316Y0042285D01*
X0042362Y0042248D01*
X0042402Y0042207D01*
X0042406Y0042204D01*
X0042412Y0042198D01*
X0042421Y0042186D01*
X0042437Y0042167D01*
X0042452Y0042143D01*
X0042470Y0042118D01*
X0042489Y0042084D01*
X0042511Y0042050D01*
X0042529Y0042010D01*
X0042548Y0041963D01*
X0042566Y0041917D01*
X0042582Y0041864D01*
X0042597Y0041806D01*
X0042606Y0041747D01*
X0042613Y0041685D01*
X0042616Y0041617D01*
Y0041611D01*
Y0041599D01*
X0042613Y0041574D01*
X0042610Y0041543D01*
X0042606Y0041503D01*
X0042597Y0041460D01*
X0042588Y0041410D01*
X0042576Y0041358D01*
X0042557Y0041299D01*
X0042535Y0041240D01*
X0042511Y0041181D01*
X0042480Y0041120D01*
X0042443Y0041058D01*
X0042399Y0040999D01*
X0042350Y0040944D01*
X0042291Y0040888D01*
X0042288Y0040885D01*
X0042276Y0040876D01*
X0042257Y0040863D01*
X0042233Y0040845D01*
X0042202Y0040823D01*
X0042162Y0040801D01*
X0042118Y0040774D01*
X0042069Y0040749D01*
X0042010Y0040724D01*
X0041948Y0040699D01*
X0041883Y0040675D01*
X0041809Y0040653D01*
X0041732Y0040635D01*
X0041652Y0040622D01*
X0041565Y0040613D01*
X0041475Y0040610D01*
X0040453D01*
Y0044123D01*
X0041494D01*
X0041528Y0044120D01*
D02*
G37*
G36*
X0061996Y0043119D02*
X0062630D01*
Y0042773D01*
X0061996D01*
Y0041361D01*
Y0041358D01*
Y0041348D01*
Y0041336D01*
Y0041321D01*
X0061999Y0041299D01*
X0062002Y0041274D01*
X0062009Y0041222D01*
X0062018Y0041160D01*
X0062033Y0041101D01*
X0062055Y0041046D01*
X0062067Y0041021D01*
X0062083Y0040999D01*
X0062086Y0040996D01*
X0062098Y0040984D01*
X0062120Y0040965D01*
X0062151Y0040947D01*
X0062191Y0040925D01*
X0062240Y0040910D01*
X0062299Y0040897D01*
X0062367Y0040891D01*
X0062392D01*
X0062420Y0040894D01*
X0062457Y0040900D01*
X0062497Y0040913D01*
X0062543Y0040925D01*
X0062586Y0040947D01*
X0062630Y0040975D01*
Y0040631D01*
X0062627D01*
X0062624Y0040628D01*
X0062614Y0040625D01*
X0062605Y0040619D01*
X0062571Y0040607D01*
X0062531Y0040594D01*
X0062475Y0040582D01*
X0062410Y0040570D01*
X0062336Y0040560D01*
X0062253Y0040557D01*
X0062225D01*
X0062191Y0040563D01*
X0062151Y0040570D01*
X0062101Y0040579D01*
X0062046Y0040598D01*
X0061984Y0040619D01*
X0061925Y0040650D01*
X0061863Y0040687D01*
X0061802Y0040737D01*
X0061746Y0040795D01*
X0061721Y0040829D01*
X0061696Y0040866D01*
X0061675Y0040907D01*
X0061656Y0040950D01*
X0061638Y0040996D01*
X0061622Y0041049D01*
X0061610Y0041101D01*
X0061601Y0041160D01*
X0061598Y0041222D01*
X0061594Y0041290D01*
Y0042773D01*
X0061165D01*
Y0043119D01*
X0061594D01*
Y0043731D01*
X0061996Y0043861D01*
Y0043119D01*
D02*
G37*
G36*
X0069465Y0043175D02*
X0069499Y0043172D01*
X0069542Y0043168D01*
X0069588Y0043162D01*
X0069641Y0043150D01*
X0069696Y0043137D01*
X0069758Y0043122D01*
X0069820Y0043100D01*
X0069882Y0043073D01*
X0069947Y0043042D01*
X0070009Y0043005D01*
X0070067Y0042961D01*
X0070126Y0042912D01*
X0070179Y0042856D01*
X0070182Y0042853D01*
X0070191Y0042841D01*
X0070203Y0042822D01*
X0070222Y0042798D01*
X0070240Y0042767D01*
X0070265Y0042726D01*
X0070290Y0042680D01*
X0070315Y0042628D01*
X0070339Y0042566D01*
X0070364Y0042501D01*
X0070389Y0042427D01*
X0070407Y0042349D01*
X0070426Y0042263D01*
X0070438Y0042173D01*
X0070447Y0042074D01*
X0070451Y0041973D01*
Y0041762D01*
X0068677D01*
Y0041756D01*
Y0041744D01*
X0068680Y0041722D01*
X0068683Y0041695D01*
X0068686Y0041657D01*
X0068692Y0041617D01*
X0068698Y0041574D01*
X0068711Y0041524D01*
X0068739Y0041420D01*
X0068757Y0041367D01*
X0068779Y0041311D01*
X0068804Y0041259D01*
X0068831Y0041206D01*
X0068865Y0041160D01*
X0068902Y0041113D01*
X0068906Y0041110D01*
X0068912Y0041104D01*
X0068924Y0041092D01*
X0068943Y0041080D01*
X0068964Y0041061D01*
X0068992Y0041043D01*
X0069023Y0041021D01*
X0069057Y0041002D01*
X0069097Y0040981D01*
X0069143Y0040959D01*
X0069190Y0040940D01*
X0069245Y0040922D01*
X0069301Y0040910D01*
X0069363Y0040897D01*
X0069428Y0040891D01*
X0069496Y0040888D01*
X0069514D01*
X0069536Y0040891D01*
X0069567D01*
X0069604Y0040897D01*
X0069647Y0040903D01*
X0069696Y0040913D01*
X0069752Y0040922D01*
X0069811Y0040937D01*
X0069873Y0040956D01*
X0069937Y0040978D01*
X0070002Y0041005D01*
X0070070Y0041036D01*
X0070138Y0041073D01*
X0070206Y0041117D01*
X0070274Y0041166D01*
Y0040789D01*
X0070271Y0040786D01*
X0070259Y0040780D01*
X0070240Y0040767D01*
X0070216Y0040752D01*
X0070182Y0040734D01*
X0070142Y0040715D01*
X0070095Y0040693D01*
X0070043Y0040672D01*
X0069981Y0040647D01*
X0069916Y0040625D01*
X0069845Y0040607D01*
X0069768Y0040588D01*
X0069684Y0040573D01*
X0069595Y0040560D01*
X0069499Y0040554D01*
X0069400Y0040551D01*
X0069375D01*
X0069350Y0040554D01*
X0069313Y0040557D01*
X0069267Y0040560D01*
X0069214Y0040570D01*
X0069159Y0040579D01*
X0069097Y0040594D01*
X0069032Y0040613D01*
X0068964Y0040635D01*
X0068893Y0040662D01*
X0068825Y0040693D01*
X0068754Y0040734D01*
X0068689Y0040780D01*
X0068624Y0040832D01*
X0068566Y0040891D01*
X0068563Y0040894D01*
X0068553Y0040907D01*
X0068538Y0040928D01*
X0068519Y0040956D01*
X0068494Y0040990D01*
X0068470Y0041033D01*
X0068442Y0041083D01*
X0068414Y0041141D01*
X0068386Y0041203D01*
X0068358Y0041277D01*
X0068334Y0041355D01*
X0068309Y0041441D01*
X0068291Y0041534D01*
X0068275Y0041633D01*
X0068266Y0041741D01*
X0068263Y0041852D01*
Y0041855D01*
Y0041858D01*
Y0041868D01*
Y0041877D01*
X0068266Y0041908D01*
X0068269Y0041951D01*
X0068272Y0042000D01*
X0068281Y0042056D01*
X0068291Y0042121D01*
X0068303Y0042192D01*
X0068322Y0042266D01*
X0068343Y0042343D01*
X0068371Y0042424D01*
X0068402Y0042504D01*
X0068439Y0042581D01*
X0068485Y0042662D01*
X0068535Y0042736D01*
X0068593Y0042807D01*
X0068597Y0042810D01*
X0068609Y0042822D01*
X0068627Y0042841D01*
X0068652Y0042866D01*
X0068686Y0042893D01*
X0068726Y0042924D01*
X0068770Y0042958D01*
X0068822Y0042992D01*
X0068878Y0043026D01*
X0068943Y0043060D01*
X0069011Y0043091D01*
X0069082Y0043119D01*
X0069159Y0043144D01*
X0069242Y0043162D01*
X0069329Y0043175D01*
X0069418Y0043178D01*
X0069440D01*
X0069465Y0043175D01*
D02*
G37*
G36*
X0056422Y0044179D02*
X0056444D01*
X0056465Y0044176D01*
X0056493D01*
X0056555Y0044166D01*
X0056626Y0044157D01*
X0056706Y0044142D01*
X0056793Y0044120D01*
X0056882Y0044095D01*
X0056978Y0044061D01*
X0057074Y0044021D01*
X0057173Y0043975D01*
X0057272Y0043919D01*
X0057364Y0043854D01*
X0057457Y0043777D01*
X0057543Y0043691D01*
X0057550Y0043684D01*
X0057562Y0043669D01*
X0057584Y0043641D01*
X0057615Y0043601D01*
X0057645Y0043551D01*
X0057686Y0043493D01*
X0057726Y0043425D01*
X0057766Y0043348D01*
X0057806Y0043258D01*
X0057846Y0043162D01*
X0057886Y0043057D01*
X0057920Y0042943D01*
X0057948Y0042819D01*
X0057970Y0042689D01*
X0057982Y0042553D01*
X0057989Y0042408D01*
Y0042405D01*
Y0042399D01*
Y0042387D01*
Y0042371D01*
X0057985Y0042349D01*
Y0042325D01*
X0057982Y0042297D01*
Y0042266D01*
X0057979Y0042232D01*
X0057976Y0042195D01*
X0057964Y0042112D01*
X0057951Y0042016D01*
X0057933Y0041917D01*
X0057908Y0041809D01*
X0057877Y0041698D01*
X0057840Y0041586D01*
X0057797Y0041472D01*
X0057744Y0041361D01*
X0057683Y0041249D01*
X0057612Y0041148D01*
X0057531Y0041049D01*
X0057525Y0041043D01*
X0057510Y0041027D01*
X0057485Y0041002D01*
X0057448Y0040971D01*
X0057401Y0040934D01*
X0057346Y0040891D01*
X0057284Y0040848D01*
X0057210Y0040801D01*
X0057126Y0040755D01*
X0057034Y0040709D01*
X0056935Y0040666D01*
X0056827Y0040628D01*
X0056709Y0040598D01*
X0056586Y0040573D01*
X0056453Y0040557D01*
X0056314Y0040551D01*
X0056280D01*
X0056264Y0040554D01*
X0056243D01*
X0056218Y0040557D01*
X0056190Y0040560D01*
X0056125Y0040567D01*
X0056054Y0040576D01*
X0055971Y0040591D01*
X0055884Y0040613D01*
X0055788Y0040638D01*
X0055693Y0040672D01*
X0055594Y0040712D01*
X0055492Y0040758D01*
X0055393Y0040814D01*
X0055297Y0040882D01*
X0055201Y0040956D01*
X0055115Y0041043D01*
X0055109Y0041049D01*
X0055096Y0041064D01*
X0055075Y0041092D01*
X0055044Y0041132D01*
X0055010Y0041181D01*
X0054973Y0041240D01*
X0054932Y0041308D01*
X0054892Y0041388D01*
X0054849Y0041475D01*
X0054809Y0041571D01*
X0054772Y0041676D01*
X0054738Y0041790D01*
X0054707Y0041914D01*
X0054685Y0042044D01*
X0054673Y0042180D01*
X0054667Y0042325D01*
Y0042328D01*
Y0042334D01*
Y0042346D01*
Y0042362D01*
X0054670Y0042384D01*
Y0042405D01*
X0054673Y0042433D01*
Y0042464D01*
X0054676Y0042498D01*
X0054682Y0042538D01*
X0054691Y0042618D01*
X0054704Y0042711D01*
X0054725Y0042810D01*
X0054747Y0042918D01*
X0054778Y0043026D01*
X0054815Y0043137D01*
X0054858Y0043252D01*
X0054911Y0043363D01*
X0054973Y0043471D01*
X0055044Y0043576D01*
X0055124Y0043675D01*
X0055130Y0043681D01*
X0055146Y0043697D01*
X0055170Y0043722D01*
X0055208Y0043755D01*
X0055254Y0043793D01*
X0055313Y0043836D01*
X0055377Y0043882D01*
X0055452Y0043929D01*
X0055538Y0043975D01*
X0055631Y0044021D01*
X0055733Y0044065D01*
X0055844Y0044102D01*
X0055964Y0044136D01*
X0056091Y0044160D01*
X0056227Y0044176D01*
X0056372Y0044182D01*
X0056403D01*
X0056422Y0044179D01*
D02*
G37*
G36*
X0044436Y0043175D02*
X0044476Y0043172D01*
X0044522Y0043168D01*
X0044578Y0043159D01*
X0044637Y0043150D01*
X0044701Y0043134D01*
X0044773Y0043116D01*
X0044844Y0043094D01*
X0044915Y0043066D01*
X0044989Y0043032D01*
X0045060Y0042992D01*
X0045131Y0042946D01*
X0045196Y0042893D01*
X0045258Y0042832D01*
X0045261Y0042829D01*
X0045270Y0042816D01*
X0045285Y0042794D01*
X0045307Y0042767D01*
X0045332Y0042733D01*
X0045357Y0042689D01*
X0045388Y0042640D01*
X0045415Y0042581D01*
X0045446Y0042516D01*
X0045474Y0042445D01*
X0045499Y0042368D01*
X0045523Y0042282D01*
X0045545Y0042189D01*
X0045561Y0042090D01*
X0045570Y0041985D01*
X0045573Y0041874D01*
Y0041871D01*
Y0041868D01*
Y0041858D01*
Y0041846D01*
X0045570Y0041815D01*
X0045567Y0041775D01*
X0045564Y0041722D01*
X0045554Y0041664D01*
X0045545Y0041599D01*
X0045530Y0041528D01*
X0045511Y0041453D01*
X0045489Y0041373D01*
X0045462Y0041293D01*
X0045431Y0041212D01*
X0045391Y0041132D01*
X0045344Y0041055D01*
X0045292Y0040981D01*
X0045233Y0040910D01*
X0045230Y0040907D01*
X0045217Y0040894D01*
X0045199Y0040876D01*
X0045171Y0040854D01*
X0045137Y0040826D01*
X0045097Y0040795D01*
X0045048Y0040764D01*
X0044992Y0040730D01*
X0044930Y0040696D01*
X0044862Y0040666D01*
X0044788Y0040635D01*
X0044708Y0040607D01*
X0044618Y0040585D01*
X0044525Y0040567D01*
X0044430Y0040554D01*
X0044324Y0040551D01*
X0044300D01*
X0044272Y0040554D01*
X0044232Y0040557D01*
X0044186Y0040560D01*
X0044130Y0040570D01*
X0044071Y0040579D01*
X0044006Y0040594D01*
X0043935Y0040613D01*
X0043864Y0040638D01*
X0043790Y0040666D01*
X0043716Y0040699D01*
X0043642Y0040740D01*
X0043567Y0040786D01*
X0043499Y0040839D01*
X0043435Y0040900D01*
X0043431Y0040903D01*
X0043419Y0040916D01*
X0043404Y0040937D01*
X0043382Y0040965D01*
X0043357Y0040999D01*
X0043330Y0041043D01*
X0043302Y0041092D01*
X0043271Y0041151D01*
X0043240Y0041212D01*
X0043209Y0041284D01*
X0043181Y0041361D01*
X0043156Y0041444D01*
X0043135Y0041531D01*
X0043119Y0041627D01*
X0043107Y0041728D01*
X0043104Y0041833D01*
Y0041837D01*
Y0041840D01*
Y0041849D01*
Y0041861D01*
X0043107Y0041895D01*
X0043110Y0041939D01*
X0043113Y0041991D01*
X0043123Y0042053D01*
X0043132Y0042121D01*
X0043147Y0042195D01*
X0043166Y0042272D01*
X0043187Y0042353D01*
X0043215Y0042436D01*
X0043249Y0042520D01*
X0043289Y0042600D01*
X0043333Y0042677D01*
X0043385Y0042751D01*
X0043447Y0042822D01*
X0043450Y0042825D01*
X0043462Y0042838D01*
X0043484Y0042856D01*
X0043512Y0042878D01*
X0043546Y0042906D01*
X0043589Y0042934D01*
X0043639Y0042968D01*
X0043694Y0043001D01*
X0043756Y0043032D01*
X0043827Y0043066D01*
X0043904Y0043094D01*
X0043988Y0043122D01*
X0044077Y0043144D01*
X0044173Y0043162D01*
X0044275Y0043175D01*
X0044383Y0043178D01*
X0044408D01*
X0044436Y0043175D01*
D02*
G37*
G36*
X0082032Y-0000656D02*
X0082060Y-0000662D01*
X0082087Y-0000672D01*
X0082118Y-0000687D01*
X0082149Y-0000706D01*
X0082180Y-0000730D01*
X0082183Y-0000733D01*
X0082192Y-0000743D01*
X0082205Y-0000758D01*
X0082220Y-0000780D01*
X0082233Y-0000808D01*
X0082245Y-0000838D01*
X0082254Y-0000876D01*
X0082257Y-0000916D01*
Y-0000922D01*
Y-0000934D01*
X0082254Y-0000953D01*
X0082248Y-0000981D01*
X0082239Y-0001008D01*
X0082223Y-0001039D01*
X0082205Y-0001070D01*
X0082180Y-0001101D01*
X0082177Y-0001104D01*
X0082168Y-0001113D01*
X0082149Y-0001126D01*
X0082128Y-0001138D01*
X0082100Y-0001151D01*
X0082069Y-0001163D01*
X0082035Y-0001172D01*
X0081995Y-0001175D01*
X0081976D01*
X0081958Y-0001172D01*
X0081930Y-0001166D01*
X0081902Y-0001157D01*
X0081871Y-0001144D01*
X0081840Y-0001129D01*
X0081809Y-0001104D01*
X0081806Y-0001101D01*
X0081797Y-0001092D01*
X0081785Y-0001073D01*
X0081772Y-0001052D01*
X0081760Y-0001027D01*
X0081748Y-0000993D01*
X0081738Y-0000956D01*
X0081735Y-0000916D01*
Y-0000910D01*
Y-0000897D01*
X0081738Y-0000876D01*
X0081744Y-0000851D01*
X0081754Y-0000820D01*
X0081766Y-0000789D01*
X0081785Y-0000758D01*
X0081809Y-0000730D01*
X0081812Y-0000727D01*
X0081822Y-0000718D01*
X0081840Y-0000706D01*
X0081862Y-0000690D01*
X0081890Y-0000678D01*
X0081921Y-0000665D01*
X0081954Y-0000656D01*
X0081995Y-0000653D01*
X0082013D01*
X0082032Y-0000656D01*
D02*
G37*
G36*
X0059453Y-0000752D02*
X0059496D01*
X0059546Y-0000755D01*
X0059601Y-0000758D01*
X0059660Y-0000764D01*
X0059784Y-0000780D01*
X0059907Y-0000801D01*
X0059969Y-0000817D01*
X0060025Y-0000832D01*
X0060080Y-0000854D01*
X0060127Y-0000876D01*
Y-0001339D01*
X0060124Y-0001336D01*
X0060111Y-0001330D01*
X0060096Y-0001321D01*
X0060071Y-0001305D01*
X0060040Y-0001290D01*
X0060003Y-0001271D01*
X0059960Y-0001249D01*
X0059911Y-0001231D01*
X0059855Y-0001209D01*
X0059793Y-0001191D01*
X0059728Y-0001172D01*
X0059657Y-0001157D01*
X0059583Y-0001141D01*
X0059503Y-0001132D01*
X0059416Y-0001126D01*
X0059326Y-0001123D01*
X0059277D01*
X0059243Y-0001126D01*
X0059203Y-0001129D01*
X0059157Y-0001135D01*
X0059107Y-0001141D01*
X0059058Y-0001151D01*
X0059052D01*
X0059036Y-0001157D01*
X0059011Y-0001163D01*
X0058977Y-0001172D01*
X0058940Y-0001185D01*
X0058900Y-0001200D01*
X0058857Y-0001222D01*
X0058817Y-0001243D01*
X0058814Y-0001246D01*
X0058798Y-0001256D01*
X0058780Y-0001268D01*
X0058755Y-0001287D01*
X0058730Y-0001311D01*
X0058699Y-0001339D01*
X0058671Y-0001370D01*
X0058647Y-0001407D01*
X0058644Y-0001410D01*
X0058637Y-0001426D01*
X0058625Y-0001447D01*
X0058616Y-0001475D01*
X0058603Y-0001509D01*
X0058591Y-0001552D01*
X0058585Y-0001599D01*
X0058582Y-0001651D01*
Y-0001657D01*
Y-0001673D01*
X0058585Y-0001701D01*
X0058588Y-0001732D01*
X0058594Y-0001769D01*
X0058603Y-0001809D01*
X0058616Y-0001849D01*
X0058631Y-0001886D01*
X0058634Y-0001889D01*
X0058640Y-0001901D01*
X0058653Y-0001920D01*
X0058668Y-0001945D01*
X0058690Y-0001973D01*
X0058715Y-0002003D01*
X0058746Y-0002034D01*
X0058780Y-0002065D01*
X0058783Y-0002068D01*
X0058798Y-0002078D01*
X0058820Y-0002096D01*
X0058847Y-0002115D01*
X0058881Y-0002139D01*
X0058922Y-0002164D01*
X0058968Y-0002195D01*
X0059017Y-0002223D01*
X0059021D01*
X0059024Y-0002226D01*
X0059042Y-0002235D01*
X0059073Y-0002251D01*
X0059110Y-0002272D01*
X0059160Y-0002294D01*
X0059215Y-0002322D01*
X0059277Y-0002353D01*
X0059342Y-0002387D01*
X0059345D01*
X0059351Y-0002390D01*
X0059360Y-0002396D01*
X0059373Y-0002402D01*
X0059391Y-0002411D01*
X0059410Y-0002421D01*
X0059456Y-0002445D01*
X0059512Y-0002476D01*
X0059574Y-0002510D01*
X0059636Y-0002544D01*
X0059700Y-0002584D01*
X0059703D01*
X0059706Y-0002587D01*
X0059716Y-0002594D01*
X0059728Y-0002603D01*
X0059762Y-0002624D01*
X0059802Y-0002652D01*
X0059849Y-0002686D01*
X0059898Y-0002723D01*
X0059948Y-0002767D01*
X0059997Y-0002813D01*
X0060003Y-0002819D01*
X0060019Y-0002835D01*
X0060040Y-0002859D01*
X0060071Y-0002893D01*
X0060102Y-0002933D01*
X0060136Y-0002980D01*
X0060167Y-0003032D01*
X0060198Y-0003088D01*
Y-0003091D01*
X0060201Y-0003094D01*
X0060204Y-0003104D01*
X0060210Y-0003116D01*
X0060223Y-0003147D01*
X0060238Y-0003187D01*
X0060250Y-0003239D01*
X0060263Y-0003298D01*
X0060272Y-0003363D01*
X0060275Y-0003434D01*
Y-0003437D01*
Y-0003447D01*
Y-0003459D01*
Y-0003477D01*
X0060272Y-0003499D01*
X0060269Y-0003527D01*
X0060266Y-0003555D01*
X0060263Y-0003585D01*
X0060250Y-0003657D01*
X0060232Y-0003731D01*
X0060207Y-0003805D01*
X0060173Y-0003876D01*
Y-0003879D01*
X0060170Y-0003885D01*
X0060164Y-0003895D01*
X0060155Y-0003907D01*
X0060133Y-0003938D01*
X0060102Y-0003981D01*
X0060062Y-0004027D01*
X0060015Y-0004077D01*
X0059960Y-0004123D01*
X0059898Y-0004169D01*
X0059895D01*
X0059889Y-0004176D01*
X0059880Y-0004179D01*
X0059867Y-0004188D01*
X0059852Y-0004197D01*
X0059830Y-0004207D01*
X0059784Y-0004231D01*
X0059725Y-0004256D01*
X0059657Y-0004284D01*
X0059583Y-0004309D01*
X0059500Y-0004330D01*
X0059496D01*
X0059490Y-0004333D01*
X0059478D01*
X0059459Y-0004336D01*
X0059441Y-0004343D01*
X0059416Y-0004346D01*
X0059388Y-0004349D01*
X0059354Y-0004355D01*
X0059283Y-0004364D01*
X0059203Y-0004370D01*
X0059116Y-0004377D01*
X0059024Y-0004380D01*
X0058990D01*
X0058968Y-0004377D01*
X0058937D01*
X0058900Y-0004373D01*
X0058860Y-0004370D01*
X0058817Y-0004364D01*
X0058810D01*
X0058795Y-0004361D01*
X0058770Y-0004358D01*
X0058739Y-0004355D01*
X0058702Y-0004349D01*
X0058659Y-0004343D01*
X0058616Y-0004336D01*
X0058566Y-0004327D01*
X0058560D01*
X0058545Y-0004324D01*
X0058520Y-0004318D01*
X0058489Y-0004309D01*
X0058452Y-0004302D01*
X0058412Y-0004290D01*
X0058325Y-0004265D01*
X0058319Y-0004262D01*
X0058307Y-0004259D01*
X0058285Y-0004250D01*
X0058260Y-0004241D01*
X0058233Y-0004228D01*
X0058202Y-0004213D01*
X0058171Y-0004197D01*
X0058143Y-0004179D01*
Y-0003694D01*
X0058146Y-0003697D01*
X0058158Y-0003706D01*
X0058177Y-0003721D01*
X0058199Y-0003737D01*
X0058230Y-0003759D01*
X0058263Y-0003780D01*
X0058301Y-0003805D01*
X0058344Y-0003827D01*
X0058350Y-0003830D01*
X0058365Y-0003836D01*
X0058387Y-0003848D01*
X0058418Y-0003861D01*
X0058455Y-0003876D01*
X0058495Y-0003895D01*
X0058542Y-0003913D01*
X0058588Y-0003929D01*
X0058594Y-0003932D01*
X0058610Y-0003935D01*
X0058637Y-0003941D01*
X0058668Y-0003950D01*
X0058709Y-0003963D01*
X0058752Y-0003972D01*
X0058847Y-0003990D01*
X0058854D01*
X0058869Y-0003993D01*
X0058894Y-0003997D01*
X0058928Y-0004000D01*
X0058965Y-0004006D01*
X0059005Y-0004009D01*
X0059088Y-0004012D01*
X0059126D01*
X0059150Y-0004009D01*
X0059181D01*
X0059218Y-0004006D01*
X0059259Y-0004000D01*
X0059302Y-0003993D01*
X0059394Y-0003978D01*
X0059487Y-0003953D01*
X0059577Y-0003919D01*
X0059617Y-0003898D01*
X0059654Y-0003873D01*
X0059657Y-0003870D01*
X0059663Y-0003867D01*
X0059673Y-0003857D01*
X0059685Y-0003845D01*
X0059697Y-0003833D01*
X0059713Y-0003814D01*
X0059731Y-0003793D01*
X0059750Y-0003768D01*
X0059765Y-0003740D01*
X0059784Y-0003712D01*
X0059815Y-0003641D01*
X0059824Y-0003601D01*
X0059833Y-0003558D01*
X0059839Y-0003514D01*
X0059842Y-0003465D01*
Y-0003462D01*
Y-0003459D01*
Y-0003440D01*
X0059839Y-0003416D01*
X0059836Y-0003382D01*
X0059827Y-0003341D01*
X0059818Y-0003301D01*
X0059802Y-0003258D01*
X0059781Y-0003218D01*
X0059778Y-0003212D01*
X0059768Y-0003199D01*
X0059756Y-0003181D01*
X0059737Y-0003153D01*
X0059713Y-0003125D01*
X0059682Y-0003091D01*
X0059648Y-0003060D01*
X0059608Y-0003026D01*
X0059601Y-0003023D01*
X0059589Y-0003011D01*
X0059564Y-0002992D01*
X0059534Y-0002971D01*
X0059493Y-0002946D01*
X0059450Y-0002918D01*
X0059401Y-0002887D01*
X0059345Y-0002859D01*
X0059342D01*
X0059339Y-0002856D01*
X0059330Y-0002850D01*
X0059320Y-0002844D01*
X0059289Y-0002829D01*
X0059249Y-0002807D01*
X0059200Y-0002782D01*
X0059144Y-0002754D01*
X0059086Y-0002723D01*
X0059021Y-0002689D01*
X0059017D01*
X0059011Y-0002686D01*
X0059002Y-0002680D01*
X0058990Y-0002674D01*
X0058956Y-0002655D01*
X0058909Y-0002631D01*
X0058857Y-0002603D01*
X0058798Y-0002572D01*
X0058678Y-0002501D01*
X0058675D01*
X0058671Y-0002498D01*
X0058662Y-0002492D01*
X0058650Y-0002486D01*
X0058622Y-0002464D01*
X0058585Y-0002439D01*
X0058542Y-0002408D01*
X0058495Y-0002371D01*
X0058449Y-0002334D01*
X0058403Y-0002291D01*
X0058396Y-0002285D01*
X0058384Y-0002269D01*
X0058362Y-0002248D01*
X0058335Y-0002217D01*
X0058307Y-0002176D01*
X0058276Y-0002133D01*
X0058245Y-0002084D01*
X0058217Y-0002031D01*
Y-0002028D01*
X0058214Y-0002025D01*
X0058211Y-0002016D01*
X0058208Y-0002003D01*
X0058196Y-0001973D01*
X0058183Y-0001932D01*
X0058171Y-0001883D01*
X0058158Y-0001824D01*
X0058152Y-0001759D01*
X0058149Y-0001688D01*
Y-0001685D01*
Y-0001679D01*
Y-0001664D01*
X0058152Y-0001648D01*
Y-0001626D01*
X0058155Y-0001602D01*
X0058161Y-0001546D01*
X0058174Y-0001481D01*
X0058192Y-0001410D01*
X0058220Y-0001339D01*
X0058254Y-0001271D01*
Y-0001268D01*
X0058260Y-0001262D01*
X0058267Y-0001252D01*
X0058273Y-0001240D01*
X0058297Y-0001209D01*
X0058328Y-0001166D01*
X0058369Y-0001120D01*
X0058415Y-0001070D01*
X0058467Y-0001024D01*
X0058529Y-0000977D01*
X0058532D01*
X0058539Y-0000971D01*
X0058548Y-0000965D01*
X0058560Y-0000959D01*
X0058576Y-0000950D01*
X0058594Y-0000937D01*
X0058644Y-0000913D01*
X0058702Y-0000885D01*
X0058767Y-0000857D01*
X0058841Y-0000829D01*
X0058922Y-0000808D01*
X0058925D01*
X0058931Y-0000805D01*
X0058943Y-0000801D01*
X0058959Y-0000798D01*
X0058980Y-0000795D01*
X0059002Y-0000789D01*
X0059030Y-0000783D01*
X0059061Y-0000777D01*
X0059129Y-0000767D01*
X0059203Y-0000758D01*
X0059286Y-0000752D01*
X0059370Y-0000749D01*
X0059419D01*
X0059453Y-0000752D01*
D02*
G37*
G36*
X0067218Y-0004321D02*
X0066817D01*
Y-0003898D01*
X0066807D01*
X0066804Y-0003904D01*
X0066795Y-0003919D01*
X0066777Y-0003941D01*
X0066755Y-0003972D01*
X0066724Y-0004009D01*
X0066690Y-0004049D01*
X0066647Y-0004092D01*
X0066594Y-0004139D01*
X0066539Y-0004185D01*
X0066474Y-0004228D01*
X0066403Y-0004268D01*
X0066325Y-0004306D01*
X0066242Y-0004336D01*
X0066149Y-0004358D01*
X0066050Y-0004373D01*
X0065945Y-0004380D01*
X0065924D01*
X0065899Y-0004377D01*
X0065868Y-0004373D01*
X0065828Y-0004370D01*
X0065781Y-0004361D01*
X0065729Y-0004352D01*
X0065673Y-0004336D01*
X0065615Y-0004321D01*
X0065553Y-0004296D01*
X0065491Y-0004272D01*
X0065426Y-0004237D01*
X0065364Y-0004200D01*
X0065302Y-0004154D01*
X0065244Y-0004101D01*
X0065188Y-0004043D01*
X0065185Y-0004040D01*
X0065176Y-0004027D01*
X0065163Y-0004009D01*
X0065145Y-0003981D01*
X0065123Y-0003947D01*
X0065099Y-0003907D01*
X0065074Y-0003857D01*
X0065049Y-0003802D01*
X0065021Y-0003740D01*
X0064997Y-0003672D01*
X0064972Y-0003595D01*
X0064950Y-0003514D01*
X0064932Y-0003428D01*
X0064919Y-0003332D01*
X0064910Y-0003233D01*
X0064907Y-0003128D01*
Y-0003125D01*
Y-0003122D01*
Y-0003113D01*
Y-0003100D01*
X0064910Y-0003070D01*
X0064913Y-0003026D01*
X0064916Y-0002971D01*
X0064922Y-0002912D01*
X0064932Y-0002844D01*
X0064947Y-0002770D01*
X0064963Y-0002692D01*
X0064984Y-0002609D01*
X0065009Y-0002529D01*
X0065040Y-0002442D01*
X0065074Y-0002362D01*
X0065117Y-0002282D01*
X0065163Y-0002204D01*
X0065219Y-0002130D01*
X0065222Y-0002127D01*
X0065235Y-0002115D01*
X0065253Y-0002096D01*
X0065278Y-0002071D01*
X0065309Y-0002044D01*
X0065346Y-0002010D01*
X0065392Y-0001976D01*
X0065442Y-0001942D01*
X0065500Y-0001908D01*
X0065562Y-0001874D01*
X0065630Y-0001840D01*
X0065704Y-0001812D01*
X0065785Y-0001787D01*
X0065871Y-0001769D01*
X0065961Y-0001756D01*
X0066057Y-0001753D01*
X0066078D01*
X0066106Y-0001756D01*
X0066140Y-0001759D01*
X0066183Y-0001766D01*
X0066233Y-0001775D01*
X0066285Y-0001787D01*
X0066344Y-0001803D01*
X0066406Y-0001824D01*
X0066467Y-0001852D01*
X0066529Y-0001886D01*
X0066591Y-0001926D01*
X0066650Y-0001973D01*
X0066708Y-0002025D01*
X0066761Y-0002090D01*
X0066807Y-0002161D01*
X0066817D01*
Y-0000607D01*
X0067218D01*
Y-0004321D01*
D02*
G37*
G36*
X0083870Y-0001756D02*
X0083898D01*
X0083932Y-0001759D01*
X0083969Y-0001762D01*
X0084009Y-0001769D01*
X0084102Y-0001781D01*
X0084198Y-0001803D01*
X0084300Y-0001830D01*
X0084399Y-0001867D01*
Y-0002275D01*
X0084396Y-0002272D01*
X0084386Y-0002266D01*
X0084371Y-0002260D01*
X0084349Y-0002248D01*
X0084325Y-0002232D01*
X0084294Y-0002217D01*
X0084257Y-0002201D01*
X0084216Y-0002183D01*
X0084170Y-0002167D01*
X0084124Y-0002152D01*
X0084071Y-0002136D01*
X0084016Y-0002121D01*
X0083954Y-0002108D01*
X0083892Y-0002102D01*
X0083830Y-0002096D01*
X0083762Y-0002093D01*
X0083722D01*
X0083694Y-0002096D01*
X0083663Y-0002099D01*
X0083629Y-0002105D01*
X0083558Y-0002121D01*
X0083555D01*
X0083543Y-0002124D01*
X0083527Y-0002130D01*
X0083506Y-0002139D01*
X0083456Y-0002161D01*
X0083404Y-0002192D01*
X0083401Y-0002195D01*
X0083394Y-0002201D01*
X0083382Y-0002211D01*
X0083367Y-0002223D01*
X0083333Y-0002257D01*
X0083302Y-0002303D01*
Y-0002306D01*
X0083296Y-0002316D01*
X0083293Y-0002328D01*
X0083286Y-0002346D01*
X0083280Y-0002365D01*
X0083274Y-0002390D01*
X0083271Y-0002417D01*
X0083268Y-0002445D01*
Y-0002448D01*
Y-0002461D01*
X0083271Y-0002479D01*
Y-0002504D01*
X0083277Y-0002529D01*
X0083283Y-0002557D01*
X0083289Y-0002584D01*
X0083302Y-0002612D01*
X0083305Y-0002615D01*
X0083308Y-0002624D01*
X0083317Y-0002637D01*
X0083330Y-0002652D01*
X0083345Y-0002668D01*
X0083360Y-0002689D01*
X0083407Y-0002730D01*
X0083410Y-0002733D01*
X0083419Y-0002739D01*
X0083435Y-0002748D01*
X0083453Y-0002761D01*
X0083478Y-0002773D01*
X0083506Y-0002788D01*
X0083540Y-0002807D01*
X0083574Y-0002822D01*
X0083577Y-0002825D01*
X0083592Y-0002829D01*
X0083611Y-0002838D01*
X0083639Y-0002847D01*
X0083673Y-0002862D01*
X0083710Y-0002878D01*
X0083750Y-0002893D01*
X0083796Y-0002912D01*
X0083799D01*
X0083802Y-0002915D01*
X0083812Y-0002918D01*
X0083824Y-0002921D01*
X0083855Y-0002933D01*
X0083895Y-0002952D01*
X0083941Y-0002971D01*
X0083994Y-0002992D01*
X0084047Y-0003017D01*
X0084096Y-0003042D01*
X0084099D01*
X0084102Y-0003045D01*
X0084118Y-0003054D01*
X0084142Y-0003066D01*
X0084173Y-0003085D01*
X0084210Y-0003110D01*
X0084247Y-0003134D01*
X0084284Y-0003165D01*
X0084321Y-0003196D01*
X0084325Y-0003199D01*
X0084337Y-0003212D01*
X0084352Y-0003227D01*
X0084374Y-0003252D01*
X0084396Y-0003280D01*
X0084420Y-0003314D01*
X0084442Y-0003351D01*
X0084464Y-0003391D01*
X0084467Y-0003397D01*
X0084473Y-0003409D01*
X0084479Y-0003434D01*
X0084488Y-0003465D01*
X0084498Y-0003502D01*
X0084507Y-0003545D01*
X0084510Y-0003595D01*
X0084513Y-0003650D01*
Y-0003653D01*
Y-0003660D01*
Y-0003669D01*
Y-0003681D01*
X0084510Y-0003715D01*
X0084504Y-0003762D01*
X0084491Y-0003811D01*
X0084479Y-0003867D01*
X0084457Y-0003922D01*
X0084430Y-0003975D01*
X0084426Y-0003981D01*
X0084414Y-0003997D01*
X0084396Y-0004021D01*
X0084371Y-0004055D01*
X0084340Y-0004089D01*
X0084303Y-0004129D01*
X0084260Y-0004166D01*
X0084210Y-0004203D01*
X0084204Y-0004207D01*
X0084185Y-0004219D01*
X0084158Y-0004234D01*
X0084121Y-0004253D01*
X0084074Y-0004275D01*
X0084019Y-0004296D01*
X0083960Y-0004318D01*
X0083895Y-0004336D01*
X0083892D01*
X0083886Y-0004340D01*
X0083877D01*
X0083864Y-0004343D01*
X0083849Y-0004346D01*
X0083830Y-0004349D01*
X0083784Y-0004358D01*
X0083725Y-0004367D01*
X0083663Y-0004373D01*
X0083595Y-0004377D01*
X0083521Y-0004380D01*
X0083484D01*
X0083456Y-0004377D01*
X0083422D01*
X0083385Y-0004370D01*
X0083339Y-0004367D01*
X0083293Y-0004361D01*
X0083240Y-0004352D01*
X0083188Y-0004343D01*
X0083076Y-0004318D01*
X0082962Y-0004281D01*
X0082906Y-0004256D01*
X0082851Y-0004231D01*
Y-0003802D01*
X0082854Y-0003805D01*
X0082866Y-0003811D01*
X0082885Y-0003823D01*
X0082909Y-0003839D01*
X0082940Y-0003857D01*
X0082974Y-0003879D01*
X0083017Y-0003901D01*
X0083064Y-0003922D01*
X0083116Y-0003944D01*
X0083172Y-0003966D01*
X0083231Y-0003987D01*
X0083293Y-0004006D01*
X0083360Y-0004021D01*
X0083429Y-0004034D01*
X0083499Y-0004040D01*
X0083574Y-0004043D01*
X0083595D01*
X0083623Y-0004040D01*
X0083657Y-0004037D01*
X0083697Y-0004030D01*
X0083741Y-0004024D01*
X0083790Y-0004012D01*
X0083839Y-0004000D01*
X0083886Y-0003981D01*
X0083935Y-0003956D01*
X0083978Y-0003929D01*
X0084019Y-0003895D01*
X0084053Y-0003854D01*
X0084080Y-0003808D01*
X0084096Y-0003752D01*
X0084102Y-0003721D01*
Y-0003691D01*
Y-0003687D01*
Y-0003672D01*
X0084099Y-0003653D01*
X0084096Y-0003632D01*
X0084090Y-0003604D01*
X0084084Y-0003576D01*
X0084071Y-0003548D01*
X0084056Y-0003521D01*
X0084053Y-0003517D01*
X0084047Y-0003508D01*
X0084037Y-0003496D01*
X0084025Y-0003477D01*
X0084006Y-0003459D01*
X0083988Y-0003437D01*
X0083963Y-0003419D01*
X0083935Y-0003397D01*
X0083932Y-0003394D01*
X0083923Y-0003388D01*
X0083904Y-0003379D01*
X0083883Y-0003363D01*
X0083858Y-0003348D01*
X0083827Y-0003332D01*
X0083790Y-0003317D01*
X0083753Y-0003301D01*
X0083747Y-0003298D01*
X0083734Y-0003295D01*
X0083713Y-0003286D01*
X0083685Y-0003273D01*
X0083654Y-0003258D01*
X0083614Y-0003243D01*
X0083574Y-0003227D01*
X0083530Y-0003209D01*
X0083527D01*
X0083524Y-0003205D01*
X0083515Y-0003202D01*
X0083503Y-0003196D01*
X0083472Y-0003184D01*
X0083432Y-0003168D01*
X0083385Y-0003147D01*
X0083336Y-0003125D01*
X0083286Y-0003100D01*
X0083237Y-0003076D01*
X0083231Y-0003073D01*
X0083215Y-0003063D01*
X0083194Y-0003051D01*
X0083163Y-0003032D01*
X0083129Y-0003008D01*
X0083095Y-0002983D01*
X0083058Y-0002955D01*
X0083024Y-0002924D01*
X0083021Y-0002921D01*
X0083011Y-0002909D01*
X0082996Y-0002893D01*
X0082977Y-0002869D01*
X0082956Y-0002841D01*
X0082934Y-0002807D01*
X0082916Y-0002773D01*
X0082897Y-0002733D01*
X0082894Y-0002726D01*
X0082891Y-0002714D01*
X0082885Y-0002689D01*
X0082878Y-0002662D01*
X0082869Y-0002624D01*
X0082863Y-0002581D01*
X0082860Y-0002532D01*
X0082857Y-0002479D01*
Y-0002476D01*
Y-0002470D01*
Y-0002461D01*
Y-0002448D01*
X0082860Y-0002417D01*
X0082866Y-0002374D01*
X0082875Y-0002325D01*
X0082891Y-0002272D01*
X0082909Y-0002220D01*
X0082937Y-0002167D01*
Y-0002164D01*
X0082940Y-0002161D01*
X0082953Y-0002146D01*
X0082971Y-0002121D01*
X0082993Y-0002087D01*
X0083024Y-0002053D01*
X0083061Y-0002016D01*
X0083104Y-0001976D01*
X0083150Y-0001942D01*
X0083153D01*
X0083157Y-0001939D01*
X0083175Y-0001926D01*
X0083203Y-0001911D01*
X0083240Y-0001889D01*
X0083286Y-0001867D01*
X0083339Y-0001843D01*
X0083398Y-0001821D01*
X0083459Y-0001803D01*
X0083463D01*
X0083469Y-0001799D01*
X0083478Y-0001796D01*
X0083490Y-0001793D01*
X0083506Y-0001790D01*
X0083524Y-0001787D01*
X0083568Y-0001778D01*
X0083623Y-0001769D01*
X0083682Y-0001759D01*
X0083747Y-0001756D01*
X0083815Y-0001753D01*
X0083846D01*
X0083870Y-0001756D01*
D02*
G37*
G36*
X0080527D02*
X0080555D01*
X0080589Y-0001759D01*
X0080626Y-0001762D01*
X0080666Y-0001769D01*
X0080759Y-0001781D01*
X0080854Y-0001803D01*
X0080957Y-0001830D01*
X0081055Y-0001867D01*
Y-0002275D01*
X0081052Y-0002272D01*
X0081043Y-0002266D01*
X0081028Y-0002260D01*
X0081006Y-0002248D01*
X0080981Y-0002232D01*
X0080950Y-0002217D01*
X0080913Y-0002201D01*
X0080873Y-0002183D01*
X0080827Y-0002167D01*
X0080780Y-0002152D01*
X0080728Y-0002136D01*
X0080672Y-0002121D01*
X0080610Y-0002108D01*
X0080549Y-0002102D01*
X0080487Y-0002096D01*
X0080419Y-0002093D01*
X0080379D01*
X0080351Y-0002096D01*
X0080320Y-0002099D01*
X0080286Y-0002105D01*
X0080215Y-0002121D01*
X0080212D01*
X0080199Y-0002124D01*
X0080184Y-0002130D01*
X0080162Y-0002139D01*
X0080113Y-0002161D01*
X0080060Y-0002192D01*
X0080057Y-0002195D01*
X0080051Y-0002201D01*
X0080039Y-0002211D01*
X0080023Y-0002223D01*
X0079989Y-0002257D01*
X0079958Y-0002303D01*
Y-0002306D01*
X0079952Y-0002316D01*
X0079949Y-0002328D01*
X0079943Y-0002346D01*
X0079937Y-0002365D01*
X0079931Y-0002390D01*
X0079927Y-0002417D01*
X0079924Y-0002445D01*
Y-0002448D01*
Y-0002461D01*
X0079927Y-0002479D01*
Y-0002504D01*
X0079934Y-0002529D01*
X0079940Y-0002557D01*
X0079946Y-0002584D01*
X0079958Y-0002612D01*
X0079962Y-0002615D01*
X0079965Y-0002624D01*
X0079974Y-0002637D01*
X0079986Y-0002652D01*
X0080002Y-0002668D01*
X0080017Y-0002689D01*
X0080063Y-0002730D01*
X0080067Y-0002733D01*
X0080076Y-0002739D01*
X0080091Y-0002748D01*
X0080110Y-0002761D01*
X0080134Y-0002773D01*
X0080162Y-0002788D01*
X0080196Y-0002807D01*
X0080230Y-0002822D01*
X0080233Y-0002825D01*
X0080249Y-0002829D01*
X0080267Y-0002838D01*
X0080295Y-0002847D01*
X0080329Y-0002862D01*
X0080366Y-0002878D01*
X0080406Y-0002893D01*
X0080453Y-0002912D01*
X0080456D01*
X0080459Y-0002915D01*
X0080468Y-0002918D01*
X0080481Y-0002921D01*
X0080511Y-0002933D01*
X0080552Y-0002952D01*
X0080598Y-0002971D01*
X0080651Y-0002992D01*
X0080703Y-0003017D01*
X0080752Y-0003042D01*
X0080756D01*
X0080759Y-0003045D01*
X0080774Y-0003054D01*
X0080799Y-0003066D01*
X0080830Y-0003085D01*
X0080867Y-0003110D01*
X0080904Y-0003134D01*
X0080941Y-0003165D01*
X0080978Y-0003196D01*
X0080981Y-0003199D01*
X0080994Y-0003212D01*
X0081009Y-0003227D01*
X0081031Y-0003252D01*
X0081052Y-0003280D01*
X0081077Y-0003314D01*
X0081099Y-0003351D01*
X0081120Y-0003391D01*
X0081123Y-0003397D01*
X0081129Y-0003409D01*
X0081136Y-0003434D01*
X0081145Y-0003465D01*
X0081154Y-0003502D01*
X0081164Y-0003545D01*
X0081167Y-0003595D01*
X0081170Y-0003650D01*
Y-0003653D01*
Y-0003660D01*
Y-0003669D01*
Y-0003681D01*
X0081167Y-0003715D01*
X0081160Y-0003762D01*
X0081148Y-0003811D01*
X0081136Y-0003867D01*
X0081114Y-0003922D01*
X0081086Y-0003975D01*
X0081083Y-0003981D01*
X0081071Y-0003997D01*
X0081052Y-0004021D01*
X0081028Y-0004055D01*
X0080997Y-0004089D01*
X0080960Y-0004129D01*
X0080916Y-0004166D01*
X0080867Y-0004203D01*
X0080861Y-0004207D01*
X0080842Y-0004219D01*
X0080814Y-0004234D01*
X0080777Y-0004253D01*
X0080731Y-0004275D01*
X0080675Y-0004296D01*
X0080617Y-0004318D01*
X0080552Y-0004336D01*
X0080549D01*
X0080542Y-0004340D01*
X0080533D01*
X0080521Y-0004343D01*
X0080505Y-0004346D01*
X0080487Y-0004349D01*
X0080440Y-0004358D01*
X0080382Y-0004367D01*
X0080320Y-0004373D01*
X0080252Y-0004377D01*
X0080178Y-0004380D01*
X0080141D01*
X0080113Y-0004377D01*
X0080079D01*
X0080042Y-0004370D01*
X0079996Y-0004367D01*
X0079949Y-0004361D01*
X0079897Y-0004352D01*
X0079844Y-0004343D01*
X0079733Y-0004318D01*
X0079619Y-0004281D01*
X0079563Y-0004256D01*
X0079507Y-0004231D01*
Y-0003802D01*
X0079510Y-0003805D01*
X0079523Y-0003811D01*
X0079541Y-0003823D01*
X0079566Y-0003839D01*
X0079597Y-0003857D01*
X0079631Y-0003879D01*
X0079674Y-0003901D01*
X0079720Y-0003922D01*
X0079773Y-0003944D01*
X0079829Y-0003966D01*
X0079887Y-0003987D01*
X0079949Y-0004006D01*
X0080017Y-0004021D01*
X0080085Y-0004034D01*
X0080156Y-0004040D01*
X0080230Y-0004043D01*
X0080252D01*
X0080280Y-0004040D01*
X0080314Y-0004037D01*
X0080354Y-0004030D01*
X0080397Y-0004024D01*
X0080447Y-0004012D01*
X0080496Y-0004000D01*
X0080542Y-0003981D01*
X0080592Y-0003956D01*
X0080635Y-0003929D01*
X0080675Y-0003895D01*
X0080709Y-0003854D01*
X0080737Y-0003808D01*
X0080752Y-0003752D01*
X0080759Y-0003721D01*
Y-0003691D01*
Y-0003687D01*
Y-0003672D01*
X0080756Y-0003653D01*
X0080752Y-0003632D01*
X0080746Y-0003604D01*
X0080740Y-0003576D01*
X0080728Y-0003548D01*
X0080712Y-0003521D01*
X0080709Y-0003517D01*
X0080703Y-0003508D01*
X0080694Y-0003496D01*
X0080682Y-0003477D01*
X0080663Y-0003459D01*
X0080644Y-0003437D01*
X0080620Y-0003419D01*
X0080592Y-0003397D01*
X0080589Y-0003394D01*
X0080580Y-0003388D01*
X0080561Y-0003379D01*
X0080539Y-0003363D01*
X0080515Y-0003348D01*
X0080484Y-0003332D01*
X0080447Y-0003317D01*
X0080409Y-0003301D01*
X0080403Y-0003298D01*
X0080391Y-0003295D01*
X0080369Y-0003286D01*
X0080342Y-0003273D01*
X0080311Y-0003258D01*
X0080270Y-0003243D01*
X0080230Y-0003227D01*
X0080187Y-0003209D01*
X0080184D01*
X0080181Y-0003205D01*
X0080172Y-0003202D01*
X0080159Y-0003196D01*
X0080128Y-0003184D01*
X0080088Y-0003168D01*
X0080042Y-0003147D01*
X0079992Y-0003125D01*
X0079943Y-0003100D01*
X0079893Y-0003076D01*
X0079887Y-0003073D01*
X0079872Y-0003063D01*
X0079850Y-0003051D01*
X0079819Y-0003032D01*
X0079785Y-0003008D01*
X0079751Y-0002983D01*
X0079714Y-0002955D01*
X0079680Y-0002924D01*
X0079677Y-0002921D01*
X0079668Y-0002909D01*
X0079653Y-0002893D01*
X0079634Y-0002869D01*
X0079612Y-0002841D01*
X0079591Y-0002807D01*
X0079572Y-0002773D01*
X0079554Y-0002733D01*
X0079550Y-0002726D01*
X0079547Y-0002714D01*
X0079541Y-0002689D01*
X0079535Y-0002662D01*
X0079526Y-0002624D01*
X0079520Y-0002581D01*
X0079517Y-0002532D01*
X0079513Y-0002479D01*
Y-0002476D01*
Y-0002470D01*
Y-0002461D01*
Y-0002448D01*
X0079517Y-0002417D01*
X0079523Y-0002374D01*
X0079532Y-0002325D01*
X0079547Y-0002272D01*
X0079566Y-0002220D01*
X0079594Y-0002167D01*
Y-0002164D01*
X0079597Y-0002161D01*
X0079609Y-0002146D01*
X0079628Y-0002121D01*
X0079649Y-0002087D01*
X0079680Y-0002053D01*
X0079717Y-0002016D01*
X0079761Y-0001976D01*
X0079807Y-0001942D01*
X0079810D01*
X0079813Y-0001939D01*
X0079832Y-0001926D01*
X0079860Y-0001911D01*
X0079897Y-0001889D01*
X0079943Y-0001867D01*
X0079996Y-0001843D01*
X0080054Y-0001821D01*
X0080116Y-0001803D01*
X0080119D01*
X0080125Y-0001799D01*
X0080134Y-0001796D01*
X0080147Y-0001793D01*
X0080162Y-0001790D01*
X0080181Y-0001787D01*
X0080224Y-0001778D01*
X0080280Y-0001769D01*
X0080339Y-0001759D01*
X0080403Y-0001756D01*
X0080471Y-0001753D01*
X0080502D01*
X0080527Y-0001756D01*
D02*
G37*
G36*
X0055328D02*
X0055347D01*
X0055368Y-0001759D01*
X0055421Y-0001769D01*
X0055483Y-0001784D01*
X0055554Y-0001806D01*
X0055628Y-0001840D01*
X0055705Y-0001880D01*
X0055745Y-0001908D01*
X0055782Y-0001935D01*
X0055819Y-0001966D01*
X0055856Y-0002003D01*
X0055893Y-0002044D01*
X0055927Y-0002087D01*
X0055958Y-0002133D01*
X0055989Y-0002186D01*
X0056017Y-0002241D01*
X0056042Y-0002303D01*
X0056063Y-0002368D01*
X0056085Y-0002439D01*
X0056097Y-0002513D01*
X0056110Y-0002597D01*
X0056116Y-0002683D01*
X0056119Y-0002776D01*
Y-0004321D01*
X0055717D01*
Y-0002881D01*
Y-0002875D01*
Y-0002862D01*
Y-0002841D01*
X0055714Y-0002813D01*
Y-0002779D01*
X0055711Y-0002739D01*
X0055708Y-0002696D01*
X0055702Y-0002649D01*
X0055686Y-0002550D01*
X0055662Y-0002451D01*
X0055649Y-0002402D01*
X0055631Y-0002359D01*
X0055609Y-0002316D01*
X0055588Y-0002278D01*
Y-0002275D01*
X0055581Y-0002269D01*
X0055575Y-0002260D01*
X0055563Y-0002251D01*
X0055550Y-0002235D01*
X0055532Y-0002220D01*
X0055510Y-0002204D01*
X0055486Y-0002186D01*
X0055458Y-0002167D01*
X0055427Y-0002152D01*
X0055390Y-0002136D01*
X0055353Y-0002121D01*
X0055309Y-0002112D01*
X0055260Y-0002102D01*
X0055211Y-0002096D01*
X0055155Y-0002093D01*
X0055130D01*
X0055112Y-0002096D01*
X0055090Y-0002099D01*
X0055065Y-0002105D01*
X0055004Y-0002121D01*
X0054970Y-0002133D01*
X0054936Y-0002152D01*
X0054899Y-0002170D01*
X0054865Y-0002192D01*
X0054827Y-0002220D01*
X0054790Y-0002251D01*
X0054753Y-0002288D01*
X0054719Y-0002328D01*
X0054716Y-0002331D01*
X0054713Y-0002337D01*
X0054704Y-0002353D01*
X0054691Y-0002368D01*
X0054679Y-0002393D01*
X0054664Y-0002421D01*
X0054645Y-0002451D01*
X0054630Y-0002486D01*
X0054614Y-0002526D01*
X0054596Y-0002569D01*
X0054580Y-0002615D01*
X0054568Y-0002665D01*
X0054555Y-0002717D01*
X0054549Y-0002773D01*
X0054543Y-0002829D01*
X0054540Y-0002890D01*
Y-0004321D01*
X0054138D01*
Y-0002832D01*
Y-0002829D01*
Y-0002822D01*
Y-0002813D01*
Y-0002801D01*
X0054135Y-0002782D01*
Y-0002764D01*
X0054129Y-0002717D01*
X0054120Y-0002662D01*
X0054107Y-0002597D01*
X0054092Y-0002532D01*
X0054067Y-0002461D01*
X0054036Y-0002393D01*
X0053999Y-0002328D01*
X0053953Y-0002263D01*
X0053897Y-0002207D01*
X0053832Y-0002161D01*
X0053795Y-0002142D01*
X0053755Y-0002124D01*
X0053712Y-0002112D01*
X0053669Y-0002102D01*
X0053619Y-0002096D01*
X0053567Y-0002093D01*
X0053542D01*
X0053523Y-0002096D01*
X0053499Y-0002099D01*
X0053474Y-0002105D01*
X0053412Y-0002121D01*
X0053378Y-0002133D01*
X0053344Y-0002149D01*
X0053307Y-0002164D01*
X0053270Y-0002186D01*
X0053233Y-0002214D01*
X0053196Y-0002241D01*
X0053162Y-0002275D01*
X0053128Y-0002316D01*
X0053125Y-0002319D01*
X0053122Y-0002325D01*
X0053113Y-0002337D01*
X0053100Y-0002356D01*
X0053088Y-0002377D01*
X0053075Y-0002402D01*
X0053060Y-0002433D01*
X0053044Y-0002470D01*
X0053026Y-0002510D01*
X0053010Y-0002553D01*
X0052998Y-0002600D01*
X0052986Y-0002649D01*
X0052973Y-0002705D01*
X0052964Y-0002764D01*
X0052961Y-0002825D01*
X0052958Y-0002890D01*
Y-0004321D01*
X0052556D01*
Y-0001812D01*
X0052958D01*
Y-0002211D01*
X0052967D01*
X0052970Y-0002204D01*
X0052980Y-0002192D01*
X0052995Y-0002167D01*
X0053017Y-0002139D01*
X0053044Y-0002105D01*
X0053079Y-0002065D01*
X0053119Y-0002025D01*
X0053165Y-0001982D01*
X0053218Y-0001939D01*
X0053276Y-0001898D01*
X0053341Y-0001858D01*
X0053409Y-0001824D01*
X0053486Y-0001796D01*
X0053570Y-0001772D01*
X0053656Y-0001759D01*
X0053749Y-0001753D01*
X0053774D01*
X0053792Y-0001756D01*
X0053814D01*
X0053842Y-0001759D01*
X0053869Y-0001766D01*
X0053900Y-0001772D01*
X0053971Y-0001787D01*
X0054046Y-0001815D01*
X0054120Y-0001849D01*
X0054157Y-0001874D01*
X0054194Y-0001898D01*
X0054197Y-0001901D01*
X0054203Y-0001905D01*
X0054212Y-0001914D01*
X0054225Y-0001923D01*
X0054259Y-0001957D01*
X0054299Y-0001997D01*
X0054342Y-0002053D01*
X0054386Y-0002118D01*
X0054426Y-0002192D01*
X0054457Y-0002275D01*
X0054460Y-0002269D01*
X0054469Y-0002254D01*
X0054488Y-0002226D01*
X0054509Y-0002195D01*
X0054540Y-0002155D01*
X0054574Y-0002108D01*
X0054617Y-0002062D01*
X0054667Y-0002013D01*
X0054722Y-0001966D01*
X0054784Y-0001917D01*
X0054852Y-0001874D01*
X0054926Y-0001833D01*
X0055010Y-0001803D01*
X0055096Y-0001775D01*
X0055192Y-0001759D01*
X0055291Y-0001753D01*
X0055313D01*
X0055328Y-0001756D01*
D02*
G37*
G36*
X0076414Y-0001772D02*
X0076448D01*
X0076485Y-0001778D01*
X0076525Y-0001784D01*
X0076566Y-0001790D01*
X0076600Y-0001803D01*
Y-0002220D01*
X0076593Y-0002217D01*
X0076581Y-0002207D01*
X0076556Y-0002195D01*
X0076522Y-0002180D01*
X0076476Y-0002164D01*
X0076427Y-0002152D01*
X0076365Y-0002142D01*
X0076294Y-0002139D01*
X0076269D01*
X0076250Y-0002142D01*
X0076229Y-0002146D01*
X0076204Y-0002152D01*
X0076145Y-0002170D01*
X0076111Y-0002183D01*
X0076077Y-0002198D01*
X0076040Y-0002220D01*
X0076003Y-0002241D01*
X0075969Y-0002269D01*
X0075932Y-0002303D01*
X0075898Y-0002340D01*
X0075864Y-0002383D01*
X0075861Y-0002387D01*
X0075858Y-0002396D01*
X0075849Y-0002408D01*
X0075836Y-0002427D01*
X0075824Y-0002451D01*
X0075809Y-0002482D01*
X0075793Y-0002516D01*
X0075778Y-0002557D01*
X0075762Y-0002600D01*
X0075747Y-0002649D01*
X0075731Y-0002705D01*
X0075719Y-0002764D01*
X0075707Y-0002829D01*
X0075697Y-0002896D01*
X0075694Y-0002967D01*
X0075691Y-0003045D01*
Y-0004321D01*
X0075289D01*
Y-0001812D01*
X0075691D01*
Y-0002331D01*
X0075700D01*
Y-0002328D01*
X0075704Y-0002319D01*
X0075710Y-0002306D01*
X0075716Y-0002288D01*
X0075725Y-0002266D01*
X0075738Y-0002238D01*
X0075765Y-0002180D01*
X0075802Y-0002112D01*
X0075849Y-0002044D01*
X0075901Y-0001979D01*
X0075963Y-0001917D01*
X0075966Y-0001914D01*
X0075972Y-0001911D01*
X0075982Y-0001905D01*
X0075994Y-0001892D01*
X0076009Y-0001883D01*
X0076031Y-0001871D01*
X0076077Y-0001843D01*
X0076136Y-0001815D01*
X0076204Y-0001790D01*
X0076278Y-0001775D01*
X0076318Y-0001772D01*
X0076359Y-0001769D01*
X0076383D01*
X0076414Y-0001772D01*
D02*
G37*
G36*
X0071779D02*
X0071813D01*
X0071850Y-0001778D01*
X0071890Y-0001784D01*
X0071931Y-0001790D01*
X0071965Y-0001803D01*
Y-0002220D01*
X0071958Y-0002217D01*
X0071946Y-0002207D01*
X0071921Y-0002195D01*
X0071887Y-0002180D01*
X0071841Y-0002164D01*
X0071791Y-0002152D01*
X0071730Y-0002142D01*
X0071659Y-0002139D01*
X0071634D01*
X0071615Y-0002142D01*
X0071594Y-0002146D01*
X0071569Y-0002152D01*
X0071510Y-0002170D01*
X0071476Y-0002183D01*
X0071442Y-0002198D01*
X0071405Y-0002220D01*
X0071368Y-0002241D01*
X0071334Y-0002269D01*
X0071297Y-0002303D01*
X0071263Y-0002340D01*
X0071229Y-0002383D01*
X0071226Y-0002387D01*
X0071223Y-0002396D01*
X0071214Y-0002408D01*
X0071201Y-0002427D01*
X0071189Y-0002451D01*
X0071174Y-0002482D01*
X0071158Y-0002516D01*
X0071143Y-0002557D01*
X0071127Y-0002600D01*
X0071112Y-0002649D01*
X0071096Y-0002705D01*
X0071084Y-0002764D01*
X0071072Y-0002829D01*
X0071062Y-0002896D01*
X0071059Y-0002967D01*
X0071056Y-0003045D01*
Y-0004321D01*
X0070654D01*
Y-0001812D01*
X0071056D01*
Y-0002331D01*
X0071065D01*
Y-0002328D01*
X0071069Y-0002319D01*
X0071075Y-0002306D01*
X0071081Y-0002288D01*
X0071090Y-0002266D01*
X0071102Y-0002238D01*
X0071130Y-0002180D01*
X0071167Y-0002112D01*
X0071214Y-0002044D01*
X0071266Y-0001979D01*
X0071328Y-0001917D01*
X0071331Y-0001914D01*
X0071337Y-0001911D01*
X0071347Y-0001905D01*
X0071359Y-0001892D01*
X0071374Y-0001883D01*
X0071396Y-0001871D01*
X0071442Y-0001843D01*
X0071501Y-0001815D01*
X0071569Y-0001790D01*
X0071643Y-0001775D01*
X0071683Y-0001772D01*
X0071724Y-0001769D01*
X0071748D01*
X0071779Y-0001772D01*
D02*
G37*
G36*
X0082189Y-0004321D02*
X0081788D01*
Y-0001812D01*
X0082189D01*
Y-0004321D01*
D02*
G37*
G36*
X0064264D02*
X0063863D01*
Y-0000607D01*
X0064264D01*
Y-0004321D01*
D02*
G37*
G36*
X0041528Y-0000811D02*
X0041565Y-0000814D01*
X0041608Y-0000820D01*
X0041658Y-0000826D01*
X0041714Y-0000835D01*
X0041769Y-0000848D01*
X0041828Y-0000863D01*
X0041890Y-0000882D01*
X0041948Y-0000903D01*
X0042010Y-0000928D01*
X0042066Y-0000959D01*
X0042121Y-0000993D01*
X0042174Y-0001033D01*
X0042177Y-0001036D01*
X0042186Y-0001042D01*
X0042199Y-0001055D01*
X0042214Y-0001073D01*
X0042236Y-0001095D01*
X0042257Y-0001123D01*
X0042282Y-0001154D01*
X0042307Y-0001188D01*
X0042331Y-0001228D01*
X0042356Y-0001271D01*
X0042378Y-0001321D01*
X0042399Y-0001370D01*
X0042415Y-0001426D01*
X0042427Y-0001484D01*
X0042437Y-0001546D01*
X0042440Y-0001611D01*
Y-0001614D01*
Y-0001623D01*
Y-0001639D01*
X0042437Y-0001660D01*
X0042433Y-0001688D01*
X0042430Y-0001716D01*
X0042427Y-0001750D01*
X0042421Y-0001787D01*
X0042399Y-0001871D01*
X0042372Y-0001957D01*
X0042353Y-0002003D01*
X0042331Y-0002047D01*
X0042307Y-0002090D01*
X0042279Y-0002133D01*
X0042276Y-0002136D01*
X0042273Y-0002142D01*
X0042263Y-0002155D01*
X0042248Y-0002170D01*
X0042233Y-0002186D01*
X0042214Y-0002207D01*
X0042189Y-0002229D01*
X0042165Y-0002254D01*
X0042134Y-0002278D01*
X0042100Y-0002306D01*
X0042063Y-0002331D01*
X0042022Y-0002359D01*
X0041979Y-0002383D01*
X0041936Y-0002405D01*
X0041834Y-0002445D01*
Y-0002455D01*
X0041837D01*
X0041849Y-0002458D01*
X0041868Y-0002461D01*
X0041893Y-0002464D01*
X0041924Y-0002470D01*
X0041958Y-0002479D01*
X0041998Y-0002492D01*
X0042038Y-0002504D01*
X0042127Y-0002538D01*
X0042177Y-0002560D01*
X0042223Y-0002587D01*
X0042270Y-0002615D01*
X0042316Y-0002646D01*
X0042362Y-0002683D01*
X0042402Y-0002723D01*
X0042406Y-0002726D01*
X0042412Y-0002733D01*
X0042421Y-0002745D01*
X0042437Y-0002764D01*
X0042452Y-0002788D01*
X0042470Y-0002813D01*
X0042489Y-0002847D01*
X0042511Y-0002881D01*
X0042529Y-0002921D01*
X0042548Y-0002967D01*
X0042566Y-0003014D01*
X0042582Y-0003066D01*
X0042597Y-0003125D01*
X0042606Y-0003184D01*
X0042613Y-0003246D01*
X0042616Y-0003314D01*
Y-0003320D01*
Y-0003332D01*
X0042613Y-0003357D01*
X0042610Y-0003388D01*
X0042606Y-0003428D01*
X0042597Y-0003471D01*
X0042588Y-0003521D01*
X0042576Y-0003573D01*
X0042557Y-0003632D01*
X0042535Y-0003691D01*
X0042511Y-0003749D01*
X0042480Y-0003811D01*
X0042443Y-0003873D01*
X0042399Y-0003932D01*
X0042350Y-0003987D01*
X0042291Y-0004043D01*
X0042288Y-0004046D01*
X0042276Y-0004055D01*
X0042257Y-0004067D01*
X0042233Y-0004086D01*
X0042202Y-0004108D01*
X0042162Y-0004129D01*
X0042118Y-0004157D01*
X0042069Y-0004182D01*
X0042010Y-0004207D01*
X0041948Y-0004231D01*
X0041883Y-0004256D01*
X0041809Y-0004278D01*
X0041732Y-0004296D01*
X0041652Y-0004309D01*
X0041565Y-0004318D01*
X0041475Y-0004321D01*
X0040453D01*
Y-0000808D01*
X0041494D01*
X0041528Y-0000811D01*
D02*
G37*
G36*
X0085663Y-0001812D02*
X0086296D01*
Y-0002158D01*
X0085663D01*
Y-0003570D01*
Y-0003573D01*
Y-0003582D01*
Y-0003595D01*
Y-0003610D01*
X0085666Y-0003632D01*
X0085669Y-0003657D01*
X0085675Y-0003709D01*
X0085684Y-0003771D01*
X0085700Y-0003830D01*
X0085721Y-0003885D01*
X0085734Y-0003910D01*
X0085749Y-0003932D01*
X0085752Y-0003935D01*
X0085764Y-0003947D01*
X0085786Y-0003966D01*
X0085817Y-0003984D01*
X0085857Y-0004006D01*
X0085907Y-0004021D01*
X0085965Y-0004034D01*
X0086033Y-0004040D01*
X0086058D01*
X0086086Y-0004037D01*
X0086123Y-0004030D01*
X0086163Y-0004018D01*
X0086209Y-0004006D01*
X0086253Y-0003984D01*
X0086296Y-0003956D01*
Y-0004299D01*
X0086293D01*
X0086290Y-0004302D01*
X0086281Y-0004306D01*
X0086271Y-0004312D01*
X0086237Y-0004324D01*
X0086197Y-0004336D01*
X0086142Y-0004349D01*
X0086077Y-0004361D01*
X0086002Y-0004370D01*
X0085919Y-0004373D01*
X0085891D01*
X0085857Y-0004367D01*
X0085817Y-0004361D01*
X0085768Y-0004352D01*
X0085712Y-0004333D01*
X0085650Y-0004312D01*
X0085592Y-0004281D01*
X0085530Y-0004244D01*
X0085468Y-0004194D01*
X0085412Y-0004135D01*
X0085387Y-0004101D01*
X0085363Y-0004064D01*
X0085341Y-0004024D01*
X0085323Y-0003981D01*
X0085304Y-0003935D01*
X0085289Y-0003882D01*
X0085276Y-0003830D01*
X0085267Y-0003771D01*
X0085264Y-0003709D01*
X0085261Y-0003641D01*
Y-0002158D01*
X0084831D01*
Y-0001812D01*
X0085261D01*
Y-0001200D01*
X0085663Y-0001070D01*
Y-0001812D01*
D02*
G37*
G36*
X0048447D02*
X0049080D01*
Y-0002158D01*
X0048447D01*
Y-0003570D01*
Y-0003573D01*
Y-0003582D01*
Y-0003595D01*
Y-0003610D01*
X0048450Y-0003632D01*
X0048453Y-0003657D01*
X0048459Y-0003709D01*
X0048468Y-0003771D01*
X0048484Y-0003830D01*
X0048505Y-0003885D01*
X0048518Y-0003910D01*
X0048533Y-0003932D01*
X0048536Y-0003935D01*
X0048549Y-0003947D01*
X0048570Y-0003966D01*
X0048601Y-0003984D01*
X0048641Y-0004006D01*
X0048691Y-0004021D01*
X0048749Y-0004034D01*
X0048817Y-0004040D01*
X0048842D01*
X0048870Y-0004037D01*
X0048907Y-0004030D01*
X0048947Y-0004018D01*
X0048994Y-0004006D01*
X0049037Y-0003984D01*
X0049080Y-0003956D01*
Y-0004299D01*
X0049077D01*
X0049074Y-0004302D01*
X0049065Y-0004306D01*
X0049055Y-0004312D01*
X0049021Y-0004324D01*
X0048981Y-0004336D01*
X0048926Y-0004349D01*
X0048861Y-0004361D01*
X0048787Y-0004370D01*
X0048703Y-0004373D01*
X0048675D01*
X0048641Y-0004367D01*
X0048601Y-0004361D01*
X0048552Y-0004352D01*
X0048496Y-0004333D01*
X0048434Y-0004312D01*
X0048375Y-0004281D01*
X0048314Y-0004244D01*
X0048252Y-0004194D01*
X0048196Y-0004135D01*
X0048172Y-0004101D01*
X0048147Y-0004064D01*
X0048125Y-0004024D01*
X0048107Y-0003981D01*
X0048088Y-0003935D01*
X0048073Y-0003882D01*
X0048060Y-0003830D01*
X0048051Y-0003771D01*
X0048048Y-0003709D01*
X0048045Y-0003641D01*
Y-0002158D01*
X0047615D01*
Y-0001812D01*
X0048045D01*
Y-0001200D01*
X0048447Y-0001070D01*
Y-0001812D01*
D02*
G37*
G36*
X0046747D02*
X0047381D01*
Y-0002158D01*
X0046747D01*
Y-0003570D01*
Y-0003573D01*
Y-0003582D01*
Y-0003595D01*
Y-0003610D01*
X0046750Y-0003632D01*
X0046753Y-0003657D01*
X0046759Y-0003709D01*
X0046769Y-0003771D01*
X0046784Y-0003830D01*
X0046806Y-0003885D01*
X0046818Y-0003910D01*
X0046834Y-0003932D01*
X0046837Y-0003935D01*
X0046849Y-0003947D01*
X0046871Y-0003966D01*
X0046902Y-0003984D01*
X0046942Y-0004006D01*
X0046991Y-0004021D01*
X0047050Y-0004034D01*
X0047118Y-0004040D01*
X0047143D01*
X0047170Y-0004037D01*
X0047207Y-0004030D01*
X0047248Y-0004018D01*
X0047294Y-0004006D01*
X0047337Y-0003984D01*
X0047381Y-0003956D01*
Y-0004299D01*
X0047377D01*
X0047374Y-0004302D01*
X0047365Y-0004306D01*
X0047356Y-0004312D01*
X0047322Y-0004324D01*
X0047282Y-0004336D01*
X0047226Y-0004349D01*
X0047161Y-0004361D01*
X0047087Y-0004370D01*
X0047004Y-0004373D01*
X0046976D01*
X0046942Y-0004367D01*
X0046902Y-0004361D01*
X0046852Y-0004352D01*
X0046797Y-0004333D01*
X0046735Y-0004312D01*
X0046676Y-0004281D01*
X0046614Y-0004244D01*
X0046552Y-0004194D01*
X0046497Y-0004135D01*
X0046472Y-0004101D01*
X0046447Y-0004064D01*
X0046426Y-0004024D01*
X0046407Y-0003981D01*
X0046389Y-0003935D01*
X0046373Y-0003882D01*
X0046361Y-0003830D01*
X0046352Y-0003771D01*
X0046349Y-0003709D01*
X0046345Y-0003641D01*
Y-0002158D01*
X0045916D01*
Y-0001812D01*
X0046345D01*
Y-0001200D01*
X0046747Y-0001070D01*
Y-0001812D01*
D02*
G37*
G36*
X0078067Y-0001756D02*
X0078101Y-0001759D01*
X0078145Y-0001762D01*
X0078191Y-0001769D01*
X0078243Y-0001781D01*
X0078299Y-0001793D01*
X0078361Y-0001809D01*
X0078423Y-0001830D01*
X0078484Y-0001858D01*
X0078549Y-0001889D01*
X0078611Y-0001926D01*
X0078670Y-0001969D01*
X0078729Y-0002019D01*
X0078781Y-0002074D01*
X0078784Y-0002078D01*
X0078794Y-0002090D01*
X0078806Y-0002108D01*
X0078824Y-0002133D01*
X0078843Y-0002164D01*
X0078868Y-0002204D01*
X0078892Y-0002251D01*
X0078917Y-0002303D01*
X0078942Y-0002365D01*
X0078966Y-0002430D01*
X0078991Y-0002504D01*
X0079010Y-0002581D01*
X0079028Y-0002668D01*
X0079041Y-0002757D01*
X0079050Y-0002856D01*
X0079053Y-0002958D01*
Y-0003168D01*
X0077279D01*
Y-0003175D01*
Y-0003187D01*
X0077283Y-0003209D01*
X0077286Y-0003236D01*
X0077289Y-0003273D01*
X0077295Y-0003314D01*
X0077301Y-0003357D01*
X0077313Y-0003406D01*
X0077341Y-0003511D01*
X0077360Y-0003564D01*
X0077381Y-0003619D01*
X0077406Y-0003672D01*
X0077434Y-0003725D01*
X0077468Y-0003771D01*
X0077505Y-0003817D01*
X0077508Y-0003820D01*
X0077514Y-0003827D01*
X0077527Y-0003839D01*
X0077545Y-0003851D01*
X0077567Y-0003870D01*
X0077595Y-0003888D01*
X0077626Y-0003910D01*
X0077659Y-0003929D01*
X0077700Y-0003950D01*
X0077746Y-0003972D01*
X0077792Y-0003990D01*
X0077848Y-0004009D01*
X0077903Y-0004021D01*
X0077965Y-0004034D01*
X0078030Y-0004040D01*
X0078098Y-0004043D01*
X0078117D01*
X0078138Y-0004040D01*
X0078169D01*
X0078206Y-0004034D01*
X0078250Y-0004027D01*
X0078299Y-0004018D01*
X0078355Y-0004009D01*
X0078413Y-0003993D01*
X0078475Y-0003975D01*
X0078540Y-0003953D01*
X0078605Y-0003925D01*
X0078673Y-0003895D01*
X0078741Y-0003857D01*
X0078809Y-0003814D01*
X0078877Y-0003765D01*
Y-0004142D01*
X0078874Y-0004145D01*
X0078861Y-0004151D01*
X0078843Y-0004163D01*
X0078818Y-0004179D01*
X0078784Y-0004197D01*
X0078744Y-0004216D01*
X0078698Y-0004237D01*
X0078645Y-0004259D01*
X0078583Y-0004284D01*
X0078518Y-0004306D01*
X0078447Y-0004324D01*
X0078370Y-0004343D01*
X0078287Y-0004358D01*
X0078197Y-0004370D01*
X0078101Y-0004377D01*
X0078002Y-0004380D01*
X0077978D01*
X0077953Y-0004377D01*
X0077916Y-0004373D01*
X0077870Y-0004370D01*
X0077817Y-0004361D01*
X0077761Y-0004352D01*
X0077700Y-0004336D01*
X0077635Y-0004318D01*
X0077567Y-0004296D01*
X0077496Y-0004268D01*
X0077428Y-0004237D01*
X0077357Y-0004197D01*
X0077292Y-0004151D01*
X0077227Y-0004098D01*
X0077168Y-0004040D01*
X0077165Y-0004037D01*
X0077156Y-0004024D01*
X0077140Y-0004003D01*
X0077122Y-0003975D01*
X0077097Y-0003941D01*
X0077072Y-0003898D01*
X0077044Y-0003848D01*
X0077017Y-0003789D01*
X0076989Y-0003728D01*
X0076961Y-0003653D01*
X0076936Y-0003576D01*
X0076912Y-0003490D01*
X0076893Y-0003397D01*
X0076878Y-0003298D01*
X0076868Y-0003190D01*
X0076865Y-0003079D01*
Y-0003076D01*
Y-0003073D01*
Y-0003063D01*
Y-0003054D01*
X0076868Y-0003023D01*
X0076872Y-0002980D01*
X0076875Y-0002930D01*
X0076884Y-0002875D01*
X0076893Y-0002810D01*
X0076906Y-0002739D01*
X0076924Y-0002665D01*
X0076946Y-0002587D01*
X0076973Y-0002507D01*
X0077004Y-0002427D01*
X0077041Y-0002349D01*
X0077088Y-0002269D01*
X0077137Y-0002195D01*
X0077196Y-0002124D01*
X0077199Y-0002121D01*
X0077211Y-0002108D01*
X0077230Y-0002090D01*
X0077255Y-0002065D01*
X0077289Y-0002037D01*
X0077329Y-0002007D01*
X0077372Y-0001973D01*
X0077425Y-0001939D01*
X0077480Y-0001905D01*
X0077545Y-0001871D01*
X0077613Y-0001840D01*
X0077684Y-0001812D01*
X0077761Y-0001787D01*
X0077845Y-0001769D01*
X0077931Y-0001756D01*
X0078021Y-0001753D01*
X0078043D01*
X0078067Y-0001756D01*
D02*
G37*
G36*
X0069063D02*
X0069097Y-0001759D01*
X0069140Y-0001762D01*
X0069187Y-0001769D01*
X0069239Y-0001781D01*
X0069295Y-0001793D01*
X0069357Y-0001809D01*
X0069418Y-0001830D01*
X0069480Y-0001858D01*
X0069545Y-0001889D01*
X0069607Y-0001926D01*
X0069666Y-0001969D01*
X0069724Y-0002019D01*
X0069777Y-0002074D01*
X0069780Y-0002078D01*
X0069789Y-0002090D01*
X0069802Y-0002108D01*
X0069820Y-0002133D01*
X0069839Y-0002164D01*
X0069863Y-0002204D01*
X0069888Y-0002251D01*
X0069913Y-0002303D01*
X0069937Y-0002365D01*
X0069962Y-0002430D01*
X0069987Y-0002504D01*
X0070006Y-0002581D01*
X0070024Y-0002668D01*
X0070036Y-0002757D01*
X0070046Y-0002856D01*
X0070049Y-0002958D01*
Y-0003168D01*
X0068275D01*
Y-0003175D01*
Y-0003187D01*
X0068278Y-0003209D01*
X0068281Y-0003236D01*
X0068284Y-0003273D01*
X0068291Y-0003314D01*
X0068297Y-0003357D01*
X0068309Y-0003406D01*
X0068337Y-0003511D01*
X0068355Y-0003564D01*
X0068377Y-0003619D01*
X0068402Y-0003672D01*
X0068430Y-0003725D01*
X0068464Y-0003771D01*
X0068501Y-0003817D01*
X0068504Y-0003820D01*
X0068510Y-0003827D01*
X0068522Y-0003839D01*
X0068541Y-0003851D01*
X0068563Y-0003870D01*
X0068590Y-0003888D01*
X0068621Y-0003910D01*
X0068655Y-0003929D01*
X0068695Y-0003950D01*
X0068742Y-0003972D01*
X0068788Y-0003990D01*
X0068844Y-0004009D01*
X0068899Y-0004021D01*
X0068961Y-0004034D01*
X0069026Y-0004040D01*
X0069094Y-0004043D01*
X0069112D01*
X0069134Y-0004040D01*
X0069165D01*
X0069202Y-0004034D01*
X0069245Y-0004027D01*
X0069295Y-0004018D01*
X0069350Y-0004009D01*
X0069409Y-0003993D01*
X0069471Y-0003975D01*
X0069536Y-0003953D01*
X0069601Y-0003925D01*
X0069669Y-0003895D01*
X0069737Y-0003857D01*
X0069805Y-0003814D01*
X0069873Y-0003765D01*
Y-0004142D01*
X0069870Y-0004145D01*
X0069857Y-0004151D01*
X0069839Y-0004163D01*
X0069814Y-0004179D01*
X0069780Y-0004197D01*
X0069740Y-0004216D01*
X0069693Y-0004237D01*
X0069641Y-0004259D01*
X0069579Y-0004284D01*
X0069514Y-0004306D01*
X0069443Y-0004324D01*
X0069366Y-0004343D01*
X0069282Y-0004358D01*
X0069193Y-0004370D01*
X0069097Y-0004377D01*
X0068998Y-0004380D01*
X0068973D01*
X0068949Y-0004377D01*
X0068912Y-0004373D01*
X0068865Y-0004370D01*
X0068813Y-0004361D01*
X0068757Y-0004352D01*
X0068695Y-0004336D01*
X0068630Y-0004318D01*
X0068563Y-0004296D01*
X0068491Y-0004268D01*
X0068423Y-0004237D01*
X0068352Y-0004197D01*
X0068287Y-0004151D01*
X0068223Y-0004098D01*
X0068164Y-0004040D01*
X0068161Y-0004037D01*
X0068151Y-0004024D01*
X0068136Y-0004003D01*
X0068117Y-0003975D01*
X0068093Y-0003941D01*
X0068068Y-0003898D01*
X0068040Y-0003848D01*
X0068012Y-0003789D01*
X0067985Y-0003728D01*
X0067957Y-0003653D01*
X0067932Y-0003576D01*
X0067907Y-0003490D01*
X0067889Y-0003397D01*
X0067873Y-0003298D01*
X0067864Y-0003190D01*
X0067861Y-0003079D01*
Y-0003076D01*
Y-0003073D01*
Y-0003063D01*
Y-0003054D01*
X0067864Y-0003023D01*
X0067867Y-0002980D01*
X0067870Y-0002930D01*
X0067880Y-0002875D01*
X0067889Y-0002810D01*
X0067901Y-0002739D01*
X0067920Y-0002665D01*
X0067941Y-0002587D01*
X0067969Y-0002507D01*
X0068000Y-0002427D01*
X0068037Y-0002349D01*
X0068084Y-0002269D01*
X0068133Y-0002195D01*
X0068192Y-0002124D01*
X0068195Y-0002121D01*
X0068207Y-0002108D01*
X0068226Y-0002090D01*
X0068250Y-0002065D01*
X0068284Y-0002037D01*
X0068325Y-0002007D01*
X0068368Y-0001973D01*
X0068420Y-0001939D01*
X0068476Y-0001905D01*
X0068541Y-0001871D01*
X0068609Y-0001840D01*
X0068680Y-0001812D01*
X0068757Y-0001787D01*
X0068841Y-0001769D01*
X0068927Y-0001756D01*
X0069017Y-0001753D01*
X0069038D01*
X0069063Y-0001756D01*
D02*
G37*
G36*
X0062083D02*
X0062123Y-0001759D01*
X0062169Y-0001762D01*
X0062225Y-0001772D01*
X0062284Y-0001781D01*
X0062349Y-0001796D01*
X0062420Y-0001815D01*
X0062491Y-0001837D01*
X0062562Y-0001864D01*
X0062636Y-0001898D01*
X0062707Y-0001939D01*
X0062778Y-0001985D01*
X0062843Y-0002037D01*
X0062905Y-0002099D01*
X0062908Y-0002102D01*
X0062917Y-0002115D01*
X0062932Y-0002136D01*
X0062954Y-0002164D01*
X0062979Y-0002198D01*
X0063004Y-0002241D01*
X0063034Y-0002291D01*
X0063062Y-0002349D01*
X0063093Y-0002414D01*
X0063121Y-0002486D01*
X0063146Y-0002563D01*
X0063170Y-0002649D01*
X0063192Y-0002742D01*
X0063208Y-0002841D01*
X0063217Y-0002946D01*
X0063220Y-0003057D01*
Y-0003060D01*
Y-0003063D01*
Y-0003073D01*
Y-0003085D01*
X0063217Y-0003116D01*
X0063214Y-0003156D01*
X0063211Y-0003209D01*
X0063201Y-0003267D01*
X0063192Y-0003332D01*
X0063177Y-0003403D01*
X0063158Y-0003477D01*
X0063136Y-0003558D01*
X0063109Y-0003638D01*
X0063078Y-0003718D01*
X0063038Y-0003799D01*
X0062991Y-0003876D01*
X0062939Y-0003950D01*
X0062880Y-0004021D01*
X0062877Y-0004024D01*
X0062865Y-0004037D01*
X0062846Y-0004055D01*
X0062818Y-0004077D01*
X0062784Y-0004105D01*
X0062744Y-0004135D01*
X0062695Y-0004166D01*
X0062639Y-0004200D01*
X0062577Y-0004234D01*
X0062509Y-0004265D01*
X0062435Y-0004296D01*
X0062355Y-0004324D01*
X0062265Y-0004346D01*
X0062172Y-0004364D01*
X0062077Y-0004377D01*
X0061971Y-0004380D01*
X0061947D01*
X0061919Y-0004377D01*
X0061879Y-0004373D01*
X0061832Y-0004370D01*
X0061777Y-0004361D01*
X0061718Y-0004352D01*
X0061653Y-0004336D01*
X0061582Y-0004318D01*
X0061511Y-0004293D01*
X0061437Y-0004265D01*
X0061363Y-0004231D01*
X0061289Y-0004191D01*
X0061215Y-0004145D01*
X0061146Y-0004092D01*
X0061082Y-0004030D01*
X0061079Y-0004027D01*
X0061066Y-0004015D01*
X0061051Y-0003993D01*
X0061029Y-0003966D01*
X0061004Y-0003932D01*
X0060976Y-0003888D01*
X0060949Y-0003839D01*
X0060918Y-0003780D01*
X0060887Y-0003718D01*
X0060856Y-0003647D01*
X0060828Y-0003570D01*
X0060804Y-0003487D01*
X0060782Y-0003400D01*
X0060766Y-0003304D01*
X0060754Y-0003202D01*
X0060751Y-0003097D01*
Y-0003094D01*
Y-0003091D01*
Y-0003082D01*
Y-0003070D01*
X0060754Y-0003036D01*
X0060757Y-0002992D01*
X0060760Y-0002940D01*
X0060769Y-0002878D01*
X0060779Y-0002810D01*
X0060794Y-0002736D01*
X0060813Y-0002658D01*
X0060834Y-0002578D01*
X0060862Y-0002495D01*
X0060896Y-0002411D01*
X0060936Y-0002331D01*
X0060980Y-0002254D01*
X0061032Y-0002180D01*
X0061094Y-0002108D01*
X0061097Y-0002105D01*
X0061109Y-0002093D01*
X0061131Y-0002074D01*
X0061159Y-0002053D01*
X0061193Y-0002025D01*
X0061236Y-0001997D01*
X0061286Y-0001963D01*
X0061341Y-0001929D01*
X0061403Y-0001898D01*
X0061474Y-0001864D01*
X0061551Y-0001837D01*
X0061635Y-0001809D01*
X0061724Y-0001787D01*
X0061820Y-0001769D01*
X0061922Y-0001756D01*
X0062030Y-0001753D01*
X0062055D01*
X0062083Y-0001756D01*
D02*
G37*
G36*
X0050776D02*
X0050817Y-0001759D01*
X0050863Y-0001762D01*
X0050919Y-0001772D01*
X0050977Y-0001781D01*
X0051042Y-0001796D01*
X0051113Y-0001815D01*
X0051184Y-0001837D01*
X0051255Y-0001864D01*
X0051329Y-0001898D01*
X0051401Y-0001939D01*
X0051472Y-0001985D01*
X0051537Y-0002037D01*
X0051598Y-0002099D01*
X0051601Y-0002102D01*
X0051611Y-0002115D01*
X0051626Y-0002136D01*
X0051648Y-0002164D01*
X0051673Y-0002198D01*
X0051697Y-0002241D01*
X0051728Y-0002291D01*
X0051756Y-0002349D01*
X0051787Y-0002414D01*
X0051815Y-0002486D01*
X0051839Y-0002563D01*
X0051864Y-0002649D01*
X0051886Y-0002742D01*
X0051901Y-0002841D01*
X0051911Y-0002946D01*
X0051914Y-0003057D01*
Y-0003060D01*
Y-0003063D01*
Y-0003073D01*
Y-0003085D01*
X0051911Y-0003116D01*
X0051907Y-0003156D01*
X0051904Y-0003209D01*
X0051895Y-0003267D01*
X0051886Y-0003332D01*
X0051870Y-0003403D01*
X0051852Y-0003477D01*
X0051830Y-0003558D01*
X0051802Y-0003638D01*
X0051771Y-0003718D01*
X0051731Y-0003799D01*
X0051685Y-0003876D01*
X0051632Y-0003950D01*
X0051574Y-0004021D01*
X0051571Y-0004024D01*
X0051558Y-0004037D01*
X0051540Y-0004055D01*
X0051512Y-0004077D01*
X0051478Y-0004105D01*
X0051438Y-0004135D01*
X0051388Y-0004166D01*
X0051333Y-0004200D01*
X0051271Y-0004234D01*
X0051203Y-0004265D01*
X0051129Y-0004296D01*
X0051048Y-0004324D01*
X0050959Y-0004346D01*
X0050866Y-0004364D01*
X0050770Y-0004377D01*
X0050665Y-0004380D01*
X0050640D01*
X0050613Y-0004377D01*
X0050573Y-0004373D01*
X0050526Y-0004370D01*
X0050471Y-0004361D01*
X0050412Y-0004352D01*
X0050347Y-0004336D01*
X0050276Y-0004318D01*
X0050205Y-0004293D01*
X0050131Y-0004265D01*
X0050056Y-0004231D01*
X0049982Y-0004191D01*
X0049908Y-0004145D01*
X0049840Y-0004092D01*
X0049775Y-0004030D01*
X0049772Y-0004027D01*
X0049760Y-0004015D01*
X0049744Y-0003993D01*
X0049723Y-0003966D01*
X0049698Y-0003932D01*
X0049670Y-0003888D01*
X0049642Y-0003839D01*
X0049611Y-0003780D01*
X0049581Y-0003718D01*
X0049550Y-0003647D01*
X0049522Y-0003570D01*
X0049497Y-0003487D01*
X0049475Y-0003400D01*
X0049460Y-0003304D01*
X0049448Y-0003202D01*
X0049445Y-0003097D01*
Y-0003094D01*
Y-0003091D01*
Y-0003082D01*
Y-0003070D01*
X0049448Y-0003036D01*
X0049451Y-0002992D01*
X0049454Y-0002940D01*
X0049463Y-0002878D01*
X0049472Y-0002810D01*
X0049488Y-0002736D01*
X0049507Y-0002658D01*
X0049528Y-0002578D01*
X0049556Y-0002495D01*
X0049590Y-0002411D01*
X0049630Y-0002331D01*
X0049673Y-0002254D01*
X0049726Y-0002180D01*
X0049788Y-0002108D01*
X0049791Y-0002105D01*
X0049803Y-0002093D01*
X0049825Y-0002074D01*
X0049852Y-0002053D01*
X0049887Y-0002025D01*
X0049930Y-0001997D01*
X0049979Y-0001963D01*
X0050035Y-0001929D01*
X0050097Y-0001898D01*
X0050168Y-0001864D01*
X0050245Y-0001837D01*
X0050328Y-0001809D01*
X0050418Y-0001787D01*
X0050514Y-0001769D01*
X0050616Y-0001756D01*
X0050724Y-0001753D01*
X0050749D01*
X0050776Y-0001756D01*
D02*
G37*
G36*
X0044436D02*
X0044476Y-0001759D01*
X0044522Y-0001762D01*
X0044578Y-0001772D01*
X0044637Y-0001781D01*
X0044701Y-0001796D01*
X0044773Y-0001815D01*
X0044844Y-0001837D01*
X0044915Y-0001864D01*
X0044989Y-0001898D01*
X0045060Y-0001939D01*
X0045131Y-0001985D01*
X0045196Y-0002037D01*
X0045258Y-0002099D01*
X0045261Y-0002102D01*
X0045270Y-0002115D01*
X0045285Y-0002136D01*
X0045307Y-0002164D01*
X0045332Y-0002198D01*
X0045357Y-0002241D01*
X0045388Y-0002291D01*
X0045415Y-0002349D01*
X0045446Y-0002414D01*
X0045474Y-0002486D01*
X0045499Y-0002563D01*
X0045523Y-0002649D01*
X0045545Y-0002742D01*
X0045561Y-0002841D01*
X0045570Y-0002946D01*
X0045573Y-0003057D01*
Y-0003060D01*
Y-0003063D01*
Y-0003073D01*
Y-0003085D01*
X0045570Y-0003116D01*
X0045567Y-0003156D01*
X0045564Y-0003209D01*
X0045554Y-0003267D01*
X0045545Y-0003332D01*
X0045530Y-0003403D01*
X0045511Y-0003477D01*
X0045489Y-0003558D01*
X0045462Y-0003638D01*
X0045431Y-0003718D01*
X0045391Y-0003799D01*
X0045344Y-0003876D01*
X0045292Y-0003950D01*
X0045233Y-0004021D01*
X0045230Y-0004024D01*
X0045217Y-0004037D01*
X0045199Y-0004055D01*
X0045171Y-0004077D01*
X0045137Y-0004105D01*
X0045097Y-0004135D01*
X0045048Y-0004166D01*
X0044992Y-0004200D01*
X0044930Y-0004234D01*
X0044862Y-0004265D01*
X0044788Y-0004296D01*
X0044708Y-0004324D01*
X0044618Y-0004346D01*
X0044525Y-0004364D01*
X0044430Y-0004377D01*
X0044324Y-0004380D01*
X0044300D01*
X0044272Y-0004377D01*
X0044232Y-0004373D01*
X0044186Y-0004370D01*
X0044130Y-0004361D01*
X0044071Y-0004352D01*
X0044006Y-0004336D01*
X0043935Y-0004318D01*
X0043864Y-0004293D01*
X0043790Y-0004265D01*
X0043716Y-0004231D01*
X0043642Y-0004191D01*
X0043567Y-0004145D01*
X0043499Y-0004092D01*
X0043435Y-0004030D01*
X0043431Y-0004027D01*
X0043419Y-0004015D01*
X0043404Y-0003993D01*
X0043382Y-0003966D01*
X0043357Y-0003932D01*
X0043330Y-0003888D01*
X0043302Y-0003839D01*
X0043271Y-0003780D01*
X0043240Y-0003718D01*
X0043209Y-0003647D01*
X0043181Y-0003570D01*
X0043156Y-0003487D01*
X0043135Y-0003400D01*
X0043119Y-0003304D01*
X0043107Y-0003202D01*
X0043104Y-0003097D01*
Y-0003094D01*
Y-0003091D01*
Y-0003082D01*
Y-0003070D01*
X0043107Y-0003036D01*
X0043110Y-0002992D01*
X0043113Y-0002940D01*
X0043123Y-0002878D01*
X0043132Y-0002810D01*
X0043147Y-0002736D01*
X0043166Y-0002658D01*
X0043187Y-0002578D01*
X0043215Y-0002495D01*
X0043249Y-0002411D01*
X0043289Y-0002331D01*
X0043333Y-0002254D01*
X0043385Y-0002180D01*
X0043447Y-0002108D01*
X0043450Y-0002105D01*
X0043462Y-0002093D01*
X0043484Y-0002074D01*
X0043512Y-0002053D01*
X0043546Y-0002025D01*
X0043589Y-0001997D01*
X0043639Y-0001963D01*
X0043694Y-0001929D01*
X0043756Y-0001898D01*
X0043827Y-0001864D01*
X0043904Y-0001837D01*
X0043988Y-0001809D01*
X0044077Y-0001787D01*
X0044173Y-0001769D01*
X0044275Y-0001756D01*
X0044383Y-0001753D01*
X0044408D01*
X0044436Y-0001756D01*
D02*
G37*
G36*
X0086843Y-0000811D02*
X0086849Y-0000817D01*
X0086858Y-0000832D01*
X0086874Y-0000848D01*
X0086889Y-0000872D01*
X0086911Y-0000900D01*
X0086932Y-0000931D01*
X0086960Y-0000968D01*
X0086988Y-0001008D01*
X0087019Y-0001055D01*
X0087050Y-0001104D01*
X0087084Y-0001160D01*
X0087118Y-0001219D01*
X0087152Y-0001280D01*
X0087186Y-0001345D01*
X0087223Y-0001416D01*
X0087260Y-0001491D01*
X0087294Y-0001568D01*
X0087328Y-0001648D01*
X0087365Y-0001735D01*
X0087396Y-0001821D01*
X0087430Y-0001914D01*
X0087458Y-0002007D01*
X0087486Y-0002105D01*
X0087535Y-0002309D01*
X0087557Y-0002414D01*
X0087572Y-0002523D01*
X0087588Y-0002634D01*
X0087597Y-0002748D01*
X0087603Y-0002866D01*
X0087606Y-0002983D01*
Y-0002986D01*
Y-0002998D01*
Y-0003014D01*
Y-0003039D01*
X0087603Y-0003070D01*
X0087600Y-0003107D01*
X0087597Y-0003147D01*
X0087594Y-0003196D01*
X0087591Y-0003246D01*
X0087581Y-0003304D01*
X0087575Y-0003366D01*
X0087566Y-0003431D01*
X0087554Y-0003499D01*
X0087541Y-0003573D01*
X0087526Y-0003647D01*
X0087510Y-0003725D01*
X0087470Y-0003891D01*
X0087418Y-0004061D01*
X0087356Y-0004241D01*
X0087322Y-0004330D01*
X0087282Y-0004420D01*
X0087242Y-0004509D01*
X0087195Y-0004599D01*
X0087146Y-0004689D01*
X0087093Y-0004778D01*
X0087034Y-0004865D01*
X0086976Y-0004951D01*
X0086911Y-0005035D01*
X0086840Y-0005118D01*
X0086484D01*
X0086488Y-0005115D01*
X0086494Y-0005109D01*
X0086503Y-0005093D01*
X0086519Y-0005075D01*
X0086534Y-0005053D01*
X0086556Y-0005025D01*
X0086577Y-0004995D01*
X0086605Y-0004958D01*
X0086633Y-0004914D01*
X0086661Y-0004868D01*
X0086695Y-0004818D01*
X0086725Y-0004763D01*
X0086760Y-0004704D01*
X0086794Y-0004642D01*
X0086831Y-0004577D01*
X0086868Y-0004506D01*
X0086902Y-0004435D01*
X0086939Y-0004358D01*
X0086973Y-0004278D01*
X0087007Y-0004194D01*
X0087041Y-0004108D01*
X0087072Y-0004018D01*
X0087127Y-0003830D01*
X0087177Y-0003629D01*
X0087198Y-0003527D01*
X0087214Y-0003422D01*
X0087229Y-0003314D01*
X0087238Y-0003202D01*
X0087245Y-0003091D01*
X0087248Y-0002977D01*
Y-0002974D01*
Y-0002961D01*
Y-0002946D01*
Y-0002921D01*
X0087245Y-0002893D01*
X0087242Y-0002856D01*
X0087238Y-0002816D01*
X0087235Y-0002770D01*
X0087229Y-0002717D01*
X0087223Y-0002662D01*
X0087217Y-0002600D01*
X0087208Y-0002535D01*
X0087195Y-0002467D01*
X0087183Y-0002396D01*
X0087167Y-0002322D01*
X0087152Y-0002241D01*
X0087112Y-0002078D01*
X0087059Y-0001905D01*
X0087031Y-0001815D01*
X0086997Y-0001725D01*
X0086963Y-0001633D01*
X0086923Y-0001540D01*
X0086880Y-0001447D01*
X0086834Y-0001354D01*
X0086784Y-0001262D01*
X0086732Y-0001169D01*
X0086676Y-0001076D01*
X0086614Y-0000987D01*
X0086549Y-0000897D01*
X0086478Y-0000808D01*
X0086840D01*
X0086843Y-0000811D01*
D02*
G37*
G36*
X0074832D02*
X0074826Y-0000817D01*
X0074817Y-0000832D01*
X0074801Y-0000851D01*
X0074786Y-0000872D01*
X0074764Y-0000900D01*
X0074739Y-0000934D01*
X0074715Y-0000971D01*
X0074687Y-0001015D01*
X0074656Y-0001061D01*
X0074625Y-0001113D01*
X0074591Y-0001169D01*
X0074557Y-0001228D01*
X0074523Y-0001290D01*
X0074486Y-0001358D01*
X0074452Y-0001429D01*
X0074415Y-0001503D01*
X0074378Y-0001580D01*
X0074344Y-0001664D01*
X0074310Y-0001747D01*
X0074276Y-0001833D01*
X0074245Y-0001926D01*
X0074186Y-0002118D01*
X0074137Y-0002319D01*
X0074115Y-0002421D01*
X0074100Y-0002529D01*
X0074084Y-0002637D01*
X0074075Y-0002748D01*
X0074069Y-0002862D01*
X0074066Y-0002977D01*
Y-0002980D01*
Y-0002989D01*
Y-0003008D01*
X0074069Y-0003032D01*
Y-0003060D01*
X0074072Y-0003097D01*
X0074075Y-0003137D01*
X0074078Y-0003184D01*
X0074084Y-0003233D01*
X0074090Y-0003289D01*
X0074097Y-0003348D01*
X0074106Y-0003413D01*
X0074118Y-0003480D01*
X0074131Y-0003551D01*
X0074143Y-0003626D01*
X0074162Y-0003703D01*
X0074202Y-0003867D01*
X0074251Y-0004040D01*
X0074313Y-0004216D01*
X0074350Y-0004306D01*
X0074387Y-0004398D01*
X0074430Y-0004488D01*
X0074477Y-0004580D01*
X0074523Y-0004673D01*
X0074579Y-0004763D01*
X0074634Y-0004852D01*
X0074696Y-0004942D01*
X0074761Y-0005032D01*
X0074829Y-0005118D01*
X0074471D01*
X0074467Y-0005115D01*
X0074461Y-0005109D01*
X0074452Y-0005096D01*
X0074440Y-0005078D01*
X0074421Y-0005056D01*
X0074400Y-0005029D01*
X0074378Y-0004998D01*
X0074353Y-0004964D01*
X0074325Y-0004924D01*
X0074294Y-0004877D01*
X0074264Y-0004831D01*
X0074233Y-0004778D01*
X0074199Y-0004719D01*
X0074162Y-0004661D01*
X0074128Y-0004596D01*
X0074094Y-0004528D01*
X0074057Y-0004454D01*
X0074023Y-0004380D01*
X0073985Y-0004299D01*
X0073954Y-0004216D01*
X0073921Y-0004129D01*
X0073890Y-0004040D01*
X0073859Y-0003947D01*
X0073831Y-0003851D01*
X0073785Y-0003650D01*
X0073763Y-0003545D01*
X0073747Y-0003440D01*
X0073732Y-0003329D01*
X0073723Y-0003215D01*
X0073717Y-0003100D01*
X0073713Y-0002983D01*
Y-0002980D01*
Y-0002967D01*
Y-0002952D01*
X0073717Y-0002927D01*
Y-0002896D01*
X0073720Y-0002859D01*
X0073723Y-0002816D01*
X0073726Y-0002770D01*
X0073729Y-0002717D01*
X0073738Y-0002658D01*
X0073744Y-0002597D01*
X0073754Y-0002532D01*
X0073763Y-0002461D01*
X0073778Y-0002390D01*
X0073791Y-0002312D01*
X0073809Y-0002232D01*
X0073849Y-0002065D01*
X0073899Y-0001892D01*
X0073961Y-0001710D01*
X0073995Y-0001620D01*
X0074032Y-0001528D01*
X0074075Y-0001435D01*
X0074118Y-0001342D01*
X0074168Y-0001249D01*
X0074220Y-0001160D01*
X0074276Y-0001070D01*
X0074338Y-0000981D01*
X0074403Y-0000894D01*
X0074471Y-0000808D01*
X0074835D01*
X0074832Y-0000811D01*
D02*
G37*
%LPC*%
G36*
X0051543Y0042838D02*
X0051527D01*
X0051509Y0042835D01*
X0051481D01*
X0051450Y0042829D01*
X0051416Y0042822D01*
X0051376Y0042816D01*
X0051333Y0042804D01*
X0051286Y0042791D01*
X0051240Y0042773D01*
X0051194Y0042751D01*
X0051144Y0042723D01*
X0051098Y0042693D01*
X0051051Y0042658D01*
X0051005Y0042615D01*
X0050965Y0042569D01*
X0050962Y0042566D01*
X0050956Y0042557D01*
X0050946Y0042541D01*
X0050931Y0042520D01*
X0050915Y0042492D01*
X0050900Y0042458D01*
X0050878Y0042421D01*
X0050860Y0042374D01*
X0050841Y0042325D01*
X0050823Y0042269D01*
X0050804Y0042207D01*
X0050789Y0042143D01*
X0050773Y0042068D01*
X0050764Y0041994D01*
X0050758Y0041911D01*
X0050755Y0041824D01*
Y0041818D01*
Y0041806D01*
Y0041781D01*
X0050758Y0041753D01*
X0050761Y0041716D01*
X0050764Y0041673D01*
X0050770Y0041627D01*
X0050779Y0041574D01*
X0050804Y0041466D01*
X0050820Y0041407D01*
X0050838Y0041352D01*
X0050863Y0041296D01*
X0050891Y0041240D01*
X0050922Y0041188D01*
X0050956Y0041138D01*
X0050959Y0041135D01*
X0050965Y0041129D01*
X0050977Y0041117D01*
X0050993Y0041098D01*
X0051014Y0041080D01*
X0051039Y0041058D01*
X0051067Y0041036D01*
X0051101Y0041015D01*
X0051138Y0040990D01*
X0051178Y0040968D01*
X0051221Y0040947D01*
X0051271Y0040928D01*
X0051323Y0040913D01*
X0051379Y0040900D01*
X0051438Y0040891D01*
X0051499Y0040888D01*
X0051515D01*
X0051534Y0040891D01*
X0051555D01*
X0051583Y0040894D01*
X0051617Y0040900D01*
X0051654Y0040910D01*
X0051694Y0040919D01*
X0051737Y0040931D01*
X0051781Y0040947D01*
X0051827Y0040965D01*
X0051870Y0040990D01*
X0051917Y0041018D01*
X0051960Y0041049D01*
X0052003Y0041086D01*
X0052043Y0041129D01*
X0052046Y0041132D01*
X0052053Y0041141D01*
X0052062Y0041154D01*
X0052077Y0041172D01*
X0052093Y0041197D01*
X0052111Y0041225D01*
X0052130Y0041259D01*
X0052148Y0041299D01*
X0052167Y0041339D01*
X0052189Y0041385D01*
X0052204Y0041438D01*
X0052219Y0041491D01*
X0052235Y0041549D01*
X0052244Y0041611D01*
X0052250Y0041676D01*
X0052254Y0041744D01*
Y0042112D01*
Y0042115D01*
Y0042124D01*
Y0042143D01*
X0052250Y0042164D01*
X0052247Y0042189D01*
X0052244Y0042220D01*
X0052238Y0042254D01*
X0052229Y0042291D01*
X0052204Y0042371D01*
X0052189Y0042414D01*
X0052170Y0042458D01*
X0052145Y0042501D01*
X0052118Y0042544D01*
X0052087Y0042588D01*
X0052053Y0042628D01*
X0052049Y0042631D01*
X0052043Y0042637D01*
X0052031Y0042646D01*
X0052016Y0042662D01*
X0051997Y0042677D01*
X0051972Y0042696D01*
X0051945Y0042714D01*
X0051914Y0042733D01*
X0051880Y0042751D01*
X0051839Y0042773D01*
X0051799Y0042788D01*
X0051753Y0042804D01*
X0051703Y0042819D01*
X0051654Y0042829D01*
X0051598Y0042835D01*
X0051543Y0042838D01*
D02*
G37*
G36*
X0047609Y0041877D02*
X0047004Y0041793D01*
X0047001D01*
X0046991Y0041790D01*
X0046976D01*
X0046957Y0041787D01*
X0046936Y0041781D01*
X0046908Y0041775D01*
X0046846Y0041762D01*
X0046778Y0041744D01*
X0046710Y0041719D01*
X0046642Y0041688D01*
X0046611Y0041673D01*
X0046583Y0041654D01*
X0046577Y0041648D01*
X0046562Y0041636D01*
X0046537Y0041611D01*
X0046512Y0041574D01*
X0046488Y0041524D01*
X0046475Y0041497D01*
X0046463Y0041466D01*
X0046453Y0041432D01*
X0046447Y0041392D01*
X0046444Y0041352D01*
X0046441Y0041305D01*
Y0041302D01*
Y0041296D01*
Y0041287D01*
X0046444Y0041274D01*
X0046447Y0041240D01*
X0046457Y0041197D01*
X0046472Y0041151D01*
X0046497Y0041098D01*
X0046528Y0041049D01*
X0046571Y0041002D01*
X0046574D01*
X0046577Y0040996D01*
X0046596Y0040984D01*
X0046624Y0040965D01*
X0046664Y0040947D01*
X0046716Y0040925D01*
X0046775Y0040907D01*
X0046846Y0040894D01*
X0046923Y0040888D01*
X0046951D01*
X0046973Y0040891D01*
X0046997Y0040894D01*
X0047028Y0040900D01*
X0047059Y0040907D01*
X0047096Y0040916D01*
X0047174Y0040940D01*
X0047214Y0040956D01*
X0047257Y0040978D01*
X0047297Y0041002D01*
X0047337Y0041030D01*
X0047377Y0041061D01*
X0047414Y0041098D01*
X0047418Y0041101D01*
X0047424Y0041107D01*
X0047433Y0041120D01*
X0047445Y0041135D01*
X0047461Y0041157D01*
X0047476Y0041181D01*
X0047495Y0041209D01*
X0047513Y0041243D01*
X0047529Y0041280D01*
X0047547Y0041321D01*
X0047563Y0041364D01*
X0047578Y0041410D01*
X0047591Y0041460D01*
X0047600Y0041512D01*
X0047606Y0041568D01*
X0047609Y0041627D01*
Y0041877D01*
D02*
G37*
G36*
X0041398Y0043749D02*
X0040864D01*
Y0042615D01*
X0041318D01*
X0041340Y0042618D01*
X0041367Y0042621D01*
X0041401Y0042625D01*
X0041438Y0042628D01*
X0041479Y0042637D01*
X0041562Y0042656D01*
X0041652Y0042683D01*
X0041695Y0042702D01*
X0041738Y0042723D01*
X0041778Y0042748D01*
X0041815Y0042776D01*
X0041818Y0042779D01*
X0041825Y0042782D01*
X0041834Y0042794D01*
X0041846Y0042807D01*
X0041862Y0042822D01*
X0041877Y0042844D01*
X0041896Y0042869D01*
X0041914Y0042897D01*
X0041930Y0042927D01*
X0041948Y0042961D01*
X0041964Y0042998D01*
X0041979Y0043039D01*
X0041992Y0043085D01*
X0042001Y0043131D01*
X0042007Y0043184D01*
X0042010Y0043236D01*
Y0043242D01*
Y0043258D01*
X0042007Y0043283D01*
X0042001Y0043317D01*
X0041989Y0043357D01*
X0041976Y0043400D01*
X0041954Y0043446D01*
X0041927Y0043493D01*
X0041890Y0043542D01*
X0041846Y0043589D01*
X0041791Y0043632D01*
X0041726Y0043669D01*
X0041689Y0043687D01*
X0041649Y0043703D01*
X0041605Y0043715D01*
X0041559Y0043728D01*
X0041510Y0043737D01*
X0041454Y0043743D01*
X0041398Y0043749D01*
D02*
G37*
G36*
X0041337Y0042244D02*
X0040864D01*
Y0040981D01*
X0041457D01*
X0041482Y0040984D01*
X0041513Y0040987D01*
X0041547Y0040990D01*
X0041587Y0040996D01*
X0041630Y0041002D01*
X0041720Y0041021D01*
X0041812Y0041052D01*
X0041859Y0041073D01*
X0041902Y0041095D01*
X0041942Y0041120D01*
X0041982Y0041151D01*
X0041985Y0041154D01*
X0041992Y0041160D01*
X0042001Y0041169D01*
X0042013Y0041181D01*
X0042029Y0041200D01*
X0042047Y0041222D01*
X0042063Y0041246D01*
X0042084Y0041274D01*
X0042103Y0041308D01*
X0042118Y0041342D01*
X0042137Y0041382D01*
X0042152Y0041423D01*
X0042165Y0041469D01*
X0042174Y0041518D01*
X0042180Y0041568D01*
X0042183Y0041623D01*
Y0041627D01*
Y0041630D01*
Y0041639D01*
X0042180Y0041651D01*
X0042177Y0041682D01*
X0042171Y0041719D01*
X0042158Y0041769D01*
X0042140Y0041821D01*
X0042112Y0041877D01*
X0042078Y0041936D01*
X0042032Y0041991D01*
X0042007Y0042019D01*
X0041976Y0042047D01*
X0041945Y0042074D01*
X0041908Y0042099D01*
X0041868Y0042124D01*
X0041825Y0042149D01*
X0041778Y0042167D01*
X0041729Y0042186D01*
X0041673Y0042204D01*
X0041615Y0042217D01*
X0041553Y0042229D01*
X0041485Y0042238D01*
X0041414Y0042241D01*
X0041337Y0042244D01*
D02*
G37*
G36*
X0069412Y0042838D02*
X0069384D01*
X0069366Y0042835D01*
X0069341Y0042832D01*
X0069310Y0042829D01*
X0069279Y0042822D01*
X0069245Y0042813D01*
X0069168Y0042788D01*
X0069128Y0042773D01*
X0069088Y0042751D01*
X0069048Y0042730D01*
X0069004Y0042702D01*
X0068967Y0042671D01*
X0068927Y0042634D01*
X0068924Y0042631D01*
X0068918Y0042625D01*
X0068909Y0042612D01*
X0068896Y0042597D01*
X0068881Y0042575D01*
X0068862Y0042553D01*
X0068844Y0042523D01*
X0068822Y0042492D01*
X0068800Y0042455D01*
X0068782Y0042414D01*
X0068760Y0042371D01*
X0068742Y0042325D01*
X0068723Y0042272D01*
X0068708Y0042220D01*
X0068692Y0042161D01*
X0068683Y0042102D01*
X0070039D01*
Y0042105D01*
Y0042118D01*
Y0042136D01*
X0070036Y0042161D01*
X0070033Y0042189D01*
X0070030Y0042223D01*
X0070024Y0042260D01*
X0070018Y0042300D01*
X0069996Y0042387D01*
X0069965Y0042479D01*
X0069947Y0042523D01*
X0069925Y0042566D01*
X0069901Y0042606D01*
X0069870Y0042643D01*
X0069867Y0042646D01*
X0069863Y0042652D01*
X0069854Y0042662D01*
X0069839Y0042674D01*
X0069823Y0042689D01*
X0069802Y0042705D01*
X0069780Y0042723D01*
X0069752Y0042742D01*
X0069721Y0042757D01*
X0069687Y0042776D01*
X0069647Y0042791D01*
X0069607Y0042807D01*
X0069564Y0042819D01*
X0069517Y0042829D01*
X0069465Y0042835D01*
X0069412Y0042838D01*
D02*
G37*
G36*
X0056341Y0043808D02*
X0056317D01*
X0056289Y0043805D01*
X0056249Y0043802D01*
X0056203Y0043796D01*
X0056147Y0043786D01*
X0056088Y0043774D01*
X0056023Y0043759D01*
X0055952Y0043737D01*
X0055878Y0043712D01*
X0055804Y0043678D01*
X0055730Y0043641D01*
X0055652Y0043595D01*
X0055581Y0043542D01*
X0055510Y0043481D01*
X0055442Y0043409D01*
X0055439Y0043406D01*
X0055427Y0043391D01*
X0055411Y0043369D01*
X0055390Y0043338D01*
X0055362Y0043298D01*
X0055334Y0043249D01*
X0055303Y0043193D01*
X0055272Y0043128D01*
X0055238Y0043057D01*
X0055208Y0042977D01*
X0055180Y0042890D01*
X0055152Y0042798D01*
X0055130Y0042699D01*
X0055115Y0042591D01*
X0055102Y0042479D01*
X0055099Y0042359D01*
Y0042356D01*
Y0042353D01*
Y0042343D01*
Y0042331D01*
Y0042316D01*
X0055102Y0042297D01*
X0055106Y0042251D01*
X0055109Y0042195D01*
X0055118Y0042133D01*
X0055127Y0042062D01*
X0055143Y0041985D01*
X0055158Y0041905D01*
X0055183Y0041818D01*
X0055208Y0041732D01*
X0055242Y0041645D01*
X0055279Y0041559D01*
X0055325Y0041472D01*
X0055377Y0041392D01*
X0055436Y0041314D01*
X0055439Y0041311D01*
X0055452Y0041299D01*
X0055470Y0041277D01*
X0055498Y0041253D01*
X0055532Y0041222D01*
X0055572Y0041191D01*
X0055619Y0041154D01*
X0055671Y0041117D01*
X0055733Y0041080D01*
X0055798Y0041046D01*
X0055872Y0041012D01*
X0055949Y0040981D01*
X0056033Y0040956D01*
X0056122Y0040937D01*
X0056215Y0040922D01*
X0056314Y0040919D01*
X0056338D01*
X0056369Y0040922D01*
X0056410Y0040925D01*
X0056459Y0040931D01*
X0056515Y0040937D01*
X0056576Y0040950D01*
X0056644Y0040965D01*
X0056715Y0040987D01*
X0056790Y0041012D01*
X0056867Y0041043D01*
X0056941Y0041080D01*
X0057018Y0041120D01*
X0057089Y0041172D01*
X0057160Y0041231D01*
X0057225Y0041296D01*
X0057228Y0041299D01*
X0057241Y0041314D01*
X0057256Y0041336D01*
X0057278Y0041367D01*
X0057302Y0041404D01*
X0057330Y0041450D01*
X0057361Y0041506D01*
X0057392Y0041571D01*
X0057423Y0041642D01*
X0057454Y0041719D01*
X0057482Y0041806D01*
X0057507Y0041901D01*
X0057528Y0042004D01*
X0057543Y0042112D01*
X0057556Y0042229D01*
X0057559Y0042353D01*
Y0042356D01*
Y0042362D01*
Y0042371D01*
Y0042384D01*
Y0042399D01*
X0057556Y0042421D01*
X0057553Y0042467D01*
X0057550Y0042526D01*
X0057540Y0042594D01*
X0057531Y0042668D01*
X0057519Y0042748D01*
X0057500Y0042832D01*
X0057479Y0042921D01*
X0057454Y0043011D01*
X0057423Y0043100D01*
X0057386Y0043187D01*
X0057343Y0043273D01*
X0057293Y0043354D01*
X0057235Y0043428D01*
X0057231Y0043431D01*
X0057219Y0043443D01*
X0057200Y0043462D01*
X0057176Y0043487D01*
X0057142Y0043518D01*
X0057102Y0043549D01*
X0057055Y0043582D01*
X0057003Y0043619D01*
X0056941Y0043654D01*
X0056873Y0043687D01*
X0056802Y0043722D01*
X0056722Y0043749D01*
X0056635Y0043774D01*
X0056542Y0043793D01*
X0056447Y0043805D01*
X0056341Y0043808D01*
D02*
G37*
G36*
X0044352Y0042838D02*
X0044337D01*
X0044315Y0042835D01*
X0044287D01*
X0044256Y0042829D01*
X0044219Y0042825D01*
X0044176Y0042816D01*
X0044130Y0042804D01*
X0044083Y0042791D01*
X0044034Y0042773D01*
X0043982Y0042751D01*
X0043932Y0042726D01*
X0043880Y0042696D01*
X0043830Y0042662D01*
X0043784Y0042621D01*
X0043740Y0042575D01*
X0043737Y0042572D01*
X0043731Y0042563D01*
X0043719Y0042547D01*
X0043707Y0042526D01*
X0043688Y0042501D01*
X0043669Y0042467D01*
X0043648Y0042430D01*
X0043629Y0042387D01*
X0043608Y0042337D01*
X0043586Y0042282D01*
X0043567Y0042223D01*
X0043549Y0042158D01*
X0043537Y0042087D01*
X0043524Y0042013D01*
X0043518Y0041932D01*
X0043515Y0041849D01*
Y0041843D01*
Y0041830D01*
X0043518Y0041806D01*
Y0041775D01*
X0043521Y0041738D01*
X0043527Y0041695D01*
X0043534Y0041645D01*
X0043543Y0041592D01*
X0043555Y0041537D01*
X0043571Y0041481D01*
X0043589Y0041423D01*
X0043611Y0041364D01*
X0043635Y0041305D01*
X0043666Y0041249D01*
X0043700Y0041194D01*
X0043740Y0041144D01*
X0043744Y0041141D01*
X0043750Y0041132D01*
X0043765Y0041120D01*
X0043784Y0041104D01*
X0043805Y0041086D01*
X0043833Y0041064D01*
X0043867Y0041039D01*
X0043904Y0041018D01*
X0043944Y0040993D01*
X0043991Y0040968D01*
X0044040Y0040947D01*
X0044096Y0040928D01*
X0044155Y0040913D01*
X0044216Y0040900D01*
X0044281Y0040891D01*
X0044352Y0040888D01*
X0044371D01*
X0044389Y0040891D01*
X0044417D01*
X0044448Y0040897D01*
X0044485Y0040900D01*
X0044528Y0040910D01*
X0044575Y0040919D01*
X0044621Y0040931D01*
X0044671Y0040950D01*
X0044720Y0040968D01*
X0044769Y0040993D01*
X0044819Y0041021D01*
X0044865Y0041055D01*
X0044912Y0041095D01*
X0044952Y0041138D01*
X0044955Y0041141D01*
X0044961Y0041151D01*
X0044970Y0041166D01*
X0044986Y0041185D01*
X0045001Y0041212D01*
X0045020Y0041243D01*
X0045038Y0041280D01*
X0045057Y0041324D01*
X0045075Y0041373D01*
X0045097Y0041426D01*
X0045112Y0041484D01*
X0045128Y0041549D01*
X0045143Y0041617D01*
X0045153Y0041695D01*
X0045159Y0041775D01*
X0045162Y0041858D01*
Y0041864D01*
Y0041880D01*
Y0041905D01*
X0045159Y0041936D01*
X0045156Y0041976D01*
X0045149Y0042019D01*
X0045143Y0042071D01*
X0045137Y0042124D01*
X0045109Y0042241D01*
X0045094Y0042300D01*
X0045072Y0042362D01*
X0045051Y0042421D01*
X0045020Y0042476D01*
X0044989Y0042532D01*
X0044952Y0042581D01*
X0044949Y0042584D01*
X0044943Y0042594D01*
X0044930Y0042606D01*
X0044912Y0042621D01*
X0044890Y0042640D01*
X0044865Y0042662D01*
X0044834Y0042686D01*
X0044797Y0042711D01*
X0044757Y0042733D01*
X0044714Y0042757D01*
X0044664Y0042779D01*
X0044612Y0042798D01*
X0044553Y0042813D01*
X0044491Y0042825D01*
X0044423Y0042835D01*
X0044352Y0042838D01*
D02*
G37*
G36*
X0066106Y-0002093D02*
X0066091D01*
X0066072Y-0002096D01*
X0066044D01*
X0066013Y-0002102D01*
X0065979Y-0002108D01*
X0065939Y-0002115D01*
X0065896Y-0002127D01*
X0065850Y-0002139D01*
X0065803Y-0002158D01*
X0065757Y-0002180D01*
X0065707Y-0002207D01*
X0065661Y-0002238D01*
X0065615Y-0002272D01*
X0065568Y-0002316D01*
X0065528Y-0002362D01*
X0065525Y-0002365D01*
X0065519Y-0002374D01*
X0065510Y-0002390D01*
X0065494Y-0002411D01*
X0065479Y-0002439D01*
X0065463Y-0002473D01*
X0065442Y-0002510D01*
X0065423Y-0002557D01*
X0065404Y-0002606D01*
X0065386Y-0002662D01*
X0065367Y-0002723D01*
X0065352Y-0002788D01*
X0065337Y-0002862D01*
X0065327Y-0002937D01*
X0065321Y-0003020D01*
X0065318Y-0003107D01*
Y-0003113D01*
Y-0003125D01*
Y-0003150D01*
X0065321Y-0003178D01*
X0065324Y-0003215D01*
X0065327Y-0003258D01*
X0065333Y-0003304D01*
X0065343Y-0003357D01*
X0065367Y-0003465D01*
X0065383Y-0003524D01*
X0065401Y-0003579D01*
X0065426Y-0003635D01*
X0065454Y-0003691D01*
X0065485Y-0003743D01*
X0065519Y-0003793D01*
X0065522Y-0003796D01*
X0065528Y-0003802D01*
X0065540Y-0003814D01*
X0065556Y-0003833D01*
X0065578Y-0003851D01*
X0065602Y-0003873D01*
X0065630Y-0003895D01*
X0065664Y-0003916D01*
X0065701Y-0003941D01*
X0065741Y-0003963D01*
X0065785Y-0003984D01*
X0065834Y-0004003D01*
X0065886Y-0004018D01*
X0065942Y-0004030D01*
X0066001Y-0004040D01*
X0066063Y-0004043D01*
X0066078D01*
X0066097Y-0004040D01*
X0066118D01*
X0066146Y-0004037D01*
X0066180Y-0004030D01*
X0066217Y-0004021D01*
X0066257Y-0004012D01*
X0066301Y-0004000D01*
X0066344Y-0003984D01*
X0066390Y-0003966D01*
X0066434Y-0003941D01*
X0066480Y-0003913D01*
X0066523Y-0003882D01*
X0066566Y-0003845D01*
X0066606Y-0003802D01*
X0066610Y-0003799D01*
X0066616Y-0003789D01*
X0066625Y-0003777D01*
X0066641Y-0003759D01*
X0066656Y-0003734D01*
X0066675Y-0003706D01*
X0066693Y-0003672D01*
X0066712Y-0003632D01*
X0066730Y-0003592D01*
X0066752Y-0003545D01*
X0066767Y-0003493D01*
X0066783Y-0003440D01*
X0066798Y-0003382D01*
X0066807Y-0003320D01*
X0066813Y-0003255D01*
X0066817Y-0003187D01*
Y-0002819D01*
Y-0002816D01*
Y-0002807D01*
Y-0002788D01*
X0066813Y-0002767D01*
X0066811Y-0002742D01*
X0066807Y-0002711D01*
X0066801Y-0002677D01*
X0066792Y-0002640D01*
X0066767Y-0002560D01*
X0066752Y-0002516D01*
X0066733Y-0002473D01*
X0066708Y-0002430D01*
X0066681Y-0002387D01*
X0066650Y-0002343D01*
X0066616Y-0002303D01*
X0066613Y-0002300D01*
X0066606Y-0002294D01*
X0066594Y-0002285D01*
X0066579Y-0002269D01*
X0066560Y-0002254D01*
X0066535Y-0002235D01*
X0066508Y-0002217D01*
X0066477Y-0002198D01*
X0066443Y-0002180D01*
X0066403Y-0002158D01*
X0066362Y-0002142D01*
X0066316Y-0002127D01*
X0066267Y-0002112D01*
X0066217Y-0002102D01*
X0066162Y-0002096D01*
X0066106Y-0002093D01*
D02*
G37*
G36*
X0041398Y-0001182D02*
X0040864D01*
Y-0002316D01*
X0041318D01*
X0041340Y-0002312D01*
X0041367Y-0002309D01*
X0041401Y-0002306D01*
X0041438Y-0002303D01*
X0041479Y-0002294D01*
X0041562Y-0002275D01*
X0041652Y-0002248D01*
X0041695Y-0002229D01*
X0041738Y-0002207D01*
X0041778Y-0002183D01*
X0041815Y-0002155D01*
X0041818Y-0002152D01*
X0041825Y-0002149D01*
X0041834Y-0002136D01*
X0041846Y-0002124D01*
X0041862Y-0002108D01*
X0041877Y-0002087D01*
X0041896Y-0002062D01*
X0041914Y-0002034D01*
X0041930Y-0002003D01*
X0041948Y-0001969D01*
X0041964Y-0001932D01*
X0041979Y-0001892D01*
X0041992Y-0001846D01*
X0042001Y-0001799D01*
X0042007Y-0001747D01*
X0042010Y-0001694D01*
Y-0001688D01*
Y-0001673D01*
X0042007Y-0001648D01*
X0042001Y-0001614D01*
X0041989Y-0001574D01*
X0041976Y-0001531D01*
X0041954Y-0001484D01*
X0041927Y-0001438D01*
X0041890Y-0001388D01*
X0041846Y-0001342D01*
X0041791Y-0001299D01*
X0041726Y-0001262D01*
X0041689Y-0001243D01*
X0041649Y-0001228D01*
X0041605Y-0001216D01*
X0041559Y-0001203D01*
X0041510Y-0001194D01*
X0041454Y-0001188D01*
X0041398Y-0001182D01*
D02*
G37*
G36*
X0041337Y-0002686D02*
X0040864D01*
Y-0003950D01*
X0041457D01*
X0041482Y-0003947D01*
X0041513Y-0003944D01*
X0041547Y-0003941D01*
X0041587Y-0003935D01*
X0041630Y-0003929D01*
X0041720Y-0003910D01*
X0041812Y-0003879D01*
X0041859Y-0003857D01*
X0041902Y-0003836D01*
X0041942Y-0003811D01*
X0041982Y-0003780D01*
X0041985Y-0003777D01*
X0041992Y-0003771D01*
X0042001Y-0003762D01*
X0042013Y-0003749D01*
X0042029Y-0003731D01*
X0042047Y-0003709D01*
X0042063Y-0003684D01*
X0042084Y-0003657D01*
X0042103Y-0003623D01*
X0042118Y-0003589D01*
X0042137Y-0003548D01*
X0042152Y-0003508D01*
X0042165Y-0003462D01*
X0042174Y-0003413D01*
X0042180Y-0003363D01*
X0042183Y-0003307D01*
Y-0003304D01*
Y-0003301D01*
Y-0003292D01*
X0042180Y-0003280D01*
X0042177Y-0003249D01*
X0042171Y-0003212D01*
X0042158Y-0003162D01*
X0042140Y-0003110D01*
X0042112Y-0003054D01*
X0042078Y-0002995D01*
X0042032Y-0002940D01*
X0042007Y-0002912D01*
X0041976Y-0002884D01*
X0041945Y-0002856D01*
X0041908Y-0002832D01*
X0041868Y-0002807D01*
X0041825Y-0002782D01*
X0041778Y-0002764D01*
X0041729Y-0002745D01*
X0041673Y-0002726D01*
X0041615Y-0002714D01*
X0041553Y-0002702D01*
X0041485Y-0002692D01*
X0041414Y-0002689D01*
X0041337Y-0002686D01*
D02*
G37*
G36*
X0078015Y-0002093D02*
X0077987D01*
X0077968Y-0002096D01*
X0077944Y-0002099D01*
X0077913Y-0002102D01*
X0077882Y-0002108D01*
X0077848Y-0002118D01*
X0077771Y-0002142D01*
X0077731Y-0002158D01*
X0077690Y-0002180D01*
X0077650Y-0002201D01*
X0077607Y-0002229D01*
X0077570Y-0002260D01*
X0077530Y-0002297D01*
X0077527Y-0002300D01*
X0077520Y-0002306D01*
X0077511Y-0002319D01*
X0077499Y-0002334D01*
X0077483Y-0002356D01*
X0077465Y-0002377D01*
X0077446Y-0002408D01*
X0077425Y-0002439D01*
X0077403Y-0002476D01*
X0077384Y-0002516D01*
X0077363Y-0002560D01*
X0077344Y-0002606D01*
X0077326Y-0002658D01*
X0077310Y-0002711D01*
X0077295Y-0002770D01*
X0077286Y-0002829D01*
X0078642D01*
Y-0002825D01*
Y-0002813D01*
Y-0002795D01*
X0078639Y-0002770D01*
X0078636Y-0002742D01*
X0078633Y-0002708D01*
X0078627Y-0002671D01*
X0078620Y-0002631D01*
X0078599Y-0002544D01*
X0078568Y-0002451D01*
X0078549Y-0002408D01*
X0078528Y-0002365D01*
X0078503Y-0002325D01*
X0078472Y-0002288D01*
X0078469Y-0002285D01*
X0078466Y-0002278D01*
X0078457Y-0002269D01*
X0078441Y-0002257D01*
X0078426Y-0002241D01*
X0078404Y-0002226D01*
X0078382Y-0002207D01*
X0078355Y-0002189D01*
X0078324Y-0002173D01*
X0078290Y-0002155D01*
X0078250Y-0002139D01*
X0078210Y-0002124D01*
X0078166Y-0002112D01*
X0078120Y-0002102D01*
X0078067Y-0002096D01*
X0078015Y-0002093D01*
D02*
G37*
G36*
X0069011D02*
X0068983D01*
X0068964Y-0002096D01*
X0068940Y-0002099D01*
X0068909Y-0002102D01*
X0068878Y-0002108D01*
X0068844Y-0002118D01*
X0068766Y-0002142D01*
X0068726Y-0002158D01*
X0068686Y-0002180D01*
X0068646Y-0002201D01*
X0068603Y-0002229D01*
X0068566Y-0002260D01*
X0068525Y-0002297D01*
X0068522Y-0002300D01*
X0068516Y-0002306D01*
X0068507Y-0002319D01*
X0068494Y-0002334D01*
X0068479Y-0002356D01*
X0068461Y-0002377D01*
X0068442Y-0002408D01*
X0068420Y-0002439D01*
X0068399Y-0002476D01*
X0068380Y-0002516D01*
X0068358Y-0002560D01*
X0068340Y-0002606D01*
X0068322Y-0002658D01*
X0068306Y-0002711D01*
X0068291Y-0002770D01*
X0068281Y-0002829D01*
X0069638D01*
Y-0002825D01*
Y-0002813D01*
Y-0002795D01*
X0069635Y-0002770D01*
X0069632Y-0002742D01*
X0069629Y-0002708D01*
X0069622Y-0002671D01*
X0069616Y-0002631D01*
X0069595Y-0002544D01*
X0069564Y-0002451D01*
X0069545Y-0002408D01*
X0069524Y-0002365D01*
X0069499Y-0002325D01*
X0069468Y-0002288D01*
X0069465Y-0002285D01*
X0069462Y-0002278D01*
X0069452Y-0002269D01*
X0069437Y-0002257D01*
X0069421Y-0002241D01*
X0069400Y-0002226D01*
X0069378Y-0002207D01*
X0069350Y-0002189D01*
X0069319Y-0002173D01*
X0069286Y-0002155D01*
X0069245Y-0002139D01*
X0069205Y-0002124D01*
X0069162Y-0002112D01*
X0069116Y-0002102D01*
X0069063Y-0002096D01*
X0069011Y-0002093D01*
D02*
G37*
G36*
X0061999D02*
X0061984D01*
X0061962Y-0002096D01*
X0061934D01*
X0061904Y-0002102D01*
X0061866Y-0002105D01*
X0061823Y-0002115D01*
X0061777Y-0002127D01*
X0061730Y-0002139D01*
X0061681Y-0002158D01*
X0061629Y-0002180D01*
X0061579Y-0002204D01*
X0061527Y-0002235D01*
X0061477Y-0002269D01*
X0061431Y-0002309D01*
X0061387Y-0002356D01*
X0061384Y-0002359D01*
X0061378Y-0002368D01*
X0061366Y-0002383D01*
X0061353Y-0002405D01*
X0061335Y-0002430D01*
X0061316Y-0002464D01*
X0061295Y-0002501D01*
X0061276Y-0002544D01*
X0061255Y-0002594D01*
X0061233Y-0002649D01*
X0061215Y-0002708D01*
X0061196Y-0002773D01*
X0061184Y-0002844D01*
X0061171Y-0002918D01*
X0061165Y-0002998D01*
X0061162Y-0003082D01*
Y-0003088D01*
Y-0003100D01*
X0061165Y-0003125D01*
Y-0003156D01*
X0061168Y-0003193D01*
X0061174Y-0003236D01*
X0061181Y-0003286D01*
X0061190Y-0003338D01*
X0061202Y-0003394D01*
X0061218Y-0003449D01*
X0061236Y-0003508D01*
X0061258Y-0003567D01*
X0061282Y-0003626D01*
X0061313Y-0003681D01*
X0061347Y-0003737D01*
X0061387Y-0003786D01*
X0061391Y-0003789D01*
X0061397Y-0003799D01*
X0061412Y-0003811D01*
X0061431Y-0003827D01*
X0061452Y-0003845D01*
X0061480Y-0003867D01*
X0061514Y-0003891D01*
X0061551Y-0003913D01*
X0061591Y-0003938D01*
X0061638Y-0003963D01*
X0061687Y-0003984D01*
X0061743Y-0004003D01*
X0061802Y-0004018D01*
X0061863Y-0004030D01*
X0061928Y-0004040D01*
X0061999Y-0004043D01*
X0062018D01*
X0062036Y-0004040D01*
X0062064D01*
X0062095Y-0004034D01*
X0062132Y-0004030D01*
X0062176Y-0004021D01*
X0062222Y-0004012D01*
X0062268Y-0004000D01*
X0062318Y-0003981D01*
X0062367Y-0003963D01*
X0062416Y-0003938D01*
X0062466Y-0003910D01*
X0062512Y-0003876D01*
X0062559Y-0003836D01*
X0062599Y-0003793D01*
X0062602Y-0003789D01*
X0062608Y-0003780D01*
X0062617Y-0003765D01*
X0062633Y-0003746D01*
X0062648Y-0003718D01*
X0062667Y-0003687D01*
X0062685Y-0003650D01*
X0062704Y-0003607D01*
X0062722Y-0003558D01*
X0062744Y-0003505D01*
X0062760Y-0003447D01*
X0062775Y-0003382D01*
X0062790Y-0003314D01*
X0062800Y-0003236D01*
X0062806Y-0003156D01*
X0062809Y-0003073D01*
Y-0003066D01*
Y-0003051D01*
Y-0003026D01*
X0062806Y-0002995D01*
X0062803Y-0002955D01*
X0062796Y-0002912D01*
X0062790Y-0002859D01*
X0062784Y-0002807D01*
X0062756Y-0002689D01*
X0062741Y-0002631D01*
X0062719Y-0002569D01*
X0062698Y-0002510D01*
X0062667Y-0002455D01*
X0062636Y-0002399D01*
X0062599Y-0002349D01*
X0062596Y-0002346D01*
X0062590Y-0002337D01*
X0062577Y-0002325D01*
X0062559Y-0002309D01*
X0062537Y-0002291D01*
X0062512Y-0002269D01*
X0062481Y-0002244D01*
X0062444Y-0002220D01*
X0062404Y-0002198D01*
X0062361Y-0002173D01*
X0062311Y-0002152D01*
X0062259Y-0002133D01*
X0062200Y-0002118D01*
X0062138Y-0002105D01*
X0062070Y-0002096D01*
X0061999Y-0002093D01*
D02*
G37*
G36*
X0050693D02*
X0050678D01*
X0050656Y-0002096D01*
X0050628D01*
X0050597Y-0002102D01*
X0050560Y-0002105D01*
X0050517Y-0002115D01*
X0050471Y-0002127D01*
X0050424Y-0002139D01*
X0050375Y-0002158D01*
X0050322Y-0002180D01*
X0050273Y-0002204D01*
X0050220Y-0002235D01*
X0050171Y-0002269D01*
X0050125Y-0002309D01*
X0050081Y-0002356D01*
X0050078Y-0002359D01*
X0050072Y-0002368D01*
X0050060Y-0002383D01*
X0050047Y-0002405D01*
X0050029Y-0002430D01*
X0050010Y-0002464D01*
X0049988Y-0002501D01*
X0049970Y-0002544D01*
X0049948Y-0002594D01*
X0049927Y-0002649D01*
X0049908Y-0002708D01*
X0049890Y-0002773D01*
X0049877Y-0002844D01*
X0049865Y-0002918D01*
X0049859Y-0002998D01*
X0049856Y-0003082D01*
Y-0003088D01*
Y-0003100D01*
X0049859Y-0003125D01*
Y-0003156D01*
X0049862Y-0003193D01*
X0049868Y-0003236D01*
X0049874Y-0003286D01*
X0049883Y-0003338D01*
X0049896Y-0003394D01*
X0049911Y-0003449D01*
X0049930Y-0003508D01*
X0049951Y-0003567D01*
X0049976Y-0003626D01*
X0050007Y-0003681D01*
X0050041Y-0003737D01*
X0050081Y-0003786D01*
X0050084Y-0003789D01*
X0050090Y-0003799D01*
X0050106Y-0003811D01*
X0050125Y-0003827D01*
X0050146Y-0003845D01*
X0050174Y-0003867D01*
X0050208Y-0003891D01*
X0050245Y-0003913D01*
X0050285Y-0003938D01*
X0050331Y-0003963D01*
X0050381Y-0003984D01*
X0050437Y-0004003D01*
X0050495Y-0004018D01*
X0050557Y-0004030D01*
X0050622Y-0004040D01*
X0050693Y-0004043D01*
X0050712D01*
X0050730Y-0004040D01*
X0050758D01*
X0050789Y-0004034D01*
X0050826Y-0004030D01*
X0050869Y-0004021D01*
X0050915Y-0004012D01*
X0050962Y-0004000D01*
X0051011Y-0003981D01*
X0051061Y-0003963D01*
X0051110Y-0003938D01*
X0051160Y-0003910D01*
X0051206Y-0003876D01*
X0051252Y-0003836D01*
X0051293Y-0003793D01*
X0051296Y-0003789D01*
X0051302Y-0003780D01*
X0051311Y-0003765D01*
X0051327Y-0003746D01*
X0051342Y-0003718D01*
X0051360Y-0003687D01*
X0051379Y-0003650D01*
X0051398Y-0003607D01*
X0051416Y-0003558D01*
X0051438Y-0003505D01*
X0051453Y-0003447D01*
X0051469Y-0003382D01*
X0051484Y-0003314D01*
X0051493Y-0003236D01*
X0051499Y-0003156D01*
X0051503Y-0003073D01*
Y-0003066D01*
Y-0003051D01*
Y-0003026D01*
X0051499Y-0002995D01*
X0051496Y-0002955D01*
X0051490Y-0002912D01*
X0051484Y-0002859D01*
X0051478Y-0002807D01*
X0051450Y-0002689D01*
X0051435Y-0002631D01*
X0051413Y-0002569D01*
X0051391Y-0002510D01*
X0051360Y-0002455D01*
X0051329Y-0002399D01*
X0051293Y-0002349D01*
X0051289Y-0002346D01*
X0051283Y-0002337D01*
X0051271Y-0002325D01*
X0051252Y-0002309D01*
X0051231Y-0002291D01*
X0051206Y-0002269D01*
X0051175Y-0002244D01*
X0051138Y-0002220D01*
X0051098Y-0002198D01*
X0051055Y-0002173D01*
X0051005Y-0002152D01*
X0050953Y-0002133D01*
X0050894Y-0002118D01*
X0050832Y-0002105D01*
X0050764Y-0002096D01*
X0050693Y-0002093D01*
D02*
G37*
G36*
X0044352D02*
X0044337D01*
X0044315Y-0002096D01*
X0044287D01*
X0044256Y-0002102D01*
X0044219Y-0002105D01*
X0044176Y-0002115D01*
X0044130Y-0002127D01*
X0044083Y-0002139D01*
X0044034Y-0002158D01*
X0043982Y-0002180D01*
X0043932Y-0002204D01*
X0043880Y-0002235D01*
X0043830Y-0002269D01*
X0043784Y-0002309D01*
X0043740Y-0002356D01*
X0043737Y-0002359D01*
X0043731Y-0002368D01*
X0043719Y-0002383D01*
X0043707Y-0002405D01*
X0043688Y-0002430D01*
X0043669Y-0002464D01*
X0043648Y-0002501D01*
X0043629Y-0002544D01*
X0043608Y-0002594D01*
X0043586Y-0002649D01*
X0043567Y-0002708D01*
X0043549Y-0002773D01*
X0043537Y-0002844D01*
X0043524Y-0002918D01*
X0043518Y-0002998D01*
X0043515Y-0003082D01*
Y-0003088D01*
Y-0003100D01*
X0043518Y-0003125D01*
Y-0003156D01*
X0043521Y-0003193D01*
X0043527Y-0003236D01*
X0043534Y-0003286D01*
X0043543Y-0003338D01*
X0043555Y-0003394D01*
X0043571Y-0003449D01*
X0043589Y-0003508D01*
X0043611Y-0003567D01*
X0043635Y-0003626D01*
X0043666Y-0003681D01*
X0043700Y-0003737D01*
X0043740Y-0003786D01*
X0043744Y-0003789D01*
X0043750Y-0003799D01*
X0043765Y-0003811D01*
X0043784Y-0003827D01*
X0043805Y-0003845D01*
X0043833Y-0003867D01*
X0043867Y-0003891D01*
X0043904Y-0003913D01*
X0043944Y-0003938D01*
X0043991Y-0003963D01*
X0044040Y-0003984D01*
X0044096Y-0004003D01*
X0044155Y-0004018D01*
X0044216Y-0004030D01*
X0044281Y-0004040D01*
X0044352Y-0004043D01*
X0044371D01*
X0044389Y-0004040D01*
X0044417D01*
X0044448Y-0004034D01*
X0044485Y-0004030D01*
X0044528Y-0004021D01*
X0044575Y-0004012D01*
X0044621Y-0004000D01*
X0044671Y-0003981D01*
X0044720Y-0003963D01*
X0044769Y-0003938D01*
X0044819Y-0003910D01*
X0044865Y-0003876D01*
X0044912Y-0003836D01*
X0044952Y-0003793D01*
X0044955Y-0003789D01*
X0044961Y-0003780D01*
X0044970Y-0003765D01*
X0044986Y-0003746D01*
X0045001Y-0003718D01*
X0045020Y-0003687D01*
X0045038Y-0003650D01*
X0045057Y-0003607D01*
X0045075Y-0003558D01*
X0045097Y-0003505D01*
X0045112Y-0003447D01*
X0045128Y-0003382D01*
X0045143Y-0003314D01*
X0045153Y-0003236D01*
X0045159Y-0003156D01*
X0045162Y-0003073D01*
Y-0003066D01*
Y-0003051D01*
Y-0003026D01*
X0045159Y-0002995D01*
X0045156Y-0002955D01*
X0045149Y-0002912D01*
X0045143Y-0002859D01*
X0045137Y-0002807D01*
X0045109Y-0002689D01*
X0045094Y-0002631D01*
X0045072Y-0002569D01*
X0045051Y-0002510D01*
X0045020Y-0002455D01*
X0044989Y-0002399D01*
X0044952Y-0002349D01*
X0044949Y-0002346D01*
X0044943Y-0002337D01*
X0044930Y-0002325D01*
X0044912Y-0002309D01*
X0044890Y-0002291D01*
X0044865Y-0002269D01*
X0044834Y-0002244D01*
X0044797Y-0002220D01*
X0044757Y-0002198D01*
X0044714Y-0002173D01*
X0044664Y-0002152D01*
X0044612Y-0002133D01*
X0044553Y-0002118D01*
X0044491Y-0002105D01*
X0044423Y-0002096D01*
X0044352Y-0002093D01*
D02*
G37*
%LPD*%
D12*
X0020547Y-0011458D02*
G03*
X0020547Y0011852I-0020547J0011655D01*
G01*
X0020547Y-0011458D02*
G03*
X0022543Y-0017070I0003424J-0001942D01*
G01*
X-0011932Y0026177D02*
G03*
X-0022542Y0017466I-0007753J-0001374D01*
G01*
X-0011931Y0026178D02*
G03*
X-0006954Y0023176I0003861J0000772D01*
G01*
X0006947Y0023176D02*
G03*
X-0006947Y0023176I-0006947J-0022979D01*
G01*
X0022543Y0017463D02*
G03*
X0020547Y0011852I0001428J-0003669D01*
G01*
X-0020547D02*
G03*
X-0022543Y0017463I-0003424J0001942D01*
G01*
X0006953Y0023176D02*
G03*
X0011931Y0026178I0001117J0003775D01*
G01*
X0022542Y0017466D02*
G03*
X0011932Y0026177I-0002857J0007338D01*
G01*
X-0022543Y-0017070D02*
G03*
X-0020547Y-0011458I-0001428J0003669D01*
G01*
X-0020547Y0011852D02*
G03*
X-0020547Y-0011458I0020547J-0011655D01*
G01*
X0016811Y-0032283D02*
G03*
X0012874Y-0036220I0000001J-0003938D01*
G01*
X0009724Y-0055315D02*
G03*
X0012874Y-0052165I0000004J0003145D01*
G01*
X-0022543Y-0017070D02*
G03*
X-0019488Y-0032283I0002857J-0007340D01*
G01*
X0019488D02*
G03*
X0022543Y-0017070I0000197J0007874D01*
G01*
X-0012874Y-0052165D02*
G03*
X-0009724Y-0055315I0003145J-0000004D01*
G01*
X-0012874Y-0036220D02*
G03*
X-0016811Y-0032283I-0003938J-0000001D01*
G01*
X0012874Y-0052165D02*
Y-0036220D01*
X-0009724Y-0055315D02*
X0009724D01*
X-0019488Y-0032283D02*
X-0016811D01*
X0016811D02*
X0019488D01*
X-0012874Y-0052165D02*
Y-0036220D01*
D31*
X0014685Y0010531D02*
D03*
X-0005315D02*
D03*
X0004685D02*
D03*
D32*
X-0015315D02*
D03*
D33*
X-0009921Y-0042717D02*
D03*
X0009921D02*
D03*
D35*
X-0019685Y0024606D02*
D03*
X0019685D02*
D03*
X-0019685Y-0024606D02*
D03*
X0019685D02*
D03*
D44*
X-0005000Y-0045768D02*
D03*
X0000000D02*
D03*
D45*
X0005000Y-0044783D02*
D03*
D47*
Y-0034449D02*
D03*
X0000000D02*
D03*
X-0005000D02*
D03*
M02*
