G04*
G04 #@! TF.GenerationSoftware,Altium Limited,Altium Designer,21.9.2 (33)*
G04*
G04 Layer_Color=8388736*
%FSLAX44Y44*%
%MOMM*%
G71*
G04*
G04 #@! TF.SameCoordinates,2EA8CFF5-2370-4CCC-882B-FB9061A37F0A*
G04*
G04*
G04 #@! TF.FilePolarity,Positive*
G04*
G01*
G75*
%ADD12C,0.2000*%
G36*
X564991Y274449D02*
X565054Y274449D01*
X565195Y274386D01*
X565274Y274339D01*
X565353Y274276D01*
X565368Y274261D01*
X565384Y274245D01*
X565463Y274151D01*
X565526Y273993D01*
X565541Y273899D01*
X565557Y273805D01*
X565557Y273789D01*
X565557Y273757D01*
X565541Y273710D01*
X565526Y273647D01*
X565478Y273490D01*
X565416Y273412D01*
X565353Y273333D01*
X565337Y273333D01*
X565321Y273302D01*
X565227Y273239D01*
X565085Y273176D01*
X564991Y273160D01*
X564897Y273144D01*
X564850Y273144D01*
X564802Y273160D01*
X564739Y273160D01*
X564582Y273223D01*
X564504Y273254D01*
X564425Y273317D01*
X564425Y273333D01*
X564394Y273349D01*
X564362Y273396D01*
X564331Y273443D01*
X564268Y273600D01*
X564252Y273694D01*
X564236Y273805D01*
X564236Y273820D01*
X564236Y273852D01*
X564252Y273899D01*
X564268Y273978D01*
X564315Y274119D01*
X564362Y274198D01*
X564425Y274276D01*
X564441Y274292D01*
X564456Y274308D01*
X564551Y274371D01*
X564708Y274433D01*
X564802Y274465D01*
X564944Y274465D01*
X564991Y274449D01*
X564991Y274449D02*
G37*
G36*
X669520Y272564D02*
X669646Y272564D01*
X669945Y272533D01*
X670275Y272486D01*
X670637Y272423D01*
X670983Y272328D01*
X671313Y272203D01*
X671313Y271086D01*
X671297Y271086D01*
X671265Y271102D01*
X671218Y271133D01*
X671140Y271165D01*
X671061Y271212D01*
X670951Y271259D01*
X670825Y271306D01*
X670684Y271354D01*
X670369Y271448D01*
X670008Y271542D01*
X669615Y271605D01*
X669190Y271621D01*
X669049Y271621D01*
X668939Y271605D01*
X668797Y271590D01*
X668655Y271574D01*
X668483Y271542D01*
X668294Y271495D01*
X667901Y271369D01*
X667696Y271291D01*
X667492Y271181D01*
X667272Y271071D01*
X667067Y270929D01*
X666879Y270772D01*
X666690Y270583D01*
X666674Y270567D01*
X666643Y270536D01*
X666596Y270473D01*
X666549Y270395D01*
X666470Y270300D01*
X666392Y270174D01*
X666313Y270017D01*
X666218Y269860D01*
X666124Y269671D01*
X666046Y269467D01*
X665967Y269247D01*
X665888Y268995D01*
X665841Y268744D01*
X665794Y268461D01*
X665762Y268162D01*
X665747Y267847D01*
X665747Y267832D01*
X665747Y267769D01*
X665747Y267690D01*
X665762Y267580D01*
X665778Y267439D01*
X665794Y267281D01*
X665825Y267108D01*
X665857Y266904D01*
X665967Y266495D01*
X666124Y266055D01*
X666218Y265835D01*
X666344Y265631D01*
X666470Y265426D01*
X666627Y265238D01*
X666643Y265222D01*
X666674Y265190D01*
X666722Y265143D01*
X666785Y265096D01*
X666879Y265017D01*
X666989Y264939D01*
X667115Y264844D01*
X667256Y264766D01*
X667413Y264671D01*
X667602Y264577D01*
X667791Y264499D01*
X667995Y264436D01*
X668231Y264373D01*
X668467Y264326D01*
X668718Y264294D01*
X668986Y264279D01*
X669111Y264279D01*
X669206Y264294D01*
X669332Y264294D01*
X669457Y264310D01*
X669615Y264326D01*
X669772Y264357D01*
X670149Y264420D01*
X670527Y264530D01*
X670935Y264671D01*
X671313Y264876D01*
X671313Y263854D01*
X671297Y263854D01*
X671265Y263838D01*
X671218Y263807D01*
X671140Y263775D01*
X671045Y263744D01*
X670920Y263697D01*
X670794Y263650D01*
X670637Y263602D01*
X670464Y263555D01*
X670275Y263508D01*
X670070Y263461D01*
X669850Y263429D01*
X669379Y263367D01*
X668844Y263351D01*
X668766Y263351D01*
X668655Y263367D01*
X668530Y263367D01*
X668372Y263382D01*
X668184Y263414D01*
X667979Y263445D01*
X667744Y263508D01*
X667508Y263571D01*
X667256Y263650D01*
X667005Y263744D01*
X666753Y263870D01*
X666501Y263995D01*
X666250Y264168D01*
X666014Y264341D01*
X665794Y264562D01*
X665778Y264577D01*
X665747Y264624D01*
X665684Y264687D01*
X665621Y264782D01*
X665527Y264907D01*
X665432Y265049D01*
X665322Y265222D01*
X665228Y265426D01*
X665118Y265646D01*
X665008Y265882D01*
X664913Y266150D01*
X664819Y266432D01*
X664756Y266747D01*
X664693Y267077D01*
X664662Y267423D01*
X664646Y267785D01*
X664646Y267816D01*
X664646Y267879D01*
X664662Y267989D01*
X664662Y268146D01*
X664693Y268319D01*
X664709Y268524D01*
X664756Y268759D01*
X664803Y269027D01*
X664882Y269294D01*
X664961Y269577D01*
X665071Y269860D01*
X665197Y270143D01*
X665338Y270442D01*
X665511Y270709D01*
X665715Y270992D01*
X665936Y271244D01*
X665951Y271259D01*
X665998Y271306D01*
X666061Y271369D01*
X666171Y271448D01*
X666297Y271558D01*
X666454Y271668D01*
X666627Y271794D01*
X666832Y271920D01*
X667052Y272030D01*
X667303Y272155D01*
X667571Y272265D01*
X667854Y272376D01*
X668168Y272454D01*
X668498Y272517D01*
X668844Y272564D01*
X669206Y272580D01*
X669426Y272580D01*
X669520Y272564D01*
X669520Y272564D02*
G37*
G36*
X534536Y265141D02*
X533514Y265141D01*
X533514Y266211D01*
X533483Y266211D01*
X533483Y266195D01*
X533451Y266163D01*
X533404Y266101D01*
X533357Y266022D01*
X533279Y265928D01*
X533184Y265833D01*
X533074Y265723D01*
X532948Y265613D01*
X532807Y265487D01*
X532634Y265377D01*
X532461Y265283D01*
X532257Y265189D01*
X532052Y265110D01*
X531816Y265047D01*
X531565Y265016D01*
X531297Y265000D01*
X531188Y265000D01*
X531093Y265016D01*
X530999Y265031D01*
X530873Y265047D01*
X530606Y265110D01*
X530291Y265204D01*
X529977Y265361D01*
X529804Y265456D01*
X529662Y265566D01*
X529505Y265707D01*
X529364Y265849D01*
X529364Y265865D01*
X529332Y265896D01*
X529301Y265943D01*
X529254Y266006D01*
X529206Y266085D01*
X529143Y266195D01*
X529081Y266321D01*
X529018Y266462D01*
X528939Y266619D01*
X528876Y266792D01*
X528813Y266981D01*
X528766Y267185D01*
X528719Y267405D01*
X528688Y267657D01*
X528672Y267909D01*
X528656Y268176D01*
X528656Y268192D01*
X528656Y268239D01*
X528656Y268333D01*
X528672Y268443D01*
X528688Y268569D01*
X528703Y268726D01*
X528719Y268899D01*
X528750Y269088D01*
X528845Y269497D01*
X528986Y269921D01*
X529081Y270126D01*
X529191Y270330D01*
X529301Y270519D01*
X529442Y270707D01*
X529458Y270723D01*
X529474Y270754D01*
X529521Y270802D01*
X529584Y270865D01*
X529662Y270927D01*
X529772Y271006D01*
X529883Y271100D01*
X530008Y271195D01*
X530323Y271368D01*
X530684Y271525D01*
X530889Y271572D01*
X531109Y271619D01*
X531329Y271651D01*
X531581Y271666D01*
X531706Y271666D01*
X531801Y271651D01*
X531895Y271635D01*
X532021Y271619D01*
X532304Y271541D01*
X532618Y271415D01*
X532775Y271336D01*
X532933Y271226D01*
X533090Y271116D01*
X533231Y270975D01*
X533357Y270817D01*
X533483Y270629D01*
X533514Y270629D01*
X533514Y274591D01*
X534536Y274591D01*
X534536Y265141D01*
X534536Y265141D02*
G37*
G36*
X570777Y271651D02*
X570966Y271635D01*
X571202Y271588D01*
X571453Y271509D01*
X571720Y271383D01*
X571988Y271210D01*
X572098Y271116D01*
X572208Y270990D01*
X572239Y270959D01*
X572302Y270865D01*
X572381Y270707D01*
X572491Y270487D01*
X572585Y270220D01*
X572679Y269890D01*
X572742Y269497D01*
X572758Y269041D01*
X572758Y265141D01*
X571736Y265141D01*
X571736Y268773D01*
X571736Y268789D01*
X571736Y268868D01*
X571720Y268962D01*
X571720Y269088D01*
X571689Y269245D01*
X571657Y269418D01*
X571610Y269607D01*
X571547Y269795D01*
X571469Y269984D01*
X571374Y270157D01*
X571249Y270330D01*
X571107Y270487D01*
X570950Y270613D01*
X570746Y270707D01*
X570525Y270786D01*
X570258Y270802D01*
X570227Y270802D01*
X570132Y270786D01*
X569991Y270770D01*
X569818Y270723D01*
X569613Y270660D01*
X569393Y270550D01*
X569189Y270408D01*
X568985Y270220D01*
X568969Y270188D01*
X568906Y270126D01*
X568827Y270000D01*
X568733Y269827D01*
X568639Y269622D01*
X568560Y269371D01*
X568497Y269088D01*
X568481Y268773D01*
X568481Y265141D01*
X567459Y265141D01*
X567459Y271525D01*
X568481Y271525D01*
X568481Y270456D01*
X568513Y270456D01*
X568529Y270471D01*
X568544Y270503D01*
X568591Y270566D01*
X568654Y270644D01*
X568717Y270739D01*
X568812Y270833D01*
X568922Y270943D01*
X569048Y271069D01*
X569189Y271179D01*
X569346Y271289D01*
X569519Y271383D01*
X569708Y271478D01*
X569897Y271556D01*
X570117Y271619D01*
X570353Y271651D01*
X570604Y271666D01*
X570698Y271666D01*
X570777Y271651D01*
X570777Y271651D02*
G37*
G36*
X527603Y271619D02*
X527791Y271603D01*
X527901Y271572D01*
X527980Y271541D01*
X527980Y270487D01*
X527964Y270503D01*
X527933Y270519D01*
X527870Y270550D01*
X527791Y270597D01*
X527681Y270629D01*
X527540Y270660D01*
X527383Y270676D01*
X527210Y270692D01*
X527178Y270692D01*
X527100Y270676D01*
X526974Y270660D01*
X526832Y270613D01*
X526644Y270534D01*
X526471Y270424D01*
X526282Y270267D01*
X526109Y270063D01*
X526093Y270031D01*
X526046Y269953D01*
X525968Y269811D01*
X525889Y269622D01*
X525810Y269387D01*
X525732Y269088D01*
X525685Y268758D01*
X525669Y268380D01*
X525669Y265141D01*
X524647Y265141D01*
X524647Y271525D01*
X525669Y271525D01*
X525669Y270204D01*
X525700Y270204D01*
X525700Y270220D01*
X525716Y270236D01*
X525747Y270314D01*
X525795Y270440D01*
X525873Y270597D01*
X525952Y270754D01*
X526078Y270927D01*
X526203Y271100D01*
X526361Y271257D01*
X526376Y271273D01*
X526439Y271320D01*
X526534Y271383D01*
X526659Y271446D01*
X526801Y271509D01*
X526974Y271572D01*
X527163Y271619D01*
X527367Y271635D01*
X527508Y271635D01*
X527603Y271619D01*
X527603Y271619D02*
G37*
G36*
X659536Y263492D02*
X658514Y263492D01*
X658514Y264562D01*
X658483Y264562D01*
X658483Y264546D01*
X658452Y264514D01*
X658404Y264451D01*
X658357Y264373D01*
X658279Y264279D01*
X658184Y264184D01*
X658074Y264074D01*
X657948Y263964D01*
X657807Y263838D01*
X657634Y263728D01*
X657461Y263634D01*
X657257Y263540D01*
X657052Y263461D01*
X656816Y263398D01*
X656565Y263367D01*
X656298Y263351D01*
X656188Y263351D01*
X656093Y263367D01*
X655999Y263382D01*
X655873Y263398D01*
X655606Y263461D01*
X655291Y263555D01*
X654977Y263713D01*
X654804Y263807D01*
X654662Y263917D01*
X654505Y264058D01*
X654364Y264200D01*
X654364Y264216D01*
X654332Y264247D01*
X654301Y264294D01*
X654254Y264357D01*
X654206Y264436D01*
X654144Y264546D01*
X654081Y264671D01*
X654018Y264813D01*
X653939Y264970D01*
X653876Y265143D01*
X653813Y265332D01*
X653766Y265536D01*
X653719Y265756D01*
X653688Y266008D01*
X653672Y266259D01*
X653656Y266527D01*
X653656Y266542D01*
X653656Y266590D01*
X653656Y266684D01*
X653672Y266794D01*
X653688Y266920D01*
X653703Y267077D01*
X653719Y267250D01*
X653751Y267439D01*
X653845Y267847D01*
X653986Y268272D01*
X654081Y268476D01*
X654191Y268681D01*
X654301Y268869D01*
X654442Y269058D01*
X654458Y269074D01*
X654474Y269105D01*
X654521Y269153D01*
X654584Y269215D01*
X654662Y269278D01*
X654772Y269357D01*
X654883Y269451D01*
X655008Y269545D01*
X655323Y269718D01*
X655684Y269876D01*
X655889Y269923D01*
X656109Y269970D01*
X656329Y270002D01*
X656581Y270017D01*
X656706Y270017D01*
X656801Y270002D01*
X656895Y269986D01*
X657021Y269970D01*
X657304Y269891D01*
X657618Y269766D01*
X657775Y269687D01*
X657933Y269577D01*
X658090Y269467D01*
X658231Y269325D01*
X658357Y269168D01*
X658483Y268979D01*
X658514Y268979D01*
X658514Y272942D01*
X659536Y272942D01*
X659536Y263492D01*
X659536Y263492D02*
G37*
G36*
X652603Y269970D02*
X652791Y269954D01*
X652902Y269923D01*
X652980Y269891D01*
X652980Y268838D01*
X652964Y268854D01*
X652933Y268869D01*
X652870Y268901D01*
X652791Y268948D01*
X652681Y268979D01*
X652540Y269011D01*
X652383Y269027D01*
X652210Y269042D01*
X652178Y269042D01*
X652100Y269027D01*
X651974Y269011D01*
X651832Y268964D01*
X651644Y268885D01*
X651471Y268775D01*
X651282Y268618D01*
X651109Y268414D01*
X651093Y268382D01*
X651046Y268304D01*
X650968Y268162D01*
X650889Y267973D01*
X650810Y267737D01*
X650732Y267439D01*
X650685Y267108D01*
X650669Y266731D01*
X650669Y263492D01*
X649647Y263492D01*
X649647Y269876D01*
X650669Y269876D01*
X650669Y268555D01*
X650700Y268555D01*
X650700Y268571D01*
X650716Y268587D01*
X650748Y268665D01*
X650795Y268791D01*
X650873Y268948D01*
X650952Y269105D01*
X651078Y269278D01*
X651203Y269451D01*
X651361Y269608D01*
X651376Y269624D01*
X651439Y269671D01*
X651534Y269734D01*
X651659Y269797D01*
X651801Y269860D01*
X651974Y269923D01*
X652162Y269970D01*
X652367Y269986D01*
X652508Y269986D01*
X652603Y269970D01*
X652603Y269970D02*
G37*
G36*
X554881Y265141D02*
X553859Y265141D01*
X553859Y266148D01*
X553828Y266148D01*
X553828Y266132D01*
X553797Y266101D01*
X553765Y266038D01*
X553702Y265975D01*
X553561Y265786D01*
X553341Y265582D01*
X553215Y265472D01*
X553073Y265361D01*
X552916Y265267D01*
X552727Y265173D01*
X552539Y265110D01*
X552334Y265047D01*
X552099Y265016D01*
X551863Y265000D01*
X551768Y265000D01*
X551658Y265016D01*
X551501Y265047D01*
X551328Y265079D01*
X551139Y265141D01*
X550935Y265220D01*
X550731Y265346D01*
X550510Y265487D01*
X550306Y265660D01*
X550117Y265880D01*
X549944Y266148D01*
X549787Y266446D01*
X549677Y266808D01*
X549614Y267232D01*
X549583Y267453D01*
X549583Y267704D01*
X549583Y271525D01*
X550589Y271525D01*
X550589Y267861D01*
X550589Y267846D01*
X550589Y267783D01*
X550605Y267673D01*
X550621Y267547D01*
X550636Y267390D01*
X550668Y267232D01*
X550715Y267044D01*
X550778Y266855D01*
X550872Y266667D01*
X550966Y266494D01*
X551092Y266321D01*
X551250Y266163D01*
X551422Y266038D01*
X551627Y265943D01*
X551878Y265865D01*
X552146Y265849D01*
X552177Y265849D01*
X552271Y265865D01*
X552413Y265880D01*
X552570Y265912D01*
X552775Y265991D01*
X552979Y266085D01*
X553183Y266211D01*
X553372Y266399D01*
X553388Y266431D01*
X553451Y266494D01*
X553529Y266619D01*
X553624Y266792D01*
X553702Y266997D01*
X553781Y267248D01*
X553844Y267531D01*
X553859Y267846D01*
X553859Y271525D01*
X554881Y271525D01*
X554881Y265141D01*
X554881Y265141D02*
G37*
G36*
X565384Y265141D02*
X564362Y265141D01*
X564362Y271525D01*
X565384Y271525D01*
X565384Y265141D01*
X565384Y265141D02*
G37*
G36*
X562287Y265141D02*
X561265Y265141D01*
X561265Y274591D01*
X562287Y274591D01*
X562287Y265141D01*
X562287Y265141D02*
G37*
G36*
X520685Y271651D02*
X520826Y271635D01*
X520999Y271588D01*
X521188Y271541D01*
X521392Y271462D01*
X521612Y271368D01*
X521817Y271242D01*
X522021Y271085D01*
X522210Y270896D01*
X522383Y270660D01*
X522524Y270393D01*
X522634Y270078D01*
X522697Y269717D01*
X522729Y269292D01*
X522729Y265141D01*
X521707Y265141D01*
X521707Y266132D01*
X521675Y266132D01*
X521675Y266116D01*
X521644Y266085D01*
X521612Y266022D01*
X521549Y265959D01*
X521392Y265770D01*
X521188Y265566D01*
X520905Y265361D01*
X520575Y265173D01*
X520370Y265110D01*
X520166Y265047D01*
X519946Y265016D01*
X519710Y265000D01*
X519616Y265000D01*
X519553Y265016D01*
X519380Y265031D01*
X519175Y265063D01*
X518924Y265126D01*
X518688Y265204D01*
X518436Y265330D01*
X518216Y265487D01*
X518201Y265519D01*
X518138Y265582D01*
X518043Y265692D01*
X517949Y265849D01*
X517855Y266038D01*
X517760Y266258D01*
X517697Y266525D01*
X517682Y266824D01*
X517682Y266840D01*
X517682Y266902D01*
X517697Y266997D01*
X517713Y267107D01*
X517745Y267248D01*
X517792Y267405D01*
X517855Y267578D01*
X517949Y267751D01*
X518059Y267940D01*
X518201Y268129D01*
X518373Y268302D01*
X518578Y268459D01*
X518814Y268616D01*
X519097Y268742D01*
X519411Y268836D01*
X519789Y268915D01*
X521707Y269182D01*
X521707Y269198D01*
X521707Y269245D01*
X521691Y269339D01*
X521691Y269434D01*
X521660Y269559D01*
X521644Y269701D01*
X521549Y270000D01*
X521471Y270141D01*
X521392Y270283D01*
X521282Y270424D01*
X521156Y270550D01*
X520999Y270660D01*
X520826Y270739D01*
X520622Y270786D01*
X520386Y270802D01*
X520276Y270802D01*
X520197Y270786D01*
X520087Y270786D01*
X519977Y270754D01*
X519694Y270707D01*
X519380Y270613D01*
X519034Y270471D01*
X518845Y270377D01*
X518672Y270283D01*
X518484Y270157D01*
X518311Y270015D01*
X518311Y271069D01*
X518326Y271069D01*
X518358Y271100D01*
X518405Y271132D01*
X518484Y271163D01*
X518562Y271210D01*
X518672Y271257D01*
X518798Y271305D01*
X518940Y271368D01*
X519254Y271478D01*
X519631Y271572D01*
X520040Y271635D01*
X520480Y271666D01*
X520575Y271666D01*
X520685Y271651D01*
X520685Y271651D02*
G37*
G36*
X506236Y274056D02*
X506346Y274056D01*
X506456Y274040D01*
X506707Y274009D01*
X507006Y273930D01*
X507321Y273836D01*
X507619Y273694D01*
X507887Y273506D01*
X507902Y273506D01*
X507918Y273474D01*
X507997Y273412D01*
X508107Y273286D01*
X508232Y273113D01*
X508343Y272893D01*
X508453Y272641D01*
X508531Y272358D01*
X508563Y272201D01*
X508563Y272028D01*
X508563Y272012D01*
X508563Y271996D01*
X508563Y271902D01*
X508547Y271761D01*
X508516Y271588D01*
X508468Y271368D01*
X508390Y271147D01*
X508295Y270927D01*
X508154Y270707D01*
X508138Y270676D01*
X508075Y270613D01*
X507981Y270519D01*
X507855Y270393D01*
X507698Y270267D01*
X507509Y270126D01*
X507273Y270015D01*
X507022Y269905D01*
X507022Y269890D01*
X507069Y269890D01*
X507116Y269874D01*
X507163Y269858D01*
X507336Y269827D01*
X507541Y269764D01*
X507761Y269669D01*
X507997Y269559D01*
X508232Y269402D01*
X508453Y269198D01*
X508484Y269166D01*
X508547Y269088D01*
X508625Y268978D01*
X508736Y268805D01*
X508830Y268585D01*
X508924Y268333D01*
X508987Y268034D01*
X509003Y267704D01*
X509003Y267689D01*
X509003Y267657D01*
X509003Y267594D01*
X508987Y267516D01*
X508971Y267421D01*
X508956Y267311D01*
X508893Y267044D01*
X508798Y266745D01*
X508657Y266431D01*
X508563Y266289D01*
X508453Y266132D01*
X508311Y265991D01*
X508170Y265849D01*
X508154Y265849D01*
X508138Y265818D01*
X508091Y265786D01*
X508028Y265739D01*
X507949Y265692D01*
X507839Y265629D01*
X507604Y265503D01*
X507305Y265361D01*
X506959Y265252D01*
X506550Y265173D01*
X506346Y265157D01*
X506110Y265141D01*
X503500Y265141D01*
X503500Y274072D01*
X506157Y274072D01*
X506236Y274056D01*
X506236Y274056D02*
G37*
G36*
X558293Y271525D02*
X559913Y271525D01*
X559913Y270644D01*
X558293Y270644D01*
X558293Y267044D01*
X558293Y267012D01*
X558293Y266934D01*
X558309Y266824D01*
X558325Y266682D01*
X558388Y266383D01*
X558435Y266242D01*
X558513Y266132D01*
X558529Y266116D01*
X558560Y266085D01*
X558608Y266053D01*
X558686Y266006D01*
X558781Y265943D01*
X558906Y265912D01*
X559064Y265880D01*
X559237Y265865D01*
X559300Y265865D01*
X559378Y265880D01*
X559472Y265896D01*
X559692Y265959D01*
X559803Y266006D01*
X559913Y266069D01*
X559913Y265189D01*
X559897Y265189D01*
X559850Y265157D01*
X559771Y265141D01*
X559661Y265110D01*
X559520Y265079D01*
X559362Y265047D01*
X559174Y265031D01*
X558954Y265016D01*
X558875Y265016D01*
X558796Y265031D01*
X558686Y265047D01*
X558560Y265079D01*
X558419Y265110D01*
X558278Y265173D01*
X558120Y265252D01*
X557963Y265346D01*
X557806Y265472D01*
X557664Y265613D01*
X557538Y265802D01*
X557429Y266006D01*
X557350Y266258D01*
X557287Y266541D01*
X557271Y266871D01*
X557271Y270644D01*
X556186Y270644D01*
X556186Y271525D01*
X557271Y271525D01*
X557271Y273081D01*
X558293Y273412D01*
X558293Y271525D01*
X558293Y271525D02*
G37*
G36*
X577412Y271651D02*
X577522Y271635D01*
X577632Y271619D01*
X577915Y271572D01*
X578229Y271462D01*
X578544Y271320D01*
X578701Y271226D01*
X578858Y271116D01*
X579000Y270990D01*
X579141Y270849D01*
X579157Y270833D01*
X579173Y270817D01*
X579204Y270770D01*
X579251Y270707D01*
X579299Y270613D01*
X579361Y270519D01*
X579424Y270408D01*
X579487Y270267D01*
X579550Y270110D01*
X579613Y269953D01*
X579676Y269764D01*
X579723Y269559D01*
X579770Y269339D01*
X579802Y269119D01*
X579833Y268868D01*
X579833Y268600D01*
X579833Y268066D01*
X575321Y268066D01*
X575321Y268050D01*
X575321Y268019D01*
X575321Y267971D01*
X575336Y267893D01*
X575352Y267799D01*
X575352Y267704D01*
X575399Y267453D01*
X575478Y267201D01*
X575572Y266918D01*
X575714Y266651D01*
X575887Y266415D01*
X575918Y266383D01*
X575981Y266321D01*
X576107Y266242D01*
X576280Y266132D01*
X576500Y266022D01*
X576752Y265943D01*
X577050Y265880D01*
X577396Y265849D01*
X577506Y265849D01*
X577585Y265865D01*
X577679Y265865D01*
X577789Y265880D01*
X578056Y265943D01*
X578355Y266022D01*
X578685Y266148D01*
X579031Y266321D01*
X579204Y266431D01*
X579377Y266556D01*
X579377Y265597D01*
X579361Y265597D01*
X579346Y265566D01*
X579299Y265550D01*
X579220Y265503D01*
X579141Y265456D01*
X579047Y265409D01*
X578921Y265361D01*
X578796Y265299D01*
X578638Y265236D01*
X578465Y265189D01*
X578088Y265094D01*
X577648Y265031D01*
X577160Y265000D01*
X577035Y265000D01*
X576940Y265016D01*
X576830Y265031D01*
X576689Y265047D01*
X576390Y265110D01*
X576044Y265204D01*
X575698Y265361D01*
X575525Y265472D01*
X575352Y265582D01*
X575195Y265707D01*
X575038Y265865D01*
X575022Y265880D01*
X575006Y265912D01*
X574975Y265959D01*
X574912Y266022D01*
X574865Y266116D01*
X574802Y266226D01*
X574723Y266352D01*
X574660Y266494D01*
X574582Y266651D01*
X574519Y266840D01*
X574440Y267044D01*
X574393Y267264D01*
X574346Y267500D01*
X574299Y267751D01*
X574283Y268019D01*
X574267Y268302D01*
X574267Y268317D01*
X574267Y268365D01*
X574267Y268443D01*
X574283Y268553D01*
X574299Y268679D01*
X574314Y268820D01*
X574330Y268993D01*
X574377Y269166D01*
X574472Y269544D01*
X574613Y269953D01*
X574708Y270157D01*
X574833Y270346D01*
X574959Y270550D01*
X575101Y270723D01*
X575116Y270739D01*
X575148Y270770D01*
X575195Y270817D01*
X575258Y270865D01*
X575336Y270943D01*
X575431Y271022D01*
X575557Y271100D01*
X575682Y271195D01*
X575981Y271368D01*
X576343Y271525D01*
X576547Y271572D01*
X576752Y271619D01*
X576972Y271651D01*
X577207Y271666D01*
X577333Y271666D01*
X577412Y271651D01*
X577412Y271651D02*
G37*
G36*
X544284Y274213D02*
X544442Y274198D01*
X544630Y274166D01*
X544835Y274119D01*
X545055Y274072D01*
X545275Y274009D01*
X545527Y273930D01*
X545762Y273820D01*
X546014Y273694D01*
X546265Y273553D01*
X546501Y273380D01*
X546737Y273191D01*
X546957Y272971D01*
X546973Y272956D01*
X547004Y272908D01*
X547067Y272845D01*
X547130Y272751D01*
X547225Y272625D01*
X547319Y272468D01*
X547413Y272295D01*
X547523Y272106D01*
X547633Y271871D01*
X547728Y271635D01*
X547822Y271368D01*
X547916Y271069D01*
X547979Y270770D01*
X548042Y270440D01*
X548074Y270078D01*
X548089Y269717D01*
X548089Y269685D01*
X548089Y269622D01*
X548089Y269512D01*
X548074Y269355D01*
X548058Y269166D01*
X548026Y268962D01*
X547995Y268726D01*
X547948Y268459D01*
X547885Y268192D01*
X547806Y267909D01*
X547712Y267626D01*
X547602Y267343D01*
X547460Y267044D01*
X547303Y266777D01*
X547130Y266509D01*
X546926Y266258D01*
X546910Y266242D01*
X546879Y266211D01*
X546800Y266148D01*
X546721Y266069D01*
X546596Y265959D01*
X546454Y265865D01*
X546297Y265739D01*
X546108Y265629D01*
X545904Y265519D01*
X545668Y265393D01*
X545416Y265299D01*
X545133Y265204D01*
X544835Y265110D01*
X544520Y265047D01*
X544190Y265016D01*
X543828Y265000D01*
X543750Y265000D01*
X543640Y265016D01*
X543514Y265016D01*
X543357Y265031D01*
X543168Y265063D01*
X542964Y265110D01*
X542728Y265157D01*
X542492Y265220D01*
X542240Y265299D01*
X541989Y265409D01*
X541737Y265519D01*
X541486Y265660D01*
X541234Y265833D01*
X540998Y266022D01*
X540778Y266242D01*
X540762Y266258D01*
X540731Y266305D01*
X540668Y266368D01*
X540605Y266462D01*
X540511Y266588D01*
X540417Y266745D01*
X540322Y266918D01*
X540212Y267122D01*
X540102Y267343D01*
X540008Y267578D01*
X539913Y267846D01*
X539819Y268144D01*
X539756Y268443D01*
X539693Y268773D01*
X539662Y269135D01*
X539646Y269497D01*
X539646Y269528D01*
X539646Y269591D01*
X539662Y269701D01*
X539662Y269858D01*
X539678Y270031D01*
X539709Y270251D01*
X539741Y270487D01*
X539788Y270739D01*
X539851Y271006D01*
X539929Y271289D01*
X540024Y271572D01*
X540134Y271855D01*
X540275Y272138D01*
X540432Y272421D01*
X540605Y272688D01*
X540810Y272940D01*
X540825Y272956D01*
X540857Y273003D01*
X540936Y273066D01*
X541030Y273144D01*
X541140Y273239D01*
X541281Y273349D01*
X541454Y273459D01*
X541643Y273584D01*
X541863Y273710D01*
X542099Y273820D01*
X542351Y273930D01*
X542634Y274025D01*
X542948Y274103D01*
X543278Y274182D01*
X543624Y274213D01*
X543986Y274229D01*
X544159Y274229D01*
X544284Y274213D01*
X544284Y274213D02*
G37*
G36*
X513735Y271651D02*
X513845Y271635D01*
X513987Y271619D01*
X514301Y271556D01*
X514663Y271446D01*
X515025Y271289D01*
X515213Y271195D01*
X515386Y271085D01*
X515559Y270943D01*
X515716Y270786D01*
X515732Y270770D01*
X515748Y270739D01*
X515795Y270692D01*
X515842Y270629D01*
X515905Y270534D01*
X515968Y270424D01*
X516047Y270298D01*
X516125Y270157D01*
X516188Y269984D01*
X516267Y269811D01*
X516330Y269607D01*
X516393Y269387D01*
X516440Y269151D01*
X516487Y268899D01*
X516502Y268632D01*
X516518Y268349D01*
X516518Y268333D01*
X516518Y268286D01*
X516518Y268207D01*
X516502Y268097D01*
X516487Y267971D01*
X516471Y267814D01*
X516440Y267657D01*
X516408Y267468D01*
X516314Y267091D01*
X516157Y266682D01*
X516062Y266478D01*
X515937Y266273D01*
X515811Y266085D01*
X515653Y265912D01*
X515638Y265896D01*
X515606Y265880D01*
X515559Y265833D01*
X515496Y265770D01*
X515402Y265707D01*
X515308Y265629D01*
X515182Y265534D01*
X515040Y265456D01*
X514883Y265377D01*
X514710Y265283D01*
X514521Y265204D01*
X514317Y265141D01*
X514097Y265079D01*
X513861Y265047D01*
X513610Y265016D01*
X513342Y265000D01*
X513201Y265000D01*
X513106Y265016D01*
X512996Y265031D01*
X512855Y265047D01*
X512698Y265079D01*
X512525Y265110D01*
X512163Y265220D01*
X511786Y265377D01*
X511597Y265472D01*
X511424Y265597D01*
X511251Y265723D01*
X511078Y265880D01*
X511063Y265896D01*
X511047Y265928D01*
X511000Y265975D01*
X510952Y266038D01*
X510890Y266132D01*
X510811Y266242D01*
X510732Y266368D01*
X510670Y266509D01*
X510591Y266682D01*
X510512Y266855D01*
X510434Y267044D01*
X510371Y267264D01*
X510276Y267736D01*
X510261Y267987D01*
X510245Y268255D01*
X510245Y268270D01*
X510245Y268333D01*
X510245Y268412D01*
X510261Y268522D01*
X510276Y268648D01*
X510292Y268805D01*
X510324Y268978D01*
X510355Y269166D01*
X510449Y269575D01*
X510607Y269984D01*
X510717Y270188D01*
X510827Y270393D01*
X510952Y270581D01*
X511110Y270754D01*
X511125Y270770D01*
X511157Y270802D01*
X511204Y270833D01*
X511267Y270896D01*
X511361Y270959D01*
X511471Y271037D01*
X511597Y271132D01*
X511739Y271210D01*
X511896Y271289D01*
X512085Y271383D01*
X512273Y271462D01*
X512493Y271525D01*
X512713Y271588D01*
X512965Y271635D01*
X513232Y271651D01*
X513499Y271666D01*
X513641Y271666D01*
X513735Y271651D01*
X513735Y271651D02*
G37*
G36*
X697208Y263492D02*
X696186Y263492D01*
X696186Y264499D01*
X696154Y264499D01*
X696154Y264483D01*
X696123Y264451D01*
X696091Y264389D01*
X696029Y264326D01*
X695887Y264137D01*
X695667Y263933D01*
X695541Y263822D01*
X695400Y263713D01*
X695242Y263618D01*
X695054Y263524D01*
X694865Y263461D01*
X694661Y263398D01*
X694425Y263367D01*
X694189Y263351D01*
X694095Y263351D01*
X693985Y263367D01*
X693827Y263398D01*
X693654Y263429D01*
X693466Y263492D01*
X693261Y263571D01*
X693057Y263697D01*
X692837Y263838D01*
X692633Y264011D01*
X692444Y264231D01*
X692271Y264499D01*
X692114Y264797D01*
X692004Y265159D01*
X691941Y265583D01*
X691909Y265804D01*
X691909Y266055D01*
X691909Y269876D01*
X692915Y269876D01*
X692915Y266212D01*
X692915Y266197D01*
X692915Y266134D01*
X692931Y266024D01*
X692947Y265898D01*
X692963Y265741D01*
X692994Y265583D01*
X693041Y265395D01*
X693104Y265206D01*
X693198Y265017D01*
X693293Y264844D01*
X693419Y264671D01*
X693576Y264514D01*
X693749Y264389D01*
X693953Y264294D01*
X694205Y264216D01*
X694472Y264200D01*
X694503Y264200D01*
X694598Y264216D01*
X694739Y264231D01*
X694896Y264263D01*
X695101Y264341D01*
X695305Y264436D01*
X695510Y264562D01*
X695698Y264750D01*
X695714Y264782D01*
X695777Y264844D01*
X695856Y264970D01*
X695950Y265143D01*
X696029Y265348D01*
X696107Y265599D01*
X696170Y265882D01*
X696186Y266197D01*
X696186Y269876D01*
X697208Y269876D01*
X697208Y263492D01*
X697208Y263492D02*
G37*
G36*
X678168Y263492D02*
X677146Y263492D01*
X677146Y264499D01*
X677114Y264499D01*
X677114Y264483D01*
X677083Y264451D01*
X677051Y264389D01*
X676989Y264326D01*
X676847Y264137D01*
X676627Y263933D01*
X676501Y263822D01*
X676360Y263713D01*
X676202Y263618D01*
X676014Y263524D01*
X675825Y263461D01*
X675621Y263398D01*
X675385Y263367D01*
X675149Y263351D01*
X675055Y263351D01*
X674945Y263367D01*
X674787Y263398D01*
X674614Y263429D01*
X674426Y263492D01*
X674221Y263571D01*
X674017Y263697D01*
X673797Y263838D01*
X673592Y264011D01*
X673404Y264231D01*
X673231Y264499D01*
X673074Y264797D01*
X672963Y265159D01*
X672901Y265583D01*
X672869Y265804D01*
X672869Y266055D01*
X672869Y269876D01*
X673875Y269876D01*
X673875Y266212D01*
X673875Y266197D01*
X673875Y266134D01*
X673891Y266024D01*
X673907Y265898D01*
X673923Y265741D01*
X673954Y265583D01*
X674001Y265395D01*
X674064Y265206D01*
X674158Y265017D01*
X674253Y264844D01*
X674379Y264671D01*
X674536Y264514D01*
X674709Y264389D01*
X674913Y264294D01*
X675165Y264216D01*
X675432Y264200D01*
X675463Y264200D01*
X675558Y264216D01*
X675699Y264231D01*
X675856Y264263D01*
X676061Y264341D01*
X676265Y264436D01*
X676470Y264562D01*
X676658Y264750D01*
X676674Y264782D01*
X676737Y264844D01*
X676815Y264970D01*
X676910Y265143D01*
X676989Y265348D01*
X677067Y265599D01*
X677130Y265882D01*
X677146Y266197D01*
X677146Y269876D01*
X678168Y269876D01*
X678168Y263492D01*
X678168Y263492D02*
G37*
G36*
X645685Y270002D02*
X645826Y269986D01*
X645999Y269939D01*
X646188Y269891D01*
X646392Y269813D01*
X646612Y269718D01*
X646817Y269593D01*
X647021Y269436D01*
X647210Y269247D01*
X647383Y269011D01*
X647524Y268744D01*
X647634Y268429D01*
X647697Y268068D01*
X647729Y267643D01*
X647729Y263492D01*
X646707Y263492D01*
X646707Y264483D01*
X646675Y264483D01*
X646675Y264467D01*
X646644Y264436D01*
X646612Y264373D01*
X646550Y264310D01*
X646392Y264121D01*
X646188Y263917D01*
X645905Y263713D01*
X645575Y263524D01*
X645370Y263461D01*
X645166Y263398D01*
X644946Y263367D01*
X644710Y263351D01*
X644616Y263351D01*
X644553Y263367D01*
X644380Y263382D01*
X644175Y263414D01*
X643924Y263477D01*
X643688Y263555D01*
X643437Y263681D01*
X643216Y263838D01*
X643201Y263870D01*
X643138Y263933D01*
X643043Y264043D01*
X642949Y264200D01*
X642855Y264389D01*
X642760Y264609D01*
X642698Y264876D01*
X642682Y265175D01*
X642682Y265190D01*
X642682Y265253D01*
X642698Y265348D01*
X642713Y265458D01*
X642745Y265599D01*
X642792Y265756D01*
X642855Y265929D01*
X642949Y266102D01*
X643059Y266291D01*
X643201Y266480D01*
X643374Y266653D01*
X643578Y266810D01*
X643814Y266967D01*
X644097Y267093D01*
X644411Y267187D01*
X644789Y267266D01*
X646707Y267533D01*
X646707Y267549D01*
X646707Y267596D01*
X646691Y267690D01*
X646691Y267785D01*
X646660Y267910D01*
X646644Y268052D01*
X646550Y268351D01*
X646471Y268492D01*
X646392Y268634D01*
X646282Y268775D01*
X646156Y268901D01*
X645999Y269011D01*
X645826Y269090D01*
X645622Y269137D01*
X645386Y269153D01*
X645276Y269153D01*
X645197Y269137D01*
X645087Y269137D01*
X644977Y269105D01*
X644694Y269058D01*
X644380Y268964D01*
X644034Y268822D01*
X643845Y268728D01*
X643672Y268634D01*
X643484Y268508D01*
X643311Y268366D01*
X643311Y269420D01*
X643326Y269420D01*
X643358Y269451D01*
X643405Y269483D01*
X643484Y269514D01*
X643562Y269561D01*
X643672Y269608D01*
X643798Y269656D01*
X643940Y269718D01*
X644254Y269828D01*
X644631Y269923D01*
X645040Y269986D01*
X645480Y270017D01*
X645575Y270017D01*
X645685Y270002D01*
X645685Y270002D02*
G37*
G36*
X631236Y272407D02*
X631346Y272407D01*
X631456Y272391D01*
X631707Y272360D01*
X632006Y272281D01*
X632321Y272187D01*
X632619Y272045D01*
X632887Y271857D01*
X632902Y271857D01*
X632918Y271825D01*
X632997Y271762D01*
X633107Y271637D01*
X633232Y271464D01*
X633343Y271244D01*
X633453Y270992D01*
X633531Y270709D01*
X633563Y270552D01*
X633563Y270379D01*
X633563Y270363D01*
X633563Y270347D01*
X633563Y270253D01*
X633547Y270112D01*
X633516Y269939D01*
X633468Y269718D01*
X633390Y269498D01*
X633295Y269278D01*
X633154Y269058D01*
X633138Y269027D01*
X633075Y268964D01*
X632981Y268869D01*
X632855Y268744D01*
X632698Y268618D01*
X632509Y268476D01*
X632273Y268366D01*
X632022Y268256D01*
X632022Y268241D01*
X632069Y268241D01*
X632116Y268225D01*
X632163Y268209D01*
X632336Y268178D01*
X632541Y268115D01*
X632761Y268020D01*
X632997Y267910D01*
X633232Y267753D01*
X633453Y267549D01*
X633484Y267517D01*
X633547Y267439D01*
X633626Y267329D01*
X633736Y267156D01*
X633830Y266936D01*
X633924Y266684D01*
X633987Y266385D01*
X634003Y266055D01*
X634003Y266039D01*
X634003Y266008D01*
X634003Y265945D01*
X633987Y265866D01*
X633971Y265772D01*
X633956Y265662D01*
X633893Y265395D01*
X633798Y265096D01*
X633657Y264782D01*
X633563Y264640D01*
X633453Y264483D01*
X633311Y264341D01*
X633170Y264200D01*
X633154Y264200D01*
X633138Y264168D01*
X633091Y264137D01*
X633028Y264090D01*
X632949Y264043D01*
X632839Y263980D01*
X632604Y263854D01*
X632305Y263713D01*
X631959Y263602D01*
X631550Y263524D01*
X631346Y263508D01*
X631110Y263492D01*
X628500Y263492D01*
X628500Y272423D01*
X631157Y272423D01*
X631236Y272407D01*
X631236Y272407D02*
G37*
G36*
X700620Y269876D02*
X702239Y269876D01*
X702239Y268995D01*
X700620Y268995D01*
X700620Y265395D01*
X700620Y265363D01*
X700620Y265285D01*
X700635Y265175D01*
X700651Y265033D01*
X700714Y264734D01*
X700761Y264593D01*
X700840Y264483D01*
X700855Y264467D01*
X700887Y264436D01*
X700934Y264404D01*
X701013Y264357D01*
X701107Y264294D01*
X701233Y264263D01*
X701390Y264231D01*
X701563Y264216D01*
X701626Y264216D01*
X701704Y264231D01*
X701799Y264247D01*
X702019Y264310D01*
X702129Y264357D01*
X702239Y264420D01*
X702239Y263540D01*
X702223Y263540D01*
X702176Y263508D01*
X702097Y263492D01*
X701987Y263461D01*
X701846Y263429D01*
X701689Y263398D01*
X701500Y263382D01*
X701280Y263367D01*
X701201Y263367D01*
X701123Y263382D01*
X701013Y263398D01*
X700887Y263429D01*
X700745Y263461D01*
X700604Y263524D01*
X700447Y263602D01*
X700289Y263697D01*
X700132Y263822D01*
X699991Y263964D01*
X699865Y264153D01*
X699755Y264357D01*
X699676Y264609D01*
X699613Y264892D01*
X699598Y265222D01*
X699598Y268995D01*
X698513Y268995D01*
X698513Y269876D01*
X699598Y269876D01*
X699598Y271432D01*
X700620Y271762D01*
X700620Y269876D01*
X700620Y269876D02*
G37*
G36*
X681580Y269876D02*
X683199Y269876D01*
X683199Y268995D01*
X681580Y268995D01*
X681580Y265395D01*
X681580Y265363D01*
X681580Y265285D01*
X681595Y265175D01*
X681611Y265033D01*
X681674Y264734D01*
X681721Y264593D01*
X681800Y264483D01*
X681815Y264467D01*
X681847Y264436D01*
X681894Y264404D01*
X681973Y264357D01*
X682067Y264294D01*
X682193Y264263D01*
X682350Y264231D01*
X682523Y264216D01*
X682586Y264216D01*
X682664Y264231D01*
X682759Y264247D01*
X682979Y264310D01*
X683089Y264357D01*
X683199Y264420D01*
X683199Y263540D01*
X683183Y263540D01*
X683136Y263508D01*
X683057Y263492D01*
X682947Y263461D01*
X682806Y263429D01*
X682649Y263398D01*
X682460Y263382D01*
X682240Y263367D01*
X682161Y263367D01*
X682083Y263382D01*
X681973Y263398D01*
X681847Y263429D01*
X681705Y263461D01*
X681564Y263524D01*
X681406Y263602D01*
X681249Y263697D01*
X681092Y263822D01*
X680951Y263964D01*
X680825Y264153D01*
X680715Y264357D01*
X680636Y264609D01*
X680573Y264892D01*
X680557Y265222D01*
X680557Y268995D01*
X679473Y268995D01*
X679473Y269876D01*
X680557Y269876D01*
X680557Y271432D01*
X681580Y271762D01*
X681580Y269876D01*
X681580Y269876D02*
G37*
G36*
X687617Y270002D02*
X687727Y269986D01*
X687868Y269970D01*
X688183Y269907D01*
X688545Y269797D01*
X688906Y269640D01*
X689095Y269545D01*
X689268Y269436D01*
X689441Y269294D01*
X689598Y269137D01*
X689614Y269121D01*
X689630Y269090D01*
X689677Y269042D01*
X689724Y268979D01*
X689787Y268885D01*
X689850Y268775D01*
X689928Y268649D01*
X690007Y268508D01*
X690070Y268335D01*
X690148Y268162D01*
X690211Y267958D01*
X690274Y267737D01*
X690321Y267502D01*
X690368Y267250D01*
X690384Y266983D01*
X690400Y266700D01*
X690400Y266684D01*
X690400Y266637D01*
X690400Y266558D01*
X690384Y266448D01*
X690368Y266322D01*
X690353Y266165D01*
X690321Y266008D01*
X690290Y265819D01*
X690195Y265442D01*
X690038Y265033D01*
X689944Y264829D01*
X689818Y264624D01*
X689692Y264436D01*
X689535Y264263D01*
X689519Y264247D01*
X689488Y264231D01*
X689441Y264184D01*
X689378Y264121D01*
X689284Y264058D01*
X689189Y263980D01*
X689063Y263885D01*
X688922Y263807D01*
X688765Y263728D01*
X688592Y263634D01*
X688403Y263555D01*
X688199Y263492D01*
X687979Y263429D01*
X687743Y263398D01*
X687491Y263367D01*
X687224Y263351D01*
X687082Y263351D01*
X686988Y263367D01*
X686878Y263382D01*
X686737Y263398D01*
X686579Y263429D01*
X686406Y263461D01*
X686045Y263571D01*
X685667Y263728D01*
X685479Y263822D01*
X685306Y263948D01*
X685133Y264074D01*
X684960Y264231D01*
X684944Y264247D01*
X684928Y264279D01*
X684881Y264326D01*
X684834Y264389D01*
X684771Y264483D01*
X684693Y264593D01*
X684614Y264719D01*
X684551Y264860D01*
X684472Y265033D01*
X684394Y265206D01*
X684315Y265395D01*
X684252Y265615D01*
X684158Y266087D01*
X684142Y266338D01*
X684127Y266605D01*
X684127Y266621D01*
X684127Y266684D01*
X684127Y266763D01*
X684142Y266873D01*
X684158Y266999D01*
X684174Y267156D01*
X684205Y267329D01*
X684237Y267517D01*
X684331Y267926D01*
X684488Y268335D01*
X684598Y268539D01*
X684708Y268744D01*
X684834Y268932D01*
X684991Y269105D01*
X685007Y269121D01*
X685039Y269153D01*
X685086Y269184D01*
X685148Y269247D01*
X685243Y269310D01*
X685353Y269388D01*
X685479Y269483D01*
X685620Y269561D01*
X685777Y269640D01*
X685966Y269734D01*
X686155Y269813D01*
X686375Y269876D01*
X686595Y269939D01*
X686847Y269986D01*
X687114Y270002D01*
X687381Y270017D01*
X687523Y270017D01*
X687617Y270002D01*
X687617Y270002D02*
G37*
G36*
X638735Y270002D02*
X638845Y269986D01*
X638987Y269970D01*
X639301Y269907D01*
X639663Y269797D01*
X640025Y269640D01*
X640213Y269545D01*
X640386Y269436D01*
X640559Y269294D01*
X640716Y269137D01*
X640732Y269121D01*
X640748Y269090D01*
X640795Y269042D01*
X640842Y268979D01*
X640905Y268885D01*
X640968Y268775D01*
X641047Y268649D01*
X641125Y268508D01*
X641188Y268335D01*
X641267Y268162D01*
X641330Y267958D01*
X641393Y267737D01*
X641440Y267502D01*
X641487Y267250D01*
X641503Y266983D01*
X641518Y266700D01*
X641518Y266684D01*
X641518Y266637D01*
X641518Y266558D01*
X641503Y266448D01*
X641487Y266322D01*
X641471Y266165D01*
X641440Y266008D01*
X641408Y265819D01*
X641314Y265442D01*
X641157Y265033D01*
X641062Y264829D01*
X640937Y264624D01*
X640811Y264436D01*
X640654Y264263D01*
X640638Y264247D01*
X640606Y264231D01*
X640559Y264184D01*
X640496Y264121D01*
X640402Y264058D01*
X640308Y263980D01*
X640182Y263885D01*
X640040Y263807D01*
X639883Y263728D01*
X639710Y263634D01*
X639521Y263555D01*
X639317Y263492D01*
X639097Y263429D01*
X638861Y263398D01*
X638610Y263367D01*
X638342Y263351D01*
X638201Y263351D01*
X638106Y263367D01*
X637996Y263382D01*
X637855Y263398D01*
X637698Y263429D01*
X637525Y263461D01*
X637163Y263571D01*
X636786Y263728D01*
X636597Y263822D01*
X636424Y263948D01*
X636251Y264074D01*
X636078Y264231D01*
X636063Y264247D01*
X636047Y264279D01*
X636000Y264326D01*
X635952Y264389D01*
X635890Y264483D01*
X635811Y264593D01*
X635732Y264719D01*
X635670Y264860D01*
X635591Y265033D01*
X635512Y265206D01*
X635434Y265395D01*
X635371Y265615D01*
X635276Y266087D01*
X635261Y266338D01*
X635245Y266605D01*
X635245Y266621D01*
X635245Y266684D01*
X635245Y266763D01*
X635261Y266873D01*
X635276Y266999D01*
X635292Y267156D01*
X635324Y267329D01*
X635355Y267517D01*
X635449Y267926D01*
X635607Y268335D01*
X635717Y268539D01*
X635827Y268744D01*
X635952Y268932D01*
X636110Y269105D01*
X636125Y269121D01*
X636157Y269153D01*
X636204Y269184D01*
X636267Y269247D01*
X636361Y269310D01*
X636471Y269388D01*
X636597Y269483D01*
X636739Y269561D01*
X636896Y269640D01*
X637085Y269734D01*
X637273Y269813D01*
X637493Y269876D01*
X637713Y269939D01*
X637965Y269986D01*
X638232Y270002D01*
X638500Y270017D01*
X638641Y270017D01*
X638735Y270002D01*
X638735Y270002D02*
G37*
%LPC*%
G36*
X531706Y270802D02*
X531612Y270802D01*
X531549Y270786D01*
X531376Y270770D01*
X531172Y270723D01*
X530936Y270629D01*
X530684Y270503D01*
X530448Y270346D01*
X530338Y270236D01*
X530228Y270110D01*
X530213Y270078D01*
X530150Y269984D01*
X530055Y269827D01*
X529961Y269622D01*
X529867Y269355D01*
X529772Y269025D01*
X529710Y268648D01*
X529694Y268223D01*
X529694Y268207D01*
X529694Y268176D01*
X529694Y268113D01*
X529710Y268034D01*
X529710Y267956D01*
X529725Y267846D01*
X529757Y267594D01*
X529820Y267311D01*
X529914Y267028D01*
X530040Y266745D01*
X530213Y266478D01*
X530244Y266446D01*
X530307Y266383D01*
X530417Y266273D01*
X530574Y266163D01*
X530779Y266053D01*
X531015Y265943D01*
X531282Y265880D01*
X531596Y265849D01*
X531675Y265849D01*
X531738Y265865D01*
X531895Y265880D01*
X532084Y265928D01*
X532304Y266006D01*
X532540Y266101D01*
X532760Y266258D01*
X532980Y266462D01*
X532996Y266494D01*
X533058Y266572D01*
X533153Y266714D01*
X533247Y266887D01*
X533341Y267107D01*
X533436Y267374D01*
X533499Y267689D01*
X533514Y268019D01*
X533514Y268962D01*
X533514Y268978D01*
X533514Y268993D01*
X533514Y269088D01*
X533483Y269229D01*
X533451Y269418D01*
X533389Y269622D01*
X533294Y269842D01*
X533168Y270063D01*
X532996Y270267D01*
X532980Y270283D01*
X532901Y270346D01*
X532791Y270440D01*
X532650Y270534D01*
X532461Y270629D01*
X532241Y270723D01*
X531989Y270786D01*
X531706Y270802D01*
X531706Y270802D02*
G37*
G36*
X656706Y269153D02*
X656612Y269153D01*
X656549Y269137D01*
X656376Y269121D01*
X656172Y269074D01*
X655936Y268979D01*
X655684Y268854D01*
X655449Y268696D01*
X655339Y268587D01*
X655228Y268461D01*
X655213Y268429D01*
X655150Y268335D01*
X655055Y268178D01*
X654961Y267973D01*
X654867Y267706D01*
X654772Y267376D01*
X654710Y266999D01*
X654694Y266574D01*
X654694Y266558D01*
X654694Y266527D01*
X654694Y266464D01*
X654710Y266385D01*
X654710Y266307D01*
X654725Y266197D01*
X654757Y265945D01*
X654820Y265662D01*
X654914Y265379D01*
X655040Y265096D01*
X655213Y264829D01*
X655244Y264797D01*
X655307Y264734D01*
X655417Y264624D01*
X655574Y264514D01*
X655779Y264404D01*
X656014Y264294D01*
X656282Y264231D01*
X656596Y264200D01*
X656675Y264200D01*
X656738Y264216D01*
X656895Y264231D01*
X657084Y264279D01*
X657304Y264357D01*
X657540Y264451D01*
X657760Y264609D01*
X657980Y264813D01*
X657996Y264844D01*
X658058Y264923D01*
X658153Y265065D01*
X658247Y265238D01*
X658342Y265458D01*
X658436Y265725D01*
X658499Y266039D01*
X658514Y266370D01*
X658514Y267313D01*
X658514Y267329D01*
X658514Y267344D01*
X658514Y267439D01*
X658483Y267580D01*
X658452Y267769D01*
X658389Y267973D01*
X658294Y268193D01*
X658168Y268414D01*
X657996Y268618D01*
X657980Y268634D01*
X657901Y268696D01*
X657791Y268791D01*
X657650Y268885D01*
X657461Y268979D01*
X657241Y269074D01*
X656989Y269137D01*
X656706Y269153D01*
X656706Y269153D02*
G37*
G36*
X521707Y268365D02*
X520166Y268144D01*
X520135Y268144D01*
X520056Y268129D01*
X519930Y268097D01*
X519773Y268066D01*
X519600Y268019D01*
X519411Y267956D01*
X519254Y267893D01*
X519097Y267799D01*
X519081Y267783D01*
X519034Y267751D01*
X518987Y267689D01*
X518924Y267594D01*
X518845Y267468D01*
X518798Y267311D01*
X518751Y267122D01*
X518735Y266902D01*
X518735Y266887D01*
X518735Y266824D01*
X518751Y266745D01*
X518782Y266635D01*
X518814Y266509D01*
X518877Y266383D01*
X518955Y266258D01*
X519065Y266132D01*
X519081Y266116D01*
X519128Y266085D01*
X519207Y266038D01*
X519301Y265991D01*
X519427Y265943D01*
X519584Y265896D01*
X519757Y265865D01*
X519962Y265849D01*
X519993Y265849D01*
X520087Y265865D01*
X520229Y265880D01*
X520402Y265912D01*
X520590Y265975D01*
X520811Y266069D01*
X521015Y266211D01*
X521204Y266383D01*
X521219Y266415D01*
X521282Y266478D01*
X521361Y266588D01*
X521455Y266745D01*
X521549Y266950D01*
X521628Y267170D01*
X521691Y267437D01*
X521707Y267720D01*
X521707Y268365D01*
X521707Y268365D02*
G37*
G36*
X505748Y273129D02*
X504553Y273129D01*
X504553Y270236D01*
X505764Y270236D01*
X505921Y270251D01*
X506110Y270283D01*
X506330Y270330D01*
X506566Y270408D01*
X506770Y270503D01*
X506975Y270644D01*
X506990Y270660D01*
X507053Y270723D01*
X507132Y270817D01*
X507226Y270959D01*
X507305Y271116D01*
X507383Y271320D01*
X507446Y271556D01*
X507462Y271824D01*
X507462Y271839D01*
X507462Y271886D01*
X507446Y271949D01*
X507431Y272028D01*
X507368Y272232D01*
X507321Y272358D01*
X507242Y272484D01*
X507163Y272594D01*
X507038Y272720D01*
X506912Y272830D01*
X506739Y272924D01*
X506550Y273003D01*
X506314Y273066D01*
X506047Y273113D01*
X505748Y273129D01*
X505748Y273129D02*
G37*
G36*
X505748Y269292D02*
X504553Y269292D01*
X504553Y266085D01*
X506126Y266085D01*
X506283Y266101D01*
X506503Y266132D01*
X506723Y266195D01*
X506959Y266258D01*
X507195Y266368D01*
X507399Y266509D01*
X507415Y266525D01*
X507478Y266588D01*
X507556Y266682D01*
X507651Y266824D01*
X507745Y266997D01*
X507824Y267201D01*
X507887Y267453D01*
X507902Y267720D01*
X507902Y267736D01*
X507902Y267783D01*
X507887Y267861D01*
X507871Y267971D01*
X507839Y268082D01*
X507792Y268223D01*
X507729Y268365D01*
X507635Y268506D01*
X507525Y268648D01*
X507383Y268789D01*
X507211Y268931D01*
X506990Y269041D01*
X506754Y269151D01*
X506456Y269229D01*
X506126Y269277D01*
X505748Y269292D01*
X505748Y269292D02*
G37*
G36*
X577192Y270802D02*
X577066Y270802D01*
X576940Y270770D01*
X576767Y270739D01*
X576579Y270676D01*
X576358Y270581D01*
X576154Y270456D01*
X575950Y270283D01*
X575934Y270267D01*
X575871Y270188D01*
X575793Y270078D01*
X575682Y269921D01*
X575572Y269732D01*
X575478Y269497D01*
X575399Y269229D01*
X575336Y268931D01*
X578780Y268931D01*
X578780Y268946D01*
X578780Y268978D01*
X578780Y269009D01*
X578780Y269072D01*
X578764Y269245D01*
X578733Y269434D01*
X578670Y269669D01*
X578607Y269890D01*
X578497Y270110D01*
X578355Y270314D01*
X578340Y270330D01*
X578277Y270393D01*
X578182Y270471D01*
X578056Y270566D01*
X577884Y270644D01*
X577679Y270723D01*
X577459Y270786D01*
X577192Y270802D01*
X577192Y270802D02*
G37*
G36*
X543907Y273270D02*
X543765Y273270D01*
X543671Y273254D01*
X543545Y273239D01*
X543420Y273223D01*
X543262Y273191D01*
X543089Y273144D01*
X542728Y273018D01*
X542539Y272940D01*
X542335Y272845D01*
X542146Y272720D01*
X541957Y272578D01*
X541785Y272421D01*
X541612Y272248D01*
X541596Y272232D01*
X541580Y272201D01*
X541533Y272138D01*
X541470Y272059D01*
X541407Y271965D01*
X541344Y271839D01*
X541266Y271698D01*
X541187Y271541D01*
X541093Y271352D01*
X541014Y271163D01*
X540951Y270943D01*
X540888Y270707D01*
X540825Y270456D01*
X540778Y270173D01*
X540762Y269890D01*
X540747Y269591D01*
X540747Y269575D01*
X540747Y269512D01*
X540747Y269434D01*
X540762Y269324D01*
X540778Y269182D01*
X540794Y269009D01*
X540825Y268836D01*
X540857Y268648D01*
X540951Y268223D01*
X541108Y267767D01*
X541203Y267547D01*
X541313Y267343D01*
X541454Y267122D01*
X541596Y266934D01*
X541612Y266918D01*
X541643Y266887D01*
X541690Y266840D01*
X541753Y266777D01*
X541832Y266698D01*
X541942Y266619D01*
X542067Y266525D01*
X542193Y266431D01*
X542351Y266336D01*
X542523Y266242D01*
X542901Y266085D01*
X543121Y266022D01*
X543341Y265975D01*
X543577Y265943D01*
X543828Y265928D01*
X543970Y265928D01*
X544080Y265943D01*
X544190Y265959D01*
X544347Y265975D01*
X544505Y266006D01*
X544677Y266053D01*
X545039Y266163D01*
X545243Y266242D01*
X545432Y266336D01*
X545621Y266446D01*
X545810Y266572D01*
X545982Y266714D01*
X546155Y266887D01*
X546171Y266902D01*
X546187Y266934D01*
X546234Y266981D01*
X546281Y267060D01*
X546360Y267170D01*
X546423Y267280D01*
X546501Y267421D01*
X546580Y267578D01*
X546659Y267767D01*
X546737Y267971D01*
X546816Y268192D01*
X546879Y268428D01*
X546926Y268679D01*
X546973Y268962D01*
X546989Y269261D01*
X547004Y269575D01*
X547004Y269591D01*
X547004Y269654D01*
X547004Y269748D01*
X546989Y269858D01*
X546973Y270015D01*
X546957Y270188D01*
X546941Y270377D01*
X546894Y270581D01*
X546800Y271006D01*
X546659Y271462D01*
X546564Y271682D01*
X546454Y271902D01*
X546313Y272106D01*
X546171Y272295D01*
X546155Y272311D01*
X546140Y272342D01*
X546092Y272390D01*
X546014Y272452D01*
X545935Y272515D01*
X545841Y272610D01*
X545715Y272688D01*
X545589Y272783D01*
X545432Y272877D01*
X545259Y272956D01*
X545070Y273050D01*
X544866Y273113D01*
X544646Y273176D01*
X544426Y273223D01*
X544174Y273254D01*
X543907Y273270D01*
X543907Y273270D02*
G37*
G36*
X513421Y270802D02*
X513327Y270802D01*
X513264Y270786D01*
X513075Y270770D01*
X512855Y270723D01*
X512603Y270644D01*
X512336Y270519D01*
X512085Y270346D01*
X511959Y270251D01*
X511849Y270126D01*
X511817Y270094D01*
X511754Y270000D01*
X511676Y269858D01*
X511566Y269654D01*
X511456Y269387D01*
X511377Y269072D01*
X511314Y268710D01*
X511283Y268286D01*
X511283Y268270D01*
X511283Y268239D01*
X511283Y268176D01*
X511298Y268097D01*
X511298Y268003D01*
X511314Y267893D01*
X511361Y267641D01*
X511424Y267358D01*
X511534Y267060D01*
X511676Y266761D01*
X511864Y266494D01*
X511896Y266462D01*
X511974Y266399D01*
X512100Y266289D01*
X512273Y266179D01*
X512493Y266053D01*
X512761Y265943D01*
X513075Y265880D01*
X513421Y265849D01*
X513515Y265849D01*
X513578Y265865D01*
X513767Y265880D01*
X513987Y265928D01*
X514223Y266006D01*
X514490Y266116D01*
X514726Y266273D01*
X514946Y266478D01*
X514962Y266509D01*
X515025Y266604D01*
X515119Y266745D01*
X515213Y266950D01*
X515308Y267217D01*
X515402Y267531D01*
X515465Y267893D01*
X515481Y268317D01*
X515481Y268333D01*
X515481Y268365D01*
X515481Y268428D01*
X515481Y268522D01*
X515465Y268616D01*
X515449Y268726D01*
X515418Y268993D01*
X515355Y269292D01*
X515261Y269591D01*
X515119Y269890D01*
X514946Y270157D01*
X514915Y270188D01*
X514852Y270251D01*
X514726Y270361D01*
X514553Y270487D01*
X514333Y270597D01*
X514081Y270707D01*
X513767Y270770D01*
X513421Y270802D01*
X513421Y270802D02*
G37*
G36*
X646707Y266716D02*
X645166Y266495D01*
X645135Y266495D01*
X645056Y266480D01*
X644930Y266448D01*
X644773Y266417D01*
X644600Y266370D01*
X644411Y266307D01*
X644254Y266244D01*
X644097Y266150D01*
X644081Y266134D01*
X644034Y266102D01*
X643987Y266039D01*
X643924Y265945D01*
X643845Y265819D01*
X643798Y265662D01*
X643751Y265473D01*
X643735Y265253D01*
X643735Y265238D01*
X643735Y265175D01*
X643751Y265096D01*
X643782Y264986D01*
X643814Y264860D01*
X643877Y264734D01*
X643955Y264609D01*
X644065Y264483D01*
X644081Y264467D01*
X644128Y264436D01*
X644207Y264389D01*
X644301Y264341D01*
X644427Y264294D01*
X644584Y264247D01*
X644757Y264216D01*
X644961Y264200D01*
X644993Y264200D01*
X645087Y264216D01*
X645229Y264231D01*
X645402Y264263D01*
X645591Y264326D01*
X645811Y264420D01*
X646015Y264562D01*
X646204Y264734D01*
X646219Y264766D01*
X646282Y264829D01*
X646361Y264939D01*
X646455Y265096D01*
X646550Y265300D01*
X646628Y265521D01*
X646691Y265788D01*
X646707Y266071D01*
X646707Y266716D01*
X646707Y266716D02*
G37*
G36*
X630748Y271479D02*
X629553Y271479D01*
X629553Y268587D01*
X630764Y268587D01*
X630921Y268602D01*
X631110Y268634D01*
X631330Y268681D01*
X631566Y268759D01*
X631770Y268854D01*
X631975Y268995D01*
X631990Y269011D01*
X632053Y269074D01*
X632132Y269168D01*
X632226Y269310D01*
X632305Y269467D01*
X632383Y269671D01*
X632446Y269907D01*
X632462Y270174D01*
X632462Y270190D01*
X632462Y270237D01*
X632446Y270300D01*
X632431Y270379D01*
X632368Y270583D01*
X632321Y270709D01*
X632242Y270835D01*
X632163Y270945D01*
X632038Y271071D01*
X631912Y271181D01*
X631739Y271275D01*
X631550Y271354D01*
X631314Y271416D01*
X631047Y271464D01*
X630748Y271479D01*
X630748Y271479D02*
G37*
G36*
X630748Y267643D02*
X629553Y267643D01*
X629553Y264436D01*
X631126Y264436D01*
X631283Y264451D01*
X631503Y264483D01*
X631723Y264546D01*
X631959Y264609D01*
X632195Y264719D01*
X632399Y264860D01*
X632415Y264876D01*
X632478Y264939D01*
X632556Y265033D01*
X632651Y265175D01*
X632745Y265348D01*
X632824Y265552D01*
X632887Y265804D01*
X632902Y266071D01*
X632902Y266087D01*
X632902Y266134D01*
X632887Y266212D01*
X632871Y266322D01*
X632839Y266432D01*
X632792Y266574D01*
X632729Y266716D01*
X632635Y266857D01*
X632525Y266999D01*
X632383Y267140D01*
X632211Y267281D01*
X631990Y267391D01*
X631755Y267502D01*
X631456Y267580D01*
X631126Y267627D01*
X630748Y267643D01*
X630748Y267643D02*
G37*
G36*
X687302Y269153D02*
X687208Y269153D01*
X687145Y269137D01*
X686957Y269121D01*
X686737Y269074D01*
X686485Y268995D01*
X686218Y268869D01*
X685966Y268696D01*
X685840Y268602D01*
X685730Y268476D01*
X685699Y268445D01*
X685636Y268351D01*
X685557Y268209D01*
X685447Y268005D01*
X685337Y267737D01*
X685259Y267423D01*
X685196Y267061D01*
X685164Y266637D01*
X685164Y266621D01*
X685164Y266590D01*
X685164Y266527D01*
X685180Y266448D01*
X685180Y266354D01*
X685196Y266244D01*
X685243Y265992D01*
X685306Y265709D01*
X685416Y265410D01*
X685557Y265112D01*
X685746Y264844D01*
X685777Y264813D01*
X685856Y264750D01*
X685982Y264640D01*
X686155Y264530D01*
X686375Y264404D01*
X686642Y264294D01*
X686957Y264231D01*
X687302Y264200D01*
X687397Y264200D01*
X687460Y264216D01*
X687648Y264231D01*
X687868Y264279D01*
X688104Y264357D01*
X688372Y264467D01*
X688607Y264624D01*
X688828Y264829D01*
X688843Y264860D01*
X688906Y264954D01*
X689001Y265096D01*
X689095Y265300D01*
X689189Y265568D01*
X689284Y265882D01*
X689346Y266244D01*
X689362Y266668D01*
X689362Y266684D01*
X689362Y266716D01*
X689362Y266778D01*
X689362Y266873D01*
X689346Y266967D01*
X689331Y267077D01*
X689299Y267344D01*
X689236Y267643D01*
X689142Y267942D01*
X689001Y268241D01*
X688828Y268508D01*
X688796Y268539D01*
X688733Y268602D01*
X688607Y268712D01*
X688435Y268838D01*
X688214Y268948D01*
X687963Y269058D01*
X687648Y269121D01*
X687302Y269153D01*
X687302Y269153D02*
G37*
G36*
X638421Y269153D02*
X638327Y269153D01*
X638264Y269137D01*
X638075Y269121D01*
X637855Y269074D01*
X637603Y268995D01*
X637336Y268869D01*
X637085Y268696D01*
X636959Y268602D01*
X636849Y268476D01*
X636817Y268445D01*
X636754Y268351D01*
X636676Y268209D01*
X636566Y268005D01*
X636456Y267737D01*
X636377Y267423D01*
X636314Y267061D01*
X636283Y266637D01*
X636283Y266621D01*
X636283Y266590D01*
X636283Y266527D01*
X636298Y266448D01*
X636298Y266354D01*
X636314Y266244D01*
X636361Y265992D01*
X636424Y265709D01*
X636534Y265410D01*
X636676Y265112D01*
X636864Y264844D01*
X636896Y264813D01*
X636974Y264750D01*
X637100Y264640D01*
X637273Y264530D01*
X637493Y264404D01*
X637761Y264294D01*
X638075Y264231D01*
X638421Y264200D01*
X638515Y264200D01*
X638578Y264216D01*
X638767Y264231D01*
X638987Y264279D01*
X639223Y264357D01*
X639490Y264467D01*
X639726Y264624D01*
X639946Y264829D01*
X639962Y264860D01*
X640025Y264954D01*
X640119Y265096D01*
X640213Y265300D01*
X640308Y265568D01*
X640402Y265882D01*
X640465Y266244D01*
X640481Y266668D01*
X640481Y266684D01*
X640481Y266716D01*
X640481Y266778D01*
X640481Y266873D01*
X640465Y266967D01*
X640449Y267077D01*
X640418Y267344D01*
X640355Y267643D01*
X640260Y267942D01*
X640119Y268241D01*
X639946Y268508D01*
X639915Y268539D01*
X639852Y268602D01*
X639726Y268712D01*
X639553Y268838D01*
X639333Y268948D01*
X639081Y269058D01*
X638767Y269121D01*
X638421Y269153D01*
X638421Y269153D02*
G37*
%LPD*%
D12*
X212421Y-325728D02*
X214272Y-327579D01*
X216305Y-329225D01*
X218500Y-330651D01*
X220832Y-331839D01*
X223275Y-332776D01*
X225802Y-333454D01*
X228387Y-333863D01*
X231000Y-334000D01*
X231035Y-333998D02*
X261336Y-333998D01*
X261330Y-334000D02*
X263918Y-333659D01*
X266330Y-332660D01*
X268401Y-331071D01*
X269990Y-329000D01*
X270989Y-326588D01*
X271330Y-324000D01*
X271336Y-323998D02*
X271336Y-300478D01*
X271330Y-300480D02*
X271671Y-297892D01*
X272670Y-295480D01*
X274259Y-293409D01*
X276330Y-291820D01*
X278742Y-290821D01*
X281330Y-290480D01*
X281336Y-290498D02*
X288336Y-290498D01*
X288330Y-290500D02*
X290918Y-290841D01*
X293330Y-291840D01*
X295401Y-293429D01*
X296990Y-295500D01*
X297989Y-297912D01*
X298330Y-300500D01*
X298336Y-300498D02*
X298336Y-340998D01*
X298330Y-341000D02*
X298722Y-343472D01*
X299858Y-345702D01*
X301628Y-347472D01*
X303858Y-348609D01*
X306330Y-349000D01*
X306336Y-348998D02*
X355736Y-348998D01*
X355730Y-349000D02*
X358202Y-348609D01*
X360432Y-347472D01*
X362202Y-345702D01*
X363339Y-343472D01*
X363730Y-341000D01*
X363736Y-340980D02*
X363736Y-300480D01*
X363730Y-300500D02*
X364071Y-297912D01*
X365070Y-295500D01*
X366659Y-293429D01*
X368730Y-291840D01*
X371142Y-290841D01*
X373730Y-290500D01*
X373436Y-290498D02*
X380736Y-290498D01*
X380730Y-290480D02*
X383318Y-290821D01*
X385730Y-291820D01*
X387801Y-293409D01*
X389390Y-295480D01*
X390389Y-297892D01*
X390730Y-300480D01*
X390736Y-300478D02*
X390736Y-323998D01*
X390730Y-324000D02*
X391071Y-326588D01*
X392070Y-329000D01*
X393659Y-331071D01*
X395730Y-332660D01*
X398142Y-333659D01*
X400730Y-334000D01*
X400735Y-333998D02*
X431036Y-333998D01*
X431000Y-334000D02*
X433613Y-333863D01*
X436198Y-333454D01*
X438725Y-332776D01*
X441168Y-331839D01*
X443500Y-330651D01*
X445695Y-329225D01*
X447728Y-327579D01*
X449579Y-325728D01*
X451225Y-323695D01*
X452651Y-321500D01*
X453839Y-319168D01*
X454776Y-316725D01*
X455454Y-314198D01*
X455863Y-311613D01*
X456000Y-309000D01*
X456000Y-309000D02*
X456000Y91000D01*
X456000Y91000D02*
X455863Y93613D01*
X455454Y96198D01*
X454776Y98725D01*
X453839Y101168D01*
X452651Y103500D01*
X451225Y105695D01*
X449579Y107728D01*
X447728Y109579D01*
X445695Y111225D01*
X443500Y112651D01*
X441168Y113839D01*
X438725Y114776D01*
X436198Y115454D01*
X433613Y115863D01*
X431000Y116000D01*
X431000Y116000D02*
X400700Y116000D01*
X400700Y116000D02*
X398112Y115659D01*
X395700Y114660D01*
X393629Y113071D01*
X392040Y111000D01*
X391041Y108588D01*
X390700Y106000D01*
X390700Y106000D02*
X390700Y82480D01*
X390700Y82480D02*
X390359Y79892D01*
X389360Y77480D01*
X387771Y75409D01*
X385700Y73820D01*
X383288Y72821D01*
X380700Y72480D01*
X380700Y72500D02*
X373700Y72500D01*
X373700Y72500D02*
X371112Y72841D01*
X368700Y73840D01*
X366629Y75429D01*
X365040Y77500D01*
X364041Y79912D01*
X363700Y82500D01*
X363700Y82500D02*
X363700Y123000D01*
X363700Y123000D02*
X363308Y125472D01*
X362172Y127702D01*
X360402Y129472D01*
X358172Y130609D01*
X355700Y131000D01*
X355700Y131000D02*
X306300Y131000D01*
X306300Y131000D02*
X303828Y130609D01*
X301598Y129472D01*
X299828Y127702D01*
X298692Y125472D01*
X298300Y123000D01*
X298300Y122982D02*
X298300Y82482D01*
X298300Y82500D02*
X297959Y79912D01*
X296960Y77500D01*
X295371Y75429D01*
X293300Y73840D01*
X290888Y72841D01*
X288300Y72500D01*
X288600Y72500D02*
X281300Y72500D01*
X281300Y72480D02*
X278712Y72821D01*
X276300Y73820D01*
X274229Y75409D01*
X272640Y77480D01*
X271641Y79892D01*
X271300Y82480D01*
X271300Y82480D02*
X271300Y106000D01*
X271300Y106000D02*
X270959Y108588D01*
X269960Y111000D01*
X268371Y113071D01*
X266300Y114660D01*
X263888Y115659D01*
X261300Y116000D01*
X261300Y116000D02*
X231000Y116000D01*
X231000Y116000D02*
X228387Y115863D01*
X225802Y115454D01*
X223275Y114776D01*
X220832Y113839D01*
X218500Y112651D01*
X216305Y111225D01*
X214272Y109579D01*
X212421Y107728D01*
X210775Y105695D01*
X209349Y103500D01*
X208161Y101168D01*
X207224Y98725D01*
X206546Y96198D01*
X206137Y93613D01*
X206000Y91000D01*
X206000Y90917D02*
X206000Y-309000D01*
X206000Y-309000D02*
X206137Y-311613D01*
X206546Y-314198D01*
X207224Y-316725D01*
X208161Y-319168D01*
X209349Y-321500D01*
X210775Y-323695D01*
X212421Y-325728D01*
M02*
