G04*
G04 #@! TF.GenerationSoftware,Altium Limited,Altium Designer,21.9.2 (33)*
G04*
G04 Layer_Color=16711935*
%FSLAX44Y44*%
%MOMM*%
G71*
G04*
G04 #@! TF.SameCoordinates,2EA8CFF5-2370-4CCC-882B-FB9061A37F0A*
G04*
G04*
G04 #@! TF.FilePolarity,Negative*
G04*
G01*
G75*
%ADD12C,0.2000*%
%ADD63C,0.1500*%
%ADD64C,4.5000*%
%ADD65C,1.2600*%
%ADD66R,1.2600X1.2600*%
%ADD73C,1.1100*%
G04:AMPARAMS|DCode=77|XSize=0.9mm|YSize=4.3mm|CornerRadius=0.351mm|HoleSize=0mm|Usage=FLASHONLY|Rotation=0.000|XOffset=0mm|YOffset=0mm|HoleType=Round|Shape=RoundedRectangle|*
%AMROUNDEDRECTD77*
21,1,0.9000,3.5980,0,0,0.0*
21,1,0.1980,4.3000,0,0,0.0*
1,1,0.7020,0.0990,-1.7990*
1,1,0.7020,-0.0990,-1.7990*
1,1,0.7020,-0.0990,1.7990*
1,1,0.7020,0.0990,1.7990*
%
%ADD77ROUNDEDRECTD77*%
G04:AMPARAMS|DCode=78|XSize=0.9mm|YSize=4.8mm|CornerRadius=0.351mm|HoleSize=0mm|Usage=FLASHONLY|Rotation=0.000|XOffset=0mm|YOffset=0mm|HoleType=Round|Shape=RoundedRectangle|*
%AMROUNDEDRECTD78*
21,1,0.9000,4.0980,0,0,0.0*
21,1,0.1980,4.8000,0,0,0.0*
1,1,0.7020,0.0990,-2.0490*
1,1,0.7020,-0.0990,-2.0490*
1,1,0.7020,-0.0990,2.0490*
1,1,0.7020,0.0990,2.0490*
%
%ADD78ROUNDEDRECTD78*%
G36*
X564991Y274449D02*
X565054Y274449D01*
X565195Y274386D01*
X565274Y274339D01*
X565353Y274276D01*
X565368Y274261D01*
X565384Y274245D01*
X565463Y274151D01*
X565526Y273993D01*
X565541Y273899D01*
X565557Y273805D01*
X565557Y273789D01*
X565557Y273757D01*
X565541Y273710D01*
X565526Y273647D01*
X565478Y273490D01*
X565416Y273412D01*
X565353Y273333D01*
X565337Y273333D01*
X565321Y273302D01*
X565227Y273239D01*
X565085Y273176D01*
X564991Y273160D01*
X564897Y273144D01*
X564850Y273144D01*
X564802Y273160D01*
X564739Y273160D01*
X564582Y273223D01*
X564504Y273254D01*
X564425Y273317D01*
X564425Y273333D01*
X564394Y273349D01*
X564362Y273396D01*
X564331Y273443D01*
X564268Y273600D01*
X564252Y273694D01*
X564236Y273805D01*
X564236Y273820D01*
X564236Y273852D01*
X564252Y273899D01*
X564268Y273978D01*
X564315Y274119D01*
X564362Y274198D01*
X564425Y274276D01*
X564441Y274292D01*
X564456Y274308D01*
X564551Y274371D01*
X564708Y274433D01*
X564802Y274465D01*
X564944Y274465D01*
X564991Y274449D01*
X564991Y274449D02*
G37*
G36*
X534536Y265141D02*
X533514Y265141D01*
X533514Y266211D01*
X533483Y266211D01*
X533483Y266195D01*
X533451Y266163D01*
X533404Y266101D01*
X533357Y266022D01*
X533279Y265928D01*
X533184Y265833D01*
X533074Y265723D01*
X532948Y265613D01*
X532807Y265487D01*
X532634Y265377D01*
X532461Y265283D01*
X532257Y265189D01*
X532052Y265110D01*
X531816Y265047D01*
X531565Y265016D01*
X531297Y265000D01*
X531188Y265000D01*
X531093Y265016D01*
X530999Y265031D01*
X530873Y265047D01*
X530606Y265110D01*
X530291Y265204D01*
X529977Y265361D01*
X529804Y265456D01*
X529662Y265566D01*
X529505Y265707D01*
X529364Y265849D01*
X529364Y265865D01*
X529332Y265896D01*
X529301Y265943D01*
X529254Y266006D01*
X529206Y266085D01*
X529143Y266195D01*
X529081Y266321D01*
X529018Y266462D01*
X528939Y266619D01*
X528876Y266792D01*
X528813Y266981D01*
X528766Y267185D01*
X528719Y267405D01*
X528688Y267657D01*
X528672Y267909D01*
X528656Y268176D01*
X528656Y268192D01*
X528656Y268239D01*
X528656Y268333D01*
X528672Y268443D01*
X528688Y268569D01*
X528703Y268726D01*
X528719Y268899D01*
X528750Y269088D01*
X528845Y269497D01*
X528986Y269921D01*
X529081Y270126D01*
X529191Y270330D01*
X529301Y270519D01*
X529442Y270707D01*
X529458Y270723D01*
X529474Y270754D01*
X529521Y270802D01*
X529584Y270865D01*
X529662Y270927D01*
X529772Y271006D01*
X529883Y271100D01*
X530008Y271195D01*
X530323Y271368D01*
X530684Y271525D01*
X530889Y271572D01*
X531109Y271619D01*
X531329Y271651D01*
X531581Y271666D01*
X531706Y271666D01*
X531801Y271651D01*
X531895Y271635D01*
X532021Y271619D01*
X532304Y271541D01*
X532618Y271415D01*
X532775Y271336D01*
X532933Y271226D01*
X533090Y271116D01*
X533231Y270975D01*
X533357Y270817D01*
X533483Y270629D01*
X533514Y270629D01*
X533514Y274591D01*
X534536Y274591D01*
X534536Y265141D01*
X534536Y265141D02*
G37*
G36*
X570777Y271651D02*
X570966Y271635D01*
X571202Y271588D01*
X571453Y271509D01*
X571720Y271383D01*
X571988Y271210D01*
X572098Y271116D01*
X572208Y270990D01*
X572239Y270959D01*
X572302Y270865D01*
X572381Y270707D01*
X572491Y270487D01*
X572585Y270220D01*
X572679Y269890D01*
X572742Y269497D01*
X572758Y269041D01*
X572758Y265141D01*
X571736Y265141D01*
X571736Y268773D01*
X571736Y268789D01*
X571736Y268868D01*
X571720Y268962D01*
X571720Y269088D01*
X571689Y269245D01*
X571657Y269418D01*
X571610Y269607D01*
X571547Y269795D01*
X571469Y269984D01*
X571374Y270157D01*
X571249Y270330D01*
X571107Y270487D01*
X570950Y270613D01*
X570746Y270707D01*
X570525Y270786D01*
X570258Y270802D01*
X570227Y270802D01*
X570132Y270786D01*
X569991Y270770D01*
X569818Y270723D01*
X569613Y270660D01*
X569393Y270550D01*
X569189Y270408D01*
X568985Y270220D01*
X568969Y270188D01*
X568906Y270126D01*
X568827Y270000D01*
X568733Y269827D01*
X568639Y269622D01*
X568560Y269371D01*
X568497Y269088D01*
X568481Y268773D01*
X568481Y265141D01*
X567459Y265141D01*
X567459Y271525D01*
X568481Y271525D01*
X568481Y270456D01*
X568513Y270456D01*
X568529Y270471D01*
X568544Y270503D01*
X568591Y270566D01*
X568654Y270644D01*
X568717Y270739D01*
X568812Y270833D01*
X568922Y270943D01*
X569048Y271069D01*
X569189Y271179D01*
X569346Y271289D01*
X569519Y271383D01*
X569708Y271478D01*
X569897Y271556D01*
X570117Y271619D01*
X570353Y271651D01*
X570604Y271666D01*
X570698Y271666D01*
X570777Y271651D01*
X570777Y271651D02*
G37*
G36*
X527603Y271619D02*
X527791Y271603D01*
X527901Y271572D01*
X527980Y271541D01*
X527980Y270487D01*
X527964Y270503D01*
X527933Y270519D01*
X527870Y270550D01*
X527791Y270597D01*
X527681Y270629D01*
X527540Y270660D01*
X527383Y270676D01*
X527210Y270692D01*
X527178Y270692D01*
X527100Y270676D01*
X526974Y270660D01*
X526832Y270613D01*
X526644Y270534D01*
X526471Y270424D01*
X526282Y270267D01*
X526109Y270063D01*
X526093Y270031D01*
X526046Y269953D01*
X525968Y269811D01*
X525889Y269622D01*
X525810Y269387D01*
X525732Y269088D01*
X525685Y268758D01*
X525669Y268380D01*
X525669Y265141D01*
X524647Y265141D01*
X524647Y271525D01*
X525669Y271525D01*
X525669Y270204D01*
X525700Y270204D01*
X525700Y270220D01*
X525716Y270236D01*
X525747Y270314D01*
X525795Y270440D01*
X525873Y270597D01*
X525952Y270754D01*
X526078Y270927D01*
X526203Y271100D01*
X526361Y271257D01*
X526376Y271273D01*
X526439Y271320D01*
X526534Y271383D01*
X526659Y271446D01*
X526801Y271509D01*
X526974Y271572D01*
X527163Y271619D01*
X527367Y271635D01*
X527508Y271635D01*
X527603Y271619D01*
X527603Y271619D02*
G37*
G36*
X554881Y265141D02*
X553859Y265141D01*
X553859Y266148D01*
X553828Y266148D01*
X553828Y266132D01*
X553797Y266101D01*
X553765Y266038D01*
X553702Y265975D01*
X553561Y265786D01*
X553341Y265582D01*
X553215Y265472D01*
X553073Y265361D01*
X552916Y265267D01*
X552727Y265173D01*
X552539Y265110D01*
X552334Y265047D01*
X552099Y265016D01*
X551863Y265000D01*
X551768Y265000D01*
X551658Y265016D01*
X551501Y265047D01*
X551328Y265079D01*
X551139Y265141D01*
X550935Y265220D01*
X550731Y265346D01*
X550510Y265487D01*
X550306Y265660D01*
X550117Y265880D01*
X549944Y266148D01*
X549787Y266446D01*
X549677Y266808D01*
X549614Y267232D01*
X549583Y267453D01*
X549583Y267704D01*
X549583Y271525D01*
X550589Y271525D01*
X550589Y267861D01*
X550589Y267846D01*
X550589Y267783D01*
X550605Y267673D01*
X550621Y267547D01*
X550636Y267390D01*
X550668Y267232D01*
X550715Y267044D01*
X550778Y266855D01*
X550872Y266667D01*
X550966Y266494D01*
X551092Y266321D01*
X551250Y266163D01*
X551422Y266038D01*
X551627Y265943D01*
X551878Y265865D01*
X552146Y265849D01*
X552177Y265849D01*
X552271Y265865D01*
X552413Y265880D01*
X552570Y265912D01*
X552775Y265991D01*
X552979Y266085D01*
X553183Y266211D01*
X553372Y266399D01*
X553388Y266431D01*
X553451Y266494D01*
X553529Y266619D01*
X553624Y266792D01*
X553702Y266997D01*
X553781Y267248D01*
X553844Y267531D01*
X553859Y267846D01*
X553859Y271525D01*
X554881Y271525D01*
X554881Y265141D01*
X554881Y265141D02*
G37*
G36*
X565384Y265141D02*
X564362Y265141D01*
X564362Y271525D01*
X565384Y271525D01*
X565384Y265141D01*
X565384Y265141D02*
G37*
G36*
X562287Y265141D02*
X561265Y265141D01*
X561265Y274591D01*
X562287Y274591D01*
X562287Y265141D01*
X562287Y265141D02*
G37*
G36*
X520685Y271651D02*
X520826Y271635D01*
X520999Y271588D01*
X521188Y271541D01*
X521392Y271462D01*
X521612Y271368D01*
X521817Y271242D01*
X522021Y271085D01*
X522210Y270896D01*
X522383Y270660D01*
X522524Y270393D01*
X522634Y270078D01*
X522697Y269717D01*
X522729Y269292D01*
X522729Y265141D01*
X521707Y265141D01*
X521707Y266132D01*
X521675Y266132D01*
X521675Y266116D01*
X521644Y266085D01*
X521612Y266022D01*
X521549Y265959D01*
X521392Y265770D01*
X521188Y265566D01*
X520905Y265361D01*
X520575Y265173D01*
X520370Y265110D01*
X520166Y265047D01*
X519946Y265016D01*
X519710Y265000D01*
X519616Y265000D01*
X519553Y265016D01*
X519380Y265031D01*
X519175Y265063D01*
X518924Y265126D01*
X518688Y265204D01*
X518436Y265330D01*
X518216Y265487D01*
X518201Y265519D01*
X518138Y265582D01*
X518043Y265692D01*
X517949Y265849D01*
X517855Y266038D01*
X517760Y266258D01*
X517697Y266525D01*
X517682Y266824D01*
X517682Y266840D01*
X517682Y266902D01*
X517697Y266997D01*
X517713Y267107D01*
X517745Y267248D01*
X517792Y267405D01*
X517855Y267578D01*
X517949Y267751D01*
X518059Y267940D01*
X518201Y268129D01*
X518373Y268302D01*
X518578Y268459D01*
X518814Y268616D01*
X519097Y268742D01*
X519411Y268836D01*
X519789Y268915D01*
X521707Y269182D01*
X521707Y269198D01*
X521707Y269245D01*
X521691Y269339D01*
X521691Y269434D01*
X521660Y269559D01*
X521644Y269701D01*
X521549Y270000D01*
X521471Y270141D01*
X521392Y270283D01*
X521282Y270424D01*
X521156Y270550D01*
X520999Y270660D01*
X520826Y270739D01*
X520622Y270786D01*
X520386Y270802D01*
X520276Y270802D01*
X520197Y270786D01*
X520087Y270786D01*
X519977Y270754D01*
X519694Y270707D01*
X519380Y270613D01*
X519034Y270471D01*
X518845Y270377D01*
X518672Y270283D01*
X518484Y270157D01*
X518311Y270015D01*
X518311Y271069D01*
X518326Y271069D01*
X518358Y271100D01*
X518405Y271132D01*
X518484Y271163D01*
X518562Y271210D01*
X518672Y271257D01*
X518798Y271305D01*
X518940Y271368D01*
X519254Y271478D01*
X519631Y271572D01*
X520040Y271635D01*
X520480Y271666D01*
X520575Y271666D01*
X520685Y271651D01*
X520685Y271651D02*
G37*
G36*
X506236Y274056D02*
X506346Y274056D01*
X506456Y274040D01*
X506707Y274009D01*
X507006Y273930D01*
X507321Y273836D01*
X507619Y273694D01*
X507887Y273506D01*
X507902Y273506D01*
X507918Y273474D01*
X507997Y273412D01*
X508107Y273286D01*
X508232Y273113D01*
X508343Y272893D01*
X508453Y272641D01*
X508531Y272358D01*
X508563Y272201D01*
X508563Y272028D01*
X508563Y272012D01*
X508563Y271996D01*
X508563Y271902D01*
X508547Y271761D01*
X508516Y271588D01*
X508468Y271368D01*
X508390Y271147D01*
X508295Y270927D01*
X508154Y270707D01*
X508138Y270676D01*
X508075Y270613D01*
X507981Y270519D01*
X507855Y270393D01*
X507698Y270267D01*
X507509Y270126D01*
X507273Y270015D01*
X507022Y269905D01*
X507022Y269890D01*
X507069Y269890D01*
X507116Y269874D01*
X507163Y269858D01*
X507336Y269827D01*
X507541Y269764D01*
X507761Y269669D01*
X507997Y269559D01*
X508232Y269402D01*
X508453Y269198D01*
X508484Y269166D01*
X508547Y269088D01*
X508625Y268978D01*
X508736Y268805D01*
X508830Y268585D01*
X508924Y268333D01*
X508987Y268034D01*
X509003Y267704D01*
X509003Y267689D01*
X509003Y267657D01*
X509003Y267594D01*
X508987Y267516D01*
X508971Y267421D01*
X508956Y267311D01*
X508893Y267044D01*
X508798Y266745D01*
X508657Y266431D01*
X508563Y266289D01*
X508453Y266132D01*
X508311Y265991D01*
X508170Y265849D01*
X508154Y265849D01*
X508138Y265818D01*
X508091Y265786D01*
X508028Y265739D01*
X507949Y265692D01*
X507839Y265629D01*
X507604Y265503D01*
X507305Y265361D01*
X506959Y265252D01*
X506550Y265173D01*
X506346Y265157D01*
X506110Y265141D01*
X503500Y265141D01*
X503500Y274072D01*
X506157Y274072D01*
X506236Y274056D01*
X506236Y274056D02*
G37*
G36*
X558293Y271525D02*
X559913Y271525D01*
X559913Y270644D01*
X558293Y270644D01*
X558293Y267044D01*
X558293Y267012D01*
X558293Y266934D01*
X558309Y266824D01*
X558325Y266682D01*
X558388Y266383D01*
X558435Y266242D01*
X558513Y266132D01*
X558529Y266116D01*
X558560Y266085D01*
X558608Y266053D01*
X558686Y266006D01*
X558781Y265943D01*
X558906Y265912D01*
X559064Y265880D01*
X559237Y265865D01*
X559300Y265865D01*
X559378Y265880D01*
X559472Y265896D01*
X559692Y265959D01*
X559803Y266006D01*
X559913Y266069D01*
X559913Y265189D01*
X559897Y265189D01*
X559850Y265157D01*
X559771Y265141D01*
X559661Y265110D01*
X559520Y265079D01*
X559362Y265047D01*
X559174Y265031D01*
X558954Y265016D01*
X558875Y265016D01*
X558796Y265031D01*
X558686Y265047D01*
X558560Y265079D01*
X558419Y265110D01*
X558278Y265173D01*
X558120Y265252D01*
X557963Y265346D01*
X557806Y265472D01*
X557664Y265613D01*
X557538Y265802D01*
X557429Y266006D01*
X557350Y266258D01*
X557287Y266541D01*
X557271Y266871D01*
X557271Y270644D01*
X556186Y270644D01*
X556186Y271525D01*
X557271Y271525D01*
X557271Y273081D01*
X558293Y273412D01*
X558293Y271525D01*
X558293Y271525D02*
G37*
G36*
X577412Y271651D02*
X577522Y271635D01*
X577632Y271619D01*
X577915Y271572D01*
X578229Y271462D01*
X578544Y271320D01*
X578701Y271226D01*
X578858Y271116D01*
X579000Y270990D01*
X579141Y270849D01*
X579157Y270833D01*
X579173Y270817D01*
X579204Y270770D01*
X579251Y270707D01*
X579299Y270613D01*
X579361Y270519D01*
X579424Y270408D01*
X579487Y270267D01*
X579550Y270110D01*
X579613Y269953D01*
X579676Y269764D01*
X579723Y269559D01*
X579770Y269339D01*
X579802Y269119D01*
X579833Y268868D01*
X579833Y268600D01*
X579833Y268066D01*
X575321Y268066D01*
X575321Y268050D01*
X575321Y268019D01*
X575321Y267971D01*
X575336Y267893D01*
X575352Y267799D01*
X575352Y267704D01*
X575399Y267453D01*
X575478Y267201D01*
X575572Y266918D01*
X575714Y266651D01*
X575887Y266415D01*
X575918Y266383D01*
X575981Y266321D01*
X576107Y266242D01*
X576280Y266132D01*
X576500Y266022D01*
X576752Y265943D01*
X577050Y265880D01*
X577396Y265849D01*
X577506Y265849D01*
X577585Y265865D01*
X577679Y265865D01*
X577789Y265880D01*
X578056Y265943D01*
X578355Y266022D01*
X578685Y266148D01*
X579031Y266321D01*
X579204Y266431D01*
X579377Y266556D01*
X579377Y265597D01*
X579361Y265597D01*
X579346Y265566D01*
X579299Y265550D01*
X579220Y265503D01*
X579141Y265456D01*
X579047Y265409D01*
X578921Y265361D01*
X578796Y265299D01*
X578638Y265236D01*
X578465Y265189D01*
X578088Y265094D01*
X577648Y265031D01*
X577160Y265000D01*
X577035Y265000D01*
X576940Y265016D01*
X576830Y265031D01*
X576689Y265047D01*
X576390Y265110D01*
X576044Y265204D01*
X575698Y265361D01*
X575525Y265472D01*
X575352Y265582D01*
X575195Y265707D01*
X575038Y265865D01*
X575022Y265880D01*
X575006Y265912D01*
X574975Y265959D01*
X574912Y266022D01*
X574865Y266116D01*
X574802Y266226D01*
X574723Y266352D01*
X574660Y266494D01*
X574582Y266651D01*
X574519Y266840D01*
X574440Y267044D01*
X574393Y267264D01*
X574346Y267500D01*
X574299Y267751D01*
X574283Y268019D01*
X574267Y268302D01*
X574267Y268317D01*
X574267Y268365D01*
X574267Y268443D01*
X574283Y268553D01*
X574299Y268679D01*
X574314Y268820D01*
X574330Y268993D01*
X574377Y269166D01*
X574472Y269544D01*
X574613Y269953D01*
X574708Y270157D01*
X574833Y270346D01*
X574959Y270550D01*
X575101Y270723D01*
X575116Y270739D01*
X575148Y270770D01*
X575195Y270817D01*
X575258Y270865D01*
X575336Y270943D01*
X575431Y271022D01*
X575557Y271100D01*
X575682Y271195D01*
X575981Y271368D01*
X576343Y271525D01*
X576547Y271572D01*
X576752Y271619D01*
X576972Y271651D01*
X577207Y271666D01*
X577333Y271666D01*
X577412Y271651D01*
X577412Y271651D02*
G37*
G36*
X544284Y274213D02*
X544442Y274198D01*
X544630Y274166D01*
X544835Y274119D01*
X545055Y274072D01*
X545275Y274009D01*
X545527Y273930D01*
X545762Y273820D01*
X546014Y273694D01*
X546265Y273553D01*
X546501Y273380D01*
X546737Y273191D01*
X546957Y272971D01*
X546973Y272956D01*
X547004Y272908D01*
X547067Y272845D01*
X547130Y272751D01*
X547225Y272625D01*
X547319Y272468D01*
X547413Y272295D01*
X547523Y272106D01*
X547633Y271871D01*
X547728Y271635D01*
X547822Y271368D01*
X547916Y271069D01*
X547979Y270770D01*
X548042Y270440D01*
X548074Y270078D01*
X548089Y269717D01*
X548089Y269685D01*
X548089Y269622D01*
X548089Y269512D01*
X548074Y269355D01*
X548058Y269166D01*
X548026Y268962D01*
X547995Y268726D01*
X547948Y268459D01*
X547885Y268192D01*
X547806Y267909D01*
X547712Y267626D01*
X547602Y267343D01*
X547460Y267044D01*
X547303Y266777D01*
X547130Y266509D01*
X546926Y266258D01*
X546910Y266242D01*
X546879Y266211D01*
X546800Y266148D01*
X546721Y266069D01*
X546596Y265959D01*
X546454Y265865D01*
X546297Y265739D01*
X546108Y265629D01*
X545904Y265519D01*
X545668Y265393D01*
X545416Y265299D01*
X545133Y265204D01*
X544835Y265110D01*
X544520Y265047D01*
X544190Y265016D01*
X543828Y265000D01*
X543750Y265000D01*
X543640Y265016D01*
X543514Y265016D01*
X543357Y265031D01*
X543168Y265063D01*
X542964Y265110D01*
X542728Y265157D01*
X542492Y265220D01*
X542240Y265299D01*
X541989Y265409D01*
X541737Y265519D01*
X541486Y265660D01*
X541234Y265833D01*
X540998Y266022D01*
X540778Y266242D01*
X540762Y266258D01*
X540731Y266305D01*
X540668Y266368D01*
X540605Y266462D01*
X540511Y266588D01*
X540417Y266745D01*
X540322Y266918D01*
X540212Y267122D01*
X540102Y267343D01*
X540008Y267578D01*
X539913Y267846D01*
X539819Y268144D01*
X539756Y268443D01*
X539693Y268773D01*
X539662Y269135D01*
X539646Y269497D01*
X539646Y269528D01*
X539646Y269591D01*
X539662Y269701D01*
X539662Y269858D01*
X539678Y270031D01*
X539709Y270251D01*
X539741Y270487D01*
X539788Y270739D01*
X539851Y271006D01*
X539929Y271289D01*
X540024Y271572D01*
X540134Y271855D01*
X540275Y272138D01*
X540432Y272421D01*
X540605Y272688D01*
X540810Y272940D01*
X540825Y272956D01*
X540857Y273003D01*
X540936Y273066D01*
X541030Y273144D01*
X541140Y273239D01*
X541281Y273349D01*
X541454Y273459D01*
X541643Y273584D01*
X541863Y273710D01*
X542099Y273820D01*
X542351Y273930D01*
X542634Y274025D01*
X542948Y274103D01*
X543278Y274182D01*
X543624Y274213D01*
X543986Y274229D01*
X544159Y274229D01*
X544284Y274213D01*
X544284Y274213D02*
G37*
G36*
X513735Y271651D02*
X513845Y271635D01*
X513987Y271619D01*
X514301Y271556D01*
X514663Y271446D01*
X515025Y271289D01*
X515213Y271195D01*
X515386Y271085D01*
X515559Y270943D01*
X515716Y270786D01*
X515732Y270770D01*
X515748Y270739D01*
X515795Y270692D01*
X515842Y270629D01*
X515905Y270534D01*
X515968Y270424D01*
X516047Y270298D01*
X516125Y270157D01*
X516188Y269984D01*
X516267Y269811D01*
X516330Y269607D01*
X516393Y269387D01*
X516440Y269151D01*
X516487Y268899D01*
X516502Y268632D01*
X516518Y268349D01*
X516518Y268333D01*
X516518Y268286D01*
X516518Y268207D01*
X516502Y268097D01*
X516487Y267971D01*
X516471Y267814D01*
X516440Y267657D01*
X516408Y267468D01*
X516314Y267091D01*
X516157Y266682D01*
X516062Y266478D01*
X515937Y266273D01*
X515811Y266085D01*
X515653Y265912D01*
X515638Y265896D01*
X515606Y265880D01*
X515559Y265833D01*
X515496Y265770D01*
X515402Y265707D01*
X515308Y265629D01*
X515182Y265534D01*
X515040Y265456D01*
X514883Y265377D01*
X514710Y265283D01*
X514521Y265204D01*
X514317Y265141D01*
X514097Y265079D01*
X513861Y265047D01*
X513610Y265016D01*
X513342Y265000D01*
X513201Y265000D01*
X513106Y265016D01*
X512996Y265031D01*
X512855Y265047D01*
X512698Y265079D01*
X512525Y265110D01*
X512163Y265220D01*
X511786Y265377D01*
X511597Y265472D01*
X511424Y265597D01*
X511251Y265723D01*
X511078Y265880D01*
X511063Y265896D01*
X511047Y265928D01*
X511000Y265975D01*
X510952Y266038D01*
X510890Y266132D01*
X510811Y266242D01*
X510732Y266368D01*
X510670Y266509D01*
X510591Y266682D01*
X510512Y266855D01*
X510434Y267044D01*
X510371Y267264D01*
X510276Y267736D01*
X510261Y267987D01*
X510245Y268255D01*
X510245Y268270D01*
X510245Y268333D01*
X510245Y268412D01*
X510261Y268522D01*
X510276Y268648D01*
X510292Y268805D01*
X510324Y268978D01*
X510355Y269166D01*
X510449Y269575D01*
X510607Y269984D01*
X510717Y270188D01*
X510827Y270393D01*
X510952Y270581D01*
X511110Y270754D01*
X511125Y270770D01*
X511157Y270802D01*
X511204Y270833D01*
X511267Y270896D01*
X511361Y270959D01*
X511471Y271037D01*
X511597Y271132D01*
X511739Y271210D01*
X511896Y271289D01*
X512085Y271383D01*
X512273Y271462D01*
X512493Y271525D01*
X512713Y271588D01*
X512965Y271635D01*
X513232Y271651D01*
X513499Y271666D01*
X513641Y271666D01*
X513735Y271651D01*
X513735Y271651D02*
G37*
G36*
X609266Y160336D02*
X609329Y160336D01*
X609470Y160273D01*
X609549Y160226D01*
X609627Y160163D01*
X609643Y160147D01*
X609659Y160131D01*
X609738Y160037D01*
X609800Y159880D01*
X609816Y159786D01*
X609832Y159691D01*
X609832Y159676D01*
X609832Y159644D01*
X609816Y159597D01*
X609800Y159534D01*
X609753Y159377D01*
X609690Y159298D01*
X609627Y159220D01*
X609612Y159220D01*
X609596Y159188D01*
X609502Y159125D01*
X609360Y159062D01*
X609266Y159047D01*
X609172Y159031D01*
X609124Y159031D01*
X609077Y159047D01*
X609014Y159047D01*
X608857Y159109D01*
X608778Y159141D01*
X608700Y159204D01*
X608700Y159220D01*
X608668Y159235D01*
X608637Y159283D01*
X608605Y159330D01*
X608543Y159487D01*
X608527Y159581D01*
X608511Y159691D01*
X608511Y159707D01*
X608511Y159738D01*
X608527Y159786D01*
X608543Y159864D01*
X608590Y160006D01*
X608637Y160084D01*
X608700Y160163D01*
X608716Y160179D01*
X608731Y160194D01*
X608826Y160257D01*
X608983Y160320D01*
X609077Y160352D01*
X609219Y160352D01*
X609266Y160336D01*
X609266Y160336D02*
G37*
G36*
X551941Y160100D02*
X552067Y160100D01*
X552350Y160069D01*
X552664Y160037D01*
X552979Y159974D01*
X553278Y159896D01*
X553404Y159848D01*
X553529Y159786D01*
X553529Y158606D01*
X553513Y158606D01*
X553498Y158638D01*
X553451Y158654D01*
X553388Y158701D01*
X553309Y158732D01*
X553215Y158779D01*
X552979Y158889D01*
X552696Y158984D01*
X552350Y159078D01*
X551941Y159141D01*
X551501Y159157D01*
X551375Y159157D01*
X551281Y159141D01*
X551187Y159141D01*
X551061Y159125D01*
X550809Y159078D01*
X550793Y159078D01*
X550746Y159062D01*
X550684Y159047D01*
X550605Y159031D01*
X550416Y158952D01*
X550196Y158858D01*
X550180Y158858D01*
X550149Y158827D01*
X550102Y158795D01*
X550039Y158748D01*
X549897Y158606D01*
X549756Y158434D01*
X549756Y158418D01*
X549724Y158386D01*
X549709Y158339D01*
X549677Y158260D01*
X549646Y158166D01*
X549630Y158072D01*
X549599Y157820D01*
X549599Y157805D01*
X549599Y157757D01*
X549599Y157695D01*
X549614Y157616D01*
X549646Y157427D01*
X549724Y157223D01*
X549724Y157207D01*
X549756Y157176D01*
X549772Y157128D01*
X549819Y157066D01*
X549944Y156924D01*
X550102Y156767D01*
X550117Y156751D01*
X550149Y156735D01*
X550196Y156688D01*
X550275Y156641D01*
X550369Y156578D01*
X550463Y156515D01*
X550715Y156358D01*
X550731Y156342D01*
X550778Y156327D01*
X550856Y156279D01*
X550951Y156232D01*
X551077Y156169D01*
X551218Y156107D01*
X551533Y155949D01*
X551548Y155934D01*
X551611Y155902D01*
X551705Y155855D01*
X551831Y155792D01*
X551973Y155729D01*
X552130Y155635D01*
X552444Y155446D01*
X552460Y155430D01*
X552523Y155399D01*
X552602Y155352D01*
X552712Y155273D01*
X552948Y155085D01*
X553199Y154864D01*
X553215Y154849D01*
X553262Y154817D01*
X553309Y154739D01*
X553388Y154660D01*
X553466Y154550D01*
X553561Y154440D01*
X553718Y154157D01*
X553734Y154141D01*
X553749Y154094D01*
X553781Y154015D01*
X553812Y153905D01*
X553844Y153780D01*
X553875Y153622D01*
X553907Y153465D01*
X553907Y153277D01*
X553907Y153245D01*
X553907Y153166D01*
X553891Y153041D01*
X553875Y152883D01*
X553844Y152710D01*
X553797Y152522D01*
X553734Y152333D01*
X553639Y152160D01*
X553624Y152144D01*
X553592Y152081D01*
X553529Y152003D01*
X553466Y151893D01*
X553356Y151783D01*
X553246Y151657D01*
X553105Y151531D01*
X552948Y151405D01*
X552932Y151390D01*
X552869Y151358D01*
X552775Y151311D01*
X552649Y151248D01*
X552507Y151185D01*
X552334Y151123D01*
X552130Y151060D01*
X551926Y151012D01*
X551894Y151012D01*
X551831Y150997D01*
X551721Y150981D01*
X551564Y150949D01*
X551391Y150934D01*
X551187Y150902D01*
X550966Y150887D01*
X550589Y150887D01*
X550416Y150902D01*
X550196Y150918D01*
X550149Y150918D01*
X550086Y150934D01*
X550007Y150949D01*
X549803Y150965D01*
X549567Y151012D01*
X549552Y151012D01*
X549504Y151028D01*
X549441Y151044D01*
X549363Y151060D01*
X549174Y151107D01*
X548954Y151170D01*
X548938Y151170D01*
X548907Y151185D01*
X548860Y151201D01*
X548797Y151233D01*
X548639Y151295D01*
X548482Y151390D01*
X548482Y152616D01*
X548498Y152600D01*
X548530Y152585D01*
X548561Y152553D01*
X548624Y152506D01*
X548797Y152396D01*
X549001Y152270D01*
X549017Y152270D01*
X549048Y152254D01*
X549111Y152223D01*
X549190Y152192D01*
X549394Y152097D01*
X549614Y152019D01*
X549630Y152019D01*
X549677Y152003D01*
X549740Y151987D01*
X549819Y151972D01*
X550039Y151909D01*
X550275Y151861D01*
X550338Y151861D01*
X550401Y151846D01*
X550479Y151846D01*
X550668Y151830D01*
X550888Y151814D01*
X551045Y151814D01*
X551218Y151830D01*
X551438Y151861D01*
X551674Y151893D01*
X551910Y151956D01*
X552130Y152050D01*
X552334Y152160D01*
X552350Y152176D01*
X552413Y152223D01*
X552492Y152317D01*
X552570Y152427D01*
X552664Y152569D01*
X552727Y152758D01*
X552790Y152962D01*
X552806Y153198D01*
X552806Y153214D01*
X552806Y153261D01*
X552806Y153324D01*
X552790Y153418D01*
X552743Y153622D01*
X552649Y153827D01*
X552649Y153842D01*
X552617Y153874D01*
X552586Y153921D01*
X552539Y153984D01*
X552397Y154141D01*
X552209Y154314D01*
X552193Y154330D01*
X552161Y154361D01*
X552099Y154393D01*
X552020Y154456D01*
X551926Y154518D01*
X551815Y154597D01*
X551548Y154739D01*
X551533Y154754D01*
X551485Y154770D01*
X551407Y154817D01*
X551297Y154864D01*
X551187Y154943D01*
X551045Y155006D01*
X550715Y155179D01*
X550699Y155195D01*
X550636Y155226D01*
X550542Y155273D01*
X550432Y155320D01*
X550306Y155399D01*
X550165Y155478D01*
X549850Y155651D01*
X549835Y155666D01*
X549787Y155698D01*
X549709Y155745D01*
X549614Y155808D01*
X549379Y155981D01*
X549143Y156185D01*
X549127Y156201D01*
X549095Y156232D01*
X549033Y156295D01*
X548970Y156374D01*
X548891Y156484D01*
X548812Y156594D01*
X548671Y156846D01*
X548671Y156861D01*
X548639Y156908D01*
X548624Y156987D01*
X548592Y157097D01*
X548561Y157223D01*
X548530Y157380D01*
X548514Y157537D01*
X548498Y157726D01*
X548498Y157757D01*
X548498Y157836D01*
X548514Y157946D01*
X548530Y158088D01*
X548561Y158260D01*
X548608Y158434D01*
X548671Y158606D01*
X548765Y158779D01*
X548781Y158795D01*
X548812Y158858D01*
X548875Y158937D01*
X548954Y159047D01*
X549048Y159157D01*
X549174Y159283D01*
X549316Y159408D01*
X549473Y159518D01*
X549489Y159534D01*
X549552Y159565D01*
X549646Y159628D01*
X549756Y159691D01*
X549913Y159754D01*
X550070Y159833D01*
X550259Y159896D01*
X550463Y159959D01*
X550495Y159959D01*
X550558Y159990D01*
X550668Y160006D01*
X550825Y160037D01*
X550998Y160069D01*
X551187Y160084D01*
X551611Y160116D01*
X551831Y160116D01*
X551941Y160100D01*
X551941Y160100D02*
G37*
G36*
X571579Y151028D02*
X570557Y151028D01*
X570557Y152097D01*
X570525Y152097D01*
X570525Y152081D01*
X570494Y152050D01*
X570447Y151987D01*
X570400Y151909D01*
X570321Y151814D01*
X570227Y151720D01*
X570117Y151610D01*
X569991Y151500D01*
X569849Y151374D01*
X569676Y151264D01*
X569503Y151170D01*
X569299Y151075D01*
X569095Y150997D01*
X568859Y150934D01*
X568607Y150902D01*
X568340Y150887D01*
X568230Y150887D01*
X568136Y150902D01*
X568041Y150918D01*
X567915Y150934D01*
X567648Y150997D01*
X567334Y151091D01*
X567019Y151248D01*
X566846Y151343D01*
X566705Y151453D01*
X566548Y151594D01*
X566406Y151736D01*
X566406Y151751D01*
X566375Y151783D01*
X566343Y151830D01*
X566296Y151893D01*
X566249Y151972D01*
X566186Y152081D01*
X566123Y152207D01*
X566060Y152349D01*
X565982Y152506D01*
X565919Y152679D01*
X565856Y152868D01*
X565809Y153072D01*
X565761Y153292D01*
X565730Y153544D01*
X565714Y153795D01*
X565699Y154063D01*
X565699Y154078D01*
X565699Y154125D01*
X565699Y154220D01*
X565714Y154330D01*
X565730Y154456D01*
X565746Y154613D01*
X565761Y154786D01*
X565793Y154974D01*
X565887Y155383D01*
X566029Y155808D01*
X566123Y156012D01*
X566233Y156217D01*
X566343Y156405D01*
X566485Y156594D01*
X566500Y156610D01*
X566516Y156641D01*
X566563Y156688D01*
X566626Y156751D01*
X566705Y156814D01*
X566815Y156893D01*
X566925Y156987D01*
X567051Y157081D01*
X567365Y157254D01*
X567727Y157411D01*
X567931Y157459D01*
X568151Y157506D01*
X568371Y157537D01*
X568623Y157553D01*
X568749Y157553D01*
X568843Y157537D01*
X568937Y157522D01*
X569063Y157506D01*
X569346Y157427D01*
X569661Y157301D01*
X569818Y157223D01*
X569975Y157113D01*
X570132Y157003D01*
X570274Y156861D01*
X570400Y156704D01*
X570525Y156515D01*
X570557Y156515D01*
X570557Y160477D01*
X571579Y160477D01*
X571579Y151028D01*
X571579Y151028D02*
G37*
G36*
X614108Y157537D02*
X614313Y157522D01*
X614533Y157490D01*
X614785Y157427D01*
X615036Y157364D01*
X615288Y157270D01*
X615288Y156232D01*
X615256Y156248D01*
X615162Y156311D01*
X615020Y156374D01*
X614832Y156468D01*
X614596Y156547D01*
X614313Y156625D01*
X613998Y156672D01*
X613668Y156688D01*
X613495Y156688D01*
X613338Y156657D01*
X613149Y156625D01*
X613134Y156625D01*
X613118Y156610D01*
X613024Y156578D01*
X612898Y156515D01*
X612756Y156437D01*
X612725Y156421D01*
X612662Y156358D01*
X612583Y156264D01*
X612505Y156154D01*
X612489Y156122D01*
X612458Y156044D01*
X612426Y155934D01*
X612410Y155792D01*
X612410Y155776D01*
X612410Y155745D01*
X612410Y155698D01*
X612426Y155651D01*
X612458Y155509D01*
X612505Y155368D01*
X612520Y155336D01*
X612568Y155273D01*
X612662Y155179D01*
X612772Y155069D01*
X612788Y155069D01*
X612803Y155053D01*
X612898Y154990D01*
X613024Y154912D01*
X613196Y154833D01*
X613212Y154833D01*
X613244Y154817D01*
X613291Y154802D01*
X613369Y154770D01*
X613542Y154707D01*
X613763Y154613D01*
X613778Y154613D01*
X613841Y154581D01*
X613920Y154550D01*
X614014Y154518D01*
X614266Y154409D01*
X614517Y154283D01*
X614533Y154283D01*
X614580Y154251D01*
X614643Y154220D01*
X614722Y154173D01*
X614910Y154047D01*
X615099Y153890D01*
X615115Y153874D01*
X615146Y153858D01*
X615178Y153811D01*
X615241Y153748D01*
X615350Y153591D01*
X615461Y153386D01*
X615461Y153371D01*
X615476Y153339D01*
X615508Y153277D01*
X615523Y153198D01*
X615555Y153104D01*
X615571Y152993D01*
X615586Y152726D01*
X615586Y152710D01*
X615586Y152647D01*
X615571Y152553D01*
X615555Y152443D01*
X615539Y152317D01*
X615492Y152176D01*
X615445Y152050D01*
X615366Y151909D01*
X615350Y151893D01*
X615335Y151846D01*
X615288Y151783D01*
X615225Y151704D01*
X615146Y151610D01*
X615052Y151516D01*
X614816Y151327D01*
X614800Y151311D01*
X614753Y151295D01*
X614690Y151248D01*
X614580Y151201D01*
X614470Y151138D01*
X614329Y151091D01*
X614187Y151044D01*
X614014Y150997D01*
X613998Y150997D01*
X613936Y150981D01*
X613841Y150965D01*
X613731Y150949D01*
X613574Y150918D01*
X613417Y150902D01*
X613055Y150887D01*
X612898Y150887D01*
X612709Y150902D01*
X612473Y150934D01*
X612206Y150981D01*
X611923Y151044D01*
X611640Y151123D01*
X611357Y151248D01*
X611357Y152349D01*
X611373Y152349D01*
X611388Y152317D01*
X611436Y152286D01*
X611498Y152254D01*
X611671Y152160D01*
X611907Y152050D01*
X612175Y151924D01*
X612489Y151830D01*
X612835Y151767D01*
X613196Y151736D01*
X613322Y151736D01*
X613401Y151751D01*
X613621Y151783D01*
X613873Y151846D01*
X614108Y151956D01*
X614218Y152034D01*
X614329Y152113D01*
X614407Y152223D01*
X614470Y152333D01*
X614517Y152475D01*
X614533Y152632D01*
X614533Y152647D01*
X614533Y152679D01*
X614533Y152726D01*
X614517Y152773D01*
X614486Y152915D01*
X614423Y153056D01*
X614423Y153072D01*
X614407Y153088D01*
X614344Y153166D01*
X614250Y153277D01*
X614108Y153371D01*
X614093Y153371D01*
X614077Y153402D01*
X613983Y153449D01*
X613841Y153544D01*
X613652Y153622D01*
X613637Y153622D01*
X613605Y153638D01*
X613558Y153670D01*
X613479Y153701D01*
X613307Y153764D01*
X613087Y153858D01*
X613071Y153858D01*
X613008Y153890D01*
X612929Y153921D01*
X612835Y153953D01*
X612583Y154063D01*
X612332Y154188D01*
X612316Y154204D01*
X612285Y154220D01*
X612222Y154251D01*
X612143Y154298D01*
X611970Y154424D01*
X611797Y154566D01*
X611782Y154581D01*
X611766Y154597D01*
X611719Y154644D01*
X611671Y154707D01*
X611561Y154864D01*
X611467Y155053D01*
X611467Y155069D01*
X611451Y155100D01*
X611436Y155163D01*
X611420Y155242D01*
X611404Y155336D01*
X611388Y155446D01*
X611373Y155714D01*
X611373Y155729D01*
X611373Y155792D01*
X611388Y155871D01*
X611404Y155981D01*
X611420Y156107D01*
X611467Y156232D01*
X611514Y156374D01*
X611577Y156500D01*
X611593Y156515D01*
X611609Y156562D01*
X611656Y156625D01*
X611719Y156704D01*
X611892Y156893D01*
X612112Y157081D01*
X612127Y157097D01*
X612175Y157113D01*
X612238Y157160D01*
X612347Y157207D01*
X612458Y157270D01*
X612583Y157333D01*
X612898Y157427D01*
X612914Y157427D01*
X612976Y157443D01*
X613055Y157474D01*
X613181Y157490D01*
X613307Y157522D01*
X613464Y157537D01*
X613810Y157553D01*
X613951Y157553D01*
X614108Y157537D01*
X614108Y157537D02*
G37*
G36*
X605587Y157537D02*
X605791Y157522D01*
X606011Y157490D01*
X606263Y157427D01*
X606514Y157364D01*
X606766Y157270D01*
X606766Y156232D01*
X606735Y156248D01*
X606640Y156311D01*
X606499Y156374D01*
X606310Y156468D01*
X606074Y156547D01*
X605791Y156625D01*
X605477Y156672D01*
X605147Y156688D01*
X604974Y156688D01*
X604816Y156657D01*
X604628Y156625D01*
X604612Y156625D01*
X604596Y156610D01*
X604502Y156578D01*
X604376Y156515D01*
X604235Y156437D01*
X604203Y156421D01*
X604140Y156358D01*
X604062Y156264D01*
X603983Y156154D01*
X603967Y156122D01*
X603936Y156044D01*
X603904Y155934D01*
X603889Y155792D01*
X603889Y155776D01*
X603889Y155745D01*
X603889Y155698D01*
X603904Y155651D01*
X603936Y155509D01*
X603983Y155368D01*
X603999Y155336D01*
X604046Y155273D01*
X604140Y155179D01*
X604250Y155069D01*
X604266Y155069D01*
X604282Y155053D01*
X604376Y154990D01*
X604502Y154912D01*
X604675Y154833D01*
X604691Y154833D01*
X604722Y154817D01*
X604769Y154802D01*
X604848Y154770D01*
X605021Y154707D01*
X605241Y154613D01*
X605257Y154613D01*
X605320Y154581D01*
X605398Y154550D01*
X605493Y154518D01*
X605744Y154409D01*
X605996Y154283D01*
X606011Y154283D01*
X606059Y154251D01*
X606121Y154220D01*
X606200Y154173D01*
X606389Y154047D01*
X606577Y153890D01*
X606593Y153874D01*
X606624Y153858D01*
X606656Y153811D01*
X606719Y153748D01*
X606829Y153591D01*
X606939Y153386D01*
X606939Y153371D01*
X606955Y153339D01*
X606986Y153277D01*
X607002Y153198D01*
X607033Y153104D01*
X607049Y152993D01*
X607065Y152726D01*
X607065Y152710D01*
X607065Y152647D01*
X607049Y152553D01*
X607033Y152443D01*
X607018Y152317D01*
X606970Y152176D01*
X606923Y152050D01*
X606845Y151909D01*
X606829Y151893D01*
X606813Y151846D01*
X606766Y151783D01*
X606703Y151704D01*
X606624Y151610D01*
X606530Y151516D01*
X606294Y151327D01*
X606279Y151311D01*
X606231Y151295D01*
X606169Y151248D01*
X606059Y151201D01*
X605948Y151138D01*
X605807Y151091D01*
X605665Y151044D01*
X605493Y150997D01*
X605477Y150997D01*
X605414Y150981D01*
X605320Y150965D01*
X605210Y150949D01*
X605052Y150918D01*
X604895Y150902D01*
X604533Y150887D01*
X604376Y150887D01*
X604188Y150902D01*
X603952Y150934D01*
X603684Y150981D01*
X603401Y151044D01*
X603118Y151123D01*
X602835Y151248D01*
X602835Y152349D01*
X602851Y152349D01*
X602867Y152317D01*
X602914Y152286D01*
X602977Y152254D01*
X603150Y152160D01*
X603386Y152050D01*
X603653Y151924D01*
X603967Y151830D01*
X604313Y151767D01*
X604675Y151736D01*
X604801Y151736D01*
X604879Y151751D01*
X605099Y151783D01*
X605351Y151846D01*
X605587Y151956D01*
X605697Y152034D01*
X605807Y152113D01*
X605886Y152223D01*
X605948Y152333D01*
X605996Y152475D01*
X606011Y152632D01*
X606011Y152647D01*
X606011Y152679D01*
X606011Y152726D01*
X605996Y152773D01*
X605964Y152915D01*
X605901Y153056D01*
X605901Y153072D01*
X605886Y153088D01*
X605823Y153166D01*
X605728Y153277D01*
X605587Y153371D01*
X605571Y153371D01*
X605555Y153402D01*
X605461Y153449D01*
X605320Y153544D01*
X605131Y153622D01*
X605115Y153622D01*
X605084Y153638D01*
X605037Y153670D01*
X604958Y153701D01*
X604785Y153764D01*
X604565Y153858D01*
X604549Y153858D01*
X604486Y153890D01*
X604408Y153921D01*
X604313Y153953D01*
X604062Y154063D01*
X603810Y154188D01*
X603794Y154204D01*
X603763Y154220D01*
X603700Y154251D01*
X603621Y154298D01*
X603448Y154424D01*
X603276Y154566D01*
X603260Y154581D01*
X603244Y154597D01*
X603197Y154644D01*
X603150Y154707D01*
X603040Y154864D01*
X602945Y155053D01*
X602945Y155069D01*
X602930Y155100D01*
X602914Y155163D01*
X602898Y155242D01*
X602882Y155336D01*
X602867Y155446D01*
X602851Y155714D01*
X602851Y155729D01*
X602851Y155792D01*
X602867Y155871D01*
X602882Y155981D01*
X602898Y156107D01*
X602945Y156232D01*
X602993Y156374D01*
X603055Y156500D01*
X603071Y156515D01*
X603087Y156562D01*
X603134Y156625D01*
X603197Y156704D01*
X603370Y156893D01*
X603590Y157081D01*
X603606Y157097D01*
X603653Y157113D01*
X603716Y157160D01*
X603826Y157207D01*
X603936Y157270D01*
X604062Y157333D01*
X604376Y157427D01*
X604392Y157427D01*
X604455Y157443D01*
X604533Y157474D01*
X604659Y157490D01*
X604785Y157522D01*
X604942Y157537D01*
X605288Y157553D01*
X605430Y157553D01*
X605587Y157537D01*
X605587Y157537D02*
G37*
G36*
X541439Y157537D02*
X541580Y157506D01*
X541737Y157474D01*
X541910Y157411D01*
X542115Y157333D01*
X542303Y157223D01*
X542508Y157097D01*
X542696Y156924D01*
X542869Y156704D01*
X543027Y156452D01*
X543168Y156169D01*
X543262Y155808D01*
X543341Y155415D01*
X543357Y154959D01*
X543357Y151028D01*
X542335Y151028D01*
X542335Y154691D01*
X542335Y154707D01*
X542335Y154739D01*
X542335Y154786D01*
X542335Y154864D01*
X542319Y155053D01*
X542288Y155273D01*
X542256Y155525D01*
X542193Y155776D01*
X542115Y156012D01*
X542005Y156217D01*
X541989Y156232D01*
X541942Y156295D01*
X541863Y156374D01*
X541737Y156452D01*
X541596Y156547D01*
X541407Y156610D01*
X541171Y156672D01*
X540904Y156688D01*
X540873Y156688D01*
X540794Y156672D01*
X540668Y156657D01*
X540511Y156610D01*
X540338Y156547D01*
X540149Y156437D01*
X539961Y156295D01*
X539788Y156091D01*
X539772Y156059D01*
X539725Y155981D01*
X539646Y155855D01*
X539568Y155682D01*
X539473Y155478D01*
X539410Y155242D01*
X539347Y154959D01*
X539332Y154660D01*
X539332Y151028D01*
X538310Y151028D01*
X538310Y154817D01*
X538310Y154833D01*
X538310Y154896D01*
X538294Y154990D01*
X538294Y155116D01*
X538263Y155258D01*
X538231Y155415D01*
X538184Y155572D01*
X538137Y155761D01*
X538058Y155934D01*
X537964Y156091D01*
X537838Y156248D01*
X537697Y156390D01*
X537539Y156515D01*
X537335Y156610D01*
X537115Y156672D01*
X536863Y156688D01*
X536832Y156688D01*
X536753Y156672D01*
X536628Y156657D01*
X536470Y156625D01*
X536297Y156547D01*
X536109Y156452D01*
X535920Y156311D01*
X535747Y156122D01*
X535731Y156091D01*
X535684Y156028D01*
X535606Y155902D01*
X535527Y155729D01*
X535448Y155525D01*
X535370Y155273D01*
X535322Y154990D01*
X535307Y154660D01*
X535307Y151028D01*
X534285Y151028D01*
X534285Y157411D01*
X535307Y157411D01*
X535307Y156390D01*
X535338Y156390D01*
X535354Y156405D01*
X535370Y156437D01*
X535417Y156500D01*
X535464Y156578D01*
X535621Y156751D01*
X535841Y156971D01*
X536124Y157191D01*
X536455Y157364D01*
X536659Y157443D01*
X536863Y157506D01*
X537083Y157537D01*
X537319Y157553D01*
X537429Y157553D01*
X537555Y157537D01*
X537712Y157506D01*
X537885Y157459D01*
X538074Y157396D01*
X538263Y157317D01*
X538451Y157191D01*
X538467Y157176D01*
X538530Y157128D01*
X538609Y157050D01*
X538719Y156940D01*
X538829Y156798D01*
X538939Y156641D01*
X539049Y156452D01*
X539127Y156232D01*
X539143Y156248D01*
X539159Y156295D01*
X539206Y156358D01*
X539253Y156437D01*
X539332Y156547D01*
X539426Y156657D01*
X539536Y156767D01*
X539662Y156893D01*
X539803Y157018D01*
X539961Y157128D01*
X540134Y157254D01*
X540322Y157349D01*
X540527Y157427D01*
X540747Y157490D01*
X540998Y157537D01*
X541250Y157553D01*
X541344Y157553D01*
X541439Y157537D01*
X541439Y157537D02*
G37*
G36*
X595053Y157506D02*
X595241Y157490D01*
X595351Y157459D01*
X595430Y157427D01*
X595430Y156374D01*
X595414Y156390D01*
X595383Y156405D01*
X595320Y156437D01*
X595241Y156484D01*
X595131Y156515D01*
X594990Y156547D01*
X594832Y156562D01*
X594660Y156578D01*
X594628Y156578D01*
X594549Y156562D01*
X594424Y156547D01*
X594282Y156500D01*
X594094Y156421D01*
X593921Y156311D01*
X593732Y156154D01*
X593559Y155949D01*
X593543Y155918D01*
X593496Y155839D01*
X593418Y155698D01*
X593339Y155509D01*
X593260Y155273D01*
X593182Y154974D01*
X593134Y154644D01*
X593119Y154267D01*
X593119Y151028D01*
X592097Y151028D01*
X592097Y157411D01*
X593119Y157411D01*
X593119Y156091D01*
X593150Y156091D01*
X593150Y156107D01*
X593166Y156122D01*
X593197Y156201D01*
X593245Y156327D01*
X593323Y156484D01*
X593402Y156641D01*
X593528Y156814D01*
X593653Y156987D01*
X593811Y157144D01*
X593826Y157160D01*
X593889Y157207D01*
X593983Y157270D01*
X594109Y157333D01*
X594251Y157396D01*
X594424Y157459D01*
X594612Y157506D01*
X594817Y157522D01*
X594958Y157522D01*
X595053Y157506D01*
X595053Y157506D02*
G37*
G36*
X583276Y157506D02*
X583465Y157490D01*
X583575Y157459D01*
X583654Y157427D01*
X583654Y156374D01*
X583638Y156390D01*
X583607Y156405D01*
X583544Y156437D01*
X583465Y156484D01*
X583355Y156515D01*
X583214Y156547D01*
X583056Y156562D01*
X582883Y156578D01*
X582852Y156578D01*
X582773Y156562D01*
X582648Y156547D01*
X582506Y156500D01*
X582317Y156421D01*
X582144Y156311D01*
X581956Y156154D01*
X581783Y155949D01*
X581767Y155918D01*
X581720Y155839D01*
X581641Y155698D01*
X581563Y155509D01*
X581484Y155273D01*
X581405Y154974D01*
X581358Y154644D01*
X581343Y154267D01*
X581343Y151028D01*
X580321Y151028D01*
X580321Y157411D01*
X581343Y157411D01*
X581343Y156091D01*
X581374Y156091D01*
X581374Y156107D01*
X581390Y156122D01*
X581421Y156201D01*
X581468Y156327D01*
X581547Y156484D01*
X581626Y156641D01*
X581751Y156814D01*
X581877Y156987D01*
X582034Y157144D01*
X582050Y157160D01*
X582113Y157207D01*
X582207Y157270D01*
X582333Y157333D01*
X582475Y157396D01*
X582648Y157459D01*
X582836Y157506D01*
X583041Y157522D01*
X583182Y157522D01*
X583276Y157506D01*
X583276Y157506D02*
G37*
G36*
X609659Y151028D02*
X608637Y151028D01*
X608637Y157411D01*
X609659Y157411D01*
X609659Y151028D01*
X609659Y151028D02*
G37*
G36*
X564048Y151028D02*
X563026Y151028D01*
X563026Y160477D01*
X564048Y160477D01*
X564048Y151028D01*
X564048Y151028D02*
G37*
G36*
X506236Y159943D02*
X506346Y159943D01*
X506456Y159927D01*
X506707Y159896D01*
X507006Y159817D01*
X507321Y159723D01*
X507619Y159581D01*
X507887Y159392D01*
X507902Y159392D01*
X507918Y159361D01*
X507997Y159298D01*
X508107Y159172D01*
X508232Y159000D01*
X508343Y158779D01*
X508453Y158528D01*
X508531Y158245D01*
X508563Y158088D01*
X508563Y157915D01*
X508563Y157899D01*
X508563Y157883D01*
X508563Y157789D01*
X508547Y157647D01*
X508516Y157474D01*
X508468Y157254D01*
X508390Y157034D01*
X508295Y156814D01*
X508154Y156594D01*
X508138Y156562D01*
X508075Y156500D01*
X507981Y156405D01*
X507855Y156279D01*
X507698Y156154D01*
X507509Y156012D01*
X507273Y155902D01*
X507022Y155792D01*
X507022Y155776D01*
X507069Y155776D01*
X507116Y155761D01*
X507163Y155745D01*
X507336Y155714D01*
X507541Y155651D01*
X507761Y155556D01*
X507997Y155446D01*
X508232Y155289D01*
X508453Y155085D01*
X508484Y155053D01*
X508547Y154974D01*
X508625Y154864D01*
X508736Y154691D01*
X508830Y154471D01*
X508924Y154220D01*
X508987Y153921D01*
X509003Y153591D01*
X509003Y153575D01*
X509003Y153544D01*
X509003Y153481D01*
X508987Y153402D01*
X508971Y153308D01*
X508956Y153198D01*
X508893Y152931D01*
X508798Y152632D01*
X508657Y152317D01*
X508563Y152176D01*
X508453Y152019D01*
X508311Y151877D01*
X508170Y151736D01*
X508154Y151736D01*
X508138Y151704D01*
X508091Y151673D01*
X508028Y151626D01*
X507949Y151578D01*
X507839Y151516D01*
X507604Y151390D01*
X507305Y151248D01*
X506959Y151138D01*
X506550Y151060D01*
X506346Y151044D01*
X506110Y151028D01*
X503500Y151028D01*
X503500Y159959D01*
X506157Y159959D01*
X506236Y159943D01*
X506236Y159943D02*
G37*
G36*
X618511Y157411D02*
X620130Y157411D01*
X620130Y156531D01*
X618511Y156531D01*
X618511Y152931D01*
X618511Y152899D01*
X618511Y152821D01*
X618526Y152710D01*
X618542Y152569D01*
X618605Y152270D01*
X618652Y152129D01*
X618731Y152019D01*
X618747Y152003D01*
X618778Y151972D01*
X618825Y151940D01*
X618904Y151893D01*
X618998Y151830D01*
X619124Y151798D01*
X619281Y151767D01*
X619454Y151751D01*
X619517Y151751D01*
X619596Y151767D01*
X619690Y151783D01*
X619910Y151846D01*
X620020Y151893D01*
X620130Y151956D01*
X620130Y151075D01*
X620115Y151075D01*
X620067Y151044D01*
X619989Y151028D01*
X619879Y150997D01*
X619737Y150965D01*
X619580Y150934D01*
X619391Y150918D01*
X619171Y150902D01*
X619092Y150902D01*
X619014Y150918D01*
X618904Y150934D01*
X618778Y150965D01*
X618637Y150997D01*
X618495Y151060D01*
X618338Y151138D01*
X618181Y151233D01*
X618023Y151358D01*
X617882Y151500D01*
X617756Y151688D01*
X617646Y151893D01*
X617567Y152144D01*
X617505Y152427D01*
X617489Y152758D01*
X617489Y156531D01*
X616404Y156531D01*
X616404Y157411D01*
X617489Y157411D01*
X617489Y158968D01*
X618511Y159298D01*
X618511Y157411D01*
X618511Y157411D02*
G37*
G36*
X523829Y157411D02*
X525449Y157411D01*
X525449Y156531D01*
X523829Y156531D01*
X523829Y152931D01*
X523829Y152899D01*
X523829Y152821D01*
X523845Y152710D01*
X523861Y152569D01*
X523924Y152270D01*
X523971Y152129D01*
X524049Y152019D01*
X524065Y152003D01*
X524097Y151972D01*
X524144Y151940D01*
X524222Y151893D01*
X524317Y151830D01*
X524442Y151798D01*
X524600Y151767D01*
X524773Y151751D01*
X524836Y151751D01*
X524914Y151767D01*
X525009Y151783D01*
X525229Y151846D01*
X525339Y151893D01*
X525449Y151956D01*
X525449Y151075D01*
X525433Y151075D01*
X525386Y151044D01*
X525307Y151028D01*
X525197Y150997D01*
X525056Y150965D01*
X524898Y150934D01*
X524710Y150918D01*
X524490Y150902D01*
X524411Y150902D01*
X524332Y150918D01*
X524222Y150934D01*
X524097Y150965D01*
X523955Y150997D01*
X523814Y151060D01*
X523656Y151138D01*
X523499Y151233D01*
X523342Y151358D01*
X523200Y151500D01*
X523075Y151688D01*
X522965Y151893D01*
X522886Y152144D01*
X522823Y152427D01*
X522807Y152758D01*
X522807Y156531D01*
X521722Y156531D01*
X521722Y157411D01*
X522807Y157411D01*
X522807Y158968D01*
X523829Y159298D01*
X523829Y157411D01*
X523829Y157411D02*
G37*
G36*
X519506Y157411D02*
X521125Y157411D01*
X521125Y156531D01*
X519506Y156531D01*
X519506Y152931D01*
X519506Y152899D01*
X519506Y152821D01*
X519521Y152710D01*
X519537Y152569D01*
X519600Y152270D01*
X519647Y152129D01*
X519726Y152019D01*
X519741Y152003D01*
X519773Y151972D01*
X519820Y151940D01*
X519899Y151893D01*
X519993Y151830D01*
X520119Y151798D01*
X520276Y151767D01*
X520449Y151751D01*
X520512Y151751D01*
X520590Y151767D01*
X520685Y151783D01*
X520905Y151846D01*
X521015Y151893D01*
X521125Y151956D01*
X521125Y151075D01*
X521109Y151075D01*
X521062Y151044D01*
X520984Y151028D01*
X520873Y150997D01*
X520732Y150965D01*
X520575Y150934D01*
X520386Y150918D01*
X520166Y150902D01*
X520087Y150902D01*
X520009Y150918D01*
X519899Y150934D01*
X519773Y150965D01*
X519631Y150997D01*
X519490Y151060D01*
X519333Y151138D01*
X519175Y151233D01*
X519018Y151358D01*
X518877Y151500D01*
X518751Y151688D01*
X518641Y151893D01*
X518562Y152144D01*
X518499Y152427D01*
X518484Y152758D01*
X518484Y156531D01*
X517399Y156531D01*
X517399Y157411D01*
X518484Y157411D01*
X518484Y158968D01*
X519506Y159298D01*
X519506Y157411D01*
X519506Y157411D02*
G37*
G36*
X599251Y157537D02*
X599361Y157522D01*
X599471Y157506D01*
X599754Y157459D01*
X600068Y157349D01*
X600383Y157207D01*
X600540Y157113D01*
X600697Y157003D01*
X600839Y156877D01*
X600980Y156735D01*
X600996Y156720D01*
X601012Y156704D01*
X601043Y156657D01*
X601090Y156594D01*
X601137Y156500D01*
X601200Y156405D01*
X601263Y156295D01*
X601326Y156154D01*
X601389Y155997D01*
X601452Y155839D01*
X601515Y155651D01*
X601562Y155446D01*
X601609Y155226D01*
X601640Y155006D01*
X601672Y154754D01*
X601672Y154487D01*
X601672Y153953D01*
X597160Y153953D01*
X597160Y153937D01*
X597160Y153905D01*
X597160Y153858D01*
X597175Y153780D01*
X597191Y153685D01*
X597191Y153591D01*
X597238Y153339D01*
X597317Y153088D01*
X597411Y152805D01*
X597553Y152537D01*
X597725Y152302D01*
X597757Y152270D01*
X597820Y152207D01*
X597946Y152129D01*
X598119Y152019D01*
X598339Y151909D01*
X598590Y151830D01*
X598889Y151767D01*
X599235Y151736D01*
X599345Y151736D01*
X599423Y151751D01*
X599518Y151751D01*
X599628Y151767D01*
X599895Y151830D01*
X600194Y151909D01*
X600524Y152034D01*
X600870Y152207D01*
X601043Y152317D01*
X601216Y152443D01*
X601216Y151484D01*
X601200Y151484D01*
X601185Y151453D01*
X601137Y151437D01*
X601059Y151390D01*
X600980Y151343D01*
X600886Y151295D01*
X600760Y151248D01*
X600634Y151185D01*
X600477Y151123D01*
X600304Y151075D01*
X599927Y150981D01*
X599486Y150918D01*
X598999Y150887D01*
X598873Y150887D01*
X598779Y150902D01*
X598669Y150918D01*
X598527Y150934D01*
X598229Y150997D01*
X597883Y151091D01*
X597537Y151248D01*
X597364Y151358D01*
X597191Y151468D01*
X597034Y151594D01*
X596876Y151751D01*
X596861Y151767D01*
X596845Y151798D01*
X596814Y151846D01*
X596751Y151909D01*
X596703Y152003D01*
X596641Y152113D01*
X596562Y152239D01*
X596499Y152380D01*
X596421Y152537D01*
X596358Y152726D01*
X596279Y152931D01*
X596232Y153151D01*
X596185Y153386D01*
X596138Y153638D01*
X596122Y153905D01*
X596106Y154188D01*
X596106Y154204D01*
X596106Y154251D01*
X596106Y154330D01*
X596122Y154440D01*
X596138Y154566D01*
X596153Y154707D01*
X596169Y154880D01*
X596216Y155053D01*
X596311Y155430D01*
X596452Y155839D01*
X596546Y156044D01*
X596672Y156232D01*
X596798Y156437D01*
X596939Y156610D01*
X596955Y156625D01*
X596987Y156657D01*
X597034Y156704D01*
X597097Y156751D01*
X597175Y156830D01*
X597270Y156908D01*
X597395Y156987D01*
X597521Y157081D01*
X597820Y157254D01*
X598181Y157411D01*
X598386Y157459D01*
X598590Y157506D01*
X598810Y157537D01*
X599046Y157553D01*
X599172Y157553D01*
X599251Y157537D01*
X599251Y157537D02*
G37*
G36*
X576358Y157537D02*
X576469Y157522D01*
X576579Y157506D01*
X576862Y157459D01*
X577176Y157349D01*
X577491Y157207D01*
X577648Y157113D01*
X577805Y157003D01*
X577947Y156877D01*
X578088Y156735D01*
X578104Y156720D01*
X578119Y156704D01*
X578151Y156657D01*
X578198Y156594D01*
X578245Y156500D01*
X578308Y156405D01*
X578371Y156295D01*
X578434Y156154D01*
X578497Y155997D01*
X578560Y155839D01*
X578623Y155651D01*
X578670Y155446D01*
X578717Y155226D01*
X578748Y155006D01*
X578780Y154754D01*
X578780Y154487D01*
X578780Y153953D01*
X574267Y153953D01*
X574267Y153937D01*
X574267Y153905D01*
X574267Y153858D01*
X574283Y153780D01*
X574299Y153685D01*
X574299Y153591D01*
X574346Y153339D01*
X574425Y153088D01*
X574519Y152805D01*
X574660Y152537D01*
X574833Y152302D01*
X574865Y152270D01*
X574928Y152207D01*
X575053Y152129D01*
X575227Y152019D01*
X575447Y151909D01*
X575698Y151830D01*
X575997Y151767D01*
X576343Y151736D01*
X576453Y151736D01*
X576531Y151751D01*
X576626Y151751D01*
X576736Y151767D01*
X577003Y151830D01*
X577302Y151909D01*
X577632Y152034D01*
X577978Y152207D01*
X578151Y152317D01*
X578324Y152443D01*
X578324Y151484D01*
X578308Y151484D01*
X578292Y151453D01*
X578245Y151437D01*
X578167Y151390D01*
X578088Y151343D01*
X577994Y151295D01*
X577868Y151248D01*
X577742Y151185D01*
X577585Y151123D01*
X577412Y151075D01*
X577035Y150981D01*
X576594Y150918D01*
X576107Y150887D01*
X575981Y150887D01*
X575887Y150902D01*
X575777Y150918D01*
X575635Y150934D01*
X575336Y150997D01*
X574991Y151091D01*
X574645Y151248D01*
X574472Y151358D01*
X574299Y151468D01*
X574142Y151594D01*
X573984Y151751D01*
X573969Y151767D01*
X573953Y151798D01*
X573922Y151846D01*
X573859Y151909D01*
X573811Y152003D01*
X573749Y152113D01*
X573670Y152239D01*
X573607Y152380D01*
X573528Y152537D01*
X573465Y152726D01*
X573387Y152931D01*
X573340Y153151D01*
X573293Y153386D01*
X573245Y153638D01*
X573230Y153905D01*
X573214Y154188D01*
X573214Y154204D01*
X573214Y154251D01*
X573214Y154330D01*
X573230Y154440D01*
X573245Y154566D01*
X573261Y154707D01*
X573277Y154880D01*
X573324Y155053D01*
X573418Y155430D01*
X573560Y155839D01*
X573654Y156044D01*
X573780Y156232D01*
X573906Y156437D01*
X574047Y156610D01*
X574063Y156625D01*
X574094Y156657D01*
X574142Y156704D01*
X574204Y156751D01*
X574283Y156830D01*
X574377Y156908D01*
X574503Y156987D01*
X574629Y157081D01*
X574928Y157254D01*
X575289Y157411D01*
X575494Y157459D01*
X575698Y157506D01*
X575918Y157537D01*
X576154Y157553D01*
X576280Y157553D01*
X576358Y157537D01*
X576358Y157537D02*
G37*
G36*
X558608Y157537D02*
X558718Y157522D01*
X558859Y157506D01*
X559174Y157443D01*
X559535Y157333D01*
X559897Y157176D01*
X560086Y157081D01*
X560258Y156971D01*
X560432Y156830D01*
X560589Y156672D01*
X560604Y156657D01*
X560620Y156625D01*
X560667Y156578D01*
X560714Y156515D01*
X560777Y156421D01*
X560840Y156311D01*
X560919Y156185D01*
X560998Y156044D01*
X561060Y155871D01*
X561139Y155698D01*
X561202Y155493D01*
X561265Y155273D01*
X561312Y155037D01*
X561359Y154786D01*
X561375Y154518D01*
X561391Y154235D01*
X561391Y154220D01*
X561391Y154173D01*
X561391Y154094D01*
X561375Y153984D01*
X561359Y153858D01*
X561343Y153701D01*
X561312Y153544D01*
X561281Y153355D01*
X561186Y152978D01*
X561029Y152569D01*
X560935Y152365D01*
X560809Y152160D01*
X560683Y151972D01*
X560526Y151798D01*
X560510Y151783D01*
X560479Y151767D01*
X560432Y151720D01*
X560369Y151657D01*
X560274Y151594D01*
X560180Y151516D01*
X560054Y151421D01*
X559913Y151343D01*
X559755Y151264D01*
X559582Y151170D01*
X559394Y151091D01*
X559189Y151028D01*
X558969Y150965D01*
X558733Y150934D01*
X558482Y150902D01*
X558215Y150887D01*
X558073Y150887D01*
X557979Y150902D01*
X557869Y150918D01*
X557727Y150934D01*
X557570Y150965D01*
X557397Y150997D01*
X557035Y151107D01*
X556658Y151264D01*
X556469Y151358D01*
X556296Y151484D01*
X556124Y151610D01*
X555951Y151767D01*
X555935Y151783D01*
X555919Y151814D01*
X555872Y151861D01*
X555825Y151924D01*
X555762Y152019D01*
X555683Y152129D01*
X555605Y152254D01*
X555542Y152396D01*
X555463Y152569D01*
X555384Y152742D01*
X555306Y152931D01*
X555243Y153151D01*
X555149Y153622D01*
X555133Y153874D01*
X555117Y154141D01*
X555117Y154157D01*
X555117Y154220D01*
X555117Y154298D01*
X555133Y154409D01*
X555149Y154534D01*
X555164Y154691D01*
X555196Y154864D01*
X555227Y155053D01*
X555322Y155462D01*
X555479Y155871D01*
X555589Y156075D01*
X555699Y156279D01*
X555825Y156468D01*
X555982Y156641D01*
X555998Y156657D01*
X556029Y156688D01*
X556076Y156720D01*
X556139Y156783D01*
X556234Y156846D01*
X556344Y156924D01*
X556469Y157018D01*
X556611Y157097D01*
X556768Y157176D01*
X556957Y157270D01*
X557146Y157349D01*
X557366Y157411D01*
X557586Y157474D01*
X557837Y157522D01*
X558105Y157537D01*
X558372Y157553D01*
X558513Y157553D01*
X558608Y157537D01*
X558608Y157537D02*
G37*
G36*
X529867Y157537D02*
X529977Y157522D01*
X530118Y157506D01*
X530433Y157443D01*
X530794Y157333D01*
X531156Y157176D01*
X531345Y157081D01*
X531518Y156971D01*
X531691Y156830D01*
X531848Y156672D01*
X531864Y156657D01*
X531879Y156625D01*
X531926Y156578D01*
X531974Y156515D01*
X532037Y156421D01*
X532099Y156311D01*
X532178Y156185D01*
X532257Y156044D01*
X532319Y155871D01*
X532398Y155698D01*
X532461Y155493D01*
X532524Y155273D01*
X532571Y155037D01*
X532618Y154786D01*
X532634Y154518D01*
X532650Y154235D01*
X532650Y154220D01*
X532650Y154173D01*
X532650Y154094D01*
X532634Y153984D01*
X532618Y153858D01*
X532603Y153701D01*
X532571Y153544D01*
X532540Y153355D01*
X532445Y152978D01*
X532288Y152569D01*
X532194Y152365D01*
X532068Y152160D01*
X531942Y151972D01*
X531785Y151798D01*
X531769Y151783D01*
X531738Y151767D01*
X531691Y151720D01*
X531628Y151657D01*
X531533Y151594D01*
X531439Y151516D01*
X531313Y151421D01*
X531172Y151343D01*
X531015Y151264D01*
X530842Y151170D01*
X530653Y151091D01*
X530448Y151028D01*
X530228Y150965D01*
X529992Y150934D01*
X529741Y150902D01*
X529474Y150887D01*
X529332Y150887D01*
X529238Y150902D01*
X529128Y150918D01*
X528986Y150934D01*
X528829Y150965D01*
X528656Y150997D01*
X528294Y151107D01*
X527917Y151264D01*
X527729Y151358D01*
X527556Y151484D01*
X527383Y151610D01*
X527210Y151767D01*
X527194Y151783D01*
X527178Y151814D01*
X527131Y151861D01*
X527084Y151924D01*
X527021Y152019D01*
X526942Y152129D01*
X526864Y152254D01*
X526801Y152396D01*
X526722Y152569D01*
X526644Y152742D01*
X526565Y152931D01*
X526502Y153151D01*
X526408Y153622D01*
X526392Y153874D01*
X526376Y154141D01*
X526376Y154157D01*
X526376Y154220D01*
X526376Y154298D01*
X526392Y154409D01*
X526408Y154534D01*
X526423Y154691D01*
X526455Y154864D01*
X526486Y155053D01*
X526581Y155462D01*
X526738Y155871D01*
X526848Y156075D01*
X526958Y156279D01*
X527084Y156468D01*
X527241Y156641D01*
X527257Y156657D01*
X527288Y156688D01*
X527335Y156720D01*
X527398Y156783D01*
X527493Y156846D01*
X527603Y156924D01*
X527729Y157018D01*
X527870Y157097D01*
X528027Y157176D01*
X528216Y157270D01*
X528405Y157349D01*
X528625Y157411D01*
X528845Y157474D01*
X529096Y157522D01*
X529364Y157537D01*
X529631Y157553D01*
X529772Y157553D01*
X529867Y157537D01*
X529867Y157537D02*
G37*
G36*
X513735Y157537D02*
X513845Y157522D01*
X513987Y157506D01*
X514301Y157443D01*
X514663Y157333D01*
X515025Y157176D01*
X515213Y157081D01*
X515386Y156971D01*
X515559Y156830D01*
X515716Y156672D01*
X515732Y156657D01*
X515748Y156625D01*
X515795Y156578D01*
X515842Y156515D01*
X515905Y156421D01*
X515968Y156311D01*
X516047Y156185D01*
X516125Y156044D01*
X516188Y155871D01*
X516267Y155698D01*
X516330Y155493D01*
X516393Y155273D01*
X516440Y155037D01*
X516487Y154786D01*
X516502Y154518D01*
X516518Y154235D01*
X516518Y154220D01*
X516518Y154173D01*
X516518Y154094D01*
X516502Y153984D01*
X516487Y153858D01*
X516471Y153701D01*
X516440Y153544D01*
X516408Y153355D01*
X516314Y152978D01*
X516157Y152569D01*
X516062Y152365D01*
X515937Y152160D01*
X515811Y151972D01*
X515653Y151798D01*
X515638Y151783D01*
X515606Y151767D01*
X515559Y151720D01*
X515496Y151657D01*
X515402Y151594D01*
X515308Y151516D01*
X515182Y151421D01*
X515040Y151343D01*
X514883Y151264D01*
X514710Y151170D01*
X514521Y151091D01*
X514317Y151028D01*
X514097Y150965D01*
X513861Y150934D01*
X513610Y150902D01*
X513342Y150887D01*
X513201Y150887D01*
X513106Y150902D01*
X512996Y150918D01*
X512855Y150934D01*
X512698Y150965D01*
X512525Y150997D01*
X512163Y151107D01*
X511786Y151264D01*
X511597Y151358D01*
X511424Y151484D01*
X511251Y151610D01*
X511078Y151767D01*
X511063Y151783D01*
X511047Y151814D01*
X511000Y151861D01*
X510952Y151924D01*
X510890Y152019D01*
X510811Y152129D01*
X510732Y152254D01*
X510670Y152396D01*
X510591Y152569D01*
X510512Y152742D01*
X510434Y152931D01*
X510371Y153151D01*
X510276Y153622D01*
X510261Y153874D01*
X510245Y154141D01*
X510245Y154157D01*
X510245Y154220D01*
X510245Y154298D01*
X510261Y154409D01*
X510276Y154534D01*
X510292Y154691D01*
X510324Y154864D01*
X510355Y155053D01*
X510449Y155462D01*
X510607Y155871D01*
X510717Y156075D01*
X510827Y156279D01*
X510952Y156468D01*
X511110Y156641D01*
X511125Y156657D01*
X511157Y156688D01*
X511204Y156720D01*
X511267Y156783D01*
X511361Y156846D01*
X511471Y156924D01*
X511597Y157018D01*
X511739Y157097D01*
X511896Y157176D01*
X512085Y157270D01*
X512273Y157349D01*
X512493Y157411D01*
X512713Y157474D01*
X512965Y157522D01*
X513232Y157537D01*
X513499Y157553D01*
X513641Y157553D01*
X513735Y157537D01*
X513735Y157537D02*
G37*
G36*
X621530Y159927D02*
X621592Y159848D01*
X621687Y159723D01*
X621813Y159550D01*
X621970Y159330D01*
X622127Y159062D01*
X622300Y158764D01*
X622489Y158418D01*
X622677Y158025D01*
X622850Y157600D01*
X623007Y157144D01*
X623165Y156657D01*
X623290Y156138D01*
X623385Y155603D01*
X623448Y155022D01*
X623463Y154424D01*
X623463Y154409D01*
X623463Y154393D01*
X623463Y154346D01*
X623463Y154283D01*
X623463Y154204D01*
X623448Y154110D01*
X623432Y153890D01*
X623400Y153607D01*
X623353Y153292D01*
X623306Y152931D01*
X623228Y152537D01*
X623117Y152113D01*
X622992Y151688D01*
X622835Y151233D01*
X622646Y150777D01*
X622426Y150321D01*
X622158Y149865D01*
X621860Y149424D01*
X621514Y149000D01*
X620602Y149000D01*
X620618Y149031D01*
X620681Y149110D01*
X620775Y149236D01*
X620901Y149409D01*
X621058Y149629D01*
X621215Y149896D01*
X621388Y150211D01*
X621577Y150556D01*
X621765Y150934D01*
X621938Y151358D01*
X622095Y151798D01*
X622253Y152270D01*
X622379Y152789D01*
X622473Y153308D01*
X622536Y153874D01*
X622551Y154440D01*
X622551Y154456D01*
X622551Y154471D01*
X622551Y154518D01*
X622551Y154581D01*
X622536Y154739D01*
X622520Y154974D01*
X622489Y155242D01*
X622441Y155556D01*
X622394Y155918D01*
X622300Y156311D01*
X622206Y156735D01*
X622080Y157176D01*
X621907Y157632D01*
X621718Y158088D01*
X621498Y158575D01*
X621231Y159047D01*
X620932Y159503D01*
X620586Y159959D01*
X621514Y159959D01*
X621530Y159927D01*
X621530Y159927D02*
G37*
G36*
X590933Y159927D02*
X590870Y159848D01*
X590760Y159723D01*
X590650Y159534D01*
X590493Y159314D01*
X590320Y159047D01*
X590147Y158732D01*
X589974Y158386D01*
X589786Y157993D01*
X589613Y157569D01*
X589440Y157113D01*
X589298Y156625D01*
X589172Y156122D01*
X589062Y155588D01*
X588999Y155022D01*
X588984Y154440D01*
X588984Y154424D01*
X588984Y154409D01*
X588984Y154361D01*
X588984Y154298D01*
X588999Y154141D01*
X589015Y153921D01*
X589047Y153654D01*
X589094Y153339D01*
X589141Y152978D01*
X589235Y152600D01*
X589330Y152176D01*
X589455Y151751D01*
X589613Y151295D01*
X589801Y150839D01*
X590037Y150368D01*
X590289Y149896D01*
X590587Y149440D01*
X590933Y149000D01*
X590021Y149000D01*
X590006Y149031D01*
X589943Y149094D01*
X589849Y149220D01*
X589723Y149393D01*
X589581Y149613D01*
X589408Y149865D01*
X589235Y150163D01*
X589062Y150509D01*
X588874Y150887D01*
X588701Y151295D01*
X588544Y151736D01*
X588386Y152223D01*
X588260Y152726D01*
X588166Y153261D01*
X588103Y153827D01*
X588088Y154424D01*
X588088Y154440D01*
X588088Y154456D01*
X588088Y154503D01*
X588088Y154566D01*
X588103Y154644D01*
X588103Y154739D01*
X588119Y154974D01*
X588150Y155242D01*
X588198Y155572D01*
X588245Y155934D01*
X588323Y156342D01*
X588433Y156767D01*
X588559Y157207D01*
X588717Y157663D01*
X588905Y158135D01*
X589125Y158606D01*
X589377Y159062D01*
X589675Y159518D01*
X590021Y159959D01*
X590949Y159959D01*
X590933Y159927D01*
X590933Y159927D02*
G37*
%LPC*%
G36*
X531706Y270802D02*
X531612Y270802D01*
X531549Y270786D01*
X531376Y270770D01*
X531172Y270723D01*
X530936Y270629D01*
X530684Y270503D01*
X530448Y270346D01*
X530338Y270236D01*
X530228Y270110D01*
X530213Y270078D01*
X530150Y269984D01*
X530055Y269827D01*
X529961Y269622D01*
X529867Y269355D01*
X529772Y269025D01*
X529710Y268648D01*
X529694Y268223D01*
X529694Y268207D01*
X529694Y268176D01*
X529694Y268113D01*
X529710Y268034D01*
X529710Y267956D01*
X529725Y267846D01*
X529757Y267594D01*
X529820Y267311D01*
X529914Y267028D01*
X530040Y266745D01*
X530213Y266478D01*
X530244Y266446D01*
X530307Y266383D01*
X530417Y266273D01*
X530574Y266163D01*
X530779Y266053D01*
X531015Y265943D01*
X531282Y265880D01*
X531596Y265849D01*
X531675Y265849D01*
X531738Y265865D01*
X531895Y265880D01*
X532084Y265928D01*
X532304Y266006D01*
X532540Y266101D01*
X532760Y266258D01*
X532980Y266462D01*
X532996Y266494D01*
X533058Y266572D01*
X533153Y266714D01*
X533247Y266887D01*
X533341Y267107D01*
X533436Y267374D01*
X533499Y267689D01*
X533514Y268019D01*
X533514Y268962D01*
X533514Y268978D01*
X533514Y268993D01*
X533514Y269088D01*
X533483Y269229D01*
X533451Y269418D01*
X533389Y269622D01*
X533294Y269842D01*
X533168Y270063D01*
X532996Y270267D01*
X532980Y270283D01*
X532901Y270346D01*
X532791Y270440D01*
X532650Y270534D01*
X532461Y270629D01*
X532241Y270723D01*
X531989Y270786D01*
X531706Y270802D01*
X531706Y270802D02*
G37*
G36*
X521707Y268365D02*
X520166Y268144D01*
X520135Y268144D01*
X520056Y268129D01*
X519930Y268097D01*
X519773Y268066D01*
X519600Y268019D01*
X519411Y267956D01*
X519254Y267893D01*
X519097Y267799D01*
X519081Y267783D01*
X519034Y267751D01*
X518987Y267689D01*
X518924Y267594D01*
X518845Y267468D01*
X518798Y267311D01*
X518751Y267122D01*
X518735Y266902D01*
X518735Y266887D01*
X518735Y266824D01*
X518751Y266745D01*
X518782Y266635D01*
X518814Y266509D01*
X518877Y266383D01*
X518955Y266258D01*
X519065Y266132D01*
X519081Y266116D01*
X519128Y266085D01*
X519207Y266038D01*
X519301Y265991D01*
X519427Y265943D01*
X519584Y265896D01*
X519757Y265865D01*
X519962Y265849D01*
X519993Y265849D01*
X520087Y265865D01*
X520229Y265880D01*
X520402Y265912D01*
X520590Y265975D01*
X520811Y266069D01*
X521015Y266211D01*
X521204Y266383D01*
X521219Y266415D01*
X521282Y266478D01*
X521361Y266588D01*
X521455Y266745D01*
X521549Y266950D01*
X521628Y267170D01*
X521691Y267437D01*
X521707Y267720D01*
X521707Y268365D01*
X521707Y268365D02*
G37*
G36*
X505748Y273129D02*
X504553Y273129D01*
X504553Y270236D01*
X505764Y270236D01*
X505921Y270251D01*
X506110Y270283D01*
X506330Y270330D01*
X506566Y270408D01*
X506770Y270503D01*
X506975Y270644D01*
X506990Y270660D01*
X507053Y270723D01*
X507132Y270817D01*
X507226Y270959D01*
X507305Y271116D01*
X507383Y271320D01*
X507446Y271556D01*
X507462Y271824D01*
X507462Y271839D01*
X507462Y271886D01*
X507446Y271949D01*
X507431Y272028D01*
X507368Y272232D01*
X507321Y272358D01*
X507242Y272484D01*
X507163Y272594D01*
X507038Y272720D01*
X506912Y272830D01*
X506739Y272924D01*
X506550Y273003D01*
X506314Y273066D01*
X506047Y273113D01*
X505748Y273129D01*
X505748Y273129D02*
G37*
G36*
X505748Y269292D02*
X504553Y269292D01*
X504553Y266085D01*
X506126Y266085D01*
X506283Y266101D01*
X506503Y266132D01*
X506723Y266195D01*
X506959Y266258D01*
X507195Y266368D01*
X507399Y266509D01*
X507415Y266525D01*
X507478Y266588D01*
X507556Y266682D01*
X507651Y266824D01*
X507745Y266997D01*
X507824Y267201D01*
X507887Y267453D01*
X507902Y267720D01*
X507902Y267736D01*
X507902Y267783D01*
X507887Y267861D01*
X507871Y267971D01*
X507839Y268082D01*
X507792Y268223D01*
X507729Y268365D01*
X507635Y268506D01*
X507525Y268648D01*
X507383Y268789D01*
X507211Y268931D01*
X506990Y269041D01*
X506754Y269151D01*
X506456Y269229D01*
X506126Y269277D01*
X505748Y269292D01*
X505748Y269292D02*
G37*
G36*
X577192Y270802D02*
X577066Y270802D01*
X576940Y270770D01*
X576767Y270739D01*
X576579Y270676D01*
X576358Y270581D01*
X576154Y270456D01*
X575950Y270283D01*
X575934Y270267D01*
X575871Y270188D01*
X575793Y270078D01*
X575682Y269921D01*
X575572Y269732D01*
X575478Y269497D01*
X575399Y269229D01*
X575336Y268931D01*
X578780Y268931D01*
X578780Y268946D01*
X578780Y268978D01*
X578780Y269009D01*
X578780Y269072D01*
X578764Y269245D01*
X578733Y269434D01*
X578670Y269669D01*
X578607Y269890D01*
X578497Y270110D01*
X578355Y270314D01*
X578340Y270330D01*
X578277Y270393D01*
X578182Y270471D01*
X578056Y270566D01*
X577884Y270644D01*
X577679Y270723D01*
X577459Y270786D01*
X577192Y270802D01*
X577192Y270802D02*
G37*
G36*
X543907Y273270D02*
X543765Y273270D01*
X543671Y273254D01*
X543545Y273239D01*
X543420Y273223D01*
X543262Y273191D01*
X543089Y273144D01*
X542728Y273018D01*
X542539Y272940D01*
X542335Y272845D01*
X542146Y272720D01*
X541957Y272578D01*
X541785Y272421D01*
X541612Y272248D01*
X541596Y272232D01*
X541580Y272201D01*
X541533Y272138D01*
X541470Y272059D01*
X541407Y271965D01*
X541344Y271839D01*
X541266Y271698D01*
X541187Y271541D01*
X541093Y271352D01*
X541014Y271163D01*
X540951Y270943D01*
X540888Y270707D01*
X540825Y270456D01*
X540778Y270173D01*
X540762Y269890D01*
X540747Y269591D01*
X540747Y269575D01*
X540747Y269512D01*
X540747Y269434D01*
X540762Y269324D01*
X540778Y269182D01*
X540794Y269009D01*
X540825Y268836D01*
X540857Y268648D01*
X540951Y268223D01*
X541108Y267767D01*
X541203Y267547D01*
X541313Y267343D01*
X541454Y267122D01*
X541596Y266934D01*
X541612Y266918D01*
X541643Y266887D01*
X541690Y266840D01*
X541753Y266777D01*
X541832Y266698D01*
X541942Y266619D01*
X542067Y266525D01*
X542193Y266431D01*
X542351Y266336D01*
X542523Y266242D01*
X542901Y266085D01*
X543121Y266022D01*
X543341Y265975D01*
X543577Y265943D01*
X543828Y265928D01*
X543970Y265928D01*
X544080Y265943D01*
X544190Y265959D01*
X544347Y265975D01*
X544505Y266006D01*
X544677Y266053D01*
X545039Y266163D01*
X545243Y266242D01*
X545432Y266336D01*
X545621Y266446D01*
X545810Y266572D01*
X545982Y266714D01*
X546155Y266887D01*
X546171Y266902D01*
X546187Y266934D01*
X546234Y266981D01*
X546281Y267060D01*
X546360Y267170D01*
X546423Y267280D01*
X546501Y267421D01*
X546580Y267578D01*
X546659Y267767D01*
X546737Y267971D01*
X546816Y268192D01*
X546879Y268428D01*
X546926Y268679D01*
X546973Y268962D01*
X546989Y269261D01*
X547004Y269575D01*
X547004Y269591D01*
X547004Y269654D01*
X547004Y269748D01*
X546989Y269858D01*
X546973Y270015D01*
X546957Y270188D01*
X546941Y270377D01*
X546894Y270581D01*
X546800Y271006D01*
X546659Y271462D01*
X546564Y271682D01*
X546454Y271902D01*
X546313Y272106D01*
X546171Y272295D01*
X546155Y272311D01*
X546140Y272342D01*
X546092Y272390D01*
X546014Y272452D01*
X545935Y272515D01*
X545841Y272610D01*
X545715Y272688D01*
X545589Y272783D01*
X545432Y272877D01*
X545259Y272956D01*
X545070Y273050D01*
X544866Y273113D01*
X544646Y273176D01*
X544426Y273223D01*
X544174Y273254D01*
X543907Y273270D01*
X543907Y273270D02*
G37*
G36*
X513421Y270802D02*
X513327Y270802D01*
X513264Y270786D01*
X513075Y270770D01*
X512855Y270723D01*
X512603Y270644D01*
X512336Y270519D01*
X512085Y270346D01*
X511959Y270251D01*
X511849Y270126D01*
X511817Y270094D01*
X511754Y270000D01*
X511676Y269858D01*
X511566Y269654D01*
X511456Y269387D01*
X511377Y269072D01*
X511314Y268710D01*
X511283Y268286D01*
X511283Y268270D01*
X511283Y268239D01*
X511283Y268176D01*
X511298Y268097D01*
X511298Y268003D01*
X511314Y267893D01*
X511361Y267641D01*
X511424Y267358D01*
X511534Y267060D01*
X511676Y266761D01*
X511864Y266494D01*
X511896Y266462D01*
X511974Y266399D01*
X512100Y266289D01*
X512273Y266179D01*
X512493Y266053D01*
X512761Y265943D01*
X513075Y265880D01*
X513421Y265849D01*
X513515Y265849D01*
X513578Y265865D01*
X513767Y265880D01*
X513987Y265928D01*
X514223Y266006D01*
X514490Y266116D01*
X514726Y266273D01*
X514946Y266478D01*
X514962Y266509D01*
X515025Y266604D01*
X515119Y266745D01*
X515213Y266950D01*
X515308Y267217D01*
X515402Y267531D01*
X515465Y267893D01*
X515481Y268317D01*
X515481Y268333D01*
X515481Y268365D01*
X515481Y268428D01*
X515481Y268522D01*
X515465Y268616D01*
X515449Y268726D01*
X515418Y268993D01*
X515355Y269292D01*
X515261Y269591D01*
X515119Y269890D01*
X514946Y270157D01*
X514915Y270188D01*
X514852Y270251D01*
X514726Y270361D01*
X514553Y270487D01*
X514333Y270597D01*
X514081Y270707D01*
X513767Y270770D01*
X513421Y270802D01*
X513421Y270802D02*
G37*
G36*
X568749Y156688D02*
X568654Y156688D01*
X568591Y156672D01*
X568419Y156657D01*
X568214Y156610D01*
X567978Y156515D01*
X567727Y156390D01*
X567491Y156232D01*
X567381Y156122D01*
X567271Y155997D01*
X567255Y155965D01*
X567192Y155871D01*
X567098Y155714D01*
X567004Y155509D01*
X566909Y155242D01*
X566815Y154912D01*
X566752Y154534D01*
X566736Y154110D01*
X566736Y154094D01*
X566736Y154063D01*
X566736Y154000D01*
X566752Y153921D01*
X566752Y153842D01*
X566768Y153732D01*
X566799Y153481D01*
X566862Y153198D01*
X566956Y152915D01*
X567082Y152632D01*
X567255Y152365D01*
X567286Y152333D01*
X567349Y152270D01*
X567459Y152160D01*
X567617Y152050D01*
X567821Y151940D01*
X568057Y151830D01*
X568324Y151767D01*
X568639Y151736D01*
X568717Y151736D01*
X568780Y151751D01*
X568937Y151767D01*
X569126Y151814D01*
X569346Y151893D01*
X569582Y151987D01*
X569802Y152144D01*
X570022Y152349D01*
X570038Y152380D01*
X570101Y152459D01*
X570195Y152600D01*
X570290Y152773D01*
X570384Y152993D01*
X570478Y153261D01*
X570541Y153575D01*
X570557Y153905D01*
X570557Y154849D01*
X570557Y154864D01*
X570557Y154880D01*
X570557Y154974D01*
X570525Y155116D01*
X570494Y155305D01*
X570431Y155509D01*
X570337Y155729D01*
X570211Y155949D01*
X570038Y156154D01*
X570022Y156169D01*
X569944Y156232D01*
X569834Y156327D01*
X569692Y156421D01*
X569503Y156515D01*
X569283Y156610D01*
X569032Y156672D01*
X568749Y156688D01*
X568749Y156688D02*
G37*
G36*
X505748Y159015D02*
X504553Y159015D01*
X504553Y156122D01*
X505764Y156122D01*
X505921Y156138D01*
X506110Y156169D01*
X506330Y156217D01*
X506566Y156295D01*
X506770Y156390D01*
X506975Y156531D01*
X506990Y156547D01*
X507053Y156610D01*
X507132Y156704D01*
X507226Y156846D01*
X507305Y157003D01*
X507383Y157207D01*
X507446Y157443D01*
X507462Y157710D01*
X507462Y157726D01*
X507462Y157773D01*
X507446Y157836D01*
X507431Y157915D01*
X507368Y158119D01*
X507321Y158245D01*
X507242Y158371D01*
X507163Y158481D01*
X507038Y158606D01*
X506912Y158716D01*
X506739Y158811D01*
X506550Y158889D01*
X506314Y158952D01*
X506047Y159000D01*
X505748Y159015D01*
X505748Y159015D02*
G37*
G36*
X505748Y155179D02*
X504553Y155179D01*
X504553Y151972D01*
X506126Y151972D01*
X506283Y151987D01*
X506503Y152019D01*
X506723Y152081D01*
X506959Y152144D01*
X507195Y152254D01*
X507399Y152396D01*
X507415Y152412D01*
X507478Y152475D01*
X507556Y152569D01*
X507651Y152710D01*
X507745Y152883D01*
X507824Y153088D01*
X507887Y153339D01*
X507902Y153607D01*
X507902Y153622D01*
X507902Y153670D01*
X507887Y153748D01*
X507871Y153858D01*
X507839Y153968D01*
X507792Y154110D01*
X507729Y154251D01*
X507635Y154393D01*
X507525Y154534D01*
X507383Y154676D01*
X507211Y154817D01*
X506990Y154927D01*
X506754Y155037D01*
X506456Y155116D01*
X506126Y155163D01*
X505748Y155179D01*
X505748Y155179D02*
G37*
G36*
X599030Y156688D02*
X598905Y156688D01*
X598779Y156657D01*
X598606Y156625D01*
X598417Y156562D01*
X598197Y156468D01*
X597993Y156342D01*
X597788Y156169D01*
X597773Y156154D01*
X597710Y156075D01*
X597631Y155965D01*
X597521Y155808D01*
X597411Y155619D01*
X597317Y155383D01*
X597238Y155116D01*
X597175Y154817D01*
X600619Y154817D01*
X600619Y154833D01*
X600619Y154864D01*
X600619Y154896D01*
X600619Y154959D01*
X600603Y155132D01*
X600571Y155320D01*
X600508Y155556D01*
X600446Y155776D01*
X600336Y155997D01*
X600194Y156201D01*
X600178Y156217D01*
X600115Y156279D01*
X600021Y156358D01*
X599895Y156452D01*
X599722Y156531D01*
X599518Y156610D01*
X599298Y156672D01*
X599030Y156688D01*
X599030Y156688D02*
G37*
G36*
X576138Y156688D02*
X576013Y156688D01*
X575887Y156657D01*
X575714Y156625D01*
X575525Y156562D01*
X575305Y156468D01*
X575101Y156342D01*
X574896Y156169D01*
X574881Y156154D01*
X574818Y156075D01*
X574739Y155965D01*
X574629Y155808D01*
X574519Y155619D01*
X574425Y155383D01*
X574346Y155116D01*
X574283Y154817D01*
X577726Y154817D01*
X577726Y154833D01*
X577726Y154864D01*
X577726Y154896D01*
X577726Y154959D01*
X577711Y155132D01*
X577679Y155320D01*
X577616Y155556D01*
X577553Y155776D01*
X577443Y155997D01*
X577302Y156201D01*
X577286Y156217D01*
X577223Y156279D01*
X577129Y156358D01*
X577003Y156452D01*
X576830Y156531D01*
X576626Y156610D01*
X576406Y156672D01*
X576138Y156688D01*
X576138Y156688D02*
G37*
G36*
X558293Y156688D02*
X558199Y156688D01*
X558136Y156672D01*
X557947Y156657D01*
X557727Y156610D01*
X557476Y156531D01*
X557208Y156405D01*
X556957Y156232D01*
X556831Y156138D01*
X556721Y156012D01*
X556689Y155981D01*
X556627Y155886D01*
X556548Y155745D01*
X556438Y155541D01*
X556328Y155273D01*
X556249Y154959D01*
X556186Y154597D01*
X556155Y154173D01*
X556155Y154157D01*
X556155Y154125D01*
X556155Y154063D01*
X556171Y153984D01*
X556171Y153890D01*
X556186Y153780D01*
X556234Y153528D01*
X556296Y153245D01*
X556407Y152946D01*
X556548Y152647D01*
X556737Y152380D01*
X556768Y152349D01*
X556847Y152286D01*
X556973Y152176D01*
X557146Y152066D01*
X557366Y151940D01*
X557633Y151830D01*
X557947Y151767D01*
X558293Y151736D01*
X558388Y151736D01*
X558450Y151751D01*
X558639Y151767D01*
X558859Y151814D01*
X559095Y151893D01*
X559362Y152003D01*
X559598Y152160D01*
X559818Y152365D01*
X559834Y152396D01*
X559897Y152490D01*
X559991Y152632D01*
X560086Y152836D01*
X560180Y153104D01*
X560274Y153418D01*
X560337Y153780D01*
X560353Y154204D01*
X560353Y154220D01*
X560353Y154251D01*
X560353Y154314D01*
X560353Y154409D01*
X560337Y154503D01*
X560321Y154613D01*
X560290Y154880D01*
X560227Y155179D01*
X560133Y155478D01*
X559991Y155776D01*
X559818Y156044D01*
X559787Y156075D01*
X559724Y156138D01*
X559598Y156248D01*
X559425Y156374D01*
X559205Y156484D01*
X558954Y156594D01*
X558639Y156657D01*
X558293Y156688D01*
X558293Y156688D02*
G37*
G36*
X529552Y156688D02*
X529458Y156688D01*
X529395Y156672D01*
X529206Y156657D01*
X528986Y156610D01*
X528735Y156531D01*
X528467Y156405D01*
X528216Y156232D01*
X528090Y156138D01*
X527980Y156012D01*
X527949Y155981D01*
X527886Y155886D01*
X527807Y155745D01*
X527697Y155541D01*
X527587Y155273D01*
X527508Y154959D01*
X527445Y154597D01*
X527414Y154173D01*
X527414Y154157D01*
X527414Y154125D01*
X527414Y154063D01*
X527430Y153984D01*
X527430Y153890D01*
X527445Y153780D01*
X527493Y153528D01*
X527556Y153245D01*
X527666Y152946D01*
X527807Y152647D01*
X527996Y152380D01*
X528027Y152349D01*
X528106Y152286D01*
X528232Y152176D01*
X528405Y152066D01*
X528625Y151940D01*
X528892Y151830D01*
X529206Y151767D01*
X529552Y151736D01*
X529647Y151736D01*
X529710Y151751D01*
X529898Y151767D01*
X530118Y151814D01*
X530354Y151893D01*
X530621Y152003D01*
X530857Y152160D01*
X531077Y152365D01*
X531093Y152396D01*
X531156Y152490D01*
X531250Y152632D01*
X531345Y152836D01*
X531439Y153104D01*
X531533Y153418D01*
X531596Y153780D01*
X531612Y154204D01*
X531612Y154220D01*
X531612Y154251D01*
X531612Y154314D01*
X531612Y154409D01*
X531596Y154503D01*
X531581Y154613D01*
X531549Y154880D01*
X531486Y155179D01*
X531392Y155478D01*
X531250Y155776D01*
X531077Y156044D01*
X531046Y156075D01*
X530983Y156138D01*
X530857Y156248D01*
X530684Y156374D01*
X530464Y156484D01*
X530213Y156594D01*
X529898Y156657D01*
X529552Y156688D01*
X529552Y156688D02*
G37*
G36*
X513421Y156688D02*
X513327Y156688D01*
X513264Y156672D01*
X513075Y156657D01*
X512855Y156610D01*
X512603Y156531D01*
X512336Y156405D01*
X512085Y156232D01*
X511959Y156138D01*
X511849Y156012D01*
X511817Y155981D01*
X511754Y155886D01*
X511676Y155745D01*
X511566Y155541D01*
X511456Y155273D01*
X511377Y154959D01*
X511314Y154597D01*
X511283Y154173D01*
X511283Y154157D01*
X511283Y154125D01*
X511283Y154063D01*
X511298Y153984D01*
X511298Y153890D01*
X511314Y153780D01*
X511361Y153528D01*
X511424Y153245D01*
X511534Y152946D01*
X511676Y152647D01*
X511864Y152380D01*
X511896Y152349D01*
X511974Y152286D01*
X512100Y152176D01*
X512273Y152066D01*
X512493Y151940D01*
X512761Y151830D01*
X513075Y151767D01*
X513421Y151736D01*
X513515Y151736D01*
X513578Y151751D01*
X513767Y151767D01*
X513987Y151814D01*
X514223Y151893D01*
X514490Y152003D01*
X514726Y152160D01*
X514946Y152365D01*
X514962Y152396D01*
X515025Y152490D01*
X515119Y152632D01*
X515213Y152836D01*
X515308Y153104D01*
X515402Y153418D01*
X515465Y153780D01*
X515481Y154204D01*
X515481Y154220D01*
X515481Y154251D01*
X515481Y154314D01*
X515481Y154409D01*
X515465Y154503D01*
X515449Y154613D01*
X515418Y154880D01*
X515355Y155179D01*
X515261Y155478D01*
X515119Y155776D01*
X514946Y156044D01*
X514915Y156075D01*
X514852Y156138D01*
X514726Y156248D01*
X514553Y156374D01*
X514333Y156484D01*
X514081Y156594D01*
X513767Y156657D01*
X513421Y156688D01*
X513421Y156688D02*
G37*
%LPD*%
D12*
X212421Y-325728D02*
X214272Y-327579D01*
X216305Y-329225D01*
X218500Y-330651D01*
X220832Y-331839D01*
X223275Y-332776D01*
X225802Y-333454D01*
X228387Y-333863D01*
X231000Y-334000D01*
X231035Y-333998D02*
X261336Y-333998D01*
X261330Y-334000D02*
X263918Y-333659D01*
X266330Y-332660D01*
X268401Y-331071D01*
X269990Y-329000D01*
X270989Y-326588D01*
X271330Y-324000D01*
X271336Y-323998D02*
X271336Y-300478D01*
X271330Y-300480D02*
X271671Y-297892D01*
X272670Y-295480D01*
X274259Y-293409D01*
X276330Y-291820D01*
X278742Y-290821D01*
X281330Y-290480D01*
X281336Y-290498D02*
X288336Y-290498D01*
X288330Y-290500D02*
X290918Y-290841D01*
X293330Y-291840D01*
X295401Y-293429D01*
X296990Y-295500D01*
X297989Y-297912D01*
X298330Y-300500D01*
X298336Y-300498D02*
X298336Y-340998D01*
X298330Y-341000D02*
X298722Y-343472D01*
X299858Y-345702D01*
X301628Y-347472D01*
X303858Y-348609D01*
X306330Y-349000D01*
X306336Y-348998D02*
X355736Y-348998D01*
X355730Y-349000D02*
X358202Y-348609D01*
X360432Y-347472D01*
X362202Y-345702D01*
X363339Y-343472D01*
X363730Y-341000D01*
X363736Y-340980D02*
X363736Y-300480D01*
X363730Y-300500D02*
X364071Y-297912D01*
X365070Y-295500D01*
X366659Y-293429D01*
X368730Y-291840D01*
X371142Y-290841D01*
X373730Y-290500D01*
X373436Y-290498D02*
X380736Y-290498D01*
X380730Y-290480D02*
X383318Y-290821D01*
X385730Y-291820D01*
X387801Y-293409D01*
X389390Y-295480D01*
X390389Y-297892D01*
X390730Y-300480D01*
X390736Y-300478D02*
X390736Y-323998D01*
X390730Y-324000D02*
X391071Y-326588D01*
X392070Y-329000D01*
X393659Y-331071D01*
X395730Y-332660D01*
X398142Y-333659D01*
X400730Y-334000D01*
X400735Y-333998D02*
X431036Y-333998D01*
X431000Y-334000D02*
X433613Y-333863D01*
X436198Y-333454D01*
X438725Y-332776D01*
X441168Y-331839D01*
X443500Y-330651D01*
X445695Y-329225D01*
X447728Y-327579D01*
X449579Y-325728D01*
X451225Y-323695D01*
X452651Y-321500D01*
X453839Y-319168D01*
X454776Y-316725D01*
X455454Y-314198D01*
X455863Y-311613D01*
X456000Y-309000D01*
X456000Y-309000D02*
X456000Y91000D01*
X456000Y91000D02*
X455863Y93613D01*
X455454Y96198D01*
X454776Y98725D01*
X453839Y101168D01*
X452651Y103500D01*
X451225Y105695D01*
X449579Y107728D01*
X447728Y109579D01*
X445695Y111225D01*
X443500Y112651D01*
X441168Y113839D01*
X438725Y114776D01*
X436198Y115454D01*
X433613Y115863D01*
X431000Y116000D01*
X431000Y116000D02*
X400700Y116000D01*
X400700Y116000D02*
X398112Y115659D01*
X395700Y114660D01*
X393629Y113071D01*
X392040Y111000D01*
X391041Y108588D01*
X390700Y106000D01*
X390700Y106000D02*
X390700Y82480D01*
X390700Y82480D02*
X390359Y79892D01*
X389360Y77480D01*
X387771Y75409D01*
X385700Y73820D01*
X383288Y72821D01*
X380700Y72480D01*
X380700Y72500D02*
X373700Y72500D01*
X373700Y72500D02*
X371112Y72841D01*
X368700Y73840D01*
X366629Y75429D01*
X365040Y77500D01*
X364041Y79912D01*
X363700Y82500D01*
X363700Y82500D02*
X363700Y123000D01*
X363700Y123000D02*
X363308Y125472D01*
X362172Y127702D01*
X360402Y129472D01*
X358172Y130609D01*
X355700Y131000D01*
X355700Y131000D02*
X306300Y131000D01*
X306300Y131000D02*
X303828Y130609D01*
X301598Y129472D01*
X299828Y127702D01*
X298692Y125472D01*
X298300Y123000D01*
X298300Y122982D02*
X298300Y82482D01*
X298300Y82500D02*
X297959Y79912D01*
X296960Y77500D01*
X295371Y75429D01*
X293300Y73840D01*
X290888Y72841D01*
X288300Y72500D01*
X288600Y72500D02*
X281300Y72500D01*
X281300Y72480D02*
X278712Y72821D01*
X276300Y73820D01*
X274229Y75409D01*
X272640Y77480D01*
X271641Y79892D01*
X271300Y82480D01*
X271300Y82480D02*
X271300Y106000D01*
X271300Y106000D02*
X270959Y108588D01*
X269960Y111000D01*
X268371Y113071D01*
X266300Y114660D01*
X263888Y115659D01*
X261300Y116000D01*
X261300Y116000D02*
X231000Y116000D01*
X231000Y116000D02*
X228387Y115863D01*
X225802Y115454D01*
X223275Y114776D01*
X220832Y113839D01*
X218500Y112651D01*
X216305Y111225D01*
X214272Y109579D01*
X212421Y107728D01*
X210775Y105695D01*
X209349Y103500D01*
X208161Y101168D01*
X207224Y98725D01*
X206546Y96198D01*
X206137Y93613D01*
X206000Y91000D01*
X206000Y90917D02*
X206000Y-309000D01*
X206000Y-309000D02*
X206137Y-311613D01*
X206546Y-314198D01*
X207224Y-316725D01*
X208161Y-319168D01*
X209349Y-321500D01*
X210775Y-323695D01*
X212421Y-325728D01*
D63*
X305800Y-317000D02*
D03*
X356200Y-317000D02*
D03*
X356200Y99000D02*
D03*
X305800Y99000D02*
D03*
D64*
X231000Y-309000D02*
D03*
X431000Y-309000D02*
D03*
X431000Y91000D02*
D03*
X231000Y91000D02*
D03*
D65*
X230790Y-65892D02*
D03*
X230790Y-53192D02*
D03*
X247554Y-65892D02*
D03*
X247554Y-78592D02*
D03*
D66*
X230790Y-78592D02*
D03*
D73*
X318300Y-296000D02*
D03*
X331000Y-296000D02*
D03*
X343700Y-296000D02*
D03*
X343700Y78000D02*
D03*
X331000Y78000D02*
D03*
X318300Y78000D02*
D03*
D77*
X343700Y-315500D02*
D03*
X318300Y97500D02*
D03*
D78*
X318300Y-318000D02*
D03*
X331000Y-318000D02*
D03*
X331000Y100000D02*
D03*
X343700Y100000D02*
D03*
M02*
