M48
;Layer_Color=9474304
;FILE_FORMAT=2:5
INCH
;TYPE=PLATED
T1F00S00C0.01181
T2F00S00C0.02795
T3F00S00C0.03937
T4F00S00C0.04724
T5F00S00C0.05906
T6F00S00C0.08268
;TYPE=NON_PLATED
%
T01
X0000000Y-0054921
X0001381Y-0018766
X0002047Y-0011811
X0011586Y0000118
X-0002953Y0010827
X0002165Y0020965
X0002854Y0026496
X0007185Y0029626
X-0002779Y0029190
X-0009350Y0034055
X-0010140Y0040748
X0000000Y0054823
T02
X-0005000Y-0043602
X0000000
X0005000
Y0043504
X0000000
X-0005000
T03
X-0009843Y-0034252
X0000000
X0009843
X0034370Y-0009724
Y0000118
Y0009961
T04
X-0040354Y-0012382
X-0022638
Y0012618
X-0040354
T05
X-0019685Y-0024783
X0019685
Y0025020
X-0019685
T06
X-0029528Y-0039370
X0029528
X0030413Y0039368
X-0029528Y0039370
M30
