G04*
G04 #@! TF.GenerationSoftware,Altium Limited,Altium Designer,22.4.2 (48)*
G04*
G04 Layer_Color=2752767*
%FSAX26Y26*%
%MOIN*%
G70*
G04*
G04 #@! TF.SameCoordinates,7339E0FC-21CB-4CED-BD79-60AD5129B2FD*
G04*
G04*
G04 #@! TF.FilePolarity,Positive*
G04*
G01*
G75*
%ADD12C,0.007874*%
%ADD81C,0.002000*%
%ADD82C,0.002667*%
D12*
X-00295276Y-00393701D02*
G03*
X-00196850Y-00492126I00098425J00000000D01*
G01*
X-00196850Y-00492126D02*
X00196850Y-00492126D01*
X00196850Y-00492126D02*
G03*
X00295276Y-00393701I00000000J00098425D01*
G01*
X00295293Y-00393700D02*
X00295293Y00393701D01*
X00295276Y00393701D02*
G03*
X00196850Y00492126I-00098425J00000000D01*
G01*
X-00009843Y00492126D01*
X-00009843Y00492126D02*
G03*
X-00019685Y00482284I00000000J-00009842D01*
G01*
X-00019685Y00472442D01*
X-00098425Y00472441D02*
G03*
X-00019685Y00472441I00039370J00000000D01*
G01*
X-00098425Y00472442D02*
X-00098425Y00482284D01*
X-00098425Y00482284D02*
G03*
X-00108268Y00492126I-00009842J00000000D01*
G01*
X-00196850Y00492127D01*
X-00196850Y00492126D02*
G03*
X-00295276Y00393701I00000000J-00098425D01*
G01*
X-00295276Y00393701D02*
X-00295276Y00274409D01*
X-00295276Y00275591D02*
G03*
X-00255906Y00236220I00039370J00000000D01*
G01*
X-00255906Y00236220D02*
X-00161417Y00236220D01*
X-00122047Y00196850D02*
G03*
X-00161417Y00236220I-00039370J00000000D01*
G01*
X-00122047Y00196850D02*
X-00122030Y00169291D01*
X-00161329Y00129921D02*
G03*
X-00121959Y00169291I00000000J00039370D01*
G01*
X-00161417Y00129921D02*
X-00322835Y00129921D01*
X-00322835Y00129921D02*
G03*
X-00354331Y00098425I00000000J-00031496D01*
G01*
X-00354332Y00098425D02*
X-00354332Y-00098425D01*
X-00354331Y-00098425D02*
G03*
X-00322835Y-00129921I00031496J00000000D01*
G01*
X-00322852Y-00129921D02*
X-00161417Y-00129921D01*
X-00122030Y-00169291D02*
G03*
X-00161400Y-00129921I-00039370J00000000D01*
G01*
X-00122030Y-00169291D02*
X-00122047Y-00196850D01*
X-00161417Y-00236220D02*
G03*
X-00122047Y-00196850I00000000J00039370D01*
G01*
X-00161417Y-00236220D02*
X-00255906Y-00236220D01*
X-00255906Y-00236220D02*
G03*
X-00295276Y-00275591I00000000J-00039370D01*
G01*
X-00295276Y-00274409D02*
X-00295276Y-00393701D01*
D81*
X-00265874Y-00008000D02*
X-00261874Y00000000D01*
X-00265874Y00008000D01*
X-00257874Y00004000D01*
X-00249874Y00008000D01*
X-00253874Y00000000D01*
X-00249874Y-00008000D01*
X-00257874Y-00004000D01*
X-00265874Y-00008000D01*
X-00153669Y-00042000D02*
X-00137669Y-00042000D01*
X-00137669Y-00058000D01*
X-00153669Y-00058000D01*
X-00153669Y-00042000D01*
X-00188850Y-00385701D02*
X-00196850Y-00401701D01*
X-00204850Y-00385701D01*
X-00188850Y-00385701D01*
X00110110Y-00234378D02*
X00114110Y-00226378D01*
X00110110Y-00218378D01*
X00118110Y-00222378D01*
X00126110Y-00218378D01*
X00122110Y-00226378D01*
X00126110Y-00234378D01*
X00118110Y-00230378D01*
X00110110Y-00234378D01*
X00204598Y-00247905D02*
X00212598Y-00251905D01*
X00220598Y-00247905D01*
X00216598Y-00255905D01*
X00220598Y-00263906D01*
X00212598Y-00259906D01*
X00204598Y-00263906D01*
X00208598Y-00255905D01*
X00204598Y-00247905D01*
X00204850Y-00385701D02*
X00196850Y-00401701D01*
X00188850Y-00385701D01*
X00204850Y-00385701D01*
X-00008732Y-00132138D02*
X-00016732Y-00128138D01*
X-00024732Y-00132138D01*
X-00020732Y-00124138D01*
X-00024732Y-00116138D01*
X-00016732Y-00120138D01*
X-00008732Y-00116138D01*
X-00012732Y-00124138D01*
X-00008732Y-00132138D01*
X00143827Y00104205D02*
X00135827Y00108205D01*
X00127827Y00104205D01*
X00131827Y00112205D01*
X00127827Y00120205D01*
X00135827Y00116205D01*
X00143827Y00120205D01*
X00139827Y00112205D01*
X00143827Y00104205D01*
X00238063Y00102822D02*
X00246063Y00098822D01*
X00254063Y00102822D01*
X00250063Y00094822D01*
X00254063Y00086822D01*
X00246063Y00090822D01*
X00238063Y00086822D01*
X00242063Y00094822D01*
X00238063Y00102822D01*
X00083811Y00232158D02*
X00075811Y00236158D01*
X00067811Y00232158D01*
X00071811Y00240158D01*
X00067811Y00248158D01*
X00075811Y00244158D01*
X00083811Y00248158D01*
X00079811Y00240158D01*
X00083811Y00232158D01*
X00064099Y00279840D02*
X00056099Y00283840D01*
X00048099Y00279840D01*
X00052099Y00287840D01*
X00048099Y00295840D01*
X00056099Y00291840D01*
X00064099Y00295840D01*
X00060099Y00287840D01*
X00064099Y00279840D01*
X-00012669Y00300510D02*
X-00020669Y00304510D01*
X-00028669Y00300510D01*
X-00024669Y00308510D01*
X-00028669Y00316510D01*
X-00020669Y00312510D01*
X-00012669Y00316510D01*
X-00016669Y00308510D01*
X-00012669Y00300510D01*
X-00030504Y00346331D02*
X-00026504Y00350331D01*
X-00022504Y00350331D01*
X-00026504Y00354331D01*
X-00022504Y00358331D01*
X-00026504Y00358331D01*
X-00030504Y00362331D01*
X-00034504Y00358331D01*
X-00038504Y00358331D01*
X-00034504Y00354331D01*
X-00038504Y00350331D01*
X-00034504Y00350331D01*
X-00030504Y00346331D01*
X00031496Y00346331D02*
X00035496Y00350331D01*
X00039496Y00350331D01*
X00035496Y00354331D01*
X00039496Y00358331D01*
X00035496Y00358331D01*
X00031496Y00362331D01*
X00027496Y00358331D01*
X00023496Y00358331D01*
X00027496Y00354331D01*
X00023496Y00350331D01*
X00027496Y00350331D01*
X00031496Y00346331D01*
X00047118Y-00000101D02*
X00055118Y-00004101D01*
X00063118Y-00000101D01*
X00059118Y-00008101D01*
X00063118Y-00016101D01*
X00055118Y-00012101D01*
X00047118Y-00016101D01*
X00051118Y-00008101D01*
X00047118Y-00000101D01*
X-00137669Y-00008000D02*
X-00153669Y-00008000D01*
X-00153669Y00008000D01*
X-00137669Y00008000D01*
X-00137669Y-00008000D01*
X-00137669Y00042000D02*
X-00153669Y00042000D01*
X-00153669Y00058000D01*
X-00137669Y00058000D01*
X-00137669Y00042000D01*
X00196850Y00385701D02*
X00188850Y00401701D01*
X00204850Y00401701D01*
X00196850Y00385701D01*
X00039496Y00400331D02*
X00035496Y00404331D01*
X00039496Y00408331D01*
X00035496Y00408331D01*
X00031496Y00412331D01*
X00027496Y00408331D01*
X00023496Y00408331D01*
X00027496Y00404331D01*
X00023496Y00400331D01*
X00027496Y00400331D01*
X00031496Y00396331D01*
X00035496Y00400331D01*
X00039496Y00400331D01*
X00039496Y00450331D02*
X00035496Y00454331D01*
X00039496Y00458331D01*
X00035496Y00458331D01*
X00031496Y00462331D01*
X00027496Y00458331D01*
X00023496Y00458331D01*
X00027496Y00454331D01*
X00023496Y00450331D01*
X00027496Y00450331D01*
X00031496Y00446331D01*
X00035496Y00450331D01*
X00039496Y00450331D01*
X-00022504Y00408331D02*
X-00026504Y00408331D01*
X-00030504Y00412331D01*
X-00034504Y00408331D01*
X-00038504Y00408331D01*
X-00034504Y00404331D01*
X-00038504Y00400331D01*
X-00034504Y00400331D01*
X-00030504Y00396331D01*
X-00026504Y00400331D01*
X-00022504Y00400331D01*
X-00026504Y00404331D01*
X-00022504Y00408331D01*
X-00188850Y00401701D02*
X-00196850Y00385701D01*
X-00204850Y00401701D01*
X-00188850Y00401701D01*
D82*
X-00214441Y-00098425D02*
G03*
X-00214441Y-00098425I-00008000J00000000D01*
G01*
X-00214441Y00098425D02*
G03*
X-00214441Y00098425I-00008000J00000000D01*
G01*
M02*
