G04*
G04 #@! TF.GenerationSoftware,Altium Limited,Altium Designer,22.11.1 (43)*
G04*
G04 Layer_Color=65535*
%FSLAX44Y44*%
%MOMM*%
G71*
G04*
G04 #@! TF.SameCoordinates,A5472EDE-B7E4-43DC-9BD9-ACA13087276E*
G04*
G04*
G04 #@! TF.FilePolarity,Positive*
G04*
G01*
G75*
%ADD19C,0.1000*%
%ADD20C,0.2000*%
G36*
X624792Y684437D02*
X626057Y683369D01*
X626860Y681920D01*
X627094Y680282D01*
X626730Y678666D01*
X626272Y677976D01*
X626329Y677934D01*
X626329Y677934D01*
X626028Y677517D01*
X625451Y676666D01*
X624908Y675793D01*
X624400Y674899D01*
X624159Y674444D01*
X624159Y674444D01*
X623268Y675281D01*
X621159Y676503D01*
X618779Y677032D01*
X616351Y676821D01*
X615189Y676441D01*
X615170Y676488D01*
X615170Y676488D01*
X615592Y677455D01*
X616551Y679335D01*
X617621Y681153D01*
X618799Y682904D01*
X619440Y683743D01*
X619440Y683743D01*
X620043Y684310D01*
X621574Y684940D01*
X623229Y684984D01*
X624792Y684437D01*
X624792Y684437D02*
G37*
G36*
X484791Y684437D02*
X486057Y683369D01*
X486859Y681920D01*
X487094Y680282D01*
X486729Y678666D01*
X486272Y677976D01*
X486329Y677934D01*
X486329Y677934D01*
X486028Y677517D01*
X485451Y676666D01*
X484907Y675793D01*
X484399Y674899D01*
X484158Y674444D01*
X484158Y674444D01*
X483268Y675281D01*
X481158Y676503D01*
X478779Y677032D01*
X476350Y676821D01*
X475189Y676441D01*
X475169Y676488D01*
X475169Y676488D01*
X475591Y677455D01*
X476550Y679335D01*
X477621Y681153D01*
X478799Y682904D01*
X479440Y683743D01*
X479440Y683743D01*
X480043Y684310D01*
X481574Y684940D01*
X483229Y684984D01*
X484791Y684437D01*
X484791Y684437D02*
G37*
G36*
X344791Y684437D02*
X346056Y683369D01*
X346859Y681920D01*
X347093Y680282D01*
X346729Y678666D01*
X346271Y677976D01*
X346328Y677934D01*
X346328Y677934D01*
X346027Y677517D01*
X345450Y676666D01*
X344907Y675793D01*
X344398Y674899D01*
X344158Y674444D01*
X344158Y674444D01*
X343267Y675281D01*
X341157Y676503D01*
X338778Y677032D01*
X336350Y676821D01*
X335188Y676441D01*
X335168Y676488D01*
X335168Y676488D01*
X335591Y677455D01*
X336549Y679335D01*
X337620Y681153D01*
X338798Y682904D01*
X339439Y683743D01*
X339439Y683743D01*
X340042Y684310D01*
X341573Y684940D01*
X343228Y684984D01*
X344791Y684437D01*
X344791Y684437D02*
G37*
G36*
X204790Y684437D02*
X206056Y683369D01*
X206858Y681920D01*
X207092Y680282D01*
X206728Y678666D01*
X206271Y677976D01*
X206328Y677934D01*
X206328Y677934D01*
X206027Y677517D01*
X205449Y676666D01*
X204906Y675793D01*
X204398Y674899D01*
X204157Y674444D01*
X204157Y674444D01*
X203266Y675281D01*
X201157Y676503D01*
X198778Y677032D01*
X196349Y676821D01*
X195188Y676441D01*
X195168Y676488D01*
X195168Y676488D01*
X195590Y677455D01*
X196549Y679335D01*
X197619Y681153D01*
X198798Y682904D01*
X199438Y683743D01*
X199438Y683743D01*
X200042Y684310D01*
X201573Y684940D01*
X203228Y684984D01*
X204790Y684437D01*
X204790Y684437D02*
G37*
G36*
X64790Y684437D02*
X66055Y683369D01*
X66858Y681920D01*
X67092Y680282D01*
X66728Y678666D01*
X66270Y677976D01*
X66327Y677934D01*
X66327Y677934D01*
X66026Y677517D01*
X65449Y676666D01*
X64906Y675793D01*
X64397Y674899D01*
X64157Y674444D01*
X64157Y674444D01*
X63266Y675281D01*
X61156Y676503D01*
X58777Y677032D01*
X56349Y676821D01*
X55187Y676441D01*
X55167Y676488D01*
X55167Y676488D01*
X55589Y677455D01*
X56548Y679335D01*
X57619Y681153D01*
X58797Y682904D01*
X59438Y683743D01*
X59438Y683743D01*
X60041Y684310D01*
X61572Y684940D01*
X63227Y684984D01*
X64790Y684437D01*
X64790Y684437D02*
G37*
G36*
X622035Y653336D02*
X622035Y653336D01*
X621815Y652658D01*
X620977Y651505D01*
X619823Y650667D01*
X618468Y650227D01*
X617042Y650227D01*
X615687Y650667D01*
X614534Y651505D01*
X613696Y652658D01*
X613475Y653336D01*
X613513Y659716D01*
X613516Y659716D01*
X614501Y659192D01*
X616642Y658578D01*
X618868Y658578D01*
X621009Y659192D01*
X621995Y659716D01*
X621997Y659716D01*
X622035Y653336D01*
X622035Y653336D02*
G37*
G36*
X482034Y653336D02*
X482034Y653336D01*
X481814Y652658D01*
X480976Y651505D01*
X479823Y650667D01*
X478467Y650227D01*
X477042Y650227D01*
X475686Y650667D01*
X474533Y651505D01*
X473695Y652658D01*
X473475Y653336D01*
X473512Y659716D01*
X473515Y659716D01*
X474501Y659192D01*
X476641Y658578D01*
X478868Y658578D01*
X481008Y659192D01*
X481994Y659716D01*
X481997Y659716D01*
X482034Y653336D01*
X482034Y653336D02*
G37*
G36*
X342034Y653336D02*
X342034Y653336D01*
X341814Y652658D01*
X340976Y651505D01*
X339822Y650667D01*
X338467Y650227D01*
X337041Y650227D01*
X335686Y650667D01*
X334532Y651505D01*
X333694Y652658D01*
X333474Y653336D01*
X333512Y659716D01*
X333515Y659716D01*
X334500Y659192D01*
X336641Y658578D01*
X338867Y658578D01*
X341008Y659192D01*
X341993Y659716D01*
X341996Y659716D01*
X342034Y653336D01*
X342034Y653336D02*
G37*
G36*
X202033Y653336D02*
X202033Y653336D01*
X201813Y652658D01*
X200975Y651505D01*
X199822Y650667D01*
X198466Y650227D01*
X197041Y650227D01*
X195685Y650667D01*
X194532Y651505D01*
X193694Y652658D01*
X193474Y653336D01*
X193511Y659716D01*
X193514Y659716D01*
X194499Y659192D01*
X196640Y658578D01*
X198867Y658578D01*
X201007Y659192D01*
X201993Y659716D01*
X201996Y659716D01*
X202033Y653336D01*
X202033Y653336D02*
G37*
G36*
X62033Y653336D02*
X62033Y653336D01*
X61812Y652658D01*
X60974Y651505D01*
X59821Y650667D01*
X58466Y650227D01*
X57040Y650227D01*
X55684Y650667D01*
X54531Y651505D01*
X53693Y652658D01*
X53473Y653336D01*
X53511Y659716D01*
X53513Y659716D01*
X54499Y659192D01*
X56639Y658578D01*
X58866Y658578D01*
X61007Y659192D01*
X61992Y659716D01*
X61995Y659716D01*
X62033Y653336D01*
X62033Y653336D02*
G37*
G36*
X619823Y577333D02*
X620977Y576495D01*
X621815Y575342D01*
X622035Y574664D01*
X622035Y574664D01*
X621997Y568284D01*
X621995Y568284D01*
X621009Y568808D01*
X618868Y569422D01*
X616642Y569422D01*
X614501Y568808D01*
X613516Y568284D01*
X613513Y568284D01*
X613475Y574664D01*
X613696Y575342D01*
X614534Y576495D01*
X615687Y577333D01*
X617042Y577773D01*
X618468Y577773D01*
X619823Y577333D01*
X619823Y577333D02*
G37*
G36*
X479823Y577333D02*
X480976Y576495D01*
X481814Y575342D01*
X482034Y574664D01*
X482034Y574664D01*
X481997Y568284D01*
X481994Y568284D01*
X481008Y568808D01*
X478868Y569422D01*
X476641Y569422D01*
X474501Y568808D01*
X473515Y568284D01*
X473512Y568284D01*
X473475Y574664D01*
X473695Y575342D01*
X474533Y576495D01*
X475686Y577333D01*
X477042Y577773D01*
X478467Y577773D01*
X479823Y577333D01*
X479823Y577333D02*
G37*
G36*
X339822Y577333D02*
X340976Y576495D01*
X341814Y575342D01*
X342034Y574664D01*
X342034Y574664D01*
X341996Y568284D01*
X341993Y568284D01*
X341008Y568808D01*
X338867Y569422D01*
X336641Y569422D01*
X334500Y568808D01*
X333515Y568284D01*
X333512Y568284D01*
X333474Y574664D01*
X333694Y575342D01*
X334532Y576495D01*
X335686Y577333D01*
X337041Y577773D01*
X338467Y577773D01*
X339822Y577333D01*
X339822Y577333D02*
G37*
G36*
X199822Y577333D02*
X200975Y576495D01*
X201813Y575342D01*
X202033Y574664D01*
X202033Y574664D01*
X201996Y568284D01*
X201993Y568284D01*
X201007Y568808D01*
X198867Y569422D01*
X196640Y569422D01*
X194499Y568808D01*
X193514Y568284D01*
X193511Y568284D01*
X193474Y574664D01*
X193694Y575342D01*
X194532Y576495D01*
X195685Y577333D01*
X197041Y577773D01*
X198466Y577773D01*
X199822Y577333D01*
X199822Y577333D02*
G37*
G36*
X59821Y577333D02*
X60974Y576495D01*
X61812Y575342D01*
X62033Y574664D01*
X62033Y574664D01*
X61995Y568284D01*
X61992Y568284D01*
X61007Y568808D01*
X58866Y569422D01*
X56639Y569422D01*
X54499Y568808D01*
X53513Y568284D01*
X53511Y568284D01*
X53473Y574664D01*
X53693Y575342D01*
X54531Y576495D01*
X55684Y577333D01*
X57040Y577773D01*
X58466Y577773D01*
X59821Y577333D01*
X59821Y577333D02*
G37*
G36*
X619555Y561638D02*
X623368Y562038D01*
X623634Y559513D01*
X619820Y559113D01*
X620223Y555286D01*
X617697Y555021D01*
X617295Y558847D01*
X613508Y558449D01*
X613242Y560974D01*
X617030Y561372D01*
X616633Y565147D01*
X619158Y565412D01*
X619555Y561638D01*
X619555Y561638D02*
G37*
G36*
X479554Y561638D02*
X483368Y562038D01*
X483633Y559513D01*
X479820Y559113D01*
X480222Y555286D01*
X477697Y555021D01*
X477295Y558847D01*
X473507Y558449D01*
X473242Y560974D01*
X477029Y561372D01*
X476633Y565147D01*
X479158Y565412D01*
X479554Y561638D01*
X479554Y561638D02*
G37*
G36*
X339554Y561638D02*
X343367Y562038D01*
X343633Y559513D01*
X339819Y559113D01*
X340221Y555286D01*
X337696Y555021D01*
X337294Y558847D01*
X333507Y558449D01*
X333241Y560974D01*
X337029Y561372D01*
X336632Y565147D01*
X339157Y565412D01*
X339554Y561638D01*
X339554Y561638D02*
G37*
G36*
X199553Y561638D02*
X203367Y562038D01*
X203632Y559513D01*
X199819Y559113D01*
X200221Y555286D01*
X197696Y555021D01*
X197294Y558847D01*
X193506Y558449D01*
X193241Y560974D01*
X197028Y561372D01*
X196632Y565147D01*
X199157Y565412D01*
X199553Y561638D01*
X199553Y561638D02*
G37*
G36*
X59553Y561638D02*
X63366Y562038D01*
X63632Y559513D01*
X59818Y559113D01*
X60220Y555286D01*
X57695Y555021D01*
X57293Y558847D01*
X53506Y558449D01*
X53240Y560974D01*
X57028Y561372D01*
X56631Y565147D01*
X59156Y565412D01*
X59553Y561638D01*
X59553Y561638D02*
G37*
G36*
X624400Y553102D02*
X624908Y552207D01*
X625451Y551334D01*
X626028Y550483D01*
X626329Y550066D01*
X626329Y550066D01*
X626329Y550066D01*
X626329Y550066D01*
X626272Y550024D01*
X626730Y549334D01*
X627094Y547719D01*
X626860Y546080D01*
X626057Y544631D01*
X624792Y543563D01*
X623229Y543016D01*
X621574Y543060D01*
X620043Y543690D01*
X619440Y544258D01*
X619440Y544258D01*
X618799Y545096D01*
X617621Y546847D01*
X616551Y548665D01*
X615592Y550545D01*
X615170Y551512D01*
X615170Y551512D01*
X615189Y551559D01*
X616351Y551179D01*
X618779Y550968D01*
X621159Y551497D01*
X623268Y552719D01*
X624159Y553556D01*
X624159Y553556D01*
X624400Y553102D01*
X624400Y553102D02*
G37*
G36*
X484399Y553102D02*
X484907Y552207D01*
X485451Y551334D01*
X486028Y550483D01*
X486329Y550066D01*
X486329Y550066D01*
X486329Y550066D01*
X486329Y550066D01*
X486272Y550024D01*
X486729Y549334D01*
X487094Y547719D01*
X486859Y546080D01*
X486057Y544631D01*
X484791Y543563D01*
X483229Y543016D01*
X481574Y543060D01*
X480043Y543690D01*
X479440Y544258D01*
X479440Y544258D01*
X478799Y545096D01*
X477621Y546847D01*
X476550Y548665D01*
X475591Y550545D01*
X475169Y551512D01*
X475169Y551512D01*
X475189Y551559D01*
X476350Y551179D01*
X478779Y550968D01*
X481158Y551497D01*
X483268Y552719D01*
X484158Y553556D01*
X484158Y553556D01*
X484399Y553102D01*
X484399Y553102D02*
G37*
G36*
X344398Y553102D02*
X344907Y552207D01*
X345450Y551334D01*
X346027Y550483D01*
X346328Y550066D01*
X346328Y550066D01*
X346328Y550066D01*
X346328Y550066D01*
X346271Y550024D01*
X346729Y549334D01*
X347093Y547719D01*
X346859Y546080D01*
X346056Y544631D01*
X344791Y543563D01*
X343228Y543016D01*
X341573Y543060D01*
X340042Y543690D01*
X339439Y544258D01*
X339439Y544258D01*
X338798Y545096D01*
X337620Y546847D01*
X336549Y548665D01*
X335591Y550545D01*
X335168Y551512D01*
X335168Y551512D01*
X335188Y551559D01*
X336350Y551179D01*
X338778Y550968D01*
X341157Y551497D01*
X343267Y552719D01*
X344158Y553556D01*
X344158Y553556D01*
X344398Y553102D01*
X344398Y553102D02*
G37*
G36*
X204398Y553102D02*
X204906Y552207D01*
X205449Y551334D01*
X206027Y550483D01*
X206328Y550066D01*
X206328Y550066D01*
X206328Y550066D01*
X206328Y550066D01*
X206271Y550024D01*
X206728Y549334D01*
X207092Y547719D01*
X206858Y546080D01*
X206056Y544631D01*
X204790Y543563D01*
X203228Y543016D01*
X201573Y543060D01*
X200042Y543690D01*
X199438Y544258D01*
X199438Y544258D01*
X198798Y545096D01*
X197619Y546847D01*
X196549Y548665D01*
X195590Y550545D01*
X195168Y551512D01*
X195168Y551512D01*
X195188Y551559D01*
X196349Y551179D01*
X198778Y550968D01*
X201157Y551497D01*
X203266Y552719D01*
X204157Y553556D01*
X204157Y553556D01*
X204398Y553102D01*
X204398Y553102D02*
G37*
G36*
X64397Y553102D02*
X64906Y552207D01*
X65449Y551334D01*
X66026Y550483D01*
X66327Y550066D01*
X66327Y550066D01*
X66327Y550066D01*
X66327Y550066D01*
X66270Y550024D01*
X66728Y549334D01*
X67092Y547719D01*
X66858Y546080D01*
X66055Y544631D01*
X64790Y543563D01*
X63227Y543016D01*
X61572Y543060D01*
X60041Y543690D01*
X59438Y544258D01*
X59438Y544258D01*
X58797Y545096D01*
X57619Y546847D01*
X56548Y548665D01*
X55589Y550545D01*
X55167Y551512D01*
X55167Y551512D01*
X55187Y551559D01*
X56349Y551179D01*
X58777Y550968D01*
X61156Y551497D01*
X63266Y552719D01*
X64157Y553556D01*
X64157Y553556D01*
X64397Y553102D01*
X64397Y553102D02*
G37*
G36*
X624792Y454437D02*
X626057Y453369D01*
X626860Y451921D01*
X627094Y450281D01*
X626730Y448666D01*
X626272Y447976D01*
X626329Y447934D01*
X626329Y447934D01*
X626028Y447517D01*
X625451Y446666D01*
X624908Y445793D01*
X624400Y444899D01*
X624159Y444444D01*
X624159Y444444D01*
X623268Y445281D01*
X621159Y446503D01*
X618779Y447032D01*
X616351Y446821D01*
X615189Y446441D01*
X615170Y446488D01*
X615170Y446488D01*
X615592Y447455D01*
X616551Y449335D01*
X617621Y451153D01*
X618799Y452904D01*
X619440Y453743D01*
X619440Y453743D01*
X620043Y454310D01*
X621574Y454940D01*
X623229Y454984D01*
X624792Y454437D01*
X624792Y454437D02*
G37*
G36*
X484791Y454437D02*
X486057Y453369D01*
X486859Y451921D01*
X487094Y450281D01*
X486729Y448666D01*
X486272Y447976D01*
X486329Y447934D01*
X486329Y447934D01*
X486028Y447517D01*
X485451Y446666D01*
X484907Y445793D01*
X484399Y444899D01*
X484158Y444444D01*
X484158Y444444D01*
X483268Y445281D01*
X481158Y446503D01*
X478779Y447032D01*
X476350Y446821D01*
X475189Y446441D01*
X475169Y446488D01*
X475169Y446488D01*
X475591Y447455D01*
X476550Y449335D01*
X477621Y451153D01*
X478799Y452904D01*
X479440Y453743D01*
X479440Y453743D01*
X480043Y454310D01*
X481574Y454940D01*
X483229Y454984D01*
X484791Y454437D01*
X484791Y454437D02*
G37*
G36*
X344791Y454437D02*
X346056Y453369D01*
X346859Y451921D01*
X347093Y450281D01*
X346729Y448666D01*
X346271Y447976D01*
X346328Y447934D01*
X346328Y447934D01*
X346027Y447517D01*
X345450Y446666D01*
X344907Y445793D01*
X344398Y444899D01*
X344158Y444444D01*
X344158Y444444D01*
X343267Y445281D01*
X341157Y446503D01*
X338778Y447032D01*
X336350Y446821D01*
X335188Y446441D01*
X335168Y446488D01*
X335168Y446488D01*
X335591Y447455D01*
X336549Y449335D01*
X337620Y451153D01*
X338798Y452904D01*
X339439Y453743D01*
X339439Y453743D01*
X340042Y454310D01*
X341573Y454940D01*
X343228Y454984D01*
X344791Y454437D01*
X344791Y454437D02*
G37*
G36*
X204790Y454437D02*
X206056Y453369D01*
X206858Y451921D01*
X207092Y450281D01*
X206728Y448666D01*
X206271Y447976D01*
X206328Y447934D01*
X206328Y447934D01*
X206027Y447517D01*
X205449Y446666D01*
X204906Y445793D01*
X204398Y444899D01*
X204157Y444444D01*
X204157Y444444D01*
X203266Y445281D01*
X201157Y446503D01*
X198778Y447032D01*
X196349Y446821D01*
X195188Y446441D01*
X195168Y446488D01*
X195168Y446488D01*
X195590Y447455D01*
X196549Y449335D01*
X197619Y451153D01*
X198798Y452904D01*
X199438Y453743D01*
X199438Y453743D01*
X200042Y454310D01*
X201573Y454940D01*
X203228Y454984D01*
X204790Y454437D01*
X204790Y454437D02*
G37*
G36*
X64790Y454437D02*
X66055Y453369D01*
X66858Y451921D01*
X67092Y450281D01*
X66728Y448666D01*
X66270Y447976D01*
X66327Y447934D01*
X66327Y447934D01*
X66026Y447517D01*
X65449Y446666D01*
X64906Y445793D01*
X64397Y444899D01*
X64157Y444444D01*
X64157Y444444D01*
X63266Y445281D01*
X61156Y446503D01*
X58777Y447032D01*
X56349Y446821D01*
X55187Y446441D01*
X55167Y446488D01*
X55167Y446488D01*
X55589Y447455D01*
X56548Y449335D01*
X57619Y451153D01*
X58797Y452904D01*
X59438Y453743D01*
X59438Y453743D01*
X60041Y454310D01*
X61572Y454940D01*
X63227Y454984D01*
X64790Y454437D01*
X64790Y454437D02*
G37*
G36*
X622035Y423336D02*
X622035Y423336D01*
X621815Y422659D01*
X620977Y421505D01*
X619823Y420667D01*
X618468Y420227D01*
X617042Y420227D01*
X615687Y420667D01*
X614534Y421505D01*
X613696Y422659D01*
X613475Y423336D01*
X613513Y429716D01*
X613516Y429716D01*
X614501Y429192D01*
X616642Y428578D01*
X618868Y428578D01*
X621009Y429192D01*
X621995Y429716D01*
X621997Y429716D01*
X622035Y423336D01*
X622035Y423336D02*
G37*
G36*
X482034Y423336D02*
X482034Y423336D01*
X481814Y422659D01*
X480976Y421505D01*
X479823Y420667D01*
X478467Y420227D01*
X477042Y420227D01*
X475686Y420667D01*
X474533Y421505D01*
X473695Y422659D01*
X473475Y423336D01*
X473512Y429716D01*
X473515Y429716D01*
X474501Y429192D01*
X476641Y428578D01*
X478868Y428578D01*
X481008Y429192D01*
X481994Y429716D01*
X481997Y429716D01*
X482034Y423336D01*
X482034Y423336D02*
G37*
G36*
X342034Y423336D02*
X342034Y423336D01*
X341814Y422659D01*
X340976Y421505D01*
X339822Y420667D01*
X338467Y420227D01*
X337041Y420227D01*
X335686Y420667D01*
X334532Y421505D01*
X333694Y422659D01*
X333474Y423336D01*
X333512Y429716D01*
X333515Y429716D01*
X334500Y429192D01*
X336641Y428578D01*
X338867Y428578D01*
X341008Y429192D01*
X341993Y429716D01*
X341996Y429716D01*
X342034Y423336D01*
X342034Y423336D02*
G37*
G36*
X202033Y423336D02*
X202033Y423336D01*
X201813Y422659D01*
X200975Y421505D01*
X199822Y420667D01*
X198466Y420227D01*
X197041Y420227D01*
X195685Y420667D01*
X194532Y421505D01*
X193694Y422659D01*
X193474Y423336D01*
X193511Y429716D01*
X193514Y429716D01*
X194499Y429192D01*
X196640Y428578D01*
X198867Y428578D01*
X201007Y429192D01*
X201993Y429716D01*
X201996Y429716D01*
X202033Y423336D01*
X202033Y423336D02*
G37*
G36*
X62033Y423336D02*
X62033Y423336D01*
X61812Y422659D01*
X60974Y421505D01*
X59821Y420667D01*
X58466Y420227D01*
X57040Y420227D01*
X55684Y420667D01*
X54531Y421505D01*
X53693Y422659D01*
X53473Y423336D01*
X53511Y429716D01*
X53513Y429716D01*
X54499Y429192D01*
X56639Y428578D01*
X58866Y428578D01*
X61007Y429192D01*
X61992Y429716D01*
X61995Y429716D01*
X62033Y423336D01*
X62033Y423336D02*
G37*
G36*
X619823Y347333D02*
X620977Y346495D01*
X621815Y345342D01*
X622035Y344664D01*
X622035Y344664D01*
X621997Y338284D01*
X621995Y338284D01*
X621009Y338808D01*
X618868Y339422D01*
X616642Y339422D01*
X614501Y338808D01*
X613516Y338284D01*
X613513Y338284D01*
X613475Y344664D01*
X613696Y345342D01*
X614534Y346495D01*
X615687Y347333D01*
X617042Y347773D01*
X618468Y347773D01*
X619823Y347333D01*
X619823Y347333D02*
G37*
G36*
X479823Y347333D02*
X480976Y346495D01*
X481814Y345342D01*
X482034Y344664D01*
X482034Y344664D01*
X481997Y338284D01*
X481994Y338284D01*
X481008Y338808D01*
X478868Y339422D01*
X476641Y339422D01*
X474501Y338808D01*
X473515Y338284D01*
X473512Y338284D01*
X473475Y344664D01*
X473695Y345342D01*
X474533Y346495D01*
X475686Y347333D01*
X477042Y347773D01*
X478467Y347773D01*
X479823Y347333D01*
X479823Y347333D02*
G37*
G36*
X339822Y347333D02*
X340976Y346495D01*
X341814Y345342D01*
X342034Y344664D01*
X342034Y344664D01*
X341996Y338284D01*
X341993Y338284D01*
X341008Y338808D01*
X338867Y339422D01*
X336641Y339422D01*
X334500Y338808D01*
X333515Y338284D01*
X333512Y338284D01*
X333474Y344664D01*
X333694Y345342D01*
X334532Y346495D01*
X335686Y347333D01*
X337041Y347773D01*
X338467Y347773D01*
X339822Y347333D01*
X339822Y347333D02*
G37*
G36*
X199822Y347333D02*
X200975Y346495D01*
X201813Y345342D01*
X202033Y344664D01*
X202033Y344664D01*
X201996Y338284D01*
X201993Y338284D01*
X201007Y338808D01*
X198867Y339422D01*
X196640Y339422D01*
X194499Y338808D01*
X193514Y338284D01*
X193511Y338284D01*
X193474Y344664D01*
X193694Y345342D01*
X194532Y346495D01*
X195685Y347333D01*
X197041Y347773D01*
X198466Y347773D01*
X199822Y347333D01*
X199822Y347333D02*
G37*
G36*
X59821Y347333D02*
X60974Y346495D01*
X61812Y345342D01*
X62033Y344664D01*
X62033Y344664D01*
X61995Y338284D01*
X61992Y338284D01*
X61007Y338808D01*
X58866Y339422D01*
X56639Y339422D01*
X54499Y338808D01*
X53513Y338284D01*
X53511Y338284D01*
X53473Y344664D01*
X53693Y345342D01*
X54531Y346495D01*
X55684Y347333D01*
X57040Y347773D01*
X58466Y347773D01*
X59821Y347333D01*
X59821Y347333D02*
G37*
G36*
X619555Y331638D02*
X623368Y332038D01*
X623634Y329513D01*
X619820Y329113D01*
X620223Y325286D01*
X617697Y325021D01*
X617295Y328847D01*
X613508Y328449D01*
X613242Y330974D01*
X617030Y331372D01*
X616633Y335147D01*
X619158Y335412D01*
X619555Y331638D01*
X619555Y331638D02*
G37*
G36*
X479554Y331638D02*
X483368Y332038D01*
X483633Y329513D01*
X479820Y329113D01*
X480222Y325286D01*
X477697Y325021D01*
X477295Y328847D01*
X473507Y328449D01*
X473242Y330974D01*
X477029Y331372D01*
X476633Y335147D01*
X479158Y335412D01*
X479554Y331638D01*
X479554Y331638D02*
G37*
G36*
X339554Y331638D02*
X343367Y332038D01*
X343633Y329513D01*
X339819Y329113D01*
X340221Y325286D01*
X337696Y325021D01*
X337294Y328847D01*
X333507Y328449D01*
X333241Y330974D01*
X337029Y331372D01*
X336632Y335147D01*
X339157Y335412D01*
X339554Y331638D01*
X339554Y331638D02*
G37*
G36*
X199553Y331638D02*
X203367Y332038D01*
X203632Y329513D01*
X199819Y329113D01*
X200221Y325286D01*
X197696Y325021D01*
X197294Y328847D01*
X193506Y328449D01*
X193241Y330974D01*
X197028Y331372D01*
X196632Y335147D01*
X199157Y335412D01*
X199553Y331638D01*
X199553Y331638D02*
G37*
G36*
X59553Y331638D02*
X63366Y332038D01*
X63632Y329513D01*
X59818Y329113D01*
X60220Y325286D01*
X57695Y325021D01*
X57293Y328847D01*
X53506Y328449D01*
X53240Y330974D01*
X57028Y331372D01*
X56631Y335147D01*
X59156Y335412D01*
X59553Y331638D01*
X59553Y331638D02*
G37*
G36*
X624400Y323101D02*
X624908Y322207D01*
X625451Y321334D01*
X626028Y320483D01*
X626329Y320066D01*
X626272Y320024D01*
X626730Y319334D01*
X627094Y317719D01*
X626860Y316080D01*
X626057Y314631D01*
X624792Y313563D01*
X623229Y313016D01*
X621574Y313060D01*
X620043Y313690D01*
X619440Y314258D01*
X619440Y314258D01*
X618799Y315096D01*
X617621Y316847D01*
X616551Y318665D01*
X615592Y320545D01*
X615170Y321512D01*
X615170Y321512D01*
X615189Y321559D01*
X616351Y321179D01*
X618779Y320968D01*
X621159Y321497D01*
X623268Y322719D01*
X624159Y323556D01*
X624159Y323556D01*
X624400Y323101D01*
X624400Y323101D02*
G37*
G36*
X484399Y323101D02*
X484907Y322207D01*
X485451Y321334D01*
X486028Y320483D01*
X486329Y320066D01*
X486272Y320024D01*
X486729Y319334D01*
X487094Y317719D01*
X486859Y316080D01*
X486057Y314631D01*
X484791Y313563D01*
X483229Y313016D01*
X481574Y313060D01*
X480043Y313690D01*
X479440Y314258D01*
X479440Y314258D01*
X478799Y315096D01*
X477621Y316847D01*
X476550Y318665D01*
X475591Y320545D01*
X475169Y321512D01*
X475169Y321512D01*
X475189Y321559D01*
X476350Y321179D01*
X478779Y320968D01*
X481158Y321497D01*
X483268Y322719D01*
X484158Y323556D01*
X484158Y323556D01*
X484399Y323101D01*
X484399Y323101D02*
G37*
G36*
X344398Y323101D02*
X344907Y322207D01*
X345450Y321334D01*
X346027Y320483D01*
X346328Y320066D01*
X346271Y320024D01*
X346729Y319334D01*
X347093Y317719D01*
X346859Y316080D01*
X346056Y314631D01*
X344791Y313563D01*
X343228Y313016D01*
X341573Y313060D01*
X340042Y313690D01*
X339439Y314258D01*
X339439Y314258D01*
X338798Y315096D01*
X337620Y316847D01*
X336549Y318665D01*
X335591Y320545D01*
X335168Y321512D01*
X335168Y321512D01*
X335188Y321559D01*
X336350Y321179D01*
X338778Y320968D01*
X341157Y321497D01*
X343267Y322719D01*
X344158Y323556D01*
X344158Y323556D01*
X344398Y323101D01*
X344398Y323101D02*
G37*
G36*
X204398Y323101D02*
X204906Y322207D01*
X205449Y321334D01*
X206027Y320483D01*
X206328Y320066D01*
X206271Y320024D01*
X206728Y319334D01*
X207092Y317719D01*
X206858Y316080D01*
X206056Y314631D01*
X204790Y313563D01*
X203228Y313016D01*
X201573Y313060D01*
X200042Y313690D01*
X199438Y314258D01*
X199438Y314258D01*
X198798Y315096D01*
X197619Y316847D01*
X196549Y318665D01*
X195590Y320545D01*
X195168Y321512D01*
X195168Y321512D01*
X195188Y321559D01*
X196349Y321179D01*
X198778Y320968D01*
X201157Y321497D01*
X203266Y322719D01*
X204157Y323556D01*
X204157Y323556D01*
X204398Y323101D01*
X204398Y323101D02*
G37*
G36*
X64397Y323101D02*
X64906Y322207D01*
X65449Y321334D01*
X66026Y320483D01*
X66327Y320066D01*
X66327Y320066D01*
X66327Y320066D01*
X66327Y320066D01*
X66270Y320024D01*
X66728Y319334D01*
X67092Y317719D01*
X66858Y316080D01*
X66055Y314631D01*
X64790Y313563D01*
X63227Y313016D01*
X61572Y313060D01*
X60041Y313690D01*
X59438Y314258D01*
X59438Y314258D01*
X58797Y315096D01*
X57619Y316847D01*
X56548Y318665D01*
X55589Y320545D01*
X55167Y321512D01*
X55167Y321512D01*
X55187Y321559D01*
X56349Y321179D01*
X58777Y320968D01*
X61156Y321497D01*
X63266Y322719D01*
X64157Y323556D01*
X64157Y323556D01*
X64397Y323101D01*
X64397Y323101D02*
G37*
G36*
X626329Y320066D02*
X626329Y320066D01*
X626329Y320066D01*
X626329Y320066D01*
X626329Y320066D02*
G37*
G36*
X486329Y320066D02*
X486329Y320066D01*
X486329Y320066D01*
X486329Y320066D01*
X486329Y320066D02*
G37*
G36*
X346328Y320066D02*
X346328Y320066D01*
X346328Y320066D01*
X346328Y320066D01*
X346328Y320066D02*
G37*
G36*
X206328Y320066D02*
X206328Y320066D01*
X206328Y320066D01*
X206328Y320066D01*
X206328Y320066D02*
G37*
G36*
X624792Y224437D02*
X626057Y223369D01*
X626860Y221921D01*
X627094Y220281D01*
X626730Y218666D01*
X626272Y217976D01*
X626329Y217934D01*
X626329Y217934D01*
X626028Y217517D01*
X625451Y216666D01*
X624908Y215793D01*
X624400Y214899D01*
X624159Y214444D01*
X624159Y214444D01*
X623268Y215281D01*
X621159Y216503D01*
X618779Y217032D01*
X616351Y216821D01*
X615189Y216441D01*
X615170Y216488D01*
X615170Y216488D01*
X615592Y217455D01*
X616551Y219335D01*
X617621Y221153D01*
X618799Y222904D01*
X619440Y223743D01*
X619440Y223743D01*
X620043Y224310D01*
X621574Y224940D01*
X623229Y224984D01*
X624792Y224437D01*
X624792Y224437D02*
G37*
G36*
X484791Y224437D02*
X486057Y223369D01*
X486859Y221921D01*
X487094Y220281D01*
X486729Y218666D01*
X486272Y217976D01*
X486329Y217934D01*
X486329Y217934D01*
X486028Y217517D01*
X485451Y216666D01*
X484907Y215793D01*
X484399Y214899D01*
X484158Y214444D01*
X484158Y214444D01*
X483268Y215281D01*
X481158Y216503D01*
X478779Y217032D01*
X476350Y216821D01*
X475189Y216441D01*
X475169Y216488D01*
X475169Y216488D01*
X475591Y217455D01*
X476550Y219335D01*
X477621Y221153D01*
X478799Y222904D01*
X479440Y223743D01*
X479440Y223743D01*
X480043Y224310D01*
X481574Y224940D01*
X483229Y224984D01*
X484791Y224437D01*
X484791Y224437D02*
G37*
G36*
X344791Y224437D02*
X346056Y223369D01*
X346859Y221921D01*
X347093Y220281D01*
X346729Y218666D01*
X346271Y217976D01*
X346328Y217934D01*
X346328Y217934D01*
X346027Y217517D01*
X345450Y216666D01*
X344907Y215793D01*
X344398Y214899D01*
X344158Y214444D01*
X344158Y214444D01*
X343267Y215281D01*
X341157Y216503D01*
X338778Y217032D01*
X336350Y216821D01*
X335188Y216441D01*
X335168Y216488D01*
X335168Y216488D01*
X335591Y217455D01*
X336549Y219335D01*
X337620Y221153D01*
X338798Y222904D01*
X339439Y223743D01*
X339439Y223743D01*
X340042Y224310D01*
X341573Y224940D01*
X343228Y224984D01*
X344791Y224437D01*
X344791Y224437D02*
G37*
G36*
X204790Y224437D02*
X206056Y223369D01*
X206858Y221921D01*
X207092Y220281D01*
X206728Y218666D01*
X206271Y217976D01*
X206328Y217934D01*
X206328Y217934D01*
X206027Y217517D01*
X205449Y216666D01*
X204906Y215793D01*
X204398Y214899D01*
X204157Y214444D01*
X204157Y214444D01*
X203266Y215281D01*
X201157Y216503D01*
X198778Y217032D01*
X196349Y216821D01*
X195188Y216441D01*
X195168Y216488D01*
X195168Y216488D01*
X195590Y217455D01*
X196549Y219335D01*
X197619Y221153D01*
X198798Y222904D01*
X199438Y223743D01*
X199438Y223743D01*
X200042Y224310D01*
X201573Y224940D01*
X203228Y224984D01*
X204790Y224437D01*
X204790Y224437D02*
G37*
G36*
X64790Y224437D02*
X66055Y223369D01*
X66858Y221921D01*
X67092Y220281D01*
X66728Y218666D01*
X66270Y217976D01*
X66327Y217934D01*
X66327Y217934D01*
X66026Y217517D01*
X65449Y216666D01*
X64906Y215793D01*
X64397Y214899D01*
X64157Y214444D01*
X64157Y214444D01*
X63266Y215281D01*
X61156Y216503D01*
X58777Y217032D01*
X56349Y216821D01*
X55187Y216441D01*
X55167Y216488D01*
X55167Y216488D01*
X55589Y217455D01*
X56548Y219335D01*
X57619Y221153D01*
X58797Y222904D01*
X59438Y223743D01*
X59438Y223743D01*
X60041Y224310D01*
X61572Y224940D01*
X63227Y224984D01*
X64790Y224437D01*
X64790Y224437D02*
G37*
G36*
X622035Y193336D02*
X622035Y193336D01*
X621815Y192658D01*
X620977Y191505D01*
X619823Y190667D01*
X618468Y190227D01*
X617042Y190227D01*
X615687Y190667D01*
X614534Y191505D01*
X613696Y192658D01*
X613475Y193336D01*
X613513Y199716D01*
X613516Y199716D01*
X614501Y199192D01*
X616642Y198578D01*
X618868Y198578D01*
X621009Y199192D01*
X621995Y199716D01*
X621997Y199716D01*
X622035Y193336D01*
X622035Y193336D02*
G37*
G36*
X482034Y193336D02*
X482034Y193336D01*
X481814Y192658D01*
X480976Y191505D01*
X479823Y190667D01*
X478467Y190227D01*
X477042Y190227D01*
X475686Y190667D01*
X474533Y191505D01*
X473695Y192658D01*
X473475Y193336D01*
X473512Y199716D01*
X473515Y199716D01*
X474501Y199192D01*
X476641Y198578D01*
X478868Y198578D01*
X481008Y199192D01*
X481994Y199716D01*
X481997Y199716D01*
X482034Y193336D01*
X482034Y193336D02*
G37*
G36*
X342034Y193336D02*
X342034Y193336D01*
X341814Y192658D01*
X340976Y191505D01*
X339822Y190667D01*
X338467Y190227D01*
X337041Y190227D01*
X335686Y190667D01*
X334532Y191505D01*
X333694Y192658D01*
X333474Y193336D01*
X333512Y199716D01*
X333515Y199716D01*
X334500Y199192D01*
X336641Y198578D01*
X338867Y198578D01*
X341008Y199192D01*
X341993Y199716D01*
X341996Y199716D01*
X342034Y193336D01*
X342034Y193336D02*
G37*
G36*
X202033Y193336D02*
X202033Y193336D01*
X201813Y192658D01*
X200975Y191505D01*
X199822Y190667D01*
X198466Y190227D01*
X197041Y190227D01*
X195685Y190667D01*
X194532Y191505D01*
X193694Y192658D01*
X193474Y193336D01*
X193511Y199716D01*
X193514Y199716D01*
X194499Y199192D01*
X196640Y198578D01*
X198867Y198578D01*
X201007Y199192D01*
X201993Y199716D01*
X201996Y199716D01*
X202033Y193336D01*
X202033Y193336D02*
G37*
G36*
X62033Y193336D02*
X62033Y193336D01*
X61812Y192658D01*
X60974Y191505D01*
X59821Y190667D01*
X58466Y190227D01*
X57040Y190227D01*
X55684Y190667D01*
X54531Y191505D01*
X53693Y192658D01*
X53473Y193336D01*
X53511Y199716D01*
X53513Y199716D01*
X54499Y199192D01*
X56639Y198578D01*
X58866Y198578D01*
X61007Y199192D01*
X61992Y199716D01*
X61995Y199716D01*
X62033Y193336D01*
X62033Y193336D02*
G37*
G36*
X619823Y117333D02*
X620977Y116495D01*
X621815Y115342D01*
X622035Y114664D01*
X622035Y114664D01*
X621997Y108284D01*
X621995Y108284D01*
X621009Y108808D01*
X618868Y109422D01*
X616642Y109422D01*
X614501Y108808D01*
X613516Y108284D01*
X613513Y108284D01*
X613475Y114664D01*
X613696Y115342D01*
X614534Y116495D01*
X615687Y117333D01*
X617042Y117773D01*
X618468Y117773D01*
X619823Y117333D01*
X619823Y117333D02*
G37*
G36*
X479823Y117333D02*
X480976Y116495D01*
X481814Y115342D01*
X482034Y114664D01*
X482034Y114664D01*
X481997Y108284D01*
X481994Y108284D01*
X481008Y108808D01*
X478868Y109422D01*
X476641Y109422D01*
X474501Y108808D01*
X473515Y108284D01*
X473512Y108284D01*
X473475Y114664D01*
X473695Y115342D01*
X474533Y116495D01*
X475686Y117333D01*
X477042Y117773D01*
X478467Y117773D01*
X479823Y117333D01*
X479823Y117333D02*
G37*
G36*
X339822Y117333D02*
X340976Y116495D01*
X341814Y115342D01*
X342034Y114664D01*
X342034Y114664D01*
X341996Y108284D01*
X341993Y108284D01*
X341008Y108808D01*
X338867Y109422D01*
X336641Y109422D01*
X334500Y108808D01*
X333515Y108284D01*
X333512Y108284D01*
X333474Y114664D01*
X333694Y115342D01*
X334532Y116495D01*
X335686Y117333D01*
X337041Y117773D01*
X338467Y117773D01*
X339822Y117333D01*
X339822Y117333D02*
G37*
G36*
X199822Y117333D02*
X200975Y116495D01*
X201813Y115342D01*
X202033Y114664D01*
X202033Y114664D01*
X201996Y108284D01*
X201993Y108284D01*
X201007Y108808D01*
X198867Y109422D01*
X196640Y109422D01*
X194499Y108808D01*
X193514Y108284D01*
X193511Y108284D01*
X193474Y114664D01*
X193694Y115342D01*
X194532Y116495D01*
X195685Y117333D01*
X197041Y117773D01*
X198466Y117773D01*
X199822Y117333D01*
X199822Y117333D02*
G37*
G36*
X59821Y117333D02*
X60974Y116495D01*
X61812Y115342D01*
X62033Y114664D01*
X62033Y114664D01*
X61995Y108284D01*
X61992Y108284D01*
X61007Y108808D01*
X58866Y109422D01*
X56639Y109422D01*
X54499Y108808D01*
X53513Y108284D01*
X53511Y108284D01*
X53473Y114664D01*
X53693Y115342D01*
X54531Y116495D01*
X55684Y117333D01*
X57040Y117773D01*
X58466Y117773D01*
X59821Y117333D01*
X59821Y117333D02*
G37*
G36*
X619555Y101638D02*
X623368Y102038D01*
X623634Y99513D01*
X619820Y99113D01*
X620223Y95286D01*
X617697Y95021D01*
X617295Y98847D01*
X613508Y98449D01*
X613242Y100974D01*
X617030Y101372D01*
X616633Y105147D01*
X619158Y105412D01*
X619555Y101638D01*
X619555Y101638D02*
G37*
G36*
X479554Y101638D02*
X483368Y102038D01*
X483633Y99513D01*
X479820Y99113D01*
X480222Y95286D01*
X477697Y95021D01*
X477295Y98847D01*
X473507Y98449D01*
X473242Y100974D01*
X477029Y101372D01*
X476633Y105147D01*
X479158Y105412D01*
X479554Y101638D01*
X479554Y101638D02*
G37*
G36*
X339554Y101638D02*
X343367Y102038D01*
X343633Y99513D01*
X339819Y99113D01*
X340221Y95286D01*
X337696Y95021D01*
X337294Y98847D01*
X333507Y98449D01*
X333241Y100974D01*
X337029Y101372D01*
X336632Y105147D01*
X339157Y105412D01*
X339554Y101638D01*
X339554Y101638D02*
G37*
G36*
X199553Y101638D02*
X203367Y102038D01*
X203632Y99513D01*
X199819Y99113D01*
X200221Y95286D01*
X197696Y95021D01*
X197294Y98847D01*
X193506Y98449D01*
X193241Y100974D01*
X197028Y101372D01*
X196632Y105147D01*
X199157Y105412D01*
X199553Y101638D01*
X199553Y101638D02*
G37*
G36*
X59553Y101638D02*
X63366Y102038D01*
X63632Y99513D01*
X59818Y99113D01*
X60220Y95286D01*
X57695Y95021D01*
X57293Y98847D01*
X53506Y98449D01*
X53240Y100974D01*
X57028Y101372D01*
X56631Y105147D01*
X59156Y105412D01*
X59553Y101638D01*
X59553Y101638D02*
G37*
G36*
X624400Y93101D02*
X624908Y92207D01*
X625451Y91334D01*
X626028Y90483D01*
X626329Y90066D01*
X626272Y90024D01*
X626730Y89334D01*
X627094Y87719D01*
X626860Y86080D01*
X626057Y84631D01*
X624792Y83563D01*
X623229Y83016D01*
X621574Y83060D01*
X620043Y83690D01*
X619440Y84257D01*
X619440Y84257D01*
X618799Y85096D01*
X617621Y86847D01*
X616551Y88665D01*
X615592Y90545D01*
X615170Y91512D01*
X615170Y91512D01*
X615189Y91559D01*
X616351Y91179D01*
X618779Y90968D01*
X621159Y91497D01*
X623268Y92719D01*
X624159Y93556D01*
X624159Y93556D01*
X624400Y93101D01*
X624400Y93101D02*
G37*
G36*
X484399Y93101D02*
X484907Y92207D01*
X485451Y91334D01*
X486028Y90483D01*
X486329Y90066D01*
X486272Y90024D01*
X486729Y89334D01*
X487094Y87719D01*
X486859Y86080D01*
X486057Y84631D01*
X484791Y83563D01*
X483229Y83016D01*
X481574Y83060D01*
X480043Y83690D01*
X479440Y84257D01*
X479440Y84257D01*
X478799Y85096D01*
X477621Y86847D01*
X476550Y88665D01*
X475591Y90545D01*
X475169Y91512D01*
X475169Y91512D01*
X475189Y91559D01*
X476350Y91179D01*
X478779Y90968D01*
X481158Y91497D01*
X483268Y92719D01*
X484158Y93556D01*
X484158Y93556D01*
X484399Y93101D01*
X484399Y93101D02*
G37*
G36*
X344398Y93101D02*
X344907Y92207D01*
X345450Y91334D01*
X346027Y90483D01*
X346328Y90066D01*
X346271Y90024D01*
X346729Y89334D01*
X347093Y87719D01*
X346859Y86080D01*
X346056Y84631D01*
X344791Y83563D01*
X343228Y83016D01*
X341573Y83060D01*
X340042Y83690D01*
X339439Y84257D01*
X339439Y84257D01*
X338798Y85096D01*
X337620Y86847D01*
X336549Y88665D01*
X335591Y90545D01*
X335168Y91512D01*
X335168Y91512D01*
X335188Y91559D01*
X336350Y91179D01*
X338778Y90968D01*
X341157Y91497D01*
X343267Y92719D01*
X344158Y93556D01*
X344158Y93556D01*
X344398Y93101D01*
X344398Y93101D02*
G37*
G36*
X204398Y93101D02*
X204906Y92207D01*
X205449Y91334D01*
X206027Y90483D01*
X206328Y90066D01*
X206271Y90024D01*
X206728Y89334D01*
X207092Y87719D01*
X206858Y86080D01*
X206056Y84631D01*
X204790Y83563D01*
X203228Y83016D01*
X201573Y83060D01*
X200042Y83690D01*
X199438Y84257D01*
X199438Y84257D01*
X198798Y85096D01*
X197619Y86847D01*
X196549Y88665D01*
X195590Y90545D01*
X195168Y91512D01*
X195168Y91512D01*
X195188Y91559D01*
X196349Y91179D01*
X198778Y90968D01*
X201157Y91497D01*
X203266Y92719D01*
X204157Y93556D01*
X204157Y93556D01*
X204398Y93101D01*
X204398Y93101D02*
G37*
G36*
X64397Y93101D02*
X64906Y92207D01*
X65449Y91334D01*
X66026Y90483D01*
X66327Y90066D01*
X66327Y90066D01*
X66327Y90066D01*
X66327Y90066D01*
X66270Y90024D01*
X66728Y89334D01*
X67092Y87719D01*
X66858Y86080D01*
X66055Y84631D01*
X64790Y83563D01*
X63227Y83016D01*
X61572Y83060D01*
X60041Y83690D01*
X59438Y84257D01*
X59438Y84257D01*
X58797Y85096D01*
X57619Y86847D01*
X56548Y88665D01*
X55589Y90545D01*
X55167Y91512D01*
X55167Y91512D01*
X55187Y91559D01*
X56349Y91179D01*
X58777Y90968D01*
X61156Y91497D01*
X63266Y92719D01*
X64157Y93556D01*
X64157Y93556D01*
X64397Y93101D01*
X64397Y93101D02*
G37*
G36*
X626329Y90066D02*
X626329Y90066D01*
X626329Y90066D01*
X626329Y90066D01*
X626329Y90066D02*
G37*
G36*
X486329Y90066D02*
X486329Y90066D01*
X486329Y90066D01*
X486329Y90066D01*
X486329Y90066D02*
G37*
G36*
X346328Y90066D02*
X346328Y90066D01*
X346328Y90066D01*
X346328Y90066D01*
X346328Y90066D02*
G37*
G36*
X206328Y90066D02*
X206328Y90066D01*
X206328Y90066D01*
X206328Y90066D01*
X206328Y90066D02*
G37*
G36*
X181144Y-47802D02*
X181270Y-47810D01*
X181419Y-47818D01*
X181576Y-47833D01*
X181756Y-47857D01*
X181945Y-47880D01*
X182141Y-47912D01*
X182345Y-47951D01*
X182549Y-47998D01*
X182753Y-48053D01*
X182957Y-48116D01*
X183161Y-48186D01*
X183349Y-48273D01*
X183349Y-49426D01*
X183334Y-49419D01*
X183302Y-49395D01*
X183240Y-49364D01*
X183161Y-49317D01*
X183051Y-49269D01*
X182926Y-49207D01*
X182784Y-49152D01*
X182620Y-49081D01*
X182447Y-49018D01*
X182251Y-48956D01*
X182039Y-48901D01*
X181811Y-48854D01*
X181568Y-48807D01*
X181317Y-48775D01*
X181058Y-48752D01*
X180783Y-48744D01*
X180720Y-48744D01*
X180642Y-48752D01*
X180532Y-48759D01*
X180406Y-48775D01*
X180257Y-48799D01*
X180092Y-48830D01*
X179912Y-48869D01*
X179723Y-48924D01*
X179527Y-48995D01*
X179323Y-49081D01*
X179111Y-49183D01*
X178907Y-49301D01*
X178711Y-49434D01*
X178515Y-49599D01*
X178326Y-49780D01*
X178319Y-49788D01*
X178287Y-49827D01*
X178240Y-49882D01*
X178177Y-49968D01*
X178107Y-50070D01*
X178020Y-50188D01*
X177934Y-50337D01*
X177848Y-50502D01*
X177761Y-50682D01*
X177675Y-50886D01*
X177589Y-51106D01*
X177518Y-51342D01*
X177455Y-51593D01*
X177408Y-51860D01*
X177377Y-52150D01*
X177369Y-52448D01*
X177369Y-52456D01*
X177369Y-52464D01*
X177369Y-52487D01*
X177369Y-52519D01*
X177369Y-52566D01*
X177377Y-52613D01*
X177385Y-52731D01*
X177393Y-52872D01*
X177416Y-53037D01*
X177439Y-53217D01*
X177479Y-53414D01*
X177526Y-53625D01*
X177589Y-53845D01*
X177659Y-54065D01*
X177746Y-54293D01*
X177848Y-54512D01*
X177965Y-54724D01*
X178099Y-54928D01*
X178256Y-55117D01*
X178264Y-55125D01*
X178295Y-55156D01*
X178350Y-55203D01*
X178421Y-55266D01*
X178507Y-55336D01*
X178617Y-55423D01*
X178742Y-55509D01*
X178892Y-55595D01*
X179056Y-55690D01*
X179237Y-55776D01*
X179433Y-55855D01*
X179653Y-55933D01*
X179881Y-55996D01*
X180132Y-56043D01*
X180391Y-56074D01*
X180673Y-56082D01*
X180775Y-56082D01*
X180846Y-56074D01*
X180940Y-56066D01*
X181042Y-56059D01*
X181160Y-56051D01*
X181293Y-56027D01*
X181427Y-56012D01*
X181576Y-55980D01*
X181874Y-55909D01*
X182031Y-55862D01*
X182180Y-55800D01*
X182329Y-55737D01*
X182478Y-55666D01*
X182478Y-53162D01*
X180524Y-53162D01*
X180524Y-52213D01*
X183530Y-52213D01*
X183530Y-56263D01*
X183514Y-56270D01*
X183467Y-56294D01*
X183397Y-56333D01*
X183295Y-56380D01*
X183169Y-56435D01*
X183020Y-56498D01*
X182847Y-56569D01*
X182651Y-56639D01*
X182439Y-56710D01*
X182204Y-56781D01*
X181960Y-56843D01*
X181701Y-56898D01*
X181427Y-56946D01*
X181136Y-56985D01*
X180846Y-57008D01*
X180540Y-57016D01*
X180453Y-57016D01*
X180414Y-57008D01*
X180359Y-57008D01*
X180296Y-57000D01*
X180226Y-57000D01*
X180061Y-56977D01*
X179873Y-56953D01*
X179669Y-56914D01*
X179441Y-56859D01*
X179198Y-56796D01*
X178946Y-56718D01*
X178687Y-56616D01*
X178428Y-56498D01*
X178169Y-56357D01*
X177918Y-56192D01*
X177675Y-56004D01*
X177447Y-55792D01*
X177432Y-55776D01*
X177400Y-55737D01*
X177337Y-55666D01*
X177267Y-55564D01*
X177173Y-55446D01*
X177078Y-55297D01*
X176969Y-55117D01*
X176859Y-54921D01*
X176749Y-54701D01*
X176639Y-54450D01*
X176545Y-54183D01*
X176451Y-53892D01*
X176380Y-53586D01*
X176317Y-53249D01*
X176286Y-52896D01*
X176270Y-52527D01*
X176270Y-52519D01*
X176270Y-52503D01*
X176270Y-52472D01*
X176270Y-52432D01*
X176278Y-52385D01*
X176278Y-52323D01*
X176286Y-52260D01*
X176294Y-52181D01*
X176301Y-52095D01*
X176309Y-52009D01*
X176341Y-51805D01*
X176380Y-51569D01*
X176435Y-51326D01*
X176506Y-51059D01*
X176592Y-50784D01*
X176694Y-50502D01*
X176819Y-50219D01*
X176977Y-49937D01*
X177149Y-49654D01*
X177353Y-49387D01*
X177581Y-49128D01*
X177596Y-49113D01*
X177644Y-49073D01*
X177714Y-49003D01*
X177816Y-48916D01*
X177950Y-48822D01*
X178099Y-48704D01*
X178279Y-48587D01*
X178491Y-48461D01*
X178719Y-48335D01*
X178970Y-48218D01*
X179237Y-48100D01*
X179535Y-48006D01*
X179849Y-47920D01*
X180179Y-47849D01*
X180532Y-47810D01*
X180901Y-47794D01*
X181042Y-47794D01*
X181144Y-47802D01*
X181144Y-47802D02*
G37*
G36*
X231344Y-50353D02*
X231430Y-50360D01*
X231532Y-50368D01*
X231650Y-50392D01*
X231783Y-50415D01*
X231932Y-50455D01*
X232082Y-50502D01*
X232239Y-50557D01*
X232395Y-50627D01*
X232560Y-50706D01*
X232717Y-50808D01*
X232866Y-50926D01*
X233015Y-51059D01*
X233149Y-51208D01*
X233157Y-51216D01*
X233180Y-51247D01*
X233212Y-51294D01*
X233259Y-51365D01*
X233306Y-51451D01*
X233369Y-51554D01*
X233431Y-51679D01*
X233494Y-51813D01*
X233557Y-51969D01*
X233620Y-52142D01*
X233683Y-52330D01*
X233730Y-52534D01*
X233777Y-52754D01*
X233808Y-52990D01*
X233832Y-53241D01*
X233840Y-53500D01*
X233840Y-53508D01*
X233840Y-53516D01*
X233840Y-53539D01*
X233840Y-53571D01*
X233832Y-53657D01*
X233824Y-53767D01*
X233816Y-53900D01*
X233800Y-54057D01*
X233777Y-54230D01*
X233745Y-54418D01*
X233698Y-54614D01*
X233651Y-54826D01*
X233588Y-55038D01*
X233510Y-55250D01*
X233424Y-55462D01*
X233322Y-55674D01*
X233196Y-55870D01*
X233063Y-56059D01*
X233055Y-56066D01*
X233023Y-56098D01*
X232984Y-56145D01*
X232921Y-56208D01*
X232843Y-56278D01*
X232749Y-56365D01*
X232631Y-56451D01*
X232505Y-56537D01*
X232364Y-56624D01*
X232199Y-56710D01*
X232027Y-56796D01*
X231838Y-56867D01*
X231634Y-56930D01*
X231414Y-56977D01*
X231179Y-57008D01*
X230936Y-57016D01*
X230881Y-57016D01*
X230818Y-57008D01*
X230732Y-57000D01*
X230630Y-56985D01*
X230512Y-56961D01*
X230378Y-56930D01*
X230229Y-56883D01*
X230080Y-56828D01*
X229923Y-56757D01*
X229766Y-56671D01*
X229601Y-56569D01*
X229444Y-56443D01*
X229295Y-56302D01*
X229154Y-56137D01*
X229021Y-55949D01*
X228997Y-55949D01*
X228997Y-59795D01*
X227977Y-59795D01*
X227977Y-50494D01*
X228997Y-50494D01*
X228997Y-51616D01*
X229021Y-51616D01*
X229028Y-51601D01*
X229060Y-51561D01*
X229099Y-51498D01*
X229162Y-51420D01*
X229240Y-51318D01*
X229335Y-51216D01*
X229452Y-51098D01*
X229578Y-50981D01*
X229727Y-50863D01*
X229892Y-50745D01*
X230072Y-50643D01*
X230268Y-50541D01*
X230480Y-50462D01*
X230716Y-50400D01*
X230959Y-50360D01*
X231226Y-50345D01*
X231281Y-50345D01*
X231344Y-50353D01*
X231344Y-50353D02*
G37*
G36*
X264198Y-50392D02*
X264284Y-50392D01*
X264379Y-50408D01*
X264480Y-50423D01*
X264583Y-50439D01*
X264669Y-50470D01*
X264669Y-51530D01*
X264653Y-51522D01*
X264622Y-51498D01*
X264559Y-51467D01*
X264473Y-51428D01*
X264355Y-51389D01*
X264229Y-51357D01*
X264072Y-51334D01*
X263892Y-51326D01*
X263829Y-51326D01*
X263782Y-51334D01*
X263727Y-51342D01*
X263664Y-51357D01*
X263515Y-51404D01*
X263429Y-51436D01*
X263342Y-51475D01*
X263248Y-51530D01*
X263154Y-51585D01*
X263068Y-51656D01*
X262974Y-51742D01*
X262887Y-51836D01*
X262801Y-51946D01*
X262793Y-51954D01*
X262785Y-51977D01*
X262762Y-52009D01*
X262730Y-52056D01*
X262699Y-52119D01*
X262660Y-52197D01*
X262620Y-52283D01*
X262581Y-52385D01*
X262542Y-52495D01*
X262503Y-52621D01*
X262463Y-52762D01*
X262432Y-52911D01*
X262401Y-53076D01*
X262377Y-53249D01*
X262369Y-53429D01*
X262361Y-53625D01*
X262361Y-56867D01*
X261341Y-56867D01*
X261341Y-50494D01*
X262361Y-50494D01*
X262361Y-51813D01*
X262385Y-51813D01*
X262385Y-51805D01*
X262393Y-51781D01*
X262409Y-51750D01*
X262424Y-51703D01*
X262448Y-51648D01*
X262479Y-51577D01*
X262550Y-51428D01*
X262644Y-51255D01*
X262762Y-51083D01*
X262895Y-50918D01*
X263052Y-50761D01*
X263060Y-50753D01*
X263076Y-50745D01*
X263099Y-50729D01*
X263131Y-50698D01*
X263170Y-50674D01*
X263225Y-50643D01*
X263342Y-50572D01*
X263492Y-50502D01*
X263664Y-50439D01*
X263853Y-50400D01*
X263955Y-50392D01*
X264057Y-50384D01*
X264119Y-50384D01*
X264198Y-50392D01*
X264198Y-50392D02*
G37*
G36*
X208504Y-53720D02*
X205106Y-53720D01*
X205106Y-52919D01*
X208504Y-52919D01*
X208504Y-53720D01*
X208504Y-53720D02*
G37*
G36*
X277486Y-57887D02*
X277486Y-57895D01*
X277478Y-57911D01*
X277462Y-57934D01*
X277446Y-57974D01*
X277431Y-58021D01*
X277407Y-58068D01*
X277344Y-58193D01*
X277258Y-58342D01*
X277164Y-58515D01*
X277046Y-58688D01*
X276913Y-58876D01*
X276764Y-59057D01*
X276599Y-59237D01*
X276418Y-59410D01*
X276222Y-59559D01*
X276010Y-59685D01*
X275900Y-59732D01*
X275783Y-59779D01*
X275665Y-59818D01*
X275539Y-59842D01*
X275414Y-59857D01*
X275280Y-59865D01*
X275217Y-59865D01*
X275139Y-59857D01*
X275045Y-59857D01*
X274943Y-59842D01*
X274833Y-59826D01*
X274715Y-59810D01*
X274613Y-59779D01*
X274613Y-58868D01*
X274629Y-58876D01*
X274668Y-58884D01*
X274731Y-58900D01*
X274809Y-58923D01*
X274904Y-58947D01*
X275005Y-58962D01*
X275115Y-58970D01*
X275217Y-58978D01*
X275249Y-58978D01*
X275288Y-58970D01*
X275343Y-58962D01*
X275406Y-58947D01*
X275484Y-58931D01*
X275563Y-58900D01*
X275657Y-58861D01*
X275743Y-58813D01*
X275845Y-58751D01*
X275940Y-58680D01*
X276034Y-58594D01*
X276128Y-58484D01*
X276222Y-58366D01*
X276301Y-58225D01*
X276379Y-58060D01*
X276889Y-56859D01*
X274401Y-50494D01*
X275531Y-50494D01*
X277258Y-55399D01*
X277258Y-55407D01*
X277266Y-55423D01*
X277274Y-55446D01*
X277289Y-55493D01*
X277305Y-55556D01*
X277321Y-55643D01*
X277352Y-55753D01*
X277384Y-55886D01*
X277423Y-55886D01*
X277423Y-55878D01*
X277431Y-55855D01*
X277439Y-55823D01*
X277454Y-55768D01*
X277470Y-55705D01*
X277486Y-55627D01*
X277517Y-55525D01*
X277548Y-55415D01*
X279361Y-50494D01*
X280413Y-50494D01*
X277486Y-57887D01*
X277486Y-57887D02*
G37*
G36*
X251044Y-56867D02*
X250039Y-56867D01*
X247630Y-50494D01*
X248744Y-50494D01*
X250369Y-55125D01*
X250369Y-55132D01*
X250377Y-55148D01*
X250384Y-55172D01*
X250400Y-55211D01*
X250416Y-55258D01*
X250431Y-55305D01*
X250463Y-55431D01*
X250502Y-55564D01*
X250541Y-55713D01*
X250565Y-55870D01*
X250588Y-56019D01*
X250612Y-56019D01*
X250612Y-56012D01*
X250612Y-55996D01*
X250620Y-55972D01*
X250628Y-55941D01*
X250628Y-55894D01*
X250643Y-55847D01*
X250659Y-55729D01*
X250690Y-55595D01*
X250722Y-55454D01*
X250769Y-55305D01*
X250816Y-55156D01*
X252504Y-50494D01*
X253579Y-50494D01*
X251044Y-56867D01*
X251044Y-56867D02*
G37*
G36*
X271270Y-50353D02*
X271325Y-50353D01*
X271379Y-50360D01*
X271450Y-50368D01*
X271529Y-50384D01*
X271693Y-50415D01*
X271890Y-50470D01*
X272086Y-50541D01*
X272298Y-50643D01*
X272510Y-50769D01*
X272612Y-50839D01*
X272714Y-50926D01*
X272808Y-51020D01*
X272902Y-51114D01*
X272988Y-51224D01*
X273067Y-51349D01*
X273145Y-51475D01*
X273216Y-51616D01*
X273271Y-51773D01*
X273326Y-51938D01*
X273365Y-52111D01*
X273396Y-52307D01*
X273412Y-52503D01*
X273420Y-52723D01*
X273420Y-56867D01*
X272400Y-56867D01*
X272400Y-55878D01*
X272376Y-55878D01*
X272368Y-55894D01*
X272345Y-55925D01*
X272306Y-55980D01*
X272251Y-56059D01*
X272180Y-56145D01*
X272094Y-56239D01*
X271999Y-56341D01*
X271882Y-56443D01*
X271748Y-56553D01*
X271607Y-56655D01*
X271442Y-56749D01*
X271270Y-56836D01*
X271073Y-56914D01*
X270869Y-56969D01*
X270650Y-57000D01*
X270414Y-57016D01*
X270320Y-57016D01*
X270257Y-57008D01*
X270179Y-57000D01*
X270084Y-56993D01*
X269982Y-56977D01*
X269872Y-56953D01*
X269629Y-56891D01*
X269512Y-56851D01*
X269386Y-56804D01*
X269260Y-56749D01*
X269143Y-56679D01*
X269033Y-56600D01*
X268923Y-56514D01*
X268915Y-56506D01*
X268899Y-56490D01*
X268876Y-56459D01*
X268836Y-56420D01*
X268797Y-56372D01*
X268758Y-56310D01*
X268703Y-56239D01*
X268656Y-56161D01*
X268609Y-56066D01*
X268562Y-55964D01*
X268515Y-55855D01*
X268475Y-55737D01*
X268436Y-55611D01*
X268413Y-55478D01*
X268397Y-55329D01*
X268389Y-55180D01*
X268389Y-55172D01*
X268389Y-55156D01*
X268389Y-55132D01*
X268397Y-55101D01*
X268397Y-55062D01*
X268405Y-55015D01*
X268421Y-54897D01*
X268452Y-54756D01*
X268499Y-54599D01*
X268562Y-54426D01*
X268656Y-54246D01*
X268766Y-54065D01*
X268899Y-53885D01*
X268986Y-53798D01*
X269072Y-53712D01*
X269174Y-53625D01*
X269276Y-53547D01*
X269394Y-53468D01*
X269519Y-53398D01*
X269653Y-53335D01*
X269802Y-53272D01*
X269959Y-53217D01*
X270124Y-53170D01*
X270304Y-53131D01*
X270493Y-53100D01*
X272400Y-52833D01*
X272400Y-52825D01*
X272400Y-52817D01*
X272400Y-52793D01*
X272400Y-52762D01*
X272392Y-52684D01*
X272376Y-52582D01*
X272360Y-52456D01*
X272329Y-52315D01*
X272290Y-52174D01*
X272235Y-52017D01*
X272164Y-51867D01*
X272078Y-51718D01*
X271976Y-51585D01*
X271850Y-51459D01*
X271693Y-51357D01*
X271521Y-51279D01*
X271427Y-51247D01*
X271317Y-51224D01*
X271207Y-51216D01*
X271089Y-51208D01*
X271034Y-51208D01*
X270979Y-51216D01*
X270893Y-51224D01*
X270791Y-51232D01*
X270673Y-51247D01*
X270540Y-51271D01*
X270398Y-51302D01*
X270241Y-51349D01*
X270077Y-51396D01*
X269904Y-51459D01*
X269723Y-51538D01*
X269543Y-51632D01*
X269362Y-51734D01*
X269182Y-51852D01*
X269009Y-51993D01*
X269009Y-50949D01*
X269017Y-50941D01*
X269048Y-50926D01*
X269103Y-50894D01*
X269174Y-50855D01*
X269268Y-50808D01*
X269370Y-50761D01*
X269496Y-50706D01*
X269637Y-50643D01*
X269786Y-50588D01*
X269951Y-50533D01*
X270131Y-50486D01*
X270320Y-50439D01*
X270524Y-50400D01*
X270728Y-50368D01*
X270948Y-50353D01*
X271175Y-50345D01*
X271230Y-50345D01*
X271270Y-50353D01*
X271270Y-50353D02*
G37*
G36*
X266796Y-56867D02*
X265776Y-56867D01*
X265776Y-47433D01*
X266796Y-47433D01*
X266796Y-56867D01*
X266796Y-56867D02*
G37*
G36*
X219241Y-48893D02*
X216667Y-48893D01*
X216667Y-56867D01*
X215623Y-56867D01*
X215623Y-48893D01*
X213049Y-48893D01*
X213049Y-47943D01*
X219241Y-47943D01*
X219241Y-48893D01*
X219241Y-48893D02*
G37*
G36*
X190876Y-48893D02*
X188302Y-48893D01*
X188302Y-56867D01*
X187258Y-56867D01*
X187258Y-48893D01*
X184684Y-48893D01*
X184684Y-47943D01*
X190876Y-47943D01*
X190876Y-48893D01*
X190876Y-48893D02*
G37*
G36*
X257299Y-50353D02*
X257385Y-50360D01*
X257495Y-50368D01*
X257613Y-50384D01*
X257746Y-50415D01*
X257888Y-50447D01*
X258045Y-50486D01*
X258202Y-50541D01*
X258359Y-50612D01*
X258523Y-50690D01*
X258680Y-50784D01*
X258829Y-50894D01*
X258979Y-51020D01*
X259112Y-51161D01*
X259120Y-51169D01*
X259144Y-51200D01*
X259175Y-51247D01*
X259222Y-51310D01*
X259269Y-51389D01*
X259332Y-51491D01*
X259395Y-51608D01*
X259457Y-51742D01*
X259520Y-51899D01*
X259583Y-52064D01*
X259646Y-52252D01*
X259693Y-52448D01*
X259740Y-52668D01*
X259771Y-52896D01*
X259795Y-53147D01*
X259803Y-53406D01*
X259803Y-53939D01*
X255298Y-53939D01*
X255298Y-53955D01*
X255298Y-53987D01*
X255306Y-54042D01*
X255313Y-54112D01*
X255321Y-54206D01*
X255337Y-54308D01*
X255353Y-54418D01*
X255384Y-54544D01*
X255455Y-54811D01*
X255502Y-54944D01*
X255557Y-55085D01*
X255620Y-55219D01*
X255690Y-55352D01*
X255776Y-55470D01*
X255871Y-55588D01*
X255879Y-55595D01*
X255894Y-55611D01*
X255926Y-55643D01*
X255973Y-55674D01*
X256028Y-55721D01*
X256098Y-55768D01*
X256177Y-55823D01*
X256263Y-55870D01*
X256365Y-55925D01*
X256483Y-55980D01*
X256600Y-56027D01*
X256742Y-56074D01*
X256883Y-56106D01*
X257040Y-56137D01*
X257205Y-56153D01*
X257377Y-56161D01*
X257425Y-56161D01*
X257480Y-56153D01*
X257558Y-56153D01*
X257652Y-56137D01*
X257762Y-56121D01*
X257888Y-56098D01*
X258029Y-56074D01*
X258178Y-56035D01*
X258335Y-55988D01*
X258500Y-55933D01*
X258665Y-55862D01*
X258837Y-55784D01*
X259010Y-55690D01*
X259183Y-55580D01*
X259355Y-55454D01*
X259355Y-56412D01*
X259347Y-56420D01*
X259316Y-56435D01*
X259269Y-56467D01*
X259206Y-56506D01*
X259120Y-56553D01*
X259018Y-56600D01*
X258900Y-56655D01*
X258767Y-56710D01*
X258610Y-56773D01*
X258445Y-56828D01*
X258264Y-56875D01*
X258068Y-56922D01*
X257856Y-56961D01*
X257629Y-56993D01*
X257385Y-57008D01*
X257134Y-57016D01*
X257071Y-57016D01*
X257009Y-57008D01*
X256915Y-57000D01*
X256797Y-56993D01*
X256663Y-56969D01*
X256522Y-56946D01*
X256365Y-56906D01*
X256200Y-56859D01*
X256028Y-56804D01*
X255847Y-56733D01*
X255674Y-56655D01*
X255494Y-56553D01*
X255329Y-56435D01*
X255164Y-56302D01*
X255015Y-56153D01*
X255007Y-56145D01*
X254984Y-56114D01*
X254944Y-56059D01*
X254897Y-55988D01*
X254835Y-55902D01*
X254772Y-55792D01*
X254701Y-55666D01*
X254631Y-55517D01*
X254560Y-55360D01*
X254489Y-55172D01*
X254426Y-54976D01*
X254364Y-54756D01*
X254317Y-54520D01*
X254277Y-54269D01*
X254254Y-53994D01*
X254246Y-53712D01*
X254246Y-53704D01*
X254246Y-53696D01*
X254246Y-53673D01*
X254246Y-53649D01*
X254254Y-53571D01*
X254262Y-53461D01*
X254270Y-53335D01*
X254293Y-53194D01*
X254317Y-53029D01*
X254348Y-52849D01*
X254395Y-52660D01*
X254450Y-52464D01*
X254521Y-52260D01*
X254599Y-52056D01*
X254693Y-51860D01*
X254811Y-51656D01*
X254937Y-51467D01*
X255086Y-51287D01*
X255094Y-51279D01*
X255125Y-51247D01*
X255172Y-51200D01*
X255235Y-51137D01*
X255321Y-51067D01*
X255423Y-50988D01*
X255533Y-50902D01*
X255667Y-50816D01*
X255808Y-50729D01*
X255973Y-50643D01*
X256145Y-50564D01*
X256326Y-50494D01*
X256522Y-50431D01*
X256734Y-50384D01*
X256954Y-50353D01*
X257181Y-50345D01*
X257236Y-50345D01*
X257299Y-50353D01*
X257299Y-50353D02*
G37*
G36*
X242975Y-47802D02*
X243030Y-47802D01*
X243085Y-47810D01*
X243156Y-47810D01*
X243313Y-47833D01*
X243493Y-47857D01*
X243697Y-47896D01*
X243917Y-47951D01*
X244145Y-48014D01*
X244388Y-48100D01*
X244631Y-48202D01*
X244883Y-48320D01*
X245134Y-48461D01*
X245369Y-48626D01*
X245605Y-48822D01*
X245824Y-49042D01*
X245840Y-49058D01*
X245872Y-49097D01*
X245926Y-49167D01*
X246005Y-49269D01*
X246083Y-49395D01*
X246185Y-49544D01*
X246287Y-49717D01*
X246390Y-49913D01*
X246492Y-50141D01*
X246594Y-50384D01*
X246696Y-50651D01*
X246782Y-50941D01*
X246853Y-51255D01*
X246908Y-51585D01*
X246939Y-51930D01*
X246955Y-52299D01*
X246955Y-52307D01*
X246955Y-52323D01*
X246955Y-52354D01*
X246955Y-52393D01*
X246947Y-52448D01*
X246947Y-52511D01*
X246939Y-52582D01*
X246939Y-52660D01*
X246931Y-52747D01*
X246923Y-52841D01*
X246892Y-53053D01*
X246860Y-53296D01*
X246813Y-53547D01*
X246751Y-53822D01*
X246672Y-54104D01*
X246578Y-54387D01*
X246468Y-54677D01*
X246335Y-54960D01*
X246178Y-55242D01*
X245997Y-55501D01*
X245793Y-55753D01*
X245777Y-55768D01*
X245738Y-55807D01*
X245675Y-55870D01*
X245581Y-55949D01*
X245463Y-56043D01*
X245322Y-56153D01*
X245165Y-56263D01*
X244977Y-56380D01*
X244765Y-56498D01*
X244529Y-56616D01*
X244278Y-56726D01*
X244004Y-56820D01*
X243705Y-56898D01*
X243391Y-56961D01*
X243054Y-57000D01*
X242701Y-57016D01*
X242614Y-57016D01*
X242575Y-57008D01*
X242520Y-57008D01*
X242457Y-57000D01*
X242387Y-56993D01*
X242222Y-56977D01*
X242041Y-56953D01*
X241829Y-56914D01*
X241610Y-56859D01*
X241366Y-56796D01*
X241123Y-56710D01*
X240872Y-56608D01*
X240613Y-56490D01*
X240362Y-56349D01*
X240119Y-56176D01*
X239875Y-55988D01*
X239655Y-55768D01*
X239640Y-55753D01*
X239608Y-55713D01*
X239553Y-55643D01*
X239475Y-55541D01*
X239389Y-55415D01*
X239294Y-55266D01*
X239192Y-55093D01*
X239090Y-54889D01*
X238980Y-54669D01*
X238878Y-54426D01*
X238784Y-54159D01*
X238698Y-53869D01*
X238619Y-53555D01*
X238564Y-53225D01*
X238533Y-52880D01*
X238517Y-52511D01*
X238517Y-52503D01*
X238517Y-52487D01*
X238517Y-52456D01*
X238517Y-52417D01*
X238525Y-52362D01*
X238525Y-52307D01*
X238533Y-52236D01*
X238533Y-52158D01*
X238541Y-52071D01*
X238557Y-51969D01*
X238580Y-51765D01*
X238612Y-51530D01*
X238666Y-51279D01*
X238721Y-51004D01*
X238800Y-50729D01*
X238894Y-50447D01*
X239004Y-50156D01*
X239137Y-49874D01*
X239294Y-49599D01*
X239475Y-49332D01*
X239679Y-49081D01*
X239695Y-49065D01*
X239734Y-49026D01*
X239797Y-48963D01*
X239891Y-48877D01*
X240009Y-48783D01*
X240158Y-48673D01*
X240322Y-48555D01*
X240511Y-48438D01*
X240731Y-48320D01*
X240966Y-48202D01*
X241225Y-48092D01*
X241508Y-47998D01*
X241814Y-47912D01*
X242136Y-47849D01*
X242481Y-47810D01*
X242850Y-47794D01*
X242928Y-47794D01*
X242975Y-47802D01*
X242975Y-47802D02*
G37*
G36*
X223456Y-50353D02*
X223558Y-50360D01*
X223676Y-50368D01*
X223817Y-50392D01*
X223966Y-50415D01*
X224131Y-50455D01*
X224311Y-50502D01*
X224492Y-50557D01*
X224672Y-50627D01*
X224861Y-50714D01*
X225041Y-50816D01*
X225222Y-50933D01*
X225387Y-51067D01*
X225544Y-51224D01*
X225551Y-51232D01*
X225575Y-51263D01*
X225614Y-51318D01*
X225669Y-51389D01*
X225732Y-51475D01*
X225795Y-51585D01*
X225873Y-51710D01*
X225944Y-51860D01*
X226022Y-52024D01*
X226093Y-52205D01*
X226156Y-52401D01*
X226219Y-52621D01*
X226273Y-52856D01*
X226313Y-53108D01*
X226336Y-53374D01*
X226344Y-53657D01*
X226344Y-53665D01*
X226344Y-53673D01*
X226344Y-53696D01*
X226344Y-53727D01*
X226336Y-53806D01*
X226329Y-53908D01*
X226321Y-54042D01*
X226297Y-54191D01*
X226273Y-54355D01*
X226234Y-54536D01*
X226187Y-54724D01*
X226132Y-54928D01*
X226062Y-55132D01*
X225983Y-55336D01*
X225881Y-55541D01*
X225763Y-55737D01*
X225630Y-55925D01*
X225481Y-56106D01*
X225473Y-56114D01*
X225442Y-56145D01*
X225394Y-56192D01*
X225324Y-56247D01*
X225238Y-56318D01*
X225135Y-56396D01*
X225010Y-56474D01*
X224869Y-56561D01*
X224712Y-56647D01*
X224539Y-56726D01*
X224351Y-56804D01*
X224147Y-56875D01*
X223919Y-56930D01*
X223683Y-56977D01*
X223440Y-57008D01*
X223173Y-57016D01*
X223111Y-57016D01*
X223040Y-57008D01*
X222938Y-57000D01*
X222820Y-56993D01*
X222679Y-56969D01*
X222530Y-56946D01*
X222365Y-56906D01*
X222184Y-56859D01*
X222004Y-56796D01*
X221815Y-56726D01*
X221627Y-56639D01*
X221439Y-56537D01*
X221250Y-56420D01*
X221078Y-56286D01*
X220913Y-56129D01*
X220905Y-56121D01*
X220874Y-56090D01*
X220835Y-56035D01*
X220779Y-55964D01*
X220717Y-55878D01*
X220646Y-55768D01*
X220576Y-55643D01*
X220497Y-55493D01*
X220418Y-55336D01*
X220340Y-55156D01*
X220269Y-54960D01*
X220207Y-54748D01*
X220152Y-54528D01*
X220112Y-54285D01*
X220081Y-54026D01*
X220073Y-53759D01*
X220073Y-53751D01*
X220073Y-53743D01*
X220073Y-53720D01*
X220073Y-53688D01*
X220081Y-53602D01*
X220089Y-53492D01*
X220097Y-53359D01*
X220120Y-53202D01*
X220144Y-53029D01*
X220183Y-52841D01*
X220230Y-52644D01*
X220285Y-52440D01*
X220356Y-52228D01*
X220442Y-52017D01*
X220544Y-51813D01*
X220654Y-51616D01*
X220787Y-51428D01*
X220944Y-51247D01*
X220952Y-51240D01*
X220984Y-51208D01*
X221038Y-51161D01*
X221109Y-51106D01*
X221196Y-51035D01*
X221305Y-50965D01*
X221431Y-50879D01*
X221572Y-50792D01*
X221729Y-50714D01*
X221910Y-50627D01*
X222106Y-50557D01*
X222318Y-50486D01*
X222546Y-50431D01*
X222789Y-50384D01*
X223048Y-50353D01*
X223323Y-50345D01*
X223385Y-50345D01*
X223456Y-50353D01*
X223456Y-50353D02*
G37*
G36*
X196151Y-47802D02*
X196206Y-47802D01*
X196261Y-47810D01*
X196331Y-47810D01*
X196488Y-47833D01*
X196669Y-47857D01*
X196873Y-47896D01*
X197092Y-47951D01*
X197320Y-48014D01*
X197563Y-48100D01*
X197807Y-48202D01*
X198058Y-48320D01*
X198309Y-48461D01*
X198544Y-48626D01*
X198780Y-48822D01*
X199000Y-49042D01*
X199015Y-49058D01*
X199047Y-49097D01*
X199102Y-49167D01*
X199180Y-49269D01*
X199259Y-49395D01*
X199361Y-49544D01*
X199463Y-49717D01*
X199565Y-49913D01*
X199667Y-50141D01*
X199769Y-50384D01*
X199871Y-50651D01*
X199957Y-50941D01*
X200028Y-51255D01*
X200083Y-51585D01*
X200114Y-51930D01*
X200130Y-52299D01*
X200130Y-52307D01*
X200130Y-52323D01*
X200130Y-52354D01*
X200130Y-52393D01*
X200122Y-52448D01*
X200122Y-52511D01*
X200114Y-52582D01*
X200114Y-52660D01*
X200106Y-52747D01*
X200098Y-52841D01*
X200067Y-53053D01*
X200036Y-53296D01*
X199989Y-53547D01*
X199926Y-53822D01*
X199847Y-54104D01*
X199753Y-54387D01*
X199643Y-54677D01*
X199510Y-54960D01*
X199353Y-55242D01*
X199172Y-55501D01*
X198968Y-55753D01*
X198953Y-55768D01*
X198913Y-55807D01*
X198850Y-55870D01*
X198756Y-55949D01*
X198639Y-56043D01*
X198497Y-56153D01*
X198340Y-56263D01*
X198152Y-56380D01*
X197940Y-56498D01*
X197705Y-56616D01*
X197453Y-56726D01*
X197179Y-56820D01*
X196880Y-56898D01*
X196567Y-56961D01*
X196229Y-57000D01*
X195876Y-57016D01*
X195790Y-57016D01*
X195750Y-57008D01*
X195695Y-57008D01*
X195633Y-57000D01*
X195562Y-56993D01*
X195397Y-56977D01*
X195217Y-56953D01*
X195005Y-56914D01*
X194785Y-56859D01*
X194542Y-56796D01*
X194298Y-56710D01*
X194047Y-56608D01*
X193788Y-56490D01*
X193537Y-56349D01*
X193294Y-56176D01*
X193050Y-55988D01*
X192831Y-55768D01*
X192815Y-55753D01*
X192784Y-55713D01*
X192729Y-55643D01*
X192650Y-55541D01*
X192564Y-55415D01*
X192470Y-55266D01*
X192368Y-55093D01*
X192266Y-54889D01*
X192156Y-54669D01*
X192054Y-54426D01*
X191959Y-54159D01*
X191873Y-53869D01*
X191795Y-53555D01*
X191740Y-53225D01*
X191708Y-52880D01*
X191693Y-52511D01*
X191693Y-52503D01*
X191693Y-52487D01*
X191693Y-52456D01*
X191693Y-52417D01*
X191700Y-52362D01*
X191700Y-52307D01*
X191708Y-52236D01*
X191708Y-52158D01*
X191716Y-52071D01*
X191732Y-51969D01*
X191755Y-51765D01*
X191787Y-51530D01*
X191842Y-51279D01*
X191897Y-51004D01*
X191975Y-50729D01*
X192069Y-50447D01*
X192179Y-50156D01*
X192313Y-49874D01*
X192470Y-49599D01*
X192650Y-49332D01*
X192854Y-49081D01*
X192870Y-49065D01*
X192909Y-49026D01*
X192972Y-48963D01*
X193066Y-48877D01*
X193184Y-48783D01*
X193333Y-48673D01*
X193498Y-48555D01*
X193686Y-48438D01*
X193906Y-48320D01*
X194141Y-48202D01*
X194400Y-48092D01*
X194683Y-47998D01*
X194989Y-47912D01*
X195311Y-47849D01*
X195656Y-47810D01*
X196025Y-47794D01*
X196103Y-47794D01*
X196151Y-47802D01*
X196151Y-47802D02*
G37*
%LPC*%
G36*
X230975Y-51208D02*
X230889Y-51208D01*
X230826Y-51216D01*
X230747Y-51224D01*
X230661Y-51240D01*
X230567Y-51263D01*
X230457Y-51287D01*
X230347Y-51318D01*
X230229Y-51357D01*
X230112Y-51412D01*
X229994Y-51467D01*
X229876Y-51538D01*
X229758Y-51624D01*
X229641Y-51718D01*
X229539Y-51828D01*
X229531Y-51836D01*
X229515Y-51860D01*
X229492Y-51891D01*
X229452Y-51938D01*
X229413Y-52001D01*
X229366Y-52071D01*
X229319Y-52158D01*
X229272Y-52252D01*
X229217Y-52362D01*
X229170Y-52480D01*
X229123Y-52605D01*
X229083Y-52747D01*
X229044Y-52896D01*
X229021Y-53045D01*
X229005Y-53210D01*
X228997Y-53382D01*
X228997Y-54269D01*
X228997Y-54277D01*
X228997Y-54300D01*
X228997Y-54348D01*
X229005Y-54402D01*
X229013Y-54473D01*
X229021Y-54552D01*
X229036Y-54638D01*
X229060Y-54732D01*
X229123Y-54944D01*
X229162Y-55054D01*
X229209Y-55172D01*
X229272Y-55282D01*
X229342Y-55399D01*
X229421Y-55509D01*
X229507Y-55611D01*
X229515Y-55619D01*
X229531Y-55635D01*
X229562Y-55658D01*
X229601Y-55697D01*
X229648Y-55737D01*
X229711Y-55784D01*
X229782Y-55831D01*
X229868Y-55886D01*
X229954Y-55933D01*
X230057Y-55988D01*
X230166Y-56035D01*
X230276Y-56074D01*
X230402Y-56114D01*
X230535Y-56137D01*
X230677Y-56153D01*
X230818Y-56161D01*
X230857Y-56161D01*
X230904Y-56153D01*
X230975Y-56153D01*
X231045Y-56137D01*
X231140Y-56121D01*
X231242Y-56098D01*
X231344Y-56074D01*
X231462Y-56035D01*
X231579Y-55988D01*
X231697Y-55933D01*
X231822Y-55862D01*
X231940Y-55784D01*
X232058Y-55690D01*
X232168Y-55580D01*
X232270Y-55454D01*
X232278Y-55446D01*
X232293Y-55423D01*
X232317Y-55384D01*
X232356Y-55321D01*
X232395Y-55250D01*
X232435Y-55164D01*
X232482Y-55054D01*
X232537Y-54936D01*
X232584Y-54803D01*
X232631Y-54654D01*
X232670Y-54497D01*
X232717Y-54316D01*
X232749Y-54128D01*
X232772Y-53924D01*
X232788Y-53704D01*
X232796Y-53476D01*
X232796Y-53461D01*
X232796Y-53429D01*
X232796Y-53374D01*
X232788Y-53304D01*
X232780Y-53210D01*
X232772Y-53108D01*
X232757Y-52998D01*
X232733Y-52872D01*
X232678Y-52605D01*
X232639Y-52464D01*
X232584Y-52330D01*
X232529Y-52189D01*
X232466Y-52056D01*
X232388Y-51930D01*
X232301Y-51813D01*
X232293Y-51805D01*
X232278Y-51789D01*
X232254Y-51757D01*
X232215Y-51718D01*
X232160Y-51671D01*
X232105Y-51624D01*
X232034Y-51569D01*
X231956Y-51506D01*
X231862Y-51451D01*
X231768Y-51396D01*
X231658Y-51349D01*
X231540Y-51302D01*
X231406Y-51263D01*
X231273Y-51232D01*
X231132Y-51216D01*
X230975Y-51208D01*
X230975Y-51208D02*
G37*
G36*
X272400Y-53649D02*
X270861Y-53861D01*
X270854Y-53861D01*
X270830Y-53869D01*
X270791Y-53869D01*
X270744Y-53877D01*
X270689Y-53892D01*
X270618Y-53908D01*
X270461Y-53939D01*
X270289Y-53987D01*
X270116Y-54049D01*
X269943Y-54128D01*
X269865Y-54167D01*
X269794Y-54214D01*
X269778Y-54230D01*
X269739Y-54261D01*
X269676Y-54324D01*
X269613Y-54418D01*
X269551Y-54544D01*
X269519Y-54614D01*
X269488Y-54693D01*
X269464Y-54779D01*
X269449Y-54881D01*
X269441Y-54983D01*
X269433Y-55101D01*
X269433Y-55109D01*
X269433Y-55125D01*
X269433Y-55148D01*
X269441Y-55180D01*
X269449Y-55266D01*
X269472Y-55376D01*
X269512Y-55493D01*
X269574Y-55627D01*
X269653Y-55753D01*
X269763Y-55870D01*
X269771Y-55870D01*
X269778Y-55886D01*
X269825Y-55917D01*
X269896Y-55964D01*
X269998Y-56012D01*
X270131Y-56066D01*
X270281Y-56114D01*
X270461Y-56145D01*
X270657Y-56161D01*
X270728Y-56161D01*
X270783Y-56153D01*
X270846Y-56145D01*
X270924Y-56129D01*
X271003Y-56114D01*
X271097Y-56090D01*
X271293Y-56027D01*
X271395Y-55988D01*
X271505Y-55933D01*
X271607Y-55870D01*
X271709Y-55800D01*
X271811Y-55721D01*
X271905Y-55627D01*
X271913Y-55619D01*
X271929Y-55603D01*
X271952Y-55572D01*
X271984Y-55533D01*
X272023Y-55478D01*
X272062Y-55415D01*
X272109Y-55344D01*
X272157Y-55258D01*
X272196Y-55164D01*
X272243Y-55062D01*
X272282Y-54952D01*
X272321Y-54834D01*
X272353Y-54709D01*
X272376Y-54575D01*
X272392Y-54434D01*
X272400Y-54285D01*
X272400Y-53649D01*
X272400Y-53649D02*
G37*
G36*
X257166Y-51208D02*
X257095Y-51208D01*
X257048Y-51216D01*
X256985Y-51224D01*
X256907Y-51232D01*
X256828Y-51247D01*
X256742Y-51271D01*
X256546Y-51334D01*
X256444Y-51373D01*
X256341Y-51428D01*
X256239Y-51483D01*
X256130Y-51554D01*
X256035Y-51632D01*
X255933Y-51726D01*
X255926Y-51734D01*
X255910Y-51750D01*
X255886Y-51781D01*
X255855Y-51820D01*
X255816Y-51875D01*
X255769Y-51930D01*
X255721Y-52009D01*
X255667Y-52087D01*
X255612Y-52181D01*
X255564Y-52283D01*
X255510Y-52393D01*
X255462Y-52511D01*
X255415Y-52644D01*
X255376Y-52778D01*
X255337Y-52927D01*
X255313Y-53076D01*
X258759Y-53076D01*
X258759Y-53068D01*
X258759Y-53037D01*
X258759Y-52990D01*
X258751Y-52927D01*
X258743Y-52856D01*
X258735Y-52770D01*
X258720Y-52676D01*
X258704Y-52574D01*
X258649Y-52354D01*
X258570Y-52119D01*
X258523Y-52009D01*
X258468Y-51899D01*
X258406Y-51797D01*
X258327Y-51703D01*
X258319Y-51695D01*
X258312Y-51679D01*
X258288Y-51656D01*
X258249Y-51624D01*
X258209Y-51585D01*
X258155Y-51546D01*
X258100Y-51498D01*
X258029Y-51451D01*
X257950Y-51412D01*
X257864Y-51365D01*
X257762Y-51326D01*
X257660Y-51287D01*
X257550Y-51255D01*
X257432Y-51232D01*
X257299Y-51216D01*
X257166Y-51208D01*
X257166Y-51208D02*
G37*
G36*
X242771Y-48744D02*
X242708Y-48744D01*
X242638Y-48752D01*
X242536Y-48759D01*
X242418Y-48775D01*
X242277Y-48799D01*
X242128Y-48830D01*
X241963Y-48869D01*
X241782Y-48924D01*
X241594Y-48987D01*
X241406Y-49073D01*
X241217Y-49167D01*
X241021Y-49285D01*
X240840Y-49419D01*
X240660Y-49576D01*
X240487Y-49756D01*
X240480Y-49764D01*
X240448Y-49803D01*
X240409Y-49858D01*
X240354Y-49937D01*
X240283Y-50039D01*
X240213Y-50164D01*
X240134Y-50306D01*
X240056Y-50470D01*
X239969Y-50651D01*
X239891Y-50855D01*
X239820Y-51075D01*
X239750Y-51310D01*
X239695Y-51561D01*
X239655Y-51836D01*
X239624Y-52119D01*
X239616Y-52425D01*
X239616Y-52432D01*
X239616Y-52440D01*
X239616Y-52464D01*
X239616Y-52495D01*
X239616Y-52534D01*
X239624Y-52582D01*
X239632Y-52699D01*
X239640Y-52841D01*
X239663Y-52998D01*
X239687Y-53178D01*
X239726Y-53374D01*
X239765Y-53578D01*
X239828Y-53798D01*
X239891Y-54018D01*
X239977Y-54238D01*
X240071Y-54457D01*
X240189Y-54677D01*
X240322Y-54881D01*
X240472Y-55078D01*
X240480Y-55085D01*
X240511Y-55117D01*
X240558Y-55172D01*
X240629Y-55234D01*
X240715Y-55313D01*
X240817Y-55391D01*
X240935Y-55486D01*
X241068Y-55580D01*
X241225Y-55674D01*
X241390Y-55760D01*
X241578Y-55847D01*
X241775Y-55925D01*
X241986Y-55988D01*
X242214Y-56035D01*
X242449Y-56074D01*
X242701Y-56082D01*
X242763Y-56082D01*
X242842Y-56074D01*
X242944Y-56066D01*
X243069Y-56051D01*
X243211Y-56035D01*
X243368Y-56004D01*
X243540Y-55964D01*
X243721Y-55909D01*
X243909Y-55847D01*
X244106Y-55768D01*
X244294Y-55674D01*
X244490Y-55572D01*
X244671Y-55438D01*
X244851Y-55289D01*
X245016Y-55125D01*
X245024Y-55117D01*
X245055Y-55078D01*
X245095Y-55023D01*
X245149Y-54944D01*
X245212Y-54850D01*
X245283Y-54732D01*
X245361Y-54591D01*
X245440Y-54426D01*
X245518Y-54246D01*
X245597Y-54049D01*
X245667Y-53830D01*
X245730Y-53586D01*
X245785Y-53327D01*
X245824Y-53053D01*
X245856Y-52754D01*
X245864Y-52440D01*
X245864Y-52432D01*
X245864Y-52417D01*
X245864Y-52393D01*
X245864Y-52362D01*
X245864Y-52323D01*
X245856Y-52268D01*
X245848Y-52150D01*
X245840Y-52001D01*
X245817Y-51828D01*
X245793Y-51640D01*
X245762Y-51436D01*
X245714Y-51224D01*
X245660Y-50996D01*
X245597Y-50769D01*
X245518Y-50541D01*
X245424Y-50321D01*
X245314Y-50101D01*
X245189Y-49897D01*
X245040Y-49709D01*
X245032Y-49701D01*
X245000Y-49670D01*
X244953Y-49623D01*
X244890Y-49560D01*
X244804Y-49481D01*
X244702Y-49403D01*
X244584Y-49317D01*
X244451Y-49222D01*
X244294Y-49136D01*
X244121Y-49050D01*
X243941Y-48963D01*
X243737Y-48893D01*
X243517Y-48830D01*
X243281Y-48783D01*
X243038Y-48752D01*
X242771Y-48744D01*
X242771Y-48744D02*
G37*
G36*
X223244Y-51208D02*
X223205Y-51208D01*
X223150Y-51216D01*
X223079Y-51216D01*
X223001Y-51232D01*
X222906Y-51240D01*
X222797Y-51263D01*
X222679Y-51294D01*
X222561Y-51326D01*
X222436Y-51373D01*
X222302Y-51428D01*
X222177Y-51491D01*
X222043Y-51569D01*
X221918Y-51656D01*
X221800Y-51757D01*
X221690Y-51875D01*
X221682Y-51883D01*
X221666Y-51907D01*
X221635Y-51946D01*
X221604Y-52001D01*
X221556Y-52064D01*
X221509Y-52150D01*
X221455Y-52244D01*
X221407Y-52354D01*
X221353Y-52480D01*
X221297Y-52621D01*
X221250Y-52770D01*
X221203Y-52935D01*
X221172Y-53115D01*
X221141Y-53304D01*
X221125Y-53508D01*
X221117Y-53720D01*
X221117Y-53735D01*
X221117Y-53767D01*
X221125Y-53830D01*
X221125Y-53908D01*
X221133Y-54002D01*
X221148Y-54112D01*
X221164Y-54238D01*
X221188Y-54371D01*
X221219Y-54512D01*
X221258Y-54654D01*
X221305Y-54803D01*
X221360Y-54952D01*
X221423Y-55101D01*
X221502Y-55242D01*
X221588Y-55384D01*
X221690Y-55509D01*
X221698Y-55517D01*
X221714Y-55541D01*
X221753Y-55572D01*
X221800Y-55611D01*
X221855Y-55658D01*
X221925Y-55713D01*
X222012Y-55776D01*
X222106Y-55831D01*
X222208Y-55894D01*
X222326Y-55957D01*
X222451Y-56012D01*
X222593Y-56059D01*
X222742Y-56098D01*
X222899Y-56129D01*
X223064Y-56153D01*
X223244Y-56161D01*
X223291Y-56161D01*
X223338Y-56153D01*
X223409Y-56153D01*
X223487Y-56137D01*
X223582Y-56129D01*
X223691Y-56106D01*
X223809Y-56082D01*
X223927Y-56051D01*
X224052Y-56004D01*
X224178Y-55957D01*
X224303Y-55894D01*
X224429Y-55823D01*
X224547Y-55737D01*
X224665Y-55635D01*
X224767Y-55525D01*
X224774Y-55517D01*
X224790Y-55493D01*
X224814Y-55454D01*
X224853Y-55407D01*
X224892Y-55336D01*
X224939Y-55258D01*
X224986Y-55164D01*
X225033Y-55054D01*
X225081Y-54928D01*
X225135Y-54795D01*
X225175Y-54646D01*
X225214Y-54481D01*
X225253Y-54308D01*
X225277Y-54112D01*
X225292Y-53908D01*
X225300Y-53696D01*
X225300Y-53680D01*
X225300Y-53641D01*
X225300Y-53578D01*
X225292Y-53500D01*
X225285Y-53398D01*
X225269Y-53288D01*
X225253Y-53155D01*
X225238Y-53021D01*
X225167Y-52723D01*
X225128Y-52574D01*
X225073Y-52417D01*
X225018Y-52268D01*
X224939Y-52126D01*
X224861Y-51985D01*
X224767Y-51860D01*
X224759Y-51852D01*
X224743Y-51828D01*
X224712Y-51797D01*
X224665Y-51757D01*
X224610Y-51710D01*
X224547Y-51656D01*
X224468Y-51593D01*
X224374Y-51530D01*
X224272Y-51475D01*
X224162Y-51412D01*
X224037Y-51357D01*
X223903Y-51310D01*
X223754Y-51271D01*
X223597Y-51240D01*
X223424Y-51216D01*
X223244Y-51208D01*
X223244Y-51208D02*
G37*
G36*
X195947Y-48744D02*
X195884Y-48744D01*
X195813Y-48752D01*
X195711Y-48759D01*
X195593Y-48775D01*
X195452Y-48799D01*
X195303Y-48830D01*
X195138Y-48869D01*
X194958Y-48924D01*
X194769Y-48987D01*
X194581Y-49073D01*
X194393Y-49167D01*
X194196Y-49285D01*
X194016Y-49419D01*
X193835Y-49576D01*
X193663Y-49756D01*
X193655Y-49764D01*
X193623Y-49803D01*
X193584Y-49858D01*
X193529Y-49937D01*
X193458Y-50039D01*
X193388Y-50164D01*
X193309Y-50306D01*
X193231Y-50470D01*
X193145Y-50651D01*
X193066Y-50855D01*
X192995Y-51075D01*
X192925Y-51310D01*
X192870Y-51561D01*
X192831Y-51836D01*
X192799Y-52119D01*
X192791Y-52425D01*
X192791Y-52432D01*
X192791Y-52440D01*
X192791Y-52464D01*
X192791Y-52495D01*
X192791Y-52534D01*
X192799Y-52582D01*
X192807Y-52699D01*
X192815Y-52841D01*
X192838Y-52998D01*
X192862Y-53178D01*
X192901Y-53374D01*
X192941Y-53578D01*
X193003Y-53798D01*
X193066Y-54018D01*
X193152Y-54238D01*
X193247Y-54457D01*
X193364Y-54677D01*
X193498Y-54881D01*
X193647Y-55078D01*
X193655Y-55085D01*
X193686Y-55117D01*
X193733Y-55172D01*
X193804Y-55234D01*
X193890Y-55313D01*
X193992Y-55391D01*
X194110Y-55486D01*
X194243Y-55580D01*
X194400Y-55674D01*
X194565Y-55760D01*
X194754Y-55847D01*
X194950Y-55925D01*
X195162Y-55988D01*
X195389Y-56035D01*
X195625Y-56074D01*
X195876Y-56082D01*
X195939Y-56082D01*
X196017Y-56074D01*
X196119Y-56066D01*
X196245Y-56051D01*
X196386Y-56035D01*
X196543Y-56004D01*
X196716Y-55964D01*
X196896Y-55909D01*
X197085Y-55847D01*
X197281Y-55768D01*
X197469Y-55674D01*
X197665Y-55572D01*
X197846Y-55438D01*
X198026Y-55289D01*
X198191Y-55125D01*
X198199Y-55117D01*
X198230Y-55078D01*
X198270Y-55023D01*
X198325Y-54944D01*
X198388Y-54850D01*
X198458Y-54732D01*
X198537Y-54591D01*
X198615Y-54426D01*
X198694Y-54246D01*
X198772Y-54049D01*
X198843Y-53830D01*
X198906Y-53586D01*
X198960Y-53327D01*
X199000Y-53053D01*
X199031Y-52754D01*
X199039Y-52440D01*
X199039Y-52432D01*
X199039Y-52417D01*
X199039Y-52393D01*
X199039Y-52362D01*
X199039Y-52323D01*
X199031Y-52268D01*
X199023Y-52150D01*
X199015Y-52001D01*
X198992Y-51828D01*
X198968Y-51640D01*
X198937Y-51436D01*
X198890Y-51224D01*
X198835Y-50996D01*
X198772Y-50769D01*
X198694Y-50541D01*
X198599Y-50321D01*
X198489Y-50101D01*
X198364Y-49897D01*
X198215Y-49709D01*
X198207Y-49701D01*
X198176Y-49670D01*
X198129Y-49623D01*
X198066Y-49560D01*
X197979Y-49481D01*
X197877Y-49403D01*
X197760Y-49317D01*
X197626Y-49222D01*
X197469Y-49136D01*
X197297Y-49050D01*
X197116Y-48963D01*
X196912Y-48893D01*
X196692Y-48830D01*
X196457Y-48783D01*
X196213Y-48752D01*
X195947Y-48744D01*
X195947Y-48744D02*
G37*
%LPD*%
D19*
X59436Y84256D02*
X57820Y86558D01*
X56394Y88981D01*
X55167Y91512D01*
X55187Y91559D02*
X57555Y90980D01*
X59987Y91141D01*
X62258Y92027D01*
X64157Y93556D01*
X64157Y93555D02*
X65173Y91768D01*
X66327Y90066D01*
X66270Y90024D02*
X67020Y87552D01*
X66287Y85075D01*
X64313Y83409D01*
X61748Y83103D01*
X59438Y84257D01*
X59956Y109190D02*
X57751Y109500D01*
X55546Y109190D01*
X53511Y108284D01*
X53506Y108284D02*
X53468Y114664D01*
X53471Y114664D02*
X55106Y116914D01*
X57751Y117773D01*
X60396Y116914D01*
X62030Y114664D01*
X62028Y114664D02*
X61991Y108284D01*
X61990Y108284D02*
X59956Y109190D01*
X113863Y131349D02*
X111271Y133941D01*
X114570Y134412D01*
X113863Y135119D01*
X113627Y135826D01*
X113627Y136297D01*
X114098Y137240D01*
X114570Y137711D01*
X115512Y138183D01*
X116455Y138183D01*
X117397Y137711D01*
X118104Y137004D01*
X118576Y136062D01*
X118576Y135590D01*
X118340Y134883D01*
X120131Y134507D02*
X120131Y134035D01*
X120602Y134035D01*
X120602Y134507D01*
X120131Y134507D01*
X121239Y131985D02*
X119825Y131042D01*
X119118Y130335D01*
X118175Y128921D01*
X117940Y127743D01*
X118411Y126801D01*
X118882Y126329D01*
X119825Y125858D01*
X121003Y126094D01*
X122417Y127036D01*
X123124Y127743D01*
X124066Y129157D01*
X124302Y130335D01*
X123831Y131278D01*
X123359Y131749D01*
X122417Y132221D01*
X121239Y131985D01*
X60396Y191086D02*
X62030Y193336D01*
X62028Y193336D02*
X61991Y199716D01*
X61990Y199716D02*
X59956Y198810D01*
X57751Y198500D01*
X55546Y198810D01*
X53511Y199716D01*
X53506Y199716D02*
X53468Y193336D01*
X53471Y193336D02*
X55106Y191086D01*
X57751Y190227D01*
X60396Y191086D01*
X59987Y216859D02*
X57555Y217020D01*
X55187Y216441D01*
X55167Y216488D02*
X56394Y219019D01*
X57820Y221443D01*
X59436Y223744D01*
X59438Y223743D02*
X61748Y224897D01*
X64313Y224591D01*
X66287Y222925D01*
X67020Y220448D01*
X66270Y217976D01*
X66327Y217934D02*
X65173Y216232D01*
X64157Y214445D01*
X64157Y214444D02*
X62258Y215973D01*
X59987Y216859D01*
X59438Y314258D02*
X61748Y313103D01*
X64313Y313409D01*
X66287Y315075D01*
X67020Y317552D01*
X66270Y320024D01*
X66327Y320066D02*
X65173Y321768D01*
X64157Y323555D01*
X64157Y323556D02*
X62258Y322027D01*
X59987Y321141D01*
X57555Y320980D01*
X55187Y321559D01*
X55167Y321512D02*
X56394Y318981D01*
X57820Y316558D01*
X59436Y314256D01*
X59956Y339190D02*
X57751Y339500D01*
X55546Y339190D01*
X53511Y338284D01*
X53506Y338284D02*
X53468Y344664D01*
X53471Y344664D02*
X55106Y346914D01*
X57751Y347773D01*
X60396Y346914D01*
X62030Y344664D01*
X62028Y344664D02*
X61991Y338284D01*
X61990Y338284D02*
X59956Y339190D01*
X113863Y361349D02*
X111271Y363941D01*
X114570Y364412D01*
X113863Y365119D01*
X113627Y365826D01*
X113627Y366297D01*
X114098Y367240D01*
X114570Y367711D01*
X115512Y368183D01*
X116455Y368183D01*
X117397Y367711D01*
X118104Y367004D01*
X118576Y366062D01*
X118576Y365591D01*
X118340Y364883D01*
X120131Y364506D02*
X120131Y364035D01*
X120602Y364035D01*
X120602Y364506D01*
X120131Y364506D01*
X121239Y361985D02*
X119825Y361042D01*
X119118Y360335D01*
X118175Y358922D01*
X117940Y357743D01*
X118411Y356801D01*
X118882Y356329D01*
X119825Y355858D01*
X121003Y356094D01*
X122417Y357036D01*
X123124Y357743D01*
X124066Y359157D01*
X124302Y360335D01*
X123831Y361278D01*
X123359Y361749D01*
X122417Y362221D01*
X121239Y361985D01*
X60396Y421086D02*
X62030Y423336D01*
X62028Y423336D02*
X61991Y429716D01*
X61990Y429716D02*
X59956Y428810D01*
X57751Y428500D01*
X55546Y428810D01*
X53511Y429716D01*
X53506Y429716D02*
X53468Y423336D01*
X53471Y423336D02*
X55106Y421086D01*
X57751Y420227D01*
X60396Y421086D01*
X59987Y446859D02*
X57555Y447020D01*
X55187Y446441D01*
X55167Y446488D02*
X56394Y449019D01*
X57820Y451443D01*
X59436Y453744D01*
X59438Y453743D02*
X61748Y454897D01*
X64313Y454591D01*
X66287Y452925D01*
X67020Y450448D01*
X66270Y447976D01*
X66327Y447934D02*
X65173Y446232D01*
X64157Y444445D01*
X64157Y444444D02*
X62258Y445973D01*
X59987Y446859D01*
X59438Y544258D02*
X61748Y543103D01*
X64313Y543409D01*
X66287Y545075D01*
X67020Y547552D01*
X66270Y550024D01*
X66327Y550066D02*
X65173Y551768D01*
X64157Y553555D01*
X64157Y553556D02*
X62258Y552027D01*
X59987Y551141D01*
X57555Y550980D01*
X55187Y551559D01*
X55167Y551512D02*
X56394Y548982D01*
X57820Y546558D01*
X59436Y544256D01*
X59956Y569190D02*
X57751Y569500D01*
X55546Y569190D01*
X53511Y568284D01*
X53506Y568284D02*
X53468Y574664D01*
X53471Y574664D02*
X55106Y576914D01*
X57751Y577773D01*
X60396Y576914D01*
X62030Y574664D01*
X62028Y574664D02*
X61991Y568284D01*
X61990Y568284D02*
X59956Y569190D01*
X113863Y591349D02*
X111271Y593941D01*
X114570Y594412D01*
X113863Y595119D01*
X113627Y595826D01*
X113627Y596297D01*
X114098Y597240D01*
X114570Y597711D01*
X115512Y598183D01*
X116455Y598183D01*
X117397Y597711D01*
X118104Y597004D01*
X118576Y596062D01*
X118576Y595591D01*
X118340Y594884D01*
X120131Y594506D02*
X120131Y594035D01*
X120602Y594035D01*
X120602Y594506D01*
X120131Y594506D01*
X121239Y591985D02*
X119825Y591042D01*
X119118Y590336D01*
X118175Y588922D01*
X117940Y587743D01*
X118411Y586801D01*
X118882Y586329D01*
X119825Y585858D01*
X121003Y586094D01*
X122417Y587036D01*
X123124Y587743D01*
X124066Y589157D01*
X124302Y590336D01*
X123831Y591278D01*
X123359Y591749D01*
X122417Y592221D01*
X121239Y591985D01*
X60396Y651086D02*
X62030Y653336D01*
X62028Y653336D02*
X61991Y659716D01*
X61990Y659716D02*
X59956Y658810D01*
X57751Y658500D01*
X55546Y658810D01*
X53511Y659716D01*
X53506Y659716D02*
X53468Y653336D01*
X53471Y653336D02*
X55106Y651086D01*
X57751Y650227D01*
X60396Y651086D01*
X59987Y676859D02*
X57555Y677020D01*
X55187Y676441D01*
X55167Y676488D02*
X56394Y679019D01*
X57820Y681443D01*
X59436Y683744D01*
X59438Y683743D02*
X61748Y684897D01*
X64313Y684591D01*
X66287Y682925D01*
X67020Y680448D01*
X66270Y677976D01*
X66327Y677934D02*
X65173Y676232D01*
X64157Y674445D01*
X64157Y674444D02*
X62258Y675973D01*
X59987Y676859D01*
X199436Y544256D02*
X197820Y546558D01*
X196395Y548982D01*
X195168Y551512D01*
X195188Y551559D02*
X197555Y550980D01*
X199988Y551141D01*
X202258Y552027D01*
X204157Y553556D01*
X204157Y553555D02*
X205173Y551768D01*
X206328Y550066D01*
X206271Y550024D02*
X207021Y547552D01*
X206288Y545075D01*
X204314Y543409D01*
X201749Y543103D01*
X199438Y544258D01*
X199956Y569190D02*
X197751Y569500D01*
X195546Y569190D01*
X193512Y568284D01*
X193507Y568284D02*
X193469Y574664D01*
X193471Y574664D02*
X195106Y576914D01*
X197751Y577773D01*
X200396Y576914D01*
X202031Y574664D01*
X202029Y574664D02*
X201991Y568284D01*
X201991Y568284D02*
X199956Y569190D01*
X253863Y591349D02*
X251271Y593941D01*
X254570Y594412D01*
X253863Y595119D01*
X253628Y595826D01*
X253628Y596297D01*
X254099Y597240D01*
X254570Y597711D01*
X255513Y598183D01*
X256455Y598183D01*
X257398Y597711D01*
X258105Y597004D01*
X258576Y596062D01*
X258576Y595591D01*
X258341Y594884D01*
X260132Y594506D02*
X260132Y594035D01*
X260603Y594035D01*
X260603Y594506D01*
X260132Y594506D01*
X261239Y591985D02*
X259825Y591042D01*
X259118Y590336D01*
X258176Y588922D01*
X257940Y587743D01*
X258411Y586801D01*
X258883Y586329D01*
X259825Y585858D01*
X261003Y586094D01*
X262417Y587036D01*
X263124Y587743D01*
X264067Y589157D01*
X264303Y590336D01*
X263831Y591278D01*
X263360Y591749D01*
X262417Y592221D01*
X261239Y591985D01*
X200396Y651086D02*
X202031Y653336D01*
X202029Y653336D02*
X201991Y659716D01*
X201991Y659716D02*
X199956Y658810D01*
X197751Y658500D01*
X195546Y658810D01*
X193512Y659716D01*
X193507Y659716D02*
X193469Y653336D01*
X193471Y653336D02*
X195106Y651086D01*
X197751Y650227D01*
X200396Y651086D01*
X199988Y676859D02*
X197555Y677020D01*
X195188Y676441D01*
X195168Y676488D02*
X196395Y679019D01*
X197820Y681443D01*
X199436Y683744D01*
X199438Y683743D02*
X201749Y684897D01*
X204314Y684591D01*
X206288Y682925D01*
X207021Y680448D01*
X206271Y677976D01*
X206328Y677934D02*
X205173Y676232D01*
X204157Y674445D01*
X204157Y674444D02*
X202258Y675973D01*
X199988Y676859D01*
X339437Y544256D02*
X337821Y546558D01*
X336395Y548982D01*
X335168Y551512D01*
X335188Y551559D02*
X337556Y550980D01*
X339988Y551141D01*
X342259Y552027D01*
X344158Y553556D01*
X344158Y553555D02*
X345174Y551768D01*
X346328Y550066D01*
X346271Y550024D02*
X347021Y547552D01*
X346288Y545075D01*
X344314Y543409D01*
X341750Y543103D01*
X339439Y544258D01*
X339957Y569190D02*
X337752Y569500D01*
X335547Y569190D01*
X333512Y568284D01*
X333507Y568284D02*
X333470Y574664D01*
X333472Y574664D02*
X335107Y576914D01*
X337752Y577773D01*
X340397Y576914D01*
X342031Y574664D01*
X342029Y574664D02*
X341992Y568284D01*
X341991Y568284D02*
X339957Y569190D01*
X393864Y591349D02*
X391272Y593941D01*
X394571Y594412D01*
X393864Y595119D01*
X393628Y595826D01*
X393628Y596297D01*
X394100Y597240D01*
X394571Y597711D01*
X395513Y598183D01*
X396456Y598183D01*
X397399Y597711D01*
X398106Y597004D01*
X398577Y596062D01*
X398577Y595591D01*
X398341Y594884D01*
X400132Y594506D02*
X400132Y594035D01*
X400603Y594035D01*
X400603Y594506D01*
X400132Y594506D01*
X401240Y591985D02*
X399826Y591042D01*
X399119Y590336D01*
X398176Y588922D01*
X397941Y587743D01*
X398412Y586801D01*
X398883Y586329D01*
X399826Y585858D01*
X401004Y586094D01*
X402418Y587036D01*
X403125Y587743D01*
X404068Y589157D01*
X404303Y590336D01*
X403832Y591278D01*
X403361Y591749D01*
X402418Y592221D01*
X401240Y591985D01*
X340397Y651086D02*
X342031Y653336D01*
X342029Y653336D02*
X341992Y659716D01*
X341991Y659716D02*
X339957Y658810D01*
X337752Y658500D01*
X335547Y658810D01*
X333512Y659716D01*
X333507Y659716D02*
X333470Y653336D01*
X333472Y653336D02*
X335107Y651086D01*
X337752Y650227D01*
X340397Y651086D01*
X339988Y676859D02*
X337556Y677020D01*
X335188Y676441D01*
X335168Y676488D02*
X336395Y679019D01*
X337821Y681443D01*
X339437Y683744D01*
X339439Y683743D02*
X341750Y684897D01*
X344314Y684591D01*
X346288Y682925D01*
X347021Y680448D01*
X346271Y677976D01*
X346328Y677934D02*
X345174Y676232D01*
X344158Y674445D01*
X344158Y674444D02*
X342259Y675973D01*
X339988Y676859D01*
X479437Y544256D02*
X477821Y546558D01*
X476396Y548982D01*
X475169Y551512D01*
X475189Y551559D02*
X477556Y550980D01*
X479989Y551141D01*
X482260Y552027D01*
X484158Y553556D01*
X484159Y553555D02*
X485175Y551768D01*
X486329Y550066D01*
X486272Y550024D02*
X487022Y547552D01*
X486289Y545075D01*
X484315Y543409D01*
X481750Y543103D01*
X479440Y544258D01*
X479957Y569190D02*
X477752Y569500D01*
X475547Y569190D01*
X473513Y568284D01*
X473508Y568284D02*
X473470Y574664D01*
X473473Y574664D02*
X475107Y576914D01*
X477752Y577773D01*
X480397Y576914D01*
X482032Y574664D01*
X482030Y574664D02*
X481992Y568284D01*
X481992Y568284D02*
X479957Y569190D01*
X533864Y591349D02*
X531272Y593941D01*
X534571Y594412D01*
X533864Y595119D01*
X533629Y595826D01*
X533629Y596297D01*
X534100Y597240D01*
X534571Y597711D01*
X535514Y598183D01*
X536456Y598183D01*
X537399Y597711D01*
X538106Y597004D01*
X538577Y596062D01*
X538577Y595591D01*
X538342Y594884D01*
X540133Y594506D02*
X540133Y594035D01*
X540604Y594035D01*
X540604Y594506D01*
X540133Y594506D01*
X541240Y591985D02*
X539826Y591042D01*
X539119Y590336D01*
X538177Y588922D01*
X537941Y587743D01*
X538413Y586801D01*
X538884Y586329D01*
X539826Y585858D01*
X541005Y586094D01*
X542419Y587036D01*
X543125Y587743D01*
X544068Y589157D01*
X544304Y590336D01*
X543833Y591278D01*
X543361Y591749D01*
X542419Y592221D01*
X541240Y591985D01*
X480397Y651086D02*
X482032Y653336D01*
X482030Y653336D02*
X481992Y659716D01*
X481992Y659716D02*
X479957Y658810D01*
X477752Y658500D01*
X475547Y658810D01*
X473513Y659716D01*
X473508Y659716D02*
X473470Y653336D01*
X473473Y653336D02*
X475107Y651086D01*
X477752Y650227D01*
X480397Y651086D01*
X479989Y676859D02*
X477556Y677020D01*
X475189Y676441D01*
X475169Y676488D02*
X476396Y679019D01*
X477821Y681443D01*
X479437Y683744D01*
X479440Y683743D02*
X481750Y684897D01*
X484315Y684591D01*
X486289Y682925D01*
X487022Y680448D01*
X486272Y677976D01*
X486329Y677934D02*
X485175Y676232D01*
X484159Y674445D01*
X484158Y674444D02*
X482260Y675973D01*
X479989Y676859D01*
X619438Y544256D02*
X617822Y546558D01*
X616396Y548982D01*
X615170Y551512D01*
X615189Y551559D02*
X617557Y550980D01*
X619989Y551141D01*
X622260Y552027D01*
X624159Y553556D01*
X624159Y553555D02*
X625175Y551768D01*
X626329Y550066D01*
X626272Y550024D02*
X627022Y547552D01*
X626289Y545075D01*
X624315Y543409D01*
X621751Y543103D01*
X619440Y544258D01*
X619958Y569190D02*
X617753Y569500D01*
X615548Y569190D01*
X613513Y568284D01*
X613508Y568284D02*
X613471Y574664D01*
X613473Y574664D02*
X615108Y576914D01*
X617753Y577773D01*
X620398Y576914D01*
X622033Y574664D01*
X622030Y574664D02*
X621993Y568284D01*
X621992Y568284D02*
X619958Y569190D01*
X673865Y591349D02*
X671273Y593941D01*
X674572Y594412D01*
X673865Y595119D01*
X673629Y595826D01*
X673629Y596297D01*
X674101Y597240D01*
X674572Y597711D01*
X675515Y598183D01*
X676457Y598183D01*
X677400Y597711D01*
X678107Y597004D01*
X678578Y596062D01*
X678578Y595591D01*
X678342Y594884D01*
X680133Y594506D02*
X680133Y594035D01*
X680605Y594035D01*
X680605Y594506D01*
X680133Y594506D01*
X681241Y591985D02*
X679827Y591042D01*
X679120Y590336D01*
X678177Y588922D01*
X677942Y587743D01*
X678413Y586801D01*
X678884Y586329D01*
X679827Y585858D01*
X681005Y586094D01*
X682419Y587036D01*
X683126Y587743D01*
X684069Y589157D01*
X684304Y590336D01*
X683833Y591278D01*
X683362Y591749D01*
X682419Y592221D01*
X681241Y591985D01*
X620398Y651086D02*
X622033Y653336D01*
X622030Y653336D02*
X621993Y659716D01*
X621992Y659716D02*
X619958Y658810D01*
X617753Y658500D01*
X615548Y658810D01*
X613513Y659716D01*
X613508Y659716D02*
X613471Y653336D01*
X613473Y653336D02*
X615108Y651086D01*
X617753Y650227D01*
X620398Y651086D01*
X619989Y676859D02*
X617557Y677020D01*
X615189Y676441D01*
X615170Y676488D02*
X616396Y679019D01*
X617822Y681443D01*
X619438Y683744D01*
X619440Y683743D02*
X621751Y684897D01*
X624315Y684591D01*
X626289Y682925D01*
X627022Y680448D01*
X626272Y677976D01*
X626329Y677934D02*
X625175Y676232D01*
X624159Y674445D01*
X624159Y674444D02*
X622260Y675973D01*
X619989Y676859D01*
X486289Y452925D02*
X484315Y454591D01*
X481750Y454897D01*
X479440Y453743D01*
X479437Y453744D02*
X477821Y451443D01*
X476396Y449019D01*
X475169Y446488D01*
X475189Y446441D02*
X477556Y447020D01*
X479989Y446859D01*
X482260Y445973D01*
X484158Y444444D01*
X484159Y444445D02*
X485175Y446232D01*
X486329Y447934D01*
X486272Y447976D02*
X487022Y450448D01*
X486289Y452925D01*
X481992Y429716D02*
X482030Y423336D01*
X482032Y423336D02*
X480397Y421086D01*
X477752Y420227D01*
X475107Y421086D01*
X473473Y423336D01*
X473470Y423336D02*
X473508Y429716D01*
X473513Y429716D02*
X475547Y428810D01*
X477752Y428500D01*
X479957Y428810D01*
X481992Y429716D01*
X534100Y367240D02*
X534571Y367711D01*
X535514Y368183D01*
X536456Y368183D01*
X537399Y367711D01*
X538106Y367004D01*
X538577Y366062D01*
X538577Y365591D01*
X538342Y364883D01*
X540133Y364506D02*
X540133Y364035D01*
X540604Y364035D01*
X540604Y364506D01*
X540133Y364506D01*
X541240Y361985D02*
X539826Y361042D01*
X539119Y360335D01*
X538177Y358922D01*
X537941Y357743D01*
X538413Y356801D01*
X538884Y356329D01*
X539826Y355858D01*
X541005Y356094D01*
X542419Y357036D01*
X543125Y357743D01*
X544068Y359157D01*
X544304Y360335D01*
X543833Y361278D01*
X543361Y361749D01*
X542419Y362221D01*
X541240Y361985D01*
X533864Y361349D02*
X531272Y363941D01*
X534571Y364412D01*
X533864Y365119D01*
X533629Y365826D01*
X533629Y366297D01*
X534100Y367240D01*
X480397Y346914D02*
X477752Y347773D01*
X475107Y346914D01*
X473473Y344664D01*
X473470Y344664D02*
X473508Y338284D01*
X473513Y338284D02*
X475547Y339190D01*
X477752Y339500D01*
X479957Y339190D01*
X481992Y338284D01*
X481992Y338284D02*
X482030Y344664D01*
X482032Y344664D02*
X480397Y346914D01*
X482260Y322027D02*
X484158Y323556D01*
X484159Y323555D02*
X485175Y321768D01*
X486329Y320066D01*
X486272Y320024D02*
X487022Y317552D01*
X486289Y315075D01*
X484315Y313409D01*
X481750Y313103D01*
X479440Y314258D01*
X479437Y314256D02*
X477821Y316558D01*
X476396Y318981D01*
X475169Y321512D01*
X475189Y321559D02*
X477556Y320980D01*
X479989Y321141D01*
X482260Y322027D01*
X402418Y357036D02*
X403125Y357743D01*
X404068Y359157D01*
X404303Y360335D01*
X403832Y361278D01*
X403361Y361749D01*
X402418Y362221D01*
X401240Y361985D01*
X399826Y361042D01*
X399119Y360335D01*
X398176Y358922D01*
X397941Y357743D01*
X398412Y356801D01*
X398883Y356329D01*
X399826Y355858D01*
X401004Y356094D01*
X402418Y357036D01*
X400603Y364035D02*
X400603Y364506D01*
X400132Y364506D01*
X400132Y364035D01*
X400603Y364035D01*
X398341Y364883D02*
X398577Y365591D01*
X398577Y366062D01*
X398106Y367004D01*
X397399Y367711D01*
X396456Y368183D01*
X395513Y368183D01*
X394571Y367711D01*
X394100Y367240D01*
X393628Y366297D01*
X393628Y365826D01*
X393864Y365119D01*
X394571Y364412D01*
X391272Y363941D01*
X393864Y361349D01*
X340397Y421086D02*
X342031Y423336D01*
X342029Y423336D02*
X341992Y429716D01*
X341991Y429716D02*
X339957Y428810D01*
X337752Y428500D01*
X335547Y428810D01*
X333512Y429716D01*
X333507Y429716D02*
X333470Y423336D01*
X333472Y423336D02*
X335107Y421086D01*
X337752Y420227D01*
X340397Y421086D01*
X339988Y446859D02*
X337556Y447020D01*
X335188Y446441D01*
X335168Y446488D02*
X336395Y449019D01*
X337821Y451443D01*
X339437Y453744D01*
X339439Y453743D02*
X341750Y454897D01*
X344314Y454591D01*
X346288Y452925D01*
X347021Y450448D01*
X346271Y447976D01*
X346328Y447934D02*
X345174Y446232D01*
X344158Y444445D01*
X344158Y444444D02*
X342259Y445973D01*
X339988Y446859D01*
X263831Y361278D02*
X263360Y361749D01*
X262417Y362221D01*
X261239Y361985D01*
X259825Y361042D01*
X259118Y360335D01*
X258176Y358922D01*
X257940Y357743D01*
X258411Y356801D01*
X258883Y356329D01*
X259825Y355858D01*
X261003Y356094D01*
X262417Y357036D01*
X263124Y357743D01*
X264067Y359157D01*
X264303Y360335D01*
X263831Y361278D01*
X260603Y364035D02*
X260603Y364506D01*
X260132Y364506D01*
X260132Y364035D01*
X260603Y364035D01*
X258341Y364883D02*
X258576Y365591D01*
X258576Y366062D01*
X258105Y367004D01*
X257398Y367711D01*
X256455Y368183D01*
X255513Y368183D01*
X254570Y367711D01*
X254099Y367240D01*
X253628Y366297D01*
X253628Y365826D01*
X253863Y365119D01*
X254570Y364412D01*
X251271Y363941D01*
X253863Y361349D01*
X200396Y421086D02*
X202031Y423336D01*
X202029Y423336D02*
X201991Y429716D01*
X201991Y429716D02*
X199956Y428810D01*
X197751Y428500D01*
X195546Y428810D01*
X193512Y429716D01*
X193507Y429716D02*
X193469Y423336D01*
X193471Y423336D02*
X195106Y421086D01*
X197751Y420227D01*
X200396Y421086D01*
X199988Y446859D02*
X197555Y447020D01*
X195188Y446441D01*
X195168Y446488D02*
X196395Y449019D01*
X197820Y451443D01*
X199436Y453744D01*
X199438Y453743D02*
X201749Y454897D01*
X204314Y454591D01*
X206288Y452925D01*
X207021Y450448D01*
X206271Y447976D01*
X206328Y447934D02*
X205173Y446232D01*
X204157Y444445D01*
X204157Y444444D02*
X202258Y445973D01*
X199988Y446859D01*
X200396Y346914D02*
X197751Y347773D01*
X195106Y346914D01*
X193471Y344664D01*
X193469Y344664D02*
X193507Y338284D01*
X193512Y338284D02*
X195546Y339190D01*
X197751Y339500D01*
X199956Y339190D01*
X201991Y338284D01*
X201991Y338284D02*
X202029Y344664D01*
X202031Y344664D02*
X200396Y346914D01*
X202258Y322027D02*
X204157Y323556D01*
X204157Y323555D02*
X205173Y321768D01*
X206328Y320066D01*
X206271Y320024D02*
X207021Y317552D01*
X206288Y315075D01*
X204314Y313409D01*
X201749Y313103D01*
X199438Y314258D01*
X199436Y314256D02*
X197820Y316558D01*
X196395Y318981D01*
X195168Y321512D01*
X195188Y321559D02*
X197555Y320980D01*
X199988Y321141D01*
X202258Y322027D01*
X201749Y224897D02*
X199438Y223743D01*
X199436Y223744D02*
X197820Y221443D01*
X196395Y219019D01*
X195168Y216488D01*
X195188Y216441D02*
X197555Y217020D01*
X199988Y216859D01*
X202258Y215973D01*
X204157Y214444D01*
X204157Y214445D02*
X205173Y216232D01*
X206328Y217934D01*
X206271Y217976D02*
X207021Y220448D01*
X206288Y222925D01*
X204314Y224591D01*
X201749Y224897D01*
X201991Y199716D02*
X199956Y198810D01*
X197751Y198500D01*
X195546Y198810D01*
X193512Y199716D01*
X193507Y199716D02*
X193469Y193336D01*
X193471Y193336D02*
X195106Y191086D01*
X197751Y190227D01*
X200396Y191086D01*
X202031Y193336D01*
X202029Y193336D02*
X201991Y199716D01*
X254099Y137240D02*
X254570Y137711D01*
X255513Y138183D01*
X256455Y138183D01*
X257398Y137711D01*
X258105Y137004D01*
X258576Y136062D01*
X258576Y135590D01*
X258341Y134883D01*
X260132Y134507D02*
X260132Y134035D01*
X260603Y134035D01*
X260603Y134507D01*
X260132Y134507D01*
X261239Y131985D02*
X259825Y131042D01*
X259118Y130335D01*
X258176Y128921D01*
X257940Y127743D01*
X258411Y126801D01*
X258883Y126329D01*
X259825Y125858D01*
X261003Y126094D01*
X262417Y127036D01*
X263124Y127743D01*
X264067Y129157D01*
X264303Y130335D01*
X263831Y131278D01*
X263360Y131749D01*
X262417Y132221D01*
X261239Y131985D01*
X253863Y131349D02*
X251271Y133941D01*
X254570Y134412D01*
X253863Y135119D01*
X253628Y135826D01*
X253628Y136297D01*
X254099Y137240D01*
X200396Y116914D02*
X197751Y117773D01*
X195106Y116914D01*
X193471Y114664D01*
X193469Y114664D02*
X193507Y108284D01*
X193512Y108284D02*
X195546Y109190D01*
X197751Y109500D01*
X199956Y109190D01*
X201991Y108284D01*
X201991Y108284D02*
X202029Y114664D01*
X202031Y114664D02*
X200396Y116914D01*
X199988Y91141D02*
X202258Y92027D01*
X204157Y93556D01*
X204157Y93555D02*
X205173Y91768D01*
X206328Y90066D01*
X206271Y90024D02*
X207021Y87552D01*
X206288Y85075D01*
X204314Y83409D01*
X201749Y83103D01*
X199438Y84257D01*
X199436Y84256D02*
X197820Y86558D01*
X196395Y88981D01*
X195168Y91512D01*
X195188Y91559D02*
X197555Y90980D01*
X199988Y91141D01*
X335168Y91512D02*
X336395Y88981D01*
X337821Y86558D01*
X339437Y84256D01*
X339439Y84257D02*
X341750Y83103D01*
X344314Y83409D01*
X346288Y85075D01*
X347021Y87552D01*
X346271Y90024D01*
X346328Y90066D02*
X345174Y91768D01*
X344158Y93555D01*
X344158Y93556D02*
X342259Y92027D01*
X339988Y91141D01*
X337556Y90980D01*
X335188Y91559D01*
X335547Y109190D02*
X333512Y108284D01*
X333507Y108284D02*
X333470Y114664D01*
X333472Y114664D02*
X335107Y116914D01*
X337752Y117773D01*
X340397Y116914D01*
X342031Y114664D01*
X342029Y114664D02*
X341992Y108284D01*
X341991Y108284D02*
X339957Y109190D01*
X337752Y109500D01*
X335547Y109190D01*
X393864Y131349D02*
X391272Y133941D01*
X394571Y134412D01*
X393864Y135119D01*
X393628Y135826D01*
X393628Y136297D01*
X394100Y137240D01*
X394571Y137711D01*
X395513Y138183D01*
X396456Y138183D01*
X397399Y137711D01*
X398106Y137004D01*
X398577Y136062D01*
X398577Y135590D01*
X398341Y134883D01*
X400132Y134507D02*
X400132Y134035D01*
X400603Y134035D01*
X400603Y134507D01*
X400132Y134507D01*
X401240Y131985D02*
X399826Y131042D01*
X399119Y130335D01*
X398176Y128921D01*
X397941Y127743D01*
X398412Y126801D01*
X398883Y126329D01*
X399826Y125858D01*
X401004Y126094D01*
X402418Y127036D01*
X403125Y127743D01*
X404068Y129157D01*
X404303Y130335D01*
X403832Y131278D01*
X403361Y131749D01*
X402418Y132221D01*
X401240Y131985D01*
X340397Y191086D02*
X342031Y193336D01*
X342029Y193336D02*
X341992Y199716D01*
X341991Y199716D02*
X339957Y198810D01*
X337752Y198500D01*
X335547Y198810D01*
X333512Y199716D01*
X333507Y199716D02*
X333470Y193336D01*
X333472Y193336D02*
X335107Y191086D01*
X337752Y190227D01*
X340397Y191086D01*
X339988Y216859D02*
X337556Y217020D01*
X335188Y216441D01*
X335168Y216488D02*
X336395Y219019D01*
X337821Y221443D01*
X339437Y223744D01*
X339439Y223743D02*
X341750Y224897D01*
X344314Y224591D01*
X346288Y222925D01*
X347021Y220448D01*
X346271Y217976D01*
X346328Y217934D02*
X345174Y216232D01*
X344158Y214445D01*
X344158Y214444D02*
X342259Y215973D01*
X339988Y216859D01*
X339439Y314258D02*
X341750Y313103D01*
X344314Y313409D01*
X346288Y315075D01*
X347021Y317552D01*
X346271Y320024D01*
X346328Y320066D02*
X345174Y321768D01*
X344158Y323555D01*
X344158Y323556D02*
X342259Y322027D01*
X339988Y321141D01*
X337556Y320980D01*
X335188Y321559D01*
X335168Y321512D02*
X336395Y318981D01*
X337821Y316558D01*
X339437Y314256D01*
X339957Y339190D02*
X337752Y339500D01*
X335547Y339190D01*
X333512Y338284D01*
X333507Y338284D02*
X333470Y344664D01*
X333472Y344664D02*
X335107Y346914D01*
X337752Y347773D01*
X340397Y346914D01*
X342031Y344664D01*
X342029Y344664D02*
X341992Y338284D01*
X341991Y338284D02*
X339957Y339190D01*
X473508Y199716D02*
X473470Y193336D01*
X473473Y193336D02*
X475107Y191086D01*
X477752Y190227D01*
X480397Y191086D01*
X482032Y193336D01*
X482030Y193336D02*
X481992Y199716D01*
X481992Y199716D02*
X479957Y198810D01*
X477752Y198500D01*
X475547Y198810D01*
X473513Y199716D01*
X475189Y216441D02*
X477556Y217020D01*
X479989Y216859D01*
X482260Y215973D01*
X484158Y214444D01*
X484159Y214445D02*
X485175Y216232D01*
X486329Y217934D01*
X486272Y217976D02*
X487022Y220448D01*
X486289Y222925D01*
X484315Y224591D01*
X481750Y224897D01*
X479440Y223743D01*
X479437Y223744D02*
X477821Y221443D01*
X476396Y219019D01*
X475169Y216488D01*
X534100Y137240D02*
X534571Y137711D01*
X535514Y138183D01*
X536456Y138183D01*
X537399Y137711D01*
X538106Y137004D01*
X538577Y136062D01*
X538577Y135590D01*
X538342Y134883D01*
X540133Y134507D02*
X540133Y134035D01*
X540604Y134035D01*
X540604Y134507D01*
X540133Y134507D01*
X541240Y131985D02*
X539826Y131042D01*
X539119Y130335D01*
X538177Y128921D01*
X537941Y127743D01*
X538413Y126801D01*
X538884Y126329D01*
X539826Y125858D01*
X541005Y126094D01*
X542419Y127036D01*
X543125Y127743D01*
X544068Y129157D01*
X544304Y130335D01*
X543833Y131278D01*
X543361Y131749D01*
X542419Y132221D01*
X541240Y131985D01*
X533864Y131349D02*
X531272Y133941D01*
X534571Y134412D01*
X533864Y135119D01*
X533629Y135826D01*
X533629Y136297D01*
X534100Y137240D01*
X480397Y116914D02*
X477752Y117773D01*
X475107Y116914D01*
X473473Y114664D01*
X473470Y114664D02*
X473508Y108284D01*
X473513Y108284D02*
X475547Y109190D01*
X477752Y109500D01*
X479957Y109190D01*
X481992Y108284D01*
X481992Y108284D02*
X482030Y114664D01*
X482032Y114664D02*
X480397Y116914D01*
X479989Y91141D02*
X482260Y92027D01*
X484158Y93556D01*
X484159Y93555D02*
X485175Y91768D01*
X486329Y90066D01*
X486272Y90024D02*
X487022Y87552D01*
X486289Y85075D01*
X484315Y83409D01*
X481750Y83103D01*
X479440Y84257D01*
X479437Y84256D02*
X477821Y86558D01*
X476396Y88981D01*
X475169Y91512D01*
X475189Y91559D02*
X477556Y90980D01*
X479989Y91141D01*
X615170Y91512D02*
X616396Y88981D01*
X617822Y86558D01*
X619438Y84256D01*
X619440Y84257D02*
X621751Y83103D01*
X624315Y83409D01*
X626289Y85075D01*
X627022Y87552D01*
X626272Y90024D01*
X626329Y90066D02*
X625175Y91768D01*
X624159Y93555D01*
X624159Y93556D02*
X622260Y92027D01*
X619989Y91141D01*
X617557Y90980D01*
X615189Y91559D01*
X615548Y109190D02*
X613513Y108284D01*
X613508Y108284D02*
X613471Y114664D01*
X613473Y114664D02*
X615108Y116914D01*
X617753Y117773D01*
X620398Y116914D01*
X622033Y114664D01*
X622030Y114664D02*
X621993Y108284D01*
X621992Y108284D02*
X619958Y109190D01*
X617753Y109500D01*
X615548Y109190D01*
X673865Y131349D02*
X671273Y133941D01*
X674572Y134412D01*
X673865Y135119D01*
X673629Y135826D01*
X673629Y136297D01*
X674101Y137240D01*
X674572Y137711D01*
X675515Y138183D01*
X676457Y138183D01*
X677400Y137711D01*
X678107Y137004D01*
X678578Y136062D01*
X678578Y135590D01*
X678342Y134883D01*
X680133Y134507D02*
X680133Y134035D01*
X680605Y134035D01*
X680605Y134507D01*
X680133Y134507D01*
X681241Y131985D02*
X679827Y131042D01*
X679120Y130335D01*
X678177Y128921D01*
X677942Y127743D01*
X678413Y126801D01*
X678884Y126329D01*
X679827Y125858D01*
X681005Y126094D01*
X682419Y127036D01*
X683126Y127743D01*
X684069Y129157D01*
X684304Y130335D01*
X683833Y131278D01*
X683362Y131749D01*
X682419Y132221D01*
X681241Y131985D01*
X719002Y121876D02*
X725667Y121876D01*
X725191Y120924D02*
X724239Y121876D01*
X725191Y120924D02*
X725667Y119972D01*
X725667Y118544D01*
X725191Y117591D01*
X724239Y116639D01*
X722811Y116163D01*
X721859Y116163D01*
X720430Y116639D01*
X719478Y117591D01*
X719002Y118544D01*
X719002Y119972D01*
X719478Y120924D01*
X720430Y121876D01*
X720430Y113497D02*
X719478Y112545D01*
X719002Y111593D01*
X719002Y110164D01*
X719478Y109212D01*
X720430Y108260D01*
X721859Y107784D01*
X722811Y107784D01*
X724239Y108260D01*
X725191Y109212D01*
X725667Y110164D01*
X725667Y111593D01*
X725191Y112545D01*
X724239Y113497D01*
X725667Y113497D02*
X715669Y113497D01*
X720430Y105641D02*
X719478Y104689D01*
X719002Y103737D01*
X719002Y102309D01*
X719478Y101357D01*
X720430Y100405D01*
X721859Y99929D01*
X722811Y99929D01*
X724239Y100405D01*
X725191Y101357D01*
X725667Y102309D01*
X725667Y103737D01*
X725191Y104689D01*
X724239Y105641D01*
X724239Y97262D02*
X725191Y96310D01*
X725667Y95358D01*
X725667Y93930D01*
X725191Y92978D01*
X724239Y92025D01*
X722811Y91549D01*
X721859Y91549D01*
X720430Y92025D01*
X719478Y92978D01*
X719002Y93930D01*
X719002Y95358D01*
X719478Y96310D01*
X720430Y97262D01*
X719002Y97262D02*
X725667Y97262D01*
X722811Y124542D02*
X724239Y125018D01*
X725191Y125970D01*
X725667Y126923D01*
X725667Y128351D01*
X725191Y129303D01*
X724239Y130255D01*
X724239Y140253D02*
X725191Y141205D01*
X725667Y142157D01*
X725667Y143586D01*
X725191Y144538D01*
X724239Y145490D01*
X722811Y145966D01*
X721859Y145966D01*
X720430Y145490D01*
X719478Y144538D01*
X719002Y143586D01*
X719002Y142157D01*
X719478Y141205D01*
X720430Y140253D01*
X715669Y140253D02*
X725667Y140253D01*
X725667Y148109D02*
X719002Y148109D01*
X720430Y148585D02*
X719478Y149537D01*
X719002Y150489D01*
X719002Y151917D01*
X720430Y148585D02*
X721859Y148109D01*
X721859Y124542D02*
X722811Y124542D01*
X721859Y124542D02*
X720430Y125018D01*
X719478Y125970D01*
X719002Y126923D01*
X719002Y128351D01*
X719478Y129303D01*
X720430Y130255D01*
X721859Y152822D02*
X721859Y158535D01*
X720906Y158535D01*
X719954Y158059D01*
X719478Y157583D01*
X719002Y156631D01*
X719002Y155202D01*
X719478Y154250D01*
X720430Y153298D01*
X721859Y152822D01*
X722811Y152822D01*
X724239Y153298D01*
X725191Y154250D01*
X725667Y155202D01*
X725667Y156631D01*
X725191Y157583D01*
X724239Y158535D01*
X724239Y161153D02*
X725191Y162106D01*
X725667Y163058D01*
X725667Y164486D01*
X725191Y165438D01*
X724239Y166390D01*
X725667Y166390D02*
X719002Y166390D01*
X720430Y166390D02*
X719478Y165438D01*
X719002Y164486D01*
X719002Y163058D01*
X719478Y162106D01*
X720430Y161153D01*
X721859Y160677D01*
X722811Y160677D01*
X724239Y161153D01*
X724239Y169533D02*
X725191Y170485D01*
X725667Y171437D01*
X725667Y172865D01*
X725191Y173817D01*
X724239Y174770D01*
X725667Y174770D02*
X715669Y174770D01*
X715669Y177436D02*
X725667Y177436D01*
X725191Y178388D02*
X724239Y177436D01*
X725191Y178388D02*
X725667Y179340D01*
X725667Y180768D01*
X725191Y181720D01*
X724239Y182673D01*
X722811Y183149D01*
X721859Y183149D01*
X720430Y182673D01*
X719478Y181720D01*
X719002Y180768D01*
X719002Y179340D01*
X719478Y178388D01*
X720430Y177436D01*
X720430Y174770D02*
X719478Y173817D01*
X719002Y172865D01*
X719002Y171437D01*
X719478Y170485D01*
X720430Y169533D01*
X721859Y169056D01*
X722811Y169056D01*
X724239Y169533D01*
X724239Y185767D02*
X725191Y186719D01*
X725667Y187672D01*
X725667Y189100D01*
X725191Y190052D01*
X724239Y191004D01*
X722811Y191480D01*
X721859Y191480D01*
X720430Y191004D01*
X719478Y190052D01*
X719002Y189100D01*
X719002Y187672D01*
X719478Y186719D01*
X720430Y185767D01*
X721859Y185291D01*
X722811Y185291D01*
X724239Y185767D01*
X724239Y194146D02*
X725191Y195098D01*
X725667Y196051D01*
X725667Y197479D01*
X725191Y198431D01*
X724239Y199383D01*
X725667Y199383D02*
X719002Y199383D01*
X720430Y199383D02*
X719478Y198431D01*
X719002Y197479D01*
X719002Y196051D01*
X719478Y195098D01*
X720430Y194146D01*
X721859Y193670D01*
X722811Y193670D01*
X724239Y194146D01*
X725667Y202049D02*
X719002Y202049D01*
X720430Y202526D02*
X719478Y203478D01*
X719002Y204430D01*
X719002Y205858D01*
X719478Y208191D02*
X720430Y207239D01*
X721859Y206763D01*
X722811Y206763D01*
X724239Y207239D01*
X725191Y208191D01*
X725667Y209143D01*
X725667Y210571D01*
X725191Y211524D01*
X724239Y212476D01*
X725667Y212476D02*
X715669Y212476D01*
X720430Y212476D02*
X719478Y211524D01*
X719002Y210571D01*
X719002Y209143D01*
X719478Y208191D01*
X720430Y202526D02*
X721859Y202049D01*
X725667Y224902D02*
X719002Y222997D01*
X719002Y226806D02*
X725667Y224902D01*
X725667Y228710D02*
X719002Y226806D01*
X719002Y230615D02*
X725667Y228710D01*
X724239Y233424D02*
X725191Y234376D01*
X725667Y235328D01*
X725667Y236756D01*
X725191Y237708D01*
X724239Y238661D01*
X725667Y238661D02*
X719002Y238661D01*
X720430Y238661D02*
X719478Y237708D01*
X719002Y236756D01*
X719002Y235328D01*
X719478Y234376D01*
X720430Y233424D01*
X721859Y232948D01*
X722811Y232948D01*
X724239Y233424D01*
X724239Y241327D02*
X725191Y241803D01*
X725667Y243231D01*
X725667Y244659D01*
X725191Y246088D01*
X724239Y246564D01*
X723763Y246564D01*
X722811Y246088D01*
X722335Y245135D01*
X721859Y242755D01*
X721383Y241803D01*
X720430Y241327D01*
X719478Y241803D01*
X719002Y243231D01*
X719002Y244659D01*
X719478Y246088D01*
X720430Y246564D01*
X719478Y250087D02*
X719002Y251039D01*
X719002Y252467D01*
X719478Y253419D01*
X720906Y253895D01*
X725667Y253895D01*
X724239Y256990D02*
X725191Y257942D01*
X725667Y258894D01*
X725667Y260323D01*
X725191Y261275D01*
X724239Y262227D01*
X721859Y262227D02*
X720906Y262227D01*
X719954Y261751D01*
X719478Y261275D01*
X719002Y260323D01*
X719002Y258894D01*
X719478Y257942D01*
X720430Y256990D01*
X721859Y256514D01*
X721859Y262227D01*
X721859Y264369D02*
X720430Y264846D01*
X719478Y265798D01*
X719002Y266750D01*
X719002Y268178D01*
X719478Y269559D02*
X720430Y269083D01*
X721383Y269559D01*
X721859Y270511D01*
X722335Y272891D01*
X722811Y273843D01*
X723763Y274320D01*
X724239Y274320D01*
X725191Y273843D01*
X725667Y272415D01*
X725667Y270987D01*
X725191Y269559D01*
X724239Y269083D01*
X724715Y284746D02*
X726619Y285698D01*
X728048Y286650D01*
X729000Y287603D01*
X728048Y286650D02*
X726143Y285698D01*
X724715Y285222D01*
X722335Y284746D01*
X720430Y284746D01*
X718050Y285222D01*
X716622Y285698D01*
X714717Y286650D01*
X716145Y285698D01*
X718050Y284746D01*
X720430Y284270D01*
X722335Y284270D01*
X724715Y284746D01*
X724239Y289983D02*
X725191Y290935D01*
X725667Y291887D01*
X725667Y293316D01*
X725191Y294268D01*
X724239Y295220D01*
X722811Y295696D01*
X721859Y295696D01*
X720430Y295220D01*
X719478Y294268D01*
X719002Y293316D01*
X719002Y291887D01*
X719478Y290935D01*
X720430Y289983D01*
X721859Y289507D01*
X722811Y289507D01*
X724239Y289983D01*
X725667Y264369D02*
X719002Y264369D01*
X719478Y250087D02*
X720906Y248659D01*
X725667Y248659D02*
X715669Y248659D01*
X721859Y256514D02*
X722811Y256514D01*
X724239Y256990D01*
X719478Y269559D02*
X719002Y270987D01*
X719002Y272415D01*
X719478Y273843D01*
X720430Y274320D01*
X714717Y286650D02*
X713765Y287603D01*
X724239Y297886D02*
X725191Y298838D01*
X725667Y299790D01*
X725667Y301219D01*
X725191Y302171D01*
X724239Y303123D01*
X722811Y303599D01*
X721859Y303599D01*
X720430Y303123D01*
X719478Y302171D01*
X719002Y301219D01*
X719002Y299790D01*
X719478Y298838D01*
X720430Y297886D01*
X715669Y297886D02*
X725667Y297886D01*
X725667Y305742D02*
X715669Y305742D01*
X719478Y309265D02*
X720430Y308312D01*
X721859Y307836D01*
X722811Y307836D01*
X724239Y308312D01*
X725191Y309265D01*
X725667Y310217D01*
X725667Y311645D01*
X725191Y312597D01*
X724239Y313549D01*
X722811Y314025D01*
X721859Y314025D01*
X720430Y313549D01*
X719478Y312597D01*
X719002Y311645D01*
X719002Y310217D01*
X719478Y309265D01*
X719002Y316215D02*
X725667Y316215D01*
X720906Y316215D02*
X719478Y317644D01*
X719002Y318596D01*
X719002Y320024D01*
X719478Y320976D01*
X720906Y321452D01*
X725667Y321452D01*
X724239Y324547D02*
X725191Y325499D01*
X725667Y326451D01*
X725667Y327880D01*
X725191Y328832D01*
X724239Y329784D01*
X726619Y329784D02*
X728048Y329308D01*
X728524Y328832D01*
X729000Y327880D01*
X729000Y326451D01*
X728524Y325499D01*
X724239Y324547D02*
X722811Y324071D01*
X721859Y324071D01*
X720430Y324547D01*
X719478Y325499D01*
X719002Y326451D01*
X719002Y327880D01*
X719478Y328832D01*
X720430Y329784D01*
X719002Y329784D02*
X726619Y329784D01*
X726619Y334354D02*
X728048Y333402D01*
X729000Y332450D01*
X728048Y333402D02*
X726143Y334354D01*
X724715Y334830D01*
X722335Y335307D01*
X720430Y335307D01*
X718050Y334830D01*
X716622Y334354D01*
X714717Y333402D01*
X716145Y334354D01*
X718050Y335307D01*
X720430Y335783D01*
X722335Y335783D01*
X724715Y335307D01*
X726619Y334354D01*
X714717Y333402D02*
X713765Y332450D01*
X682419Y357036D02*
X683126Y357743D01*
X684069Y359157D01*
X684304Y360335D01*
X683833Y361278D01*
X683362Y361749D01*
X682419Y362221D01*
X681241Y361985D01*
X679827Y361042D01*
X679120Y360335D01*
X678177Y358922D01*
X677942Y357743D01*
X678413Y356801D01*
X678884Y356329D01*
X679827Y355858D01*
X681005Y356094D01*
X682419Y357036D01*
X680605Y364035D02*
X680605Y364506D01*
X680133Y364506D01*
X680133Y364035D01*
X680605Y364035D01*
X678342Y364883D02*
X678578Y365591D01*
X678578Y366062D01*
X678107Y367004D01*
X677400Y367711D01*
X676457Y368183D01*
X675515Y368183D01*
X674572Y367711D01*
X674101Y367240D01*
X673629Y366297D01*
X673629Y365826D01*
X673865Y365119D01*
X674572Y364412D01*
X671273Y363941D01*
X673865Y361349D01*
X620398Y421086D02*
X622033Y423336D01*
X622030Y423336D02*
X621993Y429716D01*
X621992Y429716D02*
X619958Y428810D01*
X617753Y428500D01*
X615548Y428810D01*
X613513Y429716D01*
X613508Y429716D02*
X613471Y423336D01*
X613473Y423336D02*
X615108Y421086D01*
X617753Y420227D01*
X620398Y421086D01*
X619989Y446859D02*
X617557Y447020D01*
X615189Y446441D01*
X615170Y446488D02*
X616396Y449019D01*
X617822Y451443D01*
X619438Y453744D01*
X619440Y453743D02*
X621751Y454897D01*
X624315Y454591D01*
X626289Y452925D01*
X627022Y450448D01*
X626272Y447976D01*
X626329Y447934D02*
X625175Y446232D01*
X624159Y444445D01*
X624159Y444444D02*
X622260Y445973D01*
X619989Y446859D01*
X620398Y346914D02*
X617753Y347773D01*
X615108Y346914D01*
X613473Y344664D01*
X613471Y344664D02*
X613508Y338284D01*
X613513Y338284D02*
X615548Y339190D01*
X617753Y339500D01*
X619958Y339190D01*
X621992Y338284D01*
X621993Y338284D02*
X622030Y344664D01*
X622033Y344664D02*
X620398Y346914D01*
X622260Y322027D02*
X624159Y323556D01*
X624159Y323555D02*
X625175Y321768D01*
X626329Y320066D01*
X626272Y320024D02*
X627022Y317552D01*
X626289Y315075D01*
X624315Y313409D01*
X621751Y313103D01*
X619440Y314258D01*
X619438Y314256D02*
X617822Y316558D01*
X616396Y318981D01*
X615170Y321512D01*
X615189Y321559D02*
X617557Y320980D01*
X619989Y321141D01*
X622260Y322027D01*
X621751Y224897D02*
X619440Y223743D01*
X619438Y223744D02*
X617822Y221443D01*
X616396Y219019D01*
X615170Y216488D01*
X615189Y216441D02*
X617557Y217020D01*
X619989Y216859D01*
X622260Y215973D01*
X624159Y214444D01*
X624159Y214445D02*
X625175Y216232D01*
X626329Y217934D01*
X626272Y217976D02*
X627022Y220448D01*
X626289Y222925D01*
X624315Y224591D01*
X621751Y224897D01*
X621992Y199716D02*
X619958Y198810D01*
X617753Y198500D01*
X615548Y198810D01*
X613513Y199716D01*
X613508Y199716D02*
X613471Y193336D01*
X613473Y193336D02*
X615108Y191086D01*
X617753Y190227D01*
X620398Y191086D01*
X622033Y193336D01*
X622030Y193336D02*
X621993Y199716D01*
X715669Y88978D02*
X723287Y88978D01*
X724715Y88502D01*
X725191Y88026D01*
X725667Y87074D01*
X725667Y86122D01*
X725191Y85170D01*
X724715Y84694D01*
X723287Y84218D01*
X722335Y84218D01*
D20*
X54738Y205033D02*
X57640Y202280D01*
X60813Y204716D01*
X57752Y204075D02*
X57848Y206358D01*
X58093Y208631D01*
X58485Y210882D01*
X59024Y213104D01*
X59146Y213263D02*
X61469Y210007D01*
X59146Y213263D02*
X55566Y211479D01*
X198093Y208631D02*
X197848Y206358D01*
X197753Y204075D01*
X197640Y202280D02*
X200813Y204716D01*
X197640Y202280D02*
X194738Y205033D01*
X198093Y208631D02*
X198486Y210882D01*
X199024Y213104D01*
X199146Y213263D02*
X201469Y210007D01*
X199146Y213263D02*
X195567Y211479D01*
X338094Y208631D02*
X337849Y206358D01*
X337753Y204075D01*
X337641Y202280D02*
X340814Y204716D01*
X337641Y202280D02*
X334739Y205033D01*
X338094Y208631D02*
X338486Y210882D01*
X339025Y213104D01*
X339147Y213263D02*
X341470Y210007D01*
X339147Y213263D02*
X335567Y211479D01*
X478094Y208631D02*
X477850Y206358D01*
X477754Y204075D01*
X477641Y202280D02*
X480814Y204716D01*
X477641Y202280D02*
X474739Y205033D01*
X478094Y208631D02*
X478487Y210882D01*
X479025Y213104D01*
X479147Y213263D02*
X481470Y210007D01*
X479147Y213263D02*
X475568Y211479D01*
X618095Y208631D02*
X617850Y206358D01*
X617754Y204075D01*
X617642Y202280D02*
X620815Y204716D01*
X617642Y202280D02*
X614740Y205033D01*
X618095Y208631D02*
X618487Y210882D01*
X619026Y213104D01*
X619148Y213263D02*
X621471Y210007D01*
X619148Y213263D02*
X615568Y211479D01*
X617642Y432280D02*
X620815Y434716D01*
X617754Y434075D02*
X617850Y436358D01*
X618095Y438631D01*
X618487Y440882D01*
X619026Y443103D01*
X619148Y443263D02*
X621471Y440007D01*
X619148Y443263D02*
X615568Y441479D01*
X614740Y435033D02*
X617642Y432280D01*
X480814Y434716D02*
X477641Y432280D01*
X474739Y435033D01*
X477754Y434075D02*
X477850Y436358D01*
X478094Y438631D01*
X478487Y440882D01*
X479025Y443103D01*
X479147Y443263D02*
X481470Y440007D01*
X479147Y443263D02*
X475568Y441479D01*
X341470Y440007D02*
X339147Y443263D01*
X335567Y441479D01*
X338486Y440882D02*
X338094Y438631D01*
X337849Y436358D01*
X337753Y434075D01*
X340814Y434716D02*
X337641Y432280D01*
X334739Y435033D01*
X338486Y440882D02*
X339025Y443103D01*
X199024Y443103D02*
X198486Y440882D01*
X198093Y438631D01*
X197848Y436358D01*
X197753Y434075D01*
X200813Y434716D02*
X197640Y432280D01*
X194738Y435033D01*
X195567Y441479D02*
X199146Y443263D01*
X201469Y440007D01*
X61469Y440007D02*
X59146Y443263D01*
X55566Y441479D01*
X58485Y440882D02*
X58093Y438631D01*
X57848Y436358D01*
X57752Y434075D01*
X60813Y434716D02*
X57640Y432280D01*
X54738Y435033D01*
X58485Y440882D02*
X59024Y443103D01*
X194738Y665034D02*
X197640Y662280D01*
X200813Y664716D01*
X197753Y664075D02*
X197848Y666358D01*
X198093Y668631D01*
X198486Y670882D01*
X199024Y673104D01*
X199146Y673263D02*
X201469Y670007D01*
X199146Y673263D02*
X195567Y671479D01*
X335567Y671479D02*
X339147Y673263D01*
X341470Y670007D01*
X338486Y670882D02*
X338094Y668631D01*
X337849Y666358D01*
X337753Y664075D01*
X337641Y662280D02*
X340814Y664716D01*
X337641Y662280D02*
X334739Y665034D01*
X338486Y670882D02*
X339025Y673104D01*
X475568Y671479D02*
X479147Y673263D01*
X481470Y670007D01*
X478487Y670882D02*
X478094Y668631D01*
X477850Y666358D01*
X477754Y664075D01*
X477641Y662280D02*
X480814Y664716D01*
X477641Y662280D02*
X474739Y665034D01*
X478487Y670882D02*
X479025Y673104D01*
X615568Y671479D02*
X619148Y673263D01*
X621471Y670007D01*
X618487Y670882D02*
X618095Y668631D01*
X617850Y666358D01*
X617754Y664075D01*
X617642Y662280D02*
X620815Y664716D01*
X617642Y662280D02*
X614740Y665034D01*
X618487Y670882D02*
X619026Y673104D01*
X59024Y673104D02*
X58485Y670882D01*
X58093Y668631D01*
X57848Y666358D01*
X57752Y664075D01*
X57640Y662280D02*
X60813Y664716D01*
X57640Y662280D02*
X54738Y665034D01*
X55566Y671479D02*
X59146Y673263D01*
X61469Y670007D01*
M02*
