G04*
G04 #@! TF.GenerationSoftware,Altium Limited,Altium Designer,22.11.1 (43)*
G04*
G04 Layer_Color=32896*
%FSLAX44Y44*%
%MOMM*%
G71*
G04*
G04 #@! TF.SameCoordinates,8AD1E97E-50D3-4F0F-8D34-8AA03B0C27D3*
G04*
G04*
G04 #@! TF.FilePolarity,Positive*
G04*
G01*
G75*
%ADD20C,0.1000*%
%ADD28R,1.5922X1.5750*%
G36*
X415053Y-139693D02*
X415458Y-60259D01*
X417247Y-60054D01*
X420846Y-59969D01*
X424439Y-60206D01*
X427996Y-60766D01*
X431488Y-61643D01*
X434887Y-62830D01*
X438166Y-64317D01*
X441297Y-66094D01*
X442777Y-67119D01*
X442777Y-67119D01*
X443228Y-67723D01*
X444036Y-68997D01*
X444745Y-70328D01*
X445352Y-71709D01*
X445603Y-72420D01*
X446232Y-73810D01*
X448085Y-76224D01*
X450577Y-77969D01*
X453479Y-78884D01*
X455000Y-79000D01*
X455000Y-79000D01*
X455000Y-121000D01*
X453479Y-121116D01*
X450577Y-122031D01*
X448085Y-123776D01*
X446233Y-126190D01*
X445603Y-127580D01*
X445352Y-128291D01*
X444745Y-129672D01*
X444036Y-131003D01*
X443228Y-132277D01*
X442777Y-132881D01*
X441277Y-133921D01*
X438098Y-135718D01*
X434769Y-137219D01*
X431317Y-138409D01*
X427771Y-139280D01*
X424160Y-139825D01*
X420515Y-140038D01*
X416865Y-139919D01*
X415053Y-139693D01*
X415053Y-139693D01*
X415053Y-139693D02*
G37*
G36*
X415053Y-39693D02*
X415458Y39741D01*
X417247Y39945D01*
X420846Y40031D01*
X424439Y39793D01*
X427996Y39234D01*
X431488Y38357D01*
X434887Y37170D01*
X438166Y35682D01*
X441297Y33906D01*
X442777Y32881D01*
X442777Y32881D01*
X443228Y32276D01*
X444035Y31003D01*
X444745Y29671D01*
X445352Y28291D01*
X445603Y27579D01*
X446232Y26190D01*
X448085Y23776D01*
X450577Y22031D01*
X453479Y21116D01*
X455000Y21000D01*
X455000Y21000D01*
X455000Y-21000D01*
X453479Y-21117D01*
X450577Y-22032D01*
X448085Y-23777D01*
X446233Y-26190D01*
X445603Y-27580D01*
X445352Y-28291D01*
X444745Y-29672D01*
X444036Y-31003D01*
X443228Y-32277D01*
X442777Y-32882D01*
X441276Y-33921D01*
X438098Y-35719D01*
X434769Y-37219D01*
X431317Y-38409D01*
X427771Y-39281D01*
X424160Y-39825D01*
X420515Y-40039D01*
X416865Y-39919D01*
X415053Y-39693D01*
X415053Y-39693D01*
X415053Y-39693D02*
G37*
G36*
X415053Y60307D02*
X415458Y139741D01*
X417247Y139945D01*
X420846Y140031D01*
X424439Y139793D01*
X427996Y139234D01*
X431488Y138357D01*
X434887Y137170D01*
X438166Y135682D01*
X441297Y133906D01*
X442777Y132881D01*
X442777Y132881D01*
X443228Y132276D01*
X444035Y131003D01*
X444745Y129671D01*
X445352Y128291D01*
X445603Y127579D01*
X446232Y126190D01*
X448085Y123776D01*
X450577Y122031D01*
X453479Y121116D01*
X455000Y121000D01*
X455000Y121000D01*
X455000Y79000D01*
X453479Y78883D01*
X450577Y77969D01*
X448085Y76223D01*
X446233Y73810D01*
X445603Y72420D01*
X445352Y71709D01*
X444745Y70328D01*
X444036Y68997D01*
X443228Y67723D01*
X442777Y67118D01*
X441276Y66079D01*
X438098Y64281D01*
X434769Y62781D01*
X431317Y61591D01*
X427771Y60719D01*
X424160Y60175D01*
X420515Y59961D01*
X416865Y60081D01*
X415053Y60307D01*
X415053Y60307D01*
X415053Y60307D02*
G37*
G36*
X415053Y160307D02*
X415458Y239741D01*
X417247Y239945D01*
X420846Y240031D01*
X424439Y239793D01*
X427996Y239234D01*
X431488Y238357D01*
X434887Y237170D01*
X438166Y235682D01*
X441297Y233906D01*
X442777Y232881D01*
X442777Y232881D01*
X443228Y232276D01*
X444035Y231003D01*
X444745Y229671D01*
X445352Y228291D01*
X445603Y227579D01*
X446232Y226190D01*
X448085Y223776D01*
X450577Y222031D01*
X453479Y221116D01*
X455000Y221000D01*
X455000Y221000D01*
X455000Y179000D01*
X453479Y178883D01*
X450577Y177969D01*
X448085Y176223D01*
X446233Y173810D01*
X445603Y172420D01*
X445352Y171709D01*
X444745Y170328D01*
X444036Y168997D01*
X443228Y167723D01*
X442777Y167118D01*
X441276Y166079D01*
X438098Y164281D01*
X434769Y162781D01*
X431317Y161591D01*
X427771Y160719D01*
X424160Y160175D01*
X420515Y159961D01*
X416865Y160081D01*
X415053Y160307D01*
X415053Y160307D01*
X415053Y160307D02*
G37*
G36*
X415053Y260307D02*
X415458Y339741D01*
X417247Y339946D01*
X420846Y340032D01*
X424439Y339794D01*
X427996Y339234D01*
X431488Y338357D01*
X434887Y337170D01*
X438166Y335683D01*
X441297Y333907D01*
X442777Y332881D01*
X442777Y332881D01*
X443228Y332277D01*
X444036Y331003D01*
X444745Y329672D01*
X445352Y328291D01*
X445603Y327580D01*
X446232Y326190D01*
X448085Y323776D01*
X450577Y322031D01*
X453479Y321116D01*
X455000Y321000D01*
X455000Y321000D01*
X455000Y279000D01*
X453479Y278884D01*
X450577Y277969D01*
X448085Y276224D01*
X446233Y273810D01*
X445603Y272420D01*
X445352Y271709D01*
X444745Y270328D01*
X444036Y268997D01*
X443228Y267723D01*
X442777Y267118D01*
X441277Y266079D01*
X438098Y264282D01*
X434769Y262781D01*
X431317Y261591D01*
X427771Y260720D01*
X424160Y260175D01*
X420515Y259962D01*
X416865Y260081D01*
X415053Y260307D01*
X415053Y260307D01*
X415053Y260307D02*
G37*
G36*
X415053Y360306D02*
X415458Y439741D01*
X417247Y439945D01*
X420846Y440031D01*
X424439Y439793D01*
X427996Y439233D01*
X431488Y438357D01*
X434887Y437169D01*
X438166Y435682D01*
X441297Y433906D01*
X442777Y432881D01*
X442777Y432881D01*
X443228Y432276D01*
X444036Y431002D01*
X444745Y429671D01*
X445352Y428290D01*
X445603Y427579D01*
X446232Y426189D01*
X448085Y423775D01*
X450577Y422030D01*
X453479Y421116D01*
X455000Y420999D01*
X455000Y420999D01*
X455000Y378999D01*
X453479Y378883D01*
X450577Y377968D01*
X448085Y376223D01*
X446233Y373809D01*
X445603Y372420D01*
X445352Y371708D01*
X444745Y370327D01*
X444036Y368996D01*
X443228Y367723D01*
X442777Y367118D01*
X441277Y366078D01*
X438098Y364281D01*
X434769Y362781D01*
X431317Y361590D01*
X427771Y360719D01*
X424160Y360174D01*
X420515Y359961D01*
X416865Y360081D01*
X415053Y360306D01*
X415053Y360306D01*
X415053Y360306D02*
G37*
G36*
X-33856Y-272802D02*
X-33730Y-272810D01*
X-33581Y-272817D01*
X-33424Y-272833D01*
X-33244Y-272857D01*
X-33055Y-272880D01*
X-32859Y-272912D01*
X-32655Y-272951D01*
X-32451Y-272998D01*
X-32247Y-273053D01*
X-32043Y-273116D01*
X-31839Y-273186D01*
X-31651Y-273273D01*
X-31651Y-274426D01*
X-31666Y-274419D01*
X-31697Y-274395D01*
X-31760Y-274364D01*
X-31839Y-274317D01*
X-31949Y-274270D01*
X-32074Y-274207D01*
X-32216Y-274152D01*
X-32380Y-274081D01*
X-32553Y-274018D01*
X-32749Y-273956D01*
X-32961Y-273901D01*
X-33189Y-273854D01*
X-33432Y-273806D01*
X-33683Y-273775D01*
X-33942Y-273752D01*
X-34217Y-273744D01*
X-34280Y-273744D01*
X-34358Y-273752D01*
X-34468Y-273759D01*
X-34594Y-273775D01*
X-34743Y-273799D01*
X-34908Y-273830D01*
X-35088Y-273869D01*
X-35277Y-273924D01*
X-35473Y-273995D01*
X-35677Y-274081D01*
X-35889Y-274183D01*
X-36093Y-274301D01*
X-36289Y-274434D01*
X-36485Y-274599D01*
X-36674Y-274780D01*
X-36681Y-274788D01*
X-36713Y-274827D01*
X-36760Y-274882D01*
X-36823Y-274968D01*
X-36893Y-275070D01*
X-36980Y-275188D01*
X-37066Y-275337D01*
X-37152Y-275502D01*
X-37239Y-275682D01*
X-37325Y-275886D01*
X-37411Y-276106D01*
X-37482Y-276342D01*
X-37545Y-276593D01*
X-37592Y-276860D01*
X-37623Y-277150D01*
X-37631Y-277448D01*
X-37631Y-277456D01*
X-37631Y-277464D01*
X-37631Y-277488D01*
X-37631Y-277519D01*
X-37631Y-277566D01*
X-37623Y-277613D01*
X-37615Y-277731D01*
X-37608Y-277872D01*
X-37584Y-278037D01*
X-37561Y-278217D01*
X-37521Y-278414D01*
X-37474Y-278626D01*
X-37411Y-278845D01*
X-37341Y-279065D01*
X-37254Y-279293D01*
X-37152Y-279512D01*
X-37035Y-279724D01*
X-36901Y-279928D01*
X-36744Y-280117D01*
X-36736Y-280125D01*
X-36705Y-280156D01*
X-36650Y-280203D01*
X-36579Y-280266D01*
X-36493Y-280336D01*
X-36383Y-280423D01*
X-36258Y-280509D01*
X-36109Y-280595D01*
X-35944Y-280690D01*
X-35763Y-280776D01*
X-35567Y-280854D01*
X-35347Y-280933D01*
X-35120Y-280996D01*
X-34868Y-281043D01*
X-34609Y-281074D01*
X-34327Y-281082D01*
X-34225Y-281082D01*
X-34154Y-281074D01*
X-34060Y-281066D01*
X-33958Y-281059D01*
X-33840Y-281051D01*
X-33707Y-281027D01*
X-33573Y-281012D01*
X-33424Y-280980D01*
X-33126Y-280909D01*
X-32969Y-280862D01*
X-32820Y-280800D01*
X-32671Y-280737D01*
X-32522Y-280666D01*
X-32522Y-278162D01*
X-34476Y-278162D01*
X-34476Y-277213D01*
X-31470Y-277213D01*
X-31470Y-281263D01*
X-31486Y-281271D01*
X-31533Y-281294D01*
X-31603Y-281333D01*
X-31705Y-281380D01*
X-31831Y-281435D01*
X-31980Y-281498D01*
X-32153Y-281569D01*
X-32349Y-281639D01*
X-32561Y-281710D01*
X-32796Y-281781D01*
X-33040Y-281843D01*
X-33299Y-281898D01*
X-33573Y-281945D01*
X-33864Y-281985D01*
X-34154Y-282008D01*
X-34460Y-282016D01*
X-34547Y-282016D01*
X-34586Y-282008D01*
X-34641Y-282008D01*
X-34704Y-282000D01*
X-34774Y-282000D01*
X-34939Y-281977D01*
X-35127Y-281953D01*
X-35331Y-281914D01*
X-35559Y-281859D01*
X-35802Y-281796D01*
X-36054Y-281718D01*
X-36312Y-281616D01*
X-36572Y-281498D01*
X-36830Y-281357D01*
X-37082Y-281192D01*
X-37325Y-281004D01*
X-37553Y-280792D01*
X-37568Y-280776D01*
X-37600Y-280737D01*
X-37662Y-280666D01*
X-37733Y-280564D01*
X-37827Y-280446D01*
X-37922Y-280297D01*
X-38031Y-280117D01*
X-38141Y-279921D01*
X-38251Y-279701D01*
X-38361Y-279450D01*
X-38455Y-279183D01*
X-38549Y-278892D01*
X-38620Y-278586D01*
X-38683Y-278249D01*
X-38714Y-277896D01*
X-38730Y-277527D01*
X-38730Y-277519D01*
X-38730Y-277503D01*
X-38730Y-277472D01*
X-38730Y-277432D01*
X-38722Y-277385D01*
X-38722Y-277323D01*
X-38714Y-277260D01*
X-38706Y-277181D01*
X-38698Y-277095D01*
X-38691Y-277009D01*
X-38659Y-276805D01*
X-38620Y-276569D01*
X-38565Y-276326D01*
X-38494Y-276059D01*
X-38408Y-275784D01*
X-38306Y-275502D01*
X-38180Y-275219D01*
X-38024Y-274937D01*
X-37851Y-274654D01*
X-37647Y-274387D01*
X-37419Y-274128D01*
X-37404Y-274113D01*
X-37356Y-274073D01*
X-37286Y-274003D01*
X-37184Y-273916D01*
X-37050Y-273822D01*
X-36901Y-273704D01*
X-36721Y-273587D01*
X-36509Y-273461D01*
X-36281Y-273335D01*
X-36030Y-273218D01*
X-35763Y-273100D01*
X-35465Y-273006D01*
X-35151Y-272920D01*
X-34821Y-272849D01*
X-34468Y-272810D01*
X-34099Y-272794D01*
X-33958Y-272794D01*
X-33856Y-272802D01*
X-33856Y-272802D02*
G37*
G36*
X37378Y-275353D02*
X37425Y-275353D01*
X37480Y-275361D01*
X37613Y-275384D01*
X37770Y-275423D01*
X37951Y-275478D01*
X38139Y-275564D01*
X38335Y-275667D01*
X38438Y-275737D01*
X38532Y-275808D01*
X38626Y-275886D01*
X38720Y-275980D01*
X38814Y-276083D01*
X38901Y-276192D01*
X38979Y-276310D01*
X39058Y-276444D01*
X39128Y-276585D01*
X39191Y-276742D01*
X39246Y-276907D01*
X39301Y-277087D01*
X39332Y-277276D01*
X39364Y-277488D01*
X39379Y-277707D01*
X39387Y-277943D01*
X39387Y-281867D01*
X38367Y-281867D01*
X38367Y-278209D01*
X38367Y-278194D01*
X38367Y-278162D01*
X38367Y-278107D01*
X38359Y-278037D01*
X38359Y-277950D01*
X38351Y-277848D01*
X38343Y-277739D01*
X38328Y-277621D01*
X38288Y-277370D01*
X38226Y-277119D01*
X38194Y-276993D01*
X38147Y-276883D01*
X38092Y-276773D01*
X38037Y-276679D01*
X38037Y-276671D01*
X38022Y-276656D01*
X38006Y-276632D01*
X37975Y-276608D01*
X37943Y-276569D01*
X37896Y-276530D01*
X37841Y-276491D01*
X37778Y-276444D01*
X37708Y-276397D01*
X37629Y-276357D01*
X37535Y-276318D01*
X37441Y-276279D01*
X37331Y-276255D01*
X37205Y-276232D01*
X37080Y-276216D01*
X36939Y-276208D01*
X36876Y-276208D01*
X36829Y-276216D01*
X36774Y-276224D01*
X36711Y-276239D01*
X36554Y-276279D01*
X36467Y-276310D01*
X36381Y-276357D01*
X36287Y-276404D01*
X36201Y-276459D01*
X36107Y-276530D01*
X36012Y-276608D01*
X35918Y-276703D01*
X35832Y-276805D01*
X35824Y-276812D01*
X35816Y-276828D01*
X35793Y-276867D01*
X35761Y-276907D01*
X35730Y-276969D01*
X35691Y-277040D01*
X35643Y-277119D01*
X35604Y-277205D01*
X35565Y-277307D01*
X35518Y-277417D01*
X35479Y-277535D01*
X35447Y-277660D01*
X35416Y-277794D01*
X35400Y-277935D01*
X35384Y-278076D01*
X35377Y-278233D01*
X35377Y-281867D01*
X34356Y-281867D01*
X34356Y-278084D01*
X34356Y-278076D01*
X34356Y-278060D01*
X34356Y-278037D01*
X34356Y-278006D01*
X34348Y-277958D01*
X34348Y-277911D01*
X34333Y-277794D01*
X34309Y-277652D01*
X34278Y-277488D01*
X34239Y-277323D01*
X34176Y-277142D01*
X34097Y-276969D01*
X34003Y-276805D01*
X33885Y-276640D01*
X33744Y-276499D01*
X33579Y-276381D01*
X33485Y-276334D01*
X33383Y-276287D01*
X33273Y-276255D01*
X33163Y-276232D01*
X33038Y-276216D01*
X32904Y-276208D01*
X32841Y-276208D01*
X32794Y-276216D01*
X32732Y-276224D01*
X32669Y-276239D01*
X32512Y-276279D01*
X32425Y-276310D01*
X32339Y-276349D01*
X32245Y-276389D01*
X32151Y-276444D01*
X32057Y-276514D01*
X31962Y-276585D01*
X31876Y-276671D01*
X31790Y-276773D01*
X31782Y-276781D01*
X31774Y-276797D01*
X31751Y-276828D01*
X31719Y-276875D01*
X31688Y-276930D01*
X31656Y-276993D01*
X31617Y-277071D01*
X31578Y-277166D01*
X31531Y-277268D01*
X31491Y-277378D01*
X31460Y-277495D01*
X31429Y-277621D01*
X31397Y-277762D01*
X31374Y-277911D01*
X31366Y-278068D01*
X31358Y-278233D01*
X31358Y-281867D01*
X30338Y-281867D01*
X30338Y-275494D01*
X31358Y-275494D01*
X31358Y-276506D01*
X31382Y-276506D01*
X31390Y-276491D01*
X31413Y-276459D01*
X31452Y-276397D01*
X31507Y-276326D01*
X31578Y-276239D01*
X31664Y-276138D01*
X31766Y-276035D01*
X31884Y-275926D01*
X32017Y-275816D01*
X32167Y-275714D01*
X32331Y-275612D01*
X32504Y-275525D01*
X32700Y-275455D01*
X32912Y-275392D01*
X33132Y-275361D01*
X33367Y-275345D01*
X33430Y-275345D01*
X33477Y-275353D01*
X33532Y-275353D01*
X33603Y-275361D01*
X33673Y-275376D01*
X33752Y-275392D01*
X33932Y-275431D01*
X34121Y-275502D01*
X34309Y-275588D01*
X34403Y-275651D01*
X34497Y-275714D01*
X34505Y-275721D01*
X34521Y-275729D01*
X34545Y-275753D01*
X34576Y-275777D01*
X34662Y-275863D01*
X34764Y-275965D01*
X34874Y-276106D01*
X34984Y-276271D01*
X35086Y-276459D01*
X35165Y-276671D01*
X35173Y-276656D01*
X35196Y-276616D01*
X35243Y-276546D01*
X35298Y-276467D01*
X35377Y-276365D01*
X35463Y-276247D01*
X35573Y-276130D01*
X35698Y-276004D01*
X35840Y-275886D01*
X35997Y-275761D01*
X36169Y-275651D01*
X36358Y-275549D01*
X36570Y-275470D01*
X36789Y-275400D01*
X37033Y-275361D01*
X37284Y-275345D01*
X37339Y-275345D01*
X37378Y-275353D01*
X37378Y-275353D02*
G37*
G36*
X70044Y-275392D02*
X70130Y-275392D01*
X70224Y-275408D01*
X70326Y-275423D01*
X70428Y-275439D01*
X70515Y-275470D01*
X70515Y-276530D01*
X70499Y-276522D01*
X70468Y-276499D01*
X70405Y-276467D01*
X70319Y-276428D01*
X70201Y-276389D01*
X70075Y-276357D01*
X69918Y-276334D01*
X69738Y-276326D01*
X69675Y-276326D01*
X69628Y-276334D01*
X69573Y-276342D01*
X69510Y-276357D01*
X69361Y-276404D01*
X69275Y-276436D01*
X69188Y-276475D01*
X69094Y-276530D01*
X69000Y-276585D01*
X68914Y-276656D01*
X68819Y-276742D01*
X68733Y-276836D01*
X68647Y-276946D01*
X68639Y-276954D01*
X68631Y-276977D01*
X68608Y-277009D01*
X68576Y-277056D01*
X68545Y-277119D01*
X68506Y-277197D01*
X68466Y-277283D01*
X68427Y-277385D01*
X68388Y-277495D01*
X68349Y-277621D01*
X68309Y-277762D01*
X68278Y-277911D01*
X68246Y-278076D01*
X68223Y-278249D01*
X68215Y-278429D01*
X68207Y-278626D01*
X68207Y-281867D01*
X67187Y-281867D01*
X67187Y-275494D01*
X68207Y-275494D01*
X68207Y-276812D01*
X68231Y-276812D01*
X68231Y-276805D01*
X68239Y-276781D01*
X68254Y-276750D01*
X68270Y-276703D01*
X68294Y-276648D01*
X68325Y-276577D01*
X68396Y-276428D01*
X68490Y-276255D01*
X68608Y-276083D01*
X68741Y-275918D01*
X68898Y-275761D01*
X68906Y-275753D01*
X68921Y-275745D01*
X68945Y-275729D01*
X68976Y-275698D01*
X69016Y-275674D01*
X69071Y-275643D01*
X69188Y-275572D01*
X69338Y-275502D01*
X69510Y-275439D01*
X69699Y-275400D01*
X69801Y-275392D01*
X69903Y-275384D01*
X69965Y-275384D01*
X70044Y-275392D01*
X70044Y-275392D02*
G37*
G36*
X-5868Y-278720D02*
X-9266Y-278720D01*
X-9266Y-277919D01*
X-5868Y-277919D01*
X-5868Y-278720D01*
X-5868Y-278720D02*
G37*
G36*
X83331Y-282887D02*
X83331Y-282895D01*
X83324Y-282911D01*
X83308Y-282934D01*
X83292Y-282974D01*
X83277Y-283021D01*
X83253Y-283068D01*
X83190Y-283193D01*
X83104Y-283342D01*
X83010Y-283515D01*
X82892Y-283688D01*
X82759Y-283876D01*
X82610Y-284057D01*
X82445Y-284237D01*
X82264Y-284410D01*
X82068Y-284559D01*
X81856Y-284685D01*
X81746Y-284732D01*
X81628Y-284779D01*
X81511Y-284818D01*
X81385Y-284842D01*
X81259Y-284857D01*
X81126Y-284865D01*
X81063Y-284865D01*
X80985Y-284857D01*
X80891Y-284857D01*
X80789Y-284842D01*
X80679Y-284826D01*
X80561Y-284810D01*
X80459Y-284779D01*
X80459Y-283868D01*
X80475Y-283876D01*
X80514Y-283884D01*
X80577Y-283900D01*
X80655Y-283923D01*
X80749Y-283947D01*
X80851Y-283963D01*
X80961Y-283970D01*
X81063Y-283978D01*
X81095Y-283978D01*
X81134Y-283970D01*
X81189Y-283963D01*
X81252Y-283947D01*
X81330Y-283931D01*
X81409Y-283900D01*
X81503Y-283860D01*
X81589Y-283813D01*
X81691Y-283751D01*
X81785Y-283680D01*
X81880Y-283594D01*
X81974Y-283484D01*
X82068Y-283366D01*
X82146Y-283225D01*
X82225Y-283060D01*
X82735Y-281859D01*
X80247Y-275494D01*
X81377Y-275494D01*
X83104Y-280399D01*
X83104Y-280407D01*
X83112Y-280423D01*
X83120Y-280446D01*
X83135Y-280494D01*
X83151Y-280556D01*
X83167Y-280643D01*
X83198Y-280753D01*
X83230Y-280886D01*
X83269Y-280886D01*
X83269Y-280878D01*
X83277Y-280854D01*
X83284Y-280823D01*
X83300Y-280768D01*
X83316Y-280705D01*
X83331Y-280627D01*
X83363Y-280525D01*
X83394Y-280415D01*
X85207Y-275494D01*
X86259Y-275494D01*
X83331Y-282887D01*
X83331Y-282887D02*
G37*
G36*
X56890Y-281867D02*
X55885Y-281867D01*
X53475Y-275494D01*
X54590Y-275494D01*
X56215Y-280125D01*
X56215Y-280132D01*
X56223Y-280148D01*
X56230Y-280172D01*
X56246Y-280211D01*
X56262Y-280258D01*
X56277Y-280305D01*
X56309Y-280431D01*
X56348Y-280564D01*
X56387Y-280713D01*
X56411Y-280870D01*
X56434Y-281019D01*
X56458Y-281019D01*
X56458Y-281012D01*
X56458Y-280996D01*
X56466Y-280972D01*
X56474Y-280941D01*
X56474Y-280894D01*
X56489Y-280847D01*
X56505Y-280729D01*
X56536Y-280595D01*
X56568Y-280454D01*
X56615Y-280305D01*
X56662Y-280156D01*
X58349Y-275494D01*
X59425Y-275494D01*
X56890Y-281867D01*
X56890Y-281867D02*
G37*
G36*
X77115Y-275353D02*
X77170Y-275353D01*
X77225Y-275361D01*
X77296Y-275368D01*
X77374Y-275384D01*
X77539Y-275415D01*
X77736Y-275470D01*
X77932Y-275541D01*
X78144Y-275643D01*
X78355Y-275769D01*
X78458Y-275839D01*
X78560Y-275926D01*
X78654Y-276020D01*
X78748Y-276114D01*
X78834Y-276224D01*
X78913Y-276349D01*
X78991Y-276475D01*
X79062Y-276616D01*
X79117Y-276773D01*
X79172Y-276938D01*
X79211Y-277111D01*
X79242Y-277307D01*
X79258Y-277503D01*
X79266Y-277723D01*
X79266Y-281867D01*
X78246Y-281867D01*
X78246Y-280878D01*
X78222Y-280878D01*
X78214Y-280894D01*
X78191Y-280925D01*
X78151Y-280980D01*
X78096Y-281059D01*
X78026Y-281145D01*
X77940Y-281239D01*
X77845Y-281341D01*
X77728Y-281443D01*
X77594Y-281553D01*
X77453Y-281655D01*
X77288Y-281749D01*
X77115Y-281836D01*
X76919Y-281914D01*
X76715Y-281969D01*
X76495Y-282000D01*
X76260Y-282016D01*
X76166Y-282016D01*
X76103Y-282008D01*
X76024Y-282000D01*
X75930Y-281993D01*
X75828Y-281977D01*
X75718Y-281953D01*
X75475Y-281891D01*
X75357Y-281851D01*
X75232Y-281804D01*
X75106Y-281749D01*
X74988Y-281679D01*
X74879Y-281600D01*
X74769Y-281514D01*
X74761Y-281506D01*
X74745Y-281490D01*
X74722Y-281459D01*
X74682Y-281420D01*
X74643Y-281373D01*
X74604Y-281310D01*
X74549Y-281239D01*
X74502Y-281161D01*
X74455Y-281066D01*
X74408Y-280964D01*
X74361Y-280854D01*
X74321Y-280737D01*
X74282Y-280611D01*
X74259Y-280478D01*
X74243Y-280329D01*
X74235Y-280180D01*
X74235Y-280172D01*
X74235Y-280156D01*
X74235Y-280132D01*
X74243Y-280101D01*
X74243Y-280062D01*
X74251Y-280015D01*
X74266Y-279897D01*
X74298Y-279756D01*
X74345Y-279599D01*
X74408Y-279426D01*
X74502Y-279245D01*
X74612Y-279065D01*
X74745Y-278885D01*
X74832Y-278798D01*
X74918Y-278712D01*
X75020Y-278626D01*
X75122Y-278547D01*
X75240Y-278468D01*
X75365Y-278398D01*
X75499Y-278335D01*
X75648Y-278272D01*
X75805Y-278217D01*
X75970Y-278170D01*
X76150Y-278131D01*
X76338Y-278100D01*
X78246Y-277833D01*
X78246Y-277825D01*
X78246Y-277817D01*
X78246Y-277794D01*
X78246Y-277762D01*
X78238Y-277684D01*
X78222Y-277582D01*
X78206Y-277456D01*
X78175Y-277315D01*
X78136Y-277174D01*
X78081Y-277017D01*
X78010Y-276867D01*
X77924Y-276718D01*
X77822Y-276585D01*
X77696Y-276459D01*
X77539Y-276357D01*
X77367Y-276279D01*
X77272Y-276247D01*
X77162Y-276224D01*
X77053Y-276216D01*
X76935Y-276208D01*
X76880Y-276208D01*
X76825Y-276216D01*
X76739Y-276224D01*
X76637Y-276232D01*
X76519Y-276247D01*
X76385Y-276271D01*
X76244Y-276302D01*
X76087Y-276349D01*
X75922Y-276397D01*
X75750Y-276459D01*
X75569Y-276538D01*
X75389Y-276632D01*
X75208Y-276734D01*
X75028Y-276852D01*
X74855Y-276993D01*
X74855Y-275949D01*
X74863Y-275941D01*
X74894Y-275926D01*
X74949Y-275894D01*
X75020Y-275855D01*
X75114Y-275808D01*
X75216Y-275761D01*
X75342Y-275706D01*
X75483Y-275643D01*
X75632Y-275588D01*
X75797Y-275533D01*
X75977Y-275486D01*
X76166Y-275439D01*
X76370Y-275400D01*
X76574Y-275368D01*
X76794Y-275353D01*
X77021Y-275345D01*
X77076Y-275345D01*
X77115Y-275353D01*
X77115Y-275353D02*
G37*
G36*
X72642Y-281867D02*
X71621Y-281867D01*
X71621Y-272433D01*
X72642Y-272433D01*
X72642Y-281867D01*
X72642Y-281867D02*
G37*
G36*
X2326Y-272951D02*
X2420Y-272959D01*
X2530Y-272974D01*
X2656Y-272990D01*
X2797Y-273014D01*
X2938Y-273045D01*
X3087Y-273084D01*
X3244Y-273132D01*
X3393Y-273186D01*
X3550Y-273249D01*
X3692Y-273328D01*
X3833Y-273414D01*
X3966Y-273516D01*
X3974Y-273524D01*
X3998Y-273540D01*
X4029Y-273571D01*
X4069Y-273618D01*
X4123Y-273673D01*
X4178Y-273744D01*
X4241Y-273822D01*
X4304Y-273909D01*
X4367Y-274011D01*
X4430Y-274120D01*
X4484Y-274246D01*
X4539Y-274372D01*
X4579Y-274513D01*
X4610Y-274662D01*
X4634Y-274819D01*
X4642Y-274984D01*
X4642Y-274992D01*
X4642Y-275015D01*
X4642Y-275054D01*
X4634Y-275109D01*
X4626Y-275180D01*
X4618Y-275251D01*
X4610Y-275337D01*
X4594Y-275431D01*
X4539Y-275643D01*
X4469Y-275863D01*
X4422Y-275980D01*
X4367Y-276090D01*
X4304Y-276200D01*
X4233Y-276310D01*
X4225Y-276318D01*
X4218Y-276334D01*
X4194Y-276365D01*
X4155Y-276404D01*
X4116Y-276444D01*
X4069Y-276499D01*
X4006Y-276553D01*
X3943Y-276616D01*
X3864Y-276679D01*
X3778Y-276750D01*
X3684Y-276812D01*
X3582Y-276883D01*
X3472Y-276946D01*
X3362Y-277001D01*
X3103Y-277103D01*
X3103Y-277126D01*
X3111Y-277126D01*
X3142Y-277134D01*
X3189Y-277142D01*
X3252Y-277150D01*
X3331Y-277166D01*
X3417Y-277189D01*
X3519Y-277221D01*
X3621Y-277252D01*
X3849Y-277338D01*
X3974Y-277393D01*
X4092Y-277464D01*
X4210Y-277535D01*
X4327Y-277613D01*
X4445Y-277707D01*
X4547Y-277809D01*
X4555Y-277817D01*
X4571Y-277833D01*
X4594Y-277864D01*
X4634Y-277911D01*
X4673Y-277974D01*
X4720Y-278037D01*
X4767Y-278123D01*
X4822Y-278209D01*
X4869Y-278312D01*
X4916Y-278429D01*
X4963Y-278547D01*
X5002Y-278680D01*
X5042Y-278830D01*
X5065Y-278979D01*
X5081Y-279136D01*
X5089Y-279308D01*
X5089Y-279324D01*
X5089Y-279355D01*
X5081Y-279418D01*
X5073Y-279497D01*
X5065Y-279599D01*
X5042Y-279709D01*
X5018Y-279834D01*
X4987Y-279968D01*
X4940Y-280117D01*
X4885Y-280266D01*
X4822Y-280415D01*
X4744Y-280572D01*
X4649Y-280729D01*
X4539Y-280878D01*
X4414Y-281019D01*
X4265Y-281161D01*
X4257Y-281168D01*
X4225Y-281192D01*
X4178Y-281223D01*
X4116Y-281271D01*
X4037Y-281325D01*
X3935Y-281380D01*
X3825Y-281451D01*
X3700Y-281514D01*
X3550Y-281577D01*
X3393Y-281639D01*
X3229Y-281702D01*
X3040Y-281757D01*
X2844Y-281804D01*
X2640Y-281836D01*
X2420Y-281859D01*
X2193Y-281867D01*
X-405Y-281867D01*
X-405Y-272943D01*
X2240Y-272943D01*
X2326Y-272951D01*
X2326Y-272951D02*
G37*
G36*
X-26667Y-272951D02*
X-26572Y-272959D01*
X-26463Y-272974D01*
X-26337Y-272990D01*
X-26196Y-273014D01*
X-26054Y-273045D01*
X-25905Y-273084D01*
X-25748Y-273132D01*
X-25599Y-273186D01*
X-25442Y-273249D01*
X-25301Y-273328D01*
X-25160Y-273414D01*
X-25026Y-273516D01*
X-25018Y-273524D01*
X-24995Y-273540D01*
X-24964Y-273571D01*
X-24924Y-273618D01*
X-24869Y-273673D01*
X-24814Y-273744D01*
X-24752Y-273822D01*
X-24689Y-273909D01*
X-24626Y-274011D01*
X-24563Y-274120D01*
X-24508Y-274246D01*
X-24453Y-274372D01*
X-24414Y-274513D01*
X-24383Y-274662D01*
X-24359Y-274819D01*
X-24351Y-274984D01*
X-24351Y-274992D01*
X-24351Y-275015D01*
X-24351Y-275054D01*
X-24359Y-275109D01*
X-24367Y-275180D01*
X-24375Y-275251D01*
X-24383Y-275337D01*
X-24398Y-275431D01*
X-24453Y-275643D01*
X-24524Y-275863D01*
X-24571Y-275980D01*
X-24626Y-276090D01*
X-24689Y-276200D01*
X-24759Y-276310D01*
X-24767Y-276318D01*
X-24775Y-276334D01*
X-24799Y-276365D01*
X-24838Y-276404D01*
X-24877Y-276444D01*
X-24924Y-276499D01*
X-24987Y-276553D01*
X-25050Y-276616D01*
X-25128Y-276679D01*
X-25215Y-276750D01*
X-25309Y-276812D01*
X-25411Y-276883D01*
X-25521Y-276946D01*
X-25631Y-277001D01*
X-25890Y-277103D01*
X-25890Y-277126D01*
X-25882Y-277126D01*
X-25850Y-277134D01*
X-25803Y-277142D01*
X-25740Y-277150D01*
X-25662Y-277166D01*
X-25576Y-277189D01*
X-25474Y-277221D01*
X-25372Y-277252D01*
X-25144Y-277338D01*
X-25018Y-277393D01*
X-24901Y-277464D01*
X-24783Y-277535D01*
X-24665Y-277613D01*
X-24548Y-277707D01*
X-24445Y-277809D01*
X-24438Y-277817D01*
X-24422Y-277833D01*
X-24398Y-277864D01*
X-24359Y-277911D01*
X-24320Y-277974D01*
X-24273Y-278037D01*
X-24226Y-278123D01*
X-24171Y-278209D01*
X-24124Y-278312D01*
X-24077Y-278429D01*
X-24030Y-278547D01*
X-23990Y-278680D01*
X-23951Y-278830D01*
X-23927Y-278979D01*
X-23912Y-279136D01*
X-23904Y-279308D01*
X-23904Y-279324D01*
X-23904Y-279355D01*
X-23912Y-279418D01*
X-23920Y-279497D01*
X-23927Y-279599D01*
X-23951Y-279709D01*
X-23974Y-279834D01*
X-24006Y-279968D01*
X-24053Y-280117D01*
X-24108Y-280266D01*
X-24171Y-280415D01*
X-24249Y-280572D01*
X-24343Y-280729D01*
X-24453Y-280878D01*
X-24579Y-281019D01*
X-24728Y-281161D01*
X-24736Y-281168D01*
X-24767Y-281192D01*
X-24814Y-281223D01*
X-24877Y-281271D01*
X-24956Y-281325D01*
X-25058Y-281380D01*
X-25168Y-281451D01*
X-25293Y-281514D01*
X-25442Y-281577D01*
X-25599Y-281639D01*
X-25764Y-281702D01*
X-25952Y-281757D01*
X-26149Y-281804D01*
X-26353Y-281836D01*
X-26572Y-281859D01*
X-26800Y-281867D01*
X-29398Y-281867D01*
X-29398Y-272943D01*
X-26753Y-272943D01*
X-26667Y-272951D01*
X-26667Y-272951D02*
G37*
G36*
X19899Y-275494D02*
X21508Y-275494D01*
X21508Y-276373D01*
X19899Y-276373D01*
X19899Y-279960D01*
X19899Y-279968D01*
X19899Y-279991D01*
X19899Y-280023D01*
X19899Y-280062D01*
X19907Y-280117D01*
X19915Y-280180D01*
X19930Y-280313D01*
X19954Y-280470D01*
X19993Y-280619D01*
X20048Y-280760D01*
X20080Y-280823D01*
X20119Y-280878D01*
X20127Y-280886D01*
X20158Y-280917D01*
X20213Y-280964D01*
X20292Y-281012D01*
X20394Y-281066D01*
X20519Y-281106D01*
X20668Y-281137D01*
X20841Y-281153D01*
X20904Y-281153D01*
X20974Y-281145D01*
X21069Y-281129D01*
X21171Y-281098D01*
X21288Y-281066D01*
X21398Y-281012D01*
X21508Y-280941D01*
X21508Y-281812D01*
X21500Y-281812D01*
X21492Y-281820D01*
X21469Y-281828D01*
X21445Y-281843D01*
X21359Y-281875D01*
X21257Y-281906D01*
X21116Y-281938D01*
X20951Y-281969D01*
X20763Y-281993D01*
X20551Y-282000D01*
X20480Y-282000D01*
X20394Y-281985D01*
X20292Y-281969D01*
X20166Y-281945D01*
X20025Y-281898D01*
X19868Y-281843D01*
X19719Y-281765D01*
X19562Y-281671D01*
X19405Y-281545D01*
X19263Y-281396D01*
X19201Y-281310D01*
X19138Y-281215D01*
X19083Y-281113D01*
X19036Y-281004D01*
X18989Y-280886D01*
X18950Y-280753D01*
X18918Y-280619D01*
X18894Y-280470D01*
X18887Y-280313D01*
X18879Y-280140D01*
X18879Y-276373D01*
X17788Y-276373D01*
X17788Y-275494D01*
X18879Y-275494D01*
X18879Y-273940D01*
X19899Y-273610D01*
X19899Y-275494D01*
X19899Y-275494D02*
G37*
G36*
X15582Y-275494D02*
X17191Y-275494D01*
X17191Y-276373D01*
X15582Y-276373D01*
X15582Y-279960D01*
X15582Y-279968D01*
X15582Y-279991D01*
X15582Y-280023D01*
X15582Y-280062D01*
X15590Y-280117D01*
X15598Y-280180D01*
X15614Y-280313D01*
X15637Y-280470D01*
X15677Y-280619D01*
X15732Y-280760D01*
X15763Y-280823D01*
X15802Y-280878D01*
X15810Y-280886D01*
X15841Y-280917D01*
X15896Y-280964D01*
X15975Y-281012D01*
X16077Y-281066D01*
X16202Y-281106D01*
X16352Y-281137D01*
X16524Y-281153D01*
X16587Y-281153D01*
X16658Y-281145D01*
X16752Y-281129D01*
X16854Y-281098D01*
X16972Y-281066D01*
X17082Y-281012D01*
X17191Y-280941D01*
X17191Y-281812D01*
X17184Y-281812D01*
X17176Y-281820D01*
X17152Y-281828D01*
X17129Y-281843D01*
X17042Y-281875D01*
X16940Y-281906D01*
X16799Y-281938D01*
X16634Y-281969D01*
X16446Y-281993D01*
X16234Y-282000D01*
X16163Y-282000D01*
X16077Y-281985D01*
X15975Y-281969D01*
X15849Y-281945D01*
X15708Y-281898D01*
X15551Y-281843D01*
X15402Y-281765D01*
X15245Y-281671D01*
X15088Y-281545D01*
X14947Y-281396D01*
X14884Y-281310D01*
X14821Y-281215D01*
X14766Y-281113D01*
X14719Y-281004D01*
X14672Y-280886D01*
X14633Y-280753D01*
X14601Y-280619D01*
X14578Y-280470D01*
X14570Y-280313D01*
X14562Y-280140D01*
X14562Y-276373D01*
X13471Y-276373D01*
X13471Y-275494D01*
X14562Y-275494D01*
X14562Y-273940D01*
X15582Y-273610D01*
X15582Y-275494D01*
X15582Y-275494D02*
G37*
G36*
X63145Y-275353D02*
X63231Y-275361D01*
X63341Y-275368D01*
X63459Y-275384D01*
X63592Y-275415D01*
X63734Y-275447D01*
X63891Y-275486D01*
X64047Y-275541D01*
X64205Y-275612D01*
X64369Y-275690D01*
X64526Y-275784D01*
X64675Y-275894D01*
X64825Y-276020D01*
X64958Y-276161D01*
X64966Y-276169D01*
X64989Y-276200D01*
X65021Y-276247D01*
X65068Y-276310D01*
X65115Y-276389D01*
X65178Y-276491D01*
X65241Y-276608D01*
X65303Y-276742D01*
X65366Y-276899D01*
X65429Y-277064D01*
X65492Y-277252D01*
X65539Y-277448D01*
X65586Y-277668D01*
X65617Y-277896D01*
X65641Y-278147D01*
X65649Y-278406D01*
X65649Y-278939D01*
X61143Y-278939D01*
X61143Y-278955D01*
X61143Y-278986D01*
X61151Y-279042D01*
X61159Y-279112D01*
X61167Y-279206D01*
X61183Y-279308D01*
X61199Y-279418D01*
X61230Y-279544D01*
X61301Y-279811D01*
X61348Y-279944D01*
X61403Y-280085D01*
X61465Y-280219D01*
X61536Y-280352D01*
X61622Y-280470D01*
X61716Y-280588D01*
X61724Y-280595D01*
X61740Y-280611D01*
X61771Y-280643D01*
X61818Y-280674D01*
X61873Y-280721D01*
X61944Y-280768D01*
X62023Y-280823D01*
X62109Y-280870D01*
X62211Y-280925D01*
X62329Y-280980D01*
X62446Y-281027D01*
X62588Y-281074D01*
X62729Y-281106D01*
X62886Y-281137D01*
X63051Y-281153D01*
X63223Y-281161D01*
X63271Y-281161D01*
X63326Y-281153D01*
X63404Y-281153D01*
X63498Y-281137D01*
X63608Y-281121D01*
X63734Y-281098D01*
X63875Y-281074D01*
X64024Y-281035D01*
X64181Y-280988D01*
X64346Y-280933D01*
X64511Y-280862D01*
X64683Y-280784D01*
X64856Y-280690D01*
X65029Y-280580D01*
X65201Y-280454D01*
X65201Y-281412D01*
X65193Y-281420D01*
X65162Y-281435D01*
X65115Y-281467D01*
X65052Y-281506D01*
X64966Y-281553D01*
X64864Y-281600D01*
X64746Y-281655D01*
X64613Y-281710D01*
X64456Y-281773D01*
X64291Y-281828D01*
X64110Y-281875D01*
X63914Y-281922D01*
X63702Y-281961D01*
X63475Y-281993D01*
X63231Y-282008D01*
X62980Y-282016D01*
X62917Y-282016D01*
X62854Y-282008D01*
X62760Y-282000D01*
X62643Y-281993D01*
X62509Y-281969D01*
X62368Y-281945D01*
X62211Y-281906D01*
X62046Y-281859D01*
X61873Y-281804D01*
X61693Y-281733D01*
X61520Y-281655D01*
X61340Y-281553D01*
X61175Y-281435D01*
X61010Y-281302D01*
X60861Y-281153D01*
X60853Y-281145D01*
X60830Y-281113D01*
X60790Y-281059D01*
X60743Y-280988D01*
X60680Y-280902D01*
X60618Y-280792D01*
X60547Y-280666D01*
X60476Y-280517D01*
X60406Y-280360D01*
X60335Y-280172D01*
X60272Y-279975D01*
X60210Y-279756D01*
X60163Y-279520D01*
X60123Y-279269D01*
X60100Y-278994D01*
X60092Y-278712D01*
X60092Y-278704D01*
X60092Y-278696D01*
X60092Y-278673D01*
X60092Y-278649D01*
X60100Y-278571D01*
X60107Y-278461D01*
X60115Y-278335D01*
X60139Y-278194D01*
X60163Y-278029D01*
X60194Y-277848D01*
X60241Y-277660D01*
X60296Y-277464D01*
X60367Y-277260D01*
X60445Y-277056D01*
X60539Y-276860D01*
X60657Y-276656D01*
X60782Y-276467D01*
X60932Y-276287D01*
X60939Y-276279D01*
X60971Y-276247D01*
X61018Y-276200D01*
X61081Y-276138D01*
X61167Y-276067D01*
X61269Y-275988D01*
X61379Y-275902D01*
X61512Y-275816D01*
X61654Y-275729D01*
X61818Y-275643D01*
X61991Y-275564D01*
X62172Y-275494D01*
X62368Y-275431D01*
X62580Y-275384D01*
X62800Y-275353D01*
X63027Y-275345D01*
X63082Y-275345D01*
X63145Y-275353D01*
X63145Y-275353D02*
G37*
G36*
X48821Y-272802D02*
X48876Y-272802D01*
X48931Y-272810D01*
X49002Y-272810D01*
X49159Y-272833D01*
X49339Y-272857D01*
X49543Y-272896D01*
X49763Y-272951D01*
X49991Y-273014D01*
X50234Y-273100D01*
X50477Y-273202D01*
X50728Y-273320D01*
X50980Y-273461D01*
X51215Y-273626D01*
X51451Y-273822D01*
X51670Y-274042D01*
X51686Y-274058D01*
X51717Y-274097D01*
X51772Y-274167D01*
X51851Y-274270D01*
X51929Y-274395D01*
X52031Y-274544D01*
X52133Y-274717D01*
X52235Y-274913D01*
X52337Y-275141D01*
X52439Y-275384D01*
X52541Y-275651D01*
X52628Y-275941D01*
X52698Y-276255D01*
X52753Y-276585D01*
X52785Y-276930D01*
X52800Y-277299D01*
X52800Y-277307D01*
X52800Y-277323D01*
X52800Y-277354D01*
X52800Y-277393D01*
X52793Y-277448D01*
X52793Y-277511D01*
X52785Y-277582D01*
X52785Y-277660D01*
X52777Y-277747D01*
X52769Y-277841D01*
X52738Y-278053D01*
X52706Y-278296D01*
X52659Y-278547D01*
X52596Y-278822D01*
X52518Y-279104D01*
X52424Y-279387D01*
X52314Y-279677D01*
X52180Y-279960D01*
X52024Y-280242D01*
X51843Y-280501D01*
X51639Y-280753D01*
X51623Y-280768D01*
X51584Y-280807D01*
X51521Y-280870D01*
X51427Y-280949D01*
X51309Y-281043D01*
X51168Y-281153D01*
X51011Y-281263D01*
X50823Y-281380D01*
X50611Y-281498D01*
X50375Y-281616D01*
X50124Y-281726D01*
X49849Y-281820D01*
X49551Y-281898D01*
X49237Y-281961D01*
X48900Y-282000D01*
X48547Y-282016D01*
X48460Y-282016D01*
X48421Y-282008D01*
X48366Y-282008D01*
X48303Y-282000D01*
X48233Y-281993D01*
X48068Y-281977D01*
X47887Y-281953D01*
X47675Y-281914D01*
X47456Y-281859D01*
X47212Y-281796D01*
X46969Y-281710D01*
X46718Y-281608D01*
X46459Y-281490D01*
X46208Y-281349D01*
X45964Y-281176D01*
X45721Y-280988D01*
X45501Y-280768D01*
X45486Y-280753D01*
X45454Y-280713D01*
X45399Y-280643D01*
X45321Y-280541D01*
X45234Y-280415D01*
X45140Y-280266D01*
X45038Y-280093D01*
X44936Y-279889D01*
X44826Y-279669D01*
X44724Y-279426D01*
X44630Y-279159D01*
X44544Y-278869D01*
X44465Y-278555D01*
X44410Y-278225D01*
X44379Y-277880D01*
X44363Y-277511D01*
X44363Y-277503D01*
X44363Y-277488D01*
X44363Y-277456D01*
X44363Y-277417D01*
X44371Y-277362D01*
X44371Y-277307D01*
X44379Y-277236D01*
X44379Y-277158D01*
X44387Y-277071D01*
X44402Y-276969D01*
X44426Y-276765D01*
X44457Y-276530D01*
X44512Y-276279D01*
X44567Y-276004D01*
X44646Y-275729D01*
X44740Y-275447D01*
X44850Y-275156D01*
X44983Y-274874D01*
X45140Y-274599D01*
X45321Y-274332D01*
X45525Y-274081D01*
X45540Y-274065D01*
X45580Y-274026D01*
X45643Y-273963D01*
X45737Y-273877D01*
X45855Y-273783D01*
X46004Y-273673D01*
X46168Y-273555D01*
X46357Y-273438D01*
X46576Y-273320D01*
X46812Y-273202D01*
X47071Y-273092D01*
X47354Y-272998D01*
X47660Y-272912D01*
X47981Y-272849D01*
X48327Y-272810D01*
X48696Y-272794D01*
X48774Y-272794D01*
X48821Y-272802D01*
X48821Y-272802D02*
G37*
G36*
X25817Y-275353D02*
X25919Y-275361D01*
X26037Y-275368D01*
X26178Y-275392D01*
X26327Y-275415D01*
X26492Y-275455D01*
X26672Y-275502D01*
X26853Y-275557D01*
X27034Y-275627D01*
X27222Y-275714D01*
X27402Y-275816D01*
X27583Y-275933D01*
X27748Y-276067D01*
X27905Y-276224D01*
X27913Y-276232D01*
X27936Y-276263D01*
X27975Y-276318D01*
X28030Y-276389D01*
X28093Y-276475D01*
X28156Y-276585D01*
X28234Y-276710D01*
X28305Y-276860D01*
X28384Y-277024D01*
X28454Y-277205D01*
X28517Y-277401D01*
X28580Y-277621D01*
X28635Y-277856D01*
X28674Y-278107D01*
X28697Y-278374D01*
X28705Y-278657D01*
X28705Y-278665D01*
X28705Y-278673D01*
X28705Y-278696D01*
X28705Y-278727D01*
X28697Y-278806D01*
X28690Y-278908D01*
X28682Y-279042D01*
X28658Y-279191D01*
X28635Y-279355D01*
X28595Y-279536D01*
X28548Y-279724D01*
X28493Y-279928D01*
X28423Y-280132D01*
X28344Y-280336D01*
X28242Y-280541D01*
X28124Y-280737D01*
X27991Y-280925D01*
X27842Y-281106D01*
X27834Y-281113D01*
X27803Y-281145D01*
X27756Y-281192D01*
X27685Y-281247D01*
X27599Y-281318D01*
X27497Y-281396D01*
X27371Y-281474D01*
X27230Y-281561D01*
X27073Y-281647D01*
X26900Y-281726D01*
X26712Y-281804D01*
X26508Y-281875D01*
X26280Y-281930D01*
X26045Y-281977D01*
X25801Y-282008D01*
X25534Y-282016D01*
X25472Y-282016D01*
X25401Y-282008D01*
X25299Y-282000D01*
X25181Y-281993D01*
X25040Y-281969D01*
X24891Y-281945D01*
X24726Y-281906D01*
X24546Y-281859D01*
X24365Y-281796D01*
X24177Y-281726D01*
X23988Y-281639D01*
X23800Y-281537D01*
X23612Y-281420D01*
X23439Y-281286D01*
X23274Y-281129D01*
X23266Y-281121D01*
X23235Y-281090D01*
X23196Y-281035D01*
X23141Y-280964D01*
X23078Y-280878D01*
X23007Y-280768D01*
X22937Y-280643D01*
X22858Y-280494D01*
X22780Y-280336D01*
X22701Y-280156D01*
X22631Y-279960D01*
X22568Y-279748D01*
X22513Y-279528D01*
X22473Y-279285D01*
X22442Y-279026D01*
X22434Y-278759D01*
X22434Y-278751D01*
X22434Y-278743D01*
X22434Y-278720D01*
X22434Y-278688D01*
X22442Y-278602D01*
X22450Y-278492D01*
X22458Y-278359D01*
X22481Y-278202D01*
X22505Y-278029D01*
X22544Y-277841D01*
X22591Y-277644D01*
X22646Y-277440D01*
X22717Y-277229D01*
X22803Y-277017D01*
X22905Y-276812D01*
X23015Y-276616D01*
X23149Y-276428D01*
X23305Y-276247D01*
X23313Y-276239D01*
X23345Y-276208D01*
X23400Y-276161D01*
X23470Y-276106D01*
X23557Y-276035D01*
X23667Y-275965D01*
X23792Y-275879D01*
X23933Y-275792D01*
X24090Y-275714D01*
X24271Y-275627D01*
X24467Y-275557D01*
X24679Y-275486D01*
X24907Y-275431D01*
X25150Y-275384D01*
X25409Y-275353D01*
X25684Y-275345D01*
X25746Y-275345D01*
X25817Y-275353D01*
X25817Y-275353D02*
G37*
G36*
X9712Y-275353D02*
X9814Y-275361D01*
X9931Y-275368D01*
X10073Y-275392D01*
X10222Y-275415D01*
X10387Y-275455D01*
X10567Y-275502D01*
X10748Y-275557D01*
X10928Y-275627D01*
X11117Y-275714D01*
X11297Y-275816D01*
X11478Y-275933D01*
X11642Y-276067D01*
X11799Y-276224D01*
X11807Y-276232D01*
X11831Y-276263D01*
X11870Y-276318D01*
X11925Y-276389D01*
X11988Y-276475D01*
X12050Y-276585D01*
X12129Y-276710D01*
X12200Y-276860D01*
X12278Y-277024D01*
X12349Y-277205D01*
X12412Y-277401D01*
X12474Y-277621D01*
X12529Y-277856D01*
X12569Y-278107D01*
X12592Y-278374D01*
X12600Y-278657D01*
X12600Y-278665D01*
X12600Y-278673D01*
X12600Y-278696D01*
X12600Y-278727D01*
X12592Y-278806D01*
X12584Y-278908D01*
X12576Y-279042D01*
X12553Y-279191D01*
X12529Y-279355D01*
X12490Y-279536D01*
X12443Y-279724D01*
X12388Y-279928D01*
X12317Y-280132D01*
X12239Y-280336D01*
X12137Y-280541D01*
X12019Y-280737D01*
X11886Y-280925D01*
X11737Y-281106D01*
X11729Y-281113D01*
X11697Y-281145D01*
X11650Y-281192D01*
X11580Y-281247D01*
X11493Y-281318D01*
X11391Y-281396D01*
X11266Y-281474D01*
X11124Y-281561D01*
X10967Y-281647D01*
X10795Y-281726D01*
X10606Y-281804D01*
X10402Y-281875D01*
X10175Y-281930D01*
X9939Y-281977D01*
X9696Y-282008D01*
X9429Y-282016D01*
X9366Y-282016D01*
X9296Y-282008D01*
X9194Y-282000D01*
X9076Y-281993D01*
X8935Y-281969D01*
X8785Y-281945D01*
X8621Y-281906D01*
X8440Y-281859D01*
X8260Y-281796D01*
X8071Y-281726D01*
X7883Y-281639D01*
X7695Y-281537D01*
X7506Y-281420D01*
X7333Y-281286D01*
X7169Y-281129D01*
X7161Y-281121D01*
X7129Y-281090D01*
X7090Y-281035D01*
X7035Y-280964D01*
X6973Y-280878D01*
X6902Y-280768D01*
X6831Y-280643D01*
X6753Y-280494D01*
X6674Y-280336D01*
X6596Y-280156D01*
X6525Y-279960D01*
X6462Y-279748D01*
X6407Y-279528D01*
X6368Y-279285D01*
X6337Y-279026D01*
X6329Y-278759D01*
X6329Y-278751D01*
X6329Y-278743D01*
X6329Y-278720D01*
X6329Y-278688D01*
X6337Y-278602D01*
X6345Y-278492D01*
X6352Y-278359D01*
X6376Y-278202D01*
X6400Y-278029D01*
X6439Y-277841D01*
X6486Y-277644D01*
X6541Y-277440D01*
X6611Y-277229D01*
X6698Y-277017D01*
X6800Y-276812D01*
X6910Y-276616D01*
X7043Y-276428D01*
X7200Y-276247D01*
X7208Y-276239D01*
X7239Y-276208D01*
X7294Y-276161D01*
X7365Y-276106D01*
X7451Y-276035D01*
X7561Y-275965D01*
X7687Y-275879D01*
X7828Y-275792D01*
X7985Y-275714D01*
X8166Y-275627D01*
X8362Y-275557D01*
X8574Y-275486D01*
X8801Y-275431D01*
X9044Y-275384D01*
X9304Y-275353D01*
X9578Y-275345D01*
X9641Y-275345D01*
X9712Y-275353D01*
X9712Y-275353D02*
G37*
G36*
X-18221Y-272802D02*
X-18167Y-272802D01*
X-18112Y-272810D01*
X-18041Y-272810D01*
X-17884Y-272833D01*
X-17703Y-272857D01*
X-17499Y-272896D01*
X-17280Y-272951D01*
X-17052Y-273014D01*
X-16809Y-273100D01*
X-16565Y-273202D01*
X-16314Y-273320D01*
X-16063Y-273461D01*
X-15828Y-273626D01*
X-15592Y-273822D01*
X-15373Y-274042D01*
X-15357Y-274058D01*
X-15325Y-274097D01*
X-15270Y-274167D01*
X-15192Y-274270D01*
X-15114Y-274395D01*
X-15011Y-274544D01*
X-14909Y-274717D01*
X-14807Y-274913D01*
X-14705Y-275141D01*
X-14603Y-275384D01*
X-14501Y-275651D01*
X-14415Y-275941D01*
X-14344Y-276255D01*
X-14289Y-276585D01*
X-14258Y-276930D01*
X-14242Y-277299D01*
X-14242Y-277307D01*
X-14242Y-277323D01*
X-14242Y-277354D01*
X-14242Y-277393D01*
X-14250Y-277448D01*
X-14250Y-277511D01*
X-14258Y-277582D01*
X-14258Y-277660D01*
X-14266Y-277747D01*
X-14274Y-277841D01*
X-14305Y-278053D01*
X-14336Y-278296D01*
X-14383Y-278547D01*
X-14446Y-278822D01*
X-14525Y-279104D01*
X-14619Y-279387D01*
X-14729Y-279677D01*
X-14862Y-279960D01*
X-15019Y-280242D01*
X-15200Y-280501D01*
X-15404Y-280753D01*
X-15420Y-280768D01*
X-15459Y-280807D01*
X-15522Y-280870D01*
X-15616Y-280949D01*
X-15733Y-281043D01*
X-15875Y-281153D01*
X-16032Y-281263D01*
X-16220Y-281380D01*
X-16432Y-281498D01*
X-16667Y-281616D01*
X-16919Y-281726D01*
X-17193Y-281820D01*
X-17492Y-281898D01*
X-17806Y-281961D01*
X-18143Y-282000D01*
X-18496Y-282016D01*
X-18583Y-282016D01*
X-18622Y-282008D01*
X-18677Y-282008D01*
X-18740Y-282000D01*
X-18810Y-281993D01*
X-18975Y-281977D01*
X-19155Y-281953D01*
X-19367Y-281914D01*
X-19587Y-281859D01*
X-19830Y-281796D01*
X-20074Y-281710D01*
X-20325Y-281608D01*
X-20584Y-281490D01*
X-20835Y-281349D01*
X-21078Y-281176D01*
X-21322Y-280988D01*
X-21542Y-280768D01*
X-21557Y-280753D01*
X-21589Y-280713D01*
X-21644Y-280643D01*
X-21722Y-280541D01*
X-21808Y-280415D01*
X-21902Y-280266D01*
X-22004Y-280093D01*
X-22107Y-279889D01*
X-22216Y-279669D01*
X-22318Y-279426D01*
X-22413Y-279159D01*
X-22499Y-278869D01*
X-22578Y-278555D01*
X-22632Y-278225D01*
X-22664Y-277880D01*
X-22680Y-277511D01*
X-22680Y-277503D01*
X-22680Y-277488D01*
X-22680Y-277456D01*
X-22680Y-277417D01*
X-22672Y-277362D01*
X-22672Y-277307D01*
X-22664Y-277236D01*
X-22664Y-277158D01*
X-22656Y-277071D01*
X-22640Y-276969D01*
X-22617Y-276765D01*
X-22585Y-276530D01*
X-22530Y-276279D01*
X-22475Y-276004D01*
X-22397Y-275729D01*
X-22303Y-275447D01*
X-22193Y-275156D01*
X-22060Y-274874D01*
X-21902Y-274599D01*
X-21722Y-274332D01*
X-21518Y-274081D01*
X-21502Y-274065D01*
X-21463Y-274026D01*
X-21400Y-273963D01*
X-21306Y-273877D01*
X-21188Y-273783D01*
X-21039Y-273673D01*
X-20874Y-273555D01*
X-20686Y-273438D01*
X-20466Y-273320D01*
X-20231Y-273202D01*
X-19972Y-273092D01*
X-19689Y-272998D01*
X-19383Y-272912D01*
X-19061Y-272849D01*
X-18716Y-272810D01*
X-18347Y-272794D01*
X-18269Y-272794D01*
X-18221Y-272802D01*
X-18221Y-272802D02*
G37*
%LPC*%
G36*
X78246Y-278649D02*
X76707Y-278861D01*
X76700Y-278861D01*
X76676Y-278869D01*
X76637Y-278869D01*
X76590Y-278877D01*
X76535Y-278892D01*
X76464Y-278908D01*
X76307Y-278939D01*
X76134Y-278986D01*
X75962Y-279049D01*
X75789Y-279128D01*
X75711Y-279167D01*
X75640Y-279214D01*
X75624Y-279230D01*
X75585Y-279261D01*
X75522Y-279324D01*
X75459Y-279418D01*
X75397Y-279544D01*
X75365Y-279614D01*
X75334Y-279693D01*
X75310Y-279779D01*
X75295Y-279881D01*
X75287Y-279983D01*
X75279Y-280101D01*
X75279Y-280109D01*
X75279Y-280125D01*
X75279Y-280148D01*
X75287Y-280180D01*
X75295Y-280266D01*
X75318Y-280376D01*
X75357Y-280494D01*
X75420Y-280627D01*
X75499Y-280753D01*
X75609Y-280870D01*
X75616Y-280870D01*
X75624Y-280886D01*
X75671Y-280917D01*
X75742Y-280964D01*
X75844Y-281012D01*
X75977Y-281066D01*
X76126Y-281113D01*
X76307Y-281145D01*
X76503Y-281161D01*
X76574Y-281161D01*
X76629Y-281153D01*
X76692Y-281145D01*
X76770Y-281129D01*
X76849Y-281113D01*
X76943Y-281090D01*
X77139Y-281027D01*
X77241Y-280988D01*
X77351Y-280933D01*
X77453Y-280870D01*
X77555Y-280800D01*
X77657Y-280721D01*
X77751Y-280627D01*
X77759Y-280619D01*
X77775Y-280603D01*
X77798Y-280572D01*
X77830Y-280533D01*
X77869Y-280478D01*
X77908Y-280415D01*
X77955Y-280344D01*
X78002Y-280258D01*
X78042Y-280164D01*
X78089Y-280062D01*
X78128Y-279952D01*
X78167Y-279834D01*
X78198Y-279709D01*
X78222Y-279575D01*
X78238Y-279434D01*
X78246Y-279285D01*
X78246Y-278649D01*
X78246Y-278649D02*
G37*
G36*
X1997Y-273893D02*
X639Y-273893D01*
X639Y-276773D01*
X1792Y-276773D01*
X1847Y-276765D01*
X1918Y-276758D01*
X2004Y-276750D01*
X2098Y-276742D01*
X2201Y-276718D01*
X2412Y-276671D01*
X2640Y-276601D01*
X2750Y-276553D01*
X2860Y-276499D01*
X2962Y-276436D01*
X3056Y-276365D01*
X3064Y-276357D01*
X3080Y-276349D01*
X3103Y-276318D01*
X3135Y-276287D01*
X3174Y-276247D01*
X3213Y-276192D01*
X3260Y-276130D01*
X3307Y-276059D01*
X3346Y-275980D01*
X3393Y-275894D01*
X3433Y-275800D01*
X3472Y-275698D01*
X3503Y-275580D01*
X3527Y-275462D01*
X3543Y-275329D01*
X3550Y-275196D01*
X3550Y-275180D01*
X3550Y-275141D01*
X3543Y-275078D01*
X3527Y-274992D01*
X3496Y-274890D01*
X3464Y-274780D01*
X3409Y-274662D01*
X3339Y-274544D01*
X3244Y-274419D01*
X3135Y-274301D01*
X2993Y-274191D01*
X2828Y-274097D01*
X2734Y-274050D01*
X2632Y-274011D01*
X2522Y-273979D01*
X2405Y-273948D01*
X2279Y-273924D01*
X2138Y-273909D01*
X1997Y-273893D01*
X1997Y-273893D02*
G37*
G36*
X1840Y-277715D02*
X639Y-277715D01*
X639Y-280925D01*
X2146Y-280925D01*
X2208Y-280917D01*
X2287Y-280909D01*
X2373Y-280902D01*
X2475Y-280886D01*
X2585Y-280870D01*
X2813Y-280823D01*
X3048Y-280745D01*
X3166Y-280690D01*
X3276Y-280635D01*
X3378Y-280572D01*
X3480Y-280494D01*
X3488Y-280486D01*
X3503Y-280470D01*
X3527Y-280446D01*
X3558Y-280415D01*
X3598Y-280368D01*
X3645Y-280313D01*
X3684Y-280250D01*
X3739Y-280180D01*
X3786Y-280093D01*
X3825Y-280007D01*
X3872Y-279905D01*
X3911Y-279803D01*
X3943Y-279685D01*
X3966Y-279559D01*
X3982Y-279434D01*
X3990Y-279293D01*
X3990Y-279285D01*
X3990Y-279277D01*
X3990Y-279253D01*
X3982Y-279222D01*
X3974Y-279144D01*
X3959Y-279049D01*
X3927Y-278924D01*
X3880Y-278790D01*
X3810Y-278649D01*
X3723Y-278500D01*
X3605Y-278359D01*
X3543Y-278288D01*
X3464Y-278217D01*
X3386Y-278147D01*
X3291Y-278084D01*
X3189Y-278021D01*
X3080Y-277958D01*
X2962Y-277911D01*
X2836Y-277864D01*
X2695Y-277817D01*
X2546Y-277786D01*
X2389Y-277754D01*
X2216Y-277731D01*
X2036Y-277723D01*
X1840Y-277715D01*
X1840Y-277715D02*
G37*
G36*
X-26996Y-273893D02*
X-28354Y-273893D01*
X-28354Y-276773D01*
X-27200Y-276773D01*
X-27145Y-276765D01*
X-27075Y-276758D01*
X-26988Y-276750D01*
X-26894Y-276742D01*
X-26792Y-276718D01*
X-26580Y-276671D01*
X-26353Y-276601D01*
X-26243Y-276553D01*
X-26133Y-276499D01*
X-26031Y-276436D01*
X-25937Y-276365D01*
X-25929Y-276357D01*
X-25913Y-276349D01*
X-25890Y-276318D01*
X-25858Y-276287D01*
X-25819Y-276247D01*
X-25780Y-276192D01*
X-25733Y-276130D01*
X-25686Y-276059D01*
X-25646Y-275980D01*
X-25599Y-275894D01*
X-25560Y-275800D01*
X-25521Y-275698D01*
X-25489Y-275580D01*
X-25466Y-275462D01*
X-25450Y-275329D01*
X-25442Y-275196D01*
X-25442Y-275180D01*
X-25442Y-275141D01*
X-25450Y-275078D01*
X-25466Y-274992D01*
X-25497Y-274890D01*
X-25529Y-274780D01*
X-25584Y-274662D01*
X-25654Y-274544D01*
X-25748Y-274419D01*
X-25858Y-274301D01*
X-26000Y-274191D01*
X-26164Y-274097D01*
X-26258Y-274050D01*
X-26360Y-274011D01*
X-26470Y-273979D01*
X-26588Y-273948D01*
X-26714Y-273924D01*
X-26855Y-273909D01*
X-26996Y-273893D01*
X-26996Y-273893D02*
G37*
G36*
X-27153Y-277715D02*
X-28354Y-277715D01*
X-28354Y-280925D01*
X-26847Y-280925D01*
X-26784Y-280917D01*
X-26706Y-280909D01*
X-26620Y-280902D01*
X-26518Y-280886D01*
X-26408Y-280870D01*
X-26180Y-280823D01*
X-25944Y-280745D01*
X-25827Y-280690D01*
X-25717Y-280635D01*
X-25615Y-280572D01*
X-25513Y-280494D01*
X-25505Y-280486D01*
X-25489Y-280470D01*
X-25466Y-280446D01*
X-25434Y-280415D01*
X-25395Y-280368D01*
X-25348Y-280313D01*
X-25309Y-280250D01*
X-25254Y-280180D01*
X-25207Y-280093D01*
X-25168Y-280007D01*
X-25120Y-279905D01*
X-25081Y-279803D01*
X-25050Y-279685D01*
X-25026Y-279559D01*
X-25010Y-279434D01*
X-25003Y-279293D01*
X-25003Y-279285D01*
X-25003Y-279277D01*
X-25003Y-279253D01*
X-25010Y-279222D01*
X-25018Y-279144D01*
X-25034Y-279049D01*
X-25066Y-278924D01*
X-25113Y-278790D01*
X-25183Y-278649D01*
X-25269Y-278500D01*
X-25387Y-278359D01*
X-25450Y-278288D01*
X-25529Y-278217D01*
X-25607Y-278147D01*
X-25701Y-278084D01*
X-25803Y-278021D01*
X-25913Y-277958D01*
X-26031Y-277911D01*
X-26156Y-277864D01*
X-26298Y-277817D01*
X-26447Y-277786D01*
X-26604Y-277754D01*
X-26776Y-277731D01*
X-26957Y-277723D01*
X-27153Y-277715D01*
X-27153Y-277715D02*
G37*
G36*
X63011Y-276208D02*
X62941Y-276208D01*
X62894Y-276216D01*
X62831Y-276224D01*
X62752Y-276232D01*
X62674Y-276247D01*
X62588Y-276271D01*
X62392Y-276334D01*
X62289Y-276373D01*
X62187Y-276428D01*
X62085Y-276483D01*
X61975Y-276553D01*
X61881Y-276632D01*
X61779Y-276726D01*
X61771Y-276734D01*
X61756Y-276750D01*
X61732Y-276781D01*
X61701Y-276820D01*
X61662Y-276875D01*
X61614Y-276930D01*
X61567Y-277009D01*
X61512Y-277087D01*
X61458Y-277181D01*
X61410Y-277283D01*
X61356Y-277393D01*
X61308Y-277511D01*
X61261Y-277644D01*
X61222Y-277778D01*
X61183Y-277927D01*
X61159Y-278076D01*
X64605Y-278076D01*
X64605Y-278068D01*
X64605Y-278037D01*
X64605Y-277990D01*
X64597Y-277927D01*
X64589Y-277856D01*
X64581Y-277770D01*
X64566Y-277676D01*
X64550Y-277574D01*
X64495Y-277354D01*
X64416Y-277119D01*
X64369Y-277009D01*
X64314Y-276899D01*
X64252Y-276797D01*
X64173Y-276703D01*
X64165Y-276695D01*
X64157Y-276679D01*
X64134Y-276656D01*
X64095Y-276624D01*
X64055Y-276585D01*
X64000Y-276546D01*
X63945Y-276499D01*
X63875Y-276451D01*
X63796Y-276412D01*
X63710Y-276365D01*
X63608Y-276326D01*
X63506Y-276287D01*
X63396Y-276255D01*
X63278Y-276232D01*
X63145Y-276216D01*
X63011Y-276208D01*
X63011Y-276208D02*
G37*
G36*
X48617Y-273744D02*
X48554Y-273744D01*
X48484Y-273752D01*
X48382Y-273759D01*
X48264Y-273775D01*
X48123Y-273799D01*
X47974Y-273830D01*
X47809Y-273869D01*
X47628Y-273924D01*
X47440Y-273987D01*
X47252Y-274073D01*
X47063Y-274167D01*
X46867Y-274285D01*
X46686Y-274419D01*
X46506Y-274576D01*
X46333Y-274756D01*
X46325Y-274764D01*
X46294Y-274803D01*
X46255Y-274858D01*
X46200Y-274937D01*
X46129Y-275039D01*
X46059Y-275164D01*
X45980Y-275306D01*
X45902Y-275470D01*
X45815Y-275651D01*
X45737Y-275855D01*
X45666Y-276075D01*
X45595Y-276310D01*
X45540Y-276561D01*
X45501Y-276836D01*
X45470Y-277119D01*
X45462Y-277425D01*
X45462Y-277432D01*
X45462Y-277440D01*
X45462Y-277464D01*
X45462Y-277495D01*
X45462Y-277535D01*
X45470Y-277582D01*
X45478Y-277699D01*
X45486Y-277841D01*
X45509Y-277998D01*
X45533Y-278178D01*
X45572Y-278374D01*
X45611Y-278578D01*
X45674Y-278798D01*
X45737Y-279018D01*
X45823Y-279238D01*
X45917Y-279457D01*
X46035Y-279677D01*
X46168Y-279881D01*
X46318Y-280077D01*
X46325Y-280085D01*
X46357Y-280117D01*
X46404Y-280172D01*
X46474Y-280235D01*
X46561Y-280313D01*
X46663Y-280391D01*
X46781Y-280486D01*
X46914Y-280580D01*
X47071Y-280674D01*
X47236Y-280760D01*
X47424Y-280847D01*
X47620Y-280925D01*
X47832Y-280988D01*
X48060Y-281035D01*
X48295Y-281074D01*
X48547Y-281082D01*
X48609Y-281082D01*
X48688Y-281074D01*
X48790Y-281066D01*
X48915Y-281051D01*
X49057Y-281035D01*
X49214Y-281004D01*
X49386Y-280964D01*
X49567Y-280909D01*
X49755Y-280847D01*
X49951Y-280768D01*
X50140Y-280674D01*
X50336Y-280572D01*
X50517Y-280438D01*
X50697Y-280289D01*
X50862Y-280125D01*
X50870Y-280117D01*
X50901Y-280077D01*
X50940Y-280023D01*
X50995Y-279944D01*
X51058Y-279850D01*
X51129Y-279732D01*
X51207Y-279591D01*
X51286Y-279426D01*
X51364Y-279245D01*
X51443Y-279049D01*
X51513Y-278830D01*
X51576Y-278586D01*
X51631Y-278327D01*
X51670Y-278053D01*
X51702Y-277754D01*
X51709Y-277440D01*
X51709Y-277432D01*
X51709Y-277417D01*
X51709Y-277393D01*
X51709Y-277362D01*
X51709Y-277323D01*
X51702Y-277268D01*
X51694Y-277150D01*
X51686Y-277001D01*
X51662Y-276828D01*
X51639Y-276640D01*
X51607Y-276436D01*
X51560Y-276224D01*
X51505Y-275996D01*
X51443Y-275769D01*
X51364Y-275541D01*
X51270Y-275321D01*
X51160Y-275102D01*
X51034Y-274897D01*
X50885Y-274709D01*
X50878Y-274701D01*
X50846Y-274670D01*
X50799Y-274623D01*
X50736Y-274560D01*
X50650Y-274481D01*
X50548Y-274403D01*
X50430Y-274317D01*
X50297Y-274222D01*
X50140Y-274136D01*
X49967Y-274050D01*
X49787Y-273963D01*
X49583Y-273893D01*
X49363Y-273830D01*
X49127Y-273783D01*
X48884Y-273752D01*
X48617Y-273744D01*
X48617Y-273744D02*
G37*
G36*
X25605Y-276208D02*
X25566Y-276208D01*
X25511Y-276216D01*
X25440Y-276216D01*
X25362Y-276232D01*
X25268Y-276239D01*
X25158Y-276263D01*
X25040Y-276294D01*
X24922Y-276326D01*
X24797Y-276373D01*
X24663Y-276428D01*
X24538Y-276491D01*
X24404Y-276569D01*
X24279Y-276656D01*
X24161Y-276758D01*
X24051Y-276875D01*
X24043Y-276883D01*
X24028Y-276907D01*
X23996Y-276946D01*
X23965Y-277001D01*
X23918Y-277064D01*
X23870Y-277150D01*
X23816Y-277244D01*
X23768Y-277354D01*
X23714Y-277480D01*
X23659Y-277621D01*
X23612Y-277770D01*
X23564Y-277935D01*
X23533Y-278115D01*
X23502Y-278304D01*
X23486Y-278508D01*
X23478Y-278720D01*
X23478Y-278735D01*
X23478Y-278767D01*
X23486Y-278830D01*
X23486Y-278908D01*
X23494Y-279002D01*
X23510Y-279112D01*
X23525Y-279238D01*
X23549Y-279371D01*
X23580Y-279512D01*
X23619Y-279654D01*
X23667Y-279803D01*
X23721Y-279952D01*
X23784Y-280101D01*
X23863Y-280242D01*
X23949Y-280384D01*
X24051Y-280509D01*
X24059Y-280517D01*
X24075Y-280541D01*
X24114Y-280572D01*
X24161Y-280611D01*
X24216Y-280658D01*
X24286Y-280713D01*
X24373Y-280776D01*
X24467Y-280831D01*
X24569Y-280894D01*
X24687Y-280956D01*
X24812Y-281012D01*
X24954Y-281059D01*
X25103Y-281098D01*
X25260Y-281129D01*
X25425Y-281153D01*
X25605Y-281161D01*
X25652Y-281161D01*
X25699Y-281153D01*
X25770Y-281153D01*
X25848Y-281137D01*
X25943Y-281129D01*
X26052Y-281106D01*
X26170Y-281082D01*
X26288Y-281051D01*
X26414Y-281004D01*
X26539Y-280956D01*
X26665Y-280894D01*
X26790Y-280823D01*
X26908Y-280737D01*
X27026Y-280635D01*
X27128Y-280525D01*
X27136Y-280517D01*
X27151Y-280494D01*
X27175Y-280454D01*
X27214Y-280407D01*
X27253Y-280336D01*
X27300Y-280258D01*
X27348Y-280164D01*
X27395Y-280054D01*
X27442Y-279928D01*
X27497Y-279795D01*
X27536Y-279646D01*
X27575Y-279481D01*
X27614Y-279308D01*
X27638Y-279112D01*
X27654Y-278908D01*
X27661Y-278696D01*
X27661Y-278680D01*
X27661Y-278641D01*
X27661Y-278578D01*
X27654Y-278500D01*
X27646Y-278398D01*
X27630Y-278288D01*
X27614Y-278155D01*
X27599Y-278021D01*
X27528Y-277723D01*
X27489Y-277574D01*
X27434Y-277417D01*
X27379Y-277268D01*
X27300Y-277126D01*
X27222Y-276985D01*
X27128Y-276860D01*
X27120Y-276852D01*
X27104Y-276828D01*
X27073Y-276797D01*
X27026Y-276758D01*
X26971Y-276710D01*
X26908Y-276656D01*
X26830Y-276593D01*
X26735Y-276530D01*
X26633Y-276475D01*
X26523Y-276412D01*
X26398Y-276357D01*
X26264Y-276310D01*
X26115Y-276271D01*
X25958Y-276239D01*
X25786Y-276216D01*
X25605Y-276208D01*
X25605Y-276208D02*
G37*
G36*
X9500Y-276208D02*
X9460Y-276208D01*
X9406Y-276216D01*
X9335Y-276216D01*
X9256Y-276232D01*
X9162Y-276239D01*
X9052Y-276263D01*
X8935Y-276294D01*
X8817Y-276326D01*
X8691Y-276373D01*
X8558Y-276428D01*
X8432Y-276491D01*
X8299Y-276569D01*
X8173Y-276656D01*
X8056Y-276758D01*
X7946Y-276875D01*
X7938Y-276883D01*
X7922Y-276907D01*
X7891Y-276946D01*
X7859Y-277001D01*
X7812Y-277064D01*
X7765Y-277150D01*
X7710Y-277244D01*
X7663Y-277354D01*
X7608Y-277480D01*
X7553Y-277621D01*
X7506Y-277770D01*
X7459Y-277935D01*
X7428Y-278115D01*
X7396Y-278304D01*
X7381Y-278508D01*
X7373Y-278720D01*
X7373Y-278735D01*
X7373Y-278767D01*
X7381Y-278830D01*
X7381Y-278908D01*
X7388Y-279002D01*
X7404Y-279112D01*
X7420Y-279238D01*
X7443Y-279371D01*
X7475Y-279512D01*
X7514Y-279654D01*
X7561Y-279803D01*
X7616Y-279952D01*
X7679Y-280101D01*
X7757Y-280242D01*
X7844Y-280384D01*
X7946Y-280509D01*
X7954Y-280517D01*
X7969Y-280541D01*
X8008Y-280572D01*
X8056Y-280611D01*
X8111Y-280658D01*
X8181Y-280713D01*
X8267Y-280776D01*
X8362Y-280831D01*
X8464Y-280894D01*
X8582Y-280956D01*
X8707Y-281012D01*
X8848Y-281059D01*
X8997Y-281098D01*
X9154Y-281129D01*
X9319Y-281153D01*
X9500Y-281161D01*
X9547Y-281161D01*
X9594Y-281153D01*
X9665Y-281153D01*
X9743Y-281137D01*
X9837Y-281129D01*
X9947Y-281106D01*
X10065Y-281082D01*
X10183Y-281051D01*
X10308Y-281004D01*
X10434Y-280956D01*
X10559Y-280894D01*
X10685Y-280823D01*
X10803Y-280737D01*
X10920Y-280635D01*
X11022Y-280525D01*
X11030Y-280517D01*
X11046Y-280494D01*
X11070Y-280454D01*
X11109Y-280407D01*
X11148Y-280336D01*
X11195Y-280258D01*
X11242Y-280164D01*
X11289Y-280054D01*
X11336Y-279928D01*
X11391Y-279795D01*
X11430Y-279646D01*
X11470Y-279481D01*
X11509Y-279308D01*
X11532Y-279112D01*
X11548Y-278908D01*
X11556Y-278696D01*
X11556Y-278680D01*
X11556Y-278641D01*
X11556Y-278578D01*
X11548Y-278500D01*
X11540Y-278398D01*
X11525Y-278288D01*
X11509Y-278155D01*
X11493Y-278021D01*
X11423Y-277723D01*
X11383Y-277574D01*
X11329Y-277417D01*
X11273Y-277268D01*
X11195Y-277126D01*
X11117Y-276985D01*
X11022Y-276860D01*
X11014Y-276852D01*
X10999Y-276828D01*
X10967Y-276797D01*
X10920Y-276758D01*
X10865Y-276710D01*
X10803Y-276656D01*
X10724Y-276593D01*
X10630Y-276530D01*
X10528Y-276475D01*
X10418Y-276412D01*
X10293Y-276357D01*
X10159Y-276310D01*
X10010Y-276271D01*
X9853Y-276239D01*
X9680Y-276216D01*
X9500Y-276208D01*
X9500Y-276208D02*
G37*
G36*
X-18426Y-273744D02*
X-18488Y-273744D01*
X-18559Y-273752D01*
X-18661Y-273759D01*
X-18779Y-273775D01*
X-18920Y-273799D01*
X-19069Y-273830D01*
X-19234Y-273869D01*
X-19414Y-273924D01*
X-19603Y-273987D01*
X-19791Y-274073D01*
X-19980Y-274167D01*
X-20176Y-274285D01*
X-20356Y-274419D01*
X-20537Y-274576D01*
X-20710Y-274756D01*
X-20717Y-274764D01*
X-20749Y-274803D01*
X-20788Y-274858D01*
X-20843Y-274937D01*
X-20914Y-275039D01*
X-20984Y-275164D01*
X-21063Y-275306D01*
X-21141Y-275470D01*
X-21228Y-275651D01*
X-21306Y-275855D01*
X-21377Y-276075D01*
X-21447Y-276310D01*
X-21502Y-276561D01*
X-21542Y-276836D01*
X-21573Y-277119D01*
X-21581Y-277425D01*
X-21581Y-277432D01*
X-21581Y-277440D01*
X-21581Y-277464D01*
X-21581Y-277495D01*
X-21581Y-277535D01*
X-21573Y-277582D01*
X-21565Y-277699D01*
X-21557Y-277841D01*
X-21534Y-277998D01*
X-21510Y-278178D01*
X-21471Y-278374D01*
X-21432Y-278578D01*
X-21369Y-278798D01*
X-21306Y-279018D01*
X-21220Y-279238D01*
X-21126Y-279457D01*
X-21008Y-279677D01*
X-20874Y-279881D01*
X-20725Y-280077D01*
X-20717Y-280085D01*
X-20686Y-280117D01*
X-20639Y-280172D01*
X-20568Y-280235D01*
X-20482Y-280313D01*
X-20380Y-280391D01*
X-20262Y-280486D01*
X-20129Y-280580D01*
X-19972Y-280674D01*
X-19807Y-280760D01*
X-19619Y-280847D01*
X-19422Y-280925D01*
X-19210Y-280988D01*
X-18983Y-281035D01*
X-18747Y-281074D01*
X-18496Y-281082D01*
X-18433Y-281082D01*
X-18355Y-281074D01*
X-18253Y-281066D01*
X-18127Y-281051D01*
X-17986Y-281035D01*
X-17829Y-281004D01*
X-17656Y-280964D01*
X-17476Y-280909D01*
X-17287Y-280847D01*
X-17091Y-280768D01*
X-16903Y-280674D01*
X-16707Y-280572D01*
X-16526Y-280438D01*
X-16346Y-280289D01*
X-16181Y-280125D01*
X-16173Y-280117D01*
X-16142Y-280077D01*
X-16102Y-280023D01*
X-16047Y-279944D01*
X-15985Y-279850D01*
X-15914Y-279732D01*
X-15835Y-279591D01*
X-15757Y-279426D01*
X-15679Y-279245D01*
X-15600Y-279049D01*
X-15529Y-278830D01*
X-15467Y-278586D01*
X-15412Y-278327D01*
X-15373Y-278053D01*
X-15341Y-277754D01*
X-15333Y-277440D01*
X-15333Y-277432D01*
X-15333Y-277417D01*
X-15333Y-277393D01*
X-15333Y-277362D01*
X-15333Y-277323D01*
X-15341Y-277268D01*
X-15349Y-277150D01*
X-15357Y-277001D01*
X-15380Y-276828D01*
X-15404Y-276640D01*
X-15435Y-276436D01*
X-15482Y-276224D01*
X-15537Y-275996D01*
X-15600Y-275769D01*
X-15679Y-275541D01*
X-15773Y-275321D01*
X-15883Y-275102D01*
X-16008Y-274897D01*
X-16157Y-274709D01*
X-16165Y-274701D01*
X-16197Y-274670D01*
X-16244Y-274623D01*
X-16306Y-274560D01*
X-16393Y-274481D01*
X-16495Y-274403D01*
X-16612Y-274317D01*
X-16746Y-274222D01*
X-16903Y-274136D01*
X-17076Y-274050D01*
X-17256Y-273963D01*
X-17460Y-273893D01*
X-17680Y-273830D01*
X-17915Y-273783D01*
X-18159Y-273752D01*
X-18426Y-273744D01*
X-18426Y-273744D02*
G37*
%LPD*%
D20*
X400478Y-126917D02*
X400002Y-125489D01*
X400002Y-124537D01*
X400478Y-123108D01*
X401907Y-122156D01*
X404287Y-121680D01*
X406667Y-121680D01*
X408572Y-122156D01*
X409524Y-123108D01*
X410000Y-124537D01*
X410000Y-125013D01*
X409524Y-126441D01*
X408572Y-127393D01*
X407144Y-127869D01*
X406667Y-127869D01*
X405239Y-127393D01*
X404287Y-126441D01*
X403811Y-125013D01*
X403811Y-124537D01*
X404287Y-123108D01*
X405239Y-122156D01*
X406667Y-121680D01*
X409048Y-119014D02*
X409524Y-118538D01*
X410000Y-119014D01*
X409524Y-119490D01*
X409048Y-119014D01*
X408096Y-115824D02*
X405715Y-116300D01*
X404287Y-116300D01*
X401907Y-115824D01*
X400478Y-114872D01*
X400002Y-113444D01*
X400002Y-112491D01*
X400478Y-111063D01*
X401907Y-110111D01*
X404287Y-109635D01*
X405715Y-109635D01*
X408096Y-110111D01*
X409524Y-111063D01*
X410000Y-112491D01*
X410000Y-113444D01*
X409524Y-114872D01*
X408096Y-115824D01*
X405715Y-106683D02*
X405715Y-98114D01*
X405715Y-95400D02*
X408096Y-94924D01*
X409524Y-93972D01*
X410000Y-92543D01*
X410000Y-91591D01*
X409524Y-90163D01*
X408572Y-89687D01*
X408096Y-86497D02*
X405715Y-86973D01*
X404287Y-86973D01*
X401907Y-86497D01*
X400478Y-85545D01*
X400002Y-84117D01*
X400002Y-83164D01*
X400478Y-81736D01*
X401907Y-80784D01*
X404287Y-80308D01*
X405715Y-80308D01*
X408096Y-80784D01*
X409524Y-81736D01*
X410000Y-83164D01*
X410000Y-84117D01*
X409524Y-85545D01*
X408096Y-86497D01*
X405715Y-90639D02*
X404763Y-89687D01*
X403335Y-89211D01*
X402859Y-89211D01*
X401430Y-89687D01*
X400478Y-90639D01*
X400002Y-92067D01*
X400002Y-92543D01*
X400478Y-93972D01*
X401430Y-94924D01*
X403335Y-95400D01*
X404763Y-94924D01*
X405715Y-93972D01*
X406191Y-92543D01*
X406191Y-92067D01*
X405715Y-90639D01*
X405715Y-95400D02*
X403335Y-95400D01*
X401430Y-73928D02*
X400002Y-75356D01*
X410000Y-75356D01*
X401430Y-73928D02*
X401907Y-72976D01*
X401430Y-27393D02*
X400478Y-26917D01*
X400002Y-25489D01*
X400002Y-24537D01*
X400478Y-23108D01*
X401906Y-22156D01*
X404287Y-21680D01*
X406667Y-21680D01*
X408572Y-22156D01*
X409524Y-23108D01*
X410000Y-24537D01*
X410000Y-25013D01*
X409524Y-26441D01*
X408572Y-27393D01*
X407143Y-27869D01*
X406667Y-27869D01*
X405239Y-27393D01*
X404287Y-26441D01*
X403811Y-25013D01*
X403811Y-24537D01*
X404287Y-23108D01*
X405239Y-22156D01*
X406667Y-21680D01*
X409048Y-19014D02*
X409524Y-18538D01*
X410000Y-19014D01*
X409524Y-19490D01*
X409048Y-19014D01*
X408096Y-15824D02*
X405715Y-16300D01*
X404287Y-16300D01*
X401906Y-15824D01*
X400478Y-14872D01*
X400002Y-13444D01*
X400002Y-12492D01*
X400478Y-11063D01*
X401906Y-10111D01*
X404287Y-9635D01*
X405715Y-9635D01*
X408096Y-10111D01*
X409524Y-11063D01*
X410000Y-12492D01*
X410000Y-13444D01*
X409524Y-14872D01*
X408096Y-15824D01*
X405715Y-6683D02*
X405715Y1886D01*
X405715Y4600D02*
X408096Y5076D01*
X409524Y6028D01*
X410000Y7456D01*
X410000Y8409D01*
X409524Y9837D01*
X408572Y10313D01*
X408096Y13503D02*
X405715Y13027D01*
X404287Y13027D01*
X401906Y13503D01*
X400478Y14455D01*
X400002Y15883D01*
X400002Y16835D01*
X400478Y18264D01*
X401906Y19216D01*
X404287Y19692D01*
X405715Y19692D01*
X408096Y19216D01*
X409524Y18264D01*
X410000Y16835D01*
X410000Y15883D01*
X409524Y14455D01*
X408096Y13503D01*
X405715Y9361D02*
X404763Y10313D01*
X403335Y10789D01*
X402859Y10789D01*
X401430Y10313D01*
X400478Y9361D01*
X400002Y7933D01*
X400002Y7456D01*
X400478Y6028D01*
X401430Y5076D01*
X403335Y4600D01*
X404763Y5076D01*
X405715Y6028D01*
X406191Y7456D01*
X406191Y7933D01*
X405715Y9361D01*
X410000Y24643D02*
X400002Y24643D01*
X401430Y26071D01*
X401906Y27024D01*
X403335Y4600D02*
X405715Y4600D01*
X477752Y-46670D02*
X484417Y-46670D01*
X482989Y-52335D02*
X483941Y-53288D01*
X484417Y-54240D01*
X484417Y-56144D01*
X483941Y-57096D01*
X482989Y-58048D01*
X482037Y-58524D01*
X480609Y-58524D01*
X480609Y-56144D01*
X480609Y-51383D02*
X482037Y-51859D01*
X482989Y-52335D01*
X484500Y-82381D02*
X474502Y-82381D01*
X475930Y-80952D01*
X476407Y-80000D01*
X476407Y-87808D02*
X478787Y-87332D01*
X480215Y-87332D01*
X482596Y-87808D01*
X484024Y-88760D01*
X484500Y-90188D01*
X484500Y-91140D01*
X484024Y-92569D01*
X482596Y-93521D01*
X480215Y-93997D01*
X478787Y-93997D01*
X476407Y-93521D01*
X474978Y-92569D01*
X474502Y-91140D01*
X474502Y-90188D01*
X474978Y-88760D01*
X476407Y-87808D01*
X477359Y-96235D02*
X475930Y-96711D01*
X474978Y-97663D01*
X474502Y-99091D01*
X474502Y-99567D01*
X474978Y-100996D01*
X475930Y-101948D01*
X477835Y-102424D01*
X479263Y-101948D01*
X480215Y-100996D01*
X480691Y-99567D01*
X480691Y-99091D01*
X480215Y-97663D01*
X479263Y-96711D01*
X477835Y-96235D01*
X477359Y-96235D01*
X477835Y-102424D02*
X480215Y-102424D01*
X482596Y-101948D01*
X484024Y-100996D01*
X484500Y-99567D01*
X484500Y-98615D01*
X484024Y-97187D01*
X483072Y-96711D01*
X482596Y-117135D02*
X484024Y-118087D01*
X484500Y-119515D01*
X484500Y-120468D01*
X484024Y-121896D01*
X482596Y-122848D01*
X480215Y-123324D01*
X478787Y-123324D01*
X476407Y-122848D01*
X474978Y-121896D01*
X474502Y-120468D01*
X474502Y-119515D01*
X474978Y-118087D01*
X476407Y-117135D01*
X478787Y-116659D01*
X480215Y-116659D01*
X482596Y-117135D01*
X484024Y-125562D02*
X484500Y-126038D01*
X484024Y-126514D01*
X483548Y-126038D01*
X484024Y-125562D01*
X483072Y-129180D02*
X484024Y-130132D01*
X484500Y-131560D01*
X484500Y-132037D01*
X484024Y-133465D01*
X483072Y-134417D01*
X481643Y-134893D01*
X481167Y-134893D01*
X479739Y-134417D01*
X478787Y-133465D01*
X478311Y-132037D01*
X478311Y-131560D01*
X478787Y-130132D01*
X479739Y-129180D01*
X481167Y-128704D01*
X483072Y-129180D01*
X481167Y-128704D02*
X478787Y-128704D01*
X476407Y-129180D01*
X474978Y-130132D01*
X474502Y-131560D01*
X474502Y-132513D01*
X474978Y-133941D01*
X475930Y-134417D01*
X480215Y-113707D02*
X480215Y-105138D01*
X476800Y-58524D02*
X475848Y-58048D01*
X474896Y-57096D01*
X474419Y-56144D01*
X474419Y-54240D01*
X474896Y-53288D01*
X475848Y-52335D01*
X476800Y-51859D01*
X478228Y-51383D01*
X480609Y-51383D01*
X477752Y-50479D02*
X477752Y-49050D01*
X478228Y-48098D01*
X479180Y-47146D01*
X480609Y-46670D01*
X482989Y-44528D02*
X483941Y-43575D01*
X484417Y-42623D01*
X484417Y-41195D01*
X483941Y-40243D01*
X482989Y-39290D01*
X481561Y-38814D01*
X480609Y-38814D01*
X480609Y-44528D01*
X479656Y-44528D01*
X478704Y-44051D01*
X478228Y-43575D01*
X477752Y-42623D01*
X477752Y-41195D01*
X478228Y-40243D01*
X479180Y-39290D01*
X480609Y-38814D01*
X479656Y-36196D02*
X484417Y-36196D01*
X484417Y-30959D02*
X474419Y-30959D01*
X479656Y-30959D02*
X478228Y-32387D01*
X477752Y-33339D01*
X477752Y-34768D01*
X478228Y-35720D01*
X479656Y-36196D01*
X479180Y-28864D02*
X478228Y-28388D01*
X477752Y-26960D01*
X477752Y-25531D01*
X478228Y-24103D01*
X479180Y-23627D01*
X480132Y-24103D01*
X480609Y-25055D01*
X481085Y-27436D01*
X481561Y-28388D01*
X482513Y-28864D01*
X482989Y-28864D01*
X483941Y-28388D01*
X484417Y-26960D01*
X484417Y-25531D01*
X483941Y-24103D01*
X482989Y-23627D01*
X482989Y-20961D02*
X483941Y-20009D01*
X484417Y-19057D01*
X484417Y-17629D01*
X483941Y-16676D01*
X482989Y-15724D01*
X481561Y-15248D01*
X480609Y-15248D01*
X479180Y-15724D01*
X478228Y-16676D01*
X477752Y-17629D01*
X477752Y-19057D01*
X478228Y-20009D01*
X479180Y-20961D01*
X477752Y-20961D02*
X484417Y-20961D01*
X484417Y-10868D02*
X474419Y-8488D01*
X484417Y-6107D01*
X474419Y-3727D01*
X478228Y-1156D02*
X477752Y272D01*
X477752Y1701D01*
X478228Y3129D01*
X479180Y3605D01*
X480132Y3129D01*
X480609Y2177D01*
X481085Y-204D01*
X481561Y-1156D01*
X482513Y-1632D01*
X482989Y-1632D01*
X483941Y-1156D01*
X484417Y272D01*
X484417Y1701D01*
X483941Y3129D01*
X482989Y3605D01*
X482989Y6271D02*
X483941Y7223D01*
X484417Y8176D01*
X484417Y9604D01*
X483941Y10556D01*
X482989Y11508D01*
X481561Y11984D01*
X480609Y11984D01*
X479180Y11508D01*
X478228Y10556D01*
X477752Y9604D01*
X477752Y8176D01*
X478228Y7223D01*
X479180Y6271D01*
X477752Y6271D02*
X485369Y6271D01*
X486798Y6747D01*
X487274Y7223D01*
X487750Y8176D01*
X487750Y9604D01*
X487274Y10556D01*
X484417Y14603D02*
X479656Y14603D01*
X478228Y15079D01*
X477752Y16031D01*
X477752Y17459D01*
X478228Y18411D01*
X479656Y19840D01*
X477752Y19840D02*
X484417Y19840D01*
X484417Y22077D02*
X477752Y22077D01*
X474896Y22077D02*
X474419Y21601D01*
X473943Y22077D01*
X474419Y22553D01*
X474896Y22077D01*
X474896Y26695D02*
X475372Y26219D01*
X476324Y25743D01*
X477276Y25743D01*
X478228Y26219D01*
X478704Y26695D01*
X479180Y28124D01*
X479180Y32408D01*
X479180Y35075D02*
X478228Y36027D01*
X477752Y36979D01*
X477752Y38407D01*
X478228Y39359D01*
X479180Y40311D01*
X480609Y40788D01*
X481561Y40788D01*
X482989Y40311D01*
X483941Y39359D01*
X484417Y38407D01*
X484417Y36979D01*
X483941Y36027D01*
X482989Y35075D01*
X484417Y35075D02*
X474419Y35075D01*
X474419Y32408D02*
X484417Y32408D01*
X484417Y25743D02*
X479180Y29076D01*
X474419Y28124D02*
X474896Y26695D01*
X474419Y28124D02*
X474419Y32408D01*
X478228Y-1156D02*
X479180Y-1632D01*
X474419Y-13248D02*
X484417Y-10868D01*
X484417Y45501D02*
X477752Y45501D01*
X479180Y45025D02*
X478228Y44073D01*
X477752Y43120D01*
X477752Y41692D01*
X479180Y45025D02*
X480609Y45501D01*
X479180Y48167D02*
X478228Y49119D01*
X477752Y50071D01*
X477752Y51500D01*
X478228Y52452D01*
X479180Y53404D01*
X480609Y53880D01*
X481561Y53880D01*
X482989Y53404D01*
X483941Y52452D01*
X484417Y51500D01*
X484417Y50071D01*
X483941Y49119D01*
X482989Y48167D01*
X484417Y48167D02*
X477752Y48167D01*
X479180Y56546D02*
X478228Y57498D01*
X477752Y58450D01*
X477752Y59879D01*
X478228Y60831D01*
X479180Y61783D01*
X480609Y62259D01*
X481561Y62259D01*
X482989Y61783D01*
X483941Y60831D01*
X484417Y59879D01*
X484417Y58450D01*
X483941Y57498D01*
X482989Y56546D01*
X481561Y56070D01*
X480609Y56070D01*
X479180Y56546D01*
X482989Y64878D02*
X483941Y65830D01*
X484417Y66782D01*
X484417Y68210D01*
X483941Y69162D01*
X482989Y70115D01*
X484417Y70115D02*
X474419Y70115D01*
X474419Y72781D02*
X484417Y72781D01*
X483941Y73733D02*
X482989Y72781D01*
X483941Y73733D02*
X484417Y74685D01*
X484417Y76113D01*
X483941Y77066D01*
X482989Y78018D01*
X481561Y78494D01*
X480609Y78494D01*
X479180Y78018D01*
X478228Y77066D01*
X477752Y76113D01*
X477752Y74685D01*
X478228Y73733D01*
X479180Y72781D01*
X479180Y70115D02*
X478228Y69162D01*
X477752Y68210D01*
X477752Y66782D01*
X478228Y65830D01*
X479180Y64878D01*
X480609Y64401D01*
X481561Y64401D01*
X482989Y64878D01*
X482989Y81160D02*
X483941Y82112D01*
X484417Y83064D01*
X484417Y84493D01*
X483941Y85445D01*
X482989Y86397D01*
X481561Y86873D01*
X480609Y86873D01*
X479180Y86397D01*
X478228Y85445D01*
X477752Y84493D01*
X477752Y83064D01*
X478228Y82112D01*
X479180Y81160D01*
X477752Y81160D02*
X484417Y81160D01*
X483941Y89967D02*
X482989Y89015D01*
X483941Y89967D02*
X484417Y90920D01*
X484417Y92348D01*
X483941Y93300D01*
X482989Y94252D01*
X481561Y94728D01*
X480609Y94728D01*
X480609Y89015D01*
X479656Y89015D01*
X478704Y89491D01*
X478228Y89967D01*
X477752Y90920D01*
X477752Y92348D01*
X478228Y93300D01*
X479180Y94252D01*
X480609Y94728D01*
X477752Y95633D02*
X477752Y97061D01*
X478228Y98013D01*
X479180Y98966D01*
X480609Y99442D01*
X481085Y101679D02*
X482513Y101679D01*
X483465Y102155D01*
X483941Y102631D01*
X484417Y104060D01*
X484417Y108344D01*
X474419Y108344D01*
X474419Y104060D01*
X474896Y102631D01*
X475372Y102155D01*
X476324Y101679D01*
X477276Y101679D01*
X478228Y102155D01*
X478704Y102631D01*
X479180Y104060D01*
X479656Y102631D01*
X480132Y102155D01*
X481085Y101679D01*
X479180Y104060D02*
X479180Y108344D01*
X479180Y110487D02*
X478228Y111439D01*
X477752Y112391D01*
X477752Y113820D01*
X478228Y114772D01*
X479180Y115724D01*
X480609Y116200D01*
X481561Y116200D01*
X482989Y115724D01*
X483941Y114772D01*
X484417Y113820D01*
X484417Y112391D01*
X483941Y111439D01*
X482989Y110487D01*
X482989Y118866D02*
X483941Y119818D01*
X484417Y120770D01*
X484417Y122199D01*
X483941Y123151D01*
X482989Y124103D01*
X481561Y124579D01*
X480609Y124579D01*
X479180Y124103D01*
X478228Y123151D01*
X477752Y122199D01*
X477752Y120770D01*
X478228Y119818D01*
X479180Y118866D01*
X477752Y118866D02*
X484417Y118866D01*
X484417Y99442D02*
X477752Y99442D01*
X482989Y127245D02*
X483941Y128197D01*
X484417Y129150D01*
X484417Y130578D01*
X483941Y131530D01*
X482989Y132482D01*
X481561Y132958D01*
X480609Y132958D01*
X479180Y132482D01*
X478228Y131530D01*
X477752Y130578D01*
X477752Y129150D01*
X478228Y128197D01*
X479180Y127245D01*
X474419Y127245D02*
X484417Y127245D01*
X483941Y136053D02*
X482989Y135101D01*
X483941Y136053D02*
X484417Y137005D01*
X484417Y138433D01*
X483941Y139385D01*
X482989Y140338D01*
X481561Y140814D01*
X480609Y140814D01*
X479180Y140338D01*
X478228Y139385D01*
X477752Y138433D01*
X477752Y137005D01*
X478228Y136053D01*
X479180Y135101D01*
X479180Y143480D02*
X478228Y144432D01*
X477752Y145384D01*
X477752Y146812D01*
X478228Y147765D01*
X479180Y148717D01*
X480609Y149193D01*
X481561Y149193D01*
X482989Y148717D01*
X483941Y147765D01*
X484417Y146812D01*
X484417Y145384D01*
X483941Y144432D01*
X482989Y143480D01*
X484417Y143480D02*
X477752Y143480D01*
X483465Y152240D02*
X483941Y152716D01*
X484417Y153668D01*
X484417Y154620D01*
X483941Y155573D01*
X483465Y156049D01*
X482037Y156525D01*
X481085Y156525D01*
X482037Y151764D02*
X483465Y152240D01*
X482037Y151764D02*
X474419Y151764D01*
X409524Y206028D02*
X410000Y207456D01*
X410000Y208409D01*
X409524Y209837D01*
X408572Y210313D01*
X408096Y213503D02*
X405715Y213027D01*
X404287Y213027D01*
X401906Y213503D01*
X400478Y214455D01*
X400002Y215883D01*
X400002Y216835D01*
X400478Y218264D01*
X401906Y219216D01*
X404287Y219692D01*
X405715Y219692D01*
X408096Y219216D01*
X409524Y218264D01*
X410000Y216835D01*
X410000Y215883D01*
X409524Y214455D01*
X408096Y213503D01*
X405715Y209361D02*
X404763Y210313D01*
X403335Y210789D01*
X402859Y210789D01*
X401430Y210313D01*
X400478Y209361D01*
X400002Y207932D01*
X400002Y207456D01*
X400478Y206028D01*
X401430Y205076D01*
X403335Y204600D01*
X404763Y205076D01*
X405715Y206028D01*
X406191Y207456D01*
X406191Y207932D01*
X405715Y209361D01*
X405715Y204600D02*
X408096Y205076D01*
X409524Y206028D01*
X405715Y204600D02*
X403335Y204600D01*
X401430Y226071D02*
X400002Y224643D01*
X410000Y224643D01*
X401430Y226071D02*
X401906Y227024D01*
X405715Y201886D02*
X405715Y193317D01*
X405715Y190365D02*
X408096Y189889D01*
X409524Y188937D01*
X410000Y187508D01*
X410000Y186556D01*
X409524Y185128D01*
X408096Y184176D01*
X405715Y183700D01*
X404287Y183700D01*
X401906Y184176D01*
X400478Y185128D01*
X400002Y186556D01*
X400002Y187508D01*
X400478Y188937D01*
X401906Y189889D01*
X404287Y190365D01*
X405715Y190365D01*
X409524Y181462D02*
X410000Y180986D01*
X409524Y180510D01*
X409048Y180986D01*
X409524Y181462D01*
X408572Y177844D02*
X409524Y176891D01*
X410000Y175463D01*
X410000Y174987D01*
X409524Y173559D01*
X408572Y172607D01*
X407143Y172131D01*
X406667Y172131D01*
X405239Y172607D01*
X404287Y173559D01*
X403811Y174987D01*
X403811Y175463D01*
X404287Y176891D01*
X405239Y177844D01*
X406667Y178320D01*
X408572Y177844D01*
X406667Y178320D02*
X404287Y178320D01*
X401906Y177844D01*
X400478Y176891D01*
X400002Y175463D01*
X400002Y174511D01*
X400478Y173083D01*
X401430Y172607D01*
X401906Y127024D02*
X401430Y126072D01*
X400002Y124643D01*
X410000Y124643D01*
X405715Y119692D02*
X408096Y119216D01*
X409524Y118264D01*
X410000Y116835D01*
X410000Y115883D01*
X409524Y114455D01*
X408096Y113503D01*
X405715Y113027D01*
X404287Y113027D01*
X401906Y113503D01*
X400478Y114455D01*
X400002Y115883D01*
X400002Y116835D01*
X400478Y118264D01*
X401906Y119216D01*
X404287Y119692D01*
X405715Y119692D01*
X405715Y109361D02*
X404763Y110313D01*
X403335Y110789D01*
X402859Y110789D01*
X401430Y110313D01*
X400478Y109361D01*
X400002Y107933D01*
X400002Y107456D01*
X400478Y106028D01*
X401430Y105076D01*
X403335Y104600D01*
X404763Y105076D01*
X405715Y106028D01*
X406191Y107456D01*
X406191Y107933D01*
X405715Y109361D01*
X408572Y110313D02*
X409524Y109837D01*
X410000Y108409D01*
X410000Y107456D01*
X409524Y106028D01*
X408096Y105076D01*
X405715Y104600D01*
X403335Y104600D01*
X405715Y101886D02*
X405715Y93317D01*
X405715Y90365D02*
X408096Y89889D01*
X409524Y88937D01*
X410000Y87508D01*
X410000Y86556D01*
X409524Y85128D01*
X408096Y84176D01*
X405715Y83700D01*
X404287Y83700D01*
X401906Y84176D01*
X400478Y85128D01*
X400002Y86556D01*
X400002Y87508D01*
X400478Y88937D01*
X401906Y89889D01*
X404287Y90365D01*
X405715Y90365D01*
X409524Y81462D02*
X410000Y80986D01*
X409524Y80510D01*
X409048Y80986D01*
X409524Y81462D01*
X408572Y77844D02*
X409524Y76891D01*
X410000Y75463D01*
X410000Y74987D01*
X409524Y73559D01*
X408572Y72607D01*
X407143Y72131D01*
X406667Y72131D01*
X405239Y72607D01*
X404287Y73559D01*
X403811Y74987D01*
X403811Y75463D01*
X404287Y76891D01*
X405239Y77844D01*
X406667Y78320D01*
X408572Y77844D01*
X406667Y78320D02*
X404287Y78320D01*
X401906Y77844D01*
X400478Y76891D01*
X400002Y75463D01*
X400002Y74511D01*
X400478Y73083D01*
X401430Y72607D01*
X401430Y-127393D02*
X400478Y-126917D01*
X400478Y273083D02*
X400002Y274511D01*
X400002Y275464D01*
X400478Y276892D01*
X401907Y277844D01*
X404287Y278320D01*
X406667Y278320D01*
X408572Y277844D01*
X409524Y276892D01*
X410000Y275464D01*
X410000Y274987D01*
X409524Y273559D01*
X408572Y272607D01*
X407144Y272131D01*
X406667Y272131D01*
X405239Y272607D01*
X404287Y273559D01*
X403811Y274987D01*
X403811Y275464D01*
X404287Y276892D01*
X405239Y277844D01*
X406667Y278320D01*
X409048Y280986D02*
X409524Y281462D01*
X410000Y280986D01*
X409524Y280510D01*
X409048Y280986D01*
X408096Y284176D02*
X405715Y283700D01*
X404287Y283700D01*
X401907Y284176D01*
X400478Y285128D01*
X400002Y286556D01*
X400002Y287509D01*
X400478Y288937D01*
X401907Y289889D01*
X404287Y290365D01*
X405715Y290365D01*
X408096Y289889D01*
X409524Y288937D01*
X410000Y287509D01*
X410000Y286556D01*
X409524Y285128D01*
X408096Y284176D01*
X401430Y272607D02*
X400478Y273083D01*
X405715Y293317D02*
X405715Y301886D01*
X405715Y304600D02*
X408096Y305076D01*
X409524Y306028D01*
X410000Y307457D01*
X410000Y308409D01*
X409524Y309837D01*
X408572Y310313D01*
X405715Y309361D02*
X404763Y310313D01*
X403335Y310789D01*
X402859Y310789D01*
X401430Y310313D01*
X400478Y309361D01*
X400002Y307933D01*
X400002Y307457D01*
X400478Y306028D01*
X401430Y305076D01*
X403335Y304600D01*
X404763Y305076D01*
X405715Y306028D01*
X406191Y307457D01*
X406191Y307933D01*
X405715Y309361D01*
X405715Y304600D02*
X403335Y304600D01*
X404287Y313027D02*
X401907Y313503D01*
X400478Y314455D01*
X400002Y315883D01*
X400002Y316836D01*
X400478Y318264D01*
X401907Y319216D01*
X404287Y319692D01*
X405715Y319692D01*
X408096Y319216D01*
X409524Y318264D01*
X410000Y316836D01*
X410000Y315883D01*
X409524Y314455D01*
X408096Y313503D01*
X405715Y313027D01*
X404287Y313027D01*
X401430Y326072D02*
X400002Y324643D01*
X410000Y324643D01*
X401430Y326072D02*
X401907Y327024D01*
X401430Y372606D02*
X400478Y373082D01*
X400002Y374511D01*
X400002Y375463D01*
X400478Y376891D01*
X401907Y377843D01*
X404287Y378319D01*
X406667Y378319D01*
X408572Y377843D01*
X409524Y376891D01*
X410000Y375463D01*
X410000Y374987D01*
X409524Y373559D01*
X408572Y372606D01*
X407144Y372130D01*
X406667Y372130D01*
X405239Y372606D01*
X404287Y373559D01*
X403811Y374987D01*
X403811Y375463D01*
X404287Y376891D01*
X405239Y377843D01*
X406667Y378319D01*
X409048Y380985D02*
X409524Y381461D01*
X410000Y380985D01*
X409524Y380509D01*
X409048Y380985D01*
X408096Y384175D02*
X405715Y383699D01*
X404287Y383699D01*
X401907Y384175D01*
X400478Y385127D01*
X400002Y386556D01*
X400002Y387508D01*
X400478Y388936D01*
X401907Y389888D01*
X404287Y390364D01*
X405715Y390364D01*
X408096Y389888D01*
X409524Y388936D01*
X410000Y387508D01*
X410000Y386556D01*
X409524Y385127D01*
X408096Y384175D01*
X405715Y393316D02*
X405715Y401886D01*
X405715Y404599D02*
X408096Y405075D01*
X409524Y406028D01*
X410000Y407456D01*
X410000Y408408D01*
X409524Y409836D01*
X408572Y410312D01*
X408096Y413502D02*
X405715Y413026D01*
X404287Y413026D01*
X401907Y413502D01*
X400478Y414454D01*
X400002Y415883D01*
X400002Y416835D01*
X400478Y418263D01*
X401907Y419215D01*
X404287Y419691D01*
X405715Y419691D01*
X408096Y419215D01*
X409524Y418263D01*
X410000Y416835D01*
X410000Y415883D01*
X409524Y414454D01*
X408096Y413502D01*
X405715Y409360D02*
X404763Y410312D01*
X403335Y410789D01*
X402859Y410789D01*
X401430Y410312D01*
X400478Y409360D01*
X400002Y407932D01*
X400002Y407456D01*
X400478Y406028D01*
X401430Y405075D01*
X403335Y404599D01*
X404763Y405075D01*
X405715Y406028D01*
X406191Y407456D01*
X406191Y407932D01*
X405715Y409360D01*
X405715Y404599D02*
X403335Y404599D01*
X401430Y426071D02*
X400002Y424643D01*
X410000Y424643D01*
X401430Y426071D02*
X401907Y427023D01*
D28*
X479540Y-148875D02*
D03*
M02*
