G04*
G04 #@! TF.GenerationSoftware,Altium Limited,Altium Designer,21.9.2 (33)*
G04*
G04 Layer_Physical_Order=1*
G04 Layer_Color=255*
%FSLAX42Y42*%
%MOMM*%
G71*
G04*
G04 #@! TF.SameCoordinates,C9CDC17D-2FD3-46DB-A318-01BEEBB1E299*
G04*
G04*
G04 #@! TF.FilePolarity,Positive*
G04*
G01*
G75*
%ADD12C,0.25*%
%ADD15C,0.20*%
%ADD18R,1.40X3.00*%
%ADD19R,1.20X1.45*%
%ADD20R,0.50X0.55*%
%ADD21R,0.55X0.50*%
%ADD22R,0.90X0.60*%
%ADD24R,0.40X1.35*%
%ADD25R,0.50X0.55*%
G04:AMPARAMS|DCode=26|XSize=0.9mm|YSize=0.7mm|CornerRadius=0mm|HoleSize=0mm|Usage=FLASHONLY|Rotation=0.000|XOffset=0mm|YOffset=0mm|HoleType=Round|Shape=RoundedRectangle|*
%AMROUNDEDRECTD26*
21,1,0.90,0.70,0,0,0.0*
21,1,0.90,0.70,0,0,0.0*
1,1,0.00,0.45,-0.35*
1,1,0.00,-0.45,-0.35*
1,1,0.00,-0.45,0.35*
1,1,0.00,0.45,0.35*
%
%ADD26ROUNDEDRECTD26*%
G04:AMPARAMS|DCode=27|XSize=0.6mm|YSize=0.65mm|CornerRadius=0.08mm|HoleSize=0mm|Usage=FLASHONLY|Rotation=270.000|XOffset=0mm|YOffset=0mm|HoleType=Round|Shape=RoundedRectangle|*
%AMROUNDEDRECTD27*
21,1,0.60,0.50,0,0,270.0*
21,1,0.45,0.65,0,0,270.0*
1,1,0.15,-0.25,-0.23*
1,1,0.15,-0.25,0.23*
1,1,0.15,0.25,0.23*
1,1,0.15,0.25,-0.23*
%
%ADD27ROUNDEDRECTD27*%
%ADD28R,0.70X1.00*%
%ADD29R,0.90X0.40*%
%ADD30R,0.80X0.60*%
%ADD31R,0.80X0.90*%
%ADD32R,0.90X0.60*%
%ADD33R,0.55X0.50*%
G04:AMPARAMS|DCode=50|XSize=0.9mm|YSize=3.45mm|CornerRadius=0.35mm|HoleSize=0mm|Usage=FLASHONLY|Rotation=180.000|XOffset=0mm|YOffset=0mm|HoleType=Round|Shape=RoundedRectangle|*
%AMROUNDEDRECTD50*
21,1,0.90,2.75,0,0,180.0*
21,1,0.20,3.45,0,0,180.0*
1,1,0.70,-0.10,1.37*
1,1,0.70,0.10,1.37*
1,1,0.70,0.10,-1.37*
1,1,0.70,-0.10,-1.37*
%
%ADD50ROUNDEDRECTD50*%
G04:AMPARAMS|DCode=51|XSize=0.9mm|YSize=2.95mm|CornerRadius=0.35mm|HoleSize=0mm|Usage=FLASHONLY|Rotation=180.000|XOffset=0mm|YOffset=0mm|HoleType=Round|Shape=RoundedRectangle|*
%AMROUNDEDRECTD51*
21,1,0.90,2.25,0,0,180.0*
21,1,0.20,2.95,0,0,180.0*
1,1,0.70,-0.10,1.12*
1,1,0.70,0.10,1.12*
1,1,0.70,0.10,-1.12*
1,1,0.70,-0.10,-1.12*
%
%ADD51ROUNDEDRECTD51*%
%ADD56C,1.10*%
%ADD58R,0.70X0.40*%
%ADD59C,0.50*%
%ADD60C,0.30*%
%ADD61C,0.75*%
%ADD62C,0.35*%
%ADD63C,0.45*%
%ADD64C,0.15*%
%ADD65C,1.52*%
%ADD66C,4.40*%
%ADD67C,1.11*%
%ADD68R,1.11X1.11*%
%ADD69C,0.60*%
G36*
X4583Y4890D02*
X4584Y4890D01*
X4585Y4890D01*
X4586Y4890D01*
X4587Y4889D01*
X4589Y4889D01*
X4590Y4889D01*
X4592Y4888D01*
X4593Y4887D01*
X4595Y4887D01*
X4597Y4886D01*
X4598Y4884D01*
X4600Y4883D01*
X4601Y4882D01*
X4601Y4881D01*
X4601Y4881D01*
X4602Y4881D01*
X4602Y4880D01*
X4603Y4879D01*
X4603Y4878D01*
X4604Y4877D01*
X4604Y4876D01*
X4605Y4874D01*
X4606Y4872D01*
X4606Y4870D01*
X4607Y4868D01*
X4607Y4866D01*
X4608Y4864D01*
X4608Y4861D01*
X4608Y4859D01*
X4608Y4859D01*
X4608Y4858D01*
X4608Y4858D01*
X4608Y4858D01*
X4608Y4857D01*
X4608Y4856D01*
X4608Y4855D01*
X4608Y4853D01*
X4607Y4851D01*
X4607Y4849D01*
X4606Y4848D01*
X4606Y4845D01*
X4605Y4843D01*
X4605Y4841D01*
X4604Y4839D01*
X4603Y4837D01*
X4601Y4835D01*
X4600Y4833D01*
X4600Y4833D01*
X4600Y4833D01*
X4599Y4832D01*
X4599Y4832D01*
X4598Y4831D01*
X4597Y4830D01*
X4596Y4829D01*
X4595Y4828D01*
X4593Y4827D01*
X4592Y4827D01*
X4590Y4826D01*
X4588Y4825D01*
X4586Y4824D01*
X4584Y4824D01*
X4581Y4824D01*
X4579Y4823D01*
X4578Y4823D01*
X4578Y4824D01*
X4577Y4824D01*
X4576Y4824D01*
X4575Y4824D01*
X4573Y4824D01*
X4572Y4825D01*
X4570Y4825D01*
X4569Y4826D01*
X4567Y4827D01*
X4566Y4828D01*
X4564Y4829D01*
X4562Y4831D01*
X4561Y4832D01*
X4560Y4834D01*
X4559Y4834D01*
X4559Y4796D01*
X4549Y4796D01*
X4549Y4889D01*
X4559Y4889D01*
X4559Y4877D01*
X4560Y4877D01*
X4560Y4878D01*
X4560Y4878D01*
X4561Y4879D01*
X4561Y4879D01*
X4562Y4880D01*
X4563Y4881D01*
X4564Y4883D01*
X4565Y4884D01*
X4567Y4885D01*
X4568Y4886D01*
X4570Y4887D01*
X4572Y4888D01*
X4574Y4889D01*
X4577Y4890D01*
X4579Y4890D01*
X4582Y4890D01*
X4582Y4890D01*
X4583Y4890D01*
X4583Y4890D02*
G37*
G36*
X4941Y4890D02*
X4942Y4890D01*
X4943Y4890D01*
X4944Y4889D01*
X4945Y4889D01*
X4946Y4889D01*
X4946Y4878D01*
X4945Y4878D01*
X4945Y4879D01*
X4944Y4879D01*
X4944Y4879D01*
X4942Y4880D01*
X4941Y4880D01*
X4940Y4880D01*
X4938Y4880D01*
X4937Y4880D01*
X4937Y4880D01*
X4936Y4880D01*
X4936Y4880D01*
X4934Y4880D01*
X4933Y4879D01*
X4932Y4879D01*
X4931Y4878D01*
X4930Y4878D01*
X4930Y4877D01*
X4929Y4876D01*
X4928Y4875D01*
X4927Y4874D01*
X4927Y4874D01*
X4927Y4874D01*
X4926Y4874D01*
X4926Y4873D01*
X4926Y4872D01*
X4925Y4872D01*
X4925Y4871D01*
X4925Y4870D01*
X4924Y4869D01*
X4924Y4867D01*
X4924Y4866D01*
X4923Y4865D01*
X4923Y4863D01*
X4923Y4861D01*
X4923Y4859D01*
X4922Y4857D01*
X4922Y4825D01*
X4912Y4825D01*
X4912Y4889D01*
X4922Y4889D01*
X4922Y4876D01*
X4923Y4876D01*
X4923Y4876D01*
X4923Y4876D01*
X4923Y4876D01*
X4923Y4877D01*
X4923Y4877D01*
X4924Y4878D01*
X4924Y4879D01*
X4925Y4881D01*
X4926Y4883D01*
X4928Y4884D01*
X4929Y4886D01*
X4929Y4886D01*
X4930Y4886D01*
X4930Y4886D01*
X4930Y4887D01*
X4931Y4887D01*
X4931Y4887D01*
X4932Y4888D01*
X4934Y4889D01*
X4936Y4889D01*
X4937Y4890D01*
X4938Y4890D01*
X4939Y4890D01*
X4940Y4890D01*
X4941Y4890D01*
X4941Y4890D02*
G37*
G36*
X4805Y4815D02*
X4805Y4815D01*
X4805Y4815D01*
X4805Y4814D01*
X4805Y4814D01*
X4805Y4813D01*
X4805Y4813D01*
X4804Y4812D01*
X4803Y4810D01*
X4802Y4808D01*
X4801Y4807D01*
X4800Y4805D01*
X4798Y4803D01*
X4797Y4801D01*
X4795Y4800D01*
X4793Y4798D01*
X4791Y4797D01*
X4790Y4796D01*
X4788Y4796D01*
X4787Y4795D01*
X4786Y4795D01*
X4785Y4795D01*
X4783Y4795D01*
X4783Y4795D01*
X4782Y4795D01*
X4781Y4795D01*
X4780Y4795D01*
X4779Y4795D01*
X4778Y4796D01*
X4777Y4796D01*
X4777Y4805D01*
X4777Y4805D01*
X4777Y4805D01*
X4778Y4805D01*
X4779Y4804D01*
X4780Y4804D01*
X4781Y4804D01*
X4782Y4804D01*
X4783Y4804D01*
X4783Y4804D01*
X4783Y4804D01*
X4784Y4804D01*
X4785Y4804D01*
X4785Y4804D01*
X4786Y4805D01*
X4787Y4805D01*
X4788Y4806D01*
X4789Y4806D01*
X4790Y4807D01*
X4791Y4808D01*
X4792Y4809D01*
X4793Y4810D01*
X4794Y4811D01*
X4794Y4813D01*
X4799Y4825D01*
X4775Y4889D01*
X4786Y4889D01*
X4803Y4840D01*
X4803Y4840D01*
X4803Y4839D01*
X4803Y4839D01*
X4803Y4839D01*
X4804Y4838D01*
X4804Y4837D01*
X4804Y4836D01*
X4804Y4835D01*
X4805Y4835D01*
X4805Y4835D01*
X4805Y4835D01*
X4805Y4835D01*
X4805Y4836D01*
X4805Y4837D01*
X4805Y4837D01*
X4806Y4838D01*
X4806Y4840D01*
X4824Y4889D01*
X4835Y4889D01*
X4805Y4815D01*
X4805Y4815D02*
G37*
G36*
X4743Y4890D02*
X4744Y4890D01*
X4744Y4890D01*
X4745Y4890D01*
X4746Y4890D01*
X4747Y4889D01*
X4749Y4889D01*
X4751Y4888D01*
X4754Y4887D01*
X4756Y4886D01*
X4757Y4885D01*
X4758Y4884D01*
X4759Y4883D01*
X4760Y4883D01*
X4760Y4881D01*
X4761Y4880D01*
X4762Y4879D01*
X4763Y4877D01*
X4763Y4876D01*
X4764Y4874D01*
X4764Y4873D01*
X4764Y4871D01*
X4765Y4869D01*
X4765Y4866D01*
X4765Y4825D01*
X4755Y4825D01*
X4755Y4835D01*
X4754Y4835D01*
X4754Y4835D01*
X4754Y4834D01*
X4754Y4834D01*
X4753Y4833D01*
X4752Y4832D01*
X4751Y4831D01*
X4751Y4830D01*
X4749Y4829D01*
X4748Y4828D01*
X4747Y4827D01*
X4745Y4826D01*
X4743Y4825D01*
X4741Y4825D01*
X4739Y4824D01*
X4737Y4824D01*
X4735Y4823D01*
X4734Y4823D01*
X4733Y4824D01*
X4732Y4824D01*
X4731Y4824D01*
X4730Y4824D01*
X4729Y4824D01*
X4727Y4825D01*
X4726Y4825D01*
X4724Y4826D01*
X4723Y4826D01*
X4722Y4827D01*
X4721Y4828D01*
X4720Y4829D01*
X4720Y4829D01*
X4720Y4829D01*
X4719Y4829D01*
X4719Y4829D01*
X4718Y4830D01*
X4718Y4831D01*
X4718Y4831D01*
X4717Y4832D01*
X4717Y4833D01*
X4716Y4834D01*
X4716Y4835D01*
X4715Y4836D01*
X4715Y4838D01*
X4715Y4839D01*
X4714Y4840D01*
X4714Y4842D01*
X4714Y4842D01*
X4714Y4842D01*
X4714Y4842D01*
X4714Y4843D01*
X4714Y4843D01*
X4715Y4844D01*
X4715Y4845D01*
X4715Y4846D01*
X4716Y4848D01*
X4716Y4849D01*
X4717Y4851D01*
X4718Y4853D01*
X4720Y4855D01*
X4720Y4856D01*
X4721Y4857D01*
X4722Y4857D01*
X4723Y4858D01*
X4724Y4859D01*
X4726Y4860D01*
X4727Y4860D01*
X4729Y4861D01*
X4730Y4861D01*
X4732Y4862D01*
X4734Y4862D01*
X4735Y4863D01*
X4755Y4865D01*
X4755Y4865D01*
X4755Y4865D01*
X4755Y4866D01*
X4755Y4866D01*
X4754Y4867D01*
X4754Y4868D01*
X4754Y4869D01*
X4754Y4871D01*
X4753Y4872D01*
X4753Y4873D01*
X4752Y4875D01*
X4751Y4876D01*
X4750Y4878D01*
X4749Y4879D01*
X4747Y4880D01*
X4746Y4881D01*
X4745Y4881D01*
X4744Y4881D01*
X4743Y4881D01*
X4741Y4882D01*
X4741Y4882D01*
X4740Y4881D01*
X4739Y4881D01*
X4738Y4881D01*
X4737Y4881D01*
X4736Y4881D01*
X4735Y4881D01*
X4733Y4880D01*
X4731Y4880D01*
X4730Y4879D01*
X4728Y4878D01*
X4726Y4877D01*
X4724Y4876D01*
X4722Y4875D01*
X4721Y4874D01*
X4721Y4884D01*
X4721Y4884D01*
X4721Y4884D01*
X4722Y4885D01*
X4722Y4885D01*
X4723Y4886D01*
X4724Y4886D01*
X4725Y4887D01*
X4727Y4887D01*
X4728Y4888D01*
X4730Y4888D01*
X4732Y4889D01*
X4734Y4889D01*
X4736Y4890D01*
X4738Y4890D01*
X4740Y4890D01*
X4742Y4890D01*
X4743Y4890D01*
X4743Y4890D01*
X4743Y4890D02*
G37*
G36*
X4671Y4834D02*
X4707Y4834D01*
X4707Y4825D01*
X4661Y4825D01*
X4661Y4914D01*
X4671Y4914D01*
X4671Y4834D01*
X4671Y4834D02*
G37*
G36*
X4462Y4905D02*
X4436Y4905D01*
X4436Y4825D01*
X4426Y4825D01*
X4426Y4905D01*
X4400Y4905D01*
X4400Y4914D01*
X4462Y4914D01*
X4462Y4905D01*
X4462Y4905D02*
G37*
G36*
X4872Y4890D02*
X4873Y4890D01*
X4874Y4890D01*
X4875Y4890D01*
X4876Y4889D01*
X4878Y4889D01*
X4879Y4889D01*
X4881Y4888D01*
X4882Y4888D01*
X4884Y4887D01*
X4886Y4886D01*
X4887Y4885D01*
X4889Y4883D01*
X4890Y4882D01*
X4890Y4882D01*
X4890Y4882D01*
X4891Y4881D01*
X4891Y4881D01*
X4892Y4880D01*
X4892Y4879D01*
X4893Y4878D01*
X4893Y4876D01*
X4894Y4875D01*
X4895Y4873D01*
X4895Y4871D01*
X4896Y4869D01*
X4896Y4867D01*
X4897Y4865D01*
X4897Y4862D01*
X4897Y4860D01*
X4897Y4854D01*
X4852Y4854D01*
X4852Y4854D01*
X4852Y4854D01*
X4852Y4853D01*
X4852Y4853D01*
X4852Y4852D01*
X4852Y4851D01*
X4852Y4849D01*
X4853Y4848D01*
X4853Y4846D01*
X4854Y4844D01*
X4854Y4843D01*
X4855Y4841D01*
X4856Y4840D01*
X4857Y4839D01*
X4858Y4838D01*
X4858Y4838D01*
X4858Y4838D01*
X4858Y4837D01*
X4859Y4837D01*
X4859Y4836D01*
X4860Y4836D01*
X4861Y4835D01*
X4861Y4835D01*
X4863Y4834D01*
X4864Y4834D01*
X4865Y4833D01*
X4866Y4833D01*
X4868Y4833D01*
X4869Y4832D01*
X4871Y4832D01*
X4873Y4832D01*
X4873Y4832D01*
X4874Y4832D01*
X4874Y4832D01*
X4875Y4832D01*
X4876Y4832D01*
X4878Y4833D01*
X4879Y4833D01*
X4881Y4833D01*
X4882Y4834D01*
X4884Y4834D01*
X4886Y4835D01*
X4887Y4836D01*
X4889Y4837D01*
X4891Y4838D01*
X4892Y4839D01*
X4892Y4830D01*
X4892Y4829D01*
X4892Y4829D01*
X4892Y4829D01*
X4891Y4829D01*
X4890Y4828D01*
X4889Y4828D01*
X4888Y4827D01*
X4887Y4827D01*
X4885Y4826D01*
X4883Y4825D01*
X4882Y4825D01*
X4880Y4824D01*
X4877Y4824D01*
X4875Y4824D01*
X4873Y4824D01*
X4870Y4823D01*
X4870Y4823D01*
X4869Y4824D01*
X4868Y4824D01*
X4867Y4824D01*
X4865Y4824D01*
X4864Y4824D01*
X4863Y4825D01*
X4861Y4825D01*
X4859Y4826D01*
X4857Y4826D01*
X4856Y4827D01*
X4854Y4828D01*
X4852Y4829D01*
X4851Y4831D01*
X4849Y4832D01*
X4849Y4832D01*
X4849Y4833D01*
X4848Y4833D01*
X4848Y4834D01*
X4847Y4835D01*
X4847Y4836D01*
X4846Y4837D01*
X4845Y4838D01*
X4844Y4840D01*
X4844Y4842D01*
X4843Y4844D01*
X4843Y4846D01*
X4842Y4848D01*
X4842Y4851D01*
X4841Y4854D01*
X4841Y4857D01*
X4841Y4857D01*
X4841Y4857D01*
X4841Y4857D01*
X4841Y4857D01*
X4841Y4858D01*
X4841Y4859D01*
X4842Y4860D01*
X4842Y4862D01*
X4842Y4863D01*
X4842Y4865D01*
X4843Y4867D01*
X4843Y4869D01*
X4844Y4871D01*
X4845Y4873D01*
X4846Y4875D01*
X4847Y4877D01*
X4848Y4879D01*
X4850Y4881D01*
X4850Y4881D01*
X4850Y4881D01*
X4851Y4882D01*
X4851Y4882D01*
X4852Y4883D01*
X4853Y4884D01*
X4854Y4885D01*
X4856Y4885D01*
X4857Y4886D01*
X4859Y4887D01*
X4860Y4888D01*
X4862Y4889D01*
X4864Y4889D01*
X4866Y4890D01*
X4868Y4890D01*
X4871Y4890D01*
X4871Y4890D01*
X4872Y4890D01*
X4872Y4890D02*
G37*
G36*
X4504Y4890D02*
X4505Y4890D01*
X4506Y4890D01*
X4508Y4890D01*
X4509Y4889D01*
X4511Y4889D01*
X4513Y4889D01*
X4514Y4888D01*
X4516Y4887D01*
X4518Y4887D01*
X4520Y4885D01*
X4522Y4884D01*
X4523Y4883D01*
X4525Y4881D01*
X4525Y4881D01*
X4525Y4881D01*
X4526Y4880D01*
X4526Y4880D01*
X4527Y4879D01*
X4527Y4878D01*
X4528Y4877D01*
X4529Y4875D01*
X4530Y4873D01*
X4530Y4872D01*
X4531Y4870D01*
X4532Y4867D01*
X4532Y4865D01*
X4533Y4863D01*
X4533Y4860D01*
X4533Y4857D01*
X4533Y4857D01*
X4533Y4857D01*
X4533Y4857D01*
X4533Y4856D01*
X4533Y4856D01*
X4533Y4855D01*
X4533Y4853D01*
X4532Y4852D01*
X4532Y4850D01*
X4532Y4848D01*
X4531Y4846D01*
X4531Y4844D01*
X4530Y4842D01*
X4529Y4840D01*
X4528Y4838D01*
X4527Y4836D01*
X4526Y4834D01*
X4524Y4833D01*
X4524Y4833D01*
X4524Y4832D01*
X4523Y4832D01*
X4523Y4831D01*
X4522Y4830D01*
X4521Y4830D01*
X4520Y4829D01*
X4518Y4828D01*
X4517Y4827D01*
X4515Y4826D01*
X4513Y4826D01*
X4511Y4825D01*
X4509Y4824D01*
X4506Y4824D01*
X4504Y4824D01*
X4501Y4823D01*
X4501Y4823D01*
X4500Y4824D01*
X4499Y4824D01*
X4498Y4824D01*
X4496Y4824D01*
X4495Y4824D01*
X4493Y4825D01*
X4491Y4825D01*
X4490Y4826D01*
X4488Y4826D01*
X4486Y4827D01*
X4484Y4828D01*
X4482Y4829D01*
X4480Y4831D01*
X4479Y4832D01*
X4479Y4832D01*
X4478Y4833D01*
X4478Y4833D01*
X4477Y4834D01*
X4477Y4835D01*
X4476Y4836D01*
X4475Y4837D01*
X4474Y4839D01*
X4474Y4840D01*
X4473Y4842D01*
X4472Y4844D01*
X4472Y4846D01*
X4471Y4848D01*
X4471Y4851D01*
X4470Y4853D01*
X4470Y4856D01*
X4470Y4856D01*
X4470Y4856D01*
X4470Y4856D01*
X4470Y4857D01*
X4470Y4858D01*
X4470Y4859D01*
X4470Y4860D01*
X4471Y4862D01*
X4471Y4863D01*
X4471Y4865D01*
X4472Y4867D01*
X4472Y4869D01*
X4473Y4871D01*
X4474Y4873D01*
X4475Y4876D01*
X4476Y4877D01*
X4477Y4879D01*
X4479Y4881D01*
X4479Y4881D01*
X4479Y4882D01*
X4480Y4882D01*
X4481Y4883D01*
X4481Y4883D01*
X4483Y4884D01*
X4484Y4885D01*
X4485Y4886D01*
X4487Y4887D01*
X4489Y4887D01*
X4491Y4888D01*
X4493Y4889D01*
X4495Y4889D01*
X4497Y4890D01*
X4500Y4890D01*
X4503Y4890D01*
X4503Y4890D01*
X4504Y4890D01*
X4504Y4890D02*
G37*
G36*
X5014Y4510D02*
X5015Y4509D01*
X5015Y4509D01*
X5016Y4509D01*
X5017Y4508D01*
X5018Y4508D01*
X5018Y4508D01*
X5018Y4507D01*
X5018Y4507D01*
X5019Y4506D01*
X5019Y4506D01*
X5019Y4505D01*
X5020Y4504D01*
X5020Y4503D01*
X5020Y4503D01*
X5020Y4503D01*
X5020Y4502D01*
X5019Y4501D01*
X5019Y4501D01*
X5019Y4500D01*
X5018Y4499D01*
X5018Y4498D01*
X5018Y4498D01*
X5017Y4498D01*
X5017Y4498D01*
X5016Y4497D01*
X5016Y4497D01*
X5015Y4497D01*
X5014Y4496D01*
X5013Y4496D01*
X5013Y4496D01*
X5012Y4496D01*
X5011Y4497D01*
X5011Y4497D01*
X5010Y4497D01*
X5009Y4498D01*
X5008Y4498D01*
X5008Y4498D01*
X5008Y4499D01*
X5008Y4499D01*
X5007Y4500D01*
X5007Y4500D01*
X5007Y4501D01*
X5006Y4502D01*
X5006Y4503D01*
X5006Y4503D01*
X5006Y4503D01*
X5006Y4504D01*
X5007Y4505D01*
X5007Y4505D01*
X5007Y4506D01*
X5008Y4507D01*
X5008Y4508D01*
X5008Y4508D01*
X5009Y4508D01*
X5009Y4508D01*
X5010Y4509D01*
X5010Y4509D01*
X5011Y4509D01*
X5012Y4510D01*
X5013Y4510D01*
X5013Y4510D01*
X5014Y4510D01*
X5014Y4510D02*
G37*
G36*
X4710Y4416D02*
X4700Y4416D01*
X4700Y4427D01*
X4700Y4427D01*
X4699Y4427D01*
X4699Y4427D01*
X4699Y4426D01*
X4698Y4425D01*
X4697Y4424D01*
X4697Y4423D01*
X4695Y4422D01*
X4694Y4421D01*
X4693Y4420D01*
X4691Y4419D01*
X4689Y4418D01*
X4687Y4417D01*
X4685Y4416D01*
X4683Y4416D01*
X4680Y4415D01*
X4678Y4415D01*
X4677Y4415D01*
X4676Y4415D01*
X4676Y4415D01*
X4675Y4415D01*
X4673Y4415D01*
X4672Y4416D01*
X4671Y4416D01*
X4669Y4416D01*
X4668Y4417D01*
X4666Y4418D01*
X4664Y4419D01*
X4663Y4420D01*
X4661Y4421D01*
X4660Y4422D01*
X4658Y4424D01*
X4658Y4424D01*
X4658Y4424D01*
X4658Y4424D01*
X4657Y4425D01*
X4657Y4426D01*
X4656Y4427D01*
X4655Y4428D01*
X4655Y4430D01*
X4654Y4431D01*
X4654Y4433D01*
X4653Y4435D01*
X4652Y4437D01*
X4652Y4439D01*
X4652Y4442D01*
X4651Y4444D01*
X4651Y4447D01*
X4651Y4447D01*
X4651Y4447D01*
X4651Y4447D01*
X4651Y4447D01*
X4651Y4448D01*
X4651Y4449D01*
X4651Y4451D01*
X4652Y4452D01*
X4652Y4454D01*
X4652Y4456D01*
X4653Y4458D01*
X4653Y4460D01*
X4654Y4462D01*
X4655Y4464D01*
X4655Y4466D01*
X4657Y4468D01*
X4658Y4470D01*
X4659Y4472D01*
X4659Y4472D01*
X4660Y4473D01*
X4660Y4473D01*
X4661Y4474D01*
X4661Y4474D01*
X4662Y4475D01*
X4664Y4476D01*
X4665Y4477D01*
X4666Y4478D01*
X4668Y4479D01*
X4670Y4480D01*
X4671Y4480D01*
X4674Y4481D01*
X4676Y4481D01*
X4678Y4482D01*
X4680Y4482D01*
X4681Y4482D01*
X4682Y4482D01*
X4683Y4482D01*
X4684Y4481D01*
X4685Y4481D01*
X4686Y4481D01*
X4688Y4480D01*
X4689Y4480D01*
X4691Y4479D01*
X4692Y4478D01*
X4694Y4477D01*
X4695Y4476D01*
X4697Y4475D01*
X4698Y4473D01*
X4700Y4471D01*
X4700Y4471D01*
X4700Y4511D01*
X4710Y4511D01*
X4710Y4416D01*
X4710Y4416D02*
G37*
G36*
X5071Y4482D02*
X5072Y4482D01*
X5073Y4481D01*
X5074Y4481D01*
X5075Y4481D01*
X5076Y4481D01*
X5077Y4481D01*
X5078Y4480D01*
X5080Y4480D01*
X5081Y4479D01*
X5082Y4478D01*
X5084Y4477D01*
X5085Y4476D01*
X5086Y4475D01*
X5086Y4475D01*
X5086Y4475D01*
X5086Y4474D01*
X5087Y4474D01*
X5087Y4473D01*
X5088Y4472D01*
X5088Y4471D01*
X5089Y4470D01*
X5089Y4469D01*
X5090Y4467D01*
X5090Y4466D01*
X5091Y4464D01*
X5091Y4462D01*
X5091Y4460D01*
X5091Y4458D01*
X5091Y4455D01*
X5091Y4416D01*
X5081Y4416D01*
X5081Y4453D01*
X5081Y4453D01*
X5081Y4453D01*
X5081Y4453D01*
X5081Y4454D01*
X5081Y4454D01*
X5081Y4455D01*
X5081Y4456D01*
X5081Y4458D01*
X5080Y4459D01*
X5080Y4461D01*
X5079Y4463D01*
X5079Y4465D01*
X5078Y4467D01*
X5076Y4468D01*
X5075Y4470D01*
X5073Y4471D01*
X5072Y4472D01*
X5071Y4472D01*
X5070Y4473D01*
X5069Y4473D01*
X5068Y4473D01*
X5066Y4473D01*
X5066Y4473D01*
X5065Y4473D01*
X5065Y4473D01*
X5064Y4473D01*
X5063Y4473D01*
X5062Y4472D01*
X5061Y4472D01*
X5060Y4472D01*
X5059Y4471D01*
X5058Y4471D01*
X5057Y4470D01*
X5056Y4469D01*
X5055Y4468D01*
X5054Y4467D01*
X5054Y4467D01*
X5054Y4467D01*
X5053Y4467D01*
X5053Y4466D01*
X5053Y4466D01*
X5052Y4465D01*
X5052Y4464D01*
X5051Y4463D01*
X5051Y4462D01*
X5050Y4461D01*
X5050Y4460D01*
X5050Y4459D01*
X5049Y4457D01*
X5049Y4456D01*
X5049Y4454D01*
X5049Y4453D01*
X5049Y4416D01*
X5039Y4416D01*
X5039Y4480D01*
X5049Y4480D01*
X5049Y4470D01*
X5049Y4470D01*
X5049Y4470D01*
X5049Y4470D01*
X5050Y4471D01*
X5050Y4472D01*
X5051Y4472D01*
X5052Y4473D01*
X5053Y4475D01*
X5054Y4476D01*
X5056Y4477D01*
X5057Y4478D01*
X5059Y4479D01*
X5061Y4480D01*
X5063Y4481D01*
X5065Y4481D01*
X5067Y4482D01*
X5070Y4482D01*
X5070Y4482D01*
X5071Y4482D01*
X5071Y4482D02*
G37*
G36*
X4640Y4481D02*
X4641Y4481D01*
X4642Y4481D01*
X4643Y4481D01*
X4644Y4481D01*
X4644Y4480D01*
X4644Y4470D01*
X4644Y4470D01*
X4644Y4470D01*
X4643Y4470D01*
X4643Y4471D01*
X4641Y4471D01*
X4640Y4472D01*
X4639Y4472D01*
X4637Y4472D01*
X4636Y4472D01*
X4636Y4472D01*
X4635Y4472D01*
X4634Y4472D01*
X4633Y4471D01*
X4632Y4471D01*
X4631Y4470D01*
X4630Y4470D01*
X4629Y4469D01*
X4628Y4469D01*
X4628Y4468D01*
X4627Y4467D01*
X4626Y4466D01*
X4626Y4466D01*
X4626Y4465D01*
X4625Y4465D01*
X4625Y4465D01*
X4625Y4464D01*
X4624Y4463D01*
X4624Y4462D01*
X4624Y4461D01*
X4623Y4460D01*
X4623Y4459D01*
X4622Y4458D01*
X4622Y4456D01*
X4622Y4454D01*
X4622Y4453D01*
X4621Y4451D01*
X4621Y4449D01*
X4621Y4416D01*
X4611Y4416D01*
X4611Y4480D01*
X4621Y4480D01*
X4621Y4467D01*
X4622Y4467D01*
X4622Y4467D01*
X4622Y4467D01*
X4622Y4468D01*
X4622Y4468D01*
X4622Y4469D01*
X4623Y4469D01*
X4623Y4471D01*
X4624Y4473D01*
X4625Y4474D01*
X4627Y4476D01*
X4628Y4478D01*
X4628Y4478D01*
X4629Y4478D01*
X4629Y4478D01*
X4629Y4478D01*
X4629Y4478D01*
X4630Y4479D01*
X4631Y4479D01*
X4633Y4480D01*
X4634Y4481D01*
X4636Y4481D01*
X4637Y4481D01*
X4638Y4481D01*
X4639Y4481D01*
X4640Y4481D01*
X4640Y4481D02*
G37*
G36*
X4913Y4416D02*
X4903Y4416D01*
X4903Y4427D01*
X4903Y4427D01*
X4903Y4426D01*
X4902Y4426D01*
X4902Y4425D01*
X4902Y4425D01*
X4901Y4424D01*
X4900Y4423D01*
X4899Y4422D01*
X4898Y4421D01*
X4897Y4420D01*
X4895Y4419D01*
X4894Y4418D01*
X4892Y4417D01*
X4890Y4416D01*
X4888Y4415D01*
X4885Y4415D01*
X4883Y4415D01*
X4882Y4415D01*
X4882Y4415D01*
X4882Y4415D01*
X4881Y4415D01*
X4880Y4415D01*
X4879Y4415D01*
X4878Y4416D01*
X4876Y4416D01*
X4874Y4417D01*
X4873Y4418D01*
X4872Y4418D01*
X4871Y4419D01*
X4870Y4420D01*
X4868Y4421D01*
X4867Y4422D01*
X4866Y4423D01*
X4865Y4424D01*
X4865Y4425D01*
X4864Y4426D01*
X4863Y4428D01*
X4862Y4430D01*
X4862Y4431D01*
X4861Y4433D01*
X4861Y4435D01*
X4860Y4437D01*
X4860Y4440D01*
X4860Y4442D01*
X4860Y4480D01*
X4870Y4480D01*
X4870Y4444D01*
X4870Y4444D01*
X4870Y4443D01*
X4870Y4443D01*
X4870Y4443D01*
X4870Y4442D01*
X4870Y4442D01*
X4871Y4441D01*
X4871Y4439D01*
X4871Y4437D01*
X4872Y4435D01*
X4872Y4434D01*
X4873Y4432D01*
X4874Y4430D01*
X4875Y4428D01*
X4877Y4427D01*
X4879Y4425D01*
X4880Y4425D01*
X4881Y4424D01*
X4882Y4424D01*
X4883Y4424D01*
X4884Y4424D01*
X4886Y4424D01*
X4887Y4424D01*
X4887Y4424D01*
X4888Y4424D01*
X4888Y4424D01*
X4889Y4424D01*
X4890Y4424D01*
X4891Y4424D01*
X4892Y4425D01*
X4893Y4425D01*
X4894Y4426D01*
X4895Y4427D01*
X4896Y4427D01*
X4897Y4428D01*
X4898Y4429D01*
X4898Y4429D01*
X4898Y4429D01*
X4899Y4430D01*
X4899Y4430D01*
X4899Y4431D01*
X4900Y4431D01*
X4900Y4432D01*
X4901Y4433D01*
X4901Y4434D01*
X4901Y4435D01*
X4902Y4436D01*
X4902Y4437D01*
X4902Y4439D01*
X4903Y4440D01*
X4903Y4442D01*
X4903Y4443D01*
X4903Y4480D01*
X4913Y4480D01*
X4913Y4416D01*
X4913Y4416D02*
G37*
G36*
X5018Y4416D02*
X5008Y4416D01*
X5008Y4480D01*
X5018Y4480D01*
X5018Y4416D01*
X5018Y4416D02*
G37*
G36*
X4987Y4416D02*
X4977Y4416D01*
X4977Y4511D01*
X4987Y4511D01*
X4987Y4416D01*
X4987Y4416D02*
G37*
G36*
X4570Y4482D02*
X4571Y4482D01*
X4572Y4482D01*
X4572Y4481D01*
X4573Y4481D01*
X4575Y4481D01*
X4577Y4480D01*
X4579Y4480D01*
X4581Y4479D01*
X4583Y4477D01*
X4584Y4477D01*
X4585Y4476D01*
X4586Y4475D01*
X4587Y4474D01*
X4588Y4473D01*
X4588Y4472D01*
X4589Y4470D01*
X4590Y4469D01*
X4590Y4467D01*
X4591Y4466D01*
X4591Y4464D01*
X4592Y4462D01*
X4592Y4460D01*
X4592Y4458D01*
X4592Y4416D01*
X4582Y4416D01*
X4582Y4426D01*
X4582Y4426D01*
X4581Y4426D01*
X4581Y4426D01*
X4581Y4425D01*
X4580Y4425D01*
X4580Y4424D01*
X4579Y4423D01*
X4578Y4422D01*
X4577Y4421D01*
X4575Y4420D01*
X4574Y4419D01*
X4572Y4418D01*
X4570Y4417D01*
X4569Y4416D01*
X4566Y4415D01*
X4564Y4415D01*
X4562Y4415D01*
X4561Y4415D01*
X4560Y4415D01*
X4560Y4415D01*
X4559Y4415D01*
X4558Y4415D01*
X4557Y4416D01*
X4554Y4416D01*
X4553Y4417D01*
X4552Y4417D01*
X4550Y4418D01*
X4549Y4418D01*
X4548Y4419D01*
X4547Y4420D01*
X4547Y4420D01*
X4547Y4420D01*
X4547Y4421D01*
X4546Y4421D01*
X4546Y4421D01*
X4545Y4422D01*
X4545Y4423D01*
X4544Y4424D01*
X4544Y4424D01*
X4543Y4426D01*
X4543Y4427D01*
X4543Y4428D01*
X4542Y4429D01*
X4542Y4430D01*
X4542Y4432D01*
X4542Y4433D01*
X4542Y4433D01*
X4542Y4434D01*
X4542Y4434D01*
X4542Y4434D01*
X4542Y4435D01*
X4542Y4435D01*
X4542Y4436D01*
X4542Y4438D01*
X4543Y4439D01*
X4543Y4441D01*
X4544Y4443D01*
X4545Y4445D01*
X4547Y4446D01*
X4548Y4447D01*
X4548Y4448D01*
X4550Y4449D01*
X4551Y4450D01*
X4552Y4450D01*
X4553Y4451D01*
X4554Y4452D01*
X4556Y4452D01*
X4557Y4453D01*
X4559Y4453D01*
X4561Y4454D01*
X4563Y4454D01*
X4582Y4457D01*
X4582Y4457D01*
X4582Y4457D01*
X4582Y4457D01*
X4582Y4458D01*
X4582Y4458D01*
X4582Y4459D01*
X4581Y4461D01*
X4581Y4462D01*
X4581Y4463D01*
X4580Y4465D01*
X4579Y4466D01*
X4579Y4468D01*
X4578Y4469D01*
X4576Y4471D01*
X4575Y4472D01*
X4573Y4472D01*
X4572Y4473D01*
X4571Y4473D01*
X4570Y4473D01*
X4569Y4473D01*
X4568Y4473D01*
X4568Y4473D01*
X4567Y4473D01*
X4566Y4473D01*
X4565Y4473D01*
X4563Y4472D01*
X4562Y4472D01*
X4560Y4472D01*
X4559Y4471D01*
X4557Y4471D01*
X4555Y4470D01*
X4553Y4469D01*
X4551Y4468D01*
X4550Y4467D01*
X4548Y4465D01*
X4548Y4476D01*
X4548Y4476D01*
X4548Y4476D01*
X4549Y4476D01*
X4550Y4477D01*
X4550Y4477D01*
X4551Y4478D01*
X4553Y4478D01*
X4554Y4479D01*
X4556Y4479D01*
X4557Y4480D01*
X4559Y4480D01*
X4561Y4481D01*
X4563Y4481D01*
X4565Y4481D01*
X4567Y4482D01*
X4570Y4482D01*
X4570Y4482D01*
X4570Y4482D01*
X4570Y4482D02*
G37*
G36*
X4427Y4506D02*
X4428Y4506D01*
X4429Y4505D01*
X4431Y4505D01*
X4432Y4505D01*
X4433Y4505D01*
X4435Y4504D01*
X4436Y4504D01*
X4438Y4503D01*
X4440Y4503D01*
X4441Y4502D01*
X4442Y4501D01*
X4444Y4500D01*
X4444Y4500D01*
X4444Y4500D01*
X4444Y4499D01*
X4445Y4499D01*
X4445Y4498D01*
X4446Y4498D01*
X4446Y4497D01*
X4447Y4496D01*
X4448Y4495D01*
X4448Y4494D01*
X4449Y4493D01*
X4449Y4491D01*
X4450Y4490D01*
X4450Y4489D01*
X4450Y4487D01*
X4450Y4485D01*
X4450Y4485D01*
X4450Y4485D01*
X4450Y4485D01*
X4450Y4484D01*
X4450Y4483D01*
X4450Y4483D01*
X4450Y4482D01*
X4450Y4481D01*
X4449Y4479D01*
X4449Y4477D01*
X4448Y4475D01*
X4448Y4474D01*
X4447Y4473D01*
X4446Y4472D01*
X4446Y4472D01*
X4446Y4472D01*
X4446Y4472D01*
X4446Y4471D01*
X4445Y4471D01*
X4445Y4470D01*
X4444Y4470D01*
X4443Y4469D01*
X4443Y4468D01*
X4442Y4468D01*
X4441Y4467D01*
X4440Y4466D01*
X4439Y4466D01*
X4438Y4465D01*
X4435Y4464D01*
X4435Y4464D01*
X4435Y4464D01*
X4435Y4464D01*
X4436Y4464D01*
X4437Y4464D01*
X4437Y4464D01*
X4438Y4463D01*
X4439Y4463D01*
X4440Y4463D01*
X4443Y4462D01*
X4444Y4461D01*
X4445Y4461D01*
X4446Y4460D01*
X4447Y4459D01*
X4449Y4458D01*
X4450Y4457D01*
X4450Y4457D01*
X4450Y4457D01*
X4450Y4457D01*
X4450Y4456D01*
X4451Y4455D01*
X4451Y4455D01*
X4452Y4454D01*
X4452Y4453D01*
X4453Y4452D01*
X4453Y4451D01*
X4454Y4450D01*
X4454Y4448D01*
X4454Y4447D01*
X4455Y4445D01*
X4455Y4444D01*
X4455Y4442D01*
X4455Y4442D01*
X4455Y4442D01*
X4455Y4441D01*
X4455Y4440D01*
X4455Y4439D01*
X4454Y4438D01*
X4454Y4437D01*
X4454Y4435D01*
X4453Y4434D01*
X4453Y4433D01*
X4452Y4431D01*
X4451Y4429D01*
X4451Y4428D01*
X4449Y4426D01*
X4448Y4425D01*
X4447Y4424D01*
X4447Y4423D01*
X4446Y4423D01*
X4446Y4423D01*
X4445Y4422D01*
X4444Y4422D01*
X4443Y4421D01*
X4442Y4421D01*
X4441Y4420D01*
X4440Y4419D01*
X4438Y4419D01*
X4436Y4418D01*
X4434Y4418D01*
X4432Y4417D01*
X4430Y4417D01*
X4428Y4417D01*
X4426Y4416D01*
X4400Y4416D01*
X4400Y4506D01*
X4426Y4506D01*
X4427Y4506D01*
X4427Y4506D02*
G37*
G36*
X4947Y4480D02*
X4963Y4480D01*
X4963Y4471D01*
X4947Y4471D01*
X4947Y4436D01*
X4947Y4435D01*
X4947Y4435D01*
X4947Y4435D01*
X4947Y4435D01*
X4947Y4434D01*
X4947Y4433D01*
X4948Y4432D01*
X4948Y4430D01*
X4948Y4429D01*
X4949Y4428D01*
X4949Y4427D01*
X4949Y4426D01*
X4949Y4426D01*
X4950Y4426D01*
X4950Y4426D01*
X4951Y4425D01*
X4952Y4424D01*
X4953Y4424D01*
X4955Y4424D01*
X4957Y4424D01*
X4957Y4424D01*
X4958Y4424D01*
X4959Y4424D01*
X4960Y4424D01*
X4961Y4424D01*
X4962Y4425D01*
X4963Y4426D01*
X4963Y4417D01*
X4963Y4417D01*
X4963Y4417D01*
X4963Y4417D01*
X4963Y4417D01*
X4962Y4416D01*
X4961Y4416D01*
X4959Y4416D01*
X4958Y4415D01*
X4956Y4415D01*
X4954Y4415D01*
X4953Y4415D01*
X4952Y4415D01*
X4951Y4415D01*
X4950Y4416D01*
X4948Y4416D01*
X4947Y4417D01*
X4945Y4418D01*
X4944Y4418D01*
X4942Y4420D01*
X4941Y4421D01*
X4940Y4422D01*
X4940Y4423D01*
X4939Y4424D01*
X4939Y4425D01*
X4938Y4426D01*
X4938Y4428D01*
X4937Y4429D01*
X4937Y4430D01*
X4937Y4432D01*
X4937Y4434D01*
X4937Y4471D01*
X4926Y4471D01*
X4926Y4480D01*
X4937Y4480D01*
X4937Y4496D01*
X4947Y4499D01*
X4947Y4480D01*
X4947Y4480D02*
G37*
G36*
X5137Y4482D02*
X5138Y4482D01*
X5139Y4481D01*
X5140Y4481D01*
X5141Y4481D01*
X5143Y4481D01*
X5144Y4480D01*
X5146Y4480D01*
X5147Y4479D01*
X5149Y4478D01*
X5151Y4477D01*
X5152Y4476D01*
X5154Y4475D01*
X5155Y4474D01*
X5155Y4473D01*
X5155Y4473D01*
X5156Y4473D01*
X5156Y4472D01*
X5157Y4471D01*
X5157Y4470D01*
X5158Y4469D01*
X5158Y4468D01*
X5159Y4466D01*
X5160Y4465D01*
X5160Y4463D01*
X5161Y4461D01*
X5161Y4458D01*
X5162Y4456D01*
X5162Y4454D01*
X5162Y4451D01*
X5162Y4446D01*
X5117Y4446D01*
X5117Y4446D01*
X5117Y4445D01*
X5117Y4445D01*
X5117Y4444D01*
X5117Y4443D01*
X5117Y4442D01*
X5117Y4441D01*
X5118Y4440D01*
X5118Y4437D01*
X5119Y4436D01*
X5119Y4434D01*
X5120Y4433D01*
X5121Y4432D01*
X5122Y4430D01*
X5123Y4429D01*
X5123Y4429D01*
X5123Y4429D01*
X5123Y4429D01*
X5124Y4428D01*
X5124Y4428D01*
X5125Y4427D01*
X5126Y4427D01*
X5127Y4426D01*
X5128Y4426D01*
X5129Y4425D01*
X5130Y4425D01*
X5131Y4424D01*
X5133Y4424D01*
X5134Y4424D01*
X5136Y4424D01*
X5138Y4424D01*
X5138Y4424D01*
X5139Y4424D01*
X5139Y4424D01*
X5140Y4424D01*
X5142Y4424D01*
X5143Y4424D01*
X5144Y4424D01*
X5146Y4425D01*
X5147Y4425D01*
X5149Y4426D01*
X5151Y4427D01*
X5152Y4427D01*
X5154Y4428D01*
X5156Y4429D01*
X5157Y4431D01*
X5157Y4421D01*
X5157Y4421D01*
X5157Y4421D01*
X5157Y4420D01*
X5156Y4420D01*
X5155Y4420D01*
X5154Y4419D01*
X5153Y4419D01*
X5152Y4418D01*
X5150Y4417D01*
X5148Y4417D01*
X5147Y4416D01*
X5145Y4416D01*
X5142Y4416D01*
X5140Y4415D01*
X5138Y4415D01*
X5135Y4415D01*
X5135Y4415D01*
X5134Y4415D01*
X5133Y4415D01*
X5132Y4415D01*
X5131Y4415D01*
X5129Y4416D01*
X5128Y4416D01*
X5126Y4417D01*
X5124Y4417D01*
X5122Y4418D01*
X5121Y4419D01*
X5119Y4420D01*
X5117Y4421D01*
X5116Y4422D01*
X5114Y4424D01*
X5114Y4424D01*
X5114Y4424D01*
X5113Y4425D01*
X5113Y4425D01*
X5112Y4426D01*
X5112Y4427D01*
X5111Y4428D01*
X5110Y4430D01*
X5110Y4432D01*
X5109Y4433D01*
X5108Y4435D01*
X5108Y4438D01*
X5107Y4440D01*
X5107Y4442D01*
X5106Y4445D01*
X5106Y4448D01*
X5106Y4448D01*
X5106Y4448D01*
X5106Y4448D01*
X5106Y4449D01*
X5106Y4449D01*
X5107Y4451D01*
X5107Y4452D01*
X5107Y4453D01*
X5107Y4455D01*
X5107Y4457D01*
X5108Y4459D01*
X5108Y4461D01*
X5109Y4463D01*
X5110Y4465D01*
X5111Y4467D01*
X5112Y4469D01*
X5113Y4470D01*
X5115Y4472D01*
X5115Y4472D01*
X5115Y4473D01*
X5116Y4473D01*
X5116Y4474D01*
X5117Y4474D01*
X5118Y4475D01*
X5119Y4476D01*
X5121Y4477D01*
X5122Y4478D01*
X5124Y4479D01*
X5125Y4480D01*
X5127Y4480D01*
X5129Y4481D01*
X5131Y4481D01*
X5133Y4482D01*
X5136Y4482D01*
X5136Y4482D01*
X5137Y4482D01*
X5137Y4482D02*
G37*
G36*
X4806Y4507D02*
X4806Y4507D01*
X4807Y4507D01*
X4807Y4507D01*
X4809Y4507D01*
X4811Y4507D01*
X4813Y4506D01*
X4815Y4506D01*
X4817Y4505D01*
X4820Y4504D01*
X4822Y4503D01*
X4825Y4502D01*
X4827Y4501D01*
X4830Y4499D01*
X4832Y4497D01*
X4834Y4495D01*
X4834Y4495D01*
X4835Y4494D01*
X4835Y4493D01*
X4836Y4492D01*
X4837Y4491D01*
X4838Y4490D01*
X4839Y4488D01*
X4840Y4486D01*
X4841Y4484D01*
X4842Y4481D01*
X4843Y4479D01*
X4844Y4476D01*
X4844Y4473D01*
X4845Y4469D01*
X4845Y4466D01*
X4845Y4462D01*
X4845Y4462D01*
X4845Y4462D01*
X4845Y4462D01*
X4845Y4461D01*
X4845Y4461D01*
X4845Y4460D01*
X4845Y4459D01*
X4845Y4459D01*
X4845Y4458D01*
X4845Y4457D01*
X4845Y4455D01*
X4844Y4452D01*
X4844Y4450D01*
X4843Y4447D01*
X4843Y4444D01*
X4842Y4441D01*
X4841Y4438D01*
X4839Y4436D01*
X4838Y4433D01*
X4836Y4430D01*
X4834Y4428D01*
X4834Y4427D01*
X4833Y4427D01*
X4833Y4426D01*
X4832Y4426D01*
X4830Y4425D01*
X4829Y4424D01*
X4828Y4423D01*
X4826Y4421D01*
X4824Y4420D01*
X4821Y4419D01*
X4819Y4418D01*
X4816Y4417D01*
X4813Y4416D01*
X4810Y4416D01*
X4806Y4415D01*
X4803Y4415D01*
X4802Y4415D01*
X4802Y4415D01*
X4801Y4415D01*
X4800Y4415D01*
X4800Y4415D01*
X4798Y4415D01*
X4796Y4416D01*
X4794Y4416D01*
X4792Y4417D01*
X4790Y4417D01*
X4787Y4418D01*
X4785Y4419D01*
X4782Y4420D01*
X4779Y4422D01*
X4777Y4423D01*
X4775Y4425D01*
X4772Y4427D01*
X4772Y4428D01*
X4772Y4428D01*
X4771Y4429D01*
X4771Y4430D01*
X4770Y4431D01*
X4769Y4433D01*
X4768Y4434D01*
X4767Y4436D01*
X4766Y4438D01*
X4765Y4441D01*
X4764Y4444D01*
X4763Y4446D01*
X4762Y4450D01*
X4762Y4453D01*
X4761Y4456D01*
X4761Y4460D01*
X4761Y4460D01*
X4761Y4460D01*
X4761Y4461D01*
X4761Y4461D01*
X4761Y4462D01*
X4761Y4462D01*
X4761Y4463D01*
X4761Y4464D01*
X4761Y4464D01*
X4761Y4465D01*
X4762Y4468D01*
X4762Y4470D01*
X4763Y4472D01*
X4763Y4475D01*
X4764Y4478D01*
X4765Y4481D01*
X4766Y4484D01*
X4767Y4486D01*
X4769Y4489D01*
X4771Y4492D01*
X4773Y4494D01*
X4773Y4495D01*
X4773Y4495D01*
X4774Y4496D01*
X4775Y4496D01*
X4776Y4497D01*
X4777Y4498D01*
X4779Y4500D01*
X4781Y4501D01*
X4783Y4502D01*
X4786Y4503D01*
X4788Y4504D01*
X4791Y4505D01*
X4794Y4506D01*
X4797Y4507D01*
X4801Y4507D01*
X4804Y4507D01*
X4805Y4507D01*
X4806Y4507D01*
X4806Y4507D02*
G37*
G36*
X4501Y4482D02*
X4502Y4482D01*
X4503Y4481D01*
X4505Y4481D01*
X4506Y4481D01*
X4508Y4481D01*
X4510Y4480D01*
X4512Y4480D01*
X4513Y4479D01*
X4515Y4478D01*
X4517Y4477D01*
X4519Y4476D01*
X4520Y4474D01*
X4522Y4473D01*
X4522Y4473D01*
X4522Y4473D01*
X4523Y4472D01*
X4523Y4471D01*
X4524Y4470D01*
X4525Y4469D01*
X4525Y4468D01*
X4526Y4467D01*
X4527Y4465D01*
X4528Y4463D01*
X4528Y4461D01*
X4529Y4459D01*
X4529Y4457D01*
X4530Y4454D01*
X4530Y4451D01*
X4530Y4449D01*
X4530Y4449D01*
X4530Y4448D01*
X4530Y4448D01*
X4530Y4448D01*
X4530Y4447D01*
X4530Y4446D01*
X4530Y4445D01*
X4530Y4443D01*
X4529Y4442D01*
X4529Y4440D01*
X4528Y4438D01*
X4528Y4436D01*
X4527Y4434D01*
X4526Y4432D01*
X4525Y4430D01*
X4524Y4428D01*
X4523Y4426D01*
X4521Y4424D01*
X4521Y4424D01*
X4521Y4424D01*
X4521Y4423D01*
X4520Y4423D01*
X4519Y4422D01*
X4518Y4421D01*
X4517Y4420D01*
X4515Y4420D01*
X4514Y4419D01*
X4512Y4418D01*
X4510Y4417D01*
X4508Y4416D01*
X4506Y4416D01*
X4503Y4415D01*
X4501Y4415D01*
X4498Y4415D01*
X4498Y4415D01*
X4497Y4415D01*
X4496Y4415D01*
X4495Y4415D01*
X4493Y4415D01*
X4492Y4416D01*
X4490Y4416D01*
X4488Y4417D01*
X4487Y4417D01*
X4485Y4418D01*
X4483Y4419D01*
X4481Y4420D01*
X4479Y4421D01*
X4477Y4422D01*
X4476Y4424D01*
X4476Y4424D01*
X4475Y4424D01*
X4475Y4425D01*
X4474Y4426D01*
X4474Y4426D01*
X4473Y4427D01*
X4472Y4429D01*
X4472Y4430D01*
X4471Y4432D01*
X4470Y4434D01*
X4469Y4436D01*
X4469Y4438D01*
X4468Y4440D01*
X4468Y4442D01*
X4467Y4445D01*
X4467Y4448D01*
X4467Y4448D01*
X4467Y4448D01*
X4467Y4448D01*
X4467Y4448D01*
X4467Y4449D01*
X4467Y4450D01*
X4468Y4452D01*
X4468Y4453D01*
X4468Y4455D01*
X4468Y4457D01*
X4469Y4459D01*
X4469Y4461D01*
X4470Y4463D01*
X4471Y4465D01*
X4472Y4467D01*
X4473Y4469D01*
X4474Y4471D01*
X4476Y4473D01*
X4476Y4473D01*
X4476Y4473D01*
X4477Y4474D01*
X4478Y4474D01*
X4479Y4475D01*
X4480Y4476D01*
X4481Y4476D01*
X4482Y4477D01*
X4484Y4478D01*
X4486Y4479D01*
X4488Y4480D01*
X4490Y4480D01*
X4492Y4481D01*
X4494Y4481D01*
X4497Y4482D01*
X4500Y4482D01*
X4500Y4482D01*
X4501Y4482D01*
X4501Y4482D02*
G37*
G36*
X1397Y673D02*
X1397Y455D01*
X1165Y455D01*
X955Y665D01*
X955Y897D01*
X1173Y897D01*
X1397Y673D01*
X1397Y673D02*
G37*
%LPC*%
G36*
X4579Y4882D02*
X4578Y4882D01*
X4578Y4881D01*
X4577Y4881D01*
X4576Y4881D01*
X4575Y4881D01*
X4574Y4881D01*
X4573Y4880D01*
X4572Y4880D01*
X4571Y4880D01*
X4569Y4879D01*
X4568Y4878D01*
X4567Y4877D01*
X4566Y4876D01*
X4565Y4875D01*
X4565Y4875D01*
X4565Y4875D01*
X4564Y4875D01*
X4564Y4874D01*
X4564Y4874D01*
X4563Y4873D01*
X4563Y4872D01*
X4562Y4871D01*
X4562Y4870D01*
X4561Y4869D01*
X4561Y4868D01*
X4560Y4866D01*
X4560Y4865D01*
X4560Y4863D01*
X4560Y4862D01*
X4559Y4860D01*
X4559Y4851D01*
X4559Y4851D01*
X4559Y4851D01*
X4559Y4850D01*
X4560Y4850D01*
X4560Y4849D01*
X4560Y4848D01*
X4560Y4847D01*
X4560Y4846D01*
X4561Y4844D01*
X4561Y4843D01*
X4562Y4842D01*
X4562Y4841D01*
X4563Y4840D01*
X4564Y4839D01*
X4565Y4838D01*
X4565Y4837D01*
X4565Y4837D01*
X4565Y4837D01*
X4566Y4837D01*
X4566Y4836D01*
X4567Y4836D01*
X4567Y4835D01*
X4568Y4835D01*
X4569Y4834D01*
X4570Y4834D01*
X4571Y4833D01*
X4572Y4833D01*
X4574Y4833D01*
X4575Y4832D01*
X4576Y4832D01*
X4578Y4832D01*
X4578Y4832D01*
X4579Y4832D01*
X4579Y4832D01*
X4580Y4832D01*
X4581Y4832D01*
X4582Y4833D01*
X4583Y4833D01*
X4584Y4833D01*
X4585Y4834D01*
X4586Y4834D01*
X4588Y4835D01*
X4589Y4836D01*
X4590Y4837D01*
X4591Y4838D01*
X4592Y4839D01*
X4592Y4839D01*
X4592Y4839D01*
X4593Y4840D01*
X4593Y4840D01*
X4593Y4841D01*
X4594Y4842D01*
X4594Y4843D01*
X4595Y4844D01*
X4595Y4846D01*
X4596Y4847D01*
X4596Y4849D01*
X4597Y4850D01*
X4597Y4852D01*
X4597Y4854D01*
X4597Y4857D01*
X4597Y4859D01*
X4597Y4859D01*
X4597Y4859D01*
X4597Y4860D01*
X4597Y4861D01*
X4597Y4862D01*
X4597Y4863D01*
X4597Y4864D01*
X4597Y4865D01*
X4596Y4868D01*
X4596Y4869D01*
X4595Y4870D01*
X4595Y4872D01*
X4594Y4873D01*
X4593Y4874D01*
X4593Y4876D01*
X4592Y4876D01*
X4592Y4876D01*
X4592Y4876D01*
X4592Y4876D01*
X4591Y4877D01*
X4591Y4877D01*
X4590Y4878D01*
X4589Y4879D01*
X4588Y4879D01*
X4587Y4880D01*
X4586Y4880D01*
X4585Y4881D01*
X4584Y4881D01*
X4582Y4881D01*
X4581Y4881D01*
X4579Y4882D01*
X4579Y4882D02*
G37*
G36*
X4755Y4857D02*
X4739Y4855D01*
X4739Y4855D01*
X4739Y4855D01*
X4738Y4855D01*
X4738Y4855D01*
X4737Y4855D01*
X4737Y4855D01*
X4735Y4854D01*
X4733Y4854D01*
X4732Y4853D01*
X4730Y4852D01*
X4729Y4852D01*
X4728Y4852D01*
X4728Y4851D01*
X4728Y4851D01*
X4727Y4850D01*
X4727Y4849D01*
X4726Y4848D01*
X4726Y4848D01*
X4725Y4847D01*
X4725Y4846D01*
X4725Y4845D01*
X4725Y4844D01*
X4725Y4843D01*
X4725Y4843D01*
X4725Y4842D01*
X4725Y4842D01*
X4725Y4842D01*
X4725Y4841D01*
X4725Y4840D01*
X4726Y4839D01*
X4726Y4837D01*
X4727Y4836D01*
X4728Y4835D01*
X4728Y4835D01*
X4728Y4835D01*
X4729Y4834D01*
X4729Y4834D01*
X4731Y4834D01*
X4732Y4833D01*
X4733Y4833D01*
X4735Y4832D01*
X4737Y4832D01*
X4738Y4832D01*
X4738Y4832D01*
X4739Y4832D01*
X4740Y4832D01*
X4741Y4833D01*
X4741Y4833D01*
X4743Y4833D01*
X4744Y4834D01*
X4746Y4834D01*
X4747Y4835D01*
X4748Y4836D01*
X4749Y4836D01*
X4750Y4837D01*
X4750Y4837D01*
X4750Y4838D01*
X4750Y4838D01*
X4750Y4838D01*
X4751Y4839D01*
X4751Y4840D01*
X4752Y4840D01*
X4752Y4841D01*
X4752Y4842D01*
X4753Y4843D01*
X4753Y4844D01*
X4754Y4845D01*
X4754Y4847D01*
X4754Y4848D01*
X4754Y4849D01*
X4755Y4851D01*
X4755Y4857D01*
X4755Y4857D02*
G37*
G36*
X4871Y4882D02*
X4870Y4882D01*
X4869Y4881D01*
X4869Y4881D01*
X4868Y4881D01*
X4867Y4881D01*
X4866Y4881D01*
X4864Y4880D01*
X4863Y4880D01*
X4862Y4879D01*
X4861Y4879D01*
X4860Y4878D01*
X4859Y4877D01*
X4858Y4876D01*
X4858Y4876D01*
X4858Y4876D01*
X4858Y4876D01*
X4857Y4875D01*
X4857Y4875D01*
X4857Y4874D01*
X4856Y4874D01*
X4856Y4873D01*
X4855Y4872D01*
X4855Y4871D01*
X4854Y4870D01*
X4853Y4869D01*
X4853Y4867D01*
X4853Y4866D01*
X4852Y4864D01*
X4852Y4863D01*
X4886Y4863D01*
X4886Y4863D01*
X4886Y4863D01*
X4886Y4864D01*
X4886Y4864D01*
X4886Y4865D01*
X4886Y4866D01*
X4886Y4867D01*
X4886Y4868D01*
X4885Y4870D01*
X4885Y4872D01*
X4884Y4874D01*
X4884Y4875D01*
X4883Y4876D01*
X4882Y4877D01*
X4882Y4877D01*
X4882Y4877D01*
X4882Y4877D01*
X4881Y4877D01*
X4881Y4878D01*
X4880Y4878D01*
X4880Y4879D01*
X4879Y4879D01*
X4878Y4880D01*
X4878Y4880D01*
X4876Y4880D01*
X4875Y4881D01*
X4874Y4881D01*
X4873Y4881D01*
X4872Y4881D01*
X4871Y4882D01*
X4871Y4882D02*
G37*
G36*
X4502Y4882D02*
X4502Y4882D01*
X4501Y4881D01*
X4500Y4881D01*
X4500Y4881D01*
X4499Y4881D01*
X4497Y4881D01*
X4496Y4881D01*
X4495Y4880D01*
X4494Y4880D01*
X4493Y4879D01*
X4491Y4879D01*
X4490Y4878D01*
X4489Y4877D01*
X4488Y4876D01*
X4486Y4875D01*
X4486Y4875D01*
X4486Y4875D01*
X4486Y4874D01*
X4486Y4874D01*
X4485Y4873D01*
X4485Y4872D01*
X4484Y4871D01*
X4484Y4870D01*
X4483Y4869D01*
X4482Y4867D01*
X4482Y4866D01*
X4482Y4864D01*
X4481Y4862D01*
X4481Y4861D01*
X4481Y4859D01*
X4481Y4856D01*
X4481Y4856D01*
X4481Y4856D01*
X4481Y4855D01*
X4481Y4855D01*
X4481Y4854D01*
X4481Y4853D01*
X4481Y4851D01*
X4481Y4850D01*
X4482Y4849D01*
X4482Y4847D01*
X4483Y4846D01*
X4483Y4844D01*
X4484Y4843D01*
X4485Y4841D01*
X4485Y4840D01*
X4486Y4839D01*
X4486Y4838D01*
X4487Y4838D01*
X4487Y4838D01*
X4488Y4838D01*
X4488Y4837D01*
X4489Y4837D01*
X4490Y4836D01*
X4491Y4835D01*
X4492Y4835D01*
X4493Y4834D01*
X4494Y4834D01*
X4495Y4833D01*
X4497Y4833D01*
X4499Y4832D01*
X4500Y4832D01*
X4502Y4832D01*
X4502Y4832D01*
X4503Y4832D01*
X4504Y4832D01*
X4504Y4832D01*
X4505Y4832D01*
X4506Y4833D01*
X4508Y4833D01*
X4509Y4833D01*
X4510Y4834D01*
X4511Y4834D01*
X4513Y4835D01*
X4514Y4835D01*
X4515Y4836D01*
X4516Y4837D01*
X4517Y4838D01*
X4517Y4838D01*
X4517Y4839D01*
X4518Y4839D01*
X4518Y4840D01*
X4518Y4840D01*
X4519Y4841D01*
X4519Y4842D01*
X4520Y4843D01*
X4520Y4844D01*
X4521Y4846D01*
X4521Y4847D01*
X4522Y4849D01*
X4522Y4851D01*
X4522Y4853D01*
X4522Y4855D01*
X4523Y4857D01*
X4523Y4857D01*
X4523Y4857D01*
X4523Y4858D01*
X4522Y4859D01*
X4522Y4860D01*
X4522Y4861D01*
X4522Y4862D01*
X4522Y4863D01*
X4521Y4866D01*
X4521Y4868D01*
X4520Y4869D01*
X4520Y4871D01*
X4519Y4872D01*
X4518Y4874D01*
X4517Y4875D01*
X4517Y4875D01*
X4517Y4875D01*
X4517Y4876D01*
X4516Y4876D01*
X4516Y4877D01*
X4515Y4877D01*
X4514Y4878D01*
X4513Y4878D01*
X4512Y4879D01*
X4511Y4880D01*
X4510Y4880D01*
X4509Y4881D01*
X4507Y4881D01*
X4505Y4881D01*
X4504Y4881D01*
X4502Y4882D01*
X4502Y4882D02*
G37*
G36*
X4682Y4473D02*
X4681Y4473D01*
X4681Y4473D01*
X4680Y4473D01*
X4679Y4473D01*
X4678Y4473D01*
X4677Y4473D01*
X4676Y4472D01*
X4675Y4472D01*
X4674Y4471D01*
X4673Y4471D01*
X4672Y4470D01*
X4670Y4469D01*
X4669Y4469D01*
X4668Y4467D01*
X4667Y4466D01*
X4667Y4466D01*
X4667Y4466D01*
X4667Y4466D01*
X4666Y4465D01*
X4666Y4464D01*
X4665Y4463D01*
X4665Y4462D01*
X4664Y4461D01*
X4664Y4460D01*
X4663Y4459D01*
X4663Y4457D01*
X4663Y4455D01*
X4662Y4454D01*
X4662Y4452D01*
X4662Y4450D01*
X4662Y4447D01*
X4662Y4447D01*
X4662Y4447D01*
X4662Y4446D01*
X4662Y4446D01*
X4662Y4445D01*
X4662Y4443D01*
X4662Y4442D01*
X4662Y4441D01*
X4663Y4438D01*
X4663Y4437D01*
X4664Y4435D01*
X4664Y4434D01*
X4665Y4433D01*
X4666Y4431D01*
X4667Y4430D01*
X4667Y4430D01*
X4667Y4430D01*
X4667Y4429D01*
X4668Y4429D01*
X4668Y4428D01*
X4669Y4428D01*
X4670Y4427D01*
X4670Y4427D01*
X4671Y4426D01*
X4672Y4426D01*
X4674Y4425D01*
X4675Y4425D01*
X4676Y4424D01*
X4678Y4424D01*
X4679Y4424D01*
X4681Y4424D01*
X4681Y4424D01*
X4681Y4424D01*
X4682Y4424D01*
X4683Y4424D01*
X4684Y4424D01*
X4685Y4424D01*
X4686Y4424D01*
X4687Y4425D01*
X4688Y4425D01*
X4689Y4426D01*
X4690Y4426D01*
X4691Y4427D01*
X4692Y4428D01*
X4693Y4429D01*
X4694Y4430D01*
X4694Y4430D01*
X4695Y4430D01*
X4695Y4430D01*
X4695Y4431D01*
X4696Y4431D01*
X4696Y4432D01*
X4697Y4433D01*
X4697Y4434D01*
X4698Y4435D01*
X4698Y4436D01*
X4698Y4438D01*
X4699Y4439D01*
X4699Y4440D01*
X4700Y4442D01*
X4700Y4444D01*
X4700Y4445D01*
X4700Y4455D01*
X4700Y4455D01*
X4700Y4455D01*
X4700Y4455D01*
X4700Y4456D01*
X4700Y4457D01*
X4700Y4457D01*
X4699Y4458D01*
X4699Y4459D01*
X4698Y4461D01*
X4698Y4462D01*
X4698Y4463D01*
X4697Y4465D01*
X4696Y4466D01*
X4695Y4467D01*
X4695Y4468D01*
X4695Y4468D01*
X4694Y4468D01*
X4694Y4468D01*
X4694Y4469D01*
X4693Y4469D01*
X4693Y4469D01*
X4692Y4470D01*
X4691Y4470D01*
X4690Y4471D01*
X4689Y4471D01*
X4688Y4472D01*
X4687Y4472D01*
X4686Y4473D01*
X4685Y4473D01*
X4683Y4473D01*
X4682Y4473D01*
X4682Y4473D02*
G37*
G36*
X4582Y4449D02*
X4566Y4447D01*
X4566Y4447D01*
X4566Y4446D01*
X4566Y4446D01*
X4565Y4446D01*
X4565Y4446D01*
X4564Y4446D01*
X4562Y4446D01*
X4561Y4445D01*
X4559Y4445D01*
X4557Y4444D01*
X4556Y4443D01*
X4556Y4443D01*
X4556Y4443D01*
X4555Y4443D01*
X4555Y4442D01*
X4554Y4441D01*
X4553Y4440D01*
X4553Y4439D01*
X4553Y4438D01*
X4552Y4437D01*
X4552Y4436D01*
X4552Y4435D01*
X4552Y4434D01*
X4552Y4434D01*
X4552Y4434D01*
X4552Y4434D01*
X4552Y4433D01*
X4552Y4433D01*
X4552Y4431D01*
X4553Y4430D01*
X4554Y4429D01*
X4554Y4428D01*
X4555Y4426D01*
X4555Y4426D01*
X4556Y4426D01*
X4556Y4426D01*
X4557Y4426D01*
X4558Y4425D01*
X4559Y4424D01*
X4561Y4424D01*
X4562Y4424D01*
X4564Y4424D01*
X4565Y4424D01*
X4566Y4424D01*
X4566Y4424D01*
X4567Y4424D01*
X4568Y4424D01*
X4569Y4424D01*
X4571Y4425D01*
X4572Y4425D01*
X4573Y4426D01*
X4574Y4426D01*
X4575Y4427D01*
X4576Y4428D01*
X4577Y4429D01*
X4577Y4429D01*
X4577Y4429D01*
X4577Y4429D01*
X4578Y4430D01*
X4578Y4430D01*
X4578Y4431D01*
X4579Y4432D01*
X4579Y4433D01*
X4580Y4434D01*
X4580Y4435D01*
X4581Y4436D01*
X4581Y4437D01*
X4581Y4438D01*
X4582Y4439D01*
X4582Y4441D01*
X4582Y4442D01*
X4582Y4449D01*
X4582Y4449D02*
G37*
G36*
X4424Y4496D02*
X4410Y4496D01*
X4410Y4467D01*
X4422Y4467D01*
X4423Y4468D01*
X4423Y4468D01*
X4424Y4468D01*
X4425Y4468D01*
X4426Y4468D01*
X4428Y4468D01*
X4430Y4469D01*
X4432Y4470D01*
X4433Y4470D01*
X4434Y4471D01*
X4435Y4472D01*
X4435Y4472D01*
X4435Y4472D01*
X4435Y4472D01*
X4435Y4472D01*
X4436Y4473D01*
X4436Y4473D01*
X4437Y4474D01*
X4437Y4475D01*
X4438Y4475D01*
X4438Y4476D01*
X4438Y4477D01*
X4439Y4478D01*
X4439Y4479D01*
X4439Y4481D01*
X4439Y4482D01*
X4440Y4483D01*
X4440Y4483D01*
X4440Y4484D01*
X4439Y4484D01*
X4439Y4485D01*
X4439Y4486D01*
X4439Y4487D01*
X4438Y4489D01*
X4437Y4490D01*
X4436Y4491D01*
X4435Y4492D01*
X4434Y4493D01*
X4432Y4494D01*
X4431Y4495D01*
X4430Y4495D01*
X4429Y4495D01*
X4428Y4496D01*
X4427Y4496D01*
X4425Y4496D01*
X4424Y4496D01*
X4424Y4496D02*
G37*
G36*
X4422Y4458D02*
X4410Y4458D01*
X4410Y4426D01*
X4426Y4426D01*
X4426Y4426D01*
X4427Y4426D01*
X4428Y4426D01*
X4429Y4426D01*
X4430Y4426D01*
X4432Y4427D01*
X4435Y4428D01*
X4436Y4428D01*
X4437Y4429D01*
X4438Y4429D01*
X4439Y4430D01*
X4439Y4430D01*
X4439Y4430D01*
X4439Y4431D01*
X4440Y4431D01*
X4440Y4431D01*
X4440Y4432D01*
X4441Y4433D01*
X4441Y4433D01*
X4442Y4434D01*
X4442Y4435D01*
X4443Y4436D01*
X4443Y4437D01*
X4443Y4438D01*
X4444Y4440D01*
X4444Y4441D01*
X4444Y4442D01*
X4444Y4442D01*
X4444Y4442D01*
X4444Y4443D01*
X4444Y4443D01*
X4444Y4444D01*
X4444Y4445D01*
X4443Y4446D01*
X4443Y4447D01*
X4442Y4449D01*
X4441Y4450D01*
X4440Y4452D01*
X4439Y4452D01*
X4439Y4453D01*
X4438Y4454D01*
X4437Y4454D01*
X4436Y4455D01*
X4435Y4456D01*
X4434Y4456D01*
X4432Y4457D01*
X4431Y4457D01*
X4430Y4457D01*
X4428Y4458D01*
X4426Y4458D01*
X4424Y4458D01*
X4422Y4458D01*
X4422Y4458D02*
G37*
G36*
X5136Y4473D02*
X5135Y4473D01*
X5134Y4473D01*
X5134Y4473D01*
X5133Y4473D01*
X5132Y4473D01*
X5131Y4472D01*
X5129Y4472D01*
X5128Y4471D01*
X5127Y4471D01*
X5126Y4470D01*
X5125Y4470D01*
X5124Y4469D01*
X5123Y4468D01*
X5123Y4468D01*
X5123Y4468D01*
X5123Y4467D01*
X5122Y4467D01*
X5122Y4466D01*
X5122Y4466D01*
X5121Y4465D01*
X5121Y4464D01*
X5120Y4463D01*
X5120Y4462D01*
X5119Y4461D01*
X5119Y4460D01*
X5118Y4459D01*
X5118Y4457D01*
X5117Y4456D01*
X5117Y4454D01*
X5152Y4454D01*
X5152Y4454D01*
X5152Y4455D01*
X5152Y4455D01*
X5151Y4456D01*
X5151Y4457D01*
X5151Y4457D01*
X5151Y4458D01*
X5151Y4459D01*
X5150Y4462D01*
X5150Y4464D01*
X5149Y4465D01*
X5149Y4466D01*
X5148Y4467D01*
X5147Y4468D01*
X5147Y4468D01*
X5147Y4468D01*
X5147Y4469D01*
X5146Y4469D01*
X5146Y4469D01*
X5145Y4470D01*
X5145Y4470D01*
X5144Y4471D01*
X5143Y4471D01*
X5143Y4472D01*
X5142Y4472D01*
X5141Y4472D01*
X5139Y4473D01*
X5138Y4473D01*
X5137Y4473D01*
X5136Y4473D01*
X5136Y4473D02*
G37*
G36*
X4804Y4498D02*
X4803Y4498D01*
X4802Y4498D01*
X4801Y4498D01*
X4800Y4497D01*
X4799Y4497D01*
X4797Y4497D01*
X4795Y4496D01*
X4794Y4496D01*
X4792Y4495D01*
X4790Y4494D01*
X4788Y4493D01*
X4786Y4492D01*
X4784Y4491D01*
X4782Y4489D01*
X4781Y4488D01*
X4781Y4488D01*
X4780Y4487D01*
X4780Y4487D01*
X4779Y4486D01*
X4779Y4485D01*
X4778Y4484D01*
X4777Y4482D01*
X4776Y4480D01*
X4776Y4479D01*
X4775Y4477D01*
X4774Y4474D01*
X4773Y4472D01*
X4773Y4470D01*
X4772Y4467D01*
X4772Y4464D01*
X4772Y4461D01*
X4772Y4461D01*
X4772Y4461D01*
X4772Y4461D01*
X4772Y4460D01*
X4772Y4460D01*
X4772Y4459D01*
X4772Y4458D01*
X4772Y4457D01*
X4772Y4455D01*
X4773Y4453D01*
X4773Y4451D01*
X4774Y4449D01*
X4774Y4447D01*
X4775Y4445D01*
X4776Y4443D01*
X4777Y4441D01*
X4778Y4438D01*
X4779Y4436D01*
X4781Y4434D01*
X4781Y4434D01*
X4781Y4434D01*
X4781Y4433D01*
X4782Y4433D01*
X4783Y4432D01*
X4784Y4431D01*
X4785Y4430D01*
X4787Y4429D01*
X4788Y4428D01*
X4790Y4428D01*
X4792Y4427D01*
X4794Y4426D01*
X4796Y4425D01*
X4798Y4425D01*
X4800Y4424D01*
X4803Y4424D01*
X4803Y4424D01*
X4804Y4424D01*
X4805Y4424D01*
X4807Y4425D01*
X4808Y4425D01*
X4810Y4425D01*
X4811Y4426D01*
X4813Y4426D01*
X4815Y4427D01*
X4817Y4427D01*
X4819Y4428D01*
X4821Y4429D01*
X4823Y4431D01*
X4824Y4432D01*
X4826Y4434D01*
X4826Y4434D01*
X4826Y4434D01*
X4827Y4435D01*
X4827Y4436D01*
X4828Y4437D01*
X4829Y4438D01*
X4829Y4439D01*
X4830Y4441D01*
X4831Y4443D01*
X4832Y4445D01*
X4833Y4447D01*
X4833Y4449D01*
X4834Y4452D01*
X4834Y4455D01*
X4834Y4458D01*
X4834Y4461D01*
X4834Y4461D01*
X4834Y4461D01*
X4834Y4461D01*
X4834Y4462D01*
X4834Y4462D01*
X4834Y4462D01*
X4834Y4464D01*
X4834Y4465D01*
X4834Y4467D01*
X4834Y4469D01*
X4833Y4471D01*
X4833Y4473D01*
X4832Y4475D01*
X4832Y4477D01*
X4831Y4480D01*
X4830Y4482D01*
X4829Y4484D01*
X4828Y4486D01*
X4826Y4488D01*
X4826Y4488D01*
X4826Y4488D01*
X4825Y4489D01*
X4825Y4490D01*
X4824Y4490D01*
X4823Y4491D01*
X4822Y4492D01*
X4820Y4493D01*
X4819Y4494D01*
X4817Y4495D01*
X4815Y4496D01*
X4813Y4496D01*
X4811Y4497D01*
X4809Y4497D01*
X4806Y4498D01*
X4804Y4498D01*
X4804Y4498D02*
G37*
G36*
X4499Y4473D02*
X4499Y4473D01*
X4498Y4473D01*
X4497Y4473D01*
X4497Y4473D01*
X4496Y4473D01*
X4495Y4473D01*
X4493Y4472D01*
X4492Y4472D01*
X4491Y4471D01*
X4490Y4471D01*
X4488Y4470D01*
X4487Y4469D01*
X4486Y4469D01*
X4485Y4468D01*
X4484Y4466D01*
X4483Y4466D01*
X4483Y4466D01*
X4483Y4466D01*
X4483Y4465D01*
X4482Y4465D01*
X4482Y4464D01*
X4481Y4463D01*
X4481Y4462D01*
X4480Y4460D01*
X4480Y4459D01*
X4479Y4457D01*
X4479Y4456D01*
X4478Y4454D01*
X4478Y4452D01*
X4478Y4450D01*
X4478Y4448D01*
X4478Y4448D01*
X4478Y4447D01*
X4478Y4447D01*
X4478Y4446D01*
X4478Y4445D01*
X4478Y4444D01*
X4478Y4443D01*
X4478Y4441D01*
X4479Y4440D01*
X4479Y4439D01*
X4480Y4437D01*
X4480Y4436D01*
X4481Y4434D01*
X4482Y4433D01*
X4482Y4431D01*
X4484Y4430D01*
X4484Y4430D01*
X4484Y4430D01*
X4484Y4429D01*
X4485Y4429D01*
X4485Y4429D01*
X4486Y4428D01*
X4487Y4427D01*
X4488Y4427D01*
X4489Y4426D01*
X4490Y4426D01*
X4491Y4425D01*
X4493Y4425D01*
X4494Y4424D01*
X4496Y4424D01*
X4497Y4424D01*
X4499Y4424D01*
X4500Y4424D01*
X4500Y4424D01*
X4501Y4424D01*
X4501Y4424D01*
X4502Y4424D01*
X4504Y4424D01*
X4505Y4424D01*
X4506Y4425D01*
X4507Y4425D01*
X4508Y4426D01*
X4510Y4426D01*
X4511Y4427D01*
X4512Y4428D01*
X4513Y4429D01*
X4514Y4430D01*
X4514Y4430D01*
X4515Y4430D01*
X4515Y4431D01*
X4515Y4431D01*
X4516Y4432D01*
X4516Y4433D01*
X4516Y4434D01*
X4517Y4435D01*
X4517Y4436D01*
X4518Y4437D01*
X4518Y4439D01*
X4519Y4440D01*
X4519Y4442D01*
X4519Y4444D01*
X4520Y4446D01*
X4520Y4448D01*
X4520Y4448D01*
X4520Y4449D01*
X4520Y4449D01*
X4520Y4450D01*
X4519Y4451D01*
X4519Y4452D01*
X4519Y4454D01*
X4519Y4455D01*
X4518Y4458D01*
X4518Y4459D01*
X4517Y4461D01*
X4517Y4462D01*
X4516Y4464D01*
X4515Y4465D01*
X4514Y4467D01*
X4514Y4467D01*
X4514Y4467D01*
X4514Y4467D01*
X4513Y4468D01*
X4513Y4468D01*
X4512Y4469D01*
X4511Y4469D01*
X4510Y4470D01*
X4509Y4470D01*
X4508Y4471D01*
X4507Y4472D01*
X4506Y4472D01*
X4504Y4472D01*
X4503Y4473D01*
X4501Y4473D01*
X4499Y4473D01*
X4499Y4473D02*
G37*
%LPD*%
D12*
X1645Y1700D02*
X1645Y1702D01*
X1633Y1715D01*
X1630Y1715D01*
X1579Y1766D01*
X1492Y1766D01*
X1477Y1781D01*
X1477Y1806D01*
X1464Y1819D01*
X1464Y1823D01*
X1449Y1838D01*
X1445Y1838D01*
X1412Y1871D01*
X1412Y1949D01*
X1497Y2035D01*
X1480Y1925D02*
X1560Y1925D01*
X1562Y1923D01*
X1480Y1925D02*
X1465Y1910D01*
X1465Y1890D01*
X1483Y1872D01*
X1508Y1872D01*
X1552Y1827D01*
X1562Y1827D01*
X2548Y2545D02*
X2638Y2634D01*
X2731Y2634D01*
X2802Y2705D01*
X2802Y2755D02*
X2802Y2808D01*
D15*
X989Y508D02*
X1008Y489D01*
X1028Y473D01*
X1050Y458D01*
X1073Y447D01*
X1098Y437D01*
X1123Y430D01*
X1149Y426D01*
X1175Y425D01*
X1175Y425D02*
X4175Y425D01*
X4201Y426D01*
X4227Y430D01*
X4252Y437D01*
X4277Y447D01*
X4300Y458D01*
X4322Y473D01*
X4342Y489D01*
X4361Y508D01*
X4377Y528D01*
X4392Y550D01*
X4403Y573D01*
X4413Y598D01*
X4420Y623D01*
X4424Y649D01*
X4425Y675D01*
X4425Y675D02*
X4425Y2675D01*
X4425Y2675D02*
X4424Y2701D01*
X4420Y2727D01*
X4413Y2752D01*
X4403Y2777D01*
X4392Y2800D01*
X4377Y2822D01*
X4361Y2842D01*
X4342Y2861D01*
X4322Y2877D01*
X4300Y2892D01*
X4277Y2903D01*
X4252Y2913D01*
X4227Y2920D01*
X4201Y2924D01*
X4175Y2925D01*
X4174Y2925D02*
X3372Y2925D01*
X3372Y2925D02*
X3346Y2922D01*
X3322Y2912D01*
X3301Y2896D01*
X3285Y2875D01*
X3275Y2851D01*
X3272Y2825D01*
X3272Y2825D02*
X3272Y2590D01*
X3272Y2590D02*
X3269Y2564D01*
X3259Y2540D01*
X3243Y2519D01*
X3222Y2503D01*
X3198Y2493D01*
X3172Y2490D01*
X3172Y2490D02*
X3102Y2490D01*
X3102Y2490D02*
X3076Y2493D01*
X3052Y2503D01*
X3031Y2519D01*
X3015Y2540D01*
X3005Y2564D01*
X3002Y2590D01*
X3002Y2590D02*
X3002Y2995D01*
X2998Y3020D01*
X2987Y3042D01*
X2969Y3060D01*
X2947Y3071D01*
X2922Y3075D01*
X2922Y3075D02*
X2428Y3075D01*
X2428Y3075D02*
X2403Y3071D01*
X2381Y3060D01*
X2363Y3042D01*
X2352Y3020D01*
X2348Y2995D01*
X2348Y2995D02*
X2348Y2590D01*
X2348Y2590D02*
X2345Y2564D01*
X2335Y2540D01*
X2319Y2519D01*
X2298Y2503D01*
X2274Y2493D01*
X2248Y2490D01*
X2251Y2490D02*
X2178Y2490D01*
X2178Y2490D02*
X2152Y2493D01*
X2128Y2503D01*
X2107Y2519D01*
X2091Y2540D01*
X2081Y2564D01*
X2078Y2590D01*
X2078Y2590D02*
X2078Y2825D01*
X2078Y2825D02*
X2075Y2851D01*
X2065Y2875D01*
X2049Y2896D01*
X2028Y2912D01*
X2004Y2922D01*
X1978Y2925D01*
X1978Y2925D02*
X1174Y2925D01*
X1175Y2925D02*
X1149Y2924D01*
X1123Y2920D01*
X1098Y2913D01*
X1073Y2903D01*
X1050Y2892D01*
X1028Y2877D01*
X1008Y2861D01*
X989Y2842D01*
X973Y2822D01*
X958Y2800D01*
X947Y2777D01*
X937Y2752D01*
X930Y2727D01*
X926Y2701D01*
X925Y2675D01*
X925Y2675D02*
X925Y675D01*
X926Y649D01*
X930Y623D01*
X937Y598D01*
X947Y573D01*
X958Y550D01*
X973Y528D01*
X989Y508D01*
D18*
X1921Y1495D02*
D03*
X2175Y1495D02*
D03*
X2429Y1495D02*
D03*
X2921Y1495D02*
D03*
X3175Y1495D02*
D03*
X3429Y1495D02*
D03*
D19*
X1257Y1942D02*
D03*
X1257Y2237D02*
D03*
D20*
X1683Y2662D02*
D03*
X1783Y2662D02*
D03*
X3882Y1477D02*
D03*
X3982Y1477D02*
D03*
X4124Y1378D02*
D03*
X4224Y1378D02*
D03*
D21*
X1182Y1685D02*
D03*
X1182Y1785D02*
D03*
X2025Y2015D02*
D03*
X2025Y2115D02*
D03*
X2510Y2119D02*
D03*
X2510Y2019D02*
D03*
D22*
X3019Y2115D02*
D03*
X3219Y2210D02*
D03*
X3019Y2305D02*
D03*
D24*
X3595Y1635D02*
D03*
X3660Y1635D02*
D03*
X3725Y1635D02*
D03*
X3790Y1635D02*
D03*
X3855Y1635D02*
D03*
X3920Y1635D02*
D03*
X3985Y1635D02*
D03*
X4050Y1635D02*
D03*
X4115Y1635D02*
D03*
X4180Y1635D02*
D03*
X4180Y2210D02*
D03*
X4115Y2210D02*
D03*
X4050Y2210D02*
D03*
X3985Y2210D02*
D03*
X3920Y2210D02*
D03*
X3855Y2210D02*
D03*
X3790Y2210D02*
D03*
X3725Y2210D02*
D03*
X3660Y2210D02*
D03*
X3595Y2210D02*
D03*
D25*
X1645Y1700D02*
D03*
X1745Y1700D02*
D03*
X2152Y2015D02*
D03*
X2252Y2015D02*
D03*
X2800Y2078D02*
D03*
X2803Y1952D02*
D03*
X2903Y1952D02*
D03*
X2900Y2078D02*
D03*
X1802Y2155D02*
D03*
X1702Y2155D02*
D03*
X1575Y2152D02*
D03*
X1475Y2152D02*
D03*
X1413Y1785D02*
D03*
X1313Y1785D02*
D03*
D26*
X1562Y1827D02*
D03*
X1562Y1923D02*
D03*
X1562Y2017D02*
D03*
X1812Y2017D02*
D03*
X1812Y1923D02*
D03*
X1812Y1827D02*
D03*
D27*
X3150Y2009D02*
D03*
X3250Y2009D02*
D03*
X3701Y1260D02*
D03*
X3801Y1260D02*
D03*
X3798Y1131D02*
D03*
X3698Y1131D02*
D03*
D28*
X1593Y2285D02*
D03*
X1783Y2285D02*
D03*
X1783Y2525D02*
D03*
X1688Y2525D02*
D03*
X1593Y2525D02*
D03*
D29*
X3935Y1130D02*
D03*
X3935Y1195D02*
D03*
X4145Y1195D02*
D03*
X4145Y1130D02*
D03*
X4145Y1260D02*
D03*
X3935Y1260D02*
D03*
D30*
X3370Y2275D02*
D03*
X3370Y2415D02*
D03*
D31*
X1310Y1126D02*
D03*
X1500Y1126D02*
D03*
X1405Y1326D02*
D03*
X1405Y1465D02*
D03*
X1310Y1665D02*
D03*
X1500Y1665D02*
D03*
D32*
X2600Y2188D02*
D03*
X2750Y2188D02*
D03*
X2750Y2298D02*
D03*
X2600Y2298D02*
D03*
D33*
X1907Y2272D02*
D03*
X1907Y2372D02*
D03*
X3370Y2166D02*
D03*
X3370Y2066D02*
D03*
D50*
X2548Y2833D02*
D03*
X2675Y2833D02*
D03*
D51*
X2802Y2808D02*
D03*
D56*
X2548Y2545D02*
D03*
X2675Y2545D02*
D03*
X2802Y2545D02*
D03*
D58*
X2274Y2263D02*
D03*
X2274Y2333D02*
D03*
X2889Y2334D02*
D03*
X2889Y2264D02*
D03*
D59*
X1265Y1702D02*
X1277Y1702D01*
X1310Y1670D01*
X1310Y1273D01*
X1436Y1146D01*
X1485Y1146D01*
X1500Y1131D01*
X1500Y1126D01*
X1637Y1146D02*
X1963Y1146D01*
X1991Y1175D01*
X2359Y1175D01*
X2387Y1146D01*
X2832Y1146D01*
X2944Y1258D01*
X2944Y1270D01*
X2973Y1300D01*
X3059Y1300D01*
X3175Y1415D01*
X3175Y1495D01*
X2921Y1495D02*
X2921Y1495D01*
X3636Y1388D02*
X3638Y1390D01*
X3756Y1390D01*
X3768Y1378D01*
X4076Y1378D01*
X4124Y1378D01*
X4224Y1378D02*
X4224Y1381D01*
X4238Y1394D01*
X4238Y1462D01*
X4223Y1477D02*
X4252Y1448D01*
X4255Y1448D01*
X4223Y1477D02*
X3982Y1477D01*
X3466Y2019D02*
X3466Y2059D01*
X3492Y2085D01*
X3492Y2284D01*
X3428Y2348D01*
X3464Y2017D02*
X3466Y2019D01*
X3464Y2017D02*
X3462Y2015D01*
X3393Y2015D01*
X3380Y2002D01*
X3380Y2058D01*
X3372Y2066D01*
X3370Y2066D01*
X3790Y1489D02*
X3793Y1489D01*
X3805Y1477D01*
X3882Y1477D01*
X3149Y2305D02*
X3205Y2361D01*
X3149Y2305D02*
X3004Y2305D01*
X2967Y2269D01*
X2894Y2269D01*
X2889Y2264D01*
X2534Y2819D02*
X2548Y2833D01*
X2534Y2819D02*
X2534Y2665D01*
X2420Y2551D01*
X2420Y2551D02*
X2450Y2521D01*
X2450Y2496D01*
X2495Y2452D01*
X2587Y2452D01*
X2587Y2452D01*
X2636Y2452D01*
X2636Y2452D01*
X2714Y2452D01*
X2802Y2540D01*
X2802Y2545D01*
X2745Y2302D02*
X2730Y2302D01*
X2663Y2369D01*
X2507Y2369D01*
X2410Y2272D01*
X2410Y2271D01*
X2321Y2183D01*
X2153Y2183D01*
X2063Y2272D01*
X1904Y2272D01*
X1907Y2272D01*
X1904Y2272D02*
X1891Y2285D01*
X1783Y2285D01*
X1740Y2373D02*
X1688Y2425D01*
X1688Y2525D01*
X1683Y2530D01*
X1683Y2662D01*
X1783Y2660D02*
X1783Y2708D01*
X1753Y2738D01*
X1622Y2738D01*
X1593Y2708D01*
X1593Y2525D01*
X1504Y2525D01*
X1504Y2526D01*
X1427Y2603D01*
X1247Y2603D01*
X1175Y2675D01*
X1257Y2233D02*
X1372Y2233D01*
X1383Y2222D01*
X1386Y2222D01*
X1475Y2152D02*
X1475Y2496D01*
X1504Y2525D01*
X1783Y2525D02*
X1783Y2660D01*
X1783Y2660D01*
X1785Y2523D02*
X1991Y2523D01*
X2181Y2333D01*
X2264Y2333D01*
X2284Y2338D02*
X2305Y2359D01*
X2305Y2439D01*
X2308Y2439D01*
X2323Y2454D01*
X2326Y2455D01*
X2329Y2458D01*
X2334Y2458D01*
X2380Y2504D01*
X2380Y2509D01*
X2383Y2512D01*
X2384Y2515D01*
X2420Y2551D01*
X2414Y2428D02*
X2414Y2425D01*
X2368Y2379D01*
X2368Y2333D01*
X2347Y2312D01*
X2347Y2297D01*
X2320Y2270D01*
X2274Y2270D01*
X2052Y2372D02*
X2179Y2245D01*
X2294Y2245D01*
X2115Y2124D02*
X2034Y2124D01*
X2025Y2115D01*
X1904Y2091D02*
X1876Y2118D01*
X1837Y2118D01*
X1802Y2152D01*
X1802Y2154D01*
X1702Y2152D02*
X1702Y2343D01*
X1709Y2350D01*
X1709Y2351D01*
X1731Y2373D01*
X1732Y2373D01*
X1732Y2373D01*
X1833Y2373D01*
X1834Y2372D01*
X2052Y2372D01*
X1904Y2091D02*
X1902Y2089D01*
X1894Y2089D01*
X1833Y2027D01*
X1823Y2027D01*
X1812Y2017D01*
X1702Y2029D02*
X1695Y2036D01*
X1695Y2132D01*
X1702Y2139D01*
X1702Y2152D01*
X1575Y2152D01*
X1475Y2152D02*
X1475Y2057D01*
X1497Y2035D01*
X1504Y2027D01*
X1552Y2027D01*
X1562Y2017D01*
X1562Y1923D02*
X1673Y1923D01*
X1702Y1952D01*
X1702Y2029D01*
X1313Y1785D02*
X1273Y1785D01*
X1253Y1805D01*
X1253Y1943D01*
X1257Y1947D01*
X1273Y1785D02*
X1182Y1785D01*
X1232Y1764D02*
X1249Y1747D01*
X1249Y1719D01*
X1265Y1702D01*
X1637Y1146D02*
X1530Y1253D01*
X1478Y1253D01*
X1425Y1306D01*
X1420Y1306D01*
X1405Y1321D01*
X1405Y1326D01*
X1405Y1461D02*
X1405Y1465D01*
X1405Y1461D02*
X1480Y1461D01*
X1676Y1265D01*
X2025Y1265D01*
X2175Y1415D01*
X2175Y1495D01*
X2051Y1487D02*
X2049Y1487D01*
X2041Y1495D01*
X1740Y2373D02*
X1732Y2373D01*
D60*
X1193Y1199D02*
X1243Y1199D01*
X1310Y1131D01*
X1310Y1121D01*
X1424Y1007D01*
X1424Y967D01*
X1513Y878D01*
X3412Y878D01*
X3603Y1069D01*
X3696Y1131D02*
X3698Y1131D01*
X3696Y1131D02*
X3597Y1230D01*
X3006Y1230D01*
X3798Y1131D02*
X3799Y1131D01*
X3934Y1131D01*
X3935Y1130D01*
X4145Y1130D02*
X4235Y1130D01*
X4356Y1251D01*
X4356Y1775D01*
X4050Y2081D01*
X4050Y2210D01*
X3985Y2210D02*
X3985Y2085D01*
X4312Y1757D01*
X4312Y1472D01*
X4313Y1472D01*
X4313Y1424D01*
X4312Y1423D01*
X4312Y1338D01*
X4235Y1260D01*
X4145Y1260D01*
X3935Y1260D02*
X3801Y1260D01*
X3701Y1260D02*
X3688Y1273D01*
X3571Y1273D01*
X3429Y1415D01*
X3429Y1495D01*
X3654Y1489D02*
X3657Y1489D01*
X3720Y1552D01*
X3720Y1582D01*
X3725Y1588D01*
X3725Y1635D01*
X3790Y1635D02*
X3790Y1635D01*
X3790Y1489D01*
X3790Y1489D01*
X3860Y1552D02*
X3878Y1535D01*
X3927Y1535D01*
X3982Y1479D01*
X3982Y1477D01*
X3985Y1635D02*
X3980Y1640D01*
X3980Y1715D01*
X3810Y1885D01*
X3652Y1885D01*
X3577Y1810D01*
X3549Y1810D01*
X3545Y1806D01*
X2739Y1806D01*
X2676Y1869D01*
X2675Y1869D01*
X2655Y1889D01*
X2376Y1889D01*
X2252Y2012D01*
X2252Y2015D01*
X2162Y2011D02*
X2158Y2015D01*
X2158Y2015D01*
X2025Y2015D01*
X2025Y2015D01*
X2023Y2015D01*
X1930Y1923D01*
X1812Y1923D01*
X1808Y1833D02*
X1823Y1817D01*
X2667Y1817D01*
X2744Y1740D01*
X3378Y1740D01*
X3401Y1763D01*
X3563Y1763D01*
X3567Y1767D01*
X3619Y1767D01*
X3625Y1772D01*
X3701Y1819D02*
X3798Y1819D01*
X3915Y1702D01*
X3915Y1640D01*
X3920Y1635D01*
X4115Y1635D02*
X4115Y1732D01*
X4142Y1759D01*
X4204Y1759D01*
X4209Y1765D01*
X3920Y2084D02*
X3920Y2210D01*
X3920Y2084D02*
X3846Y2009D01*
X3741Y2018D02*
X3850Y2127D01*
X3850Y2205D01*
X3855Y2210D01*
X3790Y2210D02*
X3785Y2205D01*
X3785Y2135D01*
X3710Y2060D01*
X3685Y2060D01*
X3525Y1901D01*
X3518Y1901D01*
X3509Y1892D01*
X3170Y1892D01*
X3110Y1952D01*
X3026Y1952D01*
X2912Y2066D01*
X2910Y2066D01*
X2900Y2076D01*
X2900Y2078D01*
X2903Y1952D02*
X2912Y1952D01*
X2913Y1952D01*
X2964Y1952D01*
X3067Y1849D01*
X3527Y1849D01*
X3536Y1858D01*
X3564Y1858D01*
X3724Y2018D01*
X3741Y2018D01*
X3618Y2061D02*
X3618Y2115D01*
X3600Y2133D01*
X3600Y2205D01*
X3595Y2210D01*
X3660Y2210D02*
X3660Y2258D01*
X3677Y2275D01*
X3677Y2366D01*
X3662Y2381D01*
X3662Y2481D01*
X3746Y2565D01*
X3746Y2438D02*
X3761Y2422D01*
X3761Y2376D01*
X3771Y2366D01*
X3728Y2324D01*
X3728Y2213D01*
X3725Y2210D01*
X3618Y2061D02*
X3492Y1935D01*
X3226Y1935D01*
X3189Y1972D01*
X3189Y1972D01*
X3152Y2009D01*
X3167Y2024D01*
X3167Y2052D01*
X3219Y2104D01*
X3219Y2210D01*
X3267Y2066D02*
X3367Y2166D01*
X3370Y2166D02*
X3370Y2167D01*
X3370Y2275D01*
X3370Y2415D02*
X3360Y2415D01*
X3311Y2464D01*
X3311Y2490D01*
X3311Y2518D01*
X3427Y2634D01*
X3427Y2659D01*
X3494Y2726D01*
X3494Y2727D01*
X3543Y2775D01*
X3613Y2775D01*
X3623Y2765D01*
X3776Y2765D01*
X3866Y2675D01*
X4175Y2675D01*
X3578Y2692D02*
X3475Y2589D01*
X3475Y2376D01*
X3547Y2304D01*
X3547Y2131D01*
X3554Y2124D01*
X3554Y2097D01*
X3560Y2091D01*
X3590Y1688D02*
X3595Y1683D01*
X3595Y1635D01*
X3590Y1688D02*
X1823Y1688D01*
X1798Y1663D01*
X1798Y1661D01*
X1782Y1644D01*
X1779Y1644D01*
X1757Y1622D01*
X1543Y1622D01*
X1530Y1635D01*
X1525Y1635D01*
X1500Y1660D01*
X1500Y1660D02*
X1500Y1670D01*
X1475Y1695D01*
X1465Y1695D01*
X1423Y1737D01*
X1423Y1775D01*
X1413Y1785D01*
X1735Y1760D02*
X1808Y1833D01*
X1735Y1760D02*
X1735Y1710D01*
X1745Y1700D01*
X1182Y1685D02*
X1192Y1675D01*
X1192Y1493D01*
X1152Y1453D01*
X1152Y1239D01*
X1193Y1199D01*
X2429Y1495D02*
X2613Y1495D01*
X2630Y1477D01*
X2630Y1300D01*
X3150Y2009D02*
X3152Y2009D01*
X3250Y2009D02*
X3252Y2009D01*
X3267Y2024D01*
X3267Y2066D01*
X3855Y1635D02*
X3860Y1630D01*
X3860Y1552D01*
X3253Y2432D02*
X3311Y2490D01*
X3253Y2432D02*
X2968Y2432D01*
X2904Y2369D01*
X2889Y2369D01*
X2889Y2618D01*
X2802Y2705D01*
X2802Y2755D01*
X2600Y2298D02*
X2585Y2298D01*
X2510Y2222D01*
X2510Y2119D01*
X2600Y2113D02*
X2748Y1965D01*
X2793Y1965D01*
X2803Y1955D01*
X2803Y1952D01*
X2814Y1882D02*
X2735Y1882D01*
X2661Y1956D01*
X2576Y1956D01*
X2512Y2019D01*
X2510Y2019D01*
X2600Y2113D02*
X2600Y2188D01*
X2750Y2188D02*
X2750Y2131D01*
X2800Y2081D01*
X2800Y2078D01*
X2889Y2334D02*
X2889Y2369D01*
D61*
X1921Y1495D02*
X2041Y1495D01*
X2762Y1495D02*
X2921Y1495D01*
X2762Y1495D02*
X2762Y1255D01*
X2757Y1250D01*
X2757Y1250D01*
D62*
X1801Y2154D02*
X1802Y2155D01*
X3938Y1198D02*
X3981Y1198D01*
X4010Y1227D01*
X4010Y1302D01*
X4075Y1366D01*
X4076Y1366D01*
X4087Y1310D02*
X4088Y1310D01*
X4096Y1318D01*
X4165Y1318D01*
X4209Y1363D01*
X4209Y1363D01*
X4087Y1310D02*
X4058Y1282D01*
X4058Y1238D01*
X4099Y1198D01*
X4142Y1198D01*
X4145Y1195D01*
X3935Y1195D02*
X3938Y1198D01*
D63*
X3224Y2348D02*
X3428Y2348D01*
D64*
X2745Y2302D02*
X2760Y2302D01*
X2882Y2180D01*
X3014Y2180D01*
X3035Y2201D01*
X3014Y2180D02*
X3014Y2119D01*
X3019Y2115D01*
D65*
X2048Y1038D02*
D03*
X2302Y1038D02*
D03*
X3048Y1038D02*
D03*
X3302Y1038D02*
D03*
D66*
X1175Y675D02*
D03*
X1175Y2675D02*
D03*
X4175Y675D02*
D03*
X4175Y2675D02*
D03*
D67*
X3578Y2565D02*
D03*
X3578Y2692D02*
D03*
X3746Y2565D02*
D03*
X3746Y2438D02*
D03*
D68*
X3578Y2438D02*
D03*
D69*
X1386Y2222D02*
D03*
X2051Y1487D02*
D03*
X2762Y1495D02*
D03*
X2757Y1250D02*
D03*
X2630Y1300D02*
D03*
X3006Y1230D02*
D03*
X3603Y1069D02*
D03*
X4255Y1448D02*
D03*
X4209Y1765D02*
D03*
X3701Y1819D02*
D03*
X3625Y1772D02*
D03*
X3560Y2091D02*
D03*
X3464Y2017D02*
D03*
X3846Y2009D02*
D03*
X3790Y1489D02*
D03*
X3654Y1489D02*
D03*
X3636Y1388D02*
D03*
X3035Y2201D02*
D03*
X3208Y2361D02*
D03*
X2675Y2833D02*
D03*
X2414Y2428D02*
D03*
X2814Y1882D02*
D03*
X2115Y2124D02*
D03*
X1904Y2091D02*
D03*
M02*
