M48
;Layer_Color=9474304
;FILE_FORMAT=2:5
INCH
;TYPE=PLATED
T1F00S00C0.01181
T2F00S00C0.01772
T3F00S00C0.02795
T4F00S00C0.08268
;TYPE=NON_PLATED
%
T01
X0000000Y-0013484
Y0078445
T02
X-0007893Y0026152
X0004737Y0022757
X0013289Y0030492
X0017076Y0035240
X0002432Y0045519
X-0007972Y0044854
X-0010549Y0060562
X0006926Y0054895
T03
X-0005000Y-0002165
X0000000
X0005000
Y0067126
X0000000
X-0005000
T04
X-0019685Y0007874
X0019685
Y0057087
X-0019685
M30
