G04*
G04 #@! TF.GenerationSoftware,Altium Limited,Altium Designer,21.9.2 (33)*
G04*
G04 Layer_Color=16711935*
%FSAX26Y26*%
%MOIN*%
G70*
G04*
G04 #@! TF.SameCoordinates,A79AF696-8D6D-4074-B618-5125023845C1*
G04*
G04*
G04 #@! TF.FilePolarity,Positive*
G04*
G01*
G75*
%ADD38C,0.003937*%
G36*
X00717746Y-00915110D02*
X00718179Y-00915110D01*
X00718673Y-00915140D01*
X00719230Y-00915171D01*
X00719817Y-00915233D01*
X00721053Y-00915388D01*
X00722289Y-00915604D01*
X00722907Y-00915758D01*
X00723463Y-00915913D01*
X00724019Y-00916129D01*
X00724483Y-00916346D01*
X00724483Y-00920981D01*
X00724452Y-00920950D01*
X00724328Y-00920888D01*
X00724174Y-00920795D01*
X00723927Y-00920641D01*
X00723617Y-00920486D01*
X00723247Y-00920301D01*
X00722814Y-00920084D01*
X00722320Y-00919899D01*
X00721764Y-00919683D01*
X00721145Y-00919497D01*
X00720497Y-00919312D01*
X00719786Y-00919157D01*
X00719044Y-00919003D01*
X00718241Y-00918910D01*
X00717376Y-00918848D01*
X00716480Y-00918817D01*
X00715985Y-00918817D01*
X00715645Y-00918848D01*
X00715244Y-00918879D01*
X00714780Y-00918941D01*
X00714286Y-00919003D01*
X00713791Y-00919096D01*
X00713730Y-00919096D01*
X00713575Y-00919157D01*
X00713328Y-00919219D01*
X00712988Y-00919312D01*
X00712617Y-00919436D01*
X00712215Y-00919590D01*
X00711783Y-00919806D01*
X00711381Y-00920023D01*
X00711350Y-00920053D01*
X00711196Y-00920146D01*
X00711010Y-00920270D01*
X00710763Y-00920455D01*
X00710516Y-00920702D01*
X00710207Y-00920981D01*
X00709929Y-00921289D01*
X00709682Y-00921660D01*
X00709651Y-00921691D01*
X00709589Y-00921846D01*
X00709465Y-00922062D01*
X00709373Y-00922340D01*
X00709249Y-00922680D01*
X00709125Y-00923113D01*
X00709064Y-00923576D01*
X00709033Y-00924101D01*
X00709033Y-00924163D01*
X00709033Y-00924318D01*
X00709064Y-00924596D01*
X00709095Y-00924905D01*
X00709156Y-00925276D01*
X00709249Y-00925677D01*
X00709373Y-00926079D01*
X00709527Y-00926450D01*
X00709558Y-00926481D01*
X00709620Y-00926604D01*
X00709743Y-00926790D01*
X00709898Y-00927037D01*
X00710114Y-00927315D01*
X00710361Y-00927624D01*
X00710670Y-00927933D01*
X00711010Y-00928242D01*
X00711041Y-00928273D01*
X00711196Y-00928366D01*
X00711412Y-00928551D01*
X00711690Y-00928736D01*
X00712030Y-00928984D01*
X00712432Y-00929231D01*
X00712895Y-00929540D01*
X00713390Y-00929818D01*
X00713420Y-00929818D01*
X00713451Y-00929849D01*
X00713637Y-00929942D01*
X00713946Y-00930096D01*
X00714317Y-00930312D01*
X00714811Y-00930529D01*
X00715367Y-00930807D01*
X00715985Y-00931116D01*
X00716634Y-00931456D01*
X00716665Y-00931456D01*
X00716727Y-00931486D01*
X00716819Y-00931548D01*
X00716943Y-00931610D01*
X00717129Y-00931703D01*
X00717314Y-00931795D01*
X00717777Y-00932043D01*
X00718334Y-00932352D01*
X00718952Y-00932692D01*
X00719570Y-00933032D01*
X00720218Y-00933433D01*
X00720249Y-00933433D01*
X00720280Y-00933464D01*
X00720373Y-00933526D01*
X00720497Y-00933619D01*
X00720837Y-00933835D01*
X00721238Y-00934113D01*
X00721702Y-00934453D01*
X00722196Y-00934824D01*
X00722691Y-00935256D01*
X00723185Y-00935720D01*
X00723247Y-00935782D01*
X00723401Y-00935936D01*
X00723617Y-00936183D01*
X00723927Y-00936523D01*
X00724236Y-00936925D01*
X00724575Y-00937388D01*
X00724884Y-00937914D01*
X00725193Y-00938470D01*
X00725193Y-00938501D01*
X00725224Y-00938532D01*
X00725255Y-00938624D01*
X00725317Y-00938748D01*
X00725441Y-00939057D01*
X00725595Y-00939459D01*
X00725719Y-00939984D01*
X00725842Y-00940571D01*
X00725935Y-00941220D01*
X00725966Y-00941931D01*
X00725966Y-00941962D01*
X00725966Y-00942054D01*
X00725966Y-00942178D01*
X00725966Y-00942363D01*
X00725935Y-00942580D01*
X00725904Y-00942858D01*
X00725873Y-00943136D01*
X00725842Y-00943445D01*
X00725719Y-00944155D01*
X00725533Y-00944897D01*
X00725286Y-00945639D01*
X00724946Y-00946349D01*
X00724946Y-00946380D01*
X00724915Y-00946442D01*
X00724854Y-00946535D01*
X00724761Y-00946658D01*
X00724544Y-00946967D01*
X00724236Y-00947400D01*
X00723834Y-00947864D01*
X00723370Y-00948358D01*
X00722814Y-00948821D01*
X00722196Y-00949285D01*
X00722165Y-00949285D01*
X00722103Y-00949347D01*
X00722011Y-00949378D01*
X00721887Y-00949470D01*
X00721733Y-00949563D01*
X00721516Y-00949656D01*
X00721053Y-00949903D01*
X00720466Y-00950150D01*
X00719786Y-00950428D01*
X00719044Y-00950675D01*
X00718210Y-00950892D01*
X00718179Y-00950892D01*
X00718117Y-00950923D01*
X00717994Y-00950923D01*
X00717808Y-00950953D01*
X00717623Y-00951015D01*
X00717376Y-00951046D01*
X00717098Y-00951077D01*
X00716758Y-00951139D01*
X00716047Y-00951232D01*
X00715244Y-00951293D01*
X00714378Y-00951355D01*
X00713451Y-00951386D01*
X00713111Y-00951386D01*
X00712895Y-00951355D01*
X00712586Y-00951355D01*
X00712215Y-00951324D01*
X00711814Y-00951293D01*
X00711381Y-00951232D01*
X00711319Y-00951232D01*
X00711165Y-00951201D01*
X00710918Y-00951170D01*
X00710609Y-00951139D01*
X00710238Y-00951077D01*
X00709805Y-00951015D01*
X00709373Y-00950953D01*
X00708878Y-00950861D01*
X00708816Y-00950861D01*
X00708662Y-00950830D01*
X00708415Y-00950768D01*
X00708106Y-00950675D01*
X00707735Y-00950614D01*
X00707333Y-00950490D01*
X00706468Y-00950243D01*
X00706406Y-00950212D01*
X00706283Y-00950181D01*
X00706066Y-00950088D01*
X00705819Y-00949996D01*
X00705541Y-00949872D01*
X00705232Y-00949717D01*
X00704923Y-00949563D01*
X00704645Y-00949378D01*
X00704645Y-00944526D01*
X00704676Y-00944557D01*
X00704799Y-00944650D01*
X00704985Y-00944804D01*
X00705201Y-00944959D01*
X00705510Y-00945175D01*
X00705850Y-00945391D01*
X00706221Y-00945639D01*
X00706653Y-00945855D01*
X00706715Y-00945886D01*
X00706870Y-00945948D01*
X00707086Y-00946071D01*
X00707395Y-00946195D01*
X00707766Y-00946349D01*
X00708168Y-00946535D01*
X00708631Y-00946720D01*
X00709095Y-00946875D01*
X00709156Y-00946906D01*
X00709311Y-00946937D01*
X00709589Y-00946998D01*
X00709898Y-00947091D01*
X00710300Y-00947215D01*
X00710732Y-00947307D01*
X00711690Y-00947493D01*
X00711752Y-00947493D01*
X00711906Y-00947524D01*
X00712154Y-00947554D01*
X00712494Y-00947585D01*
X00712864Y-00947647D01*
X00713266Y-00947678D01*
X00714100Y-00947709D01*
X00714471Y-00947709D01*
X00714718Y-00947678D01*
X00715027Y-00947678D01*
X00715398Y-00947647D01*
X00715800Y-00947585D01*
X00716232Y-00947524D01*
X00717159Y-00947369D01*
X00718086Y-00947122D01*
X00718982Y-00946782D01*
X00719384Y-00946566D01*
X00719755Y-00946318D01*
X00719786Y-00946288D01*
X00719848Y-00946257D01*
X00719940Y-00946164D01*
X00720064Y-00946040D01*
X00720188Y-00945917D01*
X00720342Y-00945731D01*
X00720528Y-00945515D01*
X00720713Y-00945268D01*
X00720867Y-00944990D01*
X00721053Y-00944712D01*
X00721362Y-00944001D01*
X00721455Y-00943599D01*
X00721547Y-00943167D01*
X00721609Y-00942734D01*
X00721640Y-00942240D01*
X00721640Y-00942209D01*
X00721640Y-00942178D01*
X00721640Y-00941992D01*
X00721609Y-00941745D01*
X00721578Y-00941405D01*
X00721485Y-00941004D01*
X00721393Y-00940602D01*
X00721238Y-00940169D01*
X00721022Y-00939768D01*
X00720991Y-00939706D01*
X00720898Y-00939582D01*
X00720775Y-00939397D01*
X00720589Y-00939119D01*
X00720342Y-00938841D01*
X00720033Y-00938501D01*
X00719693Y-00938192D01*
X00719292Y-00937852D01*
X00719230Y-00937821D01*
X00719106Y-00937697D01*
X00718859Y-00937512D01*
X00718550Y-00937296D01*
X00718148Y-00937048D01*
X00717716Y-00936770D01*
X00717221Y-00936461D01*
X00716665Y-00936183D01*
X00716634Y-00936183D01*
X00716603Y-00936152D01*
X00716510Y-00936091D01*
X00716418Y-00936029D01*
X00716109Y-00935874D01*
X00715707Y-00935658D01*
X00715213Y-00935411D01*
X00714657Y-00935133D01*
X00714069Y-00934824D01*
X00713420Y-00934484D01*
X00713390Y-00934484D01*
X00713328Y-00934453D01*
X00713235Y-00934391D01*
X00713111Y-00934329D01*
X00712772Y-00934144D01*
X00712308Y-00933897D01*
X00711783Y-00933619D01*
X00711196Y-00933310D01*
X00709991Y-00932599D01*
X00709960Y-00932599D01*
X00709929Y-00932568D01*
X00709836Y-00932506D01*
X00709712Y-00932444D01*
X00709434Y-00932228D01*
X00709064Y-00931981D01*
X00708631Y-00931672D01*
X00708168Y-00931301D01*
X00707704Y-00930930D01*
X00707240Y-00930498D01*
X00707179Y-00930436D01*
X00707055Y-00930281D01*
X00706839Y-00930065D01*
X00706561Y-00929756D01*
X00706283Y-00929354D01*
X00705974Y-00928922D01*
X00705665Y-00928427D01*
X00705386Y-00927902D01*
X00705386Y-00927871D01*
X00705356Y-00927840D01*
X00705325Y-00927748D01*
X00705294Y-00927624D01*
X00705170Y-00927315D01*
X00705047Y-00926913D01*
X00704923Y-00926419D01*
X00704799Y-00925832D01*
X00704738Y-00925183D01*
X00704707Y-00924472D01*
X00704707Y-00924441D01*
X00704707Y-00924380D01*
X00704707Y-00924225D01*
X00704738Y-00924071D01*
X00704738Y-00923854D01*
X00704769Y-00923607D01*
X00704830Y-00923051D01*
X00704954Y-00922402D01*
X00705139Y-00921691D01*
X00705417Y-00920981D01*
X00705757Y-00920301D01*
X00705757Y-00920270D01*
X00705819Y-00920208D01*
X00705881Y-00920115D01*
X00705943Y-00919992D01*
X00706190Y-00919683D01*
X00706499Y-00919250D01*
X00706901Y-00918787D01*
X00707364Y-00918292D01*
X00707889Y-00917829D01*
X00708507Y-00917365D01*
X00708538Y-00917365D01*
X00708600Y-00917303D01*
X00708693Y-00917242D01*
X00708816Y-00917180D01*
X00708971Y-00917087D01*
X00709156Y-00916963D01*
X00709651Y-00916716D01*
X00710238Y-00916438D01*
X00710887Y-00916160D01*
X00711628Y-00915882D01*
X00712432Y-00915666D01*
X00712463Y-00915666D01*
X00712524Y-00915635D01*
X00712648Y-00915604D01*
X00712803Y-00915573D01*
X00713019Y-00915542D01*
X00713235Y-00915480D01*
X00713513Y-00915418D01*
X00713822Y-00915357D01*
X00714502Y-00915264D01*
X00715244Y-00915171D01*
X00716078Y-00915110D01*
X00716912Y-00915079D01*
X00717407Y-00915079D01*
X00717746Y-00915110D01*
X00717746Y-00915110D02*
G37*
G36*
X00524189Y-00915110D02*
X00524683Y-00915140D01*
X00525270Y-00915171D01*
X00525888Y-00915233D01*
X00526599Y-00915326D01*
X00527341Y-00915418D01*
X00528113Y-00915542D01*
X00528917Y-00915697D01*
X00529720Y-00915882D01*
X00530523Y-00916098D01*
X00531327Y-00916346D01*
X00532130Y-00916624D01*
X00532872Y-00916963D01*
X00532872Y-00921506D01*
X00532810Y-00921475D01*
X00532686Y-00921382D01*
X00532439Y-00921259D01*
X00532130Y-00921073D01*
X00531698Y-00920888D01*
X00531203Y-00920641D01*
X00530647Y-00920424D01*
X00529998Y-00920146D01*
X00529318Y-00919899D01*
X00528546Y-00919652D01*
X00527712Y-00919436D01*
X00526815Y-00919250D01*
X00525857Y-00919065D01*
X00524869Y-00918941D01*
X00523849Y-00918848D01*
X00522768Y-00918817D01*
X00522520Y-00918817D01*
X00522211Y-00918848D01*
X00521779Y-00918879D01*
X00521284Y-00918941D01*
X00520697Y-00919034D01*
X00520048Y-00919157D01*
X00519338Y-00919312D01*
X00518596Y-00919528D01*
X00517823Y-00919806D01*
X00517020Y-00920146D01*
X00516186Y-00920548D01*
X00515382Y-00921011D01*
X00514610Y-00921537D01*
X00513837Y-00922186D01*
X00513096Y-00922896D01*
X00513065Y-00922927D01*
X00512941Y-00923082D01*
X00512756Y-00923298D01*
X00512509Y-00923638D01*
X00512231Y-00924040D01*
X00511891Y-00924503D01*
X00511551Y-00925090D01*
X00511211Y-00925739D01*
X00510871Y-00926450D01*
X00510531Y-00927253D01*
X00510191Y-00928118D01*
X00509913Y-00929045D01*
X00509666Y-00930034D01*
X00509481Y-00931085D01*
X00509357Y-00932228D01*
X00509326Y-00933402D01*
X00509326Y-00933433D01*
X00509326Y-00933464D01*
X00509326Y-00933557D01*
X00509326Y-00933680D01*
X00509326Y-00933866D01*
X00509357Y-00934051D01*
X00509388Y-00934515D01*
X00509419Y-00935071D01*
X00509511Y-00935720D01*
X00509604Y-00936431D01*
X00509759Y-00937203D01*
X00509944Y-00938037D01*
X00510191Y-00938903D01*
X00510469Y-00939768D01*
X00510809Y-00940664D01*
X00511211Y-00941529D01*
X00511674Y-00942363D01*
X00512200Y-00943167D01*
X00512818Y-00943908D01*
X00512849Y-00943939D01*
X00512972Y-00944063D01*
X00513188Y-00944248D01*
X00513467Y-00944495D01*
X00513807Y-00944774D01*
X00514239Y-00945113D01*
X00514734Y-00945453D01*
X00515321Y-00945793D01*
X00515970Y-00946164D01*
X00516680Y-00946504D01*
X00517453Y-00946813D01*
X00518318Y-00947122D01*
X00519214Y-00947369D01*
X00520203Y-00947554D01*
X00521222Y-00947678D01*
X00522335Y-00947709D01*
X00522737Y-00947709D01*
X00523015Y-00947678D01*
X00523385Y-00947647D01*
X00523787Y-00947616D01*
X00524251Y-00947585D01*
X00524776Y-00947493D01*
X00525301Y-00947431D01*
X00525888Y-00947307D01*
X00527063Y-00947029D01*
X00527681Y-00946844D01*
X00528268Y-00946597D01*
X00528855Y-00946349D01*
X00529442Y-00946071D01*
X00529442Y-00936214D01*
X00521748Y-00936214D01*
X00521748Y-00932475D01*
X00533582Y-00932475D01*
X00533582Y-00948420D01*
X00533521Y-00948451D01*
X00533335Y-00948543D01*
X00533057Y-00948698D01*
X00532655Y-00948883D01*
X00532161Y-00949100D01*
X00531574Y-00949347D01*
X00530894Y-00949625D01*
X00530122Y-00949903D01*
X00529287Y-00950181D01*
X00528360Y-00950459D01*
X00527403Y-00950706D01*
X00526383Y-00950923D01*
X00525301Y-00951108D01*
X00524158Y-00951263D01*
X00523015Y-00951355D01*
X00521810Y-00951386D01*
X00521470Y-00951386D01*
X00521315Y-00951355D01*
X00521099Y-00951355D01*
X00520852Y-00951324D01*
X00520574Y-00951324D01*
X00519925Y-00951232D01*
X00519183Y-00951139D01*
X00518380Y-00950984D01*
X00517484Y-00950768D01*
X00516526Y-00950521D01*
X00515537Y-00950212D01*
X00514517Y-00949810D01*
X00513497Y-00949347D01*
X00512478Y-00948790D01*
X00511489Y-00948142D01*
X00510531Y-00947400D01*
X00509635Y-00946566D01*
X00509573Y-00946504D01*
X00509450Y-00946349D01*
X00509202Y-00946071D01*
X00508924Y-00945670D01*
X00508553Y-00945206D01*
X00508183Y-00944619D01*
X00507750Y-00943908D01*
X00507317Y-00943136D01*
X00506885Y-00942271D01*
X00506452Y-00941282D01*
X00506082Y-00940231D01*
X00505711Y-00939088D01*
X00505433Y-00937883D01*
X00505185Y-00936554D01*
X00505062Y-00935164D01*
X00505000Y-00933711D01*
X00505000Y-00933680D01*
X00505000Y-00933619D01*
X00505000Y-00933495D01*
X00505000Y-00933341D01*
X00505031Y-00933155D01*
X00505031Y-00932908D01*
X00505062Y-00932661D01*
X00505093Y-00932352D01*
X00505124Y-00932012D01*
X00505154Y-00931672D01*
X00505278Y-00930869D01*
X00505433Y-00929942D01*
X00505649Y-00928984D01*
X00505927Y-00927933D01*
X00506267Y-00926851D01*
X00506669Y-00925739D01*
X00507163Y-00924627D01*
X00507781Y-00923514D01*
X00508461Y-00922402D01*
X00509264Y-00921351D01*
X00510160Y-00920332D01*
X00510222Y-00920270D01*
X00510408Y-00920115D01*
X00510686Y-00919837D01*
X00511087Y-00919497D01*
X00511613Y-00919126D01*
X00512200Y-00918663D01*
X00512910Y-00918199D01*
X00513745Y-00917705D01*
X00514641Y-00917211D01*
X00515630Y-00916747D01*
X00516680Y-00916284D01*
X00517854Y-00915913D01*
X00519090Y-00915573D01*
X00520388Y-00915295D01*
X00521779Y-00915140D01*
X00523231Y-00915079D01*
X00523787Y-00915079D01*
X00524189Y-00915110D01*
X00524189Y-00915110D02*
G37*
G36*
X00744290Y-00925152D02*
X00744599Y-00925152D01*
X00744908Y-00925183D01*
X00745309Y-00925214D01*
X00745711Y-00925276D01*
X00746638Y-00925430D01*
X00747596Y-00925646D01*
X00748616Y-00925955D01*
X00749573Y-00926357D01*
X00749573Y-00930467D01*
X00749543Y-00930436D01*
X00749450Y-00930374D01*
X00749295Y-00930281D01*
X00749079Y-00930158D01*
X00748832Y-00930003D01*
X00748523Y-00929849D01*
X00748183Y-00929663D01*
X00747781Y-00929478D01*
X00747349Y-00929323D01*
X00746885Y-00929138D01*
X00745896Y-00928829D01*
X00745340Y-00928706D01*
X00744784Y-00928613D01*
X00744197Y-00928551D01*
X00743610Y-00928520D01*
X00743455Y-00928520D01*
X00743239Y-00928551D01*
X00742961Y-00928551D01*
X00742652Y-00928613D01*
X00742250Y-00928675D01*
X00741818Y-00928736D01*
X00741385Y-00928860D01*
X00740891Y-00929014D01*
X00740365Y-00929200D01*
X00739840Y-00929416D01*
X00739315Y-00929694D01*
X00738789Y-00930003D01*
X00738264Y-00930374D01*
X00737770Y-00930776D01*
X00737275Y-00931270D01*
X00737244Y-00931301D01*
X00737183Y-00931394D01*
X00737059Y-00931548D01*
X00736904Y-00931765D01*
X00736719Y-00932043D01*
X00736503Y-00932383D01*
X00736287Y-00932753D01*
X00736070Y-00933217D01*
X00735823Y-00933711D01*
X00735607Y-00934237D01*
X00735390Y-00934824D01*
X00735205Y-00935473D01*
X00735051Y-00936183D01*
X00734927Y-00936894D01*
X00734865Y-00937667D01*
X00734834Y-00938501D01*
X00734834Y-00938563D01*
X00734834Y-00938686D01*
X00734865Y-00938933D01*
X00734865Y-00939242D01*
X00734896Y-00939613D01*
X00734958Y-00940046D01*
X00735020Y-00940509D01*
X00735112Y-00941035D01*
X00735236Y-00941591D01*
X00735390Y-00942147D01*
X00735576Y-00942734D01*
X00735823Y-00943321D01*
X00736070Y-00943877D01*
X00736379Y-00944434D01*
X00736750Y-00944990D01*
X00737152Y-00945484D01*
X00737183Y-00945515D01*
X00737275Y-00945577D01*
X00737399Y-00945731D01*
X00737584Y-00945886D01*
X00737801Y-00946071D01*
X00738079Y-00946288D01*
X00738419Y-00946504D01*
X00738789Y-00946751D01*
X00739222Y-00946998D01*
X00739686Y-00947215D01*
X00740211Y-00947431D01*
X00740736Y-00947616D01*
X00741354Y-00947771D01*
X00741972Y-00947894D01*
X00742652Y-00947987D01*
X00743363Y-00948018D01*
X00743672Y-00948018D01*
X00743919Y-00947987D01*
X00744197Y-00947956D01*
X00744568Y-00947894D01*
X00744938Y-00947833D01*
X00745371Y-00947740D01*
X00745835Y-00947647D01*
X00746298Y-00947493D01*
X00746823Y-00947307D01*
X00747349Y-00947091D01*
X00747905Y-00946844D01*
X00748430Y-00946566D01*
X00748986Y-00946226D01*
X00749543Y-00945855D01*
X00749543Y-00949656D01*
X00749512Y-00949687D01*
X00749419Y-00949717D01*
X00749264Y-00949810D01*
X00749017Y-00949934D01*
X00748739Y-00950057D01*
X00748430Y-00950212D01*
X00748029Y-00950366D01*
X00747596Y-00950521D01*
X00747101Y-00950675D01*
X00746607Y-00950830D01*
X00746020Y-00950984D01*
X00745433Y-00951108D01*
X00744784Y-00951232D01*
X00744104Y-00951324D01*
X00743424Y-00951355D01*
X00742683Y-00951386D01*
X00742436Y-00951386D01*
X00742158Y-00951355D01*
X00741787Y-00951324D01*
X00741323Y-00951293D01*
X00740798Y-00951201D01*
X00740211Y-00951108D01*
X00739593Y-00950953D01*
X00738913Y-00950768D01*
X00738202Y-00950552D01*
X00737492Y-00950274D01*
X00736750Y-00949934D01*
X00736039Y-00949532D01*
X00735329Y-00949069D01*
X00734649Y-00948543D01*
X00734000Y-00947925D01*
X00733969Y-00947894D01*
X00733845Y-00947771D01*
X00733691Y-00947554D01*
X00733475Y-00947276D01*
X00733227Y-00946937D01*
X00732949Y-00946535D01*
X00732671Y-00946040D01*
X00732362Y-00945484D01*
X00732053Y-00944866D01*
X00731775Y-00944186D01*
X00731497Y-00943445D01*
X00731250Y-00942641D01*
X00731034Y-00941776D01*
X00730879Y-00940849D01*
X00730755Y-00939891D01*
X00730725Y-00938872D01*
X00730725Y-00938841D01*
X00730725Y-00938810D01*
X00730725Y-00938717D01*
X00730725Y-00938593D01*
X00730755Y-00938284D01*
X00730786Y-00937852D01*
X00730848Y-00937327D01*
X00730910Y-00936709D01*
X00731034Y-00936029D01*
X00731157Y-00935287D01*
X00731342Y-00934515D01*
X00731590Y-00933711D01*
X00731868Y-00932877D01*
X00732239Y-00932043D01*
X00732640Y-00931208D01*
X00733104Y-00930405D01*
X00733660Y-00929633D01*
X00734278Y-00928891D01*
X00734309Y-00928860D01*
X00734433Y-00928736D01*
X00734649Y-00928551D01*
X00734927Y-00928304D01*
X00735298Y-00928026D01*
X00735699Y-00927686D01*
X00736225Y-00927346D01*
X00736781Y-00927006D01*
X00737430Y-00926666D01*
X00738140Y-00926326D01*
X00738913Y-00925986D01*
X00739778Y-00925708D01*
X00740674Y-00925461D01*
X00741632Y-00925276D01*
X00742652Y-00925152D01*
X00743733Y-00925121D01*
X00744073Y-00925121D01*
X00744290Y-00925152D01*
X00744290Y-00925152D02*
G37*
G36*
X00796263Y-00925307D02*
X00796603Y-00925307D01*
X00796974Y-00925368D01*
X00797376Y-00925430D01*
X00797778Y-00925492D01*
X00798117Y-00925615D01*
X00798117Y-00929787D01*
X00798056Y-00929756D01*
X00797932Y-00929663D01*
X00797685Y-00929540D01*
X00797345Y-00929385D01*
X00796881Y-00929231D01*
X00796387Y-00929107D01*
X00795769Y-00929014D01*
X00795058Y-00928984D01*
X00794811Y-00928984D01*
X00794626Y-00929014D01*
X00794409Y-00929045D01*
X00794162Y-00929107D01*
X00793575Y-00929293D01*
X00793235Y-00929416D01*
X00792895Y-00929571D01*
X00792524Y-00929787D01*
X00792154Y-00930003D01*
X00791814Y-00930281D01*
X00791443Y-00930621D01*
X00791103Y-00930992D01*
X00790763Y-00931425D01*
X00790732Y-00931456D01*
X00790701Y-00931548D01*
X00790609Y-00931672D01*
X00790485Y-00931857D01*
X00790361Y-00932105D01*
X00790207Y-00932413D01*
X00790053Y-00932753D01*
X00789898Y-00933155D01*
X00789744Y-00933588D01*
X00789589Y-00934082D01*
X00789434Y-00934638D01*
X00789311Y-00935225D01*
X00789187Y-00935874D01*
X00789095Y-00936554D01*
X00789064Y-00937265D01*
X00789033Y-00938037D01*
X00789033Y-00950799D01*
X00785016Y-00950799D01*
X00785016Y-00925708D01*
X00789033Y-00925708D01*
X00789033Y-00930899D01*
X00789125Y-00930899D01*
X00789125Y-00930869D01*
X00789156Y-00930776D01*
X00789218Y-00930652D01*
X00789280Y-00930467D01*
X00789373Y-00930250D01*
X00789496Y-00929972D01*
X00789774Y-00929385D01*
X00790145Y-00928706D01*
X00790609Y-00928026D01*
X00791134Y-00927377D01*
X00791752Y-00926759D01*
X00791783Y-00926728D01*
X00791845Y-00926697D01*
X00791937Y-00926635D01*
X00792061Y-00926512D01*
X00792216Y-00926419D01*
X00792432Y-00926295D01*
X00792895Y-00926017D01*
X00793482Y-00925739D01*
X00794162Y-00925492D01*
X00794904Y-00925337D01*
X00795306Y-00925307D01*
X00795707Y-00925276D01*
X00795954Y-00925276D01*
X00796263Y-00925307D01*
X00796263Y-00925307D02*
G37*
G36*
X00639879Y-00938408D02*
X00626499Y-00938408D01*
X00626499Y-00935256D01*
X00639879Y-00935256D01*
X00639879Y-00938408D01*
X00639879Y-00938408D02*
G37*
G36*
X00577553Y-00950799D02*
X00573443Y-00950799D01*
X00573443Y-00927253D01*
X00573443Y-00927222D01*
X00573443Y-00927130D01*
X00573443Y-00926975D01*
X00573443Y-00926759D01*
X00573443Y-00926481D01*
X00573474Y-00926141D01*
X00573474Y-00925770D01*
X00573505Y-00925337D01*
X00573505Y-00924874D01*
X00573536Y-00924349D01*
X00573567Y-00923792D01*
X00573598Y-00923174D01*
X00573629Y-00922525D01*
X00573691Y-00921846D01*
X00573753Y-00921135D01*
X00573814Y-00920393D01*
X00573691Y-00920393D01*
X00573691Y-00920424D01*
X00573660Y-00920486D01*
X00573629Y-00920610D01*
X00573598Y-00920795D01*
X00573536Y-00920981D01*
X00573474Y-00921197D01*
X00573351Y-00921722D01*
X00573165Y-00922278D01*
X00573011Y-00922835D01*
X00572826Y-00923360D01*
X00572733Y-00923607D01*
X00572640Y-00923823D01*
X00560651Y-00950799D01*
X00558642Y-00950799D01*
X00546653Y-00924009D01*
X00546622Y-00923947D01*
X00546561Y-00923792D01*
X00546468Y-00923514D01*
X00546313Y-00923113D01*
X00546159Y-00922618D01*
X00546004Y-00922000D01*
X00545788Y-00921259D01*
X00545603Y-00920393D01*
X00545510Y-00920393D01*
X00545510Y-00920424D01*
X00545510Y-00920486D01*
X00545541Y-00920610D01*
X00545541Y-00920795D01*
X00545541Y-00921042D01*
X00545572Y-00921320D01*
X00545572Y-00921660D01*
X00545603Y-00922062D01*
X00545634Y-00922495D01*
X00545634Y-00923020D01*
X00545664Y-00923576D01*
X00545664Y-00924194D01*
X00545664Y-00924874D01*
X00545695Y-00925615D01*
X00545695Y-00926419D01*
X00545695Y-00927284D01*
X00545695Y-00950799D01*
X00541740Y-00950799D01*
X00541740Y-00915666D01*
X00547178Y-00915666D01*
X00557963Y-00940169D01*
X00557963Y-00940200D01*
X00558024Y-00940293D01*
X00558086Y-00940447D01*
X00558148Y-00940633D01*
X00558272Y-00940880D01*
X00558364Y-00941127D01*
X00558642Y-00941776D01*
X00558890Y-00942456D01*
X00559168Y-00943167D01*
X00559384Y-00943816D01*
X00559477Y-00944125D01*
X00559569Y-00944403D01*
X00559724Y-00944403D01*
X00559724Y-00944372D01*
X00559786Y-00944279D01*
X00559817Y-00944125D01*
X00559909Y-00943939D01*
X00560002Y-00943692D01*
X00560095Y-00943414D01*
X00560342Y-00942765D01*
X00560589Y-00942054D01*
X00560867Y-00941344D01*
X00561145Y-00940664D01*
X00561269Y-00940355D01*
X00561393Y-00940077D01*
X00572393Y-00915666D01*
X00577553Y-00915666D01*
X00577553Y-00950799D01*
X00577553Y-00950799D02*
G37*
G36*
X00674486Y-00950799D02*
X00669944Y-00950799D01*
X00657213Y-00915666D01*
X00661787Y-00915666D01*
X00671520Y-00943538D01*
X00671551Y-00943599D01*
X00671613Y-00943785D01*
X00671675Y-00944063D01*
X00671798Y-00944434D01*
X00671891Y-00944897D01*
X00672014Y-00945422D01*
X00672138Y-00946010D01*
X00672231Y-00946658D01*
X00672323Y-00946658D01*
X00672323Y-00946628D01*
X00672323Y-00946597D01*
X00672354Y-00946504D01*
X00672354Y-00946411D01*
X00672416Y-00946102D01*
X00672509Y-00945701D01*
X00672602Y-00945237D01*
X00672756Y-00944681D01*
X00672911Y-00944094D01*
X00673127Y-00943476D01*
X00683046Y-00915666D01*
X00687495Y-00915666D01*
X00674486Y-00950799D01*
X00674486Y-00950799D02*
G37*
G36*
X00596217Y-00915110D02*
X00596464Y-00915110D01*
X00596711Y-00915140D01*
X00597020Y-00915171D01*
X00597360Y-00915202D01*
X00598071Y-00915357D01*
X00598874Y-00915542D01*
X00599678Y-00915789D01*
X00600450Y-00916160D01*
X00600481Y-00916160D01*
X00600543Y-00916222D01*
X00600666Y-00916284D01*
X00600790Y-00916346D01*
X00600975Y-00916469D01*
X00601192Y-00916593D01*
X00601655Y-00916933D01*
X00602211Y-00917396D01*
X00602798Y-00917921D01*
X00603355Y-00918539D01*
X00603911Y-00919281D01*
X00603942Y-00919312D01*
X00603973Y-00919374D01*
X00604034Y-00919497D01*
X00604127Y-00919652D01*
X00604251Y-00919837D01*
X00604405Y-00920084D01*
X00604529Y-00920362D01*
X00604714Y-00920672D01*
X00604869Y-00921011D01*
X00605054Y-00921413D01*
X00605209Y-00921815D01*
X00605394Y-00922278D01*
X00605734Y-00923236D01*
X00606043Y-00924318D01*
X00606043Y-00924349D01*
X00606074Y-00924441D01*
X00606105Y-00924627D01*
X00606167Y-00924843D01*
X00606228Y-00925121D01*
X00606290Y-00925461D01*
X00606352Y-00925832D01*
X00606414Y-00926295D01*
X00606476Y-00926759D01*
X00606537Y-00927284D01*
X00606599Y-00927840D01*
X00606661Y-00928458D01*
X00606723Y-00929076D01*
X00606754Y-00929756D01*
X00606785Y-00931147D01*
X00606785Y-00931208D01*
X00606785Y-00931363D01*
X00606785Y-00931610D01*
X00606785Y-00931950D01*
X00606754Y-00932383D01*
X00606723Y-00932877D01*
X00606692Y-00933433D01*
X00606661Y-00934020D01*
X00606630Y-00934669D01*
X00606537Y-00935349D01*
X00606383Y-00936801D01*
X00606136Y-00938284D01*
X00605827Y-00939737D01*
X00605827Y-00939768D01*
X00605796Y-00939891D01*
X00605734Y-00940108D01*
X00605641Y-00940355D01*
X00605549Y-00940695D01*
X00605425Y-00941066D01*
X00605270Y-00941467D01*
X00605116Y-00941931D01*
X00604714Y-00942919D01*
X00604251Y-00944001D01*
X00603664Y-00945082D01*
X00603015Y-00946102D01*
X00602984Y-00946133D01*
X00602922Y-00946226D01*
X00602829Y-00946349D01*
X00602675Y-00946535D01*
X00602520Y-00946751D01*
X00602304Y-00946998D01*
X00602057Y-00947276D01*
X00601779Y-00947554D01*
X00601470Y-00947894D01*
X00601130Y-00948203D01*
X00600357Y-00948852D01*
X00599492Y-00949501D01*
X00598534Y-00950057D01*
X00598503Y-00950057D01*
X00598411Y-00950119D01*
X00598256Y-00950181D01*
X00598071Y-00950274D01*
X00597824Y-00950366D01*
X00597515Y-00950490D01*
X00597175Y-00950583D01*
X00596804Y-00950706D01*
X00596371Y-00950830D01*
X00595908Y-00950953D01*
X00595413Y-00951077D01*
X00594888Y-00951170D01*
X00593745Y-00951324D01*
X00593127Y-00951355D01*
X00592509Y-00951386D01*
X00592169Y-00951386D01*
X00591922Y-00951355D01*
X00591613Y-00951355D01*
X00591273Y-00951324D01*
X00590871Y-00951293D01*
X00590438Y-00951232D01*
X00589975Y-00951170D01*
X00589481Y-00951108D01*
X00588461Y-00950892D01*
X00587410Y-00950614D01*
X00586391Y-00950212D01*
X00586391Y-00946349D01*
X00586422Y-00946380D01*
X00586514Y-00946411D01*
X00586669Y-00946504D01*
X00586885Y-00946597D01*
X00587163Y-00946720D01*
X00587472Y-00946875D01*
X00587843Y-00947029D01*
X00588245Y-00947153D01*
X00588708Y-00947307D01*
X00589172Y-00947462D01*
X00589697Y-00947616D01*
X00590222Y-00947740D01*
X00591396Y-00947925D01*
X00591984Y-00947956D01*
X00592601Y-00947987D01*
X00592849Y-00947987D01*
X00593003Y-00947956D01*
X00593220Y-00947956D01*
X00593467Y-00947925D01*
X00594023Y-00947864D01*
X00594703Y-00947740D01*
X00595413Y-00947585D01*
X00596155Y-00947338D01*
X00596866Y-00947029D01*
X00596897Y-00947029D01*
X00596958Y-00946967D01*
X00597051Y-00946937D01*
X00597175Y-00946844D01*
X00597545Y-00946628D01*
X00597978Y-00946288D01*
X00598472Y-00945886D01*
X00598998Y-00945422D01*
X00599554Y-00944835D01*
X00600048Y-00944186D01*
X00600079Y-00944155D01*
X00600110Y-00944094D01*
X00600172Y-00944001D01*
X00600265Y-00943846D01*
X00600357Y-00943661D01*
X00600481Y-00943445D01*
X00600635Y-00943198D01*
X00600790Y-00942889D01*
X00600944Y-00942580D01*
X00601099Y-00942240D01*
X00601439Y-00941436D01*
X00601748Y-00940540D01*
X00602026Y-00939551D01*
X00602026Y-00939520D01*
X00602057Y-00939428D01*
X00602088Y-00939273D01*
X00602119Y-00939057D01*
X00602181Y-00938810D01*
X00602242Y-00938501D01*
X00602304Y-00938130D01*
X00602366Y-00937728D01*
X00602428Y-00937296D01*
X00602490Y-00936801D01*
X00602551Y-00936276D01*
X00602613Y-00935720D01*
X00602675Y-00934546D01*
X00602706Y-00933248D01*
X00602613Y-00933248D01*
X00602582Y-00933310D01*
X00602520Y-00933433D01*
X00602366Y-00933680D01*
X00602181Y-00933958D01*
X00601933Y-00934298D01*
X00601593Y-00934669D01*
X00601223Y-00935102D01*
X00600790Y-00935504D01*
X00600296Y-00935936D01*
X00599708Y-00936338D01*
X00599060Y-00936740D01*
X00598349Y-00937079D01*
X00597576Y-00937357D01*
X00596711Y-00937605D01*
X00595784Y-00937728D01*
X00594764Y-00937790D01*
X00594394Y-00937790D01*
X00594177Y-00937759D01*
X00593961Y-00937759D01*
X00593405Y-00937697D01*
X00592756Y-00937605D01*
X00592076Y-00937450D01*
X00591335Y-00937265D01*
X00590624Y-00936987D01*
X00590593Y-00936987D01*
X00590531Y-00936956D01*
X00590438Y-00936894D01*
X00590315Y-00936832D01*
X00589944Y-00936647D01*
X00589511Y-00936400D01*
X00588986Y-00936091D01*
X00588461Y-00935689D01*
X00587905Y-00935256D01*
X00587348Y-00934731D01*
X00587348Y-00934700D01*
X00587287Y-00934669D01*
X00587225Y-00934577D01*
X00587132Y-00934484D01*
X00586885Y-00934175D01*
X00586576Y-00933742D01*
X00586236Y-00933248D01*
X00585865Y-00932661D01*
X00585525Y-00931981D01*
X00585216Y-00931270D01*
X00585216Y-00931239D01*
X00585186Y-00931178D01*
X00585155Y-00931054D01*
X00585093Y-00930930D01*
X00585031Y-00930714D01*
X00584969Y-00930498D01*
X00584907Y-00930250D01*
X00584846Y-00929972D01*
X00584722Y-00929293D01*
X00584598Y-00928551D01*
X00584506Y-00927717D01*
X00584475Y-00926821D01*
X00584475Y-00926790D01*
X00584475Y-00926697D01*
X00584475Y-00926573D01*
X00584475Y-00926388D01*
X00584506Y-00926141D01*
X00584506Y-00925894D01*
X00584537Y-00925585D01*
X00584567Y-00925245D01*
X00584691Y-00924534D01*
X00584815Y-00923731D01*
X00585031Y-00922896D01*
X00585309Y-00922093D01*
X00585309Y-00922062D01*
X00585340Y-00922000D01*
X00585402Y-00921877D01*
X00585464Y-00921722D01*
X00585556Y-00921537D01*
X00585649Y-00921320D01*
X00585927Y-00920826D01*
X00586267Y-00920239D01*
X00586669Y-00919621D01*
X00587132Y-00918972D01*
X00587658Y-00918385D01*
X00587688Y-00918354D01*
X00587719Y-00918323D01*
X00587812Y-00918230D01*
X00587936Y-00918138D01*
X00588245Y-00917829D01*
X00588677Y-00917489D01*
X00589202Y-00917087D01*
X00589821Y-00916685D01*
X00590500Y-00916284D01*
X00591242Y-00915944D01*
X00591273Y-00915944D01*
X00591335Y-00915913D01*
X00591458Y-00915851D01*
X00591613Y-00915820D01*
X00591798Y-00915727D01*
X00592014Y-00915666D01*
X00592293Y-00915604D01*
X00592601Y-00915511D01*
X00593250Y-00915357D01*
X00594023Y-00915202D01*
X00594888Y-00915110D01*
X00595784Y-00915079D01*
X00596031Y-00915079D01*
X00596217Y-00915110D01*
X00596217Y-00915110D02*
G37*
G36*
X00812795Y-00925152D02*
X00813135Y-00925183D01*
X00813567Y-00925214D01*
X00814031Y-00925276D01*
X00814556Y-00925399D01*
X00815112Y-00925523D01*
X00815730Y-00925677D01*
X00816348Y-00925894D01*
X00816966Y-00926172D01*
X00817615Y-00926481D01*
X00818233Y-00926851D01*
X00818820Y-00927284D01*
X00819408Y-00927779D01*
X00819933Y-00928335D01*
X00819964Y-00928366D01*
X00820056Y-00928489D01*
X00820180Y-00928675D01*
X00820365Y-00928922D01*
X00820551Y-00929231D01*
X00820798Y-00929633D01*
X00821045Y-00930096D01*
X00821292Y-00930621D01*
X00821540Y-00931239D01*
X00821787Y-00931888D01*
X00822034Y-00932630D01*
X00822219Y-00933402D01*
X00822405Y-00934268D01*
X00822528Y-00935164D01*
X00822621Y-00936152D01*
X00822652Y-00937172D01*
X00822652Y-00939273D01*
X00804915Y-00939273D01*
X00804915Y-00939335D01*
X00804915Y-00939459D01*
X00804946Y-00939675D01*
X00804977Y-00939953D01*
X00805008Y-00940324D01*
X00805070Y-00940726D01*
X00805132Y-00941158D01*
X00805255Y-00941653D01*
X00805533Y-00942703D01*
X00805719Y-00943229D01*
X00805935Y-00943785D01*
X00806182Y-00944310D01*
X00806460Y-00944835D01*
X00806800Y-00945299D01*
X00807171Y-00945762D01*
X00807202Y-00945793D01*
X00807264Y-00945855D01*
X00807387Y-00945979D01*
X00807573Y-00946102D01*
X00807789Y-00946288D01*
X00808067Y-00946473D01*
X00808376Y-00946689D01*
X00808716Y-00946875D01*
X00809118Y-00947091D01*
X00809581Y-00947307D01*
X00810045Y-00947493D01*
X00810601Y-00947678D01*
X00811157Y-00947802D01*
X00811775Y-00947925D01*
X00812424Y-00947987D01*
X00813104Y-00948018D01*
X00813289Y-00948018D01*
X00813506Y-00947987D01*
X00813815Y-00947987D01*
X00814185Y-00947925D01*
X00814618Y-00947864D01*
X00815112Y-00947771D01*
X00815669Y-00947678D01*
X00816256Y-00947524D01*
X00816874Y-00947338D01*
X00817523Y-00947122D01*
X00818172Y-00946844D01*
X00818851Y-00946535D01*
X00819531Y-00946164D01*
X00820211Y-00945731D01*
X00820891Y-00945237D01*
X00820891Y-00949007D01*
X00820860Y-00949038D01*
X00820736Y-00949100D01*
X00820551Y-00949223D01*
X00820304Y-00949378D01*
X00819964Y-00949563D01*
X00819562Y-00949748D01*
X00819098Y-00949965D01*
X00818573Y-00950181D01*
X00817955Y-00950428D01*
X00817306Y-00950644D01*
X00816596Y-00950830D01*
X00815823Y-00951015D01*
X00814989Y-00951170D01*
X00814093Y-00951293D01*
X00813135Y-00951355D01*
X00812146Y-00951386D01*
X00811899Y-00951386D01*
X00811652Y-00951355D01*
X00811281Y-00951324D01*
X00810817Y-00951293D01*
X00810292Y-00951201D01*
X00809736Y-00951108D01*
X00809118Y-00950953D01*
X00808469Y-00950768D01*
X00807789Y-00950552D01*
X00807078Y-00950274D01*
X00806399Y-00949965D01*
X00805688Y-00949563D01*
X00805039Y-00949100D01*
X00804390Y-00948574D01*
X00803803Y-00947987D01*
X00803772Y-00947956D01*
X00803679Y-00947833D01*
X00803525Y-00947616D01*
X00803340Y-00947338D01*
X00803092Y-00946998D01*
X00802845Y-00946566D01*
X00802567Y-00946071D01*
X00802289Y-00945484D01*
X00802011Y-00944866D01*
X00801733Y-00944125D01*
X00801486Y-00943352D01*
X00801238Y-00942487D01*
X00801053Y-00941560D01*
X00800898Y-00940571D01*
X00800806Y-00939490D01*
X00800775Y-00938377D01*
X00800775Y-00938346D01*
X00800775Y-00938315D01*
X00800775Y-00938223D01*
X00800775Y-00938130D01*
X00800806Y-00937821D01*
X00800837Y-00937388D01*
X00800867Y-00936894D01*
X00800960Y-00936338D01*
X00801053Y-00935689D01*
X00801177Y-00934978D01*
X00801362Y-00934237D01*
X00801578Y-00933464D01*
X00801856Y-00932661D01*
X00802165Y-00931857D01*
X00802536Y-00931085D01*
X00803000Y-00930281D01*
X00803494Y-00929540D01*
X00804081Y-00928829D01*
X00804112Y-00928798D01*
X00804236Y-00928675D01*
X00804421Y-00928489D01*
X00804668Y-00928242D01*
X00805008Y-00927964D01*
X00805410Y-00927655D01*
X00805842Y-00927315D01*
X00806368Y-00926975D01*
X00806924Y-00926635D01*
X00807573Y-00926295D01*
X00808253Y-00925986D01*
X00808963Y-00925708D01*
X00809736Y-00925461D01*
X00810570Y-00925276D01*
X00811435Y-00925152D01*
X00812331Y-00925121D01*
X00812548Y-00925121D01*
X00812795Y-00925152D01*
X00812795Y-00925152D02*
G37*
G36*
X00767217Y-00925152D02*
X00767619Y-00925183D01*
X00768083Y-00925214D01*
X00768639Y-00925307D01*
X00769226Y-00925399D01*
X00769875Y-00925554D01*
X00770586Y-00925739D01*
X00771296Y-00925955D01*
X00772007Y-00926234D01*
X00772749Y-00926573D01*
X00773459Y-00926975D01*
X00774170Y-00927439D01*
X00774819Y-00927964D01*
X00775437Y-00928582D01*
X00775468Y-00928613D01*
X00775560Y-00928736D01*
X00775715Y-00928953D01*
X00775931Y-00929231D01*
X00776178Y-00929571D01*
X00776426Y-00930003D01*
X00776735Y-00930498D01*
X00777013Y-00931085D01*
X00777322Y-00931734D01*
X00777600Y-00932444D01*
X00777847Y-00933217D01*
X00778094Y-00934082D01*
X00778311Y-00935009D01*
X00778465Y-00935998D01*
X00778558Y-00937048D01*
X00778589Y-00938161D01*
X00778589Y-00938192D01*
X00778589Y-00938223D01*
X00778589Y-00938315D01*
X00778589Y-00938439D01*
X00778558Y-00938748D01*
X00778527Y-00939150D01*
X00778496Y-00939675D01*
X00778403Y-00940262D01*
X00778311Y-00940911D01*
X00778156Y-00941622D01*
X00777971Y-00942363D01*
X00777754Y-00943167D01*
X00777476Y-00943970D01*
X00777167Y-00944774D01*
X00776765Y-00945577D01*
X00776302Y-00946349D01*
X00775777Y-00947091D01*
X00775190Y-00947802D01*
X00775159Y-00947833D01*
X00775035Y-00947956D01*
X00774850Y-00948142D01*
X00774572Y-00948358D01*
X00774232Y-00948636D01*
X00773830Y-00948945D01*
X00773336Y-00949254D01*
X00772779Y-00949594D01*
X00772161Y-00949934D01*
X00771482Y-00950243D01*
X00770740Y-00950552D01*
X00769937Y-00950830D01*
X00769040Y-00951046D01*
X00768114Y-00951232D01*
X00767156Y-00951355D01*
X00766105Y-00951386D01*
X00765858Y-00951386D01*
X00765580Y-00951355D01*
X00765178Y-00951324D01*
X00764715Y-00951293D01*
X00764158Y-00951201D01*
X00763571Y-00951108D01*
X00762922Y-00950953D01*
X00762212Y-00950768D01*
X00761501Y-00950521D01*
X00760759Y-00950243D01*
X00760018Y-00949903D01*
X00759276Y-00949501D01*
X00758534Y-00949038D01*
X00757855Y-00948512D01*
X00757206Y-00947894D01*
X00757175Y-00947864D01*
X00757051Y-00947740D01*
X00756897Y-00947524D01*
X00756681Y-00947245D01*
X00756433Y-00946906D01*
X00756155Y-00946473D01*
X00755877Y-00945979D01*
X00755568Y-00945391D01*
X00755259Y-00944774D01*
X00754950Y-00944063D01*
X00754672Y-00943290D01*
X00754425Y-00942456D01*
X00754208Y-00941591D01*
X00754054Y-00940633D01*
X00753930Y-00939613D01*
X00753899Y-00938563D01*
X00753899Y-00938532D01*
X00753899Y-00938501D01*
X00753899Y-00938408D01*
X00753899Y-00938284D01*
X00753930Y-00937945D01*
X00753961Y-00937512D01*
X00753992Y-00936987D01*
X00754085Y-00936369D01*
X00754178Y-00935689D01*
X00754332Y-00934947D01*
X00754518Y-00934175D01*
X00754734Y-00933371D01*
X00755012Y-00932537D01*
X00755352Y-00931703D01*
X00755754Y-00930899D01*
X00756186Y-00930127D01*
X00756711Y-00929385D01*
X00757329Y-00928675D01*
X00757360Y-00928644D01*
X00757484Y-00928520D01*
X00757700Y-00928335D01*
X00757978Y-00928118D01*
X00758318Y-00927840D01*
X00758751Y-00927562D01*
X00759245Y-00927222D01*
X00759801Y-00926882D01*
X00760419Y-00926573D01*
X00761130Y-00926234D01*
X00761903Y-00925955D01*
X00762737Y-00925677D01*
X00763633Y-00925461D01*
X00764591Y-00925276D01*
X00765611Y-00925152D01*
X00766692Y-00925121D01*
X00766939Y-00925121D01*
X00767217Y-00925152D01*
X00767217Y-00925152D02*
G37*
%LPC*%
G36*
X00595444Y-00918509D02*
X00595197Y-00918509D01*
X00594919Y-00918539D01*
X00594548Y-00918570D01*
X00594146Y-00918663D01*
X00593683Y-00918756D01*
X00593220Y-00918910D01*
X00592725Y-00919096D01*
X00592663Y-00919126D01*
X00592509Y-00919188D01*
X00592293Y-00919312D01*
X00591984Y-00919497D01*
X00591644Y-00919745D01*
X00591304Y-00919992D01*
X00590933Y-00920332D01*
X00590562Y-00920702D01*
X00590531Y-00920733D01*
X00590408Y-00920888D01*
X00590253Y-00921104D01*
X00590037Y-00921382D01*
X00589790Y-00921753D01*
X00589573Y-00922186D01*
X00589326Y-00922649D01*
X00589110Y-00923174D01*
X00589079Y-00923236D01*
X00589017Y-00923422D01*
X00588955Y-00923700D01*
X00588863Y-00924101D01*
X00588739Y-00924565D01*
X00588677Y-00925090D01*
X00588615Y-00925677D01*
X00588585Y-00926295D01*
X00588585Y-00926326D01*
X00588585Y-00926388D01*
X00588585Y-00926481D01*
X00588585Y-00926604D01*
X00588615Y-00926944D01*
X00588646Y-00927408D01*
X00588708Y-00927933D01*
X00588801Y-00928489D01*
X00588924Y-00929076D01*
X00589079Y-00929633D01*
X00589079Y-00929663D01*
X00589110Y-00929694D01*
X00589172Y-00929880D01*
X00589295Y-00930158D01*
X00589450Y-00930498D01*
X00589666Y-00930869D01*
X00589913Y-00931301D01*
X00590191Y-00931703D01*
X00590531Y-00932105D01*
X00590562Y-00932135D01*
X00590686Y-00932259D01*
X00590902Y-00932444D01*
X00591149Y-00932692D01*
X00591489Y-00932939D01*
X00591860Y-00933186D01*
X00592293Y-00933464D01*
X00592756Y-00933680D01*
X00592787Y-00933680D01*
X00592818Y-00933711D01*
X00593003Y-00933773D01*
X00593250Y-00933835D01*
X00593621Y-00933928D01*
X00594054Y-00934051D01*
X00594548Y-00934113D01*
X00595073Y-00934175D01*
X00595661Y-00934206D01*
X00595908Y-00934206D01*
X00596186Y-00934175D01*
X00596526Y-00934144D01*
X00596928Y-00934082D01*
X00597391Y-00933989D01*
X00597855Y-00933866D01*
X00598318Y-00933680D01*
X00598380Y-00933649D01*
X00598534Y-00933588D01*
X00598751Y-00933464D01*
X00599060Y-00933310D01*
X00599369Y-00933093D01*
X00599739Y-00932846D01*
X00600110Y-00932568D01*
X00600450Y-00932259D01*
X00600481Y-00932228D01*
X00600605Y-00932105D01*
X00600759Y-00931919D01*
X00600975Y-00931672D01*
X00601223Y-00931363D01*
X00601470Y-00930992D01*
X00601686Y-00930590D01*
X00601902Y-00930158D01*
X00601933Y-00930096D01*
X00601995Y-00929942D01*
X00602057Y-00929694D01*
X00602181Y-00929354D01*
X00602273Y-00928984D01*
X00602335Y-00928520D01*
X00602397Y-00928057D01*
X00602428Y-00927531D01*
X00602428Y-00927500D01*
X00602428Y-00927439D01*
X00602428Y-00927346D01*
X00602428Y-00927191D01*
X00602428Y-00927006D01*
X00602397Y-00926790D01*
X00602366Y-00926295D01*
X00602304Y-00925739D01*
X00602211Y-00925121D01*
X00602088Y-00924472D01*
X00601902Y-00923854D01*
X00601902Y-00923823D01*
X00601871Y-00923792D01*
X00601841Y-00923700D01*
X00601810Y-00923576D01*
X00601686Y-00923267D01*
X00601532Y-00922865D01*
X00601315Y-00922433D01*
X00601068Y-00921938D01*
X00600790Y-00921475D01*
X00600450Y-00921011D01*
X00600419Y-00920950D01*
X00600296Y-00920826D01*
X00600079Y-00920610D01*
X00599832Y-00920332D01*
X00599492Y-00920023D01*
X00599121Y-00919714D01*
X00598689Y-00919436D01*
X00598225Y-00919157D01*
X00598163Y-00919126D01*
X00598009Y-00919065D01*
X00597731Y-00918941D01*
X00597391Y-00918817D01*
X00596989Y-00918725D01*
X00596526Y-00918601D01*
X00596000Y-00918539D01*
X00595444Y-00918509D01*
X00595444Y-00918509D02*
G37*
G36*
X00812270Y-00928520D02*
X00811991Y-00928520D01*
X00811806Y-00928551D01*
X00811559Y-00928582D01*
X00811250Y-00928613D01*
X00810941Y-00928675D01*
X00810601Y-00928767D01*
X00809828Y-00929014D01*
X00809427Y-00929169D01*
X00809025Y-00929385D01*
X00808623Y-00929602D01*
X00808191Y-00929880D01*
X00807820Y-00930189D01*
X00807418Y-00930559D01*
X00807387Y-00930590D01*
X00807326Y-00930652D01*
X00807233Y-00930776D01*
X00807109Y-00930930D01*
X00806955Y-00931147D01*
X00806769Y-00931363D01*
X00806584Y-00931672D01*
X00806368Y-00931981D01*
X00806151Y-00932352D01*
X00805966Y-00932753D01*
X00805750Y-00933186D01*
X00805564Y-00933649D01*
X00805379Y-00934175D01*
X00805224Y-00934700D01*
X00805070Y-00935287D01*
X00804977Y-00935874D01*
X00818542Y-00935874D01*
X00818542Y-00935843D01*
X00818542Y-00935720D01*
X00818542Y-00935534D01*
X00818511Y-00935287D01*
X00818481Y-00935009D01*
X00818450Y-00934669D01*
X00818388Y-00934298D01*
X00818326Y-00933897D01*
X00818110Y-00933032D01*
X00817801Y-00932105D01*
X00817615Y-00931672D01*
X00817399Y-00931239D01*
X00817152Y-00930838D01*
X00816843Y-00930467D01*
X00816812Y-00930436D01*
X00816781Y-00930374D01*
X00816688Y-00930281D01*
X00816534Y-00930158D01*
X00816379Y-00930003D01*
X00816163Y-00929849D01*
X00815947Y-00929663D01*
X00815669Y-00929478D01*
X00815360Y-00929323D01*
X00815020Y-00929138D01*
X00814618Y-00928984D01*
X00814216Y-00928829D01*
X00813784Y-00928706D01*
X00813320Y-00928613D01*
X00812795Y-00928551D01*
X00812270Y-00928520D01*
X00812270Y-00928520D02*
G37*
G36*
X00766383Y-00928520D02*
X00766229Y-00928520D01*
X00766012Y-00928551D01*
X00765734Y-00928551D01*
X00765425Y-00928613D01*
X00765054Y-00928644D01*
X00764622Y-00928736D01*
X00764158Y-00928860D01*
X00763695Y-00928984D01*
X00763200Y-00929169D01*
X00762675Y-00929385D01*
X00762181Y-00929633D01*
X00761655Y-00929942D01*
X00761161Y-00930281D01*
X00760697Y-00930683D01*
X00760265Y-00931147D01*
X00760234Y-00931178D01*
X00760172Y-00931270D01*
X00760049Y-00931425D01*
X00759925Y-00931641D01*
X00759740Y-00931888D01*
X00759554Y-00932228D01*
X00759338Y-00932599D01*
X00759153Y-00933032D01*
X00758936Y-00933526D01*
X00758720Y-00934082D01*
X00758534Y-00934669D01*
X00758349Y-00935318D01*
X00758226Y-00936029D01*
X00758102Y-00936770D01*
X00758040Y-00937574D01*
X00758009Y-00938408D01*
X00758009Y-00938470D01*
X00758009Y-00938593D01*
X00758040Y-00938841D01*
X00758040Y-00939150D01*
X00758071Y-00939520D01*
X00758133Y-00939953D01*
X00758195Y-00940447D01*
X00758287Y-00940973D01*
X00758411Y-00941529D01*
X00758565Y-00942085D01*
X00758751Y-00942672D01*
X00758967Y-00943259D01*
X00759214Y-00943846D01*
X00759523Y-00944403D01*
X00759863Y-00944959D01*
X00760265Y-00945453D01*
X00760296Y-00945484D01*
X00760358Y-00945577D01*
X00760512Y-00945701D01*
X00760697Y-00945855D01*
X00760914Y-00946040D01*
X00761192Y-00946257D01*
X00761532Y-00946504D01*
X00761903Y-00946720D01*
X00762304Y-00946967D01*
X00762768Y-00947215D01*
X00763262Y-00947431D01*
X00763818Y-00947616D01*
X00764405Y-00947771D01*
X00765024Y-00947894D01*
X00765672Y-00947987D01*
X00766383Y-00948018D01*
X00766568Y-00948018D01*
X00766754Y-00947987D01*
X00767032Y-00947987D01*
X00767341Y-00947925D01*
X00767712Y-00947894D01*
X00768144Y-00947802D01*
X00768608Y-00947709D01*
X00769071Y-00947585D01*
X00769566Y-00947400D01*
X00770060Y-00947215D01*
X00770555Y-00946967D01*
X00771049Y-00946689D01*
X00771513Y-00946349D01*
X00771976Y-00945948D01*
X00772378Y-00945515D01*
X00772409Y-00945484D01*
X00772470Y-00945391D01*
X00772563Y-00945237D01*
X00772718Y-00945052D01*
X00772872Y-00944774D01*
X00773058Y-00944465D01*
X00773243Y-00944094D01*
X00773428Y-00943661D01*
X00773614Y-00943167D01*
X00773830Y-00942641D01*
X00773985Y-00942054D01*
X00774139Y-00941405D01*
X00774293Y-00940726D01*
X00774386Y-00939953D01*
X00774448Y-00939150D01*
X00774479Y-00938315D01*
X00774479Y-00938254D01*
X00774479Y-00938099D01*
X00774479Y-00937852D01*
X00774448Y-00937543D01*
X00774417Y-00937141D01*
X00774355Y-00936709D01*
X00774293Y-00936183D01*
X00774232Y-00935658D01*
X00773954Y-00934484D01*
X00773799Y-00933897D01*
X00773583Y-00933279D01*
X00773366Y-00932692D01*
X00773058Y-00932135D01*
X00772749Y-00931579D01*
X00772378Y-00931085D01*
X00772347Y-00931054D01*
X00772285Y-00930961D01*
X00772161Y-00930838D01*
X00771976Y-00930683D01*
X00771760Y-00930498D01*
X00771513Y-00930281D01*
X00771203Y-00930034D01*
X00770833Y-00929787D01*
X00770431Y-00929571D01*
X00769998Y-00929323D01*
X00769504Y-00929107D01*
X00768979Y-00928922D01*
X00768392Y-00928767D01*
X00767774Y-00928644D01*
X00767094Y-00928551D01*
X00766383Y-00928520D01*
X00766383Y-00928520D02*
G37*
%LPD*%
D38*
X-00748032Y-00629921D02*
X-00748032Y02283465D01*
X-00039370Y02283465D02*
X-00039370Y-00629921D01*
X00078740Y-00629921D02*
X00078740Y02283465D01*
X00787402Y02283465D02*
X00787402Y-00629921D01*
X00905512Y-00629921D02*
X00905512Y02283465D01*
X01614173Y02283465D02*
X01614173Y-00629921D01*
M02*
