G04*
G04 #@! TF.GenerationSoftware,Altium Limited,Altium Designer,22.2.1 (43)*
G04*
G04 Layer_Color=65535*
%FSLAX44Y44*%
%MOMM*%
G71*
G04*
G04 #@! TF.SameCoordinates,2D2D779E-EA1F-4978-AE9C-AACCEBDA9B96*
G04*
G04*
G04 #@! TF.FilePolarity,Positive*
G04*
G01*
G75*
%ADD10C,0.5000*%
%ADD11C,0.2000*%
%ADD12C,0.1000*%
%ADD13C,0.0500*%
G36*
X115555Y135211D02*
X115641Y135203D01*
X115744Y135195D01*
X115861Y135171D01*
X115995Y135148D01*
X116144Y135109D01*
X116293Y135062D01*
X116450Y135007D01*
X116607Y134936D01*
X116772Y134857D01*
X116929Y134755D01*
X117078Y134638D01*
X117227Y134504D01*
X117360Y134355D01*
X117368Y134347D01*
X117392Y134316D01*
X117423Y134269D01*
X117470Y134198D01*
X117517Y134112D01*
X117580Y134010D01*
X117643Y133884D01*
X117706Y133751D01*
X117768Y133594D01*
X117831Y133421D01*
X117894Y133233D01*
X117941Y133029D01*
X117988Y132809D01*
X118020Y132573D01*
X118043Y132322D01*
X118051Y132063D01*
Y132056D01*
Y132048D01*
Y132024D01*
Y131993D01*
X118043Y131906D01*
X118035Y131797D01*
X118027Y131663D01*
X118012Y131506D01*
X117988Y131333D01*
X117957Y131145D01*
X117910Y130949D01*
X117863Y130737D01*
X117800Y130525D01*
X117721Y130313D01*
X117635Y130101D01*
X117533Y129889D01*
X117407Y129693D01*
X117274Y129505D01*
X117266Y129497D01*
X117235Y129465D01*
X117195Y129418D01*
X117133Y129355D01*
X117054Y129285D01*
X116960Y129199D01*
X116842Y129112D01*
X116717Y129026D01*
X116575Y128940D01*
X116411Y128853D01*
X116238Y128767D01*
X116050Y128696D01*
X115845Y128633D01*
X115626Y128586D01*
X115390Y128555D01*
X115147Y128547D01*
X115092D01*
X115029Y128555D01*
X114943Y128563D01*
X114841Y128579D01*
X114723Y128602D01*
X114590Y128633D01*
X114441Y128681D01*
X114291Y128736D01*
X114135Y128806D01*
X113977Y128892D01*
X113813Y128995D01*
X113656Y129120D01*
X113507Y129261D01*
X113365Y129426D01*
X113232Y129614D01*
X113208D01*
Y125769D01*
X112188D01*
Y135069D01*
X113208D01*
Y133947D01*
X113232D01*
X113240Y133963D01*
X113271Y134002D01*
X113310Y134065D01*
X113373Y134143D01*
X113452Y134245D01*
X113546Y134347D01*
X113664Y134465D01*
X113789Y134583D01*
X113938Y134700D01*
X114103Y134818D01*
X114284Y134920D01*
X114480Y135022D01*
X114692Y135101D01*
X114927Y135163D01*
X115170Y135203D01*
X115437Y135218D01*
X115492D01*
X115555Y135211D01*
D02*
G37*
G36*
X148409Y135171D02*
X148496D01*
X148590Y135156D01*
X148692Y135140D01*
X148794Y135124D01*
X148880Y135093D01*
Y134033D01*
X148864Y134041D01*
X148833Y134065D01*
X148770Y134096D01*
X148684Y134135D01*
X148566Y134175D01*
X148441Y134206D01*
X148284Y134229D01*
X148103Y134237D01*
X148040D01*
X147993Y134229D01*
X147938Y134222D01*
X147876Y134206D01*
X147726Y134159D01*
X147640Y134128D01*
X147554Y134088D01*
X147460Y134033D01*
X147366Y133978D01*
X147279Y133908D01*
X147185Y133821D01*
X147099Y133727D01*
X147012Y133617D01*
X147004Y133610D01*
X146997Y133586D01*
X146973Y133554D01*
X146942Y133507D01*
X146910Y133445D01*
X146871Y133366D01*
X146832Y133280D01*
X146792Y133178D01*
X146753Y133068D01*
X146714Y132942D01*
X146675Y132801D01*
X146643Y132652D01*
X146612Y132487D01*
X146588Y132315D01*
X146581Y132134D01*
X146573Y131938D01*
Y128696D01*
X145552D01*
Y135069D01*
X146573D01*
Y133751D01*
X146596D01*
Y133759D01*
X146604Y133782D01*
X146620Y133813D01*
X146636Y133861D01*
X146659Y133916D01*
X146691Y133986D01*
X146761Y134135D01*
X146855Y134308D01*
X146973Y134481D01*
X147107Y134646D01*
X147263Y134803D01*
X147271Y134810D01*
X147287Y134818D01*
X147310Y134834D01*
X147342Y134865D01*
X147381Y134889D01*
X147436Y134920D01*
X147554Y134991D01*
X147703Y135062D01*
X147876Y135124D01*
X148064Y135163D01*
X148166Y135171D01*
X148268Y135179D01*
X148331D01*
X148409Y135171D01*
D02*
G37*
G36*
X161697Y127676D02*
Y127668D01*
X161689Y127652D01*
X161674Y127629D01*
X161658Y127590D01*
X161642Y127542D01*
X161618Y127495D01*
X161556Y127370D01*
X161469Y127221D01*
X161375Y127048D01*
X161257Y126875D01*
X161124Y126687D01*
X160975Y126507D01*
X160810Y126326D01*
X160630Y126153D01*
X160433Y126004D01*
X160222Y125879D01*
X160112Y125831D01*
X159994Y125784D01*
X159876Y125745D01*
X159751Y125722D01*
X159625Y125706D01*
X159492Y125698D01*
X159429D01*
X159350Y125706D01*
X159256D01*
X159154Y125722D01*
X159044Y125737D01*
X158926Y125753D01*
X158824Y125784D01*
Y126695D01*
X158840Y126687D01*
X158879Y126679D01*
X158942Y126664D01*
X159021Y126640D01*
X159115Y126616D01*
X159217Y126601D01*
X159327Y126593D01*
X159429Y126585D01*
X159460D01*
X159499Y126593D01*
X159554Y126601D01*
X159617Y126616D01*
X159696Y126632D01*
X159774Y126664D01*
X159868Y126703D01*
X159955Y126750D01*
X160057Y126813D01*
X160151Y126883D01*
X160245Y126970D01*
X160339Y127079D01*
X160433Y127197D01*
X160512Y127338D01*
X160590Y127503D01*
X161101Y128704D01*
X158612Y135069D01*
X159743D01*
X161469Y130164D01*
Y130156D01*
X161477Y130140D01*
X161485Y130117D01*
X161501Y130070D01*
X161516Y130007D01*
X161532Y129921D01*
X161564Y129811D01*
X161595Y129677D01*
X161634D01*
Y129685D01*
X161642Y129709D01*
X161650Y129740D01*
X161666Y129795D01*
X161681Y129858D01*
X161697Y129936D01*
X161728Y130038D01*
X161760Y130148D01*
X163573Y135069D01*
X164625D01*
X161697Y127676D01*
D02*
G37*
G36*
X135255Y128696D02*
X134250D01*
X131841Y135069D01*
X132955D01*
X134580Y130439D01*
Y130431D01*
X134588Y130415D01*
X134596Y130392D01*
X134612Y130352D01*
X134627Y130305D01*
X134643Y130258D01*
X134674Y130133D01*
X134713Y129999D01*
X134753Y129850D01*
X134776Y129693D01*
X134800Y129544D01*
X134823D01*
Y129552D01*
Y129567D01*
X134831Y129591D01*
X134839Y129622D01*
Y129670D01*
X134855Y129717D01*
X134871Y129834D01*
X134902Y129968D01*
X134933Y130109D01*
X134980Y130258D01*
X135028Y130407D01*
X136715Y135069D01*
X137790D01*
X135255Y128696D01*
D02*
G37*
G36*
X155481Y135211D02*
X155536D01*
X155591Y135203D01*
X155661Y135195D01*
X155740Y135179D01*
X155905Y135148D01*
X156101Y135093D01*
X156297Y135022D01*
X156509Y134920D01*
X156721Y134795D01*
X156823Y134724D01*
X156925Y134638D01*
X157019Y134544D01*
X157113Y134449D01*
X157200Y134339D01*
X157278Y134214D01*
X157357Y134088D01*
X157427Y133947D01*
X157482Y133790D01*
X157537Y133625D01*
X157577Y133453D01*
X157608Y133256D01*
X157624Y133060D01*
X157631Y132840D01*
Y128696D01*
X156611D01*
Y129685D01*
X156588D01*
X156580Y129670D01*
X156556Y129638D01*
X156517Y129583D01*
X156462Y129505D01*
X156391Y129418D01*
X156305Y129324D01*
X156211Y129222D01*
X156093Y129120D01*
X155960Y129010D01*
X155818Y128908D01*
X155654Y128814D01*
X155481Y128728D01*
X155285Y128649D01*
X155081Y128594D01*
X154861Y128563D01*
X154625Y128547D01*
X154531D01*
X154468Y128555D01*
X154390Y128563D01*
X154296Y128571D01*
X154194Y128586D01*
X154084Y128610D01*
X153841Y128673D01*
X153723Y128712D01*
X153597Y128759D01*
X153472Y128814D01*
X153354Y128885D01*
X153244Y128963D01*
X153134Y129049D01*
X153126Y129057D01*
X153111Y129073D01*
X153087Y129104D01*
X153048Y129144D01*
X153009Y129191D01*
X152969Y129254D01*
X152914Y129324D01*
X152867Y129403D01*
X152820Y129497D01*
X152773Y129599D01*
X152726Y129709D01*
X152687Y129826D01*
X152648Y129952D01*
X152624Y130085D01*
X152608Y130235D01*
X152600Y130384D01*
Y130392D01*
Y130407D01*
Y130431D01*
X152608Y130462D01*
Y130501D01*
X152616Y130548D01*
X152632Y130666D01*
X152663Y130808D01*
X152710Y130964D01*
X152773Y131137D01*
X152867Y131318D01*
X152977Y131498D01*
X153111Y131679D01*
X153197Y131765D01*
X153283Y131851D01*
X153385Y131938D01*
X153487Y132016D01*
X153605Y132095D01*
X153731Y132165D01*
X153864Y132228D01*
X154013Y132291D01*
X154170Y132346D01*
X154335Y132393D01*
X154515Y132432D01*
X154704Y132464D01*
X156611Y132730D01*
Y132738D01*
Y132746D01*
Y132770D01*
Y132801D01*
X156603Y132880D01*
X156588Y132982D01*
X156572Y133107D01*
X156540Y133249D01*
X156501Y133390D01*
X156446Y133547D01*
X156376Y133696D01*
X156289Y133845D01*
X156187Y133978D01*
X156062Y134104D01*
X155905Y134206D01*
X155732Y134284D01*
X155638Y134316D01*
X155528Y134339D01*
X155418Y134347D01*
X155300Y134355D01*
X155246D01*
X155190Y134347D01*
X155104Y134339D01*
X155002Y134332D01*
X154884Y134316D01*
X154751Y134292D01*
X154610Y134261D01*
X154453Y134214D01*
X154288Y134167D01*
X154115Y134104D01*
X153935Y134025D01*
X153754Y133931D01*
X153574Y133829D01*
X153393Y133712D01*
X153221Y133570D01*
Y134614D01*
X153228Y134622D01*
X153260Y134638D01*
X153315Y134669D01*
X153385Y134708D01*
X153479Y134755D01*
X153582Y134803D01*
X153707Y134857D01*
X153848Y134920D01*
X153997Y134975D01*
X154162Y135030D01*
X154343Y135077D01*
X154531Y135124D01*
X154735Y135163D01*
X154939Y135195D01*
X155159Y135211D01*
X155387Y135218D01*
X155442D01*
X155481Y135211D01*
D02*
G37*
G36*
X151007Y128696D02*
X149987D01*
Y138130D01*
X151007D01*
Y128696D01*
D02*
G37*
G36*
X103453Y136670D02*
X100878D01*
Y128696D01*
X99834D01*
Y136670D01*
X97260D01*
Y137620D01*
X103453D01*
Y136670D01*
D02*
G37*
G36*
X141510Y135211D02*
X141597Y135203D01*
X141707Y135195D01*
X141824Y135179D01*
X141958Y135148D01*
X142099Y135116D01*
X142256Y135077D01*
X142413Y135022D01*
X142570Y134952D01*
X142735Y134873D01*
X142892Y134779D01*
X143041Y134669D01*
X143190Y134544D01*
X143323Y134402D01*
X143331Y134394D01*
X143355Y134363D01*
X143386Y134316D01*
X143433Y134253D01*
X143480Y134175D01*
X143543Y134073D01*
X143606Y133955D01*
X143669Y133821D01*
X143732Y133664D01*
X143794Y133500D01*
X143857Y133311D01*
X143904Y133115D01*
X143951Y132895D01*
X143983Y132668D01*
X144006Y132416D01*
X144014Y132157D01*
Y131624D01*
X139509D01*
Y131608D01*
Y131577D01*
X139517Y131522D01*
X139525Y131451D01*
X139533Y131357D01*
X139548Y131255D01*
X139564Y131145D01*
X139595Y131019D01*
X139666Y130753D01*
X139713Y130619D01*
X139768Y130478D01*
X139831Y130344D01*
X139901Y130211D01*
X139988Y130093D01*
X140082Y129976D01*
X140090Y129968D01*
X140105Y129952D01*
X140137Y129921D01*
X140184Y129889D01*
X140239Y129842D01*
X140310Y129795D01*
X140388Y129740D01*
X140474Y129693D01*
X140576Y129638D01*
X140694Y129583D01*
X140812Y129536D01*
X140953Y129489D01*
X141094Y129458D01*
X141251Y129426D01*
X141416Y129410D01*
X141589Y129403D01*
X141636D01*
X141691Y129410D01*
X141769D01*
X141864Y129426D01*
X141973Y129442D01*
X142099Y129465D01*
X142240Y129489D01*
X142389Y129528D01*
X142546Y129575D01*
X142711Y129630D01*
X142876Y129701D01*
X143049Y129779D01*
X143221Y129874D01*
X143394Y129983D01*
X143567Y130109D01*
Y129151D01*
X143559Y129144D01*
X143527Y129128D01*
X143480Y129096D01*
X143418Y129057D01*
X143331Y129010D01*
X143229Y128963D01*
X143111Y128908D01*
X142978Y128853D01*
X142821Y128790D01*
X142656Y128736D01*
X142476Y128688D01*
X142280Y128641D01*
X142068Y128602D01*
X141840Y128571D01*
X141597Y128555D01*
X141346Y128547D01*
X141283D01*
X141220Y128555D01*
X141126Y128563D01*
X141008Y128571D01*
X140875Y128594D01*
X140733Y128618D01*
X140576Y128657D01*
X140412Y128704D01*
X140239Y128759D01*
X140058Y128830D01*
X139886Y128908D01*
X139705Y129010D01*
X139540Y129128D01*
X139376Y129261D01*
X139227Y129410D01*
X139219Y129418D01*
X139195Y129450D01*
X139156Y129505D01*
X139109Y129575D01*
X139046Y129662D01*
X138983Y129771D01*
X138912Y129897D01*
X138842Y130046D01*
X138771Y130203D01*
X138701Y130392D01*
X138638Y130588D01*
X138575Y130808D01*
X138528Y131043D01*
X138489Y131294D01*
X138465Y131569D01*
X138457Y131851D01*
Y131859D01*
Y131867D01*
Y131891D01*
Y131914D01*
X138465Y131993D01*
X138473Y132103D01*
X138481Y132228D01*
X138504Y132369D01*
X138528Y132534D01*
X138559Y132715D01*
X138606Y132903D01*
X138661Y133099D01*
X138732Y133303D01*
X138811Y133507D01*
X138905Y133704D01*
X139022Y133908D01*
X139148Y134096D01*
X139297Y134277D01*
X139305Y134284D01*
X139336Y134316D01*
X139383Y134363D01*
X139446Y134426D01*
X139533Y134496D01*
X139635Y134575D01*
X139745Y134661D01*
X139878Y134747D01*
X140019Y134834D01*
X140184Y134920D01*
X140357Y134999D01*
X140537Y135069D01*
X140733Y135132D01*
X140945Y135179D01*
X141165Y135211D01*
X141393Y135218D01*
X141448D01*
X141510Y135211D01*
D02*
G37*
G36*
X127187Y137761D02*
X127242D01*
X127297Y137753D01*
X127367D01*
X127524Y137730D01*
X127705Y137706D01*
X127909Y137667D01*
X128128Y137612D01*
X128356Y137549D01*
X128600Y137463D01*
X128843Y137361D01*
X129094Y137243D01*
X129345Y137102D01*
X129580Y136937D01*
X129816Y136741D01*
X130036Y136521D01*
X130051Y136506D01*
X130083Y136466D01*
X130138Y136396D01*
X130216Y136294D01*
X130295Y136168D01*
X130397Y136019D01*
X130499Y135846D01*
X130601Y135650D01*
X130703Y135422D01*
X130805Y135179D01*
X130907Y134912D01*
X130993Y134622D01*
X131064Y134308D01*
X131119Y133978D01*
X131150Y133633D01*
X131166Y133264D01*
Y133256D01*
Y133241D01*
Y133209D01*
Y133170D01*
X131158Y133115D01*
Y133052D01*
X131150Y132982D01*
Y132903D01*
X131142Y132817D01*
X131135Y132723D01*
X131103Y132511D01*
X131072Y132267D01*
X131025Y132016D01*
X130962Y131742D01*
X130883Y131459D01*
X130789Y131176D01*
X130679Y130886D01*
X130546Y130604D01*
X130389Y130321D01*
X130208Y130062D01*
X130004Y129811D01*
X129989Y129795D01*
X129949Y129756D01*
X129887Y129693D01*
X129792Y129614D01*
X129675Y129520D01*
X129533Y129410D01*
X129376Y129301D01*
X129188Y129183D01*
X128976Y129065D01*
X128741Y128947D01*
X128490Y128837D01*
X128215Y128743D01*
X127917Y128665D01*
X127603Y128602D01*
X127265Y128563D01*
X126912Y128547D01*
X126826D01*
X126786Y128555D01*
X126732D01*
X126669Y128563D01*
X126598Y128571D01*
X126433Y128586D01*
X126253Y128610D01*
X126041Y128649D01*
X125821Y128704D01*
X125578Y128767D01*
X125334Y128853D01*
X125083Y128955D01*
X124824Y129073D01*
X124573Y129214D01*
X124330Y129387D01*
X124087Y129575D01*
X123867Y129795D01*
X123851Y129811D01*
X123820Y129850D01*
X123765Y129921D01*
X123686Y130023D01*
X123600Y130148D01*
X123506Y130297D01*
X123404Y130470D01*
X123302Y130674D01*
X123192Y130894D01*
X123090Y131137D01*
X122996Y131404D01*
X122909Y131694D01*
X122831Y132008D01*
X122776Y132338D01*
X122744Y132683D01*
X122729Y133052D01*
Y133060D01*
Y133076D01*
Y133107D01*
Y133146D01*
X122737Y133201D01*
Y133256D01*
X122744Y133327D01*
Y133405D01*
X122752Y133492D01*
X122768Y133594D01*
X122792Y133798D01*
X122823Y134033D01*
X122878Y134284D01*
X122933Y134559D01*
X123011Y134834D01*
X123105Y135116D01*
X123215Y135407D01*
X123349Y135689D01*
X123506Y135964D01*
X123686Y136231D01*
X123890Y136482D01*
X123906Y136498D01*
X123945Y136537D01*
X124008Y136600D01*
X124102Y136686D01*
X124220Y136780D01*
X124369Y136890D01*
X124534Y137008D01*
X124722Y137126D01*
X124942Y137243D01*
X125177Y137361D01*
X125436Y137471D01*
X125719Y137565D01*
X126025Y137652D01*
X126347Y137714D01*
X126692Y137753D01*
X127061Y137769D01*
X127140D01*
X127187Y137761D01*
D02*
G37*
G36*
X107667Y135211D02*
X107769Y135203D01*
X107887Y135195D01*
X108028Y135171D01*
X108177Y135148D01*
X108342Y135109D01*
X108523Y135062D01*
X108703Y135007D01*
X108884Y134936D01*
X109072Y134850D01*
X109253Y134747D01*
X109433Y134630D01*
X109598Y134496D01*
X109755Y134339D01*
X109763Y134332D01*
X109786Y134300D01*
X109826Y134245D01*
X109881Y134175D01*
X109943Y134088D01*
X110006Y133978D01*
X110085Y133853D01*
X110155Y133704D01*
X110234Y133539D01*
X110304Y133358D01*
X110367Y133162D01*
X110430Y132942D01*
X110485Y132707D01*
X110524Y132456D01*
X110548Y132189D01*
X110555Y131906D01*
Y131898D01*
Y131891D01*
Y131867D01*
Y131836D01*
X110548Y131757D01*
X110540Y131655D01*
X110532Y131522D01*
X110508Y131373D01*
X110485Y131208D01*
X110446Y131027D01*
X110399Y130839D01*
X110344Y130635D01*
X110273Y130431D01*
X110195Y130227D01*
X110092Y130023D01*
X109975Y129826D01*
X109841Y129638D01*
X109692Y129458D01*
X109684Y129450D01*
X109653Y129418D01*
X109606Y129371D01*
X109535Y129316D01*
X109449Y129246D01*
X109347Y129167D01*
X109221Y129089D01*
X109080Y129002D01*
X108923Y128916D01*
X108750Y128837D01*
X108562Y128759D01*
X108358Y128688D01*
X108130Y128633D01*
X107895Y128586D01*
X107652Y128555D01*
X107385Y128547D01*
X107322D01*
X107251Y128555D01*
X107149Y128563D01*
X107031Y128571D01*
X106890Y128594D01*
X106741Y128618D01*
X106576Y128657D01*
X106396Y128704D01*
X106215Y128767D01*
X106027Y128837D01*
X105838Y128924D01*
X105650Y129026D01*
X105462Y129144D01*
X105289Y129277D01*
X105124Y129434D01*
X105117Y129442D01*
X105085Y129473D01*
X105046Y129528D01*
X104991Y129599D01*
X104928Y129685D01*
X104857Y129795D01*
X104787Y129921D01*
X104708Y130070D01*
X104630Y130227D01*
X104551Y130407D01*
X104481Y130604D01*
X104418Y130815D01*
X104363Y131035D01*
X104324Y131278D01*
X104292Y131538D01*
X104284Y131804D01*
Y131812D01*
Y131820D01*
Y131844D01*
Y131875D01*
X104292Y131961D01*
X104300Y132071D01*
X104308Y132205D01*
X104332Y132362D01*
X104355Y132534D01*
X104394Y132723D01*
X104441Y132919D01*
X104496Y133123D01*
X104567Y133335D01*
X104653Y133547D01*
X104755Y133751D01*
X104865Y133947D01*
X104999Y134135D01*
X105156Y134316D01*
X105163Y134324D01*
X105195Y134355D01*
X105250Y134402D01*
X105321Y134457D01*
X105407Y134528D01*
X105517Y134598D01*
X105642Y134685D01*
X105784Y134771D01*
X105941Y134850D01*
X106121Y134936D01*
X106317Y135007D01*
X106529Y135077D01*
X106757Y135132D01*
X107000Y135179D01*
X107259Y135211D01*
X107534Y135218D01*
X107597D01*
X107667Y135211D01*
D02*
G37*
G36*
X28652Y125156D02*
X28722Y125140D01*
X28793Y125116D01*
X28872Y125077D01*
X28950Y125030D01*
X29028Y124967D01*
X29036Y124959D01*
X29060Y124936D01*
X29091Y124897D01*
X29130Y124842D01*
X29162Y124771D01*
X29193Y124692D01*
X29217Y124598D01*
X29225Y124496D01*
Y124481D01*
Y124449D01*
X29217Y124402D01*
X29201Y124332D01*
X29178Y124261D01*
X29138Y124182D01*
X29091Y124104D01*
X29028Y124025D01*
X29021Y124017D01*
X28997Y123994D01*
X28950Y123963D01*
X28895Y123931D01*
X28824Y123900D01*
X28746Y123868D01*
X28660Y123845D01*
X28558Y123837D01*
X28510D01*
X28463Y123845D01*
X28393Y123861D01*
X28322Y123884D01*
X28244Y123916D01*
X28165Y123955D01*
X28087Y124017D01*
X28079Y124025D01*
X28055Y124049D01*
X28024Y124096D01*
X27992Y124151D01*
X27961Y124214D01*
X27930Y124300D01*
X27906Y124394D01*
X27898Y124496D01*
Y124512D01*
Y124543D01*
X27906Y124598D01*
X27922Y124661D01*
X27945Y124740D01*
X27977Y124818D01*
X28024Y124897D01*
X28087Y124967D01*
X28094Y124975D01*
X28118Y124999D01*
X28165Y125030D01*
X28220Y125069D01*
X28291Y125101D01*
X28369Y125132D01*
X28456Y125156D01*
X28558Y125163D01*
X28605D01*
X28652Y125156D01*
D02*
G37*
G36*
X-1746Y115847D02*
X-2766D01*
Y116922D01*
X-2790D01*
X-2798Y116907D01*
X-2821Y116868D01*
X-2868Y116812D01*
X-2923Y116734D01*
X-3002Y116640D01*
X-3088Y116538D01*
X-3198Y116428D01*
X-3331Y116310D01*
X-3473Y116193D01*
X-3637Y116083D01*
X-3818Y115981D01*
X-4014Y115886D01*
X-4226Y115808D01*
X-4462Y115753D01*
X-4713Y115714D01*
X-4979Y115698D01*
X-5034D01*
X-5097Y115706D01*
X-5176Y115714D01*
X-5278Y115722D01*
X-5396Y115745D01*
X-5529Y115769D01*
X-5670Y115808D01*
X-5819Y115847D01*
X-5976Y115910D01*
X-6133Y115973D01*
X-6298Y116059D01*
X-6455Y116153D01*
X-6612Y116271D01*
X-6761Y116404D01*
X-6902Y116553D01*
X-6910Y116561D01*
X-6934Y116593D01*
X-6965Y116640D01*
X-7012Y116711D01*
X-7067Y116797D01*
X-7130Y116899D01*
X-7193Y117024D01*
X-7256Y117166D01*
X-7326Y117323D01*
X-7389Y117495D01*
X-7452Y117692D01*
X-7507Y117896D01*
X-7554Y118115D01*
X-7585Y118359D01*
X-7609Y118610D01*
X-7617Y118877D01*
Y118884D01*
Y118892D01*
Y118916D01*
Y118947D01*
X-7609Y119026D01*
X-7601Y119136D01*
X-7593Y119277D01*
X-7577Y119426D01*
X-7554Y119599D01*
X-7515Y119787D01*
X-7475Y119983D01*
X-7420Y120195D01*
X-7358Y120399D01*
X-7279Y120619D01*
X-7193Y120823D01*
X-7083Y121027D01*
X-6965Y121223D01*
X-6824Y121412D01*
X-6816Y121420D01*
X-6785Y121451D01*
X-6738Y121498D01*
X-6675Y121561D01*
X-6596Y121632D01*
X-6502Y121718D01*
X-6384Y121804D01*
X-6259Y121891D01*
X-6110Y121977D01*
X-5953Y122063D01*
X-5780Y122150D01*
X-5592Y122220D01*
X-5388Y122283D01*
X-5168Y122330D01*
X-4940Y122361D01*
X-4697Y122369D01*
X-4642D01*
X-4571Y122361D01*
X-4485Y122354D01*
X-4375Y122338D01*
X-4250Y122314D01*
X-4116Y122283D01*
X-3967Y122244D01*
X-3810Y122189D01*
X-3653Y122118D01*
X-3496Y122032D01*
X-3339Y121930D01*
X-3190Y121812D01*
X-3041Y121679D01*
X-2907Y121514D01*
X-2790Y121333D01*
X-2766D01*
Y125281D01*
X-1746D01*
Y115847D01*
D02*
G37*
G36*
X34358Y122361D02*
X34428D01*
X34515Y122346D01*
X34617Y122330D01*
X34727Y122314D01*
X34844Y122283D01*
X34970Y122252D01*
X35103Y122205D01*
X35237Y122150D01*
X35370Y122079D01*
X35496Y122000D01*
X35621Y121914D01*
X35739Y121804D01*
X35849Y121686D01*
X35857Y121679D01*
X35872Y121655D01*
X35904Y121616D01*
X35935Y121561D01*
X35975Y121490D01*
X36022Y121404D01*
X36077Y121302D01*
X36131Y121192D01*
X36179Y121059D01*
X36233Y120917D01*
X36281Y120752D01*
X36320Y120580D01*
X36351Y120392D01*
X36383Y120187D01*
X36398Y119976D01*
X36406Y119740D01*
Y115847D01*
X35386D01*
Y119481D01*
Y119489D01*
Y119505D01*
Y119528D01*
Y119567D01*
X35378Y119614D01*
Y119669D01*
X35362Y119795D01*
X35339Y119952D01*
X35307Y120125D01*
X35260Y120305D01*
X35198Y120493D01*
X35119Y120682D01*
X35025Y120862D01*
X34907Y121035D01*
X34758Y121192D01*
X34593Y121318D01*
X34499Y121373D01*
X34389Y121420D01*
X34279Y121459D01*
X34162Y121482D01*
X34036Y121498D01*
X33902Y121506D01*
X33832D01*
X33777Y121498D01*
X33714Y121490D01*
X33636Y121475D01*
X33549Y121459D01*
X33463Y121435D01*
X33361Y121404D01*
X33259Y121365D01*
X33157Y121318D01*
X33047Y121263D01*
X32945Y121192D01*
X32835Y121114D01*
X32733Y121027D01*
X32639Y120925D01*
X32631Y120917D01*
X32615Y120902D01*
X32592Y120870D01*
X32560Y120823D01*
X32521Y120768D01*
X32482Y120698D01*
X32435Y120619D01*
X32388Y120533D01*
X32341Y120431D01*
X32294Y120321D01*
X32254Y120203D01*
X32215Y120077D01*
X32184Y119936D01*
X32160Y119795D01*
X32144Y119638D01*
X32136Y119481D01*
Y115847D01*
X31116D01*
Y122220D01*
X32136D01*
Y121161D01*
X32160D01*
X32168Y121176D01*
X32192Y121216D01*
X32239Y121271D01*
X32294Y121349D01*
X32372Y121443D01*
X32458Y121545D01*
X32568Y121655D01*
X32694Y121765D01*
X32835Y121875D01*
X32992Y121985D01*
X33165Y122087D01*
X33345Y122181D01*
X33549Y122259D01*
X33769Y122314D01*
X34004Y122354D01*
X34256Y122369D01*
X34303D01*
X34358Y122361D01*
D02*
G37*
G36*
X-8763Y122322D02*
X-8676D01*
X-8582Y122306D01*
X-8480Y122291D01*
X-8378Y122275D01*
X-8292Y122244D01*
Y121184D01*
X-8307Y121192D01*
X-8339Y121216D01*
X-8401Y121247D01*
X-8488Y121286D01*
X-8605Y121326D01*
X-8731Y121357D01*
X-8888Y121380D01*
X-9069Y121388D01*
X-9131D01*
X-9179Y121380D01*
X-9233Y121373D01*
X-9296Y121357D01*
X-9445Y121310D01*
X-9532Y121278D01*
X-9618Y121239D01*
X-9712Y121184D01*
X-9806Y121129D01*
X-9893Y121059D01*
X-9987Y120972D01*
X-10073Y120878D01*
X-10160Y120768D01*
X-10167Y120760D01*
X-10175Y120737D01*
X-10199Y120705D01*
X-10230Y120658D01*
X-10262Y120596D01*
X-10301Y120517D01*
X-10340Y120431D01*
X-10379Y120329D01*
X-10419Y120219D01*
X-10458Y120093D01*
X-10497Y119952D01*
X-10529Y119803D01*
X-10560Y119638D01*
X-10583Y119465D01*
X-10591Y119285D01*
X-10599Y119089D01*
Y115847D01*
X-11619D01*
Y122220D01*
X-10599D01*
Y120902D01*
X-10575D01*
Y120910D01*
X-10568Y120933D01*
X-10552Y120964D01*
X-10536Y121011D01*
X-10513Y121067D01*
X-10481Y121137D01*
X-10411Y121286D01*
X-10316Y121459D01*
X-10199Y121632D01*
X-10065Y121796D01*
X-9908Y121953D01*
X-9901Y121961D01*
X-9885Y121969D01*
X-9861Y121985D01*
X-9830Y122016D01*
X-9791Y122040D01*
X-9736Y122071D01*
X-9618Y122142D01*
X-9469Y122212D01*
X-9296Y122275D01*
X-9108Y122314D01*
X-9006Y122322D01*
X-8904Y122330D01*
X-8841D01*
X-8763Y122322D01*
D02*
G37*
G36*
X18574Y115847D02*
X17554D01*
Y116852D01*
X17530D01*
X17522Y116836D01*
X17499Y116805D01*
X17460Y116742D01*
X17413Y116671D01*
X17342Y116585D01*
X17256Y116491D01*
X17161Y116381D01*
X17044Y116279D01*
X16918Y116169D01*
X16769Y116067D01*
X16612Y115965D01*
X16431Y115878D01*
X16235Y115808D01*
X16031Y115745D01*
X15804Y115714D01*
X15560Y115698D01*
X15505D01*
X15466Y115706D01*
X15411D01*
X15348Y115714D01*
X15278Y115729D01*
X15207Y115737D01*
X15034Y115784D01*
X14838Y115839D01*
X14634Y115926D01*
X14532Y115981D01*
X14422Y116035D01*
X14312Y116106D01*
X14210Y116177D01*
X14108Y116263D01*
X14006Y116357D01*
X13904Y116467D01*
X13810Y116577D01*
X13724Y116703D01*
X13637Y116844D01*
X13567Y116993D01*
X13496Y117150D01*
X13433Y117323D01*
X13378Y117511D01*
X13339Y117715D01*
X13308Y117927D01*
X13292Y118162D01*
X13284Y118406D01*
Y122220D01*
X14297D01*
Y118571D01*
Y118563D01*
Y118547D01*
Y118524D01*
Y118484D01*
X14304Y118437D01*
Y118382D01*
X14320Y118257D01*
X14344Y118100D01*
X14375Y117935D01*
X14430Y117746D01*
X14493Y117566D01*
X14571Y117378D01*
X14673Y117189D01*
X14799Y117024D01*
X14948Y116868D01*
X15129Y116742D01*
X15223Y116687D01*
X15333Y116640D01*
X15450Y116601D01*
X15568Y116577D01*
X15702Y116561D01*
X15843Y116553D01*
X15913D01*
X15968Y116561D01*
X16031Y116569D01*
X16102Y116585D01*
X16188Y116601D01*
X16274Y116624D01*
X16369Y116648D01*
X16471Y116687D01*
X16573Y116734D01*
X16675Y116789D01*
X16777Y116852D01*
X16879Y116922D01*
X16973Y117009D01*
X17067Y117103D01*
X17075Y117111D01*
X17091Y117127D01*
X17114Y117158D01*
X17146Y117205D01*
X17177Y117260D01*
X17224Y117323D01*
X17263Y117401D01*
X17311Y117487D01*
X17358Y117590D01*
X17397Y117699D01*
X17444Y117817D01*
X17475Y117943D01*
X17507Y118084D01*
X17530Y118225D01*
X17546Y118382D01*
X17554Y118547D01*
Y122220D01*
X18574D01*
Y115847D01*
D02*
G37*
G36*
X29052D02*
X28032D01*
Y122220D01*
X29052D01*
Y115847D01*
D02*
G37*
G36*
X25968D02*
X24947D01*
Y125281D01*
X25968D01*
Y115847D01*
D02*
G37*
G36*
X-15693Y122361D02*
X-15638D01*
X-15583Y122354D01*
X-15512Y122346D01*
X-15434Y122330D01*
X-15269Y122299D01*
X-15073Y122244D01*
X-14877Y122173D01*
X-14665Y122071D01*
X-14453Y121945D01*
X-14351Y121875D01*
X-14249Y121789D01*
X-14154Y121694D01*
X-14060Y121600D01*
X-13974Y121490D01*
X-13895Y121365D01*
X-13817Y121239D01*
X-13746Y121098D01*
X-13691Y120941D01*
X-13636Y120776D01*
X-13597Y120603D01*
X-13566Y120407D01*
X-13550Y120211D01*
X-13542Y119991D01*
Y115847D01*
X-14563D01*
Y116836D01*
X-14586D01*
X-14594Y116820D01*
X-14618Y116789D01*
X-14657Y116734D01*
X-14712Y116656D01*
X-14782Y116569D01*
X-14869Y116475D01*
X-14963Y116373D01*
X-15081Y116271D01*
X-15214Y116161D01*
X-15355Y116059D01*
X-15520Y115965D01*
X-15693Y115878D01*
X-15889Y115800D01*
X-16093Y115745D01*
X-16313Y115714D01*
X-16548Y115698D01*
X-16643D01*
X-16705Y115706D01*
X-16784Y115714D01*
X-16878Y115722D01*
X-16980Y115737D01*
X-17090Y115761D01*
X-17333Y115824D01*
X-17451Y115863D01*
X-17577Y115910D01*
X-17702Y115965D01*
X-17820Y116035D01*
X-17930Y116114D01*
X-18040Y116200D01*
X-18047Y116208D01*
X-18063Y116224D01*
X-18087Y116255D01*
X-18126Y116294D01*
X-18165Y116342D01*
X-18204Y116404D01*
X-18259Y116475D01*
X-18306Y116553D01*
X-18354Y116648D01*
X-18401Y116750D01*
X-18448Y116860D01*
X-18487Y116977D01*
X-18526Y117103D01*
X-18550Y117236D01*
X-18565Y117386D01*
X-18573Y117535D01*
Y117542D01*
Y117558D01*
Y117582D01*
X-18565Y117613D01*
Y117652D01*
X-18558Y117699D01*
X-18542Y117817D01*
X-18511Y117958D01*
X-18463Y118115D01*
X-18401Y118288D01*
X-18306Y118469D01*
X-18197Y118649D01*
X-18063Y118830D01*
X-17977Y118916D01*
X-17890Y119002D01*
X-17788Y119089D01*
X-17686Y119167D01*
X-17569Y119246D01*
X-17443Y119316D01*
X-17310Y119379D01*
X-17161Y119442D01*
X-17004Y119497D01*
X-16839Y119544D01*
X-16658Y119583D01*
X-16470Y119614D01*
X-14563Y119881D01*
Y119889D01*
Y119897D01*
Y119921D01*
Y119952D01*
X-14570Y120030D01*
X-14586Y120133D01*
X-14602Y120258D01*
X-14633Y120399D01*
X-14672Y120541D01*
X-14727Y120698D01*
X-14798Y120847D01*
X-14884Y120996D01*
X-14986Y121129D01*
X-15112Y121255D01*
X-15269Y121357D01*
X-15442Y121435D01*
X-15536Y121467D01*
X-15646Y121490D01*
X-15756Y121498D01*
X-15873Y121506D01*
X-15928D01*
X-15983Y121498D01*
X-16070Y121490D01*
X-16172Y121482D01*
X-16289Y121467D01*
X-16423Y121443D01*
X-16564Y121412D01*
X-16721Y121365D01*
X-16886Y121318D01*
X-17059Y121255D01*
X-17239Y121176D01*
X-17420Y121082D01*
X-17600Y120980D01*
X-17781Y120862D01*
X-17953Y120721D01*
Y121765D01*
X-17945Y121773D01*
X-17914Y121789D01*
X-17859Y121820D01*
X-17788Y121859D01*
X-17694Y121906D01*
X-17592Y121953D01*
X-17467Y122008D01*
X-17325Y122071D01*
X-17176Y122126D01*
X-17011Y122181D01*
X-16831Y122228D01*
X-16643Y122275D01*
X-16438Y122314D01*
X-16234Y122346D01*
X-16015Y122361D01*
X-15787Y122369D01*
X-15732D01*
X-15693Y122361D01*
D02*
G37*
G36*
X-30009Y124763D02*
X-29915Y124755D01*
X-29805Y124740D01*
X-29679Y124724D01*
X-29538Y124700D01*
X-29397Y124669D01*
X-29247Y124630D01*
X-29090Y124583D01*
X-28941Y124528D01*
X-28784Y124465D01*
X-28643Y124386D01*
X-28502Y124300D01*
X-28368Y124198D01*
X-28361Y124190D01*
X-28337Y124174D01*
X-28305Y124143D01*
X-28266Y124096D01*
X-28211Y124041D01*
X-28156Y123970D01*
X-28094Y123892D01*
X-28031Y123806D01*
X-27968Y123704D01*
X-27905Y123594D01*
X-27850Y123468D01*
X-27795Y123343D01*
X-27756Y123201D01*
X-27725Y123052D01*
X-27701Y122895D01*
X-27693Y122730D01*
Y122723D01*
Y122699D01*
Y122660D01*
X-27701Y122605D01*
X-27709Y122534D01*
X-27717Y122464D01*
X-27725Y122377D01*
X-27740Y122283D01*
X-27795Y122071D01*
X-27866Y121851D01*
X-27913Y121734D01*
X-27968Y121624D01*
X-28031Y121514D01*
X-28101Y121404D01*
X-28109Y121396D01*
X-28117Y121380D01*
X-28141Y121349D01*
X-28180Y121310D01*
X-28219Y121271D01*
X-28266Y121216D01*
X-28329Y121161D01*
X-28392Y121098D01*
X-28470Y121035D01*
X-28557Y120964D01*
X-28651Y120902D01*
X-28753Y120831D01*
X-28863Y120768D01*
X-28973Y120713D01*
X-29232Y120611D01*
Y120588D01*
X-29224D01*
X-29192Y120580D01*
X-29145Y120572D01*
X-29083Y120564D01*
X-29004Y120548D01*
X-28918Y120525D01*
X-28816Y120493D01*
X-28714Y120462D01*
X-28486Y120376D01*
X-28361Y120321D01*
X-28243Y120250D01*
X-28125Y120180D01*
X-28007Y120101D01*
X-27890Y120007D01*
X-27787Y119905D01*
X-27780Y119897D01*
X-27764Y119881D01*
X-27740Y119850D01*
X-27701Y119803D01*
X-27662Y119740D01*
X-27615Y119677D01*
X-27568Y119591D01*
X-27513Y119505D01*
X-27466Y119403D01*
X-27419Y119285D01*
X-27371Y119167D01*
X-27332Y119034D01*
X-27293Y118884D01*
X-27269Y118735D01*
X-27254Y118579D01*
X-27246Y118406D01*
Y118390D01*
Y118359D01*
X-27254Y118296D01*
X-27262Y118217D01*
X-27269Y118115D01*
X-27293Y118006D01*
X-27317Y117880D01*
X-27348Y117746D01*
X-27395Y117597D01*
X-27450Y117448D01*
X-27513Y117299D01*
X-27591Y117142D01*
X-27685Y116985D01*
X-27795Y116836D01*
X-27921Y116695D01*
X-28070Y116553D01*
X-28078Y116546D01*
X-28109Y116522D01*
X-28156Y116491D01*
X-28219Y116444D01*
X-28298Y116389D01*
X-28400Y116334D01*
X-28510Y116263D01*
X-28635Y116200D01*
X-28784Y116138D01*
X-28941Y116075D01*
X-29106Y116012D01*
X-29295Y115957D01*
X-29491Y115910D01*
X-29695Y115878D01*
X-29915Y115855D01*
X-30142Y115847D01*
X-32740D01*
Y124771D01*
X-30095D01*
X-30009Y124763D01*
D02*
G37*
G36*
X21980Y122220D02*
X23589D01*
Y121341D01*
X21980D01*
Y117754D01*
Y117746D01*
Y117723D01*
Y117692D01*
Y117652D01*
X21988Y117597D01*
X21996Y117535D01*
X22012Y117401D01*
X22035Y117244D01*
X22075Y117095D01*
X22130Y116954D01*
X22161Y116891D01*
X22200Y116836D01*
X22208Y116828D01*
X22239Y116797D01*
X22294Y116750D01*
X22373Y116703D01*
X22475Y116648D01*
X22601Y116608D01*
X22750Y116577D01*
X22922Y116561D01*
X22985D01*
X23056Y116569D01*
X23150Y116585D01*
X23252Y116616D01*
X23370Y116648D01*
X23479Y116703D01*
X23589Y116773D01*
Y115902D01*
X23582D01*
X23574Y115894D01*
X23550Y115886D01*
X23527Y115871D01*
X23440Y115839D01*
X23338Y115808D01*
X23197Y115777D01*
X23032Y115745D01*
X22844Y115722D01*
X22632Y115714D01*
X22561D01*
X22475Y115729D01*
X22373Y115745D01*
X22247Y115769D01*
X22106Y115816D01*
X21949Y115871D01*
X21800Y115949D01*
X21643Y116043D01*
X21486Y116169D01*
X21345Y116318D01*
X21282Y116404D01*
X21219Y116499D01*
X21164Y116601D01*
X21117Y116711D01*
X21070Y116828D01*
X21031Y116962D01*
X20999Y117095D01*
X20976Y117244D01*
X20968Y117401D01*
X20960Y117574D01*
Y121341D01*
X19869D01*
Y122220D01*
X20960D01*
Y123774D01*
X21980Y124104D01*
Y122220D01*
D02*
G37*
G36*
X40950Y122361D02*
X41037Y122354D01*
X41147Y122346D01*
X41265Y122330D01*
X41398Y122299D01*
X41539Y122267D01*
X41696Y122228D01*
X41853Y122173D01*
X42010Y122102D01*
X42175Y122024D01*
X42332Y121930D01*
X42481Y121820D01*
X42630Y121694D01*
X42764Y121553D01*
X42771Y121545D01*
X42795Y121514D01*
X42826Y121467D01*
X42873Y121404D01*
X42920Y121326D01*
X42983Y121223D01*
X43046Y121106D01*
X43109Y120972D01*
X43172Y120815D01*
X43235Y120651D01*
X43297Y120462D01*
X43344Y120266D01*
X43391Y120046D01*
X43423Y119818D01*
X43446Y119567D01*
X43454Y119308D01*
Y118775D01*
X38949D01*
Y118759D01*
Y118728D01*
X38957Y118673D01*
X38965Y118602D01*
X38973Y118508D01*
X38988Y118406D01*
X39004Y118296D01*
X39035Y118170D01*
X39106Y117903D01*
X39153Y117770D01*
X39208Y117629D01*
X39271Y117495D01*
X39342Y117362D01*
X39428Y117244D01*
X39522Y117127D01*
X39530Y117119D01*
X39546Y117103D01*
X39577Y117072D01*
X39624Y117040D01*
X39679Y116993D01*
X39750Y116946D01*
X39828Y116891D01*
X39915Y116844D01*
X40016Y116789D01*
X40134Y116734D01*
X40252Y116687D01*
X40393Y116640D01*
X40535Y116608D01*
X40691Y116577D01*
X40856Y116561D01*
X41029Y116553D01*
X41076D01*
X41131Y116561D01*
X41210D01*
X41304Y116577D01*
X41414Y116593D01*
X41539Y116616D01*
X41680Y116640D01*
X41830Y116679D01*
X41986Y116726D01*
X42151Y116781D01*
X42316Y116852D01*
X42489Y116930D01*
X42661Y117024D01*
X42834Y117134D01*
X43007Y117260D01*
Y116302D01*
X42999Y116294D01*
X42968Y116279D01*
X42920Y116247D01*
X42858Y116208D01*
X42771Y116161D01*
X42669Y116114D01*
X42552Y116059D01*
X42418Y116004D01*
X42261Y115941D01*
X42096Y115886D01*
X41916Y115839D01*
X41720Y115792D01*
X41508Y115753D01*
X41280Y115722D01*
X41037Y115706D01*
X40786Y115698D01*
X40723D01*
X40660Y115706D01*
X40566Y115714D01*
X40448Y115722D01*
X40315Y115745D01*
X40174Y115769D01*
X40016Y115808D01*
X39852Y115855D01*
X39679Y115910D01*
X39499Y115981D01*
X39326Y116059D01*
X39145Y116161D01*
X38981Y116279D01*
X38816Y116412D01*
X38667Y116561D01*
X38659Y116569D01*
X38635Y116601D01*
X38596Y116656D01*
X38549Y116726D01*
X38486Y116812D01*
X38423Y116922D01*
X38353Y117048D01*
X38282Y117197D01*
X38211Y117354D01*
X38141Y117542D01*
X38078Y117739D01*
X38015Y117958D01*
X37968Y118194D01*
X37929Y118445D01*
X37905Y118720D01*
X37897Y119002D01*
Y119010D01*
Y119018D01*
Y119042D01*
Y119065D01*
X37905Y119144D01*
X37913Y119253D01*
X37921Y119379D01*
X37945Y119520D01*
X37968Y119685D01*
X37999Y119866D01*
X38047Y120054D01*
X38101Y120250D01*
X38172Y120454D01*
X38251Y120658D01*
X38345Y120855D01*
X38463Y121059D01*
X38588Y121247D01*
X38737Y121427D01*
X38745Y121435D01*
X38777Y121467D01*
X38823Y121514D01*
X38886Y121577D01*
X38973Y121647D01*
X39075Y121726D01*
X39185Y121812D01*
X39318Y121898D01*
X39459Y121985D01*
X39624Y122071D01*
X39797Y122150D01*
X39977Y122220D01*
X40174Y122283D01*
X40385Y122330D01*
X40605Y122361D01*
X40833Y122369D01*
X40888D01*
X40950Y122361D01*
D02*
G37*
G36*
X7822Y124912D02*
X7876D01*
X7932Y124904D01*
X8002D01*
X8159Y124881D01*
X8340Y124857D01*
X8544Y124818D01*
X8763Y124763D01*
X8991Y124700D01*
X9234Y124614D01*
X9478Y124512D01*
X9729Y124394D01*
X9980Y124253D01*
X10215Y124088D01*
X10451Y123892D01*
X10671Y123672D01*
X10686Y123657D01*
X10718Y123617D01*
X10773Y123547D01*
X10851Y123445D01*
X10930Y123319D01*
X11032Y123170D01*
X11134Y122997D01*
X11236Y122801D01*
X11338Y122573D01*
X11440Y122330D01*
X11542Y122063D01*
X11628Y121773D01*
X11699Y121459D01*
X11754Y121129D01*
X11785Y120784D01*
X11801Y120415D01*
Y120407D01*
Y120392D01*
Y120360D01*
Y120321D01*
X11793Y120266D01*
Y120203D01*
X11785Y120133D01*
Y120054D01*
X11777Y119968D01*
X11769Y119874D01*
X11738Y119662D01*
X11707Y119418D01*
X11659Y119167D01*
X11597Y118892D01*
X11518Y118610D01*
X11424Y118327D01*
X11314Y118037D01*
X11181Y117754D01*
X11024Y117472D01*
X10843Y117213D01*
X10639Y116962D01*
X10624Y116946D01*
X10584Y116907D01*
X10522Y116844D01*
X10427Y116765D01*
X10310Y116671D01*
X10168Y116561D01*
X10011Y116452D01*
X9823Y116334D01*
X9611Y116216D01*
X9376Y116098D01*
X9124Y115988D01*
X8850Y115894D01*
X8551Y115816D01*
X8238Y115753D01*
X7900Y115714D01*
X7547Y115698D01*
X7461D01*
X7421Y115706D01*
X7366D01*
X7304Y115714D01*
X7233Y115722D01*
X7068Y115737D01*
X6888Y115761D01*
X6676Y115800D01*
X6456Y115855D01*
X6213Y115918D01*
X5969Y116004D01*
X5718Y116106D01*
X5459Y116224D01*
X5208Y116365D01*
X4965Y116538D01*
X4721Y116726D01*
X4502Y116946D01*
X4486Y116962D01*
X4455Y117001D01*
X4400Y117072D01*
X4321Y117174D01*
X4235Y117299D01*
X4141Y117448D01*
X4038Y117621D01*
X3936Y117825D01*
X3827Y118045D01*
X3725Y118288D01*
X3630Y118555D01*
X3544Y118845D01*
X3466Y119159D01*
X3411Y119489D01*
X3379Y119834D01*
X3364Y120203D01*
Y120211D01*
Y120227D01*
Y120258D01*
Y120297D01*
X3371Y120352D01*
Y120407D01*
X3379Y120478D01*
Y120556D01*
X3387Y120643D01*
X3403Y120745D01*
X3426Y120949D01*
X3458Y121184D01*
X3513Y121435D01*
X3568Y121710D01*
X3646Y121985D01*
X3740Y122267D01*
X3850Y122558D01*
X3984Y122840D01*
X4141Y123115D01*
X4321Y123382D01*
X4525Y123633D01*
X4541Y123649D01*
X4580Y123688D01*
X4643Y123751D01*
X4737Y123837D01*
X4855Y123931D01*
X5004Y124041D01*
X5169Y124159D01*
X5357Y124277D01*
X5577Y124394D01*
X5812Y124512D01*
X6071Y124622D01*
X6354Y124716D01*
X6660Y124802D01*
X6982Y124865D01*
X7327Y124904D01*
X7696Y124920D01*
X7775D01*
X7822Y124912D01*
D02*
G37*
G36*
X-22623Y122361D02*
X-22521Y122354D01*
X-22403Y122346D01*
X-22262Y122322D01*
X-22113Y122299D01*
X-21948Y122259D01*
X-21768Y122212D01*
X-21587Y122157D01*
X-21407Y122087D01*
X-21218Y122000D01*
X-21038Y121898D01*
X-20857Y121781D01*
X-20692Y121647D01*
X-20535Y121490D01*
X-20528Y121482D01*
X-20504Y121451D01*
X-20465Y121396D01*
X-20410Y121326D01*
X-20347Y121239D01*
X-20284Y121129D01*
X-20206Y121004D01*
X-20135Y120855D01*
X-20057Y120690D01*
X-19986Y120509D01*
X-19923Y120313D01*
X-19860Y120093D01*
X-19806Y119858D01*
X-19766Y119607D01*
X-19743Y119340D01*
X-19735Y119057D01*
Y119049D01*
Y119042D01*
Y119018D01*
Y118987D01*
X-19743Y118908D01*
X-19751Y118806D01*
X-19758Y118673D01*
X-19782Y118524D01*
X-19806Y118359D01*
X-19845Y118178D01*
X-19892Y117990D01*
X-19947Y117786D01*
X-20017Y117582D01*
X-20096Y117378D01*
X-20198Y117174D01*
X-20316Y116977D01*
X-20449Y116789D01*
X-20598Y116608D01*
X-20606Y116601D01*
X-20637Y116569D01*
X-20684Y116522D01*
X-20755Y116467D01*
X-20842Y116397D01*
X-20944Y116318D01*
X-21069Y116240D01*
X-21210Y116153D01*
X-21367Y116067D01*
X-21540Y115988D01*
X-21728Y115910D01*
X-21932Y115839D01*
X-22160Y115784D01*
X-22396Y115737D01*
X-22639Y115706D01*
X-22906Y115698D01*
X-22968D01*
X-23039Y115706D01*
X-23141Y115714D01*
X-23259Y115722D01*
X-23400Y115745D01*
X-23549Y115769D01*
X-23714Y115808D01*
X-23895Y115855D01*
X-24075Y115918D01*
X-24264Y115988D01*
X-24452Y116075D01*
X-24640Y116177D01*
X-24829Y116294D01*
X-25001Y116428D01*
X-25166Y116585D01*
X-25174Y116593D01*
X-25205Y116624D01*
X-25245Y116679D01*
X-25299Y116750D01*
X-25362Y116836D01*
X-25433Y116946D01*
X-25504Y117072D01*
X-25582Y117221D01*
X-25661Y117378D01*
X-25739Y117558D01*
X-25810Y117754D01*
X-25872Y117966D01*
X-25927Y118186D01*
X-25967Y118429D01*
X-25998Y118688D01*
X-26006Y118955D01*
Y118963D01*
Y118971D01*
Y118994D01*
Y119026D01*
X-25998Y119112D01*
X-25990Y119222D01*
X-25982Y119355D01*
X-25959Y119512D01*
X-25935Y119685D01*
X-25896Y119874D01*
X-25849Y120070D01*
X-25794Y120274D01*
X-25723Y120486D01*
X-25637Y120698D01*
X-25535Y120902D01*
X-25425Y121098D01*
X-25292Y121286D01*
X-25135Y121467D01*
X-25127Y121475D01*
X-25096Y121506D01*
X-25041Y121553D01*
X-24970Y121608D01*
X-24883Y121679D01*
X-24774Y121749D01*
X-24648Y121836D01*
X-24507Y121922D01*
X-24350Y122000D01*
X-24169Y122087D01*
X-23973Y122157D01*
X-23761Y122228D01*
X-23534Y122283D01*
X-23290Y122330D01*
X-23031Y122361D01*
X-22757Y122369D01*
X-22694D01*
X-22623Y122361D01*
D02*
G37*
G36*
X165118Y-15778D02*
X157118Y-9778D01*
X165118Y-3778D01*
Y-15778D01*
D02*
G37*
%LPC*%
G36*
X115186Y134355D02*
X115100D01*
X115037Y134347D01*
X114959Y134339D01*
X114872Y134324D01*
X114778Y134300D01*
X114668Y134277D01*
X114558Y134245D01*
X114441Y134206D01*
X114323Y134151D01*
X114205Y134096D01*
X114087Y134025D01*
X113970Y133939D01*
X113852Y133845D01*
X113750Y133735D01*
X113742Y133727D01*
X113726Y133704D01*
X113703Y133672D01*
X113664Y133625D01*
X113624Y133562D01*
X113577Y133492D01*
X113530Y133405D01*
X113483Y133311D01*
X113428Y133201D01*
X113381Y133084D01*
X113334Y132958D01*
X113295Y132817D01*
X113256Y132668D01*
X113232Y132519D01*
X113216Y132354D01*
X113208Y132181D01*
Y131294D01*
Y131286D01*
Y131263D01*
Y131216D01*
X113216Y131161D01*
X113224Y131090D01*
X113232Y131012D01*
X113248Y130925D01*
X113271Y130831D01*
X113334Y130619D01*
X113373Y130509D01*
X113420Y130392D01*
X113483Y130282D01*
X113554Y130164D01*
X113632Y130054D01*
X113719Y129952D01*
X113726Y129944D01*
X113742Y129929D01*
X113773Y129905D01*
X113813Y129866D01*
X113860Y129826D01*
X113923Y129779D01*
X113993Y129732D01*
X114080Y129677D01*
X114166Y129630D01*
X114268Y129575D01*
X114378Y129528D01*
X114488Y129489D01*
X114613Y129450D01*
X114747Y129426D01*
X114888Y129410D01*
X115029Y129403D01*
X115069D01*
X115116Y129410D01*
X115186D01*
X115257Y129426D01*
X115351Y129442D01*
X115453Y129465D01*
X115555Y129489D01*
X115673Y129528D01*
X115791Y129575D01*
X115908Y129630D01*
X116034Y129701D01*
X116152Y129779D01*
X116269Y129874D01*
X116379Y129983D01*
X116481Y130109D01*
X116489Y130117D01*
X116505Y130140D01*
X116528Y130180D01*
X116568Y130242D01*
X116607Y130313D01*
X116646Y130399D01*
X116693Y130509D01*
X116748Y130627D01*
X116795Y130760D01*
X116842Y130910D01*
X116882Y131067D01*
X116929Y131247D01*
X116960Y131435D01*
X116983Y131639D01*
X116999Y131859D01*
X117007Y132087D01*
Y132103D01*
Y132134D01*
Y132189D01*
X116999Y132260D01*
X116991Y132354D01*
X116983Y132456D01*
X116968Y132566D01*
X116944Y132691D01*
X116889Y132958D01*
X116850Y133099D01*
X116795Y133233D01*
X116740Y133374D01*
X116677Y133507D01*
X116599Y133633D01*
X116513Y133751D01*
X116505Y133759D01*
X116489Y133774D01*
X116466Y133806D01*
X116426Y133845D01*
X116371Y133892D01*
X116316Y133939D01*
X116246Y133994D01*
X116167Y134057D01*
X116073Y134112D01*
X115979Y134167D01*
X115869Y134214D01*
X115751Y134261D01*
X115618Y134300D01*
X115485Y134332D01*
X115343Y134347D01*
X115186Y134355D01*
D02*
G37*
G36*
X156611Y131914D02*
X155073Y131702D01*
X155065D01*
X155041Y131694D01*
X155002D01*
X154955Y131687D01*
X154900Y131671D01*
X154830Y131655D01*
X154672Y131624D01*
X154500Y131577D01*
X154327Y131514D01*
X154155Y131435D01*
X154076Y131396D01*
X154005Y131349D01*
X153990Y131333D01*
X153950Y131302D01*
X153888Y131239D01*
X153825Y131145D01*
X153762Y131019D01*
X153731Y130949D01*
X153699Y130870D01*
X153676Y130784D01*
X153660Y130682D01*
X153652Y130580D01*
X153644Y130462D01*
Y130454D01*
Y130439D01*
Y130415D01*
X153652Y130384D01*
X153660Y130297D01*
X153684Y130188D01*
X153723Y130070D01*
X153786Y129936D01*
X153864Y129811D01*
X153974Y129693D01*
X153982D01*
X153990Y129677D01*
X154037Y129646D01*
X154107Y129599D01*
X154209Y129552D01*
X154343Y129497D01*
X154492Y129450D01*
X154672Y129418D01*
X154869Y129403D01*
X154939D01*
X154994Y129410D01*
X155057Y129418D01*
X155136Y129434D01*
X155214Y129450D01*
X155308Y129473D01*
X155505Y129536D01*
X155606Y129575D01*
X155716Y129630D01*
X155818Y129693D01*
X155920Y129764D01*
X156023Y129842D01*
X156117Y129936D01*
X156124Y129944D01*
X156140Y129960D01*
X156164Y129991D01*
X156195Y130030D01*
X156234Y130085D01*
X156274Y130148D01*
X156321Y130219D01*
X156368Y130305D01*
X156407Y130399D01*
X156454Y130501D01*
X156493Y130611D01*
X156533Y130729D01*
X156564Y130855D01*
X156588Y130988D01*
X156603Y131129D01*
X156611Y131278D01*
Y131914D01*
D02*
G37*
G36*
X141377Y134355D02*
X141306D01*
X141259Y134347D01*
X141196Y134339D01*
X141118Y134332D01*
X141039Y134316D01*
X140953Y134292D01*
X140757Y134229D01*
X140655Y134190D01*
X140553Y134135D01*
X140451Y134080D01*
X140341Y134010D01*
X140247Y133931D01*
X140145Y133837D01*
X140137Y133829D01*
X140121Y133813D01*
X140098Y133782D01*
X140066Y133743D01*
X140027Y133688D01*
X139980Y133633D01*
X139933Y133554D01*
X139878Y133476D01*
X139823Y133382D01*
X139776Y133280D01*
X139721Y133170D01*
X139674Y133052D01*
X139627Y132919D01*
X139587Y132785D01*
X139548Y132636D01*
X139525Y132487D01*
X142970D01*
Y132495D01*
Y132526D01*
Y132573D01*
X142962Y132636D01*
X142955Y132707D01*
X142947Y132793D01*
X142931Y132887D01*
X142915Y132989D01*
X142860Y133209D01*
X142782Y133445D01*
X142735Y133554D01*
X142680Y133664D01*
X142617Y133766D01*
X142539Y133861D01*
X142531Y133869D01*
X142523Y133884D01*
X142499Y133908D01*
X142460Y133939D01*
X142421Y133978D01*
X142366Y134018D01*
X142311Y134065D01*
X142240Y134112D01*
X142162Y134151D01*
X142076Y134198D01*
X141973Y134237D01*
X141871Y134277D01*
X141762Y134308D01*
X141644Y134332D01*
X141510Y134347D01*
X141377Y134355D01*
D02*
G37*
G36*
X126983Y136820D02*
X126920D01*
X126849Y136812D01*
X126747Y136804D01*
X126629Y136788D01*
X126488Y136765D01*
X126339Y136733D01*
X126174Y136694D01*
X125994Y136639D01*
X125805Y136576D01*
X125617Y136490D01*
X125429Y136396D01*
X125232Y136278D01*
X125052Y136145D01*
X124871Y135988D01*
X124699Y135807D01*
X124691Y135799D01*
X124660Y135760D01*
X124620Y135705D01*
X124565Y135627D01*
X124495Y135525D01*
X124424Y135399D01*
X124346Y135258D01*
X124267Y135093D01*
X124181Y134912D01*
X124102Y134708D01*
X124032Y134488D01*
X123961Y134253D01*
X123906Y134002D01*
X123867Y133727D01*
X123835Y133445D01*
X123827Y133139D01*
Y133131D01*
Y133123D01*
Y133099D01*
Y133068D01*
Y133029D01*
X123835Y132982D01*
X123843Y132864D01*
X123851Y132723D01*
X123875Y132566D01*
X123898Y132385D01*
X123937Y132189D01*
X123977Y131985D01*
X124039Y131765D01*
X124102Y131545D01*
X124189Y131326D01*
X124283Y131106D01*
X124401Y130886D01*
X124534Y130682D01*
X124683Y130486D01*
X124691Y130478D01*
X124722Y130447D01*
X124769Y130392D01*
X124840Y130329D01*
X124926Y130250D01*
X125028Y130172D01*
X125146Y130078D01*
X125280Y129983D01*
X125436Y129889D01*
X125601Y129803D01*
X125790Y129717D01*
X125986Y129638D01*
X126198Y129575D01*
X126425Y129528D01*
X126661Y129489D01*
X126912Y129481D01*
X126975D01*
X127053Y129489D01*
X127155Y129497D01*
X127281Y129513D01*
X127422Y129528D01*
X127579Y129560D01*
X127752Y129599D01*
X127932Y129654D01*
X128121Y129717D01*
X128317Y129795D01*
X128505Y129889D01*
X128701Y129991D01*
X128882Y130125D01*
X129062Y130274D01*
X129227Y130439D01*
X129235Y130447D01*
X129267Y130486D01*
X129306Y130541D01*
X129361Y130619D01*
X129424Y130713D01*
X129494Y130831D01*
X129573Y130972D01*
X129651Y131137D01*
X129730Y131318D01*
X129808Y131514D01*
X129879Y131734D01*
X129942Y131977D01*
X129997Y132236D01*
X130036Y132511D01*
X130067Y132809D01*
X130075Y133123D01*
Y133131D01*
Y133146D01*
Y133170D01*
Y133201D01*
Y133241D01*
X130067Y133295D01*
X130059Y133413D01*
X130051Y133562D01*
X130028Y133735D01*
X130004Y133923D01*
X129973Y134128D01*
X129926Y134339D01*
X129871Y134567D01*
X129808Y134795D01*
X129730Y135022D01*
X129635Y135242D01*
X129526Y135462D01*
X129400Y135666D01*
X129251Y135854D01*
X129243Y135862D01*
X129212Y135893D01*
X129165Y135941D01*
X129102Y136003D01*
X129015Y136082D01*
X128913Y136160D01*
X128796Y136247D01*
X128662Y136341D01*
X128505Y136427D01*
X128333Y136514D01*
X128152Y136600D01*
X127948Y136670D01*
X127728Y136733D01*
X127493Y136780D01*
X127249Y136812D01*
X126983Y136820D01*
D02*
G37*
G36*
X107455Y134355D02*
X107416D01*
X107361Y134347D01*
X107290D01*
X107212Y134332D01*
X107118Y134324D01*
X107008Y134300D01*
X106890Y134269D01*
X106772Y134237D01*
X106647Y134190D01*
X106514Y134135D01*
X106388Y134073D01*
X106255Y133994D01*
X106129Y133908D01*
X106011Y133806D01*
X105901Y133688D01*
X105893Y133680D01*
X105878Y133657D01*
X105846Y133617D01*
X105815Y133562D01*
X105768Y133500D01*
X105721Y133413D01*
X105666Y133319D01*
X105619Y133209D01*
X105564Y133084D01*
X105509Y132942D01*
X105462Y132793D01*
X105415Y132628D01*
X105383Y132448D01*
X105352Y132260D01*
X105336Y132056D01*
X105328Y131844D01*
Y131828D01*
Y131797D01*
X105336Y131734D01*
Y131655D01*
X105344Y131561D01*
X105360Y131451D01*
X105375Y131326D01*
X105399Y131192D01*
X105430Y131051D01*
X105470Y130910D01*
X105517Y130760D01*
X105572Y130611D01*
X105634Y130462D01*
X105713Y130321D01*
X105799Y130180D01*
X105901Y130054D01*
X105909Y130046D01*
X105925Y130023D01*
X105964Y129991D01*
X106011Y129952D01*
X106066Y129905D01*
X106137Y129850D01*
X106223Y129787D01*
X106317Y129732D01*
X106419Y129670D01*
X106537Y129607D01*
X106663Y129552D01*
X106804Y129505D01*
X106953Y129465D01*
X107110Y129434D01*
X107275Y129410D01*
X107455Y129403D01*
X107502D01*
X107549Y129410D01*
X107620D01*
X107699Y129426D01*
X107793Y129434D01*
X107903Y129458D01*
X108020Y129481D01*
X108138Y129513D01*
X108264Y129560D01*
X108389Y129607D01*
X108515Y129670D01*
X108640Y129740D01*
X108758Y129826D01*
X108876Y129929D01*
X108978Y130038D01*
X108986Y130046D01*
X109002Y130070D01*
X109025Y130109D01*
X109064Y130156D01*
X109103Y130227D01*
X109151Y130305D01*
X109198Y130399D01*
X109245Y130509D01*
X109292Y130635D01*
X109347Y130768D01*
X109386Y130917D01*
X109425Y131082D01*
X109465Y131255D01*
X109488Y131451D01*
X109504Y131655D01*
X109512Y131867D01*
Y131883D01*
Y131922D01*
Y131985D01*
X109504Y132063D01*
X109496Y132165D01*
X109480Y132275D01*
X109465Y132409D01*
X109449Y132542D01*
X109378Y132840D01*
X109339Y132989D01*
X109284Y133146D01*
X109229Y133295D01*
X109151Y133437D01*
X109072Y133578D01*
X108978Y133704D01*
X108970Y133712D01*
X108954Y133735D01*
X108923Y133766D01*
X108876Y133806D01*
X108821Y133853D01*
X108758Y133908D01*
X108680Y133970D01*
X108586Y134033D01*
X108483Y134088D01*
X108374Y134151D01*
X108248Y134206D01*
X108115Y134253D01*
X107965Y134292D01*
X107809Y134324D01*
X107636Y134347D01*
X107455Y134355D01*
D02*
G37*
G36*
X-4571Y121506D02*
X-4611D01*
X-4658Y121498D01*
X-4728D01*
X-4807Y121482D01*
X-4893Y121467D01*
X-4995Y121451D01*
X-5105Y121420D01*
X-5223Y121388D01*
X-5340Y121341D01*
X-5458Y121286D01*
X-5584Y121216D01*
X-5702Y121137D01*
X-5819Y121051D01*
X-5937Y120941D01*
X-6039Y120823D01*
X-6047Y120815D01*
X-6063Y120792D01*
X-6086Y120752D01*
X-6125Y120698D01*
X-6165Y120627D01*
X-6204Y120541D01*
X-6259Y120446D01*
X-6306Y120329D01*
X-6353Y120203D01*
X-6400Y120062D01*
X-6447Y119905D01*
X-6486Y119740D01*
X-6526Y119552D01*
X-6549Y119363D01*
X-6565Y119151D01*
X-6573Y118932D01*
Y118916D01*
Y118884D01*
Y118822D01*
X-6565Y118751D01*
X-6557Y118657D01*
X-6549Y118547D01*
X-6533Y118429D01*
X-6510Y118296D01*
X-6447Y118021D01*
X-6408Y117872D01*
X-6361Y117731D01*
X-6298Y117590D01*
X-6227Y117448D01*
X-6149Y117315D01*
X-6063Y117189D01*
X-6055Y117181D01*
X-6039Y117166D01*
X-6008Y117134D01*
X-5968Y117087D01*
X-5914Y117040D01*
X-5851Y116985D01*
X-5780Y116930D01*
X-5694Y116875D01*
X-5599Y116812D01*
X-5497Y116758D01*
X-5388Y116703D01*
X-5262Y116656D01*
X-5129Y116616D01*
X-4987Y116585D01*
X-4838Y116561D01*
X-4681Y116553D01*
X-4642D01*
X-4595Y116561D01*
X-4540D01*
X-4469Y116569D01*
X-4383Y116585D01*
X-4289Y116608D01*
X-4187Y116632D01*
X-4077Y116663D01*
X-3967Y116703D01*
X-3849Y116750D01*
X-3739Y116812D01*
X-3622Y116883D01*
X-3512Y116962D01*
X-3402Y117056D01*
X-3300Y117166D01*
X-3292Y117174D01*
X-3276Y117197D01*
X-3253Y117228D01*
X-3214Y117276D01*
X-3174Y117338D01*
X-3127Y117409D01*
X-3080Y117495D01*
X-3033Y117597D01*
X-2986Y117699D01*
X-2931Y117817D01*
X-2892Y117951D01*
X-2853Y118084D01*
X-2813Y118233D01*
X-2790Y118390D01*
X-2774Y118555D01*
X-2766Y118728D01*
Y119662D01*
Y119669D01*
Y119693D01*
Y119740D01*
X-2774Y119795D01*
X-2782Y119858D01*
X-2790Y119936D01*
X-2805Y120023D01*
X-2829Y120117D01*
X-2892Y120321D01*
X-2931Y120431D01*
X-2978Y120541D01*
X-3041Y120651D01*
X-3112Y120760D01*
X-3190Y120870D01*
X-3276Y120972D01*
X-3284Y120980D01*
X-3300Y120996D01*
X-3331Y121019D01*
X-3370Y121059D01*
X-3418Y121098D01*
X-3480Y121145D01*
X-3551Y121192D01*
X-3629Y121239D01*
X-3716Y121286D01*
X-3818Y121341D01*
X-3920Y121380D01*
X-4038Y121420D01*
X-4163Y121459D01*
X-4289Y121482D01*
X-4430Y121498D01*
X-4571Y121506D01*
D02*
G37*
G36*
X-14563Y119065D02*
X-16101Y118853D01*
X-16109D01*
X-16132Y118845D01*
X-16172D01*
X-16219Y118837D01*
X-16274Y118822D01*
X-16344Y118806D01*
X-16501Y118775D01*
X-16674Y118728D01*
X-16847Y118665D01*
X-17019Y118586D01*
X-17098Y118547D01*
X-17168Y118500D01*
X-17184Y118484D01*
X-17223Y118453D01*
X-17286Y118390D01*
X-17349Y118296D01*
X-17412Y118170D01*
X-17443Y118100D01*
X-17474Y118021D01*
X-17498Y117935D01*
X-17514Y117833D01*
X-17522Y117731D01*
X-17529Y117613D01*
Y117605D01*
Y117590D01*
Y117566D01*
X-17522Y117535D01*
X-17514Y117448D01*
X-17490Y117338D01*
X-17451Y117221D01*
X-17388Y117087D01*
X-17310Y116962D01*
X-17200Y116844D01*
X-17192D01*
X-17184Y116828D01*
X-17137Y116797D01*
X-17066Y116750D01*
X-16964Y116703D01*
X-16831Y116648D01*
X-16682Y116601D01*
X-16501Y116569D01*
X-16305Y116553D01*
X-16234D01*
X-16179Y116561D01*
X-16117Y116569D01*
X-16038Y116585D01*
X-15960Y116601D01*
X-15865Y116624D01*
X-15669Y116687D01*
X-15567Y116726D01*
X-15457Y116781D01*
X-15355Y116844D01*
X-15253Y116915D01*
X-15151Y116993D01*
X-15057Y117087D01*
X-15049Y117095D01*
X-15034Y117111D01*
X-15010Y117142D01*
X-14979Y117181D01*
X-14939Y117236D01*
X-14900Y117299D01*
X-14853Y117370D01*
X-14806Y117456D01*
X-14767Y117550D01*
X-14720Y117652D01*
X-14680Y117762D01*
X-14641Y117880D01*
X-14610Y118006D01*
X-14586Y118139D01*
X-14570Y118280D01*
X-14563Y118429D01*
Y119065D01*
D02*
G37*
G36*
X-30338Y123821D02*
X-31696D01*
Y120941D01*
X-30542D01*
X-30487Y120949D01*
X-30417Y120957D01*
X-30331Y120964D01*
X-30236Y120972D01*
X-30134Y120996D01*
X-29922Y121043D01*
X-29695Y121114D01*
X-29585Y121161D01*
X-29475Y121216D01*
X-29373Y121278D01*
X-29279Y121349D01*
X-29271Y121357D01*
X-29255Y121365D01*
X-29232Y121396D01*
X-29200Y121427D01*
X-29161Y121467D01*
X-29122Y121522D01*
X-29075Y121585D01*
X-29028Y121655D01*
X-28988Y121734D01*
X-28941Y121820D01*
X-28902Y121914D01*
X-28863Y122016D01*
X-28831Y122134D01*
X-28808Y122252D01*
X-28792Y122385D01*
X-28784Y122518D01*
Y122534D01*
Y122573D01*
X-28792Y122636D01*
X-28808Y122723D01*
X-28839Y122824D01*
X-28871Y122934D01*
X-28926Y123052D01*
X-28996Y123170D01*
X-29090Y123295D01*
X-29200Y123413D01*
X-29341Y123523D01*
X-29506Y123617D01*
X-29601Y123664D01*
X-29703Y123704D01*
X-29813Y123735D01*
X-29930Y123766D01*
X-30056Y123790D01*
X-30197Y123806D01*
X-30338Y123821D01*
D02*
G37*
G36*
X-30495Y119999D02*
X-31696D01*
Y116789D01*
X-30189D01*
X-30126Y116797D01*
X-30048Y116805D01*
X-29962Y116812D01*
X-29860Y116828D01*
X-29750Y116844D01*
X-29522Y116891D01*
X-29287Y116969D01*
X-29169Y117024D01*
X-29059Y117079D01*
X-28957Y117142D01*
X-28855Y117221D01*
X-28847Y117228D01*
X-28831Y117244D01*
X-28808Y117268D01*
X-28776Y117299D01*
X-28737Y117346D01*
X-28690Y117401D01*
X-28651Y117464D01*
X-28596Y117535D01*
X-28549Y117621D01*
X-28510Y117707D01*
X-28463Y117809D01*
X-28423Y117911D01*
X-28392Y118029D01*
X-28368Y118155D01*
X-28353Y118280D01*
X-28345Y118421D01*
Y118429D01*
Y118437D01*
Y118461D01*
X-28353Y118492D01*
X-28361Y118571D01*
X-28376Y118665D01*
X-28408Y118790D01*
X-28455Y118924D01*
X-28525Y119065D01*
X-28612Y119214D01*
X-28729Y119355D01*
X-28792Y119426D01*
X-28871Y119497D01*
X-28949Y119567D01*
X-29043Y119630D01*
X-29145Y119693D01*
X-29255Y119756D01*
X-29373Y119803D01*
X-29499Y119850D01*
X-29640Y119897D01*
X-29789Y119928D01*
X-29946Y119960D01*
X-30119Y119983D01*
X-30299Y119991D01*
X-30495Y119999D01*
D02*
G37*
G36*
X40817Y121506D02*
X40746D01*
X40699Y121498D01*
X40637Y121490D01*
X40558Y121482D01*
X40480Y121467D01*
X40393Y121443D01*
X40197Y121380D01*
X40095Y121341D01*
X39993Y121286D01*
X39891Y121231D01*
X39781Y121161D01*
X39687Y121082D01*
X39585Y120988D01*
X39577Y120980D01*
X39561Y120964D01*
X39538Y120933D01*
X39506Y120894D01*
X39467Y120839D01*
X39420Y120784D01*
X39373Y120705D01*
X39318Y120627D01*
X39263Y120533D01*
X39216Y120431D01*
X39161Y120321D01*
X39114Y120203D01*
X39067Y120070D01*
X39028Y119936D01*
X38988Y119787D01*
X38965Y119638D01*
X42410D01*
Y119646D01*
Y119677D01*
Y119724D01*
X42403Y119787D01*
X42395Y119858D01*
X42387Y119944D01*
X42371Y120038D01*
X42355Y120140D01*
X42301Y120360D01*
X42222Y120596D01*
X42175Y120705D01*
X42120Y120815D01*
X42057Y120917D01*
X41979Y121011D01*
X41971Y121019D01*
X41963Y121035D01*
X41939Y121059D01*
X41900Y121090D01*
X41861Y121129D01*
X41806Y121168D01*
X41751Y121216D01*
X41680Y121263D01*
X41602Y121302D01*
X41516Y121349D01*
X41414Y121388D01*
X41312Y121427D01*
X41202Y121459D01*
X41084Y121482D01*
X40950Y121498D01*
X40817Y121506D01*
D02*
G37*
G36*
X7617Y123970D02*
X7555D01*
X7484Y123963D01*
X7382Y123955D01*
X7264Y123939D01*
X7123Y123916D01*
X6974Y123884D01*
X6809Y123845D01*
X6629Y123790D01*
X6440Y123727D01*
X6252Y123641D01*
X6064Y123547D01*
X5867Y123429D01*
X5687Y123295D01*
X5506Y123139D01*
X5334Y122958D01*
X5326Y122950D01*
X5294Y122911D01*
X5255Y122856D01*
X5200Y122778D01*
X5130Y122675D01*
X5059Y122550D01*
X4980Y122409D01*
X4902Y122244D01*
X4816Y122063D01*
X4737Y121859D01*
X4666Y121639D01*
X4596Y121404D01*
X4541Y121153D01*
X4502Y120878D01*
X4470Y120596D01*
X4462Y120289D01*
Y120282D01*
Y120274D01*
Y120250D01*
Y120219D01*
Y120180D01*
X4470Y120133D01*
X4478Y120015D01*
X4486Y119874D01*
X4509Y119717D01*
X4533Y119536D01*
X4572Y119340D01*
X4611Y119136D01*
X4674Y118916D01*
X4737Y118696D01*
X4823Y118476D01*
X4918Y118257D01*
X5035Y118037D01*
X5169Y117833D01*
X5318Y117637D01*
X5326Y117629D01*
X5357Y117597D01*
X5404Y117542D01*
X5475Y117480D01*
X5561Y117401D01*
X5663Y117323D01*
X5781Y117228D01*
X5914Y117134D01*
X6071Y117040D01*
X6236Y116954D01*
X6424Y116868D01*
X6621Y116789D01*
X6833Y116726D01*
X7060Y116679D01*
X7296Y116640D01*
X7547Y116632D01*
X7610D01*
X7688Y116640D01*
X7790Y116648D01*
X7916Y116663D01*
X8057Y116679D01*
X8214Y116711D01*
X8387Y116750D01*
X8567Y116805D01*
X8756Y116868D01*
X8952Y116946D01*
X9140Y117040D01*
X9336Y117142D01*
X9517Y117276D01*
X9697Y117425D01*
X9862Y117590D01*
X9870Y117597D01*
X9901Y117637D01*
X9941Y117692D01*
X9996Y117770D01*
X10058Y117864D01*
X10129Y117982D01*
X10208Y118123D01*
X10286Y118288D01*
X10365Y118469D01*
X10443Y118665D01*
X10514Y118884D01*
X10576Y119128D01*
X10631Y119387D01*
X10671Y119662D01*
X10702Y119960D01*
X10710Y120274D01*
Y120282D01*
Y120297D01*
Y120321D01*
Y120352D01*
Y120392D01*
X10702Y120446D01*
X10694Y120564D01*
X10686Y120713D01*
X10663Y120886D01*
X10639Y121074D01*
X10608Y121278D01*
X10561Y121490D01*
X10506Y121718D01*
X10443Y121945D01*
X10365Y122173D01*
X10270Y122393D01*
X10160Y122613D01*
X10035Y122817D01*
X9886Y123005D01*
X9878Y123013D01*
X9847Y123044D01*
X9799Y123091D01*
X9737Y123154D01*
X9650Y123233D01*
X9548Y123311D01*
X9431Y123398D01*
X9297Y123492D01*
X9140Y123578D01*
X8967Y123664D01*
X8787Y123751D01*
X8583Y123821D01*
X8363Y123884D01*
X8128Y123931D01*
X7884Y123963D01*
X7617Y123970D01*
D02*
G37*
G36*
X-22835Y121506D02*
X-22874D01*
X-22929Y121498D01*
X-23000D01*
X-23078Y121482D01*
X-23173Y121475D01*
X-23282Y121451D01*
X-23400Y121420D01*
X-23518Y121388D01*
X-23644Y121341D01*
X-23777Y121286D01*
X-23902Y121223D01*
X-24036Y121145D01*
X-24162Y121059D01*
X-24279Y120957D01*
X-24389Y120839D01*
X-24397Y120831D01*
X-24413Y120808D01*
X-24444Y120768D01*
X-24475Y120713D01*
X-24523Y120651D01*
X-24570Y120564D01*
X-24625Y120470D01*
X-24672Y120360D01*
X-24727Y120234D01*
X-24781Y120093D01*
X-24829Y119944D01*
X-24876Y119779D01*
X-24907Y119599D01*
X-24938Y119410D01*
X-24954Y119206D01*
X-24962Y118994D01*
Y118979D01*
Y118947D01*
X-24954Y118884D01*
Y118806D01*
X-24946Y118712D01*
X-24931Y118602D01*
X-24915Y118476D01*
X-24891Y118343D01*
X-24860Y118202D01*
X-24821Y118060D01*
X-24774Y117911D01*
X-24719Y117762D01*
X-24656Y117613D01*
X-24577Y117472D01*
X-24491Y117331D01*
X-24389Y117205D01*
X-24381Y117197D01*
X-24365Y117174D01*
X-24326Y117142D01*
X-24279Y117103D01*
X-24224Y117056D01*
X-24154Y117001D01*
X-24067Y116938D01*
X-23973Y116883D01*
X-23871Y116820D01*
X-23753Y116758D01*
X-23628Y116703D01*
X-23486Y116656D01*
X-23337Y116616D01*
X-23180Y116585D01*
X-23016Y116561D01*
X-22835Y116553D01*
X-22788D01*
X-22741Y116561D01*
X-22670D01*
X-22592Y116577D01*
X-22498Y116585D01*
X-22388Y116608D01*
X-22270Y116632D01*
X-22152Y116663D01*
X-22027Y116711D01*
X-21901Y116758D01*
X-21776Y116820D01*
X-21650Y116891D01*
X-21532Y116977D01*
X-21414Y117079D01*
X-21312Y117189D01*
X-21305Y117197D01*
X-21289Y117221D01*
X-21265Y117260D01*
X-21226Y117307D01*
X-21187Y117378D01*
X-21140Y117456D01*
X-21093Y117550D01*
X-21046Y117660D01*
X-20998Y117786D01*
X-20944Y117919D01*
X-20904Y118068D01*
X-20865Y118233D01*
X-20826Y118406D01*
X-20802Y118602D01*
X-20787Y118806D01*
X-20779Y119018D01*
Y119034D01*
Y119073D01*
Y119136D01*
X-20787Y119214D01*
X-20794Y119316D01*
X-20810Y119426D01*
X-20826Y119559D01*
X-20842Y119693D01*
X-20912Y119991D01*
X-20951Y120140D01*
X-21006Y120297D01*
X-21061Y120446D01*
X-21140Y120588D01*
X-21218Y120729D01*
X-21312Y120855D01*
X-21320Y120862D01*
X-21336Y120886D01*
X-21367Y120917D01*
X-21414Y120957D01*
X-21469Y121004D01*
X-21532Y121059D01*
X-21611Y121121D01*
X-21705Y121184D01*
X-21807Y121239D01*
X-21917Y121302D01*
X-22042Y121357D01*
X-22176Y121404D01*
X-22325Y121443D01*
X-22482Y121475D01*
X-22655Y121498D01*
X-22835Y121506D01*
D02*
G37*
%LPD*%
D10*
X158047Y31210D02*
G03*
X158047Y31210I-500J0D01*
G01*
D11*
X157118Y-14778D02*
Y-4778D01*
Y-8278D01*
Y-4778D01*
D12*
X95652Y60916D02*
Y69009D01*
X96128Y70438D01*
X97080Y70914D01*
X98032D01*
X97556Y67581D02*
X94223D01*
X100889Y67105D02*
X99936Y66153D01*
X99460Y64725D01*
Y63773D01*
X99936Y62344D01*
X100889Y61392D01*
X101841Y60916D01*
X103269D01*
X104221Y61392D01*
X105173Y62344D01*
X105649Y63773D01*
Y64725D01*
X105173Y66153D01*
X104221Y67105D01*
X103269Y67581D01*
X101841D01*
X100889Y67105D01*
X107839Y67581D02*
Y60916D01*
Y64725D02*
X108315Y66153D01*
X109268Y67105D01*
X110220Y67581D01*
X111648D01*
X120408D02*
Y60916D01*
Y65677D02*
X121836Y67105D01*
X122789Y67581D01*
X124217D01*
X125169Y67105D01*
X125645Y65677D01*
Y60916D01*
Y65677D02*
X127073Y67105D01*
X128026Y67581D01*
X129454D01*
X130406Y67105D01*
X130882Y65677D01*
Y60916D01*
X135453D02*
Y67581D01*
Y70438D02*
X135929Y70914D01*
X135453Y71390D01*
X134977Y70914D01*
X135453Y70438D01*
X139118Y67105D02*
X138166Y66153D01*
X137690Y64725D01*
Y63773D01*
X138166Y62344D01*
X139118Y61392D01*
X140071Y60916D01*
X141499D01*
X142451Y61392D01*
X143403Y62344D01*
X145546Y60916D02*
Y67581D01*
X146022Y66153D02*
X146974Y67105D01*
X147926Y67581D01*
X149354D01*
X151687Y67105D02*
X150735Y66153D01*
X150259Y64725D01*
Y63773D01*
X150735Y62344D01*
X151687Y61392D01*
X152639Y60916D01*
X154068D01*
X155020Y61392D01*
X155972Y62344D01*
X156448Y63773D01*
Y64725D01*
X155972Y66153D01*
X155020Y67105D01*
X154068Y67581D01*
X152639D01*
X151687Y67105D01*
X146022Y66153D02*
X145546Y64725D01*
X143403Y66153D02*
X142451Y67105D01*
X141499Y67581D01*
X140071D01*
X139118Y67105D01*
X122559Y50998D02*
X118751Y41000D01*
X114942Y50998D01*
X112228D02*
X109372Y47189D01*
X110800D01*
X111752Y46713D01*
X112228Y46237D01*
X112704Y44809D01*
Y43857D01*
X112228Y42428D01*
X111276Y41476D01*
X109848Y41000D01*
X108420D01*
X106991Y41476D01*
X106515Y41952D01*
X106039Y42904D01*
X106991Y50998D02*
X112228D01*
X158638Y61392D02*
X159114Y60916D01*
X159590Y61392D01*
X159114Y61868D01*
X158638Y61392D01*
X161780Y60916D02*
Y70914D01*
Y66153D02*
X162732Y67105D01*
X163685Y67581D01*
X165113D01*
X166065Y67105D01*
X167017Y66153D01*
X167493Y64725D01*
Y63773D01*
X167017Y62344D01*
X166065Y61392D01*
X165113Y60916D01*
X163685D01*
X162732Y61392D01*
X161780Y62344D01*
X159114Y66629D02*
X159590Y67105D01*
X159114Y67581D01*
X158638Y67105D01*
X159114Y66629D01*
X171064Y67581D02*
Y60916D01*
X175206Y61392D02*
X176158Y60916D01*
X177110D01*
X175206Y61392D02*
X174730Y62820D01*
Y70914D01*
X171540D02*
X171064Y71390D01*
X170588Y70914D01*
X171064Y70438D01*
X171540Y70914D01*
X173302Y67581D02*
X176634D01*
X186394Y70914D02*
X190203Y60916D01*
X194011Y70914D01*
X196249Y69962D02*
X196725Y70438D01*
X197677Y70914D01*
X199582D01*
X200534Y70438D01*
X201010Y69962D01*
X201486Y69009D01*
Y68057D01*
X201010Y67105D01*
X200058Y65677D01*
X195297Y60916D01*
X201962D01*
X195773Y68533D02*
Y69009D01*
X196249Y69962D01*
X189013Y75789D02*
Y85787D01*
Y84359D02*
X189965Y85311D01*
X190917Y85787D01*
X192345D01*
X193297Y85311D01*
X194249Y84359D01*
X194726Y82931D01*
Y81979D01*
X194249Y80550D01*
X193297Y79598D01*
X192345Y79122D01*
X190917D01*
X189965Y79598D01*
X189013Y80550D01*
X197344D02*
X198296Y79598D01*
X199248Y79122D01*
X200677D01*
X201629Y79598D01*
X202581Y80550D01*
Y79122D02*
Y85787D01*
Y84359D02*
X201629Y85311D01*
X200677Y85787D01*
X199248D01*
X198296Y85311D01*
X197344Y84359D01*
X196868Y82931D01*
Y81979D01*
X197344Y80550D01*
X205723D02*
X206675Y79598D01*
X207628Y79122D01*
X209056D01*
X210008Y79598D01*
X210960Y80550D01*
X213103Y81026D02*
X217864Y85787D01*
X215007Y82931D02*
X218340Y79122D01*
X213103D02*
Y89120D01*
X210960Y84359D02*
X210008Y85311D01*
X209056Y85787D01*
X207628D01*
X206675Y85311D01*
X205723Y84359D01*
X205247Y82931D01*
Y81979D01*
X205723Y80550D01*
X179586Y79122D02*
X176253Y82931D01*
X174349Y81026D02*
X179110Y85787D01*
X174349Y89120D02*
Y79122D01*
X171254Y79598D02*
X172207Y80550D01*
X171254Y79598D02*
X170302Y79122D01*
X168874D01*
X167922Y79598D01*
X166970Y80550D01*
X166493Y81979D01*
Y82931D01*
X166970Y84359D01*
X167922Y85311D01*
X168874Y85787D01*
X170302D01*
X171254Y85311D01*
X172207Y84359D01*
X163827D02*
X162875Y85311D01*
X161923Y85787D01*
X160495D01*
X159543Y85311D01*
X158590Y84359D01*
X158114Y82931D01*
Y81979D01*
X158590Y80550D01*
X159543Y79598D01*
X160495Y79122D01*
X161923D01*
X162875Y79598D01*
X163827Y80550D01*
Y79122D02*
Y85787D01*
X155972Y82931D02*
Y81979D01*
X155496Y80550D01*
X154544Y79598D01*
X153591Y79122D01*
X152163D01*
X151211Y79598D01*
X150259Y80550D01*
Y79122D02*
Y89120D01*
Y84359D02*
X151211Y85311D01*
X152163Y85787D01*
X153591D01*
X154544Y85311D01*
X155496Y84359D01*
X155972Y82931D01*
X215822Y37070D02*
X215346Y36117D01*
X214870Y34689D01*
Y32309D01*
X215346Y30880D01*
X215822Y29928D01*
X216774Y28976D01*
X217726Y28500D01*
X219631D01*
X220583Y28976D01*
X221535Y29928D01*
X222011Y30880D01*
Y32309D01*
X219631D01*
X222011Y36117D02*
X221535Y37070D01*
X220583Y38022D01*
X219631Y38498D01*
X217726D01*
X216774Y38022D01*
X215822Y37070D01*
X224296Y38498D02*
Y28500D01*
X230962D02*
X224296Y38498D01*
X230962D02*
Y28500D01*
X233723D02*
Y38498D01*
X237055D01*
X238484Y38022D01*
X239436Y37070D01*
X239912Y36117D01*
X240388Y34689D01*
Y32309D01*
X239912Y30880D01*
X239436Y29928D01*
X238484Y28976D01*
X237055Y28500D01*
X233723D01*
X139309Y79598D02*
X140261Y80550D01*
X139309Y79598D02*
X138357Y79122D01*
X136928D01*
X135976Y79598D01*
X135024Y80550D01*
X134548Y81979D01*
Y82931D01*
X135024Y84359D01*
X135976Y85311D01*
X136928Y85787D01*
X138357D01*
X139309Y85311D01*
X140261Y84359D01*
X131882D02*
X130930Y85311D01*
X129978Y85787D01*
X128549D01*
X127597Y85311D01*
X126645Y84359D01*
X126169Y82931D01*
Y81979D01*
X126645Y80550D01*
X127597Y79598D01*
X128549Y79122D01*
X129978D01*
X130930Y79598D01*
X131882Y80550D01*
Y79122D02*
Y85787D01*
X123503Y84359D02*
X122551Y85311D01*
X121598Y85787D01*
X120170D01*
X119218Y85311D01*
X118266Y84359D01*
X117790Y82931D01*
Y81979D01*
X118266Y80550D01*
X119218Y79598D01*
X120170Y79122D01*
X121598D01*
X122551Y79598D01*
X123503Y80550D01*
Y79122D02*
Y89120D01*
X115647Y84359D02*
X114695Y85311D01*
X113743Y85787D01*
X112315D01*
X111362Y85311D01*
X110410Y84359D01*
X109934Y82931D01*
Y81979D01*
X110410Y80550D01*
X111362Y79598D01*
X112315Y79122D01*
X113743D01*
X114695Y79598D01*
X115647Y80550D01*
X107268D02*
X106316Y79598D01*
X105364Y79122D01*
X103935D01*
X102983Y79598D01*
X102031Y80550D01*
X101555Y81979D01*
Y82931D01*
X102031Y84359D01*
X102983Y85311D01*
X103935Y85787D01*
X105364D01*
X106316Y85311D01*
X107268Y84359D01*
Y85787D02*
Y79122D01*
X98508Y80074D02*
X98032Y79598D01*
X97080Y79122D01*
X96128D01*
X95176Y79598D01*
X94699Y80074D01*
X94223Y81503D01*
Y82455D01*
X98984Y81503D02*
X98508Y80074D01*
X98984Y81503D02*
Y89120D01*
D13*
X-38000Y-20000D02*
G03*
X-33000Y-25000I5000J0D01*
G01*
Y-25000D02*
X248089Y-25000D01*
D02*
G03*
X258089Y-15000I0J10000D01*
G01*
Y9550D01*
X258100D02*
Y19550D01*
X268100Y29550D02*
G03*
X258100Y19550I0J-10000D01*
G01*
X268100Y29550D02*
X308600Y29550D01*
D02*
G03*
X316600Y37550I0J8000D01*
G01*
X316600D02*
Y86950D01*
X316600D02*
G03*
X308600Y94950I-8000J0D01*
G01*
X268100D01*
Y95000D02*
X97150Y95000D01*
Y95000D02*
G03*
X87150Y85000I0J-10000D01*
G01*
Y40000D01*
X77150Y30000D02*
G03*
X87150Y40000I0J10000D01*
G01*
X77150Y30000D02*
X-28000D01*
D02*
G03*
X-38000Y20000I0J-10000D01*
G01*
Y-20000D01*
M02*
