M48
;Layer_Color=9474304
;FILE_FORMAT=2:5
INCH
;TYPE=PLATED
T1F00S00C0.01181
T2F00S00C0.02600
T3F00S00C0.02795
T4F00S00C0.08268
;TYPE=NON_PLATED
%
T01
X-0056378Y-0005718
X-0052536Y-0013738
X-0040413Y-0045772
X-0028768Y-0046639
X0000716Y-0050327
X0001650Y-0056711
X0007942Y-0047766
X0029847Y-0043830
X0031934Y-0034709
X0036984Y-0032919
X0042352Y-0030244
X0042230Y-0021457
X0040256Y-0014713
X0051181Y-0015866
X0055039
X0056176Y-0001705
X0042173Y0036467
X0019560Y0052251
X-0013593Y0052052
X-0017646Y0045295
X-0024074Y0042612
X-0029175Y0033104
X-0037400Y0032988
X-0041223Y0038142
X-0041764Y0041396
X0000000Y0074213
T02
X-0021659Y-0054035
Y-0049035
Y-0044035
X-0015059Y-0049035
Y-0054035
T03
X-0005000Y0062894
X0000000
X0005000
T04
X-0059059Y-0029429
X0059047Y-0029433
X0029524Y0059153
X-0029531
M30
