G04*
G04 #@! TF.GenerationSoftware,Altium Limited,Altium Designer,21.9.2 (33)*
G04*
G04 Layer_Color=16711935*
%FSAX25Y25*%
%MOIN*%
G70*
G04*
G04 #@! TF.SameCoordinates,2EB92662-9E55-42C7-936B-B314CFDC8511*
G04*
G04*
G04 #@! TF.FilePolarity,Negative*
G04*
G01*
G75*
%ADD12C,0.00394*%
G04:AMPARAMS|DCode=40|XSize=57.09mil|YSize=175.2mil|CornerRadius=15.75mil|HoleSize=0mil|Usage=FLASHONLY|Rotation=0.000|XOffset=0mil|YOffset=0mil|HoleType=Round|Shape=RoundedRectangle|*
%AMROUNDEDRECTD40*
21,1,0.05709,0.14370,0,0,0.0*
21,1,0.02559,0.17520,0,0,0.0*
1,1,0.03150,0.01280,-0.07185*
1,1,0.03150,-0.01280,-0.07185*
1,1,0.03150,-0.01280,0.07185*
1,1,0.03150,0.01280,0.07185*
%
%ADD40ROUNDEDRECTD40*%
%ADD41C,0.00591*%
%ADD43C,0.08465*%
%ADD44R,0.08465X0.08465*%
%ADD45C,0.12205*%
G04:AMPARAMS|DCode=64|XSize=35.43mil|YSize=135.83mil|CornerRadius=13.82mil|HoleSize=0mil|Usage=FLASHONLY|Rotation=180.000|XOffset=0mil|YOffset=0mil|HoleType=Round|Shape=RoundedRectangle|*
%AMROUNDEDRECTD64*
21,1,0.03543,0.10819,0,0,180.0*
21,1,0.00780,0.13583,0,0,180.0*
1,1,0.02764,-0.00390,0.05409*
1,1,0.02764,0.00390,0.05409*
1,1,0.02764,0.00390,-0.05409*
1,1,0.02764,-0.00390,-0.05409*
%
%ADD64ROUNDEDRECTD64*%
G04:AMPARAMS|DCode=65|XSize=35.43mil|YSize=116.14mil|CornerRadius=13.82mil|HoleSize=0mil|Usage=FLASHONLY|Rotation=180.000|XOffset=0mil|YOffset=0mil|HoleType=Round|Shape=RoundedRectangle|*
%AMROUNDEDRECTD65*
21,1,0.03543,0.08850,0,0,180.0*
21,1,0.00780,0.11614,0,0,180.0*
1,1,0.02764,-0.00390,0.04425*
1,1,0.02764,0.00390,0.04425*
1,1,0.02764,0.00390,-0.04425*
1,1,0.02764,-0.00390,-0.04425*
%
%ADD65ROUNDEDRECTD65*%
%ADD67C,0.04331*%
G36*
X0073390Y0108274D02*
X0073414D01*
X0073470Y0108250D01*
X0073501Y0108231D01*
X0073532Y0108206D01*
X0073538Y0108200D01*
X0073545Y0108194D01*
X0073576Y0108157D01*
X0073600Y0108095D01*
X0073606Y0108058D01*
X0073613Y0108021D01*
Y0108015D01*
Y0108002D01*
X0073606Y0107984D01*
X0073600Y0107959D01*
X0073582Y0107897D01*
X0073557Y0107866D01*
X0073532Y0107835D01*
X0073526D01*
X0073520Y0107823D01*
X0073483Y0107798D01*
X0073427Y0107773D01*
X0073390Y0107767D01*
X0073353Y0107761D01*
X0073334D01*
X0073316Y0107767D01*
X0073291D01*
X0073229Y0107792D01*
X0073198Y0107804D01*
X0073167Y0107829D01*
Y0107835D01*
X0073154Y0107841D01*
X0073142Y0107860D01*
X0073130Y0107878D01*
X0073105Y0107940D01*
X0073099Y0107977D01*
X0073093Y0108021D01*
Y0108027D01*
Y0108039D01*
X0073099Y0108058D01*
X0073105Y0108089D01*
X0073124Y0108144D01*
X0073142Y0108176D01*
X0073167Y0108206D01*
X0073173Y0108213D01*
X0073179Y0108219D01*
X0073216Y0108244D01*
X0073278Y0108268D01*
X0073316Y0108281D01*
X0073371D01*
X0073390Y0108274D01*
D02*
G37*
G36*
X0061400Y0104610D02*
X0060997D01*
Y0105031D01*
X0060985D01*
Y0105025D01*
X0060973Y0105012D01*
X0060954Y0104988D01*
X0060935Y0104957D01*
X0060905Y0104920D01*
X0060867Y0104882D01*
X0060824Y0104839D01*
X0060774Y0104796D01*
X0060719Y0104746D01*
X0060651Y0104703D01*
X0060583Y0104666D01*
X0060502Y0104629D01*
X0060422Y0104598D01*
X0060329Y0104573D01*
X0060230Y0104560D01*
X0060125Y0104554D01*
X0060081D01*
X0060044Y0104560D01*
X0060007Y0104567D01*
X0059957Y0104573D01*
X0059852Y0104598D01*
X0059728Y0104635D01*
X0059605Y0104697D01*
X0059536Y0104734D01*
X0059481Y0104777D01*
X0059419Y0104833D01*
X0059363Y0104889D01*
Y0104895D01*
X0059351Y0104907D01*
X0059338Y0104926D01*
X0059320Y0104950D01*
X0059301Y0104981D01*
X0059277Y0105025D01*
X0059252Y0105074D01*
X0059227Y0105130D01*
X0059196Y0105192D01*
X0059171Y0105260D01*
X0059147Y0105334D01*
X0059128Y0105415D01*
X0059109Y0105501D01*
X0059097Y0105600D01*
X0059091Y0105700D01*
X0059085Y0105805D01*
Y0105811D01*
Y0105830D01*
Y0105867D01*
X0059091Y0105910D01*
X0059097Y0105959D01*
X0059103Y0106021D01*
X0059109Y0106089D01*
X0059122Y0106164D01*
X0059159Y0106325D01*
X0059215Y0106492D01*
X0059252Y0106572D01*
X0059295Y0106653D01*
X0059338Y0106727D01*
X0059394Y0106801D01*
X0059400Y0106807D01*
X0059407Y0106820D01*
X0059425Y0106838D01*
X0059450Y0106863D01*
X0059481Y0106888D01*
X0059524Y0106919D01*
X0059567Y0106956D01*
X0059617Y0106993D01*
X0059741Y0107061D01*
X0059883Y0107123D01*
X0059964Y0107142D01*
X0060050Y0107160D01*
X0060137Y0107173D01*
X0060236Y0107179D01*
X0060286D01*
X0060323Y0107173D01*
X0060360Y0107167D01*
X0060409Y0107160D01*
X0060521Y0107129D01*
X0060645Y0107080D01*
X0060706Y0107049D01*
X0060768Y0107006D01*
X0060830Y0106962D01*
X0060886Y0106906D01*
X0060935Y0106845D01*
X0060985Y0106770D01*
X0060997D01*
Y0108330D01*
X0061400D01*
Y0104610D01*
D02*
G37*
G36*
X0075668Y0107173D02*
X0075742Y0107167D01*
X0075835Y0107148D01*
X0075934Y0107117D01*
X0076039Y0107068D01*
X0076144Y0106999D01*
X0076188Y0106962D01*
X0076231Y0106913D01*
X0076243Y0106900D01*
X0076268Y0106863D01*
X0076299Y0106801D01*
X0076342Y0106715D01*
X0076380Y0106609D01*
X0076417Y0106479D01*
X0076441Y0106325D01*
X0076448Y0106145D01*
Y0104610D01*
X0076045D01*
Y0106040D01*
Y0106046D01*
Y0106077D01*
X0076039Y0106114D01*
Y0106164D01*
X0076027Y0106226D01*
X0076014Y0106294D01*
X0075996Y0106368D01*
X0075971Y0106442D01*
X0075940Y0106517D01*
X0075903Y0106585D01*
X0075853Y0106653D01*
X0075798Y0106715D01*
X0075736Y0106764D01*
X0075655Y0106801D01*
X0075569Y0106832D01*
X0075463Y0106838D01*
X0075451D01*
X0075414Y0106832D01*
X0075358Y0106826D01*
X0075290Y0106807D01*
X0075210Y0106783D01*
X0075123Y0106739D01*
X0075042Y0106684D01*
X0074962Y0106609D01*
X0074956Y0106597D01*
X0074931Y0106572D01*
X0074900Y0106523D01*
X0074863Y0106455D01*
X0074826Y0106374D01*
X0074795Y0106275D01*
X0074770Y0106164D01*
X0074764Y0106040D01*
Y0104610D01*
X0074362D01*
Y0107123D01*
X0074764D01*
Y0106702D01*
X0074776D01*
X0074783Y0106708D01*
X0074789Y0106721D01*
X0074807Y0106746D01*
X0074832Y0106776D01*
X0074857Y0106814D01*
X0074894Y0106851D01*
X0074937Y0106894D01*
X0074987Y0106944D01*
X0075042Y0106987D01*
X0075104Y0107030D01*
X0075173Y0107068D01*
X0075247Y0107105D01*
X0075321Y0107136D01*
X0075408Y0107160D01*
X0075501Y0107173D01*
X0075600Y0107179D01*
X0075637D01*
X0075668Y0107173D01*
D02*
G37*
G36*
X0058670Y0107160D02*
X0058744Y0107154D01*
X0058788Y0107142D01*
X0058819Y0107129D01*
Y0106715D01*
X0058812Y0106721D01*
X0058800Y0106727D01*
X0058775Y0106739D01*
X0058744Y0106758D01*
X0058701Y0106770D01*
X0058645Y0106783D01*
X0058583Y0106789D01*
X0058515Y0106795D01*
X0058503D01*
X0058472Y0106789D01*
X0058422Y0106783D01*
X0058367Y0106764D01*
X0058292Y0106733D01*
X0058224Y0106690D01*
X0058150Y0106628D01*
X0058082Y0106547D01*
X0058076Y0106535D01*
X0058057Y0106504D01*
X0058026Y0106448D01*
X0057995Y0106374D01*
X0057964Y0106281D01*
X0057933Y0106164D01*
X0057915Y0106034D01*
X0057909Y0105885D01*
Y0104610D01*
X0057506D01*
Y0107123D01*
X0057909D01*
Y0106603D01*
X0057921D01*
Y0106609D01*
X0057927Y0106616D01*
X0057939Y0106647D01*
X0057958Y0106696D01*
X0057989Y0106758D01*
X0058020Y0106820D01*
X0058069Y0106888D01*
X0058119Y0106956D01*
X0058181Y0107018D01*
X0058187Y0107024D01*
X0058212Y0107043D01*
X0058249Y0107068D01*
X0058298Y0107092D01*
X0058354Y0107117D01*
X0058422Y0107142D01*
X0058497Y0107160D01*
X0058577Y0107167D01*
X0058633D01*
X0058670Y0107160D01*
D02*
G37*
G36*
X0069410Y0104610D02*
X0069007D01*
Y0105006D01*
X0068995D01*
Y0105000D01*
X0068982Y0104988D01*
X0068970Y0104963D01*
X0068945Y0104938D01*
X0068890Y0104864D01*
X0068803Y0104783D01*
X0068753Y0104740D01*
X0068698Y0104697D01*
X0068636Y0104660D01*
X0068562Y0104622D01*
X0068487Y0104598D01*
X0068407Y0104573D01*
X0068314Y0104560D01*
X0068221Y0104554D01*
X0068184D01*
X0068141Y0104560D01*
X0068079Y0104573D01*
X0068011Y0104585D01*
X0067936Y0104610D01*
X0067856Y0104641D01*
X0067775Y0104691D01*
X0067689Y0104746D01*
X0067608Y0104814D01*
X0067534Y0104901D01*
X0067466Y0105006D01*
X0067404Y0105124D01*
X0067361Y0105266D01*
X0067336Y0105433D01*
X0067324Y0105520D01*
Y0105619D01*
Y0107123D01*
X0067720D01*
Y0105681D01*
Y0105675D01*
Y0105650D01*
X0067726Y0105607D01*
X0067732Y0105557D01*
X0067738Y0105495D01*
X0067751Y0105433D01*
X0067769Y0105359D01*
X0067794Y0105285D01*
X0067831Y0105210D01*
X0067868Y0105142D01*
X0067918Y0105074D01*
X0067980Y0105012D01*
X0068048Y0104963D01*
X0068128Y0104926D01*
X0068227Y0104895D01*
X0068332Y0104889D01*
X0068345D01*
X0068382Y0104895D01*
X0068438Y0104901D01*
X0068500Y0104913D01*
X0068580Y0104944D01*
X0068661Y0104981D01*
X0068741Y0105031D01*
X0068815Y0105105D01*
X0068822Y0105118D01*
X0068846Y0105142D01*
X0068877Y0105192D01*
X0068914Y0105260D01*
X0068945Y0105341D01*
X0068976Y0105439D01*
X0069001Y0105551D01*
X0069007Y0105675D01*
Y0107123D01*
X0069410D01*
Y0104610D01*
D02*
G37*
G36*
X0073545D02*
X0073142D01*
Y0107123D01*
X0073545D01*
Y0104610D01*
D02*
G37*
G36*
X0072325D02*
X0071923D01*
Y0108330D01*
X0072325D01*
Y0104610D01*
D02*
G37*
G36*
X0055946Y0107173D02*
X0056002Y0107167D01*
X0056070Y0107148D01*
X0056144Y0107129D01*
X0056225Y0107098D01*
X0056312Y0107061D01*
X0056392Y0107012D01*
X0056472Y0106950D01*
X0056547Y0106876D01*
X0056615Y0106783D01*
X0056671Y0106677D01*
X0056714Y0106554D01*
X0056739Y0106411D01*
X0056751Y0106244D01*
Y0104610D01*
X0056349D01*
Y0105000D01*
X0056336D01*
Y0104994D01*
X0056324Y0104981D01*
X0056312Y0104957D01*
X0056287Y0104932D01*
X0056225Y0104858D01*
X0056144Y0104777D01*
X0056033Y0104697D01*
X0055903Y0104622D01*
X0055822Y0104598D01*
X0055742Y0104573D01*
X0055655Y0104560D01*
X0055563Y0104554D01*
X0055525D01*
X0055501Y0104560D01*
X0055433Y0104567D01*
X0055352Y0104579D01*
X0055253Y0104604D01*
X0055160Y0104635D01*
X0055061Y0104684D01*
X0054975Y0104746D01*
X0054968Y0104759D01*
X0054944Y0104783D01*
X0054906Y0104827D01*
X0054869Y0104889D01*
X0054832Y0104963D01*
X0054795Y0105050D01*
X0054770Y0105155D01*
X0054764Y0105272D01*
Y0105279D01*
Y0105303D01*
X0054770Y0105341D01*
X0054776Y0105384D01*
X0054789Y0105439D01*
X0054807Y0105501D01*
X0054832Y0105570D01*
X0054869Y0105638D01*
X0054913Y0105712D01*
X0054968Y0105786D01*
X0055036Y0105854D01*
X0055117Y0105916D01*
X0055210Y0105978D01*
X0055321Y0106027D01*
X0055445Y0106065D01*
X0055594Y0106096D01*
X0056349Y0106201D01*
Y0106207D01*
Y0106226D01*
X0056343Y0106263D01*
Y0106300D01*
X0056330Y0106349D01*
X0056324Y0106405D01*
X0056287Y0106523D01*
X0056256Y0106579D01*
X0056225Y0106634D01*
X0056182Y0106690D01*
X0056132Y0106739D01*
X0056070Y0106783D01*
X0056002Y0106814D01*
X0055922Y0106832D01*
X0055829Y0106838D01*
X0055785D01*
X0055754Y0106832D01*
X0055711D01*
X0055668Y0106820D01*
X0055556Y0106801D01*
X0055433Y0106764D01*
X0055296Y0106708D01*
X0055222Y0106671D01*
X0055154Y0106634D01*
X0055080Y0106585D01*
X0055012Y0106529D01*
Y0106944D01*
X0055018D01*
X0055030Y0106956D01*
X0055049Y0106968D01*
X0055080Y0106981D01*
X0055111Y0106999D01*
X0055154Y0107018D01*
X0055203Y0107036D01*
X0055259Y0107061D01*
X0055383Y0107105D01*
X0055532Y0107142D01*
X0055693Y0107167D01*
X0055866Y0107179D01*
X0055903D01*
X0055946Y0107173D01*
D02*
G37*
G36*
X0050258Y0108120D02*
X0050301D01*
X0050344Y0108114D01*
X0050443Y0108101D01*
X0050561Y0108070D01*
X0050685Y0108033D01*
X0050802Y0107977D01*
X0050908Y0107903D01*
X0050914D01*
X0050920Y0107891D01*
X0050951Y0107866D01*
X0050994Y0107817D01*
X0051044Y0107748D01*
X0051087Y0107662D01*
X0051130Y0107563D01*
X0051161Y0107451D01*
X0051174Y0107389D01*
Y0107321D01*
Y0107315D01*
Y0107309D01*
Y0107272D01*
X0051168Y0107216D01*
X0051155Y0107148D01*
X0051137Y0107061D01*
X0051106Y0106975D01*
X0051069Y0106888D01*
X0051013Y0106801D01*
X0051007Y0106789D01*
X0050982Y0106764D01*
X0050945Y0106727D01*
X0050895Y0106677D01*
X0050833Y0106628D01*
X0050759Y0106572D01*
X0050666Y0106529D01*
X0050567Y0106486D01*
Y0106479D01*
X0050586D01*
X0050604Y0106473D01*
X0050623Y0106467D01*
X0050691Y0106455D01*
X0050771Y0106430D01*
X0050858Y0106393D01*
X0050951Y0106349D01*
X0051044Y0106288D01*
X0051130Y0106207D01*
X0051143Y0106195D01*
X0051168Y0106164D01*
X0051199Y0106120D01*
X0051242Y0106052D01*
X0051279Y0105966D01*
X0051316Y0105867D01*
X0051341Y0105749D01*
X0051347Y0105619D01*
Y0105613D01*
Y0105600D01*
Y0105576D01*
X0051341Y0105545D01*
X0051335Y0105508D01*
X0051329Y0105464D01*
X0051304Y0105359D01*
X0051267Y0105241D01*
X0051211Y0105118D01*
X0051174Y0105062D01*
X0051130Y0105000D01*
X0051075Y0104944D01*
X0051019Y0104889D01*
X0051013D01*
X0051007Y0104876D01*
X0050988Y0104864D01*
X0050963Y0104845D01*
X0050932Y0104827D01*
X0050889Y0104802D01*
X0050796Y0104752D01*
X0050679Y0104697D01*
X0050542Y0104653D01*
X0050381Y0104622D01*
X0050301Y0104616D01*
X0050208Y0104610D01*
X0049181D01*
Y0108126D01*
X0050227D01*
X0050258Y0108120D01*
D02*
G37*
G36*
X0070753Y0107123D02*
X0071390D01*
Y0106776D01*
X0070753D01*
Y0105359D01*
Y0105347D01*
Y0105316D01*
X0070759Y0105272D01*
X0070765Y0105217D01*
X0070790Y0105099D01*
X0070809Y0105043D01*
X0070840Y0105000D01*
X0070846Y0104994D01*
X0070858Y0104981D01*
X0070877Y0104969D01*
X0070908Y0104950D01*
X0070945Y0104926D01*
X0070994Y0104913D01*
X0071056Y0104901D01*
X0071124Y0104895D01*
X0071149D01*
X0071180Y0104901D01*
X0071217Y0104907D01*
X0071304Y0104932D01*
X0071347Y0104950D01*
X0071390Y0104975D01*
Y0104629D01*
X0071384D01*
X0071366Y0104616D01*
X0071335Y0104610D01*
X0071291Y0104598D01*
X0071236Y0104585D01*
X0071174Y0104573D01*
X0071100Y0104567D01*
X0071013Y0104560D01*
X0070982D01*
X0070951Y0104567D01*
X0070908Y0104573D01*
X0070858Y0104585D01*
X0070802Y0104598D01*
X0070747Y0104622D01*
X0070685Y0104653D01*
X0070623Y0104691D01*
X0070561Y0104740D01*
X0070505Y0104796D01*
X0070456Y0104870D01*
X0070412Y0104950D01*
X0070381Y0105050D01*
X0070357Y0105161D01*
X0070350Y0105291D01*
Y0106776D01*
X0069923D01*
Y0107123D01*
X0070350D01*
Y0107736D01*
X0070753Y0107866D01*
Y0107123D01*
D02*
G37*
G36*
X0078280Y0107173D02*
X0078323Y0107167D01*
X0078367Y0107160D01*
X0078478Y0107142D01*
X0078602Y0107098D01*
X0078725Y0107043D01*
X0078787Y0107006D01*
X0078849Y0106962D01*
X0078905Y0106913D01*
X0078961Y0106857D01*
X0078967Y0106851D01*
X0078973Y0106845D01*
X0078986Y0106826D01*
X0079004Y0106801D01*
X0079023Y0106764D01*
X0079047Y0106727D01*
X0079072Y0106684D01*
X0079097Y0106628D01*
X0079122Y0106566D01*
X0079146Y0106504D01*
X0079171Y0106430D01*
X0079190Y0106349D01*
X0079208Y0106263D01*
X0079221Y0106176D01*
X0079233Y0106077D01*
Y0105972D01*
Y0105761D01*
X0077457D01*
Y0105755D01*
Y0105743D01*
Y0105724D01*
X0077463Y0105693D01*
X0077469Y0105656D01*
Y0105619D01*
X0077487Y0105520D01*
X0077518Y0105421D01*
X0077556Y0105309D01*
X0077611Y0105204D01*
X0077679Y0105111D01*
X0077692Y0105099D01*
X0077717Y0105074D01*
X0077766Y0105043D01*
X0077834Y0105000D01*
X0077921Y0104957D01*
X0078020Y0104926D01*
X0078137Y0104901D01*
X0078274Y0104889D01*
X0078317D01*
X0078348Y0104895D01*
X0078385D01*
X0078428Y0104901D01*
X0078534Y0104926D01*
X0078651Y0104957D01*
X0078781Y0105006D01*
X0078917Y0105074D01*
X0078986Y0105118D01*
X0079054Y0105167D01*
Y0104790D01*
X0079047D01*
X0079041Y0104777D01*
X0079023Y0104771D01*
X0078992Y0104752D01*
X0078961Y0104734D01*
X0078924Y0104715D01*
X0078874Y0104697D01*
X0078825Y0104672D01*
X0078763Y0104647D01*
X0078695Y0104629D01*
X0078546Y0104592D01*
X0078373Y0104567D01*
X0078181Y0104554D01*
X0078131D01*
X0078094Y0104560D01*
X0078051Y0104567D01*
X0077995Y0104573D01*
X0077877Y0104598D01*
X0077741Y0104635D01*
X0077605Y0104697D01*
X0077537Y0104740D01*
X0077469Y0104783D01*
X0077407Y0104833D01*
X0077345Y0104895D01*
X0077339Y0104901D01*
X0077333Y0104913D01*
X0077320Y0104932D01*
X0077296Y0104957D01*
X0077277Y0104994D01*
X0077252Y0105037D01*
X0077221Y0105087D01*
X0077197Y0105142D01*
X0077166Y0105204D01*
X0077141Y0105279D01*
X0077110Y0105359D01*
X0077091Y0105446D01*
X0077073Y0105538D01*
X0077054Y0105638D01*
X0077048Y0105743D01*
X0077042Y0105854D01*
Y0105860D01*
Y0105879D01*
Y0105910D01*
X0077048Y0105953D01*
X0077054Y0106003D01*
X0077060Y0106059D01*
X0077067Y0106127D01*
X0077085Y0106195D01*
X0077122Y0106343D01*
X0077178Y0106504D01*
X0077215Y0106585D01*
X0077265Y0106659D01*
X0077314Y0106739D01*
X0077370Y0106807D01*
X0077376Y0106814D01*
X0077389Y0106826D01*
X0077407Y0106845D01*
X0077432Y0106863D01*
X0077463Y0106894D01*
X0077500Y0106925D01*
X0077549Y0106956D01*
X0077599Y0106993D01*
X0077717Y0107061D01*
X0077859Y0107123D01*
X0077939Y0107142D01*
X0078020Y0107160D01*
X0078106Y0107173D01*
X0078199Y0107179D01*
X0078249D01*
X0078280Y0107173D01*
D02*
G37*
G36*
X0065237Y0108182D02*
X0065299Y0108176D01*
X0065374Y0108163D01*
X0065454Y0108144D01*
X0065541Y0108126D01*
X0065627Y0108101D01*
X0065727Y0108070D01*
X0065819Y0108027D01*
X0065918Y0107977D01*
X0066018Y0107922D01*
X0066110Y0107854D01*
X0066203Y0107779D01*
X0066290Y0107693D01*
X0066296Y0107686D01*
X0066308Y0107668D01*
X0066333Y0107643D01*
X0066358Y0107606D01*
X0066395Y0107556D01*
X0066432Y0107495D01*
X0066469Y0107427D01*
X0066513Y0107352D01*
X0066556Y0107259D01*
X0066593Y0107167D01*
X0066630Y0107061D01*
X0066667Y0106944D01*
X0066692Y0106826D01*
X0066717Y0106696D01*
X0066729Y0106554D01*
X0066736Y0106411D01*
Y0106399D01*
Y0106374D01*
Y0106331D01*
X0066729Y0106269D01*
X0066723Y0106195D01*
X0066711Y0106114D01*
X0066698Y0106021D01*
X0066680Y0105916D01*
X0066655Y0105811D01*
X0066624Y0105700D01*
X0066587Y0105588D01*
X0066544Y0105477D01*
X0066488Y0105359D01*
X0066426Y0105254D01*
X0066358Y0105149D01*
X0066277Y0105050D01*
X0066271Y0105043D01*
X0066259Y0105031D01*
X0066228Y0105006D01*
X0066197Y0104975D01*
X0066148Y0104932D01*
X0066092Y0104895D01*
X0066030Y0104845D01*
X0065956Y0104802D01*
X0065875Y0104759D01*
X0065782Y0104709D01*
X0065683Y0104672D01*
X0065572Y0104635D01*
X0065454Y0104598D01*
X0065330Y0104573D01*
X0065200Y0104560D01*
X0065058Y0104554D01*
X0065027D01*
X0064984Y0104560D01*
X0064934D01*
X0064872Y0104567D01*
X0064798Y0104579D01*
X0064718Y0104598D01*
X0064625Y0104616D01*
X0064532Y0104641D01*
X0064433Y0104672D01*
X0064334Y0104715D01*
X0064235Y0104759D01*
X0064136Y0104814D01*
X0064037Y0104882D01*
X0063944Y0104957D01*
X0063857Y0105043D01*
X0063851Y0105050D01*
X0063839Y0105068D01*
X0063814Y0105093D01*
X0063789Y0105130D01*
X0063752Y0105180D01*
X0063715Y0105241D01*
X0063678Y0105309D01*
X0063634Y0105390D01*
X0063591Y0105477D01*
X0063554Y0105570D01*
X0063517Y0105675D01*
X0063480Y0105792D01*
X0063455Y0105910D01*
X0063430Y0106040D01*
X0063418Y0106182D01*
X0063411Y0106325D01*
Y0106337D01*
Y0106362D01*
X0063418Y0106405D01*
Y0106467D01*
X0063424Y0106535D01*
X0063436Y0106622D01*
X0063449Y0106715D01*
X0063467Y0106814D01*
X0063492Y0106919D01*
X0063523Y0107030D01*
X0063560Y0107142D01*
X0063603Y0107253D01*
X0063659Y0107365D01*
X0063721Y0107476D01*
X0063789Y0107581D01*
X0063870Y0107680D01*
X0063876Y0107686D01*
X0063888Y0107705D01*
X0063919Y0107730D01*
X0063956Y0107761D01*
X0063999Y0107798D01*
X0064055Y0107841D01*
X0064123Y0107885D01*
X0064198Y0107934D01*
X0064284Y0107984D01*
X0064377Y0108027D01*
X0064476Y0108070D01*
X0064588Y0108107D01*
X0064711Y0108138D01*
X0064841Y0108169D01*
X0064978Y0108182D01*
X0065120Y0108188D01*
X0065188D01*
X0065237Y0108182D01*
D02*
G37*
G36*
X0053210Y0107173D02*
X0053254Y0107167D01*
X0053309Y0107160D01*
X0053433Y0107136D01*
X0053576Y0107092D01*
X0053718Y0107030D01*
X0053792Y0106993D01*
X0053860Y0106950D01*
X0053928Y0106894D01*
X0053990Y0106832D01*
X0053996Y0106826D01*
X0054003Y0106814D01*
X0054021Y0106795D01*
X0054040Y0106770D01*
X0054065Y0106733D01*
X0054089Y0106690D01*
X0054120Y0106640D01*
X0054151Y0106585D01*
X0054176Y0106517D01*
X0054207Y0106448D01*
X0054232Y0106368D01*
X0054256Y0106281D01*
X0054275Y0106188D01*
X0054294Y0106089D01*
X0054300Y0105984D01*
X0054306Y0105873D01*
Y0105867D01*
Y0105848D01*
Y0105817D01*
X0054300Y0105774D01*
X0054294Y0105724D01*
X0054287Y0105662D01*
X0054275Y0105600D01*
X0054263Y0105526D01*
X0054225Y0105378D01*
X0054164Y0105217D01*
X0054127Y0105136D01*
X0054077Y0105056D01*
X0054027Y0104981D01*
X0053966Y0104913D01*
X0053959Y0104907D01*
X0053947Y0104901D01*
X0053928Y0104882D01*
X0053904Y0104858D01*
X0053866Y0104833D01*
X0053829Y0104802D01*
X0053780Y0104765D01*
X0053724Y0104734D01*
X0053662Y0104703D01*
X0053594Y0104666D01*
X0053520Y0104635D01*
X0053439Y0104610D01*
X0053353Y0104585D01*
X0053260Y0104573D01*
X0053161Y0104560D01*
X0053056Y0104554D01*
X0053000D01*
X0052963Y0104560D01*
X0052919Y0104567D01*
X0052864Y0104573D01*
X0052802Y0104585D01*
X0052734Y0104598D01*
X0052591Y0104641D01*
X0052443Y0104703D01*
X0052368Y0104740D01*
X0052300Y0104790D01*
X0052232Y0104839D01*
X0052164Y0104901D01*
X0052158Y0104907D01*
X0052152Y0104920D01*
X0052133Y0104938D01*
X0052115Y0104963D01*
X0052090Y0105000D01*
X0052059Y0105043D01*
X0052028Y0105093D01*
X0052003Y0105149D01*
X0051972Y0105217D01*
X0051941Y0105285D01*
X0051911Y0105359D01*
X0051886Y0105446D01*
X0051849Y0105631D01*
X0051842Y0105730D01*
X0051836Y0105836D01*
Y0105842D01*
Y0105867D01*
Y0105898D01*
X0051842Y0105941D01*
X0051849Y0105990D01*
X0051855Y0106052D01*
X0051867Y0106120D01*
X0051880Y0106195D01*
X0051917Y0106356D01*
X0051978Y0106517D01*
X0052022Y0106597D01*
X0052065Y0106677D01*
X0052115Y0106752D01*
X0052177Y0106820D01*
X0052183Y0106826D01*
X0052195Y0106838D01*
X0052214Y0106851D01*
X0052239Y0106876D01*
X0052276Y0106900D01*
X0052319Y0106931D01*
X0052368Y0106968D01*
X0052424Y0106999D01*
X0052486Y0107030D01*
X0052560Y0107068D01*
X0052635Y0107098D01*
X0052721Y0107123D01*
X0052808Y0107148D01*
X0052907Y0107167D01*
X0053012Y0107173D01*
X0053118Y0107179D01*
X0053173D01*
X0053210Y0107173D01*
D02*
G37*
G36*
X0090821Y0063348D02*
X0090846D01*
X0090901Y0063323D01*
X0090932Y0063305D01*
X0090963Y0063280D01*
X0090969Y0063274D01*
X0090975Y0063268D01*
X0091006Y0063230D01*
X0091031Y0063169D01*
X0091037Y0063131D01*
X0091044Y0063094D01*
Y0063088D01*
Y0063076D01*
X0091037Y0063057D01*
X0091031Y0063032D01*
X0091013Y0062970D01*
X0090988Y0062940D01*
X0090963Y0062909D01*
X0090957D01*
X0090951Y0062896D01*
X0090914Y0062871D01*
X0090858Y0062847D01*
X0090821Y0062840D01*
X0090784Y0062834D01*
X0090765D01*
X0090746Y0062840D01*
X0090722D01*
X0090660Y0062865D01*
X0090629Y0062878D01*
X0090598Y0062902D01*
Y0062909D01*
X0090586Y0062915D01*
X0090573Y0062933D01*
X0090561Y0062952D01*
X0090536Y0063014D01*
X0090530Y0063051D01*
X0090524Y0063094D01*
Y0063100D01*
Y0063113D01*
X0090530Y0063131D01*
X0090536Y0063162D01*
X0090555Y0063218D01*
X0090573Y0063249D01*
X0090598Y0063280D01*
X0090604Y0063286D01*
X0090610Y0063292D01*
X0090648Y0063317D01*
X0090709Y0063342D01*
X0090746Y0063354D01*
X0090802D01*
X0090821Y0063348D01*
D02*
G37*
G36*
X0068252Y0063255D02*
X0068302D01*
X0068413Y0063243D01*
X0068537Y0063230D01*
X0068661Y0063206D01*
X0068778Y0063175D01*
X0068828Y0063156D01*
X0068877Y0063131D01*
Y0062667D01*
X0068871D01*
X0068865Y0062679D01*
X0068846Y0062686D01*
X0068822Y0062704D01*
X0068791Y0062717D01*
X0068753Y0062735D01*
X0068661Y0062779D01*
X0068549Y0062816D01*
X0068413Y0062853D01*
X0068252Y0062878D01*
X0068079Y0062884D01*
X0068029D01*
X0067992Y0062878D01*
X0067955D01*
X0067905Y0062871D01*
X0067806Y0062853D01*
X0067800D01*
X0067782Y0062847D01*
X0067757Y0062840D01*
X0067726Y0062834D01*
X0067652Y0062803D01*
X0067565Y0062766D01*
X0067559D01*
X0067546Y0062754D01*
X0067528Y0062741D01*
X0067503Y0062723D01*
X0067447Y0062667D01*
X0067392Y0062599D01*
Y0062593D01*
X0067379Y0062581D01*
X0067373Y0062562D01*
X0067361Y0062531D01*
X0067348Y0062494D01*
X0067342Y0062457D01*
X0067330Y0062358D01*
Y0062351D01*
Y0062333D01*
Y0062308D01*
X0067336Y0062277D01*
X0067348Y0062203D01*
X0067379Y0062122D01*
Y0062116D01*
X0067392Y0062104D01*
X0067398Y0062085D01*
X0067416Y0062060D01*
X0067466Y0062005D01*
X0067528Y0061943D01*
X0067534Y0061937D01*
X0067546Y0061931D01*
X0067565Y0061912D01*
X0067596Y0061893D01*
X0067633Y0061869D01*
X0067670Y0061844D01*
X0067769Y0061782D01*
X0067775Y0061776D01*
X0067794Y0061770D01*
X0067825Y0061751D01*
X0067862Y0061732D01*
X0067912Y0061708D01*
X0067967Y0061683D01*
X0068091Y0061621D01*
X0068097Y0061615D01*
X0068122Y0061602D01*
X0068159Y0061584D01*
X0068209Y0061559D01*
X0068264Y0061534D01*
X0068326Y0061497D01*
X0068450Y0061423D01*
X0068456Y0061417D01*
X0068481Y0061404D01*
X0068512Y0061386D01*
X0068555Y0061355D01*
X0068648Y0061281D01*
X0068747Y0061194D01*
X0068753Y0061188D01*
X0068772Y0061175D01*
X0068791Y0061144D01*
X0068822Y0061113D01*
X0068853Y0061070D01*
X0068890Y0061027D01*
X0068951Y0060915D01*
X0068958Y0060909D01*
X0068964Y0060891D01*
X0068976Y0060860D01*
X0068989Y0060816D01*
X0069001Y0060767D01*
X0069013Y0060705D01*
X0069026Y0060643D01*
Y0060569D01*
Y0060556D01*
Y0060525D01*
X0069020Y0060476D01*
X0069013Y0060414D01*
X0069001Y0060346D01*
X0068982Y0060272D01*
X0068958Y0060197D01*
X0068921Y0060129D01*
X0068914Y0060123D01*
X0068902Y0060098D01*
X0068877Y0060067D01*
X0068853Y0060024D01*
X0068809Y0059981D01*
X0068766Y0059931D01*
X0068710Y0059882D01*
X0068648Y0059832D01*
X0068642Y0059826D01*
X0068617Y0059813D01*
X0068580Y0059795D01*
X0068531Y0059770D01*
X0068475Y0059745D01*
X0068407Y0059721D01*
X0068326Y0059696D01*
X0068246Y0059677D01*
X0068234D01*
X0068209Y0059671D01*
X0068165Y0059665D01*
X0068103Y0059653D01*
X0068035Y0059646D01*
X0067955Y0059634D01*
X0067868Y0059628D01*
X0067720D01*
X0067652Y0059634D01*
X0067565Y0059640D01*
X0067546D01*
X0067522Y0059646D01*
X0067491Y0059653D01*
X0067410Y0059659D01*
X0067317Y0059677D01*
X0067311D01*
X0067293Y0059684D01*
X0067268Y0059690D01*
X0067237Y0059696D01*
X0067163Y0059715D01*
X0067076Y0059739D01*
X0067070D01*
X0067057Y0059745D01*
X0067039Y0059752D01*
X0067014Y0059764D01*
X0066952Y0059789D01*
X0066890Y0059826D01*
Y0060309D01*
X0066896Y0060303D01*
X0066909Y0060296D01*
X0066921Y0060284D01*
X0066946Y0060265D01*
X0067014Y0060222D01*
X0067094Y0060173D01*
X0067101D01*
X0067113Y0060166D01*
X0067138Y0060154D01*
X0067169Y0060142D01*
X0067249Y0060105D01*
X0067336Y0060074D01*
X0067342D01*
X0067361Y0060067D01*
X0067386Y0060061D01*
X0067416Y0060055D01*
X0067503Y0060030D01*
X0067596Y0060012D01*
X0067621D01*
X0067645Y0060005D01*
X0067676D01*
X0067751Y0059999D01*
X0067837Y0059993D01*
X0067899D01*
X0067967Y0059999D01*
X0068054Y0060012D01*
X0068147Y0060024D01*
X0068240Y0060049D01*
X0068326Y0060086D01*
X0068407Y0060129D01*
X0068413Y0060135D01*
X0068438Y0060154D01*
X0068469Y0060191D01*
X0068500Y0060234D01*
X0068537Y0060290D01*
X0068562Y0060364D01*
X0068586Y0060445D01*
X0068593Y0060538D01*
Y0060544D01*
Y0060562D01*
Y0060587D01*
X0068586Y0060624D01*
X0068568Y0060705D01*
X0068531Y0060785D01*
Y0060791D01*
X0068518Y0060804D01*
X0068506Y0060822D01*
X0068487Y0060847D01*
X0068432Y0060909D01*
X0068357Y0060977D01*
X0068351Y0060983D01*
X0068339Y0060996D01*
X0068314Y0061008D01*
X0068283Y0061033D01*
X0068246Y0061058D01*
X0068203Y0061089D01*
X0068097Y0061144D01*
X0068091Y0061151D01*
X0068073Y0061157D01*
X0068042Y0061175D01*
X0067998Y0061194D01*
X0067955Y0061225D01*
X0067899Y0061250D01*
X0067769Y0061318D01*
X0067763Y0061324D01*
X0067738Y0061336D01*
X0067701Y0061355D01*
X0067658Y0061373D01*
X0067608Y0061404D01*
X0067553Y0061435D01*
X0067429Y0061503D01*
X0067423Y0061510D01*
X0067404Y0061522D01*
X0067373Y0061541D01*
X0067336Y0061565D01*
X0067243Y0061633D01*
X0067150Y0061714D01*
X0067144Y0061720D01*
X0067132Y0061732D01*
X0067107Y0061757D01*
X0067082Y0061788D01*
X0067051Y0061831D01*
X0067020Y0061875D01*
X0066965Y0061974D01*
Y0061980D01*
X0066952Y0061999D01*
X0066946Y0062029D01*
X0066934Y0062073D01*
X0066921Y0062122D01*
X0066909Y0062184D01*
X0066903Y0062246D01*
X0066896Y0062321D01*
Y0062333D01*
Y0062364D01*
X0066903Y0062407D01*
X0066909Y0062463D01*
X0066921Y0062531D01*
X0066940Y0062599D01*
X0066965Y0062667D01*
X0067002Y0062735D01*
X0067008Y0062741D01*
X0067020Y0062766D01*
X0067045Y0062797D01*
X0067076Y0062840D01*
X0067113Y0062884D01*
X0067163Y0062933D01*
X0067218Y0062983D01*
X0067280Y0063026D01*
X0067286Y0063032D01*
X0067311Y0063045D01*
X0067348Y0063069D01*
X0067392Y0063094D01*
X0067453Y0063119D01*
X0067515Y0063150D01*
X0067590Y0063175D01*
X0067670Y0063200D01*
X0067683D01*
X0067707Y0063212D01*
X0067751Y0063218D01*
X0067813Y0063230D01*
X0067881Y0063243D01*
X0067955Y0063249D01*
X0068122Y0063261D01*
X0068209D01*
X0068252Y0063255D01*
D02*
G37*
G36*
X0075983Y0059684D02*
X0075581D01*
Y0060105D01*
X0075569D01*
Y0060098D01*
X0075556Y0060086D01*
X0075538Y0060061D01*
X0075519Y0060030D01*
X0075488Y0059993D01*
X0075451Y0059956D01*
X0075408Y0059913D01*
X0075358Y0059869D01*
X0075302Y0059820D01*
X0075234Y0059776D01*
X0075166Y0059739D01*
X0075086Y0059702D01*
X0075005Y0059671D01*
X0074913Y0059646D01*
X0074813Y0059634D01*
X0074708Y0059628D01*
X0074665D01*
X0074628Y0059634D01*
X0074591Y0059640D01*
X0074541Y0059646D01*
X0074436Y0059671D01*
X0074312Y0059708D01*
X0074188Y0059770D01*
X0074120Y0059807D01*
X0074064Y0059851D01*
X0074003Y0059906D01*
X0073947Y0059962D01*
Y0059968D01*
X0073935Y0059981D01*
X0073922Y0059999D01*
X0073904Y0060024D01*
X0073885Y0060055D01*
X0073860Y0060098D01*
X0073835Y0060148D01*
X0073811Y0060203D01*
X0073780Y0060265D01*
X0073755Y0060334D01*
X0073730Y0060408D01*
X0073712Y0060488D01*
X0073693Y0060575D01*
X0073681Y0060674D01*
X0073674Y0060773D01*
X0073668Y0060878D01*
Y0060884D01*
Y0060903D01*
Y0060940D01*
X0073674Y0060983D01*
X0073681Y0061033D01*
X0073687Y0061095D01*
X0073693Y0061163D01*
X0073705Y0061237D01*
X0073743Y0061398D01*
X0073798Y0061565D01*
X0073835Y0061646D01*
X0073879Y0061726D01*
X0073922Y0061800D01*
X0073978Y0061875D01*
X0073984Y0061881D01*
X0073990Y0061893D01*
X0074009Y0061912D01*
X0074033Y0061937D01*
X0074064Y0061962D01*
X0074108Y0061992D01*
X0074151Y0062029D01*
X0074201Y0062067D01*
X0074325Y0062135D01*
X0074467Y0062197D01*
X0074547Y0062215D01*
X0074634Y0062234D01*
X0074721Y0062246D01*
X0074820Y0062252D01*
X0074869D01*
X0074906Y0062246D01*
X0074943Y0062240D01*
X0074993Y0062234D01*
X0075104Y0062203D01*
X0075228Y0062153D01*
X0075290Y0062122D01*
X0075352Y0062079D01*
X0075414Y0062036D01*
X0075470Y0061980D01*
X0075519Y0061918D01*
X0075569Y0061844D01*
X0075581D01*
Y0063404D01*
X0075983D01*
Y0059684D01*
D02*
G37*
G36*
X0092727Y0062246D02*
X0092808Y0062240D01*
X0092894Y0062228D01*
X0092993Y0062203D01*
X0093093Y0062178D01*
X0093192Y0062141D01*
Y0061732D01*
X0093179Y0061739D01*
X0093142Y0061763D01*
X0093086Y0061788D01*
X0093012Y0061825D01*
X0092919Y0061856D01*
X0092808Y0061887D01*
X0092684Y0061906D01*
X0092554Y0061912D01*
X0092486D01*
X0092424Y0061900D01*
X0092350Y0061887D01*
X0092343D01*
X0092337Y0061881D01*
X0092300Y0061869D01*
X0092251Y0061844D01*
X0092195Y0061813D01*
X0092183Y0061807D01*
X0092158Y0061782D01*
X0092127Y0061745D01*
X0092096Y0061702D01*
X0092090Y0061689D01*
X0092077Y0061658D01*
X0092065Y0061615D01*
X0092059Y0061559D01*
Y0061553D01*
Y0061541D01*
Y0061522D01*
X0092065Y0061503D01*
X0092077Y0061448D01*
X0092096Y0061392D01*
X0092102Y0061380D01*
X0092121Y0061355D01*
X0092158Y0061318D01*
X0092201Y0061274D01*
X0092207D01*
X0092213Y0061268D01*
X0092251Y0061243D01*
X0092300Y0061212D01*
X0092368Y0061181D01*
X0092374D01*
X0092387Y0061175D01*
X0092405Y0061169D01*
X0092436Y0061157D01*
X0092505Y0061132D01*
X0092591Y0061095D01*
X0092597D01*
X0092622Y0061083D01*
X0092653Y0061070D01*
X0092690Y0061058D01*
X0092789Y0061014D01*
X0092888Y0060965D01*
X0092894D01*
X0092913Y0060953D01*
X0092938Y0060940D01*
X0092969Y0060922D01*
X0093043Y0060872D01*
X0093117Y0060810D01*
X0093124Y0060804D01*
X0093136Y0060798D01*
X0093148Y0060779D01*
X0093173Y0060754D01*
X0093216Y0060693D01*
X0093260Y0060612D01*
Y0060606D01*
X0093266Y0060593D01*
X0093278Y0060569D01*
X0093284Y0060538D01*
X0093297Y0060501D01*
X0093303Y0060457D01*
X0093309Y0060352D01*
Y0060346D01*
Y0060321D01*
X0093303Y0060284D01*
X0093297Y0060241D01*
X0093291Y0060191D01*
X0093272Y0060135D01*
X0093253Y0060086D01*
X0093222Y0060030D01*
X0093216Y0060024D01*
X0093210Y0060005D01*
X0093192Y0059981D01*
X0093167Y0059950D01*
X0093136Y0059913D01*
X0093099Y0059875D01*
X0093006Y0059801D01*
X0093000Y0059795D01*
X0092981Y0059789D01*
X0092956Y0059770D01*
X0092913Y0059752D01*
X0092870Y0059727D01*
X0092814Y0059708D01*
X0092758Y0059690D01*
X0092690Y0059671D01*
X0092684D01*
X0092659Y0059665D01*
X0092622Y0059659D01*
X0092579Y0059653D01*
X0092517Y0059640D01*
X0092455Y0059634D01*
X0092313Y0059628D01*
X0092251D01*
X0092176Y0059634D01*
X0092084Y0059646D01*
X0091978Y0059665D01*
X0091867Y0059690D01*
X0091755Y0059721D01*
X0091644Y0059770D01*
Y0060203D01*
X0091650D01*
X0091656Y0060191D01*
X0091675Y0060179D01*
X0091700Y0060166D01*
X0091768Y0060129D01*
X0091861Y0060086D01*
X0091966Y0060036D01*
X0092090Y0059999D01*
X0092226Y0059974D01*
X0092368Y0059962D01*
X0092418D01*
X0092449Y0059968D01*
X0092535Y0059981D01*
X0092634Y0060005D01*
X0092727Y0060049D01*
X0092771Y0060080D01*
X0092814Y0060111D01*
X0092845Y0060154D01*
X0092870Y0060197D01*
X0092888Y0060253D01*
X0092894Y0060315D01*
Y0060321D01*
Y0060334D01*
Y0060352D01*
X0092888Y0060371D01*
X0092876Y0060426D01*
X0092851Y0060482D01*
Y0060488D01*
X0092845Y0060494D01*
X0092820Y0060525D01*
X0092783Y0060569D01*
X0092727Y0060606D01*
X0092721D01*
X0092715Y0060618D01*
X0092678Y0060637D01*
X0092622Y0060674D01*
X0092548Y0060705D01*
X0092542D01*
X0092529Y0060711D01*
X0092511Y0060724D01*
X0092480Y0060736D01*
X0092412Y0060761D01*
X0092325Y0060798D01*
X0092319D01*
X0092294Y0060810D01*
X0092263Y0060822D01*
X0092226Y0060835D01*
X0092127Y0060878D01*
X0092028Y0060928D01*
X0092022Y0060934D01*
X0092009Y0060940D01*
X0091984Y0060953D01*
X0091954Y0060971D01*
X0091886Y0061021D01*
X0091817Y0061076D01*
X0091811Y0061083D01*
X0091805Y0061089D01*
X0091786Y0061107D01*
X0091768Y0061132D01*
X0091724Y0061194D01*
X0091687Y0061268D01*
Y0061274D01*
X0091681Y0061287D01*
X0091675Y0061312D01*
X0091669Y0061343D01*
X0091663Y0061380D01*
X0091656Y0061423D01*
X0091650Y0061528D01*
Y0061534D01*
Y0061559D01*
X0091656Y0061590D01*
X0091663Y0061633D01*
X0091669Y0061683D01*
X0091687Y0061732D01*
X0091706Y0061788D01*
X0091731Y0061838D01*
X0091737Y0061844D01*
X0091743Y0061862D01*
X0091762Y0061887D01*
X0091786Y0061918D01*
X0091855Y0061992D01*
X0091941Y0062067D01*
X0091947Y0062073D01*
X0091966Y0062079D01*
X0091991Y0062098D01*
X0092034Y0062116D01*
X0092077Y0062141D01*
X0092127Y0062166D01*
X0092251Y0062203D01*
X0092257D01*
X0092282Y0062209D01*
X0092313Y0062221D01*
X0092362Y0062228D01*
X0092412Y0062240D01*
X0092474Y0062246D01*
X0092610Y0062252D01*
X0092665D01*
X0092727Y0062246D01*
D02*
G37*
G36*
X0089372D02*
X0089453Y0062240D01*
X0089539Y0062228D01*
X0089639Y0062203D01*
X0089737Y0062178D01*
X0089837Y0062141D01*
Y0061732D01*
X0089824Y0061739D01*
X0089787Y0061763D01*
X0089731Y0061788D01*
X0089657Y0061825D01*
X0089564Y0061856D01*
X0089453Y0061887D01*
X0089329Y0061906D01*
X0089199Y0061912D01*
X0089131D01*
X0089069Y0061900D01*
X0088995Y0061887D01*
X0088989D01*
X0088982Y0061881D01*
X0088945Y0061869D01*
X0088896Y0061844D01*
X0088840Y0061813D01*
X0088828Y0061807D01*
X0088803Y0061782D01*
X0088772Y0061745D01*
X0088741Y0061702D01*
X0088735Y0061689D01*
X0088722Y0061658D01*
X0088710Y0061615D01*
X0088704Y0061559D01*
Y0061553D01*
Y0061541D01*
Y0061522D01*
X0088710Y0061503D01*
X0088722Y0061448D01*
X0088741Y0061392D01*
X0088747Y0061380D01*
X0088766Y0061355D01*
X0088803Y0061318D01*
X0088846Y0061274D01*
X0088852D01*
X0088859Y0061268D01*
X0088896Y0061243D01*
X0088945Y0061212D01*
X0089013Y0061181D01*
X0089020D01*
X0089032Y0061175D01*
X0089051Y0061169D01*
X0089081Y0061157D01*
X0089149Y0061132D01*
X0089236Y0061095D01*
X0089242D01*
X0089267Y0061083D01*
X0089298Y0061070D01*
X0089335Y0061058D01*
X0089434Y0061014D01*
X0089533Y0060965D01*
X0089539D01*
X0089558Y0060953D01*
X0089583Y0060940D01*
X0089614Y0060922D01*
X0089688Y0060872D01*
X0089762Y0060810D01*
X0089768Y0060804D01*
X0089781Y0060798D01*
X0089793Y0060779D01*
X0089818Y0060754D01*
X0089861Y0060693D01*
X0089905Y0060612D01*
Y0060606D01*
X0089911Y0060593D01*
X0089923Y0060569D01*
X0089929Y0060538D01*
X0089942Y0060501D01*
X0089948Y0060457D01*
X0089954Y0060352D01*
Y0060346D01*
Y0060321D01*
X0089948Y0060284D01*
X0089942Y0060241D01*
X0089936Y0060191D01*
X0089917Y0060135D01*
X0089899Y0060086D01*
X0089868Y0060030D01*
X0089861Y0060024D01*
X0089855Y0060005D01*
X0089837Y0059981D01*
X0089812Y0059950D01*
X0089781Y0059913D01*
X0089744Y0059875D01*
X0089651Y0059801D01*
X0089645Y0059795D01*
X0089626Y0059789D01*
X0089601Y0059770D01*
X0089558Y0059752D01*
X0089515Y0059727D01*
X0089459Y0059708D01*
X0089403Y0059690D01*
X0089335Y0059671D01*
X0089329D01*
X0089304Y0059665D01*
X0089267Y0059659D01*
X0089224Y0059653D01*
X0089162Y0059640D01*
X0089100Y0059634D01*
X0088958Y0059628D01*
X0088896D01*
X0088821Y0059634D01*
X0088729Y0059646D01*
X0088623Y0059665D01*
X0088512Y0059690D01*
X0088401Y0059721D01*
X0088289Y0059770D01*
Y0060203D01*
X0088295D01*
X0088301Y0060191D01*
X0088320Y0060179D01*
X0088345Y0060166D01*
X0088413Y0060129D01*
X0088506Y0060086D01*
X0088611Y0060036D01*
X0088735Y0059999D01*
X0088871Y0059974D01*
X0089013Y0059962D01*
X0089063D01*
X0089094Y0059968D01*
X0089180Y0059981D01*
X0089280Y0060005D01*
X0089372Y0060049D01*
X0089416Y0060080D01*
X0089459Y0060111D01*
X0089490Y0060154D01*
X0089515Y0060197D01*
X0089533Y0060253D01*
X0089539Y0060315D01*
Y0060321D01*
Y0060334D01*
Y0060352D01*
X0089533Y0060371D01*
X0089521Y0060426D01*
X0089496Y0060482D01*
Y0060488D01*
X0089490Y0060494D01*
X0089465Y0060525D01*
X0089428Y0060569D01*
X0089372Y0060606D01*
X0089366D01*
X0089360Y0060618D01*
X0089323Y0060637D01*
X0089267Y0060674D01*
X0089193Y0060705D01*
X0089187D01*
X0089174Y0060711D01*
X0089156Y0060724D01*
X0089125Y0060736D01*
X0089057Y0060761D01*
X0088970Y0060798D01*
X0088964D01*
X0088939Y0060810D01*
X0088908Y0060822D01*
X0088871Y0060835D01*
X0088772Y0060878D01*
X0088673Y0060928D01*
X0088667Y0060934D01*
X0088654Y0060940D01*
X0088630Y0060953D01*
X0088599Y0060971D01*
X0088530Y0061021D01*
X0088462Y0061076D01*
X0088456Y0061083D01*
X0088450Y0061089D01*
X0088432Y0061107D01*
X0088413Y0061132D01*
X0088370Y0061194D01*
X0088332Y0061268D01*
Y0061274D01*
X0088326Y0061287D01*
X0088320Y0061312D01*
X0088314Y0061343D01*
X0088308Y0061380D01*
X0088301Y0061423D01*
X0088295Y0061528D01*
Y0061534D01*
Y0061559D01*
X0088301Y0061590D01*
X0088308Y0061633D01*
X0088314Y0061683D01*
X0088332Y0061732D01*
X0088351Y0061788D01*
X0088376Y0061838D01*
X0088382Y0061844D01*
X0088388Y0061862D01*
X0088407Y0061887D01*
X0088432Y0061918D01*
X0088499Y0061992D01*
X0088586Y0062067D01*
X0088592Y0062073D01*
X0088611Y0062079D01*
X0088636Y0062098D01*
X0088679Y0062116D01*
X0088722Y0062141D01*
X0088772Y0062166D01*
X0088896Y0062203D01*
X0088902D01*
X0088927Y0062209D01*
X0088958Y0062221D01*
X0089007Y0062228D01*
X0089057Y0062240D01*
X0089119Y0062246D01*
X0089255Y0062252D01*
X0089310D01*
X0089372Y0062246D01*
D02*
G37*
G36*
X0064117D02*
X0064173Y0062234D01*
X0064235Y0062221D01*
X0064303Y0062197D01*
X0064383Y0062166D01*
X0064458Y0062122D01*
X0064538Y0062073D01*
X0064612Y0062005D01*
X0064680Y0061918D01*
X0064742Y0061819D01*
X0064798Y0061708D01*
X0064835Y0061565D01*
X0064866Y0061411D01*
X0064872Y0061231D01*
Y0059684D01*
X0064470D01*
Y0061126D01*
Y0061132D01*
Y0061144D01*
Y0061163D01*
Y0061194D01*
X0064464Y0061268D01*
X0064451Y0061355D01*
X0064439Y0061454D01*
X0064414Y0061553D01*
X0064383Y0061646D01*
X0064340Y0061726D01*
X0064334Y0061732D01*
X0064315Y0061757D01*
X0064284Y0061788D01*
X0064235Y0061819D01*
X0064179Y0061856D01*
X0064105Y0061881D01*
X0064012Y0061906D01*
X0063907Y0061912D01*
X0063894D01*
X0063863Y0061906D01*
X0063814Y0061900D01*
X0063752Y0061881D01*
X0063684Y0061856D01*
X0063610Y0061813D01*
X0063535Y0061757D01*
X0063467Y0061677D01*
X0063461Y0061664D01*
X0063442Y0061633D01*
X0063411Y0061584D01*
X0063380Y0061516D01*
X0063343Y0061435D01*
X0063319Y0061343D01*
X0063294Y0061231D01*
X0063288Y0061113D01*
Y0059684D01*
X0062885D01*
Y0061175D01*
Y0061181D01*
Y0061206D01*
X0062879Y0061243D01*
Y0061293D01*
X0062867Y0061349D01*
X0062854Y0061411D01*
X0062836Y0061472D01*
X0062817Y0061547D01*
X0062786Y0061615D01*
X0062749Y0061677D01*
X0062700Y0061739D01*
X0062644Y0061794D01*
X0062582Y0061844D01*
X0062502Y0061881D01*
X0062415Y0061906D01*
X0062316Y0061912D01*
X0062304D01*
X0062273Y0061906D01*
X0062223Y0061900D01*
X0062161Y0061887D01*
X0062093Y0061856D01*
X0062019Y0061819D01*
X0061944Y0061763D01*
X0061876Y0061689D01*
X0061870Y0061677D01*
X0061852Y0061652D01*
X0061821Y0061602D01*
X0061790Y0061534D01*
X0061759Y0061454D01*
X0061728Y0061355D01*
X0061709Y0061243D01*
X0061703Y0061113D01*
Y0059684D01*
X0061301D01*
Y0062197D01*
X0061703D01*
Y0061794D01*
X0061715D01*
X0061722Y0061800D01*
X0061728Y0061813D01*
X0061746Y0061838D01*
X0061765Y0061869D01*
X0061827Y0061937D01*
X0061914Y0062023D01*
X0062025Y0062110D01*
X0062155Y0062178D01*
X0062235Y0062209D01*
X0062316Y0062234D01*
X0062402Y0062246D01*
X0062495Y0062252D01*
X0062539D01*
X0062588Y0062246D01*
X0062650Y0062234D01*
X0062718Y0062215D01*
X0062792Y0062191D01*
X0062867Y0062160D01*
X0062941Y0062110D01*
X0062947Y0062104D01*
X0062972Y0062085D01*
X0063003Y0062054D01*
X0063046Y0062011D01*
X0063090Y0061955D01*
X0063133Y0061893D01*
X0063176Y0061819D01*
X0063207Y0061732D01*
X0063213Y0061739D01*
X0063220Y0061757D01*
X0063238Y0061782D01*
X0063257Y0061813D01*
X0063288Y0061856D01*
X0063325Y0061900D01*
X0063368Y0061943D01*
X0063418Y0061992D01*
X0063473Y0062042D01*
X0063535Y0062085D01*
X0063603Y0062135D01*
X0063678Y0062172D01*
X0063758Y0062203D01*
X0063845Y0062228D01*
X0063944Y0062246D01*
X0064043Y0062252D01*
X0064080D01*
X0064117Y0062246D01*
D02*
G37*
G36*
X0085225Y0062234D02*
X0085299Y0062228D01*
X0085343Y0062215D01*
X0085374Y0062203D01*
Y0061788D01*
X0085367Y0061794D01*
X0085355Y0061800D01*
X0085330Y0061813D01*
X0085299Y0061831D01*
X0085256Y0061844D01*
X0085200Y0061856D01*
X0085138Y0061862D01*
X0085070Y0061869D01*
X0085058D01*
X0085027Y0061862D01*
X0084977Y0061856D01*
X0084922Y0061838D01*
X0084847Y0061807D01*
X0084779Y0061763D01*
X0084705Y0061702D01*
X0084637Y0061621D01*
X0084631Y0061609D01*
X0084612Y0061578D01*
X0084581Y0061522D01*
X0084550Y0061448D01*
X0084519Y0061355D01*
X0084488Y0061237D01*
X0084470Y0061107D01*
X0084464Y0060959D01*
Y0059684D01*
X0084061D01*
Y0062197D01*
X0084464D01*
Y0061677D01*
X0084476D01*
Y0061683D01*
X0084482Y0061689D01*
X0084495Y0061720D01*
X0084513Y0061770D01*
X0084544Y0061831D01*
X0084575Y0061893D01*
X0084625Y0061962D01*
X0084674Y0062029D01*
X0084736Y0062091D01*
X0084742Y0062098D01*
X0084767Y0062116D01*
X0084804Y0062141D01*
X0084854Y0062166D01*
X0084909Y0062191D01*
X0084977Y0062215D01*
X0085052Y0062234D01*
X0085132Y0062240D01*
X0085188D01*
X0085225Y0062234D01*
D02*
G37*
G36*
X0080589D02*
X0080663Y0062228D01*
X0080706Y0062215D01*
X0080737Y0062203D01*
Y0061788D01*
X0080731Y0061794D01*
X0080719Y0061800D01*
X0080694Y0061813D01*
X0080663Y0061831D01*
X0080620Y0061844D01*
X0080564Y0061856D01*
X0080502Y0061862D01*
X0080434Y0061869D01*
X0080422D01*
X0080391Y0061862D01*
X0080341Y0061856D01*
X0080285Y0061838D01*
X0080211Y0061807D01*
X0080143Y0061763D01*
X0080069Y0061702D01*
X0080001Y0061621D01*
X0079994Y0061609D01*
X0079976Y0061578D01*
X0079945Y0061522D01*
X0079914Y0061448D01*
X0079883Y0061355D01*
X0079852Y0061237D01*
X0079834Y0061107D01*
X0079827Y0060959D01*
Y0059684D01*
X0079425D01*
Y0062197D01*
X0079827D01*
Y0061677D01*
X0079840D01*
Y0061683D01*
X0079846Y0061689D01*
X0079858Y0061720D01*
X0079877Y0061770D01*
X0079908Y0061831D01*
X0079939Y0061893D01*
X0079988Y0061962D01*
X0080038Y0062029D01*
X0080100Y0062091D01*
X0080106Y0062098D01*
X0080131Y0062116D01*
X0080168Y0062141D01*
X0080217Y0062166D01*
X0080273Y0062191D01*
X0080341Y0062215D01*
X0080415Y0062234D01*
X0080496Y0062240D01*
X0080552D01*
X0080589Y0062234D01*
D02*
G37*
G36*
X0090975Y0059684D02*
X0090573D01*
Y0062197D01*
X0090975D01*
Y0059684D01*
D02*
G37*
G36*
X0073018D02*
X0072616D01*
Y0063404D01*
X0073018D01*
Y0059684D01*
D02*
G37*
G36*
X0050258Y0063193D02*
X0050301D01*
X0050344Y0063187D01*
X0050443Y0063175D01*
X0050561Y0063144D01*
X0050685Y0063107D01*
X0050802Y0063051D01*
X0050908Y0062977D01*
X0050914D01*
X0050920Y0062964D01*
X0050951Y0062940D01*
X0050994Y0062890D01*
X0051044Y0062822D01*
X0051087Y0062735D01*
X0051130Y0062636D01*
X0051161Y0062525D01*
X0051174Y0062463D01*
Y0062395D01*
Y0062389D01*
Y0062382D01*
Y0062345D01*
X0051168Y0062290D01*
X0051155Y0062221D01*
X0051137Y0062135D01*
X0051106Y0062048D01*
X0051069Y0061962D01*
X0051013Y0061875D01*
X0051007Y0061862D01*
X0050982Y0061838D01*
X0050945Y0061800D01*
X0050895Y0061751D01*
X0050833Y0061702D01*
X0050759Y0061646D01*
X0050666Y0061602D01*
X0050567Y0061559D01*
Y0061553D01*
X0050586D01*
X0050604Y0061547D01*
X0050623Y0061541D01*
X0050691Y0061528D01*
X0050771Y0061503D01*
X0050858Y0061466D01*
X0050951Y0061423D01*
X0051044Y0061361D01*
X0051130Y0061281D01*
X0051143Y0061268D01*
X0051168Y0061237D01*
X0051199Y0061194D01*
X0051242Y0061126D01*
X0051279Y0061039D01*
X0051316Y0060940D01*
X0051341Y0060822D01*
X0051347Y0060693D01*
Y0060686D01*
Y0060674D01*
Y0060649D01*
X0051341Y0060618D01*
X0051335Y0060581D01*
X0051329Y0060538D01*
X0051304Y0060432D01*
X0051267Y0060315D01*
X0051211Y0060191D01*
X0051174Y0060135D01*
X0051130Y0060074D01*
X0051075Y0060018D01*
X0051019Y0059962D01*
X0051013D01*
X0051007Y0059950D01*
X0050988Y0059937D01*
X0050963Y0059919D01*
X0050932Y0059900D01*
X0050889Y0059875D01*
X0050796Y0059826D01*
X0050679Y0059770D01*
X0050542Y0059727D01*
X0050381Y0059696D01*
X0050301Y0059690D01*
X0050208Y0059684D01*
X0049181D01*
Y0063200D01*
X0050227D01*
X0050258Y0063193D01*
D02*
G37*
G36*
X0094460Y0062197D02*
X0095098D01*
Y0061850D01*
X0094460D01*
Y0060432D01*
Y0060420D01*
Y0060389D01*
X0094467Y0060346D01*
X0094473Y0060290D01*
X0094498Y0060173D01*
X0094516Y0060117D01*
X0094547Y0060074D01*
X0094553Y0060067D01*
X0094566Y0060055D01*
X0094584Y0060043D01*
X0094615Y0060024D01*
X0094652Y0059999D01*
X0094702Y0059987D01*
X0094764Y0059974D01*
X0094832Y0059968D01*
X0094857D01*
X0094888Y0059974D01*
X0094925Y0059981D01*
X0095011Y0060005D01*
X0095055Y0060024D01*
X0095098Y0060049D01*
Y0059702D01*
X0095092D01*
X0095073Y0059690D01*
X0095042Y0059684D01*
X0094999Y0059671D01*
X0094943Y0059659D01*
X0094881Y0059646D01*
X0094807Y0059640D01*
X0094721Y0059634D01*
X0094690D01*
X0094659Y0059640D01*
X0094615Y0059646D01*
X0094566Y0059659D01*
X0094510Y0059671D01*
X0094454Y0059696D01*
X0094392Y0059727D01*
X0094331Y0059764D01*
X0094269Y0059813D01*
X0094213Y0059869D01*
X0094163Y0059943D01*
X0094120Y0060024D01*
X0094089Y0060123D01*
X0094064Y0060234D01*
X0094058Y0060364D01*
Y0061850D01*
X0093631D01*
Y0062197D01*
X0094058D01*
Y0062809D01*
X0094460Y0062940D01*
Y0062197D01*
D02*
G37*
G36*
X0057184D02*
X0057822D01*
Y0061850D01*
X0057184D01*
Y0060432D01*
Y0060420D01*
Y0060389D01*
X0057191Y0060346D01*
X0057197Y0060290D01*
X0057222Y0060173D01*
X0057240Y0060117D01*
X0057271Y0060074D01*
X0057277Y0060067D01*
X0057290Y0060055D01*
X0057308Y0060043D01*
X0057339Y0060024D01*
X0057376Y0059999D01*
X0057426Y0059987D01*
X0057488Y0059974D01*
X0057556Y0059968D01*
X0057581D01*
X0057612Y0059974D01*
X0057649Y0059981D01*
X0057735Y0060005D01*
X0057779Y0060024D01*
X0057822Y0060049D01*
Y0059702D01*
X0057816D01*
X0057797Y0059690D01*
X0057766Y0059684D01*
X0057723Y0059671D01*
X0057667Y0059659D01*
X0057605Y0059646D01*
X0057531Y0059640D01*
X0057444Y0059634D01*
X0057413D01*
X0057382Y0059640D01*
X0057339Y0059646D01*
X0057290Y0059659D01*
X0057234Y0059671D01*
X0057178Y0059696D01*
X0057116Y0059727D01*
X0057054Y0059764D01*
X0056992Y0059813D01*
X0056937Y0059869D01*
X0056887Y0059943D01*
X0056844Y0060024D01*
X0056813Y0060123D01*
X0056788Y0060234D01*
X0056782Y0060364D01*
Y0061850D01*
X0056355D01*
Y0062197D01*
X0056782D01*
Y0062809D01*
X0057184Y0062940D01*
Y0062197D01*
D02*
G37*
G36*
X0055482D02*
X0056120D01*
Y0061850D01*
X0055482D01*
Y0060432D01*
Y0060420D01*
Y0060389D01*
X0055488Y0060346D01*
X0055494Y0060290D01*
X0055519Y0060173D01*
X0055538Y0060117D01*
X0055569Y0060074D01*
X0055575Y0060067D01*
X0055587Y0060055D01*
X0055606Y0060043D01*
X0055637Y0060024D01*
X0055674Y0059999D01*
X0055724Y0059987D01*
X0055785Y0059974D01*
X0055853Y0059968D01*
X0055878D01*
X0055909Y0059974D01*
X0055946Y0059981D01*
X0056033Y0060005D01*
X0056076Y0060024D01*
X0056120Y0060049D01*
Y0059702D01*
X0056113D01*
X0056095Y0059690D01*
X0056064Y0059684D01*
X0056021Y0059671D01*
X0055965Y0059659D01*
X0055903Y0059646D01*
X0055829Y0059640D01*
X0055742Y0059634D01*
X0055711D01*
X0055680Y0059640D01*
X0055637Y0059646D01*
X0055587Y0059659D01*
X0055532Y0059671D01*
X0055476Y0059696D01*
X0055414Y0059727D01*
X0055352Y0059764D01*
X0055290Y0059813D01*
X0055234Y0059869D01*
X0055185Y0059943D01*
X0055142Y0060024D01*
X0055111Y0060123D01*
X0055086Y0060234D01*
X0055080Y0060364D01*
Y0061850D01*
X0054653D01*
Y0062197D01*
X0055080D01*
Y0062809D01*
X0055482Y0062940D01*
Y0062197D01*
D02*
G37*
G36*
X0086878Y0062246D02*
X0086921Y0062240D01*
X0086964Y0062234D01*
X0087076Y0062215D01*
X0087200Y0062172D01*
X0087323Y0062116D01*
X0087385Y0062079D01*
X0087447Y0062036D01*
X0087503Y0061986D01*
X0087559Y0061931D01*
X0087565Y0061924D01*
X0087571Y0061918D01*
X0087583Y0061900D01*
X0087602Y0061875D01*
X0087621Y0061838D01*
X0087645Y0061800D01*
X0087670Y0061757D01*
X0087695Y0061702D01*
X0087720Y0061640D01*
X0087744Y0061578D01*
X0087769Y0061503D01*
X0087788Y0061423D01*
X0087806Y0061336D01*
X0087819Y0061250D01*
X0087831Y0061151D01*
Y0061045D01*
Y0060835D01*
X0086054D01*
Y0060829D01*
Y0060816D01*
Y0060798D01*
X0086061Y0060767D01*
X0086067Y0060730D01*
Y0060693D01*
X0086085Y0060593D01*
X0086116Y0060494D01*
X0086154Y0060383D01*
X0086209Y0060278D01*
X0086277Y0060185D01*
X0086290Y0060173D01*
X0086314Y0060148D01*
X0086364Y0060117D01*
X0086432Y0060074D01*
X0086519Y0060030D01*
X0086618Y0059999D01*
X0086735Y0059974D01*
X0086872Y0059962D01*
X0086915D01*
X0086946Y0059968D01*
X0086983D01*
X0087026Y0059974D01*
X0087132Y0059999D01*
X0087249Y0060030D01*
X0087379Y0060080D01*
X0087515Y0060148D01*
X0087583Y0060191D01*
X0087651Y0060241D01*
Y0059863D01*
X0087645D01*
X0087639Y0059851D01*
X0087621Y0059844D01*
X0087590Y0059826D01*
X0087559Y0059807D01*
X0087521Y0059789D01*
X0087472Y0059770D01*
X0087423Y0059745D01*
X0087361Y0059721D01*
X0087292Y0059702D01*
X0087144Y0059665D01*
X0086971Y0059640D01*
X0086779Y0059628D01*
X0086729D01*
X0086692Y0059634D01*
X0086649Y0059640D01*
X0086593Y0059646D01*
X0086475Y0059671D01*
X0086339Y0059708D01*
X0086203Y0059770D01*
X0086135Y0059813D01*
X0086067Y0059857D01*
X0086005Y0059906D01*
X0085943Y0059968D01*
X0085937Y0059974D01*
X0085931Y0059987D01*
X0085918Y0060005D01*
X0085894Y0060030D01*
X0085875Y0060067D01*
X0085850Y0060111D01*
X0085819Y0060160D01*
X0085795Y0060216D01*
X0085764Y0060278D01*
X0085739Y0060352D01*
X0085708Y0060432D01*
X0085689Y0060519D01*
X0085671Y0060612D01*
X0085652Y0060711D01*
X0085646Y0060816D01*
X0085640Y0060928D01*
Y0060934D01*
Y0060953D01*
Y0060983D01*
X0085646Y0061027D01*
X0085652Y0061076D01*
X0085658Y0061132D01*
X0085664Y0061200D01*
X0085683Y0061268D01*
X0085720Y0061417D01*
X0085776Y0061578D01*
X0085813Y0061658D01*
X0085863Y0061732D01*
X0085912Y0061813D01*
X0085968Y0061881D01*
X0085974Y0061887D01*
X0085986Y0061900D01*
X0086005Y0061918D01*
X0086030Y0061937D01*
X0086061Y0061968D01*
X0086098Y0061999D01*
X0086147Y0062029D01*
X0086197Y0062067D01*
X0086314Y0062135D01*
X0086457Y0062197D01*
X0086537Y0062215D01*
X0086618Y0062234D01*
X0086704Y0062246D01*
X0086797Y0062252D01*
X0086847D01*
X0086878Y0062246D01*
D02*
G37*
G36*
X0077865D02*
X0077908Y0062240D01*
X0077952Y0062234D01*
X0078063Y0062215D01*
X0078187Y0062172D01*
X0078311Y0062116D01*
X0078373Y0062079D01*
X0078435Y0062036D01*
X0078490Y0061986D01*
X0078546Y0061931D01*
X0078552Y0061924D01*
X0078558Y0061918D01*
X0078571Y0061900D01*
X0078589Y0061875D01*
X0078608Y0061838D01*
X0078633Y0061800D01*
X0078657Y0061757D01*
X0078682Y0061702D01*
X0078707Y0061640D01*
X0078732Y0061578D01*
X0078756Y0061503D01*
X0078775Y0061423D01*
X0078794Y0061336D01*
X0078806Y0061250D01*
X0078818Y0061151D01*
Y0061045D01*
Y0060835D01*
X0077042D01*
Y0060829D01*
Y0060816D01*
Y0060798D01*
X0077048Y0060767D01*
X0077054Y0060730D01*
Y0060693D01*
X0077073Y0060593D01*
X0077104Y0060494D01*
X0077141Y0060383D01*
X0077197Y0060278D01*
X0077265Y0060185D01*
X0077277Y0060173D01*
X0077302Y0060148D01*
X0077351Y0060117D01*
X0077419Y0060074D01*
X0077506Y0060030D01*
X0077605Y0059999D01*
X0077723Y0059974D01*
X0077859Y0059962D01*
X0077902D01*
X0077933Y0059968D01*
X0077970D01*
X0078014Y0059974D01*
X0078119Y0059999D01*
X0078237Y0060030D01*
X0078367Y0060080D01*
X0078503Y0060148D01*
X0078571Y0060191D01*
X0078639Y0060241D01*
Y0059863D01*
X0078633D01*
X0078627Y0059851D01*
X0078608Y0059844D01*
X0078577Y0059826D01*
X0078546Y0059807D01*
X0078509Y0059789D01*
X0078459Y0059770D01*
X0078410Y0059745D01*
X0078348Y0059721D01*
X0078280Y0059702D01*
X0078131Y0059665D01*
X0077958Y0059640D01*
X0077766Y0059628D01*
X0077717D01*
X0077679Y0059634D01*
X0077636Y0059640D01*
X0077580Y0059646D01*
X0077463Y0059671D01*
X0077327Y0059708D01*
X0077190Y0059770D01*
X0077122Y0059813D01*
X0077054Y0059857D01*
X0076992Y0059906D01*
X0076930Y0059968D01*
X0076924Y0059974D01*
X0076918Y0059987D01*
X0076906Y0060005D01*
X0076881Y0060030D01*
X0076862Y0060067D01*
X0076838Y0060111D01*
X0076807Y0060160D01*
X0076782Y0060216D01*
X0076751Y0060278D01*
X0076726Y0060352D01*
X0076695Y0060432D01*
X0076677Y0060519D01*
X0076658Y0060612D01*
X0076639Y0060711D01*
X0076633Y0060816D01*
X0076627Y0060928D01*
Y0060934D01*
Y0060953D01*
Y0060983D01*
X0076633Y0061027D01*
X0076639Y0061076D01*
X0076646Y0061132D01*
X0076652Y0061200D01*
X0076670Y0061268D01*
X0076708Y0061417D01*
X0076763Y0061578D01*
X0076801Y0061658D01*
X0076850Y0061732D01*
X0076899Y0061813D01*
X0076955Y0061881D01*
X0076961Y0061887D01*
X0076974Y0061900D01*
X0076992Y0061918D01*
X0077017Y0061937D01*
X0077048Y0061968D01*
X0077085Y0061999D01*
X0077135Y0062029D01*
X0077184Y0062067D01*
X0077302Y0062135D01*
X0077444Y0062197D01*
X0077525Y0062215D01*
X0077605Y0062234D01*
X0077692Y0062246D01*
X0077785Y0062252D01*
X0077834D01*
X0077865Y0062246D01*
D02*
G37*
G36*
X0070877D02*
X0070920Y0062240D01*
X0070976Y0062234D01*
X0071100Y0062209D01*
X0071242Y0062166D01*
X0071384Y0062104D01*
X0071459Y0062067D01*
X0071527Y0062023D01*
X0071595Y0061968D01*
X0071657Y0061906D01*
X0071663Y0061900D01*
X0071669Y0061887D01*
X0071688Y0061869D01*
X0071706Y0061844D01*
X0071731Y0061807D01*
X0071756Y0061763D01*
X0071786Y0061714D01*
X0071817Y0061658D01*
X0071842Y0061590D01*
X0071873Y0061522D01*
X0071898Y0061441D01*
X0071923Y0061355D01*
X0071941Y0061262D01*
X0071960Y0061163D01*
X0071966Y0061058D01*
X0071972Y0060946D01*
Y0060940D01*
Y0060922D01*
Y0060891D01*
X0071966Y0060847D01*
X0071960Y0060798D01*
X0071954Y0060736D01*
X0071941Y0060674D01*
X0071929Y0060600D01*
X0071892Y0060451D01*
X0071830Y0060290D01*
X0071793Y0060210D01*
X0071743Y0060129D01*
X0071694Y0060055D01*
X0071632Y0059987D01*
X0071626Y0059981D01*
X0071613Y0059974D01*
X0071595Y0059956D01*
X0071570Y0059931D01*
X0071533Y0059906D01*
X0071496Y0059875D01*
X0071446Y0059838D01*
X0071390Y0059807D01*
X0071329Y0059776D01*
X0071260Y0059739D01*
X0071186Y0059708D01*
X0071106Y0059684D01*
X0071019Y0059659D01*
X0070926Y0059646D01*
X0070827Y0059634D01*
X0070722Y0059628D01*
X0070666D01*
X0070629Y0059634D01*
X0070586Y0059640D01*
X0070530Y0059646D01*
X0070468Y0059659D01*
X0070400Y0059671D01*
X0070258Y0059715D01*
X0070109Y0059776D01*
X0070035Y0059813D01*
X0069967Y0059863D01*
X0069899Y0059913D01*
X0069831Y0059974D01*
X0069824Y0059981D01*
X0069818Y0059993D01*
X0069800Y0060012D01*
X0069781Y0060036D01*
X0069756Y0060074D01*
X0069725Y0060117D01*
X0069694Y0060166D01*
X0069670Y0060222D01*
X0069639Y0060290D01*
X0069608Y0060358D01*
X0069577Y0060432D01*
X0069552Y0060519D01*
X0069515Y0060705D01*
X0069509Y0060804D01*
X0069502Y0060909D01*
Y0060915D01*
Y0060940D01*
Y0060971D01*
X0069509Y0061014D01*
X0069515Y0061064D01*
X0069521Y0061126D01*
X0069533Y0061194D01*
X0069546Y0061268D01*
X0069583Y0061429D01*
X0069645Y0061590D01*
X0069688Y0061671D01*
X0069731Y0061751D01*
X0069781Y0061825D01*
X0069843Y0061893D01*
X0069849Y0061900D01*
X0069862Y0061912D01*
X0069880Y0061924D01*
X0069905Y0061949D01*
X0069942Y0061974D01*
X0069985Y0062005D01*
X0070035Y0062042D01*
X0070091Y0062073D01*
X0070152Y0062104D01*
X0070227Y0062141D01*
X0070301Y0062172D01*
X0070388Y0062197D01*
X0070474Y0062221D01*
X0070573Y0062240D01*
X0070679Y0062246D01*
X0070784Y0062252D01*
X0070840D01*
X0070877Y0062246D01*
D02*
G37*
G36*
X0059561D02*
X0059605Y0062240D01*
X0059660Y0062234D01*
X0059784Y0062209D01*
X0059926Y0062166D01*
X0060069Y0062104D01*
X0060143Y0062067D01*
X0060211Y0062023D01*
X0060279Y0061968D01*
X0060341Y0061906D01*
X0060347Y0061900D01*
X0060354Y0061887D01*
X0060372Y0061869D01*
X0060391Y0061844D01*
X0060416Y0061807D01*
X0060440Y0061763D01*
X0060471Y0061714D01*
X0060502Y0061658D01*
X0060527Y0061590D01*
X0060558Y0061522D01*
X0060583Y0061441D01*
X0060607Y0061355D01*
X0060626Y0061262D01*
X0060645Y0061163D01*
X0060651Y0061058D01*
X0060657Y0060946D01*
Y0060940D01*
Y0060922D01*
Y0060891D01*
X0060651Y0060847D01*
X0060645Y0060798D01*
X0060638Y0060736D01*
X0060626Y0060674D01*
X0060614Y0060600D01*
X0060576Y0060451D01*
X0060515Y0060290D01*
X0060477Y0060210D01*
X0060428Y0060129D01*
X0060378Y0060055D01*
X0060316Y0059987D01*
X0060310Y0059981D01*
X0060298Y0059974D01*
X0060279Y0059956D01*
X0060255Y0059931D01*
X0060217Y0059906D01*
X0060180Y0059875D01*
X0060131Y0059838D01*
X0060075Y0059807D01*
X0060013Y0059776D01*
X0059945Y0059739D01*
X0059871Y0059708D01*
X0059790Y0059684D01*
X0059704Y0059659D01*
X0059611Y0059646D01*
X0059512Y0059634D01*
X0059407Y0059628D01*
X0059351D01*
X0059314Y0059634D01*
X0059270Y0059640D01*
X0059215Y0059646D01*
X0059153Y0059659D01*
X0059085Y0059671D01*
X0058942Y0059715D01*
X0058794Y0059776D01*
X0058719Y0059813D01*
X0058651Y0059863D01*
X0058583Y0059913D01*
X0058515Y0059974D01*
X0058509Y0059981D01*
X0058503Y0059993D01*
X0058484Y0060012D01*
X0058466Y0060036D01*
X0058441Y0060074D01*
X0058410Y0060117D01*
X0058379Y0060166D01*
X0058354Y0060222D01*
X0058323Y0060290D01*
X0058292Y0060358D01*
X0058261Y0060432D01*
X0058237Y0060519D01*
X0058200Y0060705D01*
X0058193Y0060804D01*
X0058187Y0060909D01*
Y0060915D01*
Y0060940D01*
Y0060971D01*
X0058193Y0061014D01*
X0058200Y0061064D01*
X0058206Y0061126D01*
X0058218Y0061194D01*
X0058230Y0061268D01*
X0058268Y0061429D01*
X0058329Y0061590D01*
X0058373Y0061671D01*
X0058416Y0061751D01*
X0058466Y0061825D01*
X0058528Y0061893D01*
X0058534Y0061900D01*
X0058546Y0061912D01*
X0058565Y0061924D01*
X0058590Y0061949D01*
X0058627Y0061974D01*
X0058670Y0062005D01*
X0058719Y0062042D01*
X0058775Y0062073D01*
X0058837Y0062104D01*
X0058911Y0062141D01*
X0058986Y0062172D01*
X0059072Y0062197D01*
X0059159Y0062221D01*
X0059258Y0062240D01*
X0059363Y0062246D01*
X0059468Y0062252D01*
X0059524D01*
X0059561Y0062246D01*
D02*
G37*
G36*
X0053210D02*
X0053254Y0062240D01*
X0053309Y0062234D01*
X0053433Y0062209D01*
X0053576Y0062166D01*
X0053718Y0062104D01*
X0053792Y0062067D01*
X0053860Y0062023D01*
X0053928Y0061968D01*
X0053990Y0061906D01*
X0053996Y0061900D01*
X0054003Y0061887D01*
X0054021Y0061869D01*
X0054040Y0061844D01*
X0054065Y0061807D01*
X0054089Y0061763D01*
X0054120Y0061714D01*
X0054151Y0061658D01*
X0054176Y0061590D01*
X0054207Y0061522D01*
X0054232Y0061441D01*
X0054256Y0061355D01*
X0054275Y0061262D01*
X0054294Y0061163D01*
X0054300Y0061058D01*
X0054306Y0060946D01*
Y0060940D01*
Y0060922D01*
Y0060891D01*
X0054300Y0060847D01*
X0054294Y0060798D01*
X0054287Y0060736D01*
X0054275Y0060674D01*
X0054263Y0060600D01*
X0054225Y0060451D01*
X0054164Y0060290D01*
X0054127Y0060210D01*
X0054077Y0060129D01*
X0054027Y0060055D01*
X0053966Y0059987D01*
X0053959Y0059981D01*
X0053947Y0059974D01*
X0053928Y0059956D01*
X0053904Y0059931D01*
X0053866Y0059906D01*
X0053829Y0059875D01*
X0053780Y0059838D01*
X0053724Y0059807D01*
X0053662Y0059776D01*
X0053594Y0059739D01*
X0053520Y0059708D01*
X0053439Y0059684D01*
X0053353Y0059659D01*
X0053260Y0059646D01*
X0053161Y0059634D01*
X0053056Y0059628D01*
X0053000D01*
X0052963Y0059634D01*
X0052919Y0059640D01*
X0052864Y0059646D01*
X0052802Y0059659D01*
X0052734Y0059671D01*
X0052591Y0059715D01*
X0052443Y0059776D01*
X0052368Y0059813D01*
X0052300Y0059863D01*
X0052232Y0059913D01*
X0052164Y0059974D01*
X0052158Y0059981D01*
X0052152Y0059993D01*
X0052133Y0060012D01*
X0052115Y0060036D01*
X0052090Y0060074D01*
X0052059Y0060117D01*
X0052028Y0060166D01*
X0052003Y0060222D01*
X0051972Y0060290D01*
X0051941Y0060358D01*
X0051911Y0060432D01*
X0051886Y0060519D01*
X0051849Y0060705D01*
X0051842Y0060804D01*
X0051836Y0060909D01*
Y0060915D01*
Y0060940D01*
Y0060971D01*
X0051842Y0061014D01*
X0051849Y0061064D01*
X0051855Y0061126D01*
X0051867Y0061194D01*
X0051880Y0061268D01*
X0051917Y0061429D01*
X0051978Y0061590D01*
X0052022Y0061671D01*
X0052065Y0061751D01*
X0052115Y0061825D01*
X0052177Y0061893D01*
X0052183Y0061900D01*
X0052195Y0061912D01*
X0052214Y0061924D01*
X0052239Y0061949D01*
X0052276Y0061974D01*
X0052319Y0062005D01*
X0052368Y0062042D01*
X0052424Y0062073D01*
X0052486Y0062104D01*
X0052560Y0062141D01*
X0052635Y0062172D01*
X0052721Y0062197D01*
X0052808Y0062221D01*
X0052907Y0062240D01*
X0053012Y0062246D01*
X0053118Y0062252D01*
X0053173D01*
X0053210Y0062246D01*
D02*
G37*
G36*
X0095649Y0063187D02*
X0095674Y0063156D01*
X0095711Y0063107D01*
X0095760Y0063038D01*
X0095822Y0062952D01*
X0095884Y0062847D01*
X0095952Y0062729D01*
X0096027Y0062593D01*
X0096101Y0062438D01*
X0096169Y0062271D01*
X0096231Y0062091D01*
X0096293Y0061900D01*
X0096342Y0061695D01*
X0096379Y0061485D01*
X0096404Y0061256D01*
X0096410Y0061021D01*
Y0061014D01*
Y0061008D01*
Y0060990D01*
Y0060965D01*
Y0060934D01*
X0096404Y0060897D01*
X0096398Y0060810D01*
X0096386Y0060699D01*
X0096367Y0060575D01*
X0096349Y0060432D01*
X0096317Y0060278D01*
X0096274Y0060111D01*
X0096225Y0059943D01*
X0096163Y0059764D01*
X0096088Y0059584D01*
X0096002Y0059405D01*
X0095897Y0059225D01*
X0095779Y0059052D01*
X0095643Y0058885D01*
X0095284D01*
X0095290Y0058897D01*
X0095315Y0058928D01*
X0095352Y0058978D01*
X0095401Y0059046D01*
X0095463Y0059133D01*
X0095525Y0059238D01*
X0095593Y0059362D01*
X0095668Y0059498D01*
X0095742Y0059646D01*
X0095810Y0059813D01*
X0095872Y0059987D01*
X0095934Y0060173D01*
X0095983Y0060377D01*
X0096020Y0060581D01*
X0096045Y0060804D01*
X0096051Y0061027D01*
Y0061033D01*
Y0061039D01*
Y0061058D01*
Y0061083D01*
X0096045Y0061144D01*
X0096039Y0061237D01*
X0096027Y0061343D01*
X0096008Y0061466D01*
X0095989Y0061609D01*
X0095952Y0061763D01*
X0095915Y0061931D01*
X0095866Y0062104D01*
X0095798Y0062283D01*
X0095723Y0062463D01*
X0095637Y0062655D01*
X0095531Y0062840D01*
X0095414Y0063020D01*
X0095278Y0063200D01*
X0095643D01*
X0095649Y0063187D01*
D02*
G37*
G36*
X0083603D02*
X0083578Y0063156D01*
X0083535Y0063107D01*
X0083492Y0063032D01*
X0083430Y0062946D01*
X0083362Y0062840D01*
X0083294Y0062717D01*
X0083226Y0062581D01*
X0083151Y0062426D01*
X0083083Y0062259D01*
X0083015Y0062079D01*
X0082960Y0061887D01*
X0082910Y0061689D01*
X0082867Y0061479D01*
X0082842Y0061256D01*
X0082836Y0061027D01*
Y0061021D01*
Y0061014D01*
Y0060996D01*
Y0060971D01*
X0082842Y0060909D01*
X0082848Y0060822D01*
X0082860Y0060717D01*
X0082879Y0060593D01*
X0082898Y0060451D01*
X0082935Y0060303D01*
X0082972Y0060135D01*
X0083021Y0059968D01*
X0083083Y0059789D01*
X0083158Y0059609D01*
X0083250Y0059424D01*
X0083350Y0059238D01*
X0083467Y0059058D01*
X0083603Y0058885D01*
X0083244D01*
X0083238Y0058897D01*
X0083213Y0058922D01*
X0083176Y0058972D01*
X0083127Y0059040D01*
X0083071Y0059126D01*
X0083003Y0059225D01*
X0082935Y0059343D01*
X0082867Y0059479D01*
X0082792Y0059628D01*
X0082724Y0059789D01*
X0082662Y0059962D01*
X0082600Y0060154D01*
X0082551Y0060352D01*
X0082514Y0060562D01*
X0082489Y0060785D01*
X0082483Y0061021D01*
Y0061027D01*
Y0061033D01*
Y0061051D01*
Y0061076D01*
X0082489Y0061107D01*
Y0061144D01*
X0082495Y0061237D01*
X0082508Y0061343D01*
X0082526Y0061472D01*
X0082545Y0061615D01*
X0082576Y0061776D01*
X0082619Y0061943D01*
X0082669Y0062116D01*
X0082731Y0062296D01*
X0082805Y0062481D01*
X0082891Y0062667D01*
X0082990Y0062847D01*
X0083108Y0063026D01*
X0083244Y0063200D01*
X0083609D01*
X0083603Y0063187D01*
D02*
G37*
%LPC*%
G36*
X0060286Y0106838D02*
X0060248D01*
X0060224Y0106832D01*
X0060155Y0106826D01*
X0060075Y0106807D01*
X0059982Y0106770D01*
X0059883Y0106721D01*
X0059790Y0106659D01*
X0059747Y0106616D01*
X0059704Y0106566D01*
X0059698Y0106554D01*
X0059673Y0106517D01*
X0059636Y0106455D01*
X0059598Y0106374D01*
X0059561Y0106269D01*
X0059524Y0106139D01*
X0059499Y0105990D01*
X0059493Y0105823D01*
Y0105817D01*
Y0105805D01*
Y0105780D01*
X0059499Y0105749D01*
Y0105718D01*
X0059506Y0105675D01*
X0059518Y0105576D01*
X0059543Y0105464D01*
X0059580Y0105353D01*
X0059629Y0105241D01*
X0059698Y0105136D01*
X0059710Y0105124D01*
X0059735Y0105099D01*
X0059778Y0105056D01*
X0059840Y0105012D01*
X0059920Y0104969D01*
X0060013Y0104926D01*
X0060118Y0104901D01*
X0060242Y0104889D01*
X0060273D01*
X0060298Y0104895D01*
X0060360Y0104901D01*
X0060434Y0104920D01*
X0060521Y0104950D01*
X0060614Y0104988D01*
X0060700Y0105050D01*
X0060787Y0105130D01*
X0060793Y0105142D01*
X0060818Y0105173D01*
X0060855Y0105229D01*
X0060892Y0105297D01*
X0060929Y0105384D01*
X0060966Y0105489D01*
X0060991Y0105613D01*
X0060997Y0105743D01*
Y0106114D01*
Y0106120D01*
Y0106127D01*
Y0106164D01*
X0060985Y0106219D01*
X0060973Y0106294D01*
X0060948Y0106374D01*
X0060911Y0106461D01*
X0060861Y0106547D01*
X0060793Y0106628D01*
X0060787Y0106634D01*
X0060756Y0106659D01*
X0060713Y0106696D01*
X0060657Y0106733D01*
X0060583Y0106770D01*
X0060496Y0106807D01*
X0060397Y0106832D01*
X0060286Y0106838D01*
D02*
G37*
G36*
X0056349Y0105879D02*
X0055742Y0105792D01*
X0055730D01*
X0055699Y0105786D01*
X0055649Y0105774D01*
X0055587Y0105761D01*
X0055519Y0105743D01*
X0055445Y0105718D01*
X0055383Y0105693D01*
X0055321Y0105656D01*
X0055315Y0105650D01*
X0055296Y0105638D01*
X0055278Y0105613D01*
X0055253Y0105576D01*
X0055222Y0105526D01*
X0055203Y0105464D01*
X0055185Y0105390D01*
X0055179Y0105303D01*
Y0105297D01*
Y0105272D01*
X0055185Y0105241D01*
X0055197Y0105198D01*
X0055210Y0105149D01*
X0055234Y0105099D01*
X0055265Y0105050D01*
X0055309Y0105000D01*
X0055315Y0104994D01*
X0055334Y0104981D01*
X0055365Y0104963D01*
X0055402Y0104944D01*
X0055451Y0104926D01*
X0055513Y0104907D01*
X0055581Y0104895D01*
X0055662Y0104889D01*
X0055674D01*
X0055711Y0104895D01*
X0055767Y0104901D01*
X0055835Y0104913D01*
X0055909Y0104938D01*
X0055996Y0104975D01*
X0056076Y0105031D01*
X0056151Y0105099D01*
X0056157Y0105111D01*
X0056182Y0105136D01*
X0056213Y0105180D01*
X0056250Y0105241D01*
X0056287Y0105322D01*
X0056318Y0105409D01*
X0056343Y0105514D01*
X0056349Y0105625D01*
Y0105879D01*
D02*
G37*
G36*
X0050066Y0107755D02*
X0049595D01*
Y0106616D01*
X0050072D01*
X0050134Y0106622D01*
X0050208Y0106634D01*
X0050295Y0106653D01*
X0050388Y0106684D01*
X0050468Y0106721D01*
X0050549Y0106776D01*
X0050555Y0106783D01*
X0050580Y0106807D01*
X0050611Y0106845D01*
X0050648Y0106900D01*
X0050679Y0106962D01*
X0050710Y0107043D01*
X0050734Y0107136D01*
X0050741Y0107241D01*
Y0107247D01*
Y0107266D01*
X0050734Y0107290D01*
X0050728Y0107321D01*
X0050703Y0107402D01*
X0050685Y0107451D01*
X0050654Y0107501D01*
X0050623Y0107544D01*
X0050573Y0107594D01*
X0050524Y0107637D01*
X0050456Y0107674D01*
X0050381Y0107705D01*
X0050289Y0107730D01*
X0050183Y0107748D01*
X0050066Y0107755D01*
D02*
G37*
G36*
Y0106244D02*
X0049595D01*
Y0104981D01*
X0050214D01*
X0050276Y0104988D01*
X0050363Y0105000D01*
X0050450Y0105025D01*
X0050542Y0105050D01*
X0050635Y0105093D01*
X0050716Y0105149D01*
X0050722Y0105155D01*
X0050747Y0105180D01*
X0050778Y0105217D01*
X0050815Y0105272D01*
X0050852Y0105341D01*
X0050883Y0105421D01*
X0050908Y0105520D01*
X0050914Y0105625D01*
Y0105631D01*
Y0105650D01*
X0050908Y0105681D01*
X0050902Y0105724D01*
X0050889Y0105768D01*
X0050871Y0105823D01*
X0050846Y0105879D01*
X0050809Y0105935D01*
X0050765Y0105990D01*
X0050710Y0106046D01*
X0050642Y0106102D01*
X0050555Y0106145D01*
X0050462Y0106188D01*
X0050344Y0106219D01*
X0050214Y0106238D01*
X0050066Y0106244D01*
D02*
G37*
G36*
X0078193Y0106838D02*
X0078144D01*
X0078094Y0106826D01*
X0078026Y0106814D01*
X0077952Y0106789D01*
X0077865Y0106752D01*
X0077785Y0106702D01*
X0077704Y0106634D01*
X0077698Y0106628D01*
X0077673Y0106597D01*
X0077642Y0106554D01*
X0077599Y0106492D01*
X0077556Y0106418D01*
X0077518Y0106325D01*
X0077487Y0106219D01*
X0077463Y0106102D01*
X0078818D01*
Y0106108D01*
Y0106120D01*
Y0106133D01*
Y0106158D01*
X0078812Y0106226D01*
X0078800Y0106300D01*
X0078775Y0106393D01*
X0078750Y0106479D01*
X0078707Y0106566D01*
X0078651Y0106647D01*
X0078645Y0106653D01*
X0078620Y0106677D01*
X0078583Y0106708D01*
X0078534Y0106746D01*
X0078466Y0106776D01*
X0078385Y0106807D01*
X0078298Y0106832D01*
X0078193Y0106838D01*
D02*
G37*
G36*
X0065089Y0107810D02*
X0065033D01*
X0064996Y0107804D01*
X0064947Y0107798D01*
X0064897Y0107792D01*
X0064835Y0107779D01*
X0064767Y0107761D01*
X0064625Y0107711D01*
X0064550Y0107680D01*
X0064470Y0107643D01*
X0064396Y0107594D01*
X0064321Y0107538D01*
X0064253Y0107476D01*
X0064185Y0107408D01*
X0064179Y0107402D01*
X0064173Y0107389D01*
X0064154Y0107365D01*
X0064130Y0107334D01*
X0064105Y0107297D01*
X0064080Y0107247D01*
X0064049Y0107191D01*
X0064018Y0107129D01*
X0063981Y0107055D01*
X0063950Y0106981D01*
X0063925Y0106894D01*
X0063901Y0106801D01*
X0063876Y0106702D01*
X0063857Y0106591D01*
X0063851Y0106479D01*
X0063845Y0106362D01*
Y0106356D01*
Y0106331D01*
Y0106300D01*
X0063851Y0106257D01*
X0063857Y0106201D01*
X0063863Y0106133D01*
X0063876Y0106065D01*
X0063888Y0105990D01*
X0063925Y0105823D01*
X0063987Y0105644D01*
X0064024Y0105557D01*
X0064068Y0105477D01*
X0064123Y0105390D01*
X0064179Y0105316D01*
X0064185Y0105309D01*
X0064198Y0105297D01*
X0064216Y0105279D01*
X0064241Y0105254D01*
X0064272Y0105223D01*
X0064315Y0105192D01*
X0064365Y0105155D01*
X0064414Y0105118D01*
X0064476Y0105080D01*
X0064544Y0105043D01*
X0064693Y0104981D01*
X0064780Y0104957D01*
X0064866Y0104938D01*
X0064959Y0104926D01*
X0065058Y0104920D01*
X0065114D01*
X0065157Y0104926D01*
X0065200Y0104932D01*
X0065262Y0104938D01*
X0065324Y0104950D01*
X0065392Y0104969D01*
X0065535Y0105012D01*
X0065615Y0105043D01*
X0065689Y0105080D01*
X0065764Y0105124D01*
X0065838Y0105173D01*
X0065906Y0105229D01*
X0065974Y0105297D01*
X0065980Y0105303D01*
X0065987Y0105316D01*
X0066005Y0105334D01*
X0066024Y0105365D01*
X0066055Y0105409D01*
X0066079Y0105452D01*
X0066110Y0105508D01*
X0066141Y0105570D01*
X0066172Y0105644D01*
X0066203Y0105724D01*
X0066234Y0105811D01*
X0066259Y0105904D01*
X0066277Y0106003D01*
X0066296Y0106114D01*
X0066302Y0106232D01*
X0066308Y0106356D01*
Y0106362D01*
Y0106387D01*
Y0106424D01*
X0066302Y0106467D01*
X0066296Y0106529D01*
X0066290Y0106597D01*
X0066284Y0106671D01*
X0066265Y0106752D01*
X0066228Y0106919D01*
X0066172Y0107098D01*
X0066135Y0107185D01*
X0066092Y0107272D01*
X0066036Y0107352D01*
X0065980Y0107427D01*
X0065974Y0107433D01*
X0065968Y0107445D01*
X0065949Y0107464D01*
X0065918Y0107488D01*
X0065887Y0107513D01*
X0065850Y0107550D01*
X0065801Y0107581D01*
X0065751Y0107618D01*
X0065689Y0107656D01*
X0065621Y0107686D01*
X0065547Y0107724D01*
X0065467Y0107748D01*
X0065380Y0107773D01*
X0065293Y0107792D01*
X0065194Y0107804D01*
X0065089Y0107810D01*
D02*
G37*
G36*
X0053087Y0106838D02*
X0053049D01*
X0053025Y0106832D01*
X0052950Y0106826D01*
X0052864Y0106807D01*
X0052765Y0106776D01*
X0052659Y0106727D01*
X0052560Y0106659D01*
X0052511Y0106622D01*
X0052468Y0106572D01*
X0052455Y0106560D01*
X0052430Y0106523D01*
X0052399Y0106467D01*
X0052356Y0106387D01*
X0052313Y0106281D01*
X0052282Y0106158D01*
X0052257Y0106015D01*
X0052245Y0105848D01*
Y0105842D01*
Y0105830D01*
Y0105805D01*
X0052251Y0105774D01*
Y0105737D01*
X0052257Y0105693D01*
X0052276Y0105594D01*
X0052300Y0105483D01*
X0052344Y0105365D01*
X0052399Y0105248D01*
X0052474Y0105142D01*
X0052486Y0105130D01*
X0052517Y0105105D01*
X0052567Y0105062D01*
X0052635Y0105019D01*
X0052721Y0104969D01*
X0052827Y0104926D01*
X0052950Y0104901D01*
X0053087Y0104889D01*
X0053124D01*
X0053149Y0104895D01*
X0053223Y0104901D01*
X0053309Y0104920D01*
X0053402Y0104950D01*
X0053508Y0104994D01*
X0053600Y0105056D01*
X0053687Y0105136D01*
X0053693Y0105149D01*
X0053718Y0105186D01*
X0053755Y0105241D01*
X0053792Y0105322D01*
X0053829Y0105427D01*
X0053866Y0105551D01*
X0053891Y0105693D01*
X0053898Y0105860D01*
Y0105867D01*
Y0105879D01*
Y0105904D01*
Y0105941D01*
X0053891Y0105978D01*
X0053885Y0106021D01*
X0053873Y0106127D01*
X0053848Y0106244D01*
X0053811Y0106362D01*
X0053755Y0106479D01*
X0053687Y0106585D01*
X0053675Y0106597D01*
X0053650Y0106622D01*
X0053600Y0106665D01*
X0053532Y0106715D01*
X0053446Y0106758D01*
X0053347Y0106801D01*
X0053223Y0106826D01*
X0053087Y0106838D01*
D02*
G37*
G36*
X0074869Y0061912D02*
X0074832D01*
X0074807Y0061906D01*
X0074739Y0061900D01*
X0074659Y0061881D01*
X0074566Y0061844D01*
X0074467Y0061794D01*
X0074374Y0061732D01*
X0074331Y0061689D01*
X0074287Y0061640D01*
X0074281Y0061627D01*
X0074256Y0061590D01*
X0074219Y0061528D01*
X0074182Y0061448D01*
X0074145Y0061343D01*
X0074108Y0061212D01*
X0074083Y0061064D01*
X0074077Y0060897D01*
Y0060891D01*
Y0060878D01*
Y0060853D01*
X0074083Y0060822D01*
Y0060791D01*
X0074089Y0060748D01*
X0074102Y0060649D01*
X0074126Y0060538D01*
X0074164Y0060426D01*
X0074213Y0060315D01*
X0074281Y0060210D01*
X0074294Y0060197D01*
X0074318Y0060173D01*
X0074362Y0060129D01*
X0074423Y0060086D01*
X0074504Y0060043D01*
X0074597Y0059999D01*
X0074702Y0059974D01*
X0074826Y0059962D01*
X0074857D01*
X0074882Y0059968D01*
X0074943Y0059974D01*
X0075018Y0059993D01*
X0075104Y0060024D01*
X0075197Y0060061D01*
X0075284Y0060123D01*
X0075371Y0060203D01*
X0075377Y0060216D01*
X0075402Y0060247D01*
X0075439Y0060303D01*
X0075476Y0060371D01*
X0075513Y0060457D01*
X0075550Y0060562D01*
X0075575Y0060686D01*
X0075581Y0060816D01*
Y0061188D01*
Y0061194D01*
Y0061200D01*
Y0061237D01*
X0075569Y0061293D01*
X0075556Y0061367D01*
X0075532Y0061448D01*
X0075494Y0061534D01*
X0075445Y0061621D01*
X0075377Y0061702D01*
X0075371Y0061708D01*
X0075340Y0061732D01*
X0075296Y0061770D01*
X0075241Y0061807D01*
X0075166Y0061844D01*
X0075080Y0061881D01*
X0074981Y0061906D01*
X0074869Y0061912D01*
D02*
G37*
G36*
X0050066Y0062828D02*
X0049595D01*
Y0061689D01*
X0050072D01*
X0050134Y0061695D01*
X0050208Y0061708D01*
X0050295Y0061726D01*
X0050388Y0061757D01*
X0050468Y0061794D01*
X0050549Y0061850D01*
X0050555Y0061856D01*
X0050580Y0061881D01*
X0050611Y0061918D01*
X0050648Y0061974D01*
X0050679Y0062036D01*
X0050710Y0062116D01*
X0050734Y0062209D01*
X0050741Y0062314D01*
Y0062321D01*
Y0062339D01*
X0050734Y0062364D01*
X0050728Y0062395D01*
X0050703Y0062475D01*
X0050685Y0062525D01*
X0050654Y0062574D01*
X0050623Y0062618D01*
X0050573Y0062667D01*
X0050524Y0062710D01*
X0050456Y0062748D01*
X0050381Y0062779D01*
X0050289Y0062803D01*
X0050183Y0062822D01*
X0050066Y0062828D01*
D02*
G37*
G36*
Y0061318D02*
X0049595D01*
Y0060055D01*
X0050214D01*
X0050276Y0060061D01*
X0050363Y0060074D01*
X0050450Y0060098D01*
X0050542Y0060123D01*
X0050635Y0060166D01*
X0050716Y0060222D01*
X0050722Y0060228D01*
X0050747Y0060253D01*
X0050778Y0060290D01*
X0050815Y0060346D01*
X0050852Y0060414D01*
X0050883Y0060494D01*
X0050908Y0060593D01*
X0050914Y0060699D01*
Y0060705D01*
Y0060724D01*
X0050908Y0060754D01*
X0050902Y0060798D01*
X0050889Y0060841D01*
X0050871Y0060897D01*
X0050846Y0060953D01*
X0050809Y0061008D01*
X0050765Y0061064D01*
X0050710Y0061120D01*
X0050642Y0061175D01*
X0050555Y0061219D01*
X0050462Y0061262D01*
X0050344Y0061293D01*
X0050214Y0061312D01*
X0050066Y0061318D01*
D02*
G37*
G36*
X0086791Y0061912D02*
X0086742D01*
X0086692Y0061900D01*
X0086624Y0061887D01*
X0086550Y0061862D01*
X0086463Y0061825D01*
X0086383Y0061776D01*
X0086302Y0061708D01*
X0086296Y0061702D01*
X0086271Y0061671D01*
X0086240Y0061627D01*
X0086197Y0061565D01*
X0086154Y0061491D01*
X0086116Y0061398D01*
X0086085Y0061293D01*
X0086061Y0061175D01*
X0087416D01*
Y0061181D01*
Y0061194D01*
Y0061206D01*
Y0061231D01*
X0087410Y0061299D01*
X0087398Y0061373D01*
X0087373Y0061466D01*
X0087348Y0061553D01*
X0087305Y0061640D01*
X0087249Y0061720D01*
X0087243Y0061726D01*
X0087218Y0061751D01*
X0087181Y0061782D01*
X0087132Y0061819D01*
X0087063Y0061850D01*
X0086983Y0061881D01*
X0086896Y0061906D01*
X0086791Y0061912D01*
D02*
G37*
G36*
X0077779D02*
X0077729D01*
X0077679Y0061900D01*
X0077611Y0061887D01*
X0077537Y0061862D01*
X0077450Y0061825D01*
X0077370Y0061776D01*
X0077289Y0061708D01*
X0077283Y0061702D01*
X0077258Y0061671D01*
X0077228Y0061627D01*
X0077184Y0061565D01*
X0077141Y0061491D01*
X0077104Y0061398D01*
X0077073Y0061293D01*
X0077048Y0061175D01*
X0078404D01*
Y0061181D01*
Y0061194D01*
Y0061206D01*
Y0061231D01*
X0078398Y0061299D01*
X0078385Y0061373D01*
X0078360Y0061466D01*
X0078336Y0061553D01*
X0078292Y0061640D01*
X0078237Y0061720D01*
X0078230Y0061726D01*
X0078206Y0061751D01*
X0078168Y0061782D01*
X0078119Y0061819D01*
X0078051Y0061850D01*
X0077970Y0061881D01*
X0077884Y0061906D01*
X0077779Y0061912D01*
D02*
G37*
G36*
X0070753D02*
X0070716D01*
X0070691Y0061906D01*
X0070617Y0061900D01*
X0070530Y0061881D01*
X0070431Y0061850D01*
X0070326Y0061800D01*
X0070227Y0061732D01*
X0070177Y0061695D01*
X0070134Y0061646D01*
X0070121Y0061633D01*
X0070097Y0061596D01*
X0070066Y0061541D01*
X0070022Y0061460D01*
X0069979Y0061355D01*
X0069948Y0061231D01*
X0069923Y0061089D01*
X0069911Y0060922D01*
Y0060915D01*
Y0060903D01*
Y0060878D01*
X0069917Y0060847D01*
Y0060810D01*
X0069923Y0060767D01*
X0069942Y0060668D01*
X0069967Y0060556D01*
X0070010Y0060439D01*
X0070066Y0060321D01*
X0070140Y0060216D01*
X0070152Y0060203D01*
X0070183Y0060179D01*
X0070233Y0060135D01*
X0070301Y0060092D01*
X0070388Y0060043D01*
X0070493Y0059999D01*
X0070617Y0059974D01*
X0070753Y0059962D01*
X0070790D01*
X0070815Y0059968D01*
X0070889Y0059974D01*
X0070976Y0059993D01*
X0071069Y0060024D01*
X0071174Y0060067D01*
X0071267Y0060129D01*
X0071353Y0060210D01*
X0071359Y0060222D01*
X0071384Y0060259D01*
X0071421Y0060315D01*
X0071459Y0060395D01*
X0071496Y0060501D01*
X0071533Y0060624D01*
X0071557Y0060767D01*
X0071564Y0060934D01*
Y0060940D01*
Y0060953D01*
Y0060977D01*
Y0061014D01*
X0071557Y0061051D01*
X0071551Y0061095D01*
X0071539Y0061200D01*
X0071514Y0061318D01*
X0071477Y0061435D01*
X0071421Y0061553D01*
X0071353Y0061658D01*
X0071341Y0061671D01*
X0071316Y0061695D01*
X0071267Y0061739D01*
X0071198Y0061788D01*
X0071112Y0061831D01*
X0071013Y0061875D01*
X0070889Y0061900D01*
X0070753Y0061912D01*
D02*
G37*
G36*
X0059438D02*
X0059400D01*
X0059376Y0061906D01*
X0059301Y0061900D01*
X0059215Y0061881D01*
X0059116Y0061850D01*
X0059010Y0061800D01*
X0058911Y0061732D01*
X0058862Y0061695D01*
X0058819Y0061646D01*
X0058806Y0061633D01*
X0058781Y0061596D01*
X0058750Y0061541D01*
X0058707Y0061460D01*
X0058664Y0061355D01*
X0058633Y0061231D01*
X0058608Y0061089D01*
X0058596Y0060922D01*
Y0060915D01*
Y0060903D01*
Y0060878D01*
X0058602Y0060847D01*
Y0060810D01*
X0058608Y0060767D01*
X0058627Y0060668D01*
X0058651Y0060556D01*
X0058695Y0060439D01*
X0058750Y0060321D01*
X0058825Y0060216D01*
X0058837Y0060203D01*
X0058868Y0060179D01*
X0058917Y0060135D01*
X0058986Y0060092D01*
X0059072Y0060043D01*
X0059178Y0059999D01*
X0059301Y0059974D01*
X0059438Y0059962D01*
X0059475D01*
X0059499Y0059968D01*
X0059574Y0059974D01*
X0059660Y0059993D01*
X0059753Y0060024D01*
X0059858Y0060067D01*
X0059951Y0060129D01*
X0060038Y0060210D01*
X0060044Y0060222D01*
X0060069Y0060259D01*
X0060106Y0060315D01*
X0060143Y0060395D01*
X0060180Y0060501D01*
X0060217Y0060624D01*
X0060242Y0060767D01*
X0060248Y0060934D01*
Y0060940D01*
Y0060953D01*
Y0060977D01*
Y0061014D01*
X0060242Y0061051D01*
X0060236Y0061095D01*
X0060224Y0061200D01*
X0060199Y0061318D01*
X0060162Y0061435D01*
X0060106Y0061553D01*
X0060038Y0061658D01*
X0060026Y0061671D01*
X0060001Y0061695D01*
X0059951Y0061739D01*
X0059883Y0061788D01*
X0059797Y0061831D01*
X0059698Y0061875D01*
X0059574Y0061900D01*
X0059438Y0061912D01*
D02*
G37*
G36*
X0053087D02*
X0053049D01*
X0053025Y0061906D01*
X0052950Y0061900D01*
X0052864Y0061881D01*
X0052765Y0061850D01*
X0052659Y0061800D01*
X0052560Y0061732D01*
X0052511Y0061695D01*
X0052468Y0061646D01*
X0052455Y0061633D01*
X0052430Y0061596D01*
X0052399Y0061541D01*
X0052356Y0061460D01*
X0052313Y0061355D01*
X0052282Y0061231D01*
X0052257Y0061089D01*
X0052245Y0060922D01*
Y0060915D01*
Y0060903D01*
Y0060878D01*
X0052251Y0060847D01*
Y0060810D01*
X0052257Y0060767D01*
X0052276Y0060668D01*
X0052300Y0060556D01*
X0052344Y0060439D01*
X0052399Y0060321D01*
X0052474Y0060216D01*
X0052486Y0060203D01*
X0052517Y0060179D01*
X0052567Y0060135D01*
X0052635Y0060092D01*
X0052721Y0060043D01*
X0052827Y0059999D01*
X0052950Y0059974D01*
X0053087Y0059962D01*
X0053124D01*
X0053149Y0059968D01*
X0053223Y0059974D01*
X0053309Y0059993D01*
X0053402Y0060024D01*
X0053508Y0060067D01*
X0053600Y0060129D01*
X0053687Y0060210D01*
X0053693Y0060222D01*
X0053718Y0060259D01*
X0053755Y0060315D01*
X0053792Y0060395D01*
X0053829Y0060501D01*
X0053866Y0060624D01*
X0053891Y0060767D01*
X0053898Y0060934D01*
Y0060940D01*
Y0060953D01*
Y0060977D01*
Y0061014D01*
X0053891Y0061051D01*
X0053885Y0061095D01*
X0053873Y0061200D01*
X0053848Y0061318D01*
X0053811Y0061435D01*
X0053755Y0061553D01*
X0053687Y0061658D01*
X0053675Y0061671D01*
X0053650Y0061695D01*
X0053600Y0061739D01*
X0053532Y0061788D01*
X0053446Y0061831D01*
X0053347Y0061875D01*
X0053223Y0061900D01*
X0053087Y0061912D01*
D02*
G37*
%LPD*%
D12*
X-0016708Y0108006D02*
G03*
X-0017889Y0106825I0000000J-0001181D01*
G01*
X-0232846Y0106825D02*
G03*
X-0234027Y0108006I-0001181J0000000D01*
G01*
X-0021824Y0068245D02*
G03*
X-0017887Y0068245I0001969J0000000D01*
G01*
X-0232853Y0068245D02*
G03*
X-0228916Y0068245I0001969J0000000D01*
G01*
X-0015084Y0026356D02*
G03*
X-0019021Y0022419I0000000J-0003937D01*
G01*
X-0022171Y0003324D02*
G03*
X-0019021Y0006474I0000000J0003150D01*
G01*
X-0044769D02*
G03*
X-0041619Y0003324I0003150J0000000D01*
G01*
X-0044769Y0022419D02*
G03*
X-0048706Y0026356I-0003937J0000000D01*
G01*
X-0012336Y0026401D02*
G03*
X-0004388Y0036543I-0002495J0010141D01*
G01*
X-0006059Y0050894D02*
G03*
X-0006091Y0060839I-0006121J0004953D01*
G01*
X-0004391Y0036542D02*
G03*
X-0006090Y0041139I-0007868J-0000296D01*
G01*
X-0246344Y0036501D02*
G03*
X-0238395Y0026360I0010444J0000000D01*
G01*
X-0231793Y0022419D02*
G03*
X-0235730Y0026356I-0003937J0000000D01*
G01*
X-0231793Y0006474D02*
G03*
X-0228643Y0003324I0003150J0000000D01*
G01*
X-0209194D02*
G03*
X-0206045Y0006474I0000000J0003150D01*
G01*
X-0202108Y0026356D02*
G03*
X-0206045Y0022419I0000000J-0003937D01*
G01*
X-0091525D02*
G03*
X-0095462Y0026356I-0003937J0000000D01*
G01*
X-0138281Y0022419D02*
G03*
X-0142218Y0026356I-0003937J0000000D01*
G01*
X-0185037Y0022419D02*
G03*
X-0188974Y0026356I-0003937J0000000D01*
G01*
X-0091525Y0006474D02*
G03*
X-0088375Y0003324I0003150J0000000D01*
G01*
X-0138281Y0006474D02*
G03*
X-0135131Y0003324I0003150J0000000D01*
G01*
X-0185037Y0006474D02*
G03*
X-0181887Y0003324I0003150J0000000D01*
G01*
X-0068926D02*
G03*
X-0065777Y0006474I0000000J0003150D01*
G01*
X-0115682Y0003324D02*
G03*
X-0112533Y0006474I0000000J0003150D01*
G01*
X-0162438Y0003324D02*
G03*
X-0159289Y0006474I0000000J0003150D01*
G01*
X-0061840Y0026356D02*
G03*
X-0065777Y0022419I0000000J-0003937D01*
G01*
X-0108596Y0026356D02*
G03*
X-0112533Y0022419I0000000J-0003937D01*
G01*
X-0155352Y0026356D02*
G03*
X-0159289Y0022419I0000000J-0003937D01*
G01*
X-0006065Y0104652D02*
G03*
X-0009413Y0108000I-0003348J0000000D01*
G01*
X-0241323Y0108000D02*
G03*
X-0244671Y0104652I0000000J-0003348D01*
G01*
X-0009186Y0075332D02*
G03*
X-0009186Y0069820I0001504J-0002756D01*
G01*
X-0241564Y0069855D02*
G03*
X-0241564Y0075367I-0001504J0002756D01*
G01*
X-0244659Y0041156D02*
G03*
X-0246347Y0036501I0006183J-0004875D01*
G01*
X-0244672Y0060840D02*
G03*
X-0244679Y0050933I0006117J-0004958D01*
G01*
X-0228916Y0068245D02*
X-0125367Y0068245D01*
X-0021824D01*
X-0017887D02*
Y0106825D01*
X-0232848Y0068245D02*
Y0106825D01*
X-0052643Y0026356D02*
X-0048706D01*
X-0019021Y0006474D02*
Y0022419D01*
X-0041619Y0003324D02*
X-0022171D01*
X-0044769Y0006474D02*
X-0044769Y0022419D01*
X-0015084Y0026356D02*
X-0012336D01*
X-0244687Y0041179D02*
Y0044027D01*
Y0050926D01*
X-0231793Y0006474D02*
X-0231793Y0022419D01*
X-0228643Y0003324D02*
X-0209194D01*
X-0202108Y0026356D02*
X-0192911D01*
X-0206045Y0006474D02*
Y0022419D01*
X-0238395Y0026360D02*
X-0235730Y0026356D01*
X-0181887Y0003324D02*
X-0162438D01*
X-0061840Y0026356D02*
X-0052643D01*
X-0146155D02*
X-0142218D01*
X-0159289Y0006474D02*
Y0022419D01*
X-0099399Y0026356D02*
X-0095462D01*
X-0155352D02*
X-0146155D01*
X-0138281Y0006474D02*
X-0138281Y0022419D01*
X-0135131Y0003324D02*
X-0115682D01*
X-0192911Y0026356D02*
X-0188974D01*
X-0091525Y0006474D02*
X-0091525Y0022419D01*
X-0088375Y0003324D02*
X-0068926D01*
X-0112533Y0006474D02*
Y0022419D01*
X-0185037Y0006474D02*
X-0185037Y0022419D01*
X-0065777Y0006474D02*
Y0022419D01*
X-0108596Y0026356D02*
X-0099399D01*
X-0241323Y0108000D02*
X-0233842D01*
X-0016895Y0108000D02*
X-0009413D01*
X-0009186Y0075332D02*
X-0006076D01*
X-0009186Y0069820D02*
X-0006077D01*
X-0006079Y0075332D02*
Y0104618D01*
X-0244671Y0075367D02*
Y0104652D01*
X-0244673Y0069855D02*
X-0241564D01*
X-0244674Y0075367D02*
X-0241564D01*
X-0244673Y0060841D02*
Y0069855D01*
X-0006060Y0041162D02*
X-0006059Y0050894D01*
X-0006063Y0060863D02*
Y0069820D01*
D40*
X-0238753Y0094230D02*
D03*
X-0011982D02*
D03*
D41*
X-0041816Y0015923D02*
D03*
X-0021974D02*
D03*
X-0208997D02*
D03*
X-0228840D02*
D03*
X-0115486D02*
D03*
X-0135328D02*
D03*
X-0068730D02*
D03*
X-0088572D02*
D03*
X-0162241D02*
D03*
X-0182084D02*
D03*
D43*
X-0159892Y0045019D02*
D03*
X-0139892D02*
D03*
X-0149892D02*
D03*
D44*
X-0129892D02*
D03*
D45*
X-0238555Y0055882D02*
D03*
X-0012177Y0036205D02*
D03*
X-0238555D02*
D03*
X-0012177Y0055882D02*
D03*
D64*
X-0036895Y0012871D02*
D03*
X-0031895D02*
D03*
X-0218919D02*
D03*
X-0223919D02*
D03*
X-0125407D02*
D03*
X-0130407D02*
D03*
X-0078651D02*
D03*
X-0083651D02*
D03*
X-0172163D02*
D03*
X-0177163D02*
D03*
D65*
X-0026895Y0013856D02*
D03*
X-0213919D02*
D03*
X-0120407D02*
D03*
X-0073651D02*
D03*
X-0167163D02*
D03*
D67*
X-0026895Y0024190D02*
D03*
X-0031895D02*
D03*
X-0036895D02*
D03*
X-0223919D02*
D03*
X-0218919D02*
D03*
X-0213919D02*
D03*
X-0130407D02*
D03*
X-0125407D02*
D03*
X-0120407D02*
D03*
X-0083651D02*
D03*
X-0078651D02*
D03*
X-0073651D02*
D03*
X-0177163D02*
D03*
X-0172163D02*
D03*
X-0167163D02*
D03*
M02*
