G04*
G04 #@! TF.GenerationSoftware,Altium Limited,Altium Designer,22.5.1 (42)*
G04*
G04 Layer_Color=8421504*
%FSAX44Y44*%
%MOMM*%
G71*
G04*
G04 #@! TF.SameCoordinates,C97D7AC5-A444-4555-92CE-8AED0D5C7507*
G04*
G04*
G04 #@! TF.FilePolarity,Positive*
G04*
G01*
G75*
G36*
X00184295Y-00011308D02*
X00184381Y-00011316D01*
X00184483Y-00011324D01*
X00184601Y-00011347D01*
X00184735Y-00011371D01*
X00184884Y-00011410D01*
X00185033Y-00011457D01*
X00185190Y-00011512D01*
X00185347Y-00011583D01*
X00185512Y-00011661D01*
X00185669Y-00011763D01*
X00185818Y-00011881D01*
X00185967Y-00012015D01*
X00186100Y-00012164D01*
X00186108Y-00012172D01*
X00186132Y-00012203D01*
X00186163Y-00012250D01*
X00186210Y-00012321D01*
X00186257Y-00012407D01*
X00186320Y-00012509D01*
X00186383Y-00012635D01*
X00186446Y-00012768D01*
X00186508Y-00012925D01*
X00186571Y-00013098D01*
X00186634Y-00013286D01*
X00186681Y-00013490D01*
X00186728Y-00013710D01*
X00186759Y-00013945D01*
X00186783Y-00014196D01*
X00186791Y-00014455D01*
Y-00014463D01*
Y-00014471D01*
Y-00014495D01*
Y-00014526D01*
X00186783Y-00014612D01*
X00186775Y-00014722D01*
X00186767Y-00014856D01*
X00186752Y-00015013D01*
X00186728Y-00015185D01*
X00186697Y-00015374D01*
X00186650Y-00015570D01*
X00186602Y-00015782D01*
X00186540Y-00015994D01*
X00186461Y-00016206D01*
X00186375Y-00016418D01*
X00186273Y-00016630D01*
X00186147Y-00016826D01*
X00186014Y-00017014D01*
X00186006Y-00017022D01*
X00185975Y-00017053D01*
X00185935Y-00017100D01*
X00185873Y-00017163D01*
X00185794Y-00017234D01*
X00185700Y-00017320D01*
X00185582Y-00017407D01*
X00185457Y-00017493D01*
X00185315Y-00017579D01*
X00185151Y-00017666D01*
X00184978Y-00017752D01*
X00184790Y-00017823D01*
X00184585Y-00017885D01*
X00184366Y-00017932D01*
X00184130Y-00017964D01*
X00183887Y-00017972D01*
X00183832D01*
X00183769Y-00017964D01*
X00183683Y-00017956D01*
X00183581Y-00017940D01*
X00183463Y-00017917D01*
X00183330Y-00017885D01*
X00183181Y-00017838D01*
X00183031Y-00017783D01*
X00182875Y-00017713D01*
X00182717Y-00017626D01*
X00182553Y-00017524D01*
X00182396Y-00017399D01*
X00182247Y-00017257D01*
X00182105Y-00017093D01*
X00181972Y-00016904D01*
X00181948D01*
Y-00020750D01*
X00180928D01*
Y-00011450D01*
X00181948D01*
Y-00012572D01*
X00181972D01*
X00181980Y-00012556D01*
X00182011Y-00012517D01*
X00182050Y-00012454D01*
X00182113Y-00012376D01*
X00182192Y-00012274D01*
X00182286Y-00012172D01*
X00182404Y-00012054D01*
X00182529Y-00011936D01*
X00182678Y-00011818D01*
X00182843Y-00011701D01*
X00183024Y-00011599D01*
X00183220Y-00011497D01*
X00183432Y-00011418D01*
X00183667Y-00011355D01*
X00183911Y-00011316D01*
X00184177Y-00011300D01*
X00184232D01*
X00184295Y-00011308D01*
D02*
G37*
G36*
X00207747D02*
X00207817D01*
X00207904Y-00011316D01*
X00207998Y-00011324D01*
X00208100Y-00011340D01*
X00208335Y-00011371D01*
X00208579Y-00011426D01*
X00208838Y-00011497D01*
X00209089Y-00011591D01*
Y-00012627D01*
X00209081Y-00012619D01*
X00209057Y-00012603D01*
X00209018Y-00012587D01*
X00208963Y-00012556D01*
X00208900Y-00012517D01*
X00208822Y-00012478D01*
X00208728Y-00012438D01*
X00208626Y-00012391D01*
X00208508Y-00012352D01*
X00208390Y-00012313D01*
X00208257Y-00012274D01*
X00208116Y-00012234D01*
X00207959Y-00012203D01*
X00207802Y-00012187D01*
X00207645Y-00012172D01*
X00207472Y-00012164D01*
X00207370D01*
X00207299Y-00012172D01*
X00207221Y-00012179D01*
X00207134Y-00012195D01*
X00206954Y-00012234D01*
X00206946D01*
X00206915Y-00012242D01*
X00206875Y-00012258D01*
X00206821Y-00012281D01*
X00206695Y-00012336D01*
X00206562Y-00012415D01*
X00206554Y-00012423D01*
X00206538Y-00012438D01*
X00206507Y-00012462D01*
X00206467Y-00012493D01*
X00206381Y-00012580D01*
X00206303Y-00012697D01*
Y-00012705D01*
X00206287Y-00012729D01*
X00206279Y-00012760D01*
X00206263Y-00012807D01*
X00206248Y-00012854D01*
X00206232Y-00012917D01*
X00206224Y-00012988D01*
X00206216Y-00013058D01*
Y-00013066D01*
Y-00013098D01*
X00206224Y-00013145D01*
Y-00013208D01*
X00206240Y-00013270D01*
X00206255Y-00013341D01*
X00206271Y-00013412D01*
X00206303Y-00013482D01*
X00206310Y-00013490D01*
X00206318Y-00013514D01*
X00206342Y-00013545D01*
X00206373Y-00013584D01*
X00206412Y-00013623D01*
X00206452Y-00013678D01*
X00206569Y-00013780D01*
X00206577Y-00013788D01*
X00206601Y-00013804D01*
X00206640Y-00013828D01*
X00206687Y-00013859D01*
X00206750Y-00013890D01*
X00206821Y-00013930D01*
X00206907Y-00013977D01*
X00206993Y-00014016D01*
X00207001Y-00014024D01*
X00207040Y-00014032D01*
X00207087Y-00014055D01*
X00207158Y-00014079D01*
X00207244Y-00014118D01*
X00207339Y-00014157D01*
X00207441Y-00014196D01*
X00207558Y-00014244D01*
X00207566D01*
X00207574Y-00014251D01*
X00207598Y-00014259D01*
X00207629Y-00014267D01*
X00207707Y-00014298D01*
X00207810Y-00014346D01*
X00207927Y-00014393D01*
X00208061Y-00014448D01*
X00208194Y-00014510D01*
X00208320Y-00014573D01*
X00208328D01*
X00208335Y-00014581D01*
X00208375Y-00014605D01*
X00208437Y-00014636D01*
X00208516Y-00014683D01*
X00208610Y-00014746D01*
X00208704Y-00014809D01*
X00208798Y-00014887D01*
X00208893Y-00014966D01*
X00208900Y-00014973D01*
X00208932Y-00015005D01*
X00208971Y-00015044D01*
X00209026Y-00015107D01*
X00209081Y-00015178D01*
X00209144Y-00015264D01*
X00209199Y-00015358D01*
X00209254Y-00015460D01*
X00209261Y-00015476D01*
X00209277Y-00015507D01*
X00209293Y-00015570D01*
X00209316Y-00015648D01*
X00209340Y-00015743D01*
X00209363Y-00015853D01*
X00209371Y-00015978D01*
X00209379Y-00016119D01*
Y-00016127D01*
Y-00016143D01*
Y-00016166D01*
Y-00016198D01*
X00209371Y-00016284D01*
X00209356Y-00016402D01*
X00209324Y-00016528D01*
X00209293Y-00016669D01*
X00209238Y-00016810D01*
X00209167Y-00016944D01*
X00209159Y-00016959D01*
X00209128Y-00016998D01*
X00209081Y-00017061D01*
X00209018Y-00017148D01*
X00208940Y-00017234D01*
X00208846Y-00017336D01*
X00208736Y-00017430D01*
X00208610Y-00017524D01*
X00208594Y-00017532D01*
X00208547Y-00017564D01*
X00208477Y-00017603D01*
X00208382Y-00017650D01*
X00208265Y-00017705D01*
X00208123Y-00017760D01*
X00207974Y-00017815D01*
X00207810Y-00017862D01*
X00207802D01*
X00207786Y-00017870D01*
X00207762D01*
X00207731Y-00017878D01*
X00207692Y-00017885D01*
X00207645Y-00017893D01*
X00207527Y-00017917D01*
X00207378Y-00017940D01*
X00207221Y-00017956D01*
X00207048Y-00017964D01*
X00206860Y-00017972D01*
X00206766D01*
X00206695Y-00017964D01*
X00206609D01*
X00206514Y-00017948D01*
X00206397Y-00017940D01*
X00206279Y-00017925D01*
X00206146Y-00017901D01*
X00206012Y-00017878D01*
X00205730Y-00017815D01*
X00205439Y-00017721D01*
X00205298Y-00017658D01*
X00205157Y-00017595D01*
Y-00016504D01*
X00205165Y-00016512D01*
X00205196Y-00016528D01*
X00205243Y-00016559D01*
X00205306Y-00016598D01*
X00205384Y-00016645D01*
X00205471Y-00016700D01*
X00205581Y-00016755D01*
X00205698Y-00016810D01*
X00205832Y-00016865D01*
X00205973Y-00016920D01*
X00206122Y-00016975D01*
X00206279Y-00017022D01*
X00206452Y-00017061D01*
X00206624Y-00017093D01*
X00206805Y-00017108D01*
X00206993Y-00017116D01*
X00207048D01*
X00207119Y-00017108D01*
X00207205Y-00017100D01*
X00207307Y-00017085D01*
X00207417Y-00017069D01*
X00207543Y-00017038D01*
X00207668Y-00017006D01*
X00207786Y-00016959D01*
X00207911Y-00016896D01*
X00208021Y-00016826D01*
X00208123Y-00016739D01*
X00208210Y-00016637D01*
X00208280Y-00016520D01*
X00208320Y-00016378D01*
X00208335Y-00016300D01*
Y-00016221D01*
Y-00016214D01*
Y-00016174D01*
X00208328Y-00016127D01*
X00208320Y-00016072D01*
X00208304Y-00016002D01*
X00208288Y-00015931D01*
X00208257Y-00015860D01*
X00208218Y-00015790D01*
X00208210Y-00015782D01*
X00208194Y-00015758D01*
X00208171Y-00015727D01*
X00208139Y-00015680D01*
X00208092Y-00015633D01*
X00208045Y-00015578D01*
X00207982Y-00015531D01*
X00207911Y-00015476D01*
X00207904Y-00015468D01*
X00207880Y-00015452D01*
X00207833Y-00015429D01*
X00207778Y-00015389D01*
X00207715Y-00015350D01*
X00207637Y-00015311D01*
X00207543Y-00015272D01*
X00207448Y-00015232D01*
X00207433Y-00015225D01*
X00207401Y-00015217D01*
X00207346Y-00015193D01*
X00207276Y-00015162D01*
X00207197Y-00015123D01*
X00207095Y-00015083D01*
X00206993Y-00015044D01*
X00206883Y-00014997D01*
X00206875D01*
X00206868Y-00014989D01*
X00206844Y-00014981D01*
X00206813Y-00014966D01*
X00206734Y-00014934D01*
X00206632Y-00014895D01*
X00206514Y-00014840D01*
X00206389Y-00014785D01*
X00206263Y-00014722D01*
X00206138Y-00014660D01*
X00206122Y-00014652D01*
X00206083Y-00014628D01*
X00206028Y-00014597D01*
X00205949Y-00014550D01*
X00205863Y-00014487D01*
X00205777Y-00014424D01*
X00205683Y-00014353D01*
X00205596Y-00014275D01*
X00205588Y-00014267D01*
X00205565Y-00014236D01*
X00205525Y-00014196D01*
X00205478Y-00014134D01*
X00205424Y-00014063D01*
X00205369Y-00013977D01*
X00205322Y-00013890D01*
X00205274Y-00013788D01*
X00205266Y-00013773D01*
X00205259Y-00013741D01*
X00205243Y-00013678D01*
X00205227Y-00013608D01*
X00205204Y-00013514D01*
X00205188Y-00013404D01*
X00205180Y-00013278D01*
X00205172Y-00013145D01*
Y-00013137D01*
Y-00013121D01*
Y-00013098D01*
Y-00013066D01*
X00205180Y-00012988D01*
X00205196Y-00012878D01*
X00205219Y-00012752D01*
X00205259Y-00012619D01*
X00205306Y-00012486D01*
X00205376Y-00012352D01*
Y-00012344D01*
X00205384Y-00012336D01*
X00205416Y-00012297D01*
X00205463Y-00012234D01*
X00205518Y-00012148D01*
X00205596Y-00012062D01*
X00205690Y-00011968D01*
X00205800Y-00011866D01*
X00205918Y-00011779D01*
X00205926D01*
X00205934Y-00011771D01*
X00205981Y-00011740D01*
X00206051Y-00011701D01*
X00206146Y-00011646D01*
X00206263Y-00011591D01*
X00206397Y-00011528D01*
X00206546Y-00011473D01*
X00206703Y-00011426D01*
X00206711D01*
X00206726Y-00011418D01*
X00206750Y-00011410D01*
X00206781Y-00011402D01*
X00206821Y-00011394D01*
X00206868Y-00011387D01*
X00206978Y-00011363D01*
X00207119Y-00011340D01*
X00207268Y-00011316D01*
X00207433Y-00011308D01*
X00207605Y-00011300D01*
X00207684D01*
X00207747Y-00011308D01*
D02*
G37*
G36*
X00201468D02*
X00201523D01*
X00201578Y-00011316D01*
X00201648Y-00011324D01*
X00201727Y-00011340D01*
X00201892Y-00011371D01*
X00202088Y-00011426D01*
X00202284Y-00011497D01*
X00202496Y-00011599D01*
X00202708Y-00011724D01*
X00202810Y-00011795D01*
X00202912Y-00011881D01*
X00203006Y-00011975D01*
X00203100Y-00012069D01*
X00203187Y-00012179D01*
X00203265Y-00012305D01*
X00203344Y-00012431D01*
X00203414Y-00012572D01*
X00203469Y-00012729D01*
X00203524Y-00012894D01*
X00203563Y-00013066D01*
X00203595Y-00013262D01*
X00203610Y-00013459D01*
X00203618Y-00013678D01*
Y-00017823D01*
X00202598D01*
Y-00016834D01*
X00202574D01*
X00202567Y-00016849D01*
X00202543Y-00016881D01*
X00202504Y-00016936D01*
X00202449Y-00017014D01*
X00202378Y-00017100D01*
X00202292Y-00017195D01*
X00202198Y-00017297D01*
X00202080Y-00017399D01*
X00201947Y-00017509D01*
X00201805Y-00017611D01*
X00201640Y-00017705D01*
X00201468Y-00017791D01*
X00201272Y-00017870D01*
X00201068Y-00017925D01*
X00200848Y-00017956D01*
X00200612Y-00017972D01*
X00200518D01*
X00200455Y-00017964D01*
X00200377Y-00017956D01*
X00200283Y-00017948D01*
X00200181Y-00017932D01*
X00200071Y-00017909D01*
X00199827Y-00017846D01*
X00199710Y-00017807D01*
X00199584Y-00017760D01*
X00199459Y-00017705D01*
X00199341Y-00017634D01*
X00199231Y-00017556D01*
X00199121Y-00017469D01*
X00199113Y-00017462D01*
X00199097Y-00017446D01*
X00199074Y-00017414D01*
X00199035Y-00017375D01*
X00198995Y-00017328D01*
X00198956Y-00017265D01*
X00198901Y-00017195D01*
X00198854Y-00017116D01*
X00198807Y-00017022D01*
X00198760Y-00016920D01*
X00198713Y-00016810D01*
X00198674Y-00016692D01*
X00198634Y-00016567D01*
X00198611Y-00016433D01*
X00198595Y-00016284D01*
X00198587Y-00016135D01*
Y-00016127D01*
Y-00016112D01*
Y-00016088D01*
X00198595Y-00016057D01*
Y-00016017D01*
X00198603Y-00015970D01*
X00198619Y-00015853D01*
X00198650Y-00015711D01*
X00198697Y-00015554D01*
X00198760Y-00015382D01*
X00198854Y-00015201D01*
X00198964Y-00015021D01*
X00199097Y-00014840D01*
X00199184Y-00014754D01*
X00199270Y-00014667D01*
X00199372Y-00014581D01*
X00199474Y-00014503D01*
X00199592Y-00014424D01*
X00199718Y-00014353D01*
X00199851Y-00014291D01*
X00200000Y-00014228D01*
X00200157Y-00014173D01*
X00200322Y-00014126D01*
X00200502Y-00014087D01*
X00200691Y-00014055D01*
X00202598Y-00013788D01*
Y-00013780D01*
Y-00013773D01*
Y-00013749D01*
Y-00013718D01*
X00202590Y-00013639D01*
X00202574Y-00013537D01*
X00202559Y-00013412D01*
X00202527Y-00013270D01*
X00202488Y-00013129D01*
X00202433Y-00012972D01*
X00202362Y-00012823D01*
X00202276Y-00012674D01*
X00202174Y-00012540D01*
X00202049Y-00012415D01*
X00201892Y-00012313D01*
X00201719Y-00012234D01*
X00201625Y-00012203D01*
X00201515Y-00012179D01*
X00201405Y-00012172D01*
X00201287Y-00012164D01*
X00201232D01*
X00201177Y-00012172D01*
X00201091Y-00012179D01*
X00200989Y-00012187D01*
X00200871Y-00012203D01*
X00200738Y-00012227D01*
X00200597Y-00012258D01*
X00200440Y-00012305D01*
X00200275Y-00012352D01*
X00200102Y-00012415D01*
X00199922Y-00012493D01*
X00199741Y-00012587D01*
X00199561Y-00012690D01*
X00199380Y-00012807D01*
X00199207Y-00012949D01*
Y-00011905D01*
X00199215Y-00011897D01*
X00199247Y-00011881D01*
X00199302Y-00011850D01*
X00199372Y-00011810D01*
X00199466Y-00011763D01*
X00199568Y-00011716D01*
X00199694Y-00011661D01*
X00199835Y-00011599D01*
X00199984Y-00011544D01*
X00200149Y-00011489D01*
X00200330Y-00011442D01*
X00200518Y-00011394D01*
X00200722Y-00011355D01*
X00200926Y-00011324D01*
X00201146Y-00011308D01*
X00201374Y-00011300D01*
X00201429D01*
X00201468Y-00011308D01*
D02*
G37*
G36*
X00194639Y-00008906D02*
X00194741D01*
X00194859Y-00008922D01*
X00195000Y-00008938D01*
X00195150Y-00008954D01*
X00195322Y-00008985D01*
X00195495Y-00009024D01*
X00195676Y-00009071D01*
X00195856Y-00009126D01*
X00196044Y-00009197D01*
X00196225Y-00009275D01*
X00196398Y-00009370D01*
X00196562Y-00009472D01*
X00196719Y-00009597D01*
X00196727Y-00009605D01*
X00196751Y-00009629D01*
X00196790Y-00009668D01*
X00196845Y-00009723D01*
X00196900Y-00009801D01*
X00196971Y-00009888D01*
X00197041Y-00009990D01*
X00197120Y-00010107D01*
X00197190Y-00010241D01*
X00197261Y-00010382D01*
X00197332Y-00010547D01*
X00197386Y-00010720D01*
X00197442Y-00010916D01*
X00197481Y-00011120D01*
X00197504Y-00011332D01*
X00197512Y-00011567D01*
Y-00011583D01*
Y-00011622D01*
X00197504Y-00011693D01*
X00197496Y-00011779D01*
X00197489Y-00011889D01*
X00197465Y-00012015D01*
X00197442Y-00012148D01*
X00197402Y-00012305D01*
X00197355Y-00012462D01*
X00197300Y-00012635D01*
X00197230Y-00012807D01*
X00197143Y-00012980D01*
X00197041Y-00013153D01*
X00196924Y-00013325D01*
X00196790Y-00013490D01*
X00196633Y-00013647D01*
X00196625Y-00013655D01*
X00196594Y-00013678D01*
X00196547Y-00013718D01*
X00196476Y-00013773D01*
X00196390Y-00013836D01*
X00196280Y-00013906D01*
X00196154Y-00013977D01*
X00196013Y-00014047D01*
X00195856Y-00014126D01*
X00195676Y-00014196D01*
X00195479Y-00014267D01*
X00195275Y-00014330D01*
X00195048Y-00014377D01*
X00194804Y-00014424D01*
X00194553Y-00014448D01*
X00194279Y-00014455D01*
X00193101D01*
Y-00017823D01*
X00192057D01*
Y-00008899D01*
X00194569D01*
X00194639Y-00008906D01*
D02*
G37*
G36*
X00172192Y-00009848D02*
X00169618D01*
Y-00017823D01*
X00168574D01*
Y-00009848D01*
X00166000D01*
Y-00008899D01*
X00172192D01*
Y-00009848D01*
D02*
G37*
G36*
X00212299Y-00011450D02*
X00213908D01*
Y-00012328D01*
X00212299D01*
Y-00015915D01*
Y-00015923D01*
Y-00015947D01*
Y-00015978D01*
Y-00016017D01*
X00212307Y-00016072D01*
X00212315Y-00016135D01*
X00212330Y-00016269D01*
X00212354Y-00016425D01*
X00212393Y-00016575D01*
X00212448Y-00016716D01*
X00212479Y-00016779D01*
X00212519Y-00016834D01*
X00212526Y-00016841D01*
X00212558Y-00016873D01*
X00212613Y-00016920D01*
X00212691Y-00016967D01*
X00212793Y-00017022D01*
X00212919Y-00017061D01*
X00213068Y-00017093D01*
X00213241Y-00017108D01*
X00213304D01*
X00213374Y-00017100D01*
X00213468Y-00017085D01*
X00213570Y-00017053D01*
X00213688Y-00017022D01*
X00213798Y-00016967D01*
X00213908Y-00016896D01*
Y-00017768D01*
X00213900D01*
X00213892Y-00017775D01*
X00213869Y-00017783D01*
X00213845Y-00017799D01*
X00213759Y-00017830D01*
X00213657Y-00017862D01*
X00213515Y-00017893D01*
X00213351Y-00017925D01*
X00213162Y-00017948D01*
X00212950Y-00017956D01*
X00212880D01*
X00212793Y-00017940D01*
X00212691Y-00017925D01*
X00212566Y-00017901D01*
X00212424Y-00017854D01*
X00212267Y-00017799D01*
X00212118Y-00017721D01*
X00211961Y-00017626D01*
X00211804Y-00017501D01*
X00211663Y-00017352D01*
X00211600Y-00017265D01*
X00211538Y-00017171D01*
X00211483Y-00017069D01*
X00211436Y-00016959D01*
X00211388Y-00016841D01*
X00211349Y-00016708D01*
X00211318Y-00016575D01*
X00211294Y-00016425D01*
X00211286Y-00016269D01*
X00211278Y-00016096D01*
Y-00012328D01*
X00210188D01*
Y-00011450D01*
X00211278D01*
Y-00009895D01*
X00212299Y-00009566D01*
Y-00011450D01*
D02*
G37*
G36*
X00217887Y-00011308D02*
X00217973Y-00011316D01*
X00218083Y-00011324D01*
X00218201Y-00011340D01*
X00218334Y-00011371D01*
X00218476Y-00011402D01*
X00218633Y-00011442D01*
X00218790Y-00011497D01*
X00218947Y-00011567D01*
X00219111Y-00011646D01*
X00219268Y-00011740D01*
X00219417Y-00011850D01*
X00219567Y-00011975D01*
X00219700Y-00012117D01*
X00219708Y-00012125D01*
X00219732Y-00012156D01*
X00219763Y-00012203D01*
X00219810Y-00012266D01*
X00219857Y-00012344D01*
X00219920Y-00012446D01*
X00219983Y-00012564D01*
X00220045Y-00012697D01*
X00220108Y-00012854D01*
X00220171Y-00013019D01*
X00220234Y-00013208D01*
X00220281Y-00013404D01*
X00220328Y-00013623D01*
X00220359Y-00013851D01*
X00220383Y-00014102D01*
X00220391Y-00014361D01*
Y-00014895D01*
X00215886D01*
Y-00014911D01*
Y-00014942D01*
X00215893Y-00014997D01*
X00215901Y-00015068D01*
X00215909Y-00015162D01*
X00215925Y-00015264D01*
X00215941Y-00015374D01*
X00215972Y-00015499D01*
X00216043Y-00015766D01*
X00216090Y-00015900D01*
X00216145Y-00016041D01*
X00216208Y-00016174D01*
X00216278Y-00016308D01*
X00216364Y-00016425D01*
X00216459Y-00016543D01*
X00216467Y-00016551D01*
X00216482Y-00016567D01*
X00216514Y-00016598D01*
X00216561Y-00016630D01*
X00216616Y-00016677D01*
X00216686Y-00016724D01*
X00216765Y-00016779D01*
X00216851Y-00016826D01*
X00216953Y-00016881D01*
X00217071Y-00016936D01*
X00217188Y-00016983D01*
X00217330Y-00017030D01*
X00217471Y-00017061D01*
X00217628Y-00017093D01*
X00217793Y-00017108D01*
X00217966Y-00017116D01*
X00218013D01*
X00218068Y-00017108D01*
X00218146D01*
X00218240Y-00017093D01*
X00218350Y-00017077D01*
X00218476Y-00017053D01*
X00218617Y-00017030D01*
X00218766Y-00016991D01*
X00218923Y-00016944D01*
X00219088Y-00016889D01*
X00219253Y-00016818D01*
X00219425Y-00016739D01*
X00219598Y-00016645D01*
X00219771Y-00016535D01*
X00219943Y-00016410D01*
Y-00017367D01*
X00219936Y-00017375D01*
X00219904Y-00017391D01*
X00219857Y-00017422D01*
X00219794Y-00017462D01*
X00219708Y-00017509D01*
X00219606Y-00017556D01*
X00219488Y-00017611D01*
X00219355Y-00017666D01*
X00219198Y-00017728D01*
X00219033Y-00017783D01*
X00218852Y-00017830D01*
X00218656Y-00017878D01*
X00218444Y-00017917D01*
X00218217Y-00017948D01*
X00217973Y-00017964D01*
X00217722Y-00017972D01*
X00217659D01*
X00217597Y-00017964D01*
X00217502Y-00017956D01*
X00217385Y-00017948D01*
X00217251Y-00017925D01*
X00217110Y-00017901D01*
X00216953Y-00017862D01*
X00216788Y-00017815D01*
X00216616Y-00017760D01*
X00216435Y-00017689D01*
X00216262Y-00017611D01*
X00216082Y-00017509D01*
X00215917Y-00017391D01*
X00215752Y-00017257D01*
X00215603Y-00017108D01*
X00215595Y-00017100D01*
X00215572Y-00017069D01*
X00215532Y-00017014D01*
X00215485Y-00016944D01*
X00215423Y-00016857D01*
X00215360Y-00016747D01*
X00215289Y-00016622D01*
X00215219Y-00016473D01*
X00215148Y-00016316D01*
X00215077Y-00016127D01*
X00215014Y-00015931D01*
X00214952Y-00015711D01*
X00214905Y-00015476D01*
X00214865Y-00015225D01*
X00214842Y-00014950D01*
X00214834Y-00014667D01*
Y-00014660D01*
Y-00014652D01*
Y-00014628D01*
Y-00014605D01*
X00214842Y-00014526D01*
X00214850Y-00014416D01*
X00214858Y-00014291D01*
X00214881Y-00014149D01*
X00214905Y-00013985D01*
X00214936Y-00013804D01*
X00214983Y-00013616D01*
X00215038Y-00013420D01*
X00215109Y-00013215D01*
X00215187Y-00013011D01*
X00215281Y-00012815D01*
X00215399Y-00012611D01*
X00215525Y-00012423D01*
X00215674Y-00012242D01*
X00215682Y-00012234D01*
X00215713Y-00012203D01*
X00215760Y-00012156D01*
X00215823Y-00012093D01*
X00215909Y-00012022D01*
X00216011Y-00011944D01*
X00216121Y-00011858D01*
X00216255Y-00011771D01*
X00216396Y-00011685D01*
X00216561Y-00011599D01*
X00216733Y-00011520D01*
X00216914Y-00011450D01*
X00217110Y-00011387D01*
X00217322Y-00011340D01*
X00217542Y-00011308D01*
X00217769Y-00011300D01*
X00217824D01*
X00217887Y-00011308D01*
D02*
G37*
G36*
X00176407D02*
X00176509Y-00011316D01*
X00176627Y-00011324D01*
X00176768Y-00011347D01*
X00176917Y-00011371D01*
X00177082Y-00011410D01*
X00177263Y-00011457D01*
X00177443Y-00011512D01*
X00177624Y-00011583D01*
X00177812Y-00011669D01*
X00177993Y-00011771D01*
X00178173Y-00011889D01*
X00178338Y-00012022D01*
X00178495Y-00012179D01*
X00178503Y-00012187D01*
X00178526Y-00012219D01*
X00178566Y-00012274D01*
X00178620Y-00012344D01*
X00178683Y-00012431D01*
X00178746Y-00012540D01*
X00178825Y-00012666D01*
X00178895Y-00012815D01*
X00178974Y-00012980D01*
X00179044Y-00013161D01*
X00179107Y-00013357D01*
X00179170Y-00013577D01*
X00179225Y-00013812D01*
X00179264Y-00014063D01*
X00179288Y-00014330D01*
X00179296Y-00014612D01*
Y-00014620D01*
Y-00014628D01*
Y-00014652D01*
Y-00014683D01*
X00179288Y-00014762D01*
X00179280Y-00014864D01*
X00179272Y-00014997D01*
X00179248Y-00015146D01*
X00179225Y-00015311D01*
X00179186Y-00015491D01*
X00179139Y-00015680D01*
X00179084Y-00015884D01*
X00179013Y-00016088D01*
X00178934Y-00016292D01*
X00178832Y-00016496D01*
X00178715Y-00016692D01*
X00178581Y-00016881D01*
X00178432Y-00017061D01*
X00178424Y-00017069D01*
X00178393Y-00017100D01*
X00178346Y-00017148D01*
X00178275Y-00017203D01*
X00178189Y-00017273D01*
X00178087Y-00017352D01*
X00177961Y-00017430D01*
X00177820Y-00017516D01*
X00177663Y-00017603D01*
X00177490Y-00017681D01*
X00177302Y-00017760D01*
X00177098Y-00017830D01*
X00176870Y-00017885D01*
X00176635Y-00017932D01*
X00176392Y-00017964D01*
X00176125Y-00017972D01*
X00176062D01*
X00175991Y-00017964D01*
X00175889Y-00017956D01*
X00175772Y-00017948D01*
X00175630Y-00017925D01*
X00175481Y-00017901D01*
X00175316Y-00017862D01*
X00175136Y-00017815D01*
X00174955Y-00017752D01*
X00174767Y-00017681D01*
X00174578Y-00017595D01*
X00174390Y-00017493D01*
X00174202Y-00017375D01*
X00174029Y-00017242D01*
X00173864Y-00017085D01*
X00173856Y-00017077D01*
X00173825Y-00017046D01*
X00173786Y-00016991D01*
X00173731Y-00016920D01*
X00173668Y-00016834D01*
X00173597Y-00016724D01*
X00173527Y-00016598D01*
X00173448Y-00016449D01*
X00173370Y-00016292D01*
X00173291Y-00016112D01*
X00173221Y-00015915D01*
X00173158Y-00015703D01*
X00173103Y-00015484D01*
X00173064Y-00015240D01*
X00173032Y-00014981D01*
X00173025Y-00014714D01*
Y-00014707D01*
Y-00014699D01*
Y-00014675D01*
Y-00014644D01*
X00173032Y-00014557D01*
X00173040Y-00014448D01*
X00173048Y-00014314D01*
X00173072Y-00014157D01*
X00173095Y-00013985D01*
X00173134Y-00013796D01*
X00173181Y-00013600D01*
X00173236Y-00013396D01*
X00173307Y-00013184D01*
X00173393Y-00012972D01*
X00173495Y-00012768D01*
X00173605Y-00012572D01*
X00173739Y-00012384D01*
X00173896Y-00012203D01*
X00173904Y-00012195D01*
X00173935Y-00012164D01*
X00173990Y-00012117D01*
X00174060Y-00012062D01*
X00174147Y-00011991D01*
X00174257Y-00011920D01*
X00174382Y-00011834D01*
X00174524Y-00011748D01*
X00174681Y-00011669D01*
X00174861Y-00011583D01*
X00175057Y-00011512D01*
X00175269Y-00011442D01*
X00175497Y-00011387D01*
X00175740Y-00011340D01*
X00175999Y-00011308D01*
X00176274Y-00011300D01*
X00176337D01*
X00176407Y-00011308D01*
D02*
G37*
%LPC*%
G36*
X00183926Y-00012164D02*
X00183840D01*
X00183777Y-00012172D01*
X00183699Y-00012179D01*
X00183612Y-00012195D01*
X00183518Y-00012219D01*
X00183408Y-00012242D01*
X00183298Y-00012274D01*
X00183181Y-00012313D01*
X00183063Y-00012368D01*
X00182945Y-00012423D01*
X00182827Y-00012493D01*
X00182710Y-00012580D01*
X00182592Y-00012674D01*
X00182490Y-00012784D01*
X00182482Y-00012792D01*
X00182466Y-00012815D01*
X00182443Y-00012846D01*
X00182404Y-00012894D01*
X00182364Y-00012956D01*
X00182317Y-00013027D01*
X00182270Y-00013113D01*
X00182223Y-00013208D01*
X00182168Y-00013317D01*
X00182121Y-00013435D01*
X00182074Y-00013561D01*
X00182035Y-00013702D01*
X00181995Y-00013851D01*
X00181972Y-00014000D01*
X00181956Y-00014165D01*
X00181948Y-00014338D01*
Y-00015225D01*
Y-00015232D01*
Y-00015256D01*
Y-00015303D01*
X00181956Y-00015358D01*
X00181964Y-00015429D01*
X00181972Y-00015507D01*
X00181988Y-00015594D01*
X00182011Y-00015688D01*
X00182074Y-00015900D01*
X00182113Y-00016010D01*
X00182160Y-00016127D01*
X00182223Y-00016237D01*
X00182294Y-00016355D01*
X00182372Y-00016465D01*
X00182458Y-00016567D01*
X00182466Y-00016575D01*
X00182482Y-00016590D01*
X00182513Y-00016614D01*
X00182553Y-00016653D01*
X00182600Y-00016692D01*
X00182663Y-00016739D01*
X00182733Y-00016787D01*
X00182819Y-00016841D01*
X00182906Y-00016889D01*
X00183008Y-00016944D01*
X00183118Y-00016991D01*
X00183228Y-00017030D01*
X00183353Y-00017069D01*
X00183487Y-00017093D01*
X00183628Y-00017108D01*
X00183769Y-00017116D01*
X00183808D01*
X00183855Y-00017108D01*
X00183926D01*
X00183997Y-00017093D01*
X00184091Y-00017077D01*
X00184193Y-00017053D01*
X00184295Y-00017030D01*
X00184413Y-00016991D01*
X00184531Y-00016944D01*
X00184648Y-00016889D01*
X00184774Y-00016818D01*
X00184892Y-00016739D01*
X00185009Y-00016645D01*
X00185119Y-00016535D01*
X00185221Y-00016410D01*
X00185229Y-00016402D01*
X00185245Y-00016378D01*
X00185268Y-00016339D01*
X00185308Y-00016276D01*
X00185347Y-00016206D01*
X00185386Y-00016119D01*
X00185433Y-00016010D01*
X00185488Y-00015892D01*
X00185535Y-00015758D01*
X00185582Y-00015609D01*
X00185621Y-00015452D01*
X00185669Y-00015272D01*
X00185700Y-00015083D01*
X00185723Y-00014879D01*
X00185739Y-00014660D01*
X00185747Y-00014432D01*
Y-00014416D01*
Y-00014385D01*
Y-00014330D01*
X00185739Y-00014259D01*
X00185731Y-00014165D01*
X00185723Y-00014063D01*
X00185708Y-00013953D01*
X00185684Y-00013828D01*
X00185629Y-00013561D01*
X00185590Y-00013420D01*
X00185535Y-00013286D01*
X00185480Y-00013145D01*
X00185417Y-00013011D01*
X00185339Y-00012886D01*
X00185253Y-00012768D01*
X00185245Y-00012760D01*
X00185229Y-00012744D01*
X00185205Y-00012713D01*
X00185166Y-00012674D01*
X00185111Y-00012627D01*
X00185056Y-00012580D01*
X00184986Y-00012525D01*
X00184907Y-00012462D01*
X00184813Y-00012407D01*
X00184719Y-00012352D01*
X00184609Y-00012305D01*
X00184491Y-00012258D01*
X00184358Y-00012219D01*
X00184224Y-00012187D01*
X00184083Y-00012172D01*
X00183926Y-00012164D01*
D02*
G37*
G36*
X00202598Y-00014605D02*
X00201060Y-00014816D01*
X00201052D01*
X00201028Y-00014824D01*
X00200989D01*
X00200942Y-00014832D01*
X00200887Y-00014848D01*
X00200816Y-00014864D01*
X00200659Y-00014895D01*
X00200487Y-00014942D01*
X00200314Y-00015005D01*
X00200141Y-00015083D01*
X00200063Y-00015123D01*
X00199992Y-00015170D01*
X00199977Y-00015185D01*
X00199937Y-00015217D01*
X00199874Y-00015280D01*
X00199812Y-00015374D01*
X00199749Y-00015499D01*
X00199718Y-00015570D01*
X00199686Y-00015648D01*
X00199663Y-00015735D01*
X00199647Y-00015837D01*
X00199639Y-00015939D01*
X00199631Y-00016057D01*
Y-00016064D01*
Y-00016080D01*
Y-00016104D01*
X00199639Y-00016135D01*
X00199647Y-00016221D01*
X00199671Y-00016331D01*
X00199710Y-00016449D01*
X00199772Y-00016582D01*
X00199851Y-00016708D01*
X00199961Y-00016826D01*
X00199969D01*
X00199977Y-00016841D01*
X00200024Y-00016873D01*
X00200094Y-00016920D01*
X00200196Y-00016967D01*
X00200330Y-00017022D01*
X00200479Y-00017069D01*
X00200659Y-00017100D01*
X00200856Y-00017116D01*
X00200926D01*
X00200981Y-00017108D01*
X00201044Y-00017100D01*
X00201122Y-00017085D01*
X00201201Y-00017069D01*
X00201295Y-00017046D01*
X00201491Y-00016983D01*
X00201593Y-00016944D01*
X00201703Y-00016889D01*
X00201805Y-00016826D01*
X00201907Y-00016755D01*
X00202009Y-00016677D01*
X00202104Y-00016582D01*
X00202111Y-00016575D01*
X00202127Y-00016559D01*
X00202151Y-00016528D01*
X00202182Y-00016488D01*
X00202221Y-00016433D01*
X00202260Y-00016371D01*
X00202308Y-00016300D01*
X00202355Y-00016214D01*
X00202394Y-00016119D01*
X00202441Y-00016017D01*
X00202480Y-00015907D01*
X00202519Y-00015790D01*
X00202551Y-00015664D01*
X00202574Y-00015531D01*
X00202590Y-00015389D01*
X00202598Y-00015240D01*
Y-00014605D01*
D02*
G37*
G36*
X00194326Y-00009848D02*
X00193101D01*
Y-00013506D01*
X00194294D01*
X00194373Y-00013498D01*
X00194459Y-00013490D01*
X00194561Y-00013482D01*
X00194679Y-00013467D01*
X00194804Y-00013443D01*
X00195071Y-00013388D01*
X00195205Y-00013341D01*
X00195346Y-00013294D01*
X00195479Y-00013239D01*
X00195605Y-00013176D01*
X00195730Y-00013098D01*
X00195840Y-00013011D01*
X00195848Y-00013003D01*
X00195864Y-00012988D01*
X00195895Y-00012956D01*
X00195927Y-00012917D01*
X00195974Y-00012870D01*
X00196021Y-00012807D01*
X00196076Y-00012737D01*
X00196131Y-00012650D01*
X00196178Y-00012556D01*
X00196233Y-00012454D01*
X00196280Y-00012336D01*
X00196327Y-00012211D01*
X00196358Y-00012077D01*
X00196390Y-00011936D01*
X00196405Y-00011779D01*
X00196413Y-00011614D01*
Y-00011607D01*
Y-00011591D01*
Y-00011567D01*
Y-00011536D01*
X00196398Y-00011450D01*
X00196382Y-00011340D01*
X00196350Y-00011206D01*
X00196303Y-00011057D01*
X00196241Y-00010892D01*
X00196154Y-00010727D01*
X00196044Y-00010563D01*
X00195903Y-00010406D01*
X00195825Y-00010327D01*
X00195738Y-00010257D01*
X00195636Y-00010186D01*
X00195534Y-00010123D01*
X00195417Y-00010068D01*
X00195291Y-00010013D01*
X00195158Y-00009966D01*
X00195016Y-00009927D01*
X00194859Y-00009895D01*
X00194694Y-00009864D01*
X00194514Y-00009856D01*
X00194326Y-00009848D01*
D02*
G37*
G36*
X00217754Y-00012164D02*
X00217683D01*
X00217636Y-00012172D01*
X00217573Y-00012179D01*
X00217495Y-00012187D01*
X00217416Y-00012203D01*
X00217330Y-00012227D01*
X00217134Y-00012289D01*
X00217032Y-00012328D01*
X00216929Y-00012384D01*
X00216828Y-00012438D01*
X00216718Y-00012509D01*
X00216623Y-00012587D01*
X00216521Y-00012682D01*
X00216514Y-00012690D01*
X00216498Y-00012705D01*
X00216474Y-00012737D01*
X00216443Y-00012776D01*
X00216404Y-00012831D01*
X00216357Y-00012886D01*
X00216310Y-00012964D01*
X00216255Y-00013043D01*
X00216200Y-00013137D01*
X00216152Y-00013239D01*
X00216098Y-00013349D01*
X00216050Y-00013467D01*
X00216003Y-00013600D01*
X00215964Y-00013733D01*
X00215925Y-00013882D01*
X00215901Y-00014032D01*
X00219347D01*
Y-00014024D01*
Y-00013992D01*
Y-00013945D01*
X00219339Y-00013882D01*
X00219331Y-00013812D01*
X00219323Y-00013726D01*
X00219308Y-00013631D01*
X00219292Y-00013529D01*
X00219237Y-00013310D01*
X00219158Y-00013074D01*
X00219111Y-00012964D01*
X00219056Y-00012854D01*
X00218994Y-00012752D01*
X00218915Y-00012658D01*
X00218907Y-00012650D01*
X00218899Y-00012635D01*
X00218876Y-00012611D01*
X00218837Y-00012580D01*
X00218797Y-00012540D01*
X00218743Y-00012501D01*
X00218688Y-00012454D01*
X00218617Y-00012407D01*
X00218538Y-00012368D01*
X00218452Y-00012321D01*
X00218350Y-00012281D01*
X00218248Y-00012242D01*
X00218138Y-00012211D01*
X00218020Y-00012187D01*
X00217887Y-00012172D01*
X00217754Y-00012164D01*
D02*
G37*
G36*
X00176195D02*
X00176156D01*
X00176101Y-00012172D01*
X00176031D01*
X00175952Y-00012187D01*
X00175858Y-00012195D01*
X00175748Y-00012219D01*
X00175630Y-00012250D01*
X00175513Y-00012281D01*
X00175387Y-00012328D01*
X00175254Y-00012384D01*
X00175128Y-00012446D01*
X00174995Y-00012525D01*
X00174869Y-00012611D01*
X00174751Y-00012713D01*
X00174641Y-00012831D01*
X00174633Y-00012839D01*
X00174618Y-00012862D01*
X00174586Y-00012902D01*
X00174555Y-00012956D01*
X00174508Y-00013019D01*
X00174461Y-00013105D01*
X00174406Y-00013200D01*
X00174359Y-00013310D01*
X00174304Y-00013435D01*
X00174249Y-00013577D01*
X00174202Y-00013726D01*
X00174155Y-00013890D01*
X00174123Y-00014071D01*
X00174092Y-00014259D01*
X00174076Y-00014463D01*
X00174068Y-00014675D01*
Y-00014691D01*
Y-00014722D01*
X00174076Y-00014785D01*
Y-00014864D01*
X00174084Y-00014958D01*
X00174100Y-00015068D01*
X00174115Y-00015193D01*
X00174139Y-00015327D01*
X00174170Y-00015468D01*
X00174210Y-00015609D01*
X00174257Y-00015758D01*
X00174312Y-00015907D01*
X00174374Y-00016057D01*
X00174453Y-00016198D01*
X00174539Y-00016339D01*
X00174641Y-00016465D01*
X00174649Y-00016473D01*
X00174665Y-00016496D01*
X00174704Y-00016528D01*
X00174751Y-00016567D01*
X00174806Y-00016614D01*
X00174877Y-00016669D01*
X00174963Y-00016732D01*
X00175057Y-00016787D01*
X00175159Y-00016849D01*
X00175277Y-00016912D01*
X00175403Y-00016967D01*
X00175544Y-00017014D01*
X00175693Y-00017053D01*
X00175850Y-00017085D01*
X00176015Y-00017108D01*
X00176195Y-00017116D01*
X00176242D01*
X00176290Y-00017108D01*
X00176360D01*
X00176439Y-00017093D01*
X00176533Y-00017085D01*
X00176643Y-00017061D01*
X00176760Y-00017038D01*
X00176878Y-00017006D01*
X00177004Y-00016959D01*
X00177129Y-00016912D01*
X00177255Y-00016849D01*
X00177380Y-00016779D01*
X00177498Y-00016692D01*
X00177616Y-00016590D01*
X00177718Y-00016480D01*
X00177726Y-00016473D01*
X00177742Y-00016449D01*
X00177765Y-00016410D01*
X00177804Y-00016363D01*
X00177843Y-00016292D01*
X00177891Y-00016214D01*
X00177938Y-00016119D01*
X00177985Y-00016010D01*
X00178032Y-00015884D01*
X00178087Y-00015750D01*
X00178126Y-00015601D01*
X00178165Y-00015437D01*
X00178204Y-00015264D01*
X00178228Y-00015068D01*
X00178244Y-00014864D01*
X00178252Y-00014652D01*
Y-00014636D01*
Y-00014597D01*
Y-00014534D01*
X00178244Y-00014455D01*
X00178236Y-00014353D01*
X00178220Y-00014244D01*
X00178204Y-00014110D01*
X00178189Y-00013977D01*
X00178118Y-00013678D01*
X00178079Y-00013529D01*
X00178024Y-00013372D01*
X00177969Y-00013223D01*
X00177891Y-00013082D01*
X00177812Y-00012941D01*
X00177718Y-00012815D01*
X00177710Y-00012807D01*
X00177694Y-00012784D01*
X00177663Y-00012752D01*
X00177616Y-00012713D01*
X00177561Y-00012666D01*
X00177498Y-00012611D01*
X00177420Y-00012548D01*
X00177325Y-00012486D01*
X00177223Y-00012431D01*
X00177114Y-00012368D01*
X00176988Y-00012313D01*
X00176855Y-00012266D01*
X00176705Y-00012227D01*
X00176549Y-00012195D01*
X00176376Y-00012172D01*
X00176195Y-00012164D01*
D02*
G37*
%LPD*%
M02*
