G04*
G04 #@! TF.GenerationSoftware,Altium Limited,Altium Designer,21.9.2 (33)*
G04*
G04 Layer_Color=8388736*
%FSAX25Y25*%
%MOIN*%
G70*
G04*
G04 #@! TF.SameCoordinates,769468AF-EC4D-4854-9D34-422089E218C9*
G04*
G04*
G04 #@! TF.FilePolarity,Negative*
G04*
G01*
G75*
%ADD11C,0.00787*%
%ADD21R,0.06496X0.04134*%
G04:AMPARAMS|DCode=22|XSize=64.96mil|YSize=41.34mil|CornerRadius=0mil|HoleSize=0mil|Usage=FLASHONLY|Rotation=225.000|XOffset=0mil|YOffset=0mil|HoleType=Round|Shape=Rectangle|*
%AMROTATEDRECTD22*
4,1,4,0.00835,0.03758,0.03758,0.00835,-0.00835,-0.03758,-0.03758,-0.00835,0.00835,0.03758,0.0*
%
%ADD22ROTATEDRECTD22*%

%ADD23R,0.04134X0.06496*%
G04:AMPARAMS|DCode=24|XSize=64.96mil|YSize=41.34mil|CornerRadius=0mil|HoleSize=0mil|Usage=FLASHONLY|Rotation=315.000|XOffset=0mil|YOffset=0mil|HoleType=Round|Shape=Rectangle|*
%AMROTATEDRECTD24*
4,1,4,-0.03758,0.00835,-0.00835,0.03758,0.03758,-0.00835,0.00835,-0.03758,-0.03758,0.00835,0.0*
%
%ADD24ROTATEDRECTD24*%

G04:AMPARAMS|DCode=25|XSize=25.59mil|YSize=27.56mil|CornerRadius=0mil|HoleSize=0mil|Usage=FLASHONLY|Rotation=315.000|XOffset=0mil|YOffset=0mil|HoleType=Round|Shape=Rectangle|*
%AMROTATEDRECTD25*
4,1,4,-0.01879,-0.00070,0.00070,0.01879,0.01879,0.00070,-0.00070,-0.01879,-0.01879,-0.00070,0.0*
%
%ADD25ROTATEDRECTD25*%

G04:AMPARAMS|DCode=26|XSize=35.43mil|YSize=135.83mil|CornerRadius=13.82mil|HoleSize=0mil|Usage=FLASHONLY|Rotation=180.000|XOffset=0mil|YOffset=0mil|HoleType=Round|Shape=RoundedRectangle|*
%AMROUNDEDRECTD26*
21,1,0.03543,0.10819,0,0,180.0*
21,1,0.00780,0.13583,0,0,180.0*
1,1,0.02764,-0.00390,0.05409*
1,1,0.02764,0.00390,0.05409*
1,1,0.02764,0.00390,-0.05409*
1,1,0.02764,-0.00390,-0.05409*
%
%ADD26ROUNDEDRECTD26*%
G04:AMPARAMS|DCode=27|XSize=35.43mil|YSize=116.14mil|CornerRadius=13.82mil|HoleSize=0mil|Usage=FLASHONLY|Rotation=180.000|XOffset=0mil|YOffset=0mil|HoleType=Round|Shape=RoundedRectangle|*
%AMROUNDEDRECTD27*
21,1,0.03543,0.08850,0,0,180.0*
21,1,0.00780,0.11614,0,0,180.0*
1,1,0.02764,-0.00390,0.04425*
1,1,0.02764,0.00390,0.04425*
1,1,0.02764,0.00390,-0.04425*
1,1,0.02764,-0.00390,-0.04425*
%
%ADD27ROUNDEDRECTD27*%
%ADD28R,0.03150X0.01968*%
%ADD29R,0.02756X0.02559*%
G04:AMPARAMS|DCode=30|XSize=25.59mil|YSize=27.56mil|CornerRadius=0mil|HoleSize=0mil|Usage=FLASHONLY|Rotation=45.000|XOffset=0mil|YOffset=0mil|HoleType=Round|Shape=Rectangle|*
%AMROTATEDRECTD30*
4,1,4,0.00070,-0.01879,-0.01879,0.00070,-0.00070,0.01879,0.01879,-0.00070,0.00070,-0.01879,0.0*
%
%ADD30ROTATEDRECTD30*%

%ADD31R,0.02559X0.02756*%
%ADD32R,0.04961X0.04961*%
%ADD33C,0.04961*%
%ADD34C,0.12205*%
%ADD35C,0.04331*%
%ADD36C,0.00591*%
G36*
X0065056Y0129114D02*
X0065080D01*
X0065136Y0129089D01*
X0065167Y0129071D01*
X0065198Y0129046D01*
X0065204Y0129040D01*
X0065210Y0129033D01*
X0065241Y0128996D01*
X0065266Y0128934D01*
X0065272Y0128897D01*
X0065278Y0128860D01*
Y0128854D01*
Y0128841D01*
X0065272Y0128823D01*
X0065266Y0128798D01*
X0065247Y0128736D01*
X0065223Y0128705D01*
X0065198Y0128674D01*
X0065192D01*
X0065185Y0128662D01*
X0065148Y0128637D01*
X0065093Y0128612D01*
X0065056Y0128606D01*
X0065018Y0128600D01*
X0065000D01*
X0064981Y0128606D01*
X0064956D01*
X0064895Y0128631D01*
X0064864Y0128643D01*
X0064833Y0128668D01*
Y0128674D01*
X0064820Y0128681D01*
X0064808Y0128699D01*
X0064796Y0128718D01*
X0064771Y0128780D01*
X0064765Y0128817D01*
X0064758Y0128860D01*
Y0128866D01*
Y0128879D01*
X0064765Y0128897D01*
X0064771Y0128928D01*
X0064789Y0128984D01*
X0064808Y0129015D01*
X0064833Y0129046D01*
X0064839Y0129052D01*
X0064845Y0129058D01*
X0064882Y0129083D01*
X0064944Y0129108D01*
X0064981Y0129120D01*
X0065037D01*
X0065056Y0129114D01*
D02*
G37*
G36*
X0053066Y0125449D02*
X0052663D01*
Y0125870D01*
X0052651D01*
Y0125864D01*
X0052638Y0125852D01*
X0052620Y0125827D01*
X0052601Y0125796D01*
X0052570Y0125759D01*
X0052533Y0125722D01*
X0052490Y0125678D01*
X0052440Y0125635D01*
X0052385Y0125586D01*
X0052316Y0125542D01*
X0052248Y0125505D01*
X0052168Y0125468D01*
X0052087Y0125437D01*
X0051995Y0125412D01*
X0051896Y0125400D01*
X0051790Y0125394D01*
X0051747D01*
X0051710Y0125400D01*
X0051673Y0125406D01*
X0051623Y0125412D01*
X0051518Y0125437D01*
X0051394Y0125474D01*
X0051270Y0125536D01*
X0051202Y0125573D01*
X0051147Y0125617D01*
X0051085Y0125672D01*
X0051029Y0125728D01*
Y0125734D01*
X0051017Y0125747D01*
X0051004Y0125765D01*
X0050986Y0125790D01*
X0050967Y0125821D01*
X0050942Y0125864D01*
X0050918Y0125914D01*
X0050893Y0125969D01*
X0050862Y0126031D01*
X0050837Y0126099D01*
X0050812Y0126174D01*
X0050794Y0126254D01*
X0050775Y0126341D01*
X0050763Y0126440D01*
X0050757Y0126539D01*
X0050750Y0126644D01*
Y0126650D01*
Y0126669D01*
Y0126706D01*
X0050757Y0126749D01*
X0050763Y0126799D01*
X0050769Y0126861D01*
X0050775Y0126929D01*
X0050788Y0127003D01*
X0050825Y0127164D01*
X0050880Y0127331D01*
X0050918Y0127412D01*
X0050961Y0127492D01*
X0051004Y0127566D01*
X0051060Y0127641D01*
X0051066Y0127647D01*
X0051072Y0127659D01*
X0051091Y0127678D01*
X0051116Y0127703D01*
X0051147Y0127727D01*
X0051190Y0127758D01*
X0051233Y0127795D01*
X0051283Y0127832D01*
X0051407Y0127901D01*
X0051549Y0127963D01*
X0051629Y0127981D01*
X0051716Y0128000D01*
X0051803Y0128012D01*
X0051902Y0128018D01*
X0051951D01*
X0051988Y0128012D01*
X0052026Y0128006D01*
X0052075Y0128000D01*
X0052187Y0127969D01*
X0052310Y0127919D01*
X0052372Y0127888D01*
X0052434Y0127845D01*
X0052496Y0127802D01*
X0052552Y0127746D01*
X0052601Y0127684D01*
X0052651Y0127610D01*
X0052663D01*
Y0129170D01*
X0053066D01*
Y0125449D01*
D02*
G37*
G36*
X0067334Y0128012D02*
X0067408Y0128006D01*
X0067501Y0127987D01*
X0067600Y0127956D01*
X0067705Y0127907D01*
X0067810Y0127839D01*
X0067853Y0127802D01*
X0067897Y0127752D01*
X0067909Y0127740D01*
X0067934Y0127703D01*
X0067965Y0127641D01*
X0068008Y0127554D01*
X0068045Y0127449D01*
X0068082Y0127319D01*
X0068107Y0127164D01*
X0068113Y0126985D01*
Y0125449D01*
X0067711D01*
Y0126879D01*
Y0126885D01*
Y0126916D01*
X0067705Y0126954D01*
Y0127003D01*
X0067693Y0127065D01*
X0067680Y0127133D01*
X0067661Y0127207D01*
X0067637Y0127282D01*
X0067606Y0127356D01*
X0067569Y0127424D01*
X0067519Y0127492D01*
X0067463Y0127554D01*
X0067401Y0127603D01*
X0067321Y0127641D01*
X0067234Y0127672D01*
X0067129Y0127678D01*
X0067117D01*
X0067080Y0127672D01*
X0067024Y0127665D01*
X0066956Y0127647D01*
X0066875Y0127622D01*
X0066789Y0127579D01*
X0066708Y0127523D01*
X0066628Y0127449D01*
X0066622Y0127436D01*
X0066597Y0127412D01*
X0066566Y0127362D01*
X0066529Y0127294D01*
X0066492Y0127214D01*
X0066461Y0127114D01*
X0066436Y0127003D01*
X0066430Y0126879D01*
Y0125449D01*
X0066027D01*
Y0127963D01*
X0066430D01*
Y0127542D01*
X0066442D01*
X0066448Y0127548D01*
X0066454Y0127560D01*
X0066473Y0127585D01*
X0066498Y0127616D01*
X0066523Y0127653D01*
X0066560Y0127690D01*
X0066603Y0127734D01*
X0066653Y0127783D01*
X0066708Y0127826D01*
X0066770Y0127870D01*
X0066838Y0127907D01*
X0066913Y0127944D01*
X0066987Y0127975D01*
X0067074Y0128000D01*
X0067166Y0128012D01*
X0067265Y0128018D01*
X0067303D01*
X0067334Y0128012D01*
D02*
G37*
G36*
X0050336Y0128000D02*
X0050410Y0127994D01*
X0050453Y0127981D01*
X0050484Y0127969D01*
Y0127554D01*
X0050478Y0127560D01*
X0050466Y0127566D01*
X0050441Y0127579D01*
X0050410Y0127597D01*
X0050367Y0127610D01*
X0050311Y0127622D01*
X0050249Y0127628D01*
X0050181Y0127635D01*
X0050169D01*
X0050138Y0127628D01*
X0050088Y0127622D01*
X0050032Y0127603D01*
X0049958Y0127573D01*
X0049890Y0127529D01*
X0049816Y0127467D01*
X0049748Y0127387D01*
X0049742Y0127374D01*
X0049723Y0127343D01*
X0049692Y0127288D01*
X0049661Y0127214D01*
X0049630Y0127121D01*
X0049599Y0127003D01*
X0049580Y0126873D01*
X0049574Y0126725D01*
Y0125449D01*
X0049172D01*
Y0127963D01*
X0049574D01*
Y0127443D01*
X0049587D01*
Y0127449D01*
X0049593Y0127455D01*
X0049605Y0127486D01*
X0049624Y0127535D01*
X0049655Y0127597D01*
X0049686Y0127659D01*
X0049735Y0127727D01*
X0049785Y0127795D01*
X0049847Y0127857D01*
X0049853Y0127864D01*
X0049878Y0127882D01*
X0049915Y0127907D01*
X0049964Y0127932D01*
X0050020Y0127956D01*
X0050088Y0127981D01*
X0050162Y0128000D01*
X0050243Y0128006D01*
X0050299D01*
X0050336Y0128000D01*
D02*
G37*
G36*
X0061075Y0125449D02*
X0060673D01*
Y0125846D01*
X0060661D01*
Y0125839D01*
X0060648Y0125827D01*
X0060636Y0125802D01*
X0060611Y0125777D01*
X0060555Y0125703D01*
X0060469Y0125623D01*
X0060419Y0125579D01*
X0060364Y0125536D01*
X0060302Y0125499D01*
X0060227Y0125462D01*
X0060153Y0125437D01*
X0060073Y0125412D01*
X0059980Y0125400D01*
X0059887Y0125394D01*
X0059850D01*
X0059806Y0125400D01*
X0059745Y0125412D01*
X0059676Y0125425D01*
X0059602Y0125449D01*
X0059522Y0125480D01*
X0059441Y0125530D01*
X0059355Y0125586D01*
X0059274Y0125654D01*
X0059200Y0125740D01*
X0059132Y0125846D01*
X0059070Y0125963D01*
X0059026Y0126105D01*
X0059002Y0126273D01*
X0058989Y0126359D01*
Y0126458D01*
Y0127963D01*
X0059386D01*
Y0126520D01*
Y0126514D01*
Y0126489D01*
X0059392Y0126446D01*
X0059398Y0126397D01*
X0059404Y0126335D01*
X0059416Y0126273D01*
X0059435Y0126198D01*
X0059460Y0126124D01*
X0059497Y0126050D01*
X0059534Y0125982D01*
X0059584Y0125914D01*
X0059645Y0125852D01*
X0059714Y0125802D01*
X0059794Y0125765D01*
X0059893Y0125734D01*
X0059998Y0125728D01*
X0060011D01*
X0060048Y0125734D01*
X0060103Y0125740D01*
X0060165Y0125753D01*
X0060246Y0125784D01*
X0060326Y0125821D01*
X0060407Y0125870D01*
X0060481Y0125945D01*
X0060487Y0125957D01*
X0060512Y0125982D01*
X0060543Y0126031D01*
X0060580Y0126099D01*
X0060611Y0126180D01*
X0060642Y0126279D01*
X0060667Y0126390D01*
X0060673Y0126514D01*
Y0127963D01*
X0061075D01*
Y0125449D01*
D02*
G37*
G36*
X0065210D02*
X0064808D01*
Y0127963D01*
X0065210D01*
Y0125449D01*
D02*
G37*
G36*
X0063991D02*
X0063589D01*
Y0129170D01*
X0063991D01*
Y0125449D01*
D02*
G37*
G36*
X0047612Y0128012D02*
X0047668Y0128006D01*
X0047736Y0127987D01*
X0047810Y0127969D01*
X0047891Y0127938D01*
X0047977Y0127901D01*
X0048058Y0127851D01*
X0048138Y0127789D01*
X0048213Y0127715D01*
X0048281Y0127622D01*
X0048336Y0127517D01*
X0048380Y0127393D01*
X0048404Y0127251D01*
X0048417Y0127084D01*
Y0125449D01*
X0048015D01*
Y0125839D01*
X0048002D01*
Y0125833D01*
X0047990Y0125821D01*
X0047977Y0125796D01*
X0047953Y0125771D01*
X0047891Y0125697D01*
X0047810Y0125617D01*
X0047699Y0125536D01*
X0047569Y0125462D01*
X0047488Y0125437D01*
X0047408Y0125412D01*
X0047321Y0125400D01*
X0047228Y0125394D01*
X0047191D01*
X0047166Y0125400D01*
X0047098Y0125406D01*
X0047018Y0125418D01*
X0046919Y0125443D01*
X0046826Y0125474D01*
X0046727Y0125524D01*
X0046640Y0125586D01*
X0046634Y0125598D01*
X0046609Y0125623D01*
X0046572Y0125666D01*
X0046535Y0125728D01*
X0046498Y0125802D01*
X0046461Y0125889D01*
X0046436Y0125994D01*
X0046430Y0126112D01*
Y0126118D01*
Y0126143D01*
X0046436Y0126180D01*
X0046442Y0126223D01*
X0046455Y0126279D01*
X0046473Y0126341D01*
X0046498Y0126409D01*
X0046535Y0126477D01*
X0046578Y0126551D01*
X0046634Y0126626D01*
X0046702Y0126694D01*
X0046783Y0126755D01*
X0046876Y0126817D01*
X0046987Y0126867D01*
X0047111Y0126904D01*
X0047259Y0126935D01*
X0048015Y0127040D01*
Y0127046D01*
Y0127065D01*
X0048008Y0127102D01*
Y0127139D01*
X0047996Y0127189D01*
X0047990Y0127244D01*
X0047953Y0127362D01*
X0047922Y0127418D01*
X0047891Y0127473D01*
X0047847Y0127529D01*
X0047798Y0127579D01*
X0047736Y0127622D01*
X0047668Y0127653D01*
X0047587Y0127672D01*
X0047495Y0127678D01*
X0047451D01*
X0047420Y0127672D01*
X0047377D01*
X0047334Y0127659D01*
X0047222Y0127641D01*
X0047098Y0127603D01*
X0046962Y0127548D01*
X0046888Y0127511D01*
X0046820Y0127473D01*
X0046745Y0127424D01*
X0046677Y0127368D01*
Y0127783D01*
X0046684D01*
X0046696Y0127795D01*
X0046715Y0127808D01*
X0046745Y0127820D01*
X0046777Y0127839D01*
X0046820Y0127857D01*
X0046869Y0127876D01*
X0046925Y0127901D01*
X0047049Y0127944D01*
X0047197Y0127981D01*
X0047358Y0128006D01*
X0047532Y0128018D01*
X0047569D01*
X0047612Y0128012D01*
D02*
G37*
G36*
X0041923Y0128959D02*
X0041967D01*
X0042010Y0128953D01*
X0042109Y0128941D01*
X0042227Y0128910D01*
X0042351Y0128873D01*
X0042468Y0128817D01*
X0042573Y0128743D01*
X0042580D01*
X0042586Y0128730D01*
X0042617Y0128705D01*
X0042660Y0128656D01*
X0042710Y0128588D01*
X0042753Y0128501D01*
X0042796Y0128402D01*
X0042827Y0128291D01*
X0042840Y0128229D01*
Y0128161D01*
Y0128154D01*
Y0128148D01*
Y0128111D01*
X0042833Y0128055D01*
X0042821Y0127987D01*
X0042803Y0127901D01*
X0042772Y0127814D01*
X0042734Y0127727D01*
X0042679Y0127641D01*
X0042673Y0127628D01*
X0042648Y0127603D01*
X0042611Y0127566D01*
X0042561Y0127517D01*
X0042499Y0127467D01*
X0042425Y0127412D01*
X0042332Y0127368D01*
X0042233Y0127325D01*
Y0127319D01*
X0042252D01*
X0042270Y0127313D01*
X0042289Y0127306D01*
X0042357Y0127294D01*
X0042437Y0127269D01*
X0042524Y0127232D01*
X0042617Y0127189D01*
X0042710Y0127127D01*
X0042796Y0127046D01*
X0042809Y0127034D01*
X0042833Y0127003D01*
X0042864Y0126960D01*
X0042908Y0126892D01*
X0042945Y0126805D01*
X0042982Y0126706D01*
X0043007Y0126588D01*
X0043013Y0126458D01*
Y0126452D01*
Y0126440D01*
Y0126415D01*
X0043007Y0126384D01*
X0043001Y0126347D01*
X0042994Y0126304D01*
X0042970Y0126198D01*
X0042933Y0126081D01*
X0042877Y0125957D01*
X0042840Y0125901D01*
X0042796Y0125839D01*
X0042741Y0125784D01*
X0042685Y0125728D01*
X0042679D01*
X0042673Y0125716D01*
X0042654Y0125703D01*
X0042629Y0125685D01*
X0042598Y0125666D01*
X0042555Y0125641D01*
X0042462Y0125592D01*
X0042344Y0125536D01*
X0042208Y0125493D01*
X0042047Y0125462D01*
X0041967Y0125456D01*
X0041874Y0125449D01*
X0040846D01*
Y0128965D01*
X0041892D01*
X0041923Y0128959D01*
D02*
G37*
G36*
X0062419Y0127963D02*
X0063056D01*
Y0127616D01*
X0062419D01*
Y0126198D01*
Y0126186D01*
Y0126155D01*
X0062425Y0126112D01*
X0062431Y0126056D01*
X0062456Y0125938D01*
X0062474Y0125883D01*
X0062505Y0125839D01*
X0062511Y0125833D01*
X0062524Y0125821D01*
X0062542Y0125808D01*
X0062573Y0125790D01*
X0062611Y0125765D01*
X0062660Y0125753D01*
X0062722Y0125740D01*
X0062790Y0125734D01*
X0062815D01*
X0062846Y0125740D01*
X0062883Y0125747D01*
X0062969Y0125771D01*
X0063013Y0125790D01*
X0063056Y0125815D01*
Y0125468D01*
X0063050D01*
X0063031Y0125456D01*
X0063001Y0125449D01*
X0062957Y0125437D01*
X0062901Y0125425D01*
X0062840Y0125412D01*
X0062765Y0125406D01*
X0062679Y0125400D01*
X0062648D01*
X0062617Y0125406D01*
X0062573Y0125412D01*
X0062524Y0125425D01*
X0062468Y0125437D01*
X0062412Y0125462D01*
X0062350Y0125493D01*
X0062289Y0125530D01*
X0062227Y0125579D01*
X0062171Y0125635D01*
X0062121Y0125709D01*
X0062078Y0125790D01*
X0062047Y0125889D01*
X0062022Y0126000D01*
X0062016Y0126130D01*
Y0127616D01*
X0061589D01*
Y0127963D01*
X0062016D01*
Y0128575D01*
X0062419Y0128705D01*
Y0127963D01*
D02*
G37*
G36*
X0069946Y0128012D02*
X0069989Y0128006D01*
X0070032Y0128000D01*
X0070144Y0127981D01*
X0070267Y0127938D01*
X0070391Y0127882D01*
X0070453Y0127845D01*
X0070515Y0127802D01*
X0070571Y0127752D01*
X0070626Y0127696D01*
X0070633Y0127690D01*
X0070639Y0127684D01*
X0070651Y0127665D01*
X0070670Y0127641D01*
X0070688Y0127603D01*
X0070713Y0127566D01*
X0070738Y0127523D01*
X0070763Y0127467D01*
X0070788Y0127405D01*
X0070812Y0127343D01*
X0070837Y0127269D01*
X0070856Y0127189D01*
X0070874Y0127102D01*
X0070886Y0127015D01*
X0070899Y0126916D01*
Y0126811D01*
Y0126601D01*
X0069122D01*
Y0126595D01*
Y0126582D01*
Y0126564D01*
X0069129Y0126533D01*
X0069135Y0126496D01*
Y0126458D01*
X0069153Y0126359D01*
X0069184Y0126260D01*
X0069221Y0126149D01*
X0069277Y0126044D01*
X0069345Y0125951D01*
X0069358Y0125938D01*
X0069382Y0125914D01*
X0069432Y0125883D01*
X0069500Y0125839D01*
X0069587Y0125796D01*
X0069686Y0125765D01*
X0069803Y0125740D01*
X0069939Y0125728D01*
X0069983D01*
X0070014Y0125734D01*
X0070051D01*
X0070094Y0125740D01*
X0070199Y0125765D01*
X0070317Y0125796D01*
X0070447Y0125846D01*
X0070583Y0125914D01*
X0070651Y0125957D01*
X0070719Y0126006D01*
Y0125629D01*
X0070713D01*
X0070707Y0125617D01*
X0070688Y0125610D01*
X0070657Y0125592D01*
X0070626Y0125573D01*
X0070589Y0125555D01*
X0070540Y0125536D01*
X0070490Y0125511D01*
X0070428Y0125487D01*
X0070360Y0125468D01*
X0070212Y0125431D01*
X0070038Y0125406D01*
X0069847Y0125394D01*
X0069797D01*
X0069760Y0125400D01*
X0069717Y0125406D01*
X0069661Y0125412D01*
X0069543Y0125437D01*
X0069407Y0125474D01*
X0069271Y0125536D01*
X0069203Y0125579D01*
X0069135Y0125623D01*
X0069073Y0125672D01*
X0069011Y0125734D01*
X0069005Y0125740D01*
X0068999Y0125753D01*
X0068986Y0125771D01*
X0068961Y0125796D01*
X0068943Y0125833D01*
X0068918Y0125876D01*
X0068887Y0125926D01*
X0068862Y0125982D01*
X0068831Y0126044D01*
X0068807Y0126118D01*
X0068776Y0126198D01*
X0068757Y0126285D01*
X0068739Y0126378D01*
X0068720Y0126477D01*
X0068714Y0126582D01*
X0068708Y0126694D01*
Y0126700D01*
Y0126718D01*
Y0126749D01*
X0068714Y0126793D01*
X0068720Y0126842D01*
X0068726Y0126898D01*
X0068732Y0126966D01*
X0068751Y0127034D01*
X0068788Y0127183D01*
X0068844Y0127343D01*
X0068881Y0127424D01*
X0068931Y0127498D01*
X0068980Y0127579D01*
X0069036Y0127647D01*
X0069042Y0127653D01*
X0069054Y0127665D01*
X0069073Y0127684D01*
X0069098Y0127703D01*
X0069129Y0127734D01*
X0069166Y0127764D01*
X0069215Y0127795D01*
X0069265Y0127832D01*
X0069382Y0127901D01*
X0069525Y0127963D01*
X0069605Y0127981D01*
X0069686Y0128000D01*
X0069772Y0128012D01*
X0069865Y0128018D01*
X0069915D01*
X0069946Y0128012D01*
D02*
G37*
G36*
X0056903Y0129021D02*
X0056965Y0129015D01*
X0057039Y0129002D01*
X0057120Y0128984D01*
X0057207Y0128965D01*
X0057293Y0128941D01*
X0057392Y0128910D01*
X0057485Y0128866D01*
X0057584Y0128817D01*
X0057683Y0128761D01*
X0057776Y0128693D01*
X0057869Y0128619D01*
X0057956Y0128532D01*
X0057962Y0128526D01*
X0057974Y0128507D01*
X0057999Y0128482D01*
X0058024Y0128445D01*
X0058061Y0128396D01*
X0058098Y0128334D01*
X0058135Y0128266D01*
X0058178Y0128192D01*
X0058222Y0128099D01*
X0058259Y0128006D01*
X0058296Y0127901D01*
X0058333Y0127783D01*
X0058358Y0127665D01*
X0058383Y0127535D01*
X0058395Y0127393D01*
X0058401Y0127251D01*
Y0127238D01*
Y0127214D01*
Y0127170D01*
X0058395Y0127108D01*
X0058389Y0127034D01*
X0058376Y0126954D01*
X0058364Y0126861D01*
X0058346Y0126755D01*
X0058321Y0126650D01*
X0058290Y0126539D01*
X0058253Y0126427D01*
X0058209Y0126316D01*
X0058154Y0126198D01*
X0058092Y0126093D01*
X0058024Y0125988D01*
X0057943Y0125889D01*
X0057937Y0125883D01*
X0057925Y0125870D01*
X0057894Y0125846D01*
X0057863Y0125815D01*
X0057813Y0125771D01*
X0057758Y0125734D01*
X0057696Y0125685D01*
X0057621Y0125641D01*
X0057541Y0125598D01*
X0057448Y0125548D01*
X0057349Y0125511D01*
X0057238Y0125474D01*
X0057120Y0125437D01*
X0056996Y0125412D01*
X0056866Y0125400D01*
X0056724Y0125394D01*
X0056693D01*
X0056650Y0125400D01*
X0056600D01*
X0056538Y0125406D01*
X0056464Y0125418D01*
X0056383Y0125437D01*
X0056291Y0125456D01*
X0056198Y0125480D01*
X0056099Y0125511D01*
X0056000Y0125555D01*
X0055901Y0125598D01*
X0055801Y0125654D01*
X0055702Y0125722D01*
X0055610Y0125796D01*
X0055523Y0125883D01*
X0055517Y0125889D01*
X0055504Y0125908D01*
X0055480Y0125932D01*
X0055455Y0125969D01*
X0055418Y0126019D01*
X0055381Y0126081D01*
X0055343Y0126149D01*
X0055300Y0126229D01*
X0055257Y0126316D01*
X0055220Y0126409D01*
X0055182Y0126514D01*
X0055145Y0126632D01*
X0055121Y0126749D01*
X0055096Y0126879D01*
X0055083Y0127022D01*
X0055077Y0127164D01*
Y0127176D01*
Y0127201D01*
X0055083Y0127244D01*
Y0127306D01*
X0055090Y0127374D01*
X0055102Y0127461D01*
X0055114Y0127554D01*
X0055133Y0127653D01*
X0055158Y0127758D01*
X0055189Y0127870D01*
X0055226Y0127981D01*
X0055269Y0128093D01*
X0055325Y0128204D01*
X0055387Y0128315D01*
X0055455Y0128421D01*
X0055535Y0128520D01*
X0055541Y0128526D01*
X0055554Y0128544D01*
X0055585Y0128569D01*
X0055622Y0128600D01*
X0055665Y0128637D01*
X0055721Y0128681D01*
X0055789Y0128724D01*
X0055863Y0128773D01*
X0055950Y0128823D01*
X0056043Y0128866D01*
X0056142Y0128910D01*
X0056253Y0128947D01*
X0056377Y0128978D01*
X0056507Y0129009D01*
X0056643Y0129021D01*
X0056786Y0129027D01*
X0056854D01*
X0056903Y0129021D01*
D02*
G37*
G36*
X0044876Y0128012D02*
X0044919Y0128006D01*
X0044975Y0128000D01*
X0045099Y0127975D01*
X0045241Y0127932D01*
X0045384Y0127870D01*
X0045458Y0127832D01*
X0045526Y0127789D01*
X0045594Y0127734D01*
X0045656Y0127672D01*
X0045662Y0127665D01*
X0045669Y0127653D01*
X0045687Y0127635D01*
X0045706Y0127610D01*
X0045730Y0127573D01*
X0045755Y0127529D01*
X0045786Y0127480D01*
X0045817Y0127424D01*
X0045842Y0127356D01*
X0045873Y0127288D01*
X0045897Y0127207D01*
X0045922Y0127121D01*
X0045941Y0127028D01*
X0045959Y0126929D01*
X0045966Y0126824D01*
X0045972Y0126712D01*
Y0126706D01*
Y0126687D01*
Y0126656D01*
X0045966Y0126613D01*
X0045959Y0126564D01*
X0045953Y0126502D01*
X0045941Y0126440D01*
X0045928Y0126365D01*
X0045891Y0126217D01*
X0045829Y0126056D01*
X0045792Y0125976D01*
X0045743Y0125895D01*
X0045693Y0125821D01*
X0045631Y0125753D01*
X0045625Y0125747D01*
X0045613Y0125740D01*
X0045594Y0125722D01*
X0045569Y0125697D01*
X0045532Y0125672D01*
X0045495Y0125641D01*
X0045446Y0125604D01*
X0045390Y0125573D01*
X0045328Y0125542D01*
X0045260Y0125505D01*
X0045186Y0125474D01*
X0045105Y0125449D01*
X0045019Y0125425D01*
X0044926Y0125412D01*
X0044827Y0125400D01*
X0044721Y0125394D01*
X0044666D01*
X0044629Y0125400D01*
X0044585Y0125406D01*
X0044530Y0125412D01*
X0044468Y0125425D01*
X0044399Y0125437D01*
X0044257Y0125480D01*
X0044109Y0125542D01*
X0044034Y0125579D01*
X0043966Y0125629D01*
X0043898Y0125678D01*
X0043830Y0125740D01*
X0043824Y0125747D01*
X0043818Y0125759D01*
X0043799Y0125777D01*
X0043780Y0125802D01*
X0043756Y0125839D01*
X0043725Y0125883D01*
X0043694Y0125932D01*
X0043669Y0125988D01*
X0043638Y0126056D01*
X0043607Y0126124D01*
X0043576Y0126198D01*
X0043551Y0126285D01*
X0043514Y0126471D01*
X0043508Y0126570D01*
X0043502Y0126675D01*
Y0126681D01*
Y0126706D01*
Y0126737D01*
X0043508Y0126780D01*
X0043514Y0126830D01*
X0043521Y0126892D01*
X0043533Y0126960D01*
X0043545Y0127034D01*
X0043582Y0127195D01*
X0043644Y0127356D01*
X0043688Y0127436D01*
X0043731Y0127517D01*
X0043780Y0127591D01*
X0043842Y0127659D01*
X0043849Y0127665D01*
X0043861Y0127678D01*
X0043880Y0127690D01*
X0043904Y0127715D01*
X0043941Y0127740D01*
X0043985Y0127771D01*
X0044034Y0127808D01*
X0044090Y0127839D01*
X0044152Y0127870D01*
X0044226Y0127907D01*
X0044300Y0127938D01*
X0044387Y0127963D01*
X0044474Y0127987D01*
X0044573Y0128006D01*
X0044678Y0128012D01*
X0044783Y0128018D01*
X0044839D01*
X0044876Y0128012D01*
D02*
G37*
G36*
X0074873Y0090052D02*
X0074898D01*
X0074953Y0090027D01*
X0074984Y0090009D01*
X0075015Y0089984D01*
X0075021Y0089978D01*
X0075028Y0089972D01*
X0075059Y0089934D01*
X0075083Y0089872D01*
X0075090Y0089835D01*
X0075096Y0089798D01*
Y0089792D01*
Y0089780D01*
X0075090Y0089761D01*
X0075083Y0089736D01*
X0075065Y0089674D01*
X0075040Y0089644D01*
X0075015Y0089613D01*
X0075009D01*
X0075003Y0089600D01*
X0074966Y0089575D01*
X0074910Y0089551D01*
X0074873Y0089544D01*
X0074836Y0089538D01*
X0074817D01*
X0074799Y0089544D01*
X0074774D01*
X0074712Y0089569D01*
X0074681Y0089582D01*
X0074650Y0089606D01*
Y0089613D01*
X0074638Y0089619D01*
X0074625Y0089637D01*
X0074613Y0089656D01*
X0074588Y0089718D01*
X0074582Y0089755D01*
X0074576Y0089798D01*
Y0089804D01*
Y0089817D01*
X0074582Y0089835D01*
X0074588Y0089866D01*
X0074607Y0089922D01*
X0074625Y0089953D01*
X0074650Y0089984D01*
X0074656Y0089990D01*
X0074662Y0089996D01*
X0074699Y0090021D01*
X0074761Y0090046D01*
X0074799Y0090058D01*
X0074854D01*
X0074873Y0090052D01*
D02*
G37*
G36*
X0052304Y0089959D02*
X0052354D01*
X0052465Y0089947D01*
X0052589Y0089934D01*
X0052713Y0089910D01*
X0052830Y0089879D01*
X0052880Y0089860D01*
X0052929Y0089835D01*
Y0089371D01*
X0052923D01*
X0052917Y0089384D01*
X0052898Y0089390D01*
X0052874Y0089408D01*
X0052843Y0089421D01*
X0052806Y0089439D01*
X0052713Y0089483D01*
X0052601Y0089520D01*
X0052465Y0089557D01*
X0052304Y0089582D01*
X0052131Y0089588D01*
X0052081D01*
X0052044Y0089582D01*
X0052007D01*
X0051957Y0089575D01*
X0051859Y0089557D01*
X0051852D01*
X0051834Y0089551D01*
X0051809Y0089544D01*
X0051778Y0089538D01*
X0051704Y0089507D01*
X0051617Y0089470D01*
X0051611D01*
X0051599Y0089458D01*
X0051580Y0089445D01*
X0051555Y0089427D01*
X0051499Y0089371D01*
X0051444Y0089303D01*
Y0089297D01*
X0051431Y0089284D01*
X0051425Y0089266D01*
X0051413Y0089235D01*
X0051400Y0089198D01*
X0051394Y0089161D01*
X0051382Y0089062D01*
Y0089055D01*
Y0089037D01*
Y0089012D01*
X0051388Y0088981D01*
X0051400Y0088907D01*
X0051431Y0088826D01*
Y0088820D01*
X0051444Y0088808D01*
X0051450Y0088789D01*
X0051468Y0088765D01*
X0051518Y0088709D01*
X0051580Y0088647D01*
X0051586Y0088641D01*
X0051599Y0088635D01*
X0051617Y0088616D01*
X0051648Y0088597D01*
X0051685Y0088573D01*
X0051722Y0088548D01*
X0051821Y0088486D01*
X0051828Y0088480D01*
X0051846Y0088474D01*
X0051877Y0088455D01*
X0051914Y0088436D01*
X0051964Y0088412D01*
X0052019Y0088387D01*
X0052143Y0088325D01*
X0052149Y0088319D01*
X0052174Y0088306D01*
X0052211Y0088288D01*
X0052261Y0088263D01*
X0052316Y0088238D01*
X0052378Y0088201D01*
X0052502Y0088127D01*
X0052508Y0088121D01*
X0052533Y0088108D01*
X0052564Y0088090D01*
X0052607Y0088059D01*
X0052700Y0087985D01*
X0052799Y0087898D01*
X0052806Y0087892D01*
X0052824Y0087879D01*
X0052843Y0087848D01*
X0052874Y0087817D01*
X0052905Y0087774D01*
X0052942Y0087731D01*
X0053004Y0087619D01*
X0053010Y0087613D01*
X0053016Y0087595D01*
X0053028Y0087564D01*
X0053041Y0087520D01*
X0053053Y0087471D01*
X0053066Y0087409D01*
X0053078Y0087347D01*
Y0087273D01*
Y0087260D01*
Y0087229D01*
X0053072Y0087180D01*
X0053066Y0087118D01*
X0053053Y0087050D01*
X0053035Y0086976D01*
X0053010Y0086901D01*
X0052973Y0086833D01*
X0052966Y0086827D01*
X0052954Y0086802D01*
X0052929Y0086771D01*
X0052905Y0086728D01*
X0052861Y0086685D01*
X0052818Y0086635D01*
X0052762Y0086586D01*
X0052700Y0086536D01*
X0052694Y0086530D01*
X0052669Y0086518D01*
X0052632Y0086499D01*
X0052583Y0086474D01*
X0052527Y0086449D01*
X0052459Y0086425D01*
X0052378Y0086400D01*
X0052298Y0086381D01*
X0052286D01*
X0052261Y0086375D01*
X0052218Y0086369D01*
X0052156Y0086357D01*
X0052087Y0086350D01*
X0052007Y0086338D01*
X0051920Y0086332D01*
X0051772D01*
X0051704Y0086338D01*
X0051617Y0086344D01*
X0051599D01*
X0051574Y0086350D01*
X0051543Y0086357D01*
X0051462Y0086363D01*
X0051369Y0086381D01*
X0051363D01*
X0051345Y0086387D01*
X0051320Y0086394D01*
X0051289Y0086400D01*
X0051215Y0086418D01*
X0051128Y0086443D01*
X0051122D01*
X0051109Y0086449D01*
X0051091Y0086456D01*
X0051066Y0086468D01*
X0051004Y0086493D01*
X0050942Y0086530D01*
Y0087013D01*
X0050949Y0087007D01*
X0050961Y0087000D01*
X0050973Y0086988D01*
X0050998Y0086969D01*
X0051066Y0086926D01*
X0051147Y0086877D01*
X0051153D01*
X0051165Y0086870D01*
X0051190Y0086858D01*
X0051221Y0086846D01*
X0051301Y0086809D01*
X0051388Y0086778D01*
X0051394D01*
X0051413Y0086771D01*
X0051437Y0086765D01*
X0051468Y0086759D01*
X0051555Y0086734D01*
X0051648Y0086716D01*
X0051673D01*
X0051697Y0086709D01*
X0051728D01*
X0051803Y0086703D01*
X0051889Y0086697D01*
X0051951D01*
X0052019Y0086703D01*
X0052106Y0086716D01*
X0052199Y0086728D01*
X0052292Y0086753D01*
X0052378Y0086790D01*
X0052459Y0086833D01*
X0052465Y0086839D01*
X0052490Y0086858D01*
X0052521Y0086895D01*
X0052552Y0086939D01*
X0052589Y0086994D01*
X0052614Y0087068D01*
X0052638Y0087149D01*
X0052645Y0087242D01*
Y0087248D01*
Y0087266D01*
Y0087291D01*
X0052638Y0087328D01*
X0052620Y0087409D01*
X0052583Y0087489D01*
Y0087496D01*
X0052570Y0087508D01*
X0052558Y0087527D01*
X0052539Y0087551D01*
X0052484Y0087613D01*
X0052409Y0087681D01*
X0052403Y0087687D01*
X0052391Y0087700D01*
X0052366Y0087712D01*
X0052335Y0087737D01*
X0052298Y0087762D01*
X0052255Y0087793D01*
X0052149Y0087848D01*
X0052143Y0087855D01*
X0052125Y0087861D01*
X0052094Y0087879D01*
X0052050Y0087898D01*
X0052007Y0087929D01*
X0051951Y0087954D01*
X0051821Y0088022D01*
X0051815Y0088028D01*
X0051790Y0088040D01*
X0051753Y0088059D01*
X0051710Y0088077D01*
X0051660Y0088108D01*
X0051605Y0088139D01*
X0051481Y0088207D01*
X0051475Y0088214D01*
X0051456Y0088226D01*
X0051425Y0088245D01*
X0051388Y0088269D01*
X0051295Y0088337D01*
X0051202Y0088418D01*
X0051196Y0088424D01*
X0051184Y0088436D01*
X0051159Y0088461D01*
X0051134Y0088492D01*
X0051103Y0088535D01*
X0051072Y0088579D01*
X0051017Y0088678D01*
Y0088684D01*
X0051004Y0088703D01*
X0050998Y0088734D01*
X0050986Y0088777D01*
X0050973Y0088826D01*
X0050961Y0088888D01*
X0050955Y0088950D01*
X0050949Y0089025D01*
Y0089037D01*
Y0089068D01*
X0050955Y0089111D01*
X0050961Y0089167D01*
X0050973Y0089235D01*
X0050992Y0089303D01*
X0051017Y0089371D01*
X0051054Y0089439D01*
X0051060Y0089445D01*
X0051072Y0089470D01*
X0051097Y0089501D01*
X0051128Y0089544D01*
X0051165Y0089588D01*
X0051215Y0089637D01*
X0051270Y0089687D01*
X0051332Y0089730D01*
X0051338Y0089736D01*
X0051363Y0089749D01*
X0051400Y0089773D01*
X0051444Y0089798D01*
X0051506Y0089823D01*
X0051568Y0089854D01*
X0051642Y0089879D01*
X0051722Y0089903D01*
X0051735D01*
X0051759Y0089916D01*
X0051803Y0089922D01*
X0051865Y0089934D01*
X0051933Y0089947D01*
X0052007Y0089953D01*
X0052174Y0089965D01*
X0052261D01*
X0052304Y0089959D01*
D02*
G37*
G36*
X0060035Y0086387D02*
X0059633D01*
Y0086809D01*
X0059621D01*
Y0086802D01*
X0059608Y0086790D01*
X0059590Y0086765D01*
X0059571Y0086734D01*
X0059540Y0086697D01*
X0059503Y0086660D01*
X0059460Y0086617D01*
X0059410Y0086573D01*
X0059355Y0086524D01*
X0059286Y0086480D01*
X0059218Y0086443D01*
X0059138Y0086406D01*
X0059057Y0086375D01*
X0058965Y0086350D01*
X0058865Y0086338D01*
X0058760Y0086332D01*
X0058717D01*
X0058680Y0086338D01*
X0058643Y0086344D01*
X0058593Y0086350D01*
X0058488Y0086375D01*
X0058364Y0086412D01*
X0058240Y0086474D01*
X0058172Y0086511D01*
X0058117Y0086555D01*
X0058055Y0086610D01*
X0057999Y0086666D01*
Y0086672D01*
X0057986Y0086685D01*
X0057974Y0086703D01*
X0057956Y0086728D01*
X0057937Y0086759D01*
X0057912Y0086802D01*
X0057888Y0086852D01*
X0057863Y0086908D01*
X0057832Y0086969D01*
X0057807Y0087037D01*
X0057782Y0087112D01*
X0057764Y0087192D01*
X0057745Y0087279D01*
X0057733Y0087378D01*
X0057727Y0087477D01*
X0057720Y0087582D01*
Y0087588D01*
Y0087607D01*
Y0087644D01*
X0057727Y0087687D01*
X0057733Y0087737D01*
X0057739Y0087799D01*
X0057745Y0087867D01*
X0057758Y0087941D01*
X0057795Y0088102D01*
X0057850Y0088269D01*
X0057888Y0088350D01*
X0057931Y0088430D01*
X0057974Y0088504D01*
X0058030Y0088579D01*
X0058036Y0088585D01*
X0058042Y0088597D01*
X0058061Y0088616D01*
X0058086Y0088641D01*
X0058117Y0088665D01*
X0058160Y0088696D01*
X0058203Y0088734D01*
X0058253Y0088771D01*
X0058376Y0088839D01*
X0058519Y0088901D01*
X0058599Y0088919D01*
X0058686Y0088938D01*
X0058773Y0088950D01*
X0058872Y0088956D01*
X0058921D01*
X0058958Y0088950D01*
X0058995Y0088944D01*
X0059045Y0088938D01*
X0059157Y0088907D01*
X0059280Y0088857D01*
X0059342Y0088826D01*
X0059404Y0088783D01*
X0059466Y0088740D01*
X0059522Y0088684D01*
X0059571Y0088622D01*
X0059621Y0088548D01*
X0059633D01*
Y0090108D01*
X0060035D01*
Y0086387D01*
D02*
G37*
G36*
X0048089Y0088950D02*
X0048132Y0088944D01*
X0048175Y0088938D01*
X0048287Y0088913D01*
X0048411Y0088876D01*
X0048534Y0088814D01*
X0048596Y0088777D01*
X0048658Y0088727D01*
X0048714Y0088678D01*
X0048770Y0088616D01*
X0048776Y0088610D01*
X0048782Y0088604D01*
X0048794Y0088579D01*
X0048813Y0088554D01*
X0048831Y0088523D01*
X0048856Y0088480D01*
X0048881Y0088430D01*
X0048906Y0088381D01*
X0048931Y0088319D01*
X0048955Y0088251D01*
X0048980Y0088177D01*
X0048999Y0088096D01*
X0049030Y0087916D01*
X0049042Y0087817D01*
Y0087712D01*
Y0087706D01*
Y0087687D01*
Y0087650D01*
X0049036Y0087607D01*
Y0087558D01*
X0049023Y0087496D01*
X0049017Y0087428D01*
X0049005Y0087353D01*
X0048968Y0087192D01*
X0048912Y0087025D01*
X0048875Y0086945D01*
X0048838Y0086864D01*
X0048788Y0086784D01*
X0048733Y0086709D01*
X0048726Y0086703D01*
X0048720Y0086691D01*
X0048702Y0086672D01*
X0048677Y0086654D01*
X0048646Y0086623D01*
X0048609Y0086592D01*
X0048565Y0086555D01*
X0048516Y0086524D01*
X0048460Y0086487D01*
X0048398Y0086449D01*
X0048250Y0086394D01*
X0048169Y0086369D01*
X0048089Y0086350D01*
X0047996Y0086338D01*
X0047897Y0086332D01*
X0047847D01*
X0047816Y0086338D01*
X0047773Y0086344D01*
X0047730Y0086357D01*
X0047618Y0086381D01*
X0047501Y0086431D01*
X0047433Y0086468D01*
X0047371Y0086505D01*
X0047309Y0086555D01*
X0047253Y0086610D01*
X0047191Y0086672D01*
X0047142Y0086747D01*
X0047129D01*
Y0085236D01*
X0046727D01*
Y0088901D01*
X0047129D01*
Y0088455D01*
X0047142D01*
X0047148Y0088461D01*
X0047154Y0088480D01*
X0047173Y0088504D01*
X0047197Y0088535D01*
X0047228Y0088573D01*
X0047265Y0088616D01*
X0047309Y0088659D01*
X0047365Y0088709D01*
X0047420Y0088752D01*
X0047482Y0088796D01*
X0047556Y0088839D01*
X0047631Y0088876D01*
X0047717Y0088913D01*
X0047810Y0088938D01*
X0047903Y0088950D01*
X0048008Y0088956D01*
X0048058D01*
X0048089Y0088950D01*
D02*
G37*
G36*
X0076779D02*
X0076860Y0088944D01*
X0076947Y0088932D01*
X0077046Y0088907D01*
X0077145Y0088882D01*
X0077244Y0088845D01*
Y0088436D01*
X0077231Y0088443D01*
X0077194Y0088467D01*
X0077138Y0088492D01*
X0077064Y0088529D01*
X0076971Y0088560D01*
X0076860Y0088591D01*
X0076736Y0088610D01*
X0076606Y0088616D01*
X0076538D01*
X0076476Y0088604D01*
X0076402Y0088591D01*
X0076396D01*
X0076389Y0088585D01*
X0076352Y0088573D01*
X0076303Y0088548D01*
X0076247Y0088517D01*
X0076235Y0088511D01*
X0076210Y0088486D01*
X0076179Y0088449D01*
X0076148Y0088406D01*
X0076142Y0088393D01*
X0076129Y0088362D01*
X0076117Y0088319D01*
X0076111Y0088263D01*
Y0088257D01*
Y0088245D01*
Y0088226D01*
X0076117Y0088207D01*
X0076129Y0088152D01*
X0076148Y0088096D01*
X0076154Y0088084D01*
X0076173Y0088059D01*
X0076210Y0088022D01*
X0076253Y0087978D01*
X0076259D01*
X0076266Y0087972D01*
X0076303Y0087947D01*
X0076352Y0087916D01*
X0076420Y0087885D01*
X0076427D01*
X0076439Y0087879D01*
X0076458Y0087873D01*
X0076489Y0087861D01*
X0076557Y0087836D01*
X0076643Y0087799D01*
X0076649D01*
X0076674Y0087787D01*
X0076705Y0087774D01*
X0076742Y0087762D01*
X0076841Y0087718D01*
X0076940Y0087669D01*
X0076947D01*
X0076965Y0087656D01*
X0076990Y0087644D01*
X0077021Y0087625D01*
X0077095Y0087576D01*
X0077169Y0087514D01*
X0077175Y0087508D01*
X0077188Y0087502D01*
X0077200Y0087483D01*
X0077225Y0087458D01*
X0077268Y0087397D01*
X0077312Y0087316D01*
Y0087310D01*
X0077318Y0087297D01*
X0077330Y0087273D01*
X0077337Y0087242D01*
X0077349Y0087205D01*
X0077355Y0087161D01*
X0077361Y0087056D01*
Y0087050D01*
Y0087025D01*
X0077355Y0086988D01*
X0077349Y0086945D01*
X0077343Y0086895D01*
X0077324Y0086839D01*
X0077306Y0086790D01*
X0077275Y0086734D01*
X0077268Y0086728D01*
X0077262Y0086709D01*
X0077244Y0086685D01*
X0077219Y0086654D01*
X0077188Y0086617D01*
X0077151Y0086579D01*
X0077058Y0086505D01*
X0077052Y0086499D01*
X0077033Y0086493D01*
X0077008Y0086474D01*
X0076965Y0086456D01*
X0076922Y0086431D01*
X0076866Y0086412D01*
X0076810Y0086394D01*
X0076742Y0086375D01*
X0076736D01*
X0076711Y0086369D01*
X0076674Y0086363D01*
X0076631Y0086357D01*
X0076569Y0086344D01*
X0076507Y0086338D01*
X0076365Y0086332D01*
X0076303D01*
X0076228Y0086338D01*
X0076136Y0086350D01*
X0076030Y0086369D01*
X0075919Y0086394D01*
X0075808Y0086425D01*
X0075696Y0086474D01*
Y0086908D01*
X0075702D01*
X0075709Y0086895D01*
X0075727Y0086883D01*
X0075752Y0086870D01*
X0075820Y0086833D01*
X0075913Y0086790D01*
X0076018Y0086740D01*
X0076142Y0086703D01*
X0076278Y0086678D01*
X0076420Y0086666D01*
X0076470D01*
X0076501Y0086672D01*
X0076587Y0086685D01*
X0076687Y0086709D01*
X0076779Y0086753D01*
X0076823Y0086784D01*
X0076866Y0086815D01*
X0076897Y0086858D01*
X0076922Y0086901D01*
X0076940Y0086957D01*
X0076947Y0087019D01*
Y0087025D01*
Y0087037D01*
Y0087056D01*
X0076940Y0087075D01*
X0076928Y0087130D01*
X0076903Y0087186D01*
Y0087192D01*
X0076897Y0087198D01*
X0076872Y0087229D01*
X0076835Y0087273D01*
X0076779Y0087310D01*
X0076773D01*
X0076767Y0087322D01*
X0076730Y0087341D01*
X0076674Y0087378D01*
X0076600Y0087409D01*
X0076594D01*
X0076581Y0087415D01*
X0076563Y0087428D01*
X0076532Y0087440D01*
X0076464Y0087465D01*
X0076377Y0087502D01*
X0076371D01*
X0076346Y0087514D01*
X0076315Y0087527D01*
X0076278Y0087539D01*
X0076179Y0087582D01*
X0076080Y0087632D01*
X0076074Y0087638D01*
X0076061Y0087644D01*
X0076037Y0087656D01*
X0076006Y0087675D01*
X0075937Y0087725D01*
X0075870Y0087780D01*
X0075863Y0087787D01*
X0075857Y0087793D01*
X0075839Y0087811D01*
X0075820Y0087836D01*
X0075777Y0087898D01*
X0075740Y0087972D01*
Y0087978D01*
X0075733Y0087991D01*
X0075727Y0088016D01*
X0075721Y0088046D01*
X0075715Y0088084D01*
X0075709Y0088127D01*
X0075702Y0088232D01*
Y0088238D01*
Y0088263D01*
X0075709Y0088294D01*
X0075715Y0088337D01*
X0075721Y0088387D01*
X0075740Y0088436D01*
X0075758Y0088492D01*
X0075783Y0088542D01*
X0075789Y0088548D01*
X0075795Y0088566D01*
X0075814Y0088591D01*
X0075839Y0088622D01*
X0075907Y0088696D01*
X0075993Y0088771D01*
X0075999Y0088777D01*
X0076018Y0088783D01*
X0076043Y0088802D01*
X0076086Y0088820D01*
X0076129Y0088845D01*
X0076179Y0088870D01*
X0076303Y0088907D01*
X0076309D01*
X0076334Y0088913D01*
X0076365Y0088925D01*
X0076414Y0088932D01*
X0076464Y0088944D01*
X0076526Y0088950D01*
X0076662Y0088956D01*
X0076718D01*
X0076779Y0088950D01*
D02*
G37*
G36*
X0073424D02*
X0073505Y0088944D01*
X0073592Y0088932D01*
X0073691Y0088907D01*
X0073790Y0088882D01*
X0073889Y0088845D01*
Y0088436D01*
X0073876Y0088443D01*
X0073839Y0088467D01*
X0073783Y0088492D01*
X0073709Y0088529D01*
X0073616Y0088560D01*
X0073505Y0088591D01*
X0073381Y0088610D01*
X0073251Y0088616D01*
X0073183D01*
X0073121Y0088604D01*
X0073047Y0088591D01*
X0073041D01*
X0073034Y0088585D01*
X0072997Y0088573D01*
X0072948Y0088548D01*
X0072892Y0088517D01*
X0072880Y0088511D01*
X0072855Y0088486D01*
X0072824Y0088449D01*
X0072793Y0088406D01*
X0072787Y0088393D01*
X0072774Y0088362D01*
X0072762Y0088319D01*
X0072756Y0088263D01*
Y0088257D01*
Y0088245D01*
Y0088226D01*
X0072762Y0088207D01*
X0072774Y0088152D01*
X0072793Y0088096D01*
X0072799Y0088084D01*
X0072818Y0088059D01*
X0072855Y0088022D01*
X0072898Y0087978D01*
X0072904D01*
X0072911Y0087972D01*
X0072948Y0087947D01*
X0072997Y0087916D01*
X0073065Y0087885D01*
X0073072D01*
X0073084Y0087879D01*
X0073102Y0087873D01*
X0073133Y0087861D01*
X0073202Y0087836D01*
X0073288Y0087799D01*
X0073294D01*
X0073319Y0087787D01*
X0073350Y0087774D01*
X0073387Y0087762D01*
X0073486Y0087718D01*
X0073585Y0087669D01*
X0073592D01*
X0073610Y0087656D01*
X0073635Y0087644D01*
X0073666Y0087625D01*
X0073740Y0087576D01*
X0073814Y0087514D01*
X0073821Y0087508D01*
X0073833Y0087502D01*
X0073845Y0087483D01*
X0073870Y0087458D01*
X0073913Y0087397D01*
X0073957Y0087316D01*
Y0087310D01*
X0073963Y0087297D01*
X0073975Y0087273D01*
X0073981Y0087242D01*
X0073994Y0087205D01*
X0074000Y0087161D01*
X0074006Y0087056D01*
Y0087050D01*
Y0087025D01*
X0074000Y0086988D01*
X0073994Y0086945D01*
X0073988Y0086895D01*
X0073969Y0086839D01*
X0073951Y0086790D01*
X0073920Y0086734D01*
X0073913Y0086728D01*
X0073907Y0086709D01*
X0073889Y0086685D01*
X0073864Y0086654D01*
X0073833Y0086617D01*
X0073796Y0086579D01*
X0073703Y0086505D01*
X0073697Y0086499D01*
X0073678Y0086493D01*
X0073653Y0086474D01*
X0073610Y0086456D01*
X0073567Y0086431D01*
X0073511Y0086412D01*
X0073455Y0086394D01*
X0073387Y0086375D01*
X0073381D01*
X0073356Y0086369D01*
X0073319Y0086363D01*
X0073276Y0086357D01*
X0073214Y0086344D01*
X0073152Y0086338D01*
X0073010Y0086332D01*
X0072948D01*
X0072874Y0086338D01*
X0072781Y0086350D01*
X0072675Y0086369D01*
X0072564Y0086394D01*
X0072453Y0086425D01*
X0072341Y0086474D01*
Y0086908D01*
X0072347D01*
X0072354Y0086895D01*
X0072372Y0086883D01*
X0072397Y0086870D01*
X0072465Y0086833D01*
X0072558Y0086790D01*
X0072663Y0086740D01*
X0072787Y0086703D01*
X0072923Y0086678D01*
X0073065Y0086666D01*
X0073115D01*
X0073146Y0086672D01*
X0073233Y0086685D01*
X0073332Y0086709D01*
X0073424Y0086753D01*
X0073468Y0086784D01*
X0073511Y0086815D01*
X0073542Y0086858D01*
X0073567Y0086901D01*
X0073585Y0086957D01*
X0073592Y0087019D01*
Y0087025D01*
Y0087037D01*
Y0087056D01*
X0073585Y0087075D01*
X0073573Y0087130D01*
X0073548Y0087186D01*
Y0087192D01*
X0073542Y0087198D01*
X0073517Y0087229D01*
X0073480Y0087273D01*
X0073424Y0087310D01*
X0073418D01*
X0073412Y0087322D01*
X0073375Y0087341D01*
X0073319Y0087378D01*
X0073245Y0087409D01*
X0073239D01*
X0073226Y0087415D01*
X0073208Y0087428D01*
X0073177Y0087440D01*
X0073109Y0087465D01*
X0073022Y0087502D01*
X0073016D01*
X0072991Y0087514D01*
X0072960Y0087527D01*
X0072923Y0087539D01*
X0072824Y0087582D01*
X0072725Y0087632D01*
X0072719Y0087638D01*
X0072706Y0087644D01*
X0072682Y0087656D01*
X0072651Y0087675D01*
X0072583Y0087725D01*
X0072514Y0087780D01*
X0072508Y0087787D01*
X0072502Y0087793D01*
X0072483Y0087811D01*
X0072465Y0087836D01*
X0072422Y0087898D01*
X0072385Y0087972D01*
Y0087978D01*
X0072378Y0087991D01*
X0072372Y0088016D01*
X0072366Y0088046D01*
X0072360Y0088084D01*
X0072354Y0088127D01*
X0072347Y0088232D01*
Y0088238D01*
Y0088263D01*
X0072354Y0088294D01*
X0072360Y0088337D01*
X0072366Y0088387D01*
X0072385Y0088436D01*
X0072403Y0088492D01*
X0072428Y0088542D01*
X0072434Y0088548D01*
X0072440Y0088566D01*
X0072459Y0088591D01*
X0072483Y0088622D01*
X0072552Y0088696D01*
X0072638Y0088771D01*
X0072645Y0088777D01*
X0072663Y0088783D01*
X0072688Y0088802D01*
X0072731Y0088820D01*
X0072774Y0088845D01*
X0072824Y0088870D01*
X0072948Y0088907D01*
X0072954D01*
X0072979Y0088913D01*
X0073010Y0088925D01*
X0073059Y0088932D01*
X0073109Y0088944D01*
X0073171Y0088950D01*
X0073307Y0088956D01*
X0073362D01*
X0073424Y0088950D01*
D02*
G37*
G36*
X0069277Y0088938D02*
X0069351Y0088932D01*
X0069395Y0088919D01*
X0069426Y0088907D01*
Y0088492D01*
X0069419Y0088498D01*
X0069407Y0088504D01*
X0069382Y0088517D01*
X0069351Y0088535D01*
X0069308Y0088548D01*
X0069252Y0088560D01*
X0069190Y0088566D01*
X0069122Y0088573D01*
X0069110D01*
X0069079Y0088566D01*
X0069029Y0088560D01*
X0068974Y0088542D01*
X0068900Y0088511D01*
X0068831Y0088467D01*
X0068757Y0088406D01*
X0068689Y0088325D01*
X0068683Y0088313D01*
X0068664Y0088282D01*
X0068633Y0088226D01*
X0068602Y0088152D01*
X0068572Y0088059D01*
X0068541Y0087941D01*
X0068522Y0087811D01*
X0068516Y0087663D01*
Y0086387D01*
X0068113D01*
Y0088901D01*
X0068516D01*
Y0088381D01*
X0068528D01*
Y0088387D01*
X0068534Y0088393D01*
X0068547Y0088424D01*
X0068565Y0088474D01*
X0068596Y0088535D01*
X0068627Y0088597D01*
X0068677Y0088665D01*
X0068726Y0088734D01*
X0068788Y0088796D01*
X0068794Y0088802D01*
X0068819Y0088820D01*
X0068856Y0088845D01*
X0068906Y0088870D01*
X0068961Y0088894D01*
X0069029Y0088919D01*
X0069104Y0088938D01*
X0069184Y0088944D01*
X0069240D01*
X0069277Y0088938D01*
D02*
G37*
G36*
X0064641D02*
X0064715Y0088932D01*
X0064758Y0088919D01*
X0064789Y0088907D01*
Y0088492D01*
X0064783Y0088498D01*
X0064771Y0088504D01*
X0064746Y0088517D01*
X0064715Y0088535D01*
X0064672Y0088548D01*
X0064616Y0088560D01*
X0064554Y0088566D01*
X0064486Y0088573D01*
X0064474D01*
X0064443Y0088566D01*
X0064393Y0088560D01*
X0064337Y0088542D01*
X0064263Y0088511D01*
X0064195Y0088467D01*
X0064121Y0088406D01*
X0064053Y0088325D01*
X0064047Y0088313D01*
X0064028Y0088282D01*
X0063997Y0088226D01*
X0063966Y0088152D01*
X0063935Y0088059D01*
X0063904Y0087941D01*
X0063886Y0087811D01*
X0063879Y0087663D01*
Y0086387D01*
X0063477D01*
Y0088901D01*
X0063879D01*
Y0088381D01*
X0063892D01*
Y0088387D01*
X0063898Y0088393D01*
X0063910Y0088424D01*
X0063929Y0088474D01*
X0063960Y0088535D01*
X0063991Y0088597D01*
X0064040Y0088665D01*
X0064090Y0088734D01*
X0064152Y0088796D01*
X0064158Y0088802D01*
X0064183Y0088820D01*
X0064220Y0088845D01*
X0064269Y0088870D01*
X0064325Y0088894D01*
X0064393Y0088919D01*
X0064468Y0088938D01*
X0064548Y0088944D01*
X0064604D01*
X0064641Y0088938D01*
D02*
G37*
G36*
X0075028Y0086387D02*
X0074625D01*
Y0088901D01*
X0075028D01*
Y0086387D01*
D02*
G37*
G36*
X0057070D02*
X0056668D01*
Y0090108D01*
X0057070D01*
Y0086387D01*
D02*
G37*
G36*
X0043285Y0089532D02*
X0042270D01*
Y0086387D01*
X0041862D01*
Y0089532D01*
X0040846D01*
Y0089903D01*
X0043285D01*
Y0089532D01*
D02*
G37*
G36*
X0078513Y0088901D02*
X0079150D01*
Y0088554D01*
X0078513D01*
Y0087137D01*
Y0087124D01*
Y0087093D01*
X0078519Y0087050D01*
X0078525Y0086994D01*
X0078550Y0086877D01*
X0078568Y0086821D01*
X0078599Y0086778D01*
X0078605Y0086771D01*
X0078618Y0086759D01*
X0078636Y0086747D01*
X0078667Y0086728D01*
X0078705Y0086703D01*
X0078754Y0086691D01*
X0078816Y0086678D01*
X0078884Y0086672D01*
X0078909D01*
X0078940Y0086678D01*
X0078977Y0086685D01*
X0079063Y0086709D01*
X0079107Y0086728D01*
X0079150Y0086753D01*
Y0086406D01*
X0079144D01*
X0079125Y0086394D01*
X0079094Y0086387D01*
X0079051Y0086375D01*
X0078995Y0086363D01*
X0078934Y0086350D01*
X0078859Y0086344D01*
X0078773Y0086338D01*
X0078742D01*
X0078711Y0086344D01*
X0078667Y0086350D01*
X0078618Y0086363D01*
X0078562Y0086375D01*
X0078506Y0086400D01*
X0078444Y0086431D01*
X0078383Y0086468D01*
X0078321Y0086518D01*
X0078265Y0086573D01*
X0078215Y0086647D01*
X0078172Y0086728D01*
X0078141Y0086827D01*
X0078116Y0086939D01*
X0078110Y0087068D01*
Y0088554D01*
X0077683D01*
Y0088901D01*
X0078110D01*
Y0089513D01*
X0078513Y0089644D01*
Y0088901D01*
D02*
G37*
G36*
X0070930Y0088950D02*
X0070973Y0088944D01*
X0071017Y0088938D01*
X0071128Y0088919D01*
X0071252Y0088876D01*
X0071376Y0088820D01*
X0071437Y0088783D01*
X0071499Y0088740D01*
X0071555Y0088690D01*
X0071611Y0088635D01*
X0071617Y0088628D01*
X0071623Y0088622D01*
X0071636Y0088604D01*
X0071654Y0088579D01*
X0071673Y0088542D01*
X0071697Y0088504D01*
X0071722Y0088461D01*
X0071747Y0088406D01*
X0071772Y0088344D01*
X0071796Y0088282D01*
X0071821Y0088207D01*
X0071840Y0088127D01*
X0071858Y0088040D01*
X0071871Y0087954D01*
X0071883Y0087855D01*
Y0087749D01*
Y0087539D01*
X0070107D01*
Y0087533D01*
Y0087520D01*
Y0087502D01*
X0070113Y0087471D01*
X0070119Y0087434D01*
Y0087397D01*
X0070138Y0087297D01*
X0070169Y0087198D01*
X0070206Y0087087D01*
X0070261Y0086982D01*
X0070329Y0086889D01*
X0070342Y0086877D01*
X0070367Y0086852D01*
X0070416Y0086821D01*
X0070484Y0086778D01*
X0070571Y0086734D01*
X0070670Y0086703D01*
X0070788Y0086678D01*
X0070924Y0086666D01*
X0070967D01*
X0070998Y0086672D01*
X0071035D01*
X0071078Y0086678D01*
X0071184Y0086703D01*
X0071301Y0086734D01*
X0071431Y0086784D01*
X0071567Y0086852D01*
X0071636Y0086895D01*
X0071704Y0086945D01*
Y0086567D01*
X0071697D01*
X0071691Y0086555D01*
X0071673Y0086549D01*
X0071642Y0086530D01*
X0071611Y0086511D01*
X0071574Y0086493D01*
X0071524Y0086474D01*
X0071475Y0086449D01*
X0071413Y0086425D01*
X0071345Y0086406D01*
X0071196Y0086369D01*
X0071023Y0086344D01*
X0070831Y0086332D01*
X0070781D01*
X0070744Y0086338D01*
X0070701Y0086344D01*
X0070645Y0086350D01*
X0070527Y0086375D01*
X0070391Y0086412D01*
X0070255Y0086474D01*
X0070187Y0086518D01*
X0070119Y0086561D01*
X0070057Y0086610D01*
X0069995Y0086672D01*
X0069989Y0086678D01*
X0069983Y0086691D01*
X0069970Y0086709D01*
X0069946Y0086734D01*
X0069927Y0086771D01*
X0069902Y0086815D01*
X0069871Y0086864D01*
X0069847Y0086920D01*
X0069816Y0086982D01*
X0069791Y0087056D01*
X0069760Y0087137D01*
X0069741Y0087223D01*
X0069723Y0087316D01*
X0069704Y0087415D01*
X0069698Y0087520D01*
X0069692Y0087632D01*
Y0087638D01*
Y0087656D01*
Y0087687D01*
X0069698Y0087731D01*
X0069704Y0087780D01*
X0069710Y0087836D01*
X0069717Y0087904D01*
X0069735Y0087972D01*
X0069772Y0088121D01*
X0069828Y0088282D01*
X0069865Y0088362D01*
X0069915Y0088436D01*
X0069964Y0088517D01*
X0070020Y0088585D01*
X0070026Y0088591D01*
X0070038Y0088604D01*
X0070057Y0088622D01*
X0070082Y0088641D01*
X0070113Y0088672D01*
X0070150Y0088703D01*
X0070199Y0088734D01*
X0070249Y0088771D01*
X0070367Y0088839D01*
X0070509Y0088901D01*
X0070589Y0088919D01*
X0070670Y0088938D01*
X0070757Y0088950D01*
X0070849Y0088956D01*
X0070899D01*
X0070930Y0088950D01*
D02*
G37*
G36*
X0061917D02*
X0061961Y0088944D01*
X0062004Y0088938D01*
X0062115Y0088919D01*
X0062239Y0088876D01*
X0062363Y0088820D01*
X0062425Y0088783D01*
X0062487Y0088740D01*
X0062542Y0088690D01*
X0062598Y0088635D01*
X0062604Y0088628D01*
X0062611Y0088622D01*
X0062623Y0088604D01*
X0062641Y0088579D01*
X0062660Y0088542D01*
X0062685Y0088504D01*
X0062709Y0088461D01*
X0062734Y0088406D01*
X0062759Y0088344D01*
X0062784Y0088282D01*
X0062809Y0088207D01*
X0062827Y0088127D01*
X0062846Y0088040D01*
X0062858Y0087954D01*
X0062871Y0087855D01*
Y0087749D01*
Y0087539D01*
X0061094D01*
Y0087533D01*
Y0087520D01*
Y0087502D01*
X0061100Y0087471D01*
X0061106Y0087434D01*
Y0087397D01*
X0061125Y0087297D01*
X0061156Y0087198D01*
X0061193Y0087087D01*
X0061249Y0086982D01*
X0061317Y0086889D01*
X0061329Y0086877D01*
X0061354Y0086852D01*
X0061403Y0086821D01*
X0061471Y0086778D01*
X0061558Y0086734D01*
X0061657Y0086703D01*
X0061775Y0086678D01*
X0061911Y0086666D01*
X0061954D01*
X0061985Y0086672D01*
X0062022D01*
X0062066Y0086678D01*
X0062171Y0086703D01*
X0062289Y0086734D01*
X0062419Y0086784D01*
X0062555Y0086852D01*
X0062623Y0086895D01*
X0062691Y0086945D01*
Y0086567D01*
X0062685D01*
X0062679Y0086555D01*
X0062660Y0086549D01*
X0062629Y0086530D01*
X0062598Y0086511D01*
X0062561Y0086493D01*
X0062511Y0086474D01*
X0062462Y0086449D01*
X0062400Y0086425D01*
X0062332Y0086406D01*
X0062183Y0086369D01*
X0062010Y0086344D01*
X0061818Y0086332D01*
X0061769D01*
X0061731Y0086338D01*
X0061688Y0086344D01*
X0061633Y0086350D01*
X0061515Y0086375D01*
X0061379Y0086412D01*
X0061243Y0086474D01*
X0061174Y0086518D01*
X0061106Y0086561D01*
X0061044Y0086610D01*
X0060983Y0086672D01*
X0060976Y0086678D01*
X0060970Y0086691D01*
X0060958Y0086709D01*
X0060933Y0086734D01*
X0060914Y0086771D01*
X0060890Y0086815D01*
X0060859Y0086864D01*
X0060834Y0086920D01*
X0060803Y0086982D01*
X0060778Y0087056D01*
X0060747Y0087137D01*
X0060729Y0087223D01*
X0060710Y0087316D01*
X0060692Y0087415D01*
X0060685Y0087520D01*
X0060679Y0087632D01*
Y0087638D01*
Y0087656D01*
Y0087687D01*
X0060685Y0087731D01*
X0060692Y0087780D01*
X0060698Y0087836D01*
X0060704Y0087904D01*
X0060723Y0087972D01*
X0060760Y0088121D01*
X0060815Y0088282D01*
X0060852Y0088362D01*
X0060902Y0088436D01*
X0060952Y0088517D01*
X0061007Y0088585D01*
X0061014Y0088591D01*
X0061026Y0088604D01*
X0061044Y0088622D01*
X0061069Y0088641D01*
X0061100Y0088672D01*
X0061137Y0088703D01*
X0061187Y0088734D01*
X0061236Y0088771D01*
X0061354Y0088839D01*
X0061496Y0088901D01*
X0061577Y0088919D01*
X0061657Y0088938D01*
X0061744Y0088950D01*
X0061837Y0088956D01*
X0061886D01*
X0061917Y0088950D01*
D02*
G37*
G36*
X0054929D02*
X0054972Y0088944D01*
X0055028Y0088938D01*
X0055151Y0088913D01*
X0055294Y0088870D01*
X0055436Y0088808D01*
X0055511Y0088771D01*
X0055579Y0088727D01*
X0055647Y0088672D01*
X0055709Y0088610D01*
X0055715Y0088604D01*
X0055721Y0088591D01*
X0055740Y0088573D01*
X0055758Y0088548D01*
X0055783Y0088511D01*
X0055808Y0088467D01*
X0055839Y0088418D01*
X0055870Y0088362D01*
X0055894Y0088294D01*
X0055925Y0088226D01*
X0055950Y0088146D01*
X0055975Y0088059D01*
X0055993Y0087966D01*
X0056012Y0087867D01*
X0056018Y0087762D01*
X0056024Y0087650D01*
Y0087644D01*
Y0087625D01*
Y0087595D01*
X0056018Y0087551D01*
X0056012Y0087502D01*
X0056006Y0087440D01*
X0055993Y0087378D01*
X0055981Y0087304D01*
X0055944Y0087155D01*
X0055882Y0086994D01*
X0055845Y0086914D01*
X0055795Y0086833D01*
X0055746Y0086759D01*
X0055684Y0086691D01*
X0055678Y0086685D01*
X0055665Y0086678D01*
X0055647Y0086660D01*
X0055622Y0086635D01*
X0055585Y0086610D01*
X0055548Y0086579D01*
X0055498Y0086542D01*
X0055443Y0086511D01*
X0055381Y0086480D01*
X0055313Y0086443D01*
X0055238Y0086412D01*
X0055158Y0086387D01*
X0055071Y0086363D01*
X0054978Y0086350D01*
X0054879Y0086338D01*
X0054774Y0086332D01*
X0054718D01*
X0054681Y0086338D01*
X0054638Y0086344D01*
X0054582Y0086350D01*
X0054520Y0086363D01*
X0054452Y0086375D01*
X0054310Y0086418D01*
X0054161Y0086480D01*
X0054087Y0086518D01*
X0054019Y0086567D01*
X0053951Y0086617D01*
X0053883Y0086678D01*
X0053876Y0086685D01*
X0053870Y0086697D01*
X0053852Y0086716D01*
X0053833Y0086740D01*
X0053808Y0086778D01*
X0053777Y0086821D01*
X0053746Y0086870D01*
X0053722Y0086926D01*
X0053691Y0086994D01*
X0053660Y0087062D01*
X0053629Y0087137D01*
X0053604Y0087223D01*
X0053567Y0087409D01*
X0053561Y0087508D01*
X0053554Y0087613D01*
Y0087619D01*
Y0087644D01*
Y0087675D01*
X0053561Y0087718D01*
X0053567Y0087768D01*
X0053573Y0087830D01*
X0053585Y0087898D01*
X0053598Y0087972D01*
X0053635Y0088133D01*
X0053697Y0088294D01*
X0053740Y0088375D01*
X0053784Y0088455D01*
X0053833Y0088529D01*
X0053895Y0088597D01*
X0053901Y0088604D01*
X0053913Y0088616D01*
X0053932Y0088628D01*
X0053957Y0088653D01*
X0053994Y0088678D01*
X0054037Y0088709D01*
X0054087Y0088746D01*
X0054143Y0088777D01*
X0054204Y0088808D01*
X0054279Y0088845D01*
X0054353Y0088876D01*
X0054440Y0088901D01*
X0054526Y0088925D01*
X0054625Y0088944D01*
X0054731Y0088950D01*
X0054836Y0088956D01*
X0054892D01*
X0054929Y0088950D01*
D02*
G37*
G36*
X0044987D02*
X0045031Y0088944D01*
X0045087Y0088938D01*
X0045210Y0088913D01*
X0045353Y0088870D01*
X0045495Y0088808D01*
X0045569Y0088771D01*
X0045638Y0088727D01*
X0045706Y0088672D01*
X0045768Y0088610D01*
X0045774Y0088604D01*
X0045780Y0088591D01*
X0045798Y0088573D01*
X0045817Y0088548D01*
X0045842Y0088511D01*
X0045867Y0088467D01*
X0045897Y0088418D01*
X0045928Y0088362D01*
X0045953Y0088294D01*
X0045984Y0088226D01*
X0046009Y0088146D01*
X0046034Y0088059D01*
X0046052Y0087966D01*
X0046071Y0087867D01*
X0046077Y0087762D01*
X0046083Y0087650D01*
Y0087644D01*
Y0087625D01*
Y0087595D01*
X0046077Y0087551D01*
X0046071Y0087502D01*
X0046065Y0087440D01*
X0046052Y0087378D01*
X0046040Y0087304D01*
X0046003Y0087155D01*
X0045941Y0086994D01*
X0045904Y0086914D01*
X0045854Y0086833D01*
X0045805Y0086759D01*
X0045743Y0086691D01*
X0045737Y0086685D01*
X0045724Y0086678D01*
X0045706Y0086660D01*
X0045681Y0086635D01*
X0045644Y0086610D01*
X0045606Y0086579D01*
X0045557Y0086542D01*
X0045501Y0086511D01*
X0045439Y0086480D01*
X0045371Y0086443D01*
X0045297Y0086412D01*
X0045217Y0086387D01*
X0045130Y0086363D01*
X0045037Y0086350D01*
X0044938Y0086338D01*
X0044833Y0086332D01*
X0044777D01*
X0044740Y0086338D01*
X0044697Y0086344D01*
X0044641Y0086350D01*
X0044579Y0086363D01*
X0044511Y0086375D01*
X0044368Y0086418D01*
X0044220Y0086480D01*
X0044146Y0086518D01*
X0044078Y0086567D01*
X0044010Y0086617D01*
X0043941Y0086678D01*
X0043935Y0086685D01*
X0043929Y0086697D01*
X0043911Y0086716D01*
X0043892Y0086740D01*
X0043867Y0086778D01*
X0043836Y0086821D01*
X0043805Y0086870D01*
X0043780Y0086926D01*
X0043749Y0086994D01*
X0043719Y0087062D01*
X0043688Y0087137D01*
X0043663Y0087223D01*
X0043626Y0087409D01*
X0043620Y0087508D01*
X0043613Y0087613D01*
Y0087619D01*
Y0087644D01*
Y0087675D01*
X0043620Y0087718D01*
X0043626Y0087768D01*
X0043632Y0087830D01*
X0043644Y0087898D01*
X0043657Y0087972D01*
X0043694Y0088133D01*
X0043756Y0088294D01*
X0043799Y0088375D01*
X0043842Y0088455D01*
X0043892Y0088529D01*
X0043954Y0088597D01*
X0043960Y0088604D01*
X0043972Y0088616D01*
X0043991Y0088628D01*
X0044016Y0088653D01*
X0044053Y0088678D01*
X0044096Y0088709D01*
X0044146Y0088746D01*
X0044201Y0088777D01*
X0044263Y0088808D01*
X0044338Y0088845D01*
X0044412Y0088876D01*
X0044499Y0088901D01*
X0044585Y0088925D01*
X0044684Y0088944D01*
X0044789Y0088950D01*
X0044895Y0088956D01*
X0044950D01*
X0044987Y0088950D01*
D02*
G37*
G36*
X0079701Y0089891D02*
X0079726Y0089860D01*
X0079763Y0089811D01*
X0079813Y0089742D01*
X0079874Y0089656D01*
X0079936Y0089551D01*
X0080004Y0089433D01*
X0080079Y0089297D01*
X0080153Y0089142D01*
X0080221Y0088975D01*
X0080283Y0088796D01*
X0080345Y0088604D01*
X0080394Y0088399D01*
X0080431Y0088189D01*
X0080456Y0087960D01*
X0080462Y0087725D01*
Y0087718D01*
Y0087712D01*
Y0087694D01*
Y0087669D01*
Y0087638D01*
X0080456Y0087601D01*
X0080450Y0087514D01*
X0080438Y0087403D01*
X0080419Y0087279D01*
X0080401Y0087137D01*
X0080370Y0086982D01*
X0080326Y0086815D01*
X0080277Y0086647D01*
X0080215Y0086468D01*
X0080141Y0086288D01*
X0080054Y0086109D01*
X0079949Y0085930D01*
X0079831Y0085756D01*
X0079695Y0085589D01*
X0079336D01*
X0079342Y0085601D01*
X0079367Y0085632D01*
X0079404Y0085682D01*
X0079453Y0085750D01*
X0079515Y0085837D01*
X0079577Y0085942D01*
X0079645Y0086066D01*
X0079720Y0086202D01*
X0079794Y0086350D01*
X0079862Y0086518D01*
X0079924Y0086691D01*
X0079986Y0086877D01*
X0080035Y0087081D01*
X0080072Y0087285D01*
X0080097Y0087508D01*
X0080103Y0087731D01*
Y0087737D01*
Y0087743D01*
Y0087762D01*
Y0087787D01*
X0080097Y0087848D01*
X0080091Y0087941D01*
X0080079Y0088046D01*
X0080060Y0088170D01*
X0080041Y0088313D01*
X0080004Y0088467D01*
X0079967Y0088635D01*
X0079918Y0088808D01*
X0079850Y0088987D01*
X0079775Y0089167D01*
X0079689Y0089359D01*
X0079584Y0089544D01*
X0079466Y0089724D01*
X0079330Y0089903D01*
X0079695D01*
X0079701Y0089891D01*
D02*
G37*
G36*
X0067655D02*
X0067631Y0089860D01*
X0067587Y0089811D01*
X0067544Y0089736D01*
X0067482Y0089650D01*
X0067414Y0089544D01*
X0067346Y0089421D01*
X0067278Y0089284D01*
X0067203Y0089130D01*
X0067135Y0088963D01*
X0067067Y0088783D01*
X0067012Y0088591D01*
X0066962Y0088393D01*
X0066919Y0088183D01*
X0066894Y0087960D01*
X0066888Y0087731D01*
Y0087725D01*
Y0087718D01*
Y0087700D01*
Y0087675D01*
X0066894Y0087613D01*
X0066900Y0087527D01*
X0066913Y0087421D01*
X0066931Y0087297D01*
X0066950Y0087155D01*
X0066987Y0087007D01*
X0067024Y0086839D01*
X0067074Y0086672D01*
X0067135Y0086493D01*
X0067210Y0086313D01*
X0067303Y0086128D01*
X0067401Y0085942D01*
X0067519Y0085762D01*
X0067655Y0085589D01*
X0067296D01*
X0067290Y0085601D01*
X0067265Y0085626D01*
X0067228Y0085676D01*
X0067179Y0085744D01*
X0067123Y0085830D01*
X0067055Y0085930D01*
X0066987Y0086047D01*
X0066919Y0086183D01*
X0066844Y0086332D01*
X0066776Y0086493D01*
X0066714Y0086666D01*
X0066653Y0086858D01*
X0066603Y0087056D01*
X0066566Y0087266D01*
X0066541Y0087489D01*
X0066535Y0087725D01*
Y0087731D01*
Y0087737D01*
Y0087756D01*
Y0087780D01*
X0066541Y0087811D01*
Y0087848D01*
X0066547Y0087941D01*
X0066560Y0088046D01*
X0066578Y0088177D01*
X0066597Y0088319D01*
X0066628Y0088480D01*
X0066671Y0088647D01*
X0066721Y0088820D01*
X0066782Y0089000D01*
X0066857Y0089185D01*
X0066944Y0089371D01*
X0067042Y0089551D01*
X0067160Y0089730D01*
X0067296Y0089903D01*
X0067661D01*
X0067655Y0089891D01*
D02*
G37*
%LPC*%
G36*
X0051951Y0127678D02*
X0051914D01*
X0051889Y0127672D01*
X0051821Y0127665D01*
X0051741Y0127647D01*
X0051648Y0127610D01*
X0051549Y0127560D01*
X0051456Y0127498D01*
X0051413Y0127455D01*
X0051369Y0127405D01*
X0051363Y0127393D01*
X0051338Y0127356D01*
X0051301Y0127294D01*
X0051264Y0127214D01*
X0051227Y0127108D01*
X0051190Y0126978D01*
X0051165Y0126830D01*
X0051159Y0126663D01*
Y0126656D01*
Y0126644D01*
Y0126619D01*
X0051165Y0126588D01*
Y0126557D01*
X0051171Y0126514D01*
X0051184Y0126415D01*
X0051209Y0126304D01*
X0051246Y0126192D01*
X0051295Y0126081D01*
X0051363Y0125976D01*
X0051376Y0125963D01*
X0051400Y0125938D01*
X0051444Y0125895D01*
X0051506Y0125852D01*
X0051586Y0125808D01*
X0051679Y0125765D01*
X0051784Y0125740D01*
X0051908Y0125728D01*
X0051939D01*
X0051964Y0125734D01*
X0052026Y0125740D01*
X0052100Y0125759D01*
X0052187Y0125790D01*
X0052279Y0125827D01*
X0052366Y0125889D01*
X0052453Y0125969D01*
X0052459Y0125982D01*
X0052484Y0126013D01*
X0052521Y0126068D01*
X0052558Y0126137D01*
X0052595Y0126223D01*
X0052632Y0126328D01*
X0052657Y0126452D01*
X0052663Y0126582D01*
Y0126954D01*
Y0126960D01*
Y0126966D01*
Y0127003D01*
X0052651Y0127059D01*
X0052638Y0127133D01*
X0052614Y0127214D01*
X0052577Y0127300D01*
X0052527Y0127387D01*
X0052459Y0127467D01*
X0052453Y0127473D01*
X0052422Y0127498D01*
X0052378Y0127535D01*
X0052323Y0127573D01*
X0052248Y0127610D01*
X0052162Y0127647D01*
X0052063Y0127672D01*
X0051951Y0127678D01*
D02*
G37*
G36*
X0048015Y0126718D02*
X0047408Y0126632D01*
X0047396D01*
X0047365Y0126626D01*
X0047315Y0126613D01*
X0047253Y0126601D01*
X0047185Y0126582D01*
X0047111Y0126557D01*
X0047049Y0126533D01*
X0046987Y0126496D01*
X0046981Y0126489D01*
X0046962Y0126477D01*
X0046944Y0126452D01*
X0046919Y0126415D01*
X0046888Y0126365D01*
X0046869Y0126304D01*
X0046851Y0126229D01*
X0046845Y0126143D01*
Y0126137D01*
Y0126112D01*
X0046851Y0126081D01*
X0046863Y0126037D01*
X0046876Y0125988D01*
X0046900Y0125938D01*
X0046931Y0125889D01*
X0046975Y0125839D01*
X0046981Y0125833D01*
X0046999Y0125821D01*
X0047030Y0125802D01*
X0047067Y0125784D01*
X0047117Y0125765D01*
X0047179Y0125747D01*
X0047247Y0125734D01*
X0047327Y0125728D01*
X0047340D01*
X0047377Y0125734D01*
X0047433Y0125740D01*
X0047501Y0125753D01*
X0047575Y0125777D01*
X0047662Y0125815D01*
X0047742Y0125870D01*
X0047816Y0125938D01*
X0047823Y0125951D01*
X0047847Y0125976D01*
X0047878Y0126019D01*
X0047915Y0126081D01*
X0047953Y0126161D01*
X0047984Y0126248D01*
X0048008Y0126353D01*
X0048015Y0126465D01*
Y0126718D01*
D02*
G37*
G36*
X0041732Y0128594D02*
X0041261D01*
Y0127455D01*
X0041738D01*
X0041800Y0127461D01*
X0041874Y0127473D01*
X0041961Y0127492D01*
X0042053Y0127523D01*
X0042134Y0127560D01*
X0042214Y0127616D01*
X0042221Y0127622D01*
X0042245Y0127647D01*
X0042276Y0127684D01*
X0042314Y0127740D01*
X0042344Y0127802D01*
X0042375Y0127882D01*
X0042400Y0127975D01*
X0042406Y0128080D01*
Y0128086D01*
Y0128105D01*
X0042400Y0128130D01*
X0042394Y0128161D01*
X0042369Y0128241D01*
X0042351Y0128291D01*
X0042320Y0128340D01*
X0042289Y0128384D01*
X0042239Y0128433D01*
X0042190Y0128476D01*
X0042122Y0128513D01*
X0042047Y0128544D01*
X0041954Y0128569D01*
X0041849Y0128588D01*
X0041732Y0128594D01*
D02*
G37*
G36*
Y0127084D02*
X0041261D01*
Y0125821D01*
X0041880D01*
X0041942Y0125827D01*
X0042029Y0125839D01*
X0042115Y0125864D01*
X0042208Y0125889D01*
X0042301Y0125932D01*
X0042382Y0125988D01*
X0042388Y0125994D01*
X0042412Y0126019D01*
X0042443Y0126056D01*
X0042481Y0126112D01*
X0042518Y0126180D01*
X0042549Y0126260D01*
X0042573Y0126359D01*
X0042580Y0126465D01*
Y0126471D01*
Y0126489D01*
X0042573Y0126520D01*
X0042567Y0126564D01*
X0042555Y0126607D01*
X0042536Y0126663D01*
X0042511Y0126718D01*
X0042474Y0126774D01*
X0042431Y0126830D01*
X0042375Y0126885D01*
X0042307Y0126941D01*
X0042221Y0126985D01*
X0042128Y0127028D01*
X0042010Y0127059D01*
X0041880Y0127077D01*
X0041732Y0127084D01*
D02*
G37*
G36*
X0069859Y0127678D02*
X0069810D01*
X0069760Y0127665D01*
X0069692Y0127653D01*
X0069618Y0127628D01*
X0069531Y0127591D01*
X0069450Y0127542D01*
X0069370Y0127473D01*
X0069364Y0127467D01*
X0069339Y0127436D01*
X0069308Y0127393D01*
X0069265Y0127331D01*
X0069221Y0127257D01*
X0069184Y0127164D01*
X0069153Y0127059D01*
X0069129Y0126941D01*
X0070484D01*
Y0126947D01*
Y0126960D01*
Y0126972D01*
Y0126997D01*
X0070478Y0127065D01*
X0070466Y0127139D01*
X0070441Y0127232D01*
X0070416Y0127319D01*
X0070373Y0127405D01*
X0070317Y0127486D01*
X0070311Y0127492D01*
X0070286Y0127517D01*
X0070249Y0127548D01*
X0070199Y0127585D01*
X0070131Y0127616D01*
X0070051Y0127647D01*
X0069964Y0127672D01*
X0069859Y0127678D01*
D02*
G37*
G36*
X0056755Y0128650D02*
X0056699D01*
X0056662Y0128643D01*
X0056612Y0128637D01*
X0056563Y0128631D01*
X0056501Y0128619D01*
X0056433Y0128600D01*
X0056291Y0128551D01*
X0056216Y0128520D01*
X0056136Y0128482D01*
X0056062Y0128433D01*
X0055987Y0128377D01*
X0055919Y0128315D01*
X0055851Y0128247D01*
X0055845Y0128241D01*
X0055839Y0128229D01*
X0055820Y0128204D01*
X0055795Y0128173D01*
X0055770Y0128136D01*
X0055746Y0128086D01*
X0055715Y0128031D01*
X0055684Y0127969D01*
X0055647Y0127894D01*
X0055616Y0127820D01*
X0055591Y0127734D01*
X0055566Y0127641D01*
X0055541Y0127542D01*
X0055523Y0127430D01*
X0055517Y0127319D01*
X0055511Y0127201D01*
Y0127195D01*
Y0127170D01*
Y0127139D01*
X0055517Y0127096D01*
X0055523Y0127040D01*
X0055529Y0126972D01*
X0055541Y0126904D01*
X0055554Y0126830D01*
X0055591Y0126663D01*
X0055653Y0126483D01*
X0055690Y0126397D01*
X0055733Y0126316D01*
X0055789Y0126229D01*
X0055845Y0126155D01*
X0055851Y0126149D01*
X0055863Y0126137D01*
X0055882Y0126118D01*
X0055907Y0126093D01*
X0055938Y0126062D01*
X0055981Y0126031D01*
X0056030Y0125994D01*
X0056080Y0125957D01*
X0056142Y0125920D01*
X0056210Y0125883D01*
X0056359Y0125821D01*
X0056445Y0125796D01*
X0056532Y0125777D01*
X0056625Y0125765D01*
X0056724Y0125759D01*
X0056779D01*
X0056823Y0125765D01*
X0056866Y0125771D01*
X0056928Y0125777D01*
X0056990Y0125790D01*
X0057058Y0125808D01*
X0057200Y0125852D01*
X0057281Y0125883D01*
X0057355Y0125920D01*
X0057429Y0125963D01*
X0057504Y0126013D01*
X0057572Y0126068D01*
X0057640Y0126137D01*
X0057646Y0126143D01*
X0057652Y0126155D01*
X0057671Y0126174D01*
X0057689Y0126205D01*
X0057720Y0126248D01*
X0057745Y0126291D01*
X0057776Y0126347D01*
X0057807Y0126409D01*
X0057838Y0126483D01*
X0057869Y0126564D01*
X0057900Y0126650D01*
X0057925Y0126743D01*
X0057943Y0126842D01*
X0057962Y0126954D01*
X0057968Y0127071D01*
X0057974Y0127195D01*
Y0127201D01*
Y0127226D01*
Y0127263D01*
X0057968Y0127306D01*
X0057962Y0127368D01*
X0057956Y0127436D01*
X0057949Y0127511D01*
X0057931Y0127591D01*
X0057894Y0127758D01*
X0057838Y0127938D01*
X0057801Y0128024D01*
X0057758Y0128111D01*
X0057702Y0128192D01*
X0057646Y0128266D01*
X0057640Y0128272D01*
X0057634Y0128284D01*
X0057615Y0128303D01*
X0057584Y0128328D01*
X0057553Y0128352D01*
X0057516Y0128390D01*
X0057467Y0128421D01*
X0057417Y0128458D01*
X0057355Y0128495D01*
X0057287Y0128526D01*
X0057213Y0128563D01*
X0057132Y0128588D01*
X0057046Y0128612D01*
X0056959Y0128631D01*
X0056860Y0128643D01*
X0056755Y0128650D01*
D02*
G37*
G36*
X0044752Y0127678D02*
X0044715D01*
X0044690Y0127672D01*
X0044616Y0127665D01*
X0044530Y0127647D01*
X0044431Y0127616D01*
X0044325Y0127566D01*
X0044226Y0127498D01*
X0044177Y0127461D01*
X0044133Y0127412D01*
X0044121Y0127399D01*
X0044096Y0127362D01*
X0044065Y0127306D01*
X0044022Y0127226D01*
X0043979Y0127121D01*
X0043948Y0126997D01*
X0043923Y0126855D01*
X0043911Y0126687D01*
Y0126681D01*
Y0126669D01*
Y0126644D01*
X0043917Y0126613D01*
Y0126576D01*
X0043923Y0126533D01*
X0043941Y0126434D01*
X0043966Y0126322D01*
X0044010Y0126205D01*
X0044065Y0126087D01*
X0044140Y0125982D01*
X0044152Y0125969D01*
X0044183Y0125945D01*
X0044232Y0125901D01*
X0044300Y0125858D01*
X0044387Y0125808D01*
X0044492Y0125765D01*
X0044616Y0125740D01*
X0044752Y0125728D01*
X0044789D01*
X0044814Y0125734D01*
X0044888Y0125740D01*
X0044975Y0125759D01*
X0045068Y0125790D01*
X0045173Y0125833D01*
X0045266Y0125895D01*
X0045353Y0125976D01*
X0045359Y0125988D01*
X0045384Y0126025D01*
X0045421Y0126081D01*
X0045458Y0126161D01*
X0045495Y0126267D01*
X0045532Y0126390D01*
X0045557Y0126533D01*
X0045563Y0126700D01*
Y0126706D01*
Y0126718D01*
Y0126743D01*
Y0126780D01*
X0045557Y0126817D01*
X0045551Y0126861D01*
X0045538Y0126966D01*
X0045514Y0127084D01*
X0045477Y0127201D01*
X0045421Y0127319D01*
X0045353Y0127424D01*
X0045340Y0127436D01*
X0045316Y0127461D01*
X0045266Y0127505D01*
X0045198Y0127554D01*
X0045111Y0127597D01*
X0045012Y0127641D01*
X0044888Y0127665D01*
X0044752Y0127678D01*
D02*
G37*
G36*
X0058921Y0088616D02*
X0058884D01*
X0058859Y0088610D01*
X0058791Y0088604D01*
X0058711Y0088585D01*
X0058618Y0088548D01*
X0058519Y0088498D01*
X0058426Y0088436D01*
X0058383Y0088393D01*
X0058339Y0088344D01*
X0058333Y0088331D01*
X0058308Y0088294D01*
X0058271Y0088232D01*
X0058234Y0088152D01*
X0058197Y0088046D01*
X0058160Y0087916D01*
X0058135Y0087768D01*
X0058129Y0087601D01*
Y0087595D01*
Y0087582D01*
Y0087558D01*
X0058135Y0087527D01*
Y0087496D01*
X0058141Y0087452D01*
X0058154Y0087353D01*
X0058178Y0087242D01*
X0058216Y0087130D01*
X0058265Y0087019D01*
X0058333Y0086914D01*
X0058346Y0086901D01*
X0058370Y0086877D01*
X0058414Y0086833D01*
X0058476Y0086790D01*
X0058556Y0086747D01*
X0058649Y0086703D01*
X0058754Y0086678D01*
X0058878Y0086666D01*
X0058909D01*
X0058934Y0086672D01*
X0058995Y0086678D01*
X0059070Y0086697D01*
X0059157Y0086728D01*
X0059249Y0086765D01*
X0059336Y0086827D01*
X0059423Y0086908D01*
X0059429Y0086920D01*
X0059454Y0086951D01*
X0059491Y0087007D01*
X0059528Y0087075D01*
X0059565Y0087161D01*
X0059602Y0087266D01*
X0059627Y0087390D01*
X0059633Y0087520D01*
Y0087892D01*
Y0087898D01*
Y0087904D01*
Y0087941D01*
X0059621Y0087997D01*
X0059608Y0088071D01*
X0059584Y0088152D01*
X0059546Y0088238D01*
X0059497Y0088325D01*
X0059429Y0088406D01*
X0059423Y0088412D01*
X0059392Y0088436D01*
X0059348Y0088474D01*
X0059293Y0088511D01*
X0059218Y0088548D01*
X0059132Y0088585D01*
X0059033Y0088610D01*
X0058921Y0088616D01*
D02*
G37*
G36*
X0047909D02*
X0047878D01*
X0047853Y0088610D01*
X0047785Y0088604D01*
X0047705Y0088585D01*
X0047618Y0088554D01*
X0047519Y0088511D01*
X0047426Y0088449D01*
X0047340Y0088368D01*
X0047334Y0088356D01*
X0047309Y0088325D01*
X0047272Y0088275D01*
X0047234Y0088201D01*
X0047197Y0088115D01*
X0047160Y0088009D01*
X0047135Y0087892D01*
X0047129Y0087762D01*
Y0087409D01*
Y0087403D01*
Y0087397D01*
X0047135Y0087359D01*
X0047142Y0087297D01*
X0047154Y0087229D01*
X0047179Y0087143D01*
X0047216Y0087056D01*
X0047265Y0086969D01*
X0047334Y0086883D01*
X0047346Y0086877D01*
X0047371Y0086852D01*
X0047414Y0086815D01*
X0047476Y0086778D01*
X0047550Y0086734D01*
X0047637Y0086703D01*
X0047736Y0086678D01*
X0047847Y0086666D01*
X0047885D01*
X0047909Y0086672D01*
X0047971Y0086678D01*
X0048058Y0086703D01*
X0048145Y0086734D01*
X0048243Y0086784D01*
X0048336Y0086852D01*
X0048380Y0086895D01*
X0048417Y0086945D01*
Y0086951D01*
X0048423Y0086957D01*
X0048435Y0086976D01*
X0048448Y0086994D01*
X0048466Y0087025D01*
X0048485Y0087062D01*
X0048522Y0087149D01*
X0048559Y0087260D01*
X0048596Y0087390D01*
X0048621Y0087545D01*
X0048627Y0087725D01*
Y0087731D01*
Y0087743D01*
Y0087762D01*
Y0087793D01*
X0048621Y0087830D01*
X0048615Y0087867D01*
X0048603Y0087960D01*
X0048578Y0088065D01*
X0048547Y0088177D01*
X0048497Y0088282D01*
X0048435Y0088375D01*
X0048429Y0088387D01*
X0048398Y0088412D01*
X0048355Y0088449D01*
X0048299Y0088498D01*
X0048225Y0088542D01*
X0048132Y0088579D01*
X0048027Y0088604D01*
X0047909Y0088616D01*
D02*
G37*
G36*
X0070843D02*
X0070794D01*
X0070744Y0088604D01*
X0070676Y0088591D01*
X0070602Y0088566D01*
X0070515Y0088529D01*
X0070435Y0088480D01*
X0070354Y0088412D01*
X0070348Y0088406D01*
X0070323Y0088375D01*
X0070292Y0088331D01*
X0070249Y0088269D01*
X0070206Y0088195D01*
X0070169Y0088102D01*
X0070138Y0087997D01*
X0070113Y0087879D01*
X0071468D01*
Y0087885D01*
Y0087898D01*
Y0087910D01*
Y0087935D01*
X0071462Y0088003D01*
X0071450Y0088077D01*
X0071425Y0088170D01*
X0071400Y0088257D01*
X0071357Y0088344D01*
X0071301Y0088424D01*
X0071295Y0088430D01*
X0071270Y0088455D01*
X0071233Y0088486D01*
X0071184Y0088523D01*
X0071115Y0088554D01*
X0071035Y0088585D01*
X0070948Y0088610D01*
X0070843Y0088616D01*
D02*
G37*
G36*
X0061831D02*
X0061781D01*
X0061731Y0088604D01*
X0061663Y0088591D01*
X0061589Y0088566D01*
X0061502Y0088529D01*
X0061422Y0088480D01*
X0061342Y0088412D01*
X0061335Y0088406D01*
X0061311Y0088375D01*
X0061280Y0088331D01*
X0061236Y0088269D01*
X0061193Y0088195D01*
X0061156Y0088102D01*
X0061125Y0087997D01*
X0061100Y0087879D01*
X0062456D01*
Y0087885D01*
Y0087898D01*
Y0087910D01*
Y0087935D01*
X0062450Y0088003D01*
X0062437Y0088077D01*
X0062412Y0088170D01*
X0062388Y0088257D01*
X0062344Y0088344D01*
X0062289Y0088424D01*
X0062282Y0088430D01*
X0062258Y0088455D01*
X0062221Y0088486D01*
X0062171Y0088523D01*
X0062103Y0088554D01*
X0062022Y0088585D01*
X0061936Y0088610D01*
X0061831Y0088616D01*
D02*
G37*
G36*
X0054805D02*
X0054768D01*
X0054743Y0088610D01*
X0054669Y0088604D01*
X0054582Y0088585D01*
X0054483Y0088554D01*
X0054378Y0088504D01*
X0054279Y0088436D01*
X0054229Y0088399D01*
X0054186Y0088350D01*
X0054173Y0088337D01*
X0054149Y0088300D01*
X0054118Y0088245D01*
X0054075Y0088164D01*
X0054031Y0088059D01*
X0054000Y0087935D01*
X0053975Y0087793D01*
X0053963Y0087625D01*
Y0087619D01*
Y0087607D01*
Y0087582D01*
X0053969Y0087551D01*
Y0087514D01*
X0053975Y0087471D01*
X0053994Y0087372D01*
X0054019Y0087260D01*
X0054062Y0087143D01*
X0054118Y0087025D01*
X0054192Y0086920D01*
X0054204Y0086908D01*
X0054235Y0086883D01*
X0054285Y0086839D01*
X0054353Y0086796D01*
X0054440Y0086747D01*
X0054545Y0086703D01*
X0054669Y0086678D01*
X0054805Y0086666D01*
X0054842D01*
X0054867Y0086672D01*
X0054941Y0086678D01*
X0055028Y0086697D01*
X0055121Y0086728D01*
X0055226Y0086771D01*
X0055319Y0086833D01*
X0055405Y0086914D01*
X0055411Y0086926D01*
X0055436Y0086963D01*
X0055473Y0087019D01*
X0055511Y0087099D01*
X0055548Y0087205D01*
X0055585Y0087328D01*
X0055610Y0087471D01*
X0055616Y0087638D01*
Y0087644D01*
Y0087656D01*
Y0087681D01*
Y0087718D01*
X0055610Y0087756D01*
X0055603Y0087799D01*
X0055591Y0087904D01*
X0055566Y0088022D01*
X0055529Y0088139D01*
X0055473Y0088257D01*
X0055405Y0088362D01*
X0055393Y0088375D01*
X0055368Y0088399D01*
X0055319Y0088443D01*
X0055251Y0088492D01*
X0055164Y0088535D01*
X0055065Y0088579D01*
X0054941Y0088604D01*
X0054805Y0088616D01*
D02*
G37*
G36*
X0044864D02*
X0044827D01*
X0044802Y0088610D01*
X0044728Y0088604D01*
X0044641Y0088585D01*
X0044542Y0088554D01*
X0044437Y0088504D01*
X0044338Y0088436D01*
X0044288Y0088399D01*
X0044245Y0088350D01*
X0044232Y0088337D01*
X0044208Y0088300D01*
X0044177Y0088245D01*
X0044133Y0088164D01*
X0044090Y0088059D01*
X0044059Y0087935D01*
X0044034Y0087793D01*
X0044022Y0087625D01*
Y0087619D01*
Y0087607D01*
Y0087582D01*
X0044028Y0087551D01*
Y0087514D01*
X0044034Y0087471D01*
X0044053Y0087372D01*
X0044078Y0087260D01*
X0044121Y0087143D01*
X0044177Y0087025D01*
X0044251Y0086920D01*
X0044263Y0086908D01*
X0044294Y0086883D01*
X0044344Y0086839D01*
X0044412Y0086796D01*
X0044499Y0086747D01*
X0044604Y0086703D01*
X0044728Y0086678D01*
X0044864Y0086666D01*
X0044901D01*
X0044926Y0086672D01*
X0045000Y0086678D01*
X0045087Y0086697D01*
X0045179Y0086728D01*
X0045285Y0086771D01*
X0045377Y0086833D01*
X0045464Y0086914D01*
X0045470Y0086926D01*
X0045495Y0086963D01*
X0045532Y0087019D01*
X0045569Y0087099D01*
X0045606Y0087205D01*
X0045644Y0087328D01*
X0045669Y0087471D01*
X0045675Y0087638D01*
Y0087644D01*
Y0087656D01*
Y0087681D01*
Y0087718D01*
X0045669Y0087756D01*
X0045662Y0087799D01*
X0045650Y0087904D01*
X0045625Y0088022D01*
X0045588Y0088139D01*
X0045532Y0088257D01*
X0045464Y0088362D01*
X0045452Y0088375D01*
X0045427Y0088399D01*
X0045377Y0088443D01*
X0045309Y0088492D01*
X0045223Y0088535D01*
X0045124Y0088579D01*
X0045000Y0088604D01*
X0044864Y0088616D01*
D02*
G37*
%LPD*%
D11*
X-0024319Y-0031866D02*
G03*
X-0022417Y-0032653I0001897J0001892D01*
G01*
X0021768Y-0032650D02*
G03*
X0025181Y-0031236I-0000007J0004845D01*
G01*
X-0062660Y-0022428D02*
G03*
X-0060669Y-0017867I-0001801J0003501D01*
G01*
X-0062660Y-0022428D02*
G03*
X-0055813Y-0036604I0003601J-0007002D01*
G01*
X-0051003Y-0037880D02*
G03*
X-0055813Y-0036604I-0003187J-0002311D01*
G01*
X-0051003Y-0037880D02*
G03*
X0050995Y-0037880I0050999J0036974D01*
G01*
X0055805Y-0036604D02*
G03*
X0050995Y-0037880I-0001623J-0003587D01*
G01*
X0060661Y-0017867D02*
G03*
X0062652Y-0022428I0003792J-0001060D01*
G01*
X0055805Y-0036604D02*
G03*
X0062652Y-0022428I0003246J0007174D01*
G01*
X0060661Y-0017867D02*
G03*
X0037293Y0049857I-0060665J0016961D01*
G01*
X0036257Y0055071D02*
G03*
X0037293Y0049857I0003367J-0002041D01*
G01*
X0036257Y0055071D02*
G03*
X0022180Y0061992I-0006733J0004082D01*
G01*
X0017419Y0059628D02*
G03*
X0022180Y0061992I0001089J0003783D01*
G01*
X0017419Y0059628D02*
G03*
X0015709Y0060094I-0017423J-0060534D01*
G01*
X0012894Y0063874D02*
G03*
X0015602Y0060134I0003940J0000003D01*
G01*
X0012894Y0080611D02*
G03*
X0009748Y0083756I-0003145J0000000D01*
G01*
X-0009709D02*
G03*
X-0012854Y0080611I0000000J-0003145D01*
G01*
X-0015563Y0060134D02*
G03*
X-0017427Y0059628I0015559J-0061040D01*
G01*
X-0015563Y0060134D02*
G03*
X-0012854Y0063874I-0001232J0003743D01*
G01*
X-0022188Y0061992D02*
G03*
X-0017427Y0059628I0003672J0001419D01*
G01*
X-0022188Y0061992D02*
G03*
X-0036265Y0055071I-0007344J-0002839D01*
G01*
X-0037301Y0049857D02*
G03*
X-0036265Y0055071I-0002331J0003173D01*
G01*
X-0037301Y0049857D02*
G03*
X-0060669Y-0017867I0037297J-0050763D01*
G01*
X0015709Y0060094D02*
G03*
X0015602Y0060134I-0000180J-0000323D01*
G01*
X-0007784Y0037689D02*
X-0003803Y0038405D01*
X0007709Y0037701D02*
X0009961Y0037185D01*
X-0024272Y0030055D02*
X-0021961Y0031768D01*
X0031988Y0022126D02*
X0034303Y0018421D01*
X0038898Y-0007240D02*
X0039260Y-0004413D01*
X-0038484Y-0009173D02*
X-0037165Y-0013898D01*
X0030996Y-0025181D02*
X0033516Y-0021559D01*
X-0029110Y-0027409D02*
X-0027362Y-0029252D01*
X-0011000Y0036898D02*
X-0007784Y0037689D01*
X0005315Y0038102D02*
X0007709Y0037701D01*
X0028051Y0026752D02*
X0031988Y0022126D01*
X-0035236Y0016713D02*
X-0033457Y0019847D01*
X0038681Y0006461D02*
X0038984Y0004634D01*
X-0039173Y0003228D02*
X-0038681Y0006279D01*
X-0037165Y-0013898D02*
X-0035543Y-0017835D01*
X-0027362Y-0029252D02*
X-0025591Y-0030827D01*
X-0027362Y0027441D02*
X-0024272Y0030055D01*
X0024331Y0030047D02*
X0028051Y0026752D01*
X-0035689Y0015713D02*
X-0035236Y0016713D01*
X0038169Y0008740D02*
X0038681Y0006461D01*
X-0039319Y0001063D02*
X-0039173Y0003228D01*
X0039260Y-0004413D02*
X0039394Y-0001819D01*
X-0035543Y-0017835D02*
X-0034335Y-0020173D01*
X0033516Y-0021559D02*
X0035138Y-0018622D01*
X0003500Y0038307D02*
X0005315Y0038102D01*
X-0015358Y0035342D02*
X-0011000Y0036898D01*
X-0029110Y0025602D02*
X-0027362Y0027441D01*
X0037079Y0012327D02*
X0038169Y0008740D01*
X-0036319Y0014252D02*
X-0035689Y0015713D01*
X0039394Y-0001819D02*
X0039425Y-0000587D01*
X0035138Y-0018622D02*
X0036496Y-0015669D01*
X-0025591Y-0030827D02*
X-0024319Y-0031866D01*
X0025181Y-0031236D02*
X0025787Y-0030630D01*
X0001291Y0038421D02*
X0003500Y0038307D01*
X-0017335Y0034441D02*
X-0015358Y0035342D01*
X0021768Y0031898D02*
X0024331Y0030047D01*
X-0032098Y0021890D02*
X-0029110Y0025602D01*
X-0039319Y-0002874D02*
Y0001063D01*
X0036496Y-0015669D02*
X0037472Y-0013008D01*
X-0034335Y-0020173D02*
X-0032098Y-0023701D01*
X0025787Y-0030630D02*
X0028445Y-0028169D01*
X-0022417Y-0032653D02*
X-0021961Y-0032650D01*
X-0001224Y0038453D02*
X0001291Y0038421D01*
X0012874Y0036299D02*
X0015870Y0035126D01*
X0018701Y0033740D02*
X0021768Y0031898D01*
X0035693Y0015709D02*
X0037079Y0012327D01*
X-0037634Y0010657D02*
X-0036319Y0014252D01*
X0039323Y0001063D02*
X0039425Y-0000587D01*
X-0039319Y-0002874D02*
X-0039075Y-0006024D01*
X-0032098Y-0023701D02*
X-0030953Y-0025236D01*
X0028445Y-0028169D02*
X0029847Y-0026579D01*
X-0021961Y-0032650D02*
X0021768D01*
X0009961Y0037185D02*
X0012874Y0036299D01*
X-0020736Y0032563D02*
X-0017335Y0034441D01*
X0015870Y0035126D02*
X0018701Y0033740D01*
X-0032803Y0020862D02*
X-0032098Y0021890D01*
X0034303Y0018421D02*
X0035693Y0015709D01*
X-0038118Y0008937D02*
X-0037634Y0010657D01*
X0039213Y0002717D02*
X0039323Y0001063D01*
X-0039075Y-0006024D02*
X-0038484Y-0009173D01*
X0037472Y-0013008D02*
X0038091Y-0010957D01*
X-0003803Y0038405D02*
X-0001224Y0038453D01*
X-0021961Y0031768D02*
X-0020736Y0032563D01*
X-0033457Y0019847D02*
X-0032803Y0020862D01*
X0038984Y0004634D02*
X0039213Y0002717D01*
X-0038681Y0006279D02*
X-0038118Y0008937D01*
X0038091Y-0010957D02*
X0038898Y-0007240D01*
X-0030953Y-0025236D02*
X-0029110Y-0027409D01*
X0029847Y-0026579D02*
X0030996Y-0025181D01*
X0012894Y0063874D02*
Y0080611D01*
X-0009709Y0083756D02*
X0009748D01*
X-0012854Y0063874D02*
Y0080611D01*
D21*
X-0009630Y-0057110D02*
D03*
Y-0044118D02*
D03*
X0009661D02*
D03*
Y-0057110D02*
D03*
X0009646Y0054626D02*
D03*
Y0041634D02*
D03*
X-0009646D02*
D03*
Y0054626D02*
D03*
D22*
X0032934Y-0047473D02*
D03*
X0023747Y-0038286D02*
D03*
X0037389Y-0024645D02*
D03*
X0046575Y-0033832D02*
D03*
X-0032899Y0045654D02*
D03*
X-0023712Y0036467D02*
D03*
X-0037353Y0022826D02*
D03*
X-0046540Y0032013D02*
D03*
D23*
X0056221Y-0010559D02*
D03*
X0043228D02*
D03*
Y0008732D02*
D03*
X0056221D02*
D03*
X-0056185Y-0010551D02*
D03*
X-0043193D02*
D03*
Y0008740D02*
D03*
X-0056185D02*
D03*
D24*
X0046579Y0032009D02*
D03*
X0037393Y0022822D02*
D03*
X0023751Y0036463D02*
D03*
X0032938Y0045650D02*
D03*
X-0032903Y-0047469D02*
D03*
X-0023716Y-0038282D02*
D03*
X-0037357Y-0024641D02*
D03*
X-0046544Y-0033828D02*
D03*
D25*
X0047849Y-0027475D02*
D03*
X0045065Y-0024691D02*
D03*
X-0051283Y0027178D02*
D03*
X-0048499Y0024394D02*
D03*
D26*
X0000000Y0074213D02*
D03*
X-0005000D02*
D03*
D27*
X0005000Y0073228D02*
D03*
D28*
X-0016339Y0054429D02*
D03*
Y0057185D02*
D03*
X0016432Y0053404D02*
D03*
Y0056160D02*
D03*
D29*
X0016634Y-0054528D02*
D03*
Y-0058465D02*
D03*
X-0014546Y0050460D02*
D03*
Y0046523D02*
D03*
D30*
X0023477Y0044508D02*
D03*
X0026261Y0047291D02*
D03*
X-0026474Y-0049339D02*
D03*
X-0029258Y-0052122D02*
D03*
D31*
X0050184Y0014982D02*
D03*
X0054121D02*
D03*
X-0056211Y-0016708D02*
D03*
X-0052274D02*
D03*
D32*
X-0021659Y-0054035D02*
D03*
D33*
X-0015059D02*
D03*
X-0021659Y-0044035D02*
D03*
Y-0049035D02*
D03*
X-0015059D02*
D03*
D34*
X-0059059Y-0029429D02*
D03*
X0029524Y0059153D02*
D03*
X0059047Y-0029433D02*
D03*
X-0029531Y0059153D02*
D03*
D35*
X-0005000Y0062894D02*
D03*
X0000000D02*
D03*
X0005000D02*
D03*
D36*
X0009921Y0071161D02*
D03*
X-0009921D02*
D03*
M02*
