G04*
G04 #@! TF.GenerationSoftware,Altium Limited,Altium Designer,21.9.2 (33)*
G04*
G04 Layer_Physical_Order=1*
G04 Layer_Color=255*
%FSAX25Y25*%
%MOIN*%
G70*
G04*
G04 #@! TF.SameCoordinates,769468AF-EC4D-4854-9D34-422089E218C9*
G04*
G04*
G04 #@! TF.FilePolarity,Positive*
G04*
G01*
G75*
%ADD10C,0.01968*%
%ADD11C,0.00787*%
%ADD12R,0.05906X0.03543*%
G04:AMPARAMS|DCode=13|XSize=59.06mil|YSize=35.43mil|CornerRadius=0mil|HoleSize=0mil|Usage=FLASHONLY|Rotation=225.000|XOffset=0mil|YOffset=0mil|HoleType=Round|Shape=Rectangle|*
%AMROTATEDRECTD13*
4,1,4,0.00835,0.03341,0.03341,0.00835,-0.00835,-0.03341,-0.03341,-0.00835,0.00835,0.03341,0.0*
%
%ADD13ROTATEDRECTD13*%

%ADD14R,0.03543X0.05906*%
G04:AMPARAMS|DCode=15|XSize=59.06mil|YSize=35.43mil|CornerRadius=0mil|HoleSize=0mil|Usage=FLASHONLY|Rotation=315.000|XOffset=0mil|YOffset=0mil|HoleType=Round|Shape=Rectangle|*
%AMROTATEDRECTD15*
4,1,4,-0.03341,0.00835,-0.00835,0.03341,0.03341,-0.00835,0.00835,-0.03341,-0.03341,0.00835,0.0*
%
%ADD15ROTATEDRECTD15*%

G04:AMPARAMS|DCode=16|XSize=19.68mil|YSize=21.65mil|CornerRadius=0mil|HoleSize=0mil|Usage=FLASHONLY|Rotation=315.000|XOffset=0mil|YOffset=0mil|HoleType=Round|Shape=Rectangle|*
%AMROTATEDRECTD16*
4,1,4,-0.01462,-0.00070,0.00070,0.01462,0.01462,0.00070,-0.00070,-0.01462,-0.01462,-0.00070,0.0*
%
%ADD16ROTATEDRECTD16*%

%ADD18R,0.02165X0.01968*%
G04:AMPARAMS|DCode=19|XSize=19.68mil|YSize=21.65mil|CornerRadius=0mil|HoleSize=0mil|Usage=FLASHONLY|Rotation=45.000|XOffset=0mil|YOffset=0mil|HoleType=Round|Shape=Rectangle|*
%AMROTATEDRECTD19*
4,1,4,0.00070,-0.01462,-0.01462,0.00070,-0.00070,0.01462,0.01462,-0.00070,0.00070,-0.01462,0.0*
%
%ADD19ROTATEDRECTD19*%

%ADD20R,0.01968X0.02165*%
G04:AMPARAMS|DCode=26|XSize=35.43mil|YSize=135.83mil|CornerRadius=13.82mil|HoleSize=0mil|Usage=FLASHONLY|Rotation=180.000|XOffset=0mil|YOffset=0mil|HoleType=Round|Shape=RoundedRectangle|*
%AMROUNDEDRECTD26*
21,1,0.03543,0.10819,0,0,180.0*
21,1,0.00780,0.13583,0,0,180.0*
1,1,0.02764,-0.00390,0.05409*
1,1,0.02764,0.00390,0.05409*
1,1,0.02764,0.00390,-0.05409*
1,1,0.02764,-0.00390,-0.05409*
%
%ADD26ROUNDEDRECTD26*%
G04:AMPARAMS|DCode=27|XSize=35.43mil|YSize=116.14mil|CornerRadius=13.82mil|HoleSize=0mil|Usage=FLASHONLY|Rotation=180.000|XOffset=0mil|YOffset=0mil|HoleType=Round|Shape=RoundedRectangle|*
%AMROUNDEDRECTD27*
21,1,0.03543,0.08850,0,0,180.0*
21,1,0.00780,0.11614,0,0,180.0*
1,1,0.02764,-0.00390,0.04425*
1,1,0.02764,0.00390,0.04425*
1,1,0.02764,0.00390,-0.04425*
1,1,0.02764,-0.00390,-0.04425*
%
%ADD27ROUNDEDRECTD27*%
%ADD35C,0.04331*%
%ADD37R,0.02756X0.01575*%
%ADD38C,0.01339*%
%ADD39C,0.01575*%
%ADD40C,0.00984*%
%ADD41C,0.00866*%
%ADD42C,0.01181*%
%ADD43R,0.04370X0.04370*%
%ADD44C,0.04370*%
%ADD45C,0.11811*%
%ADD46C,0.02362*%
G36*
X0048089Y0144099D02*
X0048132Y0144093D01*
X0048175Y0144087D01*
X0048287Y0144062D01*
X0048411Y0144025D01*
X0048534Y0143963D01*
X0048596Y0143926D01*
X0048658Y0143876D01*
X0048714Y0143827D01*
X0048770Y0143765D01*
X0048776Y0143759D01*
X0048782Y0143753D01*
X0048794Y0143728D01*
X0048813Y0143703D01*
X0048831Y0143672D01*
X0048856Y0143629D01*
X0048881Y0143579D01*
X0048906Y0143530D01*
X0048931Y0143468D01*
X0048955Y0143400D01*
X0048980Y0143325D01*
X0048999Y0143245D01*
X0049030Y0143066D01*
X0049042Y0142966D01*
Y0142861D01*
Y0142855D01*
Y0142836D01*
Y0142799D01*
X0049036Y0142756D01*
Y0142707D01*
X0049023Y0142645D01*
X0049017Y0142577D01*
X0049005Y0142502D01*
X0048968Y0142341D01*
X0048912Y0142174D01*
X0048875Y0142094D01*
X0048838Y0142013D01*
X0048788Y0141933D01*
X0048733Y0141858D01*
X0048726Y0141852D01*
X0048720Y0141840D01*
X0048702Y0141821D01*
X0048677Y0141803D01*
X0048646Y0141772D01*
X0048609Y0141741D01*
X0048565Y0141704D01*
X0048516Y0141673D01*
X0048460Y0141636D01*
X0048398Y0141598D01*
X0048250Y0141543D01*
X0048169Y0141518D01*
X0048089Y0141499D01*
X0047996Y0141487D01*
X0047897Y0141481D01*
X0047847D01*
X0047816Y0141487D01*
X0047773Y0141493D01*
X0047730Y0141506D01*
X0047618Y0141530D01*
X0047501Y0141580D01*
X0047433Y0141617D01*
X0047371Y0141654D01*
X0047309Y0141704D01*
X0047253Y0141759D01*
X0047191Y0141821D01*
X0047142Y0141896D01*
X0047129D01*
Y0140385D01*
X0046727D01*
Y0144050D01*
X0047129D01*
Y0143604D01*
X0047142D01*
X0047148Y0143610D01*
X0047154Y0143629D01*
X0047173Y0143654D01*
X0047197Y0143684D01*
X0047228Y0143722D01*
X0047265Y0143765D01*
X0047309Y0143808D01*
X0047365Y0143858D01*
X0047420Y0143901D01*
X0047482Y0143945D01*
X0047556Y0143988D01*
X0047631Y0144025D01*
X0047717Y0144062D01*
X0047810Y0144087D01*
X0047903Y0144099D01*
X0048008Y0144106D01*
X0048058D01*
X0048089Y0144099D01*
D02*
G37*
G36*
X0062202Y0144087D02*
X0062276Y0144081D01*
X0062320Y0144068D01*
X0062350Y0144056D01*
Y0143641D01*
X0062344Y0143647D01*
X0062332Y0143654D01*
X0062307Y0143666D01*
X0062276Y0143684D01*
X0062233Y0143697D01*
X0062177Y0143709D01*
X0062115Y0143716D01*
X0062047Y0143722D01*
X0062035D01*
X0062004Y0143716D01*
X0061954Y0143709D01*
X0061899Y0143691D01*
X0061824Y0143660D01*
X0061756Y0143616D01*
X0061682Y0143554D01*
X0061614Y0143474D01*
X0061608Y0143462D01*
X0061589Y0143431D01*
X0061558Y0143375D01*
X0061527Y0143301D01*
X0061496Y0143208D01*
X0061465Y0143090D01*
X0061447Y0142960D01*
X0061441Y0142812D01*
Y0141537D01*
X0061038D01*
Y0144050D01*
X0061441D01*
Y0143530D01*
X0061453D01*
Y0143536D01*
X0061459Y0143542D01*
X0061471Y0143573D01*
X0061490Y0143623D01*
X0061521Y0143684D01*
X0061552Y0143746D01*
X0061602Y0143815D01*
X0061651Y0143883D01*
X0061713Y0143945D01*
X0061719Y0143951D01*
X0061744Y0143969D01*
X0061781Y0143994D01*
X0061831Y0144019D01*
X0061886Y0144044D01*
X0061954Y0144068D01*
X0062029Y0144087D01*
X0062109Y0144093D01*
X0062165D01*
X0062202Y0144087D01*
D02*
G37*
G36*
X0056823Y0141134D02*
X0056817Y0141128D01*
X0056810Y0141103D01*
X0056792Y0141060D01*
X0056767Y0141010D01*
X0056736Y0140955D01*
X0056693Y0140887D01*
X0056650Y0140819D01*
X0056600Y0140744D01*
X0056538Y0140670D01*
X0056476Y0140602D01*
X0056402Y0140534D01*
X0056321Y0140478D01*
X0056241Y0140429D01*
X0056148Y0140385D01*
X0056055Y0140360D01*
X0055950Y0140354D01*
X0055894D01*
X0055857Y0140360D01*
X0055777Y0140373D01*
X0055690Y0140392D01*
Y0140751D01*
X0055696D01*
X0055715Y0140744D01*
X0055740Y0140738D01*
X0055770Y0140732D01*
X0055845Y0140713D01*
X0055925Y0140707D01*
X0055938D01*
X0055975Y0140713D01*
X0056030Y0140726D01*
X0056099Y0140751D01*
X0056173Y0140794D01*
X0056210Y0140825D01*
X0056247Y0140862D01*
X0056284Y0140899D01*
X0056321Y0140949D01*
X0056352Y0141004D01*
X0056383Y0141066D01*
X0056588Y0141537D01*
X0055603Y0144050D01*
X0056049D01*
X0056730Y0142112D01*
Y0142106D01*
X0056736Y0142094D01*
X0056742Y0142075D01*
X0056749Y0142050D01*
X0056755Y0142013D01*
X0056767Y0141976D01*
X0056779Y0141920D01*
X0056798D01*
Y0141933D01*
X0056810Y0141970D01*
X0056823Y0142026D01*
X0056848Y0142106D01*
X0057559Y0144050D01*
X0057974D01*
X0056823Y0141134D01*
D02*
G37*
G36*
X0054415Y0144099D02*
X0054471Y0144093D01*
X0054539Y0144074D01*
X0054613Y0144056D01*
X0054694Y0144025D01*
X0054780Y0143988D01*
X0054861Y0143938D01*
X0054941Y0143876D01*
X0055015Y0143802D01*
X0055083Y0143709D01*
X0055139Y0143604D01*
X0055182Y0143480D01*
X0055207Y0143338D01*
X0055220Y0143171D01*
Y0141537D01*
X0054817D01*
Y0141927D01*
X0054805D01*
Y0141920D01*
X0054792Y0141908D01*
X0054780Y0141883D01*
X0054755Y0141858D01*
X0054694Y0141784D01*
X0054613Y0141704D01*
X0054502Y0141623D01*
X0054372Y0141549D01*
X0054291Y0141524D01*
X0054211Y0141499D01*
X0054124Y0141487D01*
X0054031Y0141481D01*
X0053994D01*
X0053969Y0141487D01*
X0053901Y0141493D01*
X0053821Y0141506D01*
X0053722Y0141530D01*
X0053629Y0141561D01*
X0053530Y0141611D01*
X0053443Y0141673D01*
X0053437Y0141685D01*
X0053412Y0141710D01*
X0053375Y0141753D01*
X0053338Y0141815D01*
X0053301Y0141889D01*
X0053264Y0141976D01*
X0053239Y0142081D01*
X0053233Y0142199D01*
Y0142205D01*
Y0142230D01*
X0053239Y0142267D01*
X0053245Y0142310D01*
X0053257Y0142366D01*
X0053276Y0142428D01*
X0053301Y0142496D01*
X0053338Y0142564D01*
X0053381Y0142638D01*
X0053437Y0142713D01*
X0053505Y0142781D01*
X0053585Y0142843D01*
X0053678Y0142905D01*
X0053790Y0142954D01*
X0053913Y0142991D01*
X0054062Y0143022D01*
X0054817Y0143127D01*
Y0143134D01*
Y0143152D01*
X0054811Y0143189D01*
Y0143227D01*
X0054799Y0143276D01*
X0054792Y0143332D01*
X0054755Y0143449D01*
X0054724Y0143505D01*
X0054694Y0143561D01*
X0054650Y0143616D01*
X0054601Y0143666D01*
X0054539Y0143709D01*
X0054471Y0143740D01*
X0054390Y0143759D01*
X0054297Y0143765D01*
X0054254D01*
X0054223Y0143759D01*
X0054180D01*
X0054136Y0143746D01*
X0054025Y0143728D01*
X0053901Y0143691D01*
X0053765Y0143635D01*
X0053691Y0143598D01*
X0053623Y0143561D01*
X0053548Y0143511D01*
X0053480Y0143456D01*
Y0143870D01*
X0053486D01*
X0053499Y0143883D01*
X0053517Y0143895D01*
X0053548Y0143907D01*
X0053579Y0143926D01*
X0053623Y0143945D01*
X0053672Y0143963D01*
X0053728Y0143988D01*
X0053852Y0144031D01*
X0054000Y0144068D01*
X0054161Y0144093D01*
X0054334Y0144106D01*
X0054372D01*
X0054415Y0144099D01*
D02*
G37*
G36*
X0051524Y0141908D02*
X0052935D01*
Y0141537D01*
X0051109D01*
Y0145053D01*
X0051524D01*
Y0141908D01*
D02*
G37*
G36*
X0043285Y0144681D02*
X0042270D01*
Y0141537D01*
X0041862D01*
Y0144681D01*
X0040846D01*
Y0145053D01*
X0043285D01*
Y0144681D01*
D02*
G37*
G36*
X0059478Y0144099D02*
X0059522Y0144093D01*
X0059565Y0144087D01*
X0059676Y0144068D01*
X0059800Y0144025D01*
X0059924Y0143969D01*
X0059986Y0143932D01*
X0060048Y0143889D01*
X0060103Y0143839D01*
X0060159Y0143784D01*
X0060165Y0143777D01*
X0060172Y0143771D01*
X0060184Y0143753D01*
X0060203Y0143728D01*
X0060221Y0143691D01*
X0060246Y0143654D01*
X0060271Y0143610D01*
X0060295Y0143554D01*
X0060320Y0143493D01*
X0060345Y0143431D01*
X0060370Y0143357D01*
X0060388Y0143276D01*
X0060407Y0143189D01*
X0060419Y0143103D01*
X0060432Y0143004D01*
Y0142898D01*
Y0142688D01*
X0058655D01*
Y0142682D01*
Y0142669D01*
Y0142651D01*
X0058661Y0142620D01*
X0058667Y0142583D01*
Y0142546D01*
X0058686Y0142446D01*
X0058717Y0142348D01*
X0058754Y0142236D01*
X0058810Y0142131D01*
X0058878Y0142038D01*
X0058890Y0142026D01*
X0058915Y0142001D01*
X0058965Y0141970D01*
X0059033Y0141927D01*
X0059119Y0141883D01*
X0059218Y0141852D01*
X0059336Y0141827D01*
X0059472Y0141815D01*
X0059516D01*
X0059546Y0141821D01*
X0059584D01*
X0059627Y0141827D01*
X0059732Y0141852D01*
X0059850Y0141883D01*
X0059980Y0141933D01*
X0060116Y0142001D01*
X0060184Y0142044D01*
X0060252Y0142094D01*
Y0141716D01*
X0060246D01*
X0060240Y0141704D01*
X0060221Y0141698D01*
X0060190Y0141679D01*
X0060159Y0141660D01*
X0060122Y0141642D01*
X0060073Y0141623D01*
X0060023Y0141598D01*
X0059961Y0141574D01*
X0059893Y0141555D01*
X0059745Y0141518D01*
X0059571Y0141493D01*
X0059379Y0141481D01*
X0059330D01*
X0059293Y0141487D01*
X0059249Y0141493D01*
X0059194Y0141499D01*
X0059076Y0141524D01*
X0058940Y0141561D01*
X0058804Y0141623D01*
X0058736Y0141667D01*
X0058667Y0141710D01*
X0058606Y0141759D01*
X0058544Y0141821D01*
X0058538Y0141827D01*
X0058531Y0141840D01*
X0058519Y0141858D01*
X0058494Y0141883D01*
X0058476Y0141920D01*
X0058451Y0141964D01*
X0058420Y0142013D01*
X0058395Y0142069D01*
X0058364Y0142131D01*
X0058339Y0142205D01*
X0058308Y0142286D01*
X0058290Y0142372D01*
X0058271Y0142465D01*
X0058253Y0142564D01*
X0058246Y0142669D01*
X0058240Y0142781D01*
Y0142787D01*
Y0142806D01*
Y0142836D01*
X0058246Y0142880D01*
X0058253Y0142929D01*
X0058259Y0142985D01*
X0058265Y0143053D01*
X0058284Y0143121D01*
X0058321Y0143270D01*
X0058376Y0143431D01*
X0058414Y0143511D01*
X0058463Y0143586D01*
X0058513Y0143666D01*
X0058568Y0143734D01*
X0058575Y0143740D01*
X0058587Y0143753D01*
X0058606Y0143771D01*
X0058630Y0143790D01*
X0058661Y0143821D01*
X0058698Y0143852D01*
X0058748Y0143883D01*
X0058797Y0143920D01*
X0058915Y0143988D01*
X0059057Y0144050D01*
X0059138Y0144068D01*
X0059218Y0144087D01*
X0059305Y0144099D01*
X0059398Y0144106D01*
X0059447D01*
X0059478Y0144099D01*
D02*
G37*
G36*
X0044987D02*
X0045031Y0144093D01*
X0045087Y0144087D01*
X0045210Y0144062D01*
X0045353Y0144019D01*
X0045495Y0143957D01*
X0045569Y0143920D01*
X0045638Y0143876D01*
X0045706Y0143821D01*
X0045768Y0143759D01*
X0045774Y0143753D01*
X0045780Y0143740D01*
X0045798Y0143722D01*
X0045817Y0143697D01*
X0045842Y0143660D01*
X0045867Y0143616D01*
X0045897Y0143567D01*
X0045928Y0143511D01*
X0045953Y0143443D01*
X0045984Y0143375D01*
X0046009Y0143295D01*
X0046034Y0143208D01*
X0046052Y0143115D01*
X0046071Y0143016D01*
X0046077Y0142911D01*
X0046083Y0142799D01*
Y0142793D01*
Y0142775D01*
Y0142744D01*
X0046077Y0142700D01*
X0046071Y0142651D01*
X0046065Y0142589D01*
X0046052Y0142527D01*
X0046040Y0142453D01*
X0046003Y0142304D01*
X0045941Y0142143D01*
X0045904Y0142063D01*
X0045854Y0141982D01*
X0045805Y0141908D01*
X0045743Y0141840D01*
X0045737Y0141834D01*
X0045724Y0141827D01*
X0045706Y0141809D01*
X0045681Y0141784D01*
X0045644Y0141759D01*
X0045606Y0141728D01*
X0045557Y0141691D01*
X0045501Y0141660D01*
X0045439Y0141630D01*
X0045371Y0141592D01*
X0045297Y0141561D01*
X0045217Y0141537D01*
X0045130Y0141512D01*
X0045037Y0141499D01*
X0044938Y0141487D01*
X0044833Y0141481D01*
X0044777D01*
X0044740Y0141487D01*
X0044697Y0141493D01*
X0044641Y0141499D01*
X0044579Y0141512D01*
X0044511Y0141524D01*
X0044368Y0141568D01*
X0044220Y0141630D01*
X0044146Y0141667D01*
X0044078Y0141716D01*
X0044010Y0141766D01*
X0043941Y0141827D01*
X0043935Y0141834D01*
X0043929Y0141846D01*
X0043911Y0141865D01*
X0043892Y0141889D01*
X0043867Y0141927D01*
X0043836Y0141970D01*
X0043805Y0142019D01*
X0043780Y0142075D01*
X0043749Y0142143D01*
X0043719Y0142211D01*
X0043688Y0142286D01*
X0043663Y0142372D01*
X0043626Y0142558D01*
X0043620Y0142657D01*
X0043613Y0142762D01*
Y0142768D01*
Y0142793D01*
Y0142824D01*
X0043620Y0142868D01*
X0043626Y0142917D01*
X0043632Y0142979D01*
X0043644Y0143047D01*
X0043657Y0143121D01*
X0043694Y0143282D01*
X0043756Y0143443D01*
X0043799Y0143524D01*
X0043842Y0143604D01*
X0043892Y0143678D01*
X0043954Y0143746D01*
X0043960Y0143753D01*
X0043972Y0143765D01*
X0043991Y0143777D01*
X0044016Y0143802D01*
X0044053Y0143827D01*
X0044096Y0143858D01*
X0044146Y0143895D01*
X0044201Y0143926D01*
X0044263Y0143957D01*
X0044338Y0143994D01*
X0044412Y0144025D01*
X0044499Y0144050D01*
X0044585Y0144074D01*
X0044684Y0144093D01*
X0044789Y0144099D01*
X0044895Y0144106D01*
X0044950D01*
X0044987Y0144099D01*
D02*
G37*
G36*
X0065056Y0129114D02*
X0065080D01*
X0065136Y0129089D01*
X0065167Y0129071D01*
X0065198Y0129046D01*
X0065204Y0129040D01*
X0065210Y0129033D01*
X0065241Y0128996D01*
X0065266Y0128934D01*
X0065272Y0128897D01*
X0065278Y0128860D01*
Y0128854D01*
Y0128841D01*
X0065272Y0128823D01*
X0065266Y0128798D01*
X0065247Y0128736D01*
X0065223Y0128705D01*
X0065198Y0128674D01*
X0065192D01*
X0065185Y0128662D01*
X0065148Y0128637D01*
X0065093Y0128612D01*
X0065056Y0128606D01*
X0065018Y0128600D01*
X0065000D01*
X0064981Y0128606D01*
X0064956D01*
X0064895Y0128631D01*
X0064864Y0128643D01*
X0064833Y0128668D01*
Y0128674D01*
X0064820Y0128681D01*
X0064808Y0128699D01*
X0064796Y0128718D01*
X0064771Y0128780D01*
X0064765Y0128817D01*
X0064758Y0128860D01*
Y0128866D01*
Y0128879D01*
X0064765Y0128897D01*
X0064771Y0128928D01*
X0064789Y0128984D01*
X0064808Y0129015D01*
X0064833Y0129046D01*
X0064839Y0129052D01*
X0064845Y0129058D01*
X0064882Y0129083D01*
X0064944Y0129108D01*
X0064981Y0129120D01*
X0065037D01*
X0065056Y0129114D01*
D02*
G37*
G36*
X0053066Y0125449D02*
X0052663D01*
Y0125870D01*
X0052651D01*
Y0125864D01*
X0052638Y0125852D01*
X0052620Y0125827D01*
X0052601Y0125796D01*
X0052570Y0125759D01*
X0052533Y0125722D01*
X0052490Y0125678D01*
X0052440Y0125635D01*
X0052385Y0125586D01*
X0052316Y0125542D01*
X0052248Y0125505D01*
X0052168Y0125468D01*
X0052087Y0125437D01*
X0051995Y0125412D01*
X0051896Y0125400D01*
X0051790Y0125394D01*
X0051747D01*
X0051710Y0125400D01*
X0051673Y0125406D01*
X0051623Y0125412D01*
X0051518Y0125437D01*
X0051394Y0125474D01*
X0051270Y0125536D01*
X0051202Y0125573D01*
X0051147Y0125617D01*
X0051085Y0125672D01*
X0051029Y0125728D01*
Y0125734D01*
X0051017Y0125747D01*
X0051004Y0125765D01*
X0050986Y0125790D01*
X0050967Y0125821D01*
X0050942Y0125864D01*
X0050918Y0125914D01*
X0050893Y0125969D01*
X0050862Y0126031D01*
X0050837Y0126099D01*
X0050812Y0126174D01*
X0050794Y0126254D01*
X0050775Y0126341D01*
X0050763Y0126440D01*
X0050757Y0126539D01*
X0050750Y0126644D01*
Y0126650D01*
Y0126669D01*
Y0126706D01*
X0050757Y0126749D01*
X0050763Y0126799D01*
X0050769Y0126861D01*
X0050775Y0126929D01*
X0050788Y0127003D01*
X0050825Y0127164D01*
X0050880Y0127331D01*
X0050918Y0127412D01*
X0050961Y0127492D01*
X0051004Y0127566D01*
X0051060Y0127641D01*
X0051066Y0127647D01*
X0051072Y0127659D01*
X0051091Y0127678D01*
X0051116Y0127703D01*
X0051147Y0127727D01*
X0051190Y0127758D01*
X0051233Y0127795D01*
X0051283Y0127832D01*
X0051407Y0127901D01*
X0051549Y0127963D01*
X0051629Y0127981D01*
X0051716Y0128000D01*
X0051803Y0128012D01*
X0051902Y0128018D01*
X0051951D01*
X0051988Y0128012D01*
X0052026Y0128006D01*
X0052075Y0128000D01*
X0052187Y0127969D01*
X0052310Y0127919D01*
X0052372Y0127888D01*
X0052434Y0127845D01*
X0052496Y0127802D01*
X0052552Y0127746D01*
X0052601Y0127684D01*
X0052651Y0127610D01*
X0052663D01*
Y0129170D01*
X0053066D01*
Y0125449D01*
D02*
G37*
G36*
X0067334Y0128012D02*
X0067408Y0128006D01*
X0067501Y0127987D01*
X0067600Y0127956D01*
X0067705Y0127907D01*
X0067810Y0127839D01*
X0067853Y0127802D01*
X0067897Y0127752D01*
X0067909Y0127740D01*
X0067934Y0127703D01*
X0067965Y0127641D01*
X0068008Y0127554D01*
X0068045Y0127449D01*
X0068082Y0127319D01*
X0068107Y0127164D01*
X0068113Y0126985D01*
Y0125449D01*
X0067711D01*
Y0126879D01*
Y0126885D01*
Y0126916D01*
X0067705Y0126954D01*
Y0127003D01*
X0067693Y0127065D01*
X0067680Y0127133D01*
X0067661Y0127207D01*
X0067637Y0127282D01*
X0067606Y0127356D01*
X0067569Y0127424D01*
X0067519Y0127492D01*
X0067463Y0127554D01*
X0067401Y0127603D01*
X0067321Y0127641D01*
X0067234Y0127672D01*
X0067129Y0127678D01*
X0067117D01*
X0067080Y0127672D01*
X0067024Y0127665D01*
X0066956Y0127647D01*
X0066875Y0127622D01*
X0066789Y0127579D01*
X0066708Y0127523D01*
X0066628Y0127449D01*
X0066622Y0127436D01*
X0066597Y0127412D01*
X0066566Y0127362D01*
X0066529Y0127294D01*
X0066492Y0127214D01*
X0066461Y0127114D01*
X0066436Y0127003D01*
X0066430Y0126879D01*
Y0125449D01*
X0066027D01*
Y0127963D01*
X0066430D01*
Y0127542D01*
X0066442D01*
X0066448Y0127548D01*
X0066454Y0127560D01*
X0066473Y0127585D01*
X0066498Y0127616D01*
X0066523Y0127653D01*
X0066560Y0127690D01*
X0066603Y0127734D01*
X0066653Y0127783D01*
X0066708Y0127826D01*
X0066770Y0127870D01*
X0066838Y0127907D01*
X0066913Y0127944D01*
X0066987Y0127975D01*
X0067074Y0128000D01*
X0067166Y0128012D01*
X0067265Y0128018D01*
X0067303D01*
X0067334Y0128012D01*
D02*
G37*
G36*
X0050336Y0128000D02*
X0050410Y0127994D01*
X0050453Y0127981D01*
X0050484Y0127969D01*
Y0127554D01*
X0050478Y0127560D01*
X0050466Y0127566D01*
X0050441Y0127579D01*
X0050410Y0127597D01*
X0050367Y0127610D01*
X0050311Y0127622D01*
X0050249Y0127628D01*
X0050181Y0127635D01*
X0050169D01*
X0050138Y0127628D01*
X0050088Y0127622D01*
X0050032Y0127603D01*
X0049958Y0127573D01*
X0049890Y0127529D01*
X0049816Y0127467D01*
X0049748Y0127387D01*
X0049742Y0127374D01*
X0049723Y0127343D01*
X0049692Y0127288D01*
X0049661Y0127214D01*
X0049630Y0127121D01*
X0049599Y0127003D01*
X0049580Y0126873D01*
X0049574Y0126725D01*
Y0125449D01*
X0049172D01*
Y0127963D01*
X0049574D01*
Y0127443D01*
X0049587D01*
Y0127449D01*
X0049593Y0127455D01*
X0049605Y0127486D01*
X0049624Y0127535D01*
X0049655Y0127597D01*
X0049686Y0127659D01*
X0049735Y0127727D01*
X0049785Y0127795D01*
X0049847Y0127857D01*
X0049853Y0127864D01*
X0049878Y0127882D01*
X0049915Y0127907D01*
X0049964Y0127932D01*
X0050020Y0127956D01*
X0050088Y0127981D01*
X0050162Y0128000D01*
X0050243Y0128006D01*
X0050299D01*
X0050336Y0128000D01*
D02*
G37*
G36*
X0061075Y0125449D02*
X0060673D01*
Y0125846D01*
X0060661D01*
Y0125839D01*
X0060648Y0125827D01*
X0060636Y0125802D01*
X0060611Y0125777D01*
X0060555Y0125703D01*
X0060469Y0125623D01*
X0060419Y0125579D01*
X0060364Y0125536D01*
X0060302Y0125499D01*
X0060227Y0125462D01*
X0060153Y0125437D01*
X0060073Y0125412D01*
X0059980Y0125400D01*
X0059887Y0125394D01*
X0059850D01*
X0059806Y0125400D01*
X0059745Y0125412D01*
X0059676Y0125425D01*
X0059602Y0125449D01*
X0059522Y0125480D01*
X0059441Y0125530D01*
X0059355Y0125586D01*
X0059274Y0125654D01*
X0059200Y0125740D01*
X0059132Y0125846D01*
X0059070Y0125963D01*
X0059026Y0126105D01*
X0059002Y0126273D01*
X0058989Y0126359D01*
Y0126458D01*
Y0127963D01*
X0059386D01*
Y0126520D01*
Y0126514D01*
Y0126489D01*
X0059392Y0126446D01*
X0059398Y0126397D01*
X0059404Y0126335D01*
X0059416Y0126273D01*
X0059435Y0126198D01*
X0059460Y0126124D01*
X0059497Y0126050D01*
X0059534Y0125982D01*
X0059584Y0125914D01*
X0059645Y0125852D01*
X0059714Y0125802D01*
X0059794Y0125765D01*
X0059893Y0125734D01*
X0059998Y0125728D01*
X0060011D01*
X0060048Y0125734D01*
X0060103Y0125740D01*
X0060165Y0125753D01*
X0060246Y0125784D01*
X0060326Y0125821D01*
X0060407Y0125870D01*
X0060481Y0125945D01*
X0060487Y0125957D01*
X0060512Y0125982D01*
X0060543Y0126031D01*
X0060580Y0126099D01*
X0060611Y0126180D01*
X0060642Y0126279D01*
X0060667Y0126390D01*
X0060673Y0126514D01*
Y0127963D01*
X0061075D01*
Y0125449D01*
D02*
G37*
G36*
X0065210D02*
X0064808D01*
Y0127963D01*
X0065210D01*
Y0125449D01*
D02*
G37*
G36*
X0063991D02*
X0063589D01*
Y0129170D01*
X0063991D01*
Y0125449D01*
D02*
G37*
G36*
X0047612Y0128012D02*
X0047668Y0128006D01*
X0047736Y0127987D01*
X0047810Y0127969D01*
X0047891Y0127938D01*
X0047977Y0127901D01*
X0048058Y0127851D01*
X0048138Y0127789D01*
X0048213Y0127715D01*
X0048281Y0127622D01*
X0048336Y0127517D01*
X0048380Y0127393D01*
X0048404Y0127251D01*
X0048417Y0127084D01*
Y0125449D01*
X0048015D01*
Y0125839D01*
X0048002D01*
Y0125833D01*
X0047990Y0125821D01*
X0047977Y0125796D01*
X0047953Y0125771D01*
X0047891Y0125697D01*
X0047810Y0125617D01*
X0047699Y0125536D01*
X0047569Y0125462D01*
X0047488Y0125437D01*
X0047408Y0125412D01*
X0047321Y0125400D01*
X0047228Y0125394D01*
X0047191D01*
X0047166Y0125400D01*
X0047098Y0125406D01*
X0047018Y0125418D01*
X0046919Y0125443D01*
X0046826Y0125474D01*
X0046727Y0125524D01*
X0046640Y0125586D01*
X0046634Y0125598D01*
X0046609Y0125623D01*
X0046572Y0125666D01*
X0046535Y0125728D01*
X0046498Y0125802D01*
X0046461Y0125889D01*
X0046436Y0125994D01*
X0046430Y0126112D01*
Y0126118D01*
Y0126143D01*
X0046436Y0126180D01*
X0046442Y0126223D01*
X0046455Y0126279D01*
X0046473Y0126341D01*
X0046498Y0126409D01*
X0046535Y0126477D01*
X0046578Y0126551D01*
X0046634Y0126626D01*
X0046702Y0126694D01*
X0046783Y0126755D01*
X0046876Y0126817D01*
X0046987Y0126867D01*
X0047111Y0126904D01*
X0047259Y0126935D01*
X0048015Y0127040D01*
Y0127046D01*
Y0127065D01*
X0048008Y0127102D01*
Y0127139D01*
X0047996Y0127189D01*
X0047990Y0127244D01*
X0047953Y0127362D01*
X0047922Y0127418D01*
X0047891Y0127473D01*
X0047847Y0127529D01*
X0047798Y0127579D01*
X0047736Y0127622D01*
X0047668Y0127653D01*
X0047587Y0127672D01*
X0047495Y0127678D01*
X0047451D01*
X0047420Y0127672D01*
X0047377D01*
X0047334Y0127659D01*
X0047222Y0127641D01*
X0047098Y0127603D01*
X0046962Y0127548D01*
X0046888Y0127511D01*
X0046820Y0127473D01*
X0046745Y0127424D01*
X0046677Y0127368D01*
Y0127783D01*
X0046684D01*
X0046696Y0127795D01*
X0046715Y0127808D01*
X0046745Y0127820D01*
X0046777Y0127839D01*
X0046820Y0127857D01*
X0046869Y0127876D01*
X0046925Y0127901D01*
X0047049Y0127944D01*
X0047197Y0127981D01*
X0047358Y0128006D01*
X0047532Y0128018D01*
X0047569D01*
X0047612Y0128012D01*
D02*
G37*
G36*
X0041923Y0128959D02*
X0041967D01*
X0042010Y0128953D01*
X0042109Y0128941D01*
X0042227Y0128910D01*
X0042351Y0128873D01*
X0042468Y0128817D01*
X0042573Y0128743D01*
X0042580D01*
X0042586Y0128730D01*
X0042617Y0128705D01*
X0042660Y0128656D01*
X0042710Y0128588D01*
X0042753Y0128501D01*
X0042796Y0128402D01*
X0042827Y0128291D01*
X0042840Y0128229D01*
Y0128161D01*
Y0128154D01*
Y0128148D01*
Y0128111D01*
X0042833Y0128055D01*
X0042821Y0127987D01*
X0042803Y0127901D01*
X0042772Y0127814D01*
X0042734Y0127727D01*
X0042679Y0127641D01*
X0042673Y0127628D01*
X0042648Y0127603D01*
X0042611Y0127566D01*
X0042561Y0127517D01*
X0042499Y0127467D01*
X0042425Y0127412D01*
X0042332Y0127368D01*
X0042233Y0127325D01*
Y0127319D01*
X0042252D01*
X0042270Y0127313D01*
X0042289Y0127306D01*
X0042357Y0127294D01*
X0042437Y0127269D01*
X0042524Y0127232D01*
X0042617Y0127189D01*
X0042710Y0127127D01*
X0042796Y0127046D01*
X0042809Y0127034D01*
X0042833Y0127003D01*
X0042864Y0126960D01*
X0042908Y0126892D01*
X0042945Y0126805D01*
X0042982Y0126706D01*
X0043007Y0126588D01*
X0043013Y0126458D01*
Y0126452D01*
Y0126440D01*
Y0126415D01*
X0043007Y0126384D01*
X0043001Y0126347D01*
X0042994Y0126304D01*
X0042970Y0126198D01*
X0042933Y0126081D01*
X0042877Y0125957D01*
X0042840Y0125901D01*
X0042796Y0125839D01*
X0042741Y0125784D01*
X0042685Y0125728D01*
X0042679D01*
X0042673Y0125716D01*
X0042654Y0125703D01*
X0042629Y0125685D01*
X0042598Y0125666D01*
X0042555Y0125641D01*
X0042462Y0125592D01*
X0042344Y0125536D01*
X0042208Y0125493D01*
X0042047Y0125462D01*
X0041967Y0125456D01*
X0041874Y0125449D01*
X0040846D01*
Y0128965D01*
X0041892D01*
X0041923Y0128959D01*
D02*
G37*
G36*
X0062419Y0127963D02*
X0063056D01*
Y0127616D01*
X0062419D01*
Y0126198D01*
Y0126186D01*
Y0126155D01*
X0062425Y0126112D01*
X0062431Y0126056D01*
X0062456Y0125938D01*
X0062474Y0125883D01*
X0062505Y0125839D01*
X0062511Y0125833D01*
X0062524Y0125821D01*
X0062542Y0125808D01*
X0062573Y0125790D01*
X0062611Y0125765D01*
X0062660Y0125753D01*
X0062722Y0125740D01*
X0062790Y0125734D01*
X0062815D01*
X0062846Y0125740D01*
X0062883Y0125747D01*
X0062969Y0125771D01*
X0063013Y0125790D01*
X0063056Y0125815D01*
Y0125468D01*
X0063050D01*
X0063031Y0125456D01*
X0063001Y0125449D01*
X0062957Y0125437D01*
X0062901Y0125425D01*
X0062840Y0125412D01*
X0062765Y0125406D01*
X0062679Y0125400D01*
X0062648D01*
X0062617Y0125406D01*
X0062573Y0125412D01*
X0062524Y0125425D01*
X0062468Y0125437D01*
X0062412Y0125462D01*
X0062350Y0125493D01*
X0062289Y0125530D01*
X0062227Y0125579D01*
X0062171Y0125635D01*
X0062121Y0125709D01*
X0062078Y0125790D01*
X0062047Y0125889D01*
X0062022Y0126000D01*
X0062016Y0126130D01*
Y0127616D01*
X0061589D01*
Y0127963D01*
X0062016D01*
Y0128575D01*
X0062419Y0128705D01*
Y0127963D01*
D02*
G37*
G36*
X0069946Y0128012D02*
X0069989Y0128006D01*
X0070032Y0128000D01*
X0070144Y0127981D01*
X0070267Y0127938D01*
X0070391Y0127882D01*
X0070453Y0127845D01*
X0070515Y0127802D01*
X0070571Y0127752D01*
X0070626Y0127696D01*
X0070633Y0127690D01*
X0070639Y0127684D01*
X0070651Y0127665D01*
X0070670Y0127641D01*
X0070688Y0127603D01*
X0070713Y0127566D01*
X0070738Y0127523D01*
X0070763Y0127467D01*
X0070788Y0127405D01*
X0070812Y0127343D01*
X0070837Y0127269D01*
X0070856Y0127189D01*
X0070874Y0127102D01*
X0070886Y0127015D01*
X0070899Y0126916D01*
Y0126811D01*
Y0126601D01*
X0069122D01*
Y0126595D01*
Y0126582D01*
Y0126564D01*
X0069129Y0126533D01*
X0069135Y0126496D01*
Y0126458D01*
X0069153Y0126359D01*
X0069184Y0126260D01*
X0069221Y0126149D01*
X0069277Y0126044D01*
X0069345Y0125951D01*
X0069358Y0125938D01*
X0069382Y0125914D01*
X0069432Y0125883D01*
X0069500Y0125839D01*
X0069587Y0125796D01*
X0069686Y0125765D01*
X0069803Y0125740D01*
X0069939Y0125728D01*
X0069983D01*
X0070014Y0125734D01*
X0070051D01*
X0070094Y0125740D01*
X0070199Y0125765D01*
X0070317Y0125796D01*
X0070447Y0125846D01*
X0070583Y0125914D01*
X0070651Y0125957D01*
X0070719Y0126006D01*
Y0125629D01*
X0070713D01*
X0070707Y0125617D01*
X0070688Y0125610D01*
X0070657Y0125592D01*
X0070626Y0125573D01*
X0070589Y0125555D01*
X0070540Y0125536D01*
X0070490Y0125511D01*
X0070428Y0125487D01*
X0070360Y0125468D01*
X0070212Y0125431D01*
X0070038Y0125406D01*
X0069847Y0125394D01*
X0069797D01*
X0069760Y0125400D01*
X0069717Y0125406D01*
X0069661Y0125412D01*
X0069543Y0125437D01*
X0069407Y0125474D01*
X0069271Y0125536D01*
X0069203Y0125579D01*
X0069135Y0125623D01*
X0069073Y0125672D01*
X0069011Y0125734D01*
X0069005Y0125740D01*
X0068999Y0125753D01*
X0068986Y0125771D01*
X0068961Y0125796D01*
X0068943Y0125833D01*
X0068918Y0125876D01*
X0068887Y0125926D01*
X0068862Y0125982D01*
X0068831Y0126044D01*
X0068807Y0126118D01*
X0068776Y0126198D01*
X0068757Y0126285D01*
X0068739Y0126378D01*
X0068720Y0126477D01*
X0068714Y0126582D01*
X0068708Y0126694D01*
Y0126700D01*
Y0126718D01*
Y0126749D01*
X0068714Y0126793D01*
X0068720Y0126842D01*
X0068726Y0126898D01*
X0068732Y0126966D01*
X0068751Y0127034D01*
X0068788Y0127183D01*
X0068844Y0127343D01*
X0068881Y0127424D01*
X0068931Y0127498D01*
X0068980Y0127579D01*
X0069036Y0127647D01*
X0069042Y0127653D01*
X0069054Y0127665D01*
X0069073Y0127684D01*
X0069098Y0127703D01*
X0069129Y0127734D01*
X0069166Y0127764D01*
X0069215Y0127795D01*
X0069265Y0127832D01*
X0069382Y0127901D01*
X0069525Y0127963D01*
X0069605Y0127981D01*
X0069686Y0128000D01*
X0069772Y0128012D01*
X0069865Y0128018D01*
X0069915D01*
X0069946Y0128012D01*
D02*
G37*
G36*
X0056903Y0129021D02*
X0056965Y0129015D01*
X0057039Y0129002D01*
X0057120Y0128984D01*
X0057207Y0128965D01*
X0057293Y0128941D01*
X0057392Y0128910D01*
X0057485Y0128866D01*
X0057584Y0128817D01*
X0057683Y0128761D01*
X0057776Y0128693D01*
X0057869Y0128619D01*
X0057956Y0128532D01*
X0057962Y0128526D01*
X0057974Y0128507D01*
X0057999Y0128482D01*
X0058024Y0128445D01*
X0058061Y0128396D01*
X0058098Y0128334D01*
X0058135Y0128266D01*
X0058178Y0128192D01*
X0058222Y0128099D01*
X0058259Y0128006D01*
X0058296Y0127901D01*
X0058333Y0127783D01*
X0058358Y0127665D01*
X0058383Y0127535D01*
X0058395Y0127393D01*
X0058401Y0127251D01*
Y0127238D01*
Y0127214D01*
Y0127170D01*
X0058395Y0127108D01*
X0058389Y0127034D01*
X0058376Y0126954D01*
X0058364Y0126861D01*
X0058346Y0126755D01*
X0058321Y0126650D01*
X0058290Y0126539D01*
X0058253Y0126427D01*
X0058209Y0126316D01*
X0058154Y0126198D01*
X0058092Y0126093D01*
X0058024Y0125988D01*
X0057943Y0125889D01*
X0057937Y0125883D01*
X0057925Y0125870D01*
X0057894Y0125846D01*
X0057863Y0125815D01*
X0057813Y0125771D01*
X0057758Y0125734D01*
X0057696Y0125685D01*
X0057621Y0125641D01*
X0057541Y0125598D01*
X0057448Y0125548D01*
X0057349Y0125511D01*
X0057238Y0125474D01*
X0057120Y0125437D01*
X0056996Y0125412D01*
X0056866Y0125400D01*
X0056724Y0125394D01*
X0056693D01*
X0056650Y0125400D01*
X0056600D01*
X0056538Y0125406D01*
X0056464Y0125418D01*
X0056383Y0125437D01*
X0056291Y0125456D01*
X0056198Y0125480D01*
X0056099Y0125511D01*
X0056000Y0125555D01*
X0055901Y0125598D01*
X0055801Y0125654D01*
X0055702Y0125722D01*
X0055610Y0125796D01*
X0055523Y0125883D01*
X0055517Y0125889D01*
X0055504Y0125908D01*
X0055480Y0125932D01*
X0055455Y0125969D01*
X0055418Y0126019D01*
X0055381Y0126081D01*
X0055343Y0126149D01*
X0055300Y0126229D01*
X0055257Y0126316D01*
X0055220Y0126409D01*
X0055182Y0126514D01*
X0055145Y0126632D01*
X0055121Y0126749D01*
X0055096Y0126879D01*
X0055083Y0127022D01*
X0055077Y0127164D01*
Y0127176D01*
Y0127201D01*
X0055083Y0127244D01*
Y0127306D01*
X0055090Y0127374D01*
X0055102Y0127461D01*
X0055114Y0127554D01*
X0055133Y0127653D01*
X0055158Y0127758D01*
X0055189Y0127870D01*
X0055226Y0127981D01*
X0055269Y0128093D01*
X0055325Y0128204D01*
X0055387Y0128315D01*
X0055455Y0128421D01*
X0055535Y0128520D01*
X0055541Y0128526D01*
X0055554Y0128544D01*
X0055585Y0128569D01*
X0055622Y0128600D01*
X0055665Y0128637D01*
X0055721Y0128681D01*
X0055789Y0128724D01*
X0055863Y0128773D01*
X0055950Y0128823D01*
X0056043Y0128866D01*
X0056142Y0128910D01*
X0056253Y0128947D01*
X0056377Y0128978D01*
X0056507Y0129009D01*
X0056643Y0129021D01*
X0056786Y0129027D01*
X0056854D01*
X0056903Y0129021D01*
D02*
G37*
G36*
X0044876Y0128012D02*
X0044919Y0128006D01*
X0044975Y0128000D01*
X0045099Y0127975D01*
X0045241Y0127932D01*
X0045384Y0127870D01*
X0045458Y0127832D01*
X0045526Y0127789D01*
X0045594Y0127734D01*
X0045656Y0127672D01*
X0045662Y0127665D01*
X0045669Y0127653D01*
X0045687Y0127635D01*
X0045706Y0127610D01*
X0045730Y0127573D01*
X0045755Y0127529D01*
X0045786Y0127480D01*
X0045817Y0127424D01*
X0045842Y0127356D01*
X0045873Y0127288D01*
X0045897Y0127207D01*
X0045922Y0127121D01*
X0045941Y0127028D01*
X0045959Y0126929D01*
X0045966Y0126824D01*
X0045972Y0126712D01*
Y0126706D01*
Y0126687D01*
Y0126656D01*
X0045966Y0126613D01*
X0045959Y0126564D01*
X0045953Y0126502D01*
X0045941Y0126440D01*
X0045928Y0126365D01*
X0045891Y0126217D01*
X0045829Y0126056D01*
X0045792Y0125976D01*
X0045743Y0125895D01*
X0045693Y0125821D01*
X0045631Y0125753D01*
X0045625Y0125747D01*
X0045613Y0125740D01*
X0045594Y0125722D01*
X0045569Y0125697D01*
X0045532Y0125672D01*
X0045495Y0125641D01*
X0045446Y0125604D01*
X0045390Y0125573D01*
X0045328Y0125542D01*
X0045260Y0125505D01*
X0045186Y0125474D01*
X0045105Y0125449D01*
X0045019Y0125425D01*
X0044926Y0125412D01*
X0044827Y0125400D01*
X0044721Y0125394D01*
X0044666D01*
X0044629Y0125400D01*
X0044585Y0125406D01*
X0044530Y0125412D01*
X0044468Y0125425D01*
X0044399Y0125437D01*
X0044257Y0125480D01*
X0044109Y0125542D01*
X0044034Y0125579D01*
X0043966Y0125629D01*
X0043898Y0125678D01*
X0043830Y0125740D01*
X0043824Y0125747D01*
X0043818Y0125759D01*
X0043799Y0125777D01*
X0043780Y0125802D01*
X0043756Y0125839D01*
X0043725Y0125883D01*
X0043694Y0125932D01*
X0043669Y0125988D01*
X0043638Y0126056D01*
X0043607Y0126124D01*
X0043576Y0126198D01*
X0043551Y0126285D01*
X0043514Y0126471D01*
X0043508Y0126570D01*
X0043502Y0126675D01*
Y0126681D01*
Y0126706D01*
Y0126737D01*
X0043508Y0126780D01*
X0043514Y0126830D01*
X0043521Y0126892D01*
X0043533Y0126960D01*
X0043545Y0127034D01*
X0043582Y0127195D01*
X0043644Y0127356D01*
X0043688Y0127436D01*
X0043731Y0127517D01*
X0043780Y0127591D01*
X0043842Y0127659D01*
X0043849Y0127665D01*
X0043861Y0127678D01*
X0043880Y0127690D01*
X0043904Y0127715D01*
X0043941Y0127740D01*
X0043985Y0127771D01*
X0044034Y0127808D01*
X0044090Y0127839D01*
X0044152Y0127870D01*
X0044226Y0127907D01*
X0044300Y0127938D01*
X0044387Y0127963D01*
X0044474Y0127987D01*
X0044573Y0128006D01*
X0044678Y0128012D01*
X0044783Y0128018D01*
X0044839D01*
X0044876Y0128012D01*
D02*
G37*
%LPC*%
G36*
X0047909Y0143765D02*
X0047878D01*
X0047853Y0143759D01*
X0047785Y0143753D01*
X0047705Y0143734D01*
X0047618Y0143703D01*
X0047519Y0143660D01*
X0047426Y0143598D01*
X0047340Y0143517D01*
X0047334Y0143505D01*
X0047309Y0143474D01*
X0047272Y0143425D01*
X0047234Y0143350D01*
X0047197Y0143264D01*
X0047160Y0143158D01*
X0047135Y0143041D01*
X0047129Y0142911D01*
Y0142558D01*
Y0142552D01*
Y0142546D01*
X0047135Y0142508D01*
X0047142Y0142446D01*
X0047154Y0142378D01*
X0047179Y0142292D01*
X0047216Y0142205D01*
X0047265Y0142119D01*
X0047334Y0142032D01*
X0047346Y0142026D01*
X0047371Y0142001D01*
X0047414Y0141964D01*
X0047476Y0141927D01*
X0047550Y0141883D01*
X0047637Y0141852D01*
X0047736Y0141827D01*
X0047847Y0141815D01*
X0047885D01*
X0047909Y0141821D01*
X0047971Y0141827D01*
X0048058Y0141852D01*
X0048145Y0141883D01*
X0048243Y0141933D01*
X0048336Y0142001D01*
X0048380Y0142044D01*
X0048417Y0142094D01*
Y0142100D01*
X0048423Y0142106D01*
X0048435Y0142125D01*
X0048448Y0142143D01*
X0048466Y0142174D01*
X0048485Y0142211D01*
X0048522Y0142298D01*
X0048559Y0142409D01*
X0048596Y0142539D01*
X0048621Y0142694D01*
X0048627Y0142874D01*
Y0142880D01*
Y0142892D01*
Y0142911D01*
Y0142942D01*
X0048621Y0142979D01*
X0048615Y0143016D01*
X0048603Y0143109D01*
X0048578Y0143214D01*
X0048547Y0143325D01*
X0048497Y0143431D01*
X0048435Y0143524D01*
X0048429Y0143536D01*
X0048398Y0143561D01*
X0048355Y0143598D01*
X0048299Y0143647D01*
X0048225Y0143691D01*
X0048132Y0143728D01*
X0048027Y0143753D01*
X0047909Y0143765D01*
D02*
G37*
G36*
X0054817Y0142806D02*
X0054211Y0142719D01*
X0054198D01*
X0054167Y0142713D01*
X0054118Y0142700D01*
X0054056Y0142688D01*
X0053988Y0142669D01*
X0053913Y0142645D01*
X0053852Y0142620D01*
X0053790Y0142583D01*
X0053784Y0142577D01*
X0053765Y0142564D01*
X0053746Y0142539D01*
X0053722Y0142502D01*
X0053691Y0142453D01*
X0053672Y0142391D01*
X0053654Y0142317D01*
X0053647Y0142230D01*
Y0142224D01*
Y0142199D01*
X0053654Y0142168D01*
X0053666Y0142125D01*
X0053678Y0142075D01*
X0053703Y0142026D01*
X0053734Y0141976D01*
X0053777Y0141927D01*
X0053784Y0141920D01*
X0053802Y0141908D01*
X0053833Y0141889D01*
X0053870Y0141871D01*
X0053920Y0141852D01*
X0053982Y0141834D01*
X0054050Y0141821D01*
X0054130Y0141815D01*
X0054143D01*
X0054180Y0141821D01*
X0054235Y0141827D01*
X0054303Y0141840D01*
X0054378Y0141865D01*
X0054464Y0141902D01*
X0054545Y0141957D01*
X0054619Y0142026D01*
X0054625Y0142038D01*
X0054650Y0142063D01*
X0054681Y0142106D01*
X0054718Y0142168D01*
X0054755Y0142248D01*
X0054786Y0142335D01*
X0054811Y0142440D01*
X0054817Y0142552D01*
Y0142806D01*
D02*
G37*
G36*
X0059392Y0143765D02*
X0059342D01*
X0059293Y0143753D01*
X0059224Y0143740D01*
X0059150Y0143716D01*
X0059064Y0143678D01*
X0058983Y0143629D01*
X0058903Y0143561D01*
X0058896Y0143554D01*
X0058872Y0143524D01*
X0058841Y0143480D01*
X0058797Y0143418D01*
X0058754Y0143344D01*
X0058717Y0143251D01*
X0058686Y0143146D01*
X0058661Y0143028D01*
X0060017D01*
Y0143035D01*
Y0143047D01*
Y0143059D01*
Y0143084D01*
X0060011Y0143152D01*
X0059998Y0143227D01*
X0059974Y0143319D01*
X0059949Y0143406D01*
X0059905Y0143493D01*
X0059850Y0143573D01*
X0059844Y0143579D01*
X0059819Y0143604D01*
X0059782Y0143635D01*
X0059732Y0143672D01*
X0059664Y0143703D01*
X0059584Y0143734D01*
X0059497Y0143759D01*
X0059392Y0143765D01*
D02*
G37*
G36*
X0044864D02*
X0044827D01*
X0044802Y0143759D01*
X0044728Y0143753D01*
X0044641Y0143734D01*
X0044542Y0143703D01*
X0044437Y0143654D01*
X0044338Y0143586D01*
X0044288Y0143548D01*
X0044245Y0143499D01*
X0044232Y0143486D01*
X0044208Y0143449D01*
X0044177Y0143394D01*
X0044133Y0143313D01*
X0044090Y0143208D01*
X0044059Y0143084D01*
X0044034Y0142942D01*
X0044022Y0142775D01*
Y0142768D01*
Y0142756D01*
Y0142731D01*
X0044028Y0142700D01*
Y0142663D01*
X0044034Y0142620D01*
X0044053Y0142521D01*
X0044078Y0142409D01*
X0044121Y0142292D01*
X0044177Y0142174D01*
X0044251Y0142069D01*
X0044263Y0142057D01*
X0044294Y0142032D01*
X0044344Y0141989D01*
X0044412Y0141945D01*
X0044499Y0141896D01*
X0044604Y0141852D01*
X0044728Y0141827D01*
X0044864Y0141815D01*
X0044901D01*
X0044926Y0141821D01*
X0045000Y0141827D01*
X0045087Y0141846D01*
X0045179Y0141877D01*
X0045285Y0141920D01*
X0045377Y0141982D01*
X0045464Y0142063D01*
X0045470Y0142075D01*
X0045495Y0142112D01*
X0045532Y0142168D01*
X0045569Y0142248D01*
X0045606Y0142354D01*
X0045644Y0142478D01*
X0045669Y0142620D01*
X0045675Y0142787D01*
Y0142793D01*
Y0142806D01*
Y0142830D01*
Y0142868D01*
X0045669Y0142905D01*
X0045662Y0142948D01*
X0045650Y0143053D01*
X0045625Y0143171D01*
X0045588Y0143288D01*
X0045532Y0143406D01*
X0045464Y0143511D01*
X0045452Y0143524D01*
X0045427Y0143548D01*
X0045377Y0143592D01*
X0045309Y0143641D01*
X0045223Y0143684D01*
X0045124Y0143728D01*
X0045000Y0143753D01*
X0044864Y0143765D01*
D02*
G37*
G36*
X0051951Y0127678D02*
X0051914D01*
X0051889Y0127672D01*
X0051821Y0127665D01*
X0051741Y0127647D01*
X0051648Y0127610D01*
X0051549Y0127560D01*
X0051456Y0127498D01*
X0051413Y0127455D01*
X0051369Y0127405D01*
X0051363Y0127393D01*
X0051338Y0127356D01*
X0051301Y0127294D01*
X0051264Y0127214D01*
X0051227Y0127108D01*
X0051190Y0126978D01*
X0051165Y0126830D01*
X0051159Y0126663D01*
Y0126656D01*
Y0126644D01*
Y0126619D01*
X0051165Y0126588D01*
Y0126557D01*
X0051171Y0126514D01*
X0051184Y0126415D01*
X0051209Y0126304D01*
X0051246Y0126192D01*
X0051295Y0126081D01*
X0051363Y0125976D01*
X0051376Y0125963D01*
X0051400Y0125938D01*
X0051444Y0125895D01*
X0051506Y0125852D01*
X0051586Y0125808D01*
X0051679Y0125765D01*
X0051784Y0125740D01*
X0051908Y0125728D01*
X0051939D01*
X0051964Y0125734D01*
X0052026Y0125740D01*
X0052100Y0125759D01*
X0052187Y0125790D01*
X0052279Y0125827D01*
X0052366Y0125889D01*
X0052453Y0125969D01*
X0052459Y0125982D01*
X0052484Y0126013D01*
X0052521Y0126068D01*
X0052558Y0126137D01*
X0052595Y0126223D01*
X0052632Y0126328D01*
X0052657Y0126452D01*
X0052663Y0126582D01*
Y0126954D01*
Y0126960D01*
Y0126966D01*
Y0127003D01*
X0052651Y0127059D01*
X0052638Y0127133D01*
X0052614Y0127214D01*
X0052577Y0127300D01*
X0052527Y0127387D01*
X0052459Y0127467D01*
X0052453Y0127473D01*
X0052422Y0127498D01*
X0052378Y0127535D01*
X0052323Y0127573D01*
X0052248Y0127610D01*
X0052162Y0127647D01*
X0052063Y0127672D01*
X0051951Y0127678D01*
D02*
G37*
G36*
X0048015Y0126718D02*
X0047408Y0126632D01*
X0047396D01*
X0047365Y0126626D01*
X0047315Y0126613D01*
X0047253Y0126601D01*
X0047185Y0126582D01*
X0047111Y0126557D01*
X0047049Y0126533D01*
X0046987Y0126496D01*
X0046981Y0126489D01*
X0046962Y0126477D01*
X0046944Y0126452D01*
X0046919Y0126415D01*
X0046888Y0126365D01*
X0046869Y0126304D01*
X0046851Y0126229D01*
X0046845Y0126143D01*
Y0126137D01*
Y0126112D01*
X0046851Y0126081D01*
X0046863Y0126037D01*
X0046876Y0125988D01*
X0046900Y0125938D01*
X0046931Y0125889D01*
X0046975Y0125839D01*
X0046981Y0125833D01*
X0046999Y0125821D01*
X0047030Y0125802D01*
X0047067Y0125784D01*
X0047117Y0125765D01*
X0047179Y0125747D01*
X0047247Y0125734D01*
X0047327Y0125728D01*
X0047340D01*
X0047377Y0125734D01*
X0047433Y0125740D01*
X0047501Y0125753D01*
X0047575Y0125777D01*
X0047662Y0125815D01*
X0047742Y0125870D01*
X0047816Y0125938D01*
X0047823Y0125951D01*
X0047847Y0125976D01*
X0047878Y0126019D01*
X0047915Y0126081D01*
X0047953Y0126161D01*
X0047984Y0126248D01*
X0048008Y0126353D01*
X0048015Y0126465D01*
Y0126718D01*
D02*
G37*
G36*
X0041732Y0128594D02*
X0041261D01*
Y0127455D01*
X0041738D01*
X0041800Y0127461D01*
X0041874Y0127473D01*
X0041961Y0127492D01*
X0042053Y0127523D01*
X0042134Y0127560D01*
X0042214Y0127616D01*
X0042221Y0127622D01*
X0042245Y0127647D01*
X0042276Y0127684D01*
X0042314Y0127740D01*
X0042344Y0127802D01*
X0042375Y0127882D01*
X0042400Y0127975D01*
X0042406Y0128080D01*
Y0128086D01*
Y0128105D01*
X0042400Y0128130D01*
X0042394Y0128161D01*
X0042369Y0128241D01*
X0042351Y0128291D01*
X0042320Y0128340D01*
X0042289Y0128384D01*
X0042239Y0128433D01*
X0042190Y0128476D01*
X0042122Y0128513D01*
X0042047Y0128544D01*
X0041954Y0128569D01*
X0041849Y0128588D01*
X0041732Y0128594D01*
D02*
G37*
G36*
Y0127084D02*
X0041261D01*
Y0125821D01*
X0041880D01*
X0041942Y0125827D01*
X0042029Y0125839D01*
X0042115Y0125864D01*
X0042208Y0125889D01*
X0042301Y0125932D01*
X0042382Y0125988D01*
X0042388Y0125994D01*
X0042412Y0126019D01*
X0042443Y0126056D01*
X0042481Y0126112D01*
X0042518Y0126180D01*
X0042549Y0126260D01*
X0042573Y0126359D01*
X0042580Y0126465D01*
Y0126471D01*
Y0126489D01*
X0042573Y0126520D01*
X0042567Y0126564D01*
X0042555Y0126607D01*
X0042536Y0126663D01*
X0042511Y0126718D01*
X0042474Y0126774D01*
X0042431Y0126830D01*
X0042375Y0126885D01*
X0042307Y0126941D01*
X0042221Y0126985D01*
X0042128Y0127028D01*
X0042010Y0127059D01*
X0041880Y0127077D01*
X0041732Y0127084D01*
D02*
G37*
G36*
X0069859Y0127678D02*
X0069810D01*
X0069760Y0127665D01*
X0069692Y0127653D01*
X0069618Y0127628D01*
X0069531Y0127591D01*
X0069450Y0127542D01*
X0069370Y0127473D01*
X0069364Y0127467D01*
X0069339Y0127436D01*
X0069308Y0127393D01*
X0069265Y0127331D01*
X0069221Y0127257D01*
X0069184Y0127164D01*
X0069153Y0127059D01*
X0069129Y0126941D01*
X0070484D01*
Y0126947D01*
Y0126960D01*
Y0126972D01*
Y0126997D01*
X0070478Y0127065D01*
X0070466Y0127139D01*
X0070441Y0127232D01*
X0070416Y0127319D01*
X0070373Y0127405D01*
X0070317Y0127486D01*
X0070311Y0127492D01*
X0070286Y0127517D01*
X0070249Y0127548D01*
X0070199Y0127585D01*
X0070131Y0127616D01*
X0070051Y0127647D01*
X0069964Y0127672D01*
X0069859Y0127678D01*
D02*
G37*
G36*
X0056755Y0128650D02*
X0056699D01*
X0056662Y0128643D01*
X0056612Y0128637D01*
X0056563Y0128631D01*
X0056501Y0128619D01*
X0056433Y0128600D01*
X0056291Y0128551D01*
X0056216Y0128520D01*
X0056136Y0128482D01*
X0056062Y0128433D01*
X0055987Y0128377D01*
X0055919Y0128315D01*
X0055851Y0128247D01*
X0055845Y0128241D01*
X0055839Y0128229D01*
X0055820Y0128204D01*
X0055795Y0128173D01*
X0055770Y0128136D01*
X0055746Y0128086D01*
X0055715Y0128031D01*
X0055684Y0127969D01*
X0055647Y0127894D01*
X0055616Y0127820D01*
X0055591Y0127734D01*
X0055566Y0127641D01*
X0055541Y0127542D01*
X0055523Y0127430D01*
X0055517Y0127319D01*
X0055511Y0127201D01*
Y0127195D01*
Y0127170D01*
Y0127139D01*
X0055517Y0127096D01*
X0055523Y0127040D01*
X0055529Y0126972D01*
X0055541Y0126904D01*
X0055554Y0126830D01*
X0055591Y0126663D01*
X0055653Y0126483D01*
X0055690Y0126397D01*
X0055733Y0126316D01*
X0055789Y0126229D01*
X0055845Y0126155D01*
X0055851Y0126149D01*
X0055863Y0126137D01*
X0055882Y0126118D01*
X0055907Y0126093D01*
X0055938Y0126062D01*
X0055981Y0126031D01*
X0056030Y0125994D01*
X0056080Y0125957D01*
X0056142Y0125920D01*
X0056210Y0125883D01*
X0056359Y0125821D01*
X0056445Y0125796D01*
X0056532Y0125777D01*
X0056625Y0125765D01*
X0056724Y0125759D01*
X0056779D01*
X0056823Y0125765D01*
X0056866Y0125771D01*
X0056928Y0125777D01*
X0056990Y0125790D01*
X0057058Y0125808D01*
X0057200Y0125852D01*
X0057281Y0125883D01*
X0057355Y0125920D01*
X0057429Y0125963D01*
X0057504Y0126013D01*
X0057572Y0126068D01*
X0057640Y0126137D01*
X0057646Y0126143D01*
X0057652Y0126155D01*
X0057671Y0126174D01*
X0057689Y0126205D01*
X0057720Y0126248D01*
X0057745Y0126291D01*
X0057776Y0126347D01*
X0057807Y0126409D01*
X0057838Y0126483D01*
X0057869Y0126564D01*
X0057900Y0126650D01*
X0057925Y0126743D01*
X0057943Y0126842D01*
X0057962Y0126954D01*
X0057968Y0127071D01*
X0057974Y0127195D01*
Y0127201D01*
Y0127226D01*
Y0127263D01*
X0057968Y0127306D01*
X0057962Y0127368D01*
X0057956Y0127436D01*
X0057949Y0127511D01*
X0057931Y0127591D01*
X0057894Y0127758D01*
X0057838Y0127938D01*
X0057801Y0128024D01*
X0057758Y0128111D01*
X0057702Y0128192D01*
X0057646Y0128266D01*
X0057640Y0128272D01*
X0057634Y0128284D01*
X0057615Y0128303D01*
X0057584Y0128328D01*
X0057553Y0128352D01*
X0057516Y0128390D01*
X0057467Y0128421D01*
X0057417Y0128458D01*
X0057355Y0128495D01*
X0057287Y0128526D01*
X0057213Y0128563D01*
X0057132Y0128588D01*
X0057046Y0128612D01*
X0056959Y0128631D01*
X0056860Y0128643D01*
X0056755Y0128650D01*
D02*
G37*
G36*
X0044752Y0127678D02*
X0044715D01*
X0044690Y0127672D01*
X0044616Y0127665D01*
X0044530Y0127647D01*
X0044431Y0127616D01*
X0044325Y0127566D01*
X0044226Y0127498D01*
X0044177Y0127461D01*
X0044133Y0127412D01*
X0044121Y0127399D01*
X0044096Y0127362D01*
X0044065Y0127306D01*
X0044022Y0127226D01*
X0043979Y0127121D01*
X0043948Y0126997D01*
X0043923Y0126855D01*
X0043911Y0126687D01*
Y0126681D01*
Y0126669D01*
Y0126644D01*
X0043917Y0126613D01*
Y0126576D01*
X0043923Y0126533D01*
X0043941Y0126434D01*
X0043966Y0126322D01*
X0044010Y0126205D01*
X0044065Y0126087D01*
X0044140Y0125982D01*
X0044152Y0125969D01*
X0044183Y0125945D01*
X0044232Y0125901D01*
X0044300Y0125858D01*
X0044387Y0125808D01*
X0044492Y0125765D01*
X0044616Y0125740D01*
X0044752Y0125728D01*
X0044789D01*
X0044814Y0125734D01*
X0044888Y0125740D01*
X0044975Y0125759D01*
X0045068Y0125790D01*
X0045173Y0125833D01*
X0045266Y0125895D01*
X0045353Y0125976D01*
X0045359Y0125988D01*
X0045384Y0126025D01*
X0045421Y0126081D01*
X0045458Y0126161D01*
X0045495Y0126267D01*
X0045532Y0126390D01*
X0045557Y0126533D01*
X0045563Y0126700D01*
Y0126706D01*
Y0126718D01*
Y0126743D01*
Y0126780D01*
X0045557Y0126817D01*
X0045551Y0126861D01*
X0045538Y0126966D01*
X0045514Y0127084D01*
X0045477Y0127201D01*
X0045421Y0127319D01*
X0045353Y0127424D01*
X0045340Y0127436D01*
X0045316Y0127461D01*
X0045266Y0127505D01*
X0045198Y0127554D01*
X0045111Y0127597D01*
X0045012Y0127641D01*
X0044888Y0127665D01*
X0044752Y0127678D01*
D02*
G37*
%LPD*%
D10*
X-0059059Y-0029429D02*
X-0052274Y-0022644D01*
Y-0016708D02*
Y-0004885D01*
Y-0022644D02*
Y-0016708D01*
X0007942Y-0051800D02*
Y-0047766D01*
X0009095Y-0052953D02*
X0014961D01*
X0007942Y-0051800D02*
X0009095Y-0052953D01*
X0014961D02*
X0016535Y-0054528D01*
X0016732D01*
X0012197Y-0058465D02*
X0015482D01*
X0009661Y-0057110D02*
X0010842D01*
X0012197Y-0058465D01*
X-0035238Y0041396D02*
X-0029604Y0035762D01*
X-0025791D02*
X-0025661Y0035632D01*
X-0029604Y0035762D02*
X-0025791D01*
X-0024547Y0035632D02*
X-0024547Y0035632D01*
X-0041764Y0041396D02*
X-0035238D01*
X-0025661Y0035632D02*
X-0024547D01*
X-0023712Y0036467D01*
X-0026544Y-0049269D02*
Y-0048969D01*
Y-0049269D02*
X-0026405Y-0049408D01*
X-0028768Y-0046745D02*
Y-0046639D01*
X-0036522Y-0038885D02*
X-0028768Y-0046639D01*
Y-0046745D02*
X-0026544Y-0048969D01*
X-0036522Y-0038885D02*
Y-0025476D01*
X-0037357Y-0024641D02*
X-0036522Y-0025476D01*
X0029847Y-0043830D02*
X0039642Y-0034035D01*
Y-0029196D01*
X0042224Y-0021457D02*
X0042230D01*
X0039892Y-0028465D02*
X0044568Y-0023789D01*
X0038776Y-0029581D02*
X0039892Y-0028465D01*
X0039642Y-0029196D02*
X0039892Y-0028946D01*
Y-0028465D01*
X-0020736Y0047270D02*
Y0050934D01*
Y0047270D02*
X-0018836Y0045370D01*
X-0017721D01*
X-0017646Y0045295D02*
X-0017585Y0045355D01*
X-0015685D02*
X-0014546Y0046495D01*
X-0017585Y0045355D02*
X-0015685D01*
X-0014546Y0046523D02*
X0003575D01*
X-0017721Y0045370D02*
X-0017646Y0045295D01*
X-0020736Y0050934D02*
X-0017241Y0054429D01*
X-0016339D01*
X-0014447Y0050460D02*
Y0051005D01*
X-0010827Y0054626D01*
X-0014546Y0050460D02*
X-0014447D01*
X-0010827Y0054626D02*
X-0009646D01*
X0019377Y0056160D02*
X0020489Y0057271D01*
X0027642D01*
X0029524Y0059153D01*
X0015294Y0056160D02*
X0019377D01*
X0026261Y0047291D02*
X0027067Y0046485D01*
X0032938Y0045650D02*
X0042121Y0036467D01*
X0032103Y0046485D02*
X0032938Y0045650D01*
X0032103Y0046485D02*
X0032103Y0046485D01*
X0027067Y0046485D02*
X0032103D01*
X0032103Y0047599D02*
X0032144Y0047640D01*
Y0053870D01*
X0029524Y0056490D02*
X0032144Y0053870D01*
X0029524Y0056490D02*
Y0059153D01*
X0032103Y0046485D02*
Y0047599D01*
X0019560Y0048425D02*
Y0052251D01*
X0016432Y0053404D02*
X0018407D01*
X0019560Y0052251D01*
Y0048425D02*
X0023477Y0044508D01*
X0036557Y0031427D01*
X0003575Y0046523D02*
X0008465Y0041634D01*
X0009646D01*
X-0022877Y0037302D02*
Y0041308D01*
X-0024074Y0042506D02*
Y0042612D01*
X-0023712Y0036467D02*
X-0022877Y0037302D01*
X-0024074Y0042506D02*
X-0022877Y0041308D01*
X-0052274Y-0004885D02*
Y-0004413D01*
X-0056211Y-0010813D02*
Y-0010577D01*
Y-0016708D02*
Y-0010813D01*
Y-0010577D02*
X-0056185Y-0010551D01*
X-0052274Y-0004885D02*
X-0043401Y0003988D01*
Y0008532D02*
X-0043193Y0008740D01*
X-0043401Y0003988D02*
Y0008532D01*
X-0048499Y0024394D02*
X-0043900Y0028993D01*
X-0059531Y0013362D02*
X-0048499Y0024394D01*
X-0059531Y0002844D02*
X-0052274Y-0004413D01*
X-0059531Y0002844D02*
Y0013362D01*
X-0045705Y0032848D02*
X-0037647D01*
X-0037507Y0032988D01*
X-0037400D01*
X-0046540Y0032013D02*
X-0045705Y0032848D01*
X-0043900Y0028993D02*
X-0029049D01*
X-0024547Y0033495D01*
Y0035632D01*
X-0046540Y0031921D02*
Y0032013D01*
X-0051283Y0027178D02*
X-0046540Y0031921D01*
X0000498Y-0035171D02*
X0017848D01*
X0021799Y-0039121D01*
X-0008449Y-0044118D02*
X0000498Y-0035171D01*
X0021799Y-0039121D02*
X0022912D01*
X0023747Y-0038286D01*
X-0009630Y-0044118D02*
X-0008449D01*
X-0016564D02*
X-0009630D01*
X-0021481Y-0049035D02*
X-0016564Y-0044118D01*
X-0021659Y-0049035D02*
X-0021481D01*
X-0026405Y-0049408D02*
X-0022032D01*
X-0021659Y-0049035D01*
X-0032903Y-0048478D02*
X-0029258Y-0052122D01*
X-0032903Y-0048478D02*
Y-0047469D01*
X0042235Y-0021457D02*
X0044568Y-0023789D01*
X0044568D02*
X0051181Y-0017176D01*
Y-0015866D01*
X0042230Y-0021457D02*
X0042235D01*
X0044568Y-0023789D02*
X0044568D01*
X0032453Y-0029581D02*
X0038776D01*
X0023747Y-0038286D02*
X0032453Y-0029581D01*
X0042121Y0036467D02*
X0042173D01*
X0036557Y0023658D02*
X0037393Y0022822D01*
X0036557Y0023658D02*
Y0031427D01*
X0055765Y0009188D02*
X0056221Y0008732D01*
X0054121Y0014884D02*
X0055765Y0013240D01*
Y0009188D02*
Y0013240D01*
X0054121Y0014884D02*
Y0014982D01*
X0043228Y-0011740D02*
Y-0010559D01*
X0040256Y-0014713D02*
X0043228Y-0011740D01*
X0040256Y-0014764D02*
Y-0014713D01*
X0050184Y0006902D02*
Y0014982D01*
X0043228Y-0010559D02*
Y-0000054D01*
X0050184Y0006902D01*
X-0040413Y-0045772D02*
X-0040307D01*
X-0033738Y-0046634D02*
X-0032903Y-0047469D01*
X-0039445Y-0046634D02*
X-0033738D01*
X-0040307Y-0045772D02*
X-0039445Y-0046634D01*
X0012055Y0059399D02*
X0015294Y0056160D01*
X0008744Y0059399D02*
X0012055D01*
X0005249Y0062894D02*
X0008744Y0059399D01*
X0005000Y0062894D02*
X0005249D01*
X-0008465Y0054626D02*
X-0005945Y0057145D01*
X-0000598D01*
X-0009646Y0054626D02*
X-0008465D01*
X0005000Y0062744D02*
Y0062894D01*
X-0000598Y0057145D02*
X0005000Y0062744D01*
X-0009709Y0054689D02*
X-0009646Y0054626D01*
X-0009709Y0054689D02*
Y0064484D01*
X-0005000Y0069193D02*
Y0074213D01*
X-0009709Y0064484D02*
X-0005000Y0069193D01*
D11*
X-0024319Y-0031866D02*
G03*
X-0022417Y-0032653I0001897J0001892D01*
G01*
X0021768Y-0032650D02*
G03*
X0025181Y-0031236I-0000007J0004845D01*
G01*
X-0062660Y-0022428D02*
G03*
X-0060669Y-0017867I-0001801J0003501D01*
G01*
X-0062660Y-0022428D02*
G03*
X-0055813Y-0036604I0003601J-0007002D01*
G01*
X-0051003Y-0037880D02*
G03*
X-0055813Y-0036604I-0003187J-0002311D01*
G01*
X-0051003Y-0037880D02*
G03*
X0050995Y-0037880I0050999J0036974D01*
G01*
X0055805Y-0036604D02*
G03*
X0050995Y-0037880I-0001623J-0003587D01*
G01*
X0060661Y-0017867D02*
G03*
X0062652Y-0022428I0003792J-0001060D01*
G01*
X0055805Y-0036604D02*
G03*
X0062652Y-0022428I0003246J0007174D01*
G01*
X0060661Y-0017867D02*
G03*
X0037293Y0049857I-0060665J0016961D01*
G01*
X0036257Y0055071D02*
G03*
X0037293Y0049857I0003367J-0002041D01*
G01*
X0036257Y0055071D02*
G03*
X0022180Y0061992I-0006733J0004082D01*
G01*
X0017419Y0059628D02*
G03*
X0022180Y0061992I0001089J0003783D01*
G01*
X0017419Y0059628D02*
G03*
X0015709Y0060094I-0017423J-0060534D01*
G01*
X0012894Y0063874D02*
G03*
X0015602Y0060134I0003940J0000003D01*
G01*
X0012894Y0080611D02*
G03*
X0009748Y0083756I-0003145J0000000D01*
G01*
X-0009709D02*
G03*
X-0012854Y0080611I0000000J-0003145D01*
G01*
X-0015563Y0060134D02*
G03*
X-0017427Y0059628I0015559J-0061040D01*
G01*
X-0015563Y0060134D02*
G03*
X-0012854Y0063874I-0001232J0003743D01*
G01*
X-0022188Y0061992D02*
G03*
X-0017427Y0059628I0003672J0001419D01*
G01*
X-0022188Y0061992D02*
G03*
X-0036265Y0055071I-0007344J-0002839D01*
G01*
X-0037301Y0049857D02*
G03*
X-0036265Y0055071I-0002331J0003173D01*
G01*
X-0037301Y0049857D02*
G03*
X-0060669Y-0017867I0037297J-0050763D01*
G01*
X0015709Y0060094D02*
G03*
X0015602Y0060134I-0000180J-0000323D01*
G01*
X-0007784Y0037689D02*
X-0003803Y0038405D01*
X0007709Y0037701D02*
X0009961Y0037185D01*
X-0024272Y0030055D02*
X-0021961Y0031768D01*
X0031988Y0022126D02*
X0034303Y0018421D01*
X0038898Y-0007240D02*
X0039260Y-0004413D01*
X-0038484Y-0009173D02*
X-0037165Y-0013898D01*
X0030996Y-0025181D02*
X0033516Y-0021559D01*
X-0029110Y-0027409D02*
X-0027362Y-0029252D01*
X-0011000Y0036898D02*
X-0007784Y0037689D01*
X0005315Y0038102D02*
X0007709Y0037701D01*
X0028051Y0026752D02*
X0031988Y0022126D01*
X-0035236Y0016713D02*
X-0033457Y0019847D01*
X0038681Y0006461D02*
X0038984Y0004634D01*
X-0039173Y0003228D02*
X-0038681Y0006279D01*
X-0037165Y-0013898D02*
X-0035543Y-0017835D01*
X-0027362Y-0029252D02*
X-0025591Y-0030827D01*
X-0027362Y0027441D02*
X-0024272Y0030055D01*
X0024331Y0030047D02*
X0028051Y0026752D01*
X-0035689Y0015713D02*
X-0035236Y0016713D01*
X0038169Y0008740D02*
X0038681Y0006461D01*
X-0039319Y0001063D02*
X-0039173Y0003228D01*
X0039260Y-0004413D02*
X0039394Y-0001819D01*
X-0035543Y-0017835D02*
X-0034335Y-0020173D01*
X0033516Y-0021559D02*
X0035138Y-0018622D01*
X0003500Y0038307D02*
X0005315Y0038102D01*
X-0015358Y0035342D02*
X-0011000Y0036898D01*
X-0029110Y0025602D02*
X-0027362Y0027441D01*
X0037079Y0012327D02*
X0038169Y0008740D01*
X-0036319Y0014252D02*
X-0035689Y0015713D01*
X0039394Y-0001819D02*
X0039425Y-0000587D01*
X0035138Y-0018622D02*
X0036496Y-0015669D01*
X-0025591Y-0030827D02*
X-0024319Y-0031866D01*
X0025181Y-0031236D02*
X0025787Y-0030630D01*
X0001291Y0038421D02*
X0003500Y0038307D01*
X-0017335Y0034441D02*
X-0015358Y0035342D01*
X0021768Y0031898D02*
X0024331Y0030047D01*
X-0032098Y0021890D02*
X-0029110Y0025602D01*
X-0039319Y-0002874D02*
Y0001063D01*
X0036496Y-0015669D02*
X0037472Y-0013008D01*
X-0034335Y-0020173D02*
X-0032098Y-0023701D01*
X0025787Y-0030630D02*
X0028445Y-0028169D01*
X-0022417Y-0032653D02*
X-0021961Y-0032650D01*
X-0001224Y0038453D02*
X0001291Y0038421D01*
X0012874Y0036299D02*
X0015870Y0035126D01*
X0018701Y0033740D02*
X0021768Y0031898D01*
X0035693Y0015709D02*
X0037079Y0012327D01*
X-0037634Y0010657D02*
X-0036319Y0014252D01*
X0039323Y0001063D02*
X0039425Y-0000587D01*
X-0039319Y-0002874D02*
X-0039075Y-0006024D01*
X-0032098Y-0023701D02*
X-0030953Y-0025236D01*
X0028445Y-0028169D02*
X0029847Y-0026579D01*
X-0021961Y-0032650D02*
X0021768D01*
X0009961Y0037185D02*
X0012874Y0036299D01*
X-0020736Y0032563D02*
X-0017335Y0034441D01*
X0015870Y0035126D02*
X0018701Y0033740D01*
X-0032803Y0020862D02*
X-0032098Y0021890D01*
X0034303Y0018421D02*
X0035693Y0015709D01*
X-0038118Y0008937D02*
X-0037634Y0010657D01*
X0039213Y0002717D02*
X0039323Y0001063D01*
X-0039075Y-0006024D02*
X-0038484Y-0009173D01*
X0037472Y-0013008D02*
X0038091Y-0010957D01*
X-0003803Y0038405D02*
X-0001224Y0038453D01*
X-0021961Y0031768D02*
X-0020736Y0032563D01*
X-0033457Y0019847D02*
X-0032803Y0020862D01*
X0038984Y0004634D02*
X0039213Y0002717D01*
X-0038681Y0006279D02*
X-0038118Y0008937D01*
X0038091Y-0010957D02*
X0038898Y-0007240D01*
X-0030953Y-0025236D02*
X-0029110Y-0027409D01*
X0029847Y-0026579D02*
X0030996Y-0025181D01*
X0012894Y0063874D02*
Y0080611D01*
X-0009709Y0083756D02*
X0009748D01*
X-0012854Y0063874D02*
Y0080611D01*
D12*
X-0009630Y-0057110D02*
D03*
Y-0044118D02*
D03*
X0009661D02*
D03*
Y-0057110D02*
D03*
X0009646Y0054626D02*
D03*
Y0041634D02*
D03*
X-0009646D02*
D03*
Y0054626D02*
D03*
D13*
X0032934Y-0047473D02*
D03*
X0023747Y-0038286D02*
D03*
X0037389Y-0024645D02*
D03*
X0046575Y-0033832D02*
D03*
X-0032899Y0045654D02*
D03*
X-0023712Y0036467D02*
D03*
X-0037353Y0022826D02*
D03*
X-0046540Y0032013D02*
D03*
D14*
X0056221Y-0010559D02*
D03*
X0043228D02*
D03*
Y0008732D02*
D03*
X0056221D02*
D03*
X-0056185Y-0010551D02*
D03*
X-0043193D02*
D03*
Y0008740D02*
D03*
X-0056185D02*
D03*
D15*
X0046579Y0032009D02*
D03*
X0037393Y0022822D02*
D03*
X0023751Y0036463D02*
D03*
X0032938Y0045650D02*
D03*
X-0032903Y-0047469D02*
D03*
X-0023716Y-0038282D02*
D03*
X-0037357Y-0024641D02*
D03*
X-0046544Y-0033828D02*
D03*
D16*
X0047849Y-0027475D02*
D03*
X0045065Y-0024691D02*
D03*
X-0051283Y0027178D02*
D03*
X-0048499Y0024394D02*
D03*
D18*
X0016634Y-0054528D02*
D03*
Y-0058465D02*
D03*
X-0014546Y0050460D02*
D03*
Y0046523D02*
D03*
D19*
X0023477Y0044508D02*
D03*
X0026261Y0047291D02*
D03*
X-0026474Y-0049339D02*
D03*
X-0029258Y-0052122D02*
D03*
D20*
X0050184Y0014982D02*
D03*
X0054121D02*
D03*
X-0056211Y-0016708D02*
D03*
X-0052274D02*
D03*
D26*
X0000000Y0074213D02*
D03*
X-0005000D02*
D03*
D27*
X0005000Y0073228D02*
D03*
D35*
X-0005000Y0062894D02*
D03*
X0000000D02*
D03*
X0005000D02*
D03*
D37*
X-0016339Y0054429D02*
D03*
Y0057185D02*
D03*
X0016432Y0053404D02*
D03*
Y0056160D02*
D03*
D38*
X0009661Y-0044118D02*
X0010842D01*
X0011945Y-0045221D01*
Y-0045328D02*
Y-0045221D01*
X0031375Y-0047473D02*
X0032934D01*
X0028146Y-0050703D02*
X0031375Y-0047473D01*
X0011945Y-0045328D02*
X0017319Y-0050703D01*
X0028146D01*
X0055733Y-0010071D02*
X0056221Y-0010559D01*
X0037389Y-0023086D02*
X0038636Y-0021838D01*
Y-0021555D01*
X0037389Y-0024645D02*
Y-0023086D01*
X0050120Y-0010071D02*
X0055733D01*
X0038636Y-0021555D02*
X0050120Y-0010071D01*
X0043228Y0008732D02*
X0043348Y0008852D01*
Y0028932D02*
X0046426Y0032009D01*
X0043348Y0008852D02*
Y0028932D01*
X0046426Y0032009D02*
X0046579D01*
X0017814Y0042401D02*
X0023751Y0036463D01*
X0017814Y0042401D02*
Y0046064D01*
X0011892Y0051986D02*
X0017814Y0046064D01*
X0011184Y0054232D02*
X0011892Y0053524D01*
Y0051986D02*
Y0053524D01*
X0009646Y0054232D02*
X0011184D01*
X-0032899Y0045654D02*
X-0032064Y0046489D01*
X-0023267D02*
X-0018313Y0041535D01*
X-0032064Y0046489D02*
X-0023267D01*
X-0018313Y0041535D02*
X-0009626D01*
X-0038188Y0021991D02*
X-0037353Y0022826D01*
X-0056185Y0009921D02*
X-0055083Y0011024D01*
X-0056185Y0008740D02*
Y0009921D01*
X-0055036Y0011024D02*
X-0044069Y0021991D01*
X-0055083Y0011024D02*
X-0055036D01*
X-0044069Y0021991D02*
X-0038188D01*
X-0046544Y-0032932D02*
X-0043193Y-0029581D01*
Y-0010551D01*
X-0046544Y-0033828D02*
Y-0032932D01*
D39*
X0016634Y-0058465D02*
X0020584D01*
X0025908Y-0053140D01*
X0032000D02*
X0037624Y-0047516D01*
X0025908Y-0053140D02*
X0032000D01*
X0042503Y-0032929D02*
X0043642Y-0034069D01*
X0043750D02*
X0044348Y-0034667D01*
X0042503Y-0032929D02*
Y-0030394D01*
X0044348Y-0034667D02*
X0045740D01*
X0043642Y-0034069D02*
X0043750D01*
X0045740Y-0034667D02*
X0046575Y-0033832D01*
X0042352Y-0030244D02*
X0042503Y-0030394D01*
X0047411Y-0032997D02*
Y-0027544D01*
X0054889Y-0020066D02*
Y-0016017D01*
X0047411Y-0027544D02*
X0054889Y-0020066D01*
X0056062Y-0001592D02*
Y0006156D01*
Y-0001592D02*
X0056176Y-0001705D01*
X0054889Y-0016017D02*
X0055039Y-0015866D01*
X0045740Y-0034667D02*
X0045740Y-0034667D01*
X0046575Y-0033832D02*
X0047411Y-0032997D01*
X0037624Y-0047516D02*
X0045740Y-0039400D01*
Y-0034667D01*
X0037624Y-0047516D02*
Y-0047516D01*
D40*
X-0029231Y0033049D02*
X-0029175Y0033104D01*
X0024942Y-0044960D02*
X0036984Y-0032919D01*
X0019271Y-0044960D02*
X0024942D01*
X0014272Y-0039961D02*
X0019271Y-0044960D01*
X-0029531Y0059153D02*
X-0027563Y0057185D01*
X-0016339D01*
X-0031201Y0033049D02*
X-0029231D01*
X-0041223Y0038142D02*
X-0036294D01*
X-0031201Y0033049D01*
X-0005000Y0062894D02*
X-0001805Y0066088D01*
X0001895D01*
X0005000Y0069193D01*
Y0073228D01*
X0007323Y-0039961D02*
X0014272D01*
X0005315Y-0051159D02*
Y-0041969D01*
X-0005555Y-0054216D02*
X0002258D01*
X0005315Y-0051159D01*
X-0008449Y-0057110D02*
X-0005555Y-0054216D01*
X-0009630Y-0057110D02*
X-0008449D01*
X0005315Y-0041969D02*
X0007323Y-0039961D01*
D41*
X0024215Y-0042734D02*
X0031934Y-0035015D01*
X0021565Y-0042734D02*
X0024215D01*
X0031934Y-0035015D02*
Y-0034709D01*
X0004835Y-0037697D02*
X0016528D01*
X0002396Y-0040136D02*
X0004835Y-0037697D01*
X0016528D02*
X0021565Y-0042734D01*
X0002396Y-0048647D02*
Y-0040136D01*
X0000716Y-0050327D02*
X0002396Y-0048647D01*
D42*
X-0056378Y-0010646D02*
Y-0005718D01*
Y-0010646D02*
X-0056211Y-0010813D01*
X-0015730Y-0059965D02*
X-0005351D01*
X-0002098Y-0056711D02*
X0001650D01*
X-0005351Y-0059965D02*
X-0002098Y-0056711D01*
X-0021659Y-0054035D02*
X-0015730Y-0059965D01*
D43*
X-0021659Y-0054035D02*
D03*
D44*
X-0015059D02*
D03*
X-0021659Y-0044035D02*
D03*
Y-0049035D02*
D03*
X-0015059D02*
D03*
D45*
X-0059059Y-0029429D02*
D03*
X0029524Y0059153D02*
D03*
X0059047Y-0029433D02*
D03*
X-0029531Y0059153D02*
D03*
D46*
X-0029175Y0033104D02*
D03*
X-0041764Y0041396D02*
D03*
X-0028768Y-0046639D02*
D03*
X0029847Y-0043830D02*
D03*
X0036984Y-0032919D02*
D03*
X0042352Y-0030244D02*
D03*
X-0017646Y0045295D02*
D03*
X-0013593Y0052052D02*
D03*
X0019560Y0052251D02*
D03*
X-0024074Y0042612D02*
D03*
X-0056378Y-0005718D02*
D03*
X-0037400Y0032988D02*
D03*
X-0041223Y0038142D02*
D03*
X0051181Y-0015866D02*
D03*
X0042230Y-0021457D02*
D03*
X0031934Y-0034709D02*
D03*
X0042173Y0036467D02*
D03*
X0056176Y-0001705D02*
D03*
X0055039Y-0015866D02*
D03*
X0040256Y-0014713D02*
D03*
X-0040413Y-0045772D02*
D03*
X0000000Y0074213D02*
D03*
X-0052536Y-0013738D02*
D03*
X0001650Y-0056711D02*
D03*
X0007942Y-0047766D02*
D03*
X0000716Y-0050327D02*
D03*
M02*
