G04*
G04 #@! TF.GenerationSoftware,Altium Limited,Altium Designer,22.4.2 (48)*
G04*
G04 Layer_Physical_Order=2*
G04 Layer_Color=16711680*
%FSAX44Y44*%
%MOMM*%
G71*
G04*
G04 #@! TF.SameCoordinates,3CED078E-C40B-4900-A66E-FCBC5E85EC31*
G04*
G04*
G04 #@! TF.FilePolarity,Positive*
G04*
G01*
G75*
%ADD13C,0.2000*%
%ADD19C,1.1000*%
%ADD24C,4.4000*%
%ADD25C,0.6000*%
G04:AMPARAMS|DCode=26|XSize=0.9mm|YSize=3.4mm|CornerRadius=0.351mm|HoleSize=0mm|Usage=FLASHONLY|Rotation=90.000|XOffset=0mm|YOffset=0mm|HoleType=Round|Shape=RoundedRectangle|*
%AMROUNDEDRECTD26*
21,1,0.9000,2.6980,0,0,90.0*
21,1,0.1980,3.4000,0,0,90.0*
1,1,0.7020,1.3490,0.0990*
1,1,0.7020,1.3490,-0.0990*
1,1,0.7020,-1.3490,-0.0990*
1,1,0.7020,-1.3490,0.0990*
%
%ADD26ROUNDEDRECTD26*%
G04:AMPARAMS|DCode=27|XSize=0.9mm|YSize=2.9mm|CornerRadius=0.351mm|HoleSize=0mm|Usage=FLASHONLY|Rotation=90.000|XOffset=0mm|YOffset=0mm|HoleType=Round|Shape=RoundedRectangle|*
%AMROUNDEDRECTD27*
21,1,0.9000,2.1980,0,0,90.0*
21,1,0.1980,2.9000,0,0,90.0*
1,1,0.7020,1.0990,0.0990*
1,1,0.7020,1.0990,-0.0990*
1,1,0.7020,-1.0990,-0.0990*
1,1,0.7020,-1.0990,0.0990*
%
%ADD27ROUNDEDRECTD27*%
G36*
X00078342Y00120768D02*
X00077117Y00119544D01*
X00074342Y00115723D01*
X00072198Y00111516D01*
X00070739Y00107025D01*
X00070000Y00102361D01*
X00070000Y00097639D01*
X00070739Y00092975D01*
X00072198Y00088484D01*
X00074342Y00084277D01*
X00077117Y00080456D01*
X00080456Y00077117D01*
X00084277Y00074342D01*
X00088484Y00072198D01*
X00092975Y00070739D01*
X00097639Y00070000D01*
X00102361Y00070000D01*
X00107025Y00070739D01*
X00111516Y00072198D01*
X00115723Y00074342D01*
X00119544Y00077117D01*
X00120768Y00078342D01*
X00121941Y00077856D01*
X00121941Y00069316D01*
X00121675Y00067975D01*
X00121151Y00066712D01*
X00120392Y00065575D01*
X00119425Y00064608D01*
X00118288Y00063849D01*
X00117025Y00063325D01*
X00115684Y00063059D01*
X00091000Y00063059D01*
X00090925Y00063044D01*
X00090850Y00063055D01*
X00089870Y00063007D01*
X00089650Y00062952D01*
X00089423Y00062952D01*
X00087500Y00062569D01*
X00087222Y00062454D01*
X00086927Y00062395D01*
X00085116Y00061645D01*
X00084865Y00061478D01*
X00084587Y00061362D01*
X00082957Y00060273D01*
X00082744Y00060060D01*
X00082493Y00059893D01*
X00081107Y00058507D01*
X00080940Y00058256D01*
X00080727Y00058043D01*
X00079638Y00056413D01*
X00079522Y00056135D01*
X00079355Y00055884D01*
X00078605Y00054073D01*
X00078546Y00053778D01*
X00078431Y00053500D01*
X00078048Y00051577D01*
X00078048Y00051350D01*
X00077993Y00051130D01*
X00077945Y00050150D01*
X00077956Y00050076D01*
X00077941Y00050002D01*
X00077937Y00043002D01*
X00077946Y00042954D01*
X00077938Y00042906D01*
X00077968Y00041926D01*
X00078026Y00041678D01*
X00078026Y00041423D01*
X00078408Y00039500D01*
X00078524Y00039222D01*
X00078582Y00038926D01*
X00079332Y00037115D01*
X00079500Y00036865D01*
X00079615Y00036587D01*
X00080704Y00034957D01*
X00080917Y00034744D01*
X00081085Y00034493D01*
X00082471Y00033107D01*
X00082721Y00032940D01*
X00082934Y00032727D01*
X00084564Y00031637D01*
X00084843Y00031522D01*
X00085093Y00031355D01*
X00086904Y00030605D01*
X00087199Y00030546D01*
X00087478Y00030431D01*
X00089401Y00030048D01*
X00089627Y00030048D01*
X00089847Y00029993D01*
X00090828Y00029945D01*
X00090903Y00029956D01*
X00090977Y00029941D01*
X00097510Y00029941D01*
X00098189Y00028671D01*
X00097310Y00027357D01*
X00096842Y00025000D01*
X00097310Y00022643D01*
X00098645Y00020645D01*
X00100218Y00019595D01*
X00100277Y00019387D01*
X00100236Y00018233D01*
X00100218Y00018184D01*
X00098898Y00017302D01*
X00097791Y00015645D01*
X00097402Y00013690D01*
X00097402Y00011710D01*
X00097791Y00009755D01*
X00098898Y00008098D01*
X00100008Y00007356D01*
X00100056Y00007196D01*
X00099960Y00005913D01*
X00098538Y00004963D01*
X00097320Y00003140D01*
X00096892Y00000990D01*
X00096892Y-00000990D01*
X00097320Y-00003140D01*
X00098538Y-00004963D01*
X00099960Y-00005913D01*
X00100056Y-00007196D01*
X00100008Y-00007356D01*
X00098898Y-00008098D01*
X00097791Y-00009755D01*
X00097402Y-00011710D01*
X00097402Y-00013690D01*
X00097791Y-00015645D01*
X00098898Y-00017302D01*
X00100218Y-00018184D01*
X00100236Y-00018233D01*
X00100277Y-00019387D01*
X00100218Y-00019595D01*
X00098645Y-00020645D01*
X00097310Y-00022643D01*
X00096842Y-00025000D01*
X00097310Y-00027357D01*
X00098189Y-00028671D01*
X00097510Y-00029941D01*
X00091000Y-00029941D01*
X00090926Y-00029956D01*
X00090851Y-00029945D01*
X00089866Y-00029993D01*
X00089646Y-00030048D01*
X00089419Y-00030048D01*
X00087496Y-00030431D01*
X00087218Y-00030546D01*
X00086922Y-00030605D01*
X00085111Y-00031355D01*
X00084861Y-00031522D01*
X00084582Y-00031638D01*
X00082952Y-00032727D01*
X00082739Y-00032940D01*
X00082489Y-00033107D01*
X00081103Y-00034493D01*
X00080935Y-00034744D01*
X00080722Y-00034957D01*
X00079633Y-00036587D01*
X00079518Y-00036865D01*
X00079351Y-00037115D01*
X00078600Y-00038927D01*
X00078542Y-00039222D01*
X00078426Y-00039500D01*
X00078044Y-00041423D01*
X00078044Y-00041650D01*
X00077989Y-00041870D01*
X00077941Y-00042850D01*
X00077952Y-00042926D01*
X00077937Y-00043002D01*
X00077941Y-00050002D01*
X00077956Y-00050076D01*
X00077945Y-00050150D01*
X00077993Y-00051130D01*
X00078048Y-00051350D01*
X00078048Y-00051577D01*
X00078431Y-00053500D01*
X00078546Y-00053778D01*
X00078605Y-00054073D01*
X00079355Y-00055884D01*
X00079522Y-00056135D01*
X00079638Y-00056413D01*
X00080727Y-00058043D01*
X00080940Y-00058256D01*
X00081107Y-00058507D01*
X00082493Y-00059893D01*
X00082744Y-00060060D01*
X00082957Y-00060273D01*
X00084587Y-00061362D01*
X00084865Y-00061478D01*
X00085116Y-00061645D01*
X00086927Y-00062395D01*
X00087222Y-00062454D01*
X00087500Y-00062569D01*
X00089423Y-00062952D01*
X00089650Y-00062952D01*
X00089870Y-00063007D01*
X00090850Y-00063055D01*
X00090925Y-00063044D01*
X00091000Y-00063059D01*
X00115000Y-00063059D01*
X00115684Y-00063059D01*
X00117025Y-00063325D01*
X00118288Y-00063849D01*
X00119425Y-00064608D01*
X00120392Y-00065575D01*
X00121151Y-00066712D01*
X00121675Y-00067975D01*
X00121941Y-00069316D01*
X00121941Y-00070000D01*
X00121941Y-00077856D01*
X00120768Y-00078342D01*
X00119544Y-00077117D01*
X00115723Y-00074342D01*
X00111516Y-00072198D01*
X00107025Y-00070739D01*
X00102361Y-00070000D01*
X00097639Y-00070000D01*
X00092975Y-00070739D01*
X00088484Y-00072198D01*
X00084277Y-00074342D01*
X00080456Y-00077117D01*
X00077117Y-00080456D01*
X00074342Y-00084277D01*
X00072198Y-00088484D01*
X00070739Y-00092975D01*
X00070000Y-00097639D01*
X00070000Y-00102361D01*
X00070739Y-00107025D01*
X00072198Y-00111516D01*
X00074342Y-00115723D01*
X00077117Y-00119544D01*
X00078342Y-00120768D01*
X00077856Y-00121941D01*
X-00077856Y-00121941D01*
X-00078342Y-00120768D01*
X-00077117Y-00119544D01*
X-00074342Y-00115723D01*
X-00072198Y-00111516D01*
X-00070739Y-00107025D01*
X-00070000Y-00102361D01*
X-00070000Y-00097639D01*
X-00070739Y-00092975D01*
X-00072198Y-00088484D01*
X-00074342Y-00084277D01*
X-00077117Y-00080456D01*
X-00080456Y-00077117D01*
X-00084277Y-00074342D01*
X-00088484Y-00072198D01*
X-00092975Y-00070739D01*
X-00097639Y-00070000D01*
X-00102361Y-00070000D01*
X-00107025Y-00070739D01*
X-00111516Y-00072198D01*
X-00115723Y-00074342D01*
X-00119544Y-00077117D01*
X-00120768Y-00078342D01*
X-00121941Y-00077856D01*
X-00121941Y-00069880D01*
X-00121941Y-00069879D01*
X-00121941Y-00069316D01*
X-00121675Y-00067975D01*
X-00121152Y-00066712D01*
X-00120392Y-00065575D01*
X-00119425Y-00064608D01*
X-00118288Y-00063849D01*
X-00117025Y-00063325D01*
X-00115684Y-00063059D01*
X-00091000Y-00063059D01*
X-00090925Y-00063044D01*
X-00090850Y-00063055D01*
X-00089870Y-00063007D01*
X-00089650Y-00062952D01*
X-00089423Y-00062952D01*
X-00087500Y-00062569D01*
X-00087222Y-00062454D01*
X-00086927Y-00062395D01*
X-00085116Y-00061645D01*
X-00084865Y-00061478D01*
X-00084587Y-00061362D01*
X-00082957Y-00060273D01*
X-00082744Y-00060060D01*
X-00082493Y-00059893D01*
X-00081107Y-00058507D01*
X-00080940Y-00058256D01*
X-00080727Y-00058043D01*
X-00079638Y-00056413D01*
X-00079522Y-00056135D01*
X-00079355Y-00055884D01*
X-00078605Y-00054073D01*
X-00078546Y-00053778D01*
X-00078431Y-00053499D01*
X-00078048Y-00051577D01*
X-00078048Y-00051350D01*
X-00077993Y-00051130D01*
X-00077945Y-00050150D01*
X-00077956Y-00050075D01*
X-00077941Y-00050000D01*
X-00077941Y-00043000D01*
X-00077956Y-00042925D01*
X-00077945Y-00042850D01*
X-00077993Y-00041870D01*
X-00078048Y-00041650D01*
X-00078048Y-00041423D01*
X-00078431Y-00039501D01*
X-00078546Y-00039222D01*
X-00078605Y-00038927D01*
X-00079355Y-00037116D01*
X-00079523Y-00036865D01*
X-00079638Y-00036587D01*
X-00080727Y-00034957D01*
X-00080940Y-00034744D01*
X-00081107Y-00034493D01*
X-00082493Y-00033107D01*
X-00082744Y-00032940D01*
X-00082957Y-00032727D01*
X-00084587Y-00031638D01*
X-00084865Y-00031522D01*
X-00085116Y-00031355D01*
X-00086927Y-00030605D01*
X-00087222Y-00030546D01*
X-00087501Y-00030431D01*
X-00089423Y-00030048D01*
X-00089650Y-00030048D01*
X-00089870Y-00029993D01*
X-00090850Y-00029945D01*
X-00090925Y-00029956D01*
X-00091000Y-00029941D01*
X-00097510Y-00029941D01*
X-00098189Y-00028671D01*
X-00097311Y-00027357D01*
X-00096842Y-00025000D01*
X-00097311Y-00022643D01*
X-00098645Y-00020645D01*
X-00100218Y-00019595D01*
X-00100277Y-00019387D01*
X-00100237Y-00018233D01*
X-00100218Y-00018184D01*
X-00098898Y-00017302D01*
X-00097791Y-00015645D01*
X-00097402Y-00013690D01*
X-00097402Y-00011710D01*
X-00097791Y-00009755D01*
X-00098898Y-00008098D01*
X-00100008Y-00007356D01*
X-00100056Y-00007196D01*
X-00099960Y-00005913D01*
X-00098538Y-00004963D01*
X-00097320Y-00003140D01*
X-00096892Y-00000990D01*
X-00096892Y00000990D01*
X-00097320Y00003140D01*
X-00098538Y00004963D01*
X-00099960Y00005913D01*
X-00100056Y00007196D01*
X-00100008Y00007356D01*
X-00098898Y00008098D01*
X-00097791Y00009755D01*
X-00097402Y00011710D01*
X-00097402Y00013690D01*
X-00097791Y00015645D01*
X-00098898Y00017302D01*
X-00100218Y00018184D01*
X-00100237Y00018233D01*
X-00100277Y00019387D01*
X-00100218Y00019595D01*
X-00098645Y00020645D01*
X-00097311Y00022643D01*
X-00096842Y00025000D01*
X-00097311Y00027357D01*
X-00098189Y00028671D01*
X-00097510Y00029941D01*
X-00091000Y00029941D01*
X-00090925Y00029956D01*
X-00090850Y00029945D01*
X-00089870Y00029993D01*
X-00089650Y00030048D01*
X-00089423Y00030048D01*
X-00087501Y00030431D01*
X-00087222Y00030546D01*
X-00086927Y00030605D01*
X-00085116Y00031355D01*
X-00084865Y00031522D01*
X-00084587Y00031638D01*
X-00082957Y00032727D01*
X-00082744Y00032940D01*
X-00082493Y00033107D01*
X-00081107Y00034493D01*
X-00080940Y00034744D01*
X-00080727Y00034957D01*
X-00079638Y00036587D01*
X-00079522Y00036865D01*
X-00079355Y00037115D01*
X-00078605Y00038927D01*
X-00078546Y00039222D01*
X-00078431Y00039500D01*
X-00078048Y00041423D01*
X-00078048Y00041650D01*
X-00077993Y00041870D01*
X-00077945Y00042850D01*
X-00077956Y00042925D01*
X-00077941Y00043000D01*
X-00077941Y00050000D01*
X-00077956Y00050075D01*
X-00077945Y00050150D01*
X-00077993Y00051130D01*
X-00078048Y00051350D01*
X-00078048Y00051577D01*
X-00078431Y00053500D01*
X-00078546Y00053778D01*
X-00078605Y00054073D01*
X-00079355Y00055884D01*
X-00079522Y00056135D01*
X-00079638Y00056413D01*
X-00080727Y00058043D01*
X-00080940Y00058256D01*
X-00081107Y00058507D01*
X-00082493Y00059893D01*
X-00082744Y00060060D01*
X-00082957Y00060273D01*
X-00084587Y00061362D01*
X-00084865Y00061478D01*
X-00085116Y00061645D01*
X-00086927Y00062395D01*
X-00087222Y00062454D01*
X-00087500Y00062569D01*
X-00089423Y00062952D01*
X-00089650Y00062952D01*
X-00089870Y00063007D01*
X-00090850Y00063055D01*
X-00090925Y00063044D01*
X-00091000Y00063059D01*
X-00115684Y00063059D01*
X-00117025Y00063325D01*
X-00118288Y00063849D01*
X-00119425Y00064608D01*
X-00120392Y00065575D01*
X-00121152Y00066712D01*
X-00121675Y00067975D01*
X-00121941Y00069316D01*
X-00121941Y00069879D01*
X-00121941Y00069880D01*
X-00121941Y00077856D01*
X-00120768Y00078342D01*
X-00119544Y00077117D01*
X-00115723Y00074342D01*
X-00111516Y00072198D01*
X-00107025Y00070739D01*
X-00102361Y00070000D01*
X-00097639Y00070000D01*
X-00092975Y00070739D01*
X-00088484Y00072198D01*
X-00084277Y00074342D01*
X-00080456Y00077117D01*
X-00077117Y00080456D01*
X-00074342Y00084277D01*
X-00072198Y00088484D01*
X-00070739Y00092975D01*
X-00070000Y00097639D01*
X-00070000Y00102361D01*
X-00070718Y00106894D01*
X-00070425Y00107325D01*
X-00069665Y00107830D01*
X-00069619Y00107807D01*
X-00067097Y00107131D01*
X-00066698Y00107105D01*
X-00066305Y00107027D01*
X-00063695Y00107027D01*
X-00063302Y00107105D01*
X-00062903Y00107131D01*
X-00060382Y00107807D01*
X-00060023Y00107984D01*
X-00059644Y00108112D01*
X-00057383Y00109418D01*
X-00057082Y00109682D01*
X-00056750Y00109904D01*
X-00054904Y00111750D01*
X-00054681Y00112083D01*
X-00054418Y00112383D01*
X-00053112Y00114644D01*
X-00052984Y00115023D01*
X-00052807Y00115382D01*
X-00052131Y00117903D01*
X-00052112Y00118204D01*
X-00052034Y00118495D01*
X-00051948Y00119800D01*
X-00051961Y00119901D01*
X-00051941Y00120000D01*
X-00051941Y00121941D01*
X00077856Y00121941D01*
X00078342Y00120768D01*
X00078342Y00120768D02*
G37*
G36*
X00194783Y-00055988D02*
X00194830Y-00055988D01*
X00194885Y-00055995D01*
X00195019Y-00056019D01*
X00195176Y-00056058D01*
X00195356Y-00056113D01*
X00195544Y-00056200D01*
X00195741Y-00056302D01*
X00195843Y-00056372D01*
X00195937Y-00056443D01*
X00196031Y-00056521D01*
X00196125Y-00056616D01*
X00196219Y-00056718D01*
X00196306Y-00056828D01*
X00196384Y-00056945D01*
X00196463Y-00057079D01*
X00196533Y-00057220D01*
X00196596Y-00057377D01*
X00196651Y-00057542D01*
X00196706Y-00057722D01*
X00196737Y-00057911D01*
X00196769Y-00058123D01*
X00196784Y-00058342D01*
X00196792Y-00058578D01*
X00196792Y-00062502D01*
X00195772Y-00062502D01*
X00195772Y-00058845D01*
X00195772Y-00058829D01*
X00195772Y-00058797D01*
X00195772Y-00058743D01*
X00195764Y-00058672D01*
X00195764Y-00058586D01*
X00195756Y-00058484D01*
X00195749Y-00058374D01*
X00195733Y-00058256D01*
X00195694Y-00058005D01*
X00195631Y-00057754D01*
X00195599Y-00057628D01*
X00195552Y-00057518D01*
X00195497Y-00057408D01*
X00195442Y-00057314D01*
X00195442Y-00057306D01*
X00195427Y-00057291D01*
X00195411Y-00057267D01*
X00195380Y-00057243D01*
X00195348Y-00057204D01*
X00195301Y-00057165D01*
X00195246Y-00057126D01*
X00195183Y-00057079D01*
X00195113Y-00057032D01*
X00195034Y-00056992D01*
X00194940Y-00056953D01*
X00194846Y-00056914D01*
X00194736Y-00056890D01*
X00194611Y-00056867D01*
X00194485Y-00056851D01*
X00194344Y-00056843D01*
X00194281Y-00056843D01*
X00194234Y-00056851D01*
X00194179Y-00056859D01*
X00194116Y-00056875D01*
X00193959Y-00056914D01*
X00193873Y-00056945D01*
X00193786Y-00056992D01*
X00193692Y-00057039D01*
X00193606Y-00057094D01*
X00193512Y-00057165D01*
X00193417Y-00057243D01*
X00193323Y-00057338D01*
X00193237Y-00057440D01*
X00193229Y-00057448D01*
X00193221Y-00057463D01*
X00193198Y-00057502D01*
X00193166Y-00057542D01*
X00193135Y-00057604D01*
X00193096Y-00057675D01*
X00193049Y-00057754D01*
X00193009Y-00057840D01*
X00192970Y-00057942D01*
X00192923Y-00058052D01*
X00192884Y-00058170D01*
X00192852Y-00058295D01*
X00192821Y-00058429D01*
X00192805Y-00058570D01*
X00192790Y-00058711D01*
X00192782Y-00058868D01*
X00192782Y-00062502D01*
X00191761Y-00062502D01*
X00191761Y-00058719D01*
X00191761Y-00058711D01*
X00191761Y-00058696D01*
X00191761Y-00058672D01*
X00191761Y-00058640D01*
X00191754Y-00058593D01*
X00191754Y-00058546D01*
X00191738Y-00058429D01*
X00191714Y-00058287D01*
X00191683Y-00058123D01*
X00191644Y-00057958D01*
X00191581Y-00057777D01*
X00191502Y-00057604D01*
X00191408Y-00057440D01*
X00191290Y-00057275D01*
X00191149Y-00057134D01*
X00190984Y-00057016D01*
X00190890Y-00056969D01*
X00190788Y-00056922D01*
X00190678Y-00056890D01*
X00190568Y-00056867D01*
X00190443Y-00056851D01*
X00190309Y-00056843D01*
X00190247Y-00056843D01*
X00190200Y-00056851D01*
X00190137Y-00056859D01*
X00190074Y-00056875D01*
X00189917Y-00056914D01*
X00189831Y-00056945D01*
X00189744Y-00056985D01*
X00189650Y-00057024D01*
X00189556Y-00057079D01*
X00189462Y-00057149D01*
X00189368Y-00057220D01*
X00189281Y-00057306D01*
X00189195Y-00057408D01*
X00189187Y-00057416D01*
X00189179Y-00057432D01*
X00189156Y-00057463D01*
X00189124Y-00057510D01*
X00189093Y-00057565D01*
X00189062Y-00057628D01*
X00189022Y-00057706D01*
X00188983Y-00057801D01*
X00188936Y-00057903D01*
X00188897Y-00058013D01*
X00188865Y-00058130D01*
X00188834Y-00058256D01*
X00188803Y-00058397D01*
X00188779Y-00058546D01*
X00188771Y-00058703D01*
X00188763Y-00058868D01*
X00188763Y-00062502D01*
X00187743Y-00062502D01*
X00187743Y-00056129D01*
X00188763Y-00056129D01*
X00188763Y-00057141D01*
X00188787Y-00057141D01*
X00188795Y-00057126D01*
X00188818Y-00057094D01*
X00188857Y-00057032D01*
X00188912Y-00056961D01*
X00188983Y-00056875D01*
X00189069Y-00056773D01*
X00189171Y-00056670D01*
X00189289Y-00056561D01*
X00189422Y-00056451D01*
X00189572Y-00056349D01*
X00189736Y-00056247D01*
X00189909Y-00056160D01*
X00190105Y-00056090D01*
X00190317Y-00056027D01*
X00190537Y-00055995D01*
X00190772Y-00055980D01*
X00190835Y-00055980D01*
X00190882Y-00055988D01*
X00190937Y-00055988D01*
X00191008Y-00055995D01*
X00191079Y-00056011D01*
X00191157Y-00056027D01*
X00191338Y-00056066D01*
X00191526Y-00056137D01*
X00191714Y-00056223D01*
X00191808Y-00056286D01*
X00191903Y-00056349D01*
X00191910Y-00056357D01*
X00191926Y-00056364D01*
X00191950Y-00056388D01*
X00191981Y-00056411D01*
X00192068Y-00056498D01*
X00192169Y-00056600D01*
X00192279Y-00056741D01*
X00192389Y-00056906D01*
X00192491Y-00057094D01*
X00192570Y-00057306D01*
X00192578Y-00057291D01*
X00192601Y-00057251D01*
X00192648Y-00057181D01*
X00192703Y-00057102D01*
X00192782Y-00057000D01*
X00192868Y-00056882D01*
X00192978Y-00056765D01*
X00193104Y-00056639D01*
X00193245Y-00056521D01*
X00193402Y-00056396D01*
X00193574Y-00056286D01*
X00193763Y-00056184D01*
X00193975Y-00056105D01*
X00194195Y-00056035D01*
X00194438Y-00055995D01*
X00194689Y-00055980D01*
X00194744Y-00055980D01*
X00194783Y-00055988D01*
X00194783Y-00055988D02*
G37*
G36*
X00230384Y-00056027D02*
X00230471Y-00056027D01*
X00230565Y-00056043D01*
X00230667Y-00056058D01*
X00230769Y-00056074D01*
X00230855Y-00056105D01*
X00230855Y-00057165D01*
X00230840Y-00057157D01*
X00230808Y-00057134D01*
X00230745Y-00057102D01*
X00230659Y-00057063D01*
X00230541Y-00057024D01*
X00230416Y-00056992D01*
X00230259Y-00056969D01*
X00230078Y-00056961D01*
X00230016Y-00056961D01*
X00229968Y-00056969D01*
X00229914Y-00056977D01*
X00229851Y-00056992D01*
X00229701Y-00057039D01*
X00229615Y-00057071D01*
X00229529Y-00057110D01*
X00229435Y-00057165D01*
X00229340Y-00057220D01*
X00229254Y-00057291D01*
X00229160Y-00057377D01*
X00229074Y-00057471D01*
X00228987Y-00057581D01*
X00228979Y-00057589D01*
X00228972Y-00057612D01*
X00228948Y-00057644D01*
X00228917Y-00057691D01*
X00228885Y-00057754D01*
X00228846Y-00057832D01*
X00228807Y-00057919D01*
X00228768Y-00058021D01*
X00228728Y-00058130D01*
X00228689Y-00058256D01*
X00228650Y-00058397D01*
X00228618Y-00058546D01*
X00228587Y-00058711D01*
X00228563Y-00058884D01*
X00228556Y-00059064D01*
X00228548Y-00059261D01*
X00228548Y-00062502D01*
X00227528Y-00062502D01*
X00227528Y-00056129D01*
X00228548Y-00056129D01*
X00228548Y-00057448D01*
X00228571Y-00057448D01*
X00228571Y-00057440D01*
X00228579Y-00057416D01*
X00228595Y-00057385D01*
X00228611Y-00057338D01*
X00228634Y-00057283D01*
X00228666Y-00057212D01*
X00228736Y-00057063D01*
X00228830Y-00056890D01*
X00228948Y-00056718D01*
X00229081Y-00056553D01*
X00229238Y-00056396D01*
X00229246Y-00056388D01*
X00229262Y-00056380D01*
X00229286Y-00056364D01*
X00229317Y-00056333D01*
X00229356Y-00056309D01*
X00229411Y-00056278D01*
X00229529Y-00056207D01*
X00229678Y-00056137D01*
X00229851Y-00056074D01*
X00230039Y-00056035D01*
X00230141Y-00056027D01*
X00230243Y-00056019D01*
X00230306Y-00056019D01*
X00230384Y-00056027D01*
X00230384Y-00056027D02*
G37*
G36*
X00216838Y-00063522D02*
X00216838Y-00063530D01*
X00216830Y-00063546D01*
X00216814Y-00063569D01*
X00216798Y-00063609D01*
X00216783Y-00063656D01*
X00216759Y-00063703D01*
X00216696Y-00063828D01*
X00216610Y-00063978D01*
X00216516Y-00064150D01*
X00216398Y-00064323D01*
X00216265Y-00064511D01*
X00216116Y-00064692D01*
X00215951Y-00064872D01*
X00215770Y-00065045D01*
X00215574Y-00065194D01*
X00215362Y-00065320D01*
X00215252Y-00065367D01*
X00215135Y-00065414D01*
X00215017Y-00065453D01*
X00214891Y-00065477D01*
X00214766Y-00065492D01*
X00214632Y-00065500D01*
X00214569Y-00065500D01*
X00214491Y-00065492D01*
X00214397Y-00065492D01*
X00214295Y-00065477D01*
X00214185Y-00065461D01*
X00214067Y-00065445D01*
X00213965Y-00065414D01*
X00213965Y-00064503D01*
X00213981Y-00064511D01*
X00214020Y-00064519D01*
X00214083Y-00064535D01*
X00214161Y-00064558D01*
X00214256Y-00064582D01*
X00214357Y-00064598D01*
X00214467Y-00064605D01*
X00214569Y-00064613D01*
X00214601Y-00064613D01*
X00214640Y-00064605D01*
X00214695Y-00064598D01*
X00214758Y-00064582D01*
X00214836Y-00064566D01*
X00214915Y-00064535D01*
X00215009Y-00064496D01*
X00215095Y-00064448D01*
X00215197Y-00064386D01*
X00215292Y-00064315D01*
X00215386Y-00064229D01*
X00215480Y-00064119D01*
X00215574Y-00064001D01*
X00215653Y-00063860D01*
X00215731Y-00063695D01*
X00216241Y-00062494D01*
X00213753Y-00056129D01*
X00214883Y-00056129D01*
X00216610Y-00061034D01*
X00216610Y-00061042D01*
X00216618Y-00061058D01*
X00216626Y-00061081D01*
X00216642Y-00061129D01*
X00216657Y-00061191D01*
X00216673Y-00061278D01*
X00216704Y-00061388D01*
X00216736Y-00061521D01*
X00216775Y-00061521D01*
X00216775Y-00061513D01*
X00216783Y-00061490D01*
X00216791Y-00061458D01*
X00216806Y-00061403D01*
X00216822Y-00061340D01*
X00216838Y-00061262D01*
X00216869Y-00061160D01*
X00216901Y-00061050D01*
X00218713Y-00056129D01*
X00219765Y-00056129D01*
X00216838Y-00063522D01*
X00216838Y-00063522D02*
G37*
G36*
X00210622Y-00055988D02*
X00210676Y-00055988D01*
X00210732Y-00055995D01*
X00210802Y-00056003D01*
X00210881Y-00056019D01*
X00211045Y-00056051D01*
X00211242Y-00056105D01*
X00211438Y-00056176D01*
X00211650Y-00056278D01*
X00211862Y-00056404D01*
X00211964Y-00056474D01*
X00212066Y-00056561D01*
X00212160Y-00056655D01*
X00212254Y-00056749D01*
X00212340Y-00056859D01*
X00212419Y-00056985D01*
X00212497Y-00057110D01*
X00212568Y-00057251D01*
X00212623Y-00057408D01*
X00212678Y-00057573D01*
X00212717Y-00057746D01*
X00212749Y-00057942D01*
X00212764Y-00058138D01*
X00212772Y-00058358D01*
X00212772Y-00062502D01*
X00211752Y-00062502D01*
X00211752Y-00061513D01*
X00211728Y-00061513D01*
X00211720Y-00061529D01*
X00211697Y-00061560D01*
X00211658Y-00061615D01*
X00211603Y-00061694D01*
X00211532Y-00061780D01*
X00211446Y-00061874D01*
X00211352Y-00061976D01*
X00211234Y-00062078D01*
X00211100Y-00062188D01*
X00210959Y-00062290D01*
X00210794Y-00062384D01*
X00210622Y-00062471D01*
X00210425Y-00062549D01*
X00210221Y-00062604D01*
X00210002Y-00062635D01*
X00209766Y-00062651D01*
X00209672Y-00062651D01*
X00209609Y-00062643D01*
X00209531Y-00062635D01*
X00209436Y-00062628D01*
X00209334Y-00062612D01*
X00209224Y-00062588D01*
X00208981Y-00062526D01*
X00208864Y-00062486D01*
X00208738Y-00062439D01*
X00208612Y-00062384D01*
X00208495Y-00062314D01*
X00208385Y-00062235D01*
X00208275Y-00062149D01*
X00208267Y-00062141D01*
X00208251Y-00062125D01*
X00208228Y-00062094D01*
X00208188Y-00062055D01*
X00208149Y-00062008D01*
X00208110Y-00061945D01*
X00208055Y-00061874D01*
X00208008Y-00061796D01*
X00207961Y-00061701D01*
X00207914Y-00061599D01*
X00207867Y-00061490D01*
X00207827Y-00061372D01*
X00207788Y-00061246D01*
X00207765Y-00061113D01*
X00207749Y-00060964D01*
X00207741Y-00060815D01*
X00207741Y-00060807D01*
X00207741Y-00060791D01*
X00207741Y-00060767D01*
X00207749Y-00060736D01*
X00207749Y-00060697D01*
X00207757Y-00060650D01*
X00207773Y-00060532D01*
X00207804Y-00060391D01*
X00207851Y-00060234D01*
X00207914Y-00060061D01*
X00208008Y-00059881D01*
X00208118Y-00059700D01*
X00208251Y-00059520D01*
X00208338Y-00059433D01*
X00208424Y-00059347D01*
X00208526Y-00059261D01*
X00208628Y-00059182D01*
X00208746Y-00059104D01*
X00208871Y-00059033D01*
X00209005Y-00058970D01*
X00209154Y-00058907D01*
X00209311Y-00058852D01*
X00209476Y-00058805D01*
X00209656Y-00058766D01*
X00209845Y-00058735D01*
X00211752Y-00058468D01*
X00211752Y-00058460D01*
X00211752Y-00058452D01*
X00211752Y-00058429D01*
X00211752Y-00058397D01*
X00211744Y-00058319D01*
X00211728Y-00058217D01*
X00211713Y-00058091D01*
X00211681Y-00057950D01*
X00211642Y-00057809D01*
X00211587Y-00057652D01*
X00211516Y-00057502D01*
X00211430Y-00057353D01*
X00211328Y-00057220D01*
X00211202Y-00057094D01*
X00211045Y-00056992D01*
X00210873Y-00056914D01*
X00210779Y-00056882D01*
X00210669Y-00056859D01*
X00210559Y-00056851D01*
X00210441Y-00056843D01*
X00210386Y-00056843D01*
X00210331Y-00056851D01*
X00210245Y-00056859D01*
X00210143Y-00056867D01*
X00210025Y-00056882D01*
X00209892Y-00056906D01*
X00209750Y-00056937D01*
X00209593Y-00056985D01*
X00209429Y-00057032D01*
X00209256Y-00057094D01*
X00209075Y-00057173D01*
X00208895Y-00057267D01*
X00208714Y-00057369D01*
X00208534Y-00057487D01*
X00208361Y-00057628D01*
X00208361Y-00056584D01*
X00208369Y-00056576D01*
X00208400Y-00056561D01*
X00208455Y-00056529D01*
X00208526Y-00056490D01*
X00208620Y-00056443D01*
X00208722Y-00056396D01*
X00208848Y-00056341D01*
X00208989Y-00056278D01*
X00209138Y-00056223D01*
X00209303Y-00056168D01*
X00209484Y-00056121D01*
X00209672Y-00056074D01*
X00209876Y-00056035D01*
X00210080Y-00056003D01*
X00210300Y-00055988D01*
X00210527Y-00055980D01*
X00210582Y-00055980D01*
X00210622Y-00055988D01*
X00210622Y-00055988D02*
G37*
G36*
X00203401Y-00061560D02*
X00206988Y-00061560D01*
X00206988Y-00062502D01*
X00202357Y-00062502D01*
X00202357Y-00053578D01*
X00203401Y-00053578D01*
X00203401Y-00061560D01*
X00203401Y-00061560D02*
G37*
G36*
X00159731Y-00053586D02*
X00159825Y-00053594D01*
X00159935Y-00053610D01*
X00160061Y-00053625D01*
X00160202Y-00053649D01*
X00160343Y-00053680D01*
X00160493Y-00053720D01*
X00160650Y-00053766D01*
X00160799Y-00053822D01*
X00160956Y-00053884D01*
X00161097Y-00053963D01*
X00161238Y-00054049D01*
X00161372Y-00054151D01*
X00161380Y-00054159D01*
X00161403Y-00054175D01*
X00161434Y-00054206D01*
X00161474Y-00054253D01*
X00161529Y-00054308D01*
X00161583Y-00054379D01*
X00161646Y-00054457D01*
X00161709Y-00054544D01*
X00161772Y-00054646D01*
X00161835Y-00054756D01*
X00161890Y-00054881D01*
X00161945Y-00055007D01*
X00161984Y-00055148D01*
X00162015Y-00055297D01*
X00162039Y-00055454D01*
X00162047Y-00055619D01*
X00162047Y-00055627D01*
X00162047Y-00055650D01*
X00162047Y-00055689D01*
X00162039Y-00055744D01*
X00162031Y-00055815D01*
X00162023Y-00055886D01*
X00162015Y-00055972D01*
X00161999Y-00056066D01*
X00161945Y-00056278D01*
X00161874Y-00056498D01*
X00161827Y-00056616D01*
X00161772Y-00056726D01*
X00161709Y-00056835D01*
X00161639Y-00056945D01*
X00161631Y-00056953D01*
X00161623Y-00056969D01*
X00161599Y-00057000D01*
X00161560Y-00057039D01*
X00161521Y-00057079D01*
X00161474Y-00057134D01*
X00161411Y-00057189D01*
X00161348Y-00057251D01*
X00161270Y-00057314D01*
X00161183Y-00057385D01*
X00161089Y-00057448D01*
X00160987Y-00057518D01*
X00160877Y-00057581D01*
X00160767Y-00057636D01*
X00160508Y-00057738D01*
X00160508Y-00057762D01*
X00160516Y-00057762D01*
X00160548Y-00057769D01*
X00160595Y-00057777D01*
X00160657Y-00057785D01*
X00160736Y-00057801D01*
X00160822Y-00057824D01*
X00160924Y-00057856D01*
X00161026Y-00057887D01*
X00161254Y-00057973D01*
X00161380Y-00058028D01*
X00161497Y-00058099D01*
X00161615Y-00058170D01*
X00161733Y-00058248D01*
X00161850Y-00058342D01*
X00161952Y-00058444D01*
X00161960Y-00058452D01*
X00161976Y-00058468D01*
X00161999Y-00058499D01*
X00162039Y-00058546D01*
X00162078Y-00058609D01*
X00162125Y-00058672D01*
X00162172Y-00058758D01*
X00162227Y-00058845D01*
X00162274Y-00058947D01*
X00162321Y-00059064D01*
X00162368Y-00059182D01*
X00162408Y-00059316D01*
X00162447Y-00059465D01*
X00162470Y-00059614D01*
X00162486Y-00059771D01*
X00162494Y-00059943D01*
X00162494Y-00059959D01*
X00162494Y-00059991D01*
X00162486Y-00060053D01*
X00162478Y-00060132D01*
X00162470Y-00060234D01*
X00162447Y-00060344D01*
X00162423Y-00060469D01*
X00162392Y-00060603D01*
X00162345Y-00060752D01*
X00162290Y-00060901D01*
X00162227Y-00061050D01*
X00162149Y-00061207D01*
X00162055Y-00061364D01*
X00161945Y-00061513D01*
X00161819Y-00061654D01*
X00161670Y-00061796D01*
X00161662Y-00061803D01*
X00161631Y-00061827D01*
X00161583Y-00061858D01*
X00161521Y-00061905D01*
X00161442Y-00061961D01*
X00161340Y-00062015D01*
X00161230Y-00062086D01*
X00161105Y-00062149D01*
X00160956Y-00062212D01*
X00160799Y-00062274D01*
X00160634Y-00062337D01*
X00160445Y-00062392D01*
X00160249Y-00062439D01*
X00160045Y-00062471D01*
X00159825Y-00062494D01*
X00159598Y-00062502D01*
X00157000Y-00062502D01*
X00157000Y-00053578D01*
X00159645Y-00053578D01*
X00159731Y-00053586D01*
X00159731Y-00053586D02*
G37*
G36*
X00177304Y-00056129D02*
X00178913Y-00056129D01*
X00178913Y-00057008D01*
X00177304Y-00057008D01*
X00177304Y-00060595D01*
X00177304Y-00060603D01*
X00177304Y-00060626D01*
X00177304Y-00060658D01*
X00177304Y-00060697D01*
X00177312Y-00060752D01*
X00177320Y-00060815D01*
X00177336Y-00060948D01*
X00177359Y-00061105D01*
X00177398Y-00061254D01*
X00177453Y-00061395D01*
X00177485Y-00061458D01*
X00177524Y-00061513D01*
X00177532Y-00061521D01*
X00177563Y-00061552D01*
X00177618Y-00061599D01*
X00177697Y-00061646D01*
X00177799Y-00061701D01*
X00177924Y-00061741D01*
X00178074Y-00061772D01*
X00178246Y-00061788D01*
X00178309Y-00061788D01*
X00178380Y-00061780D01*
X00178474Y-00061764D01*
X00178576Y-00061733D01*
X00178694Y-00061701D01*
X00178803Y-00061646D01*
X00178913Y-00061576D01*
X00178913Y-00062447D01*
X00178905Y-00062447D01*
X00178898Y-00062455D01*
X00178874Y-00062463D01*
X00178850Y-00062478D01*
X00178764Y-00062510D01*
X00178662Y-00062541D01*
X00178521Y-00062573D01*
X00178356Y-00062604D01*
X00178168Y-00062628D01*
X00177956Y-00062635D01*
X00177885Y-00062635D01*
X00177799Y-00062620D01*
X00177697Y-00062604D01*
X00177571Y-00062580D01*
X00177430Y-00062533D01*
X00177273Y-00062478D01*
X00177124Y-00062400D01*
X00176967Y-00062306D01*
X00176810Y-00062180D01*
X00176669Y-00062031D01*
X00176606Y-00061945D01*
X00176543Y-00061851D01*
X00176488Y-00061749D01*
X00176441Y-00061639D01*
X00176394Y-00061521D01*
X00176355Y-00061388D01*
X00176323Y-00061254D01*
X00176300Y-00061105D01*
X00176292Y-00060948D01*
X00176284Y-00060775D01*
X00176284Y-00057008D01*
X00175193Y-00057008D01*
X00175193Y-00056129D01*
X00176284Y-00056129D01*
X00176284Y-00054575D01*
X00177304Y-00054245D01*
X00177304Y-00056129D01*
X00177304Y-00056129D02*
G37*
G36*
X00172988Y-00056129D02*
X00174597Y-00056129D01*
X00174597Y-00057008D01*
X00172988Y-00057008D01*
X00172988Y-00060595D01*
X00172988Y-00060603D01*
X00172988Y-00060626D01*
X00172988Y-00060658D01*
X00172988Y-00060697D01*
X00172995Y-00060752D01*
X00173003Y-00060815D01*
X00173019Y-00060948D01*
X00173043Y-00061105D01*
X00173082Y-00061254D01*
X00173137Y-00061395D01*
X00173168Y-00061458D01*
X00173207Y-00061513D01*
X00173215Y-00061521D01*
X00173247Y-00061552D01*
X00173302Y-00061599D01*
X00173380Y-00061646D01*
X00173482Y-00061701D01*
X00173608Y-00061741D01*
X00173757Y-00061772D01*
X00173929Y-00061788D01*
X00173992Y-00061788D01*
X00174063Y-00061780D01*
X00174157Y-00061764D01*
X00174259Y-00061733D01*
X00174377Y-00061701D01*
X00174487Y-00061646D01*
X00174597Y-00061576D01*
X00174597Y-00062447D01*
X00174589Y-00062447D01*
X00174581Y-00062455D01*
X00174557Y-00062463D01*
X00174534Y-00062478D01*
X00174447Y-00062510D01*
X00174345Y-00062541D01*
X00174204Y-00062573D01*
X00174039Y-00062604D01*
X00173851Y-00062628D01*
X00173639Y-00062635D01*
X00173568Y-00062635D01*
X00173482Y-00062620D01*
X00173380Y-00062604D01*
X00173254Y-00062580D01*
X00173113Y-00062533D01*
X00172956Y-00062478D01*
X00172807Y-00062400D01*
X00172650Y-00062306D01*
X00172493Y-00062180D01*
X00172352Y-00062031D01*
X00172289Y-00061945D01*
X00172226Y-00061851D01*
X00172171Y-00061749D01*
X00172124Y-00061639D01*
X00172077Y-00061521D01*
X00172038Y-00061388D01*
X00172006Y-00061254D01*
X00171983Y-00061105D01*
X00171975Y-00060948D01*
X00171967Y-00060775D01*
X00171967Y-00057008D01*
X00170876Y-00057008D01*
X00170876Y-00056129D01*
X00171967Y-00056129D01*
X00171967Y-00054575D01*
X00172988Y-00054245D01*
X00172988Y-00056129D01*
X00172988Y-00056129D02*
G37*
G36*
X00223486Y-00055988D02*
X00223572Y-00055995D01*
X00223682Y-00056003D01*
X00223799Y-00056019D01*
X00223933Y-00056051D01*
X00224074Y-00056082D01*
X00224231Y-00056121D01*
X00224388Y-00056176D01*
X00224545Y-00056247D01*
X00224710Y-00056325D01*
X00224867Y-00056419D01*
X00225016Y-00056529D01*
X00225165Y-00056655D01*
X00225299Y-00056796D01*
X00225306Y-00056804D01*
X00225330Y-00056835D01*
X00225361Y-00056882D01*
X00225408Y-00056945D01*
X00225455Y-00057024D01*
X00225518Y-00057126D01*
X00225581Y-00057243D01*
X00225644Y-00057377D01*
X00225707Y-00057534D01*
X00225769Y-00057699D01*
X00225832Y-00057887D01*
X00225879Y-00058083D01*
X00225926Y-00058303D01*
X00225958Y-00058531D01*
X00225981Y-00058782D01*
X00225989Y-00059041D01*
X00225989Y-00059574D01*
X00221484Y-00059574D01*
X00221484Y-00059590D01*
X00221484Y-00059622D01*
X00221492Y-00059676D01*
X00221500Y-00059747D01*
X00221508Y-00059841D01*
X00221523Y-00059943D01*
X00221539Y-00060053D01*
X00221570Y-00060179D01*
X00221641Y-00060446D01*
X00221688Y-00060579D01*
X00221743Y-00060720D01*
X00221806Y-00060854D01*
X00221877Y-00060987D01*
X00221963Y-00061105D01*
X00222057Y-00061223D01*
X00222065Y-00061231D01*
X00222081Y-00061246D01*
X00222112Y-00061278D01*
X00222159Y-00061309D01*
X00222214Y-00061356D01*
X00222285Y-00061403D01*
X00222363Y-00061458D01*
X00222449Y-00061505D01*
X00222551Y-00061560D01*
X00222669Y-00061615D01*
X00222787Y-00061662D01*
X00222928Y-00061709D01*
X00223069Y-00061741D01*
X00223227Y-00061772D01*
X00223391Y-00061788D01*
X00223564Y-00061796D01*
X00223611Y-00061796D01*
X00223666Y-00061788D01*
X00223745Y-00061788D01*
X00223839Y-00061772D01*
X00223948Y-00061756D01*
X00224074Y-00061733D01*
X00224215Y-00061709D01*
X00224364Y-00061670D01*
X00224522Y-00061623D01*
X00224686Y-00061568D01*
X00224851Y-00061497D01*
X00225024Y-00061419D01*
X00225196Y-00061325D01*
X00225369Y-00061215D01*
X00225542Y-00061089D01*
X00225542Y-00062047D01*
X00225534Y-00062055D01*
X00225502Y-00062070D01*
X00225455Y-00062102D01*
X00225393Y-00062141D01*
X00225306Y-00062188D01*
X00225204Y-00062235D01*
X00225087Y-00062290D01*
X00224953Y-00062345D01*
X00224796Y-00062408D01*
X00224631Y-00062463D01*
X00224451Y-00062510D01*
X00224255Y-00062557D01*
X00224043Y-00062596D01*
X00223815Y-00062628D01*
X00223572Y-00062643D01*
X00223321Y-00062651D01*
X00223258Y-00062651D01*
X00223195Y-00062643D01*
X00223101Y-00062635D01*
X00222983Y-00062628D01*
X00222850Y-00062604D01*
X00222708Y-00062580D01*
X00222551Y-00062541D01*
X00222387Y-00062494D01*
X00222214Y-00062439D01*
X00222034Y-00062369D01*
X00221861Y-00062290D01*
X00221680Y-00062188D01*
X00221516Y-00062070D01*
X00221351Y-00061937D01*
X00221201Y-00061788D01*
X00221194Y-00061780D01*
X00221170Y-00061749D01*
X00221131Y-00061694D01*
X00221084Y-00061623D01*
X00221021Y-00061537D01*
X00220958Y-00061427D01*
X00220888Y-00061301D01*
X00220817Y-00061152D01*
X00220746Y-00060995D01*
X00220676Y-00060807D01*
X00220613Y-00060610D01*
X00220550Y-00060391D01*
X00220503Y-00060155D01*
X00220464Y-00059904D01*
X00220440Y-00059629D01*
X00220432Y-00059347D01*
X00220432Y-00059339D01*
X00220432Y-00059331D01*
X00220432Y-00059308D01*
X00220432Y-00059284D01*
X00220440Y-00059206D01*
X00220448Y-00059096D01*
X00220456Y-00058970D01*
X00220479Y-00058829D01*
X00220503Y-00058664D01*
X00220534Y-00058484D01*
X00220581Y-00058295D01*
X00220636Y-00058099D01*
X00220707Y-00057895D01*
X00220786Y-00057691D01*
X00220880Y-00057495D01*
X00220997Y-00057291D01*
X00221123Y-00057102D01*
X00221272Y-00056922D01*
X00221280Y-00056914D01*
X00221311Y-00056882D01*
X00221359Y-00056835D01*
X00221421Y-00056773D01*
X00221508Y-00056702D01*
X00221610Y-00056623D01*
X00221719Y-00056537D01*
X00221853Y-00056451D01*
X00221994Y-00056364D01*
X00222159Y-00056278D01*
X00222332Y-00056200D01*
X00222512Y-00056129D01*
X00222708Y-00056066D01*
X00222920Y-00056019D01*
X00223140Y-00055988D01*
X00223368Y-00055980D01*
X00223423Y-00055980D01*
X00223486Y-00055988D01*
X00223486Y-00055988D02*
G37*
G36*
X00183222Y-00055988D02*
X00183324Y-00055995D01*
X00183442Y-00056003D01*
X00183583Y-00056027D01*
X00183732Y-00056051D01*
X00183897Y-00056090D01*
X00184078Y-00056137D01*
X00184258Y-00056192D01*
X00184439Y-00056262D01*
X00184627Y-00056349D01*
X00184808Y-00056451D01*
X00184988Y-00056568D01*
X00185153Y-00056702D01*
X00185310Y-00056859D01*
X00185318Y-00056867D01*
X00185341Y-00056898D01*
X00185380Y-00056953D01*
X00185435Y-00057024D01*
X00185498Y-00057110D01*
X00185561Y-00057220D01*
X00185639Y-00057345D01*
X00185710Y-00057495D01*
X00185789Y-00057659D01*
X00185859Y-00057840D01*
X00185922Y-00058036D01*
X00185985Y-00058256D01*
X00186040Y-00058491D01*
X00186079Y-00058743D01*
X00186103Y-00059009D01*
X00186110Y-00059292D01*
X00186110Y-00059300D01*
X00186110Y-00059308D01*
X00186110Y-00059331D01*
X00186110Y-00059363D01*
X00186103Y-00059441D01*
X00186095Y-00059543D01*
X00186087Y-00059676D01*
X00186063Y-00059826D01*
X00186040Y-00059991D01*
X00186000Y-00060171D01*
X00185954Y-00060359D01*
X00185898Y-00060563D01*
X00185828Y-00060767D01*
X00185749Y-00060972D01*
X00185647Y-00061176D01*
X00185530Y-00061372D01*
X00185396Y-00061560D01*
X00185247Y-00061741D01*
X00185239Y-00061749D01*
X00185208Y-00061780D01*
X00185161Y-00061827D01*
X00185090Y-00061882D01*
X00185004Y-00061953D01*
X00184902Y-00062031D01*
X00184776Y-00062110D01*
X00184635Y-00062196D01*
X00184478Y-00062282D01*
X00184305Y-00062361D01*
X00184117Y-00062439D01*
X00183913Y-00062510D01*
X00183685Y-00062565D01*
X00183450Y-00062612D01*
X00183206Y-00062643D01*
X00182940Y-00062651D01*
X00182877Y-00062651D01*
X00182806Y-00062643D01*
X00182704Y-00062635D01*
X00182586Y-00062628D01*
X00182445Y-00062604D01*
X00182296Y-00062580D01*
X00182131Y-00062541D01*
X00181951Y-00062494D01*
X00181770Y-00062431D01*
X00181582Y-00062361D01*
X00181393Y-00062274D01*
X00181205Y-00062172D01*
X00181017Y-00062055D01*
X00180844Y-00061921D01*
X00180679Y-00061764D01*
X00180671Y-00061756D01*
X00180640Y-00061725D01*
X00180601Y-00061670D01*
X00180546Y-00061599D01*
X00180483Y-00061513D01*
X00180412Y-00061403D01*
X00180342Y-00061278D01*
X00180263Y-00061129D01*
X00180185Y-00060972D01*
X00180106Y-00060791D01*
X00180036Y-00060595D01*
X00179973Y-00060383D01*
X00179918Y-00060163D01*
X00179879Y-00059920D01*
X00179847Y-00059661D01*
X00179839Y-00059394D01*
X00179839Y-00059386D01*
X00179839Y-00059378D01*
X00179839Y-00059355D01*
X00179839Y-00059323D01*
X00179847Y-00059237D01*
X00179855Y-00059127D01*
X00179863Y-00058994D01*
X00179886Y-00058837D01*
X00179910Y-00058664D01*
X00179949Y-00058476D01*
X00179996Y-00058280D01*
X00180051Y-00058075D01*
X00180122Y-00057863D01*
X00180208Y-00057652D01*
X00180310Y-00057448D01*
X00180420Y-00057251D01*
X00180554Y-00057063D01*
X00180711Y-00056882D01*
X00180718Y-00056875D01*
X00180750Y-00056843D01*
X00180805Y-00056796D01*
X00180875Y-00056741D01*
X00180962Y-00056670D01*
X00181072Y-00056600D01*
X00181197Y-00056514D01*
X00181339Y-00056427D01*
X00181495Y-00056349D01*
X00181676Y-00056262D01*
X00181872Y-00056192D01*
X00182084Y-00056121D01*
X00182312Y-00056066D01*
X00182555Y-00056019D01*
X00182814Y-00055988D01*
X00183089Y-00055980D01*
X00183151Y-00055980D01*
X00183222Y-00055988D01*
X00183222Y-00055988D02*
G37*
G36*
X00167117Y-00055988D02*
X00167219Y-00055995D01*
X00167337Y-00056003D01*
X00167478Y-00056027D01*
X00167627Y-00056051D01*
X00167792Y-00056090D01*
X00167972Y-00056137D01*
X00168153Y-00056192D01*
X00168333Y-00056262D01*
X00168522Y-00056349D01*
X00168702Y-00056451D01*
X00168883Y-00056568D01*
X00169048Y-00056702D01*
X00169205Y-00056859D01*
X00169212Y-00056867D01*
X00169236Y-00056898D01*
X00169275Y-00056953D01*
X00169330Y-00057024D01*
X00169393Y-00057110D01*
X00169456Y-00057220D01*
X00169534Y-00057345D01*
X00169605Y-00057495D01*
X00169683Y-00057659D01*
X00169754Y-00057840D01*
X00169817Y-00058036D01*
X00169879Y-00058256D01*
X00169935Y-00058491D01*
X00169974Y-00058743D01*
X00169997Y-00059009D01*
X00170005Y-00059292D01*
X00170005Y-00059300D01*
X00170005Y-00059308D01*
X00170005Y-00059331D01*
X00170005Y-00059363D01*
X00169997Y-00059441D01*
X00169989Y-00059543D01*
X00169981Y-00059676D01*
X00169958Y-00059826D01*
X00169935Y-00059991D01*
X00169895Y-00060171D01*
X00169848Y-00060359D01*
X00169793Y-00060563D01*
X00169722Y-00060767D01*
X00169644Y-00060972D01*
X00169542Y-00061176D01*
X00169424Y-00061372D01*
X00169291Y-00061560D01*
X00169142Y-00061741D01*
X00169134Y-00061749D01*
X00169102Y-00061780D01*
X00169055Y-00061827D01*
X00168985Y-00061882D01*
X00168898Y-00061953D01*
X00168796Y-00062031D01*
X00168671Y-00062110D01*
X00168530Y-00062196D01*
X00168373Y-00062282D01*
X00168200Y-00062361D01*
X00168012Y-00062439D01*
X00167808Y-00062510D01*
X00167580Y-00062565D01*
X00167344Y-00062612D01*
X00167101Y-00062643D01*
X00166834Y-00062651D01*
X00166772Y-00062651D01*
X00166701Y-00062643D01*
X00166599Y-00062635D01*
X00166481Y-00062628D01*
X00166340Y-00062604D01*
X00166191Y-00062580D01*
X00166026Y-00062541D01*
X00165845Y-00062494D01*
X00165665Y-00062431D01*
X00165476Y-00062361D01*
X00165288Y-00062274D01*
X00165100Y-00062172D01*
X00164911Y-00062055D01*
X00164739Y-00061921D01*
X00164574Y-00061764D01*
X00164566Y-00061756D01*
X00164535Y-00061725D01*
X00164495Y-00061670D01*
X00164440Y-00061599D01*
X00164378Y-00061513D01*
X00164307Y-00061403D01*
X00164236Y-00061278D01*
X00164158Y-00061129D01*
X00164079Y-00060972D01*
X00164001Y-00060791D01*
X00163930Y-00060595D01*
X00163867Y-00060383D01*
X00163813Y-00060163D01*
X00163773Y-00059920D01*
X00163742Y-00059661D01*
X00163734Y-00059394D01*
X00163734Y-00059386D01*
X00163734Y-00059378D01*
X00163734Y-00059355D01*
X00163734Y-00059323D01*
X00163742Y-00059237D01*
X00163750Y-00059127D01*
X00163758Y-00058994D01*
X00163781Y-00058837D01*
X00163805Y-00058664D01*
X00163844Y-00058476D01*
X00163891Y-00058280D01*
X00163946Y-00058075D01*
X00164017Y-00057863D01*
X00164103Y-00057652D01*
X00164205Y-00057448D01*
X00164315Y-00057251D01*
X00164448Y-00057063D01*
X00164605Y-00056882D01*
X00164613Y-00056875D01*
X00164645Y-00056843D01*
X00164699Y-00056796D01*
X00164770Y-00056741D01*
X00164856Y-00056670D01*
X00164966Y-00056600D01*
X00165092Y-00056514D01*
X00165233Y-00056427D01*
X00165390Y-00056349D01*
X00165571Y-00056262D01*
X00165767Y-00056192D01*
X00165979Y-00056121D01*
X00166206Y-00056066D01*
X00166450Y-00056019D01*
X00166709Y-00055988D01*
X00166983Y-00055980D01*
X00167046Y-00055980D01*
X00167117Y-00055988D01*
X00167117Y-00055988D02*
G37*
%LPC*%
G36*
X00087922Y00019700D02*
X00086079Y00019700D01*
X00084298Y00019223D01*
X00082702Y00018301D01*
X00081399Y00016998D01*
X00080477Y00015402D01*
X00080000Y00013622D01*
X00080000Y00011778D01*
X00080477Y00009998D01*
X00081399Y00008402D01*
X00082355Y00007445D01*
X00082389Y00006210D01*
X00082273Y00005880D01*
X00080998Y00004605D01*
X00080011Y00002895D01*
X00079503Y00001000D01*
X00087000Y00001000D01*
X00094497Y00001000D01*
X00093989Y00002895D01*
X00093001Y00004605D01*
X00091727Y00005880D01*
X00091611Y00006210D01*
X00091645Y00007445D01*
X00092601Y00008402D01*
X00093523Y00009998D01*
X00094000Y00011778D01*
X00094000Y00013622D01*
X00093523Y00015402D01*
X00092601Y00016998D01*
X00091298Y00018301D01*
X00089702Y00019223D01*
X00087922Y00019700D01*
X00087922Y00019700D02*
G37*
G36*
X-00086079Y00019700D02*
X-00087922Y00019700D01*
X-00089702Y00019223D01*
X-00091298Y00018301D01*
X-00092601Y00016998D01*
X-00093523Y00015402D01*
X-00094000Y00013622D01*
X-00094000Y00011778D01*
X-00093523Y00009998D01*
X-00092601Y00008402D01*
X-00091645Y00007445D01*
X-00091611Y00006210D01*
X-00091727Y00005880D01*
X-00093002Y00004605D01*
X-00093989Y00002895D01*
X-00094497Y00001000D01*
X-00087000Y00001000D01*
X-00079503Y00001000D01*
X-00080011Y00002895D01*
X-00080999Y00004605D01*
X-00082273Y00005880D01*
X-00082389Y00006210D01*
X-00082355Y00007445D01*
X-00081399Y00008402D01*
X-00080477Y00009998D01*
X-00080000Y00011778D01*
X-00080000Y00013622D01*
X-00080477Y00015402D01*
X-00081399Y00016998D01*
X-00082702Y00018301D01*
X-00084298Y00019223D01*
X-00086079Y00019700D01*
X-00086079Y00019700D02*
G37*
G36*
X00094497Y-00001000D02*
X00087000Y-00001000D01*
X00079503Y-00001000D01*
X00080011Y-00002895D01*
X00080998Y-00004605D01*
X00082273Y-00005880D01*
X00082389Y-00006210D01*
X00082355Y-00007445D01*
X00081399Y-00008402D01*
X00080477Y-00009998D01*
X00080000Y-00011778D01*
X00080000Y-00013622D01*
X00080477Y-00015402D01*
X00081399Y-00016998D01*
X00082702Y-00018301D01*
X00084298Y-00019223D01*
X00086079Y-00019700D01*
X00087922Y-00019700D01*
X00089702Y-00019223D01*
X00091298Y-00018301D01*
X00092601Y-00016998D01*
X00093523Y-00015402D01*
X00094000Y-00013622D01*
X00094000Y-00011778D01*
X00093523Y-00009998D01*
X00092601Y-00008402D01*
X00091645Y-00007445D01*
X00091611Y-00006210D01*
X00091727Y-00005880D01*
X00093001Y-00004605D01*
X00093989Y-00002895D01*
X00094497Y-00001000D01*
X00094497Y-00001000D02*
G37*
G36*
X-00079503Y-00001000D02*
X-00087000Y-00001000D01*
X-00094497Y-00001000D01*
X-00093989Y-00002895D01*
X-00093002Y-00004605D01*
X-00091727Y-00005880D01*
X-00091611Y-00006210D01*
X-00091645Y-00007445D01*
X-00092601Y-00008402D01*
X-00093523Y-00009998D01*
X-00094000Y-00011778D01*
X-00094000Y-00013622D01*
X-00093523Y-00015402D01*
X-00092601Y-00016998D01*
X-00091298Y-00018301D01*
X-00089702Y-00019223D01*
X-00087922Y-00019700D01*
X-00086079Y-00019700D01*
X-00084298Y-00019223D01*
X-00082702Y-00018301D01*
X-00081399Y-00016998D01*
X-00080477Y-00015402D01*
X-00080000Y-00013622D01*
X-00080000Y-00011778D01*
X-00080477Y-00009998D01*
X-00081399Y-00008402D01*
X-00082355Y-00007445D01*
X-00082389Y-00006210D01*
X-00082273Y-00005880D01*
X-00080999Y-00004605D01*
X-00080011Y-00002895D01*
X-00079503Y-00001000D01*
X-00079503Y-00001000D02*
G37*
G36*
X00211752Y-00059284D02*
X00210214Y-00059496D01*
X00210206Y-00059496D01*
X00210182Y-00059504D01*
X00210143Y-00059504D01*
X00210096Y-00059512D01*
X00210041Y-00059527D01*
X00209970Y-00059543D01*
X00209813Y-00059574D01*
X00209641Y-00059622D01*
X00209468Y-00059684D01*
X00209295Y-00059763D01*
X00209217Y-00059802D01*
X00209146Y-00059849D01*
X00209130Y-00059865D01*
X00209091Y-00059896D01*
X00209028Y-00059959D01*
X00208965Y-00060053D01*
X00208903Y-00060179D01*
X00208871Y-00060250D01*
X00208840Y-00060328D01*
X00208816Y-00060414D01*
X00208801Y-00060516D01*
X00208793Y-00060618D01*
X00208785Y-00060736D01*
X00208785Y-00060744D01*
X00208785Y-00060760D01*
X00208785Y-00060783D01*
X00208793Y-00060815D01*
X00208801Y-00060901D01*
X00208824Y-00061011D01*
X00208864Y-00061129D01*
X00208926Y-00061262D01*
X00209005Y-00061388D01*
X00209115Y-00061505D01*
X00209123Y-00061505D01*
X00209130Y-00061521D01*
X00209177Y-00061552D01*
X00209248Y-00061599D01*
X00209350Y-00061646D01*
X00209484Y-00061701D01*
X00209633Y-00061749D01*
X00209813Y-00061780D01*
X00210009Y-00061796D01*
X00210080Y-00061796D01*
X00210135Y-00061788D01*
X00210198Y-00061780D01*
X00210276Y-00061764D01*
X00210355Y-00061749D01*
X00210449Y-00061725D01*
X00210645Y-00061662D01*
X00210747Y-00061623D01*
X00210857Y-00061568D01*
X00210959Y-00061505D01*
X00211061Y-00061435D01*
X00211163Y-00061356D01*
X00211257Y-00061262D01*
X00211265Y-00061254D01*
X00211281Y-00061238D01*
X00211304Y-00061207D01*
X00211336Y-00061168D01*
X00211375Y-00061113D01*
X00211414Y-00061050D01*
X00211461Y-00060979D01*
X00211509Y-00060893D01*
X00211548Y-00060799D01*
X00211595Y-00060697D01*
X00211634Y-00060587D01*
X00211673Y-00060469D01*
X00211705Y-00060344D01*
X00211728Y-00060210D01*
X00211744Y-00060069D01*
X00211752Y-00059920D01*
X00211752Y-00059284D01*
X00211752Y-00059284D02*
G37*
G36*
X00159402Y-00054528D02*
X00158044Y-00054528D01*
X00158044Y-00057408D01*
X00159198Y-00057408D01*
X00159253Y-00057400D01*
X00159323Y-00057393D01*
X00159410Y-00057385D01*
X00159504Y-00057377D01*
X00159606Y-00057353D01*
X00159818Y-00057306D01*
X00160045Y-00057236D01*
X00160155Y-00057189D01*
X00160265Y-00057134D01*
X00160367Y-00057071D01*
X00160461Y-00057000D01*
X00160469Y-00056992D01*
X00160485Y-00056985D01*
X00160508Y-00056953D01*
X00160540Y-00056922D01*
X00160579Y-00056882D01*
X00160618Y-00056828D01*
X00160665Y-00056765D01*
X00160712Y-00056694D01*
X00160752Y-00056616D01*
X00160799Y-00056529D01*
X00160838Y-00056435D01*
X00160877Y-00056333D01*
X00160909Y-00056215D01*
X00160932Y-00056098D01*
X00160948Y-00055964D01*
X00160956Y-00055831D01*
X00160956Y-00055815D01*
X00160956Y-00055776D01*
X00160948Y-00055713D01*
X00160932Y-00055627D01*
X00160901Y-00055525D01*
X00160869Y-00055415D01*
X00160814Y-00055297D01*
X00160744Y-00055179D01*
X00160650Y-00055054D01*
X00160540Y-00054936D01*
X00160398Y-00054826D01*
X00160234Y-00054732D01*
X00160139Y-00054685D01*
X00160037Y-00054646D01*
X00159928Y-00054614D01*
X00159810Y-00054583D01*
X00159684Y-00054559D01*
X00159543Y-00054544D01*
X00159402Y-00054528D01*
X00159402Y-00054528D02*
G37*
G36*
X00159245Y-00058350D02*
X00158044Y-00058350D01*
X00158044Y-00061560D01*
X00159551Y-00061560D01*
X00159614Y-00061552D01*
X00159692Y-00061544D01*
X00159778Y-00061537D01*
X00159880Y-00061521D01*
X00159990Y-00061505D01*
X00160218Y-00061458D01*
X00160453Y-00061380D01*
X00160571Y-00061325D01*
X00160681Y-00061270D01*
X00160783Y-00061207D01*
X00160885Y-00061129D01*
X00160893Y-00061121D01*
X00160909Y-00061105D01*
X00160932Y-00061081D01*
X00160963Y-00061050D01*
X00161003Y-00061003D01*
X00161050Y-00060948D01*
X00161089Y-00060885D01*
X00161144Y-00060815D01*
X00161191Y-00060728D01*
X00161230Y-00060642D01*
X00161278Y-00060540D01*
X00161317Y-00060438D01*
X00161348Y-00060320D01*
X00161372Y-00060195D01*
X00161387Y-00060069D01*
X00161395Y-00059928D01*
X00161395Y-00059920D01*
X00161395Y-00059912D01*
X00161395Y-00059889D01*
X00161387Y-00059857D01*
X00161380Y-00059779D01*
X00161364Y-00059684D01*
X00161332Y-00059559D01*
X00161285Y-00059425D01*
X00161215Y-00059284D01*
X00161128Y-00059135D01*
X00161011Y-00058994D01*
X00160948Y-00058923D01*
X00160869Y-00058852D01*
X00160791Y-00058782D01*
X00160697Y-00058719D01*
X00160595Y-00058656D01*
X00160485Y-00058593D01*
X00160367Y-00058546D01*
X00160241Y-00058499D01*
X00160100Y-00058452D01*
X00159951Y-00058421D01*
X00159794Y-00058389D01*
X00159621Y-00058366D01*
X00159441Y-00058358D01*
X00159245Y-00058350D01*
X00159245Y-00058350D02*
G37*
G36*
X00223352Y-00056843D02*
X00223281Y-00056843D01*
X00223234Y-00056851D01*
X00223172Y-00056859D01*
X00223093Y-00056867D01*
X00223015Y-00056882D01*
X00222928Y-00056906D01*
X00222732Y-00056969D01*
X00222630Y-00057008D01*
X00222528Y-00057063D01*
X00222426Y-00057118D01*
X00222316Y-00057189D01*
X00222222Y-00057267D01*
X00222120Y-00057361D01*
X00222112Y-00057369D01*
X00222096Y-00057385D01*
X00222073Y-00057416D01*
X00222041Y-00057455D01*
X00222002Y-00057510D01*
X00221955Y-00057565D01*
X00221908Y-00057644D01*
X00221853Y-00057722D01*
X00221798Y-00057816D01*
X00221751Y-00057919D01*
X00221696Y-00058028D01*
X00221649Y-00058146D01*
X00221602Y-00058280D01*
X00221562Y-00058413D01*
X00221523Y-00058562D01*
X00221500Y-00058711D01*
X00224945Y-00058711D01*
X00224945Y-00058703D01*
X00224945Y-00058672D01*
X00224945Y-00058625D01*
X00224937Y-00058562D01*
X00224930Y-00058491D01*
X00224922Y-00058405D01*
X00224906Y-00058311D01*
X00224890Y-00058209D01*
X00224835Y-00057989D01*
X00224757Y-00057754D01*
X00224710Y-00057644D01*
X00224655Y-00057534D01*
X00224592Y-00057432D01*
X00224514Y-00057338D01*
X00224506Y-00057330D01*
X00224498Y-00057314D01*
X00224474Y-00057291D01*
X00224435Y-00057259D01*
X00224396Y-00057220D01*
X00224341Y-00057181D01*
X00224286Y-00057134D01*
X00224215Y-00057087D01*
X00224137Y-00057047D01*
X00224051Y-00057000D01*
X00223948Y-00056961D01*
X00223846Y-00056922D01*
X00223737Y-00056890D01*
X00223619Y-00056867D01*
X00223486Y-00056851D01*
X00223352Y-00056843D01*
X00223352Y-00056843D02*
G37*
G36*
X00183010Y-00056843D02*
X00182971Y-00056843D01*
X00182916Y-00056851D01*
X00182845Y-00056851D01*
X00182767Y-00056867D01*
X00182673Y-00056875D01*
X00182563Y-00056898D01*
X00182445Y-00056929D01*
X00182327Y-00056961D01*
X00182202Y-00057008D01*
X00182068Y-00057063D01*
X00181943Y-00057126D01*
X00181809Y-00057204D01*
X00181684Y-00057291D01*
X00181566Y-00057393D01*
X00181456Y-00057510D01*
X00181448Y-00057518D01*
X00181433Y-00057542D01*
X00181401Y-00057581D01*
X00181370Y-00057636D01*
X00181323Y-00057699D01*
X00181276Y-00057785D01*
X00181221Y-00057879D01*
X00181174Y-00057989D01*
X00181119Y-00058115D01*
X00181064Y-00058256D01*
X00181017Y-00058405D01*
X00180970Y-00058570D01*
X00180938Y-00058750D01*
X00180907Y-00058939D01*
X00180891Y-00059143D01*
X00180883Y-00059355D01*
X00180883Y-00059370D01*
X00180883Y-00059402D01*
X00180891Y-00059465D01*
X00180891Y-00059543D01*
X00180899Y-00059637D01*
X00180915Y-00059747D01*
X00180930Y-00059873D01*
X00180954Y-00060006D01*
X00180985Y-00060148D01*
X00181024Y-00060289D01*
X00181072Y-00060438D01*
X00181127Y-00060587D01*
X00181189Y-00060736D01*
X00181268Y-00060877D01*
X00181354Y-00061019D01*
X00181456Y-00061144D01*
X00181464Y-00061152D01*
X00181480Y-00061176D01*
X00181519Y-00061207D01*
X00181566Y-00061246D01*
X00181621Y-00061293D01*
X00181692Y-00061348D01*
X00181778Y-00061411D01*
X00181872Y-00061466D01*
X00181974Y-00061529D01*
X00182092Y-00061592D01*
X00182218Y-00061646D01*
X00182359Y-00061694D01*
X00182508Y-00061733D01*
X00182665Y-00061764D01*
X00182830Y-00061788D01*
X00183010Y-00061796D01*
X00183057Y-00061796D01*
X00183104Y-00061788D01*
X00183175Y-00061788D01*
X00183253Y-00061772D01*
X00183348Y-00061764D01*
X00183458Y-00061741D01*
X00183575Y-00061717D01*
X00183693Y-00061686D01*
X00183819Y-00061639D01*
X00183944Y-00061592D01*
X00184070Y-00061529D01*
X00184195Y-00061458D01*
X00184313Y-00061372D01*
X00184431Y-00061270D01*
X00184533Y-00061160D01*
X00184541Y-00061152D01*
X00184556Y-00061129D01*
X00184580Y-00061089D01*
X00184619Y-00061042D01*
X00184658Y-00060972D01*
X00184706Y-00060893D01*
X00184753Y-00060799D01*
X00184800Y-00060689D01*
X00184847Y-00060563D01*
X00184902Y-00060430D01*
X00184941Y-00060281D01*
X00184980Y-00060116D01*
X00185019Y-00059943D01*
X00185043Y-00059747D01*
X00185059Y-00059543D01*
X00185067Y-00059331D01*
X00185067Y-00059316D01*
X00185067Y-00059276D01*
X00185067Y-00059214D01*
X00185059Y-00059135D01*
X00185051Y-00059033D01*
X00185035Y-00058923D01*
X00185019Y-00058790D01*
X00185004Y-00058656D01*
X00184933Y-00058358D01*
X00184894Y-00058209D01*
X00184839Y-00058052D01*
X00184784Y-00057903D01*
X00184706Y-00057762D01*
X00184627Y-00057620D01*
X00184533Y-00057495D01*
X00184525Y-00057487D01*
X00184509Y-00057463D01*
X00184478Y-00057432D01*
X00184431Y-00057393D01*
X00184376Y-00057345D01*
X00184313Y-00057291D01*
X00184235Y-00057228D01*
X00184140Y-00057165D01*
X00184038Y-00057110D01*
X00183929Y-00057047D01*
X00183803Y-00056992D01*
X00183669Y-00056945D01*
X00183520Y-00056906D01*
X00183363Y-00056875D01*
X00183191Y-00056851D01*
X00183010Y-00056843D01*
X00183010Y-00056843D02*
G37*
G36*
X00166905Y-00056843D02*
X00166866Y-00056843D01*
X00166811Y-00056851D01*
X00166740Y-00056851D01*
X00166662Y-00056867D01*
X00166567Y-00056875D01*
X00166458Y-00056898D01*
X00166340Y-00056929D01*
X00166222Y-00056961D01*
X00166096Y-00057008D01*
X00165963Y-00057063D01*
X00165837Y-00057126D01*
X00165704Y-00057204D01*
X00165578Y-00057291D01*
X00165461Y-00057393D01*
X00165351Y-00057510D01*
X00165343Y-00057518D01*
X00165327Y-00057542D01*
X00165296Y-00057581D01*
X00165264Y-00057636D01*
X00165217Y-00057699D01*
X00165170Y-00057785D01*
X00165115Y-00057879D01*
X00165068Y-00057989D01*
X00165013Y-00058115D01*
X00164958Y-00058256D01*
X00164911Y-00058405D01*
X00164864Y-00058570D01*
X00164833Y-00058750D01*
X00164802Y-00058939D01*
X00164786Y-00059143D01*
X00164778Y-00059355D01*
X00164778Y-00059370D01*
X00164778Y-00059402D01*
X00164786Y-00059465D01*
X00164786Y-00059543D01*
X00164794Y-00059637D01*
X00164809Y-00059747D01*
X00164825Y-00059873D01*
X00164849Y-00060006D01*
X00164880Y-00060148D01*
X00164919Y-00060289D01*
X00164966Y-00060438D01*
X00165021Y-00060587D01*
X00165084Y-00060736D01*
X00165163Y-00060877D01*
X00165249Y-00061019D01*
X00165351Y-00061144D01*
X00165359Y-00061152D01*
X00165374Y-00061176D01*
X00165414Y-00061207D01*
X00165461Y-00061246D01*
X00165516Y-00061293D01*
X00165586Y-00061348D01*
X00165673Y-00061411D01*
X00165767Y-00061466D01*
X00165869Y-00061529D01*
X00165987Y-00061592D01*
X00166112Y-00061646D01*
X00166254Y-00061694D01*
X00166403Y-00061733D01*
X00166560Y-00061764D01*
X00166724Y-00061788D01*
X00166905Y-00061796D01*
X00166952Y-00061796D01*
X00166999Y-00061788D01*
X00167070Y-00061788D01*
X00167148Y-00061772D01*
X00167242Y-00061764D01*
X00167352Y-00061741D01*
X00167470Y-00061717D01*
X00167588Y-00061686D01*
X00167713Y-00061639D01*
X00167839Y-00061592D01*
X00167964Y-00061529D01*
X00168090Y-00061458D01*
X00168208Y-00061372D01*
X00168326Y-00061270D01*
X00168428Y-00061160D01*
X00168435Y-00061152D01*
X00168451Y-00061129D01*
X00168475Y-00061089D01*
X00168514Y-00061042D01*
X00168553Y-00060972D01*
X00168600Y-00060893D01*
X00168647Y-00060799D01*
X00168694Y-00060689D01*
X00168741Y-00060563D01*
X00168796Y-00060430D01*
X00168836Y-00060281D01*
X00168875Y-00060116D01*
X00168914Y-00059943D01*
X00168938Y-00059747D01*
X00168953Y-00059543D01*
X00168961Y-00059331D01*
X00168961Y-00059316D01*
X00168961Y-00059276D01*
X00168961Y-00059214D01*
X00168953Y-00059135D01*
X00168946Y-00059033D01*
X00168930Y-00058923D01*
X00168914Y-00058790D01*
X00168898Y-00058656D01*
X00168828Y-00058358D01*
X00168789Y-00058209D01*
X00168734Y-00058052D01*
X00168679Y-00057903D01*
X00168600Y-00057762D01*
X00168522Y-00057620D01*
X00168428Y-00057495D01*
X00168420Y-00057487D01*
X00168404Y-00057463D01*
X00168373Y-00057432D01*
X00168326Y-00057393D01*
X00168271Y-00057345D01*
X00168208Y-00057291D01*
X00168129Y-00057228D01*
X00168035Y-00057165D01*
X00167933Y-00057110D01*
X00167823Y-00057047D01*
X00167698Y-00056992D01*
X00167564Y-00056945D01*
X00167415Y-00056906D01*
X00167258Y-00056875D01*
X00167085Y-00056851D01*
X00166905Y-00056843D01*
X00166905Y-00056843D02*
G37*
%LPD*%
D13*
X-00090000Y-00012700D02*
X-00090000Y-00011256D01*
X00090000Y00011256D02*
X00090000Y00012700D01*
D19*
X-00087000Y-00012700D02*
D03*
X-00087000Y00000000D02*
D03*
X-00087000Y00012700D02*
D03*
X00087000Y00000000D02*
D03*
X00087000Y-00012700D02*
D03*
X00087000Y00012700D02*
D03*
D24*
X-00100000Y-00100000D02*
D03*
X-00100000Y00100000D02*
D03*
X00100000Y-00100000D02*
D03*
X00100000Y00100000D02*
D03*
D25*
X-00115500Y00000000D02*
D03*
X00115500Y00000000D02*
D03*
D26*
X-00116000Y00000000D02*
D03*
D03*
X-00116000Y00012700D02*
D03*
X00116000Y00000000D02*
D03*
D03*
X00116000Y-00012700D02*
D03*
D27*
X-00113500Y-00012700D02*
D03*
X00113500Y00012700D02*
D03*
M02*
