M48
;Layer_Color=9474304
;FILE_FORMAT=2:5
INCH
;TYPE=PLATED
T1F00S00C0.01181
T2F00S00C0.02600
T3F00S00C0.02795
T4F00S00C0.08268
;TYPE=NON_PLATED
%
T01
X0000079Y-0014469
X-0010728Y0024503
X-0010293Y0027446
X-0010291Y0038151
X-0012423Y0040316
X-0004050Y0039271
X-0001344Y0037686
X-0006764Y0048492
X-0001404Y0059213
X-0004135Y0065215
X-0002264Y0070374
X0016586Y0045695
T02
X0007770Y0061142
Y0066142
X0014370
Y0061142
Y0056142
T03
X-0004921Y-0003150
X0000079
X0005079
T04
X-0009843Y0010039
X0009843
Y0078937
X-0009843
M30
