%TF.GenerationSoftware,KiCad,Pcbnew,(5.1.10)-1*%
%TF.CreationDate,2021-07-16T11:56:50-07:00*%
%TF.ProjectId,slider,736c6964-6572-42e6-9b69-6361645f7063,rev?*%
%TF.SameCoordinates,Original*%
%TF.FileFunction,Paste,Bot*%
%TF.FilePolarity,Positive*%
%FSLAX46Y46*%
G04 Gerber Fmt 4.6, Leading zero omitted, Abs format (unit mm)*
G04 Created by KiCad (PCBNEW (5.1.10)-1) date 2021-07-16 11:56:50*
%MOMM*%
%LPD*%
G01*
G04 APERTURE LIST*
%ADD10R,0.900000X0.800000*%
G04 APERTURE END LIST*
%TO.C,D6*%
G36*
G01*
X98690000Y-72172500D02*
X98690000Y-71827500D01*
G75*
G02*
X98837500Y-71680000I147500J0D01*
G01*
X99132500Y-71680000D01*
G75*
G02*
X99280000Y-71827500I0J-147500D01*
G01*
X99280000Y-72172500D01*
G75*
G02*
X99132500Y-72320000I-147500J0D01*
G01*
X98837500Y-72320000D01*
G75*
G02*
X98690000Y-72172500I0J147500D01*
G01*
G37*
G36*
G01*
X97720000Y-72172500D02*
X97720000Y-71827500D01*
G75*
G02*
X97867500Y-71680000I147500J0D01*
G01*
X98162500Y-71680000D01*
G75*
G02*
X98310000Y-71827500I0J-147500D01*
G01*
X98310000Y-72172500D01*
G75*
G02*
X98162500Y-72320000I-147500J0D01*
G01*
X97867500Y-72320000D01*
G75*
G02*
X97720000Y-72172500I0J147500D01*
G01*
G37*
%TD*%
%TO.C,D5*%
G36*
G01*
X101310000Y-71827500D02*
X101310000Y-72172500D01*
G75*
G02*
X101162500Y-72320000I-147500J0D01*
G01*
X100867500Y-72320000D01*
G75*
G02*
X100720000Y-72172500I0J147500D01*
G01*
X100720000Y-71827500D01*
G75*
G02*
X100867500Y-71680000I147500J0D01*
G01*
X101162500Y-71680000D01*
G75*
G02*
X101310000Y-71827500I0J-147500D01*
G01*
G37*
G36*
G01*
X102280000Y-71827500D02*
X102280000Y-72172500D01*
G75*
G02*
X102132500Y-72320000I-147500J0D01*
G01*
X101837500Y-72320000D01*
G75*
G02*
X101690000Y-72172500I0J147500D01*
G01*
X101690000Y-71827500D01*
G75*
G02*
X101837500Y-71680000I147500J0D01*
G01*
X102132500Y-71680000D01*
G75*
G02*
X102280000Y-71827500I0J-147500D01*
G01*
G37*
%TD*%
%TO.C,D3*%
G36*
G01*
X101310000Y-123827500D02*
X101310000Y-124172500D01*
G75*
G02*
X101162500Y-124320000I-147500J0D01*
G01*
X100867500Y-124320000D01*
G75*
G02*
X100720000Y-124172500I0J147500D01*
G01*
X100720000Y-123827500D01*
G75*
G02*
X100867500Y-123680000I147500J0D01*
G01*
X101162500Y-123680000D01*
G75*
G02*
X101310000Y-123827500I0J-147500D01*
G01*
G37*
G36*
G01*
X102280000Y-123827500D02*
X102280000Y-124172500D01*
G75*
G02*
X102132500Y-124320000I-147500J0D01*
G01*
X101837500Y-124320000D01*
G75*
G02*
X101690000Y-124172500I0J147500D01*
G01*
X101690000Y-123827500D01*
G75*
G02*
X101837500Y-123680000I147500J0D01*
G01*
X102132500Y-123680000D01*
G75*
G02*
X102280000Y-123827500I0J-147500D01*
G01*
G37*
%TD*%
%TO.C,D2*%
G36*
G01*
X98690000Y-124172500D02*
X98690000Y-123827500D01*
G75*
G02*
X98837500Y-123680000I147500J0D01*
G01*
X99132500Y-123680000D01*
G75*
G02*
X99280000Y-123827500I0J-147500D01*
G01*
X99280000Y-124172500D01*
G75*
G02*
X99132500Y-124320000I-147500J0D01*
G01*
X98837500Y-124320000D01*
G75*
G02*
X98690000Y-124172500I0J147500D01*
G01*
G37*
G36*
G01*
X97720000Y-124172500D02*
X97720000Y-123827500D01*
G75*
G02*
X97867500Y-123680000I147500J0D01*
G01*
X98162500Y-123680000D01*
G75*
G02*
X98310000Y-123827500I0J-147500D01*
G01*
X98310000Y-124172500D01*
G75*
G02*
X98162500Y-124320000I-147500J0D01*
G01*
X97867500Y-124320000D01*
G75*
G02*
X97720000Y-124172500I0J147500D01*
G01*
G37*
%TD*%
%TO.C,U2*%
G36*
G01*
X103025000Y-91875000D02*
X102825000Y-91875000D01*
G75*
G02*
X102725000Y-91775000I0J100000D01*
G01*
X102725000Y-90500000D01*
G75*
G02*
X102825000Y-90400000I100000J0D01*
G01*
X103025000Y-90400000D01*
G75*
G02*
X103125000Y-90500000I0J-100000D01*
G01*
X103125000Y-91775000D01*
G75*
G02*
X103025000Y-91875000I-100000J0D01*
G01*
G37*
G36*
G01*
X102375000Y-91875000D02*
X102175000Y-91875000D01*
G75*
G02*
X102075000Y-91775000I0J100000D01*
G01*
X102075000Y-90500000D01*
G75*
G02*
X102175000Y-90400000I100000J0D01*
G01*
X102375000Y-90400000D01*
G75*
G02*
X102475000Y-90500000I0J-100000D01*
G01*
X102475000Y-91775000D01*
G75*
G02*
X102375000Y-91875000I-100000J0D01*
G01*
G37*
G36*
G01*
X101725000Y-91875000D02*
X101525000Y-91875000D01*
G75*
G02*
X101425000Y-91775000I0J100000D01*
G01*
X101425000Y-90500000D01*
G75*
G02*
X101525000Y-90400000I100000J0D01*
G01*
X101725000Y-90400000D01*
G75*
G02*
X101825000Y-90500000I0J-100000D01*
G01*
X101825000Y-91775000D01*
G75*
G02*
X101725000Y-91875000I-100000J0D01*
G01*
G37*
G36*
G01*
X101075000Y-91875000D02*
X100875000Y-91875000D01*
G75*
G02*
X100775000Y-91775000I0J100000D01*
G01*
X100775000Y-90500000D01*
G75*
G02*
X100875000Y-90400000I100000J0D01*
G01*
X101075000Y-90400000D01*
G75*
G02*
X101175000Y-90500000I0J-100000D01*
G01*
X101175000Y-91775000D01*
G75*
G02*
X101075000Y-91875000I-100000J0D01*
G01*
G37*
G36*
G01*
X100425000Y-91875000D02*
X100225000Y-91875000D01*
G75*
G02*
X100125000Y-91775000I0J100000D01*
G01*
X100125000Y-90500000D01*
G75*
G02*
X100225000Y-90400000I100000J0D01*
G01*
X100425000Y-90400000D01*
G75*
G02*
X100525000Y-90500000I0J-100000D01*
G01*
X100525000Y-91775000D01*
G75*
G02*
X100425000Y-91875000I-100000J0D01*
G01*
G37*
G36*
G01*
X99775000Y-91875000D02*
X99575000Y-91875000D01*
G75*
G02*
X99475000Y-91775000I0J100000D01*
G01*
X99475000Y-90500000D01*
G75*
G02*
X99575000Y-90400000I100000J0D01*
G01*
X99775000Y-90400000D01*
G75*
G02*
X99875000Y-90500000I0J-100000D01*
G01*
X99875000Y-91775000D01*
G75*
G02*
X99775000Y-91875000I-100000J0D01*
G01*
G37*
G36*
G01*
X99125000Y-91875000D02*
X98925000Y-91875000D01*
G75*
G02*
X98825000Y-91775000I0J100000D01*
G01*
X98825000Y-90500000D01*
G75*
G02*
X98925000Y-90400000I100000J0D01*
G01*
X99125000Y-90400000D01*
G75*
G02*
X99225000Y-90500000I0J-100000D01*
G01*
X99225000Y-91775000D01*
G75*
G02*
X99125000Y-91875000I-100000J0D01*
G01*
G37*
G36*
G01*
X98475000Y-91875000D02*
X98275000Y-91875000D01*
G75*
G02*
X98175000Y-91775000I0J100000D01*
G01*
X98175000Y-90500000D01*
G75*
G02*
X98275000Y-90400000I100000J0D01*
G01*
X98475000Y-90400000D01*
G75*
G02*
X98575000Y-90500000I0J-100000D01*
G01*
X98575000Y-91775000D01*
G75*
G02*
X98475000Y-91875000I-100000J0D01*
G01*
G37*
G36*
G01*
X97825000Y-91875000D02*
X97625000Y-91875000D01*
G75*
G02*
X97525000Y-91775000I0J100000D01*
G01*
X97525000Y-90500000D01*
G75*
G02*
X97625000Y-90400000I100000J0D01*
G01*
X97825000Y-90400000D01*
G75*
G02*
X97925000Y-90500000I0J-100000D01*
G01*
X97925000Y-91775000D01*
G75*
G02*
X97825000Y-91875000I-100000J0D01*
G01*
G37*
G36*
G01*
X97175000Y-91875000D02*
X96975000Y-91875000D01*
G75*
G02*
X96875000Y-91775000I0J100000D01*
G01*
X96875000Y-90500000D01*
G75*
G02*
X96975000Y-90400000I100000J0D01*
G01*
X97175000Y-90400000D01*
G75*
G02*
X97275000Y-90500000I0J-100000D01*
G01*
X97275000Y-91775000D01*
G75*
G02*
X97175000Y-91875000I-100000J0D01*
G01*
G37*
G36*
G01*
X97175000Y-97600000D02*
X96975000Y-97600000D01*
G75*
G02*
X96875000Y-97500000I0J100000D01*
G01*
X96875000Y-96225000D01*
G75*
G02*
X96975000Y-96125000I100000J0D01*
G01*
X97175000Y-96125000D01*
G75*
G02*
X97275000Y-96225000I0J-100000D01*
G01*
X97275000Y-97500000D01*
G75*
G02*
X97175000Y-97600000I-100000J0D01*
G01*
G37*
G36*
G01*
X97825000Y-97600000D02*
X97625000Y-97600000D01*
G75*
G02*
X97525000Y-97500000I0J100000D01*
G01*
X97525000Y-96225000D01*
G75*
G02*
X97625000Y-96125000I100000J0D01*
G01*
X97825000Y-96125000D01*
G75*
G02*
X97925000Y-96225000I0J-100000D01*
G01*
X97925000Y-97500000D01*
G75*
G02*
X97825000Y-97600000I-100000J0D01*
G01*
G37*
G36*
G01*
X98475000Y-97600000D02*
X98275000Y-97600000D01*
G75*
G02*
X98175000Y-97500000I0J100000D01*
G01*
X98175000Y-96225000D01*
G75*
G02*
X98275000Y-96125000I100000J0D01*
G01*
X98475000Y-96125000D01*
G75*
G02*
X98575000Y-96225000I0J-100000D01*
G01*
X98575000Y-97500000D01*
G75*
G02*
X98475000Y-97600000I-100000J0D01*
G01*
G37*
G36*
G01*
X99125000Y-97600000D02*
X98925000Y-97600000D01*
G75*
G02*
X98825000Y-97500000I0J100000D01*
G01*
X98825000Y-96225000D01*
G75*
G02*
X98925000Y-96125000I100000J0D01*
G01*
X99125000Y-96125000D01*
G75*
G02*
X99225000Y-96225000I0J-100000D01*
G01*
X99225000Y-97500000D01*
G75*
G02*
X99125000Y-97600000I-100000J0D01*
G01*
G37*
G36*
G01*
X99775000Y-97600000D02*
X99575000Y-97600000D01*
G75*
G02*
X99475000Y-97500000I0J100000D01*
G01*
X99475000Y-96225000D01*
G75*
G02*
X99575000Y-96125000I100000J0D01*
G01*
X99775000Y-96125000D01*
G75*
G02*
X99875000Y-96225000I0J-100000D01*
G01*
X99875000Y-97500000D01*
G75*
G02*
X99775000Y-97600000I-100000J0D01*
G01*
G37*
G36*
G01*
X100425000Y-97600000D02*
X100225000Y-97600000D01*
G75*
G02*
X100125000Y-97500000I0J100000D01*
G01*
X100125000Y-96225000D01*
G75*
G02*
X100225000Y-96125000I100000J0D01*
G01*
X100425000Y-96125000D01*
G75*
G02*
X100525000Y-96225000I0J-100000D01*
G01*
X100525000Y-97500000D01*
G75*
G02*
X100425000Y-97600000I-100000J0D01*
G01*
G37*
G36*
G01*
X101075000Y-97600000D02*
X100875000Y-97600000D01*
G75*
G02*
X100775000Y-97500000I0J100000D01*
G01*
X100775000Y-96225000D01*
G75*
G02*
X100875000Y-96125000I100000J0D01*
G01*
X101075000Y-96125000D01*
G75*
G02*
X101175000Y-96225000I0J-100000D01*
G01*
X101175000Y-97500000D01*
G75*
G02*
X101075000Y-97600000I-100000J0D01*
G01*
G37*
G36*
G01*
X101725000Y-97600000D02*
X101525000Y-97600000D01*
G75*
G02*
X101425000Y-97500000I0J100000D01*
G01*
X101425000Y-96225000D01*
G75*
G02*
X101525000Y-96125000I100000J0D01*
G01*
X101725000Y-96125000D01*
G75*
G02*
X101825000Y-96225000I0J-100000D01*
G01*
X101825000Y-97500000D01*
G75*
G02*
X101725000Y-97600000I-100000J0D01*
G01*
G37*
G36*
G01*
X102375000Y-97600000D02*
X102175000Y-97600000D01*
G75*
G02*
X102075000Y-97500000I0J100000D01*
G01*
X102075000Y-96225000D01*
G75*
G02*
X102175000Y-96125000I100000J0D01*
G01*
X102375000Y-96125000D01*
G75*
G02*
X102475000Y-96225000I0J-100000D01*
G01*
X102475000Y-97500000D01*
G75*
G02*
X102375000Y-97600000I-100000J0D01*
G01*
G37*
G36*
G01*
X103025000Y-97600000D02*
X102825000Y-97600000D01*
G75*
G02*
X102725000Y-97500000I0J100000D01*
G01*
X102725000Y-96225000D01*
G75*
G02*
X102825000Y-96125000I100000J0D01*
G01*
X103025000Y-96125000D01*
G75*
G02*
X103125000Y-96225000I0J-100000D01*
G01*
X103125000Y-97500000D01*
G75*
G02*
X103025000Y-97600000I-100000J0D01*
G01*
G37*
%TD*%
D10*
%TO.C,U1*%
X99000000Y-110000000D03*
X101000000Y-110950000D03*
X101000000Y-109050000D03*
%TD*%
%TO.C,R6*%
G36*
G01*
X97185000Y-87760000D02*
X96815000Y-87760000D01*
G75*
G02*
X96680000Y-87625000I0J135000D01*
G01*
X96680000Y-87355000D01*
G75*
G02*
X96815000Y-87220000I135000J0D01*
G01*
X97185000Y-87220000D01*
G75*
G02*
X97320000Y-87355000I0J-135000D01*
G01*
X97320000Y-87625000D01*
G75*
G02*
X97185000Y-87760000I-135000J0D01*
G01*
G37*
G36*
G01*
X97185000Y-88780000D02*
X96815000Y-88780000D01*
G75*
G02*
X96680000Y-88645000I0J135000D01*
G01*
X96680000Y-88375000D01*
G75*
G02*
X96815000Y-88240000I135000J0D01*
G01*
X97185000Y-88240000D01*
G75*
G02*
X97320000Y-88375000I0J-135000D01*
G01*
X97320000Y-88645000D01*
G75*
G02*
X97185000Y-88780000I-135000J0D01*
G01*
G37*
%TD*%
%TO.C,R5*%
G36*
G01*
X99185000Y-87760000D02*
X98815000Y-87760000D01*
G75*
G02*
X98680000Y-87625000I0J135000D01*
G01*
X98680000Y-87355000D01*
G75*
G02*
X98815000Y-87220000I135000J0D01*
G01*
X99185000Y-87220000D01*
G75*
G02*
X99320000Y-87355000I0J-135000D01*
G01*
X99320000Y-87625000D01*
G75*
G02*
X99185000Y-87760000I-135000J0D01*
G01*
G37*
G36*
G01*
X99185000Y-88780000D02*
X98815000Y-88780000D01*
G75*
G02*
X98680000Y-88645000I0J135000D01*
G01*
X98680000Y-88375000D01*
G75*
G02*
X98815000Y-88240000I135000J0D01*
G01*
X99185000Y-88240000D01*
G75*
G02*
X99320000Y-88375000I0J-135000D01*
G01*
X99320000Y-88645000D01*
G75*
G02*
X99185000Y-88780000I-135000J0D01*
G01*
G37*
%TD*%
%TO.C,R4*%
G36*
G01*
X101185000Y-87760000D02*
X100815000Y-87760000D01*
G75*
G02*
X100680000Y-87625000I0J135000D01*
G01*
X100680000Y-87355000D01*
G75*
G02*
X100815000Y-87220000I135000J0D01*
G01*
X101185000Y-87220000D01*
G75*
G02*
X101320000Y-87355000I0J-135000D01*
G01*
X101320000Y-87625000D01*
G75*
G02*
X101185000Y-87760000I-135000J0D01*
G01*
G37*
G36*
G01*
X101185000Y-88780000D02*
X100815000Y-88780000D01*
G75*
G02*
X100680000Y-88645000I0J135000D01*
G01*
X100680000Y-88375000D01*
G75*
G02*
X100815000Y-88240000I135000J0D01*
G01*
X101185000Y-88240000D01*
G75*
G02*
X101320000Y-88375000I0J-135000D01*
G01*
X101320000Y-88645000D01*
G75*
G02*
X101185000Y-88780000I-135000J0D01*
G01*
G37*
%TD*%
%TO.C,R1*%
G36*
G01*
X101815000Y-119240000D02*
X102185000Y-119240000D01*
G75*
G02*
X102320000Y-119375000I0J-135000D01*
G01*
X102320000Y-119645000D01*
G75*
G02*
X102185000Y-119780000I-135000J0D01*
G01*
X101815000Y-119780000D01*
G75*
G02*
X101680000Y-119645000I0J135000D01*
G01*
X101680000Y-119375000D01*
G75*
G02*
X101815000Y-119240000I135000J0D01*
G01*
G37*
G36*
G01*
X101815000Y-118220000D02*
X102185000Y-118220000D01*
G75*
G02*
X102320000Y-118355000I0J-135000D01*
G01*
X102320000Y-118625000D01*
G75*
G02*
X102185000Y-118760000I-135000J0D01*
G01*
X101815000Y-118760000D01*
G75*
G02*
X101680000Y-118625000I0J135000D01*
G01*
X101680000Y-118355000D01*
G75*
G02*
X101815000Y-118220000I135000J0D01*
G01*
G37*
%TD*%
%TO.C,FB1*%
G36*
G01*
X97827500Y-119190000D02*
X98172500Y-119190000D01*
G75*
G02*
X98320000Y-119337500I0J-147500D01*
G01*
X98320000Y-119632500D01*
G75*
G02*
X98172500Y-119780000I-147500J0D01*
G01*
X97827500Y-119780000D01*
G75*
G02*
X97680000Y-119632500I0J147500D01*
G01*
X97680000Y-119337500D01*
G75*
G02*
X97827500Y-119190000I147500J0D01*
G01*
G37*
G36*
G01*
X97827500Y-118220000D02*
X98172500Y-118220000D01*
G75*
G02*
X98320000Y-118367500I0J-147500D01*
G01*
X98320000Y-118662500D01*
G75*
G02*
X98172500Y-118810000I-147500J0D01*
G01*
X97827500Y-118810000D01*
G75*
G02*
X97680000Y-118662500I0J147500D01*
G01*
X97680000Y-118367500D01*
G75*
G02*
X97827500Y-118220000I147500J0D01*
G01*
G37*
%TD*%
%TO.C,D1*%
X101000000Y-115000000D03*
X99000000Y-114050000D03*
X99000000Y-115950000D03*
%TD*%
%TO.C,C5*%
G36*
G01*
X99800000Y-98830000D02*
X99800000Y-99170000D01*
G75*
G02*
X99660000Y-99310000I-140000J0D01*
G01*
X99380000Y-99310000D01*
G75*
G02*
X99240000Y-99170000I0J140000D01*
G01*
X99240000Y-98830000D01*
G75*
G02*
X99380000Y-98690000I140000J0D01*
G01*
X99660000Y-98690000D01*
G75*
G02*
X99800000Y-98830000I0J-140000D01*
G01*
G37*
G36*
G01*
X100760000Y-98830000D02*
X100760000Y-99170000D01*
G75*
G02*
X100620000Y-99310000I-140000J0D01*
G01*
X100340000Y-99310000D01*
G75*
G02*
X100200000Y-99170000I0J140000D01*
G01*
X100200000Y-98830000D01*
G75*
G02*
X100340000Y-98690000I140000J0D01*
G01*
X100620000Y-98690000D01*
G75*
G02*
X100760000Y-98830000I0J-140000D01*
G01*
G37*
%TD*%
%TO.C,C3*%
G36*
G01*
X103170000Y-109800000D02*
X102830000Y-109800000D01*
G75*
G02*
X102690000Y-109660000I0J140000D01*
G01*
X102690000Y-109380000D01*
G75*
G02*
X102830000Y-109240000I140000J0D01*
G01*
X103170000Y-109240000D01*
G75*
G02*
X103310000Y-109380000I0J-140000D01*
G01*
X103310000Y-109660000D01*
G75*
G02*
X103170000Y-109800000I-140000J0D01*
G01*
G37*
G36*
G01*
X103170000Y-110760000D02*
X102830000Y-110760000D01*
G75*
G02*
X102690000Y-110620000I0J140000D01*
G01*
X102690000Y-110340000D01*
G75*
G02*
X102830000Y-110200000I140000J0D01*
G01*
X103170000Y-110200000D01*
G75*
G02*
X103310000Y-110340000I0J-140000D01*
G01*
X103310000Y-110620000D01*
G75*
G02*
X103170000Y-110760000I-140000J0D01*
G01*
G37*
%TD*%
%TO.C,C2*%
G36*
G01*
X97170000Y-109800000D02*
X96830000Y-109800000D01*
G75*
G02*
X96690000Y-109660000I0J140000D01*
G01*
X96690000Y-109380000D01*
G75*
G02*
X96830000Y-109240000I140000J0D01*
G01*
X97170000Y-109240000D01*
G75*
G02*
X97310000Y-109380000I0J-140000D01*
G01*
X97310000Y-109660000D01*
G75*
G02*
X97170000Y-109800000I-140000J0D01*
G01*
G37*
G36*
G01*
X97170000Y-110760000D02*
X96830000Y-110760000D01*
G75*
G02*
X96690000Y-110620000I0J140000D01*
G01*
X96690000Y-110340000D01*
G75*
G02*
X96830000Y-110200000I140000J0D01*
G01*
X97170000Y-110200000D01*
G75*
G02*
X97310000Y-110340000I0J-140000D01*
G01*
X97310000Y-110620000D01*
G75*
G02*
X97170000Y-110760000I-140000J0D01*
G01*
G37*
%TD*%
%TO.C,C1*%
G36*
G01*
X100170000Y-118800000D02*
X99830000Y-118800000D01*
G75*
G02*
X99690000Y-118660000I0J140000D01*
G01*
X99690000Y-118380000D01*
G75*
G02*
X99830000Y-118240000I140000J0D01*
G01*
X100170000Y-118240000D01*
G75*
G02*
X100310000Y-118380000I0J-140000D01*
G01*
X100310000Y-118660000D01*
G75*
G02*
X100170000Y-118800000I-140000J0D01*
G01*
G37*
G36*
G01*
X100170000Y-119760000D02*
X99830000Y-119760000D01*
G75*
G02*
X99690000Y-119620000I0J140000D01*
G01*
X99690000Y-119340000D01*
G75*
G02*
X99830000Y-119200000I140000J0D01*
G01*
X100170000Y-119200000D01*
G75*
G02*
X100310000Y-119340000I0J-140000D01*
G01*
X100310000Y-119620000D01*
G75*
G02*
X100170000Y-119760000I-140000J0D01*
G01*
G37*
%TD*%
M02*
