G04*
G04 #@! TF.GenerationSoftware,Altium Limited,Altium Designer,19.1.6 (110)*
G04*
G04 Layer_Physical_Order=2*
G04 Layer_Color=16711680*
%FSAX25Y25*%
%MOIN*%
G70*
G01*
G75*
%ADD10C,0.00787*%
%ADD24C,0.05906*%
%ADD25R,0.05906X0.05906*%
%ADD26C,0.02362*%
G36*
X0018955Y0003296D02*
X0018263Y0003009D01*
X0017543Y0002457D01*
X0016991Y0001737D01*
X0016644Y0000899D01*
X0016525Y0000000D01*
X0016644Y-0000899D01*
X0016991Y-0001737D01*
X0017543Y-0002457D01*
X0018263Y-0003009D01*
X0019101Y-0003356D01*
X0019296Y-0003382D01*
Y-0011252D01*
X0018796Y-0011519D01*
X0018653Y-0011424D01*
X0018000Y-0011294D01*
X0017347Y-0011424D01*
X0016794Y-0011794D01*
X0016591Y-0012097D01*
X0014000D01*
X0013654Y-0012166D01*
X0013361Y-0012361D01*
X0011358Y-0014365D01*
X0011000Y-0014294D01*
X0010347Y-0014424D01*
X0009794Y-0014794D01*
X0009424Y-0015347D01*
X0009294Y-0016000D01*
X0009424Y-0016653D01*
X0009794Y-0017206D01*
X0010347Y-0017576D01*
X0011000Y-0017706D01*
X0011653Y-0017576D01*
X0012206Y-0017206D01*
X0012576Y-0016653D01*
X0012706Y-0016000D01*
X0012635Y-0015642D01*
X0014374Y-0013903D01*
X0016591D01*
X0016794Y-0014206D01*
X0017347Y-0014576D01*
X0018000Y-0014706D01*
X0018653Y-0014576D01*
X0018796Y-0014481D01*
X0019296Y-0014748D01*
Y-0034796D01*
X0000704D01*
Y-0003445D01*
X0003445D01*
Y0002788D01*
X0003945Y0002837D01*
X0003991Y0002604D01*
X0004037Y0002494D01*
X0004060Y0002378D01*
X0004360Y0001654D01*
X0004426Y0001555D01*
X0004471Y0001445D01*
X0004907Y0000793D01*
X0004991Y0000710D01*
X0005057Y0000611D01*
X0005611Y0000056D01*
X0005709Y-0000009D01*
X0005793Y-0000093D01*
X0006283Y-0000420D01*
X0006356Y-0000976D01*
X0006733Y-0001886D01*
X0007333Y-0002668D01*
X0008114Y-0003267D01*
X0009024Y-0003644D01*
X0009606Y-0003721D01*
Y0000000D01*
X0010394D01*
Y-0003721D01*
X0010976Y-0003644D01*
X0011886Y-0003267D01*
X0012667Y-0002668D01*
X0013267Y-0001886D01*
X0013644Y-0000976D01*
X0013717Y-0000420D01*
X0014207Y-0000093D01*
X0014290Y-0000009D01*
X0014389Y0000056D01*
X0014943Y0000611D01*
X0015009Y0000709D01*
X0015093Y0000793D01*
X0015529Y0001445D01*
X0015574Y0001555D01*
X0015640Y0001654D01*
X0015940Y0002378D01*
X0015963Y0002494D01*
X0016009Y0002604D01*
X0016162Y0003373D01*
Y0003462D01*
X0016183Y0003549D01*
X0016196Y0003796D01*
X0018855D01*
X0018955Y0003296D01*
D02*
G37*
%LPC*%
G36*
X0006394Y-0021071D02*
Y-0022606D01*
X0007929D01*
X0007854Y-0022232D01*
X0007419Y-0021581D01*
X0006768Y-0021146D01*
X0006394Y-0021071D01*
D02*
G37*
G36*
X0005606D02*
X0005232Y-0021146D01*
X0004581Y-0021581D01*
X0004146Y-0022232D01*
X0004071Y-0022606D01*
X0005606D01*
Y-0021071D01*
D02*
G37*
G36*
X0007929Y-0023394D02*
X0006394D01*
Y-0024929D01*
X0006768Y-0024854D01*
X0007419Y-0024419D01*
X0007854Y-0023768D01*
X0007929Y-0023394D01*
D02*
G37*
G36*
X0005606D02*
X0004071D01*
X0004146Y-0023768D01*
X0004581Y-0024419D01*
X0005232Y-0024854D01*
X0005606Y-0024929D01*
Y-0023394D01*
D02*
G37*
G36*
X0006394Y-0026071D02*
Y-0027606D01*
X0007929D01*
X0007854Y-0027232D01*
X0007419Y-0026581D01*
X0006768Y-0026146D01*
X0006394Y-0026071D01*
D02*
G37*
G36*
X0005606D02*
X0005232Y-0026146D01*
X0004581Y-0026581D01*
X0004146Y-0027232D01*
X0004071Y-0027606D01*
X0005606D01*
Y-0026071D01*
D02*
G37*
G36*
X0007929Y-0028394D02*
X0006394D01*
Y-0029929D01*
X0006768Y-0029854D01*
X0007419Y-0029419D01*
X0007854Y-0028768D01*
X0007929Y-0028394D01*
D02*
G37*
G36*
X0005606D02*
X0004071D01*
X0004146Y-0028768D01*
X0004581Y-0029419D01*
X0005232Y-0029854D01*
X0005606Y-0029929D01*
Y-0028394D01*
D02*
G37*
%LPD*%
D10*
X0011000Y-0016000D02*
X0014000Y-0013000D01*
X0018000D01*
D24*
X0010000Y0000000D02*
D03*
X0020000D02*
D03*
D25*
X0000000D02*
D03*
D26*
X0018000Y-0013000D02*
D03*
X0006000Y-0028000D02*
D03*
X0011000Y-0016000D02*
D03*
X0006000Y-0023000D02*
D03*
M02*
