G04*
G04 #@! TF.GenerationSoftware,Altium Limited,Altium Designer,22.4.2 (48)*
G04*
G04 Layer_Color=16711935*
%FSAX25Y25*%
%MOIN*%
G70*
G04*
G04 #@! TF.SameCoordinates,03BAF07D-572A-4E9D-8DEF-3220CFA764F5*
G04*
G04*
G04 #@! TF.FilePolarity,Negative*
G04*
G01*
G75*
%ADD14C,0.00787*%
%ADD43C,0.04331*%
%ADD44C,0.00591*%
%ADD45R,0.08465X0.08465*%
%ADD46C,0.08465*%
G04:AMPARAMS|DCode=47|XSize=84.65mil|YSize=84.65mil|CornerRadius=22.64mil|HoleSize=0mil|Usage=FLASHONLY|Rotation=180.000|XOffset=0mil|YOffset=0mil|HoleType=Round|Shape=RoundedRectangle|*
%AMROUNDEDRECTD47*
21,1,0.08465,0.03937,0,0,180.0*
21,1,0.03937,0.08465,0,0,180.0*
1,1,0.04528,-0.01968,0.01968*
1,1,0.04528,0.01968,0.01968*
1,1,0.04528,0.01968,-0.01968*
1,1,0.04528,-0.01968,-0.01968*
%
%ADD47ROUNDEDRECTD47*%
%ADD48C,0.04961*%
%ADD49R,0.04961X0.04961*%
%ADD50C,0.19685*%
G04:AMPARAMS|DCode=65|XSize=35.43mil|YSize=133.86mil|CornerRadius=13.82mil|HoleSize=0mil|Usage=FLASHONLY|Rotation=90.000|XOffset=0mil|YOffset=0mil|HoleType=Round|Shape=RoundedRectangle|*
%AMROUNDEDRECTD65*
21,1,0.03543,0.10622,0,0,90.0*
21,1,0.00780,0.13386,0,0,90.0*
1,1,0.02764,0.05311,0.00390*
1,1,0.02764,0.05311,-0.00390*
1,1,0.02764,-0.05311,-0.00390*
1,1,0.02764,-0.05311,0.00390*
%
%ADD65ROUNDEDRECTD65*%
G04:AMPARAMS|DCode=66|XSize=35.43mil|YSize=114.17mil|CornerRadius=13.82mil|HoleSize=0mil|Usage=FLASHONLY|Rotation=90.000|XOffset=0mil|YOffset=0mil|HoleType=Round|Shape=RoundedRectangle|*
%AMROUNDEDRECTD66*
21,1,0.03543,0.08653,0,0,90.0*
21,1,0.00780,0.11417,0,0,90.0*
1,1,0.02764,0.04327,0.00390*
1,1,0.02764,0.04327,-0.00390*
1,1,0.02764,-0.04327,-0.00390*
1,1,0.02764,-0.04327,0.00390*
%
%ADD66ROUNDEDRECTD66*%
G36*
X0169938Y-0023048D02*
X0169966Y-0023054D01*
X0169993Y-0023064D01*
X0170024Y-0023079D01*
X0170055Y-0023098D01*
X0170086Y-0023122D01*
X0170089Y-0023125D01*
X0170098Y-0023135D01*
X0170111Y-0023150D01*
X0170126Y-0023172D01*
X0170139Y-0023200D01*
X0170151Y-0023231D01*
X0170160Y-0023268D01*
X0170163Y-0023308D01*
Y-0023314D01*
Y-0023326D01*
X0170160Y-0023345D01*
X0170154Y-0023373D01*
X0170145Y-0023401D01*
X0170129Y-0023431D01*
X0170111Y-0023462D01*
X0170086Y-0023493D01*
X0170083Y-0023496D01*
X0170074Y-0023506D01*
X0170055Y-0023518D01*
X0170034Y-0023530D01*
X0170006Y-0023543D01*
X0169975Y-0023555D01*
X0169941Y-0023564D01*
X0169901Y-0023567D01*
X0169882D01*
X0169863Y-0023564D01*
X0169836Y-0023558D01*
X0169808Y-0023549D01*
X0169777Y-0023537D01*
X0169746Y-0023521D01*
X0169715Y-0023496D01*
X0169712Y-0023493D01*
X0169703Y-0023484D01*
X0169691Y-0023465D01*
X0169678Y-0023444D01*
X0169666Y-0023419D01*
X0169653Y-0023385D01*
X0169644Y-0023348D01*
X0169641Y-0023308D01*
Y-0023302D01*
Y-0023289D01*
X0169644Y-0023268D01*
X0169650Y-0023243D01*
X0169660Y-0023212D01*
X0169672Y-0023181D01*
X0169691Y-0023150D01*
X0169715Y-0023122D01*
X0169718Y-0023119D01*
X0169728Y-0023110D01*
X0169746Y-0023098D01*
X0169768Y-0023082D01*
X0169796Y-0023070D01*
X0169826Y-0023058D01*
X0169860Y-0023048D01*
X0169901Y-0023045D01*
X0169919D01*
X0169938Y-0023048D01*
D02*
G37*
G36*
X0157970Y-0026713D02*
X0157568D01*
Y-0026290D01*
X0157559D01*
X0157556Y-0026296D01*
X0157547Y-0026311D01*
X0157528Y-0026333D01*
X0157507Y-0026364D01*
X0157476Y-0026401D01*
X0157442Y-0026441D01*
X0157398Y-0026484D01*
X0157346Y-0026531D01*
X0157290Y-0026577D01*
X0157225Y-0026620D01*
X0157154Y-0026660D01*
X0157077Y-0026698D01*
X0156994Y-0026728D01*
X0156901Y-0026750D01*
X0156802Y-0026766D01*
X0156697Y-0026772D01*
X0156675D01*
X0156651Y-0026769D01*
X0156620Y-0026766D01*
X0156580Y-0026763D01*
X0156533Y-0026753D01*
X0156481Y-0026744D01*
X0156425Y-0026728D01*
X0156366Y-0026713D01*
X0156305Y-0026688D01*
X0156243Y-0026664D01*
X0156178Y-0026630D01*
X0156116Y-0026592D01*
X0156054Y-0026546D01*
X0155996Y-0026494D01*
X0155940Y-0026435D01*
X0155937Y-0026432D01*
X0155928Y-0026419D01*
X0155915Y-0026401D01*
X0155897Y-0026373D01*
X0155875Y-0026339D01*
X0155850Y-0026299D01*
X0155826Y-0026250D01*
X0155801Y-0026194D01*
X0155773Y-0026132D01*
X0155748Y-0026064D01*
X0155724Y-0025987D01*
X0155702Y-0025907D01*
X0155684Y-0025820D01*
X0155671Y-0025724D01*
X0155662Y-0025625D01*
X0155659Y-0025520D01*
Y-0025517D01*
Y-0025514D01*
Y-0025505D01*
Y-0025493D01*
X0155662Y-0025462D01*
X0155665Y-0025418D01*
X0155668Y-0025363D01*
X0155674Y-0025304D01*
X0155684Y-0025236D01*
X0155699Y-0025162D01*
X0155714Y-0025085D01*
X0155736Y-0025001D01*
X0155761Y-0024921D01*
X0155792Y-0024834D01*
X0155826Y-0024754D01*
X0155869Y-0024674D01*
X0155915Y-0024596D01*
X0155971Y-0024522D01*
X0155974Y-0024519D01*
X0155986Y-0024507D01*
X0156005Y-0024488D01*
X0156030Y-0024464D01*
X0156061Y-0024436D01*
X0156098Y-0024402D01*
X0156144Y-0024368D01*
X0156193Y-0024334D01*
X0156252Y-0024300D01*
X0156314Y-0024266D01*
X0156382Y-0024232D01*
X0156456Y-0024204D01*
X0156536Y-0024179D01*
X0156623Y-0024161D01*
X0156712Y-0024148D01*
X0156808Y-0024145D01*
X0156830D01*
X0156858Y-0024148D01*
X0156892Y-0024151D01*
X0156935Y-0024158D01*
X0156984Y-0024167D01*
X0157037Y-0024179D01*
X0157096Y-0024195D01*
X0157157Y-0024216D01*
X0157219Y-0024244D01*
X0157281Y-0024278D01*
X0157343Y-0024318D01*
X0157402Y-0024365D01*
X0157460Y-0024417D01*
X0157513Y-0024482D01*
X0157559Y-0024553D01*
X0157568D01*
Y-0022999D01*
X0157970D01*
Y-0026713D01*
D02*
G37*
G36*
X0172184Y-0024148D02*
X0172212D01*
X0172246Y-0024155D01*
X0172286Y-0024161D01*
X0172329Y-0024167D01*
X0172376Y-0024179D01*
X0172425Y-0024192D01*
X0172478Y-0024210D01*
X0172530Y-0024232D01*
X0172583Y-0024260D01*
X0172632Y-0024291D01*
X0172682Y-0024324D01*
X0172728Y-0024368D01*
X0172771Y-0024414D01*
X0172774Y-0024417D01*
X0172781Y-0024426D01*
X0172793Y-0024442D01*
X0172805Y-0024464D01*
X0172821Y-0024491D01*
X0172839Y-0024525D01*
X0172861Y-0024566D01*
X0172882Y-0024609D01*
X0172901Y-0024661D01*
X0172923Y-0024717D01*
X0172941Y-0024782D01*
X0172957Y-0024850D01*
X0172969Y-0024924D01*
X0172981Y-0025004D01*
X0172987Y-0025088D01*
X0172991Y-0025180D01*
Y-0026713D01*
X0172589D01*
Y-0025282D01*
Y-0025279D01*
Y-0025273D01*
Y-0025264D01*
Y-0025248D01*
X0172586Y-0025230D01*
Y-0025208D01*
X0172580Y-0025159D01*
X0172570Y-0025097D01*
X0172558Y-0025029D01*
X0172539Y-0024958D01*
X0172515Y-0024884D01*
X0172484Y-0024810D01*
X0172447Y-0024738D01*
X0172400Y-0024670D01*
X0172342Y-0024609D01*
X0172277Y-0024559D01*
X0172240Y-0024538D01*
X0172196Y-0024519D01*
X0172153Y-0024504D01*
X0172107Y-0024494D01*
X0172057Y-0024488D01*
X0172005Y-0024485D01*
X0171977D01*
X0171956Y-0024488D01*
X0171931Y-0024491D01*
X0171900Y-0024498D01*
X0171866Y-0024504D01*
X0171832Y-0024513D01*
X0171792Y-0024525D01*
X0171751Y-0024541D01*
X0171711Y-0024559D01*
X0171668Y-0024581D01*
X0171628Y-0024609D01*
X0171585Y-0024640D01*
X0171545Y-0024674D01*
X0171507Y-0024714D01*
X0171504Y-0024717D01*
X0171498Y-0024723D01*
X0171489Y-0024735D01*
X0171476Y-0024754D01*
X0171461Y-0024776D01*
X0171446Y-0024803D01*
X0171427Y-0024834D01*
X0171408Y-0024868D01*
X0171390Y-0024908D01*
X0171371Y-0024952D01*
X0171356Y-0024998D01*
X0171341Y-0025047D01*
X0171328Y-0025103D01*
X0171319Y-0025159D01*
X0171313Y-0025221D01*
X0171310Y-0025282D01*
Y-0026713D01*
X0170908D01*
Y-0024204D01*
X0171310D01*
Y-0024621D01*
X0171319D01*
X0171322Y-0024615D01*
X0171331Y-0024600D01*
X0171350Y-0024578D01*
X0171371Y-0024547D01*
X0171402Y-0024510D01*
X0171436Y-0024470D01*
X0171480Y-0024426D01*
X0171529Y-0024383D01*
X0171585Y-0024340D01*
X0171646Y-0024297D01*
X0171714Y-0024257D01*
X0171785Y-0024219D01*
X0171866Y-0024189D01*
X0171952Y-0024167D01*
X0172045Y-0024151D01*
X0172144Y-0024145D01*
X0172162D01*
X0172184Y-0024148D01*
D02*
G37*
G36*
X0155208Y-0024164D02*
X0155242D01*
X0155279Y-0024170D01*
X0155319Y-0024176D01*
X0155359Y-0024182D01*
X0155393Y-0024195D01*
Y-0024612D01*
X0155387Y-0024609D01*
X0155375Y-0024600D01*
X0155350Y-0024587D01*
X0155316Y-0024572D01*
X0155270Y-0024556D01*
X0155220Y-0024544D01*
X0155158Y-0024535D01*
X0155087Y-0024532D01*
X0155062D01*
X0155044Y-0024535D01*
X0155022Y-0024538D01*
X0154998Y-0024544D01*
X0154939Y-0024562D01*
X0154905Y-0024575D01*
X0154871Y-0024590D01*
X0154834Y-0024612D01*
X0154797Y-0024633D01*
X0154763Y-0024661D01*
X0154726Y-0024695D01*
X0154692Y-0024732D01*
X0154658Y-0024776D01*
X0154655Y-0024779D01*
X0154651Y-0024788D01*
X0154642Y-0024800D01*
X0154630Y-0024819D01*
X0154618Y-0024844D01*
X0154602Y-0024874D01*
X0154587Y-0024908D01*
X0154571Y-0024949D01*
X0154556Y-0024992D01*
X0154540Y-0025041D01*
X0154525Y-0025097D01*
X0154512Y-0025156D01*
X0154500Y-0025221D01*
X0154491Y-0025289D01*
X0154488Y-0025360D01*
X0154485Y-0025437D01*
Y-0026713D01*
X0154083D01*
Y-0024204D01*
X0154485D01*
Y-0024723D01*
X0154494D01*
Y-0024720D01*
X0154497Y-0024711D01*
X0154503Y-0024698D01*
X0154509Y-0024680D01*
X0154519Y-0024658D01*
X0154531Y-0024630D01*
X0154559Y-0024572D01*
X0154596Y-0024504D01*
X0154642Y-0024436D01*
X0154695Y-0024371D01*
X0154756Y-0024309D01*
X0154760Y-0024306D01*
X0154766Y-0024303D01*
X0154775Y-0024297D01*
X0154787Y-0024284D01*
X0154803Y-0024275D01*
X0154824Y-0024263D01*
X0154871Y-0024235D01*
X0154930Y-0024207D01*
X0154998Y-0024182D01*
X0155072Y-0024167D01*
X0155112Y-0024164D01*
X0155152Y-0024161D01*
X0155177D01*
X0155208Y-0024164D01*
D02*
G37*
G36*
X0165970Y-0026713D02*
X0165568D01*
Y-0026318D01*
X0165559D01*
X0165556Y-0026324D01*
X0165547Y-0026336D01*
X0165531Y-0026361D01*
X0165513Y-0026389D01*
X0165485Y-0026423D01*
X0165451Y-0026460D01*
X0165414Y-0026503D01*
X0165368Y-0026543D01*
X0165318Y-0026586D01*
X0165259Y-0026627D01*
X0165198Y-0026667D01*
X0165127Y-0026701D01*
X0165049Y-0026728D01*
X0164969Y-0026753D01*
X0164879Y-0026766D01*
X0164784Y-0026772D01*
X0164762D01*
X0164746Y-0026769D01*
X0164725D01*
X0164700Y-0026766D01*
X0164672Y-0026759D01*
X0164645Y-0026756D01*
X0164576Y-0026738D01*
X0164499Y-0026716D01*
X0164419Y-0026682D01*
X0164379Y-0026660D01*
X0164336Y-0026639D01*
X0164292Y-0026611D01*
X0164252Y-0026583D01*
X0164212Y-0026549D01*
X0164172Y-0026512D01*
X0164132Y-0026469D01*
X0164094Y-0026426D01*
X0164060Y-0026376D01*
X0164026Y-0026321D01*
X0163999Y-0026262D01*
X0163971Y-0026200D01*
X0163946Y-0026132D01*
X0163925Y-0026058D01*
X0163909Y-0025978D01*
X0163897Y-0025894D01*
X0163891Y-0025802D01*
X0163888Y-0025706D01*
Y-0024204D01*
X0164286D01*
Y-0025641D01*
Y-0025644D01*
Y-0025650D01*
Y-0025659D01*
Y-0025675D01*
X0164289Y-0025693D01*
Y-0025715D01*
X0164295Y-0025764D01*
X0164305Y-0025826D01*
X0164317Y-0025891D01*
X0164339Y-0025965D01*
X0164363Y-0026036D01*
X0164394Y-0026111D01*
X0164434Y-0026185D01*
X0164484Y-0026250D01*
X0164543Y-0026311D01*
X0164614Y-0026361D01*
X0164651Y-0026382D01*
X0164694Y-0026401D01*
X0164740Y-0026416D01*
X0164787Y-0026426D01*
X0164839Y-0026432D01*
X0164895Y-0026435D01*
X0164923D01*
X0164944Y-0026432D01*
X0164969Y-0026429D01*
X0164997Y-0026423D01*
X0165031Y-0026416D01*
X0165065Y-0026407D01*
X0165102Y-0026398D01*
X0165142Y-0026382D01*
X0165182Y-0026364D01*
X0165222Y-0026342D01*
X0165262Y-0026318D01*
X0165303Y-0026290D01*
X0165340Y-0026256D01*
X0165377Y-0026219D01*
X0165380Y-0026215D01*
X0165386Y-0026209D01*
X0165395Y-0026197D01*
X0165408Y-0026178D01*
X0165420Y-0026157D01*
X0165439Y-0026132D01*
X0165454Y-0026101D01*
X0165473Y-0026067D01*
X0165491Y-0026027D01*
X0165507Y-0025984D01*
X0165525Y-0025937D01*
X0165538Y-0025888D01*
X0165550Y-0025832D01*
X0165559Y-0025777D01*
X0165565Y-0025715D01*
X0165568Y-0025650D01*
Y-0024204D01*
X0165970D01*
Y-0026713D01*
D02*
G37*
G36*
X0170095D02*
X0169694D01*
Y-0024204D01*
X0170095D01*
Y-0026713D01*
D02*
G37*
G36*
X0168881D02*
X0168479D01*
Y-0022999D01*
X0168881D01*
Y-0026713D01*
D02*
G37*
G36*
X0152479Y-0024148D02*
X0152501D01*
X0152523Y-0024151D01*
X0152550Y-0024155D01*
X0152581Y-0024161D01*
X0152646Y-0024173D01*
X0152723Y-0024195D01*
X0152801Y-0024223D01*
X0152884Y-0024263D01*
X0152967Y-0024312D01*
X0153008Y-0024340D01*
X0153048Y-0024374D01*
X0153085Y-0024411D01*
X0153122Y-0024448D01*
X0153156Y-0024491D01*
X0153187Y-0024541D01*
X0153218Y-0024590D01*
X0153245Y-0024646D01*
X0153267Y-0024708D01*
X0153289Y-0024772D01*
X0153304Y-0024840D01*
X0153317Y-0024918D01*
X0153323Y-0024995D01*
X0153326Y-0025082D01*
Y-0026713D01*
X0152924D01*
Y-0026324D01*
X0152915D01*
X0152912Y-0026330D01*
X0152902Y-0026342D01*
X0152887Y-0026364D01*
X0152865Y-0026395D01*
X0152838Y-0026429D01*
X0152804Y-0026466D01*
X0152767Y-0026506D01*
X0152720Y-0026546D01*
X0152668Y-0026589D01*
X0152612Y-0026630D01*
X0152547Y-0026667D01*
X0152479Y-0026701D01*
X0152402Y-0026732D01*
X0152322Y-0026753D01*
X0152235Y-0026766D01*
X0152142Y-0026772D01*
X0152105D01*
X0152081Y-0026769D01*
X0152050Y-0026766D01*
X0152013Y-0026763D01*
X0151972Y-0026756D01*
X0151929Y-0026747D01*
X0151833Y-0026722D01*
X0151787Y-0026707D01*
X0151738Y-0026688D01*
X0151688Y-0026667D01*
X0151642Y-0026639D01*
X0151599Y-0026608D01*
X0151555Y-0026574D01*
X0151552Y-0026571D01*
X0151546Y-0026565D01*
X0151537Y-0026552D01*
X0151521Y-0026537D01*
X0151506Y-0026518D01*
X0151490Y-0026494D01*
X0151469Y-0026466D01*
X0151450Y-0026435D01*
X0151432Y-0026398D01*
X0151413Y-0026358D01*
X0151395Y-0026314D01*
X0151379Y-0026268D01*
X0151364Y-0026219D01*
X0151354Y-0026166D01*
X0151348Y-0026107D01*
X0151345Y-0026049D01*
Y-0026046D01*
Y-0026039D01*
Y-0026030D01*
X0151348Y-0026018D01*
Y-0026002D01*
X0151351Y-0025984D01*
X0151357Y-0025937D01*
X0151370Y-0025882D01*
X0151388Y-0025820D01*
X0151413Y-0025752D01*
X0151450Y-0025681D01*
X0151494Y-0025610D01*
X0151546Y-0025539D01*
X0151580Y-0025505D01*
X0151614Y-0025471D01*
X0151654Y-0025437D01*
X0151694Y-0025406D01*
X0151741Y-0025375D01*
X0151790Y-0025347D01*
X0151843Y-0025322D01*
X0151901Y-0025298D01*
X0151963Y-0025276D01*
X0152028Y-0025258D01*
X0152099Y-0025242D01*
X0152173Y-0025230D01*
X0152924Y-0025125D01*
Y-0025122D01*
Y-0025119D01*
Y-0025109D01*
Y-0025097D01*
X0152921Y-0025066D01*
X0152915Y-0025026D01*
X0152909Y-0024976D01*
X0152896Y-0024921D01*
X0152881Y-0024865D01*
X0152859Y-0024803D01*
X0152831Y-0024745D01*
X0152797Y-0024686D01*
X0152757Y-0024633D01*
X0152708Y-0024584D01*
X0152646Y-0024544D01*
X0152578Y-0024513D01*
X0152541Y-0024501D01*
X0152498Y-0024491D01*
X0152454Y-0024488D01*
X0152408Y-0024485D01*
X0152386D01*
X0152365Y-0024488D01*
X0152331Y-0024491D01*
X0152291Y-0024494D01*
X0152244Y-0024501D01*
X0152192Y-0024510D01*
X0152136Y-0024522D01*
X0152074Y-0024541D01*
X0152009Y-0024559D01*
X0151942Y-0024584D01*
X0151871Y-0024615D01*
X0151799Y-0024652D01*
X0151728Y-0024692D01*
X0151657Y-0024738D01*
X0151589Y-0024794D01*
Y-0024383D01*
X0151592Y-0024380D01*
X0151605Y-0024374D01*
X0151626Y-0024362D01*
X0151654Y-0024346D01*
X0151691Y-0024328D01*
X0151731Y-0024309D01*
X0151781Y-0024287D01*
X0151837Y-0024263D01*
X0151895Y-0024241D01*
X0151960Y-0024219D01*
X0152031Y-0024201D01*
X0152105Y-0024182D01*
X0152186Y-0024167D01*
X0152266Y-0024155D01*
X0152352Y-0024148D01*
X0152442Y-0024145D01*
X0152464D01*
X0152479Y-0024148D01*
D02*
G37*
G36*
X0146843Y-0023203D02*
X0146880Y-0023206D01*
X0146923Y-0023212D01*
X0146973Y-0023218D01*
X0147028Y-0023227D01*
X0147084Y-0023240D01*
X0147143Y-0023255D01*
X0147205Y-0023274D01*
X0147263Y-0023295D01*
X0147325Y-0023320D01*
X0147381Y-0023351D01*
X0147436Y-0023385D01*
X0147489Y-0023425D01*
X0147492Y-0023428D01*
X0147501Y-0023435D01*
X0147514Y-0023447D01*
X0147529Y-0023465D01*
X0147551Y-0023487D01*
X0147572Y-0023515D01*
X0147597Y-0023546D01*
X0147622Y-0023580D01*
X0147646Y-0023620D01*
X0147671Y-0023663D01*
X0147693Y-0023713D01*
X0147714Y-0023762D01*
X0147730Y-0023818D01*
X0147742Y-0023876D01*
X0147751Y-0023938D01*
X0147755Y-0024003D01*
Y-0024006D01*
Y-0024015D01*
Y-0024031D01*
X0147751Y-0024053D01*
X0147748Y-0024080D01*
X0147745Y-0024108D01*
X0147742Y-0024142D01*
X0147736Y-0024179D01*
X0147714Y-0024263D01*
X0147687Y-0024349D01*
X0147668Y-0024396D01*
X0147646Y-0024439D01*
X0147622Y-0024482D01*
X0147594Y-0024525D01*
X0147591Y-0024528D01*
X0147588Y-0024535D01*
X0147578Y-0024547D01*
X0147563Y-0024562D01*
X0147548Y-0024578D01*
X0147529Y-0024600D01*
X0147504Y-0024621D01*
X0147480Y-0024646D01*
X0147449Y-0024670D01*
X0147415Y-0024698D01*
X0147378Y-0024723D01*
X0147337Y-0024751D01*
X0147294Y-0024776D01*
X0147251Y-0024797D01*
X0147149Y-0024837D01*
Y-0024847D01*
X0147152D01*
X0147164Y-0024850D01*
X0147183Y-0024853D01*
X0147208Y-0024856D01*
X0147239Y-0024862D01*
X0147273Y-0024871D01*
X0147313Y-0024884D01*
X0147353Y-0024896D01*
X0147442Y-0024930D01*
X0147492Y-0024952D01*
X0147538Y-0024980D01*
X0147585Y-0025007D01*
X0147631Y-0025038D01*
X0147677Y-0025075D01*
X0147717Y-0025115D01*
X0147721Y-0025119D01*
X0147727Y-0025125D01*
X0147736Y-0025137D01*
X0147751Y-0025156D01*
X0147767Y-0025180D01*
X0147785Y-0025205D01*
X0147804Y-0025239D01*
X0147826Y-0025273D01*
X0147844Y-0025313D01*
X0147863Y-0025360D01*
X0147881Y-0025406D01*
X0147897Y-0025458D01*
X0147912Y-0025517D01*
X0147921Y-0025576D01*
X0147928Y-0025638D01*
X0147931Y-0025706D01*
Y-0025712D01*
Y-0025724D01*
X0147928Y-0025749D01*
X0147924Y-0025780D01*
X0147921Y-0025820D01*
X0147912Y-0025863D01*
X0147903Y-0025913D01*
X0147890Y-0025965D01*
X0147872Y-0026024D01*
X0147850Y-0026083D01*
X0147826Y-0026141D01*
X0147795Y-0026203D01*
X0147758Y-0026265D01*
X0147714Y-0026324D01*
X0147665Y-0026379D01*
X0147606Y-0026435D01*
X0147603Y-0026438D01*
X0147591Y-0026447D01*
X0147572Y-0026460D01*
X0147548Y-0026478D01*
X0147517Y-0026500D01*
X0147476Y-0026521D01*
X0147433Y-0026549D01*
X0147384Y-0026574D01*
X0147325Y-0026599D01*
X0147263Y-0026623D01*
X0147198Y-0026648D01*
X0147124Y-0026670D01*
X0147047Y-0026688D01*
X0146967Y-0026701D01*
X0146880Y-0026710D01*
X0146791Y-0026713D01*
X0145768D01*
Y-0023200D01*
X0146809D01*
X0146843Y-0023203D01*
D02*
G37*
G36*
X0167311Y-0024204D02*
X0167945D01*
Y-0024550D01*
X0167311D01*
Y-0025962D01*
Y-0025965D01*
Y-0025975D01*
Y-0025987D01*
Y-0026002D01*
X0167314Y-0026024D01*
X0167317Y-0026049D01*
X0167324Y-0026101D01*
X0167333Y-0026163D01*
X0167348Y-0026222D01*
X0167370Y-0026277D01*
X0167382Y-0026302D01*
X0167398Y-0026324D01*
X0167401Y-0026327D01*
X0167413Y-0026339D01*
X0167435Y-0026358D01*
X0167466Y-0026376D01*
X0167506Y-0026398D01*
X0167555Y-0026413D01*
X0167614Y-0026426D01*
X0167682Y-0026432D01*
X0167707D01*
X0167735Y-0026429D01*
X0167772Y-0026423D01*
X0167812Y-0026410D01*
X0167858Y-0026398D01*
X0167901Y-0026376D01*
X0167945Y-0026348D01*
Y-0026691D01*
X0167942D01*
X0167938Y-0026695D01*
X0167929Y-0026698D01*
X0167920Y-0026704D01*
X0167886Y-0026716D01*
X0167846Y-0026728D01*
X0167790Y-0026741D01*
X0167725Y-0026753D01*
X0167651Y-0026763D01*
X0167568Y-0026766D01*
X0167540D01*
X0167506Y-0026759D01*
X0167466Y-0026753D01*
X0167416Y-0026744D01*
X0167361Y-0026725D01*
X0167299Y-0026704D01*
X0167240Y-0026673D01*
X0167178Y-0026636D01*
X0167116Y-0026586D01*
X0167061Y-0026528D01*
X0167036Y-0026494D01*
X0167011Y-0026456D01*
X0166990Y-0026416D01*
X0166971Y-0026373D01*
X0166953Y-0026327D01*
X0166937Y-0026274D01*
X0166925Y-0026222D01*
X0166916Y-0026163D01*
X0166913Y-0026101D01*
X0166910Y-0026033D01*
Y-0024550D01*
X0166480D01*
Y-0024204D01*
X0166910D01*
Y-0023592D01*
X0167311Y-0023462D01*
Y-0024204D01*
D02*
G37*
G36*
X0174780Y-0024148D02*
X0174814Y-0024151D01*
X0174857Y-0024155D01*
X0174903Y-0024161D01*
X0174956Y-0024173D01*
X0175012Y-0024185D01*
X0175073Y-0024201D01*
X0175135Y-0024223D01*
X0175197Y-0024250D01*
X0175262Y-0024281D01*
X0175324Y-0024318D01*
X0175382Y-0024362D01*
X0175441Y-0024411D01*
X0175494Y-0024467D01*
X0175497Y-0024470D01*
X0175506Y-0024482D01*
X0175518Y-0024501D01*
X0175537Y-0024525D01*
X0175555Y-0024556D01*
X0175580Y-0024596D01*
X0175605Y-0024643D01*
X0175629Y-0024695D01*
X0175654Y-0024757D01*
X0175679Y-0024822D01*
X0175704Y-0024896D01*
X0175722Y-0024973D01*
X0175741Y-0025060D01*
X0175753Y-0025150D01*
X0175762Y-0025248D01*
X0175765Y-0025350D01*
Y-0025561D01*
X0173992D01*
Y-0025567D01*
Y-0025579D01*
X0173995Y-0025601D01*
X0173998Y-0025628D01*
X0174001Y-0025666D01*
X0174007Y-0025706D01*
X0174013Y-0025749D01*
X0174026Y-0025798D01*
X0174054Y-0025903D01*
X0174072Y-0025956D01*
X0174094Y-0026012D01*
X0174118Y-0026064D01*
X0174146Y-0026117D01*
X0174180Y-0026163D01*
X0174217Y-0026209D01*
X0174220Y-0026212D01*
X0174227Y-0026219D01*
X0174239Y-0026231D01*
X0174258Y-0026243D01*
X0174279Y-0026262D01*
X0174307Y-0026280D01*
X0174338Y-0026302D01*
X0174372Y-0026321D01*
X0174412Y-0026342D01*
X0174458Y-0026364D01*
X0174505Y-0026382D01*
X0174560Y-0026401D01*
X0174616Y-0026413D01*
X0174678Y-0026426D01*
X0174743Y-0026432D01*
X0174811Y-0026435D01*
X0174829D01*
X0174851Y-0026432D01*
X0174882D01*
X0174919Y-0026426D01*
X0174962Y-0026419D01*
X0175012Y-0026410D01*
X0175067Y-0026401D01*
X0175126Y-0026386D01*
X0175188Y-0026367D01*
X0175252Y-0026345D01*
X0175317Y-0026318D01*
X0175385Y-0026287D01*
X0175453Y-0026250D01*
X0175521Y-0026206D01*
X0175589Y-0026157D01*
Y-0026534D01*
X0175586Y-0026537D01*
X0175574Y-0026543D01*
X0175555Y-0026555D01*
X0175531Y-0026571D01*
X0175497Y-0026589D01*
X0175456Y-0026608D01*
X0175410Y-0026630D01*
X0175357Y-0026651D01*
X0175296Y-0026676D01*
X0175231Y-0026698D01*
X0175160Y-0026716D01*
X0175083Y-0026735D01*
X0174999Y-0026750D01*
X0174909Y-0026763D01*
X0174814Y-0026769D01*
X0174715Y-0026772D01*
X0174690D01*
X0174665Y-0026769D01*
X0174628Y-0026766D01*
X0174582Y-0026763D01*
X0174529Y-0026753D01*
X0174474Y-0026744D01*
X0174412Y-0026728D01*
X0174347Y-0026710D01*
X0174279Y-0026688D01*
X0174208Y-0026660D01*
X0174140Y-0026630D01*
X0174069Y-0026589D01*
X0174004Y-0026543D01*
X0173939Y-0026491D01*
X0173881Y-0026432D01*
X0173877Y-0026429D01*
X0173868Y-0026416D01*
X0173853Y-0026395D01*
X0173834Y-0026367D01*
X0173810Y-0026333D01*
X0173785Y-0026290D01*
X0173757Y-0026240D01*
X0173729Y-0026182D01*
X0173701Y-0026120D01*
X0173673Y-0026046D01*
X0173649Y-0025968D01*
X0173624Y-0025882D01*
X0173606Y-0025789D01*
X0173590Y-0025690D01*
X0173581Y-0025582D01*
X0173578Y-0025471D01*
Y-0025468D01*
Y-0025465D01*
Y-0025455D01*
Y-0025446D01*
X0173581Y-0025415D01*
X0173584Y-0025372D01*
X0173587Y-0025322D01*
X0173596Y-0025267D01*
X0173606Y-0025202D01*
X0173618Y-0025131D01*
X0173636Y-0025057D01*
X0173658Y-0024980D01*
X0173686Y-0024899D01*
X0173717Y-0024819D01*
X0173754Y-0024742D01*
X0173800Y-0024661D01*
X0173850Y-0024587D01*
X0173908Y-0024516D01*
X0173911Y-0024513D01*
X0173924Y-0024501D01*
X0173942Y-0024482D01*
X0173967Y-0024457D01*
X0174001Y-0024430D01*
X0174041Y-0024399D01*
X0174084Y-0024365D01*
X0174137Y-0024331D01*
X0174193Y-0024297D01*
X0174258Y-0024263D01*
X0174326Y-0024232D01*
X0174397Y-0024204D01*
X0174474Y-0024179D01*
X0174557Y-0024161D01*
X0174644Y-0024148D01*
X0174733Y-0024145D01*
X0174755D01*
X0174780Y-0024148D01*
D02*
G37*
G36*
X0161737Y-0023144D02*
X0161758D01*
X0161780Y-0023147D01*
X0161808D01*
X0161870Y-0023156D01*
X0161941Y-0023166D01*
X0162021Y-0023181D01*
X0162108Y-0023203D01*
X0162197Y-0023227D01*
X0162293Y-0023261D01*
X0162389Y-0023302D01*
X0162488Y-0023348D01*
X0162587Y-0023404D01*
X0162679Y-0023469D01*
X0162772Y-0023546D01*
X0162858Y-0023632D01*
X0162865Y-0023639D01*
X0162877Y-0023654D01*
X0162899Y-0023682D01*
X0162930Y-0023722D01*
X0162961Y-0023771D01*
X0163001Y-0023830D01*
X0163041Y-0023898D01*
X0163081Y-0023975D01*
X0163121Y-0024065D01*
X0163161Y-0024161D01*
X0163201Y-0024266D01*
X0163235Y-0024380D01*
X0163263Y-0024504D01*
X0163285Y-0024633D01*
X0163297Y-0024769D01*
X0163303Y-0024915D01*
Y-0024918D01*
Y-0024924D01*
Y-0024936D01*
Y-0024952D01*
X0163300Y-0024973D01*
Y-0024998D01*
X0163297Y-0025026D01*
Y-0025057D01*
X0163294Y-0025091D01*
X0163291Y-0025128D01*
X0163279Y-0025211D01*
X0163266Y-0025307D01*
X0163248Y-0025406D01*
X0163223Y-0025514D01*
X0163192Y-0025625D01*
X0163155Y-0025737D01*
X0163112Y-0025851D01*
X0163059Y-0025962D01*
X0162998Y-0026073D01*
X0162926Y-0026175D01*
X0162846Y-0026274D01*
X0162840Y-0026280D01*
X0162824Y-0026296D01*
X0162800Y-0026321D01*
X0162763Y-0026351D01*
X0162716Y-0026389D01*
X0162661Y-0026432D01*
X0162599Y-0026475D01*
X0162525Y-0026521D01*
X0162441Y-0026568D01*
X0162349Y-0026614D01*
X0162250Y-0026657D01*
X0162142Y-0026695D01*
X0162024Y-0026725D01*
X0161901Y-0026750D01*
X0161768Y-0026766D01*
X0161629Y-0026772D01*
X0161595D01*
X0161579Y-0026769D01*
X0161558D01*
X0161533Y-0026766D01*
X0161505Y-0026763D01*
X0161440Y-0026756D01*
X0161369Y-0026747D01*
X0161286Y-0026732D01*
X0161199Y-0026710D01*
X0161103Y-0026685D01*
X0161008Y-0026651D01*
X0160909Y-0026611D01*
X0160807Y-0026565D01*
X0160708Y-0026509D01*
X0160612Y-0026441D01*
X0160516Y-0026367D01*
X0160430Y-0026280D01*
X0160424Y-0026274D01*
X0160411Y-0026259D01*
X0160390Y-0026231D01*
X0160359Y-0026191D01*
X0160325Y-0026141D01*
X0160288Y-0026083D01*
X0160248Y-0026015D01*
X0160207Y-0025934D01*
X0160164Y-0025848D01*
X0160124Y-0025752D01*
X0160087Y-0025647D01*
X0160053Y-0025533D01*
X0160022Y-0025409D01*
X0160000Y-0025279D01*
X0159988Y-0025143D01*
X0159982Y-0024998D01*
Y-0024995D01*
Y-0024989D01*
Y-0024976D01*
Y-0024961D01*
X0159985Y-0024939D01*
Y-0024918D01*
X0159988Y-0024890D01*
Y-0024859D01*
X0159991Y-0024825D01*
X0159997Y-0024785D01*
X0160006Y-0024704D01*
X0160019Y-0024612D01*
X0160040Y-0024513D01*
X0160062Y-0024405D01*
X0160093Y-0024297D01*
X0160130Y-0024185D01*
X0160173Y-0024071D01*
X0160226Y-0023960D01*
X0160288Y-0023852D01*
X0160359Y-0023747D01*
X0160439Y-0023648D01*
X0160445Y-0023642D01*
X0160461Y-0023626D01*
X0160485Y-0023601D01*
X0160522Y-0023567D01*
X0160569Y-0023530D01*
X0160627Y-0023487D01*
X0160692Y-0023441D01*
X0160767Y-0023394D01*
X0160853Y-0023348D01*
X0160946Y-0023302D01*
X0161048Y-0023258D01*
X0161159Y-0023221D01*
X0161279Y-0023187D01*
X0161406Y-0023163D01*
X0161542Y-0023147D01*
X0161687Y-0023141D01*
X0161718D01*
X0161737Y-0023144D01*
D02*
G37*
G36*
X0149751Y-0024148D02*
X0149791Y-0024151D01*
X0149837Y-0024155D01*
X0149893Y-0024164D01*
X0149952Y-0024173D01*
X0150016Y-0024189D01*
X0150087Y-0024207D01*
X0150159Y-0024229D01*
X0150230Y-0024257D01*
X0150304Y-0024291D01*
X0150375Y-0024331D01*
X0150446Y-0024377D01*
X0150511Y-0024430D01*
X0150573Y-0024491D01*
X0150576Y-0024494D01*
X0150585Y-0024507D01*
X0150601Y-0024528D01*
X0150622Y-0024556D01*
X0150647Y-0024590D01*
X0150672Y-0024633D01*
X0150702Y-0024683D01*
X0150730Y-0024742D01*
X0150761Y-0024806D01*
X0150789Y-0024878D01*
X0150814Y-0024955D01*
X0150838Y-0025041D01*
X0150860Y-0025134D01*
X0150875Y-0025233D01*
X0150885Y-0025338D01*
X0150888Y-0025449D01*
Y-0025452D01*
Y-0025455D01*
Y-0025465D01*
Y-0025477D01*
X0150885Y-0025508D01*
X0150882Y-0025548D01*
X0150879Y-0025601D01*
X0150869Y-0025659D01*
X0150860Y-0025724D01*
X0150845Y-0025795D01*
X0150826Y-0025870D01*
X0150804Y-0025950D01*
X0150777Y-0026030D01*
X0150746Y-0026111D01*
X0150706Y-0026191D01*
X0150659Y-0026268D01*
X0150607Y-0026342D01*
X0150548Y-0026413D01*
X0150545Y-0026416D01*
X0150532Y-0026429D01*
X0150514Y-0026447D01*
X0150486Y-0026469D01*
X0150452Y-0026497D01*
X0150412Y-0026528D01*
X0150363Y-0026559D01*
X0150307Y-0026592D01*
X0150245Y-0026627D01*
X0150177Y-0026657D01*
X0150103Y-0026688D01*
X0150023Y-0026716D01*
X0149933Y-0026738D01*
X0149840Y-0026756D01*
X0149744Y-0026769D01*
X0149639Y-0026772D01*
X0149615D01*
X0149587Y-0026769D01*
X0149547Y-0026766D01*
X0149500Y-0026763D01*
X0149445Y-0026753D01*
X0149386Y-0026744D01*
X0149321Y-0026728D01*
X0149250Y-0026710D01*
X0149179Y-0026685D01*
X0149105Y-0026657D01*
X0149031Y-0026623D01*
X0148957Y-0026583D01*
X0148882Y-0026537D01*
X0148814Y-0026484D01*
X0148750Y-0026423D01*
X0148747Y-0026419D01*
X0148734Y-0026407D01*
X0148719Y-0026386D01*
X0148697Y-0026358D01*
X0148672Y-0026324D01*
X0148644Y-0026280D01*
X0148617Y-0026231D01*
X0148586Y-0026172D01*
X0148555Y-0026111D01*
X0148524Y-0026039D01*
X0148496Y-0025962D01*
X0148471Y-0025879D01*
X0148450Y-0025792D01*
X0148434Y-0025696D01*
X0148422Y-0025594D01*
X0148419Y-0025489D01*
Y-0025486D01*
Y-0025483D01*
Y-0025474D01*
Y-0025462D01*
X0148422Y-0025428D01*
X0148425Y-0025384D01*
X0148428Y-0025332D01*
X0148438Y-0025270D01*
X0148447Y-0025202D01*
X0148462Y-0025128D01*
X0148481Y-0025051D01*
X0148502Y-0024970D01*
X0148530Y-0024887D01*
X0148564Y-0024803D01*
X0148604Y-0024723D01*
X0148648Y-0024646D01*
X0148700Y-0024572D01*
X0148762Y-0024501D01*
X0148765Y-0024498D01*
X0148777Y-0024485D01*
X0148799Y-0024467D01*
X0148827Y-0024445D01*
X0148861Y-0024417D01*
X0148904Y-0024389D01*
X0148953Y-0024355D01*
X0149009Y-0024321D01*
X0149071Y-0024291D01*
X0149142Y-0024257D01*
X0149219Y-0024229D01*
X0149303Y-0024201D01*
X0149392Y-0024179D01*
X0149488Y-0024161D01*
X0149590Y-0024148D01*
X0149698Y-0024145D01*
X0149723D01*
X0149751Y-0024148D01*
D02*
G37*
G36*
X0134492Y-0039928D02*
X0134520Y-0039934D01*
X0134548Y-0039943D01*
X0134579Y-0039959D01*
X0134610Y-0039977D01*
X0134641Y-0040002D01*
X0134644Y-0040005D01*
X0134653Y-0040014D01*
X0134666Y-0040030D01*
X0134681Y-0040051D01*
X0134693Y-0040079D01*
X0134706Y-0040110D01*
X0134715Y-0040147D01*
X0134718Y-0040187D01*
Y-0040194D01*
Y-0040206D01*
X0134715Y-0040224D01*
X0134709Y-0040252D01*
X0134699Y-0040280D01*
X0134684Y-0040311D01*
X0134666Y-0040342D01*
X0134641Y-0040373D01*
X0134638Y-0040376D01*
X0134628Y-0040385D01*
X0134610Y-0040398D01*
X0134588Y-0040410D01*
X0134560Y-0040422D01*
X0134529Y-0040435D01*
X0134495Y-0040444D01*
X0134455Y-0040447D01*
X0134437D01*
X0134418Y-0040444D01*
X0134390Y-0040438D01*
X0134363Y-0040429D01*
X0134332Y-0040416D01*
X0134301Y-0040401D01*
X0134270Y-0040376D01*
X0134267Y-0040373D01*
X0134258Y-0040364D01*
X0134245Y-0040345D01*
X0134233Y-0040323D01*
X0134221Y-0040299D01*
X0134208Y-0040265D01*
X0134199Y-0040228D01*
X0134196Y-0040187D01*
Y-0040181D01*
Y-0040169D01*
X0134199Y-0040147D01*
X0134205Y-0040123D01*
X0134214Y-0040092D01*
X0134227Y-0040061D01*
X0134245Y-0040030D01*
X0134270Y-0040002D01*
X0134273Y-0039999D01*
X0134282Y-0039990D01*
X0134301Y-0039977D01*
X0134323Y-0039962D01*
X0134350Y-0039950D01*
X0134381Y-0039937D01*
X0134415Y-0039928D01*
X0134455Y-0039925D01*
X0134474D01*
X0134492Y-0039928D01*
D02*
G37*
G36*
X0111914Y-0040024D02*
X0111957D01*
X0112006Y-0040027D01*
X0112062Y-0040030D01*
X0112121Y-0040036D01*
X0112244Y-0040051D01*
X0112368Y-0040073D01*
X0112430Y-0040089D01*
X0112485Y-0040104D01*
X0112541Y-0040126D01*
X0112587Y-0040147D01*
Y-0040611D01*
X0112584Y-0040608D01*
X0112572Y-0040602D01*
X0112557Y-0040592D01*
X0112532Y-0040577D01*
X0112501Y-0040561D01*
X0112464Y-0040543D01*
X0112421Y-0040521D01*
X0112371Y-0040503D01*
X0112315Y-0040481D01*
X0112254Y-0040462D01*
X0112189Y-0040444D01*
X0112118Y-0040429D01*
X0112044Y-0040413D01*
X0111963Y-0040404D01*
X0111877Y-0040398D01*
X0111787Y-0040394D01*
X0111738D01*
X0111704Y-0040398D01*
X0111663Y-0040401D01*
X0111617Y-0040407D01*
X0111568Y-0040413D01*
X0111518Y-0040422D01*
X0111512D01*
X0111497Y-0040429D01*
X0111472Y-0040435D01*
X0111438Y-0040444D01*
X0111401Y-0040456D01*
X0111361Y-0040472D01*
X0111317Y-0040493D01*
X0111277Y-0040515D01*
X0111274Y-0040518D01*
X0111259Y-0040527D01*
X0111240Y-0040540D01*
X0111215Y-0040558D01*
X0111191Y-0040583D01*
X0111160Y-0040611D01*
X0111132Y-0040642D01*
X0111107Y-0040679D01*
X0111104Y-0040682D01*
X0111098Y-0040697D01*
X0111086Y-0040719D01*
X0111076Y-0040747D01*
X0111064Y-0040781D01*
X0111052Y-0040824D01*
X0111046Y-0040870D01*
X0111042Y-0040923D01*
Y-0040929D01*
Y-0040944D01*
X0111046Y-0040972D01*
X0111049Y-0041003D01*
X0111055Y-0041040D01*
X0111064Y-0041080D01*
X0111076Y-0041121D01*
X0111092Y-0041158D01*
X0111095Y-0041161D01*
X0111101Y-0041173D01*
X0111114Y-0041192D01*
X0111129Y-0041216D01*
X0111151Y-0041244D01*
X0111175Y-0041275D01*
X0111206Y-0041306D01*
X0111240Y-0041337D01*
X0111243Y-0041340D01*
X0111259Y-0041349D01*
X0111280Y-0041368D01*
X0111308Y-0041386D01*
X0111342Y-0041411D01*
X0111382Y-0041436D01*
X0111429Y-0041467D01*
X0111478Y-0041495D01*
X0111481D01*
X0111484Y-0041498D01*
X0111503Y-0041507D01*
X0111534Y-0041522D01*
X0111571Y-0041544D01*
X0111620Y-0041566D01*
X0111676Y-0041593D01*
X0111738Y-0041624D01*
X0111802Y-0041658D01*
X0111806D01*
X0111812Y-0041661D01*
X0111821Y-0041668D01*
X0111833Y-0041674D01*
X0111852Y-0041683D01*
X0111871Y-0041692D01*
X0111917Y-0041717D01*
X0111972Y-0041748D01*
X0112034Y-0041782D01*
X0112096Y-0041816D01*
X0112161Y-0041856D01*
X0112164D01*
X0112167Y-0041859D01*
X0112176Y-0041865D01*
X0112189Y-0041875D01*
X0112223Y-0041896D01*
X0112263Y-0041924D01*
X0112309Y-0041958D01*
X0112359Y-0041995D01*
X0112408Y-0042038D01*
X0112458Y-0042085D01*
X0112464Y-0042091D01*
X0112479Y-0042106D01*
X0112501Y-0042131D01*
X0112532Y-0042165D01*
X0112563Y-0042205D01*
X0112597Y-0042252D01*
X0112628Y-0042304D01*
X0112659Y-0042360D01*
Y-0042363D01*
X0112662Y-0042366D01*
X0112665Y-0042375D01*
X0112671Y-0042388D01*
X0112683Y-0042418D01*
X0112699Y-0042459D01*
X0112711Y-0042511D01*
X0112723Y-0042570D01*
X0112733Y-0042635D01*
X0112736Y-0042706D01*
Y-0042709D01*
Y-0042718D01*
Y-0042731D01*
Y-0042749D01*
X0112733Y-0042771D01*
X0112730Y-0042799D01*
X0112726Y-0042826D01*
X0112723Y-0042857D01*
X0112711Y-0042928D01*
X0112692Y-0043002D01*
X0112668Y-0043077D01*
X0112634Y-0043148D01*
Y-0043151D01*
X0112631Y-0043157D01*
X0112625Y-0043166D01*
X0112615Y-0043179D01*
X0112594Y-0043209D01*
X0112563Y-0043253D01*
X0112522Y-0043299D01*
X0112476Y-0043349D01*
X0112421Y-0043395D01*
X0112359Y-0043441D01*
X0112356D01*
X0112349Y-0043447D01*
X0112340Y-0043450D01*
X0112328Y-0043460D01*
X0112312Y-0043469D01*
X0112291Y-0043478D01*
X0112244Y-0043503D01*
X0112186Y-0043528D01*
X0112118Y-0043556D01*
X0112044Y-0043580D01*
X0111960Y-0043602D01*
X0111957D01*
X0111951Y-0043605D01*
X0111939D01*
X0111920Y-0043608D01*
X0111901Y-0043614D01*
X0111877Y-0043617D01*
X0111849Y-0043620D01*
X0111815Y-0043627D01*
X0111744Y-0043636D01*
X0111663Y-0043642D01*
X0111577Y-0043648D01*
X0111484Y-0043651D01*
X0111450D01*
X0111429Y-0043648D01*
X0111398D01*
X0111361Y-0043645D01*
X0111320Y-0043642D01*
X0111277Y-0043636D01*
X0111271D01*
X0111256Y-0043633D01*
X0111231Y-0043630D01*
X0111200Y-0043627D01*
X0111163Y-0043620D01*
X0111120Y-0043614D01*
X0111076Y-0043608D01*
X0111027Y-0043599D01*
X0111021D01*
X0111005Y-0043596D01*
X0110981Y-0043590D01*
X0110950Y-0043580D01*
X0110913Y-0043574D01*
X0110872Y-0043562D01*
X0110786Y-0043537D01*
X0110780Y-0043534D01*
X0110767Y-0043531D01*
X0110746Y-0043522D01*
X0110721Y-0043512D01*
X0110693Y-0043500D01*
X0110662Y-0043485D01*
X0110631Y-0043469D01*
X0110604Y-0043450D01*
Y-0042965D01*
X0110607Y-0042968D01*
X0110619Y-0042978D01*
X0110638Y-0042993D01*
X0110659Y-0043009D01*
X0110690Y-0043030D01*
X0110724Y-0043052D01*
X0110761Y-0043077D01*
X0110804Y-0043098D01*
X0110811Y-0043101D01*
X0110826Y-0043108D01*
X0110848Y-0043120D01*
X0110879Y-0043132D01*
X0110916Y-0043148D01*
X0110956Y-0043166D01*
X0111002Y-0043185D01*
X0111049Y-0043200D01*
X0111055Y-0043203D01*
X0111070Y-0043206D01*
X0111098Y-0043213D01*
X0111129Y-0043222D01*
X0111169Y-0043234D01*
X0111212Y-0043244D01*
X0111308Y-0043262D01*
X0111314D01*
X0111330Y-0043265D01*
X0111354Y-0043268D01*
X0111389Y-0043271D01*
X0111426Y-0043277D01*
X0111466Y-0043281D01*
X0111549Y-0043284D01*
X0111586D01*
X0111611Y-0043281D01*
X0111642D01*
X0111679Y-0043277D01*
X0111719Y-0043271D01*
X0111762Y-0043265D01*
X0111855Y-0043250D01*
X0111948Y-0043225D01*
X0112037Y-0043191D01*
X0112078Y-0043169D01*
X0112115Y-0043145D01*
X0112118Y-0043141D01*
X0112124Y-0043138D01*
X0112133Y-0043129D01*
X0112145Y-0043117D01*
X0112158Y-0043104D01*
X0112173Y-0043086D01*
X0112192Y-0043064D01*
X0112210Y-0043040D01*
X0112226Y-0043012D01*
X0112244Y-0042984D01*
X0112275Y-0042913D01*
X0112285Y-0042873D01*
X0112294Y-0042829D01*
X0112300Y-0042786D01*
X0112303Y-0042737D01*
Y-0042734D01*
Y-0042731D01*
Y-0042712D01*
X0112300Y-0042687D01*
X0112297Y-0042653D01*
X0112288Y-0042613D01*
X0112278Y-0042573D01*
X0112263Y-0042530D01*
X0112241Y-0042489D01*
X0112238Y-0042483D01*
X0112229Y-0042471D01*
X0112217Y-0042452D01*
X0112198Y-0042425D01*
X0112173Y-0042397D01*
X0112143Y-0042363D01*
X0112109Y-0042332D01*
X0112068Y-0042298D01*
X0112062Y-0042295D01*
X0112050Y-0042283D01*
X0112025Y-0042264D01*
X0111994Y-0042242D01*
X0111954Y-0042218D01*
X0111911Y-0042190D01*
X0111861Y-0042159D01*
X0111806Y-0042131D01*
X0111802D01*
X0111800Y-0042128D01*
X0111790Y-0042122D01*
X0111781Y-0042116D01*
X0111750Y-0042100D01*
X0111710Y-0042079D01*
X0111660Y-0042054D01*
X0111605Y-0042026D01*
X0111546Y-0041995D01*
X0111481Y-0041961D01*
X0111478D01*
X0111472Y-0041958D01*
X0111463Y-0041952D01*
X0111450Y-0041946D01*
X0111416Y-0041927D01*
X0111370Y-0041902D01*
X0111317Y-0041875D01*
X0111259Y-0041844D01*
X0111138Y-0041773D01*
X0111135D01*
X0111132Y-0041769D01*
X0111123Y-0041763D01*
X0111110Y-0041757D01*
X0111083Y-0041736D01*
X0111046Y-0041711D01*
X0111002Y-0041680D01*
X0110956Y-0041643D01*
X0110909Y-0041606D01*
X0110863Y-0041563D01*
X0110857Y-0041556D01*
X0110845Y-0041541D01*
X0110823Y-0041519D01*
X0110795Y-0041488D01*
X0110767Y-0041448D01*
X0110737Y-0041405D01*
X0110706Y-0041355D01*
X0110678Y-0041303D01*
Y-0041300D01*
X0110675Y-0041297D01*
X0110672Y-0041287D01*
X0110669Y-0041275D01*
X0110656Y-0041244D01*
X0110644Y-0041204D01*
X0110631Y-0041155D01*
X0110619Y-0041096D01*
X0110613Y-0041031D01*
X0110610Y-0040960D01*
Y-0040957D01*
Y-0040951D01*
Y-0040935D01*
X0110613Y-0040920D01*
Y-0040898D01*
X0110616Y-0040873D01*
X0110622Y-0040818D01*
X0110635Y-0040753D01*
X0110653Y-0040682D01*
X0110681Y-0040611D01*
X0110715Y-0040543D01*
Y-0040540D01*
X0110721Y-0040534D01*
X0110727Y-0040524D01*
X0110733Y-0040512D01*
X0110758Y-0040481D01*
X0110789Y-0040438D01*
X0110829Y-0040391D01*
X0110875Y-0040342D01*
X0110928Y-0040296D01*
X0110990Y-0040249D01*
X0110993D01*
X0110999Y-0040243D01*
X0111008Y-0040237D01*
X0111021Y-0040231D01*
X0111036Y-0040221D01*
X0111055Y-0040209D01*
X0111104Y-0040184D01*
X0111163Y-0040157D01*
X0111228Y-0040129D01*
X0111302Y-0040101D01*
X0111382Y-0040079D01*
X0111385D01*
X0111392Y-0040076D01*
X0111404Y-0040073D01*
X0111419Y-0040070D01*
X0111441Y-0040067D01*
X0111463Y-0040061D01*
X0111490Y-0040055D01*
X0111521Y-0040048D01*
X0111589Y-0040039D01*
X0111663Y-0040030D01*
X0111747Y-0040024D01*
X0111830Y-0040021D01*
X0111880D01*
X0111914Y-0040024D01*
D02*
G37*
G36*
X0119679Y-0043593D02*
X0119277D01*
Y-0043169D01*
X0119268D01*
X0119265Y-0043176D01*
X0119256Y-0043191D01*
X0119237Y-0043213D01*
X0119216Y-0043244D01*
X0119185Y-0043281D01*
X0119151Y-0043321D01*
X0119107Y-0043364D01*
X0119055Y-0043410D01*
X0118999Y-0043457D01*
X0118934Y-0043500D01*
X0118863Y-0043540D01*
X0118786Y-0043577D01*
X0118702Y-0043608D01*
X0118610Y-0043630D01*
X0118511Y-0043645D01*
X0118406Y-0043651D01*
X0118384D01*
X0118359Y-0043648D01*
X0118329Y-0043645D01*
X0118289Y-0043642D01*
X0118242Y-0043633D01*
X0118190Y-0043624D01*
X0118134Y-0043608D01*
X0118075Y-0043593D01*
X0118013Y-0043568D01*
X0117952Y-0043543D01*
X0117887Y-0043509D01*
X0117825Y-0043472D01*
X0117763Y-0043426D01*
X0117704Y-0043373D01*
X0117649Y-0043314D01*
X0117646Y-0043312D01*
X0117637Y-0043299D01*
X0117624Y-0043281D01*
X0117606Y-0043253D01*
X0117584Y-0043219D01*
X0117559Y-0043179D01*
X0117534Y-0043129D01*
X0117510Y-0043073D01*
X0117482Y-0043012D01*
X0117457Y-0042944D01*
X0117432Y-0042867D01*
X0117411Y-0042786D01*
X0117392Y-0042700D01*
X0117380Y-0042604D01*
X0117371Y-0042505D01*
X0117368Y-0042400D01*
Y-0042397D01*
Y-0042394D01*
Y-0042384D01*
Y-0042372D01*
X0117371Y-0042341D01*
X0117374Y-0042298D01*
X0117377Y-0042242D01*
X0117383Y-0042184D01*
X0117392Y-0042116D01*
X0117408Y-0042042D01*
X0117423Y-0041964D01*
X0117445Y-0041881D01*
X0117470Y-0041800D01*
X0117500Y-0041714D01*
X0117534Y-0041634D01*
X0117578Y-0041553D01*
X0117624Y-0041476D01*
X0117680Y-0041402D01*
X0117683Y-0041399D01*
X0117695Y-0041386D01*
X0117714Y-0041368D01*
X0117738Y-0041343D01*
X0117769Y-0041315D01*
X0117806Y-0041281D01*
X0117853Y-0041247D01*
X0117902Y-0041213D01*
X0117961Y-0041179D01*
X0118023Y-0041145D01*
X0118091Y-0041111D01*
X0118165Y-0041084D01*
X0118245Y-0041059D01*
X0118332Y-0041040D01*
X0118421Y-0041028D01*
X0118517Y-0041025D01*
X0118539D01*
X0118567Y-0041028D01*
X0118600Y-0041031D01*
X0118644Y-0041037D01*
X0118693Y-0041047D01*
X0118746Y-0041059D01*
X0118805Y-0041074D01*
X0118866Y-0041096D01*
X0118928Y-0041124D01*
X0118990Y-0041158D01*
X0119052Y-0041198D01*
X0119110Y-0041244D01*
X0119169Y-0041297D01*
X0119222Y-0041362D01*
X0119268Y-0041433D01*
X0119277D01*
Y-0039878D01*
X0119679D01*
Y-0043593D01*
D02*
G37*
G36*
X0136331Y-0041028D02*
X0136359D01*
X0136393Y-0041031D01*
X0136430Y-0041034D01*
X0136470Y-0041040D01*
X0136563Y-0041053D01*
X0136659Y-0041074D01*
X0136760Y-0041102D01*
X0136859Y-0041139D01*
Y-0041547D01*
X0136856Y-0041544D01*
X0136847Y-0041538D01*
X0136831Y-0041532D01*
X0136810Y-0041519D01*
X0136785Y-0041504D01*
X0136754Y-0041488D01*
X0136717Y-0041473D01*
X0136677Y-0041454D01*
X0136631Y-0041439D01*
X0136584Y-0041423D01*
X0136532Y-0041408D01*
X0136476Y-0041393D01*
X0136414Y-0041380D01*
X0136353Y-0041374D01*
X0136291Y-0041368D01*
X0136223Y-0041365D01*
X0136183D01*
X0136155Y-0041368D01*
X0136124Y-0041371D01*
X0136090Y-0041377D01*
X0136019Y-0041393D01*
X0136016D01*
X0136003Y-0041396D01*
X0135988Y-0041402D01*
X0135966Y-0041411D01*
X0135917Y-0041433D01*
X0135864Y-0041464D01*
X0135861Y-0041467D01*
X0135855Y-0041473D01*
X0135843Y-0041482D01*
X0135827Y-0041495D01*
X0135793Y-0041528D01*
X0135762Y-0041575D01*
Y-0041578D01*
X0135756Y-0041587D01*
X0135753Y-0041600D01*
X0135747Y-0041618D01*
X0135741Y-0041637D01*
X0135735Y-0041661D01*
X0135731Y-0041689D01*
X0135728Y-0041717D01*
Y-0041720D01*
Y-0041732D01*
X0135731Y-0041751D01*
Y-0041776D01*
X0135738Y-0041800D01*
X0135744Y-0041828D01*
X0135750Y-0041856D01*
X0135762Y-0041884D01*
X0135766Y-0041887D01*
X0135769Y-0041896D01*
X0135778Y-0041909D01*
X0135790Y-0041924D01*
X0135806Y-0041939D01*
X0135821Y-0041961D01*
X0135868Y-0042001D01*
X0135871Y-0042004D01*
X0135880Y-0042011D01*
X0135895Y-0042020D01*
X0135914Y-0042032D01*
X0135939Y-0042044D01*
X0135966Y-0042060D01*
X0136000Y-0042079D01*
X0136034Y-0042094D01*
X0136037Y-0042097D01*
X0136053Y-0042100D01*
X0136071Y-0042109D01*
X0136099Y-0042119D01*
X0136133Y-0042134D01*
X0136170Y-0042150D01*
X0136211Y-0042165D01*
X0136257Y-0042184D01*
X0136260D01*
X0136263Y-0042187D01*
X0136272Y-0042190D01*
X0136285Y-0042193D01*
X0136316Y-0042205D01*
X0136356Y-0042224D01*
X0136402Y-0042242D01*
X0136455Y-0042264D01*
X0136507Y-0042289D01*
X0136556Y-0042313D01*
X0136560D01*
X0136563Y-0042316D01*
X0136578Y-0042326D01*
X0136603Y-0042338D01*
X0136634Y-0042357D01*
X0136671Y-0042381D01*
X0136708Y-0042406D01*
X0136745Y-0042437D01*
X0136782Y-0042468D01*
X0136785Y-0042471D01*
X0136798Y-0042483D01*
X0136813Y-0042499D01*
X0136835Y-0042524D01*
X0136856Y-0042551D01*
X0136881Y-0042585D01*
X0136903Y-0042622D01*
X0136924Y-0042663D01*
X0136927Y-0042669D01*
X0136934Y-0042681D01*
X0136940Y-0042706D01*
X0136949Y-0042737D01*
X0136958Y-0042774D01*
X0136968Y-0042817D01*
X0136971Y-0042867D01*
X0136974Y-0042922D01*
Y-0042925D01*
Y-0042931D01*
Y-0042941D01*
Y-0042953D01*
X0136971Y-0042987D01*
X0136964Y-0043033D01*
X0136952Y-0043083D01*
X0136940Y-0043138D01*
X0136918Y-0043194D01*
X0136890Y-0043247D01*
X0136887Y-0043253D01*
X0136875Y-0043268D01*
X0136856Y-0043293D01*
X0136831Y-0043327D01*
X0136801Y-0043361D01*
X0136764Y-0043401D01*
X0136720Y-0043438D01*
X0136671Y-0043475D01*
X0136665Y-0043478D01*
X0136646Y-0043491D01*
X0136618Y-0043506D01*
X0136581Y-0043525D01*
X0136535Y-0043546D01*
X0136479Y-0043568D01*
X0136421Y-0043590D01*
X0136356Y-0043608D01*
X0136353D01*
X0136346Y-0043611D01*
X0136337D01*
X0136325Y-0043614D01*
X0136309Y-0043617D01*
X0136291Y-0043620D01*
X0136244Y-0043630D01*
X0136186Y-0043639D01*
X0136124Y-0043645D01*
X0136056Y-0043648D01*
X0135982Y-0043651D01*
X0135945D01*
X0135917Y-0043648D01*
X0135883D01*
X0135846Y-0043642D01*
X0135800Y-0043639D01*
X0135753Y-0043633D01*
X0135701Y-0043624D01*
X0135648Y-0043614D01*
X0135537Y-0043590D01*
X0135423Y-0043553D01*
X0135367Y-0043528D01*
X0135311Y-0043503D01*
Y-0043073D01*
X0135314Y-0043077D01*
X0135327Y-0043083D01*
X0135345Y-0043095D01*
X0135370Y-0043111D01*
X0135401Y-0043129D01*
X0135435Y-0043151D01*
X0135478Y-0043172D01*
X0135524Y-0043194D01*
X0135577Y-0043216D01*
X0135633Y-0043237D01*
X0135691Y-0043259D01*
X0135753Y-0043277D01*
X0135821Y-0043293D01*
X0135889Y-0043305D01*
X0135960Y-0043312D01*
X0136034Y-0043314D01*
X0136056D01*
X0136084Y-0043312D01*
X0136118Y-0043308D01*
X0136158Y-0043302D01*
X0136201Y-0043296D01*
X0136251Y-0043284D01*
X0136300Y-0043271D01*
X0136346Y-0043253D01*
X0136396Y-0043228D01*
X0136439Y-0043200D01*
X0136479Y-0043166D01*
X0136513Y-0043126D01*
X0136541Y-0043080D01*
X0136556Y-0043024D01*
X0136563Y-0042993D01*
Y-0042962D01*
Y-0042959D01*
Y-0042944D01*
X0136560Y-0042925D01*
X0136556Y-0042904D01*
X0136550Y-0042876D01*
X0136544Y-0042848D01*
X0136532Y-0042820D01*
X0136516Y-0042792D01*
X0136513Y-0042789D01*
X0136507Y-0042780D01*
X0136498Y-0042768D01*
X0136486Y-0042749D01*
X0136467Y-0042731D01*
X0136448Y-0042709D01*
X0136424Y-0042690D01*
X0136396Y-0042669D01*
X0136393Y-0042666D01*
X0136383Y-0042660D01*
X0136365Y-0042650D01*
X0136343Y-0042635D01*
X0136319Y-0042619D01*
X0136288Y-0042604D01*
X0136251Y-0042588D01*
X0136214Y-0042573D01*
X0136207Y-0042570D01*
X0136195Y-0042567D01*
X0136173Y-0042557D01*
X0136146Y-0042545D01*
X0136115Y-0042530D01*
X0136074Y-0042514D01*
X0136034Y-0042499D01*
X0135991Y-0042480D01*
X0135988D01*
X0135985Y-0042477D01*
X0135976Y-0042474D01*
X0135963Y-0042468D01*
X0135932Y-0042456D01*
X0135892Y-0042440D01*
X0135846Y-0042418D01*
X0135796Y-0042397D01*
X0135747Y-0042372D01*
X0135697Y-0042347D01*
X0135691Y-0042344D01*
X0135676Y-0042335D01*
X0135654Y-0042323D01*
X0135623Y-0042304D01*
X0135589Y-0042279D01*
X0135555Y-0042255D01*
X0135518Y-0042227D01*
X0135484Y-0042196D01*
X0135481Y-0042193D01*
X0135472Y-0042180D01*
X0135457Y-0042165D01*
X0135438Y-0042140D01*
X0135416Y-0042112D01*
X0135395Y-0042079D01*
X0135376Y-0042044D01*
X0135358Y-0042004D01*
X0135354Y-0041998D01*
X0135351Y-0041986D01*
X0135345Y-0041961D01*
X0135339Y-0041933D01*
X0135330Y-0041896D01*
X0135324Y-0041853D01*
X0135320Y-0041804D01*
X0135318Y-0041751D01*
Y-0041748D01*
Y-0041742D01*
Y-0041732D01*
Y-0041720D01*
X0135320Y-0041689D01*
X0135327Y-0041646D01*
X0135336Y-0041596D01*
X0135351Y-0041544D01*
X0135370Y-0041491D01*
X0135398Y-0041439D01*
Y-0041436D01*
X0135401Y-0041433D01*
X0135413Y-0041417D01*
X0135432Y-0041393D01*
X0135453Y-0041359D01*
X0135484Y-0041325D01*
X0135521Y-0041287D01*
X0135565Y-0041247D01*
X0135611Y-0041213D01*
X0135614D01*
X0135617Y-0041210D01*
X0135636Y-0041198D01*
X0135663Y-0041182D01*
X0135701Y-0041161D01*
X0135747Y-0041139D01*
X0135800Y-0041115D01*
X0135858Y-0041093D01*
X0135920Y-0041074D01*
X0135923D01*
X0135929Y-0041071D01*
X0135939Y-0041068D01*
X0135951Y-0041065D01*
X0135966Y-0041062D01*
X0135985Y-0041059D01*
X0136028Y-0041050D01*
X0136084Y-0041040D01*
X0136143Y-0041031D01*
X0136207Y-0041028D01*
X0136275Y-0041025D01*
X0136306D01*
X0136331Y-0041028D01*
D02*
G37*
G36*
X0132988D02*
X0133015D01*
X0133049Y-0041031D01*
X0133087Y-0041034D01*
X0133127Y-0041040D01*
X0133219Y-0041053D01*
X0133315Y-0041074D01*
X0133417Y-0041102D01*
X0133516Y-0041139D01*
Y-0041547D01*
X0133513Y-0041544D01*
X0133504Y-0041538D01*
X0133488Y-0041532D01*
X0133466Y-0041519D01*
X0133442Y-0041504D01*
X0133411Y-0041488D01*
X0133374Y-0041473D01*
X0133334Y-0041454D01*
X0133287Y-0041439D01*
X0133241Y-0041423D01*
X0133188Y-0041408D01*
X0133133Y-0041393D01*
X0133071Y-0041380D01*
X0133009Y-0041374D01*
X0132947Y-0041368D01*
X0132879Y-0041365D01*
X0132839D01*
X0132811Y-0041368D01*
X0132781Y-0041371D01*
X0132747Y-0041377D01*
X0132676Y-0041393D01*
X0132672D01*
X0132660Y-0041396D01*
X0132645Y-0041402D01*
X0132623Y-0041411D01*
X0132573Y-0041433D01*
X0132521Y-0041464D01*
X0132518Y-0041467D01*
X0132512Y-0041473D01*
X0132499Y-0041482D01*
X0132484Y-0041495D01*
X0132450Y-0041528D01*
X0132419Y-0041575D01*
Y-0041578D01*
X0132413Y-0041587D01*
X0132410Y-0041600D01*
X0132404Y-0041618D01*
X0132397Y-0041637D01*
X0132391Y-0041661D01*
X0132388Y-0041689D01*
X0132385Y-0041717D01*
Y-0041720D01*
Y-0041732D01*
X0132388Y-0041751D01*
Y-0041776D01*
X0132394Y-0041800D01*
X0132401Y-0041828D01*
X0132407Y-0041856D01*
X0132419Y-0041884D01*
X0132422Y-0041887D01*
X0132425Y-0041896D01*
X0132434Y-0041909D01*
X0132447Y-0041924D01*
X0132462Y-0041939D01*
X0132478Y-0041961D01*
X0132524Y-0042001D01*
X0132527Y-0042004D01*
X0132536Y-0042011D01*
X0132552Y-0042020D01*
X0132570Y-0042032D01*
X0132595Y-0042044D01*
X0132623Y-0042060D01*
X0132657Y-0042079D01*
X0132691Y-0042094D01*
X0132694Y-0042097D01*
X0132710Y-0042100D01*
X0132728Y-0042109D01*
X0132756Y-0042119D01*
X0132790Y-0042134D01*
X0132827Y-0042150D01*
X0132867Y-0042165D01*
X0132913Y-0042184D01*
X0132916D01*
X0132920Y-0042187D01*
X0132929Y-0042190D01*
X0132941Y-0042193D01*
X0132972Y-0042205D01*
X0133012Y-0042224D01*
X0133059Y-0042242D01*
X0133111Y-0042264D01*
X0133164Y-0042289D01*
X0133213Y-0042313D01*
X0133216D01*
X0133219Y-0042316D01*
X0133235Y-0042326D01*
X0133259Y-0042338D01*
X0133290Y-0042357D01*
X0133327Y-0042381D01*
X0133365Y-0042406D01*
X0133402Y-0042437D01*
X0133439Y-0042468D01*
X0133442Y-0042471D01*
X0133454Y-0042483D01*
X0133470Y-0042499D01*
X0133491Y-0042524D01*
X0133513Y-0042551D01*
X0133538Y-0042585D01*
X0133559Y-0042622D01*
X0133581Y-0042663D01*
X0133584Y-0042669D01*
X0133590Y-0042681D01*
X0133596Y-0042706D01*
X0133606Y-0042737D01*
X0133615Y-0042774D01*
X0133624Y-0042817D01*
X0133627Y-0042867D01*
X0133630Y-0042922D01*
Y-0042925D01*
Y-0042931D01*
Y-0042941D01*
Y-0042953D01*
X0133627Y-0042987D01*
X0133621Y-0043033D01*
X0133609Y-0043083D01*
X0133596Y-0043138D01*
X0133575Y-0043194D01*
X0133547Y-0043247D01*
X0133544Y-0043253D01*
X0133531Y-0043268D01*
X0133513Y-0043293D01*
X0133488Y-0043327D01*
X0133457Y-0043361D01*
X0133420Y-0043401D01*
X0133377Y-0043438D01*
X0133327Y-0043475D01*
X0133321Y-0043478D01*
X0133303Y-0043491D01*
X0133275Y-0043506D01*
X0133238Y-0043525D01*
X0133192Y-0043546D01*
X0133136Y-0043568D01*
X0133077Y-0043590D01*
X0133012Y-0043608D01*
X0133009D01*
X0133003Y-0043611D01*
X0132994D01*
X0132981Y-0043614D01*
X0132966Y-0043617D01*
X0132947Y-0043620D01*
X0132901Y-0043630D01*
X0132842Y-0043639D01*
X0132781Y-0043645D01*
X0132713Y-0043648D01*
X0132638Y-0043651D01*
X0132601D01*
X0132573Y-0043648D01*
X0132539D01*
X0132502Y-0043642D01*
X0132456Y-0043639D01*
X0132410Y-0043633D01*
X0132357Y-0043624D01*
X0132305Y-0043614D01*
X0132194Y-0043590D01*
X0132079Y-0043553D01*
X0132024Y-0043528D01*
X0131968Y-0043503D01*
Y-0043073D01*
X0131971Y-0043077D01*
X0131983Y-0043083D01*
X0132002Y-0043095D01*
X0132027Y-0043111D01*
X0132057Y-0043129D01*
X0132091Y-0043151D01*
X0132135Y-0043172D01*
X0132181Y-0043194D01*
X0132234Y-0043216D01*
X0132289Y-0043237D01*
X0132348Y-0043259D01*
X0132410Y-0043277D01*
X0132478Y-0043293D01*
X0132546Y-0043305D01*
X0132617Y-0043312D01*
X0132691Y-0043314D01*
X0132713D01*
X0132740Y-0043312D01*
X0132774Y-0043308D01*
X0132815Y-0043302D01*
X0132858Y-0043296D01*
X0132907Y-0043284D01*
X0132957Y-0043271D01*
X0133003Y-0043253D01*
X0133053Y-0043228D01*
X0133096Y-0043200D01*
X0133136Y-0043166D01*
X0133170Y-0043126D01*
X0133198Y-0043080D01*
X0133213Y-0043024D01*
X0133219Y-0042993D01*
Y-0042962D01*
Y-0042959D01*
Y-0042944D01*
X0133216Y-0042925D01*
X0133213Y-0042904D01*
X0133207Y-0042876D01*
X0133201Y-0042848D01*
X0133188Y-0042820D01*
X0133173Y-0042792D01*
X0133170Y-0042789D01*
X0133164Y-0042780D01*
X0133154Y-0042768D01*
X0133142Y-0042749D01*
X0133124Y-0042731D01*
X0133105Y-0042709D01*
X0133080Y-0042690D01*
X0133053Y-0042669D01*
X0133049Y-0042666D01*
X0133040Y-0042660D01*
X0133022Y-0042650D01*
X0133000Y-0042635D01*
X0132975Y-0042619D01*
X0132944Y-0042604D01*
X0132907Y-0042588D01*
X0132870Y-0042573D01*
X0132864Y-0042570D01*
X0132852Y-0042567D01*
X0132830Y-0042557D01*
X0132802Y-0042545D01*
X0132771Y-0042530D01*
X0132731Y-0042514D01*
X0132691Y-0042499D01*
X0132648Y-0042480D01*
X0132645D01*
X0132641Y-0042477D01*
X0132632Y-0042474D01*
X0132620Y-0042468D01*
X0132589Y-0042456D01*
X0132549Y-0042440D01*
X0132502Y-0042418D01*
X0132453Y-0042397D01*
X0132404Y-0042372D01*
X0132354Y-0042347D01*
X0132348Y-0042344D01*
X0132333Y-0042335D01*
X0132311Y-0042323D01*
X0132280Y-0042304D01*
X0132246Y-0042279D01*
X0132212Y-0042255D01*
X0132175Y-0042227D01*
X0132141Y-0042196D01*
X0132138Y-0042193D01*
X0132129Y-0042180D01*
X0132113Y-0042165D01*
X0132095Y-0042140D01*
X0132073Y-0042112D01*
X0132051Y-0042079D01*
X0132033Y-0042044D01*
X0132014Y-0042004D01*
X0132011Y-0041998D01*
X0132008Y-0041986D01*
X0132002Y-0041961D01*
X0131996Y-0041933D01*
X0131986Y-0041896D01*
X0131980Y-0041853D01*
X0131977Y-0041804D01*
X0131974Y-0041751D01*
Y-0041748D01*
Y-0041742D01*
Y-0041732D01*
Y-0041720D01*
X0131977Y-0041689D01*
X0131983Y-0041646D01*
X0131993Y-0041596D01*
X0132008Y-0041544D01*
X0132027Y-0041491D01*
X0132054Y-0041439D01*
Y-0041436D01*
X0132057Y-0041433D01*
X0132070Y-0041417D01*
X0132088Y-0041393D01*
X0132110Y-0041359D01*
X0132141Y-0041325D01*
X0132178Y-0041287D01*
X0132221Y-0041247D01*
X0132268Y-0041213D01*
X0132271D01*
X0132274Y-0041210D01*
X0132292Y-0041198D01*
X0132320Y-0041182D01*
X0132357Y-0041161D01*
X0132404Y-0041139D01*
X0132456Y-0041115D01*
X0132515Y-0041093D01*
X0132577Y-0041074D01*
X0132580D01*
X0132586Y-0041071D01*
X0132595Y-0041068D01*
X0132607Y-0041065D01*
X0132623Y-0041062D01*
X0132641Y-0041059D01*
X0132685Y-0041050D01*
X0132740Y-0041040D01*
X0132799Y-0041031D01*
X0132864Y-0041028D01*
X0132932Y-0041025D01*
X0132963D01*
X0132988Y-0041028D01*
D02*
G37*
G36*
X0107789D02*
X0107807D01*
X0107829Y-0041031D01*
X0107881Y-0041040D01*
X0107943Y-0041056D01*
X0108014Y-0041077D01*
X0108088Y-0041111D01*
X0108166Y-0041151D01*
X0108206Y-0041179D01*
X0108243Y-0041207D01*
X0108280Y-0041238D01*
X0108317Y-0041275D01*
X0108354Y-0041315D01*
X0108388Y-0041359D01*
X0108419Y-0041405D01*
X0108450Y-0041458D01*
X0108478Y-0041513D01*
X0108502Y-0041575D01*
X0108524Y-0041640D01*
X0108546Y-0041711D01*
X0108558Y-0041785D01*
X0108570Y-0041868D01*
X0108577Y-0041955D01*
X0108580Y-0042048D01*
Y-0043593D01*
X0108178D01*
Y-0042153D01*
Y-0042147D01*
Y-0042134D01*
Y-0042112D01*
X0108175Y-0042085D01*
Y-0042051D01*
X0108172Y-0042011D01*
X0108169Y-0041967D01*
X0108162Y-0041921D01*
X0108147Y-0041822D01*
X0108122Y-0041723D01*
X0108110Y-0041674D01*
X0108091Y-0041631D01*
X0108070Y-0041587D01*
X0108048Y-0041550D01*
Y-0041547D01*
X0108042Y-0041541D01*
X0108036Y-0041532D01*
X0108024Y-0041522D01*
X0108011Y-0041507D01*
X0107993Y-0041491D01*
X0107971Y-0041476D01*
X0107946Y-0041458D01*
X0107918Y-0041439D01*
X0107887Y-0041423D01*
X0107850Y-0041408D01*
X0107813Y-0041393D01*
X0107770Y-0041383D01*
X0107721Y-0041374D01*
X0107671Y-0041368D01*
X0107616Y-0041365D01*
X0107591D01*
X0107572Y-0041368D01*
X0107551Y-0041371D01*
X0107526Y-0041377D01*
X0107464Y-0041393D01*
X0107430Y-0041405D01*
X0107396Y-0041423D01*
X0107359Y-0041442D01*
X0107325Y-0041464D01*
X0107288Y-0041491D01*
X0107251Y-0041522D01*
X0107214Y-0041559D01*
X0107180Y-0041600D01*
X0107177Y-0041603D01*
X0107174Y-0041609D01*
X0107165Y-0041624D01*
X0107152Y-0041640D01*
X0107140Y-0041664D01*
X0107124Y-0041692D01*
X0107106Y-0041723D01*
X0107090Y-0041757D01*
X0107075Y-0041797D01*
X0107056Y-0041841D01*
X0107041Y-0041887D01*
X0107028Y-0041936D01*
X0107016Y-0041989D01*
X0107010Y-0042044D01*
X0107004Y-0042100D01*
X0107001Y-0042162D01*
Y-0043593D01*
X0106599D01*
Y-0042103D01*
Y-0042100D01*
Y-0042094D01*
Y-0042085D01*
Y-0042072D01*
X0106596Y-0042054D01*
Y-0042035D01*
X0106590Y-0041989D01*
X0106580Y-0041933D01*
X0106568Y-0041868D01*
X0106553Y-0041804D01*
X0106528Y-0041732D01*
X0106497Y-0041664D01*
X0106460Y-0041600D01*
X0106414Y-0041535D01*
X0106358Y-0041479D01*
X0106293Y-0041433D01*
X0106256Y-0041414D01*
X0106216Y-0041396D01*
X0106173Y-0041383D01*
X0106129Y-0041374D01*
X0106080Y-0041368D01*
X0106027Y-0041365D01*
X0106003D01*
X0105984Y-0041368D01*
X0105959Y-0041371D01*
X0105935Y-0041377D01*
X0105873Y-0041393D01*
X0105839Y-0041405D01*
X0105805Y-0041420D01*
X0105768Y-0041436D01*
X0105731Y-0041458D01*
X0105694Y-0041485D01*
X0105657Y-0041513D01*
X0105623Y-0041547D01*
X0105589Y-0041587D01*
X0105586Y-0041590D01*
X0105582Y-0041596D01*
X0105573Y-0041609D01*
X0105561Y-0041627D01*
X0105548Y-0041649D01*
X0105536Y-0041674D01*
X0105521Y-0041705D01*
X0105505Y-0041742D01*
X0105487Y-0041782D01*
X0105471Y-0041825D01*
X0105459Y-0041872D01*
X0105446Y-0041921D01*
X0105434Y-0041977D01*
X0105425Y-0042035D01*
X0105422Y-0042097D01*
X0105419Y-0042162D01*
Y-0043593D01*
X0105017D01*
Y-0041084D01*
X0105419D01*
Y-0041482D01*
X0105428D01*
X0105431Y-0041476D01*
X0105440Y-0041464D01*
X0105456Y-0041439D01*
X0105477Y-0041411D01*
X0105505Y-0041377D01*
X0105539Y-0041337D01*
X0105579Y-0041297D01*
X0105626Y-0041254D01*
X0105678Y-0041210D01*
X0105737Y-0041170D01*
X0105802Y-0041130D01*
X0105870Y-0041096D01*
X0105947Y-0041068D01*
X0106030Y-0041043D01*
X0106117Y-0041031D01*
X0106210Y-0041025D01*
X0106234D01*
X0106253Y-0041028D01*
X0106274D01*
X0106302Y-0041031D01*
X0106330Y-0041037D01*
X0106361Y-0041043D01*
X0106432Y-0041059D01*
X0106506Y-0041087D01*
X0106580Y-0041121D01*
X0106617Y-0041145D01*
X0106655Y-0041170D01*
X0106658Y-0041173D01*
X0106664Y-0041176D01*
X0106673Y-0041186D01*
X0106685Y-0041195D01*
X0106720Y-0041229D01*
X0106760Y-0041269D01*
X0106803Y-0041325D01*
X0106846Y-0041390D01*
X0106886Y-0041464D01*
X0106917Y-0041547D01*
X0106920Y-0041541D01*
X0106930Y-0041525D01*
X0106948Y-0041498D01*
X0106970Y-0041467D01*
X0107001Y-0041427D01*
X0107035Y-0041380D01*
X0107078Y-0041334D01*
X0107127Y-0041284D01*
X0107183Y-0041238D01*
X0107245Y-0041189D01*
X0107313Y-0041145D01*
X0107387Y-0041105D01*
X0107470Y-0041074D01*
X0107557Y-0041047D01*
X0107653Y-0041031D01*
X0107752Y-0041025D01*
X0107773D01*
X0107789Y-0041028D01*
D02*
G37*
G36*
X0128875Y-0041043D02*
X0128909D01*
X0128946Y-0041050D01*
X0128986Y-0041056D01*
X0129026Y-0041062D01*
X0129060Y-0041074D01*
Y-0041491D01*
X0129054Y-0041488D01*
X0129042Y-0041479D01*
X0129017Y-0041467D01*
X0128983Y-0041451D01*
X0128937Y-0041436D01*
X0128887Y-0041423D01*
X0128825Y-0041414D01*
X0128754Y-0041411D01*
X0128730D01*
X0128711Y-0041414D01*
X0128689Y-0041417D01*
X0128665Y-0041423D01*
X0128606Y-0041442D01*
X0128572Y-0041454D01*
X0128538Y-0041470D01*
X0128501Y-0041491D01*
X0128464Y-0041513D01*
X0128430Y-0041541D01*
X0128393Y-0041575D01*
X0128359Y-0041612D01*
X0128325Y-0041655D01*
X0128322Y-0041658D01*
X0128319Y-0041668D01*
X0128309Y-0041680D01*
X0128297Y-0041699D01*
X0128285Y-0041723D01*
X0128269Y-0041754D01*
X0128254Y-0041788D01*
X0128238Y-0041828D01*
X0128223Y-0041872D01*
X0128207Y-0041921D01*
X0128192Y-0041977D01*
X0128180Y-0042035D01*
X0128167Y-0042100D01*
X0128158Y-0042168D01*
X0128155Y-0042239D01*
X0128152Y-0042316D01*
Y-0043593D01*
X0127750D01*
Y-0041084D01*
X0128152D01*
Y-0041603D01*
X0128161D01*
Y-0041600D01*
X0128164Y-0041590D01*
X0128170Y-0041578D01*
X0128176Y-0041559D01*
X0128186Y-0041538D01*
X0128198Y-0041510D01*
X0128226Y-0041451D01*
X0128263Y-0041383D01*
X0128309Y-0041315D01*
X0128362Y-0041250D01*
X0128424Y-0041189D01*
X0128427Y-0041186D01*
X0128433Y-0041182D01*
X0128442Y-0041176D01*
X0128455Y-0041164D01*
X0128470Y-0041155D01*
X0128492Y-0041142D01*
X0128538Y-0041115D01*
X0128597Y-0041087D01*
X0128665Y-0041062D01*
X0128739Y-0041047D01*
X0128779Y-0041043D01*
X0128819Y-0041040D01*
X0128844D01*
X0128875Y-0041043D01*
D02*
G37*
G36*
X0124240D02*
X0124274D01*
X0124311Y-0041050D01*
X0124351Y-0041056D01*
X0124391Y-0041062D01*
X0124425Y-0041074D01*
Y-0041491D01*
X0124419Y-0041488D01*
X0124407Y-0041479D01*
X0124382Y-0041467D01*
X0124348Y-0041451D01*
X0124302Y-0041436D01*
X0124252Y-0041423D01*
X0124190Y-0041414D01*
X0124119Y-0041411D01*
X0124095D01*
X0124076Y-0041414D01*
X0124054Y-0041417D01*
X0124030Y-0041423D01*
X0123971Y-0041442D01*
X0123937Y-0041454D01*
X0123903Y-0041470D01*
X0123866Y-0041491D01*
X0123829Y-0041513D01*
X0123795Y-0041541D01*
X0123758Y-0041575D01*
X0123724Y-0041612D01*
X0123690Y-0041655D01*
X0123687Y-0041658D01*
X0123684Y-0041668D01*
X0123674Y-0041680D01*
X0123662Y-0041699D01*
X0123650Y-0041723D01*
X0123634Y-0041754D01*
X0123619Y-0041788D01*
X0123603Y-0041828D01*
X0123588Y-0041872D01*
X0123572Y-0041921D01*
X0123557Y-0041977D01*
X0123545Y-0042035D01*
X0123532Y-0042100D01*
X0123523Y-0042168D01*
X0123520Y-0042239D01*
X0123517Y-0042316D01*
Y-0043593D01*
X0123115D01*
Y-0041084D01*
X0123517D01*
Y-0041603D01*
X0123526D01*
Y-0041600D01*
X0123529Y-0041590D01*
X0123535Y-0041578D01*
X0123541Y-0041559D01*
X0123551Y-0041538D01*
X0123563Y-0041510D01*
X0123591Y-0041451D01*
X0123628Y-0041383D01*
X0123674Y-0041315D01*
X0123727Y-0041250D01*
X0123789Y-0041189D01*
X0123792Y-0041186D01*
X0123798Y-0041182D01*
X0123807Y-0041176D01*
X0123820Y-0041164D01*
X0123835Y-0041155D01*
X0123857Y-0041142D01*
X0123903Y-0041115D01*
X0123962Y-0041087D01*
X0124030Y-0041062D01*
X0124104Y-0041047D01*
X0124144Y-0041043D01*
X0124184Y-0041040D01*
X0124209D01*
X0124240Y-0041043D01*
D02*
G37*
G36*
X0134650Y-0043593D02*
X0134248D01*
Y-0041084D01*
X0134650D01*
Y-0043593D01*
D02*
G37*
G36*
X0116725D02*
X0116323D01*
Y-0039878D01*
X0116725D01*
Y-0043593D01*
D02*
G37*
G36*
X0093989Y-0040082D02*
X0094026Y-0040086D01*
X0094069Y-0040092D01*
X0094118Y-0040098D01*
X0094174Y-0040107D01*
X0094230Y-0040119D01*
X0094288Y-0040135D01*
X0094350Y-0040154D01*
X0094409Y-0040175D01*
X0094471Y-0040200D01*
X0094526Y-0040231D01*
X0094582Y-0040265D01*
X0094634Y-0040305D01*
X0094638Y-0040308D01*
X0094647Y-0040314D01*
X0094659Y-0040326D01*
X0094675Y-0040345D01*
X0094696Y-0040367D01*
X0094718Y-0040394D01*
X0094743Y-0040425D01*
X0094767Y-0040459D01*
X0094792Y-0040499D01*
X0094817Y-0040543D01*
X0094839Y-0040592D01*
X0094860Y-0040642D01*
X0094876Y-0040697D01*
X0094888Y-0040756D01*
X0094897Y-0040818D01*
X0094900Y-0040883D01*
Y-0040886D01*
Y-0040895D01*
Y-0040911D01*
X0094897Y-0040932D01*
X0094894Y-0040960D01*
X0094891Y-0040988D01*
X0094888Y-0041022D01*
X0094882Y-0041059D01*
X0094860Y-0041142D01*
X0094832Y-0041229D01*
X0094814Y-0041275D01*
X0094792Y-0041318D01*
X0094767Y-0041362D01*
X0094740Y-0041405D01*
X0094736Y-0041408D01*
X0094733Y-0041414D01*
X0094724Y-0041427D01*
X0094709Y-0041442D01*
X0094693Y-0041458D01*
X0094675Y-0041479D01*
X0094650Y-0041501D01*
X0094625Y-0041525D01*
X0094594Y-0041550D01*
X0094560Y-0041578D01*
X0094523Y-0041603D01*
X0094483Y-0041631D01*
X0094440Y-0041655D01*
X0094397Y-0041677D01*
X0094295Y-0041717D01*
Y-0041726D01*
X0094298D01*
X0094310Y-0041729D01*
X0094329Y-0041732D01*
X0094353Y-0041736D01*
X0094384Y-0041742D01*
X0094418Y-0041751D01*
X0094458Y-0041763D01*
X0094499Y-0041776D01*
X0094588Y-0041810D01*
X0094638Y-0041831D01*
X0094684Y-0041859D01*
X0094730Y-0041887D01*
X0094777Y-0041918D01*
X0094823Y-0041955D01*
X0094863Y-0041995D01*
X0094866Y-0041998D01*
X0094872Y-0042004D01*
X0094882Y-0042017D01*
X0094897Y-0042035D01*
X0094913Y-0042060D01*
X0094931Y-0042085D01*
X0094950Y-0042119D01*
X0094971Y-0042153D01*
X0094990Y-0042193D01*
X0095008Y-0042239D01*
X0095027Y-0042286D01*
X0095042Y-0042338D01*
X0095058Y-0042397D01*
X0095067Y-0042456D01*
X0095073Y-0042517D01*
X0095076Y-0042585D01*
Y-0042592D01*
Y-0042604D01*
X0095073Y-0042629D01*
X0095070Y-0042660D01*
X0095067Y-0042700D01*
X0095058Y-0042743D01*
X0095049Y-0042792D01*
X0095036Y-0042845D01*
X0095018Y-0042904D01*
X0094996Y-0042962D01*
X0094971Y-0043021D01*
X0094940Y-0043083D01*
X0094903Y-0043145D01*
X0094860Y-0043203D01*
X0094811Y-0043259D01*
X0094752Y-0043314D01*
X0094749Y-0043318D01*
X0094736Y-0043327D01*
X0094718Y-0043339D01*
X0094693Y-0043358D01*
X0094662Y-0043379D01*
X0094622Y-0043401D01*
X0094579Y-0043429D01*
X0094529Y-0043454D01*
X0094471Y-0043478D01*
X0094409Y-0043503D01*
X0094344Y-0043528D01*
X0094270Y-0043549D01*
X0094193Y-0043568D01*
X0094112Y-0043580D01*
X0094026Y-0043590D01*
X0093936Y-0043593D01*
X0092913D01*
Y-0040079D01*
X0093955D01*
X0093989Y-0040082D01*
D02*
G37*
G36*
X0138123Y-0041084D02*
X0138757D01*
Y-0041430D01*
X0138123D01*
Y-0042842D01*
Y-0042845D01*
Y-0042854D01*
Y-0042867D01*
Y-0042882D01*
X0138126Y-0042904D01*
X0138129Y-0042928D01*
X0138136Y-0042981D01*
X0138145Y-0043043D01*
X0138160Y-0043101D01*
X0138182Y-0043157D01*
X0138194Y-0043182D01*
X0138210Y-0043203D01*
X0138213Y-0043206D01*
X0138225Y-0043219D01*
X0138247Y-0043237D01*
X0138278Y-0043256D01*
X0138318Y-0043277D01*
X0138367Y-0043293D01*
X0138426Y-0043305D01*
X0138494Y-0043312D01*
X0138519D01*
X0138547Y-0043308D01*
X0138584Y-0043302D01*
X0138624Y-0043290D01*
X0138670Y-0043277D01*
X0138713Y-0043256D01*
X0138757Y-0043228D01*
Y-0043571D01*
X0138753D01*
X0138750Y-0043574D01*
X0138741Y-0043577D01*
X0138732Y-0043583D01*
X0138698Y-0043596D01*
X0138658Y-0043608D01*
X0138602Y-0043620D01*
X0138537Y-0043633D01*
X0138463Y-0043642D01*
X0138380Y-0043645D01*
X0138352D01*
X0138318Y-0043639D01*
X0138278Y-0043633D01*
X0138228Y-0043624D01*
X0138173Y-0043605D01*
X0138111Y-0043583D01*
X0138052Y-0043553D01*
X0137990Y-0043515D01*
X0137928Y-0043466D01*
X0137873Y-0043407D01*
X0137848Y-0043373D01*
X0137823Y-0043336D01*
X0137802Y-0043296D01*
X0137783Y-0043253D01*
X0137765Y-0043206D01*
X0137749Y-0043154D01*
X0137737Y-0043101D01*
X0137728Y-0043043D01*
X0137725Y-0042981D01*
X0137722Y-0042913D01*
Y-0041430D01*
X0137292D01*
Y-0041084D01*
X0137722D01*
Y-0040472D01*
X0138123Y-0040342D01*
Y-0041084D01*
D02*
G37*
G36*
X0100907D02*
X0101541D01*
Y-0041430D01*
X0100907D01*
Y-0042842D01*
Y-0042845D01*
Y-0042854D01*
Y-0042867D01*
Y-0042882D01*
X0100910Y-0042904D01*
X0100913Y-0042928D01*
X0100920Y-0042981D01*
X0100929Y-0043043D01*
X0100944Y-0043101D01*
X0100966Y-0043157D01*
X0100978Y-0043182D01*
X0100994Y-0043203D01*
X0100997Y-0043206D01*
X0101009Y-0043219D01*
X0101031Y-0043237D01*
X0101062Y-0043256D01*
X0101102Y-0043277D01*
X0101151Y-0043293D01*
X0101210Y-0043305D01*
X0101278Y-0043312D01*
X0101303D01*
X0101330Y-0043308D01*
X0101368Y-0043302D01*
X0101408Y-0043290D01*
X0101454Y-0043277D01*
X0101497Y-0043256D01*
X0101541Y-0043228D01*
Y-0043571D01*
X0101538D01*
X0101534Y-0043574D01*
X0101525Y-0043577D01*
X0101516Y-0043583D01*
X0101482Y-0043596D01*
X0101442Y-0043608D01*
X0101386Y-0043620D01*
X0101321Y-0043633D01*
X0101247Y-0043642D01*
X0101164Y-0043645D01*
X0101136D01*
X0101102Y-0043639D01*
X0101062Y-0043633D01*
X0101012Y-0043624D01*
X0100957Y-0043605D01*
X0100895Y-0043583D01*
X0100836Y-0043553D01*
X0100774Y-0043515D01*
X0100713Y-0043466D01*
X0100657Y-0043407D01*
X0100632Y-0043373D01*
X0100608Y-0043336D01*
X0100586Y-0043296D01*
X0100567Y-0043253D01*
X0100549Y-0043206D01*
X0100533Y-0043154D01*
X0100521Y-0043101D01*
X0100512Y-0043043D01*
X0100509Y-0042981D01*
X0100505Y-0042913D01*
Y-0041430D01*
X0100076D01*
Y-0041084D01*
X0100505D01*
Y-0040472D01*
X0100907Y-0040342D01*
Y-0041084D01*
D02*
G37*
G36*
X0099208D02*
X0099841D01*
Y-0041430D01*
X0099208D01*
Y-0042842D01*
Y-0042845D01*
Y-0042854D01*
Y-0042867D01*
Y-0042882D01*
X0099211Y-0042904D01*
X0099214Y-0042928D01*
X0099220Y-0042981D01*
X0099229Y-0043043D01*
X0099245Y-0043101D01*
X0099266Y-0043157D01*
X0099279Y-0043182D01*
X0099294Y-0043203D01*
X0099297Y-0043206D01*
X0099310Y-0043219D01*
X0099331Y-0043237D01*
X0099362Y-0043256D01*
X0099402Y-0043277D01*
X0099452Y-0043293D01*
X0099511Y-0043305D01*
X0099578Y-0043312D01*
X0099603D01*
X0099631Y-0043308D01*
X0099668Y-0043302D01*
X0099708Y-0043290D01*
X0099755Y-0043277D01*
X0099798Y-0043256D01*
X0099841Y-0043228D01*
Y-0043571D01*
X0099838D01*
X0099835Y-0043574D01*
X0099826Y-0043577D01*
X0099816Y-0043583D01*
X0099782Y-0043596D01*
X0099742Y-0043608D01*
X0099687Y-0043620D01*
X0099622Y-0043633D01*
X0099548Y-0043642D01*
X0099464Y-0043645D01*
X0099436D01*
X0099402Y-0043639D01*
X0099362Y-0043633D01*
X0099313Y-0043624D01*
X0099257Y-0043605D01*
X0099195Y-0043583D01*
X0099137Y-0043553D01*
X0099075Y-0043515D01*
X0099013Y-0043466D01*
X0098957Y-0043407D01*
X0098933Y-0043373D01*
X0098908Y-0043336D01*
X0098886Y-0043296D01*
X0098868Y-0043253D01*
X0098849Y-0043206D01*
X0098834Y-0043154D01*
X0098822Y-0043101D01*
X0098812Y-0043043D01*
X0098809Y-0042981D01*
X0098806Y-0042913D01*
Y-0041430D01*
X0098377D01*
Y-0041084D01*
X0098806D01*
Y-0040472D01*
X0099208Y-0040342D01*
Y-0041084D01*
D02*
G37*
G36*
X0130528Y-0041028D02*
X0130562Y-0041031D01*
X0130605Y-0041034D01*
X0130651Y-0041040D01*
X0130704Y-0041053D01*
X0130760Y-0041065D01*
X0130822Y-0041080D01*
X0130883Y-0041102D01*
X0130945Y-0041130D01*
X0131010Y-0041161D01*
X0131072Y-0041198D01*
X0131131Y-0041241D01*
X0131189Y-0041291D01*
X0131242Y-0041346D01*
X0131245Y-0041349D01*
X0131254Y-0041362D01*
X0131266Y-0041380D01*
X0131285Y-0041405D01*
X0131304Y-0041436D01*
X0131328Y-0041476D01*
X0131353Y-0041522D01*
X0131378Y-0041575D01*
X0131402Y-0041637D01*
X0131427Y-0041702D01*
X0131452Y-0041776D01*
X0131470Y-0041853D01*
X0131489Y-0041939D01*
X0131501Y-0042029D01*
X0131511Y-0042128D01*
X0131514Y-0042230D01*
Y-0042440D01*
X0129740D01*
Y-0042446D01*
Y-0042459D01*
X0129743Y-0042480D01*
X0129746Y-0042508D01*
X0129749Y-0042545D01*
X0129755Y-0042585D01*
X0129762Y-0042629D01*
X0129774Y-0042678D01*
X0129802Y-0042783D01*
X0129820Y-0042836D01*
X0129842Y-0042891D01*
X0129867Y-0042944D01*
X0129894Y-0042996D01*
X0129929Y-0043043D01*
X0129966Y-0043089D01*
X0129969Y-0043092D01*
X0129975Y-0043098D01*
X0129987Y-0043111D01*
X0130006Y-0043123D01*
X0130027Y-0043141D01*
X0130055Y-0043160D01*
X0130086Y-0043182D01*
X0130120Y-0043200D01*
X0130160Y-0043222D01*
X0130207Y-0043244D01*
X0130253Y-0043262D01*
X0130309Y-0043281D01*
X0130364Y-0043293D01*
X0130426Y-0043305D01*
X0130491Y-0043312D01*
X0130559Y-0043314D01*
X0130577D01*
X0130599Y-0043312D01*
X0130630D01*
X0130667Y-0043305D01*
X0130710Y-0043299D01*
X0130760Y-0043290D01*
X0130815Y-0043281D01*
X0130874Y-0043265D01*
X0130936Y-0043247D01*
X0131001Y-0043225D01*
X0131066Y-0043197D01*
X0131134Y-0043166D01*
X0131202Y-0043129D01*
X0131270Y-0043086D01*
X0131337Y-0043036D01*
Y-0043413D01*
X0131334Y-0043417D01*
X0131322Y-0043423D01*
X0131304Y-0043435D01*
X0131279Y-0043450D01*
X0131245Y-0043469D01*
X0131205Y-0043488D01*
X0131158Y-0043509D01*
X0131106Y-0043531D01*
X0131044Y-0043556D01*
X0130979Y-0043577D01*
X0130908Y-0043596D01*
X0130831Y-0043614D01*
X0130747Y-0043630D01*
X0130658Y-0043642D01*
X0130562Y-0043648D01*
X0130463Y-0043651D01*
X0130438D01*
X0130414Y-0043648D01*
X0130377Y-0043645D01*
X0130330Y-0043642D01*
X0130278Y-0043633D01*
X0130222Y-0043624D01*
X0130160Y-0043608D01*
X0130095Y-0043590D01*
X0130027Y-0043568D01*
X0129956Y-0043540D01*
X0129888Y-0043509D01*
X0129817Y-0043469D01*
X0129752Y-0043423D01*
X0129688Y-0043370D01*
X0129629Y-0043312D01*
X0129626Y-0043308D01*
X0129616Y-0043296D01*
X0129601Y-0043274D01*
X0129582Y-0043247D01*
X0129558Y-0043213D01*
X0129533Y-0043169D01*
X0129505Y-0043120D01*
X0129477Y-0043061D01*
X0129449Y-0042999D01*
X0129422Y-0042925D01*
X0129397Y-0042848D01*
X0129372Y-0042761D01*
X0129354Y-0042669D01*
X0129338Y-0042570D01*
X0129329Y-0042462D01*
X0129326Y-0042351D01*
Y-0042347D01*
Y-0042344D01*
Y-0042335D01*
Y-0042326D01*
X0129329Y-0042295D01*
X0129332Y-0042252D01*
X0129335Y-0042202D01*
X0129344Y-0042147D01*
X0129354Y-0042082D01*
X0129366Y-0042011D01*
X0129385Y-0041936D01*
X0129406Y-0041859D01*
X0129434Y-0041779D01*
X0129465Y-0041699D01*
X0129502Y-0041621D01*
X0129548Y-0041541D01*
X0129598Y-0041467D01*
X0129657Y-0041396D01*
X0129660Y-0041393D01*
X0129672Y-0041380D01*
X0129691Y-0041362D01*
X0129715Y-0041337D01*
X0129749Y-0041309D01*
X0129789Y-0041278D01*
X0129833Y-0041244D01*
X0129885Y-0041210D01*
X0129941Y-0041176D01*
X0130006Y-0041142D01*
X0130074Y-0041111D01*
X0130145Y-0041084D01*
X0130222Y-0041059D01*
X0130306Y-0041040D01*
X0130392Y-0041028D01*
X0130482Y-0041025D01*
X0130503D01*
X0130528Y-0041028D01*
D02*
G37*
G36*
X0121524D02*
X0121558Y-0041031D01*
X0121601Y-0041034D01*
X0121647Y-0041040D01*
X0121700Y-0041053D01*
X0121755Y-0041065D01*
X0121817Y-0041080D01*
X0121879Y-0041102D01*
X0121941Y-0041130D01*
X0122006Y-0041161D01*
X0122067Y-0041198D01*
X0122126Y-0041241D01*
X0122185Y-0041291D01*
X0122238Y-0041346D01*
X0122241Y-0041349D01*
X0122250Y-0041362D01*
X0122262Y-0041380D01*
X0122281Y-0041405D01*
X0122299Y-0041436D01*
X0122324Y-0041476D01*
X0122349Y-0041522D01*
X0122373Y-0041575D01*
X0122398Y-0041637D01*
X0122423Y-0041702D01*
X0122448Y-0041776D01*
X0122466Y-0041853D01*
X0122485Y-0041939D01*
X0122497Y-0042029D01*
X0122506Y-0042128D01*
X0122509Y-0042230D01*
Y-0042440D01*
X0120736D01*
Y-0042446D01*
Y-0042459D01*
X0120739Y-0042480D01*
X0120742Y-0042508D01*
X0120745Y-0042545D01*
X0120751Y-0042585D01*
X0120757Y-0042629D01*
X0120770Y-0042678D01*
X0120798Y-0042783D01*
X0120816Y-0042836D01*
X0120838Y-0042891D01*
X0120862Y-0042944D01*
X0120890Y-0042996D01*
X0120924Y-0043043D01*
X0120961Y-0043089D01*
X0120964Y-0043092D01*
X0120971Y-0043098D01*
X0120983Y-0043111D01*
X0121002Y-0043123D01*
X0121023Y-0043141D01*
X0121051Y-0043160D01*
X0121082Y-0043182D01*
X0121116Y-0043200D01*
X0121156Y-0043222D01*
X0121202Y-0043244D01*
X0121249Y-0043262D01*
X0121304Y-0043281D01*
X0121360Y-0043293D01*
X0121422Y-0043305D01*
X0121487Y-0043312D01*
X0121555Y-0043314D01*
X0121573D01*
X0121595Y-0043312D01*
X0121626D01*
X0121663Y-0043305D01*
X0121706Y-0043299D01*
X0121755Y-0043290D01*
X0121811Y-0043281D01*
X0121870Y-0043265D01*
X0121932Y-0043247D01*
X0121996Y-0043225D01*
X0122061Y-0043197D01*
X0122129Y-0043166D01*
X0122197Y-0043129D01*
X0122265Y-0043086D01*
X0122333Y-0043036D01*
Y-0043413D01*
X0122330Y-0043417D01*
X0122318Y-0043423D01*
X0122299Y-0043435D01*
X0122275Y-0043450D01*
X0122241Y-0043469D01*
X0122200Y-0043488D01*
X0122154Y-0043509D01*
X0122101Y-0043531D01*
X0122040Y-0043556D01*
X0121975Y-0043577D01*
X0121904Y-0043596D01*
X0121827Y-0043614D01*
X0121743Y-0043630D01*
X0121653Y-0043642D01*
X0121558Y-0043648D01*
X0121459Y-0043651D01*
X0121434D01*
X0121409Y-0043648D01*
X0121372Y-0043645D01*
X0121326Y-0043642D01*
X0121273Y-0043633D01*
X0121218Y-0043624D01*
X0121156Y-0043608D01*
X0121091Y-0043590D01*
X0121023Y-0043568D01*
X0120952Y-0043540D01*
X0120884Y-0043509D01*
X0120813Y-0043469D01*
X0120748Y-0043423D01*
X0120683Y-0043370D01*
X0120624Y-0043312D01*
X0120621Y-0043308D01*
X0120612Y-0043296D01*
X0120597Y-0043274D01*
X0120578Y-0043247D01*
X0120553Y-0043213D01*
X0120529Y-0043169D01*
X0120501Y-0043120D01*
X0120473Y-0043061D01*
X0120445Y-0042999D01*
X0120417Y-0042925D01*
X0120393Y-0042848D01*
X0120368Y-0042761D01*
X0120350Y-0042669D01*
X0120334Y-0042570D01*
X0120325Y-0042462D01*
X0120322Y-0042351D01*
Y-0042347D01*
Y-0042344D01*
Y-0042335D01*
Y-0042326D01*
X0120325Y-0042295D01*
X0120328Y-0042252D01*
X0120331Y-0042202D01*
X0120340Y-0042147D01*
X0120350Y-0042082D01*
X0120362Y-0042011D01*
X0120380Y-0041936D01*
X0120402Y-0041859D01*
X0120430Y-0041779D01*
X0120461Y-0041699D01*
X0120498Y-0041621D01*
X0120544Y-0041541D01*
X0120594Y-0041467D01*
X0120652Y-0041396D01*
X0120655Y-0041393D01*
X0120668Y-0041380D01*
X0120686Y-0041362D01*
X0120711Y-0041337D01*
X0120745Y-0041309D01*
X0120785Y-0041278D01*
X0120828Y-0041244D01*
X0120881Y-0041210D01*
X0120937Y-0041176D01*
X0121002Y-0041142D01*
X0121070Y-0041111D01*
X0121141Y-0041084D01*
X0121218Y-0041059D01*
X0121301Y-0041040D01*
X0121388Y-0041028D01*
X0121477Y-0041025D01*
X0121499D01*
X0121524Y-0041028D01*
D02*
G37*
G36*
X0114543D02*
X0114584Y-0041031D01*
X0114630Y-0041034D01*
X0114685Y-0041043D01*
X0114744Y-0041053D01*
X0114809Y-0041068D01*
X0114880Y-0041087D01*
X0114951Y-0041108D01*
X0115022Y-0041136D01*
X0115096Y-0041170D01*
X0115168Y-0041210D01*
X0115239Y-0041257D01*
X0115304Y-0041309D01*
X0115365Y-0041371D01*
X0115368Y-0041374D01*
X0115378Y-0041386D01*
X0115393Y-0041408D01*
X0115415Y-0041436D01*
X0115439Y-0041470D01*
X0115464Y-0041513D01*
X0115495Y-0041563D01*
X0115523Y-0041621D01*
X0115554Y-0041686D01*
X0115582Y-0041757D01*
X0115606Y-0041834D01*
X0115631Y-0041921D01*
X0115653Y-0042014D01*
X0115668Y-0042112D01*
X0115677Y-0042218D01*
X0115681Y-0042329D01*
Y-0042332D01*
Y-0042335D01*
Y-0042344D01*
Y-0042357D01*
X0115677Y-0042388D01*
X0115674Y-0042428D01*
X0115671Y-0042480D01*
X0115662Y-0042539D01*
X0115653Y-0042604D01*
X0115637Y-0042675D01*
X0115619Y-0042749D01*
X0115597Y-0042829D01*
X0115569Y-0042910D01*
X0115538Y-0042990D01*
X0115498Y-0043070D01*
X0115452Y-0043148D01*
X0115399Y-0043222D01*
X0115341Y-0043293D01*
X0115338Y-0043296D01*
X0115325Y-0043308D01*
X0115307Y-0043327D01*
X0115279Y-0043349D01*
X0115245Y-0043376D01*
X0115205Y-0043407D01*
X0115155Y-0043438D01*
X0115100Y-0043472D01*
X0115038Y-0043506D01*
X0114970Y-0043537D01*
X0114896Y-0043568D01*
X0114815Y-0043596D01*
X0114726Y-0043617D01*
X0114633Y-0043636D01*
X0114537Y-0043648D01*
X0114432Y-0043651D01*
X0114407D01*
X0114380Y-0043648D01*
X0114339Y-0043645D01*
X0114293Y-0043642D01*
X0114237Y-0043633D01*
X0114179Y-0043624D01*
X0114114Y-0043608D01*
X0114043Y-0043590D01*
X0113972Y-0043565D01*
X0113898Y-0043537D01*
X0113823Y-0043503D01*
X0113749Y-0043463D01*
X0113675Y-0043417D01*
X0113607Y-0043364D01*
X0113542Y-0043302D01*
X0113539Y-0043299D01*
X0113527Y-0043287D01*
X0113511Y-0043265D01*
X0113490Y-0043237D01*
X0113465Y-0043203D01*
X0113437Y-0043160D01*
X0113409Y-0043111D01*
X0113378Y-0043052D01*
X0113348Y-0042990D01*
X0113317Y-0042919D01*
X0113289Y-0042842D01*
X0113264Y-0042758D01*
X0113242Y-0042672D01*
X0113227Y-0042576D01*
X0113215Y-0042474D01*
X0113212Y-0042369D01*
Y-0042366D01*
Y-0042363D01*
Y-0042354D01*
Y-0042341D01*
X0113215Y-0042307D01*
X0113218Y-0042264D01*
X0113221Y-0042211D01*
X0113230Y-0042150D01*
X0113239Y-0042082D01*
X0113255Y-0042007D01*
X0113273Y-0041930D01*
X0113295Y-0041850D01*
X0113323Y-0041766D01*
X0113357Y-0041683D01*
X0113397Y-0041603D01*
X0113440Y-0041525D01*
X0113493Y-0041451D01*
X0113555Y-0041380D01*
X0113558Y-0041377D01*
X0113570Y-0041365D01*
X0113592Y-0041346D01*
X0113619Y-0041325D01*
X0113654Y-0041297D01*
X0113697Y-0041269D01*
X0113746Y-0041235D01*
X0113802Y-0041201D01*
X0113864Y-0041170D01*
X0113935Y-0041136D01*
X0114012Y-0041108D01*
X0114095Y-0041080D01*
X0114185Y-0041059D01*
X0114281Y-0041040D01*
X0114383Y-0041028D01*
X0114491Y-0041025D01*
X0114516D01*
X0114543Y-0041028D01*
D02*
G37*
G36*
X0103237D02*
X0103277Y-0041031D01*
X0103324Y-0041034D01*
X0103379Y-0041043D01*
X0103438Y-0041053D01*
X0103503Y-0041068D01*
X0103574Y-0041087D01*
X0103645Y-0041108D01*
X0103716Y-0041136D01*
X0103790Y-0041170D01*
X0103861Y-0041210D01*
X0103932Y-0041257D01*
X0103997Y-0041309D01*
X0104059Y-0041371D01*
X0104062Y-0041374D01*
X0104071Y-0041386D01*
X0104087Y-0041408D01*
X0104108Y-0041436D01*
X0104133Y-0041470D01*
X0104158Y-0041513D01*
X0104189Y-0041563D01*
X0104217Y-0041621D01*
X0104247Y-0041686D01*
X0104275Y-0041757D01*
X0104300Y-0041834D01*
X0104325Y-0041921D01*
X0104346Y-0042014D01*
X0104362Y-0042112D01*
X0104371Y-0042218D01*
X0104374Y-0042329D01*
Y-0042332D01*
Y-0042335D01*
Y-0042344D01*
Y-0042357D01*
X0104371Y-0042388D01*
X0104368Y-0042428D01*
X0104365Y-0042480D01*
X0104356Y-0042539D01*
X0104346Y-0042604D01*
X0104331Y-0042675D01*
X0104312Y-0042749D01*
X0104291Y-0042829D01*
X0104263Y-0042910D01*
X0104232Y-0042990D01*
X0104192Y-0043070D01*
X0104146Y-0043148D01*
X0104093Y-0043222D01*
X0104034Y-0043293D01*
X0104031Y-0043296D01*
X0104019Y-0043308D01*
X0104000Y-0043327D01*
X0103972Y-0043349D01*
X0103938Y-0043376D01*
X0103898Y-0043407D01*
X0103849Y-0043438D01*
X0103793Y-0043472D01*
X0103732Y-0043506D01*
X0103664Y-0043537D01*
X0103589Y-0043568D01*
X0103509Y-0043596D01*
X0103419Y-0043617D01*
X0103327Y-0043636D01*
X0103231Y-0043648D01*
X0103126Y-0043651D01*
X0103101D01*
X0103073Y-0043648D01*
X0103033Y-0043645D01*
X0102987Y-0043642D01*
X0102931Y-0043633D01*
X0102873Y-0043624D01*
X0102808Y-0043608D01*
X0102736Y-0043590D01*
X0102665Y-0043565D01*
X0102591Y-0043537D01*
X0102517Y-0043503D01*
X0102443Y-0043463D01*
X0102369Y-0043417D01*
X0102301Y-0043364D01*
X0102236Y-0043302D01*
X0102233Y-0043299D01*
X0102220Y-0043287D01*
X0102205Y-0043265D01*
X0102183Y-0043237D01*
X0102159Y-0043203D01*
X0102131Y-0043160D01*
X0102103Y-0043111D01*
X0102072Y-0043052D01*
X0102041Y-0042990D01*
X0102010Y-0042919D01*
X0101982Y-0042842D01*
X0101958Y-0042758D01*
X0101936Y-0042672D01*
X0101921Y-0042576D01*
X0101908Y-0042474D01*
X0101905Y-0042369D01*
Y-0042366D01*
Y-0042363D01*
Y-0042354D01*
Y-0042341D01*
X0101908Y-0042307D01*
X0101911Y-0042264D01*
X0101915Y-0042211D01*
X0101924Y-0042150D01*
X0101933Y-0042082D01*
X0101948Y-0042007D01*
X0101967Y-0041930D01*
X0101989Y-0041850D01*
X0102016Y-0041766D01*
X0102050Y-0041683D01*
X0102091Y-0041603D01*
X0102134Y-0041525D01*
X0102187Y-0041451D01*
X0102248Y-0041380D01*
X0102251Y-0041377D01*
X0102264Y-0041365D01*
X0102285Y-0041346D01*
X0102313Y-0041325D01*
X0102347Y-0041297D01*
X0102390Y-0041269D01*
X0102440Y-0041235D01*
X0102496Y-0041201D01*
X0102557Y-0041170D01*
X0102628Y-0041136D01*
X0102706Y-0041108D01*
X0102789Y-0041080D01*
X0102879Y-0041059D01*
X0102974Y-0041040D01*
X0103076Y-0041028D01*
X0103184Y-0041025D01*
X0103209D01*
X0103237Y-0041028D01*
D02*
G37*
G36*
X0096896D02*
X0096937Y-0041031D01*
X0096983Y-0041034D01*
X0097039Y-0041043D01*
X0097097Y-0041053D01*
X0097162Y-0041068D01*
X0097233Y-0041087D01*
X0097304Y-0041108D01*
X0097375Y-0041136D01*
X0097449Y-0041170D01*
X0097521Y-0041210D01*
X0097592Y-0041257D01*
X0097657Y-0041309D01*
X0097718Y-0041371D01*
X0097721Y-0041374D01*
X0097731Y-0041386D01*
X0097746Y-0041408D01*
X0097768Y-0041436D01*
X0097793Y-0041470D01*
X0097817Y-0041513D01*
X0097848Y-0041563D01*
X0097876Y-0041621D01*
X0097907Y-0041686D01*
X0097935Y-0041757D01*
X0097959Y-0041834D01*
X0097984Y-0041921D01*
X0098006Y-0042014D01*
X0098021Y-0042112D01*
X0098030Y-0042218D01*
X0098033Y-0042329D01*
Y-0042332D01*
Y-0042335D01*
Y-0042344D01*
Y-0042357D01*
X0098030Y-0042388D01*
X0098027Y-0042428D01*
X0098024Y-0042480D01*
X0098015Y-0042539D01*
X0098006Y-0042604D01*
X0097990Y-0042675D01*
X0097972Y-0042749D01*
X0097950Y-0042829D01*
X0097922Y-0042910D01*
X0097891Y-0042990D01*
X0097851Y-0043070D01*
X0097805Y-0043148D01*
X0097752Y-0043222D01*
X0097694Y-0043293D01*
X0097690Y-0043296D01*
X0097678Y-0043308D01*
X0097660Y-0043327D01*
X0097632Y-0043349D01*
X0097598Y-0043376D01*
X0097558Y-0043407D01*
X0097508Y-0043438D01*
X0097453Y-0043472D01*
X0097391Y-0043506D01*
X0097323Y-0043537D01*
X0097249Y-0043568D01*
X0097168Y-0043596D01*
X0097079Y-0043617D01*
X0096986Y-0043636D01*
X0096890Y-0043648D01*
X0096785Y-0043651D01*
X0096760D01*
X0096733Y-0043648D01*
X0096692Y-0043645D01*
X0096646Y-0043642D01*
X0096591Y-0043633D01*
X0096532Y-0043624D01*
X0096467Y-0043608D01*
X0096396Y-0043590D01*
X0096325Y-0043565D01*
X0096251Y-0043537D01*
X0096176Y-0043503D01*
X0096102Y-0043463D01*
X0096028Y-0043417D01*
X0095960Y-0043364D01*
X0095895Y-0043302D01*
X0095892Y-0043299D01*
X0095880Y-0043287D01*
X0095864Y-0043265D01*
X0095843Y-0043237D01*
X0095818Y-0043203D01*
X0095790Y-0043160D01*
X0095762Y-0043111D01*
X0095732Y-0043052D01*
X0095701Y-0042990D01*
X0095670Y-0042919D01*
X0095642Y-0042842D01*
X0095617Y-0042758D01*
X0095596Y-0042672D01*
X0095580Y-0042576D01*
X0095568Y-0042474D01*
X0095565Y-0042369D01*
Y-0042366D01*
Y-0042363D01*
Y-0042354D01*
Y-0042341D01*
X0095568Y-0042307D01*
X0095571Y-0042264D01*
X0095574Y-0042211D01*
X0095583Y-0042150D01*
X0095592Y-0042082D01*
X0095608Y-0042007D01*
X0095626Y-0041930D01*
X0095648Y-0041850D01*
X0095676Y-0041766D01*
X0095710Y-0041683D01*
X0095750Y-0041603D01*
X0095793Y-0041525D01*
X0095846Y-0041451D01*
X0095908Y-0041380D01*
X0095911Y-0041377D01*
X0095923Y-0041365D01*
X0095945Y-0041346D01*
X0095973Y-0041325D01*
X0096007Y-0041297D01*
X0096050Y-0041269D01*
X0096099Y-0041235D01*
X0096155Y-0041201D01*
X0096217Y-0041170D01*
X0096288Y-0041136D01*
X0096365Y-0041108D01*
X0096448Y-0041080D01*
X0096538Y-0041059D01*
X0096634Y-0041040D01*
X0096736Y-0041028D01*
X0096844Y-0041025D01*
X0096869D01*
X0096896Y-0041028D01*
D02*
G37*
G36*
X0139304Y-0040082D02*
X0139310Y-0040089D01*
X0139319Y-0040104D01*
X0139334Y-0040119D01*
X0139350Y-0040144D01*
X0139372Y-0040172D01*
X0139393Y-0040203D01*
X0139421Y-0040240D01*
X0139449Y-0040280D01*
X0139480Y-0040326D01*
X0139511Y-0040376D01*
X0139545Y-0040432D01*
X0139579Y-0040490D01*
X0139613Y-0040552D01*
X0139646Y-0040617D01*
X0139684Y-0040688D01*
X0139721Y-0040762D01*
X0139755Y-0040839D01*
X0139789Y-0040920D01*
X0139826Y-0041006D01*
X0139857Y-0041093D01*
X0139891Y-0041186D01*
X0139918Y-0041278D01*
X0139946Y-0041377D01*
X0139996Y-0041581D01*
X0140017Y-0041686D01*
X0140033Y-0041794D01*
X0140048Y-0041906D01*
X0140058Y-0042020D01*
X0140064Y-0042137D01*
X0140067Y-0042255D01*
Y-0042258D01*
Y-0042270D01*
Y-0042286D01*
Y-0042310D01*
X0140064Y-0042341D01*
X0140061Y-0042378D01*
X0140058Y-0042418D01*
X0140054Y-0042468D01*
X0140051Y-0042517D01*
X0140042Y-0042576D01*
X0140036Y-0042638D01*
X0140027Y-0042703D01*
X0140014Y-0042771D01*
X0140002Y-0042845D01*
X0139986Y-0042919D01*
X0139971Y-0042996D01*
X0139931Y-0043163D01*
X0139878Y-0043333D01*
X0139816Y-0043512D01*
X0139783Y-0043602D01*
X0139742Y-0043692D01*
X0139702Y-0043781D01*
X0139656Y-0043871D01*
X0139606Y-0043960D01*
X0139554Y-0044050D01*
X0139495Y-0044137D01*
X0139436Y-0044223D01*
X0139372Y-0044306D01*
X0139301Y-0044390D01*
X0138945D01*
X0138948Y-0044387D01*
X0138954Y-0044381D01*
X0138964Y-0044365D01*
X0138979Y-0044347D01*
X0138995Y-0044325D01*
X0139016Y-0044297D01*
X0139038Y-0044266D01*
X0139066Y-0044229D01*
X0139093Y-0044186D01*
X0139121Y-0044140D01*
X0139155Y-0044090D01*
X0139186Y-0044034D01*
X0139220Y-0043976D01*
X0139254Y-0043914D01*
X0139291Y-0043849D01*
X0139328Y-0043778D01*
X0139362Y-0043707D01*
X0139399Y-0043630D01*
X0139433Y-0043549D01*
X0139467Y-0043466D01*
X0139501Y-0043379D01*
X0139532Y-0043290D01*
X0139588Y-0043101D01*
X0139637Y-0042900D01*
X0139659Y-0042799D01*
X0139674Y-0042693D01*
X0139690Y-0042585D01*
X0139699Y-0042474D01*
X0139705Y-0042363D01*
X0139708Y-0042248D01*
Y-0042245D01*
Y-0042233D01*
Y-0042218D01*
Y-0042193D01*
X0139705Y-0042165D01*
X0139702Y-0042128D01*
X0139699Y-0042088D01*
X0139696Y-0042042D01*
X0139690Y-0041989D01*
X0139684Y-0041933D01*
X0139677Y-0041872D01*
X0139668Y-0041807D01*
X0139656Y-0041739D01*
X0139644Y-0041668D01*
X0139628Y-0041593D01*
X0139613Y-0041513D01*
X0139572Y-0041349D01*
X0139520Y-0041176D01*
X0139492Y-0041087D01*
X0139458Y-0040997D01*
X0139424Y-0040904D01*
X0139384Y-0040812D01*
X0139341Y-0040719D01*
X0139294Y-0040626D01*
X0139245Y-0040534D01*
X0139192Y-0040441D01*
X0139137Y-0040348D01*
X0139075Y-0040258D01*
X0139010Y-0040169D01*
X0138939Y-0040079D01*
X0139301D01*
X0139304Y-0040082D01*
D02*
G37*
G36*
X0127293D02*
X0127287Y-0040089D01*
X0127277Y-0040104D01*
X0127262Y-0040123D01*
X0127246Y-0040144D01*
X0127225Y-0040172D01*
X0127200Y-0040206D01*
X0127175Y-0040243D01*
X0127147Y-0040286D01*
X0127117Y-0040333D01*
X0127086Y-0040385D01*
X0127052Y-0040441D01*
X0127018Y-0040499D01*
X0126984Y-0040561D01*
X0126947Y-0040629D01*
X0126913Y-0040700D01*
X0126876Y-0040775D01*
X0126839Y-0040852D01*
X0126804Y-0040935D01*
X0126770Y-0041019D01*
X0126736Y-0041105D01*
X0126706Y-0041198D01*
X0126647Y-0041390D01*
X0126597Y-0041590D01*
X0126576Y-0041692D01*
X0126560Y-0041800D01*
X0126545Y-0041909D01*
X0126536Y-0042020D01*
X0126530Y-0042134D01*
X0126526Y-0042248D01*
Y-0042252D01*
Y-0042261D01*
Y-0042279D01*
X0126530Y-0042304D01*
Y-0042332D01*
X0126533Y-0042369D01*
X0126536Y-0042409D01*
X0126539Y-0042456D01*
X0126545Y-0042505D01*
X0126551Y-0042561D01*
X0126557Y-0042619D01*
X0126567Y-0042684D01*
X0126579Y-0042752D01*
X0126591Y-0042823D01*
X0126604Y-0042897D01*
X0126622Y-0042975D01*
X0126662Y-0043138D01*
X0126712Y-0043312D01*
X0126774Y-0043488D01*
X0126811Y-0043577D01*
X0126848Y-0043670D01*
X0126891Y-0043760D01*
X0126937Y-0043852D01*
X0126984Y-0043945D01*
X0127039Y-0044034D01*
X0127095Y-0044124D01*
X0127157Y-0044214D01*
X0127222Y-0044303D01*
X0127290Y-0044390D01*
X0126931D01*
X0126928Y-0044387D01*
X0126922Y-0044381D01*
X0126913Y-0044368D01*
X0126900Y-0044350D01*
X0126882Y-0044328D01*
X0126860Y-0044300D01*
X0126839Y-0044269D01*
X0126814Y-0044235D01*
X0126786Y-0044195D01*
X0126755Y-0044149D01*
X0126724Y-0044102D01*
X0126693Y-0044050D01*
X0126659Y-0043991D01*
X0126622Y-0043933D01*
X0126588Y-0043868D01*
X0126554Y-0043800D01*
X0126517Y-0043725D01*
X0126483Y-0043651D01*
X0126446Y-0043571D01*
X0126415Y-0043488D01*
X0126381Y-0043401D01*
X0126350Y-0043312D01*
X0126319Y-0043219D01*
X0126292Y-0043123D01*
X0126245Y-0042922D01*
X0126224Y-0042817D01*
X0126208Y-0042712D01*
X0126193Y-0042601D01*
X0126183Y-0042486D01*
X0126177Y-0042372D01*
X0126174Y-0042255D01*
Y-0042252D01*
Y-0042239D01*
Y-0042224D01*
X0126177Y-0042199D01*
Y-0042168D01*
X0126180Y-0042131D01*
X0126183Y-0042088D01*
X0126187Y-0042042D01*
X0126190Y-0041989D01*
X0126199Y-0041930D01*
X0126205Y-0041868D01*
X0126214Y-0041804D01*
X0126224Y-0041732D01*
X0126239Y-0041661D01*
X0126251Y-0041584D01*
X0126270Y-0041504D01*
X0126310Y-0041337D01*
X0126359Y-0041164D01*
X0126421Y-0040982D01*
X0126455Y-0040892D01*
X0126492Y-0040799D01*
X0126536Y-0040707D01*
X0126579Y-0040614D01*
X0126628Y-0040521D01*
X0126681Y-0040432D01*
X0126736Y-0040342D01*
X0126798Y-0040252D01*
X0126863Y-0040166D01*
X0126931Y-0040079D01*
X0127296D01*
X0127293Y-0040082D01*
D02*
G37*
%LPC*%
G36*
X0156858Y-0024485D02*
X0156842D01*
X0156824Y-0024488D01*
X0156796D01*
X0156765Y-0024494D01*
X0156731Y-0024501D01*
X0156691Y-0024507D01*
X0156648Y-0024519D01*
X0156601Y-0024532D01*
X0156555Y-0024550D01*
X0156509Y-0024572D01*
X0156459Y-0024600D01*
X0156413Y-0024630D01*
X0156366Y-0024664D01*
X0156320Y-0024708D01*
X0156280Y-0024754D01*
X0156277Y-0024757D01*
X0156271Y-0024766D01*
X0156261Y-0024782D01*
X0156246Y-0024803D01*
X0156230Y-0024831D01*
X0156215Y-0024865D01*
X0156193Y-0024902D01*
X0156175Y-0024949D01*
X0156156Y-0024998D01*
X0156138Y-0025054D01*
X0156119Y-0025115D01*
X0156104Y-0025180D01*
X0156088Y-0025254D01*
X0156079Y-0025329D01*
X0156073Y-0025412D01*
X0156070Y-0025499D01*
Y-0025505D01*
Y-0025517D01*
Y-0025542D01*
X0156073Y-0025570D01*
X0156076Y-0025607D01*
X0156079Y-0025650D01*
X0156085Y-0025696D01*
X0156095Y-0025749D01*
X0156119Y-0025857D01*
X0156135Y-0025916D01*
X0156153Y-0025971D01*
X0156178Y-0026027D01*
X0156206Y-0026083D01*
X0156237Y-0026135D01*
X0156271Y-0026185D01*
X0156274Y-0026188D01*
X0156280Y-0026194D01*
X0156292Y-0026206D01*
X0156308Y-0026225D01*
X0156329Y-0026243D01*
X0156354Y-0026265D01*
X0156382Y-0026287D01*
X0156416Y-0026308D01*
X0156453Y-0026333D01*
X0156493Y-0026355D01*
X0156536Y-0026376D01*
X0156586Y-0026395D01*
X0156638Y-0026410D01*
X0156694Y-0026423D01*
X0156753Y-0026432D01*
X0156815Y-0026435D01*
X0156830D01*
X0156849Y-0026432D01*
X0156870D01*
X0156898Y-0026429D01*
X0156932Y-0026423D01*
X0156969Y-0026413D01*
X0157009Y-0026404D01*
X0157052Y-0026392D01*
X0157096Y-0026376D01*
X0157142Y-0026358D01*
X0157185Y-0026333D01*
X0157232Y-0026305D01*
X0157275Y-0026274D01*
X0157318Y-0026237D01*
X0157358Y-0026194D01*
X0157361Y-0026191D01*
X0157368Y-0026182D01*
X0157377Y-0026169D01*
X0157392Y-0026151D01*
X0157408Y-0026126D01*
X0157426Y-0026098D01*
X0157445Y-0026064D01*
X0157463Y-0026024D01*
X0157482Y-0025984D01*
X0157503Y-0025937D01*
X0157519Y-0025885D01*
X0157534Y-0025832D01*
X0157550Y-0025774D01*
X0157559Y-0025712D01*
X0157565Y-0025647D01*
X0157568Y-0025579D01*
Y-0025211D01*
Y-0025208D01*
Y-0025199D01*
Y-0025180D01*
X0157565Y-0025159D01*
X0157562Y-0025134D01*
X0157559Y-0025103D01*
X0157553Y-0025069D01*
X0157544Y-0025032D01*
X0157519Y-0024952D01*
X0157503Y-0024908D01*
X0157485Y-0024865D01*
X0157460Y-0024822D01*
X0157432Y-0024779D01*
X0157402Y-0024735D01*
X0157368Y-0024695D01*
X0157364Y-0024692D01*
X0157358Y-0024686D01*
X0157346Y-0024677D01*
X0157331Y-0024661D01*
X0157312Y-0024646D01*
X0157287Y-0024627D01*
X0157259Y-0024609D01*
X0157229Y-0024590D01*
X0157194Y-0024572D01*
X0157154Y-0024550D01*
X0157114Y-0024535D01*
X0157068Y-0024519D01*
X0157018Y-0024504D01*
X0156969Y-0024494D01*
X0156913Y-0024488D01*
X0156858Y-0024485D01*
D02*
G37*
G36*
X0152924Y-0025446D02*
X0152319Y-0025530D01*
X0152315D01*
X0152306Y-0025533D01*
X0152291D01*
X0152272Y-0025536D01*
X0152251Y-0025542D01*
X0152223Y-0025548D01*
X0152161Y-0025561D01*
X0152093Y-0025579D01*
X0152025Y-0025604D01*
X0151957Y-0025635D01*
X0151926Y-0025650D01*
X0151898Y-0025669D01*
X0151892Y-0025675D01*
X0151877Y-0025687D01*
X0151852Y-0025712D01*
X0151827Y-0025749D01*
X0151803Y-0025798D01*
X0151790Y-0025826D01*
X0151778Y-0025857D01*
X0151769Y-0025891D01*
X0151762Y-0025931D01*
X0151759Y-0025971D01*
X0151756Y-0026018D01*
Y-0026021D01*
Y-0026027D01*
Y-0026036D01*
X0151759Y-0026049D01*
X0151762Y-0026083D01*
X0151772Y-0026126D01*
X0151787Y-0026172D01*
X0151812Y-0026225D01*
X0151843Y-0026274D01*
X0151886Y-0026321D01*
X0151889D01*
X0151892Y-0026327D01*
X0151911Y-0026339D01*
X0151938Y-0026358D01*
X0151979Y-0026376D01*
X0152031Y-0026398D01*
X0152090Y-0026416D01*
X0152161Y-0026429D01*
X0152238Y-0026435D01*
X0152266D01*
X0152288Y-0026432D01*
X0152312Y-0026429D01*
X0152343Y-0026423D01*
X0152374Y-0026416D01*
X0152411Y-0026407D01*
X0152489Y-0026382D01*
X0152529Y-0026367D01*
X0152572Y-0026345D01*
X0152612Y-0026321D01*
X0152652Y-0026293D01*
X0152692Y-0026262D01*
X0152729Y-0026225D01*
X0152733Y-0026222D01*
X0152739Y-0026215D01*
X0152748Y-0026203D01*
X0152760Y-0026188D01*
X0152776Y-0026166D01*
X0152791Y-0026141D01*
X0152810Y-0026114D01*
X0152828Y-0026080D01*
X0152844Y-0026043D01*
X0152862Y-0026002D01*
X0152878Y-0025959D01*
X0152893Y-0025913D01*
X0152906Y-0025863D01*
X0152915Y-0025811D01*
X0152921Y-0025755D01*
X0152924Y-0025696D01*
Y-0025446D01*
D02*
G37*
G36*
X0146713Y-0023574D02*
X0146179D01*
Y-0024708D01*
X0146633D01*
X0146654Y-0024704D01*
X0146682Y-0024701D01*
X0146716Y-0024698D01*
X0146753Y-0024695D01*
X0146794Y-0024686D01*
X0146877Y-0024667D01*
X0146967Y-0024640D01*
X0147010Y-0024621D01*
X0147053Y-0024600D01*
X0147093Y-0024575D01*
X0147130Y-0024547D01*
X0147134Y-0024544D01*
X0147140Y-0024541D01*
X0147149Y-0024528D01*
X0147161Y-0024516D01*
X0147177Y-0024501D01*
X0147192Y-0024479D01*
X0147211Y-0024454D01*
X0147229Y-0024426D01*
X0147245Y-0024396D01*
X0147263Y-0024362D01*
X0147279Y-0024324D01*
X0147294Y-0024284D01*
X0147307Y-0024238D01*
X0147316Y-0024192D01*
X0147322Y-0024139D01*
X0147325Y-0024087D01*
Y-0024080D01*
Y-0024065D01*
X0147322Y-0024040D01*
X0147316Y-0024006D01*
X0147303Y-0023966D01*
X0147291Y-0023923D01*
X0147269Y-0023876D01*
X0147242Y-0023830D01*
X0147205Y-0023781D01*
X0147161Y-0023734D01*
X0147106Y-0023691D01*
X0147041Y-0023654D01*
X0147004Y-0023635D01*
X0146964Y-0023620D01*
X0146920Y-0023608D01*
X0146874Y-0023595D01*
X0146825Y-0023586D01*
X0146769Y-0023580D01*
X0146713Y-0023574D01*
D02*
G37*
G36*
X0146651Y-0025078D02*
X0146179D01*
Y-0026342D01*
X0146772D01*
X0146797Y-0026339D01*
X0146828Y-0026336D01*
X0146862Y-0026333D01*
X0146902Y-0026327D01*
X0146945Y-0026321D01*
X0147035Y-0026302D01*
X0147127Y-0026271D01*
X0147174Y-0026250D01*
X0147217Y-0026228D01*
X0147257Y-0026203D01*
X0147297Y-0026172D01*
X0147300Y-0026169D01*
X0147307Y-0026163D01*
X0147316Y-0026154D01*
X0147328Y-0026141D01*
X0147344Y-0026123D01*
X0147362Y-0026101D01*
X0147378Y-0026076D01*
X0147399Y-0026049D01*
X0147418Y-0026015D01*
X0147433Y-0025981D01*
X0147452Y-0025940D01*
X0147467Y-0025900D01*
X0147480Y-0025854D01*
X0147489Y-0025805D01*
X0147495Y-0025755D01*
X0147498Y-0025699D01*
Y-0025696D01*
Y-0025693D01*
Y-0025684D01*
X0147495Y-0025672D01*
X0147492Y-0025641D01*
X0147486Y-0025604D01*
X0147473Y-0025554D01*
X0147455Y-0025502D01*
X0147427Y-0025446D01*
X0147393Y-0025387D01*
X0147347Y-0025332D01*
X0147322Y-0025304D01*
X0147291Y-0025276D01*
X0147260Y-0025248D01*
X0147223Y-0025224D01*
X0147183Y-0025199D01*
X0147140Y-0025174D01*
X0147093Y-0025156D01*
X0147044Y-0025137D01*
X0146988Y-0025119D01*
X0146930Y-0025106D01*
X0146868Y-0025094D01*
X0146800Y-0025085D01*
X0146729Y-0025082D01*
X0146651Y-0025078D01*
D02*
G37*
G36*
X0174727Y-0024485D02*
X0174699D01*
X0174681Y-0024488D01*
X0174656Y-0024491D01*
X0174625Y-0024494D01*
X0174594Y-0024501D01*
X0174560Y-0024510D01*
X0174483Y-0024535D01*
X0174443Y-0024550D01*
X0174403Y-0024572D01*
X0174363Y-0024593D01*
X0174319Y-0024621D01*
X0174282Y-0024652D01*
X0174242Y-0024689D01*
X0174239Y-0024692D01*
X0174233Y-0024698D01*
X0174223Y-0024711D01*
X0174211Y-0024726D01*
X0174196Y-0024748D01*
X0174177Y-0024769D01*
X0174159Y-0024800D01*
X0174137Y-0024831D01*
X0174115Y-0024868D01*
X0174097Y-0024908D01*
X0174075Y-0024952D01*
X0174057Y-0024998D01*
X0174038Y-0025051D01*
X0174023Y-0025103D01*
X0174007Y-0025162D01*
X0173998Y-0025221D01*
X0175355D01*
Y-0025218D01*
Y-0025205D01*
Y-0025187D01*
X0175351Y-0025162D01*
X0175348Y-0025134D01*
X0175345Y-0025100D01*
X0175339Y-0025063D01*
X0175333Y-0025023D01*
X0175311Y-0024936D01*
X0175280Y-0024844D01*
X0175262Y-0024800D01*
X0175240Y-0024757D01*
X0175215Y-0024717D01*
X0175185Y-0024680D01*
X0175181Y-0024677D01*
X0175178Y-0024670D01*
X0175169Y-0024661D01*
X0175154Y-0024649D01*
X0175138Y-0024633D01*
X0175117Y-0024618D01*
X0175095Y-0024600D01*
X0175067Y-0024581D01*
X0175036Y-0024566D01*
X0175002Y-0024547D01*
X0174962Y-0024532D01*
X0174922Y-0024516D01*
X0174879Y-0024504D01*
X0174832Y-0024494D01*
X0174780Y-0024488D01*
X0174727Y-0024485D01*
D02*
G37*
G36*
X0161656Y-0023515D02*
X0161632D01*
X0161604Y-0023518D01*
X0161564Y-0023521D01*
X0161517Y-0023527D01*
X0161462Y-0023537D01*
X0161403Y-0023549D01*
X0161338Y-0023564D01*
X0161267Y-0023586D01*
X0161193Y-0023611D01*
X0161119Y-0023645D01*
X0161045Y-0023682D01*
X0160967Y-0023728D01*
X0160896Y-0023781D01*
X0160825Y-0023842D01*
X0160757Y-0023913D01*
X0160754Y-0023917D01*
X0160742Y-0023932D01*
X0160726Y-0023954D01*
X0160705Y-0023984D01*
X0160677Y-0024025D01*
X0160649Y-0024074D01*
X0160618Y-0024130D01*
X0160587Y-0024195D01*
X0160553Y-0024266D01*
X0160522Y-0024346D01*
X0160495Y-0024433D01*
X0160467Y-0024525D01*
X0160445Y-0024624D01*
X0160430Y-0024732D01*
X0160417Y-0024844D01*
X0160414Y-0024964D01*
Y-0024967D01*
Y-0024970D01*
Y-0024980D01*
Y-0024992D01*
Y-0025007D01*
X0160417Y-0025026D01*
X0160421Y-0025072D01*
X0160424Y-0025128D01*
X0160433Y-0025190D01*
X0160442Y-0025261D01*
X0160458Y-0025338D01*
X0160473Y-0025418D01*
X0160498Y-0025505D01*
X0160522Y-0025591D01*
X0160556Y-0025678D01*
X0160593Y-0025764D01*
X0160640Y-0025851D01*
X0160692Y-0025931D01*
X0160751Y-0026008D01*
X0160754Y-0026012D01*
X0160767Y-0026024D01*
X0160785Y-0026046D01*
X0160813Y-0026070D01*
X0160847Y-0026101D01*
X0160887Y-0026132D01*
X0160933Y-0026169D01*
X0160986Y-0026206D01*
X0161048Y-0026243D01*
X0161113Y-0026277D01*
X0161187Y-0026311D01*
X0161264Y-0026342D01*
X0161347Y-0026367D01*
X0161437Y-0026386D01*
X0161530Y-0026401D01*
X0161629Y-0026404D01*
X0161653D01*
X0161684Y-0026401D01*
X0161724Y-0026398D01*
X0161774Y-0026392D01*
X0161829Y-0026386D01*
X0161891Y-0026373D01*
X0161959Y-0026358D01*
X0162030Y-0026336D01*
X0162104Y-0026311D01*
X0162182Y-0026280D01*
X0162256Y-0026243D01*
X0162333Y-0026203D01*
X0162404Y-0026151D01*
X0162475Y-0026092D01*
X0162540Y-0026027D01*
X0162543Y-0026024D01*
X0162556Y-0026008D01*
X0162571Y-0025987D01*
X0162593Y-0025956D01*
X0162618Y-0025919D01*
X0162645Y-0025872D01*
X0162676Y-0025817D01*
X0162707Y-0025752D01*
X0162738Y-0025681D01*
X0162769Y-0025604D01*
X0162797Y-0025517D01*
X0162821Y-0025421D01*
X0162843Y-0025319D01*
X0162858Y-0025211D01*
X0162871Y-0025094D01*
X0162874Y-0024970D01*
Y-0024967D01*
Y-0024961D01*
Y-0024952D01*
Y-0024939D01*
Y-0024924D01*
X0162871Y-0024902D01*
X0162868Y-0024856D01*
X0162865Y-0024797D01*
X0162855Y-0024729D01*
X0162846Y-0024655D01*
X0162834Y-0024575D01*
X0162815Y-0024491D01*
X0162794Y-0024402D01*
X0162769Y-0024312D01*
X0162738Y-0024223D01*
X0162701Y-0024136D01*
X0162658Y-0024049D01*
X0162608Y-0023969D01*
X0162549Y-0023895D01*
X0162546Y-0023892D01*
X0162534Y-0023879D01*
X0162515Y-0023861D01*
X0162491Y-0023836D01*
X0162457Y-0023805D01*
X0162417Y-0023774D01*
X0162370Y-0023740D01*
X0162318Y-0023703D01*
X0162256Y-0023669D01*
X0162188Y-0023635D01*
X0162117Y-0023601D01*
X0162037Y-0023574D01*
X0161950Y-0023549D01*
X0161857Y-0023530D01*
X0161762Y-0023518D01*
X0161656Y-0023515D01*
D02*
G37*
G36*
X0149667Y-0024485D02*
X0149652D01*
X0149630Y-0024488D01*
X0149602D01*
X0149572Y-0024494D01*
X0149534Y-0024498D01*
X0149491Y-0024507D01*
X0149445Y-0024519D01*
X0149399Y-0024532D01*
X0149349Y-0024550D01*
X0149296Y-0024572D01*
X0149247Y-0024596D01*
X0149195Y-0024627D01*
X0149145Y-0024661D01*
X0149099Y-0024701D01*
X0149056Y-0024748D01*
X0149052Y-0024751D01*
X0149046Y-0024760D01*
X0149034Y-0024776D01*
X0149021Y-0024797D01*
X0149003Y-0024822D01*
X0148984Y-0024856D01*
X0148963Y-0024893D01*
X0148944Y-0024936D01*
X0148923Y-0024986D01*
X0148901Y-0025041D01*
X0148882Y-0025100D01*
X0148864Y-0025165D01*
X0148852Y-0025236D01*
X0148839Y-0025310D01*
X0148833Y-0025390D01*
X0148830Y-0025474D01*
Y-0025480D01*
Y-0025493D01*
X0148833Y-0025517D01*
Y-0025548D01*
X0148836Y-0025585D01*
X0148842Y-0025628D01*
X0148848Y-0025678D01*
X0148858Y-0025730D01*
X0148870Y-0025786D01*
X0148886Y-0025842D01*
X0148904Y-0025900D01*
X0148926Y-0025959D01*
X0148950Y-0026018D01*
X0148981Y-0026073D01*
X0149015Y-0026129D01*
X0149056Y-0026178D01*
X0149059Y-0026182D01*
X0149065Y-0026191D01*
X0149080Y-0026203D01*
X0149099Y-0026219D01*
X0149120Y-0026237D01*
X0149148Y-0026259D01*
X0149182Y-0026283D01*
X0149219Y-0026305D01*
X0149259Y-0026330D01*
X0149306Y-0026355D01*
X0149355Y-0026376D01*
X0149411Y-0026395D01*
X0149469Y-0026410D01*
X0149531Y-0026423D01*
X0149596Y-0026432D01*
X0149667Y-0026435D01*
X0149686D01*
X0149704Y-0026432D01*
X0149732D01*
X0149763Y-0026426D01*
X0149800Y-0026423D01*
X0149843Y-0026413D01*
X0149890Y-0026404D01*
X0149936Y-0026392D01*
X0149986Y-0026373D01*
X0150035Y-0026355D01*
X0150084Y-0026330D01*
X0150134Y-0026302D01*
X0150180Y-0026268D01*
X0150227Y-0026228D01*
X0150267Y-0026185D01*
X0150270Y-0026182D01*
X0150276Y-0026172D01*
X0150285Y-0026157D01*
X0150301Y-0026138D01*
X0150316Y-0026111D01*
X0150335Y-0026080D01*
X0150353Y-0026043D01*
X0150372Y-0025999D01*
X0150390Y-0025950D01*
X0150412Y-0025897D01*
X0150427Y-0025839D01*
X0150443Y-0025774D01*
X0150458Y-0025706D01*
X0150468Y-0025628D01*
X0150474Y-0025548D01*
X0150477Y-0025465D01*
Y-0025458D01*
Y-0025443D01*
Y-0025418D01*
X0150474Y-0025387D01*
X0150471Y-0025347D01*
X0150464Y-0025304D01*
X0150458Y-0025251D01*
X0150452Y-0025199D01*
X0150424Y-0025082D01*
X0150409Y-0025023D01*
X0150387Y-0024961D01*
X0150366Y-0024902D01*
X0150335Y-0024847D01*
X0150304Y-0024791D01*
X0150267Y-0024742D01*
X0150264Y-0024738D01*
X0150258Y-0024729D01*
X0150245Y-0024717D01*
X0150227Y-0024701D01*
X0150205Y-0024683D01*
X0150180Y-0024661D01*
X0150149Y-0024636D01*
X0150112Y-0024612D01*
X0150072Y-0024590D01*
X0150029Y-0024566D01*
X0149979Y-0024544D01*
X0149927Y-0024525D01*
X0149868Y-0024510D01*
X0149806Y-0024498D01*
X0149738Y-0024488D01*
X0149667Y-0024485D01*
D02*
G37*
G36*
X0118567Y-0041365D02*
X0118551D01*
X0118533Y-0041368D01*
X0118505D01*
X0118474Y-0041374D01*
X0118440Y-0041380D01*
X0118400Y-0041386D01*
X0118356Y-0041399D01*
X0118310Y-0041411D01*
X0118264Y-0041430D01*
X0118217Y-0041451D01*
X0118168Y-0041479D01*
X0118122Y-0041510D01*
X0118075Y-0041544D01*
X0118029Y-0041587D01*
X0117989Y-0041634D01*
X0117986Y-0041637D01*
X0117980Y-0041646D01*
X0117970Y-0041661D01*
X0117955Y-0041683D01*
X0117939Y-0041711D01*
X0117924Y-0041745D01*
X0117902Y-0041782D01*
X0117884Y-0041828D01*
X0117865Y-0041878D01*
X0117847Y-0041933D01*
X0117828Y-0041995D01*
X0117813Y-0042060D01*
X0117797Y-0042134D01*
X0117788Y-0042208D01*
X0117782Y-0042292D01*
X0117779Y-0042378D01*
Y-0042384D01*
Y-0042397D01*
Y-0042421D01*
X0117782Y-0042449D01*
X0117785Y-0042486D01*
X0117788Y-0042530D01*
X0117794Y-0042576D01*
X0117803Y-0042629D01*
X0117828Y-0042737D01*
X0117843Y-0042795D01*
X0117862Y-0042851D01*
X0117887Y-0042907D01*
X0117915Y-0042962D01*
X0117946Y-0043015D01*
X0117980Y-0043064D01*
X0117982Y-0043067D01*
X0117989Y-0043073D01*
X0118001Y-0043086D01*
X0118017Y-0043104D01*
X0118038Y-0043123D01*
X0118063Y-0043145D01*
X0118091Y-0043166D01*
X0118125Y-0043188D01*
X0118162Y-0043213D01*
X0118202Y-0043234D01*
X0118245Y-0043256D01*
X0118295Y-0043274D01*
X0118347Y-0043290D01*
X0118403Y-0043302D01*
X0118462Y-0043312D01*
X0118523Y-0043314D01*
X0118539D01*
X0118557Y-0043312D01*
X0118579D01*
X0118607Y-0043308D01*
X0118641Y-0043302D01*
X0118678Y-0043293D01*
X0118718Y-0043284D01*
X0118761Y-0043271D01*
X0118805Y-0043256D01*
X0118851Y-0043237D01*
X0118894Y-0043213D01*
X0118940Y-0043185D01*
X0118984Y-0043154D01*
X0119027Y-0043117D01*
X0119067Y-0043073D01*
X0119070Y-0043070D01*
X0119076Y-0043061D01*
X0119086Y-0043049D01*
X0119101Y-0043030D01*
X0119117Y-0043005D01*
X0119135Y-0042978D01*
X0119154Y-0042944D01*
X0119172Y-0042904D01*
X0119191Y-0042863D01*
X0119212Y-0042817D01*
X0119228Y-0042764D01*
X0119243Y-0042712D01*
X0119259Y-0042653D01*
X0119268Y-0042592D01*
X0119274Y-0042527D01*
X0119277Y-0042459D01*
Y-0042091D01*
Y-0042088D01*
Y-0042079D01*
Y-0042060D01*
X0119274Y-0042038D01*
X0119271Y-0042014D01*
X0119268Y-0041983D01*
X0119262Y-0041949D01*
X0119253Y-0041912D01*
X0119228Y-0041831D01*
X0119212Y-0041788D01*
X0119194Y-0041745D01*
X0119169Y-0041702D01*
X0119141Y-0041658D01*
X0119110Y-0041615D01*
X0119076Y-0041575D01*
X0119073Y-0041572D01*
X0119067Y-0041566D01*
X0119055Y-0041556D01*
X0119039Y-0041541D01*
X0119021Y-0041525D01*
X0118996Y-0041507D01*
X0118968Y-0041488D01*
X0118937Y-0041470D01*
X0118903Y-0041451D01*
X0118863Y-0041430D01*
X0118823Y-0041414D01*
X0118777Y-0041399D01*
X0118727Y-0041383D01*
X0118678Y-0041374D01*
X0118622Y-0041368D01*
X0118567Y-0041365D01*
D02*
G37*
G36*
X0093859Y-0040453D02*
X0093324D01*
Y-0041587D01*
X0093779D01*
X0093800Y-0041584D01*
X0093828Y-0041581D01*
X0093862Y-0041578D01*
X0093899Y-0041575D01*
X0093939Y-0041566D01*
X0094023Y-0041547D01*
X0094112Y-0041519D01*
X0094156Y-0041501D01*
X0094199Y-0041479D01*
X0094239Y-0041454D01*
X0094276Y-0041427D01*
X0094279Y-0041423D01*
X0094285Y-0041420D01*
X0094295Y-0041408D01*
X0094307Y-0041396D01*
X0094322Y-0041380D01*
X0094338Y-0041359D01*
X0094356Y-0041334D01*
X0094375Y-0041306D01*
X0094390Y-0041275D01*
X0094409Y-0041241D01*
X0094424Y-0041204D01*
X0094440Y-0041164D01*
X0094452Y-0041118D01*
X0094462Y-0041071D01*
X0094468Y-0041019D01*
X0094471Y-0040966D01*
Y-0040960D01*
Y-0040944D01*
X0094468Y-0040920D01*
X0094462Y-0040886D01*
X0094449Y-0040846D01*
X0094437Y-0040802D01*
X0094415Y-0040756D01*
X0094387Y-0040710D01*
X0094350Y-0040660D01*
X0094307Y-0040614D01*
X0094251Y-0040571D01*
X0094187Y-0040534D01*
X0094149Y-0040515D01*
X0094109Y-0040499D01*
X0094066Y-0040487D01*
X0094020Y-0040475D01*
X0093970Y-0040466D01*
X0093915Y-0040459D01*
X0093859Y-0040453D01*
D02*
G37*
G36*
X0093797Y-0041958D02*
X0093324D01*
Y-0043222D01*
X0093918D01*
X0093942Y-0043219D01*
X0093973Y-0043216D01*
X0094007Y-0043213D01*
X0094047Y-0043206D01*
X0094091Y-0043200D01*
X0094180Y-0043182D01*
X0094273Y-0043151D01*
X0094319Y-0043129D01*
X0094363Y-0043108D01*
X0094403Y-0043083D01*
X0094443Y-0043052D01*
X0094446Y-0043049D01*
X0094452Y-0043043D01*
X0094462Y-0043033D01*
X0094474Y-0043021D01*
X0094489Y-0043002D01*
X0094508Y-0042981D01*
X0094523Y-0042956D01*
X0094545Y-0042928D01*
X0094563Y-0042894D01*
X0094579Y-0042860D01*
X0094597Y-0042820D01*
X0094613Y-0042780D01*
X0094625Y-0042734D01*
X0094634Y-0042684D01*
X0094641Y-0042635D01*
X0094644Y-0042579D01*
Y-0042576D01*
Y-0042573D01*
Y-0042564D01*
X0094641Y-0042551D01*
X0094638Y-0042520D01*
X0094631Y-0042483D01*
X0094619Y-0042434D01*
X0094600Y-0042381D01*
X0094573Y-0042326D01*
X0094539Y-0042267D01*
X0094492Y-0042211D01*
X0094468Y-0042184D01*
X0094437Y-0042156D01*
X0094406Y-0042128D01*
X0094369Y-0042103D01*
X0094329Y-0042079D01*
X0094285Y-0042054D01*
X0094239Y-0042035D01*
X0094190Y-0042017D01*
X0094134Y-0041998D01*
X0094075Y-0041986D01*
X0094013Y-0041974D01*
X0093945Y-0041964D01*
X0093874Y-0041961D01*
X0093797Y-0041958D01*
D02*
G37*
G36*
X0130475Y-0041365D02*
X0130448D01*
X0130429Y-0041368D01*
X0130404Y-0041371D01*
X0130374Y-0041374D01*
X0130343Y-0041380D01*
X0130309Y-0041390D01*
X0130231Y-0041414D01*
X0130191Y-0041430D01*
X0130151Y-0041451D01*
X0130111Y-0041473D01*
X0130068Y-0041501D01*
X0130031Y-0041532D01*
X0129990Y-0041569D01*
X0129987Y-0041572D01*
X0129981Y-0041578D01*
X0129972Y-0041590D01*
X0129959Y-0041606D01*
X0129944Y-0041627D01*
X0129925Y-0041649D01*
X0129907Y-0041680D01*
X0129885Y-0041711D01*
X0129864Y-0041748D01*
X0129845Y-0041788D01*
X0129823Y-0041831D01*
X0129805Y-0041878D01*
X0129786Y-0041930D01*
X0129771Y-0041983D01*
X0129755Y-0042042D01*
X0129746Y-0042100D01*
X0131103D01*
Y-0042097D01*
Y-0042085D01*
Y-0042066D01*
X0131100Y-0042042D01*
X0131096Y-0042014D01*
X0131093Y-0041980D01*
X0131087Y-0041943D01*
X0131081Y-0041902D01*
X0131059Y-0041816D01*
X0131028Y-0041723D01*
X0131010Y-0041680D01*
X0130988Y-0041637D01*
X0130964Y-0041596D01*
X0130933Y-0041559D01*
X0130930Y-0041556D01*
X0130927Y-0041550D01*
X0130917Y-0041541D01*
X0130902Y-0041528D01*
X0130886Y-0041513D01*
X0130865Y-0041498D01*
X0130843Y-0041479D01*
X0130815Y-0041460D01*
X0130784Y-0041445D01*
X0130750Y-0041427D01*
X0130710Y-0041411D01*
X0130670Y-0041396D01*
X0130627Y-0041383D01*
X0130580Y-0041374D01*
X0130528Y-0041368D01*
X0130475Y-0041365D01*
D02*
G37*
G36*
X0121471D02*
X0121443D01*
X0121425Y-0041368D01*
X0121400Y-0041371D01*
X0121369Y-0041374D01*
X0121338Y-0041380D01*
X0121304Y-0041390D01*
X0121227Y-0041414D01*
X0121187Y-0041430D01*
X0121147Y-0041451D01*
X0121107Y-0041473D01*
X0121063Y-0041501D01*
X0121026Y-0041532D01*
X0120986Y-0041569D01*
X0120983Y-0041572D01*
X0120977Y-0041578D01*
X0120967Y-0041590D01*
X0120955Y-0041606D01*
X0120940Y-0041627D01*
X0120921Y-0041649D01*
X0120903Y-0041680D01*
X0120881Y-0041711D01*
X0120859Y-0041748D01*
X0120841Y-0041788D01*
X0120819Y-0041831D01*
X0120801Y-0041878D01*
X0120782Y-0041930D01*
X0120767Y-0041983D01*
X0120751Y-0042042D01*
X0120742Y-0042100D01*
X0122098D01*
Y-0042097D01*
Y-0042085D01*
Y-0042066D01*
X0122095Y-0042042D01*
X0122092Y-0042014D01*
X0122089Y-0041980D01*
X0122083Y-0041943D01*
X0122077Y-0041902D01*
X0122055Y-0041816D01*
X0122024Y-0041723D01*
X0122006Y-0041680D01*
X0121984Y-0041637D01*
X0121959Y-0041596D01*
X0121929Y-0041559D01*
X0121925Y-0041556D01*
X0121922Y-0041550D01*
X0121913Y-0041541D01*
X0121898Y-0041528D01*
X0121882Y-0041513D01*
X0121861Y-0041498D01*
X0121839Y-0041479D01*
X0121811Y-0041460D01*
X0121780Y-0041445D01*
X0121746Y-0041427D01*
X0121706Y-0041411D01*
X0121666Y-0041396D01*
X0121623Y-0041383D01*
X0121576Y-0041374D01*
X0121524Y-0041368D01*
X0121471Y-0041365D01*
D02*
G37*
G36*
X0114460D02*
X0114444D01*
X0114423Y-0041368D01*
X0114395D01*
X0114364Y-0041374D01*
X0114327Y-0041377D01*
X0114284Y-0041386D01*
X0114237Y-0041399D01*
X0114191Y-0041411D01*
X0114142Y-0041430D01*
X0114089Y-0041451D01*
X0114040Y-0041476D01*
X0113987Y-0041507D01*
X0113938Y-0041541D01*
X0113891Y-0041581D01*
X0113848Y-0041627D01*
X0113845Y-0041631D01*
X0113839Y-0041640D01*
X0113827Y-0041655D01*
X0113814Y-0041677D01*
X0113796Y-0041702D01*
X0113777Y-0041736D01*
X0113755Y-0041773D01*
X0113737Y-0041816D01*
X0113715Y-0041865D01*
X0113694Y-0041921D01*
X0113675Y-0041980D01*
X0113656Y-0042044D01*
X0113644Y-0042116D01*
X0113632Y-0042190D01*
X0113626Y-0042270D01*
X0113623Y-0042354D01*
Y-0042360D01*
Y-0042372D01*
X0113626Y-0042397D01*
Y-0042428D01*
X0113629Y-0042465D01*
X0113635Y-0042508D01*
X0113641Y-0042557D01*
X0113650Y-0042610D01*
X0113663Y-0042666D01*
X0113678Y-0042721D01*
X0113697Y-0042780D01*
X0113718Y-0042839D01*
X0113743Y-0042897D01*
X0113774Y-0042953D01*
X0113808Y-0043009D01*
X0113848Y-0043058D01*
X0113851Y-0043061D01*
X0113857Y-0043070D01*
X0113873Y-0043083D01*
X0113891Y-0043098D01*
X0113913Y-0043117D01*
X0113941Y-0043138D01*
X0113975Y-0043163D01*
X0114012Y-0043185D01*
X0114052Y-0043209D01*
X0114098Y-0043234D01*
X0114148Y-0043256D01*
X0114204Y-0043274D01*
X0114262Y-0043290D01*
X0114324Y-0043302D01*
X0114389Y-0043312D01*
X0114460Y-0043314D01*
X0114479D01*
X0114497Y-0043312D01*
X0114525D01*
X0114556Y-0043305D01*
X0114593Y-0043302D01*
X0114636Y-0043293D01*
X0114682Y-0043284D01*
X0114729Y-0043271D01*
X0114778Y-0043253D01*
X0114828Y-0043234D01*
X0114877Y-0043209D01*
X0114927Y-0043182D01*
X0114973Y-0043148D01*
X0115019Y-0043108D01*
X0115059Y-0043064D01*
X0115062Y-0043061D01*
X0115069Y-0043052D01*
X0115078Y-0043036D01*
X0115093Y-0043018D01*
X0115109Y-0042990D01*
X0115127Y-0042959D01*
X0115146Y-0042922D01*
X0115164Y-0042879D01*
X0115183Y-0042829D01*
X0115205Y-0042777D01*
X0115220Y-0042718D01*
X0115235Y-0042653D01*
X0115251Y-0042585D01*
X0115260Y-0042508D01*
X0115266Y-0042428D01*
X0115269Y-0042344D01*
Y-0042338D01*
Y-0042323D01*
Y-0042298D01*
X0115266Y-0042267D01*
X0115263Y-0042227D01*
X0115257Y-0042184D01*
X0115251Y-0042131D01*
X0115245Y-0042079D01*
X0115217Y-0041961D01*
X0115201Y-0041902D01*
X0115180Y-0041841D01*
X0115158Y-0041782D01*
X0115127Y-0041726D01*
X0115096Y-0041671D01*
X0115059Y-0041621D01*
X0115056Y-0041618D01*
X0115050Y-0041609D01*
X0115038Y-0041596D01*
X0115019Y-0041581D01*
X0114998Y-0041563D01*
X0114973Y-0041541D01*
X0114942Y-0041516D01*
X0114905Y-0041491D01*
X0114865Y-0041470D01*
X0114822Y-0041445D01*
X0114772Y-0041423D01*
X0114719Y-0041405D01*
X0114661Y-0041390D01*
X0114599Y-0041377D01*
X0114531Y-0041368D01*
X0114460Y-0041365D01*
D02*
G37*
G36*
X0103154D02*
X0103138D01*
X0103117Y-0041368D01*
X0103089D01*
X0103058Y-0041374D01*
X0103021Y-0041377D01*
X0102978Y-0041386D01*
X0102931Y-0041399D01*
X0102885Y-0041411D01*
X0102835Y-0041430D01*
X0102783Y-0041451D01*
X0102733Y-0041476D01*
X0102681Y-0041507D01*
X0102631Y-0041541D01*
X0102585Y-0041581D01*
X0102542Y-0041627D01*
X0102539Y-0041631D01*
X0102532Y-0041640D01*
X0102520Y-0041655D01*
X0102508Y-0041677D01*
X0102489Y-0041702D01*
X0102471Y-0041736D01*
X0102449Y-0041773D01*
X0102431Y-0041816D01*
X0102409Y-0041865D01*
X0102387Y-0041921D01*
X0102369Y-0041980D01*
X0102350Y-0042044D01*
X0102338Y-0042116D01*
X0102325Y-0042190D01*
X0102319Y-0042270D01*
X0102316Y-0042354D01*
Y-0042360D01*
Y-0042372D01*
X0102319Y-0042397D01*
Y-0042428D01*
X0102322Y-0042465D01*
X0102329Y-0042508D01*
X0102335Y-0042557D01*
X0102344Y-0042610D01*
X0102356Y-0042666D01*
X0102372Y-0042721D01*
X0102390Y-0042780D01*
X0102412Y-0042839D01*
X0102437Y-0042897D01*
X0102468Y-0042953D01*
X0102502Y-0043009D01*
X0102542Y-0043058D01*
X0102545Y-0043061D01*
X0102551Y-0043070D01*
X0102567Y-0043083D01*
X0102585Y-0043098D01*
X0102607Y-0043117D01*
X0102635Y-0043138D01*
X0102668Y-0043163D01*
X0102706Y-0043185D01*
X0102746Y-0043209D01*
X0102792Y-0043234D01*
X0102842Y-0043256D01*
X0102897Y-0043274D01*
X0102956Y-0043290D01*
X0103018Y-0043302D01*
X0103083Y-0043312D01*
X0103154Y-0043314D01*
X0103172D01*
X0103191Y-0043312D01*
X0103218D01*
X0103249Y-0043305D01*
X0103287Y-0043302D01*
X0103330Y-0043293D01*
X0103376Y-0043284D01*
X0103422Y-0043271D01*
X0103472Y-0043253D01*
X0103521Y-0043234D01*
X0103571Y-0043209D01*
X0103620Y-0043182D01*
X0103667Y-0043148D01*
X0103713Y-0043108D01*
X0103753Y-0043064D01*
X0103756Y-0043061D01*
X0103762Y-0043052D01*
X0103772Y-0043036D01*
X0103787Y-0043018D01*
X0103803Y-0042990D01*
X0103821Y-0042959D01*
X0103840Y-0042922D01*
X0103858Y-0042879D01*
X0103877Y-0042829D01*
X0103898Y-0042777D01*
X0103914Y-0042718D01*
X0103929Y-0042653D01*
X0103945Y-0042585D01*
X0103954Y-0042508D01*
X0103960Y-0042428D01*
X0103963Y-0042344D01*
Y-0042338D01*
Y-0042323D01*
Y-0042298D01*
X0103960Y-0042267D01*
X0103957Y-0042227D01*
X0103951Y-0042184D01*
X0103945Y-0042131D01*
X0103938Y-0042079D01*
X0103911Y-0041961D01*
X0103895Y-0041902D01*
X0103874Y-0041841D01*
X0103852Y-0041782D01*
X0103821Y-0041726D01*
X0103790Y-0041671D01*
X0103753Y-0041621D01*
X0103750Y-0041618D01*
X0103744Y-0041609D01*
X0103732Y-0041596D01*
X0103713Y-0041581D01*
X0103691Y-0041563D01*
X0103667Y-0041541D01*
X0103636Y-0041516D01*
X0103599Y-0041491D01*
X0103558Y-0041470D01*
X0103515Y-0041445D01*
X0103466Y-0041423D01*
X0103413Y-0041405D01*
X0103355Y-0041390D01*
X0103293Y-0041377D01*
X0103225Y-0041368D01*
X0103154Y-0041365D01*
D02*
G37*
G36*
X0096813D02*
X0096798D01*
X0096776Y-0041368D01*
X0096748D01*
X0096717Y-0041374D01*
X0096680Y-0041377D01*
X0096637Y-0041386D01*
X0096591Y-0041399D01*
X0096544Y-0041411D01*
X0096495Y-0041430D01*
X0096442Y-0041451D01*
X0096393Y-0041476D01*
X0096340Y-0041507D01*
X0096291Y-0041541D01*
X0096244Y-0041581D01*
X0096201Y-0041627D01*
X0096198Y-0041631D01*
X0096192Y-0041640D01*
X0096179Y-0041655D01*
X0096167Y-0041677D01*
X0096149Y-0041702D01*
X0096130Y-0041736D01*
X0096108Y-0041773D01*
X0096090Y-0041816D01*
X0096068Y-0041865D01*
X0096047Y-0041921D01*
X0096028Y-0041980D01*
X0096010Y-0042044D01*
X0095997Y-0042116D01*
X0095985Y-0042190D01*
X0095979Y-0042270D01*
X0095976Y-0042354D01*
Y-0042360D01*
Y-0042372D01*
X0095979Y-0042397D01*
Y-0042428D01*
X0095982Y-0042465D01*
X0095988Y-0042508D01*
X0095994Y-0042557D01*
X0096003Y-0042610D01*
X0096016Y-0042666D01*
X0096031Y-0042721D01*
X0096050Y-0042780D01*
X0096071Y-0042839D01*
X0096096Y-0042897D01*
X0096127Y-0042953D01*
X0096161Y-0043009D01*
X0096201Y-0043058D01*
X0096204Y-0043061D01*
X0096210Y-0043070D01*
X0096226Y-0043083D01*
X0096244Y-0043098D01*
X0096266Y-0043117D01*
X0096294Y-0043138D01*
X0096328Y-0043163D01*
X0096365Y-0043185D01*
X0096405Y-0043209D01*
X0096451Y-0043234D01*
X0096501Y-0043256D01*
X0096557Y-0043274D01*
X0096615Y-0043290D01*
X0096677Y-0043302D01*
X0096742Y-0043312D01*
X0096813Y-0043314D01*
X0096832D01*
X0096850Y-0043312D01*
X0096878D01*
X0096909Y-0043305D01*
X0096946Y-0043302D01*
X0096989Y-0043293D01*
X0097035Y-0043284D01*
X0097082Y-0043271D01*
X0097131Y-0043253D01*
X0097181Y-0043234D01*
X0097230Y-0043209D01*
X0097280Y-0043182D01*
X0097326Y-0043148D01*
X0097372Y-0043108D01*
X0097412Y-0043064D01*
X0097416Y-0043061D01*
X0097422Y-0043052D01*
X0097431Y-0043036D01*
X0097446Y-0043018D01*
X0097462Y-0042990D01*
X0097480Y-0042959D01*
X0097499Y-0042922D01*
X0097518Y-0042879D01*
X0097536Y-0042829D01*
X0097558Y-0042777D01*
X0097573Y-0042718D01*
X0097588Y-0042653D01*
X0097604Y-0042585D01*
X0097613Y-0042508D01*
X0097619Y-0042428D01*
X0097623Y-0042344D01*
Y-0042338D01*
Y-0042323D01*
Y-0042298D01*
X0097619Y-0042267D01*
X0097616Y-0042227D01*
X0097610Y-0042184D01*
X0097604Y-0042131D01*
X0097598Y-0042079D01*
X0097570Y-0041961D01*
X0097555Y-0041902D01*
X0097533Y-0041841D01*
X0097511Y-0041782D01*
X0097480Y-0041726D01*
X0097449Y-0041671D01*
X0097412Y-0041621D01*
X0097409Y-0041618D01*
X0097403Y-0041609D01*
X0097391Y-0041596D01*
X0097372Y-0041581D01*
X0097351Y-0041563D01*
X0097326Y-0041541D01*
X0097295Y-0041516D01*
X0097258Y-0041491D01*
X0097218Y-0041470D01*
X0097175Y-0041445D01*
X0097125Y-0041423D01*
X0097072Y-0041405D01*
X0097014Y-0041390D01*
X0096952Y-0041377D01*
X0096884Y-0041368D01*
X0096813Y-0041365D01*
D02*
G37*
%LPD*%
D14*
X0039370Y-0049213D02*
G03*
X0049213Y-0039370I0000000J0009843D01*
G01*
X-0035818Y0012992D02*
G03*
X-0031881Y0016929I0000000J0003937D01*
G01*
X0035827Y0023622D02*
G03*
X0031890Y0019685I0000000J-0003937D01*
G01*
X-0045276Y-0023622D02*
G03*
X-0049213Y-0027559I0000000J-0003937D01*
G01*
X-0051968Y0012992D02*
G03*
X-0055118Y0009843I0000000J-0003150D01*
G01*
X0045276Y0023622D02*
G03*
X0049213Y0027559I0000000J0003937D01*
G01*
X-0020669Y0049213D02*
G03*
X-0021654Y0048228I0000000J-0000984D01*
G01*
X0049213Y-0027559D02*
G03*
X0045276Y-0023622I-0003937J0000000D01*
G01*
X0049213Y0039370D02*
G03*
X0039370Y0049213I-0009843J0000000D01*
G01*
X-0049213Y-0039370D02*
G03*
X-0039370Y-0049213I0009843J0000000D01*
G01*
X0031890Y-0019685D02*
G03*
X0035827Y-0023622I0003937J0000000D01*
G01*
X0035825Y-0012992D02*
G03*
X0031888Y-0016929I0000000J-0003937D01*
G01*
X0051968Y-0012992D02*
G03*
X0055118Y-0009843I0000000J0003150D01*
G01*
X-0039370Y0049213D02*
G03*
X-0049213Y0039370I0000000J-0009843D01*
G01*
X-0049213Y0027559D02*
G03*
X-0045276Y0023622I0003937J0000000D01*
G01*
X0055118Y0009843D02*
G03*
X0051968Y0012992I-0003150J0000000D01*
G01*
X-0031890Y0019685D02*
G03*
X-0035827Y0023622I-0003937J0000000D01*
G01*
X-0029528Y0048228D02*
G03*
X-0030512Y0049213I-0000984J0000000D01*
G01*
X-0035827Y-0023622D02*
G03*
X-0031890Y-0019685I0000000J0003937D01*
G01*
X0031881Y0016929D02*
G03*
X0035818Y0012992I0003937J0000000D01*
G01*
X-0029528Y0047244D02*
G03*
X-0021654Y0047244I0003937J0000000D01*
G01*
X-0031888Y-0016929D02*
G03*
X-0035825Y-0012992I-0003937J0000000D01*
G01*
X-0055118Y-0009843D02*
G03*
X-0051968Y-0012992I0003150J0000000D01*
G01*
X-0039370Y-0049213D02*
X0039370Y-0049213D01*
X0031888Y0016929D02*
X0031890Y0019685D01*
X-0039370Y0049213D02*
X-0030512Y0049213D01*
X0049213Y-0039370D02*
Y-0027559D01*
X0031888Y-0016929D02*
X0031890Y-0019685D01*
X0035827Y-0023622D02*
X0045276D01*
X-0049213Y0039370D02*
X-0049213Y0027441D01*
Y-0039370D02*
Y-0027441D01*
X-0031890Y-0019685D02*
X-0031888Y-0016929D01*
X0035827Y-0012992D02*
X0051970Y-0012992D01*
X-0021654Y0047244D02*
Y0048228D01*
X0055118Y-0009843D02*
Y0009843D01*
X-0051968Y0012992D02*
X-0035827D01*
X-0045276Y0023622D02*
X-0035827D01*
X0049213Y0027559D02*
Y0039370D01*
X-0055118Y-0009724D02*
Y0009724D01*
X-0031890Y0019685D02*
X-0031888Y0016929D01*
X0035827Y0023622D02*
X0045276D01*
X-0020669Y0049213D02*
X0039370D01*
X-0029528Y0047244D02*
Y0048228D01*
X-0045276Y-0023622D02*
X-0035827D01*
X0035827Y0012992D02*
X0051968D01*
X-0051970Y-0012992D02*
X-0035827Y-0012992D01*
D43*
X-0034252Y0000000D02*
D03*
Y0005000D02*
D03*
Y-0005000D02*
D03*
X0034252Y0000000D02*
D03*
X0034252Y-0005000D02*
D03*
Y0005000D02*
D03*
D44*
X-0041929Y-0009843D02*
D03*
Y0009843D02*
D03*
X0041929D02*
D03*
Y-0009843D02*
D03*
D45*
X-0019862Y0029134D02*
D03*
D46*
X-0009862D02*
D03*
Y0039134D02*
D03*
X0000138D02*
D03*
Y0029134D02*
D03*
X0010138Y0039134D02*
D03*
Y0029134D02*
D03*
X0020138D02*
D03*
Y0039134D02*
D03*
D47*
X-0019862D02*
D03*
D48*
X-0015551Y-0038189D02*
D03*
X-0022151D02*
D03*
Y-0043189D02*
D03*
X-0015551Y-0033189D02*
D03*
D49*
X-0022151D02*
D03*
D50*
X0039370Y0039370D02*
D03*
Y-0039370D02*
D03*
X-0039370D02*
D03*
Y0039370D02*
D03*
D65*
X-0045669Y-0000000D02*
D03*
X-0045669Y0005000D02*
D03*
X-0045669Y-0000000D02*
D03*
X0045669Y0000000D02*
D03*
X0045669Y-0005000D02*
D03*
X0045669Y0000000D02*
D03*
D66*
X-0044685Y-0005000D02*
D03*
X0044685Y0005000D02*
D03*
M02*
