G04*
G04 #@! TF.GenerationSoftware,Altium Limited,Altium Designer,22.4.2 (48)*
G04*
G04 Layer_Color=32896*
%FSAX25Y25*%
%MOIN*%
G70*
G04*
G04 #@! TF.SameCoordinates,03BAF07D-572A-4E9D-8DEF-3220CFA764F5*
G04*
G04*
G04 #@! TF.FilePolarity,Positive*
G04*
G01*
G75*
%ADD11C,0.00394*%
%ADD12C,0.01299*%
%ADD13C,0.03937*%
%ADD14C,0.00787*%
%ADD67R,0.31890X0.01181*%
%ADD68R,0.01181X0.01181*%
%ADD69R,0.03543X0.01181*%
%ADD70R,0.02362X0.01181*%
%ADD71R,0.05906X0.01181*%
%ADD72R,0.02362X0.01181*%
%ADD73R,0.05906X0.01181*%
%ADD74R,0.01181X0.01181*%
%ADD75R,0.03543X0.01181*%
%ADD76R,0.02362X0.01181*%
%ADD77R,0.01181X0.01181*%
%ADD78R,0.01181X0.01181*%
%ADD79R,0.03543X0.01181*%
%ADD80R,0.04724X0.01181*%
%ADD81R,0.14173X0.01181*%
%ADD82R,0.10630X0.01181*%
%ADD83R,0.02362X0.01181*%
%ADD84R,0.04724X0.01181*%
%ADD85R,0.05906X0.01181*%
%ADD86R,0.03543X0.01181*%
G36*
X0032473Y0030519D02*
X0031685Y0029730D01*
X0029730Y0031685D01*
X0030519Y0032473D01*
X0032473Y0030519D01*
D02*
G37*
G36*
X0107789Y-0018598D02*
X0107807D01*
X0107829Y-0018601D01*
X0107881Y-0018610D01*
X0107943Y-0018625D01*
X0108014Y-0018647D01*
X0108088Y-0018681D01*
X0108166Y-0018721D01*
X0108206Y-0018749D01*
X0108243Y-0018777D01*
X0108280Y-0018808D01*
X0108317Y-0018845D01*
X0108354Y-0018885D01*
X0108388Y-0018928D01*
X0108419Y-0018974D01*
X0108450Y-0019027D01*
X0108478Y-0019083D01*
X0108502Y-0019144D01*
X0108524Y-0019209D01*
X0108546Y-0019280D01*
X0108558Y-0019355D01*
X0108570Y-0019438D01*
X0108577Y-0019524D01*
X0108580Y-0019617D01*
Y-0021162D01*
X0108178D01*
Y-0019722D01*
Y-0019716D01*
Y-0019704D01*
Y-0019682D01*
X0108175Y-0019654D01*
Y-0019620D01*
X0108172Y-0019580D01*
X0108169Y-0019537D01*
X0108162Y-0019490D01*
X0108147Y-0019392D01*
X0108122Y-0019293D01*
X0108110Y-0019243D01*
X0108091Y-0019200D01*
X0108070Y-0019157D01*
X0108048Y-0019120D01*
Y-0019117D01*
X0108042Y-0019110D01*
X0108036Y-0019101D01*
X0108024Y-0019092D01*
X0108011Y-0019076D01*
X0107993Y-0019061D01*
X0107971Y-0019046D01*
X0107946Y-0019027D01*
X0107918Y-0019008D01*
X0107887Y-0018993D01*
X0107850Y-0018978D01*
X0107813Y-0018962D01*
X0107770Y-0018953D01*
X0107721Y-0018944D01*
X0107671Y-0018937D01*
X0107616Y-0018934D01*
X0107591D01*
X0107572Y-0018937D01*
X0107551Y-0018940D01*
X0107526Y-0018947D01*
X0107464Y-0018962D01*
X0107430Y-0018974D01*
X0107396Y-0018993D01*
X0107359Y-0019012D01*
X0107325Y-0019033D01*
X0107288Y-0019061D01*
X0107251Y-0019092D01*
X0107214Y-0019129D01*
X0107180Y-0019169D01*
X0107177Y-0019172D01*
X0107174Y-0019178D01*
X0107165Y-0019194D01*
X0107152Y-0019209D01*
X0107140Y-0019234D01*
X0107124Y-0019262D01*
X0107106Y-0019293D01*
X0107090Y-0019327D01*
X0107075Y-0019367D01*
X0107056Y-0019410D01*
X0107041Y-0019456D01*
X0107028Y-0019506D01*
X0107016Y-0019558D01*
X0107010Y-0019614D01*
X0107004Y-0019670D01*
X0107001Y-0019732D01*
Y-0021162D01*
X0106599D01*
Y-0019673D01*
Y-0019670D01*
Y-0019664D01*
Y-0019654D01*
Y-0019642D01*
X0106596Y-0019623D01*
Y-0019605D01*
X0106590Y-0019558D01*
X0106580Y-0019503D01*
X0106568Y-0019438D01*
X0106553Y-0019373D01*
X0106528Y-0019302D01*
X0106497Y-0019234D01*
X0106460Y-0019169D01*
X0106414Y-0019104D01*
X0106358Y-0019049D01*
X0106293Y-0019002D01*
X0106256Y-0018984D01*
X0106216Y-0018965D01*
X0106173Y-0018953D01*
X0106129Y-0018944D01*
X0106080Y-0018937D01*
X0106027Y-0018934D01*
X0106003D01*
X0105984Y-0018937D01*
X0105959Y-0018940D01*
X0105935Y-0018947D01*
X0105873Y-0018962D01*
X0105839Y-0018974D01*
X0105805Y-0018990D01*
X0105768Y-0019005D01*
X0105731Y-0019027D01*
X0105694Y-0019055D01*
X0105657Y-0019083D01*
X0105623Y-0019117D01*
X0105589Y-0019157D01*
X0105586Y-0019160D01*
X0105582Y-0019166D01*
X0105573Y-0019178D01*
X0105561Y-0019197D01*
X0105548Y-0019219D01*
X0105536Y-0019243D01*
X0105521Y-0019274D01*
X0105505Y-0019311D01*
X0105487Y-0019352D01*
X0105471Y-0019395D01*
X0105459Y-0019441D01*
X0105446Y-0019490D01*
X0105434Y-0019546D01*
X0105425Y-0019605D01*
X0105422Y-0019667D01*
X0105419Y-0019732D01*
Y-0021162D01*
X0105017D01*
Y-0018653D01*
X0105419D01*
Y-0019052D01*
X0105428D01*
X0105431Y-0019046D01*
X0105440Y-0019033D01*
X0105456Y-0019008D01*
X0105477Y-0018981D01*
X0105505Y-0018947D01*
X0105539Y-0018906D01*
X0105579Y-0018866D01*
X0105626Y-0018823D01*
X0105678Y-0018780D01*
X0105737Y-0018740D01*
X0105802Y-0018699D01*
X0105870Y-0018665D01*
X0105947Y-0018638D01*
X0106030Y-0018613D01*
X0106117Y-0018601D01*
X0106210Y-0018594D01*
X0106234D01*
X0106253Y-0018598D01*
X0106274D01*
X0106302Y-0018601D01*
X0106330Y-0018607D01*
X0106361Y-0018613D01*
X0106432Y-0018628D01*
X0106506Y-0018656D01*
X0106580Y-0018690D01*
X0106617Y-0018715D01*
X0106655Y-0018740D01*
X0106658Y-0018743D01*
X0106664Y-0018746D01*
X0106673Y-0018755D01*
X0106685Y-0018764D01*
X0106720Y-0018798D01*
X0106760Y-0018839D01*
X0106803Y-0018894D01*
X0106846Y-0018959D01*
X0106886Y-0019033D01*
X0106917Y-0019117D01*
X0106920Y-0019110D01*
X0106930Y-0019095D01*
X0106948Y-0019067D01*
X0106970Y-0019036D01*
X0107001Y-0018996D01*
X0107035Y-0018950D01*
X0107078Y-0018903D01*
X0107127Y-0018854D01*
X0107183Y-0018808D01*
X0107245Y-0018758D01*
X0107313Y-0018715D01*
X0107387Y-0018675D01*
X0107470Y-0018644D01*
X0107557Y-0018616D01*
X0107653Y-0018601D01*
X0107752Y-0018594D01*
X0107773D01*
X0107789Y-0018598D01*
D02*
G37*
G36*
X0120649Y-0018613D02*
X0120683D01*
X0120720Y-0018619D01*
X0120761Y-0018625D01*
X0120801Y-0018632D01*
X0120835Y-0018644D01*
Y-0019061D01*
X0120828Y-0019058D01*
X0120816Y-0019049D01*
X0120791Y-0019036D01*
X0120757Y-0019021D01*
X0120711Y-0019005D01*
X0120662Y-0018993D01*
X0120600Y-0018984D01*
X0120529Y-0018981D01*
X0120504D01*
X0120485Y-0018984D01*
X0120464Y-0018987D01*
X0120439Y-0018993D01*
X0120380Y-0019012D01*
X0120346Y-0019024D01*
X0120312Y-0019039D01*
X0120275Y-0019061D01*
X0120238Y-0019083D01*
X0120204Y-0019110D01*
X0120167Y-0019144D01*
X0120133Y-0019182D01*
X0120099Y-0019225D01*
X0120096Y-0019228D01*
X0120093Y-0019237D01*
X0120084Y-0019250D01*
X0120071Y-0019268D01*
X0120059Y-0019293D01*
X0120044Y-0019324D01*
X0120028Y-0019358D01*
X0120013Y-0019398D01*
X0119997Y-0019441D01*
X0119982Y-0019490D01*
X0119966Y-0019546D01*
X0119954Y-0019605D01*
X0119942Y-0019670D01*
X0119932Y-0019738D01*
X0119929Y-0019809D01*
X0119926Y-0019886D01*
Y-0021162D01*
X0119525D01*
Y-0018653D01*
X0119926D01*
Y-0019172D01*
X0119935D01*
Y-0019169D01*
X0119939Y-0019160D01*
X0119945Y-0019148D01*
X0119951Y-0019129D01*
X0119960Y-0019107D01*
X0119973Y-0019080D01*
X0120000Y-0019021D01*
X0120037Y-0018953D01*
X0120084Y-0018885D01*
X0120136Y-0018820D01*
X0120198Y-0018758D01*
X0120201Y-0018755D01*
X0120207Y-0018752D01*
X0120217Y-0018746D01*
X0120229Y-0018733D01*
X0120244Y-0018724D01*
X0120266Y-0018712D01*
X0120312Y-0018684D01*
X0120371Y-0018656D01*
X0120439Y-0018632D01*
X0120513Y-0018616D01*
X0120553Y-0018613D01*
X0120594Y-0018610D01*
X0120618D01*
X0120649Y-0018613D01*
D02*
G37*
G36*
X0125881Y-0021564D02*
Y-0021567D01*
X0125877Y-0021573D01*
X0125871Y-0021583D01*
X0125865Y-0021598D01*
X0125859Y-0021617D01*
X0125850Y-0021635D01*
X0125825Y-0021684D01*
X0125791Y-0021743D01*
X0125754Y-0021811D01*
X0125707Y-0021879D01*
X0125655Y-0021953D01*
X0125596Y-0022024D01*
X0125531Y-0022095D01*
X0125460Y-0022163D01*
X0125383Y-0022222D01*
X0125300Y-0022272D01*
X0125256Y-0022290D01*
X0125210Y-0022309D01*
X0125164Y-0022324D01*
X0125114Y-0022333D01*
X0125065Y-0022340D01*
X0125012Y-0022343D01*
X0124988D01*
X0124957Y-0022340D01*
X0124920D01*
X0124879Y-0022333D01*
X0124836Y-0022327D01*
X0124790Y-0022321D01*
X0124750Y-0022309D01*
Y-0021950D01*
X0124756Y-0021953D01*
X0124771Y-0021956D01*
X0124796Y-0021962D01*
X0124827Y-0021972D01*
X0124864Y-0021981D01*
X0124904Y-0021987D01*
X0124947Y-0021990D01*
X0124988Y-0021993D01*
X0125000D01*
X0125015Y-0021990D01*
X0125037Y-0021987D01*
X0125062Y-0021981D01*
X0125093Y-0021975D01*
X0125124Y-0021962D01*
X0125161Y-0021947D01*
X0125195Y-0021929D01*
X0125235Y-0021904D01*
X0125272Y-0021876D01*
X0125309Y-0021842D01*
X0125346Y-0021799D01*
X0125383Y-0021752D01*
X0125414Y-0021697D01*
X0125445Y-0021632D01*
X0125646Y-0021159D01*
X0124666Y-0018653D01*
X0125111D01*
X0125791Y-0020584D01*
Y-0020587D01*
X0125794Y-0020594D01*
X0125797Y-0020603D01*
X0125803Y-0020621D01*
X0125810Y-0020646D01*
X0125816Y-0020680D01*
X0125828Y-0020723D01*
X0125840Y-0020776D01*
X0125856D01*
Y-0020773D01*
X0125859Y-0020764D01*
X0125862Y-0020751D01*
X0125868Y-0020730D01*
X0125874Y-0020705D01*
X0125881Y-0020674D01*
X0125893Y-0020634D01*
X0125905Y-0020591D01*
X0126619Y-0018653D01*
X0127033D01*
X0125881Y-0021564D01*
D02*
G37*
G36*
X0115470Y-0021162D02*
X0115075D01*
X0114126Y-0018653D01*
X0114565D01*
X0115205Y-0020476D01*
Y-0020479D01*
X0115208Y-0020485D01*
X0115211Y-0020495D01*
X0115217Y-0020510D01*
X0115223Y-0020529D01*
X0115229Y-0020547D01*
X0115242Y-0020597D01*
X0115257Y-0020649D01*
X0115273Y-0020708D01*
X0115282Y-0020770D01*
X0115291Y-0020829D01*
X0115300D01*
Y-0020825D01*
Y-0020819D01*
X0115304Y-0020810D01*
X0115307Y-0020798D01*
Y-0020779D01*
X0115313Y-0020761D01*
X0115319Y-0020714D01*
X0115331Y-0020662D01*
X0115344Y-0020606D01*
X0115362Y-0020547D01*
X0115381Y-0020489D01*
X0116045Y-0018653D01*
X0116469D01*
X0115470Y-0021162D01*
D02*
G37*
G36*
X0123433Y-0018598D02*
X0123455D01*
X0123477Y-0018601D01*
X0123504Y-0018604D01*
X0123535Y-0018610D01*
X0123600Y-0018622D01*
X0123677Y-0018644D01*
X0123755Y-0018672D01*
X0123838Y-0018712D01*
X0123922Y-0018761D01*
X0123962Y-0018789D01*
X0124002Y-0018823D01*
X0124039Y-0018860D01*
X0124076Y-0018897D01*
X0124110Y-0018940D01*
X0124141Y-0018990D01*
X0124172Y-0019039D01*
X0124200Y-0019095D01*
X0124221Y-0019157D01*
X0124243Y-0019222D01*
X0124258Y-0019290D01*
X0124271Y-0019367D01*
X0124277Y-0019444D01*
X0124280Y-0019531D01*
Y-0021162D01*
X0123878D01*
Y-0020773D01*
X0123869D01*
X0123866Y-0020779D01*
X0123857Y-0020791D01*
X0123841Y-0020813D01*
X0123820Y-0020844D01*
X0123792Y-0020878D01*
X0123758Y-0020915D01*
X0123721Y-0020955D01*
X0123674Y-0020995D01*
X0123622Y-0021039D01*
X0123566Y-0021079D01*
X0123501Y-0021116D01*
X0123433Y-0021150D01*
X0123356Y-0021181D01*
X0123276Y-0021202D01*
X0123189Y-0021215D01*
X0123097Y-0021221D01*
X0123059D01*
X0123035Y-0021218D01*
X0123004Y-0021215D01*
X0122967Y-0021212D01*
X0122926Y-0021205D01*
X0122883Y-0021196D01*
X0122787Y-0021171D01*
X0122741Y-0021156D01*
X0122692Y-0021137D01*
X0122642Y-0021116D01*
X0122596Y-0021088D01*
X0122553Y-0021057D01*
X0122509Y-0021023D01*
X0122506Y-0021020D01*
X0122500Y-0021014D01*
X0122491Y-0021002D01*
X0122475Y-0020986D01*
X0122460Y-0020968D01*
X0122444Y-0020943D01*
X0122423Y-0020915D01*
X0122404Y-0020884D01*
X0122386Y-0020847D01*
X0122367Y-0020807D01*
X0122349Y-0020764D01*
X0122333Y-0020717D01*
X0122318Y-0020668D01*
X0122309Y-0020615D01*
X0122302Y-0020557D01*
X0122299Y-0020498D01*
Y-0020495D01*
Y-0020489D01*
Y-0020479D01*
X0122302Y-0020467D01*
Y-0020451D01*
X0122306Y-0020433D01*
X0122312Y-0020387D01*
X0122324Y-0020331D01*
X0122343Y-0020269D01*
X0122367Y-0020201D01*
X0122404Y-0020130D01*
X0122448Y-0020059D01*
X0122500Y-0019988D01*
X0122534Y-0019954D01*
X0122568Y-0019920D01*
X0122608Y-0019886D01*
X0122649Y-0019855D01*
X0122695Y-0019824D01*
X0122744Y-0019796D01*
X0122797Y-0019772D01*
X0122855Y-0019747D01*
X0122917Y-0019725D01*
X0122982Y-0019707D01*
X0123053Y-0019691D01*
X0123127Y-0019679D01*
X0123878Y-0019574D01*
Y-0019571D01*
Y-0019568D01*
Y-0019558D01*
Y-0019546D01*
X0123875Y-0019515D01*
X0123869Y-0019475D01*
X0123863Y-0019426D01*
X0123851Y-0019370D01*
X0123835Y-0019314D01*
X0123813Y-0019253D01*
X0123786Y-0019194D01*
X0123752Y-0019135D01*
X0123711Y-0019083D01*
X0123662Y-0019033D01*
X0123600Y-0018993D01*
X0123532Y-0018962D01*
X0123495Y-0018950D01*
X0123452Y-0018940D01*
X0123409Y-0018937D01*
X0123362Y-0018934D01*
X0123341D01*
X0123319Y-0018937D01*
X0123285Y-0018940D01*
X0123245Y-0018944D01*
X0123198Y-0018950D01*
X0123146Y-0018959D01*
X0123090Y-0018971D01*
X0123029Y-0018990D01*
X0122964Y-0019008D01*
X0122896Y-0019033D01*
X0122825Y-0019064D01*
X0122754Y-0019101D01*
X0122682Y-0019141D01*
X0122611Y-0019188D01*
X0122543Y-0019243D01*
Y-0018832D01*
X0122547Y-0018829D01*
X0122559Y-0018823D01*
X0122581Y-0018811D01*
X0122608Y-0018795D01*
X0122645Y-0018777D01*
X0122686Y-0018758D01*
X0122735Y-0018737D01*
X0122791Y-0018712D01*
X0122849Y-0018690D01*
X0122914Y-0018669D01*
X0122985Y-0018650D01*
X0123059Y-0018632D01*
X0123140Y-0018616D01*
X0123220Y-0018604D01*
X0123307Y-0018598D01*
X0123396Y-0018594D01*
X0123418D01*
X0123433Y-0018598D01*
D02*
G37*
G36*
X0121672Y-0021162D02*
X0121270D01*
Y-0017448D01*
X0121672D01*
Y-0021162D01*
D02*
G37*
G36*
X0093989Y-0017652D02*
X0094026Y-0017655D01*
X0094069Y-0017661D01*
X0094118Y-0017667D01*
X0094174Y-0017677D01*
X0094230Y-0017689D01*
X0094288Y-0017705D01*
X0094350Y-0017723D01*
X0094409Y-0017745D01*
X0094471Y-0017769D01*
X0094526Y-0017800D01*
X0094582Y-0017834D01*
X0094634Y-0017875D01*
X0094638Y-0017878D01*
X0094647Y-0017884D01*
X0094659Y-0017896D01*
X0094675Y-0017915D01*
X0094696Y-0017936D01*
X0094718Y-0017964D01*
X0094743Y-0017995D01*
X0094767Y-0018029D01*
X0094792Y-0018069D01*
X0094817Y-0018112D01*
X0094839Y-0018162D01*
X0094860Y-0018211D01*
X0094876Y-0018267D01*
X0094888Y-0018326D01*
X0094897Y-0018387D01*
X0094900Y-0018452D01*
Y-0018455D01*
Y-0018465D01*
Y-0018480D01*
X0094897Y-0018502D01*
X0094894Y-0018530D01*
X0094891Y-0018557D01*
X0094888Y-0018591D01*
X0094882Y-0018628D01*
X0094860Y-0018712D01*
X0094832Y-0018798D01*
X0094814Y-0018845D01*
X0094792Y-0018888D01*
X0094767Y-0018931D01*
X0094740Y-0018974D01*
X0094736Y-0018978D01*
X0094733Y-0018984D01*
X0094724Y-0018996D01*
X0094709Y-0019012D01*
X0094693Y-0019027D01*
X0094675Y-0019049D01*
X0094650Y-0019070D01*
X0094625Y-0019095D01*
X0094594Y-0019120D01*
X0094560Y-0019148D01*
X0094523Y-0019172D01*
X0094483Y-0019200D01*
X0094440Y-0019225D01*
X0094397Y-0019246D01*
X0094295Y-0019287D01*
Y-0019296D01*
X0094298D01*
X0094310Y-0019299D01*
X0094329Y-0019302D01*
X0094353Y-0019305D01*
X0094384Y-0019311D01*
X0094418Y-0019321D01*
X0094458Y-0019333D01*
X0094499Y-0019345D01*
X0094588Y-0019379D01*
X0094638Y-0019401D01*
X0094684Y-0019429D01*
X0094730Y-0019456D01*
X0094777Y-0019488D01*
X0094823Y-0019524D01*
X0094863Y-0019565D01*
X0094866Y-0019568D01*
X0094872Y-0019574D01*
X0094882Y-0019586D01*
X0094897Y-0019605D01*
X0094913Y-0019630D01*
X0094931Y-0019654D01*
X0094950Y-0019688D01*
X0094971Y-0019722D01*
X0094990Y-0019762D01*
X0095008Y-0019809D01*
X0095027Y-0019855D01*
X0095042Y-0019908D01*
X0095058Y-0019966D01*
X0095067Y-0020025D01*
X0095073Y-0020087D01*
X0095076Y-0020155D01*
Y-0020161D01*
Y-0020173D01*
X0095073Y-0020198D01*
X0095070Y-0020229D01*
X0095067Y-0020269D01*
X0095058Y-0020312D01*
X0095049Y-0020362D01*
X0095036Y-0020414D01*
X0095018Y-0020473D01*
X0094996Y-0020532D01*
X0094971Y-0020591D01*
X0094940Y-0020652D01*
X0094903Y-0020714D01*
X0094860Y-0020773D01*
X0094811Y-0020829D01*
X0094752Y-0020884D01*
X0094749Y-0020887D01*
X0094736Y-0020897D01*
X0094718Y-0020909D01*
X0094693Y-0020927D01*
X0094662Y-0020949D01*
X0094622Y-0020971D01*
X0094579Y-0020999D01*
X0094529Y-0021023D01*
X0094471Y-0021048D01*
X0094409Y-0021073D01*
X0094344Y-0021097D01*
X0094270Y-0021119D01*
X0094193Y-0021137D01*
X0094112Y-0021150D01*
X0094026Y-0021159D01*
X0093936Y-0021162D01*
X0092913D01*
Y-0017649D01*
X0093955D01*
X0093989Y-0017652D01*
D02*
G37*
G36*
X0100907Y-0018653D02*
X0101541D01*
Y-0018999D01*
X0100907D01*
Y-0020411D01*
Y-0020414D01*
Y-0020424D01*
Y-0020436D01*
Y-0020451D01*
X0100910Y-0020473D01*
X0100913Y-0020498D01*
X0100920Y-0020550D01*
X0100929Y-0020612D01*
X0100944Y-0020671D01*
X0100966Y-0020727D01*
X0100978Y-0020751D01*
X0100994Y-0020773D01*
X0100997Y-0020776D01*
X0101009Y-0020788D01*
X0101031Y-0020807D01*
X0101062Y-0020825D01*
X0101102Y-0020847D01*
X0101151Y-0020863D01*
X0101210Y-0020875D01*
X0101278Y-0020881D01*
X0101303D01*
X0101330Y-0020878D01*
X0101368Y-0020872D01*
X0101408Y-0020859D01*
X0101454Y-0020847D01*
X0101497Y-0020825D01*
X0101541Y-0020798D01*
Y-0021141D01*
X0101538D01*
X0101534Y-0021144D01*
X0101525Y-0021147D01*
X0101516Y-0021153D01*
X0101482Y-0021165D01*
X0101442Y-0021178D01*
X0101386Y-0021190D01*
X0101321Y-0021202D01*
X0101247Y-0021212D01*
X0101164Y-0021215D01*
X0101136D01*
X0101102Y-0021209D01*
X0101062Y-0021202D01*
X0101012Y-0021193D01*
X0100957Y-0021175D01*
X0100895Y-0021153D01*
X0100836Y-0021122D01*
X0100774Y-0021085D01*
X0100713Y-0021035D01*
X0100657Y-0020977D01*
X0100632Y-0020943D01*
X0100608Y-0020906D01*
X0100586Y-0020866D01*
X0100567Y-0020822D01*
X0100549Y-0020776D01*
X0100533Y-0020723D01*
X0100521Y-0020671D01*
X0100512Y-0020612D01*
X0100509Y-0020550D01*
X0100505Y-0020482D01*
Y-0018999D01*
X0100076D01*
Y-0018653D01*
X0100505D01*
Y-0018041D01*
X0100907Y-0017911D01*
Y-0018653D01*
D02*
G37*
G36*
X0099208D02*
X0099841D01*
Y-0018999D01*
X0099208D01*
Y-0020411D01*
Y-0020414D01*
Y-0020424D01*
Y-0020436D01*
Y-0020451D01*
X0099211Y-0020473D01*
X0099214Y-0020498D01*
X0099220Y-0020550D01*
X0099229Y-0020612D01*
X0099245Y-0020671D01*
X0099266Y-0020727D01*
X0099279Y-0020751D01*
X0099294Y-0020773D01*
X0099297Y-0020776D01*
X0099310Y-0020788D01*
X0099331Y-0020807D01*
X0099362Y-0020825D01*
X0099402Y-0020847D01*
X0099452Y-0020863D01*
X0099511Y-0020875D01*
X0099578Y-0020881D01*
X0099603D01*
X0099631Y-0020878D01*
X0099668Y-0020872D01*
X0099708Y-0020859D01*
X0099755Y-0020847D01*
X0099798Y-0020825D01*
X0099841Y-0020798D01*
Y-0021141D01*
X0099838D01*
X0099835Y-0021144D01*
X0099826Y-0021147D01*
X0099816Y-0021153D01*
X0099782Y-0021165D01*
X0099742Y-0021178D01*
X0099687Y-0021190D01*
X0099622Y-0021202D01*
X0099548Y-0021212D01*
X0099464Y-0021215D01*
X0099436D01*
X0099402Y-0021209D01*
X0099362Y-0021202D01*
X0099313Y-0021193D01*
X0099257Y-0021175D01*
X0099195Y-0021153D01*
X0099137Y-0021122D01*
X0099075Y-0021085D01*
X0099013Y-0021035D01*
X0098957Y-0020977D01*
X0098933Y-0020943D01*
X0098908Y-0020906D01*
X0098886Y-0020866D01*
X0098868Y-0020822D01*
X0098849Y-0020776D01*
X0098834Y-0020723D01*
X0098822Y-0020671D01*
X0098812Y-0020612D01*
X0098809Y-0020550D01*
X0098806Y-0020482D01*
Y-0018999D01*
X0098377D01*
Y-0018653D01*
X0098806D01*
Y-0018041D01*
X0099208Y-0017911D01*
Y-0018653D01*
D02*
G37*
G36*
X0117933Y-0018598D02*
X0117967Y-0018601D01*
X0118010Y-0018604D01*
X0118057Y-0018610D01*
X0118109Y-0018622D01*
X0118165Y-0018635D01*
X0118227Y-0018650D01*
X0118289Y-0018672D01*
X0118350Y-0018699D01*
X0118415Y-0018730D01*
X0118477Y-0018767D01*
X0118536Y-0018811D01*
X0118594Y-0018860D01*
X0118647Y-0018916D01*
X0118650Y-0018919D01*
X0118659Y-0018931D01*
X0118672Y-0018950D01*
X0118690Y-0018974D01*
X0118709Y-0019005D01*
X0118733Y-0019046D01*
X0118758Y-0019092D01*
X0118783Y-0019144D01*
X0118808Y-0019206D01*
X0118832Y-0019271D01*
X0118857Y-0019345D01*
X0118876Y-0019423D01*
X0118894Y-0019509D01*
X0118906Y-0019599D01*
X0118916Y-0019698D01*
X0118919Y-0019800D01*
Y-0020010D01*
X0117145D01*
Y-0020016D01*
Y-0020028D01*
X0117148Y-0020050D01*
X0117151Y-0020078D01*
X0117154Y-0020115D01*
X0117161Y-0020155D01*
X0117167Y-0020198D01*
X0117179Y-0020248D01*
X0117207Y-0020353D01*
X0117226Y-0020405D01*
X0117247Y-0020461D01*
X0117272Y-0020513D01*
X0117300Y-0020566D01*
X0117334Y-0020612D01*
X0117371Y-0020659D01*
X0117374Y-0020662D01*
X0117380Y-0020668D01*
X0117392Y-0020680D01*
X0117411Y-0020693D01*
X0117432Y-0020711D01*
X0117460Y-0020730D01*
X0117491Y-0020751D01*
X0117525Y-0020770D01*
X0117565Y-0020791D01*
X0117612Y-0020813D01*
X0117658Y-0020832D01*
X0117714Y-0020850D01*
X0117769Y-0020863D01*
X0117831Y-0020875D01*
X0117896Y-0020881D01*
X0117964Y-0020884D01*
X0117982D01*
X0118004Y-0020881D01*
X0118035D01*
X0118072Y-0020875D01*
X0118115Y-0020869D01*
X0118165Y-0020859D01*
X0118220Y-0020850D01*
X0118279Y-0020835D01*
X0118341Y-0020816D01*
X0118406Y-0020795D01*
X0118471Y-0020767D01*
X0118539Y-0020736D01*
X0118607Y-0020699D01*
X0118675Y-0020655D01*
X0118743Y-0020606D01*
Y-0020983D01*
X0118740Y-0020986D01*
X0118727Y-0020992D01*
X0118709Y-0021005D01*
X0118684Y-0021020D01*
X0118650Y-0021039D01*
X0118610Y-0021057D01*
X0118563Y-0021079D01*
X0118511Y-0021100D01*
X0118449Y-0021125D01*
X0118384Y-0021147D01*
X0118313Y-0021165D01*
X0118236Y-0021184D01*
X0118152Y-0021199D01*
X0118063Y-0021212D01*
X0117967Y-0021218D01*
X0117868Y-0021221D01*
X0117843D01*
X0117819Y-0021218D01*
X0117782Y-0021215D01*
X0117735Y-0021212D01*
X0117683Y-0021202D01*
X0117627Y-0021193D01*
X0117565Y-0021178D01*
X0117500Y-0021159D01*
X0117432Y-0021137D01*
X0117361Y-0021110D01*
X0117294Y-0021079D01*
X0117222Y-0021039D01*
X0117157Y-0020992D01*
X0117093Y-0020940D01*
X0117034Y-0020881D01*
X0117031Y-0020878D01*
X0117022Y-0020866D01*
X0117006Y-0020844D01*
X0116988Y-0020816D01*
X0116963Y-0020782D01*
X0116938Y-0020739D01*
X0116910Y-0020689D01*
X0116883Y-0020631D01*
X0116855Y-0020569D01*
X0116827Y-0020495D01*
X0116802Y-0020417D01*
X0116777Y-0020331D01*
X0116759Y-0020238D01*
X0116744Y-0020139D01*
X0116734Y-0020031D01*
X0116731Y-0019920D01*
Y-0019917D01*
Y-0019914D01*
Y-0019905D01*
Y-0019895D01*
X0116734Y-0019864D01*
X0116737Y-0019821D01*
X0116740Y-0019772D01*
X0116750Y-0019716D01*
X0116759Y-0019651D01*
X0116771Y-0019580D01*
X0116790Y-0019506D01*
X0116811Y-0019429D01*
X0116839Y-0019348D01*
X0116870Y-0019268D01*
X0116907Y-0019191D01*
X0116954Y-0019110D01*
X0117003Y-0019036D01*
X0117062Y-0018965D01*
X0117065Y-0018962D01*
X0117077Y-0018950D01*
X0117096Y-0018931D01*
X0117120Y-0018906D01*
X0117154Y-0018879D01*
X0117195Y-0018848D01*
X0117238Y-0018814D01*
X0117290Y-0018780D01*
X0117346Y-0018746D01*
X0117411Y-0018712D01*
X0117479Y-0018681D01*
X0117550Y-0018653D01*
X0117627Y-0018628D01*
X0117711Y-0018610D01*
X0117797Y-0018598D01*
X0117887Y-0018594D01*
X0117908D01*
X0117933Y-0018598D01*
D02*
G37*
G36*
X0112294Y-0017593D02*
X0112315D01*
X0112337Y-0017596D01*
X0112365D01*
X0112427Y-0017606D01*
X0112498Y-0017615D01*
X0112578Y-0017630D01*
X0112665Y-0017652D01*
X0112754Y-0017677D01*
X0112850Y-0017711D01*
X0112946Y-0017751D01*
X0113045Y-0017797D01*
X0113144Y-0017853D01*
X0113236Y-0017918D01*
X0113329Y-0017995D01*
X0113416Y-0018081D01*
X0113422Y-0018088D01*
X0113434Y-0018103D01*
X0113456Y-0018131D01*
X0113487Y-0018171D01*
X0113517Y-0018221D01*
X0113558Y-0018279D01*
X0113598Y-0018347D01*
X0113638Y-0018425D01*
X0113678Y-0018514D01*
X0113718Y-0018610D01*
X0113759Y-0018715D01*
X0113793Y-0018829D01*
X0113820Y-0018953D01*
X0113842Y-0019083D01*
X0113854Y-0019219D01*
X0113860Y-0019364D01*
Y-0019367D01*
Y-0019373D01*
Y-0019386D01*
Y-0019401D01*
X0113857Y-0019423D01*
Y-0019447D01*
X0113854Y-0019475D01*
Y-0019506D01*
X0113851Y-0019540D01*
X0113848Y-0019577D01*
X0113836Y-0019660D01*
X0113823Y-0019756D01*
X0113805Y-0019855D01*
X0113780Y-0019963D01*
X0113749Y-0020075D01*
X0113712Y-0020186D01*
X0113669Y-0020300D01*
X0113616Y-0020411D01*
X0113555Y-0020523D01*
X0113484Y-0020625D01*
X0113403Y-0020723D01*
X0113397Y-0020730D01*
X0113382Y-0020745D01*
X0113357Y-0020770D01*
X0113320Y-0020801D01*
X0113273Y-0020838D01*
X0113218Y-0020881D01*
X0113156Y-0020924D01*
X0113082Y-0020971D01*
X0112998Y-0021017D01*
X0112906Y-0021063D01*
X0112807Y-0021107D01*
X0112699Y-0021144D01*
X0112581Y-0021175D01*
X0112458Y-0021199D01*
X0112325Y-0021215D01*
X0112186Y-0021221D01*
X0112152D01*
X0112136Y-0021218D01*
X0112115D01*
X0112090Y-0021215D01*
X0112062Y-0021212D01*
X0111997Y-0021205D01*
X0111926Y-0021196D01*
X0111843Y-0021181D01*
X0111756Y-0021159D01*
X0111660Y-0021134D01*
X0111565Y-0021100D01*
X0111466Y-0021060D01*
X0111364Y-0021014D01*
X0111265Y-0020958D01*
X0111169Y-0020890D01*
X0111073Y-0020816D01*
X0110987Y-0020730D01*
X0110981Y-0020723D01*
X0110968Y-0020708D01*
X0110947Y-0020680D01*
X0110916Y-0020640D01*
X0110882Y-0020591D01*
X0110845Y-0020532D01*
X0110804Y-0020464D01*
X0110764Y-0020383D01*
X0110721Y-0020297D01*
X0110681Y-0020201D01*
X0110644Y-0020096D01*
X0110610Y-0019982D01*
X0110579Y-0019858D01*
X0110557Y-0019728D01*
X0110545Y-0019592D01*
X0110539Y-0019447D01*
Y-0019444D01*
Y-0019438D01*
Y-0019426D01*
Y-0019410D01*
X0110542Y-0019389D01*
Y-0019367D01*
X0110545Y-0019339D01*
Y-0019308D01*
X0110548Y-0019274D01*
X0110554Y-0019234D01*
X0110564Y-0019154D01*
X0110576Y-0019061D01*
X0110598Y-0018962D01*
X0110619Y-0018854D01*
X0110650Y-0018746D01*
X0110687Y-0018635D01*
X0110730Y-0018520D01*
X0110783Y-0018409D01*
X0110845Y-0018301D01*
X0110916Y-0018196D01*
X0110996Y-0018097D01*
X0111002Y-0018091D01*
X0111018Y-0018075D01*
X0111042Y-0018051D01*
X0111080Y-0018017D01*
X0111126Y-0017979D01*
X0111185Y-0017936D01*
X0111249Y-0017890D01*
X0111324Y-0017844D01*
X0111410Y-0017797D01*
X0111503Y-0017751D01*
X0111605Y-0017708D01*
X0111716Y-0017671D01*
X0111837Y-0017637D01*
X0111963Y-0017612D01*
X0112099Y-0017596D01*
X0112244Y-0017590D01*
X0112275D01*
X0112294Y-0017593D01*
D02*
G37*
G36*
X0103237Y-0018598D02*
X0103277Y-0018601D01*
X0103324Y-0018604D01*
X0103379Y-0018613D01*
X0103438Y-0018622D01*
X0103503Y-0018638D01*
X0103574Y-0018656D01*
X0103645Y-0018678D01*
X0103716Y-0018706D01*
X0103790Y-0018740D01*
X0103861Y-0018780D01*
X0103932Y-0018826D01*
X0103997Y-0018879D01*
X0104059Y-0018940D01*
X0104062Y-0018944D01*
X0104071Y-0018956D01*
X0104087Y-0018978D01*
X0104108Y-0019005D01*
X0104133Y-0019039D01*
X0104158Y-0019083D01*
X0104189Y-0019132D01*
X0104217Y-0019191D01*
X0104247Y-0019256D01*
X0104275Y-0019327D01*
X0104300Y-0019404D01*
X0104325Y-0019490D01*
X0104346Y-0019583D01*
X0104362Y-0019682D01*
X0104371Y-0019787D01*
X0104374Y-0019898D01*
Y-0019902D01*
Y-0019905D01*
Y-0019914D01*
Y-0019926D01*
X0104371Y-0019957D01*
X0104368Y-0019997D01*
X0104365Y-0020050D01*
X0104356Y-0020109D01*
X0104346Y-0020173D01*
X0104331Y-0020245D01*
X0104312Y-0020319D01*
X0104291Y-0020399D01*
X0104263Y-0020479D01*
X0104232Y-0020560D01*
X0104192Y-0020640D01*
X0104146Y-0020717D01*
X0104093Y-0020791D01*
X0104034Y-0020863D01*
X0104031Y-0020866D01*
X0104019Y-0020878D01*
X0104000Y-0020897D01*
X0103972Y-0020918D01*
X0103938Y-0020946D01*
X0103898Y-0020977D01*
X0103849Y-0021008D01*
X0103793Y-0021042D01*
X0103732Y-0021076D01*
X0103664Y-0021107D01*
X0103589Y-0021137D01*
X0103509Y-0021165D01*
X0103419Y-0021187D01*
X0103327Y-0021205D01*
X0103231Y-0021218D01*
X0103126Y-0021221D01*
X0103101D01*
X0103073Y-0021218D01*
X0103033Y-0021215D01*
X0102987Y-0021212D01*
X0102931Y-0021202D01*
X0102873Y-0021193D01*
X0102808Y-0021178D01*
X0102736Y-0021159D01*
X0102665Y-0021134D01*
X0102591Y-0021107D01*
X0102517Y-0021073D01*
X0102443Y-0021033D01*
X0102369Y-0020986D01*
X0102301Y-0020934D01*
X0102236Y-0020872D01*
X0102233Y-0020869D01*
X0102220Y-0020856D01*
X0102205Y-0020835D01*
X0102183Y-0020807D01*
X0102159Y-0020773D01*
X0102131Y-0020730D01*
X0102103Y-0020680D01*
X0102072Y-0020621D01*
X0102041Y-0020560D01*
X0102010Y-0020489D01*
X0101982Y-0020411D01*
X0101958Y-0020328D01*
X0101936Y-0020241D01*
X0101921Y-0020146D01*
X0101908Y-0020044D01*
X0101905Y-0019939D01*
Y-0019936D01*
Y-0019932D01*
Y-0019923D01*
Y-0019911D01*
X0101908Y-0019877D01*
X0101911Y-0019834D01*
X0101915Y-0019781D01*
X0101924Y-0019719D01*
X0101933Y-0019651D01*
X0101948Y-0019577D01*
X0101967Y-0019500D01*
X0101989Y-0019420D01*
X0102016Y-0019336D01*
X0102050Y-0019253D01*
X0102091Y-0019172D01*
X0102134Y-0019095D01*
X0102187Y-0019021D01*
X0102248Y-0018950D01*
X0102251Y-0018947D01*
X0102264Y-0018934D01*
X0102285Y-0018916D01*
X0102313Y-0018894D01*
X0102347Y-0018866D01*
X0102390Y-0018839D01*
X0102440Y-0018805D01*
X0102496Y-0018771D01*
X0102557Y-0018740D01*
X0102628Y-0018706D01*
X0102706Y-0018678D01*
X0102789Y-0018650D01*
X0102879Y-0018628D01*
X0102974Y-0018610D01*
X0103076Y-0018598D01*
X0103184Y-0018594D01*
X0103209D01*
X0103237Y-0018598D01*
D02*
G37*
G36*
X0096896D02*
X0096937Y-0018601D01*
X0096983Y-0018604D01*
X0097039Y-0018613D01*
X0097097Y-0018622D01*
X0097162Y-0018638D01*
X0097233Y-0018656D01*
X0097304Y-0018678D01*
X0097375Y-0018706D01*
X0097449Y-0018740D01*
X0097521Y-0018780D01*
X0097592Y-0018826D01*
X0097657Y-0018879D01*
X0097718Y-0018940D01*
X0097721Y-0018944D01*
X0097731Y-0018956D01*
X0097746Y-0018978D01*
X0097768Y-0019005D01*
X0097793Y-0019039D01*
X0097817Y-0019083D01*
X0097848Y-0019132D01*
X0097876Y-0019191D01*
X0097907Y-0019256D01*
X0097935Y-0019327D01*
X0097959Y-0019404D01*
X0097984Y-0019490D01*
X0098006Y-0019583D01*
X0098021Y-0019682D01*
X0098030Y-0019787D01*
X0098033Y-0019898D01*
Y-0019902D01*
Y-0019905D01*
Y-0019914D01*
Y-0019926D01*
X0098030Y-0019957D01*
X0098027Y-0019997D01*
X0098024Y-0020050D01*
X0098015Y-0020109D01*
X0098006Y-0020173D01*
X0097990Y-0020245D01*
X0097972Y-0020319D01*
X0097950Y-0020399D01*
X0097922Y-0020479D01*
X0097891Y-0020560D01*
X0097851Y-0020640D01*
X0097805Y-0020717D01*
X0097752Y-0020791D01*
X0097694Y-0020863D01*
X0097690Y-0020866D01*
X0097678Y-0020878D01*
X0097660Y-0020897D01*
X0097632Y-0020918D01*
X0097598Y-0020946D01*
X0097558Y-0020977D01*
X0097508Y-0021008D01*
X0097453Y-0021042D01*
X0097391Y-0021076D01*
X0097323Y-0021107D01*
X0097249Y-0021137D01*
X0097168Y-0021165D01*
X0097079Y-0021187D01*
X0096986Y-0021205D01*
X0096890Y-0021218D01*
X0096785Y-0021221D01*
X0096760D01*
X0096733Y-0021218D01*
X0096692Y-0021215D01*
X0096646Y-0021212D01*
X0096591Y-0021202D01*
X0096532Y-0021193D01*
X0096467Y-0021178D01*
X0096396Y-0021159D01*
X0096325Y-0021134D01*
X0096251Y-0021107D01*
X0096176Y-0021073D01*
X0096102Y-0021033D01*
X0096028Y-0020986D01*
X0095960Y-0020934D01*
X0095895Y-0020872D01*
X0095892Y-0020869D01*
X0095880Y-0020856D01*
X0095864Y-0020835D01*
X0095843Y-0020807D01*
X0095818Y-0020773D01*
X0095790Y-0020730D01*
X0095762Y-0020680D01*
X0095732Y-0020621D01*
X0095701Y-0020560D01*
X0095670Y-0020489D01*
X0095642Y-0020411D01*
X0095617Y-0020328D01*
X0095596Y-0020241D01*
X0095580Y-0020146D01*
X0095568Y-0020044D01*
X0095565Y-0019939D01*
Y-0019936D01*
Y-0019932D01*
Y-0019923D01*
Y-0019911D01*
X0095568Y-0019877D01*
X0095571Y-0019834D01*
X0095574Y-0019781D01*
X0095583Y-0019719D01*
X0095592Y-0019651D01*
X0095608Y-0019577D01*
X0095626Y-0019500D01*
X0095648Y-0019420D01*
X0095676Y-0019336D01*
X0095710Y-0019253D01*
X0095750Y-0019172D01*
X0095793Y-0019095D01*
X0095846Y-0019021D01*
X0095908Y-0018950D01*
X0095911Y-0018947D01*
X0095923Y-0018934D01*
X0095945Y-0018916D01*
X0095973Y-0018894D01*
X0096007Y-0018866D01*
X0096050Y-0018839D01*
X0096099Y-0018805D01*
X0096155Y-0018771D01*
X0096217Y-0018740D01*
X0096288Y-0018706D01*
X0096365Y-0018678D01*
X0096448Y-0018650D01*
X0096538Y-0018628D01*
X0096634Y-0018610D01*
X0096736Y-0018598D01*
X0096844Y-0018594D01*
X0096869D01*
X0096896Y-0018598D01*
D02*
G37*
G36*
X0169938Y-0023048D02*
X0169966Y-0023054D01*
X0169993Y-0023064D01*
X0170024Y-0023079D01*
X0170055Y-0023098D01*
X0170086Y-0023122D01*
X0170089Y-0023125D01*
X0170098Y-0023135D01*
X0170111Y-0023150D01*
X0170126Y-0023172D01*
X0170139Y-0023200D01*
X0170151Y-0023231D01*
X0170160Y-0023268D01*
X0170163Y-0023308D01*
Y-0023314D01*
Y-0023326D01*
X0170160Y-0023345D01*
X0170154Y-0023373D01*
X0170145Y-0023401D01*
X0170129Y-0023431D01*
X0170111Y-0023462D01*
X0170086Y-0023493D01*
X0170083Y-0023496D01*
X0170074Y-0023506D01*
X0170055Y-0023518D01*
X0170034Y-0023530D01*
X0170006Y-0023543D01*
X0169975Y-0023555D01*
X0169941Y-0023564D01*
X0169901Y-0023567D01*
X0169882D01*
X0169863Y-0023564D01*
X0169836Y-0023558D01*
X0169808Y-0023549D01*
X0169777Y-0023537D01*
X0169746Y-0023521D01*
X0169715Y-0023496D01*
X0169712Y-0023493D01*
X0169703Y-0023484D01*
X0169691Y-0023465D01*
X0169678Y-0023444D01*
X0169666Y-0023419D01*
X0169653Y-0023385D01*
X0169644Y-0023348D01*
X0169641Y-0023308D01*
Y-0023302D01*
Y-0023289D01*
X0169644Y-0023268D01*
X0169650Y-0023243D01*
X0169660Y-0023212D01*
X0169672Y-0023181D01*
X0169691Y-0023150D01*
X0169715Y-0023122D01*
X0169718Y-0023119D01*
X0169728Y-0023110D01*
X0169746Y-0023098D01*
X0169768Y-0023082D01*
X0169796Y-0023070D01*
X0169826Y-0023058D01*
X0169860Y-0023048D01*
X0169901Y-0023045D01*
X0169919D01*
X0169938Y-0023048D01*
D02*
G37*
G36*
X0157970Y-0026713D02*
X0157568D01*
Y-0026290D01*
X0157559D01*
X0157556Y-0026296D01*
X0157547Y-0026311D01*
X0157528Y-0026333D01*
X0157507Y-0026364D01*
X0157476Y-0026401D01*
X0157442Y-0026441D01*
X0157398Y-0026484D01*
X0157346Y-0026531D01*
X0157290Y-0026577D01*
X0157225Y-0026620D01*
X0157154Y-0026660D01*
X0157077Y-0026698D01*
X0156994Y-0026728D01*
X0156901Y-0026750D01*
X0156802Y-0026766D01*
X0156697Y-0026772D01*
X0156675D01*
X0156651Y-0026769D01*
X0156620Y-0026766D01*
X0156580Y-0026763D01*
X0156533Y-0026753D01*
X0156481Y-0026744D01*
X0156425Y-0026728D01*
X0156366Y-0026713D01*
X0156305Y-0026688D01*
X0156243Y-0026664D01*
X0156178Y-0026630D01*
X0156116Y-0026592D01*
X0156054Y-0026546D01*
X0155996Y-0026494D01*
X0155940Y-0026435D01*
X0155937Y-0026432D01*
X0155928Y-0026419D01*
X0155915Y-0026401D01*
X0155897Y-0026373D01*
X0155875Y-0026339D01*
X0155850Y-0026299D01*
X0155826Y-0026250D01*
X0155801Y-0026194D01*
X0155773Y-0026132D01*
X0155748Y-0026064D01*
X0155724Y-0025987D01*
X0155702Y-0025907D01*
X0155684Y-0025820D01*
X0155671Y-0025724D01*
X0155662Y-0025625D01*
X0155659Y-0025520D01*
Y-0025517D01*
Y-0025514D01*
Y-0025505D01*
Y-0025493D01*
X0155662Y-0025462D01*
X0155665Y-0025418D01*
X0155668Y-0025363D01*
X0155674Y-0025304D01*
X0155684Y-0025236D01*
X0155699Y-0025162D01*
X0155714Y-0025085D01*
X0155736Y-0025001D01*
X0155761Y-0024921D01*
X0155792Y-0024834D01*
X0155826Y-0024754D01*
X0155869Y-0024674D01*
X0155915Y-0024596D01*
X0155971Y-0024522D01*
X0155974Y-0024519D01*
X0155986Y-0024507D01*
X0156005Y-0024488D01*
X0156030Y-0024464D01*
X0156061Y-0024436D01*
X0156098Y-0024402D01*
X0156144Y-0024368D01*
X0156193Y-0024334D01*
X0156252Y-0024300D01*
X0156314Y-0024266D01*
X0156382Y-0024232D01*
X0156456Y-0024204D01*
X0156536Y-0024179D01*
X0156623Y-0024161D01*
X0156712Y-0024148D01*
X0156808Y-0024145D01*
X0156830D01*
X0156858Y-0024148D01*
X0156892Y-0024151D01*
X0156935Y-0024158D01*
X0156984Y-0024167D01*
X0157037Y-0024179D01*
X0157096Y-0024195D01*
X0157157Y-0024216D01*
X0157219Y-0024244D01*
X0157281Y-0024278D01*
X0157343Y-0024318D01*
X0157402Y-0024365D01*
X0157460Y-0024417D01*
X0157513Y-0024482D01*
X0157559Y-0024553D01*
X0157568D01*
Y-0022999D01*
X0157970D01*
Y-0026713D01*
D02*
G37*
G36*
X0172184Y-0024148D02*
X0172212D01*
X0172246Y-0024155D01*
X0172286Y-0024161D01*
X0172329Y-0024167D01*
X0172376Y-0024179D01*
X0172425Y-0024192D01*
X0172478Y-0024210D01*
X0172530Y-0024232D01*
X0172583Y-0024260D01*
X0172632Y-0024291D01*
X0172682Y-0024324D01*
X0172728Y-0024368D01*
X0172771Y-0024414D01*
X0172774Y-0024417D01*
X0172781Y-0024426D01*
X0172793Y-0024442D01*
X0172805Y-0024464D01*
X0172821Y-0024491D01*
X0172839Y-0024525D01*
X0172861Y-0024566D01*
X0172882Y-0024609D01*
X0172901Y-0024661D01*
X0172923Y-0024717D01*
X0172941Y-0024782D01*
X0172957Y-0024850D01*
X0172969Y-0024924D01*
X0172981Y-0025004D01*
X0172987Y-0025088D01*
X0172991Y-0025180D01*
Y-0026713D01*
X0172589D01*
Y-0025282D01*
Y-0025279D01*
Y-0025273D01*
Y-0025264D01*
Y-0025248D01*
X0172586Y-0025230D01*
Y-0025208D01*
X0172580Y-0025159D01*
X0172570Y-0025097D01*
X0172558Y-0025029D01*
X0172539Y-0024958D01*
X0172515Y-0024884D01*
X0172484Y-0024810D01*
X0172447Y-0024738D01*
X0172400Y-0024670D01*
X0172342Y-0024609D01*
X0172277Y-0024559D01*
X0172240Y-0024538D01*
X0172196Y-0024519D01*
X0172153Y-0024504D01*
X0172107Y-0024494D01*
X0172057Y-0024488D01*
X0172005Y-0024485D01*
X0171977D01*
X0171956Y-0024488D01*
X0171931Y-0024491D01*
X0171900Y-0024498D01*
X0171866Y-0024504D01*
X0171832Y-0024513D01*
X0171792Y-0024525D01*
X0171751Y-0024541D01*
X0171711Y-0024559D01*
X0171668Y-0024581D01*
X0171628Y-0024609D01*
X0171585Y-0024640D01*
X0171545Y-0024674D01*
X0171507Y-0024714D01*
X0171504Y-0024717D01*
X0171498Y-0024723D01*
X0171489Y-0024735D01*
X0171476Y-0024754D01*
X0171461Y-0024776D01*
X0171446Y-0024803D01*
X0171427Y-0024834D01*
X0171408Y-0024868D01*
X0171390Y-0024908D01*
X0171371Y-0024952D01*
X0171356Y-0024998D01*
X0171341Y-0025047D01*
X0171328Y-0025103D01*
X0171319Y-0025159D01*
X0171313Y-0025221D01*
X0171310Y-0025282D01*
Y-0026713D01*
X0170908D01*
Y-0024204D01*
X0171310D01*
Y-0024621D01*
X0171319D01*
X0171322Y-0024615D01*
X0171331Y-0024600D01*
X0171350Y-0024578D01*
X0171371Y-0024547D01*
X0171402Y-0024510D01*
X0171436Y-0024470D01*
X0171480Y-0024426D01*
X0171529Y-0024383D01*
X0171585Y-0024340D01*
X0171646Y-0024297D01*
X0171714Y-0024257D01*
X0171785Y-0024219D01*
X0171866Y-0024189D01*
X0171952Y-0024167D01*
X0172045Y-0024151D01*
X0172144Y-0024145D01*
X0172162D01*
X0172184Y-0024148D01*
D02*
G37*
G36*
X0155208Y-0024164D02*
X0155242D01*
X0155279Y-0024170D01*
X0155319Y-0024176D01*
X0155359Y-0024182D01*
X0155393Y-0024195D01*
Y-0024612D01*
X0155387Y-0024609D01*
X0155375Y-0024600D01*
X0155350Y-0024587D01*
X0155316Y-0024572D01*
X0155270Y-0024556D01*
X0155220Y-0024544D01*
X0155158Y-0024535D01*
X0155087Y-0024532D01*
X0155062D01*
X0155044Y-0024535D01*
X0155022Y-0024538D01*
X0154998Y-0024544D01*
X0154939Y-0024562D01*
X0154905Y-0024575D01*
X0154871Y-0024590D01*
X0154834Y-0024612D01*
X0154797Y-0024633D01*
X0154763Y-0024661D01*
X0154726Y-0024695D01*
X0154692Y-0024732D01*
X0154658Y-0024776D01*
X0154655Y-0024779D01*
X0154651Y-0024788D01*
X0154642Y-0024800D01*
X0154630Y-0024819D01*
X0154618Y-0024844D01*
X0154602Y-0024874D01*
X0154587Y-0024908D01*
X0154571Y-0024949D01*
X0154556Y-0024992D01*
X0154540Y-0025041D01*
X0154525Y-0025097D01*
X0154512Y-0025156D01*
X0154500Y-0025221D01*
X0154491Y-0025289D01*
X0154488Y-0025360D01*
X0154485Y-0025437D01*
Y-0026713D01*
X0154083D01*
Y-0024204D01*
X0154485D01*
Y-0024723D01*
X0154494D01*
Y-0024720D01*
X0154497Y-0024711D01*
X0154503Y-0024698D01*
X0154509Y-0024680D01*
X0154519Y-0024658D01*
X0154531Y-0024630D01*
X0154559Y-0024572D01*
X0154596Y-0024504D01*
X0154642Y-0024436D01*
X0154695Y-0024371D01*
X0154756Y-0024309D01*
X0154760Y-0024306D01*
X0154766Y-0024303D01*
X0154775Y-0024297D01*
X0154787Y-0024284D01*
X0154803Y-0024275D01*
X0154824Y-0024263D01*
X0154871Y-0024235D01*
X0154930Y-0024207D01*
X0154998Y-0024182D01*
X0155072Y-0024167D01*
X0155112Y-0024164D01*
X0155152Y-0024161D01*
X0155177D01*
X0155208Y-0024164D01*
D02*
G37*
G36*
X0165970Y-0026713D02*
X0165568D01*
Y-0026318D01*
X0165559D01*
X0165556Y-0026324D01*
X0165547Y-0026336D01*
X0165531Y-0026361D01*
X0165513Y-0026389D01*
X0165485Y-0026423D01*
X0165451Y-0026460D01*
X0165414Y-0026503D01*
X0165368Y-0026543D01*
X0165318Y-0026586D01*
X0165259Y-0026627D01*
X0165198Y-0026667D01*
X0165127Y-0026701D01*
X0165049Y-0026728D01*
X0164969Y-0026753D01*
X0164879Y-0026766D01*
X0164784Y-0026772D01*
X0164762D01*
X0164746Y-0026769D01*
X0164725D01*
X0164700Y-0026766D01*
X0164672Y-0026759D01*
X0164645Y-0026756D01*
X0164576Y-0026738D01*
X0164499Y-0026716D01*
X0164419Y-0026682D01*
X0164379Y-0026660D01*
X0164336Y-0026639D01*
X0164292Y-0026611D01*
X0164252Y-0026583D01*
X0164212Y-0026549D01*
X0164172Y-0026512D01*
X0164132Y-0026469D01*
X0164094Y-0026426D01*
X0164060Y-0026376D01*
X0164026Y-0026321D01*
X0163999Y-0026262D01*
X0163971Y-0026200D01*
X0163946Y-0026132D01*
X0163925Y-0026058D01*
X0163909Y-0025978D01*
X0163897Y-0025894D01*
X0163891Y-0025802D01*
X0163888Y-0025706D01*
Y-0024204D01*
X0164286D01*
Y-0025641D01*
Y-0025644D01*
Y-0025650D01*
Y-0025659D01*
Y-0025675D01*
X0164289Y-0025693D01*
Y-0025715D01*
X0164295Y-0025764D01*
X0164305Y-0025826D01*
X0164317Y-0025891D01*
X0164339Y-0025965D01*
X0164363Y-0026036D01*
X0164394Y-0026111D01*
X0164434Y-0026185D01*
X0164484Y-0026250D01*
X0164543Y-0026311D01*
X0164614Y-0026361D01*
X0164651Y-0026382D01*
X0164694Y-0026401D01*
X0164740Y-0026416D01*
X0164787Y-0026426D01*
X0164839Y-0026432D01*
X0164895Y-0026435D01*
X0164923D01*
X0164944Y-0026432D01*
X0164969Y-0026429D01*
X0164997Y-0026423D01*
X0165031Y-0026416D01*
X0165065Y-0026407D01*
X0165102Y-0026398D01*
X0165142Y-0026382D01*
X0165182Y-0026364D01*
X0165222Y-0026342D01*
X0165262Y-0026318D01*
X0165303Y-0026290D01*
X0165340Y-0026256D01*
X0165377Y-0026219D01*
X0165380Y-0026215D01*
X0165386Y-0026209D01*
X0165395Y-0026197D01*
X0165408Y-0026178D01*
X0165420Y-0026157D01*
X0165439Y-0026132D01*
X0165454Y-0026101D01*
X0165473Y-0026067D01*
X0165491Y-0026027D01*
X0165507Y-0025984D01*
X0165525Y-0025937D01*
X0165538Y-0025888D01*
X0165550Y-0025832D01*
X0165559Y-0025777D01*
X0165565Y-0025715D01*
X0165568Y-0025650D01*
Y-0024204D01*
X0165970D01*
Y-0026713D01*
D02*
G37*
G36*
X0170095D02*
X0169694D01*
Y-0024204D01*
X0170095D01*
Y-0026713D01*
D02*
G37*
G36*
X0168881D02*
X0168479D01*
Y-0022999D01*
X0168881D01*
Y-0026713D01*
D02*
G37*
G36*
X0152479Y-0024148D02*
X0152501D01*
X0152523Y-0024151D01*
X0152550Y-0024155D01*
X0152581Y-0024161D01*
X0152646Y-0024173D01*
X0152723Y-0024195D01*
X0152801Y-0024223D01*
X0152884Y-0024263D01*
X0152967Y-0024312D01*
X0153008Y-0024340D01*
X0153048Y-0024374D01*
X0153085Y-0024411D01*
X0153122Y-0024448D01*
X0153156Y-0024491D01*
X0153187Y-0024541D01*
X0153218Y-0024590D01*
X0153245Y-0024646D01*
X0153267Y-0024708D01*
X0153289Y-0024772D01*
X0153304Y-0024840D01*
X0153317Y-0024918D01*
X0153323Y-0024995D01*
X0153326Y-0025082D01*
Y-0026713D01*
X0152924D01*
Y-0026324D01*
X0152915D01*
X0152912Y-0026330D01*
X0152902Y-0026342D01*
X0152887Y-0026364D01*
X0152865Y-0026395D01*
X0152838Y-0026429D01*
X0152804Y-0026466D01*
X0152767Y-0026506D01*
X0152720Y-0026546D01*
X0152668Y-0026589D01*
X0152612Y-0026630D01*
X0152547Y-0026667D01*
X0152479Y-0026701D01*
X0152402Y-0026732D01*
X0152322Y-0026753D01*
X0152235Y-0026766D01*
X0152142Y-0026772D01*
X0152105D01*
X0152081Y-0026769D01*
X0152050Y-0026766D01*
X0152013Y-0026763D01*
X0151972Y-0026756D01*
X0151929Y-0026747D01*
X0151833Y-0026722D01*
X0151787Y-0026707D01*
X0151738Y-0026688D01*
X0151688Y-0026667D01*
X0151642Y-0026639D01*
X0151599Y-0026608D01*
X0151555Y-0026574D01*
X0151552Y-0026571D01*
X0151546Y-0026565D01*
X0151537Y-0026552D01*
X0151521Y-0026537D01*
X0151506Y-0026518D01*
X0151490Y-0026494D01*
X0151469Y-0026466D01*
X0151450Y-0026435D01*
X0151432Y-0026398D01*
X0151413Y-0026358D01*
X0151395Y-0026314D01*
X0151379Y-0026268D01*
X0151364Y-0026219D01*
X0151354Y-0026166D01*
X0151348Y-0026107D01*
X0151345Y-0026049D01*
Y-0026046D01*
Y-0026039D01*
Y-0026030D01*
X0151348Y-0026018D01*
Y-0026002D01*
X0151351Y-0025984D01*
X0151357Y-0025937D01*
X0151370Y-0025882D01*
X0151388Y-0025820D01*
X0151413Y-0025752D01*
X0151450Y-0025681D01*
X0151494Y-0025610D01*
X0151546Y-0025539D01*
X0151580Y-0025505D01*
X0151614Y-0025471D01*
X0151654Y-0025437D01*
X0151694Y-0025406D01*
X0151741Y-0025375D01*
X0151790Y-0025347D01*
X0151843Y-0025322D01*
X0151901Y-0025298D01*
X0151963Y-0025276D01*
X0152028Y-0025258D01*
X0152099Y-0025242D01*
X0152173Y-0025230D01*
X0152924Y-0025125D01*
Y-0025122D01*
Y-0025119D01*
Y-0025109D01*
Y-0025097D01*
X0152921Y-0025066D01*
X0152915Y-0025026D01*
X0152909Y-0024976D01*
X0152896Y-0024921D01*
X0152881Y-0024865D01*
X0152859Y-0024803D01*
X0152831Y-0024745D01*
X0152797Y-0024686D01*
X0152757Y-0024633D01*
X0152708Y-0024584D01*
X0152646Y-0024544D01*
X0152578Y-0024513D01*
X0152541Y-0024501D01*
X0152498Y-0024491D01*
X0152454Y-0024488D01*
X0152408Y-0024485D01*
X0152386D01*
X0152365Y-0024488D01*
X0152331Y-0024491D01*
X0152291Y-0024494D01*
X0152244Y-0024501D01*
X0152192Y-0024510D01*
X0152136Y-0024522D01*
X0152074Y-0024541D01*
X0152009Y-0024559D01*
X0151942Y-0024584D01*
X0151871Y-0024615D01*
X0151799Y-0024652D01*
X0151728Y-0024692D01*
X0151657Y-0024738D01*
X0151589Y-0024794D01*
Y-0024383D01*
X0151592Y-0024380D01*
X0151605Y-0024374D01*
X0151626Y-0024362D01*
X0151654Y-0024346D01*
X0151691Y-0024328D01*
X0151731Y-0024309D01*
X0151781Y-0024287D01*
X0151837Y-0024263D01*
X0151895Y-0024241D01*
X0151960Y-0024219D01*
X0152031Y-0024201D01*
X0152105Y-0024182D01*
X0152186Y-0024167D01*
X0152266Y-0024155D01*
X0152352Y-0024148D01*
X0152442Y-0024145D01*
X0152464D01*
X0152479Y-0024148D01*
D02*
G37*
G36*
X0146843Y-0023203D02*
X0146880Y-0023206D01*
X0146923Y-0023212D01*
X0146973Y-0023218D01*
X0147028Y-0023227D01*
X0147084Y-0023240D01*
X0147143Y-0023255D01*
X0147205Y-0023274D01*
X0147263Y-0023295D01*
X0147325Y-0023320D01*
X0147381Y-0023351D01*
X0147436Y-0023385D01*
X0147489Y-0023425D01*
X0147492Y-0023428D01*
X0147501Y-0023435D01*
X0147514Y-0023447D01*
X0147529Y-0023465D01*
X0147551Y-0023487D01*
X0147572Y-0023515D01*
X0147597Y-0023546D01*
X0147622Y-0023580D01*
X0147646Y-0023620D01*
X0147671Y-0023663D01*
X0147693Y-0023713D01*
X0147714Y-0023762D01*
X0147730Y-0023818D01*
X0147742Y-0023876D01*
X0147751Y-0023938D01*
X0147755Y-0024003D01*
Y-0024006D01*
Y-0024015D01*
Y-0024031D01*
X0147751Y-0024053D01*
X0147748Y-0024080D01*
X0147745Y-0024108D01*
X0147742Y-0024142D01*
X0147736Y-0024179D01*
X0147714Y-0024263D01*
X0147687Y-0024349D01*
X0147668Y-0024396D01*
X0147646Y-0024439D01*
X0147622Y-0024482D01*
X0147594Y-0024525D01*
X0147591Y-0024528D01*
X0147588Y-0024535D01*
X0147578Y-0024547D01*
X0147563Y-0024562D01*
X0147548Y-0024578D01*
X0147529Y-0024600D01*
X0147504Y-0024621D01*
X0147480Y-0024646D01*
X0147449Y-0024670D01*
X0147415Y-0024698D01*
X0147378Y-0024723D01*
X0147337Y-0024751D01*
X0147294Y-0024776D01*
X0147251Y-0024797D01*
X0147149Y-0024837D01*
Y-0024847D01*
X0147152D01*
X0147164Y-0024850D01*
X0147183Y-0024853D01*
X0147208Y-0024856D01*
X0147239Y-0024862D01*
X0147273Y-0024871D01*
X0147313Y-0024884D01*
X0147353Y-0024896D01*
X0147442Y-0024930D01*
X0147492Y-0024952D01*
X0147538Y-0024980D01*
X0147585Y-0025007D01*
X0147631Y-0025038D01*
X0147677Y-0025075D01*
X0147717Y-0025115D01*
X0147721Y-0025119D01*
X0147727Y-0025125D01*
X0147736Y-0025137D01*
X0147751Y-0025156D01*
X0147767Y-0025180D01*
X0147785Y-0025205D01*
X0147804Y-0025239D01*
X0147826Y-0025273D01*
X0147844Y-0025313D01*
X0147863Y-0025360D01*
X0147881Y-0025406D01*
X0147897Y-0025458D01*
X0147912Y-0025517D01*
X0147921Y-0025576D01*
X0147928Y-0025638D01*
X0147931Y-0025706D01*
Y-0025712D01*
Y-0025724D01*
X0147928Y-0025749D01*
X0147924Y-0025780D01*
X0147921Y-0025820D01*
X0147912Y-0025863D01*
X0147903Y-0025913D01*
X0147890Y-0025965D01*
X0147872Y-0026024D01*
X0147850Y-0026083D01*
X0147826Y-0026141D01*
X0147795Y-0026203D01*
X0147758Y-0026265D01*
X0147714Y-0026324D01*
X0147665Y-0026379D01*
X0147606Y-0026435D01*
X0147603Y-0026438D01*
X0147591Y-0026447D01*
X0147572Y-0026460D01*
X0147548Y-0026478D01*
X0147517Y-0026500D01*
X0147476Y-0026521D01*
X0147433Y-0026549D01*
X0147384Y-0026574D01*
X0147325Y-0026599D01*
X0147263Y-0026623D01*
X0147198Y-0026648D01*
X0147124Y-0026670D01*
X0147047Y-0026688D01*
X0146967Y-0026701D01*
X0146880Y-0026710D01*
X0146791Y-0026713D01*
X0145768D01*
Y-0023200D01*
X0146809D01*
X0146843Y-0023203D01*
D02*
G37*
G36*
X0167311Y-0024204D02*
X0167945D01*
Y-0024550D01*
X0167311D01*
Y-0025962D01*
Y-0025965D01*
Y-0025975D01*
Y-0025987D01*
Y-0026002D01*
X0167314Y-0026024D01*
X0167317Y-0026049D01*
X0167324Y-0026101D01*
X0167333Y-0026163D01*
X0167348Y-0026222D01*
X0167370Y-0026277D01*
X0167382Y-0026302D01*
X0167398Y-0026324D01*
X0167401Y-0026327D01*
X0167413Y-0026339D01*
X0167435Y-0026358D01*
X0167466Y-0026376D01*
X0167506Y-0026398D01*
X0167555Y-0026413D01*
X0167614Y-0026426D01*
X0167682Y-0026432D01*
X0167707D01*
X0167735Y-0026429D01*
X0167772Y-0026423D01*
X0167812Y-0026410D01*
X0167858Y-0026398D01*
X0167901Y-0026376D01*
X0167945Y-0026348D01*
Y-0026691D01*
X0167942D01*
X0167938Y-0026695D01*
X0167929Y-0026698D01*
X0167920Y-0026704D01*
X0167886Y-0026716D01*
X0167846Y-0026728D01*
X0167790Y-0026741D01*
X0167725Y-0026753D01*
X0167651Y-0026763D01*
X0167568Y-0026766D01*
X0167540D01*
X0167506Y-0026759D01*
X0167466Y-0026753D01*
X0167416Y-0026744D01*
X0167361Y-0026725D01*
X0167299Y-0026704D01*
X0167240Y-0026673D01*
X0167178Y-0026636D01*
X0167116Y-0026586D01*
X0167061Y-0026528D01*
X0167036Y-0026494D01*
X0167011Y-0026456D01*
X0166990Y-0026416D01*
X0166971Y-0026373D01*
X0166953Y-0026327D01*
X0166937Y-0026274D01*
X0166925Y-0026222D01*
X0166916Y-0026163D01*
X0166913Y-0026101D01*
X0166910Y-0026033D01*
Y-0024550D01*
X0166480D01*
Y-0024204D01*
X0166910D01*
Y-0023592D01*
X0167311Y-0023462D01*
Y-0024204D01*
D02*
G37*
G36*
X0174780Y-0024148D02*
X0174814Y-0024151D01*
X0174857Y-0024155D01*
X0174903Y-0024161D01*
X0174956Y-0024173D01*
X0175012Y-0024185D01*
X0175073Y-0024201D01*
X0175135Y-0024223D01*
X0175197Y-0024250D01*
X0175262Y-0024281D01*
X0175324Y-0024318D01*
X0175382Y-0024362D01*
X0175441Y-0024411D01*
X0175494Y-0024467D01*
X0175497Y-0024470D01*
X0175506Y-0024482D01*
X0175518Y-0024501D01*
X0175537Y-0024525D01*
X0175555Y-0024556D01*
X0175580Y-0024596D01*
X0175605Y-0024643D01*
X0175629Y-0024695D01*
X0175654Y-0024757D01*
X0175679Y-0024822D01*
X0175704Y-0024896D01*
X0175722Y-0024973D01*
X0175741Y-0025060D01*
X0175753Y-0025150D01*
X0175762Y-0025248D01*
X0175765Y-0025350D01*
Y-0025561D01*
X0173992D01*
Y-0025567D01*
Y-0025579D01*
X0173995Y-0025601D01*
X0173998Y-0025628D01*
X0174001Y-0025666D01*
X0174007Y-0025706D01*
X0174013Y-0025749D01*
X0174026Y-0025798D01*
X0174054Y-0025903D01*
X0174072Y-0025956D01*
X0174094Y-0026012D01*
X0174118Y-0026064D01*
X0174146Y-0026117D01*
X0174180Y-0026163D01*
X0174217Y-0026209D01*
X0174220Y-0026212D01*
X0174227Y-0026219D01*
X0174239Y-0026231D01*
X0174258Y-0026243D01*
X0174279Y-0026262D01*
X0174307Y-0026280D01*
X0174338Y-0026302D01*
X0174372Y-0026321D01*
X0174412Y-0026342D01*
X0174458Y-0026364D01*
X0174505Y-0026382D01*
X0174560Y-0026401D01*
X0174616Y-0026413D01*
X0174678Y-0026426D01*
X0174743Y-0026432D01*
X0174811Y-0026435D01*
X0174829D01*
X0174851Y-0026432D01*
X0174882D01*
X0174919Y-0026426D01*
X0174962Y-0026419D01*
X0175012Y-0026410D01*
X0175067Y-0026401D01*
X0175126Y-0026386D01*
X0175188Y-0026367D01*
X0175252Y-0026345D01*
X0175317Y-0026318D01*
X0175385Y-0026287D01*
X0175453Y-0026250D01*
X0175521Y-0026206D01*
X0175589Y-0026157D01*
Y-0026534D01*
X0175586Y-0026537D01*
X0175574Y-0026543D01*
X0175555Y-0026555D01*
X0175531Y-0026571D01*
X0175497Y-0026589D01*
X0175456Y-0026608D01*
X0175410Y-0026630D01*
X0175357Y-0026651D01*
X0175296Y-0026676D01*
X0175231Y-0026698D01*
X0175160Y-0026716D01*
X0175083Y-0026735D01*
X0174999Y-0026750D01*
X0174909Y-0026763D01*
X0174814Y-0026769D01*
X0174715Y-0026772D01*
X0174690D01*
X0174665Y-0026769D01*
X0174628Y-0026766D01*
X0174582Y-0026763D01*
X0174529Y-0026753D01*
X0174474Y-0026744D01*
X0174412Y-0026728D01*
X0174347Y-0026710D01*
X0174279Y-0026688D01*
X0174208Y-0026660D01*
X0174140Y-0026630D01*
X0174069Y-0026589D01*
X0174004Y-0026543D01*
X0173939Y-0026491D01*
X0173881Y-0026432D01*
X0173877Y-0026429D01*
X0173868Y-0026416D01*
X0173853Y-0026395D01*
X0173834Y-0026367D01*
X0173810Y-0026333D01*
X0173785Y-0026290D01*
X0173757Y-0026240D01*
X0173729Y-0026182D01*
X0173701Y-0026120D01*
X0173673Y-0026046D01*
X0173649Y-0025968D01*
X0173624Y-0025882D01*
X0173606Y-0025789D01*
X0173590Y-0025690D01*
X0173581Y-0025582D01*
X0173578Y-0025471D01*
Y-0025468D01*
Y-0025465D01*
Y-0025455D01*
Y-0025446D01*
X0173581Y-0025415D01*
X0173584Y-0025372D01*
X0173587Y-0025322D01*
X0173596Y-0025267D01*
X0173606Y-0025202D01*
X0173618Y-0025131D01*
X0173636Y-0025057D01*
X0173658Y-0024980D01*
X0173686Y-0024899D01*
X0173717Y-0024819D01*
X0173754Y-0024742D01*
X0173800Y-0024661D01*
X0173850Y-0024587D01*
X0173908Y-0024516D01*
X0173911Y-0024513D01*
X0173924Y-0024501D01*
X0173942Y-0024482D01*
X0173967Y-0024457D01*
X0174001Y-0024430D01*
X0174041Y-0024399D01*
X0174084Y-0024365D01*
X0174137Y-0024331D01*
X0174193Y-0024297D01*
X0174258Y-0024263D01*
X0174326Y-0024232D01*
X0174397Y-0024204D01*
X0174474Y-0024179D01*
X0174557Y-0024161D01*
X0174644Y-0024148D01*
X0174733Y-0024145D01*
X0174755D01*
X0174780Y-0024148D01*
D02*
G37*
G36*
X0161737Y-0023144D02*
X0161758D01*
X0161780Y-0023147D01*
X0161808D01*
X0161870Y-0023156D01*
X0161941Y-0023166D01*
X0162021Y-0023181D01*
X0162108Y-0023203D01*
X0162197Y-0023227D01*
X0162293Y-0023261D01*
X0162389Y-0023302D01*
X0162488Y-0023348D01*
X0162587Y-0023404D01*
X0162679Y-0023469D01*
X0162772Y-0023546D01*
X0162858Y-0023632D01*
X0162865Y-0023639D01*
X0162877Y-0023654D01*
X0162899Y-0023682D01*
X0162930Y-0023722D01*
X0162961Y-0023771D01*
X0163001Y-0023830D01*
X0163041Y-0023898D01*
X0163081Y-0023975D01*
X0163121Y-0024065D01*
X0163161Y-0024161D01*
X0163201Y-0024266D01*
X0163235Y-0024380D01*
X0163263Y-0024504D01*
X0163285Y-0024633D01*
X0163297Y-0024769D01*
X0163303Y-0024915D01*
Y-0024918D01*
Y-0024924D01*
Y-0024936D01*
Y-0024952D01*
X0163300Y-0024973D01*
Y-0024998D01*
X0163297Y-0025026D01*
Y-0025057D01*
X0163294Y-0025091D01*
X0163291Y-0025128D01*
X0163279Y-0025211D01*
X0163266Y-0025307D01*
X0163248Y-0025406D01*
X0163223Y-0025514D01*
X0163192Y-0025625D01*
X0163155Y-0025737D01*
X0163112Y-0025851D01*
X0163059Y-0025962D01*
X0162998Y-0026073D01*
X0162926Y-0026175D01*
X0162846Y-0026274D01*
X0162840Y-0026280D01*
X0162824Y-0026296D01*
X0162800Y-0026321D01*
X0162763Y-0026351D01*
X0162716Y-0026389D01*
X0162661Y-0026432D01*
X0162599Y-0026475D01*
X0162525Y-0026521D01*
X0162441Y-0026568D01*
X0162349Y-0026614D01*
X0162250Y-0026657D01*
X0162142Y-0026695D01*
X0162024Y-0026725D01*
X0161901Y-0026750D01*
X0161768Y-0026766D01*
X0161629Y-0026772D01*
X0161595D01*
X0161579Y-0026769D01*
X0161558D01*
X0161533Y-0026766D01*
X0161505Y-0026763D01*
X0161440Y-0026756D01*
X0161369Y-0026747D01*
X0161286Y-0026732D01*
X0161199Y-0026710D01*
X0161103Y-0026685D01*
X0161008Y-0026651D01*
X0160909Y-0026611D01*
X0160807Y-0026565D01*
X0160708Y-0026509D01*
X0160612Y-0026441D01*
X0160516Y-0026367D01*
X0160430Y-0026280D01*
X0160424Y-0026274D01*
X0160411Y-0026259D01*
X0160390Y-0026231D01*
X0160359Y-0026191D01*
X0160325Y-0026141D01*
X0160288Y-0026083D01*
X0160248Y-0026015D01*
X0160207Y-0025934D01*
X0160164Y-0025848D01*
X0160124Y-0025752D01*
X0160087Y-0025647D01*
X0160053Y-0025533D01*
X0160022Y-0025409D01*
X0160000Y-0025279D01*
X0159988Y-0025143D01*
X0159982Y-0024998D01*
Y-0024995D01*
Y-0024989D01*
Y-0024976D01*
Y-0024961D01*
X0159985Y-0024939D01*
Y-0024918D01*
X0159988Y-0024890D01*
Y-0024859D01*
X0159991Y-0024825D01*
X0159997Y-0024785D01*
X0160006Y-0024704D01*
X0160019Y-0024612D01*
X0160040Y-0024513D01*
X0160062Y-0024405D01*
X0160093Y-0024297D01*
X0160130Y-0024185D01*
X0160173Y-0024071D01*
X0160226Y-0023960D01*
X0160288Y-0023852D01*
X0160359Y-0023747D01*
X0160439Y-0023648D01*
X0160445Y-0023642D01*
X0160461Y-0023626D01*
X0160485Y-0023601D01*
X0160522Y-0023567D01*
X0160569Y-0023530D01*
X0160627Y-0023487D01*
X0160692Y-0023441D01*
X0160767Y-0023394D01*
X0160853Y-0023348D01*
X0160946Y-0023302D01*
X0161048Y-0023258D01*
X0161159Y-0023221D01*
X0161279Y-0023187D01*
X0161406Y-0023163D01*
X0161542Y-0023147D01*
X0161687Y-0023141D01*
X0161718D01*
X0161737Y-0023144D01*
D02*
G37*
G36*
X0149751Y-0024148D02*
X0149791Y-0024151D01*
X0149837Y-0024155D01*
X0149893Y-0024164D01*
X0149952Y-0024173D01*
X0150016Y-0024189D01*
X0150087Y-0024207D01*
X0150159Y-0024229D01*
X0150230Y-0024257D01*
X0150304Y-0024291D01*
X0150375Y-0024331D01*
X0150446Y-0024377D01*
X0150511Y-0024430D01*
X0150573Y-0024491D01*
X0150576Y-0024494D01*
X0150585Y-0024507D01*
X0150601Y-0024528D01*
X0150622Y-0024556D01*
X0150647Y-0024590D01*
X0150672Y-0024633D01*
X0150702Y-0024683D01*
X0150730Y-0024742D01*
X0150761Y-0024806D01*
X0150789Y-0024878D01*
X0150814Y-0024955D01*
X0150838Y-0025041D01*
X0150860Y-0025134D01*
X0150875Y-0025233D01*
X0150885Y-0025338D01*
X0150888Y-0025449D01*
Y-0025452D01*
Y-0025455D01*
Y-0025465D01*
Y-0025477D01*
X0150885Y-0025508D01*
X0150882Y-0025548D01*
X0150879Y-0025601D01*
X0150869Y-0025659D01*
X0150860Y-0025724D01*
X0150845Y-0025795D01*
X0150826Y-0025870D01*
X0150804Y-0025950D01*
X0150777Y-0026030D01*
X0150746Y-0026111D01*
X0150706Y-0026191D01*
X0150659Y-0026268D01*
X0150607Y-0026342D01*
X0150548Y-0026413D01*
X0150545Y-0026416D01*
X0150532Y-0026429D01*
X0150514Y-0026447D01*
X0150486Y-0026469D01*
X0150452Y-0026497D01*
X0150412Y-0026528D01*
X0150363Y-0026559D01*
X0150307Y-0026592D01*
X0150245Y-0026627D01*
X0150177Y-0026657D01*
X0150103Y-0026688D01*
X0150023Y-0026716D01*
X0149933Y-0026738D01*
X0149840Y-0026756D01*
X0149744Y-0026769D01*
X0149639Y-0026772D01*
X0149615D01*
X0149587Y-0026769D01*
X0149547Y-0026766D01*
X0149500Y-0026763D01*
X0149445Y-0026753D01*
X0149386Y-0026744D01*
X0149321Y-0026728D01*
X0149250Y-0026710D01*
X0149179Y-0026685D01*
X0149105Y-0026657D01*
X0149031Y-0026623D01*
X0148957Y-0026583D01*
X0148882Y-0026537D01*
X0148814Y-0026484D01*
X0148750Y-0026423D01*
X0148747Y-0026419D01*
X0148734Y-0026407D01*
X0148719Y-0026386D01*
X0148697Y-0026358D01*
X0148672Y-0026324D01*
X0148644Y-0026280D01*
X0148617Y-0026231D01*
X0148586Y-0026172D01*
X0148555Y-0026111D01*
X0148524Y-0026039D01*
X0148496Y-0025962D01*
X0148471Y-0025879D01*
X0148450Y-0025792D01*
X0148434Y-0025696D01*
X0148422Y-0025594D01*
X0148419Y-0025489D01*
Y-0025486D01*
Y-0025483D01*
Y-0025474D01*
Y-0025462D01*
X0148422Y-0025428D01*
X0148425Y-0025384D01*
X0148428Y-0025332D01*
X0148438Y-0025270D01*
X0148447Y-0025202D01*
X0148462Y-0025128D01*
X0148481Y-0025051D01*
X0148502Y-0024970D01*
X0148530Y-0024887D01*
X0148564Y-0024803D01*
X0148604Y-0024723D01*
X0148648Y-0024646D01*
X0148700Y-0024572D01*
X0148762Y-0024501D01*
X0148765Y-0024498D01*
X0148777Y-0024485D01*
X0148799Y-0024467D01*
X0148827Y-0024445D01*
X0148861Y-0024417D01*
X0148904Y-0024389D01*
X0148953Y-0024355D01*
X0149009Y-0024321D01*
X0149071Y-0024291D01*
X0149142Y-0024257D01*
X0149219Y-0024229D01*
X0149303Y-0024201D01*
X0149392Y-0024179D01*
X0149488Y-0024161D01*
X0149590Y-0024148D01*
X0149698Y-0024145D01*
X0149723D01*
X0149751Y-0024148D01*
D02*
G37*
G36*
X0032473Y-0030519D02*
X0030519Y-0032473D01*
X0029730Y-0031685D01*
X0031685Y-0029730D01*
X0032473Y-0030519D01*
D02*
G37*
G36*
X-0031052Y-0030360D02*
X-0029992Y-0029300D01*
X-0029285Y-0030006D01*
X-0030345Y-0031067D01*
X-0029289Y-0032123D01*
X-0029996Y-0032830D01*
X-0031052Y-0031773D01*
X-0032120Y-0032841D01*
X-0032827Y-0032134D01*
X-0031759Y-0031067D01*
X-0032830Y-0029996D01*
X-0032123Y-0029289D01*
X-0031052Y-0030360D01*
D02*
G37*
%LPC*%
G36*
X0123878Y-0019895D02*
X0123273Y-0019979D01*
X0123269D01*
X0123260Y-0019982D01*
X0123245D01*
X0123226Y-0019985D01*
X0123205Y-0019991D01*
X0123177Y-0019997D01*
X0123115Y-0020010D01*
X0123047Y-0020028D01*
X0122979Y-0020053D01*
X0122911Y-0020084D01*
X0122880Y-0020099D01*
X0122852Y-0020118D01*
X0122846Y-0020124D01*
X0122831Y-0020136D01*
X0122806Y-0020161D01*
X0122781Y-0020198D01*
X0122757Y-0020248D01*
X0122744Y-0020275D01*
X0122732Y-0020306D01*
X0122723Y-0020340D01*
X0122716Y-0020380D01*
X0122713Y-0020421D01*
X0122710Y-0020467D01*
Y-0020470D01*
Y-0020476D01*
Y-0020485D01*
X0122713Y-0020498D01*
X0122716Y-0020532D01*
X0122726Y-0020575D01*
X0122741Y-0020621D01*
X0122766Y-0020674D01*
X0122797Y-0020723D01*
X0122840Y-0020770D01*
X0122843D01*
X0122846Y-0020776D01*
X0122865Y-0020788D01*
X0122893Y-0020807D01*
X0122933Y-0020825D01*
X0122985Y-0020847D01*
X0123044Y-0020866D01*
X0123115Y-0020878D01*
X0123192Y-0020884D01*
X0123220D01*
X0123242Y-0020881D01*
X0123266Y-0020878D01*
X0123297Y-0020872D01*
X0123328Y-0020866D01*
X0123365Y-0020856D01*
X0123443Y-0020832D01*
X0123483Y-0020816D01*
X0123526Y-0020795D01*
X0123566Y-0020770D01*
X0123606Y-0020742D01*
X0123646Y-0020711D01*
X0123684Y-0020674D01*
X0123687Y-0020671D01*
X0123693Y-0020665D01*
X0123702Y-0020652D01*
X0123714Y-0020637D01*
X0123730Y-0020615D01*
X0123745Y-0020591D01*
X0123764Y-0020563D01*
X0123783Y-0020529D01*
X0123798Y-0020492D01*
X0123817Y-0020451D01*
X0123832Y-0020408D01*
X0123847Y-0020362D01*
X0123860Y-0020312D01*
X0123869Y-0020260D01*
X0123875Y-0020204D01*
X0123878Y-0020146D01*
Y-0019895D01*
D02*
G37*
G36*
X0093859Y-0018023D02*
X0093324D01*
Y-0019157D01*
X0093779D01*
X0093800Y-0019154D01*
X0093828Y-0019151D01*
X0093862Y-0019148D01*
X0093899Y-0019144D01*
X0093939Y-0019135D01*
X0094023Y-0019117D01*
X0094112Y-0019089D01*
X0094156Y-0019070D01*
X0094199Y-0019049D01*
X0094239Y-0019024D01*
X0094276Y-0018996D01*
X0094279Y-0018993D01*
X0094285Y-0018990D01*
X0094295Y-0018978D01*
X0094307Y-0018965D01*
X0094322Y-0018950D01*
X0094338Y-0018928D01*
X0094356Y-0018903D01*
X0094375Y-0018876D01*
X0094390Y-0018845D01*
X0094409Y-0018811D01*
X0094424Y-0018774D01*
X0094440Y-0018733D01*
X0094452Y-0018687D01*
X0094462Y-0018641D01*
X0094468Y-0018588D01*
X0094471Y-0018536D01*
Y-0018530D01*
Y-0018514D01*
X0094468Y-0018489D01*
X0094462Y-0018455D01*
X0094449Y-0018415D01*
X0094437Y-0018372D01*
X0094415Y-0018326D01*
X0094387Y-0018279D01*
X0094350Y-0018230D01*
X0094307Y-0018183D01*
X0094251Y-0018140D01*
X0094187Y-0018103D01*
X0094149Y-0018085D01*
X0094109Y-0018069D01*
X0094066Y-0018057D01*
X0094020Y-0018044D01*
X0093970Y-0018035D01*
X0093915Y-0018029D01*
X0093859Y-0018023D01*
D02*
G37*
G36*
X0093797Y-0019528D02*
X0093324D01*
Y-0020791D01*
X0093918D01*
X0093942Y-0020788D01*
X0093973Y-0020785D01*
X0094007Y-0020782D01*
X0094047Y-0020776D01*
X0094091Y-0020770D01*
X0094180Y-0020751D01*
X0094273Y-0020720D01*
X0094319Y-0020699D01*
X0094363Y-0020677D01*
X0094403Y-0020652D01*
X0094443Y-0020621D01*
X0094446Y-0020618D01*
X0094452Y-0020612D01*
X0094462Y-0020603D01*
X0094474Y-0020591D01*
X0094489Y-0020572D01*
X0094508Y-0020550D01*
X0094523Y-0020526D01*
X0094545Y-0020498D01*
X0094563Y-0020464D01*
X0094579Y-0020430D01*
X0094597Y-0020390D01*
X0094613Y-0020350D01*
X0094625Y-0020303D01*
X0094634Y-0020254D01*
X0094641Y-0020204D01*
X0094644Y-0020149D01*
Y-0020146D01*
Y-0020143D01*
Y-0020133D01*
X0094641Y-0020121D01*
X0094638Y-0020090D01*
X0094631Y-0020053D01*
X0094619Y-0020004D01*
X0094600Y-0019951D01*
X0094573Y-0019895D01*
X0094539Y-0019837D01*
X0094492Y-0019781D01*
X0094468Y-0019753D01*
X0094437Y-0019725D01*
X0094406Y-0019698D01*
X0094369Y-0019673D01*
X0094329Y-0019648D01*
X0094285Y-0019623D01*
X0094239Y-0019605D01*
X0094190Y-0019586D01*
X0094134Y-0019568D01*
X0094075Y-0019555D01*
X0094013Y-0019543D01*
X0093945Y-0019534D01*
X0093874Y-0019531D01*
X0093797Y-0019528D01*
D02*
G37*
G36*
X0117881Y-0018934D02*
X0117853D01*
X0117834Y-0018937D01*
X0117809Y-0018940D01*
X0117779Y-0018944D01*
X0117748Y-0018950D01*
X0117714Y-0018959D01*
X0117637Y-0018984D01*
X0117596Y-0018999D01*
X0117556Y-0019021D01*
X0117516Y-0019042D01*
X0117473Y-0019070D01*
X0117436Y-0019101D01*
X0117395Y-0019138D01*
X0117392Y-0019141D01*
X0117386Y-0019148D01*
X0117377Y-0019160D01*
X0117365Y-0019175D01*
X0117349Y-0019197D01*
X0117331Y-0019219D01*
X0117312Y-0019250D01*
X0117290Y-0019280D01*
X0117269Y-0019318D01*
X0117250Y-0019358D01*
X0117229Y-0019401D01*
X0117210Y-0019447D01*
X0117192Y-0019500D01*
X0117176Y-0019552D01*
X0117161Y-0019611D01*
X0117151Y-0019670D01*
X0118508D01*
Y-0019667D01*
Y-0019654D01*
Y-0019636D01*
X0118505Y-0019611D01*
X0118502Y-0019583D01*
X0118499Y-0019549D01*
X0118492Y-0019512D01*
X0118486Y-0019472D01*
X0118465Y-0019386D01*
X0118434Y-0019293D01*
X0118415Y-0019250D01*
X0118394Y-0019206D01*
X0118369Y-0019166D01*
X0118338Y-0019129D01*
X0118335Y-0019126D01*
X0118332Y-0019120D01*
X0118323Y-0019110D01*
X0118307Y-0019098D01*
X0118292Y-0019083D01*
X0118270Y-0019067D01*
X0118248Y-0019049D01*
X0118220Y-0019030D01*
X0118190Y-0019015D01*
X0118156Y-0018996D01*
X0118115Y-0018981D01*
X0118075Y-0018965D01*
X0118032Y-0018953D01*
X0117986Y-0018944D01*
X0117933Y-0018937D01*
X0117881Y-0018934D01*
D02*
G37*
G36*
X0112214Y-0017964D02*
X0112189D01*
X0112161Y-0017967D01*
X0112121Y-0017970D01*
X0112074Y-0017976D01*
X0112019Y-0017986D01*
X0111960Y-0017998D01*
X0111895Y-0018013D01*
X0111824Y-0018035D01*
X0111750Y-0018060D01*
X0111676Y-0018094D01*
X0111602Y-0018131D01*
X0111524Y-0018177D01*
X0111453Y-0018230D01*
X0111382Y-0018292D01*
X0111314Y-0018363D01*
X0111311Y-0018366D01*
X0111299Y-0018381D01*
X0111283Y-0018403D01*
X0111262Y-0018434D01*
X0111234Y-0018474D01*
X0111206Y-0018523D01*
X0111175Y-0018579D01*
X0111144Y-0018644D01*
X0111110Y-0018715D01*
X0111080Y-0018795D01*
X0111052Y-0018882D01*
X0111024Y-0018974D01*
X0111002Y-0019073D01*
X0110987Y-0019182D01*
X0110974Y-0019293D01*
X0110971Y-0019413D01*
Y-0019416D01*
Y-0019420D01*
Y-0019429D01*
Y-0019441D01*
Y-0019456D01*
X0110974Y-0019475D01*
X0110977Y-0019521D01*
X0110981Y-0019577D01*
X0110990Y-0019639D01*
X0110999Y-0019710D01*
X0111015Y-0019787D01*
X0111030Y-0019868D01*
X0111055Y-0019954D01*
X0111080Y-0020041D01*
X0111114Y-0020127D01*
X0111151Y-0020214D01*
X0111197Y-0020300D01*
X0111249Y-0020380D01*
X0111308Y-0020458D01*
X0111311Y-0020461D01*
X0111324Y-0020473D01*
X0111342Y-0020495D01*
X0111370Y-0020519D01*
X0111404Y-0020550D01*
X0111444Y-0020581D01*
X0111490Y-0020618D01*
X0111543Y-0020655D01*
X0111605Y-0020693D01*
X0111670Y-0020727D01*
X0111744Y-0020761D01*
X0111821Y-0020791D01*
X0111905Y-0020816D01*
X0111994Y-0020835D01*
X0112087Y-0020850D01*
X0112186Y-0020853D01*
X0112210D01*
X0112241Y-0020850D01*
X0112282Y-0020847D01*
X0112331Y-0020841D01*
X0112387Y-0020835D01*
X0112448Y-0020822D01*
X0112516Y-0020807D01*
X0112587Y-0020785D01*
X0112662Y-0020761D01*
X0112739Y-0020730D01*
X0112813Y-0020693D01*
X0112890Y-0020652D01*
X0112961Y-0020600D01*
X0113032Y-0020541D01*
X0113097Y-0020476D01*
X0113100Y-0020473D01*
X0113113Y-0020458D01*
X0113128Y-0020436D01*
X0113150Y-0020405D01*
X0113174Y-0020368D01*
X0113202Y-0020322D01*
X0113233Y-0020266D01*
X0113264Y-0020201D01*
X0113295Y-0020130D01*
X0113326Y-0020053D01*
X0113354Y-0019966D01*
X0113378Y-0019871D01*
X0113400Y-0019769D01*
X0113416Y-0019660D01*
X0113428Y-0019543D01*
X0113431Y-0019420D01*
Y-0019416D01*
Y-0019410D01*
Y-0019401D01*
Y-0019389D01*
Y-0019373D01*
X0113428Y-0019352D01*
X0113425Y-0019305D01*
X0113422Y-0019246D01*
X0113412Y-0019178D01*
X0113403Y-0019104D01*
X0113391Y-0019024D01*
X0113372Y-0018940D01*
X0113351Y-0018851D01*
X0113326Y-0018761D01*
X0113295Y-0018672D01*
X0113258Y-0018585D01*
X0113215Y-0018499D01*
X0113165Y-0018418D01*
X0113107Y-0018344D01*
X0113103Y-0018341D01*
X0113091Y-0018329D01*
X0113073Y-0018310D01*
X0113048Y-0018285D01*
X0113014Y-0018255D01*
X0112974Y-0018224D01*
X0112927Y-0018190D01*
X0112875Y-0018153D01*
X0112813Y-0018119D01*
X0112745Y-0018085D01*
X0112674Y-0018051D01*
X0112594Y-0018023D01*
X0112507Y-0017998D01*
X0112414Y-0017979D01*
X0112319Y-0017967D01*
X0112214Y-0017964D01*
D02*
G37*
G36*
X0103154Y-0018934D02*
X0103138D01*
X0103117Y-0018937D01*
X0103089D01*
X0103058Y-0018944D01*
X0103021Y-0018947D01*
X0102978Y-0018956D01*
X0102931Y-0018968D01*
X0102885Y-0018981D01*
X0102835Y-0018999D01*
X0102783Y-0019021D01*
X0102733Y-0019046D01*
X0102681Y-0019076D01*
X0102631Y-0019110D01*
X0102585Y-0019151D01*
X0102542Y-0019197D01*
X0102539Y-0019200D01*
X0102532Y-0019209D01*
X0102520Y-0019225D01*
X0102508Y-0019246D01*
X0102489Y-0019271D01*
X0102471Y-0019305D01*
X0102449Y-0019342D01*
X0102431Y-0019386D01*
X0102409Y-0019435D01*
X0102387Y-0019490D01*
X0102369Y-0019549D01*
X0102350Y-0019614D01*
X0102338Y-0019685D01*
X0102325Y-0019759D01*
X0102319Y-0019840D01*
X0102316Y-0019923D01*
Y-0019929D01*
Y-0019942D01*
X0102319Y-0019966D01*
Y-0019997D01*
X0102322Y-0020034D01*
X0102329Y-0020078D01*
X0102335Y-0020127D01*
X0102344Y-0020180D01*
X0102356Y-0020235D01*
X0102372Y-0020291D01*
X0102390Y-0020350D01*
X0102412Y-0020408D01*
X0102437Y-0020467D01*
X0102468Y-0020523D01*
X0102502Y-0020578D01*
X0102542Y-0020628D01*
X0102545Y-0020631D01*
X0102551Y-0020640D01*
X0102567Y-0020652D01*
X0102585Y-0020668D01*
X0102607Y-0020686D01*
X0102635Y-0020708D01*
X0102668Y-0020733D01*
X0102706Y-0020754D01*
X0102746Y-0020779D01*
X0102792Y-0020804D01*
X0102842Y-0020825D01*
X0102897Y-0020844D01*
X0102956Y-0020859D01*
X0103018Y-0020872D01*
X0103083Y-0020881D01*
X0103154Y-0020884D01*
X0103172D01*
X0103191Y-0020881D01*
X0103218D01*
X0103249Y-0020875D01*
X0103287Y-0020872D01*
X0103330Y-0020863D01*
X0103376Y-0020853D01*
X0103422Y-0020841D01*
X0103472Y-0020822D01*
X0103521Y-0020804D01*
X0103571Y-0020779D01*
X0103620Y-0020751D01*
X0103667Y-0020717D01*
X0103713Y-0020677D01*
X0103753Y-0020634D01*
X0103756Y-0020631D01*
X0103762Y-0020621D01*
X0103772Y-0020606D01*
X0103787Y-0020587D01*
X0103803Y-0020560D01*
X0103821Y-0020529D01*
X0103840Y-0020492D01*
X0103858Y-0020448D01*
X0103877Y-0020399D01*
X0103898Y-0020346D01*
X0103914Y-0020288D01*
X0103929Y-0020223D01*
X0103945Y-0020155D01*
X0103954Y-0020078D01*
X0103960Y-0019997D01*
X0103963Y-0019914D01*
Y-0019908D01*
Y-0019892D01*
Y-0019868D01*
X0103960Y-0019837D01*
X0103957Y-0019796D01*
X0103951Y-0019753D01*
X0103945Y-0019701D01*
X0103938Y-0019648D01*
X0103911Y-0019531D01*
X0103895Y-0019472D01*
X0103874Y-0019410D01*
X0103852Y-0019352D01*
X0103821Y-0019296D01*
X0103790Y-0019240D01*
X0103753Y-0019191D01*
X0103750Y-0019188D01*
X0103744Y-0019178D01*
X0103732Y-0019166D01*
X0103713Y-0019151D01*
X0103691Y-0019132D01*
X0103667Y-0019110D01*
X0103636Y-0019086D01*
X0103599Y-0019061D01*
X0103558Y-0019039D01*
X0103515Y-0019015D01*
X0103466Y-0018993D01*
X0103413Y-0018974D01*
X0103355Y-0018959D01*
X0103293Y-0018947D01*
X0103225Y-0018937D01*
X0103154Y-0018934D01*
D02*
G37*
G36*
X0096813D02*
X0096798D01*
X0096776Y-0018937D01*
X0096748D01*
X0096717Y-0018944D01*
X0096680Y-0018947D01*
X0096637Y-0018956D01*
X0096591Y-0018968D01*
X0096544Y-0018981D01*
X0096495Y-0018999D01*
X0096442Y-0019021D01*
X0096393Y-0019046D01*
X0096340Y-0019076D01*
X0096291Y-0019110D01*
X0096244Y-0019151D01*
X0096201Y-0019197D01*
X0096198Y-0019200D01*
X0096192Y-0019209D01*
X0096179Y-0019225D01*
X0096167Y-0019246D01*
X0096149Y-0019271D01*
X0096130Y-0019305D01*
X0096108Y-0019342D01*
X0096090Y-0019386D01*
X0096068Y-0019435D01*
X0096047Y-0019490D01*
X0096028Y-0019549D01*
X0096010Y-0019614D01*
X0095997Y-0019685D01*
X0095985Y-0019759D01*
X0095979Y-0019840D01*
X0095976Y-0019923D01*
Y-0019929D01*
Y-0019942D01*
X0095979Y-0019966D01*
Y-0019997D01*
X0095982Y-0020034D01*
X0095988Y-0020078D01*
X0095994Y-0020127D01*
X0096003Y-0020180D01*
X0096016Y-0020235D01*
X0096031Y-0020291D01*
X0096050Y-0020350D01*
X0096071Y-0020408D01*
X0096096Y-0020467D01*
X0096127Y-0020523D01*
X0096161Y-0020578D01*
X0096201Y-0020628D01*
X0096204Y-0020631D01*
X0096210Y-0020640D01*
X0096226Y-0020652D01*
X0096244Y-0020668D01*
X0096266Y-0020686D01*
X0096294Y-0020708D01*
X0096328Y-0020733D01*
X0096365Y-0020754D01*
X0096405Y-0020779D01*
X0096451Y-0020804D01*
X0096501Y-0020825D01*
X0096557Y-0020844D01*
X0096615Y-0020859D01*
X0096677Y-0020872D01*
X0096742Y-0020881D01*
X0096813Y-0020884D01*
X0096832D01*
X0096850Y-0020881D01*
X0096878D01*
X0096909Y-0020875D01*
X0096946Y-0020872D01*
X0096989Y-0020863D01*
X0097035Y-0020853D01*
X0097082Y-0020841D01*
X0097131Y-0020822D01*
X0097181Y-0020804D01*
X0097230Y-0020779D01*
X0097280Y-0020751D01*
X0097326Y-0020717D01*
X0097372Y-0020677D01*
X0097412Y-0020634D01*
X0097416Y-0020631D01*
X0097422Y-0020621D01*
X0097431Y-0020606D01*
X0097446Y-0020587D01*
X0097462Y-0020560D01*
X0097480Y-0020529D01*
X0097499Y-0020492D01*
X0097518Y-0020448D01*
X0097536Y-0020399D01*
X0097558Y-0020346D01*
X0097573Y-0020288D01*
X0097588Y-0020223D01*
X0097604Y-0020155D01*
X0097613Y-0020078D01*
X0097619Y-0019997D01*
X0097623Y-0019914D01*
Y-0019908D01*
Y-0019892D01*
Y-0019868D01*
X0097619Y-0019837D01*
X0097616Y-0019796D01*
X0097610Y-0019753D01*
X0097604Y-0019701D01*
X0097598Y-0019648D01*
X0097570Y-0019531D01*
X0097555Y-0019472D01*
X0097533Y-0019410D01*
X0097511Y-0019352D01*
X0097480Y-0019296D01*
X0097449Y-0019240D01*
X0097412Y-0019191D01*
X0097409Y-0019188D01*
X0097403Y-0019178D01*
X0097391Y-0019166D01*
X0097372Y-0019151D01*
X0097351Y-0019132D01*
X0097326Y-0019110D01*
X0097295Y-0019086D01*
X0097258Y-0019061D01*
X0097218Y-0019039D01*
X0097175Y-0019015D01*
X0097125Y-0018993D01*
X0097072Y-0018974D01*
X0097014Y-0018959D01*
X0096952Y-0018947D01*
X0096884Y-0018937D01*
X0096813Y-0018934D01*
D02*
G37*
G36*
X0156858Y-0024485D02*
X0156842D01*
X0156824Y-0024488D01*
X0156796D01*
X0156765Y-0024494D01*
X0156731Y-0024501D01*
X0156691Y-0024507D01*
X0156648Y-0024519D01*
X0156601Y-0024532D01*
X0156555Y-0024550D01*
X0156509Y-0024572D01*
X0156459Y-0024600D01*
X0156413Y-0024630D01*
X0156366Y-0024664D01*
X0156320Y-0024708D01*
X0156280Y-0024754D01*
X0156277Y-0024757D01*
X0156271Y-0024766D01*
X0156261Y-0024782D01*
X0156246Y-0024803D01*
X0156230Y-0024831D01*
X0156215Y-0024865D01*
X0156193Y-0024902D01*
X0156175Y-0024949D01*
X0156156Y-0024998D01*
X0156138Y-0025054D01*
X0156119Y-0025115D01*
X0156104Y-0025180D01*
X0156088Y-0025254D01*
X0156079Y-0025329D01*
X0156073Y-0025412D01*
X0156070Y-0025499D01*
Y-0025505D01*
Y-0025517D01*
Y-0025542D01*
X0156073Y-0025570D01*
X0156076Y-0025607D01*
X0156079Y-0025650D01*
X0156085Y-0025696D01*
X0156095Y-0025749D01*
X0156119Y-0025857D01*
X0156135Y-0025916D01*
X0156153Y-0025971D01*
X0156178Y-0026027D01*
X0156206Y-0026083D01*
X0156237Y-0026135D01*
X0156271Y-0026185D01*
X0156274Y-0026188D01*
X0156280Y-0026194D01*
X0156292Y-0026206D01*
X0156308Y-0026225D01*
X0156329Y-0026243D01*
X0156354Y-0026265D01*
X0156382Y-0026287D01*
X0156416Y-0026308D01*
X0156453Y-0026333D01*
X0156493Y-0026355D01*
X0156536Y-0026376D01*
X0156586Y-0026395D01*
X0156638Y-0026410D01*
X0156694Y-0026423D01*
X0156753Y-0026432D01*
X0156815Y-0026435D01*
X0156830D01*
X0156849Y-0026432D01*
X0156870D01*
X0156898Y-0026429D01*
X0156932Y-0026423D01*
X0156969Y-0026413D01*
X0157009Y-0026404D01*
X0157052Y-0026392D01*
X0157096Y-0026376D01*
X0157142Y-0026358D01*
X0157185Y-0026333D01*
X0157232Y-0026305D01*
X0157275Y-0026274D01*
X0157318Y-0026237D01*
X0157358Y-0026194D01*
X0157361Y-0026191D01*
X0157368Y-0026182D01*
X0157377Y-0026169D01*
X0157392Y-0026151D01*
X0157408Y-0026126D01*
X0157426Y-0026098D01*
X0157445Y-0026064D01*
X0157463Y-0026024D01*
X0157482Y-0025984D01*
X0157503Y-0025937D01*
X0157519Y-0025885D01*
X0157534Y-0025832D01*
X0157550Y-0025774D01*
X0157559Y-0025712D01*
X0157565Y-0025647D01*
X0157568Y-0025579D01*
Y-0025211D01*
Y-0025208D01*
Y-0025199D01*
Y-0025180D01*
X0157565Y-0025159D01*
X0157562Y-0025134D01*
X0157559Y-0025103D01*
X0157553Y-0025069D01*
X0157544Y-0025032D01*
X0157519Y-0024952D01*
X0157503Y-0024908D01*
X0157485Y-0024865D01*
X0157460Y-0024822D01*
X0157432Y-0024779D01*
X0157402Y-0024735D01*
X0157368Y-0024695D01*
X0157364Y-0024692D01*
X0157358Y-0024686D01*
X0157346Y-0024677D01*
X0157331Y-0024661D01*
X0157312Y-0024646D01*
X0157287Y-0024627D01*
X0157259Y-0024609D01*
X0157229Y-0024590D01*
X0157194Y-0024572D01*
X0157154Y-0024550D01*
X0157114Y-0024535D01*
X0157068Y-0024519D01*
X0157018Y-0024504D01*
X0156969Y-0024494D01*
X0156913Y-0024488D01*
X0156858Y-0024485D01*
D02*
G37*
G36*
X0152924Y-0025446D02*
X0152319Y-0025530D01*
X0152315D01*
X0152306Y-0025533D01*
X0152291D01*
X0152272Y-0025536D01*
X0152251Y-0025542D01*
X0152223Y-0025548D01*
X0152161Y-0025561D01*
X0152093Y-0025579D01*
X0152025Y-0025604D01*
X0151957Y-0025635D01*
X0151926Y-0025650D01*
X0151898Y-0025669D01*
X0151892Y-0025675D01*
X0151877Y-0025687D01*
X0151852Y-0025712D01*
X0151827Y-0025749D01*
X0151803Y-0025798D01*
X0151790Y-0025826D01*
X0151778Y-0025857D01*
X0151769Y-0025891D01*
X0151762Y-0025931D01*
X0151759Y-0025971D01*
X0151756Y-0026018D01*
Y-0026021D01*
Y-0026027D01*
Y-0026036D01*
X0151759Y-0026049D01*
X0151762Y-0026083D01*
X0151772Y-0026126D01*
X0151787Y-0026172D01*
X0151812Y-0026225D01*
X0151843Y-0026274D01*
X0151886Y-0026321D01*
X0151889D01*
X0151892Y-0026327D01*
X0151911Y-0026339D01*
X0151938Y-0026358D01*
X0151979Y-0026376D01*
X0152031Y-0026398D01*
X0152090Y-0026416D01*
X0152161Y-0026429D01*
X0152238Y-0026435D01*
X0152266D01*
X0152288Y-0026432D01*
X0152312Y-0026429D01*
X0152343Y-0026423D01*
X0152374Y-0026416D01*
X0152411Y-0026407D01*
X0152489Y-0026382D01*
X0152529Y-0026367D01*
X0152572Y-0026345D01*
X0152612Y-0026321D01*
X0152652Y-0026293D01*
X0152692Y-0026262D01*
X0152729Y-0026225D01*
X0152733Y-0026222D01*
X0152739Y-0026215D01*
X0152748Y-0026203D01*
X0152760Y-0026188D01*
X0152776Y-0026166D01*
X0152791Y-0026141D01*
X0152810Y-0026114D01*
X0152828Y-0026080D01*
X0152844Y-0026043D01*
X0152862Y-0026002D01*
X0152878Y-0025959D01*
X0152893Y-0025913D01*
X0152906Y-0025863D01*
X0152915Y-0025811D01*
X0152921Y-0025755D01*
X0152924Y-0025696D01*
Y-0025446D01*
D02*
G37*
G36*
X0146713Y-0023574D02*
X0146179D01*
Y-0024708D01*
X0146633D01*
X0146654Y-0024704D01*
X0146682Y-0024701D01*
X0146716Y-0024698D01*
X0146753Y-0024695D01*
X0146794Y-0024686D01*
X0146877Y-0024667D01*
X0146967Y-0024640D01*
X0147010Y-0024621D01*
X0147053Y-0024600D01*
X0147093Y-0024575D01*
X0147130Y-0024547D01*
X0147134Y-0024544D01*
X0147140Y-0024541D01*
X0147149Y-0024528D01*
X0147161Y-0024516D01*
X0147177Y-0024501D01*
X0147192Y-0024479D01*
X0147211Y-0024454D01*
X0147229Y-0024426D01*
X0147245Y-0024396D01*
X0147263Y-0024362D01*
X0147279Y-0024324D01*
X0147294Y-0024284D01*
X0147307Y-0024238D01*
X0147316Y-0024192D01*
X0147322Y-0024139D01*
X0147325Y-0024087D01*
Y-0024080D01*
Y-0024065D01*
X0147322Y-0024040D01*
X0147316Y-0024006D01*
X0147303Y-0023966D01*
X0147291Y-0023923D01*
X0147269Y-0023876D01*
X0147242Y-0023830D01*
X0147205Y-0023781D01*
X0147161Y-0023734D01*
X0147106Y-0023691D01*
X0147041Y-0023654D01*
X0147004Y-0023635D01*
X0146964Y-0023620D01*
X0146920Y-0023608D01*
X0146874Y-0023595D01*
X0146825Y-0023586D01*
X0146769Y-0023580D01*
X0146713Y-0023574D01*
D02*
G37*
G36*
X0146651Y-0025078D02*
X0146179D01*
Y-0026342D01*
X0146772D01*
X0146797Y-0026339D01*
X0146828Y-0026336D01*
X0146862Y-0026333D01*
X0146902Y-0026327D01*
X0146945Y-0026321D01*
X0147035Y-0026302D01*
X0147127Y-0026271D01*
X0147174Y-0026250D01*
X0147217Y-0026228D01*
X0147257Y-0026203D01*
X0147297Y-0026172D01*
X0147300Y-0026169D01*
X0147307Y-0026163D01*
X0147316Y-0026154D01*
X0147328Y-0026141D01*
X0147344Y-0026123D01*
X0147362Y-0026101D01*
X0147378Y-0026076D01*
X0147399Y-0026049D01*
X0147418Y-0026015D01*
X0147433Y-0025981D01*
X0147452Y-0025940D01*
X0147467Y-0025900D01*
X0147480Y-0025854D01*
X0147489Y-0025805D01*
X0147495Y-0025755D01*
X0147498Y-0025699D01*
Y-0025696D01*
Y-0025693D01*
Y-0025684D01*
X0147495Y-0025672D01*
X0147492Y-0025641D01*
X0147486Y-0025604D01*
X0147473Y-0025554D01*
X0147455Y-0025502D01*
X0147427Y-0025446D01*
X0147393Y-0025387D01*
X0147347Y-0025332D01*
X0147322Y-0025304D01*
X0147291Y-0025276D01*
X0147260Y-0025248D01*
X0147223Y-0025224D01*
X0147183Y-0025199D01*
X0147140Y-0025174D01*
X0147093Y-0025156D01*
X0147044Y-0025137D01*
X0146988Y-0025119D01*
X0146930Y-0025106D01*
X0146868Y-0025094D01*
X0146800Y-0025085D01*
X0146729Y-0025082D01*
X0146651Y-0025078D01*
D02*
G37*
G36*
X0174727Y-0024485D02*
X0174699D01*
X0174681Y-0024488D01*
X0174656Y-0024491D01*
X0174625Y-0024494D01*
X0174594Y-0024501D01*
X0174560Y-0024510D01*
X0174483Y-0024535D01*
X0174443Y-0024550D01*
X0174403Y-0024572D01*
X0174363Y-0024593D01*
X0174319Y-0024621D01*
X0174282Y-0024652D01*
X0174242Y-0024689D01*
X0174239Y-0024692D01*
X0174233Y-0024698D01*
X0174223Y-0024711D01*
X0174211Y-0024726D01*
X0174196Y-0024748D01*
X0174177Y-0024769D01*
X0174159Y-0024800D01*
X0174137Y-0024831D01*
X0174115Y-0024868D01*
X0174097Y-0024908D01*
X0174075Y-0024952D01*
X0174057Y-0024998D01*
X0174038Y-0025051D01*
X0174023Y-0025103D01*
X0174007Y-0025162D01*
X0173998Y-0025221D01*
X0175355D01*
Y-0025218D01*
Y-0025205D01*
Y-0025187D01*
X0175351Y-0025162D01*
X0175348Y-0025134D01*
X0175345Y-0025100D01*
X0175339Y-0025063D01*
X0175333Y-0025023D01*
X0175311Y-0024936D01*
X0175280Y-0024844D01*
X0175262Y-0024800D01*
X0175240Y-0024757D01*
X0175215Y-0024717D01*
X0175185Y-0024680D01*
X0175181Y-0024677D01*
X0175178Y-0024670D01*
X0175169Y-0024661D01*
X0175154Y-0024649D01*
X0175138Y-0024633D01*
X0175117Y-0024618D01*
X0175095Y-0024600D01*
X0175067Y-0024581D01*
X0175036Y-0024566D01*
X0175002Y-0024547D01*
X0174962Y-0024532D01*
X0174922Y-0024516D01*
X0174879Y-0024504D01*
X0174832Y-0024494D01*
X0174780Y-0024488D01*
X0174727Y-0024485D01*
D02*
G37*
G36*
X0161656Y-0023515D02*
X0161632D01*
X0161604Y-0023518D01*
X0161564Y-0023521D01*
X0161517Y-0023527D01*
X0161462Y-0023537D01*
X0161403Y-0023549D01*
X0161338Y-0023564D01*
X0161267Y-0023586D01*
X0161193Y-0023611D01*
X0161119Y-0023645D01*
X0161045Y-0023682D01*
X0160967Y-0023728D01*
X0160896Y-0023781D01*
X0160825Y-0023842D01*
X0160757Y-0023913D01*
X0160754Y-0023917D01*
X0160742Y-0023932D01*
X0160726Y-0023954D01*
X0160705Y-0023984D01*
X0160677Y-0024025D01*
X0160649Y-0024074D01*
X0160618Y-0024130D01*
X0160587Y-0024195D01*
X0160553Y-0024266D01*
X0160522Y-0024346D01*
X0160495Y-0024433D01*
X0160467Y-0024525D01*
X0160445Y-0024624D01*
X0160430Y-0024732D01*
X0160417Y-0024844D01*
X0160414Y-0024964D01*
Y-0024967D01*
Y-0024970D01*
Y-0024980D01*
Y-0024992D01*
Y-0025007D01*
X0160417Y-0025026D01*
X0160421Y-0025072D01*
X0160424Y-0025128D01*
X0160433Y-0025190D01*
X0160442Y-0025261D01*
X0160458Y-0025338D01*
X0160473Y-0025418D01*
X0160498Y-0025505D01*
X0160522Y-0025591D01*
X0160556Y-0025678D01*
X0160593Y-0025764D01*
X0160640Y-0025851D01*
X0160692Y-0025931D01*
X0160751Y-0026008D01*
X0160754Y-0026012D01*
X0160767Y-0026024D01*
X0160785Y-0026046D01*
X0160813Y-0026070D01*
X0160847Y-0026101D01*
X0160887Y-0026132D01*
X0160933Y-0026169D01*
X0160986Y-0026206D01*
X0161048Y-0026243D01*
X0161113Y-0026277D01*
X0161187Y-0026311D01*
X0161264Y-0026342D01*
X0161347Y-0026367D01*
X0161437Y-0026386D01*
X0161530Y-0026401D01*
X0161629Y-0026404D01*
X0161653D01*
X0161684Y-0026401D01*
X0161724Y-0026398D01*
X0161774Y-0026392D01*
X0161829Y-0026386D01*
X0161891Y-0026373D01*
X0161959Y-0026358D01*
X0162030Y-0026336D01*
X0162104Y-0026311D01*
X0162182Y-0026280D01*
X0162256Y-0026243D01*
X0162333Y-0026203D01*
X0162404Y-0026151D01*
X0162475Y-0026092D01*
X0162540Y-0026027D01*
X0162543Y-0026024D01*
X0162556Y-0026008D01*
X0162571Y-0025987D01*
X0162593Y-0025956D01*
X0162618Y-0025919D01*
X0162645Y-0025872D01*
X0162676Y-0025817D01*
X0162707Y-0025752D01*
X0162738Y-0025681D01*
X0162769Y-0025604D01*
X0162797Y-0025517D01*
X0162821Y-0025421D01*
X0162843Y-0025319D01*
X0162858Y-0025211D01*
X0162871Y-0025094D01*
X0162874Y-0024970D01*
Y-0024967D01*
Y-0024961D01*
Y-0024952D01*
Y-0024939D01*
Y-0024924D01*
X0162871Y-0024902D01*
X0162868Y-0024856D01*
X0162865Y-0024797D01*
X0162855Y-0024729D01*
X0162846Y-0024655D01*
X0162834Y-0024575D01*
X0162815Y-0024491D01*
X0162794Y-0024402D01*
X0162769Y-0024312D01*
X0162738Y-0024223D01*
X0162701Y-0024136D01*
X0162658Y-0024049D01*
X0162608Y-0023969D01*
X0162549Y-0023895D01*
X0162546Y-0023892D01*
X0162534Y-0023879D01*
X0162515Y-0023861D01*
X0162491Y-0023836D01*
X0162457Y-0023805D01*
X0162417Y-0023774D01*
X0162370Y-0023740D01*
X0162318Y-0023703D01*
X0162256Y-0023669D01*
X0162188Y-0023635D01*
X0162117Y-0023601D01*
X0162037Y-0023574D01*
X0161950Y-0023549D01*
X0161857Y-0023530D01*
X0161762Y-0023518D01*
X0161656Y-0023515D01*
D02*
G37*
G36*
X0149667Y-0024485D02*
X0149652D01*
X0149630Y-0024488D01*
X0149602D01*
X0149572Y-0024494D01*
X0149534Y-0024498D01*
X0149491Y-0024507D01*
X0149445Y-0024519D01*
X0149399Y-0024532D01*
X0149349Y-0024550D01*
X0149296Y-0024572D01*
X0149247Y-0024596D01*
X0149195Y-0024627D01*
X0149145Y-0024661D01*
X0149099Y-0024701D01*
X0149056Y-0024748D01*
X0149052Y-0024751D01*
X0149046Y-0024760D01*
X0149034Y-0024776D01*
X0149021Y-0024797D01*
X0149003Y-0024822D01*
X0148984Y-0024856D01*
X0148963Y-0024893D01*
X0148944Y-0024936D01*
X0148923Y-0024986D01*
X0148901Y-0025041D01*
X0148882Y-0025100D01*
X0148864Y-0025165D01*
X0148852Y-0025236D01*
X0148839Y-0025310D01*
X0148833Y-0025390D01*
X0148830Y-0025474D01*
Y-0025480D01*
Y-0025493D01*
X0148833Y-0025517D01*
Y-0025548D01*
X0148836Y-0025585D01*
X0148842Y-0025628D01*
X0148848Y-0025678D01*
X0148858Y-0025730D01*
X0148870Y-0025786D01*
X0148886Y-0025842D01*
X0148904Y-0025900D01*
X0148926Y-0025959D01*
X0148950Y-0026018D01*
X0148981Y-0026073D01*
X0149015Y-0026129D01*
X0149056Y-0026178D01*
X0149059Y-0026182D01*
X0149065Y-0026191D01*
X0149080Y-0026203D01*
X0149099Y-0026219D01*
X0149120Y-0026237D01*
X0149148Y-0026259D01*
X0149182Y-0026283D01*
X0149219Y-0026305D01*
X0149259Y-0026330D01*
X0149306Y-0026355D01*
X0149355Y-0026376D01*
X0149411Y-0026395D01*
X0149469Y-0026410D01*
X0149531Y-0026423D01*
X0149596Y-0026432D01*
X0149667Y-0026435D01*
X0149686D01*
X0149704Y-0026432D01*
X0149732D01*
X0149763Y-0026426D01*
X0149800Y-0026423D01*
X0149843Y-0026413D01*
X0149890Y-0026404D01*
X0149936Y-0026392D01*
X0149986Y-0026373D01*
X0150035Y-0026355D01*
X0150084Y-0026330D01*
X0150134Y-0026302D01*
X0150180Y-0026268D01*
X0150227Y-0026228D01*
X0150267Y-0026185D01*
X0150270Y-0026182D01*
X0150276Y-0026172D01*
X0150285Y-0026157D01*
X0150301Y-0026138D01*
X0150316Y-0026111D01*
X0150335Y-0026080D01*
X0150353Y-0026043D01*
X0150372Y-0025999D01*
X0150390Y-0025950D01*
X0150412Y-0025897D01*
X0150427Y-0025839D01*
X0150443Y-0025774D01*
X0150458Y-0025706D01*
X0150468Y-0025628D01*
X0150474Y-0025548D01*
X0150477Y-0025465D01*
Y-0025458D01*
Y-0025443D01*
Y-0025418D01*
X0150474Y-0025387D01*
X0150471Y-0025347D01*
X0150464Y-0025304D01*
X0150458Y-0025251D01*
X0150452Y-0025199D01*
X0150424Y-0025082D01*
X0150409Y-0025023D01*
X0150387Y-0024961D01*
X0150366Y-0024902D01*
X0150335Y-0024847D01*
X0150304Y-0024791D01*
X0150267Y-0024742D01*
X0150264Y-0024738D01*
X0150258Y-0024729D01*
X0150245Y-0024717D01*
X0150227Y-0024701D01*
X0150205Y-0024683D01*
X0150180Y-0024661D01*
X0150149Y-0024636D01*
X0150112Y-0024612D01*
X0150072Y-0024590D01*
X0150029Y-0024566D01*
X0149979Y-0024544D01*
X0149927Y-0024525D01*
X0149868Y-0024510D01*
X0149806Y-0024498D01*
X0149738Y-0024488D01*
X0149667Y-0024485D01*
D02*
G37*
%LPD*%
D11*
X-0035540Y-0030090D02*
G03*
X-0037556Y-0029496I-0003830J-0009280D01*
G01*
X-0033068Y-0027338D02*
G03*
X-0036906Y-0026013I-0006302J-0012032D01*
G01*
X-0033068Y-0027338D02*
G03*
X-0035445Y-0030130I0000762J-0003056D01*
G01*
X-0030130Y-0035445D02*
G03*
X-0027338Y-0033068I-0000264J0003139D01*
G01*
X-0026013Y-0036906D02*
G03*
X-0027338Y-0033068I-0013357J-0002465D01*
G01*
X-0029496Y-0037556D02*
G03*
X-0026030Y-0036819I0001733J0000368D01*
G01*
X-0029496Y-0037556D02*
G03*
X-0030090Y-0035540I-0009874J-0001814D01*
G01*
X-0036819Y-0026030D02*
G03*
X-0037556Y-0029496I-0000368J-0001733D01*
G01*
Y0029496D02*
G03*
X-0035540Y0030090I-0001814J0009874D01*
G01*
X-0037556Y0029496D02*
G03*
X-0036819Y0026030I0000368J-0001733D01*
G01*
X-0035445Y0030130D02*
G03*
X-0033068Y0027338I0003139J0000264D01*
G01*
X-0036906Y0026013D02*
G03*
X-0033068Y0027338I-0002465J0013357D01*
G01*
X-0027338Y0033068D02*
G03*
X-0030130Y0035445I-0003056J-0000762D01*
G01*
X-0027338Y0033068D02*
G03*
X-0026013Y0036906I-0012032J0006302D01*
G01*
X-0026030Y0036819D02*
G03*
X-0029496Y0037556I-0001733J0000368D01*
G01*
X-0030090Y0035540D02*
G03*
X-0029496Y0037556I-0009280J0003830D01*
G01*
X0029496D02*
G03*
X0030090Y0035540I0009874J0001814D01*
G01*
X0029496Y0037556D02*
G03*
X0026030Y0036819I-0001733J-0000368D01*
G01*
X0026013Y0036906D02*
G03*
X0027338Y0033068I0013357J0002465D01*
G01*
X0030130Y0035445D02*
G03*
X0027338Y0033068I0000264J-0003139D01*
G01*
X0035540Y0030090D02*
G03*
X0037556Y0029496I0003830J0009280D01*
G01*
X0033068Y0027338D02*
G03*
X0035445Y0030130I-0000762J0003056D01*
G01*
X0033068Y0027338D02*
G03*
X0036906Y0026013I0006302J0012032D01*
G01*
X0036819Y0026030D02*
G03*
X0037556Y0029496I0000368J0001733D01*
G01*
X0030090Y-0035540D02*
G03*
X0029496Y-0037556I0009280J-0003830D01*
G01*
X0026030Y-0036819D02*
G03*
X0029496Y-0037556I0001733J-0000368D01*
G01*
X0027338Y-0033068D02*
G03*
X0026013Y-0036906I0012032J-0006302D01*
G01*
X0027338Y-0033068D02*
G03*
X0030130Y-0035445I0003056J0000762D01*
G01*
X0035445Y-0030130D02*
G03*
X0033068Y-0027338I-0003139J-0000264D01*
G01*
X0037556Y-0029496D02*
G03*
X0035540Y-0030090I0001814J-0009874D01*
G01*
X0036906Y-0026013D02*
G03*
X0033068Y-0027338I0002465J-0013357D01*
G01*
X0037556Y-0029496D02*
G03*
X0036819Y-0026030I-0000368J0001733D01*
G01*
X-0014831Y-0023904D02*
X-0018204D01*
X-0019367Y-0022404D02*
X-0019741Y-0022217D01*
X-0020304Y-0021654D01*
Y-0025591D01*
X-0022441Y-0025216D02*
X-0022253Y-0025403D01*
X-0022441Y-0025591D01*
X-0022628Y-0025403D01*
X-0022441Y-0025216D01*
X-0024615Y-0021654D02*
X-0024053Y-0021842D01*
X-0023678Y-0022404D01*
X-0023490Y-0023341D01*
Y-0023904D01*
X-0023678Y-0024841D01*
X-0024053Y-0025403D01*
X-0024615Y-0025591D01*
X-0024990D01*
X-0025552Y-0025403D01*
X-0025927Y-0024841D01*
X-0026114Y-0023904D01*
Y-0023341D01*
X-0025927Y-0022404D01*
X-0025552Y-0021842D01*
X-0024990Y-0021654D01*
X-0024615D01*
X-0016274Y-0016499D02*
X-0016649Y-0016311D01*
X-0017211Y-0015749D01*
Y-0019685D01*
X-0019160Y-0016499D02*
X-0019535Y-0016311D01*
X-0020098Y-0015749D01*
Y-0019685D01*
X-0024671Y-0015749D02*
X-0022797Y-0019685D01*
X-0022047Y-0015749D02*
X-0024671D01*
X-0021542Y0020144D02*
Y0018289D01*
X-0020193Y0019301D01*
Y0018795D01*
X-0020024Y0018458D01*
X-0019856Y0018289D01*
X-0019350Y0018120D01*
X-0019012D01*
X-0018506Y0018289D01*
X-0018169Y0018626D01*
X-0018000Y0019132D01*
Y0019638D01*
X-0018169Y0020144D01*
X-0018337Y0020313D01*
X-0018675Y0020482D01*
X-0021542Y0017327D02*
X-0018000Y0015978D01*
X-0021542Y0014628D02*
X-0018000Y0015978D01*
X-0021542Y0013835D02*
Y0011980D01*
X-0020193Y0012992D01*
Y0012486D01*
X-0020024Y0012148D01*
X-0019856Y0011980D01*
X-0019350Y0011811D01*
X-0019012D01*
X-0018506Y0011980D01*
X-0018169Y0012317D01*
X-0018000Y0012823D01*
Y0013329D01*
X-0018169Y0013835D01*
X-0018337Y0014004D01*
X-0018675Y0014173D01*
X-0008000Y0014999D02*
X-0011542Y0016349D01*
X-0008000Y0017698D01*
X-0009181Y0017192D02*
Y0015505D01*
X-0011542Y0014173D02*
X-0008000D01*
X-0011542D02*
X-0008000Y0011811D01*
X-0011542D02*
X-0008000D01*
X-0011037Y0004819D02*
X-0011374Y0005157D01*
X-0011542Y0005663D01*
Y0006338D01*
X-0011374Y0006844D01*
X-0011037Y0007181D01*
X-0010699D01*
X-0010362Y0007012D01*
X-0010193Y0006844D01*
X-0010024Y0006506D01*
X-0009687Y0005494D01*
X-0009518Y0005157D01*
X-0009349Y0004988D01*
X-0009012Y0004819D01*
X-0008506D01*
X-0008169Y0005157D01*
X-0008000Y0005663D01*
Y0006338D01*
X-0008169Y0006844D01*
X-0008506Y0007181D01*
X-0010699Y0001496D02*
X-0011037Y0001665D01*
X-0011374Y0002002D01*
X-0011542Y0002340D01*
Y0003014D01*
X-0011374Y0003352D01*
X-0011037Y0003689D01*
X-0010699Y0003858D01*
X-0010193Y0004027D01*
X-0009349D01*
X-0008844Y0003858D01*
X-0008506Y0003689D01*
X-0008169Y0003352D01*
X-0008000Y0003014D01*
Y0002340D01*
X-0008169Y0002002D01*
X-0008506Y0001665D01*
X-0008844Y0001496D01*
X-0011542Y0000501D02*
X-0008000D01*
X-0011542Y-0001861D02*
X-0009181Y0000501D01*
X-0010024Y-0000343D02*
X-0008000Y-0001861D01*
X-0020699Y0004651D02*
X-0021036Y0004819D01*
X-0021374Y0005157D01*
X-0021542Y0005494D01*
Y0006169D01*
X-0021374Y0006506D01*
X-0021036Y0006844D01*
X-0020699Y0007012D01*
X-0020193Y0007181D01*
X-0019350D01*
X-0018844Y0007012D01*
X-0018506Y0006844D01*
X-0018169Y0006506D01*
X-0018000Y0006169D01*
Y0005494D01*
X-0018169Y0005157D01*
X-0018506Y0004819D01*
X-0018844Y0004651D01*
X-0019350D01*
Y0005494D02*
Y0004651D01*
X-0021542Y0003841D02*
X-0018000D01*
X-0021542D02*
X-0018000Y0001479D01*
X-0021542D02*
X-0018000D01*
X-0021542Y0000501D02*
X-0018000D01*
X-0021542D02*
Y-0000680D01*
X-0021374Y-0001186D01*
X-0021036Y-0001524D01*
X-0020699Y-0001692D01*
X-0020193Y-0001861D01*
X-0019350D01*
X-0018844Y-0001692D01*
X-0018506Y-0001524D01*
X-0018169Y-0001186D01*
X-0018000Y-0000680D01*
Y0000501D01*
X0008963Y0017760D02*
X0008626Y0018098D01*
X0008457Y0018604D01*
Y0019278D01*
X0008626Y0019784D01*
X0008963Y0020122D01*
X0009301D01*
X0009638Y0019953D01*
X0009807Y0019784D01*
X0009976Y0019447D01*
X0010313Y0018435D01*
X0010482Y0018098D01*
X0010650Y0017929D01*
X0010988Y0017760D01*
X0011494D01*
X0011831Y0018098D01*
X0012000Y0018604D01*
Y0019278D01*
X0011831Y0019784D01*
X0011494Y0020122D01*
X0009301Y0014437D02*
X0008963Y0014606D01*
X0008626Y0014943D01*
X0008457Y0015280D01*
Y0015955D01*
X0008626Y0016293D01*
X0008963Y0016630D01*
X0009301Y0016799D01*
X0009807Y0016967D01*
X0010650D01*
X0011157Y0016799D01*
X0011494Y0016630D01*
X0011831Y0016293D01*
X0012000Y0015955D01*
Y0015280D01*
X0011831Y0014943D01*
X0011494Y0014606D01*
X0011157Y0014437D01*
X0008457Y0013442D02*
X0012000D01*
Y0011417D01*
X0008457Y0007181D02*
X0012000D01*
X0008457D02*
Y0005663D01*
X0008626Y0005157D01*
X0008795Y0004988D01*
X0009132Y0004819D01*
X0009470D01*
X0009807Y0004988D01*
X0009976Y0005157D01*
X0010144Y0005663D01*
Y0007181D01*
Y0006000D02*
X0012000Y0004819D01*
X0008457Y0004027D02*
X0012000Y0001665D01*
X0008457D02*
X0012000Y0004027D01*
X0012506Y0000872D02*
X0008457Y-0001490D01*
X0009301Y-0004256D02*
X0008963Y-0004088D01*
X0008626Y-0003750D01*
X0008457Y-0003413D01*
Y-0002738D01*
X0008626Y-0002401D01*
X0008963Y-0002063D01*
X0009301Y-0001895D01*
X0009807Y-0001726D01*
X0010650D01*
X0011157Y-0001895D01*
X0011494Y-0002063D01*
X0011831Y-0002401D01*
X0012000Y-0002738D01*
Y-0003413D01*
X0011831Y-0003750D01*
X0011494Y-0004088D01*
X0011157Y-0004256D01*
X0008963Y-0007613D02*
X0008626Y-0007276D01*
X0008457Y-0006770D01*
Y-0006095D01*
X0008626Y-0005589D01*
X0008963Y-0005252D01*
X0009301D01*
X0009638Y-0005420D01*
X0009807Y-0005589D01*
X0009976Y-0005926D01*
X0010313Y-0006938D01*
X0010482Y-0007276D01*
X0010650Y-0007445D01*
X0010988Y-0007613D01*
X0011494D01*
X0011831Y-0007276D01*
X0012000Y-0006770D01*
Y-0006095D01*
X0011831Y-0005589D01*
X0011494Y-0005252D01*
X-0001543Y0021724D02*
X0002000D01*
X-0001543D02*
X0002000Y0020375D01*
X-0001543Y0019025D02*
X0002000Y0020375D01*
X-0001543Y0019025D02*
X0002000D01*
X-0001543Y0018013D02*
X0002000D01*
X-0001036Y0014909D02*
X-0001374Y0015247D01*
X-0001543Y0015753D01*
Y0016428D01*
X-0001374Y0016934D01*
X-0001036Y0017271D01*
X-0000699D01*
X-0000362Y0017102D01*
X-0000193Y0016934D01*
X-0000024Y0016596D01*
X0000313Y0015584D01*
X0000482Y0015247D01*
X0000650Y0015078D01*
X0000988Y0014909D01*
X0001494D01*
X0001831Y0015247D01*
X0002000Y0015753D01*
Y0016428D01*
X0001831Y0016934D01*
X0001494Y0017271D01*
X-0001543Y0013104D02*
X-0001374Y0013442D01*
X-0001036Y0013779D01*
X-0000699Y0013948D01*
X-0000193Y0014116D01*
X0000650D01*
X0001156Y0013948D01*
X0001494Y0013779D01*
X0001831Y0013442D01*
X0002000Y0013104D01*
Y0012430D01*
X0001831Y0012092D01*
X0001494Y0011755D01*
X0001156Y0011586D01*
X0000650Y0011417D01*
X-0000193D01*
X-0000699Y0011586D01*
X-0001036Y0011755D01*
X-0001374Y0012092D01*
X-0001543Y0012430D01*
Y0013104D01*
Y0006000D02*
X0002000D01*
X-0001543Y0007181D02*
Y0004819D01*
Y0004398D02*
X0002000Y0002036D01*
X-0001543D02*
X0002000Y0004398D01*
X0002506Y0001243D02*
X-0001543Y-0001119D01*
Y-0001355D02*
X0002000D01*
X-0001543D02*
X0002000Y-0002704D01*
X-0001543Y-0004054D02*
X0002000Y-0002704D01*
X-0001543Y-0004054D02*
X0002000D01*
X-0001543Y-0006078D02*
X-0001374Y-0005741D01*
X-0001036Y-0005403D01*
X-0000699Y-0005235D01*
X-0000193Y-0005066D01*
X0000650D01*
X0001156Y-0005235D01*
X0001494Y-0005403D01*
X0001831Y-0005741D01*
X0002000Y-0006078D01*
Y-0006753D01*
X0001831Y-0007090D01*
X0001494Y-0007428D01*
X0001156Y-0007596D01*
X0000650Y-0007765D01*
X-0000193D01*
X-0000699Y-0007596D01*
X-0001036Y-0007428D01*
X-0001374Y-0007090D01*
X-0001543Y-0006753D01*
Y-0006078D01*
X-0001036Y-0010953D02*
X-0001374Y-0010616D01*
X-0001543Y-0010110D01*
Y-0009435D01*
X-0001374Y-0008929D01*
X-0001036Y-0008592D01*
X-0000699D01*
X-0000362Y-0008760D01*
X-0000193Y-0008929D01*
X-0000024Y-0009267D01*
X0000313Y-0010279D01*
X0000482Y-0010616D01*
X0000650Y-0010785D01*
X0000988Y-0010953D01*
X0001494D01*
X0001831Y-0010616D01*
X0002000Y-0010110D01*
Y-0009435D01*
X0001831Y-0008929D01*
X0001494Y-0008592D01*
X-0001543Y-0011746D02*
X0002000D01*
X0018963Y0018064D02*
X0018626Y0018401D01*
X0018458Y0018907D01*
Y0019582D01*
X0018626Y0020088D01*
X0018963Y0020425D01*
X0019301D01*
X0019638Y0020257D01*
X0019807Y0020088D01*
X0019976Y0019751D01*
X0020313Y0018739D01*
X0020482Y0018401D01*
X0020651Y0018233D01*
X0020988Y0018064D01*
X0021494D01*
X0021831Y0018401D01*
X0022000Y0018907D01*
Y0019582D01*
X0021831Y0020088D01*
X0021494Y0020425D01*
X0018458Y0017271D02*
X0022000D01*
X0018458D02*
Y0016090D01*
X0018626Y0015584D01*
X0018963Y0015247D01*
X0019301Y0015078D01*
X0019807Y0014909D01*
X0020651D01*
X0021157Y0015078D01*
X0021494Y0015247D01*
X0021831Y0015584D01*
X0022000Y0016090D01*
Y0017271D01*
Y0011417D02*
X0018458Y0012767D01*
X0022000Y0014116D01*
X0020819Y0013610D02*
Y0011923D01*
X0020313Y0007181D02*
Y0005663D01*
X0020144Y0005157D01*
X0019976Y0004988D01*
X0019638Y0004819D01*
X0019132D01*
X0018795Y0004988D01*
X0018626Y0005157D01*
X0018458Y0005663D01*
Y0007181D01*
X0022000D01*
X0018458Y0004027D02*
X0022000Y0003183D01*
X0018458Y0002340D02*
X0022000Y0003183D01*
X0018458Y0002340D02*
X0022000Y0001496D01*
X0018458Y0000653D02*
X0022000Y0001496D01*
X0018458Y-0000056D02*
X0022000D01*
X0018458D02*
X0022000Y-0001405D01*
X0018458Y-0002755D02*
X0022000Y-0001405D01*
X0018458Y-0002755D02*
X0022000D01*
D12*
X-0034192Y-0027321D02*
G03*
X-0035829Y-0029312I-0000293J-0001427D01*
G01*
X-0029312Y-0035829D02*
G03*
X-0027321Y-0034192I0000564J0001343D01*
G01*
X-0035829Y0029312D02*
G03*
X-0034192Y0027321I0001343J-0000564D01*
G01*
X-0027321Y0034192D02*
G03*
X-0029312Y0035829I-0001427J0000293D01*
G01*
X0029312D02*
G03*
X0027321Y0034192I-0000564J-0001343D01*
G01*
X0034192Y0027321D02*
G03*
X0035829Y0029312I0000293J0001427D01*
G01*
X0027321Y-0034192D02*
G03*
X0029312Y-0035829I0001427J-0000293D01*
G01*
X0035829Y-0029312D02*
G03*
X0034192Y-0027321I-0001343J0000564D01*
G01*
D13*
X-0036557Y-0027899D02*
G03*
X-0037126Y-0027774I-0002813J-0011471D01*
G01*
X-0027774Y-0037126D02*
G03*
X-0027899Y-0036557I-0011596J-0002244D01*
G01*
X-0037126Y0027774D02*
G03*
X-0036557Y0027899I-0002244J0011596D01*
G01*
X-0027899Y0036557D02*
G03*
X-0027774Y0037126I-0011471J0002813D01*
G01*
X0027774D02*
G03*
X0027899Y0036557I0011596J0002244D01*
G01*
X0036557Y0027899D02*
G03*
X0037126Y0027774I0002813J0011471D01*
G01*
X0027899Y-0036557D02*
G03*
X0027774Y-0037126I0011471J-0002813D01*
G01*
X0037126Y-0027774D02*
G03*
X0036557Y-0027899I0002244J-0011596D01*
G01*
D14*
X-0032937Y0029465D02*
G03*
X-0029465Y0032937I-0006433J0009905D01*
G01*
X-0029137Y0031397D01*
X-0031037Y0032855D02*
X-0029465Y0032937D01*
X-0032937Y0029465D02*
X-0032882Y0031038D01*
X-0032937Y0029465D02*
X-0031392Y0029164D01*
X0039370Y-0049213D02*
G03*
X0049213Y-0039370I0000000J0009843D01*
G01*
X-0035818Y0012992D02*
G03*
X-0031881Y0016929I0000000J0003937D01*
G01*
X0035827Y0023622D02*
G03*
X0031890Y0019685I0000000J-0003937D01*
G01*
X-0045276Y-0023622D02*
G03*
X-0049213Y-0027559I0000000J-0003937D01*
G01*
X-0051968Y0012992D02*
G03*
X-0055118Y0009843I0000000J-0003150D01*
G01*
X0045276Y0023622D02*
G03*
X0049213Y0027559I0000000J0003937D01*
G01*
X-0020669Y0049213D02*
G03*
X-0021654Y0048228I0000000J-0000984D01*
G01*
X0049213Y-0027559D02*
G03*
X0045276Y-0023622I-0003937J0000000D01*
G01*
X0049213Y0039370D02*
G03*
X0039370Y0049213I-0009843J0000000D01*
G01*
X-0049213Y-0039370D02*
G03*
X-0039370Y-0049213I0009843J0000000D01*
G01*
X0031890Y-0019685D02*
G03*
X0035827Y-0023622I0003937J0000000D01*
G01*
X0035825Y-0012992D02*
G03*
X0031888Y-0016929I0000000J-0003937D01*
G01*
X0051968Y-0012992D02*
G03*
X0055118Y-0009843I0000000J0003150D01*
G01*
X-0039370Y0049213D02*
G03*
X-0049213Y0039370I0000000J-0009843D01*
G01*
X-0049213Y0027559D02*
G03*
X-0045276Y0023622I0003937J0000000D01*
G01*
X0055118Y0009843D02*
G03*
X0051968Y0012992I-0003150J0000000D01*
G01*
X-0031890Y0019685D02*
G03*
X-0035827Y0023622I-0003937J0000000D01*
G01*
X-0029528Y0048228D02*
G03*
X-0030512Y0049213I-0000984J0000000D01*
G01*
X-0035827Y-0023622D02*
G03*
X-0031890Y-0019685I0000000J0003937D01*
G01*
X0031881Y0016929D02*
G03*
X0035818Y0012992I0003937J0000000D01*
G01*
X-0029528Y0047244D02*
G03*
X-0021654Y0047244I0003937J0000000D01*
G01*
X-0031888Y-0016929D02*
G03*
X-0035825Y-0012992I-0003937J0000000D01*
G01*
X-0055118Y-0009843D02*
G03*
X-0051968Y-0012992I0003150J0000000D01*
G01*
X-0039370Y-0049213D02*
X0039370Y-0049213D01*
X0031888Y0016929D02*
X0031890Y0019685D01*
X-0039370Y0049213D02*
X-0030512Y0049213D01*
X0049213Y-0039370D02*
Y-0027559D01*
X0031888Y-0016929D02*
X0031890Y-0019685D01*
X0035827Y-0023622D02*
X0045276D01*
X-0049213Y0039370D02*
X-0049213Y0027441D01*
Y-0039370D02*
Y-0027441D01*
X-0031890Y-0019685D02*
X-0031888Y-0016929D01*
X0035827Y-0012992D02*
X0051970Y-0012992D01*
X-0021654Y0047244D02*
Y0048228D01*
X0055118Y-0009843D02*
Y0009843D01*
X-0051968Y0012992D02*
X-0035827D01*
X-0045276Y0023622D02*
X-0035827D01*
X0049213Y0027559D02*
Y0039370D01*
X-0055118Y-0009724D02*
Y0009724D01*
X-0031890Y0019685D02*
X-0031888Y0016929D01*
X0035827Y0023622D02*
X0045276D01*
X-0020669Y0049213D02*
X0039370D01*
X-0029528Y0047244D02*
Y0048228D01*
X-0045276Y-0023622D02*
X-0035827D01*
X0035827Y0012992D02*
X0051968D01*
X-0051970Y-0012992D02*
X-0035827Y-0012992D01*
D67*
X0005551Y-0015955D02*
D03*
Y-0046664D02*
D03*
D68*
X0020906Y-0017136D02*
D03*
X-0000354D02*
D03*
X-0009803D02*
D03*
X0020906Y-0018317D02*
D03*
X0011457D02*
D03*
X0007913D02*
D03*
X-0000354D02*
D03*
X-0009803D02*
D03*
X0020906Y-0020679D02*
D03*
X0018543D02*
D03*
X0013819D02*
D03*
X-0009803D02*
D03*
X0020906Y-0021860D02*
D03*
X0018543D02*
D03*
X0013819D02*
D03*
X0011457D02*
D03*
X-0009803D02*
D03*
X0020906Y-0023042D02*
D03*
X0005551D02*
D03*
X-0009803D02*
D03*
X0020906Y-0026585D02*
D03*
X0018543D02*
D03*
X0016181D02*
D03*
X0013819D02*
D03*
X0020906Y-0027766D02*
D03*
X0004370D02*
D03*
X0000827D02*
D03*
X-0009803D02*
D03*
X0009094Y-0028947D02*
D03*
X-0003898D02*
D03*
X-0009803D02*
D03*
X0007913Y-0031309D02*
D03*
X0000827D02*
D03*
X-0005079D02*
D03*
X0016181Y-0032490D02*
D03*
X0003189D02*
D03*
X-0001535D02*
D03*
X-0009803D02*
D03*
X0020906Y-0033672D02*
D03*
X0004370D02*
D03*
X-0001535D02*
D03*
X0020906Y-0036034D02*
D03*
X0013819D02*
D03*
X-0009803D02*
D03*
X0007913Y-0037215D02*
D03*
X-0005079D02*
D03*
X-0009803D02*
D03*
X0020906Y-0038396D02*
D03*
X-0000354D02*
D03*
X0020906Y-0040758D02*
D03*
X0018543D02*
D03*
X0013819D02*
D03*
X0011457D02*
D03*
X0020906Y-0041939D02*
D03*
X0018543D02*
D03*
X0013819D02*
D03*
X0007913D02*
D03*
X-0006260D02*
D03*
X0020906Y-0043120D02*
D03*
X0018543D02*
D03*
X0013819D02*
D03*
X0011457D02*
D03*
X0007913D02*
D03*
X0004370D02*
D03*
X-0009803D02*
D03*
X0020906Y-0045483D02*
D03*
X0011457D02*
D03*
X-0009803D02*
D03*
D69*
X0010276Y-0017136D02*
D03*
Y-0026585D02*
D03*
X0009094Y-0036034D02*
D03*
D70*
X0006142Y-0017136D02*
D03*
X0002598D02*
D03*
Y-0028947D02*
D03*
X-0002126Y-0031309D02*
D03*
X0017953Y-0036034D02*
D03*
X-0006850D02*
D03*
X0006142Y-0038396D02*
D03*
X0002598D02*
D03*
X0007323Y-0040758D02*
D03*
X0002598Y-0041939D02*
D03*
D71*
X0016181Y-0018317D02*
D03*
Y-0023042D02*
D03*
X-0007441Y-0033672D02*
D03*
D72*
X0004961Y-0018317D02*
D03*
X0010866Y-0020679D02*
D03*
X0000236D02*
D03*
X0010866Y-0023042D02*
D03*
X0004961Y-0026585D02*
D03*
X-0005669D02*
D03*
X-0009213D02*
D03*
X-0005669Y-0027766D02*
D03*
X0020315Y-0028947D02*
D03*
X0014409D02*
D03*
X-0000945D02*
D03*
X0020315Y-0031309D02*
D03*
X0015590D02*
D03*
X0003779D02*
D03*
X0020315Y-0032490D02*
D03*
X0008504D02*
D03*
X-0005669D02*
D03*
X0008504Y-0033672D02*
D03*
X0004961Y-0036034D02*
D03*
Y-0037215D02*
D03*
X0010866Y-0038396D02*
D03*
X0003779Y-0040758D02*
D03*
X0010866Y-0041939D02*
D03*
X-0009213D02*
D03*
X0004961Y-0045483D02*
D03*
X0000236D02*
D03*
D73*
X-0005079Y-0018317D02*
D03*
Y-0023042D02*
D03*
D74*
X0020906Y-0019498D02*
D03*
X0018543D02*
D03*
X0013819D02*
D03*
X-0000354D02*
D03*
X-0009803D02*
D03*
X0020906Y-0024223D02*
D03*
X0011457D02*
D03*
X0009094D02*
D03*
X0004370D02*
D03*
X-0000354D02*
D03*
X-0009803D02*
D03*
X0009094Y-0030128D02*
D03*
X-0009803D02*
D03*
X0020906Y-0039577D02*
D03*
X-0005079D02*
D03*
X-0009803D02*
D03*
X0020906Y-0044301D02*
D03*
X-0005079D02*
D03*
X-0009803D02*
D03*
D75*
X0010276Y-0019498D02*
D03*
X0004370Y-0039577D02*
D03*
D76*
X0006142Y-0019498D02*
D03*
X0016772Y-0030128D02*
D03*
X0012047D02*
D03*
X0007323Y-0034853D02*
D03*
X0001417D02*
D03*
X-0002126D02*
D03*
D77*
X0002008Y-0019498D02*
D03*
X-0002717D02*
D03*
X-0007441D02*
D03*
X0006732Y-0024223D02*
D03*
X0002008D02*
D03*
X0006732Y-0030128D02*
D03*
X-0002717D02*
D03*
X0017362Y-0034853D02*
D03*
X0006732Y-0044301D02*
D03*
D78*
X-0002717Y-0020679D02*
D03*
X-0007441D02*
D03*
X-0002717Y-0021860D02*
D03*
X-0007441D02*
D03*
X0002008Y-0025404D02*
D03*
X0017362Y-0027766D02*
D03*
X-0002717D02*
D03*
X0017362Y-0028947D02*
D03*
X0002008Y-0037215D02*
D03*
X-0007441D02*
D03*
X-0002717Y-0038396D02*
D03*
Y-0041939D02*
D03*
X0002008Y-0043120D02*
D03*
X-0002717D02*
D03*
X-0007441D02*
D03*
Y-0045483D02*
D03*
D79*
X0005551Y-0021860D02*
D03*
X0000827D02*
D03*
X-0001536Y-0026585D02*
D03*
X0012638Y-0027766D02*
D03*
X-0008622Y-0031309D02*
D03*
X0012638Y-0032490D02*
D03*
X0017362Y-0033672D02*
D03*
X-0001536Y-0037215D02*
D03*
X-0008622Y-0038396D02*
D03*
Y-0040758D02*
D03*
D80*
X0001417Y-0023042D02*
D03*
D81*
X0014409Y-0025404D02*
D03*
D82*
X-0005079D02*
D03*
X0016181Y-0037215D02*
D03*
D83*
X0020315Y-0030128D02*
D03*
X0003779D02*
D03*
X0000236D02*
D03*
X-0005669D02*
D03*
X0020315Y-0034853D02*
D03*
X0010866Y-0039577D02*
D03*
Y-0044301D02*
D03*
X0000236D02*
D03*
D84*
X0012047Y-0034853D02*
D03*
X-0008032D02*
D03*
D85*
X0016181Y-0039577D02*
D03*
Y-0044301D02*
D03*
D86*
X-0001536Y-0039577D02*
D03*
M02*
