<svg width="397" height="101" viewBox="0 0 397 101" fill="none" xmlns="http://www.w3.org/2000/svg">
<path d="M177.84 78H169.512V69.875H169.309C165.686 76.1042 160.354 79.2188 153.312 79.2188C148.133 79.2188 144.07 77.8477 141.125 75.1055C138.214 72.3633 136.758 68.724 136.758 64.1875C136.758 54.4714 142.479 48.8177 153.922 47.2266L169.512 45.043C169.512 36.207 165.94 31.7891 158.797 31.7891C152.534 31.7891 146.88 33.9219 141.836 38.1875V29.6562C146.948 26.4062 152.839 24.7812 159.508 24.7812C171.729 24.7812 177.84 31.2474 177.84 44.1797V78ZM169.512 51.6953L156.969 53.4219C153.109 53.9635 150.198 54.9284 148.234 56.3164C146.271 57.6706 145.289 60.0911 145.289 63.5781C145.289 66.1172 146.186 68.1992 147.98 69.8242C149.809 71.4154 152.229 72.2109 155.242 72.2109C159.372 72.2109 162.775 70.7721 165.449 67.8945C168.158 64.9831 169.512 61.3099 169.512 56.875V51.6953ZM228.977 75.6133C224.982 78.0169 220.242 79.2188 214.758 79.2188C207.344 79.2188 201.352 76.8151 196.781 72.0078C192.245 67.1667 189.977 60.9036 189.977 53.2188C189.977 44.6536 192.431 37.7812 197.34 32.6016C202.249 27.388 208.799 24.7812 216.992 24.7812C221.562 24.7812 225.591 25.6276 229.078 27.3203V35.8516C225.219 33.1432 221.089 31.7891 216.688 31.7891C211.372 31.7891 207.005 33.7018 203.586 37.5273C200.201 41.319 198.508 46.3125 198.508 52.5078C198.508 58.6016 200.099 63.4089 203.281 66.9297C206.497 70.4505 210.797 72.2109 216.18 72.2109C220.716 72.2109 224.982 70.7044 228.977 67.6914V75.6133ZM285.953 78H277.625V69.1641H277.422C273.562 75.8672 267.604 79.2188 259.547 79.2188C253.013 79.2188 247.783 76.8997 243.855 72.2617C239.962 67.5898 238.016 61.2422 238.016 53.2188C238.016 44.6198 240.182 37.7305 244.516 32.5508C248.849 27.3711 254.621 24.7812 261.832 24.7812C268.975 24.7812 274.172 27.5911 277.422 33.2109H277.625V1.01562H285.953V78ZM277.625 54.4883V46.8203C277.625 42.6224 276.237 39.0677 273.461 36.1562C270.685 33.2448 267.164 31.7891 262.898 31.7891C257.82 31.7891 253.826 33.651 250.914 37.375C248.003 41.099 246.547 46.2448 246.547 52.8125C246.547 58.8047 247.935 63.5443 250.711 67.0312C253.521 70.4844 257.279 72.2109 261.984 72.2109C266.622 72.2109 270.38 70.5352 273.258 67.1836C276.169 63.832 277.625 59.6003 277.625 54.4883ZM340.035 78H331.707V69.875H331.504C327.882 76.1042 322.549 79.2188 315.508 79.2188C310.328 79.2188 306.266 77.8477 303.32 75.1055C300.409 72.3633 298.953 68.724 298.953 64.1875C298.953 54.4714 304.674 48.8177 316.117 47.2266L331.707 45.043C331.707 36.207 328.135 31.7891 320.992 31.7891C314.729 31.7891 309.076 33.9219 304.031 38.1875V29.6562C309.143 26.4062 315.034 24.7812 321.703 24.7812C333.924 24.7812 340.035 31.2474 340.035 44.1797V78ZM331.707 51.6953L319.164 53.4219C315.305 53.9635 312.393 54.9284 310.43 56.3164C308.466 57.6706 307.484 60.0911 307.484 63.5781C307.484 66.1172 308.382 68.1992 310.176 69.8242C312.004 71.4154 314.424 72.2109 317.438 72.2109C321.568 72.2109 324.97 70.7721 327.645 67.8945C330.353 64.9831 331.707 61.3099 331.707 56.875V51.6953ZM391.172 75.6133C387.177 78.0169 382.438 79.2188 376.953 79.2188C369.539 79.2188 363.547 76.8151 358.977 72.0078C354.44 67.1667 352.172 60.9036 352.172 53.2188C352.172 44.6536 354.626 37.7812 359.535 32.6016C364.444 27.388 370.995 24.7812 379.188 24.7812C383.758 24.7812 387.786 25.6276 391.273 27.3203V35.8516C387.414 33.1432 383.284 31.7891 378.883 31.7891C373.568 31.7891 369.201 33.7018 365.781 37.5273C362.396 41.319 360.703 46.3125 360.703 52.5078C360.703 58.6016 362.294 63.4089 365.477 66.9297C368.693 70.4505 372.992 72.2109 378.375 72.2109C382.911 72.2109 387.177 70.7044 391.172 67.6914V75.6133Z" fill="black"/>
<path d="M123.928 64.5469C123.928 76.7604 121.672 85.8294 117.16 91.7539C112.648 97.6784 106.268 100.641 98.0195 100.641C96.4245 100.641 94.9206 100.527 93.5078 100.299C92.0951 100.117 90.7962 99.7975 89.6113 99.3418V90.3867C92.1634 91.7539 95.0117 92.4375 98.1562 92.4375C103.944 92.4375 108.16 90.1589 110.803 85.6016C113.492 81.0443 114.836 74.026 114.836 64.5469V0.972656H123.928V64.5469Z" fill="black"/>
<path d="M75.7863 59.3532L13.6765 59.3532C11.0249 61.1706 7.55632 61.3967 4.68042 59.9395C1.80451 58.4823 0 55.5843 0 52.4232C0 49.2621 1.80462 46.3641 4.68042 44.9068C7.55632 43.4496 11.0249 43.6757 13.6765 45.4931L75.7863 45.4931C78.8383 45.4931 81.3124 47.9063 81.3124 50.8831V53.9631C81.3124 56.94 78.8383 59.3531 75.7863 59.3531V59.3532ZM13.9726 52.4231C13.9726 51.0549 13.4153 49.7426 12.4234 48.7751C11.4314 47.8076 10.0861 47.264 8.68323 47.264C7.28041 47.264 5.93504 47.8076 4.94309 48.7751C3.95114 49.7426 3.39387 51.0549 3.39387 52.4231C3.39387 53.7914 3.95114 55.1037 4.94309 56.0712C5.93504 57.0387 7.28041 57.5822 8.68323 57.5822C10.0861 57.5822 11.4314 57.0387 12.4234 56.0712C13.4153 55.1037 13.9726 53.7914 13.9726 52.4231V52.4231Z" fill="black"/>
<path d="M14.1855 72.7518C14.1855 71.3836 13.6197 70.0713 12.6127 69.1038C11.6056 68.1363 10.2397 67.5927 8.81554 67.5927C7.39134 67.5927 6.02547 68.1363 5.01841 69.1038C4.01135 70.0713 3.44559 71.3836 3.44559 72.7518C3.44559 74.1201 4.01135 75.4324 5.01841 76.3999C6.02547 77.3674 7.39134 77.9109 8.81554 77.9109C10.2397 77.9109 11.6056 77.3674 12.6127 76.3999C13.6197 75.4324 14.1855 74.1201 14.1855 72.7518V72.7518ZM68.9261 79.6818H13.8849C11.1929 81.4992 7.67145 81.7254 4.75173 80.2681C1.83201 78.8109 0 75.9128 0 72.7518C0 69.5908 1.83211 66.6928 4.75173 65.2355C7.67145 63.7783 11.1929 64.0043 13.8849 65.8217H68.9261C72.0246 65.8217 74.5364 68.2349 74.5364 71.2118V74.2917C74.5364 77.2686 72.0246 79.6818 68.9261 79.6818V79.6818Z" fill="black"/>
<path d="M81.3124 33.6351C81.3124 36.6119 78.8383 39.0251 75.7863 39.0251L13.6765 39.0251C11.0249 40.8425 7.55632 41.0686 4.68042 39.6113C1.80451 38.1542 0 35.2561 0 32.095C0 28.934 1.80462 26.036 4.68042 24.5788C7.54864 23.1254 11.0064 23.3464 13.6553 25.1506C13.6624 25.1554 13.6694 25.1602 13.6765 25.165L75.7863 25.165C78.8383 25.165 81.3124 27.5782 81.3124 30.555L81.3124 33.6351ZM13.9727 32.095C13.9727 30.7268 13.4154 29.4145 12.4235 28.447C11.4315 27.4795 10.0862 26.9359 8.68335 26.9359C7.28052 26.9359 5.93515 27.4795 4.9432 28.447C3.95125 29.4145 3.39398 30.7268 3.39398 32.095C3.39398 33.4633 3.95125 34.7755 4.9432 35.7431C5.93515 36.7106 7.28052 37.2541 8.68335 37.2541C10.0862 37.2541 11.4315 36.7106 12.4235 35.7431C13.4154 34.7755 13.9727 33.4633 13.9727 32.095V32.095Z" fill="black"/>
</svg>
