<svg width="177" height="177" viewBox="0 0 177 177" fill="none" xmlns="http://www.w3.org/2000/svg">
<circle cx="88.5" cy="88.5" r="88.5" fill="black"/>
<path d="M128.249 95.5142H59.2037C56.256 97.5239 52.4001 97.7741 49.2031 96.1623C46.006 94.5508 44 91.3459 44 87.8499C44 84.3538 46.0061 81.1489 49.2031 79.5372C52.4001 77.9256 56.256 78.1756 59.2037 80.1856H128.249C131.642 80.1856 134.393 82.8545 134.393 86.1468V89.5529C134.393 92.8452 131.642 95.5139 128.249 95.5139V95.5142ZM59.5329 87.8499C59.5329 86.3366 58.9134 84.8853 57.8107 83.8154C56.708 82.7452 55.2124 82.1441 53.6529 82.1441C52.0934 82.1441 50.5978 82.7452 49.4951 83.8154C48.3924 84.8853 47.7729 86.3366 47.7729 87.8499C47.7729 89.3629 48.3924 90.8142 49.4951 91.8843C50.5978 92.9542 52.0934 93.5554 53.6529 93.5554C55.2124 93.5554 56.708 92.9542 57.8107 91.8843C58.9134 90.8142 59.5329 89.3629 59.5329 87.8499Z" fill="white"/>
<path d="M59.7696 110.331C59.7696 108.818 59.1406 107.367 58.0211 106.297C56.9016 105.227 55.3832 104.626 53.8 104.626C52.2167 104.626 50.6983 105.227 49.5788 106.297C48.4593 107.367 47.8303 108.818 47.8303 110.331C47.8303 111.845 48.4593 113.296 49.5788 114.366C50.6983 115.436 52.2167 116.037 53.8 116.037C55.3832 116.037 56.9016 115.436 58.0211 114.366C59.1406 113.296 59.7696 111.845 59.7696 110.331ZM120.623 117.995H59.4354C56.4427 120.005 52.5281 120.256 49.2824 118.644C46.0366 117.032 44 113.827 44 110.331C44 106.835 46.0367 103.63 49.2824 102.019C52.5281 100.407 56.4427 100.657 59.4354 102.667H120.623C124.067 102.667 126.86 105.336 126.86 108.628V112.034C126.86 115.327 124.067 117.995 120.623 117.995Z" fill="white"/>
<path d="M134.393 67.0704C134.393 70.3626 131.642 73.0316 128.249 73.0316H59.2038C56.256 75.0414 52.4001 75.2916 49.2031 73.6798C46.006 72.0682 44 68.8634 44 65.3673C44 61.8715 46.0061 58.6664 49.2031 57.0548C52.3916 55.4474 56.2355 55.6919 59.1802 57.6871C59.1881 57.6924 59.1959 57.6977 59.2037 57.703H128.249C131.642 57.703 134.393 60.372 134.393 63.6642V67.0704ZM59.533 65.3673C59.533 63.854 58.9135 62.4027 57.8108 61.3328C56.7081 60.2627 55.2125 59.6616 53.653 59.6616C52.0935 59.6616 50.5979 60.2627 49.4952 61.3328C48.3925 62.4027 47.773 63.854 47.773 65.3673C47.773 66.8806 48.3925 68.3317 49.4952 69.4018C50.5979 70.4717 52.0935 71.0728 53.653 71.0728C55.2125 71.0728 56.7081 70.4717 57.8108 69.4018C58.9135 68.3317 59.533 66.8806 59.533 65.3673Z" fill="white"/>
</svg>
