<svg width="402" height="109" viewBox="0 0 402 109" fill="none" xmlns="http://www.w3.org/2000/svg">
<path d="M179.582 78H168.156V69.875H167.953C164.365 76.1042 159.1 79.2188 152.16 79.2188C147.048 79.2188 143.036 77.8307 140.125 75.0547C137.247 72.2786 135.809 68.6055 135.809 64.0352C135.809 54.2174 141.462 48.4961 152.77 46.8711L168.207 44.6875C168.207 37.2734 164.686 33.5664 157.645 33.5664C151.449 33.5664 145.863 35.6992 140.887 39.9648V29.6562C146.371 26.4062 152.702 24.7812 159.879 24.7812C173.014 24.7812 179.582 31.2474 179.582 44.1797V78ZM168.207 52.457L157.289 53.9805C153.904 54.4206 151.348 55.25 149.621 56.4688C147.928 57.6536 147.082 59.7526 147.082 62.7656C147.082 64.9661 147.861 66.7773 149.418 68.1992C151.009 69.5872 153.125 70.2812 155.766 70.2812C159.354 70.2812 162.316 69.0286 164.652 66.5234C167.022 63.9844 168.207 60.8021 168.207 56.9766V52.457ZM231.227 75.6133C227.062 78.0169 222.137 79.2188 216.449 79.2188C208.73 79.2188 202.501 76.8151 197.762 72.0078C193.022 67.1667 190.652 60.9036 190.652 53.2188C190.652 44.6536 193.191 37.7812 198.27 32.6016C203.382 27.388 210.203 24.7812 218.734 24.7812C223.474 24.7812 227.655 25.6107 231.277 27.2695V38.2383C227.655 35.5299 223.796 34.1758 219.699 34.1758C214.723 34.1758 210.643 35.8685 207.461 39.2539C204.279 42.6055 202.688 47.0065 202.688 52.457C202.688 57.8398 204.177 62.0885 207.156 65.2031C210.169 68.3177 214.198 69.875 219.242 69.875C223.474 69.875 227.469 68.3685 231.227 65.3555V75.6133ZM290.234 78H278.453V69.1641H278.25C274.458 75.8672 268.618 79.2188 260.73 79.2188C254.332 79.2188 249.203 76.8997 245.344 72.2617C241.518 67.5898 239.605 61.2422 239.605 53.2188C239.605 44.6198 241.721 37.7305 245.953 32.5508C250.219 27.3711 255.889 24.7812 262.965 24.7812C269.973 24.7812 275.068 27.5911 278.25 33.2109H278.453V1.01562H290.234V78ZM278.605 54.2344V47.4297C278.605 43.7396 277.404 40.6081 275 38.0352C272.596 35.4622 269.533 34.1758 265.809 34.1758C261.408 34.1758 257.938 35.8177 255.398 39.1016C252.893 42.3854 251.641 46.9388 251.641 52.7617C251.641 58.043 252.842 62.224 255.246 65.3047C257.684 68.3516 260.951 69.875 265.047 69.875C269.076 69.875 272.342 68.4023 274.848 65.457C277.353 62.4779 278.605 58.737 278.605 54.2344ZM345.535 78H334.109V69.875H333.906C330.318 76.1042 325.053 79.2188 318.113 79.2188C313.001 79.2188 308.99 77.8307 306.078 75.0547C303.201 72.2786 301.762 68.6055 301.762 64.0352C301.762 54.2174 307.415 48.4961 318.723 46.8711L334.16 44.6875C334.16 37.2734 330.639 33.5664 323.598 33.5664C317.402 33.5664 311.816 35.6992 306.84 39.9648V29.6562C312.324 26.4062 318.655 24.7812 325.832 24.7812C338.967 24.7812 345.535 31.2474 345.535 44.1797V78ZM334.16 52.457L323.242 53.9805C319.857 54.4206 317.301 55.25 315.574 56.4688C313.882 57.6536 313.035 59.7526 313.035 62.7656C313.035 64.9661 313.814 66.7773 315.371 68.1992C316.962 69.5872 319.078 70.2812 321.719 70.2812C325.307 70.2812 328.27 69.0286 330.605 66.5234C332.975 63.9844 334.16 60.8021 334.16 56.9766V52.457ZM397.18 75.6133C393.016 78.0169 388.09 79.2188 382.402 79.2188C374.684 79.2188 368.454 76.8151 363.715 72.0078C358.975 67.1667 356.605 60.9036 356.605 53.2188C356.605 44.6536 359.145 37.7812 364.223 32.6016C369.335 27.388 376.156 24.7812 384.688 24.7812C389.427 24.7812 393.608 25.6107 397.23 27.2695V38.2383C393.608 35.5299 389.749 34.1758 385.652 34.1758C380.676 34.1758 376.596 35.8685 373.414 39.2539C370.232 42.6055 368.641 47.0065 368.641 52.457C368.641 57.8398 370.13 62.0885 373.109 65.2031C376.122 68.3177 380.151 69.875 385.195 69.875C389.427 69.875 393.422 68.3685 397.18 65.3555V75.6133Z" fill="black"/>
<path d="M124.191 68.8516C124.191 81.4688 121.52 91.2904 116.176 98.3164C110.832 105.293 103.682 108.781 94.7266 108.781C90.5703 108.781 87.1562 108.188 84.4844 107V94.6797C87.1562 96.6094 90.6198 97.5742 94.875 97.5742C106.107 97.5742 111.723 88.0495 111.723 69V0.570312H124.191V68.8516Z" fill="black"/>
<path d="M75.7863 57.3532L13.6765 57.3532C11.0249 59.1706 7.55632 59.3967 4.68042 57.9395C1.80451 56.4823 0 53.5843 0 50.4232C0 47.2621 1.80462 44.3641 4.68042 42.9068C7.55632 41.4496 11.0249 41.6757 13.6765 43.4931L75.7863 43.4931C78.8383 43.4931 81.3124 45.9063 81.3124 48.8831V51.9631C81.3124 54.94 78.8383 57.3531 75.7863 57.3531V57.3532ZM13.9726 50.4231C13.9726 49.0549 13.4153 47.7426 12.4234 46.7751C11.4314 45.8076 10.0861 45.264 8.68323 45.264C7.28041 45.264 5.93504 45.8076 4.94309 46.7751C3.95114 47.7426 3.39387 49.0549 3.39387 50.4231C3.39387 51.7914 3.95114 53.1037 4.94309 54.0712C5.93504 55.0387 7.28041 55.5822 8.68323 55.5822C10.0861 55.5822 11.4314 55.0387 12.4234 54.0712C13.4153 53.1037 13.9726 51.7914 13.9726 50.4231V50.4231Z" fill="black"/>
<path d="M14.1855 70.7518C14.1855 69.3836 13.6197 68.0713 12.6127 67.1038C11.6056 66.1363 10.2397 65.5927 8.81554 65.5927C7.39134 65.5927 6.02547 66.1363 5.01841 67.1038C4.01135 68.0713 3.44559 69.3836 3.44559 70.7518C3.44559 72.1201 4.01135 73.4324 5.01841 74.3999C6.02547 75.3674 7.39134 75.9109 8.81554 75.9109C10.2397 75.9109 11.6056 75.3674 12.6127 74.3999C13.6197 73.4324 14.1855 72.1201 14.1855 70.7518V70.7518ZM68.9261 77.6818H13.8849C11.1929 79.4992 7.67145 79.7254 4.75173 78.2681C1.83201 76.8109 0 73.9128 0 70.7518C0 67.5908 1.83211 64.6928 4.75173 63.2355C7.67145 61.7783 11.1929 62.0043 13.8849 63.8217L68.9261 63.8217C72.0246 63.8217 74.5364 66.2349 74.5364 69.2118V72.2917C74.5364 75.2686 72.0246 77.6818 68.9261 77.6818V77.6818Z" fill="black"/>
<path d="M81.3124 31.6351C81.3124 34.6119 78.8383 37.0251 75.7863 37.0251L13.6765 37.0251C11.0249 38.8425 7.55632 39.0686 4.68042 37.6113C1.80451 36.1542 0 33.2561 0 30.095C0 26.934 1.80462 24.036 4.68042 22.5788C7.54864 21.1254 11.0064 21.3464 13.6553 23.1506C13.6624 23.1554 13.6694 23.1602 13.6765 23.165L75.7863 23.165C78.8383 23.165 81.3124 25.5782 81.3124 28.555L81.3124 31.6351ZM13.9727 30.095C13.9727 28.7268 13.4154 27.4145 12.4235 26.447C11.4315 25.4795 10.0862 24.9359 8.68335 24.9359C7.28052 24.9359 5.93515 25.4795 4.9432 26.447C3.95125 27.4145 3.39398 28.7268 3.39398 30.095C3.39398 31.4633 3.95125 32.7755 4.9432 33.7431C5.93515 34.7106 7.28052 35.2541 8.68335 35.2541C10.0862 35.2541 11.4315 34.7106 12.4235 33.7431C13.4154 32.7755 13.9727 31.4633 13.9727 30.095V30.095Z" fill="black"/>
</svg>
