G04*
G04 #@! TF.GenerationSoftware,Altium Limited,Altium Designer,22.10.1 (41)*
G04*
G04 Layer_Color=65535*
%FSAX26Y26*%
%MOIN*%
G70*
G04*
G04 #@! TF.SameCoordinates,707F0866-B51C-4875-9159-03E13B4690FC*
G04*
G04*
G04 #@! TF.FilePolarity,Positive*
G04*
G01*
G75*
%ADD10C,0.019685*%
%ADD11C,0.007874*%
%ADD12C,0.003937*%
%ADD13C,0.012992*%
%ADD14C,0.039370*%
%ADD15C,0.006000*%
%ADD16C,0.011811*%
%ADD17C,0.001968*%
%ADD18C,0.005118*%
%ADD19C,0.006693*%
G36*
X00476936Y01013612D02*
X00477214Y01013550D01*
X00477493Y01013457D01*
X00477802Y01013303D01*
X00478111Y01013117D01*
X00478420Y01012870D01*
X00478450Y01012839D01*
X00478543Y01012747D01*
X00478667Y01012592D01*
X00478821Y01012376D01*
X00478945Y01012098D01*
X00479068Y01011789D01*
X00479161Y01011418D01*
X00479192Y01011016D01*
X00479192Y01010954D01*
X00479192Y01010831D01*
X00479161Y01010645D01*
X00479099Y01010367D01*
X00479007Y01010089D01*
X00478852Y01009780D01*
X00478667Y01009471D01*
X00478420Y01009162D01*
X00478389Y01009131D01*
X00478296Y01009039D01*
X00478111Y01008915D01*
X00477894Y01008791D01*
X00477616Y01008668D01*
X00477307Y01008544D01*
X00476967Y01008452D01*
X00476566Y01008421D01*
X00476380Y01008421D01*
X00476195Y01008452D01*
X00475917Y01008513D01*
X00475639Y01008606D01*
X00475330Y01008730D01*
X00475021Y01008884D01*
X00474712Y01009131D01*
X00474681Y01009162D01*
X00474588Y01009255D01*
X00474464Y01009440D01*
X00474341Y01009657D01*
X00474217Y01009904D01*
X00474094Y01010244D01*
X00474001Y01010615D01*
X00473970Y01011016D01*
X00473970Y01011078D01*
X00473970Y01011202D01*
X00474001Y01011418D01*
X00474063Y01011665D01*
X00474155Y01011974D01*
X00474279Y01012283D01*
X00474464Y01012592D01*
X00474712Y01012870D01*
X00474743Y01012901D01*
X00474835Y01012994D01*
X00475021Y01013117D01*
X00475237Y01013272D01*
X00475515Y01013395D01*
X00475824Y01013519D01*
X00476164Y01013612D01*
X00476566Y01013643D01*
X00476751Y01013643D01*
X00476936Y01013612D01*
X00476936Y01013612D02*
G37*
G36*
X00357261Y00976964D02*
X00353244Y00976964D01*
X00353244Y00981198D01*
X00353151Y00981198D01*
X00353120Y00981136D01*
X00353027Y00980981D01*
X00352842Y00980765D01*
X00352626Y00980456D01*
X00352317Y00980085D01*
X00351977Y00979684D01*
X00351544Y00979251D01*
X00351019Y00978788D01*
X00350463Y00978324D01*
X00349814Y00977891D01*
X00349103Y00977490D01*
X00348331Y00977119D01*
X00347496Y00976810D01*
X00346569Y00976594D01*
X00345580Y00976439D01*
X00344530Y00976377D01*
X00344314Y00976377D01*
X00344066Y00976408D01*
X00343757Y00976439D01*
X00343356Y00976470D01*
X00342892Y00976563D01*
X00342367Y00976655D01*
X00341811Y00976810D01*
X00341224Y00976964D01*
X00340606Y00977212D01*
X00339988Y00977459D01*
X00339339Y00977799D01*
X00338721Y00978169D01*
X00338103Y00978633D01*
X00337516Y00979158D01*
X00336959Y00979745D01*
X00336928Y00979776D01*
X00336836Y00979900D01*
X00336712Y00980085D01*
X00336527Y00980363D01*
X00336310Y00980703D01*
X00336063Y00981105D01*
X00335816Y00981599D01*
X00335569Y00982156D01*
X00335291Y00982774D01*
X00335044Y00983453D01*
X00334796Y00984226D01*
X00334580Y00985029D01*
X00334395Y00985894D01*
X00334271Y00986852D01*
X00334178Y00987841D01*
X00334147Y00988892D01*
X00334147Y00988923D01*
X00334147Y00988954D01*
X00334147Y00989046D01*
X00334147Y00989170D01*
X00334178Y00989479D01*
X00334209Y00989912D01*
X00334240Y00990468D01*
X00334302Y00991055D01*
X00334395Y00991735D01*
X00334549Y00992476D01*
X00334704Y00993249D01*
X00334920Y00994083D01*
X00335167Y00994886D01*
X00335476Y00995752D01*
X00335816Y00996555D01*
X00336249Y00997358D01*
X00336712Y00998131D01*
X00337268Y00998872D01*
X00337299Y00998903D01*
X00337423Y00999027D01*
X00337608Y00999212D01*
X00337856Y00999460D01*
X00338164Y00999738D01*
X00338535Y01000078D01*
X00338999Y01000418D01*
X00339493Y01000757D01*
X00340080Y01001097D01*
X00340698Y01001437D01*
X00341378Y01001777D01*
X00342120Y01002055D01*
X00342923Y01002302D01*
X00343788Y01002488D01*
X00344684Y01002611D01*
X00345642Y01002642D01*
X00345859Y01002642D01*
X00346137Y01002611D01*
X00346477Y01002581D01*
X00346909Y01002519D01*
X00347404Y01002426D01*
X00347929Y01002302D01*
X00348516Y01002148D01*
X00349134Y01001932D01*
X00349752Y01001654D01*
X00350370Y01001314D01*
X00350988Y01000912D01*
X00351575Y01000448D01*
X00352162Y00999923D01*
X00352688Y00999274D01*
X00353151Y00998563D01*
X00353244Y00998563D01*
X00353244Y01014106D01*
X00357261Y01014106D01*
X00357261Y00976964D01*
X00357261Y00976964D02*
G37*
G36*
X00499401Y01002611D02*
X00499679Y01002611D01*
X00500019Y01002550D01*
X00500420Y01002488D01*
X00500853Y01002426D01*
X00501317Y01002302D01*
X00501811Y01002179D01*
X00502336Y01001993D01*
X00502861Y01001777D01*
X00503387Y01001499D01*
X00503881Y01001190D01*
X00504376Y01000850D01*
X00504839Y01000418D01*
X00505272Y00999954D01*
X00505303Y00999923D01*
X00505364Y00999830D01*
X00505488Y00999676D01*
X00505612Y00999460D01*
X00505766Y00999182D01*
X00505952Y00998842D01*
X00506168Y00998440D01*
X00506384Y00998007D01*
X00506570Y00997482D01*
X00506786Y00996926D01*
X00506971Y00996277D01*
X00507126Y00995597D01*
X00507249Y00994856D01*
X00507373Y00994052D01*
X00507435Y00993218D01*
X00507466Y00992291D01*
X00507466Y00976964D01*
X00503449Y00976964D01*
X00503449Y00991271D01*
X00503449Y00991302D01*
X00503449Y00991364D01*
X00503449Y00991457D01*
X00503449Y00991611D01*
X00503418Y00991796D01*
X00503418Y00992013D01*
X00503356Y00992507D01*
X00503263Y00993125D01*
X00503140Y00993805D01*
X00502954Y00994516D01*
X00502707Y00995257D01*
X00502398Y00995999D01*
X00502027Y00996710D01*
X00501564Y00997389D01*
X00500977Y00998007D01*
X00500328Y00998502D01*
X00499957Y00998718D01*
X00499524Y00998903D01*
X00499092Y00999058D01*
X00498628Y00999151D01*
X00498134Y00999212D01*
X00497608Y00999243D01*
X00497330Y00999243D01*
X00497114Y00999212D01*
X00496867Y00999182D01*
X00496558Y00999120D01*
X00496218Y00999058D01*
X00495878Y00998965D01*
X00495476Y00998842D01*
X00495075Y00998687D01*
X00494673Y00998502D01*
X00494240Y00998285D01*
X00493839Y00998007D01*
X00493406Y00997698D01*
X00493004Y00997358D01*
X00492634Y00996957D01*
X00492603Y00996926D01*
X00492541Y00996864D01*
X00492448Y00996740D01*
X00492325Y00996555D01*
X00492170Y00996339D01*
X00492016Y00996061D01*
X00491830Y00995752D01*
X00491645Y00995412D01*
X00491459Y00995010D01*
X00491274Y00994577D01*
X00491120Y00994114D01*
X00490965Y00993620D01*
X00490841Y00993063D01*
X00490749Y00992507D01*
X00490687Y00991889D01*
X00490656Y00991271D01*
X00490656Y00976964D01*
X00486639Y00976964D01*
X00486639Y01002055D01*
X00490656Y01002055D01*
X00490656Y00997884D01*
X00490749Y00997884D01*
X00490780Y00997946D01*
X00490872Y00998100D01*
X00491058Y00998316D01*
X00491274Y00998625D01*
X00491583Y00998996D01*
X00491923Y00999398D01*
X00492356Y00999830D01*
X00492850Y01000263D01*
X00493406Y01000696D01*
X00494024Y01001128D01*
X00494704Y01001530D01*
X00495415Y01001901D01*
X00496218Y01002210D01*
X00497083Y01002426D01*
X00498010Y01002581D01*
X00498999Y01002642D01*
X00499184Y01002642D01*
X00499401Y01002611D01*
X00499401Y01002611D02*
G37*
G36*
X00329636Y01002457D02*
X00329976Y01002457D01*
X00330347Y01002395D01*
X00330748Y01002333D01*
X00331150Y01002271D01*
X00331490Y01002148D01*
X00331490Y00997976D01*
X00331428Y00998007D01*
X00331305Y00998100D01*
X00331058Y00998224D01*
X00330718Y00998378D01*
X00330254Y00998533D01*
X00329760Y00998656D01*
X00329142Y00998749D01*
X00328431Y00998780D01*
X00328184Y00998780D01*
X00327998Y00998749D01*
X00327782Y00998718D01*
X00327535Y00998656D01*
X00326948Y00998471D01*
X00326608Y00998347D01*
X00326268Y00998193D01*
X00325897Y00997976D01*
X00325526Y00997760D01*
X00325187Y00997482D01*
X00324816Y00997142D01*
X00324476Y00996771D01*
X00324136Y00996339D01*
X00324105Y00996308D01*
X00324074Y00996215D01*
X00323981Y00996091D01*
X00323858Y00995906D01*
X00323734Y00995659D01*
X00323580Y00995350D01*
X00323425Y00995010D01*
X00323271Y00994608D01*
X00323116Y00994176D01*
X00322962Y00993681D01*
X00322807Y00993125D01*
X00322684Y00992538D01*
X00322560Y00991889D01*
X00322467Y00991209D01*
X00322436Y00990499D01*
X00322406Y00989726D01*
X00322406Y00976964D01*
X00318389Y00976964D01*
X00318389Y01002055D01*
X00322406Y01002055D01*
X00322406Y00996864D01*
X00322498Y00996864D01*
X00322498Y00996895D01*
X00322529Y00996988D01*
X00322591Y00997111D01*
X00322653Y00997297D01*
X00322745Y00997513D01*
X00322869Y00997791D01*
X00323147Y00998378D01*
X00323518Y00999058D01*
X00323981Y00999738D01*
X00324507Y01000387D01*
X00325125Y01001005D01*
X00325156Y01001035D01*
X00325217Y01001066D01*
X00325310Y01001128D01*
X00325434Y01001252D01*
X00325588Y01001345D01*
X00325805Y01001468D01*
X00326268Y01001746D01*
X00326855Y01002024D01*
X00327535Y01002271D01*
X00328276Y01002426D01*
X00328678Y01002457D01*
X00329080Y01002488D01*
X00329327Y01002488D01*
X00329636Y01002457D01*
X00329636Y01002457D02*
G37*
G36*
X00437261Y00976964D02*
X00433244Y00976964D01*
X00433244Y00980920D01*
X00433151Y00980920D01*
X00433120Y00980858D01*
X00433027Y00980734D01*
X00432873Y00980487D01*
X00432688Y00980209D01*
X00432409Y00979869D01*
X00432070Y00979498D01*
X00431699Y00979066D01*
X00431235Y00978664D01*
X00430741Y00978231D01*
X00430154Y00977830D01*
X00429536Y00977428D01*
X00428825Y00977088D01*
X00428053Y00976810D01*
X00427249Y00976563D01*
X00426353Y00976439D01*
X00425395Y00976377D01*
X00425179Y00976377D01*
X00425024Y00976408D01*
X00424808Y00976408D01*
X00424561Y00976439D01*
X00424283Y00976501D01*
X00424005Y00976532D01*
X00423325Y00976717D01*
X00422552Y00976933D01*
X00421749Y00977273D01*
X00421347Y00977490D01*
X00420915Y00977706D01*
X00420482Y00977984D01*
X00420080Y00978262D01*
X00419679Y00978602D01*
X00419277Y00978973D01*
X00418875Y00979405D01*
X00418505Y00979838D01*
X00418165Y00980332D01*
X00417825Y00980889D01*
X00417547Y00981476D01*
X00417269Y00982094D01*
X00417021Y00982774D01*
X00416805Y00983515D01*
X00416651Y00984319D01*
X00416527Y00985153D01*
X00416465Y00986080D01*
X00416434Y00987038D01*
X00416434Y01002055D01*
X00420420Y01002055D01*
X00420420Y00987687D01*
X00420420Y00987656D01*
X00420420Y00987594D01*
X00420420Y00987501D01*
X00420420Y00987347D01*
X00420451Y00987161D01*
X00420451Y00986945D01*
X00420513Y00986451D01*
X00420606Y00985833D01*
X00420729Y00985184D01*
X00420946Y00984442D01*
X00421193Y00983731D01*
X00421502Y00982990D01*
X00421904Y00982248D01*
X00422398Y00981599D01*
X00422985Y00980981D01*
X00423696Y00980487D01*
X00424067Y00980271D01*
X00424499Y00980085D01*
X00424963Y00979931D01*
X00425426Y00979838D01*
X00425951Y00979776D01*
X00426508Y00979745D01*
X00426786Y00979745D01*
X00427002Y00979776D01*
X00427249Y00979807D01*
X00427527Y00979869D01*
X00427867Y00979931D01*
X00428207Y00980024D01*
X00428578Y00980116D01*
X00428980Y00980271D01*
X00429381Y00980456D01*
X00429783Y00980672D01*
X00430185Y00980920D01*
X00430586Y00981198D01*
X00430957Y00981538D01*
X00431328Y00981908D01*
X00431359Y00981939D01*
X00431421Y00982001D01*
X00431513Y00982125D01*
X00431637Y00982310D01*
X00431761Y00982526D01*
X00431946Y00982774D01*
X00432101Y00983083D01*
X00432286Y00983423D01*
X00432471Y00983824D01*
X00432626Y00984257D01*
X00432811Y00984720D01*
X00432935Y00985215D01*
X00433058Y00985771D01*
X00433151Y00986327D01*
X00433213Y00986945D01*
X00433244Y00987594D01*
X00433244Y01002055D01*
X00437261Y01002055D01*
X00437261Y00976964D01*
X00437261Y00976964D02*
G37*
G36*
X00478512Y00976964D02*
X00474495Y00976964D01*
X00474495Y01002055D01*
X00478512Y01002055D01*
X00478512Y00976964D01*
X00478512Y00976964D02*
G37*
G36*
X00466369Y00976964D02*
X00462352Y00976964D01*
X00462352Y01014106D01*
X00466369Y01014106D01*
X00466369Y00976964D01*
X00466369Y00976964D02*
G37*
G36*
X00302351Y01002611D02*
X00302568Y01002611D01*
X00302784Y01002581D01*
X00303062Y01002550D01*
X00303371Y01002488D01*
X00304020Y01002364D01*
X00304793Y01002148D01*
X00305565Y01001870D01*
X00306399Y01001468D01*
X00307234Y01000974D01*
X00307635Y01000696D01*
X00308037Y01000356D01*
X00308408Y00999985D01*
X00308779Y00999614D01*
X00309118Y00999182D01*
X00309428Y00998687D01*
X00309736Y00998193D01*
X00310015Y00997636D01*
X00310231Y00997019D01*
X00310447Y00996370D01*
X00310602Y00995690D01*
X00310725Y00994917D01*
X00310787Y00994145D01*
X00310818Y00993280D01*
X00310818Y00976964D01*
X00306801Y00976964D01*
X00306801Y00980858D01*
X00306708Y00980858D01*
X00306677Y00980796D01*
X00306585Y00980672D01*
X00306430Y00980456D01*
X00306214Y00980147D01*
X00305936Y00979807D01*
X00305596Y00979436D01*
X00305225Y00979035D01*
X00304762Y00978633D01*
X00304236Y00978200D01*
X00303680Y00977799D01*
X00303031Y00977428D01*
X00302351Y00977088D01*
X00301579Y00976779D01*
X00300776Y00976563D01*
X00299910Y00976439D01*
X00298983Y00976377D01*
X00298613Y00976377D01*
X00298365Y00976408D01*
X00298056Y00976439D01*
X00297685Y00976470D01*
X00297284Y00976532D01*
X00296851Y00976625D01*
X00295893Y00976872D01*
X00295430Y00977026D01*
X00294935Y00977212D01*
X00294441Y00977428D01*
X00293978Y00977706D01*
X00293545Y00978015D01*
X00293112Y00978355D01*
X00293081Y00978386D01*
X00293020Y00978448D01*
X00292927Y00978571D01*
X00292772Y00978726D01*
X00292618Y00978911D01*
X00292463Y00979158D01*
X00292247Y00979436D01*
X00292062Y00979745D01*
X00291876Y00980116D01*
X00291691Y00980518D01*
X00291505Y00980951D01*
X00291351Y00981414D01*
X00291197Y00981908D01*
X00291104Y00982434D01*
X00291042Y00983021D01*
X00291011Y00983608D01*
X00291011Y00983639D01*
X00291011Y00983701D01*
X00291011Y00983793D01*
X00291042Y00983917D01*
X00291042Y00984071D01*
X00291073Y00984257D01*
X00291135Y00984720D01*
X00291258Y00985277D01*
X00291444Y00985894D01*
X00291691Y00986574D01*
X00292062Y00987285D01*
X00292494Y00987996D01*
X00293020Y00988706D01*
X00293360Y00989046D01*
X00293699Y00989386D01*
X00294101Y00989726D01*
X00294503Y00990035D01*
X00294966Y00990344D01*
X00295461Y00990622D01*
X00295986Y00990869D01*
X00296573Y00991117D01*
X00297191Y00991333D01*
X00297840Y00991518D01*
X00298551Y00991673D01*
X00299292Y00991796D01*
X00306801Y00992847D01*
X00306801Y00992878D01*
X00306801Y00992909D01*
X00306801Y00993001D01*
X00306801Y00993125D01*
X00306770Y00993434D01*
X00306708Y00993836D01*
X00306647Y00994330D01*
X00306523Y00994886D01*
X00306368Y00995443D01*
X00306152Y00996061D01*
X00305874Y00996648D01*
X00305534Y00997235D01*
X00305132Y00997760D01*
X00304638Y00998255D01*
X00304020Y00998656D01*
X00303340Y00998965D01*
X00302969Y00999089D01*
X00302537Y00999182D01*
X00302104Y00999212D01*
X00301641Y00999243D01*
X00301424Y00999243D01*
X00301208Y00999212D01*
X00300868Y00999182D01*
X00300466Y00999151D01*
X00300003Y00999089D01*
X00299478Y00998996D01*
X00298921Y00998872D01*
X00298303Y00998687D01*
X00297655Y00998502D01*
X00296975Y00998255D01*
X00296264Y00997946D01*
X00295553Y00997575D01*
X00294843Y00997173D01*
X00294132Y00996710D01*
X00293452Y00996153D01*
X00293452Y01000263D01*
X00293483Y01000294D01*
X00293607Y01000356D01*
X00293823Y01000479D01*
X00294101Y01000634D01*
X00294472Y01000819D01*
X00294874Y01001005D01*
X00295368Y01001221D01*
X00295924Y01001468D01*
X00296511Y01001684D01*
X00297160Y01001901D01*
X00297871Y01002086D01*
X00298613Y01002271D01*
X00299416Y01002426D01*
X00300219Y01002550D01*
X00301084Y01002611D01*
X00301981Y01002642D01*
X00302197Y01002642D01*
X00302351Y01002611D01*
X00302351Y01002611D02*
G37*
G36*
X00245990Y01012067D02*
X00246361Y01012036D01*
X00246793Y01011974D01*
X00247288Y01011912D01*
X00247844Y01011820D01*
X00248400Y01011696D01*
X00248987Y01011542D01*
X00249605Y01011356D01*
X00250192Y01011140D01*
X00250810Y01010893D01*
X00251366Y01010584D01*
X00251923Y01010244D01*
X00252448Y01009842D01*
X00252479Y01009811D01*
X00252571Y01009749D01*
X00252695Y01009626D01*
X00252850Y01009440D01*
X00253066Y01009224D01*
X00253282Y01008946D01*
X00253529Y01008637D01*
X00253777Y01008297D01*
X00254024Y01007895D01*
X00254271Y01007463D01*
X00254487Y01006968D01*
X00254704Y01006474D01*
X00254858Y01005918D01*
X00254982Y01005331D01*
X00255074Y01004713D01*
X00255105Y01004064D01*
X00255105Y01004033D01*
X00255105Y01003940D01*
X00255105Y01003786D01*
X00255074Y01003569D01*
X00255043Y01003291D01*
X00255013Y01003013D01*
X00254982Y01002673D01*
X00254920Y01002302D01*
X00254704Y01001468D01*
X00254425Y01000603D01*
X00254240Y01000139D01*
X00254024Y00999707D01*
X00253777Y00999274D01*
X00253499Y00998842D01*
X00253468Y00998811D01*
X00253437Y00998749D01*
X00253344Y00998625D01*
X00253190Y00998471D01*
X00253035Y00998316D01*
X00252850Y00998100D01*
X00252602Y00997884D01*
X00252355Y00997636D01*
X00252046Y00997389D01*
X00251706Y00997111D01*
X00251335Y00996864D01*
X00250934Y00996586D01*
X00250501Y00996339D01*
X00250069Y00996122D01*
X00249049Y00995721D01*
X00249049Y00995628D01*
X00249080Y00995628D01*
X00249203Y00995597D01*
X00249389Y00995566D01*
X00249636Y00995535D01*
X00249945Y00995473D01*
X00250285Y00995381D01*
X00250687Y00995257D01*
X00251088Y00995134D01*
X00251984Y00994794D01*
X00252479Y00994577D01*
X00252942Y00994299D01*
X00253406Y00994021D01*
X00253869Y00993712D01*
X00254333Y00993341D01*
X00254734Y00992940D01*
X00254765Y00992909D01*
X00254827Y00992847D01*
X00254920Y00992723D01*
X00255074Y00992538D01*
X00255229Y00992291D01*
X00255414Y00992044D01*
X00255600Y00991704D01*
X00255816Y00991364D01*
X00256001Y00990962D01*
X00256187Y00990499D01*
X00256372Y00990035D01*
X00256527Y00989510D01*
X00256681Y00988923D01*
X00256774Y00988336D01*
X00256836Y00987718D01*
X00256867Y00987038D01*
X00256867Y00986976D01*
X00256867Y00986852D01*
X00256836Y00986605D01*
X00256805Y00986296D01*
X00256774Y00985894D01*
X00256681Y00985462D01*
X00256589Y00984967D01*
X00256465Y00984442D01*
X00256279Y00983855D01*
X00256063Y00983268D01*
X00255816Y00982681D01*
X00255507Y00982063D01*
X00255136Y00981445D01*
X00254704Y00980858D01*
X00254209Y00980302D01*
X00253622Y00979745D01*
X00253591Y00979715D01*
X00253468Y00979622D01*
X00253282Y00979498D01*
X00253035Y00979313D01*
X00252726Y00979096D01*
X00252324Y00978880D01*
X00251892Y00978602D01*
X00251397Y00978355D01*
X00250810Y00978108D01*
X00250192Y00977861D01*
X00249543Y00977613D01*
X00248802Y00977397D01*
X00248029Y00977212D01*
X00247226Y00977088D01*
X00246361Y00976995D01*
X00245464Y00976964D01*
X00235237Y00976964D01*
X00235237Y01012098D01*
X00245650Y01012098D01*
X00245990Y01012067D01*
X00245990Y01012067D02*
G37*
G36*
X00450671Y01002055D02*
X00457006Y01002055D01*
X00457006Y00998594D01*
X00450671Y00998594D01*
X00450671Y00984473D01*
X00450671Y00984442D01*
X00450671Y00984350D01*
X00450671Y00984226D01*
X00450671Y00984071D01*
X00450702Y00983855D01*
X00450733Y00983608D01*
X00450795Y00983083D01*
X00450888Y00982465D01*
X00451042Y00981878D01*
X00451259Y00981321D01*
X00451382Y00981074D01*
X00451537Y00980858D01*
X00451567Y00980827D01*
X00451691Y00980703D01*
X00451907Y00980518D01*
X00452216Y00980332D01*
X00452618Y00980116D01*
X00453113Y00979962D01*
X00453700Y00979838D01*
X00454379Y00979776D01*
X00454627Y00979776D01*
X00454905Y00979807D01*
X00455276Y00979869D01*
X00455677Y00979993D01*
X00456141Y00980116D01*
X00456573Y00980332D01*
X00457006Y00980611D01*
X00457006Y00977181D01*
X00456975Y00977181D01*
X00456944Y00977150D01*
X00456851Y00977119D01*
X00456759Y00977057D01*
X00456419Y00976933D01*
X00456017Y00976810D01*
X00455461Y00976686D01*
X00454812Y00976563D01*
X00454070Y00976470D01*
X00453236Y00976439D01*
X00452958Y00976439D01*
X00452618Y00976501D01*
X00452216Y00976563D01*
X00451722Y00976655D01*
X00451166Y00976841D01*
X00450548Y00977057D01*
X00449961Y00977366D01*
X00449343Y00977737D01*
X00448725Y00978231D01*
X00448168Y00978818D01*
X00447921Y00979158D01*
X00447674Y00979529D01*
X00447458Y00979931D01*
X00447272Y00980363D01*
X00447087Y00980827D01*
X00446933Y00981352D01*
X00446809Y00981878D01*
X00446716Y00982465D01*
X00446685Y00983083D01*
X00446654Y00983762D01*
X00446654Y00998594D01*
X00442359Y00998594D01*
X00442359Y01002055D01*
X00446654Y01002055D01*
X00446654Y01008173D01*
X00450671Y01009471D01*
X00450671Y01002055D01*
X00450671Y01002055D02*
G37*
G36*
X00525357Y01002611D02*
X00525697Y01002581D01*
X00526129Y01002550D01*
X00526593Y01002488D01*
X00527118Y01002364D01*
X00527674Y01002241D01*
X00528292Y01002086D01*
X00528910Y01001870D01*
X00529528Y01001592D01*
X00530177Y01001283D01*
X00530795Y01000912D01*
X00531382Y01000479D01*
X00531969Y00999985D01*
X00532495Y00999429D01*
X00532525Y00999398D01*
X00532618Y00999274D01*
X00532742Y00999089D01*
X00532927Y00998842D01*
X00533113Y00998533D01*
X00533360Y00998131D01*
X00533607Y00997667D01*
X00533854Y00997142D01*
X00534101Y00996524D01*
X00534349Y00995875D01*
X00534596Y00995134D01*
X00534781Y00994361D01*
X00534967Y00993496D01*
X00535090Y00992600D01*
X00535183Y00991611D01*
X00535214Y00990591D01*
X00535214Y00988490D01*
X00517477Y00988490D01*
X00517477Y00988428D01*
X00517477Y00988305D01*
X00517508Y00988088D01*
X00517539Y00987810D01*
X00517570Y00987439D01*
X00517632Y00987038D01*
X00517693Y00986605D01*
X00517817Y00986111D01*
X00518095Y00985060D01*
X00518281Y00984535D01*
X00518497Y00983979D01*
X00518744Y00983453D01*
X00519022Y00982928D01*
X00519362Y00982465D01*
X00519733Y00982001D01*
X00519764Y00981970D01*
X00519826Y00981908D01*
X00519949Y00981785D01*
X00520135Y00981661D01*
X00520351Y00981476D01*
X00520629Y00981290D01*
X00520938Y00981074D01*
X00521278Y00980889D01*
X00521680Y00980672D01*
X00522143Y00980456D01*
X00522607Y00980271D01*
X00523163Y00980085D01*
X00523719Y00979962D01*
X00524337Y00979838D01*
X00524986Y00979776D01*
X00525666Y00979745D01*
X00525851Y00979745D01*
X00526067Y00979776D01*
X00526376Y00979776D01*
X00526747Y00979838D01*
X00527180Y00979900D01*
X00527674Y00979993D01*
X00528230Y00980085D01*
X00528817Y00980240D01*
X00529436Y00980425D01*
X00530084Y00980641D01*
X00530733Y00980920D01*
X00531413Y00981229D01*
X00532093Y00981599D01*
X00532773Y00982032D01*
X00533452Y00982526D01*
X00533452Y00978757D01*
X00533422Y00978726D01*
X00533298Y00978664D01*
X00533113Y00978540D01*
X00532865Y00978386D01*
X00532525Y00978200D01*
X00532124Y00978015D01*
X00531660Y00977799D01*
X00531135Y00977582D01*
X00530517Y00977335D01*
X00529868Y00977119D01*
X00529157Y00976933D01*
X00528385Y00976748D01*
X00527551Y00976594D01*
X00526654Y00976470D01*
X00525697Y00976408D01*
X00524708Y00976377D01*
X00524461Y00976377D01*
X00524213Y00976408D01*
X00523843Y00976439D01*
X00523379Y00976470D01*
X00522854Y00976563D01*
X00522298Y00976655D01*
X00521680Y00976810D01*
X00521031Y00976995D01*
X00520351Y00977212D01*
X00519640Y00977490D01*
X00518960Y00977799D01*
X00518250Y00978200D01*
X00517601Y00978664D01*
X00516952Y00979189D01*
X00516365Y00979776D01*
X00516334Y00979807D01*
X00516241Y00979931D01*
X00516087Y00980147D01*
X00515901Y00980425D01*
X00515654Y00980765D01*
X00515407Y00981198D01*
X00515129Y00981692D01*
X00514851Y00982279D01*
X00514573Y00982897D01*
X00514294Y00983639D01*
X00514047Y00984411D01*
X00513800Y00985277D01*
X00513615Y00986203D01*
X00513460Y00987192D01*
X00513367Y00988274D01*
X00513337Y00989386D01*
X00513337Y00989417D01*
X00513337Y00989448D01*
X00513337Y00989541D01*
X00513337Y00989633D01*
X00513367Y00989942D01*
X00513398Y00990375D01*
X00513429Y00990869D01*
X00513522Y00991426D01*
X00513615Y00992074D01*
X00513738Y00992785D01*
X00513924Y00993527D01*
X00514140Y00994299D01*
X00514418Y00995103D01*
X00514727Y00995906D01*
X00515098Y00996679D01*
X00515561Y00997482D01*
X00516056Y00998224D01*
X00516643Y00998934D01*
X00516674Y00998965D01*
X00516797Y00999089D01*
X00516983Y00999274D01*
X00517230Y00999521D01*
X00517570Y00999799D01*
X00517972Y01000109D01*
X00518404Y01000448D01*
X00518929Y01000788D01*
X00519486Y01001128D01*
X00520135Y01001468D01*
X00520814Y01001777D01*
X00521525Y01002055D01*
X00522298Y01002302D01*
X00523132Y01002488D01*
X00523997Y01002611D01*
X00524893Y01002642D01*
X00525110Y01002642D01*
X00525357Y01002611D01*
X00525357Y01002611D02*
G37*
G36*
X00394928Y01012654D02*
X00395144Y01012654D01*
X00395360Y01012623D01*
X00395639Y01012623D01*
X00396257Y01012530D01*
X00396967Y01012438D01*
X00397771Y01012283D01*
X00398636Y01012067D01*
X00399532Y01011820D01*
X00400490Y01011480D01*
X00401448Y01011078D01*
X00402437Y01010615D01*
X00403425Y01010058D01*
X00404352Y01009409D01*
X00405279Y01008637D01*
X00406144Y01007772D01*
X00406206Y01007710D01*
X00406330Y01007555D01*
X00406546Y01007277D01*
X00406855Y01006876D01*
X00407164Y01006381D01*
X00407566Y01005794D01*
X00407968Y01005114D01*
X00408369Y01004342D01*
X00408771Y01003446D01*
X00409173Y01002488D01*
X00409574Y01001437D01*
X00409914Y01000294D01*
X00410192Y00999058D01*
X00410409Y00997760D01*
X00410532Y00996400D01*
X00410594Y00994948D01*
X00410594Y00994917D01*
X00410594Y00994856D01*
X00410594Y00994732D01*
X00410594Y00994577D01*
X00410563Y00994361D01*
X00410563Y00994114D01*
X00410532Y00993836D01*
X00410532Y00993527D01*
X00410501Y00993187D01*
X00410471Y00992816D01*
X00410347Y00991982D01*
X00410223Y00991024D01*
X00410038Y00990035D01*
X00409791Y00988954D01*
X00409482Y00987841D01*
X00409111Y00986729D01*
X00408678Y00985586D01*
X00408153Y00984473D01*
X00407535Y00983361D01*
X00406824Y00982341D01*
X00406021Y00981352D01*
X00405959Y00981290D01*
X00405805Y00981136D01*
X00405557Y00980889D01*
X00405187Y00980580D01*
X00404723Y00980209D01*
X00404167Y00979776D01*
X00403549Y00979344D01*
X00402807Y00978880D01*
X00401973Y00978417D01*
X00401046Y00977953D01*
X00400057Y00977521D01*
X00398976Y00977150D01*
X00397801Y00976841D01*
X00396565Y00976594D01*
X00395237Y00976439D01*
X00393846Y00976377D01*
X00393506Y00976377D01*
X00393352Y00976408D01*
X00393136Y00976408D01*
X00392888Y00976439D01*
X00392610Y00976470D01*
X00391961Y00976532D01*
X00391251Y00976625D01*
X00390416Y00976779D01*
X00389551Y00976995D01*
X00388593Y00977242D01*
X00387635Y00977582D01*
X00386647Y00977984D01*
X00385627Y00978448D01*
X00384638Y00979004D01*
X00383680Y00979684D01*
X00382722Y00980425D01*
X00381857Y00981290D01*
X00381795Y00981352D01*
X00381672Y00981507D01*
X00381455Y00981785D01*
X00381146Y00982187D01*
X00380807Y00982681D01*
X00380436Y00983268D01*
X00380034Y00983948D01*
X00379632Y00984751D01*
X00379200Y00985616D01*
X00378798Y00986574D01*
X00378427Y00987625D01*
X00378087Y00988768D01*
X00377778Y00990004D01*
X00377562Y00991302D01*
X00377438Y00992662D01*
X00377377Y00994114D01*
X00377377Y00994145D01*
X00377377Y00994207D01*
X00377377Y00994330D01*
X00377377Y00994485D01*
X00377408Y00994701D01*
X00377408Y00994917D01*
X00377438Y00995195D01*
X00377438Y00995504D01*
X00377469Y00995844D01*
X00377531Y00996246D01*
X00377624Y00997049D01*
X00377747Y00997976D01*
X00377964Y00998965D01*
X00378180Y01000047D01*
X00378489Y01001128D01*
X00378860Y01002241D01*
X00379292Y01003384D01*
X00379818Y01004496D01*
X00380436Y01005578D01*
X00381146Y01006628D01*
X00381950Y01007617D01*
X00382012Y01007679D01*
X00382166Y01007833D01*
X00382413Y01008081D01*
X00382784Y01008421D01*
X00383248Y01008791D01*
X00383835Y01009224D01*
X00384484Y01009688D01*
X00385225Y01010151D01*
X00386090Y01010615D01*
X00387017Y01011078D01*
X00388037Y01011511D01*
X00389149Y01011881D01*
X00390355Y01012221D01*
X00391622Y01012468D01*
X00392981Y01012623D01*
X00394433Y01012685D01*
X00394742Y01012685D01*
X00394928Y01012654D01*
X00394928Y01012654D02*
G37*
G36*
X00275067Y01002611D02*
X00275468Y01002581D01*
X00275932Y01002550D01*
X00276488Y01002457D01*
X00277075Y01002364D01*
X00277724Y01002210D01*
X00278435Y01002024D01*
X00279146Y01001808D01*
X00279856Y01001530D01*
X00280598Y01001190D01*
X00281308Y01000788D01*
X00282019Y01000325D01*
X00282668Y00999799D01*
X00283286Y00999182D01*
X00283317Y00999151D01*
X00283410Y00999027D01*
X00283564Y00998811D01*
X00283781Y00998533D01*
X00284028Y00998193D01*
X00284275Y00997760D01*
X00284584Y00997266D01*
X00284862Y00996679D01*
X00285171Y00996030D01*
X00285449Y00995319D01*
X00285696Y00994547D01*
X00285943Y00993681D01*
X00286160Y00992754D01*
X00286314Y00991765D01*
X00286407Y00990715D01*
X00286438Y00989602D01*
X00286438Y00989572D01*
X00286438Y00989541D01*
X00286438Y00989448D01*
X00286438Y00989324D01*
X00286407Y00989015D01*
X00286376Y00988614D01*
X00286345Y00988088D01*
X00286252Y00987501D01*
X00286160Y00986852D01*
X00286005Y00986142D01*
X00285820Y00985400D01*
X00285604Y00984597D01*
X00285325Y00983793D01*
X00285017Y00982990D01*
X00284615Y00982187D01*
X00284151Y00981414D01*
X00283626Y00980672D01*
X00283039Y00979962D01*
X00283008Y00979931D01*
X00282884Y00979807D01*
X00282699Y00979622D01*
X00282421Y00979405D01*
X00282081Y00979127D01*
X00281679Y00978818D01*
X00281185Y00978509D01*
X00280629Y00978169D01*
X00280011Y00977830D01*
X00279331Y00977521D01*
X00278589Y00977212D01*
X00277786Y00976933D01*
X00276890Y00976717D01*
X00275963Y00976532D01*
X00275005Y00976408D01*
X00273954Y00976377D01*
X00273707Y00976377D01*
X00273429Y00976408D01*
X00273027Y00976439D01*
X00272564Y00976470D01*
X00272008Y00976563D01*
X00271421Y00976655D01*
X00270772Y00976810D01*
X00270061Y00976995D01*
X00269350Y00977242D01*
X00268609Y00977521D01*
X00267867Y00977861D01*
X00267125Y00978262D01*
X00266384Y00978726D01*
X00265704Y00979251D01*
X00265055Y00979869D01*
X00265024Y00979900D01*
X00264901Y00980024D01*
X00264746Y00980240D01*
X00264530Y00980518D01*
X00264283Y00980858D01*
X00264005Y00981290D01*
X00263726Y00981785D01*
X00263417Y00982372D01*
X00263108Y00982990D01*
X00262799Y00983701D01*
X00262521Y00984473D01*
X00262274Y00985307D01*
X00262058Y00986173D01*
X00261903Y00987130D01*
X00261780Y00988150D01*
X00261749Y00989201D01*
X00261749Y00989232D01*
X00261749Y00989263D01*
X00261749Y00989355D01*
X00261749Y00989479D01*
X00261780Y00989819D01*
X00261811Y00990251D01*
X00261841Y00990777D01*
X00261934Y00991395D01*
X00262027Y00992074D01*
X00262181Y00992816D01*
X00262367Y00993589D01*
X00262583Y00994392D01*
X00262861Y00995226D01*
X00263201Y00996061D01*
X00263603Y00996864D01*
X00264035Y00997636D01*
X00264561Y00998378D01*
X00265179Y00999089D01*
X00265210Y00999120D01*
X00265333Y00999243D01*
X00265550Y00999429D01*
X00265828Y00999645D01*
X00266168Y00999923D01*
X00266600Y01000201D01*
X00267094Y01000541D01*
X00267651Y01000881D01*
X00268269Y01001190D01*
X00268979Y01001530D01*
X00269752Y01001808D01*
X00270586Y01002086D01*
X00271482Y01002302D01*
X00272440Y01002488D01*
X00273460Y01002611D01*
X00274541Y01002642D01*
X00274789Y01002642D01*
X00275067Y01002611D01*
X00275067Y01002611D02*
G37*
G36*
X-00559861Y00833710D02*
X-00559522Y00833679D01*
X-00559120Y00833648D01*
X-00558656Y00833555D01*
X-00558131Y00833463D01*
X-00557544Y00833308D01*
X-00556957Y00833123D01*
X-00556339Y00832907D01*
X-00555721Y00832628D01*
X-00555072Y00832319D01*
X-00554454Y00831918D01*
X-00553867Y00831454D01*
X-00553280Y00830929D01*
X-00552755Y00830342D01*
X-00552724Y00830311D01*
X-00552631Y00830187D01*
X-00552507Y00830002D01*
X-00552322Y00829724D01*
X-00552136Y00829384D01*
X-00551889Y00828982D01*
X-00551642Y00828488D01*
X-00551395Y00827962D01*
X-00551148Y00827345D01*
X-00550900Y00826665D01*
X-00550653Y00825923D01*
X-00550468Y00825120D01*
X-00550283Y00824255D01*
X-00550159Y00823327D01*
X-00550066Y00822339D01*
X-00550035Y00821319D01*
X-00550035Y00821288D01*
X-00550035Y00821257D01*
X-00550035Y00821164D01*
X-00550035Y00821041D01*
X-00550066Y00820701D01*
X-00550097Y00820268D01*
X-00550128Y00819743D01*
X-00550190Y00819125D01*
X-00550283Y00818445D01*
X-00550406Y00817704D01*
X-00550591Y00816931D01*
X-00550777Y00816097D01*
X-00551024Y00815263D01*
X-00551333Y00814428D01*
X-00551673Y00813594D01*
X-00552075Y00812760D01*
X-00552569Y00811987D01*
X-00553094Y00811246D01*
X-00553125Y00811215D01*
X-00553249Y00811091D01*
X-00553403Y00810906D01*
X-00553651Y00810659D01*
X-00553960Y00810380D01*
X-00554330Y00810040D01*
X-00554794Y00809701D01*
X-00555288Y00809361D01*
X-00555845Y00809021D01*
X-00556493Y00808681D01*
X-00557173Y00808341D01*
X-00557915Y00808063D01*
X-00558718Y00807816D01*
X-00559583Y00807630D01*
X-00560510Y00807507D01*
X-00561468Y00807476D01*
X-00561685Y00807476D01*
X-00561932Y00807507D01*
X-00562272Y00807538D01*
X-00562673Y00807599D01*
X-00563137Y00807692D01*
X-00563662Y00807816D01*
X-00564249Y00808001D01*
X-00564836Y00808217D01*
X-00565454Y00808495D01*
X-00566072Y00808835D01*
X-00566721Y00809237D01*
X-00567339Y00809731D01*
X-00567926Y00810288D01*
X-00568483Y00810937D01*
X-00569008Y00811678D01*
X-00569101Y00811678D01*
X-00569101Y00796537D01*
X-00573118Y00796537D01*
X-00573118Y00833154D01*
X-00569101Y00833154D01*
X-00569101Y00828735D01*
X-00569008Y00828735D01*
X-00568977Y00828797D01*
X-00568853Y00828951D01*
X-00568699Y00829198D01*
X-00568452Y00829508D01*
X-00568143Y00829909D01*
X-00567772Y00830311D01*
X-00567308Y00830774D01*
X-00566814Y00831238D01*
X-00566227Y00831701D01*
X-00565578Y00832165D01*
X-00564867Y00832567D01*
X-00564095Y00832968D01*
X-00563260Y00833277D01*
X-00562333Y00833524D01*
X-00561376Y00833679D01*
X-00560325Y00833741D01*
X-00560109Y00833741D01*
X-00559861Y00833710D01*
X-00559861Y00833710D02*
G37*
G36*
X-00430514Y00833555D02*
X-00430174Y00833555D01*
X-00429803Y00833494D01*
X-00429402Y00833432D01*
X-00429000Y00833370D01*
X-00428660Y00833246D01*
X-00428660Y00829075D01*
X-00428722Y00829106D01*
X-00428846Y00829198D01*
X-00429093Y00829322D01*
X-00429433Y00829477D01*
X-00429896Y00829631D01*
X-00430390Y00829755D01*
X-00431009Y00829847D01*
X-00431719Y00829878D01*
X-00431966Y00829878D01*
X-00432152Y00829847D01*
X-00432368Y00829817D01*
X-00432615Y00829755D01*
X-00433202Y00829569D01*
X-00433542Y00829446D01*
X-00433882Y00829291D01*
X-00434253Y00829075D01*
X-00434624Y00828859D01*
X-00434964Y00828581D01*
X-00435334Y00828241D01*
X-00435674Y00827870D01*
X-00436014Y00827437D01*
X-00436045Y00827406D01*
X-00436076Y00827314D01*
X-00436169Y00827190D01*
X-00436292Y00827005D01*
X-00436416Y00826757D01*
X-00436570Y00826448D01*
X-00436725Y00826109D01*
X-00436880Y00825707D01*
X-00437034Y00825274D01*
X-00437188Y00824780D01*
X-00437343Y00824224D01*
X-00437467Y00823636D01*
X-00437590Y00822988D01*
X-00437683Y00822308D01*
X-00437714Y00821597D01*
X-00437745Y00820825D01*
X-00437745Y00808063D01*
X-00441762Y00808063D01*
X-00441762Y00833154D01*
X-00437745Y00833154D01*
X-00437745Y00827962D01*
X-00437652Y00827962D01*
X-00437652Y00827993D01*
X-00437621Y00828086D01*
X-00437559Y00828210D01*
X-00437498Y00828395D01*
X-00437405Y00828611D01*
X-00437281Y00828889D01*
X-00437003Y00829477D01*
X-00436632Y00830156D01*
X-00436169Y00830836D01*
X-00435644Y00831485D01*
X-00435026Y00832103D01*
X-00434995Y00832134D01*
X-00434933Y00832165D01*
X-00434840Y00832227D01*
X-00434716Y00832350D01*
X-00434562Y00832443D01*
X-00434346Y00832567D01*
X-00433882Y00832845D01*
X-00433295Y00833123D01*
X-00432615Y00833370D01*
X-00431874Y00833524D01*
X-00431472Y00833555D01*
X-00431070Y00833586D01*
X-00430823Y00833586D01*
X-00430514Y00833555D01*
X-00430514Y00833555D02*
G37*
G36*
X-00378200Y00804046D02*
X-00378200Y00804015D01*
X-00378231Y00803953D01*
X-00378293Y00803861D01*
X-00378355Y00803706D01*
X-00378417Y00803521D01*
X-00378509Y00803335D01*
X-00378757Y00802841D01*
X-00379096Y00802254D01*
X-00379467Y00801574D01*
X-00379931Y00800894D01*
X-00380456Y00800153D01*
X-00381043Y00799442D01*
X-00381692Y00798731D01*
X-00382403Y00798051D01*
X-00383175Y00797464D01*
X-00384010Y00796970D01*
X-00384442Y00796784D01*
X-00384906Y00796599D01*
X-00385369Y00796444D01*
X-00385864Y00796352D01*
X-00386358Y00796290D01*
X-00386883Y00796259D01*
X-00387130Y00796259D01*
X-00387440Y00796290D01*
X-00387810Y00796290D01*
X-00388212Y00796352D01*
X-00388645Y00796414D01*
X-00389108Y00796475D01*
X-00389510Y00796599D01*
X-00389510Y00800183D01*
X-00389448Y00800153D01*
X-00389293Y00800122D01*
X-00389046Y00800060D01*
X-00388737Y00799967D01*
X-00388366Y00799874D01*
X-00387965Y00799813D01*
X-00387532Y00799782D01*
X-00387130Y00799751D01*
X-00387007Y00799751D01*
X-00386852Y00799782D01*
X-00386636Y00799813D01*
X-00386389Y00799874D01*
X-00386080Y00799936D01*
X-00385771Y00800060D01*
X-00385400Y00800214D01*
X-00385060Y00800400D01*
X-00384659Y00800647D01*
X-00384288Y00800925D01*
X-00383917Y00801265D01*
X-00383546Y00801697D01*
X-00383175Y00802161D01*
X-00382866Y00802717D01*
X-00382557Y00803366D01*
X-00380549Y00808094D01*
X-00390344Y00833154D01*
X-00385894Y00833154D01*
X-00379096Y00813841D01*
X-00379096Y00813810D01*
X-00379066Y00813749D01*
X-00379035Y00813656D01*
X-00378973Y00813470D01*
X-00378911Y00813223D01*
X-00378849Y00812883D01*
X-00378726Y00812451D01*
X-00378602Y00811925D01*
X-00378448Y00811925D01*
X-00378448Y00811956D01*
X-00378417Y00812049D01*
X-00378386Y00812173D01*
X-00378324Y00812389D01*
X-00378262Y00812636D01*
X-00378200Y00812945D01*
X-00378077Y00813347D01*
X-00377953Y00813779D01*
X-00370815Y00833154D01*
X-00366675Y00833154D01*
X-00378200Y00804046D01*
X-00378200Y00804046D02*
G37*
G36*
X-00482303Y00808063D02*
X-00486258Y00808063D01*
X-00495744Y00833154D01*
X-00491356Y00833154D01*
X-00484960Y00814923D01*
X-00484960Y00814892D01*
X-00484929Y00814830D01*
X-00484898Y00814737D01*
X-00484836Y00814583D01*
X-00484774Y00814397D01*
X-00484713Y00814212D01*
X-00484589Y00813718D01*
X-00484435Y00813192D01*
X-00484280Y00812605D01*
X-00484187Y00811987D01*
X-00484095Y00811400D01*
X-00484002Y00811400D01*
X-00484002Y00811431D01*
X-00484002Y00811493D01*
X-00483971Y00811586D01*
X-00483940Y00811709D01*
X-00483940Y00811894D01*
X-00483878Y00812080D01*
X-00483817Y00812543D01*
X-00483693Y00813069D01*
X-00483569Y00813625D01*
X-00483384Y00814212D01*
X-00483199Y00814799D01*
X-00476555Y00833154D01*
X-00472322Y00833154D01*
X-00482303Y00808063D01*
X-00482303Y00808063D02*
G37*
G36*
X-00402673Y00833710D02*
X-00402457Y00833710D01*
X-00402241Y00833679D01*
X-00401962Y00833648D01*
X-00401654Y00833586D01*
X-00401005Y00833463D01*
X-00400232Y00833246D01*
X-00399460Y00832968D01*
X-00398625Y00832567D01*
X-00397791Y00832072D01*
X-00397389Y00831794D01*
X-00396988Y00831454D01*
X-00396617Y00831083D01*
X-00396246Y00830713D01*
X-00395906Y00830280D01*
X-00395597Y00829786D01*
X-00395288Y00829291D01*
X-00395010Y00828735D01*
X-00394794Y00828117D01*
X-00394577Y00827468D01*
X-00394423Y00826788D01*
X-00394299Y00826016D01*
X-00394238Y00825243D01*
X-00394207Y00824378D01*
X-00394207Y00808063D01*
X-00398224Y00808063D01*
X-00398224Y00811956D01*
X-00398316Y00811956D01*
X-00398347Y00811894D01*
X-00398440Y00811771D01*
X-00398594Y00811555D01*
X-00398811Y00811246D01*
X-00399089Y00810906D01*
X-00399429Y00810535D01*
X-00399800Y00810133D01*
X-00400263Y00809731D01*
X-00400788Y00809299D01*
X-00401344Y00808897D01*
X-00401993Y00808526D01*
X-00402673Y00808187D01*
X-00403446Y00807878D01*
X-00404249Y00807661D01*
X-00405114Y00807538D01*
X-00406041Y00807476D01*
X-00406412Y00807476D01*
X-00406659Y00807507D01*
X-00406968Y00807538D01*
X-00407339Y00807568D01*
X-00407741Y00807630D01*
X-00408173Y00807723D01*
X-00409131Y00807970D01*
X-00409595Y00808125D01*
X-00410089Y00808310D01*
X-00410584Y00808526D01*
X-00411047Y00808804D01*
X-00411480Y00809114D01*
X-00411912Y00809453D01*
X-00411943Y00809484D01*
X-00412005Y00809546D01*
X-00412098Y00809670D01*
X-00412252Y00809824D01*
X-00412407Y00810010D01*
X-00412561Y00810257D01*
X-00412777Y00810535D01*
X-00412963Y00810844D01*
X-00413148Y00811215D01*
X-00413334Y00811616D01*
X-00413519Y00812049D01*
X-00413674Y00812513D01*
X-00413828Y00813007D01*
X-00413921Y00813532D01*
X-00413983Y00814119D01*
X-00414014Y00814706D01*
X-00414014Y00814737D01*
X-00414014Y00814799D01*
X-00414014Y00814892D01*
X-00413983Y00815015D01*
X-00413983Y00815170D01*
X-00413952Y00815355D01*
X-00413890Y00815819D01*
X-00413766Y00816375D01*
X-00413581Y00816993D01*
X-00413334Y00817673D01*
X-00412963Y00818384D01*
X-00412530Y00819094D01*
X-00412005Y00819805D01*
X-00411665Y00820145D01*
X-00411325Y00820485D01*
X-00410923Y00820825D01*
X-00410522Y00821134D01*
X-00410058Y00821443D01*
X-00409564Y00821721D01*
X-00409039Y00821968D01*
X-00408452Y00822215D01*
X-00407834Y00822431D01*
X-00407185Y00822617D01*
X-00406474Y00822771D01*
X-00405732Y00822895D01*
X-00398224Y00823946D01*
X-00398224Y00823976D01*
X-00398224Y00824007D01*
X-00398224Y00824100D01*
X-00398224Y00824224D01*
X-00398255Y00824533D01*
X-00398316Y00824934D01*
X-00398378Y00825429D01*
X-00398502Y00825985D01*
X-00398656Y00826541D01*
X-00398873Y00827159D01*
X-00399151Y00827746D01*
X-00399490Y00828333D01*
X-00399892Y00828859D01*
X-00400387Y00829353D01*
X-00401005Y00829755D01*
X-00401684Y00830064D01*
X-00402055Y00830187D01*
X-00402488Y00830280D01*
X-00402920Y00830311D01*
X-00403384Y00830342D01*
X-00403600Y00830342D01*
X-00403817Y00830311D01*
X-00404156Y00830280D01*
X-00404558Y00830249D01*
X-00405022Y00830187D01*
X-00405547Y00830095D01*
X-00406103Y00829971D01*
X-00406721Y00829786D01*
X-00407370Y00829600D01*
X-00408050Y00829353D01*
X-00408760Y00829044D01*
X-00409471Y00828673D01*
X-00410182Y00828271D01*
X-00410893Y00827808D01*
X-00411572Y00827252D01*
X-00411572Y00831361D01*
X-00411541Y00831392D01*
X-00411418Y00831454D01*
X-00411202Y00831578D01*
X-00410923Y00831732D01*
X-00410553Y00831918D01*
X-00410151Y00832103D01*
X-00409657Y00832319D01*
X-00409100Y00832567D01*
X-00408513Y00832783D01*
X-00407864Y00832999D01*
X-00407154Y00833185D01*
X-00406412Y00833370D01*
X-00405609Y00833524D01*
X-00404805Y00833648D01*
X-00403940Y00833710D01*
X-00403044Y00833741D01*
X-00402828Y00833741D01*
X-00402673Y00833710D01*
X-00402673Y00833710D02*
G37*
G36*
X-00420286Y00808063D02*
X-00424303Y00808063D01*
X-00424303Y00845205D01*
X-00420286Y00845205D01*
X-00420286Y00808063D01*
X-00420286Y00808063D02*
G37*
G36*
X-00607509Y00839457D02*
X-00617644Y00839457D01*
X-00617644Y00808063D01*
X-00621754Y00808063D01*
X-00621754Y00839457D01*
X-00631889Y00839457D01*
X-00631889Y00843196D01*
X-00607509Y00843196D01*
X-00607509Y00839457D01*
X-00607509Y00839457D02*
G37*
G36*
X-00457675Y00833710D02*
X-00457335Y00833679D01*
X-00456903Y00833648D01*
X-00456439Y00833586D01*
X-00455914Y00833463D01*
X-00455358Y00833339D01*
X-00454740Y00833185D01*
X-00454122Y00832968D01*
X-00453504Y00832690D01*
X-00452855Y00832381D01*
X-00452237Y00832010D01*
X-00451650Y00831578D01*
X-00451063Y00831083D01*
X-00450537Y00830527D01*
X-00450506Y00830496D01*
X-00450414Y00830373D01*
X-00450290Y00830187D01*
X-00450105Y00829940D01*
X-00449919Y00829631D01*
X-00449672Y00829229D01*
X-00449425Y00828766D01*
X-00449178Y00828241D01*
X-00448930Y00827623D01*
X-00448683Y00826974D01*
X-00448436Y00826232D01*
X-00448251Y00825460D01*
X-00448065Y00824594D01*
X-00447942Y00823698D01*
X-00447849Y00822710D01*
X-00447818Y00821690D01*
X-00447818Y00819589D01*
X-00465555Y00819589D01*
X-00465555Y00819527D01*
X-00465555Y00819403D01*
X-00465524Y00819187D01*
X-00465493Y00818909D01*
X-00465462Y00818538D01*
X-00465400Y00818136D01*
X-00465338Y00817704D01*
X-00465215Y00817209D01*
X-00464937Y00816159D01*
X-00464751Y00815633D01*
X-00464535Y00815077D01*
X-00464288Y00814552D01*
X-00464010Y00814027D01*
X-00463670Y00813563D01*
X-00463299Y00813100D01*
X-00463268Y00813069D01*
X-00463206Y00813007D01*
X-00463083Y00812883D01*
X-00462897Y00812760D01*
X-00462681Y00812574D01*
X-00462403Y00812389D01*
X-00462094Y00812173D01*
X-00461754Y00811987D01*
X-00461352Y00811771D01*
X-00460889Y00811555D01*
X-00460425Y00811369D01*
X-00459869Y00811184D01*
X-00459313Y00811060D01*
X-00458695Y00810937D01*
X-00458046Y00810875D01*
X-00457366Y00810844D01*
X-00457181Y00810844D01*
X-00456964Y00810875D01*
X-00456656Y00810875D01*
X-00456285Y00810937D01*
X-00455852Y00810998D01*
X-00455358Y00811091D01*
X-00454801Y00811184D01*
X-00454214Y00811338D01*
X-00453596Y00811524D01*
X-00452947Y00811740D01*
X-00452299Y00812018D01*
X-00451619Y00812327D01*
X-00450939Y00812698D01*
X-00450259Y00813130D01*
X-00449579Y00813625D01*
X-00449579Y00809855D01*
X-00449610Y00809824D01*
X-00449734Y00809762D01*
X-00449919Y00809639D01*
X-00450166Y00809484D01*
X-00450506Y00809299D01*
X-00450908Y00809114D01*
X-00451372Y00808897D01*
X-00451897Y00808681D01*
X-00452515Y00808434D01*
X-00453164Y00808217D01*
X-00453875Y00808032D01*
X-00454647Y00807847D01*
X-00455481Y00807692D01*
X-00456377Y00807568D01*
X-00457335Y00807507D01*
X-00458324Y00807476D01*
X-00458571Y00807476D01*
X-00458818Y00807507D01*
X-00459189Y00807538D01*
X-00459653Y00807568D01*
X-00460178Y00807661D01*
X-00460734Y00807754D01*
X-00461352Y00807908D01*
X-00462001Y00808094D01*
X-00462681Y00808310D01*
X-00463392Y00808588D01*
X-00464072Y00808897D01*
X-00464782Y00809299D01*
X-00465431Y00809762D01*
X-00466080Y00810288D01*
X-00466667Y00810875D01*
X-00466698Y00810906D01*
X-00466791Y00811029D01*
X-00466945Y00811246D01*
X-00467131Y00811524D01*
X-00467378Y00811864D01*
X-00467625Y00812296D01*
X-00467903Y00812791D01*
X-00468181Y00813378D01*
X-00468459Y00813996D01*
X-00468737Y00814737D01*
X-00468985Y00815510D01*
X-00469232Y00816375D01*
X-00469417Y00817302D01*
X-00469572Y00818291D01*
X-00469664Y00819372D01*
X-00469695Y00820485D01*
X-00469695Y00820516D01*
X-00469695Y00820547D01*
X-00469695Y00820639D01*
X-00469695Y00820732D01*
X-00469664Y00821041D01*
X-00469634Y00821473D01*
X-00469603Y00821968D01*
X-00469510Y00822524D01*
X-00469417Y00823173D01*
X-00469294Y00823884D01*
X-00469108Y00824625D01*
X-00468892Y00825398D01*
X-00468614Y00826201D01*
X-00468305Y00827005D01*
X-00467934Y00827777D01*
X-00467471Y00828581D01*
X-00466976Y00829322D01*
X-00466389Y00830033D01*
X-00466358Y00830064D01*
X-00466235Y00830187D01*
X-00466049Y00830373D01*
X-00465802Y00830620D01*
X-00465462Y00830898D01*
X-00465060Y00831207D01*
X-00464628Y00831547D01*
X-00464102Y00831887D01*
X-00463546Y00832227D01*
X-00462897Y00832567D01*
X-00462217Y00832876D01*
X-00461507Y00833154D01*
X-00460734Y00833401D01*
X-00459900Y00833586D01*
X-00459035Y00833710D01*
X-00458139Y00833741D01*
X-00457922Y00833741D01*
X-00457675Y00833710D01*
X-00457675Y00833710D02*
G37*
G36*
X-00514068Y00843752D02*
X-00513851Y00843752D01*
X-00513635Y00843721D01*
X-00513357Y00843721D01*
X-00512739Y00843629D01*
X-00512028Y00843536D01*
X-00511225Y00843382D01*
X-00510360Y00843165D01*
X-00509464Y00842918D01*
X-00508506Y00842578D01*
X-00507548Y00842177D01*
X-00506559Y00841713D01*
X-00505570Y00841157D01*
X-00504643Y00840508D01*
X-00503716Y00839735D01*
X-00502851Y00838870D01*
X-00502789Y00838808D01*
X-00502666Y00838654D01*
X-00502449Y00838376D01*
X-00502140Y00837974D01*
X-00501831Y00837480D01*
X-00501430Y00836893D01*
X-00501028Y00836213D01*
X-00500626Y00835440D01*
X-00500224Y00834544D01*
X-00499823Y00833586D01*
X-00499421Y00832536D01*
X-00499081Y00831392D01*
X-00498803Y00830156D01*
X-00498587Y00828859D01*
X-00498463Y00827499D01*
X-00498401Y00826047D01*
X-00498401Y00826016D01*
X-00498401Y00825954D01*
X-00498401Y00825830D01*
X-00498401Y00825676D01*
X-00498432Y00825460D01*
X-00498432Y00825212D01*
X-00498463Y00824934D01*
X-00498463Y00824625D01*
X-00498494Y00824285D01*
X-00498525Y00823915D01*
X-00498649Y00823080D01*
X-00498772Y00822122D01*
X-00498958Y00821134D01*
X-00499205Y00820052D01*
X-00499514Y00818940D01*
X-00499885Y00817827D01*
X-00500317Y00816684D01*
X-00500842Y00815572D01*
X-00501461Y00814459D01*
X-00502171Y00813439D01*
X-00502975Y00812451D01*
X-00503036Y00812389D01*
X-00503191Y00812234D01*
X-00503438Y00811987D01*
X-00503809Y00811678D01*
X-00504272Y00811307D01*
X-00504829Y00810875D01*
X-00505447Y00810442D01*
X-00506188Y00809979D01*
X-00507022Y00809515D01*
X-00507950Y00809052D01*
X-00508938Y00808619D01*
X-00510020Y00808248D01*
X-00511194Y00807939D01*
X-00512430Y00807692D01*
X-00513759Y00807538D01*
X-00515149Y00807476D01*
X-00515489Y00807476D01*
X-00515644Y00807507D01*
X-00515860Y00807507D01*
X-00516107Y00807538D01*
X-00516385Y00807568D01*
X-00517034Y00807630D01*
X-00517745Y00807723D01*
X-00518579Y00807878D01*
X-00519444Y00808094D01*
X-00520402Y00808341D01*
X-00521360Y00808681D01*
X-00522349Y00809083D01*
X-00523369Y00809546D01*
X-00524357Y00810102D01*
X-00525315Y00810782D01*
X-00526273Y00811524D01*
X-00527138Y00812389D01*
X-00527200Y00812451D01*
X-00527324Y00812605D01*
X-00527540Y00812883D01*
X-00527849Y00813285D01*
X-00528189Y00813779D01*
X-00528560Y00814366D01*
X-00528962Y00815046D01*
X-00529363Y00815850D01*
X-00529796Y00816715D01*
X-00530197Y00817673D01*
X-00530568Y00818723D01*
X-00530908Y00819867D01*
X-00531217Y00821103D01*
X-00531433Y00822400D01*
X-00531557Y00823760D01*
X-00531619Y00825212D01*
X-00531619Y00825243D01*
X-00531619Y00825305D01*
X-00531619Y00825429D01*
X-00531619Y00825583D01*
X-00531588Y00825799D01*
X-00531588Y00826016D01*
X-00531557Y00826294D01*
X-00531557Y00826603D01*
X-00531526Y00826943D01*
X-00531464Y00827345D01*
X-00531372Y00828148D01*
X-00531248Y00829075D01*
X-00531032Y00830064D01*
X-00530816Y00831145D01*
X-00530506Y00832227D01*
X-00530136Y00833339D01*
X-00529703Y00834482D01*
X-00529178Y00835595D01*
X-00528560Y00836676D01*
X-00527849Y00837727D01*
X-00527046Y00838716D01*
X-00526984Y00838778D01*
X-00526829Y00838932D01*
X-00526582Y00839179D01*
X-00526211Y00839519D01*
X-00525748Y00839890D01*
X-00525161Y00840322D01*
X-00524512Y00840786D01*
X-00523770Y00841250D01*
X-00522905Y00841713D01*
X-00521978Y00842177D01*
X-00520958Y00842609D01*
X-00519846Y00842980D01*
X-00518641Y00843320D01*
X-00517374Y00843567D01*
X-00516014Y00843721D01*
X-00514562Y00843783D01*
X-00514253Y00843783D01*
X-00514068Y00843752D01*
X-00514068Y00843752D02*
G37*
G36*
X-00590916Y00833710D02*
X-00590514Y00833679D01*
X-00590051Y00833648D01*
X-00589495Y00833555D01*
X-00588908Y00833463D01*
X-00588259Y00833308D01*
X-00587548Y00833123D01*
X-00586837Y00832907D01*
X-00586126Y00832628D01*
X-00585385Y00832288D01*
X-00584674Y00831887D01*
X-00583963Y00831423D01*
X-00583315Y00830898D01*
X-00582697Y00830280D01*
X-00582666Y00830249D01*
X-00582573Y00830125D01*
X-00582418Y00829909D01*
X-00582202Y00829631D01*
X-00581955Y00829291D01*
X-00581708Y00828859D01*
X-00581399Y00828364D01*
X-00581121Y00827777D01*
X-00580812Y00827128D01*
X-00580534Y00826418D01*
X-00580286Y00825645D01*
X-00580039Y00824780D01*
X-00579823Y00823853D01*
X-00579668Y00822864D01*
X-00579576Y00821813D01*
X-00579545Y00820701D01*
X-00579545Y00820670D01*
X-00579545Y00820639D01*
X-00579545Y00820547D01*
X-00579545Y00820423D01*
X-00579576Y00820114D01*
X-00579607Y00819712D01*
X-00579638Y00819187D01*
X-00579730Y00818600D01*
X-00579823Y00817951D01*
X-00579977Y00817240D01*
X-00580163Y00816499D01*
X-00580379Y00815695D01*
X-00580657Y00814892D01*
X-00580966Y00814088D01*
X-00581368Y00813285D01*
X-00581831Y00812513D01*
X-00582357Y00811771D01*
X-00582944Y00811060D01*
X-00582975Y00811029D01*
X-00583098Y00810906D01*
X-00583284Y00810720D01*
X-00583562Y00810504D01*
X-00583902Y00810226D01*
X-00584303Y00809917D01*
X-00584798Y00809608D01*
X-00585354Y00809268D01*
X-00585972Y00808928D01*
X-00586652Y00808619D01*
X-00587393Y00808310D01*
X-00588197Y00808032D01*
X-00589093Y00807816D01*
X-00590020Y00807630D01*
X-00590978Y00807507D01*
X-00592028Y00807476D01*
X-00592276Y00807476D01*
X-00592554Y00807507D01*
X-00592955Y00807538D01*
X-00593419Y00807568D01*
X-00593975Y00807661D01*
X-00594562Y00807754D01*
X-00595211Y00807908D01*
X-00595922Y00808094D01*
X-00596633Y00808341D01*
X-00597374Y00808619D01*
X-00598116Y00808959D01*
X-00598857Y00809361D01*
X-00599599Y00809824D01*
X-00600279Y00810350D01*
X-00600928Y00810967D01*
X-00600958Y00810998D01*
X-00601082Y00811122D01*
X-00601237Y00811338D01*
X-00601453Y00811616D01*
X-00601700Y00811956D01*
X-00601978Y00812389D01*
X-00602256Y00812883D01*
X-00602565Y00813470D01*
X-00602874Y00814088D01*
X-00603183Y00814799D01*
X-00603461Y00815572D01*
X-00603709Y00816406D01*
X-00603925Y00817271D01*
X-00604079Y00818229D01*
X-00604203Y00819249D01*
X-00604234Y00820299D01*
X-00604234Y00820330D01*
X-00604234Y00820361D01*
X-00604234Y00820454D01*
X-00604234Y00820577D01*
X-00604203Y00820917D01*
X-00604172Y00821350D01*
X-00604141Y00821875D01*
X-00604048Y00822493D01*
X-00603956Y00823173D01*
X-00603801Y00823915D01*
X-00603616Y00824687D01*
X-00603400Y00825490D01*
X-00603121Y00826325D01*
X-00602782Y00827159D01*
X-00602380Y00827962D01*
X-00601947Y00828735D01*
X-00601422Y00829477D01*
X-00600804Y00830187D01*
X-00600773Y00830218D01*
X-00600649Y00830342D01*
X-00600433Y00830527D01*
X-00600155Y00830744D01*
X-00599815Y00831022D01*
X-00599383Y00831300D01*
X-00598888Y00831640D01*
X-00598332Y00831980D01*
X-00597714Y00832288D01*
X-00597003Y00832628D01*
X-00596231Y00832907D01*
X-00595396Y00833185D01*
X-00594500Y00833401D01*
X-00593543Y00833586D01*
X-00592523Y00833710D01*
X-00591441Y00833741D01*
X-00591194Y00833741D01*
X-00590916Y00833710D01*
X-00590916Y00833710D02*
G37*
G36*
X00521585Y00304260D02*
X00513703Y00296377D01*
X00494154Y00315925D01*
X00502037Y00323808D01*
X00521585Y00304260D01*
X00521585Y00304260D02*
G37*
G36*
X00101378Y00115157D02*
X00101378Y00110728D01*
X00094488Y00110728D01*
X00094488Y00122047D01*
X00101378Y00115157D01*
X00101378Y00115157D02*
G37*
G36*
X-00413386Y00100394D02*
X-00444882Y00100394D01*
X-00429134Y00112205D01*
X-00413386Y00100394D01*
X-00413386Y00100394D02*
G37*
G36*
X-00405512Y-00004921D02*
X-00427165Y-00004921D01*
X-00427165Y-00028544D01*
X-00431101Y-00028544D01*
X-00431103Y-00004921D01*
X-00431103Y-00000000D01*
X-00405512Y-00000000D01*
X-00405512Y-00004921D01*
X-00405512Y-00004921D02*
G37*
G36*
X-00409449Y-00194902D02*
X-00420768Y-00194902D01*
X-00413878Y-00188012D01*
X-00409449Y-00188012D01*
X-00409449Y-00194902D01*
X-00409449Y-00194902D02*
G37*
G36*
X00044291Y-00228346D02*
X00012795Y-00251969D01*
X00012795Y-00204725D01*
X00044291Y-00228346D01*
X00044291Y-00228346D02*
G37*
G36*
X-00107479Y-00309055D02*
X-00154723Y-00309055D01*
X-00131101Y-00277559D01*
X-00107479Y-00309055D01*
X-00107479Y-00309055D02*
G37*
G36*
X00520658Y-00305186D02*
X00501110Y-00324735D01*
X00493227Y-00316852D01*
X00512776Y-00297304D01*
X00520658Y-00305186D01*
X00520658Y-00305186D02*
G37*
G36*
X-00507372Y-00303598D02*
X-00496770Y-00292996D01*
X-00489702Y-00300064D01*
X-00500304Y-00310666D01*
X-00489738Y-00321233D01*
X-00496806Y-00328301D01*
X-00507372Y-00317735D01*
X-00518047Y-00328409D01*
X-00525115Y-00321341D01*
X-00514441Y-00310666D01*
X-00525151Y-00299956D01*
X-00518083Y-00292888D01*
X-00507372Y-00303598D01*
X-00507372Y-00303598D02*
G37*
G36*
X00406695Y-00358685D02*
X00383073Y-00327189D01*
X00430317Y-00327189D01*
X00406695Y-00358685D01*
X00406695Y-00358685D02*
G37*
G36*
X00061752Y-00392284D02*
X00057323Y-00392284D01*
X00057323Y-00385394D01*
X00068642Y-00385394D01*
X00061752Y-00392284D01*
X00061752Y-00392284D02*
G37*
%LPC*%
G36*
X00346137Y00999243D02*
X00345982Y00999243D01*
X00345797Y00999212D01*
X00345519Y00999212D01*
X00345210Y00999151D01*
X00344870Y00999089D01*
X00344468Y00999027D01*
X00344036Y00998903D01*
X00343572Y00998780D01*
X00343108Y00998594D01*
X00342645Y00998378D01*
X00342151Y00998100D01*
X00341687Y00997791D01*
X00341224Y00997451D01*
X00340760Y00997019D01*
X00340358Y00996555D01*
X00340327Y00996524D01*
X00340266Y00996431D01*
X00340173Y00996277D01*
X00340019Y00996061D01*
X00339864Y00995783D01*
X00339709Y00995443D01*
X00339493Y00995072D01*
X00339308Y00994608D01*
X00339122Y00994114D01*
X00338937Y00993558D01*
X00338752Y00992940D01*
X00338597Y00992291D01*
X00338443Y00991549D01*
X00338350Y00990808D01*
X00338288Y00989973D01*
X00338257Y00989108D01*
X00338257Y00989046D01*
X00338257Y00988923D01*
X00338257Y00988676D01*
X00338288Y00988397D01*
X00338319Y00988027D01*
X00338350Y00987594D01*
X00338412Y00987130D01*
X00338504Y00986605D01*
X00338752Y00985524D01*
X00338906Y00984937D01*
X00339091Y00984380D01*
X00339339Y00983824D01*
X00339617Y00983268D01*
X00339926Y00982743D01*
X00340266Y00982248D01*
X00340297Y00982217D01*
X00340358Y00982156D01*
X00340482Y00982032D01*
X00340637Y00981847D01*
X00340853Y00981661D01*
X00341100Y00981445D01*
X00341378Y00981229D01*
X00341718Y00981012D01*
X00342089Y00980765D01*
X00342490Y00980549D01*
X00342923Y00980332D01*
X00343418Y00980147D01*
X00343943Y00979993D01*
X00344499Y00979869D01*
X00345086Y00979776D01*
X00345704Y00979745D01*
X00345859Y00979745D01*
X00346044Y00979776D01*
X00346260Y00979776D01*
X00346538Y00979807D01*
X00346878Y00979869D01*
X00347249Y00979962D01*
X00347651Y00980054D01*
X00348083Y00980178D01*
X00348516Y00980332D01*
X00348979Y00980518D01*
X00349412Y00980765D01*
X00349876Y00981043D01*
X00350308Y00981352D01*
X00350741Y00981723D01*
X00351142Y00982156D01*
X00351173Y00982187D01*
X00351235Y00982279D01*
X00351328Y00982403D01*
X00351482Y00982588D01*
X00351637Y00982835D01*
X00351822Y00983114D01*
X00352008Y00983453D01*
X00352193Y00983855D01*
X00352378Y00984257D01*
X00352595Y00984720D01*
X00352749Y00985246D01*
X00352904Y00985771D01*
X00353058Y00986358D01*
X00353151Y00986976D01*
X00353213Y00987625D01*
X00353244Y00988305D01*
X00353244Y00991982D01*
X00353244Y00992013D01*
X00353244Y00992105D01*
X00353244Y00992291D01*
X00353213Y00992507D01*
X00353182Y00992754D01*
X00353151Y00993063D01*
X00353089Y00993403D01*
X00352997Y00993774D01*
X00352749Y00994577D01*
X00352595Y00995010D01*
X00352409Y00995443D01*
X00352162Y00995875D01*
X00351884Y00996308D01*
X00351575Y00996740D01*
X00351235Y00997142D01*
X00351204Y00997173D01*
X00351142Y00997235D01*
X00351019Y00997327D01*
X00350864Y00997482D01*
X00350679Y00997636D01*
X00350432Y00997822D01*
X00350154Y00998007D01*
X00349845Y00998193D01*
X00349505Y00998378D01*
X00349103Y00998594D01*
X00348701Y00998749D01*
X00348238Y00998903D01*
X00347743Y00999058D01*
X00347249Y00999151D01*
X00346693Y00999212D01*
X00346137Y00999243D01*
X00346137Y00999243D02*
G37*
G36*
X00306801Y00989633D02*
X00300745Y00988799D01*
X00300714Y00988799D01*
X00300621Y00988768D01*
X00300466Y00988768D01*
X00300281Y00988737D01*
X00300065Y00988676D01*
X00299787Y00988614D01*
X00299169Y00988490D01*
X00298489Y00988305D01*
X00297809Y00988058D01*
X00297129Y00987749D01*
X00296820Y00987594D01*
X00296542Y00987409D01*
X00296480Y00987347D01*
X00296326Y00987223D01*
X00296079Y00986976D01*
X00295832Y00986605D01*
X00295584Y00986111D01*
X00295461Y00985833D01*
X00295337Y00985524D01*
X00295244Y00985184D01*
X00295183Y00984782D01*
X00295152Y00984380D01*
X00295121Y00983917D01*
X00295121Y00983886D01*
X00295121Y00983824D01*
X00295121Y00983731D01*
X00295152Y00983608D01*
X00295183Y00983268D01*
X00295275Y00982835D01*
X00295430Y00982372D01*
X00295677Y00981847D01*
X00295986Y00981352D01*
X00296419Y00980889D01*
X00296450Y00980889D01*
X00296480Y00980827D01*
X00296666Y00980703D01*
X00296944Y00980518D01*
X00297346Y00980332D01*
X00297871Y00980116D01*
X00298458Y00979931D01*
X00299169Y00979807D01*
X00299941Y00979745D01*
X00300219Y00979745D01*
X00300436Y00979776D01*
X00300683Y00979807D01*
X00300992Y00979869D01*
X00301301Y00979931D01*
X00301672Y00980024D01*
X00302444Y00980271D01*
X00302846Y00980425D01*
X00303278Y00980641D01*
X00303680Y00980889D01*
X00304082Y00981167D01*
X00304483Y00981476D01*
X00304854Y00981847D01*
X00304885Y00981878D01*
X00304947Y00981939D01*
X00305040Y00982063D01*
X00305163Y00982217D01*
X00305318Y00982434D01*
X00305472Y00982681D01*
X00305658Y00982959D01*
X00305843Y00983299D01*
X00305998Y00983670D01*
X00306183Y00984071D01*
X00306337Y00984504D01*
X00306492Y00984967D01*
X00306616Y00985462D01*
X00306708Y00985987D01*
X00306770Y00986543D01*
X00306801Y00987130D01*
X00306801Y00989633D01*
X00306801Y00989633D02*
G37*
G36*
X00244692Y01008359D02*
X00239346Y01008359D01*
X00239346Y00997019D01*
X00243889Y00997019D01*
X00244105Y00997049D01*
X00244383Y00997080D01*
X00244723Y00997111D01*
X00245094Y00997142D01*
X00245495Y00997235D01*
X00246330Y00997420D01*
X00247226Y00997698D01*
X00247658Y00997884D01*
X00248091Y00998100D01*
X00248493Y00998347D01*
X00248863Y00998625D01*
X00248894Y00998656D01*
X00248956Y00998687D01*
X00249049Y00998811D01*
X00249173Y00998934D01*
X00249327Y00999089D01*
X00249482Y00999305D01*
X00249667Y00999552D01*
X00249852Y00999830D01*
X00250007Y01000139D01*
X00250192Y01000479D01*
X00250347Y01000850D01*
X00250501Y01001252D01*
X00250625Y01001715D01*
X00250718Y01002179D01*
X00250779Y01002704D01*
X00250810Y01003229D01*
X00250810Y01003291D01*
X00250810Y01003446D01*
X00250779Y01003693D01*
X00250718Y01004033D01*
X00250594Y01004434D01*
X00250470Y01004867D01*
X00250254Y01005331D01*
X00249976Y01005794D01*
X00249605Y01006288D01*
X00249173Y01006752D01*
X00248616Y01007185D01*
X00247967Y01007555D01*
X00247597Y01007741D01*
X00247195Y01007895D01*
X00246762Y01008019D01*
X00246299Y01008143D01*
X00245804Y01008235D01*
X00245248Y01008297D01*
X00244692Y01008359D01*
X00244692Y01008359D02*
G37*
G36*
X00244074Y00993311D02*
X00239346Y00993311D01*
X00239346Y00980672D01*
X00245279Y00980672D01*
X00245526Y00980703D01*
X00245835Y00980734D01*
X00246175Y00980765D01*
X00246577Y00980827D01*
X00247010Y00980889D01*
X00247906Y00981074D01*
X00248833Y00981383D01*
X00249296Y00981599D01*
X00249729Y00981816D01*
X00250130Y00982063D01*
X00250532Y00982372D01*
X00250563Y00982403D01*
X00250625Y00982465D01*
X00250718Y00982557D01*
X00250841Y00982681D01*
X00250996Y00982866D01*
X00251181Y00983083D01*
X00251335Y00983330D01*
X00251552Y00983608D01*
X00251737Y00983948D01*
X00251892Y00984288D01*
X00252077Y00984689D01*
X00252232Y00985091D01*
X00252355Y00985555D01*
X00252448Y00986049D01*
X00252510Y00986543D01*
X00252541Y00987100D01*
X00252541Y00987130D01*
X00252541Y00987161D01*
X00252541Y00987254D01*
X00252510Y00987378D01*
X00252479Y00987687D01*
X00252417Y00988058D01*
X00252293Y00988552D01*
X00252108Y00989077D01*
X00251830Y00989633D01*
X00251490Y00990221D01*
X00251026Y00990777D01*
X00250779Y00991055D01*
X00250470Y00991333D01*
X00250161Y00991611D01*
X00249791Y00991858D01*
X00249389Y00992105D01*
X00248956Y00992353D01*
X00248493Y00992538D01*
X00247998Y00992723D01*
X00247442Y00992909D01*
X00246855Y00993032D01*
X00246237Y00993156D01*
X00245557Y00993249D01*
X00244846Y00993280D01*
X00244074Y00993311D01*
X00244074Y00993311D02*
G37*
G36*
X00524831Y00999243D02*
X00524553Y00999243D01*
X00524368Y00999212D01*
X00524121Y00999182D01*
X00523812Y00999151D01*
X00523503Y00999089D01*
X00523163Y00998996D01*
X00522390Y00998749D01*
X00521989Y00998594D01*
X00521587Y00998378D01*
X00521185Y00998162D01*
X00520753Y00997884D01*
X00520382Y00997575D01*
X00519980Y00997204D01*
X00519949Y00997173D01*
X00519887Y00997111D01*
X00519795Y00996988D01*
X00519671Y00996833D01*
X00519517Y00996617D01*
X00519331Y00996400D01*
X00519146Y00996091D01*
X00518929Y00995783D01*
X00518713Y00995412D01*
X00518528Y00995010D01*
X00518312Y00994577D01*
X00518126Y00994114D01*
X00517941Y00993589D01*
X00517786Y00993063D01*
X00517632Y00992476D01*
X00517539Y00991889D01*
X00531104Y00991889D01*
X00531104Y00991920D01*
X00531104Y00992044D01*
X00531104Y00992229D01*
X00531073Y00992476D01*
X00531042Y00992754D01*
X00531011Y00993094D01*
X00530950Y00993465D01*
X00530888Y00993867D01*
X00530672Y00994732D01*
X00530362Y00995659D01*
X00530177Y00996091D01*
X00529961Y00996524D01*
X00529714Y00996926D01*
X00529405Y00997297D01*
X00529374Y00997327D01*
X00529343Y00997389D01*
X00529250Y00997482D01*
X00529096Y00997606D01*
X00528941Y00997760D01*
X00528725Y00997915D01*
X00528509Y00998100D01*
X00528230Y00998285D01*
X00527921Y00998440D01*
X00527582Y00998625D01*
X00527180Y00998780D01*
X00526778Y00998934D01*
X00526346Y00999058D01*
X00525882Y00999151D01*
X00525357Y00999212D01*
X00524831Y00999243D01*
X00524831Y00999243D02*
G37*
G36*
X00394124Y01008946D02*
X00393877Y01008946D01*
X00393599Y01008915D01*
X00393197Y01008884D01*
X00392734Y01008822D01*
X00392178Y01008730D01*
X00391591Y01008606D01*
X00390942Y01008452D01*
X00390231Y01008235D01*
X00389489Y01007988D01*
X00388748Y01007648D01*
X00388006Y01007277D01*
X00387234Y01006814D01*
X00386523Y01006288D01*
X00385812Y01005670D01*
X00385132Y01004960D01*
X00385102Y01004929D01*
X00384978Y01004774D01*
X00384824Y01004558D01*
X00384607Y01004249D01*
X00384329Y01003847D01*
X00384051Y01003353D01*
X00383742Y01002797D01*
X00383433Y01002148D01*
X00383093Y01001437D01*
X00382784Y01000634D01*
X00382506Y00999769D01*
X00382228Y00998842D01*
X00382012Y00997853D01*
X00381857Y00996771D01*
X00381733Y00995659D01*
X00381703Y00994454D01*
X00381703Y00994423D01*
X00381703Y00994392D01*
X00381703Y00994299D01*
X00381703Y00994176D01*
X00381703Y00994021D01*
X00381733Y00993836D01*
X00381764Y00993372D01*
X00381795Y00992816D01*
X00381888Y00992198D01*
X00381981Y00991487D01*
X00382135Y00990715D01*
X00382290Y00989912D01*
X00382537Y00989046D01*
X00382784Y00988181D01*
X00383124Y00987316D01*
X00383495Y00986451D01*
X00383958Y00985586D01*
X00384484Y00984782D01*
X00385071Y00984010D01*
X00385102Y00983979D01*
X00385225Y00983855D01*
X00385411Y00983639D01*
X00385689Y00983392D01*
X00386029Y00983083D01*
X00386430Y00982774D01*
X00386894Y00982403D01*
X00387419Y00982032D01*
X00388037Y00981661D01*
X00388686Y00981321D01*
X00389428Y00980981D01*
X00390200Y00980672D01*
X00391034Y00980425D01*
X00391930Y00980240D01*
X00392858Y00980085D01*
X00393846Y00980054D01*
X00394094Y00980054D01*
X00394402Y00980085D01*
X00394804Y00980116D01*
X00395299Y00980178D01*
X00395855Y00980240D01*
X00396473Y00980363D01*
X00397153Y00980518D01*
X00397863Y00980734D01*
X00398605Y00980981D01*
X00399377Y00981290D01*
X00400119Y00981661D01*
X00400892Y00982063D01*
X00401602Y00982588D01*
X00402313Y00983175D01*
X00402962Y00983824D01*
X00402993Y00983855D01*
X00403116Y00984010D01*
X00403271Y00984226D01*
X00403487Y00984535D01*
X00403734Y00984906D01*
X00404012Y00985369D01*
X00404321Y00985925D01*
X00404630Y00986574D01*
X00404939Y00987285D01*
X00405248Y00988058D01*
X00405526Y00988923D01*
X00405774Y00989881D01*
X00405990Y00990900D01*
X00406144Y00991982D01*
X00406268Y00993156D01*
X00406299Y00994392D01*
X00406299Y00994423D01*
X00406299Y00994485D01*
X00406299Y00994577D01*
X00406299Y00994701D01*
X00406299Y00994856D01*
X00406268Y00995072D01*
X00406237Y00995535D01*
X00406206Y00996122D01*
X00406114Y00996802D01*
X00406021Y00997544D01*
X00405897Y00998347D01*
X00405712Y00999182D01*
X00405496Y01000078D01*
X00405248Y01000974D01*
X00404939Y01001870D01*
X00404569Y01002735D01*
X00404136Y01003600D01*
X00403642Y01004404D01*
X00403055Y01005145D01*
X00403024Y01005176D01*
X00402900Y01005300D01*
X00402715Y01005485D01*
X00402467Y01005732D01*
X00402127Y01006041D01*
X00401726Y01006350D01*
X00401262Y01006690D01*
X00400737Y01007061D01*
X00400119Y01007401D01*
X00399439Y01007741D01*
X00398728Y01008081D01*
X00397925Y01008359D01*
X00397060Y01008606D01*
X00396133Y01008791D01*
X00395175Y01008915D01*
X00394124Y01008946D01*
X00394124Y01008946D02*
G37*
G36*
X00274232Y00999243D02*
X00274078Y00999243D01*
X00273862Y00999212D01*
X00273584Y00999212D01*
X00273274Y00999151D01*
X00272904Y00999120D01*
X00272471Y00999027D01*
X00272008Y00998903D01*
X00271544Y00998780D01*
X00271050Y00998594D01*
X00270524Y00998378D01*
X00270030Y00998131D01*
X00269505Y00997822D01*
X00269010Y00997482D01*
X00268547Y00997080D01*
X00268114Y00996617D01*
X00268083Y00996586D01*
X00268022Y00996493D01*
X00267898Y00996339D01*
X00267774Y00996122D01*
X00267589Y00995875D01*
X00267404Y00995535D01*
X00267187Y00995164D01*
X00267002Y00994732D01*
X00266786Y00994237D01*
X00266569Y00993681D01*
X00266384Y00993094D01*
X00266198Y00992445D01*
X00266075Y00991735D01*
X00265951Y00990993D01*
X00265889Y00990190D01*
X00265858Y00989355D01*
X00265858Y00989293D01*
X00265858Y00989170D01*
X00265889Y00988923D01*
X00265889Y00988614D01*
X00265920Y00988243D01*
X00265982Y00987810D01*
X00266044Y00987316D01*
X00266137Y00986791D01*
X00266260Y00986234D01*
X00266415Y00985678D01*
X00266600Y00985091D01*
X00266816Y00984504D01*
X00267064Y00983917D01*
X00267373Y00983361D01*
X00267712Y00982804D01*
X00268114Y00982310D01*
X00268145Y00982279D01*
X00268207Y00982187D01*
X00268361Y00982063D01*
X00268547Y00981908D01*
X00268763Y00981723D01*
X00269041Y00981507D01*
X00269381Y00981260D01*
X00269752Y00981043D01*
X00270154Y00980796D01*
X00270617Y00980549D01*
X00271111Y00980332D01*
X00271668Y00980147D01*
X00272255Y00979993D01*
X00272873Y00979869D01*
X00273522Y00979776D01*
X00274232Y00979745D01*
X00274418Y00979745D01*
X00274603Y00979776D01*
X00274881Y00979776D01*
X00275190Y00979838D01*
X00275561Y00979869D01*
X00275994Y00979962D01*
X00276457Y00980054D01*
X00276921Y00980178D01*
X00277415Y00980363D01*
X00277909Y00980549D01*
X00278404Y00980796D01*
X00278898Y00981074D01*
X00279362Y00981414D01*
X00279825Y00981816D01*
X00280227Y00982248D01*
X00280258Y00982279D01*
X00280320Y00982372D01*
X00280412Y00982526D01*
X00280567Y00982712D01*
X00280721Y00982990D01*
X00280907Y00983299D01*
X00281092Y00983670D01*
X00281278Y00984102D01*
X00281463Y00984597D01*
X00281679Y00985122D01*
X00281834Y00985709D01*
X00281988Y00986358D01*
X00282143Y00987038D01*
X00282236Y00987810D01*
X00282297Y00988614D01*
X00282328Y00989448D01*
X00282328Y00989510D01*
X00282328Y00989664D01*
X00282328Y00989912D01*
X00282297Y00990221D01*
X00282266Y00990622D01*
X00282205Y00991055D01*
X00282143Y00991580D01*
X00282081Y00992105D01*
X00281803Y00993280D01*
X00281648Y00993867D01*
X00281432Y00994485D01*
X00281216Y00995072D01*
X00280907Y00995628D01*
X00280598Y00996184D01*
X00280227Y00996679D01*
X00280196Y00996710D01*
X00280134Y00996802D01*
X00280011Y00996926D01*
X00279825Y00997080D01*
X00279609Y00997266D01*
X00279362Y00997482D01*
X00279053Y00997729D01*
X00278682Y00997976D01*
X00278280Y00998193D01*
X00277848Y00998440D01*
X00277353Y00998656D01*
X00276828Y00998842D01*
X00276241Y00998996D01*
X00275623Y00999120D01*
X00274943Y00999212D01*
X00274232Y00999243D01*
X00274232Y00999243D02*
G37*
G36*
X-00561314Y00830342D02*
X-00561654Y00830342D01*
X-00561901Y00830311D01*
X-00562210Y00830280D01*
X-00562550Y00830218D01*
X-00562921Y00830125D01*
X-00563353Y00830033D01*
X-00563786Y00829909D01*
X-00564249Y00829755D01*
X-00564713Y00829538D01*
X-00565176Y00829322D01*
X-00565640Y00829044D01*
X-00566103Y00828704D01*
X-00566567Y00828333D01*
X-00566968Y00827901D01*
X-00566999Y00827870D01*
X-00567061Y00827777D01*
X-00567154Y00827654D01*
X-00567308Y00827468D01*
X-00567463Y00827221D01*
X-00567648Y00826943D01*
X-00567834Y00826603D01*
X-00568019Y00826232D01*
X-00568235Y00825799D01*
X-00568421Y00825336D01*
X-00568606Y00824842D01*
X-00568761Y00824285D01*
X-00568915Y00823698D01*
X-00569008Y00823111D01*
X-00569070Y00822462D01*
X-00569101Y00821783D01*
X-00569101Y00818291D01*
X-00569101Y00818260D01*
X-00569101Y00818167D01*
X-00569101Y00817982D01*
X-00569070Y00817765D01*
X-00569039Y00817487D01*
X-00569008Y00817178D01*
X-00568946Y00816838D01*
X-00568853Y00816468D01*
X-00568606Y00815633D01*
X-00568452Y00815201D01*
X-00568266Y00814737D01*
X-00568019Y00814305D01*
X-00567741Y00813841D01*
X-00567432Y00813409D01*
X-00567092Y00813007D01*
X-00567061Y00812976D01*
X-00566999Y00812914D01*
X-00566876Y00812822D01*
X-00566721Y00812667D01*
X-00566536Y00812513D01*
X-00566289Y00812327D01*
X-00566011Y00812142D01*
X-00565671Y00811925D01*
X-00565331Y00811740D01*
X-00564929Y00811524D01*
X-00564496Y00811338D01*
X-00564064Y00811184D01*
X-00563569Y00811029D01*
X-00563044Y00810937D01*
X-00562488Y00810875D01*
X-00561932Y00810844D01*
X-00561777Y00810844D01*
X-00561592Y00810875D01*
X-00561314Y00810875D01*
X-00561036Y00810937D01*
X-00560665Y00810998D01*
X-00560263Y00811091D01*
X-00559861Y00811184D01*
X-00559398Y00811338D01*
X-00558934Y00811524D01*
X-00558471Y00811740D01*
X-00557977Y00812018D01*
X-00557513Y00812327D01*
X-00557050Y00812698D01*
X-00556617Y00813130D01*
X-00556215Y00813625D01*
X-00556184Y00813656D01*
X-00556123Y00813749D01*
X-00556030Y00813903D01*
X-00555875Y00814150D01*
X-00555721Y00814428D01*
X-00555566Y00814768D01*
X-00555381Y00815201D01*
X-00555165Y00815664D01*
X-00554979Y00816190D01*
X-00554794Y00816777D01*
X-00554639Y00817395D01*
X-00554454Y00818105D01*
X-00554330Y00818847D01*
X-00554238Y00819650D01*
X-00554176Y00820516D01*
X-00554145Y00821412D01*
X-00554145Y00821473D01*
X-00554145Y00821597D01*
X-00554145Y00821813D01*
X-00554176Y00822091D01*
X-00554207Y00822462D01*
X-00554238Y00822864D01*
X-00554299Y00823297D01*
X-00554392Y00823791D01*
X-00554609Y00824842D01*
X-00554763Y00825398D01*
X-00554979Y00825923D01*
X-00555196Y00826479D01*
X-00555443Y00827005D01*
X-00555752Y00827499D01*
X-00556092Y00827962D01*
X-00556123Y00827993D01*
X-00556184Y00828055D01*
X-00556277Y00828179D01*
X-00556432Y00828333D01*
X-00556648Y00828519D01*
X-00556864Y00828704D01*
X-00557142Y00828920D01*
X-00557451Y00829168D01*
X-00557822Y00829384D01*
X-00558193Y00829600D01*
X-00558625Y00829786D01*
X-00559089Y00829971D01*
X-00559614Y00830125D01*
X-00560140Y00830249D01*
X-00560696Y00830311D01*
X-00561314Y00830342D01*
X-00561314Y00830342D02*
G37*
G36*
X-00398224Y00820732D02*
X-00404280Y00819898D01*
X-00404311Y00819898D01*
X-00404404Y00819867D01*
X-00404558Y00819867D01*
X-00404743Y00819836D01*
X-00404960Y00819774D01*
X-00405238Y00819712D01*
X-00405856Y00819589D01*
X-00406536Y00819403D01*
X-00407216Y00819156D01*
X-00407895Y00818847D01*
X-00408204Y00818692D01*
X-00408482Y00818507D01*
X-00408544Y00818445D01*
X-00408699Y00818322D01*
X-00408946Y00818074D01*
X-00409193Y00817704D01*
X-00409440Y00817209D01*
X-00409564Y00816931D01*
X-00409688Y00816622D01*
X-00409780Y00816282D01*
X-00409842Y00815881D01*
X-00409873Y00815479D01*
X-00409904Y00815015D01*
X-00409904Y00814985D01*
X-00409904Y00814923D01*
X-00409904Y00814830D01*
X-00409873Y00814706D01*
X-00409842Y00814366D01*
X-00409749Y00813934D01*
X-00409595Y00813470D01*
X-00409348Y00812945D01*
X-00409039Y00812451D01*
X-00408606Y00811987D01*
X-00408575Y00811987D01*
X-00408544Y00811925D01*
X-00408359Y00811802D01*
X-00408081Y00811616D01*
X-00407679Y00811431D01*
X-00407154Y00811215D01*
X-00406567Y00811029D01*
X-00405856Y00810906D01*
X-00405083Y00810844D01*
X-00404805Y00810844D01*
X-00404589Y00810875D01*
X-00404342Y00810906D01*
X-00404033Y00810967D01*
X-00403724Y00811029D01*
X-00403353Y00811122D01*
X-00402580Y00811369D01*
X-00402179Y00811524D01*
X-00401746Y00811740D01*
X-00401344Y00811987D01*
X-00400943Y00812265D01*
X-00400541Y00812574D01*
X-00400170Y00812945D01*
X-00400139Y00812976D01*
X-00400078Y00813038D01*
X-00399985Y00813161D01*
X-00399861Y00813316D01*
X-00399707Y00813532D01*
X-00399552Y00813779D01*
X-00399367Y00814058D01*
X-00399182Y00814397D01*
X-00399027Y00814768D01*
X-00398842Y00815170D01*
X-00398687Y00815602D01*
X-00398533Y00816066D01*
X-00398409Y00816560D01*
X-00398316Y00817086D01*
X-00398255Y00817642D01*
X-00398224Y00818229D01*
X-00398224Y00820732D01*
X-00398224Y00820732D02*
G37*
G36*
X-00458200Y00830342D02*
X-00458479Y00830342D01*
X-00458664Y00830311D01*
X-00458911Y00830280D01*
X-00459220Y00830249D01*
X-00459529Y00830187D01*
X-00459869Y00830095D01*
X-00460642Y00829847D01*
X-00461043Y00829693D01*
X-00461445Y00829477D01*
X-00461847Y00829260D01*
X-00462279Y00828982D01*
X-00462650Y00828673D01*
X-00463052Y00828302D01*
X-00463083Y00828271D01*
X-00463144Y00828210D01*
X-00463237Y00828086D01*
X-00463361Y00827932D01*
X-00463515Y00827715D01*
X-00463701Y00827499D01*
X-00463886Y00827190D01*
X-00464102Y00826881D01*
X-00464319Y00826510D01*
X-00464504Y00826109D01*
X-00464720Y00825676D01*
X-00464906Y00825212D01*
X-00465091Y00824687D01*
X-00465246Y00824162D01*
X-00465400Y00823575D01*
X-00465493Y00822988D01*
X-00451928Y00822988D01*
X-00451928Y00823019D01*
X-00451928Y00823142D01*
X-00451928Y00823327D01*
X-00451959Y00823575D01*
X-00451990Y00823853D01*
X-00452021Y00824193D01*
X-00452082Y00824563D01*
X-00452144Y00824965D01*
X-00452360Y00825830D01*
X-00452669Y00826757D01*
X-00452855Y00827190D01*
X-00453071Y00827623D01*
X-00453318Y00828024D01*
X-00453627Y00828395D01*
X-00453658Y00828426D01*
X-00453689Y00828488D01*
X-00453782Y00828581D01*
X-00453936Y00828704D01*
X-00454091Y00828859D01*
X-00454307Y00829013D01*
X-00454523Y00829198D01*
X-00454801Y00829384D01*
X-00455111Y00829538D01*
X-00455450Y00829724D01*
X-00455852Y00829878D01*
X-00456254Y00830033D01*
X-00456686Y00830156D01*
X-00457150Y00830249D01*
X-00457675Y00830311D01*
X-00458200Y00830342D01*
X-00458200Y00830342D02*
G37*
G36*
X-00514871Y00840044D02*
X-00515118Y00840044D01*
X-00515396Y00840014D01*
X-00515798Y00839983D01*
X-00516262Y00839921D01*
X-00516818Y00839828D01*
X-00517405Y00839705D01*
X-00518054Y00839550D01*
X-00518764Y00839334D01*
X-00519506Y00839087D01*
X-00520248Y00838747D01*
X-00520989Y00838376D01*
X-00521762Y00837912D01*
X-00522472Y00837387D01*
X-00523183Y00836769D01*
X-00523863Y00836058D01*
X-00523894Y00836027D01*
X-00524018Y00835873D01*
X-00524172Y00835657D01*
X-00524388Y00835348D01*
X-00524666Y00834946D01*
X-00524944Y00834452D01*
X-00525254Y00833895D01*
X-00525562Y00833246D01*
X-00525902Y00832536D01*
X-00526211Y00831732D01*
X-00526490Y00830867D01*
X-00526768Y00829940D01*
X-00526984Y00828951D01*
X-00527138Y00827870D01*
X-00527262Y00826757D01*
X-00527293Y00825552D01*
X-00527293Y00825521D01*
X-00527293Y00825490D01*
X-00527293Y00825398D01*
X-00527293Y00825274D01*
X-00527293Y00825120D01*
X-00527262Y00824934D01*
X-00527231Y00824471D01*
X-00527200Y00823915D01*
X-00527107Y00823297D01*
X-00527015Y00822586D01*
X-00526860Y00821813D01*
X-00526706Y00821010D01*
X-00526459Y00820145D01*
X-00526211Y00819280D01*
X-00525871Y00818414D01*
X-00525501Y00817549D01*
X-00525037Y00816684D01*
X-00524512Y00815881D01*
X-00523925Y00815108D01*
X-00523894Y00815077D01*
X-00523770Y00814954D01*
X-00523585Y00814737D01*
X-00523307Y00814490D01*
X-00522967Y00814181D01*
X-00522565Y00813872D01*
X-00522102Y00813501D01*
X-00521576Y00813130D01*
X-00520958Y00812760D01*
X-00520309Y00812420D01*
X-00519568Y00812080D01*
X-00518795Y00811771D01*
X-00517961Y00811524D01*
X-00517065Y00811338D01*
X-00516138Y00811184D01*
X-00515149Y00811153D01*
X-00514902Y00811153D01*
X-00514593Y00811184D01*
X-00514191Y00811215D01*
X-00513697Y00811277D01*
X-00513141Y00811338D01*
X-00512523Y00811462D01*
X-00511843Y00811616D01*
X-00511132Y00811833D01*
X-00510391Y00812080D01*
X-00509618Y00812389D01*
X-00508877Y00812760D01*
X-00508104Y00813161D01*
X-00507393Y00813687D01*
X-00506683Y00814274D01*
X-00506034Y00814923D01*
X-00506003Y00814954D01*
X-00505879Y00815108D01*
X-00505725Y00815324D01*
X-00505508Y00815633D01*
X-00505261Y00816004D01*
X-00504983Y00816468D01*
X-00504674Y00817024D01*
X-00504365Y00817673D01*
X-00504056Y00818384D01*
X-00503747Y00819156D01*
X-00503469Y00820021D01*
X-00503222Y00820979D01*
X-00503005Y00821999D01*
X-00502851Y00823080D01*
X-00502727Y00824255D01*
X-00502697Y00825490D01*
X-00502697Y00825521D01*
X-00502697Y00825583D01*
X-00502697Y00825676D01*
X-00502697Y00825799D01*
X-00502697Y00825954D01*
X-00502727Y00826170D01*
X-00502758Y00826634D01*
X-00502789Y00827221D01*
X-00502882Y00827901D01*
X-00502975Y00828642D01*
X-00503098Y00829446D01*
X-00503284Y00830280D01*
X-00503500Y00831176D01*
X-00503747Y00832072D01*
X-00504056Y00832968D01*
X-00504427Y00833833D01*
X-00504860Y00834699D01*
X-00505354Y00835502D01*
X-00505941Y00836244D01*
X-00505972Y00836275D01*
X-00506096Y00836398D01*
X-00506281Y00836584D01*
X-00506528Y00836831D01*
X-00506868Y00837140D01*
X-00507270Y00837449D01*
X-00507733Y00837789D01*
X-00508259Y00838159D01*
X-00508877Y00838499D01*
X-00509556Y00838839D01*
X-00510267Y00839179D01*
X-00511070Y00839457D01*
X-00511936Y00839705D01*
X-00512863Y00839890D01*
X-00513821Y00840014D01*
X-00514871Y00840044D01*
X-00514871Y00840044D02*
G37*
G36*
X-00591750Y00830342D02*
X-00591905Y00830342D01*
X-00592121Y00830311D01*
X-00592399Y00830311D01*
X-00592708Y00830249D01*
X-00593079Y00830218D01*
X-00593512Y00830125D01*
X-00593975Y00830002D01*
X-00594439Y00829878D01*
X-00594933Y00829693D01*
X-00595458Y00829477D01*
X-00595953Y00829229D01*
X-00596478Y00828920D01*
X-00596972Y00828581D01*
X-00597436Y00828179D01*
X-00597869Y00827715D01*
X-00597899Y00827684D01*
X-00597961Y00827592D01*
X-00598085Y00827437D01*
X-00598208Y00827221D01*
X-00598394Y00826974D01*
X-00598579Y00826634D01*
X-00598795Y00826263D01*
X-00598981Y00825830D01*
X-00599197Y00825336D01*
X-00599413Y00824780D01*
X-00599599Y00824193D01*
X-00599784Y00823544D01*
X-00599908Y00822833D01*
X-00600032Y00822091D01*
X-00600093Y00821288D01*
X-00600124Y00820454D01*
X-00600124Y00820392D01*
X-00600124Y00820268D01*
X-00600093Y00820021D01*
X-00600093Y00819712D01*
X-00600062Y00819341D01*
X-00600001Y00818909D01*
X-00599939Y00818414D01*
X-00599846Y00817889D01*
X-00599722Y00817333D01*
X-00599568Y00816777D01*
X-00599383Y00816190D01*
X-00599166Y00815602D01*
X-00598919Y00815015D01*
X-00598610Y00814459D01*
X-00598270Y00813903D01*
X-00597869Y00813409D01*
X-00597838Y00813378D01*
X-00597776Y00813285D01*
X-00597621Y00813161D01*
X-00597436Y00813007D01*
X-00597220Y00812822D01*
X-00596942Y00812605D01*
X-00596602Y00812358D01*
X-00596231Y00812142D01*
X-00595829Y00811894D01*
X-00595366Y00811647D01*
X-00594871Y00811431D01*
X-00594315Y00811246D01*
X-00593728Y00811091D01*
X-00593110Y00810967D01*
X-00592461Y00810875D01*
X-00591750Y00810844D01*
X-00591565Y00810844D01*
X-00591380Y00810875D01*
X-00591101Y00810875D01*
X-00590792Y00810937D01*
X-00590422Y00810967D01*
X-00589989Y00811060D01*
X-00589525Y00811153D01*
X-00589062Y00811277D01*
X-00588568Y00811462D01*
X-00588073Y00811647D01*
X-00587579Y00811894D01*
X-00587084Y00812173D01*
X-00586621Y00812513D01*
X-00586157Y00812914D01*
X-00585756Y00813347D01*
X-00585725Y00813378D01*
X-00585663Y00813470D01*
X-00585570Y00813625D01*
X-00585416Y00813810D01*
X-00585261Y00814088D01*
X-00585076Y00814397D01*
X-00584890Y00814768D01*
X-00584705Y00815201D01*
X-00584520Y00815695D01*
X-00584303Y00816221D01*
X-00584149Y00816808D01*
X-00583994Y00817457D01*
X-00583840Y00818136D01*
X-00583747Y00818909D01*
X-00583685Y00819712D01*
X-00583654Y00820547D01*
X-00583654Y00820608D01*
X-00583654Y00820763D01*
X-00583654Y00821010D01*
X-00583685Y00821319D01*
X-00583716Y00821721D01*
X-00583778Y00822153D01*
X-00583840Y00822679D01*
X-00583902Y00823204D01*
X-00584180Y00824378D01*
X-00584334Y00824965D01*
X-00584551Y00825583D01*
X-00584767Y00826170D01*
X-00585076Y00826726D01*
X-00585385Y00827283D01*
X-00585756Y00827777D01*
X-00585787Y00827808D01*
X-00585848Y00827901D01*
X-00585972Y00828024D01*
X-00586157Y00828179D01*
X-00586374Y00828364D01*
X-00586621Y00828581D01*
X-00586930Y00828828D01*
X-00587301Y00829075D01*
X-00587702Y00829291D01*
X-00588135Y00829538D01*
X-00588629Y00829755D01*
X-00589155Y00829940D01*
X-00589742Y00830095D01*
X-00590360Y00830218D01*
X-00591040Y00830311D01*
X-00591750Y00830342D01*
X-00591750Y00830342D02*
G37*
%LPD*%
D10*
X-00303150Y00299413D02*
G03*
X-00303150Y00299413I-00001968J00000000D01*
G01*
X00286076Y-00361518D02*
G03*
X00286076Y-00361518I-00001968J00000000D01*
G01*
X00323673Y-00148562D02*
G03*
X00323673Y-00148562I-00001968J00000000D01*
G01*
D11*
X-00688976Y-00393701D02*
G03*
X-00590551Y-00492126I00098425J00000000D01*
G01*
X-00555117Y-00236220D02*
G03*
X-00515747Y-00196850I00000000J00039370D01*
G01*
X-00150786Y-00277559D02*
X-00111416Y-00277559D01*
X-00125195Y-00277559D01*
X00044291Y-00248031D02*
X00044291Y-00208661D01*
X00044291Y-00234252D02*
X00044291Y-00248031D01*
X-00334646Y-00103287D02*
G03*
X-00334646Y-00103287I-00003937J00000000D01*
G01*
X-00255905Y00082346D02*
X-00248031Y00082346D01*
X-00200787Y00141401D02*
X-00200787Y00157149D01*
X-00303149Y00157149D02*
X-00303149Y00141401D01*
X-00255905Y00216204D02*
X-00248031Y00216204D01*
X-00488221Y00313969D02*
X-00491496Y00329373D01*
X-00526224Y00294645D02*
G03*
X-00491496Y00329373I-00064327J00099055D01*
G01*
X-00507222Y00328548D01*
X-00525674Y00310384D02*
X-00526224Y00294645D01*
X-00510765Y00291640D01*
X-00492125Y00472442D02*
G03*
X-00413385Y00472442I00039370J00000000D01*
G01*
X-00515747Y00196850D02*
G03*
X-00555117Y00236220I-00039370J00000000D01*
G01*
X-00555029Y00129921D02*
G03*
X-00515659Y00169291I00000000J00039370D01*
G01*
X-00515730Y-00169291D02*
G03*
X-00555100Y-00129921I-00039370J00000000D01*
G01*
X-00716535Y00129921D02*
G03*
X-00748031Y00098425I00000000J-00031496D01*
G01*
X-00688976Y00275591D02*
G03*
X-00649606Y00236220I00039370J00000000D01*
G01*
X-00748031Y-00098425D02*
G03*
X-00716535Y-00129921I00031496J00000000D01*
G01*
X-00649606Y-00236220D02*
G03*
X-00688976Y-00275591I00000000J-00039370D01*
G01*
X-00590551Y00492126D02*
G03*
X-00688976Y00393701I00000000J-00098425D01*
G01*
X-00492125Y00482284D02*
G03*
X-00501968Y00492126I-00009842J00000000D01*
G01*
X-00403543Y00492126D02*
G03*
X-00413385Y00482284I00000000J-00009842D01*
G01*
X00387010Y-00358685D02*
X00426380Y-00358685D01*
X00400789Y-00358685D02*
X00387010Y-00358685D01*
X00590552Y-00492126D02*
G03*
X00688977Y-00393701I00000000J00098425D01*
G01*
X00688977Y00393701D02*
G03*
X00590552Y00492126I-00098425J00000000D01*
G01*
D12*
X-00491809Y-00375561D02*
G03*
X-00457151Y-00368194I00017329J00003684D01*
G01*
X-00456978Y-00369055D02*
G03*
X-00470229Y-00330680I-00133572J-00024645D01*
G01*
X-00498150Y-00354445D02*
G03*
X-00470229Y-00330680I-00002640J00031385D01*
G01*
X-00491809Y-00375561D02*
G03*
X-00497752Y-00355396I-00098741J-00018140D01*
G01*
X-00527529Y-00273379D02*
G03*
X-00551295Y-00301300I00007620J-00030561D01*
G01*
X-00552246Y-00300902D02*
G03*
X-00572411Y-00294959I-00038305J-00092799D01*
G01*
X-00565044Y-00260301D02*
G03*
X-00572411Y-00294960I-00003684J-00017329D01*
G01*
X-00527529Y-00273379D02*
G03*
X-00565905Y-00260129I-00063021J-00120321D01*
G01*
X-00444882Y00112205D02*
X-00413386Y00112205D01*
X-00470227Y00330680D02*
G03*
X-00498148Y00354445I-00030561J-00007620D01*
G01*
X-00497752Y00355396D02*
G03*
X-00491810Y00375561I-00092799J00038305D01*
G01*
X-00457159Y00368194D02*
G03*
X-00491817Y00375561I-00017329J00003684D01*
G01*
X-00470230Y00330680D02*
G03*
X-00456979Y00369055I-00120321J00063021D01*
G01*
X-00551307Y00301300D02*
G03*
X-00527541Y00273379I00031385J00002640D01*
G01*
X-00565906Y00260129D02*
G03*
X-00527530Y00273379I-00024645J00133572D01*
G01*
X-00572424Y00294960D02*
G03*
X-00565057Y00260301I00003684J-00017329D01*
G01*
X-00572411Y00294959D02*
G03*
X-00552246Y00300902I-00018140J00098741D01*
G01*
X00470227Y-00330680D02*
G03*
X00498148Y-00354445I00030561J00007620D01*
G01*
X00497752Y-00355396D02*
G03*
X00491810Y-00375561I00092799J-00038305D01*
G01*
X00457159Y-00368194D02*
G03*
X00491818Y-00375561I00017329J-00003684D01*
G01*
X00470230Y-00330680D02*
G03*
X00456979Y-00369055I00120321J-00063021D01*
G01*
X00565906Y-00260129D02*
G03*
X00527530Y-00273379I00024645J-00133572D01*
G01*
X00551307Y-00301300D02*
G03*
X00527541Y-00273379I-00031385J-00002640D01*
G01*
X00572424Y-00294960D02*
G03*
X00565057Y-00260301I-00003684J00017329D01*
G01*
X00572411Y-00294959D02*
G03*
X00552246Y-00300902I00018140J-00098741D01*
G01*
X00565044Y00260308D02*
G03*
X00572411Y00294967I00003684J00017329D01*
G01*
X00552246Y00300902D02*
G03*
X00572411Y00294959I00038305J00092799D01*
G01*
X00527530Y00273377D02*
G03*
X00551295Y00301297I-00007620J00030561D01*
G01*
X00527530Y00273379D02*
G03*
X00565906Y00260129I00063021J00120321D01*
G01*
X00498151Y00354456D02*
G03*
X00470230Y00330691I00002640J-00031385D01*
G01*
X00456979Y00369055D02*
G03*
X00470230Y00330680I00133572J00024645D01*
G01*
X00491810Y00375573D02*
G03*
X00457151Y00368206I-00017329J-00003684D01*
G01*
X00491810Y00375561D02*
G03*
X00497752Y00355396I00098741J00018140D01*
G01*
D13*
X-00489969Y-00358287D02*
G03*
X-00470062Y-00341924I00005638J00013432D01*
G01*
X-00538774Y-00273212D02*
G03*
X-00555137Y-00293119I-00002931J-00014269D01*
G01*
X-00555124Y00293119D02*
G03*
X-00538761Y00273212I00013432J-00005638D01*
G01*
X-00470062Y00341924D02*
G03*
X-00489969Y00358287I-00014269J00002931D01*
G01*
X00555125Y-00293119D02*
G03*
X00538762Y-00273212I-00013432J00005638D01*
G01*
X00470062Y-00341924D02*
G03*
X00489969Y-00358287I00014269J-00002931D01*
G01*
X00538775Y00273211D02*
G03*
X00555138Y00293118I00002931J00014269D01*
G01*
X00489970Y00358274D02*
G03*
X00470063Y00341911I-00005638J-00013432D01*
G01*
D14*
X-00474591Y-00371264D02*
G03*
X-00475840Y-00365567I-00115960J-00022437D01*
G01*
X-00562417Y-00278990D02*
G03*
X-00568114Y-00277741I-00028134J-00114711D01*
G01*
X-00568114Y00277741D02*
G03*
X-00562417Y00278990I-00022437J00115960D01*
G01*
X-00475841Y00365567D02*
G03*
X-00474592Y00371264I-00114711J00028134D01*
G01*
X00475841Y-00365567D02*
G03*
X00474592Y-00371264I00114711J-00028134D01*
G01*
X00568114Y-00277741D02*
G03*
X00562418Y-00278990I00022437J-00115960D01*
G01*
X00562418Y00278990D02*
G03*
X00568114Y00277741I00028134J00114711D01*
G01*
X00474592Y00371264D02*
G03*
X00475841Y00365567I00115960J00022437D01*
G01*
D15*
X-00182663Y00345671D02*
X-00182663Y00378171D01*
X-00155104Y00378171D01*
X-00159908Y00353545D02*
G03*
X-00159908Y00353545I-00005000J00000000D01*
G01*
X-00142875Y00336793D02*
X-00116075Y00336793D01*
X-00076285Y00345671D02*
X-00076285Y00378171D01*
X-00105374Y00378171D01*
D16*
X00181889Y00396045D02*
G03*
X00181889Y00396045I-00003937J00000000D01*
G01*
D17*
X-00144685Y-00129921D02*
X-00125000Y-00129921D01*
X00111221Y-00129921D02*
X00130906Y-00129921D01*
X00130906Y-00110236D01*
X00130906Y00138779D02*
X00123032Y00146653D01*
X-00125000Y00145669D02*
X-00144685Y00145669D01*
X-00144685Y00125984D01*
X-00144685Y-00110236D02*
X-00144685Y-00129921D01*
D18*
X-00590551Y-00492126D02*
X00590552Y-00492126D01*
X00688977Y-00393700D02*
X00688977Y00216319D01*
X00688977Y00393811D01*
X00590552Y00492126D02*
X-00403543Y00492126D01*
X-00413385Y00482284D02*
X-00413385Y00472442D01*
X-00492125Y00472442D02*
X-00492125Y00482284D01*
X-00501968Y00492126D02*
X-00590551Y00492127D01*
X-00688976Y00393701D02*
X-00688976Y00274409D01*
X-00649606Y00236220D02*
X-00555117Y00236220D01*
X-00515747Y00196850D02*
X-00515730Y00169291D01*
X-00555117Y00129921D02*
X-00716535Y00129921D01*
X-00748032Y00098425D02*
X-00748032Y-00098425D01*
X-00716535Y-00129920D02*
X-00555117Y-00129920D01*
X-00515730Y-00169291D02*
X-00515747Y-00196850D01*
X-00555117Y-00236220D02*
X-00649606Y-00236220D01*
X-00688976Y-00274409D02*
X-00688976Y-00393701D01*
X-00434842Y-00416654D02*
X-00434842Y-00308654D01*
D19*
X-00499213Y-00258813D02*
X-00499213Y-00211579D01*
X-00478970Y-00211579D01*
X-00472222Y-00213828D01*
X-00469973Y-00216078D01*
X-00467723Y-00220576D01*
X-00467723Y-00225075D01*
X-00469973Y-00229573D01*
X-00472222Y-00231822D01*
X-00478970Y-00234072D01*
X-00499213Y-00234072D01*
X-00483468Y-00234072D02*
X-00467723Y-00258813D01*
M02*
