G04*
G04 #@! TF.GenerationSoftware,Altium Limited,Altium Designer,22.10.1 (41)*
G04*
G04 Layer_Color=128*
%FSAX26Y26*%
%MOIN*%
G70*
G04*
G04 #@! TF.SameCoordinates,707F0866-B51C-4875-9159-03E13B4690FC*
G04*
G04*
G04 #@! TF.FilePolarity,Positive*
G04*
G01*
G75*
%ADD11C,0.007874*%
%ADD18C,0.005118*%
G36*
X00476936Y01013612D02*
X00477214Y01013550D01*
X00477493Y01013457D01*
X00477802Y01013303D01*
X00478111Y01013117D01*
X00478420Y01012870D01*
X00478450Y01012839D01*
X00478543Y01012747D01*
X00478667Y01012592D01*
X00478821Y01012376D01*
X00478945Y01012098D01*
X00479068Y01011789D01*
X00479161Y01011418D01*
X00479192Y01011016D01*
X00479192Y01010954D01*
X00479192Y01010831D01*
X00479161Y01010645D01*
X00479099Y01010367D01*
X00479007Y01010089D01*
X00478852Y01009780D01*
X00478667Y01009471D01*
X00478420Y01009162D01*
X00478389Y01009131D01*
X00478296Y01009039D01*
X00478111Y01008915D01*
X00477894Y01008791D01*
X00477616Y01008668D01*
X00477307Y01008544D01*
X00476967Y01008452D01*
X00476566Y01008421D01*
X00476380Y01008421D01*
X00476195Y01008452D01*
X00475917Y01008513D01*
X00475639Y01008606D01*
X00475330Y01008730D01*
X00475021Y01008884D01*
X00474712Y01009131D01*
X00474681Y01009162D01*
X00474588Y01009255D01*
X00474464Y01009440D01*
X00474341Y01009657D01*
X00474217Y01009904D01*
X00474094Y01010244D01*
X00474001Y01010615D01*
X00473970Y01011016D01*
X00473970Y01011078D01*
X00473970Y01011202D01*
X00474001Y01011418D01*
X00474063Y01011665D01*
X00474155Y01011974D01*
X00474279Y01012283D01*
X00474464Y01012592D01*
X00474712Y01012870D01*
X00474743Y01012901D01*
X00474835Y01012994D01*
X00475021Y01013117D01*
X00475237Y01013272D01*
X00475515Y01013395D01*
X00475824Y01013519D01*
X00476164Y01013612D01*
X00476566Y01013643D01*
X00476751Y01013643D01*
X00476936Y01013612D01*
X00476936Y01013612D02*
G37*
G36*
X00357261Y00976964D02*
X00353244Y00976964D01*
X00353244Y00981198D01*
X00353151Y00981198D01*
X00353120Y00981136D01*
X00353027Y00980981D01*
X00352842Y00980765D01*
X00352626Y00980456D01*
X00352317Y00980085D01*
X00351977Y00979684D01*
X00351544Y00979251D01*
X00351019Y00978788D01*
X00350463Y00978324D01*
X00349814Y00977891D01*
X00349103Y00977490D01*
X00348331Y00977119D01*
X00347496Y00976810D01*
X00346569Y00976594D01*
X00345580Y00976439D01*
X00344530Y00976377D01*
X00344314Y00976377D01*
X00344066Y00976408D01*
X00343757Y00976439D01*
X00343356Y00976470D01*
X00342892Y00976563D01*
X00342367Y00976655D01*
X00341811Y00976810D01*
X00341224Y00976964D01*
X00340606Y00977212D01*
X00339988Y00977459D01*
X00339339Y00977799D01*
X00338721Y00978169D01*
X00338103Y00978633D01*
X00337516Y00979158D01*
X00336959Y00979745D01*
X00336928Y00979776D01*
X00336836Y00979900D01*
X00336712Y00980085D01*
X00336527Y00980363D01*
X00336310Y00980703D01*
X00336063Y00981105D01*
X00335816Y00981599D01*
X00335569Y00982156D01*
X00335291Y00982774D01*
X00335044Y00983453D01*
X00334796Y00984226D01*
X00334580Y00985029D01*
X00334395Y00985894D01*
X00334271Y00986852D01*
X00334178Y00987841D01*
X00334147Y00988892D01*
X00334147Y00988923D01*
X00334147Y00988954D01*
X00334147Y00989046D01*
X00334147Y00989170D01*
X00334178Y00989479D01*
X00334209Y00989912D01*
X00334240Y00990468D01*
X00334302Y00991055D01*
X00334395Y00991735D01*
X00334549Y00992476D01*
X00334704Y00993249D01*
X00334920Y00994083D01*
X00335167Y00994886D01*
X00335476Y00995752D01*
X00335816Y00996555D01*
X00336249Y00997358D01*
X00336712Y00998131D01*
X00337268Y00998872D01*
X00337299Y00998903D01*
X00337423Y00999027D01*
X00337608Y00999212D01*
X00337856Y00999460D01*
X00338164Y00999738D01*
X00338535Y01000078D01*
X00338999Y01000418D01*
X00339493Y01000757D01*
X00340080Y01001097D01*
X00340698Y01001437D01*
X00341378Y01001777D01*
X00342120Y01002055D01*
X00342923Y01002302D01*
X00343788Y01002488D01*
X00344684Y01002611D01*
X00345642Y01002642D01*
X00345859Y01002642D01*
X00346137Y01002611D01*
X00346477Y01002581D01*
X00346909Y01002519D01*
X00347404Y01002426D01*
X00347929Y01002302D01*
X00348516Y01002148D01*
X00349134Y01001932D01*
X00349752Y01001654D01*
X00350370Y01001314D01*
X00350988Y01000912D01*
X00351575Y01000448D01*
X00352162Y00999923D01*
X00352688Y00999274D01*
X00353151Y00998563D01*
X00353244Y00998563D01*
X00353244Y01014106D01*
X00357261Y01014106D01*
X00357261Y00976964D01*
X00357261Y00976964D02*
G37*
G36*
X00499401Y01002611D02*
X00499679Y01002611D01*
X00500019Y01002550D01*
X00500420Y01002488D01*
X00500853Y01002426D01*
X00501317Y01002302D01*
X00501811Y01002179D01*
X00502336Y01001993D01*
X00502861Y01001777D01*
X00503387Y01001499D01*
X00503881Y01001190D01*
X00504376Y01000850D01*
X00504839Y01000418D01*
X00505272Y00999954D01*
X00505303Y00999923D01*
X00505364Y00999830D01*
X00505488Y00999676D01*
X00505612Y00999460D01*
X00505766Y00999182D01*
X00505952Y00998842D01*
X00506168Y00998440D01*
X00506384Y00998007D01*
X00506570Y00997482D01*
X00506786Y00996926D01*
X00506971Y00996277D01*
X00507126Y00995597D01*
X00507249Y00994856D01*
X00507373Y00994052D01*
X00507435Y00993218D01*
X00507466Y00992291D01*
X00507466Y00976964D01*
X00503449Y00976964D01*
X00503449Y00991271D01*
X00503449Y00991302D01*
X00503449Y00991364D01*
X00503449Y00991457D01*
X00503449Y00991611D01*
X00503418Y00991796D01*
X00503418Y00992013D01*
X00503356Y00992507D01*
X00503263Y00993125D01*
X00503140Y00993805D01*
X00502954Y00994516D01*
X00502707Y00995257D01*
X00502398Y00995999D01*
X00502027Y00996710D01*
X00501564Y00997389D01*
X00500977Y00998007D01*
X00500328Y00998502D01*
X00499957Y00998718D01*
X00499524Y00998903D01*
X00499092Y00999058D01*
X00498628Y00999151D01*
X00498134Y00999212D01*
X00497608Y00999243D01*
X00497330Y00999243D01*
X00497114Y00999212D01*
X00496867Y00999182D01*
X00496558Y00999120D01*
X00496218Y00999058D01*
X00495878Y00998965D01*
X00495476Y00998842D01*
X00495075Y00998687D01*
X00494673Y00998502D01*
X00494240Y00998285D01*
X00493839Y00998007D01*
X00493406Y00997698D01*
X00493004Y00997358D01*
X00492634Y00996957D01*
X00492603Y00996926D01*
X00492541Y00996864D01*
X00492448Y00996740D01*
X00492325Y00996555D01*
X00492170Y00996339D01*
X00492016Y00996061D01*
X00491830Y00995752D01*
X00491645Y00995412D01*
X00491459Y00995010D01*
X00491274Y00994577D01*
X00491120Y00994114D01*
X00490965Y00993620D01*
X00490841Y00993063D01*
X00490749Y00992507D01*
X00490687Y00991889D01*
X00490656Y00991271D01*
X00490656Y00976964D01*
X00486639Y00976964D01*
X00486639Y01002055D01*
X00490656Y01002055D01*
X00490656Y00997884D01*
X00490749Y00997884D01*
X00490780Y00997946D01*
X00490872Y00998100D01*
X00491058Y00998316D01*
X00491274Y00998625D01*
X00491583Y00998996D01*
X00491923Y00999398D01*
X00492356Y00999830D01*
X00492850Y01000263D01*
X00493406Y01000696D01*
X00494024Y01001128D01*
X00494704Y01001530D01*
X00495415Y01001901D01*
X00496218Y01002210D01*
X00497083Y01002426D01*
X00498010Y01002581D01*
X00498999Y01002642D01*
X00499184Y01002642D01*
X00499401Y01002611D01*
X00499401Y01002611D02*
G37*
G36*
X00329636Y01002457D02*
X00329976Y01002457D01*
X00330347Y01002395D01*
X00330748Y01002333D01*
X00331150Y01002271D01*
X00331490Y01002148D01*
X00331490Y00997976D01*
X00331428Y00998007D01*
X00331305Y00998100D01*
X00331058Y00998224D01*
X00330718Y00998378D01*
X00330254Y00998533D01*
X00329760Y00998656D01*
X00329142Y00998749D01*
X00328431Y00998780D01*
X00328184Y00998780D01*
X00327998Y00998749D01*
X00327782Y00998718D01*
X00327535Y00998656D01*
X00326948Y00998471D01*
X00326608Y00998347D01*
X00326268Y00998193D01*
X00325897Y00997976D01*
X00325526Y00997760D01*
X00325187Y00997482D01*
X00324816Y00997142D01*
X00324476Y00996771D01*
X00324136Y00996339D01*
X00324105Y00996308D01*
X00324074Y00996215D01*
X00323981Y00996091D01*
X00323858Y00995906D01*
X00323734Y00995659D01*
X00323580Y00995350D01*
X00323425Y00995010D01*
X00323271Y00994608D01*
X00323116Y00994176D01*
X00322962Y00993681D01*
X00322807Y00993125D01*
X00322684Y00992538D01*
X00322560Y00991889D01*
X00322467Y00991209D01*
X00322436Y00990499D01*
X00322406Y00989726D01*
X00322406Y00976964D01*
X00318389Y00976964D01*
X00318389Y01002055D01*
X00322406Y01002055D01*
X00322406Y00996864D01*
X00322498Y00996864D01*
X00322498Y00996895D01*
X00322529Y00996988D01*
X00322591Y00997111D01*
X00322653Y00997297D01*
X00322745Y00997513D01*
X00322869Y00997791D01*
X00323147Y00998378D01*
X00323518Y00999058D01*
X00323981Y00999738D01*
X00324507Y01000387D01*
X00325125Y01001005D01*
X00325156Y01001035D01*
X00325217Y01001066D01*
X00325310Y01001128D01*
X00325434Y01001252D01*
X00325588Y01001345D01*
X00325805Y01001468D01*
X00326268Y01001746D01*
X00326855Y01002024D01*
X00327535Y01002271D01*
X00328276Y01002426D01*
X00328678Y01002457D01*
X00329080Y01002488D01*
X00329327Y01002488D01*
X00329636Y01002457D01*
X00329636Y01002457D02*
G37*
G36*
X00437261Y00976964D02*
X00433244Y00976964D01*
X00433244Y00980920D01*
X00433151Y00980920D01*
X00433120Y00980858D01*
X00433027Y00980734D01*
X00432873Y00980487D01*
X00432688Y00980209D01*
X00432409Y00979869D01*
X00432070Y00979498D01*
X00431699Y00979066D01*
X00431235Y00978664D01*
X00430741Y00978231D01*
X00430154Y00977830D01*
X00429536Y00977428D01*
X00428825Y00977088D01*
X00428053Y00976810D01*
X00427249Y00976563D01*
X00426353Y00976439D01*
X00425395Y00976377D01*
X00425179Y00976377D01*
X00425024Y00976408D01*
X00424808Y00976408D01*
X00424561Y00976439D01*
X00424283Y00976501D01*
X00424005Y00976532D01*
X00423325Y00976717D01*
X00422552Y00976933D01*
X00421749Y00977273D01*
X00421347Y00977490D01*
X00420915Y00977706D01*
X00420482Y00977984D01*
X00420080Y00978262D01*
X00419679Y00978602D01*
X00419277Y00978973D01*
X00418875Y00979405D01*
X00418505Y00979838D01*
X00418165Y00980332D01*
X00417825Y00980889D01*
X00417547Y00981476D01*
X00417269Y00982094D01*
X00417021Y00982774D01*
X00416805Y00983515D01*
X00416651Y00984319D01*
X00416527Y00985153D01*
X00416465Y00986080D01*
X00416434Y00987038D01*
X00416434Y01002055D01*
X00420420Y01002055D01*
X00420420Y00987687D01*
X00420420Y00987656D01*
X00420420Y00987594D01*
X00420420Y00987501D01*
X00420420Y00987347D01*
X00420451Y00987161D01*
X00420451Y00986945D01*
X00420513Y00986451D01*
X00420606Y00985833D01*
X00420729Y00985184D01*
X00420946Y00984442D01*
X00421193Y00983731D01*
X00421502Y00982990D01*
X00421904Y00982248D01*
X00422398Y00981599D01*
X00422985Y00980981D01*
X00423696Y00980487D01*
X00424067Y00980271D01*
X00424499Y00980085D01*
X00424963Y00979931D01*
X00425426Y00979838D01*
X00425951Y00979776D01*
X00426508Y00979745D01*
X00426786Y00979745D01*
X00427002Y00979776D01*
X00427249Y00979807D01*
X00427527Y00979869D01*
X00427867Y00979931D01*
X00428207Y00980024D01*
X00428578Y00980116D01*
X00428980Y00980271D01*
X00429381Y00980456D01*
X00429783Y00980672D01*
X00430185Y00980920D01*
X00430586Y00981198D01*
X00430957Y00981538D01*
X00431328Y00981908D01*
X00431359Y00981939D01*
X00431421Y00982001D01*
X00431513Y00982125D01*
X00431637Y00982310D01*
X00431761Y00982526D01*
X00431946Y00982774D01*
X00432101Y00983083D01*
X00432286Y00983423D01*
X00432471Y00983824D01*
X00432626Y00984257D01*
X00432811Y00984720D01*
X00432935Y00985215D01*
X00433058Y00985771D01*
X00433151Y00986327D01*
X00433213Y00986945D01*
X00433244Y00987594D01*
X00433244Y01002055D01*
X00437261Y01002055D01*
X00437261Y00976964D01*
X00437261Y00976964D02*
G37*
G36*
X00478512Y00976964D02*
X00474495Y00976964D01*
X00474495Y01002055D01*
X00478512Y01002055D01*
X00478512Y00976964D01*
X00478512Y00976964D02*
G37*
G36*
X00466369Y00976964D02*
X00462352Y00976964D01*
X00462352Y01014106D01*
X00466369Y01014106D01*
X00466369Y00976964D01*
X00466369Y00976964D02*
G37*
G36*
X00302351Y01002611D02*
X00302568Y01002611D01*
X00302784Y01002581D01*
X00303062Y01002550D01*
X00303371Y01002488D01*
X00304020Y01002364D01*
X00304793Y01002148D01*
X00305565Y01001870D01*
X00306399Y01001468D01*
X00307234Y01000974D01*
X00307635Y01000696D01*
X00308037Y01000356D01*
X00308408Y00999985D01*
X00308779Y00999614D01*
X00309118Y00999182D01*
X00309428Y00998687D01*
X00309736Y00998193D01*
X00310015Y00997636D01*
X00310231Y00997019D01*
X00310447Y00996370D01*
X00310602Y00995690D01*
X00310725Y00994917D01*
X00310787Y00994145D01*
X00310818Y00993280D01*
X00310818Y00976964D01*
X00306801Y00976964D01*
X00306801Y00980858D01*
X00306708Y00980858D01*
X00306677Y00980796D01*
X00306585Y00980672D01*
X00306430Y00980456D01*
X00306214Y00980147D01*
X00305936Y00979807D01*
X00305596Y00979436D01*
X00305225Y00979035D01*
X00304762Y00978633D01*
X00304236Y00978200D01*
X00303680Y00977799D01*
X00303031Y00977428D01*
X00302351Y00977088D01*
X00301579Y00976779D01*
X00300776Y00976563D01*
X00299910Y00976439D01*
X00298983Y00976377D01*
X00298613Y00976377D01*
X00298365Y00976408D01*
X00298056Y00976439D01*
X00297685Y00976470D01*
X00297284Y00976532D01*
X00296851Y00976625D01*
X00295893Y00976872D01*
X00295430Y00977026D01*
X00294935Y00977212D01*
X00294441Y00977428D01*
X00293978Y00977706D01*
X00293545Y00978015D01*
X00293112Y00978355D01*
X00293081Y00978386D01*
X00293020Y00978448D01*
X00292927Y00978571D01*
X00292772Y00978726D01*
X00292618Y00978911D01*
X00292463Y00979158D01*
X00292247Y00979436D01*
X00292062Y00979745D01*
X00291876Y00980116D01*
X00291691Y00980518D01*
X00291505Y00980951D01*
X00291351Y00981414D01*
X00291197Y00981908D01*
X00291104Y00982434D01*
X00291042Y00983021D01*
X00291011Y00983608D01*
X00291011Y00983639D01*
X00291011Y00983701D01*
X00291011Y00983793D01*
X00291042Y00983917D01*
X00291042Y00984071D01*
X00291073Y00984257D01*
X00291135Y00984720D01*
X00291258Y00985277D01*
X00291444Y00985894D01*
X00291691Y00986574D01*
X00292062Y00987285D01*
X00292494Y00987996D01*
X00293020Y00988706D01*
X00293360Y00989046D01*
X00293699Y00989386D01*
X00294101Y00989726D01*
X00294503Y00990035D01*
X00294966Y00990344D01*
X00295461Y00990622D01*
X00295986Y00990869D01*
X00296573Y00991117D01*
X00297191Y00991333D01*
X00297840Y00991518D01*
X00298551Y00991673D01*
X00299292Y00991796D01*
X00306801Y00992847D01*
X00306801Y00992878D01*
X00306801Y00992909D01*
X00306801Y00993001D01*
X00306801Y00993125D01*
X00306770Y00993434D01*
X00306708Y00993836D01*
X00306647Y00994330D01*
X00306523Y00994886D01*
X00306368Y00995443D01*
X00306152Y00996061D01*
X00305874Y00996648D01*
X00305534Y00997235D01*
X00305132Y00997760D01*
X00304638Y00998255D01*
X00304020Y00998656D01*
X00303340Y00998965D01*
X00302969Y00999089D01*
X00302537Y00999182D01*
X00302104Y00999212D01*
X00301641Y00999243D01*
X00301424Y00999243D01*
X00301208Y00999212D01*
X00300868Y00999182D01*
X00300466Y00999151D01*
X00300003Y00999089D01*
X00299478Y00998996D01*
X00298921Y00998872D01*
X00298303Y00998687D01*
X00297655Y00998502D01*
X00296975Y00998255D01*
X00296264Y00997946D01*
X00295553Y00997575D01*
X00294843Y00997173D01*
X00294132Y00996710D01*
X00293452Y00996153D01*
X00293452Y01000263D01*
X00293483Y01000294D01*
X00293607Y01000356D01*
X00293823Y01000479D01*
X00294101Y01000634D01*
X00294472Y01000819D01*
X00294874Y01001005D01*
X00295368Y01001221D01*
X00295924Y01001468D01*
X00296511Y01001684D01*
X00297160Y01001901D01*
X00297871Y01002086D01*
X00298613Y01002271D01*
X00299416Y01002426D01*
X00300219Y01002550D01*
X00301084Y01002611D01*
X00301981Y01002642D01*
X00302197Y01002642D01*
X00302351Y01002611D01*
X00302351Y01002611D02*
G37*
G36*
X00245990Y01012067D02*
X00246361Y01012036D01*
X00246793Y01011974D01*
X00247288Y01011912D01*
X00247844Y01011820D01*
X00248400Y01011696D01*
X00248987Y01011542D01*
X00249605Y01011356D01*
X00250192Y01011140D01*
X00250810Y01010893D01*
X00251366Y01010584D01*
X00251923Y01010244D01*
X00252448Y01009842D01*
X00252479Y01009811D01*
X00252571Y01009749D01*
X00252695Y01009626D01*
X00252850Y01009440D01*
X00253066Y01009224D01*
X00253282Y01008946D01*
X00253529Y01008637D01*
X00253777Y01008297D01*
X00254024Y01007895D01*
X00254271Y01007463D01*
X00254487Y01006968D01*
X00254704Y01006474D01*
X00254858Y01005918D01*
X00254982Y01005331D01*
X00255074Y01004713D01*
X00255105Y01004064D01*
X00255105Y01004033D01*
X00255105Y01003940D01*
X00255105Y01003786D01*
X00255074Y01003569D01*
X00255043Y01003291D01*
X00255013Y01003013D01*
X00254982Y01002673D01*
X00254920Y01002302D01*
X00254704Y01001468D01*
X00254425Y01000603D01*
X00254240Y01000139D01*
X00254024Y00999707D01*
X00253777Y00999274D01*
X00253499Y00998842D01*
X00253468Y00998811D01*
X00253437Y00998749D01*
X00253344Y00998625D01*
X00253190Y00998471D01*
X00253035Y00998316D01*
X00252850Y00998100D01*
X00252602Y00997884D01*
X00252355Y00997636D01*
X00252046Y00997389D01*
X00251706Y00997111D01*
X00251335Y00996864D01*
X00250934Y00996586D01*
X00250501Y00996339D01*
X00250069Y00996122D01*
X00249049Y00995721D01*
X00249049Y00995628D01*
X00249080Y00995628D01*
X00249203Y00995597D01*
X00249389Y00995566D01*
X00249636Y00995535D01*
X00249945Y00995473D01*
X00250285Y00995381D01*
X00250687Y00995257D01*
X00251088Y00995134D01*
X00251984Y00994794D01*
X00252479Y00994577D01*
X00252942Y00994299D01*
X00253406Y00994021D01*
X00253869Y00993712D01*
X00254333Y00993341D01*
X00254734Y00992940D01*
X00254765Y00992909D01*
X00254827Y00992847D01*
X00254920Y00992723D01*
X00255074Y00992538D01*
X00255229Y00992291D01*
X00255414Y00992044D01*
X00255600Y00991704D01*
X00255816Y00991364D01*
X00256001Y00990962D01*
X00256187Y00990499D01*
X00256372Y00990035D01*
X00256527Y00989510D01*
X00256681Y00988923D01*
X00256774Y00988336D01*
X00256836Y00987718D01*
X00256867Y00987038D01*
X00256867Y00986976D01*
X00256867Y00986852D01*
X00256836Y00986605D01*
X00256805Y00986296D01*
X00256774Y00985894D01*
X00256681Y00985462D01*
X00256589Y00984967D01*
X00256465Y00984442D01*
X00256279Y00983855D01*
X00256063Y00983268D01*
X00255816Y00982681D01*
X00255507Y00982063D01*
X00255136Y00981445D01*
X00254704Y00980858D01*
X00254209Y00980302D01*
X00253622Y00979745D01*
X00253591Y00979715D01*
X00253468Y00979622D01*
X00253282Y00979498D01*
X00253035Y00979313D01*
X00252726Y00979096D01*
X00252324Y00978880D01*
X00251892Y00978602D01*
X00251397Y00978355D01*
X00250810Y00978108D01*
X00250192Y00977861D01*
X00249543Y00977613D01*
X00248802Y00977397D01*
X00248029Y00977212D01*
X00247226Y00977088D01*
X00246361Y00976995D01*
X00245464Y00976964D01*
X00235237Y00976964D01*
X00235237Y01012098D01*
X00245650Y01012098D01*
X00245990Y01012067D01*
X00245990Y01012067D02*
G37*
G36*
X00450671Y01002055D02*
X00457006Y01002055D01*
X00457006Y00998594D01*
X00450671Y00998594D01*
X00450671Y00984473D01*
X00450671Y00984442D01*
X00450671Y00984350D01*
X00450671Y00984226D01*
X00450671Y00984071D01*
X00450702Y00983855D01*
X00450733Y00983608D01*
X00450795Y00983083D01*
X00450888Y00982465D01*
X00451042Y00981878D01*
X00451259Y00981321D01*
X00451382Y00981074D01*
X00451537Y00980858D01*
X00451567Y00980827D01*
X00451691Y00980703D01*
X00451907Y00980518D01*
X00452216Y00980332D01*
X00452618Y00980116D01*
X00453113Y00979962D01*
X00453700Y00979838D01*
X00454379Y00979776D01*
X00454627Y00979776D01*
X00454905Y00979807D01*
X00455276Y00979869D01*
X00455677Y00979993D01*
X00456141Y00980116D01*
X00456573Y00980332D01*
X00457006Y00980611D01*
X00457006Y00977181D01*
X00456975Y00977181D01*
X00456944Y00977150D01*
X00456851Y00977119D01*
X00456759Y00977057D01*
X00456419Y00976933D01*
X00456017Y00976810D01*
X00455461Y00976686D01*
X00454812Y00976563D01*
X00454070Y00976470D01*
X00453236Y00976439D01*
X00452958Y00976439D01*
X00452618Y00976501D01*
X00452216Y00976563D01*
X00451722Y00976655D01*
X00451166Y00976841D01*
X00450548Y00977057D01*
X00449961Y00977366D01*
X00449343Y00977737D01*
X00448725Y00978231D01*
X00448168Y00978818D01*
X00447921Y00979158D01*
X00447674Y00979529D01*
X00447458Y00979931D01*
X00447272Y00980363D01*
X00447087Y00980827D01*
X00446933Y00981352D01*
X00446809Y00981878D01*
X00446716Y00982465D01*
X00446685Y00983083D01*
X00446654Y00983762D01*
X00446654Y00998594D01*
X00442359Y00998594D01*
X00442359Y01002055D01*
X00446654Y01002055D01*
X00446654Y01008173D01*
X00450671Y01009471D01*
X00450671Y01002055D01*
X00450671Y01002055D02*
G37*
G36*
X00525357Y01002611D02*
X00525697Y01002581D01*
X00526129Y01002550D01*
X00526593Y01002488D01*
X00527118Y01002364D01*
X00527674Y01002241D01*
X00528292Y01002086D01*
X00528910Y01001870D01*
X00529528Y01001592D01*
X00530177Y01001283D01*
X00530795Y01000912D01*
X00531382Y01000479D01*
X00531969Y00999985D01*
X00532495Y00999429D01*
X00532525Y00999398D01*
X00532618Y00999274D01*
X00532742Y00999089D01*
X00532927Y00998842D01*
X00533113Y00998533D01*
X00533360Y00998131D01*
X00533607Y00997667D01*
X00533854Y00997142D01*
X00534101Y00996524D01*
X00534349Y00995875D01*
X00534596Y00995134D01*
X00534781Y00994361D01*
X00534967Y00993496D01*
X00535090Y00992600D01*
X00535183Y00991611D01*
X00535214Y00990591D01*
X00535214Y00988490D01*
X00517477Y00988490D01*
X00517477Y00988428D01*
X00517477Y00988305D01*
X00517508Y00988088D01*
X00517539Y00987810D01*
X00517570Y00987439D01*
X00517632Y00987038D01*
X00517693Y00986605D01*
X00517817Y00986111D01*
X00518095Y00985060D01*
X00518281Y00984535D01*
X00518497Y00983979D01*
X00518744Y00983453D01*
X00519022Y00982928D01*
X00519362Y00982465D01*
X00519733Y00982001D01*
X00519764Y00981970D01*
X00519826Y00981908D01*
X00519949Y00981785D01*
X00520135Y00981661D01*
X00520351Y00981476D01*
X00520629Y00981290D01*
X00520938Y00981074D01*
X00521278Y00980889D01*
X00521680Y00980672D01*
X00522143Y00980456D01*
X00522607Y00980271D01*
X00523163Y00980085D01*
X00523719Y00979962D01*
X00524337Y00979838D01*
X00524986Y00979776D01*
X00525666Y00979745D01*
X00525851Y00979745D01*
X00526067Y00979776D01*
X00526376Y00979776D01*
X00526747Y00979838D01*
X00527180Y00979900D01*
X00527674Y00979993D01*
X00528230Y00980085D01*
X00528817Y00980240D01*
X00529436Y00980425D01*
X00530084Y00980641D01*
X00530733Y00980920D01*
X00531413Y00981229D01*
X00532093Y00981599D01*
X00532773Y00982032D01*
X00533452Y00982526D01*
X00533452Y00978757D01*
X00533422Y00978726D01*
X00533298Y00978664D01*
X00533113Y00978540D01*
X00532865Y00978386D01*
X00532525Y00978200D01*
X00532124Y00978015D01*
X00531660Y00977799D01*
X00531135Y00977582D01*
X00530517Y00977335D01*
X00529868Y00977119D01*
X00529157Y00976933D01*
X00528385Y00976748D01*
X00527551Y00976594D01*
X00526654Y00976470D01*
X00525697Y00976408D01*
X00524708Y00976377D01*
X00524461Y00976377D01*
X00524213Y00976408D01*
X00523843Y00976439D01*
X00523379Y00976470D01*
X00522854Y00976563D01*
X00522298Y00976655D01*
X00521680Y00976810D01*
X00521031Y00976995D01*
X00520351Y00977212D01*
X00519640Y00977490D01*
X00518960Y00977799D01*
X00518250Y00978200D01*
X00517601Y00978664D01*
X00516952Y00979189D01*
X00516365Y00979776D01*
X00516334Y00979807D01*
X00516241Y00979931D01*
X00516087Y00980147D01*
X00515901Y00980425D01*
X00515654Y00980765D01*
X00515407Y00981198D01*
X00515129Y00981692D01*
X00514851Y00982279D01*
X00514573Y00982897D01*
X00514294Y00983639D01*
X00514047Y00984411D01*
X00513800Y00985277D01*
X00513615Y00986203D01*
X00513460Y00987192D01*
X00513367Y00988274D01*
X00513337Y00989386D01*
X00513337Y00989417D01*
X00513337Y00989448D01*
X00513337Y00989541D01*
X00513337Y00989633D01*
X00513367Y00989942D01*
X00513398Y00990375D01*
X00513429Y00990869D01*
X00513522Y00991426D01*
X00513615Y00992074D01*
X00513738Y00992785D01*
X00513924Y00993527D01*
X00514140Y00994299D01*
X00514418Y00995103D01*
X00514727Y00995906D01*
X00515098Y00996679D01*
X00515561Y00997482D01*
X00516056Y00998224D01*
X00516643Y00998934D01*
X00516674Y00998965D01*
X00516797Y00999089D01*
X00516983Y00999274D01*
X00517230Y00999521D01*
X00517570Y00999799D01*
X00517972Y01000109D01*
X00518404Y01000448D01*
X00518929Y01000788D01*
X00519486Y01001128D01*
X00520135Y01001468D01*
X00520814Y01001777D01*
X00521525Y01002055D01*
X00522298Y01002302D01*
X00523132Y01002488D01*
X00523997Y01002611D01*
X00524893Y01002642D01*
X00525110Y01002642D01*
X00525357Y01002611D01*
X00525357Y01002611D02*
G37*
G36*
X00394928Y01012654D02*
X00395144Y01012654D01*
X00395360Y01012623D01*
X00395639Y01012623D01*
X00396257Y01012530D01*
X00396967Y01012438D01*
X00397771Y01012283D01*
X00398636Y01012067D01*
X00399532Y01011820D01*
X00400490Y01011480D01*
X00401448Y01011078D01*
X00402437Y01010615D01*
X00403425Y01010058D01*
X00404352Y01009409D01*
X00405279Y01008637D01*
X00406144Y01007772D01*
X00406206Y01007710D01*
X00406330Y01007555D01*
X00406546Y01007277D01*
X00406855Y01006876D01*
X00407164Y01006381D01*
X00407566Y01005794D01*
X00407968Y01005114D01*
X00408369Y01004342D01*
X00408771Y01003446D01*
X00409173Y01002488D01*
X00409574Y01001437D01*
X00409914Y01000294D01*
X00410192Y00999058D01*
X00410409Y00997760D01*
X00410532Y00996400D01*
X00410594Y00994948D01*
X00410594Y00994917D01*
X00410594Y00994856D01*
X00410594Y00994732D01*
X00410594Y00994577D01*
X00410563Y00994361D01*
X00410563Y00994114D01*
X00410532Y00993836D01*
X00410532Y00993527D01*
X00410501Y00993187D01*
X00410471Y00992816D01*
X00410347Y00991982D01*
X00410223Y00991024D01*
X00410038Y00990035D01*
X00409791Y00988954D01*
X00409482Y00987841D01*
X00409111Y00986729D01*
X00408678Y00985586D01*
X00408153Y00984473D01*
X00407535Y00983361D01*
X00406824Y00982341D01*
X00406021Y00981352D01*
X00405959Y00981290D01*
X00405805Y00981136D01*
X00405557Y00980889D01*
X00405187Y00980580D01*
X00404723Y00980209D01*
X00404167Y00979776D01*
X00403549Y00979344D01*
X00402807Y00978880D01*
X00401973Y00978417D01*
X00401046Y00977953D01*
X00400057Y00977521D01*
X00398976Y00977150D01*
X00397801Y00976841D01*
X00396565Y00976594D01*
X00395237Y00976439D01*
X00393846Y00976377D01*
X00393506Y00976377D01*
X00393352Y00976408D01*
X00393136Y00976408D01*
X00392888Y00976439D01*
X00392610Y00976470D01*
X00391961Y00976532D01*
X00391251Y00976625D01*
X00390416Y00976779D01*
X00389551Y00976995D01*
X00388593Y00977242D01*
X00387635Y00977582D01*
X00386647Y00977984D01*
X00385627Y00978448D01*
X00384638Y00979004D01*
X00383680Y00979684D01*
X00382722Y00980425D01*
X00381857Y00981290D01*
X00381795Y00981352D01*
X00381672Y00981507D01*
X00381455Y00981785D01*
X00381146Y00982187D01*
X00380807Y00982681D01*
X00380436Y00983268D01*
X00380034Y00983948D01*
X00379632Y00984751D01*
X00379200Y00985616D01*
X00378798Y00986574D01*
X00378427Y00987625D01*
X00378087Y00988768D01*
X00377778Y00990004D01*
X00377562Y00991302D01*
X00377438Y00992662D01*
X00377377Y00994114D01*
X00377377Y00994145D01*
X00377377Y00994207D01*
X00377377Y00994330D01*
X00377377Y00994485D01*
X00377408Y00994701D01*
X00377408Y00994917D01*
X00377438Y00995195D01*
X00377438Y00995504D01*
X00377469Y00995844D01*
X00377531Y00996246D01*
X00377624Y00997049D01*
X00377747Y00997976D01*
X00377964Y00998965D01*
X00378180Y01000047D01*
X00378489Y01001128D01*
X00378860Y01002241D01*
X00379292Y01003384D01*
X00379818Y01004496D01*
X00380436Y01005578D01*
X00381146Y01006628D01*
X00381950Y01007617D01*
X00382012Y01007679D01*
X00382166Y01007833D01*
X00382413Y01008081D01*
X00382784Y01008421D01*
X00383248Y01008791D01*
X00383835Y01009224D01*
X00384484Y01009688D01*
X00385225Y01010151D01*
X00386090Y01010615D01*
X00387017Y01011078D01*
X00388037Y01011511D01*
X00389149Y01011881D01*
X00390355Y01012221D01*
X00391622Y01012468D01*
X00392981Y01012623D01*
X00394433Y01012685D01*
X00394742Y01012685D01*
X00394928Y01012654D01*
X00394928Y01012654D02*
G37*
G36*
X00275067Y01002611D02*
X00275468Y01002581D01*
X00275932Y01002550D01*
X00276488Y01002457D01*
X00277075Y01002364D01*
X00277724Y01002210D01*
X00278435Y01002024D01*
X00279146Y01001808D01*
X00279856Y01001530D01*
X00280598Y01001190D01*
X00281308Y01000788D01*
X00282019Y01000325D01*
X00282668Y00999799D01*
X00283286Y00999182D01*
X00283317Y00999151D01*
X00283410Y00999027D01*
X00283564Y00998811D01*
X00283781Y00998533D01*
X00284028Y00998193D01*
X00284275Y00997760D01*
X00284584Y00997266D01*
X00284862Y00996679D01*
X00285171Y00996030D01*
X00285449Y00995319D01*
X00285696Y00994547D01*
X00285943Y00993681D01*
X00286160Y00992754D01*
X00286314Y00991765D01*
X00286407Y00990715D01*
X00286438Y00989602D01*
X00286438Y00989572D01*
X00286438Y00989541D01*
X00286438Y00989448D01*
X00286438Y00989324D01*
X00286407Y00989015D01*
X00286376Y00988614D01*
X00286345Y00988088D01*
X00286252Y00987501D01*
X00286160Y00986852D01*
X00286005Y00986142D01*
X00285820Y00985400D01*
X00285604Y00984597D01*
X00285325Y00983793D01*
X00285017Y00982990D01*
X00284615Y00982187D01*
X00284151Y00981414D01*
X00283626Y00980672D01*
X00283039Y00979962D01*
X00283008Y00979931D01*
X00282884Y00979807D01*
X00282699Y00979622D01*
X00282421Y00979405D01*
X00282081Y00979127D01*
X00281679Y00978818D01*
X00281185Y00978509D01*
X00280629Y00978169D01*
X00280011Y00977830D01*
X00279331Y00977521D01*
X00278589Y00977212D01*
X00277786Y00976933D01*
X00276890Y00976717D01*
X00275963Y00976532D01*
X00275005Y00976408D01*
X00273954Y00976377D01*
X00273707Y00976377D01*
X00273429Y00976408D01*
X00273027Y00976439D01*
X00272564Y00976470D01*
X00272008Y00976563D01*
X00271421Y00976655D01*
X00270772Y00976810D01*
X00270061Y00976995D01*
X00269350Y00977242D01*
X00268609Y00977521D01*
X00267867Y00977861D01*
X00267125Y00978262D01*
X00266384Y00978726D01*
X00265704Y00979251D01*
X00265055Y00979869D01*
X00265024Y00979900D01*
X00264901Y00980024D01*
X00264746Y00980240D01*
X00264530Y00980518D01*
X00264283Y00980858D01*
X00264005Y00981290D01*
X00263726Y00981785D01*
X00263417Y00982372D01*
X00263108Y00982990D01*
X00262799Y00983701D01*
X00262521Y00984473D01*
X00262274Y00985307D01*
X00262058Y00986173D01*
X00261903Y00987130D01*
X00261780Y00988150D01*
X00261749Y00989201D01*
X00261749Y00989232D01*
X00261749Y00989263D01*
X00261749Y00989355D01*
X00261749Y00989479D01*
X00261780Y00989819D01*
X00261811Y00990251D01*
X00261841Y00990777D01*
X00261934Y00991395D01*
X00262027Y00992074D01*
X00262181Y00992816D01*
X00262367Y00993589D01*
X00262583Y00994392D01*
X00262861Y00995226D01*
X00263201Y00996061D01*
X00263603Y00996864D01*
X00264035Y00997636D01*
X00264561Y00998378D01*
X00265179Y00999089D01*
X00265210Y00999120D01*
X00265333Y00999243D01*
X00265550Y00999429D01*
X00265828Y00999645D01*
X00266168Y00999923D01*
X00266600Y01000201D01*
X00267094Y01000541D01*
X00267651Y01000881D01*
X00268269Y01001190D01*
X00268979Y01001530D01*
X00269752Y01001808D01*
X00270586Y01002086D01*
X00271482Y01002302D01*
X00272440Y01002488D01*
X00273460Y01002611D01*
X00274541Y01002642D01*
X00274789Y01002642D01*
X00275067Y01002611D01*
X00275067Y01002611D02*
G37*
G36*
X-00052967Y00944540D02*
X-00052688Y00944540D01*
X-00052349Y00944510D01*
X-00051978Y00944479D01*
X-00051576Y00944417D01*
X-00050649Y00944293D01*
X-00049691Y00944077D01*
X-00048671Y00943799D01*
X-00047683Y00943428D01*
X-00047683Y00939349D01*
X-00047714Y00939380D01*
X-00047806Y00939442D01*
X-00047961Y00939504D01*
X-00048177Y00939627D01*
X-00048424Y00939782D01*
X-00048733Y00939936D01*
X-00049104Y00940091D01*
X-00049506Y00940276D01*
X-00049969Y00940431D01*
X-00050433Y00940585D01*
X-00050958Y00940740D01*
X-00051514Y00940894D01*
X-00052132Y00941018D01*
X-00052750Y00941080D01*
X-00053368Y00941141D01*
X-00054048Y00941172D01*
X-00054450Y00941172D01*
X-00054728Y00941141D01*
X-00055037Y00941111D01*
X-00055377Y00941049D01*
X-00056087Y00940894D01*
X-00056118Y00940894D01*
X-00056242Y00940863D01*
X-00056396Y00940802D01*
X-00056613Y00940709D01*
X-00057107Y00940492D01*
X-00057632Y00940183D01*
X-00057663Y00940153D01*
X-00057725Y00940091D01*
X-00057849Y00939998D01*
X-00058003Y00939875D01*
X-00058343Y00939535D01*
X-00058652Y00939071D01*
X-00058652Y00939040D01*
X-00058714Y00938947D01*
X-00058745Y00938824D01*
X-00058807Y00938639D01*
X-00058868Y00938453D01*
X-00058930Y00938206D01*
X-00058961Y00937928D01*
X-00058992Y00937650D01*
X-00058992Y00937619D01*
X-00058992Y00937495D01*
X-00058961Y00937310D01*
X-00058961Y00937063D01*
X-00058899Y00936815D01*
X-00058837Y00936537D01*
X-00058776Y00936259D01*
X-00058652Y00935981D01*
X-00058621Y00935950D01*
X-00058590Y00935857D01*
X-00058498Y00935734D01*
X-00058374Y00935579D01*
X-00058219Y00935425D01*
X-00058065Y00935209D01*
X-00057602Y00934807D01*
X-00057571Y00934776D01*
X-00057478Y00934714D01*
X-00057323Y00934621D01*
X-00057138Y00934498D01*
X-00056891Y00934374D01*
X-00056613Y00934220D01*
X-00056273Y00934034D01*
X-00055933Y00933880D01*
X-00055902Y00933849D01*
X-00055748Y00933818D01*
X-00055562Y00933725D01*
X-00055284Y00933633D01*
X-00054944Y00933478D01*
X-00054573Y00933324D01*
X-00054172Y00933169D01*
X-00053708Y00932984D01*
X-00053677Y00932984D01*
X-00053646Y00932953D01*
X-00053554Y00932922D01*
X-00053430Y00932891D01*
X-00053121Y00932768D01*
X-00052719Y00932582D01*
X-00052256Y00932397D01*
X-00051730Y00932180D01*
X-00051205Y00931933D01*
X-00050711Y00931686D01*
X-00050680Y00931686D01*
X-00050649Y00931655D01*
X-00050495Y00931562D01*
X-00050247Y00931439D01*
X-00049938Y00931253D01*
X-00049568Y00931006D01*
X-00049197Y00930759D01*
X-00048826Y00930450D01*
X-00048455Y00930141D01*
X-00048424Y00930110D01*
X-00048301Y00929986D01*
X-00048146Y00929832D01*
X-00047930Y00929585D01*
X-00047714Y00929307D01*
X-00047466Y00928967D01*
X-00047250Y00928596D01*
X-00047034Y00928194D01*
X-00047003Y00928133D01*
X-00046941Y00928009D01*
X-00046879Y00927762D01*
X-00046786Y00927453D01*
X-00046694Y00927082D01*
X-00046601Y00926649D01*
X-00046570Y00926155D01*
X-00046539Y00925599D01*
X-00046539Y00925568D01*
X-00046539Y00925506D01*
X-00046539Y00925413D01*
X-00046539Y00925290D01*
X-00046570Y00924950D01*
X-00046632Y00924486D01*
X-00046756Y00923992D01*
X-00046879Y00923436D01*
X-00047096Y00922880D01*
X-00047374Y00922354D01*
X-00047404Y00922292D01*
X-00047528Y00922138D01*
X-00047714Y00921891D01*
X-00047961Y00921551D01*
X-00048270Y00921211D01*
X-00048641Y00920809D01*
X-00049073Y00920438D01*
X-00049568Y00920068D01*
X-00049629Y00920037D01*
X-00049815Y00919913D01*
X-00050093Y00919759D01*
X-00050464Y00919573D01*
X-00050927Y00919357D01*
X-00051483Y00919141D01*
X-00052070Y00918924D01*
X-00052719Y00918739D01*
X-00052750Y00918739D01*
X-00052812Y00918708D01*
X-00052905Y00918708D01*
X-00053028Y00918677D01*
X-00053183Y00918646D01*
X-00053368Y00918615D01*
X-00053832Y00918523D01*
X-00054419Y00918430D01*
X-00055037Y00918368D01*
X-00055717Y00918337D01*
X-00056458Y00918306D01*
X-00056829Y00918306D01*
X-00057107Y00918337D01*
X-00057447Y00918337D01*
X-00057818Y00918399D01*
X-00058281Y00918430D01*
X-00058745Y00918492D01*
X-00059270Y00918584D01*
X-00059795Y00918677D01*
X-00060908Y00918924D01*
X-00062051Y00919295D01*
X-00062607Y00919542D01*
X-00063163Y00919789D01*
X-00063163Y00924085D01*
X-00063133Y00924054D01*
X-00063009Y00923992D01*
X-00062824Y00923868D01*
X-00062576Y00923714D01*
X-00062267Y00923528D01*
X-00061928Y00923312D01*
X-00061495Y00923096D01*
X-00061031Y00922880D01*
X-00060506Y00922663D01*
X-00059950Y00922447D01*
X-00059363Y00922231D01*
X-00058745Y00922045D01*
X-00058065Y00921891D01*
X-00057385Y00921767D01*
X-00056675Y00921705D01*
X-00055933Y00921674D01*
X-00055717Y00921674D01*
X-00055438Y00921705D01*
X-00055099Y00921736D01*
X-00054697Y00921798D01*
X-00054264Y00921860D01*
X-00053770Y00921983D01*
X-00053276Y00922107D01*
X-00052812Y00922292D01*
X-00052318Y00922540D01*
X-00051885Y00922818D01*
X-00051483Y00923158D01*
X-00051143Y00923559D01*
X-00050865Y00924023D01*
X-00050711Y00924579D01*
X-00050649Y00924888D01*
X-00050649Y00925197D01*
X-00050649Y00925228D01*
X-00050649Y00925382D01*
X-00050680Y00925568D01*
X-00050711Y00925784D01*
X-00050773Y00926062D01*
X-00050834Y00926340D01*
X-00050958Y00926618D01*
X-00051112Y00926896D01*
X-00051143Y00926927D01*
X-00051205Y00927020D01*
X-00051298Y00927144D01*
X-00051422Y00927329D01*
X-00051607Y00927514D01*
X-00051792Y00927731D01*
X-00052039Y00927916D01*
X-00052318Y00928133D01*
X-00052349Y00928163D01*
X-00052441Y00928225D01*
X-00052627Y00928318D01*
X-00052843Y00928472D01*
X-00053090Y00928627D01*
X-00053399Y00928781D01*
X-00053770Y00928936D01*
X-00054141Y00929090D01*
X-00054203Y00929121D01*
X-00054326Y00929152D01*
X-00054542Y00929245D01*
X-00054821Y00929369D01*
X-00055130Y00929523D01*
X-00055531Y00929678D01*
X-00055933Y00929832D01*
X-00056365Y00930017D01*
X-00056396Y00930017D01*
X-00056427Y00930048D01*
X-00056520Y00930079D01*
X-00056644Y00930141D01*
X-00056953Y00930265D01*
X-00057354Y00930419D01*
X-00057818Y00930635D01*
X-00058312Y00930852D01*
X-00058807Y00931099D01*
X-00059301Y00931346D01*
X-00059363Y00931377D01*
X-00059517Y00931470D01*
X-00059734Y00931593D01*
X-00060043Y00931779D01*
X-00060383Y00932026D01*
X-00060722Y00932273D01*
X-00061093Y00932551D01*
X-00061433Y00932860D01*
X-00061464Y00932891D01*
X-00061557Y00933015D01*
X-00061711Y00933169D01*
X-00061897Y00933416D01*
X-00062113Y00933694D01*
X-00062329Y00934034D01*
X-00062515Y00934374D01*
X-00062700Y00934776D01*
X-00062731Y00934838D01*
X-00062762Y00934961D01*
X-00062824Y00935209D01*
X-00062885Y00935487D01*
X-00062978Y00935857D01*
X-00063040Y00936290D01*
X-00063071Y00936784D01*
X-00063102Y00937310D01*
X-00063102Y00937341D01*
X-00063102Y00937403D01*
X-00063102Y00937495D01*
X-00063102Y00937619D01*
X-00063071Y00937928D01*
X-00063009Y00938360D01*
X-00062916Y00938855D01*
X-00062762Y00939380D01*
X-00062576Y00939905D01*
X-00062298Y00940431D01*
X-00062298Y00940462D01*
X-00062267Y00940492D01*
X-00062144Y00940647D01*
X-00061958Y00940894D01*
X-00061742Y00941234D01*
X-00061433Y00941574D01*
X-00061062Y00941945D01*
X-00060630Y00942346D01*
X-00060166Y00942686D01*
X-00060135Y00942686D01*
X-00060104Y00942717D01*
X-00059919Y00942841D01*
X-00059641Y00942995D01*
X-00059270Y00943212D01*
X-00058807Y00943428D01*
X-00058281Y00943675D01*
X-00057694Y00943891D01*
X-00057076Y00944077D01*
X-00057045Y00944077D01*
X-00056983Y00944108D01*
X-00056891Y00944139D01*
X-00056767Y00944170D01*
X-00056613Y00944201D01*
X-00056427Y00944231D01*
X-00055995Y00944324D01*
X-00055438Y00944417D01*
X-00054851Y00944510D01*
X-00054203Y00944540D01*
X-00053523Y00944571D01*
X-00053214Y00944571D01*
X-00052967Y00944540D01*
X-00052967Y00944540D02*
G37*
G36*
X-00144554Y00944540D02*
X-00144369Y00944540D01*
X-00144152Y00944510D01*
X-00143627Y00944417D01*
X-00143009Y00944262D01*
X-00142298Y00944046D01*
X-00141557Y00943706D01*
X-00140784Y00943304D01*
X-00140383Y00943026D01*
X-00140012Y00942748D01*
X-00139641Y00942439D01*
X-00139270Y00942068D01*
X-00138899Y00941667D01*
X-00138560Y00941234D01*
X-00138250Y00940771D01*
X-00137941Y00940245D01*
X-00137663Y00939689D01*
X-00137416Y00939071D01*
X-00137200Y00938422D01*
X-00136984Y00937712D01*
X-00136860Y00936970D01*
X-00136736Y00936136D01*
X-00136675Y00935270D01*
X-00136644Y00934343D01*
X-00136644Y00918893D01*
X-00140661Y00918893D01*
X-00140661Y00933293D01*
X-00140661Y00933355D01*
X-00140661Y00933478D01*
X-00140661Y00933694D01*
X-00140692Y00933973D01*
X-00140692Y00934312D01*
X-00140722Y00934714D01*
X-00140753Y00935147D01*
X-00140815Y00935610D01*
X-00140970Y00936599D01*
X-00141217Y00937588D01*
X-00141340Y00938082D01*
X-00141526Y00938515D01*
X-00141742Y00938947D01*
X-00141958Y00939318D01*
X-00141958Y00939349D01*
X-00142020Y00939411D01*
X-00142082Y00939504D01*
X-00142206Y00939596D01*
X-00142329Y00939751D01*
X-00142515Y00939905D01*
X-00142731Y00940060D01*
X-00142978Y00940245D01*
X-00143256Y00940431D01*
X-00143565Y00940585D01*
X-00143936Y00940740D01*
X-00144307Y00940894D01*
X-00144739Y00940987D01*
X-00145234Y00941080D01*
X-00145728Y00941141D01*
X-00146285Y00941172D01*
X-00146532Y00941172D01*
X-00146717Y00941141D01*
X-00146933Y00941111D01*
X-00147181Y00941049D01*
X-00147799Y00940894D01*
X-00148138Y00940771D01*
X-00148478Y00940585D01*
X-00148849Y00940400D01*
X-00149189Y00940183D01*
X-00149560Y00939905D01*
X-00149931Y00939596D01*
X-00150302Y00939226D01*
X-00150641Y00938824D01*
X-00150672Y00938793D01*
X-00150703Y00938731D01*
X-00150796Y00938577D01*
X-00150919Y00938422D01*
X-00151043Y00938175D01*
X-00151198Y00937897D01*
X-00151383Y00937588D01*
X-00151537Y00937248D01*
X-00151692Y00936846D01*
X-00151877Y00936414D01*
X-00152032Y00935950D01*
X-00152155Y00935456D01*
X-00152279Y00934931D01*
X-00152341Y00934374D01*
X-00152403Y00933818D01*
X-00152434Y00933200D01*
X-00152434Y00918893D01*
X-00156451Y00918893D01*
X-00156451Y00933787D01*
X-00156451Y00933818D01*
X-00156451Y00933880D01*
X-00156451Y00933973D01*
X-00156451Y00934096D01*
X-00156482Y00934282D01*
X-00156482Y00934467D01*
X-00156543Y00934931D01*
X-00156636Y00935487D01*
X-00156760Y00936136D01*
X-00156914Y00936784D01*
X-00157161Y00937495D01*
X-00157470Y00938175D01*
X-00157841Y00938824D01*
X-00158305Y00939473D01*
X-00158861Y00940029D01*
X-00159510Y00940492D01*
X-00159881Y00940678D01*
X-00160282Y00940863D01*
X-00160715Y00940987D01*
X-00161147Y00941080D01*
X-00161642Y00941141D01*
X-00162167Y00941172D01*
X-00162414Y00941172D01*
X-00162600Y00941141D01*
X-00162847Y00941111D01*
X-00163094Y00941049D01*
X-00163712Y00940894D01*
X-00164052Y00940771D01*
X-00164392Y00940616D01*
X-00164763Y00940462D01*
X-00165133Y00940245D01*
X-00165504Y00939967D01*
X-00165875Y00939689D01*
X-00166215Y00939349D01*
X-00166555Y00938947D01*
X-00166586Y00938917D01*
X-00166617Y00938855D01*
X-00166709Y00938731D01*
X-00166833Y00938546D01*
X-00166957Y00938330D01*
X-00167080Y00938082D01*
X-00167235Y00937773D01*
X-00167389Y00937403D01*
X-00167575Y00937001D01*
X-00167729Y00936568D01*
X-00167853Y00936105D01*
X-00167976Y00935610D01*
X-00168100Y00935054D01*
X-00168193Y00934467D01*
X-00168224Y00933849D01*
X-00168254Y00933200D01*
X-00168254Y00918893D01*
X-00172271Y00918893D01*
X-00172271Y00943984D01*
X-00168254Y00943984D01*
X-00168254Y00939998D01*
X-00168162Y00939998D01*
X-00168131Y00940060D01*
X-00168038Y00940183D01*
X-00167884Y00940431D01*
X-00167667Y00940709D01*
X-00167389Y00941049D01*
X-00167049Y00941450D01*
X-00166648Y00941852D01*
X-00166184Y00942285D01*
X-00165659Y00942717D01*
X-00165072Y00943119D01*
X-00164423Y00943521D01*
X-00163743Y00943861D01*
X-00162970Y00944139D01*
X-00162136Y00944386D01*
X-00161271Y00944510D01*
X-00160344Y00944571D01*
X-00160097Y00944571D01*
X-00159911Y00944540D01*
X-00159695Y00944540D01*
X-00159417Y00944510D01*
X-00159139Y00944448D01*
X-00158830Y00944386D01*
X-00158119Y00944231D01*
X-00157378Y00943953D01*
X-00156636Y00943613D01*
X-00156265Y00943366D01*
X-00155894Y00943119D01*
X-00155863Y00943088D01*
X-00155802Y00943057D01*
X-00155709Y00942965D01*
X-00155585Y00942872D01*
X-00155245Y00942532D01*
X-00154844Y00942130D01*
X-00154411Y00941574D01*
X-00153979Y00940925D01*
X-00153577Y00940183D01*
X-00153268Y00939349D01*
X-00153237Y00939411D01*
X-00153144Y00939566D01*
X-00152959Y00939844D01*
X-00152743Y00940153D01*
X-00152434Y00940554D01*
X-00152094Y00941018D01*
X-00151661Y00941481D01*
X-00151167Y00941976D01*
X-00150611Y00942439D01*
X-00149993Y00942934D01*
X-00149313Y00943366D01*
X-00148571Y00943768D01*
X-00147737Y00944077D01*
X-00146872Y00944355D01*
X-00145914Y00944510D01*
X-00144925Y00944571D01*
X-00144709Y00944571D01*
X-00144554Y00944540D01*
X-00144554Y00944540D02*
G37*
G36*
X-00077686Y00944540D02*
X-00077470Y00944540D01*
X-00077254Y00944510D01*
X-00076976Y00944479D01*
X-00076667Y00944417D01*
X-00076018Y00944293D01*
X-00075245Y00944077D01*
X-00074473Y00943799D01*
X-00073639Y00943397D01*
X-00072804Y00942903D01*
X-00072403Y00942625D01*
X-00072001Y00942285D01*
X-00071630Y00941914D01*
X-00071259Y00941543D01*
X-00070919Y00941111D01*
X-00070610Y00940616D01*
X-00070301Y00940122D01*
X-00070023Y00939566D01*
X-00069807Y00938947D01*
X-00069591Y00938299D01*
X-00069436Y00937619D01*
X-00069313Y00936846D01*
X-00069251Y00936074D01*
X-00069220Y00935209D01*
X-00069220Y00918893D01*
X-00073237Y00918893D01*
X-00073237Y00922787D01*
X-00073330Y00922787D01*
X-00073361Y00922725D01*
X-00073453Y00922601D01*
X-00073608Y00922385D01*
X-00073824Y00922076D01*
X-00074102Y00921736D01*
X-00074442Y00921365D01*
X-00074813Y00920964D01*
X-00075276Y00920562D01*
X-00075802Y00920129D01*
X-00076358Y00919728D01*
X-00077007Y00919357D01*
X-00077686Y00919017D01*
X-00078459Y00918708D01*
X-00079262Y00918492D01*
X-00080128Y00918368D01*
X-00081055Y00918306D01*
X-00081425Y00918306D01*
X-00081673Y00918337D01*
X-00081982Y00918368D01*
X-00082352Y00918399D01*
X-00082754Y00918461D01*
X-00083187Y00918553D01*
X-00084145Y00918801D01*
X-00084608Y00918955D01*
X-00085103Y00919141D01*
X-00085597Y00919357D01*
X-00086060Y00919635D01*
X-00086493Y00919944D01*
X-00086926Y00920284D01*
X-00086957Y00920315D01*
X-00087018Y00920377D01*
X-00087111Y00920500D01*
X-00087266Y00920655D01*
X-00087420Y00920840D01*
X-00087575Y00921087D01*
X-00087791Y00921365D01*
X-00087976Y00921674D01*
X-00088162Y00922045D01*
X-00088347Y00922447D01*
X-00088532Y00922880D01*
X-00088687Y00923343D01*
X-00088841Y00923837D01*
X-00088934Y00924363D01*
X-00088996Y00924950D01*
X-00089027Y00925537D01*
X-00089027Y00925568D01*
X-00089027Y00925630D01*
X-00089027Y00925722D01*
X-00088996Y00925846D01*
X-00088996Y00926000D01*
X-00088965Y00926186D01*
X-00088903Y00926649D01*
X-00088780Y00927206D01*
X-00088594Y00927823D01*
X-00088347Y00928503D01*
X-00087976Y00929214D01*
X-00087544Y00929925D01*
X-00087018Y00930635D01*
X-00086678Y00930975D01*
X-00086338Y00931315D01*
X-00085937Y00931655D01*
X-00085535Y00931964D01*
X-00085072Y00932273D01*
X-00084577Y00932551D01*
X-00084052Y00932798D01*
X-00083465Y00933046D01*
X-00082847Y00933262D01*
X-00082198Y00933447D01*
X-00081487Y00933602D01*
X-00080746Y00933725D01*
X-00073237Y00934776D01*
X-00073237Y00934807D01*
X-00073237Y00934838D01*
X-00073237Y00934931D01*
X-00073237Y00935054D01*
X-00073268Y00935363D01*
X-00073330Y00935765D01*
X-00073391Y00936259D01*
X-00073515Y00936815D01*
X-00073669Y00937372D01*
X-00073886Y00937990D01*
X-00074164Y00938577D01*
X-00074504Y00939164D01*
X-00074906Y00939689D01*
X-00075400Y00940183D01*
X-00076018Y00940585D01*
X-00076698Y00940894D01*
X-00077069Y00941018D01*
X-00077501Y00941111D01*
X-00077934Y00941141D01*
X-00078397Y00941172D01*
X-00078614Y00941172D01*
X-00078830Y00941141D01*
X-00079170Y00941111D01*
X-00079571Y00941080D01*
X-00080035Y00941018D01*
X-00080560Y00940925D01*
X-00081116Y00940802D01*
X-00081734Y00940616D01*
X-00082383Y00940431D01*
X-00083063Y00940183D01*
X-00083774Y00939875D01*
X-00084484Y00939504D01*
X-00085195Y00939102D01*
X-00085906Y00938639D01*
X-00086586Y00938082D01*
X-00086586Y00942192D01*
X-00086555Y00942223D01*
X-00086431Y00942285D01*
X-00086215Y00942408D01*
X-00085937Y00942563D01*
X-00085566Y00942748D01*
X-00085164Y00942934D01*
X-00084670Y00943150D01*
X-00084114Y00943397D01*
X-00083527Y00943613D01*
X-00082878Y00943830D01*
X-00082167Y00944015D01*
X-00081425Y00944201D01*
X-00080622Y00944355D01*
X-00079819Y00944479D01*
X-00078953Y00944540D01*
X-00078057Y00944571D01*
X-00077841Y00944571D01*
X-00077686Y00944540D01*
X-00077686Y00944540D02*
G37*
G36*
X-00104570Y00953996D02*
X-00104168Y00953996D01*
X-00103704Y00953934D01*
X-00103148Y00953872D01*
X-00102561Y00953810D01*
X-00101881Y00953687D01*
X-00101201Y00953532D01*
X-00100491Y00953347D01*
X-00099780Y00953131D01*
X-00099038Y00952852D01*
X-00098328Y00952543D01*
X-00097648Y00952173D01*
X-00096999Y00951771D01*
X-00096381Y00951277D01*
X-00096350Y00951246D01*
X-00096257Y00951153D01*
X-00096103Y00950999D01*
X-00095887Y00950782D01*
X-00095670Y00950473D01*
X-00095392Y00950133D01*
X-00095114Y00949732D01*
X-00094805Y00949268D01*
X-00094527Y00948743D01*
X-00094249Y00948187D01*
X-00093971Y00947538D01*
X-00093754Y00946858D01*
X-00093538Y00946085D01*
X-00093384Y00945282D01*
X-00093291Y00944448D01*
X-00093260Y00943521D01*
X-00093260Y00943459D01*
X-00093260Y00943304D01*
X-00093291Y00943026D01*
X-00093322Y00942686D01*
X-00093353Y00942254D01*
X-00093445Y00941759D01*
X-00093538Y00941234D01*
X-00093693Y00940616D01*
X-00093878Y00939998D01*
X-00094094Y00939318D01*
X-00094373Y00938639D01*
X-00094712Y00937959D01*
X-00095114Y00937279D01*
X-00095578Y00936599D01*
X-00096103Y00935950D01*
X-00096721Y00935332D01*
X-00096752Y00935301D01*
X-00096875Y00935209D01*
X-00097061Y00935054D01*
X-00097339Y00934838D01*
X-00097679Y00934591D01*
X-00098111Y00934312D01*
X-00098606Y00934034D01*
X-00099162Y00933756D01*
X-00099780Y00933447D01*
X-00100491Y00933169D01*
X-00101263Y00932891D01*
X-00102067Y00932644D01*
X-00102963Y00932458D01*
X-00103921Y00932273D01*
X-00104909Y00932180D01*
X-00105991Y00932149D01*
X-00110626Y00932149D01*
X-00110626Y00918893D01*
X-00114736Y00918893D01*
X-00114736Y00954027D01*
X-00104848Y00954027D01*
X-00104570Y00953996D01*
X-00104570Y00953996D02*
G37*
G36*
X-00282553Y00953996D02*
X-00282183Y00953965D01*
X-00281750Y00953903D01*
X-00281256Y00953841D01*
X-00280700Y00953749D01*
X-00280143Y00953625D01*
X-00279556Y00953471D01*
X-00278938Y00953285D01*
X-00278351Y00953069D01*
X-00277733Y00952822D01*
X-00277177Y00952513D01*
X-00276621Y00952173D01*
X-00276095Y00951771D01*
X-00276065Y00951740D01*
X-00275972Y00951678D01*
X-00275848Y00951555D01*
X-00275694Y00951369D01*
X-00275477Y00951153D01*
X-00275261Y00950875D01*
X-00275014Y00950566D01*
X-00274767Y00950226D01*
X-00274519Y00949824D01*
X-00274272Y00949392D01*
X-00274056Y00948897D01*
X-00273840Y00948403D01*
X-00273685Y00947847D01*
X-00273562Y00947260D01*
X-00273469Y00946642D01*
X-00273438Y00945993D01*
X-00273438Y00945962D01*
X-00273438Y00945869D01*
X-00273438Y00945715D01*
X-00273469Y00945498D01*
X-00273500Y00945220D01*
X-00273531Y00944942D01*
X-00273562Y00944602D01*
X-00273623Y00944231D01*
X-00273840Y00943397D01*
X-00274118Y00942532D01*
X-00274303Y00942068D01*
X-00274519Y00941636D01*
X-00274767Y00941203D01*
X-00275045Y00940771D01*
X-00275076Y00940740D01*
X-00275107Y00940678D01*
X-00275199Y00940554D01*
X-00275354Y00940400D01*
X-00275508Y00940245D01*
X-00275694Y00940029D01*
X-00275941Y00939813D01*
X-00276188Y00939566D01*
X-00276497Y00939318D01*
X-00276837Y00939040D01*
X-00277208Y00938793D01*
X-00277610Y00938515D01*
X-00278042Y00938268D01*
X-00278475Y00938051D01*
X-00279494Y00937650D01*
X-00279494Y00937557D01*
X-00279464Y00937557D01*
X-00279340Y00937526D01*
X-00279154Y00937495D01*
X-00278907Y00937464D01*
X-00278598Y00937403D01*
X-00278258Y00937310D01*
X-00277857Y00937186D01*
X-00277455Y00937063D01*
X-00276559Y00936723D01*
X-00276065Y00936506D01*
X-00275601Y00936228D01*
X-00275137Y00935950D01*
X-00274674Y00935641D01*
X-00274211Y00935270D01*
X-00273809Y00934869D01*
X-00273778Y00934838D01*
X-00273716Y00934776D01*
X-00273623Y00934652D01*
X-00273469Y00934467D01*
X-00273314Y00934220D01*
X-00273129Y00933973D01*
X-00272944Y00933633D01*
X-00272727Y00933293D01*
X-00272542Y00932891D01*
X-00272356Y00932428D01*
X-00272171Y00931964D01*
X-00272017Y00931439D01*
X-00271862Y00930852D01*
X-00271769Y00930265D01*
X-00271708Y00929647D01*
X-00271677Y00928967D01*
X-00271677Y00928905D01*
X-00271677Y00928781D01*
X-00271708Y00928534D01*
X-00271738Y00928225D01*
X-00271769Y00927823D01*
X-00271862Y00927391D01*
X-00271955Y00926896D01*
X-00272078Y00926371D01*
X-00272264Y00925784D01*
X-00272480Y00925197D01*
X-00272727Y00924610D01*
X-00273036Y00923992D01*
X-00273407Y00923374D01*
X-00273840Y00922787D01*
X-00274334Y00922231D01*
X-00274921Y00921674D01*
X-00274952Y00921644D01*
X-00275076Y00921551D01*
X-00275261Y00921427D01*
X-00275508Y00921242D01*
X-00275817Y00921025D01*
X-00276219Y00920809D01*
X-00276652Y00920531D01*
X-00277146Y00920284D01*
X-00277733Y00920037D01*
X-00278351Y00919789D01*
X-00279000Y00919542D01*
X-00279742Y00919326D01*
X-00280514Y00919141D01*
X-00281317Y00919017D01*
X-00282183Y00918924D01*
X-00283079Y00918893D01*
X-00293307Y00918893D01*
X-00293307Y00954027D01*
X-00282893Y00954027D01*
X-00282553Y00953996D01*
X-00282553Y00953996D02*
G37*
G36*
X-00035044Y00943984D02*
X-00028710Y00943984D01*
X-00028710Y00940523D01*
X-00035044Y00940523D01*
X-00035044Y00926402D01*
X-00035044Y00926371D01*
X-00035044Y00926279D01*
X-00035044Y00926155D01*
X-00035044Y00926000D01*
X-00035014Y00925784D01*
X-00034983Y00925537D01*
X-00034921Y00925012D01*
X-00034828Y00924394D01*
X-00034674Y00923807D01*
X-00034457Y00923250D01*
X-00034334Y00923003D01*
X-00034179Y00922787D01*
X-00034148Y00922756D01*
X-00034025Y00922632D01*
X-00033809Y00922447D01*
X-00033499Y00922261D01*
X-00033098Y00922045D01*
X-00032603Y00921891D01*
X-00032016Y00921767D01*
X-00031337Y00921705D01*
X-00031089Y00921705D01*
X-00030811Y00921736D01*
X-00030440Y00921798D01*
X-00030039Y00921922D01*
X-00029575Y00922045D01*
X-00029143Y00922261D01*
X-00028710Y00922540D01*
X-00028710Y00919110D01*
X-00028741Y00919110D01*
X-00028772Y00919079D01*
X-00028864Y00919048D01*
X-00028957Y00918986D01*
X-00029297Y00918862D01*
X-00029699Y00918739D01*
X-00030255Y00918615D01*
X-00030904Y00918492D01*
X-00031645Y00918399D01*
X-00032480Y00918368D01*
X-00032758Y00918368D01*
X-00033098Y00918430D01*
X-00033499Y00918492D01*
X-00033994Y00918584D01*
X-00034550Y00918770D01*
X-00035168Y00918986D01*
X-00035755Y00919295D01*
X-00036373Y00919666D01*
X-00036991Y00920160D01*
X-00037547Y00920747D01*
X-00037795Y00921087D01*
X-00038042Y00921458D01*
X-00038258Y00921860D01*
X-00038444Y00922292D01*
X-00038629Y00922756D01*
X-00038783Y00923281D01*
X-00038907Y00923807D01*
X-00039000Y00924394D01*
X-00039031Y00925012D01*
X-00039062Y00925691D01*
X-00039062Y00940523D01*
X-00043357Y00940523D01*
X-00043357Y00943984D01*
X-00039062Y00943984D01*
X-00039062Y00950102D01*
X-00035044Y00951400D01*
X-00035044Y00943984D01*
X-00035044Y00943984D02*
G37*
G36*
X-00213368Y00943984D02*
X-00207034Y00943984D01*
X-00207034Y00940523D01*
X-00213368Y00940523D01*
X-00213368Y00926402D01*
X-00213368Y00926371D01*
X-00213368Y00926279D01*
X-00213368Y00926155D01*
X-00213368Y00926000D01*
X-00213338Y00925784D01*
X-00213307Y00925537D01*
X-00213245Y00925012D01*
X-00213152Y00924394D01*
X-00212998Y00923807D01*
X-00212781Y00923250D01*
X-00212658Y00923003D01*
X-00212503Y00922787D01*
X-00212472Y00922756D01*
X-00212349Y00922632D01*
X-00212132Y00922447D01*
X-00211823Y00922261D01*
X-00211422Y00922045D01*
X-00210927Y00921891D01*
X-00210340Y00921767D01*
X-00209660Y00921705D01*
X-00209413Y00921705D01*
X-00209135Y00921736D01*
X-00208764Y00921798D01*
X-00208363Y00921922D01*
X-00207899Y00922045D01*
X-00207466Y00922261D01*
X-00207034Y00922540D01*
X-00207034Y00919110D01*
X-00207065Y00919110D01*
X-00207096Y00919079D01*
X-00207188Y00919048D01*
X-00207281Y00918986D01*
X-00207621Y00918862D01*
X-00208023Y00918739D01*
X-00208579Y00918615D01*
X-00209228Y00918492D01*
X-00209969Y00918399D01*
X-00210804Y00918368D01*
X-00211082Y00918368D01*
X-00211422Y00918430D01*
X-00211823Y00918492D01*
X-00212318Y00918584D01*
X-00212874Y00918770D01*
X-00213492Y00918986D01*
X-00214079Y00919295D01*
X-00214697Y00919666D01*
X-00215315Y00920160D01*
X-00215871Y00920747D01*
X-00216119Y00921087D01*
X-00216366Y00921458D01*
X-00216582Y00921860D01*
X-00216767Y00922292D01*
X-00216953Y00922756D01*
X-00217107Y00923281D01*
X-00217231Y00923807D01*
X-00217324Y00924394D01*
X-00217355Y00925012D01*
X-00217385Y00925691D01*
X-00217385Y00940523D01*
X-00221680Y00940523D01*
X-00221680Y00943984D01*
X-00217385Y00943984D01*
X-00217385Y00950102D01*
X-00213368Y00951400D01*
X-00213368Y00943984D01*
X-00213368Y00943984D02*
G37*
G36*
X-00230363Y00943984D02*
X-00224029Y00943984D01*
X-00224029Y00940523D01*
X-00230363Y00940523D01*
X-00230363Y00926402D01*
X-00230363Y00926371D01*
X-00230363Y00926279D01*
X-00230363Y00926155D01*
X-00230363Y00926000D01*
X-00230333Y00925784D01*
X-00230302Y00925537D01*
X-00230240Y00925012D01*
X-00230147Y00924394D01*
X-00229993Y00923807D01*
X-00229776Y00923250D01*
X-00229653Y00923003D01*
X-00229498Y00922787D01*
X-00229467Y00922756D01*
X-00229344Y00922632D01*
X-00229127Y00922447D01*
X-00228818Y00922261D01*
X-00228417Y00922045D01*
X-00227922Y00921891D01*
X-00227335Y00921767D01*
X-00226655Y00921705D01*
X-00226408Y00921705D01*
X-00226130Y00921736D01*
X-00225759Y00921798D01*
X-00225358Y00921922D01*
X-00224894Y00922045D01*
X-00224462Y00922261D01*
X-00224029Y00922540D01*
X-00224029Y00919110D01*
X-00224060Y00919110D01*
X-00224091Y00919079D01*
X-00224183Y00919048D01*
X-00224276Y00918986D01*
X-00224616Y00918862D01*
X-00225018Y00918739D01*
X-00225574Y00918615D01*
X-00226223Y00918492D01*
X-00226964Y00918399D01*
X-00227799Y00918368D01*
X-00228077Y00918368D01*
X-00228417Y00918430D01*
X-00228818Y00918492D01*
X-00229313Y00918584D01*
X-00229869Y00918770D01*
X-00230487Y00918986D01*
X-00231074Y00919295D01*
X-00231692Y00919666D01*
X-00232310Y00920160D01*
X-00232866Y00920747D01*
X-00233113Y00921087D01*
X-00233361Y00921458D01*
X-00233577Y00921860D01*
X-00233762Y00922292D01*
X-00233948Y00922756D01*
X-00234102Y00923281D01*
X-00234226Y00923807D01*
X-00234319Y00924394D01*
X-00234350Y00925012D01*
X-00234380Y00925691D01*
X-00234380Y00940523D01*
X-00238675Y00940523D01*
X-00238675Y00943984D01*
X-00234380Y00943984D01*
X-00234380Y00950102D01*
X-00230363Y00951400D01*
X-00230363Y00943984D01*
X-00230363Y00943984D02*
G37*
G36*
X-00013044Y00944540D02*
X-00012704Y00944510D01*
X-00012271Y00944479D01*
X-00011808Y00944417D01*
X-00011282Y00944293D01*
X-00010726Y00944170D01*
X-00010108Y00944015D01*
X-00009490Y00943799D01*
X-00008872Y00943521D01*
X-00008223Y00943212D01*
X-00007605Y00942841D01*
X-00007018Y00942408D01*
X-00006431Y00941914D01*
X-00005906Y00941358D01*
X-00005875Y00941327D01*
X-00005782Y00941203D01*
X-00005659Y00941018D01*
X-00005473Y00940771D01*
X-00005288Y00940462D01*
X-00005041Y00940060D01*
X-00004793Y00939596D01*
X-00004546Y00939071D01*
X-00004299Y00938453D01*
X-00004052Y00937804D01*
X-00003805Y00937063D01*
X-00003619Y00936290D01*
X-00003434Y00935425D01*
X-00003310Y00934529D01*
X-00003217Y00933540D01*
X-00003187Y00932520D01*
X-00003187Y00930419D01*
X-00020923Y00930419D01*
X-00020923Y00930357D01*
X-00020923Y00930234D01*
X-00020892Y00930017D01*
X-00020861Y00929739D01*
X-00020831Y00929369D01*
X-00020769Y00928967D01*
X-00020707Y00928534D01*
X-00020583Y00928040D01*
X-00020305Y00926989D01*
X-00020120Y00926464D01*
X-00019904Y00925908D01*
X-00019656Y00925382D01*
X-00019378Y00924857D01*
X-00019038Y00924394D01*
X-00018668Y00923930D01*
X-00018637Y00923899D01*
X-00018575Y00923837D01*
X-00018451Y00923714D01*
X-00018266Y00923590D01*
X-00018049Y00923405D01*
X-00017771Y00923219D01*
X-00017462Y00923003D01*
X-00017122Y00922818D01*
X-00016721Y00922601D01*
X-00016257Y00922385D01*
X-00015794Y00922200D01*
X-00015238Y00922014D01*
X-00014681Y00921891D01*
X-00014063Y00921767D01*
X-00013415Y00921705D01*
X-00012735Y00921674D01*
X-00012549Y00921674D01*
X-00012333Y00921705D01*
X-00012024Y00921705D01*
X-00011653Y00921767D01*
X-00011221Y00921829D01*
X-00010726Y00921922D01*
X-00010170Y00922014D01*
X-00009583Y00922169D01*
X-00008965Y00922354D01*
X-00008316Y00922571D01*
X-00007667Y00922849D01*
X-00006987Y00923158D01*
X-00006308Y00923528D01*
X-00005628Y00923961D01*
X-00004948Y00924455D01*
X-00004948Y00920686D01*
X-00004979Y00920655D01*
X-00005102Y00920593D01*
X-00005288Y00920469D01*
X-00005535Y00920315D01*
X-00005875Y00920129D01*
X-00006277Y00919944D01*
X-00006740Y00919728D01*
X-00007265Y00919511D01*
X-00007883Y00919264D01*
X-00008532Y00919048D01*
X-00009243Y00918862D01*
X-00010015Y00918677D01*
X-00010850Y00918523D01*
X-00011746Y00918399D01*
X-00012704Y00918337D01*
X-00013693Y00918306D01*
X-00013940Y00918306D01*
X-00014187Y00918337D01*
X-00014558Y00918368D01*
X-00015021Y00918399D01*
X-00015547Y00918492D01*
X-00016103Y00918584D01*
X-00016721Y00918739D01*
X-00017370Y00918924D01*
X-00018049Y00919141D01*
X-00018760Y00919419D01*
X-00019440Y00919728D01*
X-00020151Y00920129D01*
X-00020800Y00920593D01*
X-00021448Y00921118D01*
X-00022036Y00921705D01*
X-00022067Y00921736D01*
X-00022159Y00921860D01*
X-00022314Y00922076D01*
X-00022499Y00922354D01*
X-00022746Y00922694D01*
X-00022994Y00923127D01*
X-00023272Y00923621D01*
X-00023550Y00924208D01*
X-00023828Y00924826D01*
X-00024106Y00925568D01*
X-00024353Y00926340D01*
X-00024600Y00927206D01*
X-00024786Y00928133D01*
X-00024940Y00929121D01*
X-00025033Y00930203D01*
X-00025064Y00931315D01*
X-00025064Y00931346D01*
X-00025064Y00931377D01*
X-00025064Y00931470D01*
X-00025064Y00931562D01*
X-00025033Y00931871D01*
X-00025002Y00932304D01*
X-00024971Y00932798D01*
X-00024878Y00933355D01*
X-00024786Y00934004D01*
X-00024662Y00934714D01*
X-00024477Y00935456D01*
X-00024260Y00936228D01*
X-00023982Y00937032D01*
X-00023673Y00937835D01*
X-00023302Y00938608D01*
X-00022839Y00939411D01*
X-00022345Y00940153D01*
X-00021758Y00940863D01*
X-00021727Y00940894D01*
X-00021603Y00941018D01*
X-00021418Y00941203D01*
X-00021170Y00941450D01*
X-00020831Y00941729D01*
X-00020429Y00942038D01*
X-00019996Y00942377D01*
X-00019471Y00942717D01*
X-00018915Y00943057D01*
X-00018266Y00943397D01*
X-00017586Y00943706D01*
X-00016875Y00943984D01*
X-00016103Y00944231D01*
X-00015268Y00944417D01*
X-00014403Y00944540D01*
X-00013507Y00944571D01*
X-00013291Y00944571D01*
X-00013044Y00944540D01*
X-00013044Y00944540D02*
G37*
G36*
X-00190070Y00944540D02*
X-00189668Y00944510D01*
X-00189205Y00944479D01*
X-00188648Y00944386D01*
X-00188061Y00944293D01*
X-00187412Y00944139D01*
X-00186702Y00943953D01*
X-00185991Y00943737D01*
X-00185280Y00943459D01*
X-00184539Y00943119D01*
X-00183828Y00942717D01*
X-00183117Y00942254D01*
X-00182468Y00941729D01*
X-00181850Y00941111D01*
X-00181820Y00941080D01*
X-00181727Y00940956D01*
X-00181572Y00940740D01*
X-00181356Y00940462D01*
X-00181109Y00940122D01*
X-00180862Y00939689D01*
X-00180553Y00939195D01*
X-00180274Y00938608D01*
X-00179965Y00937959D01*
X-00179687Y00937248D01*
X-00179440Y00936476D01*
X-00179193Y00935610D01*
X-00178977Y00934683D01*
X-00178822Y00933694D01*
X-00178730Y00932644D01*
X-00178699Y00931532D01*
X-00178699Y00931501D01*
X-00178699Y00931470D01*
X-00178699Y00931377D01*
X-00178699Y00931253D01*
X-00178730Y00930944D01*
X-00178760Y00930543D01*
X-00178791Y00930017D01*
X-00178884Y00929430D01*
X-00178977Y00928781D01*
X-00179131Y00928071D01*
X-00179317Y00927329D01*
X-00179533Y00926526D01*
X-00179811Y00925722D01*
X-00180120Y00924919D01*
X-00180522Y00924115D01*
X-00180985Y00923343D01*
X-00181511Y00922601D01*
X-00182098Y00921891D01*
X-00182129Y00921860D01*
X-00182252Y00921736D01*
X-00182438Y00921551D01*
X-00182716Y00921335D01*
X-00183055Y00921056D01*
X-00183457Y00920747D01*
X-00183952Y00920438D01*
X-00184508Y00920098D01*
X-00185126Y00919759D01*
X-00185806Y00919450D01*
X-00186547Y00919141D01*
X-00187351Y00918862D01*
X-00188247Y00918646D01*
X-00189174Y00918461D01*
X-00190132Y00918337D01*
X-00191182Y00918306D01*
X-00191429Y00918306D01*
X-00191708Y00918337D01*
X-00192109Y00918368D01*
X-00192573Y00918399D01*
X-00193129Y00918492D01*
X-00193716Y00918584D01*
X-00194365Y00918739D01*
X-00195076Y00918924D01*
X-00195786Y00919172D01*
X-00196528Y00919450D01*
X-00197269Y00919789D01*
X-00198011Y00920191D01*
X-00198753Y00920655D01*
X-00199433Y00921180D01*
X-00200081Y00921798D01*
X-00200112Y00921829D01*
X-00200236Y00921952D01*
X-00200390Y00922169D01*
X-00200607Y00922447D01*
X-00200854Y00922787D01*
X-00201132Y00923219D01*
X-00201410Y00923714D01*
X-00201719Y00924301D01*
X-00202028Y00924919D01*
X-00202337Y00925630D01*
X-00202615Y00926402D01*
X-00202862Y00927236D01*
X-00203079Y00928102D01*
X-00203233Y00929059D01*
X-00203357Y00930079D01*
X-00203388Y00931130D01*
X-00203388Y00931161D01*
X-00203388Y00931192D01*
X-00203388Y00931284D01*
X-00203388Y00931408D01*
X-00203357Y00931748D01*
X-00203326Y00932180D01*
X-00203295Y00932706D01*
X-00203202Y00933324D01*
X-00203110Y00934004D01*
X-00202955Y00934745D01*
X-00202770Y00935518D01*
X-00202553Y00936321D01*
X-00202275Y00937155D01*
X-00201935Y00937990D01*
X-00201534Y00938793D01*
X-00201101Y00939566D01*
X-00200576Y00940307D01*
X-00199958Y00941018D01*
X-00199927Y00941049D01*
X-00199803Y00941172D01*
X-00199587Y00941358D01*
X-00199309Y00941574D01*
X-00198969Y00941852D01*
X-00198536Y00942130D01*
X-00198042Y00942470D01*
X-00197486Y00942810D01*
X-00196868Y00943119D01*
X-00196157Y00943459D01*
X-00195385Y00943737D01*
X-00194550Y00944015D01*
X-00193654Y00944231D01*
X-00192696Y00944417D01*
X-00191677Y00944540D01*
X-00190595Y00944571D01*
X-00190348Y00944571D01*
X-00190070Y00944540D01*
X-00190070Y00944540D02*
G37*
G36*
X-00253477Y00944540D02*
X-00253075Y00944510D01*
X-00252611Y00944479D01*
X-00252055Y00944386D01*
X-00251468Y00944293D01*
X-00250819Y00944139D01*
X-00250108Y00943953D01*
X-00249398Y00943737D01*
X-00248687Y00943459D01*
X-00247946Y00943119D01*
X-00247235Y00942717D01*
X-00246524Y00942254D01*
X-00245875Y00941729D01*
X-00245257Y00941111D01*
X-00245226Y00941080D01*
X-00245134Y00940956D01*
X-00244979Y00940740D01*
X-00244763Y00940462D01*
X-00244516Y00940122D01*
X-00244268Y00939689D01*
X-00243959Y00939195D01*
X-00243681Y00938608D01*
X-00243372Y00937959D01*
X-00243094Y00937248D01*
X-00242847Y00936476D01*
X-00242600Y00935610D01*
X-00242383Y00934683D01*
X-00242229Y00933694D01*
X-00242136Y00932644D01*
X-00242105Y00931532D01*
X-00242105Y00931501D01*
X-00242105Y00931470D01*
X-00242105Y00931377D01*
X-00242105Y00931253D01*
X-00242136Y00930944D01*
X-00242167Y00930543D01*
X-00242198Y00930017D01*
X-00242291Y00929430D01*
X-00242383Y00928781D01*
X-00242538Y00928071D01*
X-00242723Y00927329D01*
X-00242940Y00926526D01*
X-00243218Y00925722D01*
X-00243527Y00924919D01*
X-00243929Y00924115D01*
X-00244392Y00923343D01*
X-00244917Y00922601D01*
X-00245504Y00921891D01*
X-00245535Y00921860D01*
X-00245659Y00921736D01*
X-00245844Y00921551D01*
X-00246122Y00921335D01*
X-00246462Y00921056D01*
X-00246864Y00920747D01*
X-00247358Y00920438D01*
X-00247915Y00920098D01*
X-00248533Y00919759D01*
X-00249212Y00919450D01*
X-00249954Y00919141D01*
X-00250757Y00918862D01*
X-00251654Y00918646D01*
X-00252581Y00918461D01*
X-00253538Y00918337D01*
X-00254589Y00918306D01*
X-00254836Y00918306D01*
X-00255114Y00918337D01*
X-00255516Y00918368D01*
X-00255980Y00918399D01*
X-00256536Y00918492D01*
X-00257123Y00918584D01*
X-00257772Y00918739D01*
X-00258482Y00918924D01*
X-00259193Y00919172D01*
X-00259935Y00919450D01*
X-00260676Y00919789D01*
X-00261418Y00920191D01*
X-00262159Y00920655D01*
X-00262839Y00921180D01*
X-00263488Y00921798D01*
X-00263519Y00921829D01*
X-00263643Y00921952D01*
X-00263797Y00922169D01*
X-00264014Y00922447D01*
X-00264261Y00922787D01*
X-00264539Y00923219D01*
X-00264817Y00923714D01*
X-00265126Y00924301D01*
X-00265435Y00924919D01*
X-00265744Y00925630D01*
X-00266022Y00926402D01*
X-00266269Y00927236D01*
X-00266486Y00928102D01*
X-00266640Y00929059D01*
X-00266764Y00930079D01*
X-00266795Y00931130D01*
X-00266795Y00931161D01*
X-00266795Y00931192D01*
X-00266795Y00931284D01*
X-00266795Y00931408D01*
X-00266764Y00931748D01*
X-00266733Y00932180D01*
X-00266702Y00932706D01*
X-00266609Y00933324D01*
X-00266516Y00934004D01*
X-00266362Y00934745D01*
X-00266176Y00935518D01*
X-00265960Y00936321D01*
X-00265682Y00937155D01*
X-00265342Y00937990D01*
X-00264940Y00938793D01*
X-00264508Y00939566D01*
X-00263983Y00940307D01*
X-00263365Y00941018D01*
X-00263334Y00941049D01*
X-00263210Y00941172D01*
X-00262994Y00941358D01*
X-00262716Y00941574D01*
X-00262376Y00941852D01*
X-00261943Y00942130D01*
X-00261449Y00942470D01*
X-00260893Y00942810D01*
X-00260275Y00943119D01*
X-00259564Y00943459D01*
X-00258791Y00943737D01*
X-00257957Y00944015D01*
X-00257061Y00944231D01*
X-00256103Y00944417D01*
X-00255083Y00944540D01*
X-00254002Y00944571D01*
X-00253755Y00944571D01*
X-00253477Y00944540D01*
X-00253477Y00944540D02*
G37*
%LPC*%
G36*
X00346137Y00999243D02*
X00345982Y00999243D01*
X00345797Y00999212D01*
X00345519Y00999212D01*
X00345210Y00999151D01*
X00344870Y00999089D01*
X00344468Y00999027D01*
X00344036Y00998903D01*
X00343572Y00998780D01*
X00343108Y00998594D01*
X00342645Y00998378D01*
X00342151Y00998100D01*
X00341687Y00997791D01*
X00341224Y00997451D01*
X00340760Y00997019D01*
X00340358Y00996555D01*
X00340327Y00996524D01*
X00340266Y00996431D01*
X00340173Y00996277D01*
X00340019Y00996061D01*
X00339864Y00995783D01*
X00339709Y00995443D01*
X00339493Y00995072D01*
X00339308Y00994608D01*
X00339122Y00994114D01*
X00338937Y00993558D01*
X00338752Y00992940D01*
X00338597Y00992291D01*
X00338443Y00991549D01*
X00338350Y00990808D01*
X00338288Y00989973D01*
X00338257Y00989108D01*
X00338257Y00989046D01*
X00338257Y00988923D01*
X00338257Y00988676D01*
X00338288Y00988397D01*
X00338319Y00988027D01*
X00338350Y00987594D01*
X00338412Y00987130D01*
X00338504Y00986605D01*
X00338752Y00985524D01*
X00338906Y00984937D01*
X00339091Y00984380D01*
X00339339Y00983824D01*
X00339617Y00983268D01*
X00339926Y00982743D01*
X00340266Y00982248D01*
X00340297Y00982217D01*
X00340358Y00982156D01*
X00340482Y00982032D01*
X00340637Y00981847D01*
X00340853Y00981661D01*
X00341100Y00981445D01*
X00341378Y00981229D01*
X00341718Y00981012D01*
X00342089Y00980765D01*
X00342490Y00980549D01*
X00342923Y00980332D01*
X00343418Y00980147D01*
X00343943Y00979993D01*
X00344499Y00979869D01*
X00345086Y00979776D01*
X00345704Y00979745D01*
X00345859Y00979745D01*
X00346044Y00979776D01*
X00346260Y00979776D01*
X00346538Y00979807D01*
X00346878Y00979869D01*
X00347249Y00979962D01*
X00347651Y00980054D01*
X00348083Y00980178D01*
X00348516Y00980332D01*
X00348979Y00980518D01*
X00349412Y00980765D01*
X00349876Y00981043D01*
X00350308Y00981352D01*
X00350741Y00981723D01*
X00351142Y00982156D01*
X00351173Y00982187D01*
X00351235Y00982279D01*
X00351328Y00982403D01*
X00351482Y00982588D01*
X00351637Y00982835D01*
X00351822Y00983114D01*
X00352008Y00983453D01*
X00352193Y00983855D01*
X00352378Y00984257D01*
X00352595Y00984720D01*
X00352749Y00985246D01*
X00352904Y00985771D01*
X00353058Y00986358D01*
X00353151Y00986976D01*
X00353213Y00987625D01*
X00353244Y00988305D01*
X00353244Y00991982D01*
X00353244Y00992013D01*
X00353244Y00992105D01*
X00353244Y00992291D01*
X00353213Y00992507D01*
X00353182Y00992754D01*
X00353151Y00993063D01*
X00353089Y00993403D01*
X00352997Y00993774D01*
X00352749Y00994577D01*
X00352595Y00995010D01*
X00352409Y00995443D01*
X00352162Y00995875D01*
X00351884Y00996308D01*
X00351575Y00996740D01*
X00351235Y00997142D01*
X00351204Y00997173D01*
X00351142Y00997235D01*
X00351019Y00997327D01*
X00350864Y00997482D01*
X00350679Y00997636D01*
X00350432Y00997822D01*
X00350154Y00998007D01*
X00349845Y00998193D01*
X00349505Y00998378D01*
X00349103Y00998594D01*
X00348701Y00998749D01*
X00348238Y00998903D01*
X00347743Y00999058D01*
X00347249Y00999151D01*
X00346693Y00999212D01*
X00346137Y00999243D01*
X00346137Y00999243D02*
G37*
G36*
X00306801Y00989633D02*
X00300745Y00988799D01*
X00300714Y00988799D01*
X00300621Y00988768D01*
X00300466Y00988768D01*
X00300281Y00988737D01*
X00300065Y00988676D01*
X00299787Y00988614D01*
X00299169Y00988490D01*
X00298489Y00988305D01*
X00297809Y00988058D01*
X00297129Y00987749D01*
X00296820Y00987594D01*
X00296542Y00987409D01*
X00296480Y00987347D01*
X00296326Y00987223D01*
X00296079Y00986976D01*
X00295832Y00986605D01*
X00295584Y00986111D01*
X00295461Y00985833D01*
X00295337Y00985524D01*
X00295244Y00985184D01*
X00295183Y00984782D01*
X00295152Y00984380D01*
X00295121Y00983917D01*
X00295121Y00983886D01*
X00295121Y00983824D01*
X00295121Y00983731D01*
X00295152Y00983608D01*
X00295183Y00983268D01*
X00295275Y00982835D01*
X00295430Y00982372D01*
X00295677Y00981847D01*
X00295986Y00981352D01*
X00296419Y00980889D01*
X00296450Y00980889D01*
X00296480Y00980827D01*
X00296666Y00980703D01*
X00296944Y00980518D01*
X00297346Y00980332D01*
X00297871Y00980116D01*
X00298458Y00979931D01*
X00299169Y00979807D01*
X00299941Y00979745D01*
X00300219Y00979745D01*
X00300436Y00979776D01*
X00300683Y00979807D01*
X00300992Y00979869D01*
X00301301Y00979931D01*
X00301672Y00980024D01*
X00302444Y00980271D01*
X00302846Y00980425D01*
X00303278Y00980641D01*
X00303680Y00980889D01*
X00304082Y00981167D01*
X00304483Y00981476D01*
X00304854Y00981847D01*
X00304885Y00981878D01*
X00304947Y00981939D01*
X00305040Y00982063D01*
X00305163Y00982217D01*
X00305318Y00982434D01*
X00305472Y00982681D01*
X00305658Y00982959D01*
X00305843Y00983299D01*
X00305998Y00983670D01*
X00306183Y00984071D01*
X00306337Y00984504D01*
X00306492Y00984967D01*
X00306616Y00985462D01*
X00306708Y00985987D01*
X00306770Y00986543D01*
X00306801Y00987130D01*
X00306801Y00989633D01*
X00306801Y00989633D02*
G37*
G36*
X00244692Y01008359D02*
X00239346Y01008359D01*
X00239346Y00997019D01*
X00243889Y00997019D01*
X00244105Y00997049D01*
X00244383Y00997080D01*
X00244723Y00997111D01*
X00245094Y00997142D01*
X00245495Y00997235D01*
X00246330Y00997420D01*
X00247226Y00997698D01*
X00247658Y00997884D01*
X00248091Y00998100D01*
X00248493Y00998347D01*
X00248863Y00998625D01*
X00248894Y00998656D01*
X00248956Y00998687D01*
X00249049Y00998811D01*
X00249173Y00998934D01*
X00249327Y00999089D01*
X00249482Y00999305D01*
X00249667Y00999552D01*
X00249852Y00999830D01*
X00250007Y01000139D01*
X00250192Y01000479D01*
X00250347Y01000850D01*
X00250501Y01001252D01*
X00250625Y01001715D01*
X00250718Y01002179D01*
X00250779Y01002704D01*
X00250810Y01003229D01*
X00250810Y01003291D01*
X00250810Y01003446D01*
X00250779Y01003693D01*
X00250718Y01004033D01*
X00250594Y01004434D01*
X00250470Y01004867D01*
X00250254Y01005331D01*
X00249976Y01005794D01*
X00249605Y01006288D01*
X00249173Y01006752D01*
X00248616Y01007185D01*
X00247967Y01007555D01*
X00247597Y01007741D01*
X00247195Y01007895D01*
X00246762Y01008019D01*
X00246299Y01008143D01*
X00245804Y01008235D01*
X00245248Y01008297D01*
X00244692Y01008359D01*
X00244692Y01008359D02*
G37*
G36*
X00244074Y00993311D02*
X00239346Y00993311D01*
X00239346Y00980672D01*
X00245279Y00980672D01*
X00245526Y00980703D01*
X00245835Y00980734D01*
X00246175Y00980765D01*
X00246577Y00980827D01*
X00247010Y00980889D01*
X00247906Y00981074D01*
X00248833Y00981383D01*
X00249296Y00981599D01*
X00249729Y00981816D01*
X00250130Y00982063D01*
X00250532Y00982372D01*
X00250563Y00982403D01*
X00250625Y00982465D01*
X00250718Y00982557D01*
X00250841Y00982681D01*
X00250996Y00982866D01*
X00251181Y00983083D01*
X00251335Y00983330D01*
X00251552Y00983608D01*
X00251737Y00983948D01*
X00251892Y00984288D01*
X00252077Y00984689D01*
X00252232Y00985091D01*
X00252355Y00985555D01*
X00252448Y00986049D01*
X00252510Y00986543D01*
X00252541Y00987100D01*
X00252541Y00987130D01*
X00252541Y00987161D01*
X00252541Y00987254D01*
X00252510Y00987378D01*
X00252479Y00987687D01*
X00252417Y00988058D01*
X00252293Y00988552D01*
X00252108Y00989077D01*
X00251830Y00989633D01*
X00251490Y00990221D01*
X00251026Y00990777D01*
X00250779Y00991055D01*
X00250470Y00991333D01*
X00250161Y00991611D01*
X00249791Y00991858D01*
X00249389Y00992105D01*
X00248956Y00992353D01*
X00248493Y00992538D01*
X00247998Y00992723D01*
X00247442Y00992909D01*
X00246855Y00993032D01*
X00246237Y00993156D01*
X00245557Y00993249D01*
X00244846Y00993280D01*
X00244074Y00993311D01*
X00244074Y00993311D02*
G37*
G36*
X00524831Y00999243D02*
X00524553Y00999243D01*
X00524368Y00999212D01*
X00524121Y00999182D01*
X00523812Y00999151D01*
X00523503Y00999089D01*
X00523163Y00998996D01*
X00522390Y00998749D01*
X00521989Y00998594D01*
X00521587Y00998378D01*
X00521185Y00998162D01*
X00520753Y00997884D01*
X00520382Y00997575D01*
X00519980Y00997204D01*
X00519949Y00997173D01*
X00519887Y00997111D01*
X00519795Y00996988D01*
X00519671Y00996833D01*
X00519517Y00996617D01*
X00519331Y00996400D01*
X00519146Y00996091D01*
X00518929Y00995783D01*
X00518713Y00995412D01*
X00518528Y00995010D01*
X00518312Y00994577D01*
X00518126Y00994114D01*
X00517941Y00993589D01*
X00517786Y00993063D01*
X00517632Y00992476D01*
X00517539Y00991889D01*
X00531104Y00991889D01*
X00531104Y00991920D01*
X00531104Y00992044D01*
X00531104Y00992229D01*
X00531073Y00992476D01*
X00531042Y00992754D01*
X00531011Y00993094D01*
X00530950Y00993465D01*
X00530888Y00993867D01*
X00530672Y00994732D01*
X00530362Y00995659D01*
X00530177Y00996091D01*
X00529961Y00996524D01*
X00529714Y00996926D01*
X00529405Y00997297D01*
X00529374Y00997327D01*
X00529343Y00997389D01*
X00529250Y00997482D01*
X00529096Y00997606D01*
X00528941Y00997760D01*
X00528725Y00997915D01*
X00528509Y00998100D01*
X00528230Y00998285D01*
X00527921Y00998440D01*
X00527582Y00998625D01*
X00527180Y00998780D01*
X00526778Y00998934D01*
X00526346Y00999058D01*
X00525882Y00999151D01*
X00525357Y00999212D01*
X00524831Y00999243D01*
X00524831Y00999243D02*
G37*
G36*
X00394124Y01008946D02*
X00393877Y01008946D01*
X00393599Y01008915D01*
X00393197Y01008884D01*
X00392734Y01008822D01*
X00392178Y01008730D01*
X00391591Y01008606D01*
X00390942Y01008452D01*
X00390231Y01008235D01*
X00389489Y01007988D01*
X00388748Y01007648D01*
X00388006Y01007277D01*
X00387234Y01006814D01*
X00386523Y01006288D01*
X00385812Y01005670D01*
X00385132Y01004960D01*
X00385102Y01004929D01*
X00384978Y01004774D01*
X00384824Y01004558D01*
X00384607Y01004249D01*
X00384329Y01003847D01*
X00384051Y01003353D01*
X00383742Y01002797D01*
X00383433Y01002148D01*
X00383093Y01001437D01*
X00382784Y01000634D01*
X00382506Y00999769D01*
X00382228Y00998842D01*
X00382012Y00997853D01*
X00381857Y00996771D01*
X00381733Y00995659D01*
X00381703Y00994454D01*
X00381703Y00994423D01*
X00381703Y00994392D01*
X00381703Y00994299D01*
X00381703Y00994176D01*
X00381703Y00994021D01*
X00381733Y00993836D01*
X00381764Y00993372D01*
X00381795Y00992816D01*
X00381888Y00992198D01*
X00381981Y00991487D01*
X00382135Y00990715D01*
X00382290Y00989912D01*
X00382537Y00989046D01*
X00382784Y00988181D01*
X00383124Y00987316D01*
X00383495Y00986451D01*
X00383958Y00985586D01*
X00384484Y00984782D01*
X00385071Y00984010D01*
X00385102Y00983979D01*
X00385225Y00983855D01*
X00385411Y00983639D01*
X00385689Y00983392D01*
X00386029Y00983083D01*
X00386430Y00982774D01*
X00386894Y00982403D01*
X00387419Y00982032D01*
X00388037Y00981661D01*
X00388686Y00981321D01*
X00389428Y00980981D01*
X00390200Y00980672D01*
X00391034Y00980425D01*
X00391930Y00980240D01*
X00392858Y00980085D01*
X00393846Y00980054D01*
X00394094Y00980054D01*
X00394402Y00980085D01*
X00394804Y00980116D01*
X00395299Y00980178D01*
X00395855Y00980240D01*
X00396473Y00980363D01*
X00397153Y00980518D01*
X00397863Y00980734D01*
X00398605Y00980981D01*
X00399377Y00981290D01*
X00400119Y00981661D01*
X00400892Y00982063D01*
X00401602Y00982588D01*
X00402313Y00983175D01*
X00402962Y00983824D01*
X00402993Y00983855D01*
X00403116Y00984010D01*
X00403271Y00984226D01*
X00403487Y00984535D01*
X00403734Y00984906D01*
X00404012Y00985369D01*
X00404321Y00985925D01*
X00404630Y00986574D01*
X00404939Y00987285D01*
X00405248Y00988058D01*
X00405526Y00988923D01*
X00405774Y00989881D01*
X00405990Y00990900D01*
X00406144Y00991982D01*
X00406268Y00993156D01*
X00406299Y00994392D01*
X00406299Y00994423D01*
X00406299Y00994485D01*
X00406299Y00994577D01*
X00406299Y00994701D01*
X00406299Y00994856D01*
X00406268Y00995072D01*
X00406237Y00995535D01*
X00406206Y00996122D01*
X00406114Y00996802D01*
X00406021Y00997544D01*
X00405897Y00998347D01*
X00405712Y00999182D01*
X00405496Y01000078D01*
X00405248Y01000974D01*
X00404939Y01001870D01*
X00404569Y01002735D01*
X00404136Y01003600D01*
X00403642Y01004404D01*
X00403055Y01005145D01*
X00403024Y01005176D01*
X00402900Y01005300D01*
X00402715Y01005485D01*
X00402467Y01005732D01*
X00402127Y01006041D01*
X00401726Y01006350D01*
X00401262Y01006690D01*
X00400737Y01007061D01*
X00400119Y01007401D01*
X00399439Y01007741D01*
X00398728Y01008081D01*
X00397925Y01008359D01*
X00397060Y01008606D01*
X00396133Y01008791D01*
X00395175Y01008915D01*
X00394124Y01008946D01*
X00394124Y01008946D02*
G37*
G36*
X00274232Y00999243D02*
X00274078Y00999243D01*
X00273862Y00999212D01*
X00273584Y00999212D01*
X00273274Y00999151D01*
X00272904Y00999120D01*
X00272471Y00999027D01*
X00272008Y00998903D01*
X00271544Y00998780D01*
X00271050Y00998594D01*
X00270524Y00998378D01*
X00270030Y00998131D01*
X00269505Y00997822D01*
X00269010Y00997482D01*
X00268547Y00997080D01*
X00268114Y00996617D01*
X00268083Y00996586D01*
X00268022Y00996493D01*
X00267898Y00996339D01*
X00267774Y00996122D01*
X00267589Y00995875D01*
X00267404Y00995535D01*
X00267187Y00995164D01*
X00267002Y00994732D01*
X00266786Y00994237D01*
X00266569Y00993681D01*
X00266384Y00993094D01*
X00266198Y00992445D01*
X00266075Y00991735D01*
X00265951Y00990993D01*
X00265889Y00990190D01*
X00265858Y00989355D01*
X00265858Y00989293D01*
X00265858Y00989170D01*
X00265889Y00988923D01*
X00265889Y00988614D01*
X00265920Y00988243D01*
X00265982Y00987810D01*
X00266044Y00987316D01*
X00266137Y00986791D01*
X00266260Y00986234D01*
X00266415Y00985678D01*
X00266600Y00985091D01*
X00266816Y00984504D01*
X00267064Y00983917D01*
X00267373Y00983361D01*
X00267712Y00982804D01*
X00268114Y00982310D01*
X00268145Y00982279D01*
X00268207Y00982187D01*
X00268361Y00982063D01*
X00268547Y00981908D01*
X00268763Y00981723D01*
X00269041Y00981507D01*
X00269381Y00981260D01*
X00269752Y00981043D01*
X00270154Y00980796D01*
X00270617Y00980549D01*
X00271111Y00980332D01*
X00271668Y00980147D01*
X00272255Y00979993D01*
X00272873Y00979869D01*
X00273522Y00979776D01*
X00274232Y00979745D01*
X00274418Y00979745D01*
X00274603Y00979776D01*
X00274881Y00979776D01*
X00275190Y00979838D01*
X00275561Y00979869D01*
X00275994Y00979962D01*
X00276457Y00980054D01*
X00276921Y00980178D01*
X00277415Y00980363D01*
X00277909Y00980549D01*
X00278404Y00980796D01*
X00278898Y00981074D01*
X00279362Y00981414D01*
X00279825Y00981816D01*
X00280227Y00982248D01*
X00280258Y00982279D01*
X00280320Y00982372D01*
X00280412Y00982526D01*
X00280567Y00982712D01*
X00280721Y00982990D01*
X00280907Y00983299D01*
X00281092Y00983670D01*
X00281278Y00984102D01*
X00281463Y00984597D01*
X00281679Y00985122D01*
X00281834Y00985709D01*
X00281988Y00986358D01*
X00282143Y00987038D01*
X00282236Y00987810D01*
X00282297Y00988614D01*
X00282328Y00989448D01*
X00282328Y00989510D01*
X00282328Y00989664D01*
X00282328Y00989912D01*
X00282297Y00990221D01*
X00282266Y00990622D01*
X00282205Y00991055D01*
X00282143Y00991580D01*
X00282081Y00992105D01*
X00281803Y00993280D01*
X00281648Y00993867D01*
X00281432Y00994485D01*
X00281216Y00995072D01*
X00280907Y00995628D01*
X00280598Y00996184D01*
X00280227Y00996679D01*
X00280196Y00996710D01*
X00280134Y00996802D01*
X00280011Y00996926D01*
X00279825Y00997080D01*
X00279609Y00997266D01*
X00279362Y00997482D01*
X00279053Y00997729D01*
X00278682Y00997976D01*
X00278280Y00998193D01*
X00277848Y00998440D01*
X00277353Y00998656D01*
X00276828Y00998842D01*
X00276241Y00998996D01*
X00275623Y00999120D01*
X00274943Y00999212D01*
X00274232Y00999243D01*
X00274232Y00999243D02*
G37*
G36*
X-00073237Y00931562D02*
X-00079293Y00930728D01*
X-00079324Y00930728D01*
X-00079417Y00930697D01*
X-00079571Y00930697D01*
X-00079757Y00930666D01*
X-00079973Y00930605D01*
X-00080251Y00930543D01*
X-00080869Y00930419D01*
X-00081549Y00930234D01*
X-00082229Y00929986D01*
X-00082909Y00929678D01*
X-00083218Y00929523D01*
X-00083496Y00929338D01*
X-00083558Y00929276D01*
X-00083712Y00929152D01*
X-00083959Y00928905D01*
X-00084206Y00928534D01*
X-00084454Y00928040D01*
X-00084577Y00927762D01*
X-00084701Y00927453D01*
X-00084793Y00927113D01*
X-00084855Y00926711D01*
X-00084886Y00926309D01*
X-00084917Y00925846D01*
X-00084917Y00925815D01*
X-00084917Y00925753D01*
X-00084917Y00925660D01*
X-00084886Y00925537D01*
X-00084855Y00925197D01*
X-00084763Y00924764D01*
X-00084608Y00924301D01*
X-00084361Y00923776D01*
X-00084052Y00923281D01*
X-00083619Y00922818D01*
X-00083588Y00922818D01*
X-00083558Y00922756D01*
X-00083372Y00922632D01*
X-00083094Y00922447D01*
X-00082692Y00922261D01*
X-00082167Y00922045D01*
X-00081580Y00921860D01*
X-00080869Y00921736D01*
X-00080097Y00921674D01*
X-00079819Y00921674D01*
X-00079602Y00921705D01*
X-00079355Y00921736D01*
X-00079046Y00921798D01*
X-00078737Y00921860D01*
X-00078366Y00921952D01*
X-00077594Y00922200D01*
X-00077192Y00922354D01*
X-00076760Y00922571D01*
X-00076358Y00922818D01*
X-00075956Y00923096D01*
X-00075554Y00923405D01*
X-00075184Y00923776D01*
X-00075153Y00923807D01*
X-00075091Y00923868D01*
X-00074998Y00923992D01*
X-00074875Y00924146D01*
X-00074720Y00924363D01*
X-00074566Y00924610D01*
X-00074380Y00924888D01*
X-00074195Y00925228D01*
X-00074040Y00925599D01*
X-00073855Y00926000D01*
X-00073700Y00926433D01*
X-00073546Y00926896D01*
X-00073422Y00927391D01*
X-00073330Y00927916D01*
X-00073268Y00928472D01*
X-00073237Y00929059D01*
X-00073237Y00931562D01*
X-00073237Y00931562D02*
G37*
G36*
X-00105805Y00950288D02*
X-00110626Y00950288D01*
X-00110626Y00935888D01*
X-00105929Y00935888D01*
X-00105620Y00935919D01*
X-00105280Y00935950D01*
X-00104879Y00935981D01*
X-00104415Y00936043D01*
X-00103921Y00936136D01*
X-00102870Y00936352D01*
X-00102345Y00936537D01*
X-00101788Y00936723D01*
X-00101263Y00936939D01*
X-00100769Y00937186D01*
X-00100274Y00937495D01*
X-00099842Y00937835D01*
X-00099811Y00937866D01*
X-00099749Y00937928D01*
X-00099626Y00938051D01*
X-00099502Y00938206D01*
X-00099317Y00938391D01*
X-00099131Y00938639D01*
X-00098915Y00938917D01*
X-00098698Y00939256D01*
X-00098513Y00939627D01*
X-00098297Y00940029D01*
X-00098111Y00940492D01*
X-00097926Y00940987D01*
X-00097802Y00941512D01*
X-00097679Y00942068D01*
X-00097617Y00942686D01*
X-00097586Y00943335D01*
X-00097586Y00943366D01*
X-00097586Y00943428D01*
X-00097586Y00943521D01*
X-00097586Y00943644D01*
X-00097648Y00943984D01*
X-00097710Y00944417D01*
X-00097833Y00944942D01*
X-00098019Y00945529D01*
X-00098266Y00946178D01*
X-00098606Y00946827D01*
X-00099038Y00947476D01*
X-00099595Y00948094D01*
X-00099904Y00948403D01*
X-00100243Y00948681D01*
X-00100645Y00948959D01*
X-00101047Y00949206D01*
X-00101510Y00949423D01*
X-00102005Y00949639D01*
X-00102530Y00949824D01*
X-00103086Y00949979D01*
X-00103704Y00950102D01*
X-00104353Y00950226D01*
X-00105064Y00950257D01*
X-00105805Y00950288D01*
X-00105805Y00950288D02*
G37*
G36*
X-00283851Y00950288D02*
X-00289197Y00950288D01*
X-00289197Y00938947D01*
X-00284655Y00938947D01*
X-00284438Y00938978D01*
X-00284160Y00939009D01*
X-00283820Y00939040D01*
X-00283450Y00939071D01*
X-00283048Y00939164D01*
X-00282214Y00939349D01*
X-00281317Y00939627D01*
X-00280885Y00939813D01*
X-00280452Y00940029D01*
X-00280051Y00940276D01*
X-00279680Y00940554D01*
X-00279649Y00940585D01*
X-00279587Y00940616D01*
X-00279494Y00940740D01*
X-00279371Y00940863D01*
X-00279216Y00941018D01*
X-00279062Y00941234D01*
X-00278876Y00941481D01*
X-00278691Y00941759D01*
X-00278536Y00942068D01*
X-00278351Y00942408D01*
X-00278197Y00942779D01*
X-00278042Y00943181D01*
X-00277918Y00943644D01*
X-00277826Y00944108D01*
X-00277764Y00944633D01*
X-00277733Y00945158D01*
X-00277733Y00945220D01*
X-00277733Y00945375D01*
X-00277764Y00945622D01*
X-00277826Y00945962D01*
X-00277949Y00946364D01*
X-00278073Y00946796D01*
X-00278289Y00947260D01*
X-00278567Y00947723D01*
X-00278938Y00948217D01*
X-00279371Y00948681D01*
X-00279927Y00949114D01*
X-00280576Y00949484D01*
X-00280947Y00949670D01*
X-00281348Y00949824D01*
X-00281781Y00949948D01*
X-00282245Y00950072D01*
X-00282739Y00950164D01*
X-00283295Y00950226D01*
X-00283851Y00950288D01*
X-00283851Y00950288D02*
G37*
G36*
X-00284469Y00935240D02*
X-00289197Y00935240D01*
X-00289197Y00922601D01*
X-00283264Y00922601D01*
X-00283017Y00922632D01*
X-00282708Y00922663D01*
X-00282368Y00922694D01*
X-00281966Y00922756D01*
X-00281534Y00922818D01*
X-00280638Y00923003D01*
X-00279711Y00923312D01*
X-00279247Y00923528D01*
X-00278815Y00923745D01*
X-00278413Y00923992D01*
X-00278011Y00924301D01*
X-00277980Y00924332D01*
X-00277918Y00924394D01*
X-00277826Y00924486D01*
X-00277702Y00924610D01*
X-00277548Y00924795D01*
X-00277362Y00925012D01*
X-00277208Y00925259D01*
X-00276991Y00925537D01*
X-00276806Y00925877D01*
X-00276652Y00926217D01*
X-00276466Y00926618D01*
X-00276312Y00927020D01*
X-00276188Y00927484D01*
X-00276095Y00927978D01*
X-00276034Y00928472D01*
X-00276003Y00929029D01*
X-00276003Y00929059D01*
X-00276003Y00929090D01*
X-00276003Y00929183D01*
X-00276034Y00929307D01*
X-00276065Y00929616D01*
X-00276126Y00929986D01*
X-00276250Y00930481D01*
X-00276435Y00931006D01*
X-00276713Y00931562D01*
X-00277053Y00932149D01*
X-00277517Y00932706D01*
X-00277764Y00932984D01*
X-00278073Y00933262D01*
X-00278382Y00933540D01*
X-00278753Y00933787D01*
X-00279154Y00934034D01*
X-00279587Y00934282D01*
X-00280051Y00934467D01*
X-00280545Y00934652D01*
X-00281101Y00934838D01*
X-00281688Y00934961D01*
X-00282306Y00935085D01*
X-00282986Y00935178D01*
X-00283697Y00935209D01*
X-00284469Y00935240D01*
X-00284469Y00935240D02*
G37*
G36*
X-00013569Y00941172D02*
X-00013847Y00941172D01*
X-00014033Y00941141D01*
X-00014280Y00941111D01*
X-00014589Y00941080D01*
X-00014898Y00941018D01*
X-00015238Y00940925D01*
X-00016010Y00940678D01*
X-00016412Y00940523D01*
X-00016814Y00940307D01*
X-00017215Y00940091D01*
X-00017648Y00939813D01*
X-00018019Y00939504D01*
X-00018420Y00939133D01*
X-00018451Y00939102D01*
X-00018513Y00939040D01*
X-00018606Y00938917D01*
X-00018729Y00938762D01*
X-00018884Y00938546D01*
X-00019069Y00938330D01*
X-00019255Y00938020D01*
X-00019471Y00937712D01*
X-00019687Y00937341D01*
X-00019873Y00936939D01*
X-00020089Y00936506D01*
X-00020274Y00936043D01*
X-00020460Y00935518D01*
X-00020614Y00934992D01*
X-00020769Y00934405D01*
X-00020861Y00933818D01*
X-00007296Y00933818D01*
X-00007296Y00933849D01*
X-00007296Y00933973D01*
X-00007296Y00934158D01*
X-00007327Y00934405D01*
X-00007358Y00934683D01*
X-00007389Y00935023D01*
X-00007451Y00935394D01*
X-00007513Y00935796D01*
X-00007729Y00936661D01*
X-00008038Y00937588D01*
X-00008223Y00938020D01*
X-00008440Y00938453D01*
X-00008687Y00938855D01*
X-00008996Y00939226D01*
X-00009027Y00939256D01*
X-00009058Y00939318D01*
X-00009150Y00939411D01*
X-00009305Y00939535D01*
X-00009459Y00939689D01*
X-00009676Y00939844D01*
X-00009892Y00940029D01*
X-00010170Y00940214D01*
X-00010479Y00940369D01*
X-00010819Y00940554D01*
X-00011221Y00940709D01*
X-00011622Y00940863D01*
X-00012055Y00940987D01*
X-00012518Y00941080D01*
X-00013044Y00941141D01*
X-00013569Y00941172D01*
X-00013569Y00941172D02*
G37*
G36*
X-00190904Y00941172D02*
X-00191059Y00941172D01*
X-00191275Y00941141D01*
X-00191553Y00941141D01*
X-00191862Y00941080D01*
X-00192233Y00941049D01*
X-00192665Y00940956D01*
X-00193129Y00940832D01*
X-00193592Y00940709D01*
X-00194087Y00940523D01*
X-00194612Y00940307D01*
X-00195107Y00940060D01*
X-00195632Y00939751D01*
X-00196126Y00939411D01*
X-00196590Y00939009D01*
X-00197022Y00938546D01*
X-00197053Y00938515D01*
X-00197115Y00938422D01*
X-00197239Y00938268D01*
X-00197362Y00938051D01*
X-00197548Y00937804D01*
X-00197733Y00937464D01*
X-00197949Y00937093D01*
X-00198135Y00936661D01*
X-00198351Y00936167D01*
X-00198567Y00935610D01*
X-00198753Y00935023D01*
X-00198938Y00934374D01*
X-00199062Y00933664D01*
X-00199185Y00932922D01*
X-00199247Y00932119D01*
X-00199278Y00931284D01*
X-00199278Y00931222D01*
X-00199278Y00931099D01*
X-00199247Y00930852D01*
X-00199247Y00930543D01*
X-00199216Y00930172D01*
X-00199154Y00929739D01*
X-00199093Y00929245D01*
X-00199000Y00928720D01*
X-00198876Y00928163D01*
X-00198722Y00927607D01*
X-00198536Y00927020D01*
X-00198320Y00926433D01*
X-00198073Y00925846D01*
X-00197764Y00925290D01*
X-00197424Y00924734D01*
X-00197022Y00924239D01*
X-00196991Y00924208D01*
X-00196930Y00924115D01*
X-00196775Y00923992D01*
X-00196590Y00923837D01*
X-00196373Y00923652D01*
X-00196095Y00923436D01*
X-00195755Y00923188D01*
X-00195385Y00922972D01*
X-00194983Y00922725D01*
X-00194519Y00922478D01*
X-00194025Y00922261D01*
X-00193469Y00922076D01*
X-00192882Y00921922D01*
X-00192264Y00921798D01*
X-00191615Y00921705D01*
X-00190904Y00921674D01*
X-00190719Y00921674D01*
X-00190533Y00921705D01*
X-00190255Y00921705D01*
X-00189946Y00921767D01*
X-00189575Y00921798D01*
X-00189143Y00921891D01*
X-00188679Y00921983D01*
X-00188216Y00922107D01*
X-00187721Y00922292D01*
X-00187227Y00922478D01*
X-00186733Y00922725D01*
X-00186238Y00923003D01*
X-00185775Y00923343D01*
X-00185311Y00923745D01*
X-00184910Y00924177D01*
X-00184879Y00924208D01*
X-00184817Y00924301D01*
X-00184724Y00924455D01*
X-00184570Y00924641D01*
X-00184415Y00924919D01*
X-00184230Y00925228D01*
X-00184044Y00925599D01*
X-00183859Y00926031D01*
X-00183673Y00926526D01*
X-00183457Y00927051D01*
X-00183303Y00927638D01*
X-00183148Y00928287D01*
X-00182994Y00928967D01*
X-00182901Y00929739D01*
X-00182839Y00930543D01*
X-00182808Y00931377D01*
X-00182808Y00931439D01*
X-00182808Y00931593D01*
X-00182808Y00931841D01*
X-00182839Y00932149D01*
X-00182870Y00932551D01*
X-00182932Y00932984D01*
X-00182994Y00933509D01*
X-00183055Y00934034D01*
X-00183334Y00935209D01*
X-00183488Y00935796D01*
X-00183704Y00936414D01*
X-00183921Y00937001D01*
X-00184230Y00937557D01*
X-00184539Y00938113D01*
X-00184910Y00938608D01*
X-00184940Y00938639D01*
X-00185002Y00938731D01*
X-00185126Y00938855D01*
X-00185311Y00939009D01*
X-00185528Y00939195D01*
X-00185775Y00939411D01*
X-00186084Y00939658D01*
X-00186454Y00939905D01*
X-00186856Y00940122D01*
X-00187289Y00940369D01*
X-00187783Y00940585D01*
X-00188309Y00940771D01*
X-00188896Y00940925D01*
X-00189514Y00941049D01*
X-00190193Y00941141D01*
X-00190904Y00941172D01*
X-00190904Y00941172D02*
G37*
G36*
X-00254311Y00941172D02*
X-00254465Y00941172D01*
X-00254682Y00941141D01*
X-00254960Y00941141D01*
X-00255269Y00941080D01*
X-00255640Y00941049D01*
X-00256072Y00940956D01*
X-00256536Y00940832D01*
X-00256999Y00940709D01*
X-00257494Y00940523D01*
X-00258019Y00940307D01*
X-00258513Y00940060D01*
X-00259039Y00939751D01*
X-00259533Y00939411D01*
X-00259997Y00939009D01*
X-00260429Y00938546D01*
X-00260460Y00938515D01*
X-00260522Y00938422D01*
X-00260645Y00938268D01*
X-00260769Y00938051D01*
X-00260954Y00937804D01*
X-00261140Y00937464D01*
X-00261356Y00937093D01*
X-00261541Y00936661D01*
X-00261758Y00936167D01*
X-00261974Y00935610D01*
X-00262159Y00935023D01*
X-00262345Y00934374D01*
X-00262469Y00933664D01*
X-00262592Y00932922D01*
X-00262654Y00932119D01*
X-00262685Y00931284D01*
X-00262685Y00931222D01*
X-00262685Y00931099D01*
X-00262654Y00930852D01*
X-00262654Y00930543D01*
X-00262623Y00930172D01*
X-00262561Y00929739D01*
X-00262499Y00929245D01*
X-00262407Y00928720D01*
X-00262283Y00928163D01*
X-00262129Y00927607D01*
X-00261943Y00927020D01*
X-00261727Y00926433D01*
X-00261480Y00925846D01*
X-00261171Y00925290D01*
X-00260831Y00924734D01*
X-00260429Y00924239D01*
X-00260398Y00924208D01*
X-00260336Y00924115D01*
X-00260182Y00923992D01*
X-00259997Y00923837D01*
X-00259780Y00923652D01*
X-00259502Y00923436D01*
X-00259162Y00923188D01*
X-00258791Y00922972D01*
X-00258390Y00922725D01*
X-00257926Y00922478D01*
X-00257432Y00922261D01*
X-00256876Y00922076D01*
X-00256288Y00921922D01*
X-00255671Y00921798D01*
X-00255022Y00921705D01*
X-00254311Y00921674D01*
X-00254125Y00921674D01*
X-00253940Y00921705D01*
X-00253662Y00921705D01*
X-00253353Y00921767D01*
X-00252982Y00921798D01*
X-00252550Y00921891D01*
X-00252086Y00921983D01*
X-00251623Y00922107D01*
X-00251128Y00922292D01*
X-00250634Y00922478D01*
X-00250139Y00922725D01*
X-00249645Y00923003D01*
X-00249181Y00923343D01*
X-00248718Y00923745D01*
X-00248316Y00924177D01*
X-00248285Y00924208D01*
X-00248224Y00924301D01*
X-00248131Y00924455D01*
X-00247976Y00924641D01*
X-00247822Y00924919D01*
X-00247637Y00925228D01*
X-00247451Y00925599D01*
X-00247266Y00926031D01*
X-00247080Y00926526D01*
X-00246864Y00927051D01*
X-00246709Y00927638D01*
X-00246555Y00928287D01*
X-00246400Y00928967D01*
X-00246308Y00929739D01*
X-00246246Y00930543D01*
X-00246215Y00931377D01*
X-00246215Y00931439D01*
X-00246215Y00931593D01*
X-00246215Y00931841D01*
X-00246246Y00932149D01*
X-00246277Y00932551D01*
X-00246339Y00932984D01*
X-00246400Y00933509D01*
X-00246462Y00934034D01*
X-00246740Y00935209D01*
X-00246895Y00935796D01*
X-00247111Y00936414D01*
X-00247327Y00937001D01*
X-00247637Y00937557D01*
X-00247946Y00938113D01*
X-00248316Y00938608D01*
X-00248347Y00938639D01*
X-00248409Y00938731D01*
X-00248533Y00938855D01*
X-00248718Y00939009D01*
X-00248934Y00939195D01*
X-00249181Y00939411D01*
X-00249490Y00939658D01*
X-00249861Y00939905D01*
X-00250263Y00940122D01*
X-00250696Y00940369D01*
X-00251190Y00940585D01*
X-00251715Y00940771D01*
X-00252302Y00940925D01*
X-00252920Y00941049D01*
X-00253600Y00941141D01*
X-00254311Y00941172D01*
X-00254311Y00941172D02*
G37*
%LPD*%
D11*
X-00688976Y-00393701D02*
G03*
X-00590551Y-00492126I00098425J00000000D01*
G01*
X-00555117Y-00236220D02*
G03*
X-00515747Y-00196850I00000000J00039370D01*
G01*
X-00515730Y-00169291D02*
G03*
X-00555100Y-00129921I-00039370J00000000D01*
G01*
X-00555029Y00129921D02*
G03*
X-00515659Y00169291I00000000J00039370D01*
G01*
X-00515747Y00196850D02*
G03*
X-00555117Y00236220I-00039370J00000000D01*
G01*
X-00492125Y00472442D02*
G03*
X-00413385Y00472442I00039370J00000000D01*
G01*
X-00403543Y00492126D02*
G03*
X-00413385Y00482284I00000000J-00009842D01*
G01*
X-00492125Y00482284D02*
G03*
X-00501968Y00492126I-00009842J00000000D01*
G01*
X-00590551Y00492126D02*
G03*
X-00688976Y00393701I00000000J-00098425D01*
G01*
X-00688976Y00275591D02*
G03*
X-00649606Y00236220I00039370J00000000D01*
G01*
X-00716535Y00129921D02*
G03*
X-00748031Y00098425I00000000J-00031496D01*
G01*
X-00748031Y-00098425D02*
G03*
X-00716535Y-00129921I00031496J00000000D01*
G01*
X-00649606Y-00236220D02*
G03*
X-00688976Y-00275591I00000000J-00039370D01*
G01*
X00590552Y-00492126D02*
G03*
X00688977Y-00393701I00000000J00098425D01*
G01*
X00688977Y00393701D02*
G03*
X00590552Y00492126I-00098425J00000000D01*
G01*
D18*
X-00590551Y-00492126D02*
X00590552Y-00492126D01*
X00688977Y-00393700D02*
X00688977Y00216319D01*
X00688977Y00393811D01*
X00590552Y00492126D02*
X-00403543Y00492126D01*
X-00413385Y00482284D02*
X-00413385Y00472442D01*
X-00492125Y00472442D02*
X-00492125Y00482284D01*
X-00501968Y00492126D02*
X-00590551Y00492127D01*
X-00688976Y00393701D02*
X-00688976Y00274409D01*
X-00649606Y00236220D02*
X-00555117Y00236220D01*
X-00515747Y00196850D02*
X-00515730Y00169291D01*
X-00555117Y00129921D02*
X-00716535Y00129921D01*
X-00748032Y00098425D02*
X-00748032Y-00098425D01*
X-00716535Y-00129920D02*
X-00555117Y-00129920D01*
X-00515730Y-00169291D02*
X-00515747Y-00196850D01*
X-00555117Y-00236220D02*
X-00649606Y-00236220D01*
X-00688976Y-00274409D02*
X-00688976Y-00393701D01*
M02*
