M48
;Layer_Color=9474304
;FILE_FORMAT=4:2
METRIC,TZ
;TYPE=PLATED
T1F00S00C0.30
T2F00S00C0.40
T3F00S00C0.66
T4F00S00C0.71
T5F00S00C3.10
;TYPE=NON_PLATED
%
T01
X3310Y-3247
X3221Y-2685
X3710Y-2785
X4109Y-1885
X4206Y-1909
X4067Y-1603
X3226Y-881
X2763Y-786
X2599Y-693
X2697Y-366
X2718Y-264
X3011Y-259
X3026Y-528
X2865Y34
X2745Y181
X3166Y130
X3542Y302
X3675Y-38
X3690Y-129
X3746Y-424
X3914Y-322
X3310Y1068
T02
X3192Y-2798
X3437Y-2760
X3316Y-2191
X3460Y-1756
X3931Y-1758
X3020Y-914
X2637Y-1206
X3294Y-405
X3328Y169
X3331Y422
X3152Y542
X2533Y260
T03
X2308Y-786
X2476Y-786
X2476Y-659
X2308Y-659
X2308Y-532
T04
X3183Y-2960
X3310Y-2960
X3437Y-2960
X3437Y780
X3310Y780
X3183Y780
T05
X2310Y-3090
X4310Y-3090
X4310Y910
X2310Y910
M30
