M48
;Layer_Color=9474304
;FILE_FORMAT=4:4
METRIC,TZ
;TYPE=PLATED
T1F00S00C0.3000
T2F00S00C4.1900
;TYPE=NON_PLATED
T3F00S00C4.1900
%
T01
X619073Y110512
X671003Y130000
X671003Y360000
X619073Y340512
X531002Y360000
X479072Y340512
X391002Y360000
X339072Y340512
X251001Y360000
X199071Y340512
X199071Y110512
X251001Y130000
X339072Y110512
X391002Y130000
X479072Y110512
X531002Y130000
X111001Y130000
X59070Y110512
X59070Y340512
X111001Y360000
X111001Y590000
X59070Y570512
X199071Y570512
X251001Y590000
X339072Y570512
X391002Y590000
X479072Y570512
X531002Y590000
X619073Y570512
X671003Y590000
T02
X656003Y204000
X656003Y434000
X516002Y434000
X376002Y434000
X236001Y434000
X236001Y204000
X376002Y204000
X516002Y204000
X96001Y204000
X96001Y434000
X96001Y664000
X236001Y664000
X376002Y664000
X516002Y664000
X656003Y664000
T03
X656003Y104000
X656003Y334000
X516002Y334000
X376002Y334000
X236001Y334000
X236001Y104000
X376002Y104000
X516002Y104000
X96000Y104000
X96000Y334000
X96000Y564000
X236001Y564000
X376002Y564000
X516002Y564000
X656003Y564000
M30
