G04*
G04 #@! TF.GenerationSoftware,Altium Limited,Altium Designer,21.6.4 (81)*
G04*
G04 Layer_Color=128*
%FSAX25Y25*%
%MOIN*%
G70*
G04*
G04 #@! TF.SameCoordinates,951E7868-A63B-422C-B91B-43858A88E4F6*
G04*
G04*
G04 #@! TF.FilePolarity,Positive*
G04*
G01*
G75*
%ADD14C,0.00787*%
%ADD18C,0.07874*%
%ADD23R,0.03937X0.02756*%
%ADD24R,0.02362X0.03937*%
%ADD28R,0.01968X0.02165*%
%ADD29R,0.01968X0.02165*%
%ADD30R,0.03543X0.02362*%
%ADD32R,0.02165X0.01968*%
%ADD55R,0.01280X0.02461*%
%ADD56R,0.02362X0.01575*%
G36*
X0503737Y0214153D02*
X0503761D01*
X0503817Y0214128D01*
X0503848Y0214110D01*
X0503879Y0214085D01*
X0503885Y0214079D01*
X0503891Y0214073D01*
X0503922Y0214036D01*
X0503947Y0213974D01*
X0503953Y0213937D01*
X0503960Y0213899D01*
Y0213893D01*
Y0213881D01*
X0503953Y0213862D01*
X0503947Y0213838D01*
X0503929Y0213776D01*
X0503904Y0213745D01*
X0503879Y0213714D01*
X0503873D01*
X0503867Y0213701D01*
X0503829Y0213677D01*
X0503774Y0213652D01*
X0503737Y0213646D01*
X0503699Y0213639D01*
X0503681D01*
X0503662Y0213646D01*
X0503638D01*
X0503576Y0213670D01*
X0503545Y0213683D01*
X0503514Y0213708D01*
Y0213714D01*
X0503501Y0213720D01*
X0503489Y0213738D01*
X0503477Y0213757D01*
X0503452Y0213819D01*
X0503446Y0213856D01*
X0503440Y0213899D01*
Y0213906D01*
Y0213918D01*
X0503446Y0213937D01*
X0503452Y0213968D01*
X0503471Y0214023D01*
X0503489Y0214054D01*
X0503514Y0214085D01*
X0503520Y0214091D01*
X0503526Y0214098D01*
X0503563Y0214122D01*
X0503625Y0214147D01*
X0503662Y0214159D01*
X0503718D01*
X0503737Y0214153D01*
D02*
G37*
G36*
X0491747Y0210489D02*
X0491344D01*
Y0210910D01*
X0491332D01*
Y0210904D01*
X0491320Y0210891D01*
X0491301Y0210866D01*
X0491282Y0210835D01*
X0491251Y0210798D01*
X0491214Y0210761D01*
X0491171Y0210718D01*
X0491121Y0210675D01*
X0491066Y0210625D01*
X0490998Y0210582D01*
X0490930Y0210544D01*
X0490849Y0210507D01*
X0490769Y0210476D01*
X0490676Y0210452D01*
X0490577Y0210439D01*
X0490472Y0210433D01*
X0490428D01*
X0490391Y0210439D01*
X0490354Y0210445D01*
X0490304Y0210452D01*
X0490199Y0210476D01*
X0490075Y0210513D01*
X0489952Y0210576D01*
X0489883Y0210613D01*
X0489828Y0210656D01*
X0489766Y0210712D01*
X0489710Y0210767D01*
Y0210773D01*
X0489698Y0210786D01*
X0489685Y0210805D01*
X0489667Y0210829D01*
X0489648Y0210860D01*
X0489623Y0210904D01*
X0489599Y0210953D01*
X0489574Y0211009D01*
X0489543Y0211071D01*
X0489518Y0211139D01*
X0489494Y0211213D01*
X0489475Y0211294D01*
X0489456Y0211380D01*
X0489444Y0211479D01*
X0489438Y0211578D01*
X0489432Y0211684D01*
Y0211690D01*
Y0211708D01*
Y0211745D01*
X0489438Y0211789D01*
X0489444Y0211838D01*
X0489450Y0211900D01*
X0489456Y0211968D01*
X0489469Y0212042D01*
X0489506Y0212203D01*
X0489562Y0212371D01*
X0489599Y0212451D01*
X0489642Y0212531D01*
X0489685Y0212606D01*
X0489741Y0212680D01*
X0489747Y0212686D01*
X0489753Y0212699D01*
X0489772Y0212717D01*
X0489797Y0212742D01*
X0489828Y0212767D01*
X0489871Y0212798D01*
X0489914Y0212835D01*
X0489964Y0212872D01*
X0490088Y0212940D01*
X0490230Y0213002D01*
X0490310Y0213020D01*
X0490397Y0213039D01*
X0490484Y0213052D01*
X0490583Y0213058D01*
X0490632D01*
X0490670Y0213052D01*
X0490707Y0213045D01*
X0490756Y0213039D01*
X0490868Y0213008D01*
X0490991Y0212959D01*
X0491053Y0212928D01*
X0491115Y0212884D01*
X0491177Y0212841D01*
X0491233Y0212785D01*
X0491282Y0212723D01*
X0491332Y0212649D01*
X0491344D01*
Y0214209D01*
X0491747D01*
Y0210489D01*
D02*
G37*
G36*
X0506015Y0213052D02*
X0506089Y0213045D01*
X0506182Y0213027D01*
X0506281Y0212996D01*
X0506386Y0212946D01*
X0506491Y0212878D01*
X0506534Y0212841D01*
X0506578Y0212791D01*
X0506590Y0212779D01*
X0506615Y0212742D01*
X0506646Y0212680D01*
X0506689Y0212593D01*
X0506726Y0212488D01*
X0506764Y0212358D01*
X0506788Y0212203D01*
X0506795Y0212024D01*
Y0210489D01*
X0506392D01*
Y0211919D01*
Y0211925D01*
Y0211956D01*
X0506386Y0211993D01*
Y0212042D01*
X0506374Y0212104D01*
X0506361Y0212173D01*
X0506343Y0212247D01*
X0506318Y0212321D01*
X0506287Y0212395D01*
X0506250Y0212463D01*
X0506200Y0212531D01*
X0506145Y0212593D01*
X0506083Y0212643D01*
X0506002Y0212680D01*
X0505915Y0212711D01*
X0505810Y0212717D01*
X0505798D01*
X0505761Y0212711D01*
X0505705Y0212705D01*
X0505637Y0212686D01*
X0505556Y0212662D01*
X0505470Y0212618D01*
X0505389Y0212562D01*
X0505309Y0212488D01*
X0505303Y0212476D01*
X0505278Y0212451D01*
X0505247Y0212402D01*
X0505210Y0212333D01*
X0505173Y0212253D01*
X0505142Y0212154D01*
X0505117Y0212042D01*
X0505111Y0211919D01*
Y0210489D01*
X0504708D01*
Y0213002D01*
X0505111D01*
Y0212581D01*
X0505123D01*
X0505129Y0212587D01*
X0505136Y0212600D01*
X0505154Y0212624D01*
X0505179Y0212655D01*
X0505204Y0212692D01*
X0505241Y0212730D01*
X0505284Y0212773D01*
X0505334Y0212822D01*
X0505389Y0212866D01*
X0505451Y0212909D01*
X0505519Y0212946D01*
X0505594Y0212983D01*
X0505668Y0213014D01*
X0505755Y0213039D01*
X0505847Y0213052D01*
X0505946Y0213058D01*
X0505984D01*
X0506015Y0213052D01*
D02*
G37*
G36*
X0489017Y0213039D02*
X0489091Y0213033D01*
X0489134Y0213020D01*
X0489165Y0213008D01*
Y0212593D01*
X0489159Y0212600D01*
X0489147Y0212606D01*
X0489122Y0212618D01*
X0489091Y0212637D01*
X0489048Y0212649D01*
X0488992Y0212662D01*
X0488930Y0212668D01*
X0488862Y0212674D01*
X0488850D01*
X0488819Y0212668D01*
X0488769Y0212662D01*
X0488714Y0212643D01*
X0488639Y0212612D01*
X0488571Y0212569D01*
X0488497Y0212507D01*
X0488429Y0212426D01*
X0488423Y0212414D01*
X0488404Y0212383D01*
X0488373Y0212327D01*
X0488342Y0212253D01*
X0488311Y0212160D01*
X0488280Y0212042D01*
X0488262Y0211912D01*
X0488256Y0211764D01*
Y0210489D01*
X0487853D01*
Y0213002D01*
X0488256D01*
Y0212482D01*
X0488268D01*
Y0212488D01*
X0488274Y0212494D01*
X0488286Y0212525D01*
X0488305Y0212575D01*
X0488336Y0212637D01*
X0488367Y0212699D01*
X0488416Y0212767D01*
X0488466Y0212835D01*
X0488528Y0212897D01*
X0488534Y0212903D01*
X0488559Y0212922D01*
X0488596Y0212946D01*
X0488645Y0212971D01*
X0488701Y0212996D01*
X0488769Y0213020D01*
X0488843Y0213039D01*
X0488924Y0213045D01*
X0488980D01*
X0489017Y0213039D01*
D02*
G37*
G36*
X0499756Y0210489D02*
X0499354D01*
Y0210885D01*
X0499342D01*
Y0210879D01*
X0499329Y0210866D01*
X0499317Y0210842D01*
X0499292Y0210817D01*
X0499236Y0210743D01*
X0499150Y0210662D01*
X0499100Y0210619D01*
X0499045Y0210576D01*
X0498983Y0210538D01*
X0498908Y0210501D01*
X0498834Y0210476D01*
X0498754Y0210452D01*
X0498661Y0210439D01*
X0498568Y0210433D01*
X0498531D01*
X0498488Y0210439D01*
X0498426Y0210452D01*
X0498357Y0210464D01*
X0498283Y0210489D01*
X0498203Y0210520D01*
X0498122Y0210569D01*
X0498036Y0210625D01*
X0497955Y0210693D01*
X0497881Y0210780D01*
X0497813Y0210885D01*
X0497751Y0211003D01*
X0497708Y0211145D01*
X0497683Y0211312D01*
X0497670Y0211399D01*
Y0211498D01*
Y0213002D01*
X0498067D01*
Y0211560D01*
Y0211554D01*
Y0211529D01*
X0498073Y0211485D01*
X0498079Y0211436D01*
X0498085Y0211374D01*
X0498098Y0211312D01*
X0498116Y0211238D01*
X0498141Y0211163D01*
X0498178Y0211089D01*
X0498215Y0211021D01*
X0498265Y0210953D01*
X0498327Y0210891D01*
X0498395Y0210842D01*
X0498475Y0210805D01*
X0498574Y0210773D01*
X0498679Y0210767D01*
X0498692D01*
X0498729Y0210773D01*
X0498785Y0210780D01*
X0498847Y0210792D01*
X0498927Y0210823D01*
X0499008Y0210860D01*
X0499088Y0210910D01*
X0499162Y0210984D01*
X0499168Y0210996D01*
X0499193Y0211021D01*
X0499224Y0211071D01*
X0499261Y0211139D01*
X0499292Y0211219D01*
X0499323Y0211318D01*
X0499348Y0211430D01*
X0499354Y0211554D01*
Y0213002D01*
X0499756D01*
Y0210489D01*
D02*
G37*
G36*
X0503891D02*
X0503489D01*
Y0213002D01*
X0503891D01*
Y0210489D01*
D02*
G37*
G36*
X0502672D02*
X0502270D01*
Y0214209D01*
X0502672D01*
Y0210489D01*
D02*
G37*
G36*
X0486293Y0213052D02*
X0486349Y0213045D01*
X0486417Y0213027D01*
X0486491Y0213008D01*
X0486572Y0212977D01*
X0486658Y0212940D01*
X0486739Y0212891D01*
X0486819Y0212829D01*
X0486894Y0212754D01*
X0486962Y0212662D01*
X0487017Y0212556D01*
X0487061Y0212433D01*
X0487085Y0212290D01*
X0487098Y0212123D01*
Y0210489D01*
X0486696D01*
Y0210879D01*
X0486683D01*
Y0210873D01*
X0486671Y0210860D01*
X0486658Y0210835D01*
X0486634Y0210811D01*
X0486572Y0210736D01*
X0486491Y0210656D01*
X0486380Y0210576D01*
X0486250Y0210501D01*
X0486169Y0210476D01*
X0486089Y0210452D01*
X0486002Y0210439D01*
X0485910Y0210433D01*
X0485872D01*
X0485848Y0210439D01*
X0485779Y0210445D01*
X0485699Y0210458D01*
X0485600Y0210483D01*
X0485507Y0210513D01*
X0485408Y0210563D01*
X0485321Y0210625D01*
X0485315Y0210637D01*
X0485290Y0210662D01*
X0485253Y0210705D01*
X0485216Y0210767D01*
X0485179Y0210842D01*
X0485142Y0210928D01*
X0485117Y0211034D01*
X0485111Y0211151D01*
Y0211157D01*
Y0211182D01*
X0485117Y0211219D01*
X0485123Y0211262D01*
X0485136Y0211318D01*
X0485154Y0211380D01*
X0485179Y0211448D01*
X0485216Y0211516D01*
X0485259Y0211591D01*
X0485315Y0211665D01*
X0485383Y0211733D01*
X0485464Y0211795D01*
X0485557Y0211857D01*
X0485668Y0211906D01*
X0485792Y0211943D01*
X0485940Y0211974D01*
X0486696Y0212080D01*
Y0212086D01*
Y0212104D01*
X0486689Y0212141D01*
Y0212179D01*
X0486677Y0212228D01*
X0486671Y0212284D01*
X0486634Y0212402D01*
X0486603Y0212457D01*
X0486572Y0212513D01*
X0486528Y0212569D01*
X0486479Y0212618D01*
X0486417Y0212662D01*
X0486349Y0212692D01*
X0486269Y0212711D01*
X0486176Y0212717D01*
X0486132D01*
X0486101Y0212711D01*
X0486058D01*
X0486015Y0212699D01*
X0485903Y0212680D01*
X0485779Y0212643D01*
X0485643Y0212587D01*
X0485569Y0212550D01*
X0485501Y0212513D01*
X0485427Y0212463D01*
X0485358Y0212408D01*
Y0212822D01*
X0485365D01*
X0485377Y0212835D01*
X0485396Y0212847D01*
X0485427Y0212860D01*
X0485458Y0212878D01*
X0485501Y0212897D01*
X0485550Y0212915D01*
X0485606Y0212940D01*
X0485730Y0212983D01*
X0485879Y0213020D01*
X0486039Y0213045D01*
X0486213Y0213058D01*
X0486250D01*
X0486293Y0213052D01*
D02*
G37*
G36*
X0480605Y0213999D02*
X0480648D01*
X0480691Y0213992D01*
X0480790Y0213980D01*
X0480908Y0213949D01*
X0481032Y0213912D01*
X0481149Y0213856D01*
X0481255Y0213782D01*
X0481261D01*
X0481267Y0213770D01*
X0481298Y0213745D01*
X0481341Y0213695D01*
X0481391Y0213627D01*
X0481434Y0213541D01*
X0481477Y0213441D01*
X0481508Y0213330D01*
X0481521Y0213268D01*
Y0213200D01*
Y0213194D01*
Y0213188D01*
Y0213151D01*
X0481515Y0213095D01*
X0481502Y0213027D01*
X0481484Y0212940D01*
X0481453Y0212853D01*
X0481416Y0212767D01*
X0481360Y0212680D01*
X0481354Y0212668D01*
X0481329Y0212643D01*
X0481292Y0212606D01*
X0481242Y0212556D01*
X0481180Y0212507D01*
X0481106Y0212451D01*
X0481013Y0212408D01*
X0480914Y0212364D01*
Y0212358D01*
X0480933D01*
X0480951Y0212352D01*
X0480970Y0212346D01*
X0481038Y0212333D01*
X0481118Y0212309D01*
X0481205Y0212271D01*
X0481298Y0212228D01*
X0481391Y0212166D01*
X0481477Y0212086D01*
X0481490Y0212073D01*
X0481515Y0212042D01*
X0481545Y0211999D01*
X0481589Y0211931D01*
X0481626Y0211844D01*
X0481663Y0211745D01*
X0481688Y0211628D01*
X0481694Y0211498D01*
Y0211492D01*
Y0211479D01*
Y0211454D01*
X0481688Y0211423D01*
X0481682Y0211386D01*
X0481675Y0211343D01*
X0481651Y0211238D01*
X0481614Y0211120D01*
X0481558Y0210996D01*
X0481521Y0210941D01*
X0481477Y0210879D01*
X0481422Y0210823D01*
X0481366Y0210767D01*
X0481360D01*
X0481354Y0210755D01*
X0481335Y0210743D01*
X0481310Y0210724D01*
X0481279Y0210705D01*
X0481236Y0210681D01*
X0481143Y0210631D01*
X0481026Y0210576D01*
X0480889Y0210532D01*
X0480728Y0210501D01*
X0480648Y0210495D01*
X0480555Y0210489D01*
X0479528D01*
Y0214005D01*
X0480574D01*
X0480605Y0213999D01*
D02*
G37*
G36*
X0501100Y0213002D02*
X0501737D01*
Y0212655D01*
X0501100D01*
Y0211238D01*
Y0211225D01*
Y0211194D01*
X0501106Y0211151D01*
X0501112Y0211095D01*
X0501137Y0210978D01*
X0501155Y0210922D01*
X0501186Y0210879D01*
X0501193Y0210873D01*
X0501205Y0210860D01*
X0501224Y0210848D01*
X0501255Y0210829D01*
X0501292Y0210805D01*
X0501341Y0210792D01*
X0501403Y0210780D01*
X0501471Y0210773D01*
X0501496D01*
X0501527Y0210780D01*
X0501564Y0210786D01*
X0501651Y0210811D01*
X0501694Y0210829D01*
X0501737Y0210854D01*
Y0210507D01*
X0501731D01*
X0501713Y0210495D01*
X0501682Y0210489D01*
X0501638Y0210476D01*
X0501582Y0210464D01*
X0501521Y0210452D01*
X0501446Y0210445D01*
X0501360Y0210439D01*
X0501329D01*
X0501298Y0210445D01*
X0501255Y0210452D01*
X0501205Y0210464D01*
X0501149Y0210476D01*
X0501093Y0210501D01*
X0501032Y0210532D01*
X0500970Y0210569D01*
X0500908Y0210619D01*
X0500852Y0210675D01*
X0500803Y0210749D01*
X0500759Y0210829D01*
X0500728Y0210928D01*
X0500703Y0211040D01*
X0500697Y0211170D01*
Y0212655D01*
X0500270D01*
Y0213002D01*
X0500697D01*
Y0213615D01*
X0501100Y0213745D01*
Y0213002D01*
D02*
G37*
G36*
X0508627Y0213052D02*
X0508670Y0213045D01*
X0508713Y0213039D01*
X0508825Y0213020D01*
X0508949Y0212977D01*
X0509072Y0212922D01*
X0509134Y0212884D01*
X0509196Y0212841D01*
X0509252Y0212791D01*
X0509308Y0212736D01*
X0509314Y0212730D01*
X0509320Y0212723D01*
X0509332Y0212705D01*
X0509351Y0212680D01*
X0509370Y0212643D01*
X0509394Y0212606D01*
X0509419Y0212562D01*
X0509444Y0212507D01*
X0509469Y0212445D01*
X0509493Y0212383D01*
X0509518Y0212309D01*
X0509537Y0212228D01*
X0509555Y0212141D01*
X0509568Y0212055D01*
X0509580Y0211956D01*
Y0211851D01*
Y0211640D01*
X0507803D01*
Y0211634D01*
Y0211622D01*
Y0211603D01*
X0507810Y0211572D01*
X0507816Y0211535D01*
Y0211498D01*
X0507834Y0211399D01*
X0507865Y0211300D01*
X0507902Y0211188D01*
X0507958Y0211083D01*
X0508026Y0210990D01*
X0508039Y0210978D01*
X0508064Y0210953D01*
X0508113Y0210922D01*
X0508181Y0210879D01*
X0508268Y0210835D01*
X0508367Y0210805D01*
X0508484Y0210780D01*
X0508621Y0210767D01*
X0508664D01*
X0508695Y0210773D01*
X0508732D01*
X0508775Y0210780D01*
X0508881Y0210805D01*
X0508998Y0210835D01*
X0509128Y0210885D01*
X0509264Y0210953D01*
X0509332Y0210996D01*
X0509401Y0211046D01*
Y0210668D01*
X0509394D01*
X0509388Y0210656D01*
X0509370Y0210650D01*
X0509339Y0210631D01*
X0509308Y0210613D01*
X0509270Y0210594D01*
X0509221Y0210576D01*
X0509171Y0210551D01*
X0509110Y0210526D01*
X0509042Y0210507D01*
X0508893Y0210470D01*
X0508720Y0210445D01*
X0508528Y0210433D01*
X0508478D01*
X0508441Y0210439D01*
X0508398Y0210445D01*
X0508342Y0210452D01*
X0508224Y0210476D01*
X0508088Y0210513D01*
X0507952Y0210576D01*
X0507884Y0210619D01*
X0507816Y0210662D01*
X0507754Y0210712D01*
X0507692Y0210773D01*
X0507686Y0210780D01*
X0507680Y0210792D01*
X0507667Y0210811D01*
X0507643Y0210835D01*
X0507624Y0210873D01*
X0507599Y0210916D01*
X0507568Y0210965D01*
X0507544Y0211021D01*
X0507513Y0211083D01*
X0507488Y0211157D01*
X0507457Y0211238D01*
X0507438Y0211324D01*
X0507420Y0211417D01*
X0507401Y0211516D01*
X0507395Y0211622D01*
X0507389Y0211733D01*
Y0211739D01*
Y0211758D01*
Y0211789D01*
X0507395Y0211832D01*
X0507401Y0211881D01*
X0507407Y0211937D01*
X0507413Y0212005D01*
X0507432Y0212073D01*
X0507469Y0212222D01*
X0507525Y0212383D01*
X0507562Y0212463D01*
X0507612Y0212538D01*
X0507661Y0212618D01*
X0507717Y0212686D01*
X0507723Y0212692D01*
X0507735Y0212705D01*
X0507754Y0212723D01*
X0507779Y0212742D01*
X0507810Y0212773D01*
X0507847Y0212804D01*
X0507896Y0212835D01*
X0507946Y0212872D01*
X0508064Y0212940D01*
X0508206Y0213002D01*
X0508286Y0213020D01*
X0508367Y0213039D01*
X0508453Y0213052D01*
X0508546Y0213058D01*
X0508596D01*
X0508627Y0213052D01*
D02*
G37*
G36*
X0495584Y0214060D02*
X0495646Y0214054D01*
X0495721Y0214042D01*
X0495801Y0214023D01*
X0495888Y0214005D01*
X0495974Y0213980D01*
X0496073Y0213949D01*
X0496166Y0213906D01*
X0496265Y0213856D01*
X0496364Y0213800D01*
X0496457Y0213732D01*
X0496550Y0213658D01*
X0496637Y0213571D01*
X0496643Y0213565D01*
X0496655Y0213547D01*
X0496680Y0213522D01*
X0496705Y0213485D01*
X0496742Y0213435D01*
X0496779Y0213373D01*
X0496816Y0213305D01*
X0496860Y0213231D01*
X0496903Y0213138D01*
X0496940Y0213045D01*
X0496977Y0212940D01*
X0497014Y0212822D01*
X0497039Y0212705D01*
X0497064Y0212575D01*
X0497076Y0212433D01*
X0497082Y0212290D01*
Y0212278D01*
Y0212253D01*
Y0212210D01*
X0497076Y0212148D01*
X0497070Y0212073D01*
X0497058Y0211993D01*
X0497045Y0211900D01*
X0497027Y0211795D01*
X0497002Y0211690D01*
X0496971Y0211578D01*
X0496934Y0211467D01*
X0496890Y0211355D01*
X0496835Y0211238D01*
X0496773Y0211133D01*
X0496705Y0211027D01*
X0496624Y0210928D01*
X0496618Y0210922D01*
X0496606Y0210910D01*
X0496575Y0210885D01*
X0496544Y0210854D01*
X0496494Y0210811D01*
X0496439Y0210773D01*
X0496377Y0210724D01*
X0496303Y0210681D01*
X0496222Y0210637D01*
X0496129Y0210588D01*
X0496030Y0210551D01*
X0495919Y0210513D01*
X0495801Y0210476D01*
X0495677Y0210452D01*
X0495547Y0210439D01*
X0495405Y0210433D01*
X0495374D01*
X0495331Y0210439D01*
X0495281D01*
X0495219Y0210445D01*
X0495145Y0210458D01*
X0495064Y0210476D01*
X0494972Y0210495D01*
X0494879Y0210520D01*
X0494780Y0210551D01*
X0494681Y0210594D01*
X0494582Y0210637D01*
X0494483Y0210693D01*
X0494384Y0210761D01*
X0494291Y0210835D01*
X0494204Y0210922D01*
X0494198Y0210928D01*
X0494185Y0210947D01*
X0494161Y0210972D01*
X0494136Y0211009D01*
X0494099Y0211058D01*
X0494062Y0211120D01*
X0494025Y0211188D01*
X0493981Y0211269D01*
X0493938Y0211355D01*
X0493901Y0211448D01*
X0493864Y0211554D01*
X0493826Y0211671D01*
X0493802Y0211789D01*
X0493777Y0211919D01*
X0493765Y0212061D01*
X0493758Y0212203D01*
Y0212216D01*
Y0212241D01*
X0493765Y0212284D01*
Y0212346D01*
X0493771Y0212414D01*
X0493783Y0212501D01*
X0493795Y0212593D01*
X0493814Y0212692D01*
X0493839Y0212798D01*
X0493870Y0212909D01*
X0493907Y0213020D01*
X0493950Y0213132D01*
X0494006Y0213243D01*
X0494068Y0213355D01*
X0494136Y0213460D01*
X0494216Y0213559D01*
X0494223Y0213565D01*
X0494235Y0213584D01*
X0494266Y0213609D01*
X0494303Y0213639D01*
X0494346Y0213677D01*
X0494402Y0213720D01*
X0494470Y0213763D01*
X0494545Y0213813D01*
X0494631Y0213862D01*
X0494724Y0213906D01*
X0494823Y0213949D01*
X0494935Y0213986D01*
X0495058Y0214017D01*
X0495188Y0214048D01*
X0495324Y0214060D01*
X0495467Y0214067D01*
X0495535D01*
X0495584Y0214060D01*
D02*
G37*
G36*
X0483557Y0213052D02*
X0483601Y0213045D01*
X0483656Y0213039D01*
X0483780Y0213014D01*
X0483922Y0212971D01*
X0484065Y0212909D01*
X0484139Y0212872D01*
X0484207Y0212829D01*
X0484275Y0212773D01*
X0484337Y0212711D01*
X0484343Y0212705D01*
X0484350Y0212692D01*
X0484368Y0212674D01*
X0484387Y0212649D01*
X0484411Y0212612D01*
X0484436Y0212569D01*
X0484467Y0212519D01*
X0484498Y0212463D01*
X0484523Y0212395D01*
X0484554Y0212327D01*
X0484579Y0212247D01*
X0484603Y0212160D01*
X0484622Y0212067D01*
X0484641Y0211968D01*
X0484647Y0211863D01*
X0484653Y0211752D01*
Y0211745D01*
Y0211727D01*
Y0211696D01*
X0484647Y0211652D01*
X0484641Y0211603D01*
X0484634Y0211541D01*
X0484622Y0211479D01*
X0484610Y0211405D01*
X0484572Y0211256D01*
X0484511Y0211095D01*
X0484473Y0211015D01*
X0484424Y0210934D01*
X0484374Y0210860D01*
X0484312Y0210792D01*
X0484306Y0210786D01*
X0484294Y0210780D01*
X0484275Y0210761D01*
X0484250Y0210736D01*
X0484213Y0210712D01*
X0484176Y0210681D01*
X0484127Y0210644D01*
X0484071Y0210613D01*
X0484009Y0210582D01*
X0483941Y0210544D01*
X0483867Y0210513D01*
X0483786Y0210489D01*
X0483700Y0210464D01*
X0483607Y0210452D01*
X0483508Y0210439D01*
X0483402Y0210433D01*
X0483347D01*
X0483310Y0210439D01*
X0483266Y0210445D01*
X0483211Y0210452D01*
X0483149Y0210464D01*
X0483081Y0210476D01*
X0482938Y0210520D01*
X0482790Y0210582D01*
X0482715Y0210619D01*
X0482647Y0210668D01*
X0482579Y0210718D01*
X0482511Y0210780D01*
X0482505Y0210786D01*
X0482499Y0210798D01*
X0482480Y0210817D01*
X0482462Y0210842D01*
X0482437Y0210879D01*
X0482406Y0210922D01*
X0482375Y0210972D01*
X0482350Y0211027D01*
X0482319Y0211095D01*
X0482288Y0211163D01*
X0482257Y0211238D01*
X0482233Y0211324D01*
X0482195Y0211510D01*
X0482189Y0211609D01*
X0482183Y0211714D01*
Y0211721D01*
Y0211745D01*
Y0211776D01*
X0482189Y0211820D01*
X0482195Y0211869D01*
X0482202Y0211931D01*
X0482214Y0211999D01*
X0482226Y0212073D01*
X0482264Y0212234D01*
X0482325Y0212395D01*
X0482369Y0212476D01*
X0482412Y0212556D01*
X0482462Y0212631D01*
X0482523Y0212699D01*
X0482530Y0212705D01*
X0482542Y0212717D01*
X0482561Y0212730D01*
X0482585Y0212754D01*
X0482623Y0212779D01*
X0482666Y0212810D01*
X0482715Y0212847D01*
X0482771Y0212878D01*
X0482833Y0212909D01*
X0482907Y0212946D01*
X0482982Y0212977D01*
X0483068Y0213002D01*
X0483155Y0213027D01*
X0483254Y0213045D01*
X0483359Y0213052D01*
X0483464Y0213058D01*
X0483520D01*
X0483557Y0213052D01*
D02*
G37*
G36*
X0503656Y0179193D02*
X0503737Y0179187D01*
X0503823Y0179175D01*
X0503922Y0179150D01*
X0504021Y0179125D01*
X0504120Y0179088D01*
Y0178679D01*
X0504108Y0178686D01*
X0504071Y0178710D01*
X0504015Y0178735D01*
X0503941Y0178772D01*
X0503848Y0178803D01*
X0503737Y0178834D01*
X0503613Y0178853D01*
X0503483Y0178859D01*
X0503415D01*
X0503353Y0178847D01*
X0503279Y0178834D01*
X0503272D01*
X0503266Y0178828D01*
X0503229Y0178816D01*
X0503180Y0178791D01*
X0503124Y0178760D01*
X0503112Y0178754D01*
X0503087Y0178729D01*
X0503056Y0178692D01*
X0503025Y0178648D01*
X0503019Y0178636D01*
X0503006Y0178605D01*
X0502994Y0178562D01*
X0502988Y0178506D01*
Y0178500D01*
Y0178488D01*
Y0178469D01*
X0502994Y0178450D01*
X0503006Y0178395D01*
X0503025Y0178339D01*
X0503031Y0178327D01*
X0503050Y0178302D01*
X0503087Y0178265D01*
X0503130Y0178221D01*
X0503136D01*
X0503142Y0178215D01*
X0503180Y0178190D01*
X0503229Y0178159D01*
X0503297Y0178129D01*
X0503303D01*
X0503316Y0178122D01*
X0503334Y0178116D01*
X0503365Y0178104D01*
X0503433Y0178079D01*
X0503520Y0178042D01*
X0503526D01*
X0503551Y0178030D01*
X0503582Y0178017D01*
X0503619Y0178005D01*
X0503718Y0177961D01*
X0503817Y0177912D01*
X0503823D01*
X0503842Y0177900D01*
X0503867Y0177887D01*
X0503898Y0177868D01*
X0503972Y0177819D01*
X0504046Y0177757D01*
X0504052Y0177751D01*
X0504065Y0177745D01*
X0504077Y0177726D01*
X0504102Y0177701D01*
X0504145Y0177639D01*
X0504188Y0177559D01*
Y0177553D01*
X0504195Y0177541D01*
X0504207Y0177516D01*
X0504213Y0177485D01*
X0504226Y0177448D01*
X0504232Y0177404D01*
X0504238Y0177299D01*
Y0177293D01*
Y0177268D01*
X0504232Y0177231D01*
X0504226Y0177188D01*
X0504219Y0177138D01*
X0504201Y0177082D01*
X0504182Y0177033D01*
X0504151Y0176977D01*
X0504145Y0176971D01*
X0504139Y0176952D01*
X0504120Y0176928D01*
X0504096Y0176897D01*
X0504065Y0176859D01*
X0504028Y0176822D01*
X0503935Y0176748D01*
X0503929Y0176742D01*
X0503910Y0176736D01*
X0503885Y0176717D01*
X0503842Y0176699D01*
X0503798Y0176674D01*
X0503743Y0176655D01*
X0503687Y0176637D01*
X0503619Y0176618D01*
X0503613D01*
X0503588Y0176612D01*
X0503551Y0176606D01*
X0503508Y0176600D01*
X0503446Y0176587D01*
X0503384Y0176581D01*
X0503241Y0176575D01*
X0503180D01*
X0503105Y0176581D01*
X0503012Y0176593D01*
X0502907Y0176612D01*
X0502796Y0176637D01*
X0502684Y0176668D01*
X0502573Y0176717D01*
Y0177150D01*
X0502579D01*
X0502585Y0177138D01*
X0502604Y0177126D01*
X0502629Y0177113D01*
X0502697Y0177076D01*
X0502790Y0177033D01*
X0502895Y0176983D01*
X0503019Y0176946D01*
X0503155Y0176921D01*
X0503297Y0176909D01*
X0503347D01*
X0503378Y0176915D01*
X0503464Y0176928D01*
X0503563Y0176952D01*
X0503656Y0176996D01*
X0503699Y0177027D01*
X0503743Y0177058D01*
X0503774Y0177101D01*
X0503798Y0177144D01*
X0503817Y0177200D01*
X0503823Y0177262D01*
Y0177268D01*
Y0177280D01*
Y0177299D01*
X0503817Y0177318D01*
X0503805Y0177373D01*
X0503780Y0177429D01*
Y0177435D01*
X0503774Y0177441D01*
X0503749Y0177472D01*
X0503712Y0177516D01*
X0503656Y0177553D01*
X0503650D01*
X0503644Y0177565D01*
X0503607Y0177584D01*
X0503551Y0177621D01*
X0503477Y0177652D01*
X0503471D01*
X0503458Y0177658D01*
X0503440Y0177670D01*
X0503409Y0177683D01*
X0503340Y0177708D01*
X0503254Y0177745D01*
X0503248D01*
X0503223Y0177757D01*
X0503192Y0177769D01*
X0503155Y0177782D01*
X0503056Y0177825D01*
X0502957Y0177875D01*
X0502950Y0177881D01*
X0502938Y0177887D01*
X0502913Y0177900D01*
X0502882Y0177918D01*
X0502814Y0177968D01*
X0502746Y0178023D01*
X0502740Y0178030D01*
X0502734Y0178036D01*
X0502715Y0178054D01*
X0502697Y0178079D01*
X0502653Y0178141D01*
X0502616Y0178215D01*
Y0178221D01*
X0502610Y0178234D01*
X0502604Y0178259D01*
X0502598Y0178289D01*
X0502592Y0178327D01*
X0502585Y0178370D01*
X0502579Y0178475D01*
Y0178481D01*
Y0178506D01*
X0502585Y0178537D01*
X0502592Y0178580D01*
X0502598Y0178630D01*
X0502616Y0178679D01*
X0502635Y0178735D01*
X0502660Y0178785D01*
X0502666Y0178791D01*
X0502672Y0178809D01*
X0502691Y0178834D01*
X0502715Y0178865D01*
X0502783Y0178939D01*
X0502870Y0179014D01*
X0502876Y0179020D01*
X0502895Y0179026D01*
X0502920Y0179045D01*
X0502963Y0179063D01*
X0503006Y0179088D01*
X0503056Y0179113D01*
X0503180Y0179150D01*
X0503186D01*
X0503210Y0179156D01*
X0503241Y0179168D01*
X0503291Y0179175D01*
X0503340Y0179187D01*
X0503402Y0179193D01*
X0503539Y0179199D01*
X0503594D01*
X0503656Y0179193D01*
D02*
G37*
G36*
X0494464D02*
X0494520Y0179181D01*
X0494582Y0179168D01*
X0494650Y0179144D01*
X0494730Y0179113D01*
X0494804Y0179069D01*
X0494885Y0179020D01*
X0494959Y0178952D01*
X0495027Y0178865D01*
X0495089Y0178766D01*
X0495145Y0178655D01*
X0495182Y0178512D01*
X0495213Y0178358D01*
X0495219Y0178178D01*
Y0176630D01*
X0494817D01*
Y0178073D01*
Y0178079D01*
Y0178091D01*
Y0178110D01*
Y0178141D01*
X0494811Y0178215D01*
X0494798Y0178302D01*
X0494786Y0178401D01*
X0494761Y0178500D01*
X0494730Y0178593D01*
X0494687Y0178673D01*
X0494681Y0178679D01*
X0494662Y0178704D01*
X0494631Y0178735D01*
X0494582Y0178766D01*
X0494526Y0178803D01*
X0494452Y0178828D01*
X0494359Y0178853D01*
X0494254Y0178859D01*
X0494241D01*
X0494210Y0178853D01*
X0494161Y0178847D01*
X0494099Y0178828D01*
X0494031Y0178803D01*
X0493957Y0178760D01*
X0493882Y0178704D01*
X0493814Y0178624D01*
X0493808Y0178611D01*
X0493789Y0178580D01*
X0493758Y0178531D01*
X0493727Y0178463D01*
X0493690Y0178382D01*
X0493666Y0178289D01*
X0493641Y0178178D01*
X0493635Y0178060D01*
Y0176630D01*
X0493232D01*
Y0178122D01*
Y0178129D01*
Y0178153D01*
X0493226Y0178190D01*
Y0178240D01*
X0493214Y0178296D01*
X0493201Y0178358D01*
X0493183Y0178419D01*
X0493164Y0178494D01*
X0493133Y0178562D01*
X0493096Y0178624D01*
X0493047Y0178686D01*
X0492991Y0178741D01*
X0492929Y0178791D01*
X0492848Y0178828D01*
X0492762Y0178853D01*
X0492663Y0178859D01*
X0492650D01*
X0492619Y0178853D01*
X0492570Y0178847D01*
X0492508Y0178834D01*
X0492440Y0178803D01*
X0492366Y0178766D01*
X0492291Y0178710D01*
X0492223Y0178636D01*
X0492217Y0178624D01*
X0492199Y0178599D01*
X0492168Y0178549D01*
X0492137Y0178481D01*
X0492106Y0178401D01*
X0492075Y0178302D01*
X0492056Y0178190D01*
X0492050Y0178060D01*
Y0176630D01*
X0491648D01*
Y0179144D01*
X0492050D01*
Y0178741D01*
X0492062D01*
X0492068Y0178747D01*
X0492075Y0178760D01*
X0492093Y0178785D01*
X0492112Y0178816D01*
X0492174Y0178884D01*
X0492260Y0178970D01*
X0492372Y0179057D01*
X0492502Y0179125D01*
X0492582Y0179156D01*
X0492663Y0179181D01*
X0492749Y0179193D01*
X0492842Y0179199D01*
X0492886D01*
X0492935Y0179193D01*
X0492997Y0179181D01*
X0493065Y0179162D01*
X0493139Y0179138D01*
X0493214Y0179106D01*
X0493288Y0179057D01*
X0493294Y0179051D01*
X0493319Y0179032D01*
X0493350Y0179001D01*
X0493393Y0178958D01*
X0493436Y0178902D01*
X0493480Y0178840D01*
X0493523Y0178766D01*
X0493554Y0178679D01*
X0493560Y0178686D01*
X0493567Y0178704D01*
X0493585Y0178729D01*
X0493604Y0178760D01*
X0493635Y0178803D01*
X0493672Y0178847D01*
X0493715Y0178890D01*
X0493765Y0178939D01*
X0493820Y0178989D01*
X0493882Y0179032D01*
X0493950Y0179082D01*
X0494025Y0179119D01*
X0494105Y0179150D01*
X0494192Y0179175D01*
X0494291Y0179193D01*
X0494390Y0179199D01*
X0494427D01*
X0494464Y0179193D01*
D02*
G37*
G36*
X0501162D02*
X0501217Y0179187D01*
X0501285Y0179168D01*
X0501360Y0179150D01*
X0501440Y0179119D01*
X0501527Y0179082D01*
X0501607Y0179032D01*
X0501688Y0178970D01*
X0501762Y0178896D01*
X0501830Y0178803D01*
X0501886Y0178698D01*
X0501929Y0178574D01*
X0501954Y0178432D01*
X0501966Y0178265D01*
Y0176630D01*
X0501564D01*
Y0177021D01*
X0501552D01*
Y0177014D01*
X0501539Y0177002D01*
X0501527Y0176977D01*
X0501502Y0176952D01*
X0501440Y0176878D01*
X0501360Y0176798D01*
X0501248Y0176717D01*
X0501118Y0176643D01*
X0501038Y0176618D01*
X0500957Y0176593D01*
X0500871Y0176581D01*
X0500778Y0176575D01*
X0500741D01*
X0500716Y0176581D01*
X0500648Y0176587D01*
X0500567Y0176600D01*
X0500468Y0176624D01*
X0500376Y0176655D01*
X0500276Y0176705D01*
X0500190Y0176767D01*
X0500184Y0176779D01*
X0500159Y0176804D01*
X0500122Y0176847D01*
X0500085Y0176909D01*
X0500047Y0176983D01*
X0500010Y0177070D01*
X0499986Y0177175D01*
X0499979Y0177293D01*
Y0177299D01*
Y0177324D01*
X0499986Y0177361D01*
X0499992Y0177404D01*
X0500004Y0177460D01*
X0500023Y0177522D01*
X0500047Y0177590D01*
X0500085Y0177658D01*
X0500128Y0177732D01*
X0500184Y0177807D01*
X0500252Y0177875D01*
X0500332Y0177937D01*
X0500425Y0177998D01*
X0500536Y0178048D01*
X0500660Y0178085D01*
X0500809Y0178116D01*
X0501564Y0178221D01*
Y0178227D01*
Y0178246D01*
X0501558Y0178283D01*
Y0178320D01*
X0501545Y0178370D01*
X0501539Y0178426D01*
X0501502Y0178543D01*
X0501471Y0178599D01*
X0501440Y0178655D01*
X0501397Y0178710D01*
X0501347Y0178760D01*
X0501285Y0178803D01*
X0501217Y0178834D01*
X0501137Y0178853D01*
X0501044Y0178859D01*
X0501001D01*
X0500970Y0178853D01*
X0500926D01*
X0500883Y0178840D01*
X0500772Y0178822D01*
X0500648Y0178785D01*
X0500512Y0178729D01*
X0500437Y0178692D01*
X0500369Y0178655D01*
X0500295Y0178605D01*
X0500227Y0178549D01*
Y0178964D01*
X0500233D01*
X0500246Y0178977D01*
X0500264Y0178989D01*
X0500295Y0179001D01*
X0500326Y0179020D01*
X0500369Y0179038D01*
X0500419Y0179057D01*
X0500475Y0179082D01*
X0500598Y0179125D01*
X0500747Y0179162D01*
X0500908Y0179187D01*
X0501081Y0179199D01*
X0501118D01*
X0501162Y0179193D01*
D02*
G37*
G36*
X0498463Y0180140D02*
X0498512D01*
X0498562Y0180134D01*
X0498692Y0180109D01*
X0498828Y0180078D01*
X0498977Y0180029D01*
X0499119Y0179961D01*
X0499181Y0179917D01*
X0499243Y0179868D01*
X0499249D01*
X0499255Y0179856D01*
X0499274Y0179837D01*
X0499292Y0179818D01*
X0499342Y0179756D01*
X0499404Y0179670D01*
X0499459Y0179558D01*
X0499509Y0179428D01*
X0499546Y0179274D01*
X0499552Y0179187D01*
X0499558Y0179094D01*
Y0179088D01*
Y0179069D01*
Y0179045D01*
X0499552Y0179014D01*
X0499546Y0178970D01*
X0499540Y0178921D01*
X0499515Y0178803D01*
X0499472Y0178673D01*
X0499410Y0178537D01*
X0499373Y0178469D01*
X0499329Y0178401D01*
X0499274Y0178333D01*
X0499212Y0178271D01*
X0499206Y0178265D01*
X0499193Y0178259D01*
X0499175Y0178240D01*
X0499150Y0178221D01*
X0499113Y0178197D01*
X0499069Y0178172D01*
X0499020Y0178141D01*
X0498964Y0178116D01*
X0498902Y0178085D01*
X0498834Y0178054D01*
X0498754Y0178030D01*
X0498673Y0178005D01*
X0498488Y0177968D01*
X0498388Y0177961D01*
X0498283Y0177955D01*
X0497819D01*
Y0176630D01*
X0497404D01*
Y0180146D01*
X0498426D01*
X0498463Y0180140D01*
D02*
G37*
G36*
X0480605D02*
X0480648D01*
X0480691Y0180134D01*
X0480790Y0180122D01*
X0480908Y0180091D01*
X0481032Y0180054D01*
X0481149Y0179998D01*
X0481255Y0179924D01*
X0481261D01*
X0481267Y0179911D01*
X0481298Y0179886D01*
X0481341Y0179837D01*
X0481391Y0179769D01*
X0481434Y0179682D01*
X0481477Y0179583D01*
X0481508Y0179472D01*
X0481521Y0179410D01*
Y0179342D01*
Y0179335D01*
Y0179329D01*
Y0179292D01*
X0481515Y0179236D01*
X0481502Y0179168D01*
X0481484Y0179082D01*
X0481453Y0178995D01*
X0481416Y0178908D01*
X0481360Y0178822D01*
X0481354Y0178809D01*
X0481329Y0178785D01*
X0481292Y0178747D01*
X0481242Y0178698D01*
X0481180Y0178648D01*
X0481106Y0178593D01*
X0481013Y0178549D01*
X0480914Y0178506D01*
Y0178500D01*
X0480933D01*
X0480951Y0178494D01*
X0480970Y0178488D01*
X0481038Y0178475D01*
X0481118Y0178450D01*
X0481205Y0178413D01*
X0481298Y0178370D01*
X0481391Y0178308D01*
X0481477Y0178227D01*
X0481490Y0178215D01*
X0481515Y0178184D01*
X0481545Y0178141D01*
X0481589Y0178073D01*
X0481626Y0177986D01*
X0481663Y0177887D01*
X0481688Y0177769D01*
X0481694Y0177639D01*
Y0177633D01*
Y0177621D01*
Y0177596D01*
X0481688Y0177565D01*
X0481682Y0177528D01*
X0481675Y0177485D01*
X0481651Y0177380D01*
X0481614Y0177262D01*
X0481558Y0177138D01*
X0481521Y0177082D01*
X0481477Y0177021D01*
X0481422Y0176965D01*
X0481366Y0176909D01*
X0481360D01*
X0481354Y0176897D01*
X0481335Y0176884D01*
X0481310Y0176866D01*
X0481279Y0176847D01*
X0481236Y0176822D01*
X0481143Y0176773D01*
X0481026Y0176717D01*
X0480889Y0176674D01*
X0480728Y0176643D01*
X0480648Y0176637D01*
X0480555Y0176630D01*
X0479528D01*
Y0180146D01*
X0480574D01*
X0480605Y0180140D01*
D02*
G37*
G36*
X0505389Y0179144D02*
X0506027D01*
Y0178797D01*
X0505389D01*
Y0177380D01*
Y0177367D01*
Y0177336D01*
X0505396Y0177293D01*
X0505402Y0177237D01*
X0505427Y0177120D01*
X0505445Y0177064D01*
X0505476Y0177021D01*
X0505482Y0177014D01*
X0505495Y0177002D01*
X0505513Y0176989D01*
X0505544Y0176971D01*
X0505581Y0176946D01*
X0505631Y0176934D01*
X0505693Y0176921D01*
X0505761Y0176915D01*
X0505786D01*
X0505817Y0176921D01*
X0505854Y0176928D01*
X0505940Y0176952D01*
X0505984Y0176971D01*
X0506027Y0176996D01*
Y0176649D01*
X0506021D01*
X0506002Y0176637D01*
X0505971Y0176630D01*
X0505928Y0176618D01*
X0505872Y0176606D01*
X0505810Y0176593D01*
X0505736Y0176587D01*
X0505649Y0176581D01*
X0505618D01*
X0505587Y0176587D01*
X0505544Y0176593D01*
X0505495Y0176606D01*
X0505439Y0176618D01*
X0505383Y0176643D01*
X0505321Y0176674D01*
X0505259Y0176711D01*
X0505197Y0176760D01*
X0505142Y0176816D01*
X0505092Y0176891D01*
X0505049Y0176971D01*
X0505018Y0177070D01*
X0504993Y0177181D01*
X0504987Y0177311D01*
Y0178797D01*
X0504560D01*
Y0179144D01*
X0504987D01*
Y0179756D01*
X0505389Y0179886D01*
Y0179144D01*
D02*
G37*
G36*
X0487531D02*
X0488169D01*
Y0178797D01*
X0487531D01*
Y0177380D01*
Y0177367D01*
Y0177336D01*
X0487537Y0177293D01*
X0487544Y0177237D01*
X0487568Y0177120D01*
X0487587Y0177064D01*
X0487618Y0177021D01*
X0487624Y0177014D01*
X0487637Y0177002D01*
X0487655Y0176989D01*
X0487686Y0176971D01*
X0487723Y0176946D01*
X0487773Y0176934D01*
X0487835Y0176921D01*
X0487903Y0176915D01*
X0487927D01*
X0487958Y0176921D01*
X0487995Y0176928D01*
X0488082Y0176952D01*
X0488126Y0176971D01*
X0488169Y0176996D01*
Y0176649D01*
X0488163D01*
X0488144Y0176637D01*
X0488113Y0176630D01*
X0488070Y0176618D01*
X0488014Y0176606D01*
X0487952Y0176593D01*
X0487878Y0176587D01*
X0487791Y0176581D01*
X0487760D01*
X0487729Y0176587D01*
X0487686Y0176593D01*
X0487637Y0176606D01*
X0487581Y0176618D01*
X0487525Y0176643D01*
X0487463Y0176674D01*
X0487401Y0176711D01*
X0487339Y0176760D01*
X0487284Y0176816D01*
X0487234Y0176891D01*
X0487191Y0176971D01*
X0487160Y0177070D01*
X0487135Y0177181D01*
X0487129Y0177311D01*
Y0178797D01*
X0486702D01*
Y0179144D01*
X0487129D01*
Y0179756D01*
X0487531Y0179886D01*
Y0179144D01*
D02*
G37*
G36*
X0485829D02*
X0486467D01*
Y0178797D01*
X0485829D01*
Y0177380D01*
Y0177367D01*
Y0177336D01*
X0485835Y0177293D01*
X0485841Y0177237D01*
X0485866Y0177120D01*
X0485885Y0177064D01*
X0485916Y0177021D01*
X0485922Y0177014D01*
X0485934Y0177002D01*
X0485953Y0176989D01*
X0485984Y0176971D01*
X0486021Y0176946D01*
X0486070Y0176934D01*
X0486132Y0176921D01*
X0486200Y0176915D01*
X0486225D01*
X0486256Y0176921D01*
X0486293Y0176928D01*
X0486380Y0176952D01*
X0486423Y0176971D01*
X0486467Y0176996D01*
Y0176649D01*
X0486460D01*
X0486442Y0176637D01*
X0486411Y0176630D01*
X0486368Y0176618D01*
X0486312Y0176606D01*
X0486250Y0176593D01*
X0486176Y0176587D01*
X0486089Y0176581D01*
X0486058D01*
X0486027Y0176587D01*
X0485984Y0176593D01*
X0485934Y0176606D01*
X0485879Y0176618D01*
X0485823Y0176643D01*
X0485761Y0176674D01*
X0485699Y0176711D01*
X0485637Y0176760D01*
X0485581Y0176816D01*
X0485532Y0176891D01*
X0485489Y0176971D01*
X0485458Y0177070D01*
X0485433Y0177181D01*
X0485427Y0177311D01*
Y0178797D01*
X0485000D01*
Y0179144D01*
X0485427D01*
Y0179756D01*
X0485829Y0179886D01*
Y0179144D01*
D02*
G37*
G36*
X0507630Y0179193D02*
X0507674Y0179187D01*
X0507717Y0179181D01*
X0507828Y0179162D01*
X0507952Y0179119D01*
X0508076Y0179063D01*
X0508138Y0179026D01*
X0508200Y0178983D01*
X0508255Y0178933D01*
X0508311Y0178877D01*
X0508317Y0178871D01*
X0508323Y0178865D01*
X0508336Y0178847D01*
X0508354Y0178822D01*
X0508373Y0178785D01*
X0508398Y0178747D01*
X0508423Y0178704D01*
X0508447Y0178648D01*
X0508472Y0178587D01*
X0508497Y0178525D01*
X0508522Y0178450D01*
X0508540Y0178370D01*
X0508559Y0178283D01*
X0508571Y0178197D01*
X0508583Y0178098D01*
Y0177992D01*
Y0177782D01*
X0506807D01*
Y0177776D01*
Y0177763D01*
Y0177745D01*
X0506813Y0177714D01*
X0506819Y0177677D01*
Y0177639D01*
X0506838Y0177541D01*
X0506869Y0177441D01*
X0506906Y0177330D01*
X0506962Y0177225D01*
X0507030Y0177132D01*
X0507042Y0177120D01*
X0507067Y0177095D01*
X0507116Y0177064D01*
X0507185Y0177021D01*
X0507271Y0176977D01*
X0507370Y0176946D01*
X0507488Y0176921D01*
X0507624Y0176909D01*
X0507667D01*
X0507698Y0176915D01*
X0507735D01*
X0507779Y0176921D01*
X0507884Y0176946D01*
X0508002Y0176977D01*
X0508132Y0177027D01*
X0508268Y0177095D01*
X0508336Y0177138D01*
X0508404Y0177188D01*
Y0176810D01*
X0508398D01*
X0508392Y0176798D01*
X0508373Y0176792D01*
X0508342Y0176773D01*
X0508311Y0176754D01*
X0508274Y0176736D01*
X0508224Y0176717D01*
X0508175Y0176692D01*
X0508113Y0176668D01*
X0508045Y0176649D01*
X0507896Y0176612D01*
X0507723Y0176587D01*
X0507531Y0176575D01*
X0507482D01*
X0507444Y0176581D01*
X0507401Y0176587D01*
X0507345Y0176593D01*
X0507228Y0176618D01*
X0507092Y0176655D01*
X0506955Y0176717D01*
X0506887Y0176760D01*
X0506819Y0176804D01*
X0506757Y0176853D01*
X0506696Y0176915D01*
X0506689Y0176921D01*
X0506683Y0176934D01*
X0506671Y0176952D01*
X0506646Y0176977D01*
X0506627Y0177014D01*
X0506603Y0177058D01*
X0506572Y0177107D01*
X0506547Y0177163D01*
X0506516Y0177225D01*
X0506491Y0177299D01*
X0506460Y0177380D01*
X0506442Y0177466D01*
X0506423Y0177559D01*
X0506404Y0177658D01*
X0506398Y0177763D01*
X0506392Y0177875D01*
Y0177881D01*
Y0177900D01*
Y0177930D01*
X0506398Y0177974D01*
X0506404Y0178023D01*
X0506411Y0178079D01*
X0506417Y0178147D01*
X0506435Y0178215D01*
X0506473Y0178364D01*
X0506528Y0178525D01*
X0506566Y0178605D01*
X0506615Y0178679D01*
X0506665Y0178760D01*
X0506720Y0178828D01*
X0506726Y0178834D01*
X0506739Y0178847D01*
X0506757Y0178865D01*
X0506782Y0178884D01*
X0506813Y0178915D01*
X0506850Y0178946D01*
X0506900Y0178977D01*
X0506949Y0179014D01*
X0507067Y0179082D01*
X0507209Y0179144D01*
X0507290Y0179162D01*
X0507370Y0179181D01*
X0507457Y0179193D01*
X0507550Y0179199D01*
X0507599D01*
X0507630Y0179193D01*
D02*
G37*
G36*
X0489908D02*
X0489952Y0179187D01*
X0490007Y0179181D01*
X0490131Y0179156D01*
X0490273Y0179113D01*
X0490416Y0179051D01*
X0490490Y0179014D01*
X0490558Y0178970D01*
X0490626Y0178915D01*
X0490688Y0178853D01*
X0490694Y0178847D01*
X0490700Y0178834D01*
X0490719Y0178816D01*
X0490738Y0178791D01*
X0490762Y0178754D01*
X0490787Y0178710D01*
X0490818Y0178661D01*
X0490849Y0178605D01*
X0490874Y0178537D01*
X0490905Y0178469D01*
X0490930Y0178389D01*
X0490954Y0178302D01*
X0490973Y0178209D01*
X0490991Y0178110D01*
X0490998Y0178005D01*
X0491004Y0177893D01*
Y0177887D01*
Y0177868D01*
Y0177838D01*
X0490998Y0177794D01*
X0490991Y0177745D01*
X0490985Y0177683D01*
X0490973Y0177621D01*
X0490961Y0177547D01*
X0490923Y0177398D01*
X0490861Y0177237D01*
X0490824Y0177157D01*
X0490775Y0177076D01*
X0490725Y0177002D01*
X0490663Y0176934D01*
X0490657Y0176928D01*
X0490645Y0176921D01*
X0490626Y0176903D01*
X0490601Y0176878D01*
X0490564Y0176853D01*
X0490527Y0176822D01*
X0490478Y0176785D01*
X0490422Y0176754D01*
X0490360Y0176723D01*
X0490292Y0176686D01*
X0490218Y0176655D01*
X0490137Y0176630D01*
X0490051Y0176606D01*
X0489958Y0176593D01*
X0489859Y0176581D01*
X0489753Y0176575D01*
X0489698D01*
X0489661Y0176581D01*
X0489617Y0176587D01*
X0489562Y0176593D01*
X0489500Y0176606D01*
X0489432Y0176618D01*
X0489289Y0176662D01*
X0489141Y0176723D01*
X0489066Y0176760D01*
X0488998Y0176810D01*
X0488930Y0176859D01*
X0488862Y0176921D01*
X0488856Y0176928D01*
X0488850Y0176940D01*
X0488831Y0176959D01*
X0488813Y0176983D01*
X0488788Y0177021D01*
X0488757Y0177064D01*
X0488726Y0177113D01*
X0488701Y0177169D01*
X0488670Y0177237D01*
X0488639Y0177305D01*
X0488608Y0177380D01*
X0488584Y0177466D01*
X0488546Y0177652D01*
X0488540Y0177751D01*
X0488534Y0177856D01*
Y0177862D01*
Y0177887D01*
Y0177918D01*
X0488540Y0177961D01*
X0488546Y0178011D01*
X0488553Y0178073D01*
X0488565Y0178141D01*
X0488577Y0178215D01*
X0488615Y0178376D01*
X0488676Y0178537D01*
X0488720Y0178618D01*
X0488763Y0178698D01*
X0488813Y0178772D01*
X0488874Y0178840D01*
X0488881Y0178847D01*
X0488893Y0178859D01*
X0488912Y0178871D01*
X0488936Y0178896D01*
X0488974Y0178921D01*
X0489017Y0178952D01*
X0489066Y0178989D01*
X0489122Y0179020D01*
X0489184Y0179051D01*
X0489258Y0179088D01*
X0489332Y0179119D01*
X0489419Y0179144D01*
X0489506Y0179168D01*
X0489605Y0179187D01*
X0489710Y0179193D01*
X0489815Y0179199D01*
X0489871D01*
X0489908Y0179193D01*
D02*
G37*
G36*
X0483557D02*
X0483601Y0179187D01*
X0483656Y0179181D01*
X0483780Y0179156D01*
X0483922Y0179113D01*
X0484065Y0179051D01*
X0484139Y0179014D01*
X0484207Y0178970D01*
X0484275Y0178915D01*
X0484337Y0178853D01*
X0484343Y0178847D01*
X0484350Y0178834D01*
X0484368Y0178816D01*
X0484387Y0178791D01*
X0484411Y0178754D01*
X0484436Y0178710D01*
X0484467Y0178661D01*
X0484498Y0178605D01*
X0484523Y0178537D01*
X0484554Y0178469D01*
X0484579Y0178389D01*
X0484603Y0178302D01*
X0484622Y0178209D01*
X0484641Y0178110D01*
X0484647Y0178005D01*
X0484653Y0177893D01*
Y0177887D01*
Y0177868D01*
Y0177838D01*
X0484647Y0177794D01*
X0484641Y0177745D01*
X0484634Y0177683D01*
X0484622Y0177621D01*
X0484610Y0177547D01*
X0484572Y0177398D01*
X0484511Y0177237D01*
X0484473Y0177157D01*
X0484424Y0177076D01*
X0484374Y0177002D01*
X0484312Y0176934D01*
X0484306Y0176928D01*
X0484294Y0176921D01*
X0484275Y0176903D01*
X0484250Y0176878D01*
X0484213Y0176853D01*
X0484176Y0176822D01*
X0484127Y0176785D01*
X0484071Y0176754D01*
X0484009Y0176723D01*
X0483941Y0176686D01*
X0483867Y0176655D01*
X0483786Y0176630D01*
X0483700Y0176606D01*
X0483607Y0176593D01*
X0483508Y0176581D01*
X0483402Y0176575D01*
X0483347D01*
X0483310Y0176581D01*
X0483266Y0176587D01*
X0483211Y0176593D01*
X0483149Y0176606D01*
X0483081Y0176618D01*
X0482938Y0176662D01*
X0482790Y0176723D01*
X0482715Y0176760D01*
X0482647Y0176810D01*
X0482579Y0176859D01*
X0482511Y0176921D01*
X0482505Y0176928D01*
X0482499Y0176940D01*
X0482480Y0176959D01*
X0482462Y0176983D01*
X0482437Y0177021D01*
X0482406Y0177064D01*
X0482375Y0177113D01*
X0482350Y0177169D01*
X0482319Y0177237D01*
X0482288Y0177305D01*
X0482257Y0177380D01*
X0482233Y0177466D01*
X0482195Y0177652D01*
X0482189Y0177751D01*
X0482183Y0177856D01*
Y0177862D01*
Y0177887D01*
Y0177918D01*
X0482189Y0177961D01*
X0482195Y0178011D01*
X0482202Y0178073D01*
X0482214Y0178141D01*
X0482226Y0178215D01*
X0482264Y0178376D01*
X0482325Y0178537D01*
X0482369Y0178618D01*
X0482412Y0178698D01*
X0482462Y0178772D01*
X0482523Y0178840D01*
X0482530Y0178847D01*
X0482542Y0178859D01*
X0482561Y0178871D01*
X0482585Y0178896D01*
X0482623Y0178921D01*
X0482666Y0178952D01*
X0482715Y0178989D01*
X0482771Y0179020D01*
X0482833Y0179051D01*
X0482907Y0179088D01*
X0482982Y0179119D01*
X0483068Y0179144D01*
X0483155Y0179168D01*
X0483254Y0179187D01*
X0483359Y0179193D01*
X0483464Y0179199D01*
X0483520D01*
X0483557Y0179193D01*
D02*
G37*
%LPC*%
G36*
X0490632Y0212717D02*
X0490595D01*
X0490570Y0212711D01*
X0490502Y0212705D01*
X0490422Y0212686D01*
X0490329Y0212649D01*
X0490230Y0212600D01*
X0490137Y0212538D01*
X0490094Y0212494D01*
X0490051Y0212445D01*
X0490044Y0212433D01*
X0490020Y0212395D01*
X0489983Y0212333D01*
X0489945Y0212253D01*
X0489908Y0212148D01*
X0489871Y0212018D01*
X0489846Y0211869D01*
X0489840Y0211702D01*
Y0211696D01*
Y0211684D01*
Y0211659D01*
X0489846Y0211628D01*
Y0211597D01*
X0489853Y0211554D01*
X0489865Y0211454D01*
X0489890Y0211343D01*
X0489927Y0211232D01*
X0489976Y0211120D01*
X0490044Y0211015D01*
X0490057Y0211003D01*
X0490082Y0210978D01*
X0490125Y0210934D01*
X0490187Y0210891D01*
X0490267Y0210848D01*
X0490360Y0210805D01*
X0490465Y0210780D01*
X0490589Y0210767D01*
X0490620D01*
X0490645Y0210773D01*
X0490707Y0210780D01*
X0490781Y0210798D01*
X0490868Y0210829D01*
X0490961Y0210866D01*
X0491047Y0210928D01*
X0491134Y0211009D01*
X0491140Y0211021D01*
X0491165Y0211052D01*
X0491202Y0211108D01*
X0491239Y0211176D01*
X0491276Y0211262D01*
X0491313Y0211368D01*
X0491338Y0211492D01*
X0491344Y0211622D01*
Y0211993D01*
Y0211999D01*
Y0212005D01*
Y0212042D01*
X0491332Y0212098D01*
X0491320Y0212173D01*
X0491295Y0212253D01*
X0491258Y0212340D01*
X0491208Y0212426D01*
X0491140Y0212507D01*
X0491134Y0212513D01*
X0491103Y0212538D01*
X0491059Y0212575D01*
X0491004Y0212612D01*
X0490930Y0212649D01*
X0490843Y0212686D01*
X0490744Y0212711D01*
X0490632Y0212717D01*
D02*
G37*
G36*
X0486696Y0211758D02*
X0486089Y0211671D01*
X0486077D01*
X0486046Y0211665D01*
X0485996Y0211652D01*
X0485934Y0211640D01*
X0485866Y0211622D01*
X0485792Y0211597D01*
X0485730Y0211572D01*
X0485668Y0211535D01*
X0485662Y0211529D01*
X0485643Y0211516D01*
X0485625Y0211492D01*
X0485600Y0211454D01*
X0485569Y0211405D01*
X0485550Y0211343D01*
X0485532Y0211269D01*
X0485526Y0211182D01*
Y0211176D01*
Y0211151D01*
X0485532Y0211120D01*
X0485544Y0211077D01*
X0485557Y0211027D01*
X0485581Y0210978D01*
X0485612Y0210928D01*
X0485656Y0210879D01*
X0485662Y0210873D01*
X0485680Y0210860D01*
X0485711Y0210842D01*
X0485748Y0210823D01*
X0485798Y0210805D01*
X0485860Y0210786D01*
X0485928Y0210773D01*
X0486009Y0210767D01*
X0486021D01*
X0486058Y0210773D01*
X0486114Y0210780D01*
X0486182Y0210792D01*
X0486256Y0210817D01*
X0486343Y0210854D01*
X0486423Y0210910D01*
X0486497Y0210978D01*
X0486504Y0210990D01*
X0486528Y0211015D01*
X0486559Y0211058D01*
X0486596Y0211120D01*
X0486634Y0211201D01*
X0486665Y0211287D01*
X0486689Y0211392D01*
X0486696Y0211504D01*
Y0211758D01*
D02*
G37*
G36*
X0480413Y0213633D02*
X0479942D01*
Y0212494D01*
X0480419D01*
X0480481Y0212501D01*
X0480555Y0212513D01*
X0480642Y0212531D01*
X0480735Y0212562D01*
X0480815Y0212600D01*
X0480896Y0212655D01*
X0480902Y0212662D01*
X0480927Y0212686D01*
X0480957Y0212723D01*
X0480995Y0212779D01*
X0481026Y0212841D01*
X0481056Y0212922D01*
X0481081Y0213014D01*
X0481087Y0213120D01*
Y0213126D01*
Y0213144D01*
X0481081Y0213169D01*
X0481075Y0213200D01*
X0481050Y0213281D01*
X0481032Y0213330D01*
X0481001Y0213380D01*
X0480970Y0213423D01*
X0480920Y0213472D01*
X0480871Y0213516D01*
X0480803Y0213553D01*
X0480728Y0213584D01*
X0480636Y0213609D01*
X0480530Y0213627D01*
X0480413Y0213633D01*
D02*
G37*
G36*
Y0212123D02*
X0479942D01*
Y0210860D01*
X0480561D01*
X0480623Y0210866D01*
X0480710Y0210879D01*
X0480796Y0210904D01*
X0480889Y0210928D01*
X0480982Y0210972D01*
X0481063Y0211027D01*
X0481069Y0211034D01*
X0481094Y0211058D01*
X0481125Y0211095D01*
X0481162Y0211151D01*
X0481199Y0211219D01*
X0481230Y0211300D01*
X0481255Y0211399D01*
X0481261Y0211504D01*
Y0211510D01*
Y0211529D01*
X0481255Y0211560D01*
X0481248Y0211603D01*
X0481236Y0211646D01*
X0481217Y0211702D01*
X0481193Y0211758D01*
X0481155Y0211813D01*
X0481112Y0211869D01*
X0481056Y0211925D01*
X0480988Y0211981D01*
X0480902Y0212024D01*
X0480809Y0212067D01*
X0480691Y0212098D01*
X0480561Y0212117D01*
X0480413Y0212123D01*
D02*
G37*
G36*
X0508540Y0212717D02*
X0508491D01*
X0508441Y0212705D01*
X0508373Y0212692D01*
X0508299Y0212668D01*
X0508212Y0212631D01*
X0508132Y0212581D01*
X0508051Y0212513D01*
X0508045Y0212507D01*
X0508020Y0212476D01*
X0507989Y0212433D01*
X0507946Y0212371D01*
X0507902Y0212296D01*
X0507865Y0212203D01*
X0507834Y0212098D01*
X0507810Y0211981D01*
X0509165D01*
Y0211987D01*
Y0211999D01*
Y0212012D01*
Y0212036D01*
X0509159Y0212104D01*
X0509147Y0212179D01*
X0509122Y0212271D01*
X0509097Y0212358D01*
X0509054Y0212445D01*
X0508998Y0212525D01*
X0508992Y0212531D01*
X0508967Y0212556D01*
X0508930Y0212587D01*
X0508881Y0212624D01*
X0508812Y0212655D01*
X0508732Y0212686D01*
X0508645Y0212711D01*
X0508540Y0212717D01*
D02*
G37*
G36*
X0495436Y0213689D02*
X0495380D01*
X0495343Y0213683D01*
X0495294Y0213677D01*
X0495244Y0213670D01*
X0495182Y0213658D01*
X0495114Y0213639D01*
X0494972Y0213590D01*
X0494897Y0213559D01*
X0494817Y0213522D01*
X0494743Y0213472D01*
X0494668Y0213417D01*
X0494600Y0213355D01*
X0494532Y0213287D01*
X0494526Y0213281D01*
X0494520Y0213268D01*
X0494501Y0213243D01*
X0494476Y0213212D01*
X0494452Y0213175D01*
X0494427Y0213126D01*
X0494396Y0213070D01*
X0494365Y0213008D01*
X0494328Y0212934D01*
X0494297Y0212860D01*
X0494272Y0212773D01*
X0494247Y0212680D01*
X0494223Y0212581D01*
X0494204Y0212470D01*
X0494198Y0212358D01*
X0494192Y0212241D01*
Y0212234D01*
Y0212210D01*
Y0212179D01*
X0494198Y0212135D01*
X0494204Y0212080D01*
X0494210Y0212012D01*
X0494223Y0211943D01*
X0494235Y0211869D01*
X0494272Y0211702D01*
X0494334Y0211523D01*
X0494371Y0211436D01*
X0494415Y0211355D01*
X0494470Y0211269D01*
X0494526Y0211194D01*
X0494532Y0211188D01*
X0494545Y0211176D01*
X0494563Y0211157D01*
X0494588Y0211133D01*
X0494619Y0211102D01*
X0494662Y0211071D01*
X0494712Y0211034D01*
X0494761Y0210996D01*
X0494823Y0210959D01*
X0494891Y0210922D01*
X0495040Y0210860D01*
X0495126Y0210835D01*
X0495213Y0210817D01*
X0495306Y0210805D01*
X0495405Y0210798D01*
X0495461D01*
X0495504Y0210805D01*
X0495547Y0210811D01*
X0495609Y0210817D01*
X0495671Y0210829D01*
X0495739Y0210848D01*
X0495882Y0210891D01*
X0495962Y0210922D01*
X0496036Y0210959D01*
X0496111Y0211003D01*
X0496185Y0211052D01*
X0496253Y0211108D01*
X0496321Y0211176D01*
X0496327Y0211182D01*
X0496333Y0211194D01*
X0496352Y0211213D01*
X0496371Y0211244D01*
X0496402Y0211287D01*
X0496426Y0211331D01*
X0496457Y0211386D01*
X0496488Y0211448D01*
X0496519Y0211523D01*
X0496550Y0211603D01*
X0496581Y0211690D01*
X0496606Y0211783D01*
X0496624Y0211881D01*
X0496643Y0211993D01*
X0496649Y0212111D01*
X0496655Y0212234D01*
Y0212241D01*
Y0212265D01*
Y0212302D01*
X0496649Y0212346D01*
X0496643Y0212408D01*
X0496637Y0212476D01*
X0496630Y0212550D01*
X0496612Y0212631D01*
X0496575Y0212798D01*
X0496519Y0212977D01*
X0496482Y0213064D01*
X0496439Y0213151D01*
X0496383Y0213231D01*
X0496327Y0213305D01*
X0496321Y0213311D01*
X0496315Y0213324D01*
X0496296Y0213342D01*
X0496265Y0213367D01*
X0496234Y0213392D01*
X0496197Y0213429D01*
X0496148Y0213460D01*
X0496098Y0213497D01*
X0496036Y0213534D01*
X0495968Y0213565D01*
X0495894Y0213602D01*
X0495814Y0213627D01*
X0495727Y0213652D01*
X0495640Y0213670D01*
X0495541Y0213683D01*
X0495436Y0213689D01*
D02*
G37*
G36*
X0483433Y0212717D02*
X0483396D01*
X0483372Y0212711D01*
X0483297Y0212705D01*
X0483211Y0212686D01*
X0483112Y0212655D01*
X0483006Y0212606D01*
X0482907Y0212538D01*
X0482858Y0212501D01*
X0482815Y0212451D01*
X0482802Y0212439D01*
X0482777Y0212402D01*
X0482746Y0212346D01*
X0482703Y0212265D01*
X0482660Y0212160D01*
X0482629Y0212036D01*
X0482604Y0211894D01*
X0482592Y0211727D01*
Y0211721D01*
Y0211708D01*
Y0211684D01*
X0482598Y0211652D01*
Y0211615D01*
X0482604Y0211572D01*
X0482623Y0211473D01*
X0482647Y0211362D01*
X0482691Y0211244D01*
X0482746Y0211126D01*
X0482821Y0211021D01*
X0482833Y0211009D01*
X0482864Y0210984D01*
X0482913Y0210941D01*
X0482982Y0210897D01*
X0483068Y0210848D01*
X0483174Y0210805D01*
X0483297Y0210780D01*
X0483433Y0210767D01*
X0483471D01*
X0483495Y0210773D01*
X0483570Y0210780D01*
X0483656Y0210798D01*
X0483749Y0210829D01*
X0483854Y0210873D01*
X0483947Y0210934D01*
X0484034Y0211015D01*
X0484040Y0211027D01*
X0484065Y0211065D01*
X0484102Y0211120D01*
X0484139Y0211201D01*
X0484176Y0211306D01*
X0484213Y0211430D01*
X0484238Y0211572D01*
X0484244Y0211739D01*
Y0211745D01*
Y0211758D01*
Y0211783D01*
Y0211820D01*
X0484238Y0211857D01*
X0484232Y0211900D01*
X0484220Y0212005D01*
X0484195Y0212123D01*
X0484158Y0212241D01*
X0484102Y0212358D01*
X0484034Y0212463D01*
X0484022Y0212476D01*
X0483997Y0212501D01*
X0483947Y0212544D01*
X0483879Y0212593D01*
X0483792Y0212637D01*
X0483693Y0212680D01*
X0483570Y0212705D01*
X0483433Y0212717D01*
D02*
G37*
G36*
X0501564Y0177900D02*
X0500957Y0177813D01*
X0500945D01*
X0500914Y0177807D01*
X0500865Y0177794D01*
X0500803Y0177782D01*
X0500735Y0177763D01*
X0500660Y0177738D01*
X0500598Y0177714D01*
X0500536Y0177677D01*
X0500530Y0177670D01*
X0500512Y0177658D01*
X0500493Y0177633D01*
X0500468Y0177596D01*
X0500437Y0177547D01*
X0500419Y0177485D01*
X0500400Y0177410D01*
X0500394Y0177324D01*
Y0177318D01*
Y0177293D01*
X0500400Y0177262D01*
X0500413Y0177219D01*
X0500425Y0177169D01*
X0500450Y0177120D01*
X0500481Y0177070D01*
X0500524Y0177021D01*
X0500530Y0177014D01*
X0500549Y0177002D01*
X0500580Y0176983D01*
X0500617Y0176965D01*
X0500666Y0176946D01*
X0500728Y0176928D01*
X0500796Y0176915D01*
X0500877Y0176909D01*
X0500889D01*
X0500926Y0176915D01*
X0500982Y0176921D01*
X0501050Y0176934D01*
X0501124Y0176959D01*
X0501211Y0176996D01*
X0501292Y0177051D01*
X0501366Y0177120D01*
X0501372Y0177132D01*
X0501397Y0177157D01*
X0501428Y0177200D01*
X0501465Y0177262D01*
X0501502Y0177342D01*
X0501533Y0177429D01*
X0501558Y0177534D01*
X0501564Y0177646D01*
Y0177900D01*
D02*
G37*
G36*
X0498302Y0179775D02*
X0497819D01*
Y0178333D01*
X0498289D01*
X0498314Y0178339D01*
X0498351D01*
X0498395Y0178345D01*
X0498488Y0178358D01*
X0498593Y0178382D01*
X0498698Y0178413D01*
X0498803Y0178463D01*
X0498896Y0178525D01*
X0498908Y0178537D01*
X0498933Y0178562D01*
X0498970Y0178605D01*
X0499014Y0178667D01*
X0499051Y0178747D01*
X0499088Y0178840D01*
X0499113Y0178952D01*
X0499125Y0179076D01*
Y0179082D01*
Y0179106D01*
X0499119Y0179138D01*
X0499113Y0179187D01*
X0499100Y0179236D01*
X0499082Y0179298D01*
X0499057Y0179360D01*
X0499020Y0179428D01*
X0498977Y0179490D01*
X0498927Y0179552D01*
X0498859Y0179614D01*
X0498778Y0179664D01*
X0498686Y0179713D01*
X0498574Y0179744D01*
X0498444Y0179769D01*
X0498302Y0179775D01*
D02*
G37*
G36*
X0480413D02*
X0479942D01*
Y0178636D01*
X0480419D01*
X0480481Y0178642D01*
X0480555Y0178655D01*
X0480642Y0178673D01*
X0480735Y0178704D01*
X0480815Y0178741D01*
X0480896Y0178797D01*
X0480902Y0178803D01*
X0480927Y0178828D01*
X0480957Y0178865D01*
X0480995Y0178921D01*
X0481026Y0178983D01*
X0481056Y0179063D01*
X0481081Y0179156D01*
X0481087Y0179261D01*
Y0179268D01*
Y0179286D01*
X0481081Y0179311D01*
X0481075Y0179342D01*
X0481050Y0179422D01*
X0481032Y0179472D01*
X0481001Y0179521D01*
X0480970Y0179565D01*
X0480920Y0179614D01*
X0480871Y0179657D01*
X0480803Y0179695D01*
X0480728Y0179726D01*
X0480636Y0179750D01*
X0480530Y0179769D01*
X0480413Y0179775D01*
D02*
G37*
G36*
Y0178265D02*
X0479942D01*
Y0177002D01*
X0480561D01*
X0480623Y0177008D01*
X0480710Y0177021D01*
X0480796Y0177045D01*
X0480889Y0177070D01*
X0480982Y0177113D01*
X0481063Y0177169D01*
X0481069Y0177175D01*
X0481094Y0177200D01*
X0481125Y0177237D01*
X0481162Y0177293D01*
X0481199Y0177361D01*
X0481230Y0177441D01*
X0481255Y0177541D01*
X0481261Y0177646D01*
Y0177652D01*
Y0177670D01*
X0481255Y0177701D01*
X0481248Y0177745D01*
X0481236Y0177788D01*
X0481217Y0177844D01*
X0481193Y0177900D01*
X0481155Y0177955D01*
X0481112Y0178011D01*
X0481056Y0178067D01*
X0480988Y0178122D01*
X0480902Y0178166D01*
X0480809Y0178209D01*
X0480691Y0178240D01*
X0480561Y0178259D01*
X0480413Y0178265D01*
D02*
G37*
G36*
X0507544Y0178859D02*
X0507494D01*
X0507444Y0178847D01*
X0507376Y0178834D01*
X0507302Y0178809D01*
X0507215Y0178772D01*
X0507135Y0178723D01*
X0507055Y0178655D01*
X0507048Y0178648D01*
X0507023Y0178618D01*
X0506993Y0178574D01*
X0506949Y0178512D01*
X0506906Y0178438D01*
X0506869Y0178345D01*
X0506838Y0178240D01*
X0506813Y0178122D01*
X0508169D01*
Y0178129D01*
Y0178141D01*
Y0178153D01*
Y0178178D01*
X0508162Y0178246D01*
X0508150Y0178320D01*
X0508125Y0178413D01*
X0508101Y0178500D01*
X0508057Y0178587D01*
X0508002Y0178667D01*
X0507995Y0178673D01*
X0507971Y0178698D01*
X0507934Y0178729D01*
X0507884Y0178766D01*
X0507816Y0178797D01*
X0507735Y0178828D01*
X0507649Y0178853D01*
X0507544Y0178859D01*
D02*
G37*
G36*
X0489784D02*
X0489747D01*
X0489722Y0178853D01*
X0489648Y0178847D01*
X0489562Y0178828D01*
X0489463Y0178797D01*
X0489357Y0178747D01*
X0489258Y0178679D01*
X0489209Y0178642D01*
X0489165Y0178593D01*
X0489153Y0178580D01*
X0489128Y0178543D01*
X0489097Y0178488D01*
X0489054Y0178407D01*
X0489011Y0178302D01*
X0488980Y0178178D01*
X0488955Y0178036D01*
X0488943Y0177868D01*
Y0177862D01*
Y0177850D01*
Y0177825D01*
X0488949Y0177794D01*
Y0177757D01*
X0488955Y0177714D01*
X0488974Y0177615D01*
X0488998Y0177503D01*
X0489042Y0177386D01*
X0489097Y0177268D01*
X0489172Y0177163D01*
X0489184Y0177150D01*
X0489215Y0177126D01*
X0489264Y0177082D01*
X0489332Y0177039D01*
X0489419Y0176989D01*
X0489524Y0176946D01*
X0489648Y0176921D01*
X0489784Y0176909D01*
X0489821D01*
X0489846Y0176915D01*
X0489921Y0176921D01*
X0490007Y0176940D01*
X0490100Y0176971D01*
X0490205Y0177014D01*
X0490298Y0177076D01*
X0490385Y0177157D01*
X0490391Y0177169D01*
X0490416Y0177206D01*
X0490453Y0177262D01*
X0490490Y0177342D01*
X0490527Y0177448D01*
X0490564Y0177571D01*
X0490589Y0177714D01*
X0490595Y0177881D01*
Y0177887D01*
Y0177900D01*
Y0177924D01*
Y0177961D01*
X0490589Y0177998D01*
X0490583Y0178042D01*
X0490570Y0178147D01*
X0490546Y0178265D01*
X0490509Y0178382D01*
X0490453Y0178500D01*
X0490385Y0178605D01*
X0490372Y0178618D01*
X0490348Y0178642D01*
X0490298Y0178686D01*
X0490230Y0178735D01*
X0490143Y0178778D01*
X0490044Y0178822D01*
X0489921Y0178847D01*
X0489784Y0178859D01*
D02*
G37*
G36*
X0483433D02*
X0483396D01*
X0483372Y0178853D01*
X0483297Y0178847D01*
X0483211Y0178828D01*
X0483112Y0178797D01*
X0483006Y0178747D01*
X0482907Y0178679D01*
X0482858Y0178642D01*
X0482815Y0178593D01*
X0482802Y0178580D01*
X0482777Y0178543D01*
X0482746Y0178488D01*
X0482703Y0178407D01*
X0482660Y0178302D01*
X0482629Y0178178D01*
X0482604Y0178036D01*
X0482592Y0177868D01*
Y0177862D01*
Y0177850D01*
Y0177825D01*
X0482598Y0177794D01*
Y0177757D01*
X0482604Y0177714D01*
X0482623Y0177615D01*
X0482647Y0177503D01*
X0482691Y0177386D01*
X0482746Y0177268D01*
X0482821Y0177163D01*
X0482833Y0177150D01*
X0482864Y0177126D01*
X0482913Y0177082D01*
X0482982Y0177039D01*
X0483068Y0176989D01*
X0483174Y0176946D01*
X0483297Y0176921D01*
X0483433Y0176909D01*
X0483471D01*
X0483495Y0176915D01*
X0483570Y0176921D01*
X0483656Y0176940D01*
X0483749Y0176971D01*
X0483854Y0177014D01*
X0483947Y0177076D01*
X0484034Y0177157D01*
X0484040Y0177169D01*
X0484065Y0177206D01*
X0484102Y0177262D01*
X0484139Y0177342D01*
X0484176Y0177448D01*
X0484213Y0177571D01*
X0484238Y0177714D01*
X0484244Y0177881D01*
Y0177887D01*
Y0177900D01*
Y0177924D01*
Y0177961D01*
X0484238Y0177998D01*
X0484232Y0178042D01*
X0484220Y0178147D01*
X0484195Y0178265D01*
X0484158Y0178382D01*
X0484102Y0178500D01*
X0484034Y0178605D01*
X0484022Y0178618D01*
X0483997Y0178642D01*
X0483947Y0178686D01*
X0483879Y0178735D01*
X0483792Y0178778D01*
X0483693Y0178822D01*
X0483570Y0178847D01*
X0483433Y0178859D01*
D02*
G37*
%LPD*%
D14*
X-0019685Y0261417D02*
X0448819D01*
X-0019685Y-0019685D02*
X0448819D01*
Y0261417D01*
X-0019685Y-0019685D02*
Y0261417D01*
X0050104Y0072778D02*
G03*
X0048108Y0067167I0001428J-0003669D01*
G01*
X0014687Y0003150D02*
G03*
X0017837Y0000000I0003145J-0000004D01*
G01*
X0048108Y0043857D02*
G03*
X0048108Y0067167I-0020547J0011655D01*
G01*
X0010751Y0087992D02*
G03*
X0014687Y0091929I-0000001J0003938D01*
G01*
Y0019094D02*
G03*
X0010751Y0023031I-0003938J-0000001D01*
G01*
X0017837Y0111024D02*
G03*
X0014687Y0107874I-0000004J-0003145D01*
G01*
X0048108Y0043857D02*
G03*
X0050104Y0038245I0003424J-0001942D01*
G01*
X0005019Y0038245D02*
G03*
X0008073Y0023031I0002857J-0007340D01*
G01*
X0040436Y0107874D02*
G03*
X0037286Y0111024I-0003145J0000004D01*
G01*
X0047050Y0023031D02*
G03*
X0050104Y0038245I0000197J0007874D01*
G01*
X0005019D02*
G03*
X0007015Y0043857I-0001428J0003669D01*
G01*
X0040435Y0091929D02*
G03*
X0044373Y0087992I0003938J0000001D01*
G01*
Y0023031D02*
G03*
X0040435Y0019094I0000001J-0003938D01*
G01*
X0008073Y0087992D02*
G03*
X0005019Y0072778I-0000197J-0007874D01*
G01*
X0007015Y0067167D02*
G03*
X0007015Y0043857I0020547J-0011655D01*
G01*
X0050104Y0072778D02*
G03*
X0047050Y0087992I-0002858J0007340D01*
G01*
X0007015Y0067167D02*
G03*
X0005019Y0072778I-0003424J0001942D01*
G01*
X0037286Y0000000D02*
G03*
X0040436Y0003150I0000004J0003145D01*
G01*
X0008073Y0087992D02*
X0010751D01*
X0040436Y0003150D02*
Y0019094D01*
X0014687Y0091929D02*
Y0107874D01*
X0017837Y0000000D02*
X0037286D01*
X0017837Y0111024D02*
X0037286D01*
X0014687Y0003150D02*
Y0019094D01*
X0040436Y0091929D02*
Y0107874D01*
X0008073Y0023031D02*
X0010751D01*
X0044373Y0087992D02*
X0047050D01*
X0044373Y0023031D02*
X0047050D01*
X0124912Y0072778D02*
G03*
X0122916Y0067167I0001428J-0003669D01*
G01*
X0089496Y0003150D02*
G03*
X0092645Y0000000I0003145J-0000004D01*
G01*
X0122916Y0043857D02*
G03*
X0122916Y0067167I-0020547J0011655D01*
G01*
X0085559Y0087992D02*
G03*
X0089496Y0091929I-0000001J0003938D01*
G01*
Y0019094D02*
G03*
X0085559Y0023031I-0003938J-0000001D01*
G01*
X0092645Y0111024D02*
G03*
X0089496Y0107874I-0000004J-0003145D01*
G01*
X0122916Y0043857D02*
G03*
X0124912Y0038245I0003424J-0001942D01*
G01*
X0079827Y0038245D02*
G03*
X0082881Y0023031I0002857J-0007340D01*
G01*
X0115244Y0107874D02*
G03*
X0112094Y0111024I-0003145J0000004D01*
G01*
X0121858Y0023031D02*
G03*
X0124912Y0038245I0000197J0007874D01*
G01*
X0079827D02*
G03*
X0081823Y0043857I-0001428J0003669D01*
G01*
X0115244Y0091929D02*
G03*
X0119181Y0087992I0003938J0000001D01*
G01*
Y0023031D02*
G03*
X0115244Y0019094I0000001J-0003938D01*
G01*
X0082881Y0087992D02*
G03*
X0079827Y0072778I-0000197J-0007874D01*
G01*
X0081823Y0067167D02*
G03*
X0081823Y0043857I0020547J-0011655D01*
G01*
X0124912Y0072778D02*
G03*
X0121858Y0087992I-0002858J0007340D01*
G01*
X0081823Y0067167D02*
G03*
X0079827Y0072778I-0003424J0001942D01*
G01*
X0112094Y0000000D02*
G03*
X0115244Y0003150I0000004J0003145D01*
G01*
X0082881Y0087992D02*
X0085559D01*
X0115244Y0003150D02*
Y0019094D01*
X0089496Y0091929D02*
Y0107874D01*
X0092645Y0000000D02*
X0112094D01*
X0092645Y0111024D02*
X0112094D01*
X0089496Y0003150D02*
Y0019094D01*
X0115244Y0091929D02*
Y0107874D01*
X0082881Y0023031D02*
X0085559D01*
X0119181Y0087992D02*
X0121858D01*
X0119181Y0023031D02*
X0121858D01*
X0199720Y0072778D02*
G03*
X0197724Y0067167I0001428J-0003669D01*
G01*
X0164304Y0003150D02*
G03*
X0167453Y0000000I0003145J-0000004D01*
G01*
X0197724Y0043857D02*
G03*
X0197724Y0067167I-0020547J0011655D01*
G01*
X0160367Y0087992D02*
G03*
X0164304Y0091929I-0000001J0003938D01*
G01*
Y0019094D02*
G03*
X0160367Y0023031I-0003938J-0000001D01*
G01*
X0167453Y0111024D02*
G03*
X0164304Y0107874I-0000004J-0003145D01*
G01*
X0197724Y0043857D02*
G03*
X0199720Y0038245I0003424J-0001942D01*
G01*
X0154635Y0038245D02*
G03*
X0157689Y0023031I0002857J-0007340D01*
G01*
X0190052Y0107874D02*
G03*
X0186902Y0111024I-0003145J0000004D01*
G01*
X0196666Y0023031D02*
G03*
X0199720Y0038245I0000197J0007874D01*
G01*
X0154635D02*
G03*
X0156631Y0043857I-0001428J0003669D01*
G01*
X0190052Y0091929D02*
G03*
X0193989Y0087992I0003938J0000001D01*
G01*
Y0023031D02*
G03*
X0190052Y0019094I0000001J-0003938D01*
G01*
X0157689Y0087992D02*
G03*
X0154635Y0072778I-0000197J-0007874D01*
G01*
X0156631Y0067167D02*
G03*
X0156631Y0043857I0020547J-0011655D01*
G01*
X0199720Y0072778D02*
G03*
X0196666Y0087992I-0002858J0007340D01*
G01*
X0156631Y0067167D02*
G03*
X0154635Y0072778I-0003424J0001942D01*
G01*
X0186902Y0000000D02*
G03*
X0190052Y0003150I0000004J0003145D01*
G01*
X0157689Y0087992D02*
X0160367D01*
X0190052Y0003150D02*
Y0019094D01*
X0164304Y0091929D02*
Y0107874D01*
X0167453Y0000000D02*
X0186902D01*
X0167453Y0111024D02*
X0186902D01*
X0164304Y0003150D02*
Y0019094D01*
X0190052Y0091929D02*
Y0107874D01*
X0157689Y0023031D02*
X0160367D01*
X0193989Y0087992D02*
X0196666D01*
X0193989Y0023031D02*
X0196666D01*
X0274528Y0072778D02*
G03*
X0272532Y0067167I0001428J-0003669D01*
G01*
X0239112Y0003150D02*
G03*
X0242261Y0000000I0003145J-0000004D01*
G01*
X0272532Y0043857D02*
G03*
X0272532Y0067167I-0020547J0011655D01*
G01*
X0235175Y0087992D02*
G03*
X0239112Y0091929I-0000001J0003938D01*
G01*
Y0019094D02*
G03*
X0235175Y0023031I-0003938J-0000001D01*
G01*
X0242261Y0111024D02*
G03*
X0239112Y0107874I-0000004J-0003145D01*
G01*
X0272532Y0043857D02*
G03*
X0274528Y0038245I0003424J-0001942D01*
G01*
X0229443Y0038245D02*
G03*
X0232498Y0023031I0002857J-0007340D01*
G01*
X0264860Y0107874D02*
G03*
X0261710Y0111024I-0003145J0000004D01*
G01*
X0271474Y0023031D02*
G03*
X0274528Y0038245I0000197J0007874D01*
G01*
X0229443D02*
G03*
X0231439Y0043857I-0001428J0003669D01*
G01*
X0264860Y0091929D02*
G03*
X0268797Y0087992I0003938J0000001D01*
G01*
Y0023031D02*
G03*
X0264860Y0019094I0000001J-0003938D01*
G01*
X0232498Y0087992D02*
G03*
X0229443Y0072778I-0000197J-0007874D01*
G01*
X0231439Y0067167D02*
G03*
X0231439Y0043857I0020547J-0011655D01*
G01*
X0274528Y0072778D02*
G03*
X0271474Y0087992I-0002858J0007340D01*
G01*
X0231439Y0067167D02*
G03*
X0229443Y0072778I-0003424J0001942D01*
G01*
X0261710Y0000000D02*
G03*
X0264860Y0003150I0000004J0003145D01*
G01*
X0232498Y0087992D02*
X0235175D01*
X0264860Y0003150D02*
Y0019094D01*
X0239112Y0091929D02*
Y0107874D01*
X0242261Y0000000D02*
X0261710D01*
X0242261Y0111024D02*
X0261710D01*
X0239112Y0003150D02*
Y0019094D01*
X0264860Y0091929D02*
Y0107874D01*
X0232498Y0023031D02*
X0235175D01*
X0268797Y0087992D02*
X0271474D01*
X0268797Y0023031D02*
X0271474D01*
X0349337Y0072778D02*
G03*
X0347340Y0067167I0001428J-0003669D01*
G01*
X0313920Y0003150D02*
G03*
X0317069Y0000000I0003145J-0000004D01*
G01*
X0347340Y0043857D02*
G03*
X0347340Y0067167I-0020547J0011655D01*
G01*
X0309983Y0087992D02*
G03*
X0313920Y0091929I-0000001J0003938D01*
G01*
Y0019094D02*
G03*
X0309983Y0023031I-0003938J-0000001D01*
G01*
X0317069Y0111024D02*
G03*
X0313920Y0107874I-0000004J-0003145D01*
G01*
X0347340Y0043857D02*
G03*
X0349336Y0038245I0003424J-0001942D01*
G01*
X0304251Y0038245D02*
G03*
X0307306Y0023031I0002857J-0007340D01*
G01*
X0339668Y0107874D02*
G03*
X0336518Y0111024I-0003145J0000004D01*
G01*
X0346282Y0023031D02*
G03*
X0349336Y0038245I0000197J0007874D01*
G01*
X0304251D02*
G03*
X0306247Y0043857I-0001428J0003669D01*
G01*
X0339668Y0091929D02*
G03*
X0343605Y0087992I0003938J0000001D01*
G01*
Y0023031D02*
G03*
X0339668Y0019094I0000001J-0003938D01*
G01*
X0307306Y0087992D02*
G03*
X0304251Y0072778I-0000197J-0007874D01*
G01*
X0306247Y0067167D02*
G03*
X0306247Y0043857I0020547J-0011655D01*
G01*
X0349337Y0072778D02*
G03*
X0346282Y0087992I-0002858J0007340D01*
G01*
X0306247Y0067167D02*
G03*
X0304251Y0072778I-0003424J0001942D01*
G01*
X0336518Y0000000D02*
G03*
X0339668Y0003150I0000004J0003145D01*
G01*
X0307306Y0087992D02*
X0309983D01*
X0339668Y0003150D02*
Y0019094D01*
X0313920Y0091929D02*
Y0107874D01*
X0317069Y0000000D02*
X0336518D01*
X0317069Y0111024D02*
X0336518D01*
X0313920Y0003150D02*
Y0019094D01*
X0339668Y0091929D02*
Y0107874D01*
X0307306Y0023031D02*
X0309983D01*
X0343605Y0087992D02*
X0346282D01*
X0343605Y0023031D02*
X0346282D01*
X0424145Y0072778D02*
G03*
X0422148Y0067167I0001428J-0003669D01*
G01*
X0388728Y0003150D02*
G03*
X0391878Y0000000I0003145J-0000004D01*
G01*
X0422148Y0043857D02*
G03*
X0422148Y0067167I-0020547J0011655D01*
G01*
X0384791Y0087992D02*
G03*
X0388728Y0091929I-0000001J0003938D01*
G01*
Y0019094D02*
G03*
X0384791Y0023031I-0003938J-0000001D01*
G01*
X0391878Y0111024D02*
G03*
X0388728Y0107874I-0000004J-0003145D01*
G01*
X0422148Y0043857D02*
G03*
X0424145Y0038245I0003424J-0001942D01*
G01*
X0379059Y0038245D02*
G03*
X0382114Y0023031I0002857J-0007340D01*
G01*
X0414476Y0107874D02*
G03*
X0411326Y0111024I-0003145J0000004D01*
G01*
X0421090Y0023031D02*
G03*
X0424145Y0038245I0000197J0007874D01*
G01*
X0379059D02*
G03*
X0381055Y0043857I-0001428J0003669D01*
G01*
X0414476Y0091929D02*
G03*
X0418413Y0087992I0003938J0000001D01*
G01*
Y0023031D02*
G03*
X0414476Y0019094I0000001J-0003938D01*
G01*
X0382114Y0087992D02*
G03*
X0379059Y0072778I-0000197J-0007874D01*
G01*
X0381055Y0067167D02*
G03*
X0381055Y0043857I0020547J-0011655D01*
G01*
X0424145Y0072778D02*
G03*
X0421090Y0087992I-0002858J0007340D01*
G01*
X0381055Y0067167D02*
G03*
X0379059Y0072778I-0003424J0001942D01*
G01*
X0411326Y0000000D02*
G03*
X0414476Y0003150I0000004J0003145D01*
G01*
X0382114Y0087992D02*
X0384791D01*
X0414476Y0003150D02*
Y0019094D01*
X0388728Y0091929D02*
Y0107874D01*
X0391878Y0000000D02*
X0411326D01*
X0391878Y0111024D02*
X0411326D01*
X0388728Y0003150D02*
Y0019094D01*
X0414476Y0091929D02*
Y0107874D01*
X0382114Y0023031D02*
X0384791D01*
X0418413Y0087992D02*
X0421090D01*
X0418413Y0023031D02*
X0421090D01*
X0050104Y0203487D02*
G03*
X0048108Y0197876I0001428J-0003669D01*
G01*
X0014687Y0133858D02*
G03*
X0017837Y0130709I0003145J-0000004D01*
G01*
X0048108Y0174565D02*
G03*
X0048108Y0197876I-0020547J0011655D01*
G01*
X0010751Y0218701D02*
G03*
X0014687Y0222638I-0000001J0003938D01*
G01*
Y0149803D02*
G03*
X0010751Y0153740I-0003938J-0000001D01*
G01*
X0017837Y0241732D02*
G03*
X0014687Y0238583I-0000004J-0003145D01*
G01*
X0048108Y0174565D02*
G03*
X0050104Y0168954I0003424J-0001942D01*
G01*
X0005019Y0168954D02*
G03*
X0008073Y0153740I0002857J-0007340D01*
G01*
X0040436Y0238583D02*
G03*
X0037286Y0241732I-0003145J0000004D01*
G01*
X0047050Y0153740D02*
G03*
X0050104Y0168954I0000197J0007874D01*
G01*
X0005019D02*
G03*
X0007015Y0174565I-0001428J0003669D01*
G01*
X0040435Y0222638D02*
G03*
X0044373Y0218701I0003938J0000001D01*
G01*
Y0153740D02*
G03*
X0040435Y0149803I0000001J-0003938D01*
G01*
X0008073Y0218701D02*
G03*
X0005019Y0203487I-0000197J-0007874D01*
G01*
X0007015Y0197876D02*
G03*
X0007015Y0174565I0020547J-0011655D01*
G01*
X0050104Y0203487D02*
G03*
X0047050Y0218701I-0002858J0007340D01*
G01*
X0007015Y0197876D02*
G03*
X0005019Y0203487I-0003424J0001942D01*
G01*
X0037286Y0130709D02*
G03*
X0040436Y0133858I0000004J0003145D01*
G01*
X0008073Y0218701D02*
X0010751D01*
X0040436Y0133858D02*
Y0149803D01*
X0014687Y0222638D02*
Y0238583D01*
X0017837Y0130709D02*
X0037286D01*
X0017837Y0241732D02*
X0037286D01*
X0014687Y0133858D02*
Y0149803D01*
X0040436Y0222638D02*
Y0238583D01*
X0008073Y0153740D02*
X0010751D01*
X0044373Y0218701D02*
X0047050D01*
X0044373Y0153740D02*
X0047050D01*
X0124912Y0203487D02*
G03*
X0122916Y0197876I0001428J-0003669D01*
G01*
X0089496Y0133858D02*
G03*
X0092645Y0130709I0003145J-0000004D01*
G01*
X0122916Y0174565D02*
G03*
X0122916Y0197876I-0020547J0011655D01*
G01*
X0085559Y0218701D02*
G03*
X0089496Y0222638I-0000001J0003938D01*
G01*
Y0149803D02*
G03*
X0085559Y0153740I-0003938J-0000001D01*
G01*
X0092645Y0241732D02*
G03*
X0089496Y0238583I-0000004J-0003145D01*
G01*
X0122916Y0174565D02*
G03*
X0124912Y0168954I0003424J-0001942D01*
G01*
X0079827Y0168954D02*
G03*
X0082881Y0153740I0002857J-0007340D01*
G01*
X0115244Y0238583D02*
G03*
X0112094Y0241732I-0003145J0000004D01*
G01*
X0121858Y0153740D02*
G03*
X0124912Y0168954I0000197J0007874D01*
G01*
X0079827D02*
G03*
X0081823Y0174565I-0001428J0003669D01*
G01*
X0115244Y0222638D02*
G03*
X0119181Y0218701I0003938J0000001D01*
G01*
Y0153740D02*
G03*
X0115244Y0149803I0000001J-0003938D01*
G01*
X0082881Y0218701D02*
G03*
X0079827Y0203487I-0000197J-0007874D01*
G01*
X0081823Y0197876D02*
G03*
X0081823Y0174565I0020547J-0011655D01*
G01*
X0124912Y0203487D02*
G03*
X0121858Y0218701I-0002858J0007340D01*
G01*
X0081823Y0197876D02*
G03*
X0079827Y0203487I-0003424J0001942D01*
G01*
X0112094Y0130709D02*
G03*
X0115244Y0133858I0000004J0003145D01*
G01*
X0082881Y0218701D02*
X0085559D01*
X0115244Y0133858D02*
Y0149803D01*
X0089496Y0222638D02*
Y0238583D01*
X0092645Y0130709D02*
X0112094D01*
X0092645Y0241732D02*
X0112094D01*
X0089496Y0133858D02*
Y0149803D01*
X0115244Y0222638D02*
Y0238583D01*
X0082881Y0153740D02*
X0085559D01*
X0119181Y0218701D02*
X0121858D01*
X0119181Y0153740D02*
X0121858D01*
X0199720Y0203487D02*
G03*
X0197724Y0197876I0001428J-0003669D01*
G01*
X0164304Y0133858D02*
G03*
X0167453Y0130709I0003145J-0000004D01*
G01*
X0197724Y0174565D02*
G03*
X0197724Y0197876I-0020547J0011655D01*
G01*
X0160367Y0218701D02*
G03*
X0164304Y0222638I-0000001J0003938D01*
G01*
Y0149803D02*
G03*
X0160367Y0153740I-0003938J-0000001D01*
G01*
X0167453Y0241732D02*
G03*
X0164304Y0238583I-0000004J-0003145D01*
G01*
X0197724Y0174565D02*
G03*
X0199720Y0168954I0003424J-0001942D01*
G01*
X0154635Y0168954D02*
G03*
X0157689Y0153740I0002857J-0007340D01*
G01*
X0190052Y0238583D02*
G03*
X0186902Y0241732I-0003145J0000004D01*
G01*
X0196666Y0153740D02*
G03*
X0199720Y0168954I0000197J0007874D01*
G01*
X0154635D02*
G03*
X0156631Y0174565I-0001428J0003669D01*
G01*
X0190052Y0222638D02*
G03*
X0193989Y0218701I0003938J0000001D01*
G01*
Y0153740D02*
G03*
X0190052Y0149803I0000001J-0003938D01*
G01*
X0157689Y0218701D02*
G03*
X0154635Y0203487I-0000197J-0007874D01*
G01*
X0156631Y0197876D02*
G03*
X0156631Y0174565I0020547J-0011655D01*
G01*
X0199720Y0203487D02*
G03*
X0196666Y0218701I-0002858J0007340D01*
G01*
X0156631Y0197876D02*
G03*
X0154635Y0203487I-0003424J0001942D01*
G01*
X0186902Y0130709D02*
G03*
X0190052Y0133858I0000004J0003145D01*
G01*
X0157689Y0218701D02*
X0160367D01*
X0190052Y0133858D02*
Y0149803D01*
X0164304Y0222638D02*
Y0238583D01*
X0167453Y0130709D02*
X0186902D01*
X0167453Y0241732D02*
X0186902D01*
X0164304Y0133858D02*
Y0149803D01*
X0190052Y0222638D02*
Y0238583D01*
X0157689Y0153740D02*
X0160367D01*
X0193989Y0218701D02*
X0196666D01*
X0193989Y0153740D02*
X0196666D01*
X0274528Y0203487D02*
G03*
X0272532Y0197876I0001428J-0003669D01*
G01*
X0239112Y0133858D02*
G03*
X0242261Y0130709I0003145J-0000004D01*
G01*
X0272532Y0174565D02*
G03*
X0272532Y0197876I-0020547J0011655D01*
G01*
X0235175Y0218701D02*
G03*
X0239112Y0222638I-0000001J0003938D01*
G01*
Y0149803D02*
G03*
X0235175Y0153740I-0003938J-0000001D01*
G01*
X0242261Y0241732D02*
G03*
X0239112Y0238583I-0000004J-0003145D01*
G01*
X0272532Y0174565D02*
G03*
X0274528Y0168954I0003424J-0001942D01*
G01*
X0229443Y0168954D02*
G03*
X0232498Y0153740I0002857J-0007340D01*
G01*
X0264860Y0238583D02*
G03*
X0261710Y0241732I-0003145J0000004D01*
G01*
X0271474Y0153740D02*
G03*
X0274528Y0168954I0000197J0007874D01*
G01*
X0229443D02*
G03*
X0231439Y0174565I-0001428J0003669D01*
G01*
X0264860Y0222638D02*
G03*
X0268797Y0218701I0003938J0000001D01*
G01*
Y0153740D02*
G03*
X0264860Y0149803I0000001J-0003938D01*
G01*
X0232498Y0218701D02*
G03*
X0229443Y0203487I-0000197J-0007874D01*
G01*
X0231439Y0197876D02*
G03*
X0231439Y0174565I0020547J-0011655D01*
G01*
X0274528Y0203487D02*
G03*
X0271474Y0218701I-0002858J0007340D01*
G01*
X0231439Y0197876D02*
G03*
X0229443Y0203487I-0003424J0001942D01*
G01*
X0261710Y0130709D02*
G03*
X0264860Y0133858I0000004J0003145D01*
G01*
X0232498Y0218701D02*
X0235175D01*
X0264860Y0133858D02*
Y0149803D01*
X0239112Y0222638D02*
Y0238583D01*
X0242261Y0130709D02*
X0261710D01*
X0242261Y0241732D02*
X0261710D01*
X0239112Y0133858D02*
Y0149803D01*
X0264860Y0222638D02*
Y0238583D01*
X0232498Y0153740D02*
X0235175D01*
X0268797Y0218701D02*
X0271474D01*
X0268797Y0153740D02*
X0271474D01*
X0349337Y0203487D02*
G03*
X0347340Y0197876I0001428J-0003669D01*
G01*
X0313920Y0133858D02*
G03*
X0317069Y0130709I0003145J-0000004D01*
G01*
X0347340Y0174565D02*
G03*
X0347340Y0197876I-0020547J0011655D01*
G01*
X0309983Y0218701D02*
G03*
X0313920Y0222638I-0000001J0003938D01*
G01*
Y0149803D02*
G03*
X0309983Y0153740I-0003938J-0000001D01*
G01*
X0317069Y0241732D02*
G03*
X0313920Y0238583I-0000004J-0003145D01*
G01*
X0347340Y0174565D02*
G03*
X0349336Y0168954I0003424J-0001942D01*
G01*
X0304251Y0168954D02*
G03*
X0307306Y0153740I0002857J-0007340D01*
G01*
X0339668Y0238583D02*
G03*
X0336518Y0241732I-0003145J0000004D01*
G01*
X0346282Y0153740D02*
G03*
X0349336Y0168954I0000197J0007874D01*
G01*
X0304251D02*
G03*
X0306247Y0174565I-0001428J0003669D01*
G01*
X0339668Y0222638D02*
G03*
X0343605Y0218701I0003938J0000001D01*
G01*
Y0153740D02*
G03*
X0339668Y0149803I0000001J-0003938D01*
G01*
X0307306Y0218701D02*
G03*
X0304251Y0203487I-0000197J-0007874D01*
G01*
X0306247Y0197876D02*
G03*
X0306247Y0174565I0020547J-0011655D01*
G01*
X0349337Y0203487D02*
G03*
X0346282Y0218701I-0002858J0007340D01*
G01*
X0306247Y0197876D02*
G03*
X0304251Y0203487I-0003424J0001942D01*
G01*
X0336518Y0130709D02*
G03*
X0339668Y0133858I0000004J0003145D01*
G01*
X0307306Y0218701D02*
X0309983D01*
X0339668Y0133858D02*
Y0149803D01*
X0313920Y0222638D02*
Y0238583D01*
X0317069Y0130709D02*
X0336518D01*
X0317069Y0241732D02*
X0336518D01*
X0313920Y0133858D02*
Y0149803D01*
X0339668Y0222638D02*
Y0238583D01*
X0307306Y0153740D02*
X0309983D01*
X0343605Y0218701D02*
X0346282D01*
X0343605Y0153740D02*
X0346282D01*
X0424145Y0203487D02*
G03*
X0422148Y0197876I0001428J-0003669D01*
G01*
X0388728Y0133858D02*
G03*
X0391878Y0130709I0003145J-0000004D01*
G01*
X0422148Y0174565D02*
G03*
X0422148Y0197876I-0020547J0011655D01*
G01*
X0384791Y0218701D02*
G03*
X0388728Y0222638I-0000001J0003938D01*
G01*
Y0149803D02*
G03*
X0384791Y0153740I-0003938J-0000001D01*
G01*
X0391878Y0241732D02*
G03*
X0388728Y0238583I-0000004J-0003145D01*
G01*
X0422148Y0174565D02*
G03*
X0424145Y0168954I0003424J-0001942D01*
G01*
X0379059Y0168954D02*
G03*
X0382114Y0153740I0002857J-0007340D01*
G01*
X0414476Y0238583D02*
G03*
X0411326Y0241732I-0003145J0000004D01*
G01*
X0421090Y0153740D02*
G03*
X0424145Y0168954I0000197J0007874D01*
G01*
X0379059D02*
G03*
X0381055Y0174565I-0001428J0003669D01*
G01*
X0414476Y0222638D02*
G03*
X0418413Y0218701I0003938J0000001D01*
G01*
Y0153740D02*
G03*
X0414476Y0149803I0000001J-0003938D01*
G01*
X0382114Y0218701D02*
G03*
X0379059Y0203487I-0000197J-0007874D01*
G01*
X0381055Y0197876D02*
G03*
X0381055Y0174565I0020547J-0011655D01*
G01*
X0424145Y0203487D02*
G03*
X0421090Y0218701I-0002858J0007340D01*
G01*
X0381055Y0197876D02*
G03*
X0379059Y0203487I-0003424J0001942D01*
G01*
X0411326Y0130709D02*
G03*
X0414476Y0133858I0000004J0003145D01*
G01*
X0382114Y0218701D02*
X0384791D01*
X0414476Y0133858D02*
Y0149803D01*
X0388728Y0222638D02*
Y0238583D01*
X0391878Y0130709D02*
X0411326D01*
X0391878Y0241732D02*
X0411326D01*
X0388728Y0133858D02*
Y0149803D01*
X0414476Y0222638D02*
Y0238583D01*
X0382114Y0153740D02*
X0384791D01*
X0418413Y0218701D02*
X0421090D01*
X0418413Y0153740D02*
X0421090D01*
D18*
X0437008Y0121063D02*
D03*
X-0007874D02*
D03*
X0289075Y0249606D02*
D03*
X0143405D02*
D03*
X0289469Y-0007874D02*
D03*
X0144587D02*
D03*
D23*
X0015455Y0063290D02*
D03*
Y0067030D02*
D03*
Y0070771D02*
D03*
X0024904D02*
D03*
Y0063290D02*
D03*
X0090263D02*
D03*
Y0067030D02*
D03*
Y0070771D02*
D03*
X0099712D02*
D03*
Y0063290D02*
D03*
X0165071D02*
D03*
Y0067030D02*
D03*
Y0070771D02*
D03*
X0174520D02*
D03*
Y0063290D02*
D03*
X0239879D02*
D03*
Y0067030D02*
D03*
Y0070771D02*
D03*
X0249328D02*
D03*
Y0063290D02*
D03*
X0314688D02*
D03*
Y0067030D02*
D03*
Y0070771D02*
D03*
X0324136D02*
D03*
Y0063290D02*
D03*
X0389496D02*
D03*
Y0067030D02*
D03*
Y0070771D02*
D03*
X0398944D02*
D03*
Y0063290D02*
D03*
X0015455Y0193999D02*
D03*
Y0197739D02*
D03*
Y0201479D02*
D03*
X0024904D02*
D03*
Y0193999D02*
D03*
X0090263D02*
D03*
Y0197739D02*
D03*
Y0201479D02*
D03*
X0099712D02*
D03*
Y0193999D02*
D03*
X0165071D02*
D03*
Y0197739D02*
D03*
Y0201479D02*
D03*
X0174520D02*
D03*
Y0193999D02*
D03*
X0239879D02*
D03*
Y0197739D02*
D03*
Y0201479D02*
D03*
X0249328D02*
D03*
Y0193999D02*
D03*
X0314688D02*
D03*
Y0197739D02*
D03*
Y0201479D02*
D03*
X0324136D02*
D03*
Y0193999D02*
D03*
X0389496D02*
D03*
Y0197739D02*
D03*
Y0201479D02*
D03*
X0398944D02*
D03*
Y0193999D02*
D03*
D24*
X0037601Y0073032D02*
D03*
X0033861D02*
D03*
X0030121D02*
D03*
Y0063583D02*
D03*
X0033861D02*
D03*
X0037601D02*
D03*
X0112409Y0073032D02*
D03*
X0108669D02*
D03*
X0104929D02*
D03*
Y0063583D02*
D03*
X0108669D02*
D03*
X0112409D02*
D03*
X0187217Y0073032D02*
D03*
X0183477D02*
D03*
X0179737D02*
D03*
Y0063583D02*
D03*
X0183477D02*
D03*
X0187217D02*
D03*
X0262025Y0073032D02*
D03*
X0258285D02*
D03*
X0254545D02*
D03*
Y0063583D02*
D03*
X0258285D02*
D03*
X0262025D02*
D03*
X0336833Y0073032D02*
D03*
X0333093D02*
D03*
X0329353D02*
D03*
Y0063583D02*
D03*
X0333093D02*
D03*
X0336833D02*
D03*
X0411641Y0073032D02*
D03*
X0407901D02*
D03*
X0404161D02*
D03*
Y0063583D02*
D03*
X0407901D02*
D03*
X0411641D02*
D03*
X0037601Y0203740D02*
D03*
X0033861D02*
D03*
X0030121D02*
D03*
Y0194291D02*
D03*
X0033861D02*
D03*
X0037601D02*
D03*
X0112409Y0203740D02*
D03*
X0108669D02*
D03*
X0104929D02*
D03*
Y0194291D02*
D03*
X0108669D02*
D03*
X0112409D02*
D03*
X0187217Y0203740D02*
D03*
X0183477D02*
D03*
X0179737D02*
D03*
Y0194291D02*
D03*
X0183477D02*
D03*
X0187217D02*
D03*
X0262025Y0203740D02*
D03*
X0258285D02*
D03*
X0254545D02*
D03*
Y0194291D02*
D03*
X0258285D02*
D03*
X0262025D02*
D03*
X0336833Y0203740D02*
D03*
X0333093D02*
D03*
X0329353D02*
D03*
Y0194291D02*
D03*
X0333093D02*
D03*
X0336833D02*
D03*
X0411641Y0203740D02*
D03*
X0407901D02*
D03*
X0404161D02*
D03*
Y0194291D02*
D03*
X0407901D02*
D03*
X0411641D02*
D03*
D28*
X0024104Y0057894D02*
D03*
X0028041D02*
D03*
X0018211Y0075197D02*
D03*
X0022148D02*
D03*
X0041841Y0041871D02*
D03*
X0037904D02*
D03*
X0098912Y0057894D02*
D03*
X0102849D02*
D03*
X0093019Y0075197D02*
D03*
X0096956D02*
D03*
X0116649Y0041871D02*
D03*
X0112712D02*
D03*
X0173721Y0057894D02*
D03*
X0177657D02*
D03*
X0167827Y0075197D02*
D03*
X0171764D02*
D03*
X0191457Y0041871D02*
D03*
X0187520D02*
D03*
X0248529Y0057894D02*
D03*
X0252466D02*
D03*
X0242635Y0075197D02*
D03*
X0246572D02*
D03*
X0266265Y0041871D02*
D03*
X0262328D02*
D03*
X0323337Y0057894D02*
D03*
X0327274D02*
D03*
X0317443Y0075197D02*
D03*
X0321380D02*
D03*
X0341073Y0041871D02*
D03*
X0337136D02*
D03*
X0398145Y0057894D02*
D03*
X0402082D02*
D03*
X0392251Y0075197D02*
D03*
X0396188D02*
D03*
X0415881Y0041871D02*
D03*
X0411944D02*
D03*
X0024104Y0188602D02*
D03*
X0028041D02*
D03*
X0018211Y0205906D02*
D03*
X0022148D02*
D03*
X0041841Y0172580D02*
D03*
X0037904D02*
D03*
X0098912Y0188602D02*
D03*
X0102849D02*
D03*
X0093019Y0205906D02*
D03*
X0096956D02*
D03*
X0116649Y0172580D02*
D03*
X0112712D02*
D03*
X0173721Y0188602D02*
D03*
X0177657D02*
D03*
X0167827Y0205906D02*
D03*
X0171764D02*
D03*
X0191457Y0172580D02*
D03*
X0187520D02*
D03*
X0248529Y0188602D02*
D03*
X0252466D02*
D03*
X0242635Y0205906D02*
D03*
X0246572D02*
D03*
X0266265Y0172580D02*
D03*
X0262328D02*
D03*
X0323337Y0188602D02*
D03*
X0327274D02*
D03*
X0317443Y0205906D02*
D03*
X0321380D02*
D03*
X0341073Y0172580D02*
D03*
X0337136D02*
D03*
X0398145Y0188602D02*
D03*
X0402082D02*
D03*
X0392251Y0205906D02*
D03*
X0396188D02*
D03*
X0415881Y0172580D02*
D03*
X0411944D02*
D03*
D29*
X0033959Y0077953D02*
D03*
X0030022D02*
D03*
X0037731Y0046169D02*
D03*
X0033794D02*
D03*
X0108767Y0077953D02*
D03*
X0104830D02*
D03*
X0112539Y0046169D02*
D03*
X0108602D02*
D03*
X0183575Y0077953D02*
D03*
X0179638D02*
D03*
X0187347Y0046169D02*
D03*
X0183410D02*
D03*
X0258383Y0077953D02*
D03*
X0254446D02*
D03*
X0262156Y0046169D02*
D03*
X0258218D02*
D03*
X0333191Y0077953D02*
D03*
X0329255D02*
D03*
X0336964Y0046169D02*
D03*
X0333027D02*
D03*
X0408000Y0077953D02*
D03*
X0404063D02*
D03*
X0411772Y0046169D02*
D03*
X0407835D02*
D03*
X0033959Y0208661D02*
D03*
X0030022D02*
D03*
X0037731Y0176877D02*
D03*
X0033794D02*
D03*
X0108767Y0208661D02*
D03*
X0104830D02*
D03*
X0112539Y0176877D02*
D03*
X0108602D02*
D03*
X0183575Y0208661D02*
D03*
X0179638D02*
D03*
X0187347Y0176877D02*
D03*
X0183410D02*
D03*
X0258383Y0208661D02*
D03*
X0254446D02*
D03*
X0262156Y0176877D02*
D03*
X0258218D02*
D03*
X0333191Y0208661D02*
D03*
X0329255D02*
D03*
X0336964Y0176877D02*
D03*
X0333027D02*
D03*
X0408000Y0208661D02*
D03*
X0404063D02*
D03*
X0411772Y0176877D02*
D03*
X0407835D02*
D03*
D30*
X0019294Y0036024D02*
D03*
Y0043504D02*
D03*
X0027168Y0039764D02*
D03*
X0094102Y0036024D02*
D03*
Y0043504D02*
D03*
X0101976Y0039764D02*
D03*
X0168910Y0036024D02*
D03*
Y0043504D02*
D03*
X0176784Y0039764D02*
D03*
X0243718Y0036024D02*
D03*
Y0043504D02*
D03*
X0251592Y0039764D02*
D03*
X0318526Y0036024D02*
D03*
Y0043504D02*
D03*
X0326400Y0039764D02*
D03*
X0393334Y0036024D02*
D03*
Y0043504D02*
D03*
X0401208Y0039764D02*
D03*
X0019294Y0166732D02*
D03*
Y0174213D02*
D03*
X0027168Y0170473D02*
D03*
X0094102Y0166732D02*
D03*
Y0174213D02*
D03*
X0101976Y0170473D02*
D03*
X0168910Y0166732D02*
D03*
Y0174213D02*
D03*
X0176784Y0170473D02*
D03*
X0243718Y0166732D02*
D03*
Y0174213D02*
D03*
X0251592Y0170473D02*
D03*
X0318526Y0166732D02*
D03*
Y0174213D02*
D03*
X0326400Y0170473D02*
D03*
X0393334Y0166732D02*
D03*
Y0174213D02*
D03*
X0401208Y0170473D02*
D03*
D32*
X0043123Y0065314D02*
D03*
Y0069251D02*
D03*
X0117932Y0065314D02*
D03*
Y0069251D02*
D03*
X0192740Y0065314D02*
D03*
Y0069251D02*
D03*
X0267548Y0065314D02*
D03*
Y0069251D02*
D03*
X0342356Y0065314D02*
D03*
Y0069251D02*
D03*
X0417164Y0065314D02*
D03*
Y0069251D02*
D03*
X0043123Y0196023D02*
D03*
Y0199960D02*
D03*
X0117932Y0196023D02*
D03*
Y0199960D02*
D03*
X0192740Y0196023D02*
D03*
Y0199960D02*
D03*
X0267548Y0196023D02*
D03*
Y0199960D02*
D03*
X0342356Y0196023D02*
D03*
Y0199960D02*
D03*
X0417164Y0196023D02*
D03*
Y0199960D02*
D03*
D55*
X0022921Y0084671D02*
D03*
X0020166D02*
D03*
X0030908Y0085138D02*
D03*
X0033664D02*
D03*
X0023231Y0026969D02*
D03*
X0020475D02*
D03*
X0031203Y0027067D02*
D03*
X0033959D02*
D03*
X0097729Y0084671D02*
D03*
X0094974D02*
D03*
X0105716Y0085138D02*
D03*
X0108472D02*
D03*
X0098039Y0026969D02*
D03*
X0095283D02*
D03*
X0106011Y0027067D02*
D03*
X0108767D02*
D03*
X0172538Y0084671D02*
D03*
X0169782D02*
D03*
X0180524Y0085138D02*
D03*
X0183280D02*
D03*
X0172847Y0026969D02*
D03*
X0170091D02*
D03*
X0180819Y0027067D02*
D03*
X0183575D02*
D03*
X0247346Y0084671D02*
D03*
X0244590D02*
D03*
X0255332Y0085138D02*
D03*
X0258088D02*
D03*
X0247655Y0026969D02*
D03*
X0244899D02*
D03*
X0255627Y0027067D02*
D03*
X0258383D02*
D03*
X0322154Y0084671D02*
D03*
X0319398D02*
D03*
X0330140Y0085138D02*
D03*
X0332896D02*
D03*
X0322463Y0026969D02*
D03*
X0319707D02*
D03*
X0330436Y0027067D02*
D03*
X0333191D02*
D03*
X0396962Y0084671D02*
D03*
X0394206D02*
D03*
X0404948Y0085138D02*
D03*
X0407704D02*
D03*
X0397271Y0026969D02*
D03*
X0394515D02*
D03*
X0405244Y0027067D02*
D03*
X0408000D02*
D03*
X0022921Y0215380D02*
D03*
X0020166D02*
D03*
X0030908Y0215846D02*
D03*
X0033664D02*
D03*
X0023231Y0157677D02*
D03*
X0020475D02*
D03*
X0031203Y0157776D02*
D03*
X0033959D02*
D03*
X0097729Y0215380D02*
D03*
X0094974D02*
D03*
X0105716Y0215846D02*
D03*
X0108472D02*
D03*
X0098039Y0157677D02*
D03*
X0095283D02*
D03*
X0106011Y0157776D02*
D03*
X0108767D02*
D03*
X0172538Y0215380D02*
D03*
X0169782D02*
D03*
X0180524Y0215846D02*
D03*
X0183280D02*
D03*
X0172847Y0157677D02*
D03*
X0170091D02*
D03*
X0180819Y0157776D02*
D03*
X0183575D02*
D03*
X0247346Y0215380D02*
D03*
X0244590D02*
D03*
X0255332Y0215846D02*
D03*
X0258088D02*
D03*
X0247655Y0157677D02*
D03*
X0244899D02*
D03*
X0255627Y0157776D02*
D03*
X0258383D02*
D03*
X0322154Y0215380D02*
D03*
X0319398D02*
D03*
X0330140Y0215846D02*
D03*
X0332896D02*
D03*
X0322463Y0157677D02*
D03*
X0319707D02*
D03*
X0330436Y0157776D02*
D03*
X0333191D02*
D03*
X0396962Y0215380D02*
D03*
X0394206D02*
D03*
X0404948Y0215846D02*
D03*
X0407704D02*
D03*
X0397271Y0157677D02*
D03*
X0394515D02*
D03*
X0405244Y0157776D02*
D03*
X0408000D02*
D03*
D56*
X0033861Y0039469D02*
D03*
Y0033957D02*
D03*
X0108669Y0039469D02*
D03*
Y0033957D02*
D03*
X0183477Y0039469D02*
D03*
Y0033957D02*
D03*
X0258285Y0039469D02*
D03*
Y0033957D02*
D03*
X0333093Y0039469D02*
D03*
Y0033957D02*
D03*
X0407901Y0039469D02*
D03*
Y0033957D02*
D03*
X0033861Y0170177D02*
D03*
Y0164665D02*
D03*
X0108669Y0170177D02*
D03*
Y0164665D02*
D03*
X0183477Y0170177D02*
D03*
Y0164665D02*
D03*
X0258285Y0170177D02*
D03*
Y0164665D02*
D03*
X0333093Y0170177D02*
D03*
Y0164665D02*
D03*
X0407901Y0170177D02*
D03*
Y0164665D02*
D03*
M02*
