G04*
G04 #@! TF.GenerationSoftware,Altium Limited,Altium Designer,21.6.4 (81)*
G04*
G04 Layer_Color=32768*
%FSAX25Y25*%
%MOIN*%
G70*
G04*
G04 #@! TF.SameCoordinates,951E7868-A63B-422C-B91B-43858A88E4F6*
G04*
G04*
G04 #@! TF.FilePolarity,Positive*
G04*
G01*
G75*
%ADD14C,0.00787*%
G36*
X0503737Y0214153D02*
X0503761D01*
X0503817Y0214128D01*
X0503848Y0214110D01*
X0503879Y0214085D01*
X0503885Y0214079D01*
X0503891Y0214073D01*
X0503922Y0214036D01*
X0503947Y0213974D01*
X0503953Y0213937D01*
X0503960Y0213899D01*
Y0213893D01*
Y0213881D01*
X0503953Y0213862D01*
X0503947Y0213838D01*
X0503929Y0213776D01*
X0503904Y0213745D01*
X0503879Y0213714D01*
X0503873D01*
X0503867Y0213701D01*
X0503829Y0213677D01*
X0503774Y0213652D01*
X0503737Y0213646D01*
X0503699Y0213639D01*
X0503681D01*
X0503662Y0213646D01*
X0503638D01*
X0503576Y0213670D01*
X0503545Y0213683D01*
X0503514Y0213708D01*
Y0213714D01*
X0503501Y0213720D01*
X0503489Y0213738D01*
X0503477Y0213757D01*
X0503452Y0213819D01*
X0503446Y0213856D01*
X0503440Y0213899D01*
Y0213906D01*
Y0213918D01*
X0503446Y0213937D01*
X0503452Y0213968D01*
X0503471Y0214023D01*
X0503489Y0214054D01*
X0503514Y0214085D01*
X0503520Y0214091D01*
X0503526Y0214098D01*
X0503563Y0214122D01*
X0503625Y0214147D01*
X0503662Y0214159D01*
X0503718D01*
X0503737Y0214153D01*
D02*
G37*
G36*
X0491747Y0210489D02*
X0491344D01*
Y0210910D01*
X0491332D01*
Y0210904D01*
X0491320Y0210891D01*
X0491301Y0210866D01*
X0491282Y0210835D01*
X0491251Y0210798D01*
X0491214Y0210761D01*
X0491171Y0210718D01*
X0491121Y0210675D01*
X0491066Y0210625D01*
X0490998Y0210582D01*
X0490930Y0210544D01*
X0490849Y0210507D01*
X0490769Y0210476D01*
X0490676Y0210452D01*
X0490577Y0210439D01*
X0490472Y0210433D01*
X0490428D01*
X0490391Y0210439D01*
X0490354Y0210445D01*
X0490304Y0210452D01*
X0490199Y0210476D01*
X0490075Y0210513D01*
X0489952Y0210576D01*
X0489883Y0210613D01*
X0489828Y0210656D01*
X0489766Y0210712D01*
X0489710Y0210767D01*
Y0210773D01*
X0489698Y0210786D01*
X0489685Y0210805D01*
X0489667Y0210829D01*
X0489648Y0210860D01*
X0489623Y0210904D01*
X0489599Y0210953D01*
X0489574Y0211009D01*
X0489543Y0211071D01*
X0489518Y0211139D01*
X0489494Y0211213D01*
X0489475Y0211294D01*
X0489456Y0211380D01*
X0489444Y0211479D01*
X0489438Y0211578D01*
X0489432Y0211684D01*
Y0211690D01*
Y0211708D01*
Y0211745D01*
X0489438Y0211789D01*
X0489444Y0211838D01*
X0489450Y0211900D01*
X0489456Y0211968D01*
X0489469Y0212042D01*
X0489506Y0212203D01*
X0489562Y0212371D01*
X0489599Y0212451D01*
X0489642Y0212531D01*
X0489685Y0212606D01*
X0489741Y0212680D01*
X0489747Y0212686D01*
X0489753Y0212699D01*
X0489772Y0212717D01*
X0489797Y0212742D01*
X0489828Y0212767D01*
X0489871Y0212798D01*
X0489914Y0212835D01*
X0489964Y0212872D01*
X0490088Y0212940D01*
X0490230Y0213002D01*
X0490310Y0213020D01*
X0490397Y0213039D01*
X0490484Y0213052D01*
X0490583Y0213058D01*
X0490632D01*
X0490670Y0213052D01*
X0490707Y0213045D01*
X0490756Y0213039D01*
X0490868Y0213008D01*
X0490991Y0212959D01*
X0491053Y0212928D01*
X0491115Y0212884D01*
X0491177Y0212841D01*
X0491233Y0212785D01*
X0491282Y0212723D01*
X0491332Y0212649D01*
X0491344D01*
Y0214209D01*
X0491747D01*
Y0210489D01*
D02*
G37*
G36*
X0506015Y0213052D02*
X0506089Y0213045D01*
X0506182Y0213027D01*
X0506281Y0212996D01*
X0506386Y0212946D01*
X0506491Y0212878D01*
X0506534Y0212841D01*
X0506578Y0212791D01*
X0506590Y0212779D01*
X0506615Y0212742D01*
X0506646Y0212680D01*
X0506689Y0212593D01*
X0506726Y0212488D01*
X0506764Y0212358D01*
X0506788Y0212203D01*
X0506795Y0212024D01*
Y0210489D01*
X0506392D01*
Y0211919D01*
Y0211925D01*
Y0211956D01*
X0506386Y0211993D01*
Y0212042D01*
X0506374Y0212104D01*
X0506361Y0212173D01*
X0506343Y0212247D01*
X0506318Y0212321D01*
X0506287Y0212395D01*
X0506250Y0212463D01*
X0506200Y0212531D01*
X0506145Y0212593D01*
X0506083Y0212643D01*
X0506002Y0212680D01*
X0505915Y0212711D01*
X0505810Y0212717D01*
X0505798D01*
X0505761Y0212711D01*
X0505705Y0212705D01*
X0505637Y0212686D01*
X0505556Y0212662D01*
X0505470Y0212618D01*
X0505389Y0212562D01*
X0505309Y0212488D01*
X0505303Y0212476D01*
X0505278Y0212451D01*
X0505247Y0212402D01*
X0505210Y0212333D01*
X0505173Y0212253D01*
X0505142Y0212154D01*
X0505117Y0212042D01*
X0505111Y0211919D01*
Y0210489D01*
X0504708D01*
Y0213002D01*
X0505111D01*
Y0212581D01*
X0505123D01*
X0505129Y0212587D01*
X0505136Y0212600D01*
X0505154Y0212624D01*
X0505179Y0212655D01*
X0505204Y0212692D01*
X0505241Y0212730D01*
X0505284Y0212773D01*
X0505334Y0212822D01*
X0505389Y0212866D01*
X0505451Y0212909D01*
X0505519Y0212946D01*
X0505594Y0212983D01*
X0505668Y0213014D01*
X0505755Y0213039D01*
X0505847Y0213052D01*
X0505946Y0213058D01*
X0505984D01*
X0506015Y0213052D01*
D02*
G37*
G36*
X0489017Y0213039D02*
X0489091Y0213033D01*
X0489134Y0213020D01*
X0489165Y0213008D01*
Y0212593D01*
X0489159Y0212600D01*
X0489147Y0212606D01*
X0489122Y0212618D01*
X0489091Y0212637D01*
X0489048Y0212649D01*
X0488992Y0212662D01*
X0488930Y0212668D01*
X0488862Y0212674D01*
X0488850D01*
X0488819Y0212668D01*
X0488769Y0212662D01*
X0488714Y0212643D01*
X0488639Y0212612D01*
X0488571Y0212569D01*
X0488497Y0212507D01*
X0488429Y0212426D01*
X0488423Y0212414D01*
X0488404Y0212383D01*
X0488373Y0212327D01*
X0488342Y0212253D01*
X0488311Y0212160D01*
X0488280Y0212042D01*
X0488262Y0211912D01*
X0488256Y0211764D01*
Y0210489D01*
X0487853D01*
Y0213002D01*
X0488256D01*
Y0212482D01*
X0488268D01*
Y0212488D01*
X0488274Y0212494D01*
X0488286Y0212525D01*
X0488305Y0212575D01*
X0488336Y0212637D01*
X0488367Y0212699D01*
X0488416Y0212767D01*
X0488466Y0212835D01*
X0488528Y0212897D01*
X0488534Y0212903D01*
X0488559Y0212922D01*
X0488596Y0212946D01*
X0488645Y0212971D01*
X0488701Y0212996D01*
X0488769Y0213020D01*
X0488843Y0213039D01*
X0488924Y0213045D01*
X0488980D01*
X0489017Y0213039D01*
D02*
G37*
G36*
X0499756Y0210489D02*
X0499354D01*
Y0210885D01*
X0499342D01*
Y0210879D01*
X0499329Y0210866D01*
X0499317Y0210842D01*
X0499292Y0210817D01*
X0499236Y0210743D01*
X0499150Y0210662D01*
X0499100Y0210619D01*
X0499045Y0210576D01*
X0498983Y0210538D01*
X0498908Y0210501D01*
X0498834Y0210476D01*
X0498754Y0210452D01*
X0498661Y0210439D01*
X0498568Y0210433D01*
X0498531D01*
X0498488Y0210439D01*
X0498426Y0210452D01*
X0498357Y0210464D01*
X0498283Y0210489D01*
X0498203Y0210520D01*
X0498122Y0210569D01*
X0498036Y0210625D01*
X0497955Y0210693D01*
X0497881Y0210780D01*
X0497813Y0210885D01*
X0497751Y0211003D01*
X0497708Y0211145D01*
X0497683Y0211312D01*
X0497670Y0211399D01*
Y0211498D01*
Y0213002D01*
X0498067D01*
Y0211560D01*
Y0211554D01*
Y0211529D01*
X0498073Y0211485D01*
X0498079Y0211436D01*
X0498085Y0211374D01*
X0498098Y0211312D01*
X0498116Y0211238D01*
X0498141Y0211163D01*
X0498178Y0211089D01*
X0498215Y0211021D01*
X0498265Y0210953D01*
X0498327Y0210891D01*
X0498395Y0210842D01*
X0498475Y0210805D01*
X0498574Y0210773D01*
X0498679Y0210767D01*
X0498692D01*
X0498729Y0210773D01*
X0498785Y0210780D01*
X0498847Y0210792D01*
X0498927Y0210823D01*
X0499008Y0210860D01*
X0499088Y0210910D01*
X0499162Y0210984D01*
X0499168Y0210996D01*
X0499193Y0211021D01*
X0499224Y0211071D01*
X0499261Y0211139D01*
X0499292Y0211219D01*
X0499323Y0211318D01*
X0499348Y0211430D01*
X0499354Y0211554D01*
Y0213002D01*
X0499756D01*
Y0210489D01*
D02*
G37*
G36*
X0503891D02*
X0503489D01*
Y0213002D01*
X0503891D01*
Y0210489D01*
D02*
G37*
G36*
X0502672D02*
X0502270D01*
Y0214209D01*
X0502672D01*
Y0210489D01*
D02*
G37*
G36*
X0486293Y0213052D02*
X0486349Y0213045D01*
X0486417Y0213027D01*
X0486491Y0213008D01*
X0486572Y0212977D01*
X0486658Y0212940D01*
X0486739Y0212891D01*
X0486819Y0212829D01*
X0486894Y0212754D01*
X0486962Y0212662D01*
X0487017Y0212556D01*
X0487061Y0212433D01*
X0487085Y0212290D01*
X0487098Y0212123D01*
Y0210489D01*
X0486696D01*
Y0210879D01*
X0486683D01*
Y0210873D01*
X0486671Y0210860D01*
X0486658Y0210835D01*
X0486634Y0210811D01*
X0486572Y0210736D01*
X0486491Y0210656D01*
X0486380Y0210576D01*
X0486250Y0210501D01*
X0486169Y0210476D01*
X0486089Y0210452D01*
X0486002Y0210439D01*
X0485910Y0210433D01*
X0485872D01*
X0485848Y0210439D01*
X0485779Y0210445D01*
X0485699Y0210458D01*
X0485600Y0210483D01*
X0485507Y0210513D01*
X0485408Y0210563D01*
X0485321Y0210625D01*
X0485315Y0210637D01*
X0485290Y0210662D01*
X0485253Y0210705D01*
X0485216Y0210767D01*
X0485179Y0210842D01*
X0485142Y0210928D01*
X0485117Y0211034D01*
X0485111Y0211151D01*
Y0211157D01*
Y0211182D01*
X0485117Y0211219D01*
X0485123Y0211262D01*
X0485136Y0211318D01*
X0485154Y0211380D01*
X0485179Y0211448D01*
X0485216Y0211516D01*
X0485259Y0211591D01*
X0485315Y0211665D01*
X0485383Y0211733D01*
X0485464Y0211795D01*
X0485557Y0211857D01*
X0485668Y0211906D01*
X0485792Y0211943D01*
X0485940Y0211974D01*
X0486696Y0212080D01*
Y0212086D01*
Y0212104D01*
X0486689Y0212141D01*
Y0212179D01*
X0486677Y0212228D01*
X0486671Y0212284D01*
X0486634Y0212402D01*
X0486603Y0212457D01*
X0486572Y0212513D01*
X0486528Y0212569D01*
X0486479Y0212618D01*
X0486417Y0212662D01*
X0486349Y0212692D01*
X0486269Y0212711D01*
X0486176Y0212717D01*
X0486132D01*
X0486101Y0212711D01*
X0486058D01*
X0486015Y0212699D01*
X0485903Y0212680D01*
X0485779Y0212643D01*
X0485643Y0212587D01*
X0485569Y0212550D01*
X0485501Y0212513D01*
X0485427Y0212463D01*
X0485358Y0212408D01*
Y0212822D01*
X0485365D01*
X0485377Y0212835D01*
X0485396Y0212847D01*
X0485427Y0212860D01*
X0485458Y0212878D01*
X0485501Y0212897D01*
X0485550Y0212915D01*
X0485606Y0212940D01*
X0485730Y0212983D01*
X0485879Y0213020D01*
X0486039Y0213045D01*
X0486213Y0213058D01*
X0486250D01*
X0486293Y0213052D01*
D02*
G37*
G36*
X0480605Y0213999D02*
X0480648D01*
X0480691Y0213992D01*
X0480790Y0213980D01*
X0480908Y0213949D01*
X0481032Y0213912D01*
X0481149Y0213856D01*
X0481255Y0213782D01*
X0481261D01*
X0481267Y0213770D01*
X0481298Y0213745D01*
X0481341Y0213695D01*
X0481391Y0213627D01*
X0481434Y0213541D01*
X0481477Y0213441D01*
X0481508Y0213330D01*
X0481521Y0213268D01*
Y0213200D01*
Y0213194D01*
Y0213188D01*
Y0213151D01*
X0481515Y0213095D01*
X0481502Y0213027D01*
X0481484Y0212940D01*
X0481453Y0212853D01*
X0481416Y0212767D01*
X0481360Y0212680D01*
X0481354Y0212668D01*
X0481329Y0212643D01*
X0481292Y0212606D01*
X0481242Y0212556D01*
X0481180Y0212507D01*
X0481106Y0212451D01*
X0481013Y0212408D01*
X0480914Y0212364D01*
Y0212358D01*
X0480933D01*
X0480951Y0212352D01*
X0480970Y0212346D01*
X0481038Y0212333D01*
X0481118Y0212309D01*
X0481205Y0212271D01*
X0481298Y0212228D01*
X0481391Y0212166D01*
X0481477Y0212086D01*
X0481490Y0212073D01*
X0481515Y0212042D01*
X0481545Y0211999D01*
X0481589Y0211931D01*
X0481626Y0211844D01*
X0481663Y0211745D01*
X0481688Y0211628D01*
X0481694Y0211498D01*
Y0211492D01*
Y0211479D01*
Y0211454D01*
X0481688Y0211423D01*
X0481682Y0211386D01*
X0481675Y0211343D01*
X0481651Y0211238D01*
X0481614Y0211120D01*
X0481558Y0210996D01*
X0481521Y0210941D01*
X0481477Y0210879D01*
X0481422Y0210823D01*
X0481366Y0210767D01*
X0481360D01*
X0481354Y0210755D01*
X0481335Y0210743D01*
X0481310Y0210724D01*
X0481279Y0210705D01*
X0481236Y0210681D01*
X0481143Y0210631D01*
X0481026Y0210576D01*
X0480889Y0210532D01*
X0480728Y0210501D01*
X0480648Y0210495D01*
X0480555Y0210489D01*
X0479528D01*
Y0214005D01*
X0480574D01*
X0480605Y0213999D01*
D02*
G37*
G36*
X0501100Y0213002D02*
X0501737D01*
Y0212655D01*
X0501100D01*
Y0211238D01*
Y0211225D01*
Y0211194D01*
X0501106Y0211151D01*
X0501112Y0211095D01*
X0501137Y0210978D01*
X0501155Y0210922D01*
X0501186Y0210879D01*
X0501193Y0210873D01*
X0501205Y0210860D01*
X0501224Y0210848D01*
X0501255Y0210829D01*
X0501292Y0210805D01*
X0501341Y0210792D01*
X0501403Y0210780D01*
X0501471Y0210773D01*
X0501496D01*
X0501527Y0210780D01*
X0501564Y0210786D01*
X0501651Y0210811D01*
X0501694Y0210829D01*
X0501737Y0210854D01*
Y0210507D01*
X0501731D01*
X0501713Y0210495D01*
X0501682Y0210489D01*
X0501638Y0210476D01*
X0501582Y0210464D01*
X0501521Y0210452D01*
X0501446Y0210445D01*
X0501360Y0210439D01*
X0501329D01*
X0501298Y0210445D01*
X0501255Y0210452D01*
X0501205Y0210464D01*
X0501149Y0210476D01*
X0501093Y0210501D01*
X0501032Y0210532D01*
X0500970Y0210569D01*
X0500908Y0210619D01*
X0500852Y0210675D01*
X0500803Y0210749D01*
X0500759Y0210829D01*
X0500728Y0210928D01*
X0500703Y0211040D01*
X0500697Y0211170D01*
Y0212655D01*
X0500270D01*
Y0213002D01*
X0500697D01*
Y0213615D01*
X0501100Y0213745D01*
Y0213002D01*
D02*
G37*
G36*
X0508627Y0213052D02*
X0508670Y0213045D01*
X0508713Y0213039D01*
X0508825Y0213020D01*
X0508949Y0212977D01*
X0509072Y0212922D01*
X0509134Y0212884D01*
X0509196Y0212841D01*
X0509252Y0212791D01*
X0509308Y0212736D01*
X0509314Y0212730D01*
X0509320Y0212723D01*
X0509332Y0212705D01*
X0509351Y0212680D01*
X0509370Y0212643D01*
X0509394Y0212606D01*
X0509419Y0212562D01*
X0509444Y0212507D01*
X0509469Y0212445D01*
X0509493Y0212383D01*
X0509518Y0212309D01*
X0509537Y0212228D01*
X0509555Y0212141D01*
X0509568Y0212055D01*
X0509580Y0211956D01*
Y0211851D01*
Y0211640D01*
X0507803D01*
Y0211634D01*
Y0211622D01*
Y0211603D01*
X0507810Y0211572D01*
X0507816Y0211535D01*
Y0211498D01*
X0507834Y0211399D01*
X0507865Y0211300D01*
X0507902Y0211188D01*
X0507958Y0211083D01*
X0508026Y0210990D01*
X0508039Y0210978D01*
X0508064Y0210953D01*
X0508113Y0210922D01*
X0508181Y0210879D01*
X0508268Y0210835D01*
X0508367Y0210805D01*
X0508484Y0210780D01*
X0508621Y0210767D01*
X0508664D01*
X0508695Y0210773D01*
X0508732D01*
X0508775Y0210780D01*
X0508881Y0210805D01*
X0508998Y0210835D01*
X0509128Y0210885D01*
X0509264Y0210953D01*
X0509332Y0210996D01*
X0509401Y0211046D01*
Y0210668D01*
X0509394D01*
X0509388Y0210656D01*
X0509370Y0210650D01*
X0509339Y0210631D01*
X0509308Y0210613D01*
X0509270Y0210594D01*
X0509221Y0210576D01*
X0509171Y0210551D01*
X0509110Y0210526D01*
X0509042Y0210507D01*
X0508893Y0210470D01*
X0508720Y0210445D01*
X0508528Y0210433D01*
X0508478D01*
X0508441Y0210439D01*
X0508398Y0210445D01*
X0508342Y0210452D01*
X0508224Y0210476D01*
X0508088Y0210513D01*
X0507952Y0210576D01*
X0507884Y0210619D01*
X0507816Y0210662D01*
X0507754Y0210712D01*
X0507692Y0210773D01*
X0507686Y0210780D01*
X0507680Y0210792D01*
X0507667Y0210811D01*
X0507643Y0210835D01*
X0507624Y0210873D01*
X0507599Y0210916D01*
X0507568Y0210965D01*
X0507544Y0211021D01*
X0507513Y0211083D01*
X0507488Y0211157D01*
X0507457Y0211238D01*
X0507438Y0211324D01*
X0507420Y0211417D01*
X0507401Y0211516D01*
X0507395Y0211622D01*
X0507389Y0211733D01*
Y0211739D01*
Y0211758D01*
Y0211789D01*
X0507395Y0211832D01*
X0507401Y0211881D01*
X0507407Y0211937D01*
X0507413Y0212005D01*
X0507432Y0212073D01*
X0507469Y0212222D01*
X0507525Y0212383D01*
X0507562Y0212463D01*
X0507612Y0212538D01*
X0507661Y0212618D01*
X0507717Y0212686D01*
X0507723Y0212692D01*
X0507735Y0212705D01*
X0507754Y0212723D01*
X0507779Y0212742D01*
X0507810Y0212773D01*
X0507847Y0212804D01*
X0507896Y0212835D01*
X0507946Y0212872D01*
X0508064Y0212940D01*
X0508206Y0213002D01*
X0508286Y0213020D01*
X0508367Y0213039D01*
X0508453Y0213052D01*
X0508546Y0213058D01*
X0508596D01*
X0508627Y0213052D01*
D02*
G37*
G36*
X0495584Y0214060D02*
X0495646Y0214054D01*
X0495721Y0214042D01*
X0495801Y0214023D01*
X0495888Y0214005D01*
X0495974Y0213980D01*
X0496073Y0213949D01*
X0496166Y0213906D01*
X0496265Y0213856D01*
X0496364Y0213800D01*
X0496457Y0213732D01*
X0496550Y0213658D01*
X0496637Y0213571D01*
X0496643Y0213565D01*
X0496655Y0213547D01*
X0496680Y0213522D01*
X0496705Y0213485D01*
X0496742Y0213435D01*
X0496779Y0213373D01*
X0496816Y0213305D01*
X0496860Y0213231D01*
X0496903Y0213138D01*
X0496940Y0213045D01*
X0496977Y0212940D01*
X0497014Y0212822D01*
X0497039Y0212705D01*
X0497064Y0212575D01*
X0497076Y0212433D01*
X0497082Y0212290D01*
Y0212278D01*
Y0212253D01*
Y0212210D01*
X0497076Y0212148D01*
X0497070Y0212073D01*
X0497058Y0211993D01*
X0497045Y0211900D01*
X0497027Y0211795D01*
X0497002Y0211690D01*
X0496971Y0211578D01*
X0496934Y0211467D01*
X0496890Y0211355D01*
X0496835Y0211238D01*
X0496773Y0211133D01*
X0496705Y0211027D01*
X0496624Y0210928D01*
X0496618Y0210922D01*
X0496606Y0210910D01*
X0496575Y0210885D01*
X0496544Y0210854D01*
X0496494Y0210811D01*
X0496439Y0210773D01*
X0496377Y0210724D01*
X0496303Y0210681D01*
X0496222Y0210637D01*
X0496129Y0210588D01*
X0496030Y0210551D01*
X0495919Y0210513D01*
X0495801Y0210476D01*
X0495677Y0210452D01*
X0495547Y0210439D01*
X0495405Y0210433D01*
X0495374D01*
X0495331Y0210439D01*
X0495281D01*
X0495219Y0210445D01*
X0495145Y0210458D01*
X0495064Y0210476D01*
X0494972Y0210495D01*
X0494879Y0210520D01*
X0494780Y0210551D01*
X0494681Y0210594D01*
X0494582Y0210637D01*
X0494483Y0210693D01*
X0494384Y0210761D01*
X0494291Y0210835D01*
X0494204Y0210922D01*
X0494198Y0210928D01*
X0494185Y0210947D01*
X0494161Y0210972D01*
X0494136Y0211009D01*
X0494099Y0211058D01*
X0494062Y0211120D01*
X0494025Y0211188D01*
X0493981Y0211269D01*
X0493938Y0211355D01*
X0493901Y0211448D01*
X0493864Y0211554D01*
X0493826Y0211671D01*
X0493802Y0211789D01*
X0493777Y0211919D01*
X0493765Y0212061D01*
X0493758Y0212203D01*
Y0212216D01*
Y0212241D01*
X0493765Y0212284D01*
Y0212346D01*
X0493771Y0212414D01*
X0493783Y0212501D01*
X0493795Y0212593D01*
X0493814Y0212692D01*
X0493839Y0212798D01*
X0493870Y0212909D01*
X0493907Y0213020D01*
X0493950Y0213132D01*
X0494006Y0213243D01*
X0494068Y0213355D01*
X0494136Y0213460D01*
X0494216Y0213559D01*
X0494223Y0213565D01*
X0494235Y0213584D01*
X0494266Y0213609D01*
X0494303Y0213639D01*
X0494346Y0213677D01*
X0494402Y0213720D01*
X0494470Y0213763D01*
X0494545Y0213813D01*
X0494631Y0213862D01*
X0494724Y0213906D01*
X0494823Y0213949D01*
X0494935Y0213986D01*
X0495058Y0214017D01*
X0495188Y0214048D01*
X0495324Y0214060D01*
X0495467Y0214067D01*
X0495535D01*
X0495584Y0214060D01*
D02*
G37*
G36*
X0483557Y0213052D02*
X0483601Y0213045D01*
X0483656Y0213039D01*
X0483780Y0213014D01*
X0483922Y0212971D01*
X0484065Y0212909D01*
X0484139Y0212872D01*
X0484207Y0212829D01*
X0484275Y0212773D01*
X0484337Y0212711D01*
X0484343Y0212705D01*
X0484350Y0212692D01*
X0484368Y0212674D01*
X0484387Y0212649D01*
X0484411Y0212612D01*
X0484436Y0212569D01*
X0484467Y0212519D01*
X0484498Y0212463D01*
X0484523Y0212395D01*
X0484554Y0212327D01*
X0484579Y0212247D01*
X0484603Y0212160D01*
X0484622Y0212067D01*
X0484641Y0211968D01*
X0484647Y0211863D01*
X0484653Y0211752D01*
Y0211745D01*
Y0211727D01*
Y0211696D01*
X0484647Y0211652D01*
X0484641Y0211603D01*
X0484634Y0211541D01*
X0484622Y0211479D01*
X0484610Y0211405D01*
X0484572Y0211256D01*
X0484511Y0211095D01*
X0484473Y0211015D01*
X0484424Y0210934D01*
X0484374Y0210860D01*
X0484312Y0210792D01*
X0484306Y0210786D01*
X0484294Y0210780D01*
X0484275Y0210761D01*
X0484250Y0210736D01*
X0484213Y0210712D01*
X0484176Y0210681D01*
X0484127Y0210644D01*
X0484071Y0210613D01*
X0484009Y0210582D01*
X0483941Y0210544D01*
X0483867Y0210513D01*
X0483786Y0210489D01*
X0483700Y0210464D01*
X0483607Y0210452D01*
X0483508Y0210439D01*
X0483402Y0210433D01*
X0483347D01*
X0483310Y0210439D01*
X0483266Y0210445D01*
X0483211Y0210452D01*
X0483149Y0210464D01*
X0483081Y0210476D01*
X0482938Y0210520D01*
X0482790Y0210582D01*
X0482715Y0210619D01*
X0482647Y0210668D01*
X0482579Y0210718D01*
X0482511Y0210780D01*
X0482505Y0210786D01*
X0482499Y0210798D01*
X0482480Y0210817D01*
X0482462Y0210842D01*
X0482437Y0210879D01*
X0482406Y0210922D01*
X0482375Y0210972D01*
X0482350Y0211027D01*
X0482319Y0211095D01*
X0482288Y0211163D01*
X0482257Y0211238D01*
X0482233Y0211324D01*
X0482195Y0211510D01*
X0482189Y0211609D01*
X0482183Y0211714D01*
Y0211721D01*
Y0211745D01*
Y0211776D01*
X0482189Y0211820D01*
X0482195Y0211869D01*
X0482202Y0211931D01*
X0482214Y0211999D01*
X0482226Y0212073D01*
X0482264Y0212234D01*
X0482325Y0212395D01*
X0482369Y0212476D01*
X0482412Y0212556D01*
X0482462Y0212631D01*
X0482523Y0212699D01*
X0482530Y0212705D01*
X0482542Y0212717D01*
X0482561Y0212730D01*
X0482585Y0212754D01*
X0482623Y0212779D01*
X0482666Y0212810D01*
X0482715Y0212847D01*
X0482771Y0212878D01*
X0482833Y0212909D01*
X0482907Y0212946D01*
X0482982Y0212977D01*
X0483068Y0213002D01*
X0483155Y0213027D01*
X0483254Y0213045D01*
X0483359Y0213052D01*
X0483464Y0213058D01*
X0483520D01*
X0483557Y0213052D01*
D02*
G37*
%LPC*%
G36*
X0490632Y0212717D02*
X0490595D01*
X0490570Y0212711D01*
X0490502Y0212705D01*
X0490422Y0212686D01*
X0490329Y0212649D01*
X0490230Y0212600D01*
X0490137Y0212538D01*
X0490094Y0212494D01*
X0490051Y0212445D01*
X0490044Y0212433D01*
X0490020Y0212395D01*
X0489983Y0212333D01*
X0489945Y0212253D01*
X0489908Y0212148D01*
X0489871Y0212018D01*
X0489846Y0211869D01*
X0489840Y0211702D01*
Y0211696D01*
Y0211684D01*
Y0211659D01*
X0489846Y0211628D01*
Y0211597D01*
X0489853Y0211554D01*
X0489865Y0211454D01*
X0489890Y0211343D01*
X0489927Y0211232D01*
X0489976Y0211120D01*
X0490044Y0211015D01*
X0490057Y0211003D01*
X0490082Y0210978D01*
X0490125Y0210934D01*
X0490187Y0210891D01*
X0490267Y0210848D01*
X0490360Y0210805D01*
X0490465Y0210780D01*
X0490589Y0210767D01*
X0490620D01*
X0490645Y0210773D01*
X0490707Y0210780D01*
X0490781Y0210798D01*
X0490868Y0210829D01*
X0490961Y0210866D01*
X0491047Y0210928D01*
X0491134Y0211009D01*
X0491140Y0211021D01*
X0491165Y0211052D01*
X0491202Y0211108D01*
X0491239Y0211176D01*
X0491276Y0211262D01*
X0491313Y0211368D01*
X0491338Y0211492D01*
X0491344Y0211622D01*
Y0211993D01*
Y0211999D01*
Y0212005D01*
Y0212042D01*
X0491332Y0212098D01*
X0491320Y0212173D01*
X0491295Y0212253D01*
X0491258Y0212340D01*
X0491208Y0212426D01*
X0491140Y0212507D01*
X0491134Y0212513D01*
X0491103Y0212538D01*
X0491059Y0212575D01*
X0491004Y0212612D01*
X0490930Y0212649D01*
X0490843Y0212686D01*
X0490744Y0212711D01*
X0490632Y0212717D01*
D02*
G37*
G36*
X0486696Y0211758D02*
X0486089Y0211671D01*
X0486077D01*
X0486046Y0211665D01*
X0485996Y0211652D01*
X0485934Y0211640D01*
X0485866Y0211622D01*
X0485792Y0211597D01*
X0485730Y0211572D01*
X0485668Y0211535D01*
X0485662Y0211529D01*
X0485643Y0211516D01*
X0485625Y0211492D01*
X0485600Y0211454D01*
X0485569Y0211405D01*
X0485550Y0211343D01*
X0485532Y0211269D01*
X0485526Y0211182D01*
Y0211176D01*
Y0211151D01*
X0485532Y0211120D01*
X0485544Y0211077D01*
X0485557Y0211027D01*
X0485581Y0210978D01*
X0485612Y0210928D01*
X0485656Y0210879D01*
X0485662Y0210873D01*
X0485680Y0210860D01*
X0485711Y0210842D01*
X0485748Y0210823D01*
X0485798Y0210805D01*
X0485860Y0210786D01*
X0485928Y0210773D01*
X0486009Y0210767D01*
X0486021D01*
X0486058Y0210773D01*
X0486114Y0210780D01*
X0486182Y0210792D01*
X0486256Y0210817D01*
X0486343Y0210854D01*
X0486423Y0210910D01*
X0486497Y0210978D01*
X0486504Y0210990D01*
X0486528Y0211015D01*
X0486559Y0211058D01*
X0486596Y0211120D01*
X0486634Y0211201D01*
X0486665Y0211287D01*
X0486689Y0211392D01*
X0486696Y0211504D01*
Y0211758D01*
D02*
G37*
G36*
X0480413Y0213633D02*
X0479942D01*
Y0212494D01*
X0480419D01*
X0480481Y0212501D01*
X0480555Y0212513D01*
X0480642Y0212531D01*
X0480735Y0212562D01*
X0480815Y0212600D01*
X0480896Y0212655D01*
X0480902Y0212662D01*
X0480927Y0212686D01*
X0480957Y0212723D01*
X0480995Y0212779D01*
X0481026Y0212841D01*
X0481056Y0212922D01*
X0481081Y0213014D01*
X0481087Y0213120D01*
Y0213126D01*
Y0213144D01*
X0481081Y0213169D01*
X0481075Y0213200D01*
X0481050Y0213281D01*
X0481032Y0213330D01*
X0481001Y0213380D01*
X0480970Y0213423D01*
X0480920Y0213472D01*
X0480871Y0213516D01*
X0480803Y0213553D01*
X0480728Y0213584D01*
X0480636Y0213609D01*
X0480530Y0213627D01*
X0480413Y0213633D01*
D02*
G37*
G36*
Y0212123D02*
X0479942D01*
Y0210860D01*
X0480561D01*
X0480623Y0210866D01*
X0480710Y0210879D01*
X0480796Y0210904D01*
X0480889Y0210928D01*
X0480982Y0210972D01*
X0481063Y0211027D01*
X0481069Y0211034D01*
X0481094Y0211058D01*
X0481125Y0211095D01*
X0481162Y0211151D01*
X0481199Y0211219D01*
X0481230Y0211300D01*
X0481255Y0211399D01*
X0481261Y0211504D01*
Y0211510D01*
Y0211529D01*
X0481255Y0211560D01*
X0481248Y0211603D01*
X0481236Y0211646D01*
X0481217Y0211702D01*
X0481193Y0211758D01*
X0481155Y0211813D01*
X0481112Y0211869D01*
X0481056Y0211925D01*
X0480988Y0211981D01*
X0480902Y0212024D01*
X0480809Y0212067D01*
X0480691Y0212098D01*
X0480561Y0212117D01*
X0480413Y0212123D01*
D02*
G37*
G36*
X0508540Y0212717D02*
X0508491D01*
X0508441Y0212705D01*
X0508373Y0212692D01*
X0508299Y0212668D01*
X0508212Y0212631D01*
X0508132Y0212581D01*
X0508051Y0212513D01*
X0508045Y0212507D01*
X0508020Y0212476D01*
X0507989Y0212433D01*
X0507946Y0212371D01*
X0507902Y0212296D01*
X0507865Y0212203D01*
X0507834Y0212098D01*
X0507810Y0211981D01*
X0509165D01*
Y0211987D01*
Y0211999D01*
Y0212012D01*
Y0212036D01*
X0509159Y0212104D01*
X0509147Y0212179D01*
X0509122Y0212271D01*
X0509097Y0212358D01*
X0509054Y0212445D01*
X0508998Y0212525D01*
X0508992Y0212531D01*
X0508967Y0212556D01*
X0508930Y0212587D01*
X0508881Y0212624D01*
X0508812Y0212655D01*
X0508732Y0212686D01*
X0508645Y0212711D01*
X0508540Y0212717D01*
D02*
G37*
G36*
X0495436Y0213689D02*
X0495380D01*
X0495343Y0213683D01*
X0495294Y0213677D01*
X0495244Y0213670D01*
X0495182Y0213658D01*
X0495114Y0213639D01*
X0494972Y0213590D01*
X0494897Y0213559D01*
X0494817Y0213522D01*
X0494743Y0213472D01*
X0494668Y0213417D01*
X0494600Y0213355D01*
X0494532Y0213287D01*
X0494526Y0213281D01*
X0494520Y0213268D01*
X0494501Y0213243D01*
X0494476Y0213212D01*
X0494452Y0213175D01*
X0494427Y0213126D01*
X0494396Y0213070D01*
X0494365Y0213008D01*
X0494328Y0212934D01*
X0494297Y0212860D01*
X0494272Y0212773D01*
X0494247Y0212680D01*
X0494223Y0212581D01*
X0494204Y0212470D01*
X0494198Y0212358D01*
X0494192Y0212241D01*
Y0212234D01*
Y0212210D01*
Y0212179D01*
X0494198Y0212135D01*
X0494204Y0212080D01*
X0494210Y0212012D01*
X0494223Y0211943D01*
X0494235Y0211869D01*
X0494272Y0211702D01*
X0494334Y0211523D01*
X0494371Y0211436D01*
X0494415Y0211355D01*
X0494470Y0211269D01*
X0494526Y0211194D01*
X0494532Y0211188D01*
X0494545Y0211176D01*
X0494563Y0211157D01*
X0494588Y0211133D01*
X0494619Y0211102D01*
X0494662Y0211071D01*
X0494712Y0211034D01*
X0494761Y0210996D01*
X0494823Y0210959D01*
X0494891Y0210922D01*
X0495040Y0210860D01*
X0495126Y0210835D01*
X0495213Y0210817D01*
X0495306Y0210805D01*
X0495405Y0210798D01*
X0495461D01*
X0495504Y0210805D01*
X0495547Y0210811D01*
X0495609Y0210817D01*
X0495671Y0210829D01*
X0495739Y0210848D01*
X0495882Y0210891D01*
X0495962Y0210922D01*
X0496036Y0210959D01*
X0496111Y0211003D01*
X0496185Y0211052D01*
X0496253Y0211108D01*
X0496321Y0211176D01*
X0496327Y0211182D01*
X0496333Y0211194D01*
X0496352Y0211213D01*
X0496371Y0211244D01*
X0496402Y0211287D01*
X0496426Y0211331D01*
X0496457Y0211386D01*
X0496488Y0211448D01*
X0496519Y0211523D01*
X0496550Y0211603D01*
X0496581Y0211690D01*
X0496606Y0211783D01*
X0496624Y0211881D01*
X0496643Y0211993D01*
X0496649Y0212111D01*
X0496655Y0212234D01*
Y0212241D01*
Y0212265D01*
Y0212302D01*
X0496649Y0212346D01*
X0496643Y0212408D01*
X0496637Y0212476D01*
X0496630Y0212550D01*
X0496612Y0212631D01*
X0496575Y0212798D01*
X0496519Y0212977D01*
X0496482Y0213064D01*
X0496439Y0213151D01*
X0496383Y0213231D01*
X0496327Y0213305D01*
X0496321Y0213311D01*
X0496315Y0213324D01*
X0496296Y0213342D01*
X0496265Y0213367D01*
X0496234Y0213392D01*
X0496197Y0213429D01*
X0496148Y0213460D01*
X0496098Y0213497D01*
X0496036Y0213534D01*
X0495968Y0213565D01*
X0495894Y0213602D01*
X0495814Y0213627D01*
X0495727Y0213652D01*
X0495640Y0213670D01*
X0495541Y0213683D01*
X0495436Y0213689D01*
D02*
G37*
G36*
X0483433Y0212717D02*
X0483396D01*
X0483372Y0212711D01*
X0483297Y0212705D01*
X0483211Y0212686D01*
X0483112Y0212655D01*
X0483006Y0212606D01*
X0482907Y0212538D01*
X0482858Y0212501D01*
X0482815Y0212451D01*
X0482802Y0212439D01*
X0482777Y0212402D01*
X0482746Y0212346D01*
X0482703Y0212265D01*
X0482660Y0212160D01*
X0482629Y0212036D01*
X0482604Y0211894D01*
X0482592Y0211727D01*
Y0211721D01*
Y0211708D01*
Y0211684D01*
X0482598Y0211652D01*
Y0211615D01*
X0482604Y0211572D01*
X0482623Y0211473D01*
X0482647Y0211362D01*
X0482691Y0211244D01*
X0482746Y0211126D01*
X0482821Y0211021D01*
X0482833Y0211009D01*
X0482864Y0210984D01*
X0482913Y0210941D01*
X0482982Y0210897D01*
X0483068Y0210848D01*
X0483174Y0210805D01*
X0483297Y0210780D01*
X0483433Y0210767D01*
X0483471D01*
X0483495Y0210773D01*
X0483570Y0210780D01*
X0483656Y0210798D01*
X0483749Y0210829D01*
X0483854Y0210873D01*
X0483947Y0210934D01*
X0484034Y0211015D01*
X0484040Y0211027D01*
X0484065Y0211065D01*
X0484102Y0211120D01*
X0484139Y0211201D01*
X0484176Y0211306D01*
X0484213Y0211430D01*
X0484238Y0211572D01*
X0484244Y0211739D01*
Y0211745D01*
Y0211758D01*
Y0211783D01*
Y0211820D01*
X0484238Y0211857D01*
X0484232Y0211900D01*
X0484220Y0212005D01*
X0484195Y0212123D01*
X0484158Y0212241D01*
X0484102Y0212358D01*
X0484034Y0212463D01*
X0484022Y0212476D01*
X0483997Y0212501D01*
X0483947Y0212544D01*
X0483879Y0212593D01*
X0483792Y0212637D01*
X0483693Y0212680D01*
X0483570Y0212705D01*
X0483433Y0212717D01*
D02*
G37*
%LPD*%
D14*
X-0019685Y0261417D02*
X0448819D01*
X-0019685Y-0019685D02*
X0448819D01*
Y0261417D01*
X-0019685Y-0019685D02*
Y0261417D01*
X0050104Y0072778D02*
G03*
X0048108Y0067167I0001428J-0003669D01*
G01*
X0014687Y0003150D02*
G03*
X0017837Y0000000I0003145J-0000004D01*
G01*
X0048108Y0043857D02*
G03*
X0048108Y0067167I-0020547J0011655D01*
G01*
X0010751Y0087992D02*
G03*
X0014687Y0091929I-0000001J0003938D01*
G01*
Y0019094D02*
G03*
X0010751Y0023031I-0003938J-0000001D01*
G01*
X0017837Y0111024D02*
G03*
X0014687Y0107874I-0000004J-0003145D01*
G01*
X0048108Y0043857D02*
G03*
X0050104Y0038245I0003424J-0001942D01*
G01*
X0005019Y0038245D02*
G03*
X0008073Y0023031I0002857J-0007340D01*
G01*
X0040436Y0107874D02*
G03*
X0037286Y0111024I-0003145J0000004D01*
G01*
X0047050Y0023031D02*
G03*
X0050104Y0038245I0000197J0007874D01*
G01*
X0005019D02*
G03*
X0007015Y0043857I-0001428J0003669D01*
G01*
X0040435Y0091929D02*
G03*
X0044373Y0087992I0003938J0000001D01*
G01*
Y0023031D02*
G03*
X0040435Y0019094I0000001J-0003938D01*
G01*
X0008073Y0087992D02*
G03*
X0005019Y0072778I-0000197J-0007874D01*
G01*
X0007015Y0067167D02*
G03*
X0007015Y0043857I0020547J-0011655D01*
G01*
X0050104Y0072778D02*
G03*
X0047050Y0087992I-0002858J0007340D01*
G01*
X0007015Y0067167D02*
G03*
X0005019Y0072778I-0003424J0001942D01*
G01*
X0037286Y0000000D02*
G03*
X0040436Y0003150I0000004J0003145D01*
G01*
X0008073Y0087992D02*
X0010751D01*
X0040436Y0003150D02*
Y0019094D01*
X0014687Y0091929D02*
Y0107874D01*
X0017837Y0000000D02*
X0037286D01*
X0017837Y0111024D02*
X0037286D01*
X0014687Y0003150D02*
Y0019094D01*
X0040436Y0091929D02*
Y0107874D01*
X0008073Y0023031D02*
X0010751D01*
X0044373Y0087992D02*
X0047050D01*
X0044373Y0023031D02*
X0047050D01*
X0124912Y0072778D02*
G03*
X0122916Y0067167I0001428J-0003669D01*
G01*
X0089496Y0003150D02*
G03*
X0092645Y0000000I0003145J-0000004D01*
G01*
X0122916Y0043857D02*
G03*
X0122916Y0067167I-0020547J0011655D01*
G01*
X0085559Y0087992D02*
G03*
X0089496Y0091929I-0000001J0003938D01*
G01*
Y0019094D02*
G03*
X0085559Y0023031I-0003938J-0000001D01*
G01*
X0092645Y0111024D02*
G03*
X0089496Y0107874I-0000004J-0003145D01*
G01*
X0122916Y0043857D02*
G03*
X0124912Y0038245I0003424J-0001942D01*
G01*
X0079827Y0038245D02*
G03*
X0082881Y0023031I0002857J-0007340D01*
G01*
X0115244Y0107874D02*
G03*
X0112094Y0111024I-0003145J0000004D01*
G01*
X0121858Y0023031D02*
G03*
X0124912Y0038245I0000197J0007874D01*
G01*
X0079827D02*
G03*
X0081823Y0043857I-0001428J0003669D01*
G01*
X0115244Y0091929D02*
G03*
X0119181Y0087992I0003938J0000001D01*
G01*
Y0023031D02*
G03*
X0115244Y0019094I0000001J-0003938D01*
G01*
X0082881Y0087992D02*
G03*
X0079827Y0072778I-0000197J-0007874D01*
G01*
X0081823Y0067167D02*
G03*
X0081823Y0043857I0020547J-0011655D01*
G01*
X0124912Y0072778D02*
G03*
X0121858Y0087992I-0002858J0007340D01*
G01*
X0081823Y0067167D02*
G03*
X0079827Y0072778I-0003424J0001942D01*
G01*
X0112094Y0000000D02*
G03*
X0115244Y0003150I0000004J0003145D01*
G01*
X0082881Y0087992D02*
X0085559D01*
X0115244Y0003150D02*
Y0019094D01*
X0089496Y0091929D02*
Y0107874D01*
X0092645Y0000000D02*
X0112094D01*
X0092645Y0111024D02*
X0112094D01*
X0089496Y0003150D02*
Y0019094D01*
X0115244Y0091929D02*
Y0107874D01*
X0082881Y0023031D02*
X0085559D01*
X0119181Y0087992D02*
X0121858D01*
X0119181Y0023031D02*
X0121858D01*
X0199720Y0072778D02*
G03*
X0197724Y0067167I0001428J-0003669D01*
G01*
X0164304Y0003150D02*
G03*
X0167453Y0000000I0003145J-0000004D01*
G01*
X0197724Y0043857D02*
G03*
X0197724Y0067167I-0020547J0011655D01*
G01*
X0160367Y0087992D02*
G03*
X0164304Y0091929I-0000001J0003938D01*
G01*
Y0019094D02*
G03*
X0160367Y0023031I-0003938J-0000001D01*
G01*
X0167453Y0111024D02*
G03*
X0164304Y0107874I-0000004J-0003145D01*
G01*
X0197724Y0043857D02*
G03*
X0199720Y0038245I0003424J-0001942D01*
G01*
X0154635Y0038245D02*
G03*
X0157689Y0023031I0002857J-0007340D01*
G01*
X0190052Y0107874D02*
G03*
X0186902Y0111024I-0003145J0000004D01*
G01*
X0196666Y0023031D02*
G03*
X0199720Y0038245I0000197J0007874D01*
G01*
X0154635D02*
G03*
X0156631Y0043857I-0001428J0003669D01*
G01*
X0190052Y0091929D02*
G03*
X0193989Y0087992I0003938J0000001D01*
G01*
Y0023031D02*
G03*
X0190052Y0019094I0000001J-0003938D01*
G01*
X0157689Y0087992D02*
G03*
X0154635Y0072778I-0000197J-0007874D01*
G01*
X0156631Y0067167D02*
G03*
X0156631Y0043857I0020547J-0011655D01*
G01*
X0199720Y0072778D02*
G03*
X0196666Y0087992I-0002858J0007340D01*
G01*
X0156631Y0067167D02*
G03*
X0154635Y0072778I-0003424J0001942D01*
G01*
X0186902Y0000000D02*
G03*
X0190052Y0003150I0000004J0003145D01*
G01*
X0157689Y0087992D02*
X0160367D01*
X0190052Y0003150D02*
Y0019094D01*
X0164304Y0091929D02*
Y0107874D01*
X0167453Y0000000D02*
X0186902D01*
X0167453Y0111024D02*
X0186902D01*
X0164304Y0003150D02*
Y0019094D01*
X0190052Y0091929D02*
Y0107874D01*
X0157689Y0023031D02*
X0160367D01*
X0193989Y0087992D02*
X0196666D01*
X0193989Y0023031D02*
X0196666D01*
X0274528Y0072778D02*
G03*
X0272532Y0067167I0001428J-0003669D01*
G01*
X0239112Y0003150D02*
G03*
X0242261Y0000000I0003145J-0000004D01*
G01*
X0272532Y0043857D02*
G03*
X0272532Y0067167I-0020547J0011655D01*
G01*
X0235175Y0087992D02*
G03*
X0239112Y0091929I-0000001J0003938D01*
G01*
Y0019094D02*
G03*
X0235175Y0023031I-0003938J-0000001D01*
G01*
X0242261Y0111024D02*
G03*
X0239112Y0107874I-0000004J-0003145D01*
G01*
X0272532Y0043857D02*
G03*
X0274528Y0038245I0003424J-0001942D01*
G01*
X0229443Y0038245D02*
G03*
X0232498Y0023031I0002857J-0007340D01*
G01*
X0264860Y0107874D02*
G03*
X0261710Y0111024I-0003145J0000004D01*
G01*
X0271474Y0023031D02*
G03*
X0274528Y0038245I0000197J0007874D01*
G01*
X0229443D02*
G03*
X0231439Y0043857I-0001428J0003669D01*
G01*
X0264860Y0091929D02*
G03*
X0268797Y0087992I0003938J0000001D01*
G01*
Y0023031D02*
G03*
X0264860Y0019094I0000001J-0003938D01*
G01*
X0232498Y0087992D02*
G03*
X0229443Y0072778I-0000197J-0007874D01*
G01*
X0231439Y0067167D02*
G03*
X0231439Y0043857I0020547J-0011655D01*
G01*
X0274528Y0072778D02*
G03*
X0271474Y0087992I-0002858J0007340D01*
G01*
X0231439Y0067167D02*
G03*
X0229443Y0072778I-0003424J0001942D01*
G01*
X0261710Y0000000D02*
G03*
X0264860Y0003150I0000004J0003145D01*
G01*
X0232498Y0087992D02*
X0235175D01*
X0264860Y0003150D02*
Y0019094D01*
X0239112Y0091929D02*
Y0107874D01*
X0242261Y0000000D02*
X0261710D01*
X0242261Y0111024D02*
X0261710D01*
X0239112Y0003150D02*
Y0019094D01*
X0264860Y0091929D02*
Y0107874D01*
X0232498Y0023031D02*
X0235175D01*
X0268797Y0087992D02*
X0271474D01*
X0268797Y0023031D02*
X0271474D01*
X0349337Y0072778D02*
G03*
X0347340Y0067167I0001428J-0003669D01*
G01*
X0313920Y0003150D02*
G03*
X0317069Y0000000I0003145J-0000004D01*
G01*
X0347340Y0043857D02*
G03*
X0347340Y0067167I-0020547J0011655D01*
G01*
X0309983Y0087992D02*
G03*
X0313920Y0091929I-0000001J0003938D01*
G01*
Y0019094D02*
G03*
X0309983Y0023031I-0003938J-0000001D01*
G01*
X0317069Y0111024D02*
G03*
X0313920Y0107874I-0000004J-0003145D01*
G01*
X0347340Y0043857D02*
G03*
X0349336Y0038245I0003424J-0001942D01*
G01*
X0304251Y0038245D02*
G03*
X0307306Y0023031I0002857J-0007340D01*
G01*
X0339668Y0107874D02*
G03*
X0336518Y0111024I-0003145J0000004D01*
G01*
X0346282Y0023031D02*
G03*
X0349336Y0038245I0000197J0007874D01*
G01*
X0304251D02*
G03*
X0306247Y0043857I-0001428J0003669D01*
G01*
X0339668Y0091929D02*
G03*
X0343605Y0087992I0003938J0000001D01*
G01*
Y0023031D02*
G03*
X0339668Y0019094I0000001J-0003938D01*
G01*
X0307306Y0087992D02*
G03*
X0304251Y0072778I-0000197J-0007874D01*
G01*
X0306247Y0067167D02*
G03*
X0306247Y0043857I0020547J-0011655D01*
G01*
X0349337Y0072778D02*
G03*
X0346282Y0087992I-0002858J0007340D01*
G01*
X0306247Y0067167D02*
G03*
X0304251Y0072778I-0003424J0001942D01*
G01*
X0336518Y0000000D02*
G03*
X0339668Y0003150I0000004J0003145D01*
G01*
X0307306Y0087992D02*
X0309983D01*
X0339668Y0003150D02*
Y0019094D01*
X0313920Y0091929D02*
Y0107874D01*
X0317069Y0000000D02*
X0336518D01*
X0317069Y0111024D02*
X0336518D01*
X0313920Y0003150D02*
Y0019094D01*
X0339668Y0091929D02*
Y0107874D01*
X0307306Y0023031D02*
X0309983D01*
X0343605Y0087992D02*
X0346282D01*
X0343605Y0023031D02*
X0346282D01*
X0424145Y0072778D02*
G03*
X0422148Y0067167I0001428J-0003669D01*
G01*
X0388728Y0003150D02*
G03*
X0391878Y0000000I0003145J-0000004D01*
G01*
X0422148Y0043857D02*
G03*
X0422148Y0067167I-0020547J0011655D01*
G01*
X0384791Y0087992D02*
G03*
X0388728Y0091929I-0000001J0003938D01*
G01*
Y0019094D02*
G03*
X0384791Y0023031I-0003938J-0000001D01*
G01*
X0391878Y0111024D02*
G03*
X0388728Y0107874I-0000004J-0003145D01*
G01*
X0422148Y0043857D02*
G03*
X0424145Y0038245I0003424J-0001942D01*
G01*
X0379059Y0038245D02*
G03*
X0382114Y0023031I0002857J-0007340D01*
G01*
X0414476Y0107874D02*
G03*
X0411326Y0111024I-0003145J0000004D01*
G01*
X0421090Y0023031D02*
G03*
X0424145Y0038245I0000197J0007874D01*
G01*
X0379059D02*
G03*
X0381055Y0043857I-0001428J0003669D01*
G01*
X0414476Y0091929D02*
G03*
X0418413Y0087992I0003938J0000001D01*
G01*
Y0023031D02*
G03*
X0414476Y0019094I0000001J-0003938D01*
G01*
X0382114Y0087992D02*
G03*
X0379059Y0072778I-0000197J-0007874D01*
G01*
X0381055Y0067167D02*
G03*
X0381055Y0043857I0020547J-0011655D01*
G01*
X0424145Y0072778D02*
G03*
X0421090Y0087992I-0002858J0007340D01*
G01*
X0381055Y0067167D02*
G03*
X0379059Y0072778I-0003424J0001942D01*
G01*
X0411326Y0000000D02*
G03*
X0414476Y0003150I0000004J0003145D01*
G01*
X0382114Y0087992D02*
X0384791D01*
X0414476Y0003150D02*
Y0019094D01*
X0388728Y0091929D02*
Y0107874D01*
X0391878Y0000000D02*
X0411326D01*
X0391878Y0111024D02*
X0411326D01*
X0388728Y0003150D02*
Y0019094D01*
X0414476Y0091929D02*
Y0107874D01*
X0382114Y0023031D02*
X0384791D01*
X0418413Y0087992D02*
X0421090D01*
X0418413Y0023031D02*
X0421090D01*
X0050104Y0203487D02*
G03*
X0048108Y0197876I0001428J-0003669D01*
G01*
X0014687Y0133858D02*
G03*
X0017837Y0130709I0003145J-0000004D01*
G01*
X0048108Y0174565D02*
G03*
X0048108Y0197876I-0020547J0011655D01*
G01*
X0010751Y0218701D02*
G03*
X0014687Y0222638I-0000001J0003938D01*
G01*
Y0149803D02*
G03*
X0010751Y0153740I-0003938J-0000001D01*
G01*
X0017837Y0241732D02*
G03*
X0014687Y0238583I-0000004J-0003145D01*
G01*
X0048108Y0174565D02*
G03*
X0050104Y0168954I0003424J-0001942D01*
G01*
X0005019Y0168954D02*
G03*
X0008073Y0153740I0002857J-0007340D01*
G01*
X0040436Y0238583D02*
G03*
X0037286Y0241732I-0003145J0000004D01*
G01*
X0047050Y0153740D02*
G03*
X0050104Y0168954I0000197J0007874D01*
G01*
X0005019D02*
G03*
X0007015Y0174565I-0001428J0003669D01*
G01*
X0040435Y0222638D02*
G03*
X0044373Y0218701I0003938J0000001D01*
G01*
Y0153740D02*
G03*
X0040435Y0149803I0000001J-0003938D01*
G01*
X0008073Y0218701D02*
G03*
X0005019Y0203487I-0000197J-0007874D01*
G01*
X0007015Y0197876D02*
G03*
X0007015Y0174565I0020547J-0011655D01*
G01*
X0050104Y0203487D02*
G03*
X0047050Y0218701I-0002858J0007340D01*
G01*
X0007015Y0197876D02*
G03*
X0005019Y0203487I-0003424J0001942D01*
G01*
X0037286Y0130709D02*
G03*
X0040436Y0133858I0000004J0003145D01*
G01*
X0008073Y0218701D02*
X0010751D01*
X0040436Y0133858D02*
Y0149803D01*
X0014687Y0222638D02*
Y0238583D01*
X0017837Y0130709D02*
X0037286D01*
X0017837Y0241732D02*
X0037286D01*
X0014687Y0133858D02*
Y0149803D01*
X0040436Y0222638D02*
Y0238583D01*
X0008073Y0153740D02*
X0010751D01*
X0044373Y0218701D02*
X0047050D01*
X0044373Y0153740D02*
X0047050D01*
X0124912Y0203487D02*
G03*
X0122916Y0197876I0001428J-0003669D01*
G01*
X0089496Y0133858D02*
G03*
X0092645Y0130709I0003145J-0000004D01*
G01*
X0122916Y0174565D02*
G03*
X0122916Y0197876I-0020547J0011655D01*
G01*
X0085559Y0218701D02*
G03*
X0089496Y0222638I-0000001J0003938D01*
G01*
Y0149803D02*
G03*
X0085559Y0153740I-0003938J-0000001D01*
G01*
X0092645Y0241732D02*
G03*
X0089496Y0238583I-0000004J-0003145D01*
G01*
X0122916Y0174565D02*
G03*
X0124912Y0168954I0003424J-0001942D01*
G01*
X0079827Y0168954D02*
G03*
X0082881Y0153740I0002857J-0007340D01*
G01*
X0115244Y0238583D02*
G03*
X0112094Y0241732I-0003145J0000004D01*
G01*
X0121858Y0153740D02*
G03*
X0124912Y0168954I0000197J0007874D01*
G01*
X0079827D02*
G03*
X0081823Y0174565I-0001428J0003669D01*
G01*
X0115244Y0222638D02*
G03*
X0119181Y0218701I0003938J0000001D01*
G01*
Y0153740D02*
G03*
X0115244Y0149803I0000001J-0003938D01*
G01*
X0082881Y0218701D02*
G03*
X0079827Y0203487I-0000197J-0007874D01*
G01*
X0081823Y0197876D02*
G03*
X0081823Y0174565I0020547J-0011655D01*
G01*
X0124912Y0203487D02*
G03*
X0121858Y0218701I-0002858J0007340D01*
G01*
X0081823Y0197876D02*
G03*
X0079827Y0203487I-0003424J0001942D01*
G01*
X0112094Y0130709D02*
G03*
X0115244Y0133858I0000004J0003145D01*
G01*
X0082881Y0218701D02*
X0085559D01*
X0115244Y0133858D02*
Y0149803D01*
X0089496Y0222638D02*
Y0238583D01*
X0092645Y0130709D02*
X0112094D01*
X0092645Y0241732D02*
X0112094D01*
X0089496Y0133858D02*
Y0149803D01*
X0115244Y0222638D02*
Y0238583D01*
X0082881Y0153740D02*
X0085559D01*
X0119181Y0218701D02*
X0121858D01*
X0119181Y0153740D02*
X0121858D01*
X0199720Y0203487D02*
G03*
X0197724Y0197876I0001428J-0003669D01*
G01*
X0164304Y0133858D02*
G03*
X0167453Y0130709I0003145J-0000004D01*
G01*
X0197724Y0174565D02*
G03*
X0197724Y0197876I-0020547J0011655D01*
G01*
X0160367Y0218701D02*
G03*
X0164304Y0222638I-0000001J0003938D01*
G01*
Y0149803D02*
G03*
X0160367Y0153740I-0003938J-0000001D01*
G01*
X0167453Y0241732D02*
G03*
X0164304Y0238583I-0000004J-0003145D01*
G01*
X0197724Y0174565D02*
G03*
X0199720Y0168954I0003424J-0001942D01*
G01*
X0154635Y0168954D02*
G03*
X0157689Y0153740I0002857J-0007340D01*
G01*
X0190052Y0238583D02*
G03*
X0186902Y0241732I-0003145J0000004D01*
G01*
X0196666Y0153740D02*
G03*
X0199720Y0168954I0000197J0007874D01*
G01*
X0154635D02*
G03*
X0156631Y0174565I-0001428J0003669D01*
G01*
X0190052Y0222638D02*
G03*
X0193989Y0218701I0003938J0000001D01*
G01*
Y0153740D02*
G03*
X0190052Y0149803I0000001J-0003938D01*
G01*
X0157689Y0218701D02*
G03*
X0154635Y0203487I-0000197J-0007874D01*
G01*
X0156631Y0197876D02*
G03*
X0156631Y0174565I0020547J-0011655D01*
G01*
X0199720Y0203487D02*
G03*
X0196666Y0218701I-0002858J0007340D01*
G01*
X0156631Y0197876D02*
G03*
X0154635Y0203487I-0003424J0001942D01*
G01*
X0186902Y0130709D02*
G03*
X0190052Y0133858I0000004J0003145D01*
G01*
X0157689Y0218701D02*
X0160367D01*
X0190052Y0133858D02*
Y0149803D01*
X0164304Y0222638D02*
Y0238583D01*
X0167453Y0130709D02*
X0186902D01*
X0167453Y0241732D02*
X0186902D01*
X0164304Y0133858D02*
Y0149803D01*
X0190052Y0222638D02*
Y0238583D01*
X0157689Y0153740D02*
X0160367D01*
X0193989Y0218701D02*
X0196666D01*
X0193989Y0153740D02*
X0196666D01*
X0274528Y0203487D02*
G03*
X0272532Y0197876I0001428J-0003669D01*
G01*
X0239112Y0133858D02*
G03*
X0242261Y0130709I0003145J-0000004D01*
G01*
X0272532Y0174565D02*
G03*
X0272532Y0197876I-0020547J0011655D01*
G01*
X0235175Y0218701D02*
G03*
X0239112Y0222638I-0000001J0003938D01*
G01*
Y0149803D02*
G03*
X0235175Y0153740I-0003938J-0000001D01*
G01*
X0242261Y0241732D02*
G03*
X0239112Y0238583I-0000004J-0003145D01*
G01*
X0272532Y0174565D02*
G03*
X0274528Y0168954I0003424J-0001942D01*
G01*
X0229443Y0168954D02*
G03*
X0232498Y0153740I0002857J-0007340D01*
G01*
X0264860Y0238583D02*
G03*
X0261710Y0241732I-0003145J0000004D01*
G01*
X0271474Y0153740D02*
G03*
X0274528Y0168954I0000197J0007874D01*
G01*
X0229443D02*
G03*
X0231439Y0174565I-0001428J0003669D01*
G01*
X0264860Y0222638D02*
G03*
X0268797Y0218701I0003938J0000001D01*
G01*
Y0153740D02*
G03*
X0264860Y0149803I0000001J-0003938D01*
G01*
X0232498Y0218701D02*
G03*
X0229443Y0203487I-0000197J-0007874D01*
G01*
X0231439Y0197876D02*
G03*
X0231439Y0174565I0020547J-0011655D01*
G01*
X0274528Y0203487D02*
G03*
X0271474Y0218701I-0002858J0007340D01*
G01*
X0231439Y0197876D02*
G03*
X0229443Y0203487I-0003424J0001942D01*
G01*
X0261710Y0130709D02*
G03*
X0264860Y0133858I0000004J0003145D01*
G01*
X0232498Y0218701D02*
X0235175D01*
X0264860Y0133858D02*
Y0149803D01*
X0239112Y0222638D02*
Y0238583D01*
X0242261Y0130709D02*
X0261710D01*
X0242261Y0241732D02*
X0261710D01*
X0239112Y0133858D02*
Y0149803D01*
X0264860Y0222638D02*
Y0238583D01*
X0232498Y0153740D02*
X0235175D01*
X0268797Y0218701D02*
X0271474D01*
X0268797Y0153740D02*
X0271474D01*
X0349337Y0203487D02*
G03*
X0347340Y0197876I0001428J-0003669D01*
G01*
X0313920Y0133858D02*
G03*
X0317069Y0130709I0003145J-0000004D01*
G01*
X0347340Y0174565D02*
G03*
X0347340Y0197876I-0020547J0011655D01*
G01*
X0309983Y0218701D02*
G03*
X0313920Y0222638I-0000001J0003938D01*
G01*
Y0149803D02*
G03*
X0309983Y0153740I-0003938J-0000001D01*
G01*
X0317069Y0241732D02*
G03*
X0313920Y0238583I-0000004J-0003145D01*
G01*
X0347340Y0174565D02*
G03*
X0349336Y0168954I0003424J-0001942D01*
G01*
X0304251Y0168954D02*
G03*
X0307306Y0153740I0002857J-0007340D01*
G01*
X0339668Y0238583D02*
G03*
X0336518Y0241732I-0003145J0000004D01*
G01*
X0346282Y0153740D02*
G03*
X0349336Y0168954I0000197J0007874D01*
G01*
X0304251D02*
G03*
X0306247Y0174565I-0001428J0003669D01*
G01*
X0339668Y0222638D02*
G03*
X0343605Y0218701I0003938J0000001D01*
G01*
Y0153740D02*
G03*
X0339668Y0149803I0000001J-0003938D01*
G01*
X0307306Y0218701D02*
G03*
X0304251Y0203487I-0000197J-0007874D01*
G01*
X0306247Y0197876D02*
G03*
X0306247Y0174565I0020547J-0011655D01*
G01*
X0349337Y0203487D02*
G03*
X0346282Y0218701I-0002858J0007340D01*
G01*
X0306247Y0197876D02*
G03*
X0304251Y0203487I-0003424J0001942D01*
G01*
X0336518Y0130709D02*
G03*
X0339668Y0133858I0000004J0003145D01*
G01*
X0307306Y0218701D02*
X0309983D01*
X0339668Y0133858D02*
Y0149803D01*
X0313920Y0222638D02*
Y0238583D01*
X0317069Y0130709D02*
X0336518D01*
X0317069Y0241732D02*
X0336518D01*
X0313920Y0133858D02*
Y0149803D01*
X0339668Y0222638D02*
Y0238583D01*
X0307306Y0153740D02*
X0309983D01*
X0343605Y0218701D02*
X0346282D01*
X0343605Y0153740D02*
X0346282D01*
X0424145Y0203487D02*
G03*
X0422148Y0197876I0001428J-0003669D01*
G01*
X0388728Y0133858D02*
G03*
X0391878Y0130709I0003145J-0000004D01*
G01*
X0422148Y0174565D02*
G03*
X0422148Y0197876I-0020547J0011655D01*
G01*
X0384791Y0218701D02*
G03*
X0388728Y0222638I-0000001J0003938D01*
G01*
Y0149803D02*
G03*
X0384791Y0153740I-0003938J-0000001D01*
G01*
X0391878Y0241732D02*
G03*
X0388728Y0238583I-0000004J-0003145D01*
G01*
X0422148Y0174565D02*
G03*
X0424145Y0168954I0003424J-0001942D01*
G01*
X0379059Y0168954D02*
G03*
X0382114Y0153740I0002857J-0007340D01*
G01*
X0414476Y0238583D02*
G03*
X0411326Y0241732I-0003145J0000004D01*
G01*
X0421090Y0153740D02*
G03*
X0424145Y0168954I0000197J0007874D01*
G01*
X0379059D02*
G03*
X0381055Y0174565I-0001428J0003669D01*
G01*
X0414476Y0222638D02*
G03*
X0418413Y0218701I0003938J0000001D01*
G01*
Y0153740D02*
G03*
X0414476Y0149803I0000001J-0003938D01*
G01*
X0382114Y0218701D02*
G03*
X0379059Y0203487I-0000197J-0007874D01*
G01*
X0381055Y0197876D02*
G03*
X0381055Y0174565I0020547J-0011655D01*
G01*
X0424145Y0203487D02*
G03*
X0421090Y0218701I-0002858J0007340D01*
G01*
X0381055Y0197876D02*
G03*
X0379059Y0203487I-0003424J0001942D01*
G01*
X0411326Y0130709D02*
G03*
X0414476Y0133858I0000004J0003145D01*
G01*
X0382114Y0218701D02*
X0384791D01*
X0414476Y0133858D02*
Y0149803D01*
X0388728Y0222638D02*
Y0238583D01*
X0391878Y0130709D02*
X0411326D01*
X0391878Y0241732D02*
X0411326D01*
X0388728Y0133858D02*
Y0149803D01*
X0414476Y0222638D02*
Y0238583D01*
X0382114Y0153740D02*
X0384791D01*
X0418413Y0218701D02*
X0421090D01*
X0418413Y0153740D02*
X0421090D01*
X-0019685Y0261417D02*
X0448819D01*
X-0019685Y-0019685D02*
X0448819D01*
Y0261417D01*
X-0019685Y-0019685D02*
Y0261417D01*
X0050104Y0072778D02*
G03*
X0048108Y0067167I0001428J-0003669D01*
G01*
X0014687Y0003150D02*
G03*
X0017837Y0000000I0003145J-0000004D01*
G01*
X0048108Y0043857D02*
G03*
X0048108Y0067167I-0020547J0011655D01*
G01*
X0010751Y0087992D02*
G03*
X0014687Y0091929I-0000001J0003938D01*
G01*
Y0019094D02*
G03*
X0010751Y0023031I-0003938J-0000001D01*
G01*
X0017837Y0111024D02*
G03*
X0014687Y0107874I-0000004J-0003145D01*
G01*
X0048108Y0043857D02*
G03*
X0050104Y0038245I0003424J-0001942D01*
G01*
X0005019Y0038245D02*
G03*
X0008073Y0023031I0002857J-0007340D01*
G01*
X0040436Y0107874D02*
G03*
X0037286Y0111024I-0003145J0000004D01*
G01*
X0047050Y0023031D02*
G03*
X0050104Y0038245I0000197J0007874D01*
G01*
X0005019D02*
G03*
X0007015Y0043857I-0001428J0003669D01*
G01*
X0040435Y0091929D02*
G03*
X0044373Y0087992I0003938J0000001D01*
G01*
Y0023031D02*
G03*
X0040435Y0019094I0000001J-0003938D01*
G01*
X0008073Y0087992D02*
G03*
X0005019Y0072778I-0000197J-0007874D01*
G01*
X0007015Y0067167D02*
G03*
X0007015Y0043857I0020547J-0011655D01*
G01*
X0050104Y0072778D02*
G03*
X0047050Y0087992I-0002858J0007340D01*
G01*
X0007015Y0067167D02*
G03*
X0005019Y0072778I-0003424J0001942D01*
G01*
X0037286Y0000000D02*
G03*
X0040436Y0003150I0000004J0003145D01*
G01*
X0008073Y0087992D02*
X0010751D01*
X0040436Y0003150D02*
Y0019094D01*
X0014687Y0091929D02*
Y0107874D01*
X0017837Y0000000D02*
X0037286D01*
X0017837Y0111024D02*
X0037286D01*
X0014687Y0003150D02*
Y0019094D01*
X0040436Y0091929D02*
Y0107874D01*
X0008073Y0023031D02*
X0010751D01*
X0044373Y0087992D02*
X0047050D01*
X0044373Y0023031D02*
X0047050D01*
X0124912Y0072778D02*
G03*
X0122916Y0067167I0001428J-0003669D01*
G01*
X0089496Y0003150D02*
G03*
X0092645Y0000000I0003145J-0000004D01*
G01*
X0122916Y0043857D02*
G03*
X0122916Y0067167I-0020547J0011655D01*
G01*
X0085559Y0087992D02*
G03*
X0089496Y0091929I-0000001J0003938D01*
G01*
Y0019094D02*
G03*
X0085559Y0023031I-0003938J-0000001D01*
G01*
X0092645Y0111024D02*
G03*
X0089496Y0107874I-0000004J-0003145D01*
G01*
X0122916Y0043857D02*
G03*
X0124912Y0038245I0003424J-0001942D01*
G01*
X0079827Y0038245D02*
G03*
X0082881Y0023031I0002857J-0007340D01*
G01*
X0115244Y0107874D02*
G03*
X0112094Y0111024I-0003145J0000004D01*
G01*
X0121858Y0023031D02*
G03*
X0124912Y0038245I0000197J0007874D01*
G01*
X0079827D02*
G03*
X0081823Y0043857I-0001428J0003669D01*
G01*
X0115244Y0091929D02*
G03*
X0119181Y0087992I0003938J0000001D01*
G01*
Y0023031D02*
G03*
X0115244Y0019094I0000001J-0003938D01*
G01*
X0082881Y0087992D02*
G03*
X0079827Y0072778I-0000197J-0007874D01*
G01*
X0081823Y0067167D02*
G03*
X0081823Y0043857I0020547J-0011655D01*
G01*
X0124912Y0072778D02*
G03*
X0121858Y0087992I-0002858J0007340D01*
G01*
X0081823Y0067167D02*
G03*
X0079827Y0072778I-0003424J0001942D01*
G01*
X0112094Y0000000D02*
G03*
X0115244Y0003150I0000004J0003145D01*
G01*
X0082881Y0087992D02*
X0085559D01*
X0115244Y0003150D02*
Y0019094D01*
X0089496Y0091929D02*
Y0107874D01*
X0092645Y0000000D02*
X0112094D01*
X0092645Y0111024D02*
X0112094D01*
X0089496Y0003150D02*
Y0019094D01*
X0115244Y0091929D02*
Y0107874D01*
X0082881Y0023031D02*
X0085559D01*
X0119181Y0087992D02*
X0121858D01*
X0119181Y0023031D02*
X0121858D01*
X0199720Y0072778D02*
G03*
X0197724Y0067167I0001428J-0003669D01*
G01*
X0164304Y0003150D02*
G03*
X0167453Y0000000I0003145J-0000004D01*
G01*
X0197724Y0043857D02*
G03*
X0197724Y0067167I-0020547J0011655D01*
G01*
X0160367Y0087992D02*
G03*
X0164304Y0091929I-0000001J0003938D01*
G01*
Y0019094D02*
G03*
X0160367Y0023031I-0003938J-0000001D01*
G01*
X0167453Y0111024D02*
G03*
X0164304Y0107874I-0000004J-0003145D01*
G01*
X0197724Y0043857D02*
G03*
X0199720Y0038245I0003424J-0001942D01*
G01*
X0154635Y0038245D02*
G03*
X0157689Y0023031I0002857J-0007340D01*
G01*
X0190052Y0107874D02*
G03*
X0186902Y0111024I-0003145J0000004D01*
G01*
X0196666Y0023031D02*
G03*
X0199720Y0038245I0000197J0007874D01*
G01*
X0154635D02*
G03*
X0156631Y0043857I-0001428J0003669D01*
G01*
X0190052Y0091929D02*
G03*
X0193989Y0087992I0003938J0000001D01*
G01*
Y0023031D02*
G03*
X0190052Y0019094I0000001J-0003938D01*
G01*
X0157689Y0087992D02*
G03*
X0154635Y0072778I-0000197J-0007874D01*
G01*
X0156631Y0067167D02*
G03*
X0156631Y0043857I0020547J-0011655D01*
G01*
X0199720Y0072778D02*
G03*
X0196666Y0087992I-0002858J0007340D01*
G01*
X0156631Y0067167D02*
G03*
X0154635Y0072778I-0003424J0001942D01*
G01*
X0186902Y0000000D02*
G03*
X0190052Y0003150I0000004J0003145D01*
G01*
X0157689Y0087992D02*
X0160367D01*
X0190052Y0003150D02*
Y0019094D01*
X0164304Y0091929D02*
Y0107874D01*
X0167453Y0000000D02*
X0186902D01*
X0167453Y0111024D02*
X0186902D01*
X0164304Y0003150D02*
Y0019094D01*
X0190052Y0091929D02*
Y0107874D01*
X0157689Y0023031D02*
X0160367D01*
X0193989Y0087992D02*
X0196666D01*
X0193989Y0023031D02*
X0196666D01*
X0274528Y0072778D02*
G03*
X0272532Y0067167I0001428J-0003669D01*
G01*
X0239112Y0003150D02*
G03*
X0242261Y0000000I0003145J-0000004D01*
G01*
X0272532Y0043857D02*
G03*
X0272532Y0067167I-0020547J0011655D01*
G01*
X0235175Y0087992D02*
G03*
X0239112Y0091929I-0000001J0003938D01*
G01*
Y0019094D02*
G03*
X0235175Y0023031I-0003938J-0000001D01*
G01*
X0242261Y0111024D02*
G03*
X0239112Y0107874I-0000004J-0003145D01*
G01*
X0272532Y0043857D02*
G03*
X0274528Y0038245I0003424J-0001942D01*
G01*
X0229443Y0038245D02*
G03*
X0232498Y0023031I0002857J-0007340D01*
G01*
X0264860Y0107874D02*
G03*
X0261710Y0111024I-0003145J0000004D01*
G01*
X0271474Y0023031D02*
G03*
X0274528Y0038245I0000197J0007874D01*
G01*
X0229443D02*
G03*
X0231439Y0043857I-0001428J0003669D01*
G01*
X0264860Y0091929D02*
G03*
X0268797Y0087992I0003938J0000001D01*
G01*
Y0023031D02*
G03*
X0264860Y0019094I0000001J-0003938D01*
G01*
X0232498Y0087992D02*
G03*
X0229443Y0072778I-0000197J-0007874D01*
G01*
X0231439Y0067167D02*
G03*
X0231439Y0043857I0020547J-0011655D01*
G01*
X0274528Y0072778D02*
G03*
X0271474Y0087992I-0002858J0007340D01*
G01*
X0231439Y0067167D02*
G03*
X0229443Y0072778I-0003424J0001942D01*
G01*
X0261710Y0000000D02*
G03*
X0264860Y0003150I0000004J0003145D01*
G01*
X0232498Y0087992D02*
X0235175D01*
X0264860Y0003150D02*
Y0019094D01*
X0239112Y0091929D02*
Y0107874D01*
X0242261Y0000000D02*
X0261710D01*
X0242261Y0111024D02*
X0261710D01*
X0239112Y0003150D02*
Y0019094D01*
X0264860Y0091929D02*
Y0107874D01*
X0232498Y0023031D02*
X0235175D01*
X0268797Y0087992D02*
X0271474D01*
X0268797Y0023031D02*
X0271474D01*
X0349337Y0072778D02*
G03*
X0347340Y0067167I0001428J-0003669D01*
G01*
X0313920Y0003150D02*
G03*
X0317069Y0000000I0003145J-0000004D01*
G01*
X0347340Y0043857D02*
G03*
X0347340Y0067167I-0020547J0011655D01*
G01*
X0309983Y0087992D02*
G03*
X0313920Y0091929I-0000001J0003938D01*
G01*
Y0019094D02*
G03*
X0309983Y0023031I-0003938J-0000001D01*
G01*
X0317069Y0111024D02*
G03*
X0313920Y0107874I-0000004J-0003145D01*
G01*
X0347340Y0043857D02*
G03*
X0349336Y0038245I0003424J-0001942D01*
G01*
X0304251Y0038245D02*
G03*
X0307306Y0023031I0002857J-0007340D01*
G01*
X0339668Y0107874D02*
G03*
X0336518Y0111024I-0003145J0000004D01*
G01*
X0346282Y0023031D02*
G03*
X0349336Y0038245I0000197J0007874D01*
G01*
X0304251D02*
G03*
X0306247Y0043857I-0001428J0003669D01*
G01*
X0339668Y0091929D02*
G03*
X0343605Y0087992I0003938J0000001D01*
G01*
Y0023031D02*
G03*
X0339668Y0019094I0000001J-0003938D01*
G01*
X0307306Y0087992D02*
G03*
X0304251Y0072778I-0000197J-0007874D01*
G01*
X0306247Y0067167D02*
G03*
X0306247Y0043857I0020547J-0011655D01*
G01*
X0349337Y0072778D02*
G03*
X0346282Y0087992I-0002858J0007340D01*
G01*
X0306247Y0067167D02*
G03*
X0304251Y0072778I-0003424J0001942D01*
G01*
X0336518Y0000000D02*
G03*
X0339668Y0003150I0000004J0003145D01*
G01*
X0307306Y0087992D02*
X0309983D01*
X0339668Y0003150D02*
Y0019094D01*
X0313920Y0091929D02*
Y0107874D01*
X0317069Y0000000D02*
X0336518D01*
X0317069Y0111024D02*
X0336518D01*
X0313920Y0003150D02*
Y0019094D01*
X0339668Y0091929D02*
Y0107874D01*
X0307306Y0023031D02*
X0309983D01*
X0343605Y0087992D02*
X0346282D01*
X0343605Y0023031D02*
X0346282D01*
X0424145Y0072778D02*
G03*
X0422148Y0067167I0001428J-0003669D01*
G01*
X0388728Y0003150D02*
G03*
X0391878Y0000000I0003145J-0000004D01*
G01*
X0422148Y0043857D02*
G03*
X0422148Y0067167I-0020547J0011655D01*
G01*
X0384791Y0087992D02*
G03*
X0388728Y0091929I-0000001J0003938D01*
G01*
Y0019094D02*
G03*
X0384791Y0023031I-0003938J-0000001D01*
G01*
X0391878Y0111024D02*
G03*
X0388728Y0107874I-0000004J-0003145D01*
G01*
X0422148Y0043857D02*
G03*
X0424145Y0038245I0003424J-0001942D01*
G01*
X0379059Y0038245D02*
G03*
X0382114Y0023031I0002857J-0007340D01*
G01*
X0414476Y0107874D02*
G03*
X0411326Y0111024I-0003145J0000004D01*
G01*
X0421090Y0023031D02*
G03*
X0424145Y0038245I0000197J0007874D01*
G01*
X0379059D02*
G03*
X0381055Y0043857I-0001428J0003669D01*
G01*
X0414476Y0091929D02*
G03*
X0418413Y0087992I0003938J0000001D01*
G01*
Y0023031D02*
G03*
X0414476Y0019094I0000001J-0003938D01*
G01*
X0382114Y0087992D02*
G03*
X0379059Y0072778I-0000197J-0007874D01*
G01*
X0381055Y0067167D02*
G03*
X0381055Y0043857I0020547J-0011655D01*
G01*
X0424145Y0072778D02*
G03*
X0421090Y0087992I-0002858J0007340D01*
G01*
X0381055Y0067167D02*
G03*
X0379059Y0072778I-0003424J0001942D01*
G01*
X0411326Y0000000D02*
G03*
X0414476Y0003150I0000004J0003145D01*
G01*
X0382114Y0087992D02*
X0384791D01*
X0414476Y0003150D02*
Y0019094D01*
X0388728Y0091929D02*
Y0107874D01*
X0391878Y0000000D02*
X0411326D01*
X0391878Y0111024D02*
X0411326D01*
X0388728Y0003150D02*
Y0019094D01*
X0414476Y0091929D02*
Y0107874D01*
X0382114Y0023031D02*
X0384791D01*
X0418413Y0087992D02*
X0421090D01*
X0418413Y0023031D02*
X0421090D01*
X0050104Y0203487D02*
G03*
X0048108Y0197876I0001428J-0003669D01*
G01*
X0014687Y0133858D02*
G03*
X0017837Y0130709I0003145J-0000004D01*
G01*
X0048108Y0174565D02*
G03*
X0048108Y0197876I-0020547J0011655D01*
G01*
X0010751Y0218701D02*
G03*
X0014687Y0222638I-0000001J0003938D01*
G01*
Y0149803D02*
G03*
X0010751Y0153740I-0003938J-0000001D01*
G01*
X0017837Y0241732D02*
G03*
X0014687Y0238583I-0000004J-0003145D01*
G01*
X0048108Y0174565D02*
G03*
X0050104Y0168954I0003424J-0001942D01*
G01*
X0005019Y0168954D02*
G03*
X0008073Y0153740I0002857J-0007340D01*
G01*
X0040436Y0238583D02*
G03*
X0037286Y0241732I-0003145J0000004D01*
G01*
X0047050Y0153740D02*
G03*
X0050104Y0168954I0000197J0007874D01*
G01*
X0005019D02*
G03*
X0007015Y0174565I-0001428J0003669D01*
G01*
X0040435Y0222638D02*
G03*
X0044373Y0218701I0003938J0000001D01*
G01*
Y0153740D02*
G03*
X0040435Y0149803I0000001J-0003938D01*
G01*
X0008073Y0218701D02*
G03*
X0005019Y0203487I-0000197J-0007874D01*
G01*
X0007015Y0197876D02*
G03*
X0007015Y0174565I0020547J-0011655D01*
G01*
X0050104Y0203487D02*
G03*
X0047050Y0218701I-0002858J0007340D01*
G01*
X0007015Y0197876D02*
G03*
X0005019Y0203487I-0003424J0001942D01*
G01*
X0037286Y0130709D02*
G03*
X0040436Y0133858I0000004J0003145D01*
G01*
X0008073Y0218701D02*
X0010751D01*
X0040436Y0133858D02*
Y0149803D01*
X0014687Y0222638D02*
Y0238583D01*
X0017837Y0130709D02*
X0037286D01*
X0017837Y0241732D02*
X0037286D01*
X0014687Y0133858D02*
Y0149803D01*
X0040436Y0222638D02*
Y0238583D01*
X0008073Y0153740D02*
X0010751D01*
X0044373Y0218701D02*
X0047050D01*
X0044373Y0153740D02*
X0047050D01*
X0124912Y0203487D02*
G03*
X0122916Y0197876I0001428J-0003669D01*
G01*
X0089496Y0133858D02*
G03*
X0092645Y0130709I0003145J-0000004D01*
G01*
X0122916Y0174565D02*
G03*
X0122916Y0197876I-0020547J0011655D01*
G01*
X0085559Y0218701D02*
G03*
X0089496Y0222638I-0000001J0003938D01*
G01*
Y0149803D02*
G03*
X0085559Y0153740I-0003938J-0000001D01*
G01*
X0092645Y0241732D02*
G03*
X0089496Y0238583I-0000004J-0003145D01*
G01*
X0122916Y0174565D02*
G03*
X0124912Y0168954I0003424J-0001942D01*
G01*
X0079827Y0168954D02*
G03*
X0082881Y0153740I0002857J-0007340D01*
G01*
X0115244Y0238583D02*
G03*
X0112094Y0241732I-0003145J0000004D01*
G01*
X0121858Y0153740D02*
G03*
X0124912Y0168954I0000197J0007874D01*
G01*
X0079827D02*
G03*
X0081823Y0174565I-0001428J0003669D01*
G01*
X0115244Y0222638D02*
G03*
X0119181Y0218701I0003938J0000001D01*
G01*
Y0153740D02*
G03*
X0115244Y0149803I0000001J-0003938D01*
G01*
X0082881Y0218701D02*
G03*
X0079827Y0203487I-0000197J-0007874D01*
G01*
X0081823Y0197876D02*
G03*
X0081823Y0174565I0020547J-0011655D01*
G01*
X0124912Y0203487D02*
G03*
X0121858Y0218701I-0002858J0007340D01*
G01*
X0081823Y0197876D02*
G03*
X0079827Y0203487I-0003424J0001942D01*
G01*
X0112094Y0130709D02*
G03*
X0115244Y0133858I0000004J0003145D01*
G01*
X0082881Y0218701D02*
X0085559D01*
X0115244Y0133858D02*
Y0149803D01*
X0089496Y0222638D02*
Y0238583D01*
X0092645Y0130709D02*
X0112094D01*
X0092645Y0241732D02*
X0112094D01*
X0089496Y0133858D02*
Y0149803D01*
X0115244Y0222638D02*
Y0238583D01*
X0082881Y0153740D02*
X0085559D01*
X0119181Y0218701D02*
X0121858D01*
X0119181Y0153740D02*
X0121858D01*
X0199720Y0203487D02*
G03*
X0197724Y0197876I0001428J-0003669D01*
G01*
X0164304Y0133858D02*
G03*
X0167453Y0130709I0003145J-0000004D01*
G01*
X0197724Y0174565D02*
G03*
X0197724Y0197876I-0020547J0011655D01*
G01*
X0160367Y0218701D02*
G03*
X0164304Y0222638I-0000001J0003938D01*
G01*
Y0149803D02*
G03*
X0160367Y0153740I-0003938J-0000001D01*
G01*
X0167453Y0241732D02*
G03*
X0164304Y0238583I-0000004J-0003145D01*
G01*
X0197724Y0174565D02*
G03*
X0199720Y0168954I0003424J-0001942D01*
G01*
X0154635Y0168954D02*
G03*
X0157689Y0153740I0002857J-0007340D01*
G01*
X0190052Y0238583D02*
G03*
X0186902Y0241732I-0003145J0000004D01*
G01*
X0196666Y0153740D02*
G03*
X0199720Y0168954I0000197J0007874D01*
G01*
X0154635D02*
G03*
X0156631Y0174565I-0001428J0003669D01*
G01*
X0190052Y0222638D02*
G03*
X0193989Y0218701I0003938J0000001D01*
G01*
Y0153740D02*
G03*
X0190052Y0149803I0000001J-0003938D01*
G01*
X0157689Y0218701D02*
G03*
X0154635Y0203487I-0000197J-0007874D01*
G01*
X0156631Y0197876D02*
G03*
X0156631Y0174565I0020547J-0011655D01*
G01*
X0199720Y0203487D02*
G03*
X0196666Y0218701I-0002858J0007340D01*
G01*
X0156631Y0197876D02*
G03*
X0154635Y0203487I-0003424J0001942D01*
G01*
X0186902Y0130709D02*
G03*
X0190052Y0133858I0000004J0003145D01*
G01*
X0157689Y0218701D02*
X0160367D01*
X0190052Y0133858D02*
Y0149803D01*
X0164304Y0222638D02*
Y0238583D01*
X0167453Y0130709D02*
X0186902D01*
X0167453Y0241732D02*
X0186902D01*
X0164304Y0133858D02*
Y0149803D01*
X0190052Y0222638D02*
Y0238583D01*
X0157689Y0153740D02*
X0160367D01*
X0193989Y0218701D02*
X0196666D01*
X0193989Y0153740D02*
X0196666D01*
X0274528Y0203487D02*
G03*
X0272532Y0197876I0001428J-0003669D01*
G01*
X0239112Y0133858D02*
G03*
X0242261Y0130709I0003145J-0000004D01*
G01*
X0272532Y0174565D02*
G03*
X0272532Y0197876I-0020547J0011655D01*
G01*
X0235175Y0218701D02*
G03*
X0239112Y0222638I-0000001J0003938D01*
G01*
Y0149803D02*
G03*
X0235175Y0153740I-0003938J-0000001D01*
G01*
X0242261Y0241732D02*
G03*
X0239112Y0238583I-0000004J-0003145D01*
G01*
X0272532Y0174565D02*
G03*
X0274528Y0168954I0003424J-0001942D01*
G01*
X0229443Y0168954D02*
G03*
X0232498Y0153740I0002857J-0007340D01*
G01*
X0264860Y0238583D02*
G03*
X0261710Y0241732I-0003145J0000004D01*
G01*
X0271474Y0153740D02*
G03*
X0274528Y0168954I0000197J0007874D01*
G01*
X0229443D02*
G03*
X0231439Y0174565I-0001428J0003669D01*
G01*
X0264860Y0222638D02*
G03*
X0268797Y0218701I0003938J0000001D01*
G01*
Y0153740D02*
G03*
X0264860Y0149803I0000001J-0003938D01*
G01*
X0232498Y0218701D02*
G03*
X0229443Y0203487I-0000197J-0007874D01*
G01*
X0231439Y0197876D02*
G03*
X0231439Y0174565I0020547J-0011655D01*
G01*
X0274528Y0203487D02*
G03*
X0271474Y0218701I-0002858J0007340D01*
G01*
X0231439Y0197876D02*
G03*
X0229443Y0203487I-0003424J0001942D01*
G01*
X0261710Y0130709D02*
G03*
X0264860Y0133858I0000004J0003145D01*
G01*
X0232498Y0218701D02*
X0235175D01*
X0264860Y0133858D02*
Y0149803D01*
X0239112Y0222638D02*
Y0238583D01*
X0242261Y0130709D02*
X0261710D01*
X0242261Y0241732D02*
X0261710D01*
X0239112Y0133858D02*
Y0149803D01*
X0264860Y0222638D02*
Y0238583D01*
X0232498Y0153740D02*
X0235175D01*
X0268797Y0218701D02*
X0271474D01*
X0268797Y0153740D02*
X0271474D01*
X0349337Y0203487D02*
G03*
X0347340Y0197876I0001428J-0003669D01*
G01*
X0313920Y0133858D02*
G03*
X0317069Y0130709I0003145J-0000004D01*
G01*
X0347340Y0174565D02*
G03*
X0347340Y0197876I-0020547J0011655D01*
G01*
X0309983Y0218701D02*
G03*
X0313920Y0222638I-0000001J0003938D01*
G01*
Y0149803D02*
G03*
X0309983Y0153740I-0003938J-0000001D01*
G01*
X0317069Y0241732D02*
G03*
X0313920Y0238583I-0000004J-0003145D01*
G01*
X0347340Y0174565D02*
G03*
X0349336Y0168954I0003424J-0001942D01*
G01*
X0304251Y0168954D02*
G03*
X0307306Y0153740I0002857J-0007340D01*
G01*
X0339668Y0238583D02*
G03*
X0336518Y0241732I-0003145J0000004D01*
G01*
X0346282Y0153740D02*
G03*
X0349336Y0168954I0000197J0007874D01*
G01*
X0304251D02*
G03*
X0306247Y0174565I-0001428J0003669D01*
G01*
X0339668Y0222638D02*
G03*
X0343605Y0218701I0003938J0000001D01*
G01*
Y0153740D02*
G03*
X0339668Y0149803I0000001J-0003938D01*
G01*
X0307306Y0218701D02*
G03*
X0304251Y0203487I-0000197J-0007874D01*
G01*
X0306247Y0197876D02*
G03*
X0306247Y0174565I0020547J-0011655D01*
G01*
X0349337Y0203487D02*
G03*
X0346282Y0218701I-0002858J0007340D01*
G01*
X0306247Y0197876D02*
G03*
X0304251Y0203487I-0003424J0001942D01*
G01*
X0336518Y0130709D02*
G03*
X0339668Y0133858I0000004J0003145D01*
G01*
X0307306Y0218701D02*
X0309983D01*
X0339668Y0133858D02*
Y0149803D01*
X0313920Y0222638D02*
Y0238583D01*
X0317069Y0130709D02*
X0336518D01*
X0317069Y0241732D02*
X0336518D01*
X0313920Y0133858D02*
Y0149803D01*
X0339668Y0222638D02*
Y0238583D01*
X0307306Y0153740D02*
X0309983D01*
X0343605Y0218701D02*
X0346282D01*
X0343605Y0153740D02*
X0346282D01*
X0424145Y0203487D02*
G03*
X0422148Y0197876I0001428J-0003669D01*
G01*
X0388728Y0133858D02*
G03*
X0391878Y0130709I0003145J-0000004D01*
G01*
X0422148Y0174565D02*
G03*
X0422148Y0197876I-0020547J0011655D01*
G01*
X0384791Y0218701D02*
G03*
X0388728Y0222638I-0000001J0003938D01*
G01*
Y0149803D02*
G03*
X0384791Y0153740I-0003938J-0000001D01*
G01*
X0391878Y0241732D02*
G03*
X0388728Y0238583I-0000004J-0003145D01*
G01*
X0422148Y0174565D02*
G03*
X0424145Y0168954I0003424J-0001942D01*
G01*
X0379059Y0168954D02*
G03*
X0382114Y0153740I0002857J-0007340D01*
G01*
X0414476Y0238583D02*
G03*
X0411326Y0241732I-0003145J0000004D01*
G01*
X0421090Y0153740D02*
G03*
X0424145Y0168954I0000197J0007874D01*
G01*
X0379059D02*
G03*
X0381055Y0174565I-0001428J0003669D01*
G01*
X0414476Y0222638D02*
G03*
X0418413Y0218701I0003938J0000001D01*
G01*
Y0153740D02*
G03*
X0414476Y0149803I0000001J-0003938D01*
G01*
X0382114Y0218701D02*
G03*
X0379059Y0203487I-0000197J-0007874D01*
G01*
X0381055Y0197876D02*
G03*
X0381055Y0174565I0020547J-0011655D01*
G01*
X0424145Y0203487D02*
G03*
X0421090Y0218701I-0002858J0007340D01*
G01*
X0381055Y0197876D02*
G03*
X0379059Y0203487I-0003424J0001942D01*
G01*
X0411326Y0130709D02*
G03*
X0414476Y0133858I0000004J0003145D01*
G01*
X0382114Y0218701D02*
X0384791D01*
X0414476Y0133858D02*
Y0149803D01*
X0388728Y0222638D02*
Y0238583D01*
X0391878Y0130709D02*
X0411326D01*
X0391878Y0241732D02*
X0411326D01*
X0388728Y0133858D02*
Y0149803D01*
X0414476Y0222638D02*
Y0238583D01*
X0382114Y0153740D02*
X0384791D01*
X0418413Y0218701D02*
X0421090D01*
X0418413Y0153740D02*
X0421090D01*
M02*
