M48
;Layer_Color=9474304
;FILE_FORMAT=2:5
INCH
;TYPE=PLATED
T3F00S00C0.02756
;TYPE=NON_PLATED
T9F00S00C0.02756
%
G90
G05
T03
G00X0046652Y0009075
M15
G01Y0011437
M16
G00X0080667Y0009075
M15
G01Y0011437
M16
G00X0193656Y0009075
M15
G01Y0011437
M16
G00X0227671Y0009075
M15
G01Y0011437
M16
G00X0340659Y0009075
M15
G01Y0011437
M16
G00X0374675Y0009075
M15
G01Y0011437
M16
G00X0487664Y0009075
M15
G01Y0011437
M16
G00X0521679Y0009075
M15
G01Y0011437
M16
G00X0634667Y0009075
M15
G01Y0011437
M16
G00X0668683Y0009075
M15
G01Y0011437
M16
G00X0668683Y0024547
M15
G01Y0028878
M16
G00X0634667Y0024547
M15
G01Y0028878
M16
G00X0521679Y0024547
M15
G01Y0028878
M16
G00X0487664Y0024547
M15
G01Y0028878
M16
G00X0374675Y0024547
M15
G01Y0028878
M16
G00X0340659Y0024547
M15
G01Y0028878
M16
G00X0227671Y0024547
M15
G01Y0028878
M16
G00X0193656Y0024547
M15
G01Y0028878
M16
G00X0080667Y0024547
M15
G01Y0028878
M16
G00X0046652Y0024547
M15
G01Y0028878
M16
G00X0046652Y0217894
M15
G01Y0220256
M16
G00X0046652Y0233366
M15
G01Y0237697
M16
G00X0080667Y0233366
M15
G01Y0237697
M16
G00X0080667Y0217894
M15
G01Y0220256
M16
G00X0193656Y0217894
M15
G01Y0220256
M16
G00X0193656Y0233366
M15
G01Y0237697
M16
G00X0227671Y0233366
M15
G01Y0237697
M16
G00X0227671Y0217894
M15
G01Y0220256
M16
G00X0340659Y0217894
M15
G01Y0220256
M16
G00X0340659Y0233366
M15
G01Y0237697
M16
G00X0374675Y0233366
M15
G01Y0237697
M16
G00X0374675Y0217894
M15
G01Y0220256
M16
G00X0487664Y0217894
M15
G01Y0220256
M16
G00X0487664Y0233366
M15
G01Y0237697
M16
G00X0521679Y0233366
M15
G01Y0237697
M16
G00X0521679Y0217894
M15
G01Y0220256
M16
G00X0634667Y0217894
M15
G01Y0220256
M16
G00X0634667Y0233366
M15
G01Y0237697
M16
G00X0668683Y0233366
M15
G01Y0237697
M16
G00X0668683Y0217894
M15
G01Y0220256
M16
T09
G00X0014168Y0002933
M15
G01X0011019
M16
G00X0113153Y0002933
M15
G01X0116302
M16
G00X0161172Y0002933
M15
G01X0158023
M16
G00X0260157Y0002933
M15
G01X0263306
M16
G00X0308176Y0002933
M15
G01X0305027
M16
G00X0407161Y0002933
M15
G01X0410310
M16
G00X0455180Y0002933
M15
G01X0452031
M16
G00X0554165Y0002933
M15
G01X0557314
M16
G00X0602184Y0002933
M15
G01X0599035
M16
G00X0701169Y0002933
M15
G01X0704318
M16
G00X0701169Y0022776
M15
G01X0704318
M16
G00X0701169Y0041717
M15
G01X0704318
M16
G00X0701169Y0061559
M15
G01X0704318
M16
G00X0602184Y0061559
M15
G01X0599035
M16
G00X0602184Y0041717
M15
G01X0599035
M16
G00X0602184Y0022776
M15
G01X0599035
M16
G00X0554165Y0022776
M15
G01X0557314
M16
G00X0554165Y0041717
M15
G01X0557314
M16
G00X0554165Y0061559
M15
G01X0557314
M16
G00X0455180Y0061559
M15
G01X0452031
M16
G00X0455180Y0041717
M15
G01X0452031
M16
G00X0455180Y0022776
M15
G01X0452031
M16
G00X0407161Y0022776
M15
G01X0410310
M16
G00X0407161Y0041717
M15
G01X0410310
M16
G00X0407161Y0061559
M15
G01X0410310
M16
G00X0308176Y0061559
M15
G01X0305027
M16
G00X0308176Y0041717
M15
G01X0305027
M16
G00X0308176Y0022776
M15
G01X0305027
M16
G00X0260157Y0022776
M15
G01X0263306
M16
G00X0260157Y0041717
M15
G01X0263306
M16
G00X0260157Y0061559
M15
G01X0263306
M16
G00X0161172Y0061559
M15
G01X0158023
M16
G00X0161172Y0041717
M15
G01X0158023
M16
G00X0161172Y0022776
M15
G01X0158023
M16
G00X0113153Y0022776
M15
G01X0116302
M16
G00X0113153Y0041717
M15
G01X0116302
M16
G00X0113153Y0061559
M15
G01X0116302
M16
G00X0014168Y0061559
M15
G01X0011019
M16
G00X0014168Y0041717
M15
G01X0011019
M16
G00X0014168Y0022776
M15
G01X0011019
M16
G00X0014168Y0211752
M15
G01X0011019
M16
G00X0014168Y0231595
M15
G01X0011019
M16
G00X0014168Y0250536
M15
G01X0011019
M16
G00X0014168Y0270378
M15
G01X0011019
M16
G00X0113153Y0270378
M15
G01X0116302
M16
G00X0113153Y0250536
M15
G01X0116302
M16
G00X0113153Y0231595
M15
G01X0116302
M16
G00X0113153Y0211752
M15
G01X0116302
M16
G00X0161172Y0211752
M15
G01X0158023
M16
G00X0161172Y0231595
M15
G01X0158023
M16
G00X0161172Y0250536
M15
G01X0158023
M16
G00X0161172Y0270378
M15
G01X0158023
M16
G00X0260157Y0270378
M15
G01X0263306
M16
G00X0260157Y0250536
M15
G01X0263306
M16
G00X0260157Y0231595
M15
G01X0263306
M16
G00X0260157Y0211752
M15
G01X0263306
M16
G00X0308176Y0211752
M15
G01X0305027
M16
G00X0308176Y0231595
M15
G01X0305027
M16
G00X0308176Y0250536
M15
G01X0305027
M16
G00X0308176Y0270378
M15
G01X0305027
M16
G00X0407161Y0270378
M15
G01X0410310
M16
G00X0407161Y0250536
M15
G01X0410310
M16
G00X0407161Y0231595
M15
G01X0410310
M16
G00X0407161Y0211752
M15
G01X0410310
M16
G00X0455180Y0211752
M15
G01X0452031
M16
G00X0455180Y0231595
M15
G01X0452031
M16
G00X0455180Y0250536
M15
G01X0452031
M16
G00X0455180Y0270378
M15
G01X0452031
M16
G00X0554165Y0270378
M15
G01X0557314
M16
G00X0554165Y0250536
M15
G01X0557314
M16
G00X0554165Y0231595
M15
G01X0557314
M16
G00X0554165Y0211752
M15
G01X0557314
M16
G00X0602184Y0211752
M15
G01X0599035
M16
G00X0602184Y0231595
M15
G01X0599035
M16
G00X0602184Y0250536
M15
G01X0599035
M16
G00X0602184Y0270378
M15
G01X0599035
M16
G00X0701169Y0270378
M15
G01X0704318
M16
G00X0701169Y0250536
M15
G01X0704318
M16
G00X0701169Y0231595
M15
G01X0704318
M16
G00X0701169Y0211752
M15
G01X0704318
M16
M17
M30
