G04*
G04 #@! TF.GenerationSoftware,Altium Limited,Altium Designer,21.9.2 (33)*
G04*
G04 Layer_Color=8388736*
%FSAX25Y25*%
%MOIN*%
G70*
G04*
G04 #@! TF.SameCoordinates,9F9AC68D-029E-4633-ADBB-40B06648E365*
G04*
G04*
G04 #@! TF.FilePolarity,Negative*
G04*
G01*
G75*
G04:AMPARAMS|DCode=11|XSize=35.43mil|YSize=135.83mil|CornerRadius=13.82mil|HoleSize=0mil|Usage=FLASHONLY|Rotation=0.000|XOffset=0mil|YOffset=0mil|HoleType=Round|Shape=RoundedRectangle|*
%AMROUNDEDRECTD11*
21,1,0.03543,0.10819,0,0,0.0*
21,1,0.00780,0.13583,0,0,0.0*
1,1,0.02764,0.00390,-0.05409*
1,1,0.02764,-0.00390,-0.05409*
1,1,0.02764,-0.00390,0.05409*
1,1,0.02764,0.00390,0.05409*
%
%ADD11ROUNDEDRECTD11*%
G04:AMPARAMS|DCode=12|XSize=35.43mil|YSize=116.14mil|CornerRadius=13.82mil|HoleSize=0mil|Usage=FLASHONLY|Rotation=0.000|XOffset=0mil|YOffset=0mil|HoleType=Round|Shape=RoundedRectangle|*
%AMROUNDEDRECTD12*
21,1,0.03543,0.08850,0,0,0.0*
21,1,0.00780,0.11614,0,0,0.0*
1,1,0.02764,0.00390,-0.04425*
1,1,0.02764,-0.00390,-0.04425*
1,1,0.02764,-0.00390,0.04425*
1,1,0.02764,0.00390,0.04425*
%
%ADD12ROUNDEDRECTD12*%
%ADD17C,0.00787*%
%ADD21C,0.04331*%
%ADD39R,0.06890X0.03347*%
%ADD40R,0.03543X0.02953*%
%ADD41C,0.00800*%
%ADD42C,0.20485*%
%ADD43C,0.12205*%
%ADD44C,0.00591*%
%ADD45C,0.04961*%
%ADD46R,0.04961X0.04961*%
G36*
X0503737Y0175374D02*
X0503761D01*
X0503817Y0175349D01*
X0503848Y0175330D01*
X0503879Y0175306D01*
X0503885Y0175300D01*
X0503891Y0175293D01*
X0503922Y0175256D01*
X0503947Y0175194D01*
X0503953Y0175157D01*
X0503960Y0175120D01*
Y0175114D01*
Y0175101D01*
X0503953Y0175083D01*
X0503947Y0175058D01*
X0503929Y0174996D01*
X0503904Y0174965D01*
X0503879Y0174934D01*
X0503873D01*
X0503867Y0174922D01*
X0503829Y0174897D01*
X0503774Y0174872D01*
X0503737Y0174866D01*
X0503699Y0174860D01*
X0503681D01*
X0503662Y0174866D01*
X0503638D01*
X0503576Y0174891D01*
X0503545Y0174903D01*
X0503514Y0174928D01*
Y0174934D01*
X0503501Y0174941D01*
X0503489Y0174959D01*
X0503477Y0174978D01*
X0503452Y0175040D01*
X0503446Y0175077D01*
X0503440Y0175120D01*
Y0175126D01*
Y0175138D01*
X0503446Y0175157D01*
X0503452Y0175188D01*
X0503471Y0175244D01*
X0503489Y0175275D01*
X0503514Y0175306D01*
X0503520Y0175312D01*
X0503526Y0175318D01*
X0503563Y0175343D01*
X0503625Y0175368D01*
X0503662Y0175380D01*
X0503718D01*
X0503737Y0175374D01*
D02*
G37*
G36*
X0491747Y0171709D02*
X0491344D01*
Y0172130D01*
X0491332D01*
Y0172124D01*
X0491320Y0172112D01*
X0491301Y0172087D01*
X0491282Y0172056D01*
X0491251Y0172019D01*
X0491214Y0171982D01*
X0491171Y0171938D01*
X0491121Y0171895D01*
X0491066Y0171845D01*
X0490998Y0171802D01*
X0490930Y0171765D01*
X0490849Y0171728D01*
X0490769Y0171697D01*
X0490676Y0171672D01*
X0490577Y0171660D01*
X0490472Y0171654D01*
X0490428D01*
X0490391Y0171660D01*
X0490354Y0171666D01*
X0490304Y0171672D01*
X0490199Y0171697D01*
X0490075Y0171734D01*
X0489952Y0171796D01*
X0489883Y0171833D01*
X0489828Y0171876D01*
X0489766Y0171932D01*
X0489710Y0171988D01*
Y0171994D01*
X0489698Y0172006D01*
X0489685Y0172025D01*
X0489667Y0172050D01*
X0489648Y0172081D01*
X0489623Y0172124D01*
X0489599Y0172174D01*
X0489574Y0172229D01*
X0489543Y0172291D01*
X0489518Y0172359D01*
X0489494Y0172433D01*
X0489475Y0172514D01*
X0489456Y0172601D01*
X0489444Y0172700D01*
X0489438Y0172799D01*
X0489432Y0172904D01*
Y0172910D01*
Y0172929D01*
Y0172966D01*
X0489438Y0173009D01*
X0489444Y0173059D01*
X0489450Y0173121D01*
X0489456Y0173189D01*
X0489469Y0173263D01*
X0489506Y0173424D01*
X0489562Y0173591D01*
X0489599Y0173671D01*
X0489642Y0173752D01*
X0489685Y0173826D01*
X0489741Y0173900D01*
X0489747Y0173907D01*
X0489753Y0173919D01*
X0489772Y0173938D01*
X0489797Y0173962D01*
X0489828Y0173987D01*
X0489871Y0174018D01*
X0489914Y0174055D01*
X0489964Y0174092D01*
X0490088Y0174161D01*
X0490230Y0174222D01*
X0490310Y0174241D01*
X0490397Y0174259D01*
X0490484Y0174272D01*
X0490583Y0174278D01*
X0490632D01*
X0490670Y0174272D01*
X0490707Y0174266D01*
X0490756Y0174259D01*
X0490868Y0174229D01*
X0490991Y0174179D01*
X0491053Y0174148D01*
X0491115Y0174105D01*
X0491177Y0174062D01*
X0491233Y0174006D01*
X0491282Y0173944D01*
X0491332Y0173870D01*
X0491344D01*
Y0175429D01*
X0491747D01*
Y0171709D01*
D02*
G37*
G36*
X0506015Y0174272D02*
X0506089Y0174266D01*
X0506182Y0174247D01*
X0506281Y0174216D01*
X0506386Y0174167D01*
X0506491Y0174099D01*
X0506534Y0174062D01*
X0506578Y0174012D01*
X0506590Y0174000D01*
X0506615Y0173962D01*
X0506646Y0173900D01*
X0506689Y0173814D01*
X0506726Y0173709D01*
X0506764Y0173579D01*
X0506788Y0173424D01*
X0506795Y0173244D01*
Y0171709D01*
X0506392D01*
Y0173139D01*
Y0173145D01*
Y0173176D01*
X0506386Y0173213D01*
Y0173263D01*
X0506374Y0173325D01*
X0506361Y0173393D01*
X0506343Y0173467D01*
X0506318Y0173541D01*
X0506287Y0173616D01*
X0506250Y0173684D01*
X0506200Y0173752D01*
X0506145Y0173814D01*
X0506083Y0173863D01*
X0506002Y0173900D01*
X0505915Y0173932D01*
X0505810Y0173938D01*
X0505798D01*
X0505761Y0173932D01*
X0505705Y0173925D01*
X0505637Y0173907D01*
X0505556Y0173882D01*
X0505470Y0173839D01*
X0505389Y0173783D01*
X0505309Y0173709D01*
X0505303Y0173696D01*
X0505278Y0173671D01*
X0505247Y0173622D01*
X0505210Y0173554D01*
X0505173Y0173473D01*
X0505142Y0173374D01*
X0505117Y0173263D01*
X0505111Y0173139D01*
Y0171709D01*
X0504708D01*
Y0174222D01*
X0505111D01*
Y0173802D01*
X0505123D01*
X0505129Y0173808D01*
X0505136Y0173820D01*
X0505154Y0173845D01*
X0505179Y0173876D01*
X0505204Y0173913D01*
X0505241Y0173950D01*
X0505284Y0173993D01*
X0505334Y0174043D01*
X0505389Y0174086D01*
X0505451Y0174130D01*
X0505519Y0174167D01*
X0505594Y0174204D01*
X0505668Y0174235D01*
X0505755Y0174259D01*
X0505847Y0174272D01*
X0505946Y0174278D01*
X0505984D01*
X0506015Y0174272D01*
D02*
G37*
G36*
X0489017Y0174259D02*
X0489091Y0174253D01*
X0489134Y0174241D01*
X0489165Y0174229D01*
Y0173814D01*
X0489159Y0173820D01*
X0489147Y0173826D01*
X0489122Y0173839D01*
X0489091Y0173857D01*
X0489048Y0173870D01*
X0488992Y0173882D01*
X0488930Y0173888D01*
X0488862Y0173894D01*
X0488850D01*
X0488819Y0173888D01*
X0488769Y0173882D01*
X0488714Y0173863D01*
X0488639Y0173832D01*
X0488571Y0173789D01*
X0488497Y0173727D01*
X0488429Y0173647D01*
X0488423Y0173634D01*
X0488404Y0173603D01*
X0488373Y0173548D01*
X0488342Y0173473D01*
X0488311Y0173381D01*
X0488280Y0173263D01*
X0488262Y0173133D01*
X0488256Y0172984D01*
Y0171709D01*
X0487853D01*
Y0174222D01*
X0488256D01*
Y0173702D01*
X0488268D01*
Y0173709D01*
X0488274Y0173715D01*
X0488286Y0173746D01*
X0488305Y0173795D01*
X0488336Y0173857D01*
X0488367Y0173919D01*
X0488416Y0173987D01*
X0488466Y0174055D01*
X0488528Y0174117D01*
X0488534Y0174123D01*
X0488559Y0174142D01*
X0488596Y0174167D01*
X0488645Y0174191D01*
X0488701Y0174216D01*
X0488769Y0174241D01*
X0488843Y0174259D01*
X0488924Y0174266D01*
X0488980D01*
X0489017Y0174259D01*
D02*
G37*
G36*
X0499756Y0171709D02*
X0499354D01*
Y0172105D01*
X0499342D01*
Y0172099D01*
X0499329Y0172087D01*
X0499317Y0172062D01*
X0499292Y0172037D01*
X0499236Y0171963D01*
X0499150Y0171883D01*
X0499100Y0171839D01*
X0499045Y0171796D01*
X0498983Y0171759D01*
X0498908Y0171722D01*
X0498834Y0171697D01*
X0498754Y0171672D01*
X0498661Y0171660D01*
X0498568Y0171654D01*
X0498531D01*
X0498488Y0171660D01*
X0498426Y0171672D01*
X0498357Y0171685D01*
X0498283Y0171709D01*
X0498203Y0171740D01*
X0498122Y0171790D01*
X0498036Y0171845D01*
X0497955Y0171914D01*
X0497881Y0172000D01*
X0497813Y0172105D01*
X0497751Y0172223D01*
X0497708Y0172365D01*
X0497683Y0172532D01*
X0497670Y0172619D01*
Y0172718D01*
Y0174222D01*
X0498067D01*
Y0172780D01*
Y0172774D01*
Y0172749D01*
X0498073Y0172706D01*
X0498079Y0172656D01*
X0498085Y0172594D01*
X0498098Y0172532D01*
X0498116Y0172458D01*
X0498141Y0172384D01*
X0498178Y0172310D01*
X0498215Y0172242D01*
X0498265Y0172174D01*
X0498327Y0172112D01*
X0498395Y0172062D01*
X0498475Y0172025D01*
X0498574Y0171994D01*
X0498679Y0171988D01*
X0498692D01*
X0498729Y0171994D01*
X0498785Y0172000D01*
X0498847Y0172013D01*
X0498927Y0172044D01*
X0499008Y0172081D01*
X0499088Y0172130D01*
X0499162Y0172204D01*
X0499168Y0172217D01*
X0499193Y0172242D01*
X0499224Y0172291D01*
X0499261Y0172359D01*
X0499292Y0172440D01*
X0499323Y0172539D01*
X0499348Y0172650D01*
X0499354Y0172774D01*
Y0174222D01*
X0499756D01*
Y0171709D01*
D02*
G37*
G36*
X0503891D02*
X0503489D01*
Y0174222D01*
X0503891D01*
Y0171709D01*
D02*
G37*
G36*
X0502672D02*
X0502270D01*
Y0175429D01*
X0502672D01*
Y0171709D01*
D02*
G37*
G36*
X0486293Y0174272D02*
X0486349Y0174266D01*
X0486417Y0174247D01*
X0486491Y0174229D01*
X0486572Y0174198D01*
X0486658Y0174161D01*
X0486739Y0174111D01*
X0486819Y0174049D01*
X0486894Y0173975D01*
X0486962Y0173882D01*
X0487017Y0173777D01*
X0487061Y0173653D01*
X0487085Y0173511D01*
X0487098Y0173343D01*
Y0171709D01*
X0486696D01*
Y0172099D01*
X0486683D01*
Y0172093D01*
X0486671Y0172081D01*
X0486658Y0172056D01*
X0486634Y0172031D01*
X0486572Y0171957D01*
X0486491Y0171876D01*
X0486380Y0171796D01*
X0486250Y0171722D01*
X0486169Y0171697D01*
X0486089Y0171672D01*
X0486002Y0171660D01*
X0485910Y0171654D01*
X0485872D01*
X0485848Y0171660D01*
X0485779Y0171666D01*
X0485699Y0171678D01*
X0485600Y0171703D01*
X0485507Y0171734D01*
X0485408Y0171783D01*
X0485321Y0171845D01*
X0485315Y0171858D01*
X0485290Y0171883D01*
X0485253Y0171926D01*
X0485216Y0171988D01*
X0485179Y0172062D01*
X0485142Y0172149D01*
X0485117Y0172254D01*
X0485111Y0172372D01*
Y0172378D01*
Y0172403D01*
X0485117Y0172440D01*
X0485123Y0172483D01*
X0485136Y0172539D01*
X0485154Y0172601D01*
X0485179Y0172669D01*
X0485216Y0172737D01*
X0485259Y0172811D01*
X0485315Y0172885D01*
X0485383Y0172953D01*
X0485464Y0173015D01*
X0485557Y0173077D01*
X0485668Y0173127D01*
X0485792Y0173164D01*
X0485940Y0173195D01*
X0486696Y0173300D01*
Y0173306D01*
Y0173325D01*
X0486689Y0173362D01*
Y0173399D01*
X0486677Y0173449D01*
X0486671Y0173504D01*
X0486634Y0173622D01*
X0486603Y0173678D01*
X0486572Y0173733D01*
X0486528Y0173789D01*
X0486479Y0173839D01*
X0486417Y0173882D01*
X0486349Y0173913D01*
X0486269Y0173932D01*
X0486176Y0173938D01*
X0486132D01*
X0486101Y0173932D01*
X0486058D01*
X0486015Y0173919D01*
X0485903Y0173900D01*
X0485779Y0173863D01*
X0485643Y0173808D01*
X0485569Y0173770D01*
X0485501Y0173733D01*
X0485427Y0173684D01*
X0485358Y0173628D01*
Y0174043D01*
X0485365D01*
X0485377Y0174055D01*
X0485396Y0174068D01*
X0485427Y0174080D01*
X0485458Y0174099D01*
X0485501Y0174117D01*
X0485550Y0174136D01*
X0485606Y0174161D01*
X0485730Y0174204D01*
X0485879Y0174241D01*
X0486039Y0174266D01*
X0486213Y0174278D01*
X0486250D01*
X0486293Y0174272D01*
D02*
G37*
G36*
X0480605Y0175219D02*
X0480648D01*
X0480691Y0175213D01*
X0480790Y0175200D01*
X0480908Y0175170D01*
X0481032Y0175132D01*
X0481149Y0175077D01*
X0481255Y0175002D01*
X0481261D01*
X0481267Y0174990D01*
X0481298Y0174965D01*
X0481341Y0174916D01*
X0481391Y0174848D01*
X0481434Y0174761D01*
X0481477Y0174662D01*
X0481508Y0174550D01*
X0481521Y0174489D01*
Y0174420D01*
Y0174414D01*
Y0174408D01*
Y0174371D01*
X0481515Y0174315D01*
X0481502Y0174247D01*
X0481484Y0174161D01*
X0481453Y0174074D01*
X0481416Y0173987D01*
X0481360Y0173900D01*
X0481354Y0173888D01*
X0481329Y0173863D01*
X0481292Y0173826D01*
X0481242Y0173777D01*
X0481180Y0173727D01*
X0481106Y0173671D01*
X0481013Y0173628D01*
X0480914Y0173585D01*
Y0173579D01*
X0480933D01*
X0480951Y0173573D01*
X0480970Y0173566D01*
X0481038Y0173554D01*
X0481118Y0173529D01*
X0481205Y0173492D01*
X0481298Y0173449D01*
X0481391Y0173387D01*
X0481477Y0173306D01*
X0481490Y0173294D01*
X0481515Y0173263D01*
X0481545Y0173220D01*
X0481589Y0173152D01*
X0481626Y0173065D01*
X0481663Y0172966D01*
X0481688Y0172848D01*
X0481694Y0172718D01*
Y0172712D01*
Y0172700D01*
Y0172675D01*
X0481688Y0172644D01*
X0481682Y0172607D01*
X0481675Y0172564D01*
X0481651Y0172458D01*
X0481614Y0172341D01*
X0481558Y0172217D01*
X0481521Y0172161D01*
X0481477Y0172099D01*
X0481422Y0172044D01*
X0481366Y0171988D01*
X0481360D01*
X0481354Y0171975D01*
X0481335Y0171963D01*
X0481310Y0171944D01*
X0481279Y0171926D01*
X0481236Y0171901D01*
X0481143Y0171852D01*
X0481026Y0171796D01*
X0480889Y0171753D01*
X0480728Y0171722D01*
X0480648Y0171715D01*
X0480555Y0171709D01*
X0479528D01*
Y0175225D01*
X0480574D01*
X0480605Y0175219D01*
D02*
G37*
G36*
X0501100Y0174222D02*
X0501737D01*
Y0173876D01*
X0501100D01*
Y0172458D01*
Y0172446D01*
Y0172415D01*
X0501106Y0172372D01*
X0501112Y0172316D01*
X0501137Y0172198D01*
X0501155Y0172143D01*
X0501186Y0172099D01*
X0501193Y0172093D01*
X0501205Y0172081D01*
X0501224Y0172068D01*
X0501255Y0172050D01*
X0501292Y0172025D01*
X0501341Y0172013D01*
X0501403Y0172000D01*
X0501471Y0171994D01*
X0501496D01*
X0501527Y0172000D01*
X0501564Y0172006D01*
X0501651Y0172031D01*
X0501694Y0172050D01*
X0501737Y0172074D01*
Y0171728D01*
X0501731D01*
X0501713Y0171715D01*
X0501682Y0171709D01*
X0501638Y0171697D01*
X0501582Y0171685D01*
X0501521Y0171672D01*
X0501446Y0171666D01*
X0501360Y0171660D01*
X0501329D01*
X0501298Y0171666D01*
X0501255Y0171672D01*
X0501205Y0171685D01*
X0501149Y0171697D01*
X0501093Y0171722D01*
X0501032Y0171753D01*
X0500970Y0171790D01*
X0500908Y0171839D01*
X0500852Y0171895D01*
X0500803Y0171969D01*
X0500759Y0172050D01*
X0500728Y0172149D01*
X0500703Y0172260D01*
X0500697Y0172390D01*
Y0173876D01*
X0500270D01*
Y0174222D01*
X0500697D01*
Y0174835D01*
X0501100Y0174965D01*
Y0174222D01*
D02*
G37*
G36*
X0508627Y0174272D02*
X0508670Y0174266D01*
X0508713Y0174259D01*
X0508825Y0174241D01*
X0508949Y0174198D01*
X0509072Y0174142D01*
X0509134Y0174105D01*
X0509196Y0174062D01*
X0509252Y0174012D01*
X0509308Y0173956D01*
X0509314Y0173950D01*
X0509320Y0173944D01*
X0509332Y0173925D01*
X0509351Y0173900D01*
X0509370Y0173863D01*
X0509394Y0173826D01*
X0509419Y0173783D01*
X0509444Y0173727D01*
X0509469Y0173665D01*
X0509493Y0173603D01*
X0509518Y0173529D01*
X0509537Y0173449D01*
X0509555Y0173362D01*
X0509568Y0173275D01*
X0509580Y0173176D01*
Y0173071D01*
Y0172861D01*
X0507803D01*
Y0172854D01*
Y0172842D01*
Y0172824D01*
X0507810Y0172792D01*
X0507816Y0172755D01*
Y0172718D01*
X0507834Y0172619D01*
X0507865Y0172520D01*
X0507902Y0172409D01*
X0507958Y0172303D01*
X0508026Y0172211D01*
X0508039Y0172198D01*
X0508064Y0172174D01*
X0508113Y0172143D01*
X0508181Y0172099D01*
X0508268Y0172056D01*
X0508367Y0172025D01*
X0508484Y0172000D01*
X0508621Y0171988D01*
X0508664D01*
X0508695Y0171994D01*
X0508732D01*
X0508775Y0172000D01*
X0508881Y0172025D01*
X0508998Y0172056D01*
X0509128Y0172105D01*
X0509264Y0172174D01*
X0509332Y0172217D01*
X0509401Y0172266D01*
Y0171889D01*
X0509394D01*
X0509388Y0171876D01*
X0509370Y0171870D01*
X0509339Y0171852D01*
X0509308Y0171833D01*
X0509270Y0171815D01*
X0509221Y0171796D01*
X0509171Y0171771D01*
X0509110Y0171746D01*
X0509042Y0171728D01*
X0508893Y0171691D01*
X0508720Y0171666D01*
X0508528Y0171654D01*
X0508478D01*
X0508441Y0171660D01*
X0508398Y0171666D01*
X0508342Y0171672D01*
X0508224Y0171697D01*
X0508088Y0171734D01*
X0507952Y0171796D01*
X0507884Y0171839D01*
X0507816Y0171883D01*
X0507754Y0171932D01*
X0507692Y0171994D01*
X0507686Y0172000D01*
X0507680Y0172013D01*
X0507667Y0172031D01*
X0507643Y0172056D01*
X0507624Y0172093D01*
X0507599Y0172136D01*
X0507568Y0172186D01*
X0507544Y0172242D01*
X0507513Y0172303D01*
X0507488Y0172378D01*
X0507457Y0172458D01*
X0507438Y0172545D01*
X0507420Y0172638D01*
X0507401Y0172737D01*
X0507395Y0172842D01*
X0507389Y0172953D01*
Y0172960D01*
Y0172978D01*
Y0173009D01*
X0507395Y0173053D01*
X0507401Y0173102D01*
X0507407Y0173158D01*
X0507413Y0173226D01*
X0507432Y0173294D01*
X0507469Y0173442D01*
X0507525Y0173603D01*
X0507562Y0173684D01*
X0507612Y0173758D01*
X0507661Y0173839D01*
X0507717Y0173907D01*
X0507723Y0173913D01*
X0507735Y0173925D01*
X0507754Y0173944D01*
X0507779Y0173962D01*
X0507810Y0173993D01*
X0507847Y0174024D01*
X0507896Y0174055D01*
X0507946Y0174092D01*
X0508064Y0174161D01*
X0508206Y0174222D01*
X0508286Y0174241D01*
X0508367Y0174259D01*
X0508453Y0174272D01*
X0508546Y0174278D01*
X0508596D01*
X0508627Y0174272D01*
D02*
G37*
G36*
X0495584Y0175281D02*
X0495646Y0175275D01*
X0495721Y0175262D01*
X0495801Y0175244D01*
X0495888Y0175225D01*
X0495974Y0175200D01*
X0496073Y0175170D01*
X0496166Y0175126D01*
X0496265Y0175077D01*
X0496364Y0175021D01*
X0496457Y0174953D01*
X0496550Y0174879D01*
X0496637Y0174792D01*
X0496643Y0174786D01*
X0496655Y0174767D01*
X0496680Y0174742D01*
X0496705Y0174705D01*
X0496742Y0174656D01*
X0496779Y0174594D01*
X0496816Y0174526D01*
X0496860Y0174451D01*
X0496903Y0174359D01*
X0496940Y0174266D01*
X0496977Y0174161D01*
X0497014Y0174043D01*
X0497039Y0173925D01*
X0497064Y0173795D01*
X0497076Y0173653D01*
X0497082Y0173511D01*
Y0173498D01*
Y0173473D01*
Y0173430D01*
X0497076Y0173368D01*
X0497070Y0173294D01*
X0497058Y0173213D01*
X0497045Y0173121D01*
X0497027Y0173015D01*
X0497002Y0172910D01*
X0496971Y0172799D01*
X0496934Y0172687D01*
X0496890Y0172576D01*
X0496835Y0172458D01*
X0496773Y0172353D01*
X0496705Y0172248D01*
X0496624Y0172149D01*
X0496618Y0172143D01*
X0496606Y0172130D01*
X0496575Y0172105D01*
X0496544Y0172074D01*
X0496494Y0172031D01*
X0496439Y0171994D01*
X0496377Y0171944D01*
X0496303Y0171901D01*
X0496222Y0171858D01*
X0496129Y0171808D01*
X0496030Y0171771D01*
X0495919Y0171734D01*
X0495801Y0171697D01*
X0495677Y0171672D01*
X0495547Y0171660D01*
X0495405Y0171654D01*
X0495374D01*
X0495331Y0171660D01*
X0495281D01*
X0495219Y0171666D01*
X0495145Y0171678D01*
X0495064Y0171697D01*
X0494972Y0171715D01*
X0494879Y0171740D01*
X0494780Y0171771D01*
X0494681Y0171815D01*
X0494582Y0171858D01*
X0494483Y0171914D01*
X0494384Y0171982D01*
X0494291Y0172056D01*
X0494204Y0172143D01*
X0494198Y0172149D01*
X0494185Y0172167D01*
X0494161Y0172192D01*
X0494136Y0172229D01*
X0494099Y0172279D01*
X0494062Y0172341D01*
X0494025Y0172409D01*
X0493981Y0172489D01*
X0493938Y0172576D01*
X0493901Y0172669D01*
X0493864Y0172774D01*
X0493826Y0172892D01*
X0493802Y0173009D01*
X0493777Y0173139D01*
X0493765Y0173282D01*
X0493758Y0173424D01*
Y0173436D01*
Y0173461D01*
X0493765Y0173504D01*
Y0173566D01*
X0493771Y0173634D01*
X0493783Y0173721D01*
X0493795Y0173814D01*
X0493814Y0173913D01*
X0493839Y0174018D01*
X0493870Y0174130D01*
X0493907Y0174241D01*
X0493950Y0174352D01*
X0494006Y0174464D01*
X0494068Y0174575D01*
X0494136Y0174680D01*
X0494216Y0174779D01*
X0494223Y0174786D01*
X0494235Y0174804D01*
X0494266Y0174829D01*
X0494303Y0174860D01*
X0494346Y0174897D01*
X0494402Y0174941D01*
X0494470Y0174984D01*
X0494545Y0175033D01*
X0494631Y0175083D01*
X0494724Y0175126D01*
X0494823Y0175170D01*
X0494935Y0175207D01*
X0495058Y0175238D01*
X0495188Y0175268D01*
X0495324Y0175281D01*
X0495467Y0175287D01*
X0495535D01*
X0495584Y0175281D01*
D02*
G37*
G36*
X0483557Y0174272D02*
X0483601Y0174266D01*
X0483656Y0174259D01*
X0483780Y0174235D01*
X0483922Y0174191D01*
X0484065Y0174130D01*
X0484139Y0174092D01*
X0484207Y0174049D01*
X0484275Y0173993D01*
X0484337Y0173932D01*
X0484343Y0173925D01*
X0484350Y0173913D01*
X0484368Y0173894D01*
X0484387Y0173870D01*
X0484411Y0173832D01*
X0484436Y0173789D01*
X0484467Y0173740D01*
X0484498Y0173684D01*
X0484523Y0173616D01*
X0484554Y0173548D01*
X0484579Y0173467D01*
X0484603Y0173381D01*
X0484622Y0173288D01*
X0484641Y0173189D01*
X0484647Y0173083D01*
X0484653Y0172972D01*
Y0172966D01*
Y0172947D01*
Y0172916D01*
X0484647Y0172873D01*
X0484641Y0172824D01*
X0484634Y0172762D01*
X0484622Y0172700D01*
X0484610Y0172625D01*
X0484572Y0172477D01*
X0484511Y0172316D01*
X0484473Y0172235D01*
X0484424Y0172155D01*
X0484374Y0172081D01*
X0484312Y0172013D01*
X0484306Y0172006D01*
X0484294Y0172000D01*
X0484275Y0171982D01*
X0484250Y0171957D01*
X0484213Y0171932D01*
X0484176Y0171901D01*
X0484127Y0171864D01*
X0484071Y0171833D01*
X0484009Y0171802D01*
X0483941Y0171765D01*
X0483867Y0171734D01*
X0483786Y0171709D01*
X0483700Y0171685D01*
X0483607Y0171672D01*
X0483508Y0171660D01*
X0483402Y0171654D01*
X0483347D01*
X0483310Y0171660D01*
X0483266Y0171666D01*
X0483211Y0171672D01*
X0483149Y0171685D01*
X0483081Y0171697D01*
X0482938Y0171740D01*
X0482790Y0171802D01*
X0482715Y0171839D01*
X0482647Y0171889D01*
X0482579Y0171938D01*
X0482511Y0172000D01*
X0482505Y0172006D01*
X0482499Y0172019D01*
X0482480Y0172037D01*
X0482462Y0172062D01*
X0482437Y0172099D01*
X0482406Y0172143D01*
X0482375Y0172192D01*
X0482350Y0172248D01*
X0482319Y0172316D01*
X0482288Y0172384D01*
X0482257Y0172458D01*
X0482233Y0172545D01*
X0482195Y0172731D01*
X0482189Y0172830D01*
X0482183Y0172935D01*
Y0172941D01*
Y0172966D01*
Y0172997D01*
X0482189Y0173040D01*
X0482195Y0173090D01*
X0482202Y0173152D01*
X0482214Y0173220D01*
X0482226Y0173294D01*
X0482264Y0173455D01*
X0482325Y0173616D01*
X0482369Y0173696D01*
X0482412Y0173777D01*
X0482462Y0173851D01*
X0482523Y0173919D01*
X0482530Y0173925D01*
X0482542Y0173938D01*
X0482561Y0173950D01*
X0482585Y0173975D01*
X0482623Y0174000D01*
X0482666Y0174030D01*
X0482715Y0174068D01*
X0482771Y0174099D01*
X0482833Y0174130D01*
X0482907Y0174167D01*
X0482982Y0174198D01*
X0483068Y0174222D01*
X0483155Y0174247D01*
X0483254Y0174266D01*
X0483359Y0174272D01*
X0483464Y0174278D01*
X0483520D01*
X0483557Y0174272D01*
D02*
G37*
G36*
X0513554Y0136312D02*
X0513579D01*
X0513634Y0136287D01*
X0513665Y0136269D01*
X0513696Y0136244D01*
X0513702Y0136238D01*
X0513709Y0136231D01*
X0513740Y0136194D01*
X0513764Y0136132D01*
X0513771Y0136095D01*
X0513777Y0136058D01*
Y0136052D01*
Y0136039D01*
X0513771Y0136021D01*
X0513764Y0135996D01*
X0513746Y0135934D01*
X0513721Y0135903D01*
X0513696Y0135872D01*
X0513690D01*
X0513684Y0135860D01*
X0513647Y0135835D01*
X0513591Y0135810D01*
X0513554Y0135804D01*
X0513517Y0135798D01*
X0513498D01*
X0513480Y0135804D01*
X0513455D01*
X0513393Y0135829D01*
X0513362Y0135842D01*
X0513331Y0135866D01*
Y0135872D01*
X0513319Y0135879D01*
X0513306Y0135897D01*
X0513294Y0135916D01*
X0513269Y0135978D01*
X0513263Y0136015D01*
X0513257Y0136058D01*
Y0136064D01*
Y0136077D01*
X0513263Y0136095D01*
X0513269Y0136126D01*
X0513288Y0136182D01*
X0513306Y0136213D01*
X0513331Y0136244D01*
X0513337Y0136250D01*
X0513343Y0136256D01*
X0513381Y0136281D01*
X0513443Y0136306D01*
X0513480Y0136318D01*
X0513535D01*
X0513554Y0136312D01*
D02*
G37*
G36*
X0490985Y0136219D02*
X0491035D01*
X0491146Y0136207D01*
X0491270Y0136194D01*
X0491394Y0136170D01*
X0491511Y0136139D01*
X0491561Y0136120D01*
X0491610Y0136095D01*
Y0135631D01*
X0491604D01*
X0491598Y0135643D01*
X0491579Y0135650D01*
X0491555Y0135668D01*
X0491524Y0135680D01*
X0491487Y0135699D01*
X0491394Y0135742D01*
X0491282Y0135780D01*
X0491146Y0135817D01*
X0490985Y0135842D01*
X0490812Y0135848D01*
X0490762D01*
X0490725Y0135842D01*
X0490688D01*
X0490639Y0135835D01*
X0490540Y0135817D01*
X0490533D01*
X0490515Y0135810D01*
X0490490Y0135804D01*
X0490459Y0135798D01*
X0490385Y0135767D01*
X0490298Y0135730D01*
X0490292D01*
X0490280Y0135718D01*
X0490261Y0135705D01*
X0490236Y0135687D01*
X0490181Y0135631D01*
X0490125Y0135563D01*
Y0135557D01*
X0490112Y0135544D01*
X0490106Y0135526D01*
X0490094Y0135495D01*
X0490082Y0135458D01*
X0490075Y0135421D01*
X0490063Y0135321D01*
Y0135315D01*
Y0135297D01*
Y0135272D01*
X0490069Y0135241D01*
X0490082Y0135167D01*
X0490112Y0135086D01*
Y0135080D01*
X0490125Y0135068D01*
X0490131Y0135049D01*
X0490150Y0135024D01*
X0490199Y0134969D01*
X0490261Y0134907D01*
X0490267Y0134901D01*
X0490280Y0134894D01*
X0490298Y0134876D01*
X0490329Y0134857D01*
X0490366Y0134833D01*
X0490403Y0134808D01*
X0490502Y0134746D01*
X0490509Y0134740D01*
X0490527Y0134733D01*
X0490558Y0134715D01*
X0490595Y0134696D01*
X0490645Y0134672D01*
X0490700Y0134647D01*
X0490824Y0134585D01*
X0490831Y0134579D01*
X0490855Y0134566D01*
X0490892Y0134548D01*
X0490942Y0134523D01*
X0490998Y0134498D01*
X0491059Y0134461D01*
X0491183Y0134387D01*
X0491189Y0134381D01*
X0491214Y0134368D01*
X0491245Y0134350D01*
X0491289Y0134319D01*
X0491381Y0134244D01*
X0491480Y0134158D01*
X0491487Y0134152D01*
X0491505Y0134139D01*
X0491524Y0134108D01*
X0491555Y0134077D01*
X0491586Y0134034D01*
X0491623Y0133991D01*
X0491685Y0133879D01*
X0491691Y0133873D01*
X0491697Y0133854D01*
X0491710Y0133824D01*
X0491722Y0133780D01*
X0491734Y0133731D01*
X0491747Y0133669D01*
X0491759Y0133607D01*
Y0133533D01*
Y0133520D01*
Y0133489D01*
X0491753Y0133440D01*
X0491747Y0133378D01*
X0491734Y0133310D01*
X0491716Y0133236D01*
X0491691Y0133161D01*
X0491654Y0133093D01*
X0491648Y0133087D01*
X0491635Y0133062D01*
X0491610Y0133031D01*
X0491586Y0132988D01*
X0491542Y0132945D01*
X0491499Y0132895D01*
X0491443Y0132845D01*
X0491381Y0132796D01*
X0491375Y0132790D01*
X0491351Y0132777D01*
X0491313Y0132759D01*
X0491264Y0132734D01*
X0491208Y0132709D01*
X0491140Y0132685D01*
X0491059Y0132660D01*
X0490979Y0132641D01*
X0490967D01*
X0490942Y0132635D01*
X0490899Y0132629D01*
X0490837Y0132616D01*
X0490769Y0132610D01*
X0490688Y0132598D01*
X0490601Y0132592D01*
X0490453D01*
X0490385Y0132598D01*
X0490298Y0132604D01*
X0490280D01*
X0490255Y0132610D01*
X0490224Y0132616D01*
X0490143Y0132623D01*
X0490051Y0132641D01*
X0490044D01*
X0490026Y0132647D01*
X0490001Y0132654D01*
X0489970Y0132660D01*
X0489896Y0132678D01*
X0489809Y0132703D01*
X0489803D01*
X0489791Y0132709D01*
X0489772Y0132715D01*
X0489747Y0132728D01*
X0489685Y0132753D01*
X0489623Y0132790D01*
Y0133273D01*
X0489630Y0133266D01*
X0489642Y0133260D01*
X0489654Y0133248D01*
X0489679Y0133229D01*
X0489747Y0133186D01*
X0489828Y0133136D01*
X0489834D01*
X0489846Y0133130D01*
X0489871Y0133118D01*
X0489902Y0133106D01*
X0489983Y0133068D01*
X0490069Y0133037D01*
X0490075D01*
X0490094Y0133031D01*
X0490119Y0133025D01*
X0490150Y0133019D01*
X0490236Y0132994D01*
X0490329Y0132975D01*
X0490354D01*
X0490379Y0132969D01*
X0490410D01*
X0490484Y0132963D01*
X0490570Y0132957D01*
X0490632D01*
X0490700Y0132963D01*
X0490787Y0132975D01*
X0490880Y0132988D01*
X0490973Y0133013D01*
X0491059Y0133050D01*
X0491140Y0133093D01*
X0491146Y0133099D01*
X0491171Y0133118D01*
X0491202Y0133155D01*
X0491233Y0133198D01*
X0491270Y0133254D01*
X0491295Y0133328D01*
X0491320Y0133409D01*
X0491326Y0133502D01*
Y0133508D01*
Y0133526D01*
Y0133551D01*
X0491320Y0133588D01*
X0491301Y0133669D01*
X0491264Y0133749D01*
Y0133755D01*
X0491251Y0133768D01*
X0491239Y0133786D01*
X0491221Y0133811D01*
X0491165Y0133873D01*
X0491090Y0133941D01*
X0491084Y0133947D01*
X0491072Y0133960D01*
X0491047Y0133972D01*
X0491016Y0133997D01*
X0490979Y0134022D01*
X0490936Y0134053D01*
X0490831Y0134108D01*
X0490824Y0134115D01*
X0490806Y0134121D01*
X0490775Y0134139D01*
X0490731Y0134158D01*
X0490688Y0134189D01*
X0490632Y0134213D01*
X0490502Y0134282D01*
X0490496Y0134288D01*
X0490472Y0134300D01*
X0490434Y0134319D01*
X0490391Y0134337D01*
X0490342Y0134368D01*
X0490286Y0134399D01*
X0490162Y0134467D01*
X0490156Y0134474D01*
X0490137Y0134486D01*
X0490106Y0134504D01*
X0490069Y0134529D01*
X0489976Y0134597D01*
X0489883Y0134678D01*
X0489877Y0134684D01*
X0489865Y0134696D01*
X0489840Y0134721D01*
X0489815Y0134752D01*
X0489784Y0134795D01*
X0489753Y0134839D01*
X0489698Y0134938D01*
Y0134944D01*
X0489685Y0134962D01*
X0489679Y0134993D01*
X0489667Y0135037D01*
X0489654Y0135086D01*
X0489642Y0135148D01*
X0489636Y0135210D01*
X0489630Y0135284D01*
Y0135297D01*
Y0135328D01*
X0489636Y0135371D01*
X0489642Y0135427D01*
X0489654Y0135495D01*
X0489673Y0135563D01*
X0489698Y0135631D01*
X0489735Y0135699D01*
X0489741Y0135705D01*
X0489753Y0135730D01*
X0489778Y0135761D01*
X0489809Y0135804D01*
X0489846Y0135848D01*
X0489896Y0135897D01*
X0489952Y0135947D01*
X0490013Y0135990D01*
X0490020Y0135996D01*
X0490044Y0136009D01*
X0490082Y0136033D01*
X0490125Y0136058D01*
X0490187Y0136083D01*
X0490249Y0136114D01*
X0490323Y0136139D01*
X0490403Y0136163D01*
X0490416D01*
X0490441Y0136176D01*
X0490484Y0136182D01*
X0490546Y0136194D01*
X0490614Y0136207D01*
X0490688Y0136213D01*
X0490855Y0136225D01*
X0490942D01*
X0490985Y0136219D01*
D02*
G37*
G36*
X0498717Y0132647D02*
X0498314D01*
Y0133068D01*
X0498302D01*
Y0133062D01*
X0498289Y0133050D01*
X0498271Y0133025D01*
X0498252Y0132994D01*
X0498221Y0132957D01*
X0498184Y0132920D01*
X0498141Y0132876D01*
X0498091Y0132833D01*
X0498036Y0132784D01*
X0497968Y0132740D01*
X0497899Y0132703D01*
X0497819Y0132666D01*
X0497739Y0132635D01*
X0497646Y0132610D01*
X0497547Y0132598D01*
X0497441Y0132592D01*
X0497398D01*
X0497361Y0132598D01*
X0497324Y0132604D01*
X0497274Y0132610D01*
X0497169Y0132635D01*
X0497045Y0132672D01*
X0496921Y0132734D01*
X0496853Y0132771D01*
X0496798Y0132815D01*
X0496736Y0132870D01*
X0496680Y0132926D01*
Y0132932D01*
X0496668Y0132945D01*
X0496655Y0132963D01*
X0496637Y0132988D01*
X0496618Y0133019D01*
X0496593Y0133062D01*
X0496569Y0133112D01*
X0496544Y0133167D01*
X0496513Y0133229D01*
X0496488Y0133297D01*
X0496463Y0133372D01*
X0496445Y0133452D01*
X0496426Y0133539D01*
X0496414Y0133638D01*
X0496408Y0133737D01*
X0496402Y0133842D01*
Y0133848D01*
Y0133867D01*
Y0133904D01*
X0496408Y0133947D01*
X0496414Y0133997D01*
X0496420Y0134059D01*
X0496426Y0134127D01*
X0496439Y0134201D01*
X0496476Y0134362D01*
X0496531Y0134529D01*
X0496569Y0134610D01*
X0496612Y0134690D01*
X0496655Y0134764D01*
X0496711Y0134839D01*
X0496717Y0134845D01*
X0496723Y0134857D01*
X0496742Y0134876D01*
X0496767Y0134901D01*
X0496798Y0134925D01*
X0496841Y0134956D01*
X0496884Y0134993D01*
X0496934Y0135031D01*
X0497058Y0135099D01*
X0497200Y0135161D01*
X0497281Y0135179D01*
X0497367Y0135198D01*
X0497454Y0135210D01*
X0497553Y0135216D01*
X0497602D01*
X0497640Y0135210D01*
X0497677Y0135204D01*
X0497726Y0135198D01*
X0497838Y0135167D01*
X0497961Y0135117D01*
X0498023Y0135086D01*
X0498085Y0135043D01*
X0498147Y0135000D01*
X0498203Y0134944D01*
X0498252Y0134882D01*
X0498302Y0134808D01*
X0498314D01*
Y0136368D01*
X0498717D01*
Y0132647D01*
D02*
G37*
G36*
X0486770Y0135210D02*
X0486813Y0135204D01*
X0486857Y0135198D01*
X0486968Y0135173D01*
X0487092Y0135136D01*
X0487216Y0135074D01*
X0487277Y0135037D01*
X0487339Y0134987D01*
X0487395Y0134938D01*
X0487451Y0134876D01*
X0487457Y0134870D01*
X0487463Y0134863D01*
X0487475Y0134839D01*
X0487494Y0134814D01*
X0487513Y0134783D01*
X0487537Y0134740D01*
X0487562Y0134690D01*
X0487587Y0134641D01*
X0487612Y0134579D01*
X0487637Y0134511D01*
X0487661Y0134436D01*
X0487680Y0134356D01*
X0487711Y0134176D01*
X0487723Y0134077D01*
Y0133972D01*
Y0133966D01*
Y0133947D01*
Y0133910D01*
X0487717Y0133867D01*
Y0133817D01*
X0487705Y0133755D01*
X0487698Y0133687D01*
X0487686Y0133613D01*
X0487649Y0133452D01*
X0487593Y0133285D01*
X0487556Y0133204D01*
X0487519Y0133124D01*
X0487469Y0133044D01*
X0487414Y0132969D01*
X0487407Y0132963D01*
X0487401Y0132951D01*
X0487383Y0132932D01*
X0487358Y0132914D01*
X0487327Y0132883D01*
X0487290Y0132852D01*
X0487247Y0132815D01*
X0487197Y0132784D01*
X0487141Y0132747D01*
X0487079Y0132709D01*
X0486931Y0132654D01*
X0486850Y0132629D01*
X0486770Y0132610D01*
X0486677Y0132598D01*
X0486578Y0132592D01*
X0486528D01*
X0486497Y0132598D01*
X0486454Y0132604D01*
X0486411Y0132616D01*
X0486299Y0132641D01*
X0486182Y0132691D01*
X0486114Y0132728D01*
X0486052Y0132765D01*
X0485990Y0132815D01*
X0485934Y0132870D01*
X0485872Y0132932D01*
X0485823Y0133006D01*
X0485810D01*
Y0131496D01*
X0485408D01*
Y0135161D01*
X0485810D01*
Y0134715D01*
X0485823D01*
X0485829Y0134721D01*
X0485835Y0134740D01*
X0485854Y0134764D01*
X0485879Y0134795D01*
X0485910Y0134833D01*
X0485947Y0134876D01*
X0485990Y0134919D01*
X0486046Y0134969D01*
X0486101Y0135012D01*
X0486163Y0135055D01*
X0486237Y0135099D01*
X0486312Y0135136D01*
X0486399Y0135173D01*
X0486491Y0135198D01*
X0486584Y0135210D01*
X0486689Y0135216D01*
X0486739D01*
X0486770Y0135210D01*
D02*
G37*
G36*
X0515460D02*
X0515541Y0135204D01*
X0515628Y0135192D01*
X0515727Y0135167D01*
X0515826Y0135142D01*
X0515925Y0135105D01*
Y0134696D01*
X0515912Y0134703D01*
X0515875Y0134727D01*
X0515820Y0134752D01*
X0515745Y0134789D01*
X0515652Y0134820D01*
X0515541Y0134851D01*
X0515417Y0134870D01*
X0515287Y0134876D01*
X0515219D01*
X0515157Y0134863D01*
X0515083Y0134851D01*
X0515077D01*
X0515070Y0134845D01*
X0515033Y0134833D01*
X0514984Y0134808D01*
X0514928Y0134777D01*
X0514916Y0134771D01*
X0514891Y0134746D01*
X0514860Y0134709D01*
X0514829Y0134665D01*
X0514823Y0134653D01*
X0514811Y0134622D01*
X0514798Y0134579D01*
X0514792Y0134523D01*
Y0134517D01*
Y0134504D01*
Y0134486D01*
X0514798Y0134467D01*
X0514811Y0134412D01*
X0514829Y0134356D01*
X0514835Y0134344D01*
X0514854Y0134319D01*
X0514891Y0134282D01*
X0514934Y0134238D01*
X0514941D01*
X0514947Y0134232D01*
X0514984Y0134207D01*
X0515033Y0134176D01*
X0515101Y0134145D01*
X0515108D01*
X0515120Y0134139D01*
X0515139Y0134133D01*
X0515170Y0134121D01*
X0515238Y0134096D01*
X0515324Y0134059D01*
X0515331D01*
X0515355Y0134046D01*
X0515386Y0134034D01*
X0515423Y0134022D01*
X0515522Y0133978D01*
X0515622Y0133929D01*
X0515628D01*
X0515646Y0133916D01*
X0515671Y0133904D01*
X0515702Y0133885D01*
X0515776Y0133836D01*
X0515850Y0133774D01*
X0515857Y0133768D01*
X0515869Y0133762D01*
X0515881Y0133743D01*
X0515906Y0133718D01*
X0515949Y0133656D01*
X0515993Y0133576D01*
Y0133570D01*
X0515999Y0133557D01*
X0516011Y0133533D01*
X0516018Y0133502D01*
X0516030Y0133465D01*
X0516036Y0133421D01*
X0516042Y0133316D01*
Y0133310D01*
Y0133285D01*
X0516036Y0133248D01*
X0516030Y0133204D01*
X0516024Y0133155D01*
X0516005Y0133099D01*
X0515987Y0133050D01*
X0515956Y0132994D01*
X0515949Y0132988D01*
X0515943Y0132969D01*
X0515925Y0132945D01*
X0515900Y0132914D01*
X0515869Y0132876D01*
X0515832Y0132839D01*
X0515739Y0132765D01*
X0515733Y0132759D01*
X0515714Y0132753D01*
X0515690Y0132734D01*
X0515646Y0132715D01*
X0515603Y0132691D01*
X0515547Y0132672D01*
X0515491Y0132654D01*
X0515423Y0132635D01*
X0515417D01*
X0515392Y0132629D01*
X0515355Y0132623D01*
X0515312Y0132616D01*
X0515250Y0132604D01*
X0515188Y0132598D01*
X0515046Y0132592D01*
X0514984D01*
X0514910Y0132598D01*
X0514817Y0132610D01*
X0514712Y0132629D01*
X0514600Y0132654D01*
X0514489Y0132685D01*
X0514377Y0132734D01*
Y0133167D01*
X0514383D01*
X0514390Y0133155D01*
X0514408Y0133143D01*
X0514433Y0133130D01*
X0514501Y0133093D01*
X0514594Y0133050D01*
X0514699Y0133000D01*
X0514823Y0132963D01*
X0514959Y0132938D01*
X0515101Y0132926D01*
X0515151D01*
X0515182Y0132932D01*
X0515269Y0132945D01*
X0515368Y0132969D01*
X0515460Y0133013D01*
X0515504Y0133044D01*
X0515547Y0133074D01*
X0515578Y0133118D01*
X0515603Y0133161D01*
X0515622Y0133217D01*
X0515628Y0133279D01*
Y0133285D01*
Y0133297D01*
Y0133316D01*
X0515622Y0133335D01*
X0515609Y0133390D01*
X0515584Y0133446D01*
Y0133452D01*
X0515578Y0133458D01*
X0515553Y0133489D01*
X0515516Y0133533D01*
X0515460Y0133570D01*
X0515454D01*
X0515448Y0133582D01*
X0515411Y0133601D01*
X0515355Y0133638D01*
X0515281Y0133669D01*
X0515275D01*
X0515262Y0133675D01*
X0515244Y0133687D01*
X0515213Y0133700D01*
X0515145Y0133724D01*
X0515058Y0133762D01*
X0515052D01*
X0515027Y0133774D01*
X0514996Y0133786D01*
X0514959Y0133799D01*
X0514860Y0133842D01*
X0514761Y0133892D01*
X0514755Y0133898D01*
X0514743Y0133904D01*
X0514718Y0133916D01*
X0514687Y0133935D01*
X0514619Y0133984D01*
X0514551Y0134040D01*
X0514544Y0134046D01*
X0514538Y0134053D01*
X0514520Y0134071D01*
X0514501Y0134096D01*
X0514458Y0134158D01*
X0514421Y0134232D01*
Y0134238D01*
X0514414Y0134251D01*
X0514408Y0134275D01*
X0514402Y0134306D01*
X0514396Y0134344D01*
X0514390Y0134387D01*
X0514383Y0134492D01*
Y0134498D01*
Y0134523D01*
X0514390Y0134554D01*
X0514396Y0134597D01*
X0514402Y0134647D01*
X0514421Y0134696D01*
X0514439Y0134752D01*
X0514464Y0134801D01*
X0514470Y0134808D01*
X0514476Y0134826D01*
X0514495Y0134851D01*
X0514520Y0134882D01*
X0514588Y0134956D01*
X0514674Y0135031D01*
X0514681Y0135037D01*
X0514699Y0135043D01*
X0514724Y0135062D01*
X0514767Y0135080D01*
X0514811Y0135105D01*
X0514860Y0135130D01*
X0514984Y0135167D01*
X0514990D01*
X0515015Y0135173D01*
X0515046Y0135185D01*
X0515095Y0135192D01*
X0515145Y0135204D01*
X0515207Y0135210D01*
X0515343Y0135216D01*
X0515399D01*
X0515460Y0135210D01*
D02*
G37*
G36*
X0512106D02*
X0512186Y0135204D01*
X0512273Y0135192D01*
X0512372Y0135167D01*
X0512471Y0135142D01*
X0512570Y0135105D01*
Y0134696D01*
X0512557Y0134703D01*
X0512520Y0134727D01*
X0512465Y0134752D01*
X0512390Y0134789D01*
X0512297Y0134820D01*
X0512186Y0134851D01*
X0512062Y0134870D01*
X0511932Y0134876D01*
X0511864D01*
X0511802Y0134863D01*
X0511728Y0134851D01*
X0511722D01*
X0511716Y0134845D01*
X0511678Y0134833D01*
X0511629Y0134808D01*
X0511573Y0134777D01*
X0511561Y0134771D01*
X0511536Y0134746D01*
X0511505Y0134709D01*
X0511474Y0134665D01*
X0511468Y0134653D01*
X0511456Y0134622D01*
X0511443Y0134579D01*
X0511437Y0134523D01*
Y0134517D01*
Y0134504D01*
Y0134486D01*
X0511443Y0134467D01*
X0511456Y0134412D01*
X0511474Y0134356D01*
X0511480Y0134344D01*
X0511499Y0134319D01*
X0511536Y0134282D01*
X0511579Y0134238D01*
X0511586D01*
X0511592Y0134232D01*
X0511629Y0134207D01*
X0511678Y0134176D01*
X0511747Y0134145D01*
X0511753D01*
X0511765Y0134139D01*
X0511784Y0134133D01*
X0511815Y0134121D01*
X0511883Y0134096D01*
X0511969Y0134059D01*
X0511975D01*
X0512000Y0134046D01*
X0512031Y0134034D01*
X0512068Y0134022D01*
X0512167Y0133978D01*
X0512266Y0133929D01*
X0512273D01*
X0512291Y0133916D01*
X0512316Y0133904D01*
X0512347Y0133885D01*
X0512421Y0133836D01*
X0512496Y0133774D01*
X0512502Y0133768D01*
X0512514Y0133762D01*
X0512527Y0133743D01*
X0512551Y0133718D01*
X0512595Y0133656D01*
X0512638Y0133576D01*
Y0133570D01*
X0512644Y0133557D01*
X0512656Y0133533D01*
X0512663Y0133502D01*
X0512675Y0133465D01*
X0512681Y0133421D01*
X0512687Y0133316D01*
Y0133310D01*
Y0133285D01*
X0512681Y0133248D01*
X0512675Y0133204D01*
X0512669Y0133155D01*
X0512650Y0133099D01*
X0512632Y0133050D01*
X0512601Y0132994D01*
X0512595Y0132988D01*
X0512588Y0132969D01*
X0512570Y0132945D01*
X0512545Y0132914D01*
X0512514Y0132876D01*
X0512477Y0132839D01*
X0512384Y0132765D01*
X0512378Y0132759D01*
X0512359Y0132753D01*
X0512335Y0132734D01*
X0512291Y0132715D01*
X0512248Y0132691D01*
X0512192Y0132672D01*
X0512137Y0132654D01*
X0512068Y0132635D01*
X0512062D01*
X0512037Y0132629D01*
X0512000Y0132623D01*
X0511957Y0132616D01*
X0511895Y0132604D01*
X0511833Y0132598D01*
X0511691Y0132592D01*
X0511629D01*
X0511555Y0132598D01*
X0511462Y0132610D01*
X0511356Y0132629D01*
X0511245Y0132654D01*
X0511134Y0132685D01*
X0511022Y0132734D01*
Y0133167D01*
X0511028D01*
X0511035Y0133155D01*
X0511053Y0133143D01*
X0511078Y0133130D01*
X0511146Y0133093D01*
X0511239Y0133050D01*
X0511344Y0133000D01*
X0511468Y0132963D01*
X0511604Y0132938D01*
X0511747Y0132926D01*
X0511796D01*
X0511827Y0132932D01*
X0511914Y0132945D01*
X0512013Y0132969D01*
X0512106Y0133013D01*
X0512149Y0133044D01*
X0512192Y0133074D01*
X0512223Y0133118D01*
X0512248Y0133161D01*
X0512266Y0133217D01*
X0512273Y0133279D01*
Y0133285D01*
Y0133297D01*
Y0133316D01*
X0512266Y0133335D01*
X0512254Y0133390D01*
X0512229Y0133446D01*
Y0133452D01*
X0512223Y0133458D01*
X0512198Y0133489D01*
X0512161Y0133533D01*
X0512106Y0133570D01*
X0512099D01*
X0512093Y0133582D01*
X0512056Y0133601D01*
X0512000Y0133638D01*
X0511926Y0133669D01*
X0511920D01*
X0511907Y0133675D01*
X0511889Y0133687D01*
X0511858Y0133700D01*
X0511790Y0133724D01*
X0511703Y0133762D01*
X0511697D01*
X0511672Y0133774D01*
X0511641Y0133786D01*
X0511604Y0133799D01*
X0511505Y0133842D01*
X0511406Y0133892D01*
X0511400Y0133898D01*
X0511387Y0133904D01*
X0511363Y0133916D01*
X0511332Y0133935D01*
X0511264Y0133984D01*
X0511196Y0134040D01*
X0511189Y0134046D01*
X0511183Y0134053D01*
X0511165Y0134071D01*
X0511146Y0134096D01*
X0511103Y0134158D01*
X0511066Y0134232D01*
Y0134238D01*
X0511059Y0134251D01*
X0511053Y0134275D01*
X0511047Y0134306D01*
X0511041Y0134344D01*
X0511035Y0134387D01*
X0511028Y0134492D01*
Y0134498D01*
Y0134523D01*
X0511035Y0134554D01*
X0511041Y0134597D01*
X0511047Y0134647D01*
X0511066Y0134696D01*
X0511084Y0134752D01*
X0511109Y0134801D01*
X0511115Y0134808D01*
X0511121Y0134826D01*
X0511140Y0134851D01*
X0511165Y0134882D01*
X0511233Y0134956D01*
X0511319Y0135031D01*
X0511326Y0135037D01*
X0511344Y0135043D01*
X0511369Y0135062D01*
X0511412Y0135080D01*
X0511456Y0135105D01*
X0511505Y0135130D01*
X0511629Y0135167D01*
X0511635D01*
X0511660Y0135173D01*
X0511691Y0135185D01*
X0511740Y0135192D01*
X0511790Y0135204D01*
X0511852Y0135210D01*
X0511988Y0135216D01*
X0512044D01*
X0512106Y0135210D01*
D02*
G37*
G36*
X0507958Y0135198D02*
X0508033Y0135192D01*
X0508076Y0135179D01*
X0508107Y0135167D01*
Y0134752D01*
X0508101Y0134758D01*
X0508088Y0134764D01*
X0508064Y0134777D01*
X0508033Y0134795D01*
X0507989Y0134808D01*
X0507934Y0134820D01*
X0507872Y0134826D01*
X0507803Y0134833D01*
X0507791D01*
X0507760Y0134826D01*
X0507711Y0134820D01*
X0507655Y0134801D01*
X0507581Y0134771D01*
X0507513Y0134727D01*
X0507438Y0134665D01*
X0507370Y0134585D01*
X0507364Y0134573D01*
X0507345Y0134542D01*
X0507314Y0134486D01*
X0507283Y0134412D01*
X0507253Y0134319D01*
X0507222Y0134201D01*
X0507203Y0134071D01*
X0507197Y0133923D01*
Y0132647D01*
X0506795D01*
Y0135161D01*
X0507197D01*
Y0134641D01*
X0507209D01*
Y0134647D01*
X0507215Y0134653D01*
X0507228Y0134684D01*
X0507246Y0134733D01*
X0507277Y0134795D01*
X0507308Y0134857D01*
X0507358Y0134925D01*
X0507407Y0134993D01*
X0507469Y0135055D01*
X0507475Y0135062D01*
X0507500Y0135080D01*
X0507537Y0135105D01*
X0507587Y0135130D01*
X0507643Y0135154D01*
X0507711Y0135179D01*
X0507785Y0135198D01*
X0507865Y0135204D01*
X0507921D01*
X0507958Y0135198D01*
D02*
G37*
G36*
X0503322D02*
X0503396Y0135192D01*
X0503440Y0135179D01*
X0503471Y0135167D01*
Y0134752D01*
X0503464Y0134758D01*
X0503452Y0134764D01*
X0503427Y0134777D01*
X0503396Y0134795D01*
X0503353Y0134808D01*
X0503297Y0134820D01*
X0503235Y0134826D01*
X0503167Y0134833D01*
X0503155D01*
X0503124Y0134826D01*
X0503074Y0134820D01*
X0503019Y0134801D01*
X0502944Y0134771D01*
X0502876Y0134727D01*
X0502802Y0134665D01*
X0502734Y0134585D01*
X0502728Y0134573D01*
X0502709Y0134542D01*
X0502678Y0134486D01*
X0502647Y0134412D01*
X0502616Y0134319D01*
X0502585Y0134201D01*
X0502567Y0134071D01*
X0502561Y0133923D01*
Y0132647D01*
X0502158D01*
Y0135161D01*
X0502561D01*
Y0134641D01*
X0502573D01*
Y0134647D01*
X0502579Y0134653D01*
X0502592Y0134684D01*
X0502610Y0134733D01*
X0502641Y0134795D01*
X0502672Y0134857D01*
X0502722Y0134925D01*
X0502771Y0134993D01*
X0502833Y0135055D01*
X0502839Y0135062D01*
X0502864Y0135080D01*
X0502901Y0135105D01*
X0502950Y0135130D01*
X0503006Y0135154D01*
X0503074Y0135179D01*
X0503149Y0135198D01*
X0503229Y0135204D01*
X0503285D01*
X0503322Y0135198D01*
D02*
G37*
G36*
X0513709Y0132647D02*
X0513306D01*
Y0135161D01*
X0513709D01*
Y0132647D01*
D02*
G37*
G36*
X0495752D02*
X0495349D01*
Y0136368D01*
X0495752D01*
Y0132647D01*
D02*
G37*
G36*
X0481966Y0135792D02*
X0480951D01*
Y0132647D01*
X0480543D01*
Y0135792D01*
X0479528D01*
Y0136163D01*
X0481966D01*
Y0135792D01*
D02*
G37*
G36*
X0517194Y0135161D02*
X0517831D01*
Y0134814D01*
X0517194D01*
Y0133396D01*
Y0133384D01*
Y0133353D01*
X0517200Y0133310D01*
X0517206Y0133254D01*
X0517231Y0133136D01*
X0517249Y0133081D01*
X0517280Y0133037D01*
X0517287Y0133031D01*
X0517299Y0133019D01*
X0517317Y0133006D01*
X0517348Y0132988D01*
X0517386Y0132963D01*
X0517435Y0132951D01*
X0517497Y0132938D01*
X0517565Y0132932D01*
X0517590D01*
X0517621Y0132938D01*
X0517658Y0132945D01*
X0517745Y0132969D01*
X0517788Y0132988D01*
X0517831Y0133013D01*
Y0132666D01*
X0517825D01*
X0517806Y0132654D01*
X0517776Y0132647D01*
X0517732Y0132635D01*
X0517676Y0132623D01*
X0517615Y0132610D01*
X0517540Y0132604D01*
X0517454Y0132598D01*
X0517423D01*
X0517392Y0132604D01*
X0517348Y0132610D01*
X0517299Y0132623D01*
X0517243Y0132635D01*
X0517188Y0132660D01*
X0517126Y0132691D01*
X0517064Y0132728D01*
X0517002Y0132777D01*
X0516946Y0132833D01*
X0516897Y0132907D01*
X0516853Y0132988D01*
X0516822Y0133087D01*
X0516797Y0133198D01*
X0516791Y0133328D01*
Y0134814D01*
X0516364D01*
Y0135161D01*
X0516791D01*
Y0135773D01*
X0517194Y0135903D01*
Y0135161D01*
D02*
G37*
G36*
X0509611Y0135210D02*
X0509654Y0135204D01*
X0509698Y0135198D01*
X0509809Y0135179D01*
X0509933Y0135136D01*
X0510057Y0135080D01*
X0510118Y0135043D01*
X0510180Y0135000D01*
X0510236Y0134950D01*
X0510292Y0134894D01*
X0510298Y0134888D01*
X0510304Y0134882D01*
X0510317Y0134863D01*
X0510335Y0134839D01*
X0510354Y0134801D01*
X0510379Y0134764D01*
X0510403Y0134721D01*
X0510428Y0134665D01*
X0510453Y0134604D01*
X0510478Y0134542D01*
X0510502Y0134467D01*
X0510521Y0134387D01*
X0510539Y0134300D01*
X0510552Y0134213D01*
X0510564Y0134115D01*
Y0134009D01*
Y0133799D01*
X0508788D01*
Y0133793D01*
Y0133780D01*
Y0133762D01*
X0508794Y0133731D01*
X0508800Y0133694D01*
Y0133656D01*
X0508819Y0133557D01*
X0508850Y0133458D01*
X0508887Y0133347D01*
X0508942Y0133242D01*
X0509011Y0133149D01*
X0509023Y0133136D01*
X0509048Y0133112D01*
X0509097Y0133081D01*
X0509165Y0133037D01*
X0509252Y0132994D01*
X0509351Y0132963D01*
X0509469Y0132938D01*
X0509605Y0132926D01*
X0509648D01*
X0509679Y0132932D01*
X0509716D01*
X0509760Y0132938D01*
X0509865Y0132963D01*
X0509982Y0132994D01*
X0510112Y0133044D01*
X0510249Y0133112D01*
X0510317Y0133155D01*
X0510385Y0133204D01*
Y0132827D01*
X0510379D01*
X0510372Y0132815D01*
X0510354Y0132808D01*
X0510323Y0132790D01*
X0510292Y0132771D01*
X0510255Y0132753D01*
X0510205Y0132734D01*
X0510156Y0132709D01*
X0510094Y0132685D01*
X0510026Y0132666D01*
X0509877Y0132629D01*
X0509704Y0132604D01*
X0509512Y0132592D01*
X0509462D01*
X0509425Y0132598D01*
X0509382Y0132604D01*
X0509326Y0132610D01*
X0509209Y0132635D01*
X0509072Y0132672D01*
X0508936Y0132734D01*
X0508868Y0132777D01*
X0508800Y0132821D01*
X0508738Y0132870D01*
X0508676Y0132932D01*
X0508670Y0132938D01*
X0508664Y0132951D01*
X0508651Y0132969D01*
X0508627Y0132994D01*
X0508608Y0133031D01*
X0508583Y0133074D01*
X0508553Y0133124D01*
X0508528Y0133180D01*
X0508497Y0133242D01*
X0508472Y0133316D01*
X0508441Y0133396D01*
X0508423Y0133483D01*
X0508404Y0133576D01*
X0508385Y0133675D01*
X0508379Y0133780D01*
X0508373Y0133892D01*
Y0133898D01*
Y0133916D01*
Y0133947D01*
X0508379Y0133991D01*
X0508385Y0134040D01*
X0508392Y0134096D01*
X0508398Y0134164D01*
X0508416Y0134232D01*
X0508453Y0134381D01*
X0508509Y0134542D01*
X0508546Y0134622D01*
X0508596Y0134696D01*
X0508645Y0134777D01*
X0508701Y0134845D01*
X0508707Y0134851D01*
X0508720Y0134863D01*
X0508738Y0134882D01*
X0508763Y0134901D01*
X0508794Y0134932D01*
X0508831Y0134962D01*
X0508881Y0134993D01*
X0508930Y0135031D01*
X0509048Y0135099D01*
X0509190Y0135161D01*
X0509270Y0135179D01*
X0509351Y0135198D01*
X0509438Y0135210D01*
X0509530Y0135216D01*
X0509580D01*
X0509611Y0135210D01*
D02*
G37*
G36*
X0500598D02*
X0500642Y0135204D01*
X0500685Y0135198D01*
X0500796Y0135179D01*
X0500920Y0135136D01*
X0501044Y0135080D01*
X0501106Y0135043D01*
X0501168Y0135000D01*
X0501224Y0134950D01*
X0501279Y0134894D01*
X0501285Y0134888D01*
X0501292Y0134882D01*
X0501304Y0134863D01*
X0501323Y0134839D01*
X0501341Y0134801D01*
X0501366Y0134764D01*
X0501391Y0134721D01*
X0501415Y0134665D01*
X0501440Y0134604D01*
X0501465Y0134542D01*
X0501490Y0134467D01*
X0501508Y0134387D01*
X0501527Y0134300D01*
X0501539Y0134213D01*
X0501552Y0134115D01*
Y0134009D01*
Y0133799D01*
X0499775D01*
Y0133793D01*
Y0133780D01*
Y0133762D01*
X0499781Y0133731D01*
X0499787Y0133694D01*
Y0133656D01*
X0499806Y0133557D01*
X0499837Y0133458D01*
X0499874Y0133347D01*
X0499930Y0133242D01*
X0499998Y0133149D01*
X0500010Y0133136D01*
X0500035Y0133112D01*
X0500085Y0133081D01*
X0500153Y0133037D01*
X0500239Y0132994D01*
X0500338Y0132963D01*
X0500456Y0132938D01*
X0500592Y0132926D01*
X0500635D01*
X0500666Y0132932D01*
X0500703D01*
X0500747Y0132938D01*
X0500852Y0132963D01*
X0500970Y0132994D01*
X0501100Y0133044D01*
X0501236Y0133112D01*
X0501304Y0133155D01*
X0501372Y0133204D01*
Y0132827D01*
X0501366D01*
X0501360Y0132815D01*
X0501341Y0132808D01*
X0501310Y0132790D01*
X0501279Y0132771D01*
X0501242Y0132753D01*
X0501193Y0132734D01*
X0501143Y0132709D01*
X0501081Y0132685D01*
X0501013Y0132666D01*
X0500865Y0132629D01*
X0500691Y0132604D01*
X0500499Y0132592D01*
X0500450D01*
X0500413Y0132598D01*
X0500369Y0132604D01*
X0500314Y0132610D01*
X0500196Y0132635D01*
X0500060Y0132672D01*
X0499924Y0132734D01*
X0499856Y0132777D01*
X0499787Y0132821D01*
X0499725Y0132870D01*
X0499664Y0132932D01*
X0499657Y0132938D01*
X0499651Y0132951D01*
X0499639Y0132969D01*
X0499614Y0132994D01*
X0499595Y0133031D01*
X0499571Y0133074D01*
X0499540Y0133124D01*
X0499515Y0133180D01*
X0499484Y0133242D01*
X0499459Y0133316D01*
X0499428Y0133396D01*
X0499410Y0133483D01*
X0499391Y0133576D01*
X0499373Y0133675D01*
X0499367Y0133780D01*
X0499360Y0133892D01*
Y0133898D01*
Y0133916D01*
Y0133947D01*
X0499367Y0133991D01*
X0499373Y0134040D01*
X0499379Y0134096D01*
X0499385Y0134164D01*
X0499404Y0134232D01*
X0499441Y0134381D01*
X0499497Y0134542D01*
X0499534Y0134622D01*
X0499583Y0134696D01*
X0499633Y0134777D01*
X0499688Y0134845D01*
X0499695Y0134851D01*
X0499707Y0134863D01*
X0499725Y0134882D01*
X0499750Y0134901D01*
X0499781Y0134932D01*
X0499818Y0134962D01*
X0499868Y0134993D01*
X0499917Y0135031D01*
X0500035Y0135099D01*
X0500177Y0135161D01*
X0500258Y0135179D01*
X0500338Y0135198D01*
X0500425Y0135210D01*
X0500518Y0135216D01*
X0500567D01*
X0500598Y0135210D01*
D02*
G37*
G36*
X0493610D02*
X0493653Y0135204D01*
X0493709Y0135198D01*
X0493833Y0135173D01*
X0493975Y0135130D01*
X0494117Y0135068D01*
X0494192Y0135031D01*
X0494260Y0134987D01*
X0494328Y0134932D01*
X0494390Y0134870D01*
X0494396Y0134863D01*
X0494402Y0134851D01*
X0494421Y0134833D01*
X0494439Y0134808D01*
X0494464Y0134771D01*
X0494489Y0134727D01*
X0494520Y0134678D01*
X0494551Y0134622D01*
X0494576Y0134554D01*
X0494606Y0134486D01*
X0494631Y0134405D01*
X0494656Y0134319D01*
X0494674Y0134226D01*
X0494693Y0134127D01*
X0494699Y0134022D01*
X0494705Y0133910D01*
Y0133904D01*
Y0133885D01*
Y0133854D01*
X0494699Y0133811D01*
X0494693Y0133762D01*
X0494687Y0133700D01*
X0494674Y0133638D01*
X0494662Y0133563D01*
X0494625Y0133415D01*
X0494563Y0133254D01*
X0494526Y0133174D01*
X0494476Y0133093D01*
X0494427Y0133019D01*
X0494365Y0132951D01*
X0494359Y0132945D01*
X0494346Y0132938D01*
X0494328Y0132920D01*
X0494303Y0132895D01*
X0494266Y0132870D01*
X0494229Y0132839D01*
X0494179Y0132802D01*
X0494124Y0132771D01*
X0494062Y0132740D01*
X0493994Y0132703D01*
X0493919Y0132672D01*
X0493839Y0132647D01*
X0493752Y0132623D01*
X0493659Y0132610D01*
X0493560Y0132598D01*
X0493455Y0132592D01*
X0493399D01*
X0493362Y0132598D01*
X0493319Y0132604D01*
X0493263Y0132610D01*
X0493201Y0132623D01*
X0493133Y0132635D01*
X0492991Y0132678D01*
X0492842Y0132740D01*
X0492768Y0132777D01*
X0492700Y0132827D01*
X0492632Y0132876D01*
X0492564Y0132938D01*
X0492557Y0132945D01*
X0492551Y0132957D01*
X0492533Y0132975D01*
X0492514Y0133000D01*
X0492489Y0133037D01*
X0492458Y0133081D01*
X0492427Y0133130D01*
X0492403Y0133186D01*
X0492372Y0133254D01*
X0492341Y0133322D01*
X0492310Y0133396D01*
X0492285Y0133483D01*
X0492248Y0133669D01*
X0492242Y0133768D01*
X0492236Y0133873D01*
Y0133879D01*
Y0133904D01*
Y0133935D01*
X0492242Y0133978D01*
X0492248Y0134028D01*
X0492254Y0134090D01*
X0492267Y0134158D01*
X0492279Y0134232D01*
X0492316Y0134393D01*
X0492378Y0134554D01*
X0492421Y0134634D01*
X0492465Y0134715D01*
X0492514Y0134789D01*
X0492576Y0134857D01*
X0492582Y0134863D01*
X0492595Y0134876D01*
X0492613Y0134888D01*
X0492638Y0134913D01*
X0492675Y0134938D01*
X0492719Y0134969D01*
X0492768Y0135006D01*
X0492824Y0135037D01*
X0492886Y0135068D01*
X0492960Y0135105D01*
X0493034Y0135136D01*
X0493121Y0135161D01*
X0493208Y0135185D01*
X0493306Y0135204D01*
X0493412Y0135210D01*
X0493517Y0135216D01*
X0493573D01*
X0493610Y0135210D01*
D02*
G37*
G36*
X0483669D02*
X0483712Y0135204D01*
X0483768Y0135198D01*
X0483891Y0135173D01*
X0484034Y0135130D01*
X0484176Y0135068D01*
X0484250Y0135031D01*
X0484319Y0134987D01*
X0484387Y0134932D01*
X0484449Y0134870D01*
X0484455Y0134863D01*
X0484461Y0134851D01*
X0484480Y0134833D01*
X0484498Y0134808D01*
X0484523Y0134771D01*
X0484548Y0134727D01*
X0484579Y0134678D01*
X0484610Y0134622D01*
X0484634Y0134554D01*
X0484665Y0134486D01*
X0484690Y0134405D01*
X0484715Y0134319D01*
X0484733Y0134226D01*
X0484752Y0134127D01*
X0484758Y0134022D01*
X0484764Y0133910D01*
Y0133904D01*
Y0133885D01*
Y0133854D01*
X0484758Y0133811D01*
X0484752Y0133762D01*
X0484746Y0133700D01*
X0484733Y0133638D01*
X0484721Y0133563D01*
X0484684Y0133415D01*
X0484622Y0133254D01*
X0484585Y0133174D01*
X0484535Y0133093D01*
X0484486Y0133019D01*
X0484424Y0132951D01*
X0484418Y0132945D01*
X0484405Y0132938D01*
X0484387Y0132920D01*
X0484362Y0132895D01*
X0484325Y0132870D01*
X0484288Y0132839D01*
X0484238Y0132802D01*
X0484182Y0132771D01*
X0484121Y0132740D01*
X0484053Y0132703D01*
X0483978Y0132672D01*
X0483898Y0132647D01*
X0483811Y0132623D01*
X0483718Y0132610D01*
X0483619Y0132598D01*
X0483514Y0132592D01*
X0483458D01*
X0483421Y0132598D01*
X0483378Y0132604D01*
X0483322Y0132610D01*
X0483260Y0132623D01*
X0483192Y0132635D01*
X0483050Y0132678D01*
X0482901Y0132740D01*
X0482827Y0132777D01*
X0482759Y0132827D01*
X0482691Y0132876D01*
X0482623Y0132938D01*
X0482616Y0132945D01*
X0482610Y0132957D01*
X0482592Y0132975D01*
X0482573Y0133000D01*
X0482548Y0133037D01*
X0482517Y0133081D01*
X0482486Y0133130D01*
X0482462Y0133186D01*
X0482431Y0133254D01*
X0482400Y0133322D01*
X0482369Y0133396D01*
X0482344Y0133483D01*
X0482307Y0133669D01*
X0482301Y0133768D01*
X0482295Y0133873D01*
Y0133879D01*
Y0133904D01*
Y0133935D01*
X0482301Y0133978D01*
X0482307Y0134028D01*
X0482313Y0134090D01*
X0482325Y0134158D01*
X0482338Y0134232D01*
X0482375Y0134393D01*
X0482437Y0134554D01*
X0482480Y0134634D01*
X0482523Y0134715D01*
X0482573Y0134789D01*
X0482635Y0134857D01*
X0482641Y0134863D01*
X0482654Y0134876D01*
X0482672Y0134888D01*
X0482697Y0134913D01*
X0482734Y0134938D01*
X0482777Y0134969D01*
X0482827Y0135006D01*
X0482882Y0135037D01*
X0482944Y0135068D01*
X0483019Y0135105D01*
X0483093Y0135136D01*
X0483180Y0135161D01*
X0483266Y0135185D01*
X0483365Y0135204D01*
X0483471Y0135210D01*
X0483576Y0135216D01*
X0483632D01*
X0483669Y0135210D01*
D02*
G37*
G36*
X0518382Y0136151D02*
X0518407Y0136120D01*
X0518444Y0136071D01*
X0518494Y0136002D01*
X0518555Y0135916D01*
X0518617Y0135810D01*
X0518685Y0135693D01*
X0518760Y0135557D01*
X0518834Y0135402D01*
X0518902Y0135235D01*
X0518964Y0135055D01*
X0519026Y0134863D01*
X0519075Y0134659D01*
X0519113Y0134449D01*
X0519137Y0134220D01*
X0519144Y0133984D01*
Y0133978D01*
Y0133972D01*
Y0133953D01*
Y0133929D01*
Y0133898D01*
X0519137Y0133861D01*
X0519131Y0133774D01*
X0519119Y0133663D01*
X0519100Y0133539D01*
X0519082Y0133396D01*
X0519051Y0133242D01*
X0519007Y0133074D01*
X0518958Y0132907D01*
X0518896Y0132728D01*
X0518822Y0132548D01*
X0518735Y0132369D01*
X0518630Y0132189D01*
X0518512Y0132016D01*
X0518376Y0131849D01*
X0518017D01*
X0518023Y0131861D01*
X0518048Y0131892D01*
X0518085Y0131942D01*
X0518135Y0132010D01*
X0518196Y0132097D01*
X0518258Y0132202D01*
X0518327Y0132325D01*
X0518401Y0132462D01*
X0518475Y0132610D01*
X0518543Y0132777D01*
X0518605Y0132951D01*
X0518667Y0133136D01*
X0518716Y0133341D01*
X0518754Y0133545D01*
X0518778Y0133768D01*
X0518785Y0133991D01*
Y0133997D01*
Y0134003D01*
Y0134022D01*
Y0134046D01*
X0518778Y0134108D01*
X0518772Y0134201D01*
X0518760Y0134306D01*
X0518741Y0134430D01*
X0518723Y0134573D01*
X0518685Y0134727D01*
X0518648Y0134894D01*
X0518599Y0135068D01*
X0518531Y0135247D01*
X0518457Y0135427D01*
X0518370Y0135619D01*
X0518265Y0135804D01*
X0518147Y0135984D01*
X0518011Y0136163D01*
X0518376D01*
X0518382Y0136151D01*
D02*
G37*
G36*
X0506336D02*
X0506312Y0136120D01*
X0506268Y0136071D01*
X0506225Y0135996D01*
X0506163Y0135909D01*
X0506095Y0135804D01*
X0506027Y0135680D01*
X0505959Y0135544D01*
X0505885Y0135390D01*
X0505817Y0135222D01*
X0505748Y0135043D01*
X0505693Y0134851D01*
X0505643Y0134653D01*
X0505600Y0134442D01*
X0505575Y0134220D01*
X0505569Y0133991D01*
Y0133984D01*
Y0133978D01*
Y0133960D01*
Y0133935D01*
X0505575Y0133873D01*
X0505581Y0133786D01*
X0505594Y0133681D01*
X0505612Y0133557D01*
X0505631Y0133415D01*
X0505668Y0133266D01*
X0505705Y0133099D01*
X0505755Y0132932D01*
X0505817Y0132753D01*
X0505891Y0132573D01*
X0505984Y0132387D01*
X0506083Y0132202D01*
X0506200Y0132022D01*
X0506336Y0131849D01*
X0505977D01*
X0505971Y0131861D01*
X0505946Y0131886D01*
X0505909Y0131936D01*
X0505860Y0132004D01*
X0505804Y0132090D01*
X0505736Y0132189D01*
X0505668Y0132307D01*
X0505600Y0132443D01*
X0505526Y0132592D01*
X0505457Y0132753D01*
X0505396Y0132926D01*
X0505334Y0133118D01*
X0505284Y0133316D01*
X0505247Y0133526D01*
X0505222Y0133749D01*
X0505216Y0133984D01*
Y0133991D01*
Y0133997D01*
Y0134015D01*
Y0134040D01*
X0505222Y0134071D01*
Y0134108D01*
X0505228Y0134201D01*
X0505241Y0134306D01*
X0505259Y0134436D01*
X0505278Y0134579D01*
X0505309Y0134740D01*
X0505352Y0134907D01*
X0505402Y0135080D01*
X0505464Y0135260D01*
X0505538Y0135445D01*
X0505625Y0135631D01*
X0505724Y0135810D01*
X0505841Y0135990D01*
X0505977Y0136163D01*
X0506343D01*
X0506336Y0136151D01*
D02*
G37*
%LPC*%
G36*
X0490632Y0173938D02*
X0490595D01*
X0490570Y0173932D01*
X0490502Y0173925D01*
X0490422Y0173907D01*
X0490329Y0173870D01*
X0490230Y0173820D01*
X0490137Y0173758D01*
X0490094Y0173715D01*
X0490051Y0173665D01*
X0490044Y0173653D01*
X0490020Y0173616D01*
X0489983Y0173554D01*
X0489945Y0173473D01*
X0489908Y0173368D01*
X0489871Y0173238D01*
X0489846Y0173090D01*
X0489840Y0172923D01*
Y0172916D01*
Y0172904D01*
Y0172879D01*
X0489846Y0172848D01*
Y0172817D01*
X0489853Y0172774D01*
X0489865Y0172675D01*
X0489890Y0172564D01*
X0489927Y0172452D01*
X0489976Y0172341D01*
X0490044Y0172235D01*
X0490057Y0172223D01*
X0490082Y0172198D01*
X0490125Y0172155D01*
X0490187Y0172112D01*
X0490267Y0172068D01*
X0490360Y0172025D01*
X0490465Y0172000D01*
X0490589Y0171988D01*
X0490620D01*
X0490645Y0171994D01*
X0490707Y0172000D01*
X0490781Y0172019D01*
X0490868Y0172050D01*
X0490961Y0172087D01*
X0491047Y0172149D01*
X0491134Y0172229D01*
X0491140Y0172242D01*
X0491165Y0172273D01*
X0491202Y0172328D01*
X0491239Y0172396D01*
X0491276Y0172483D01*
X0491313Y0172588D01*
X0491338Y0172712D01*
X0491344Y0172842D01*
Y0173213D01*
Y0173220D01*
Y0173226D01*
Y0173263D01*
X0491332Y0173319D01*
X0491320Y0173393D01*
X0491295Y0173473D01*
X0491258Y0173560D01*
X0491208Y0173647D01*
X0491140Y0173727D01*
X0491134Y0173733D01*
X0491103Y0173758D01*
X0491059Y0173795D01*
X0491004Y0173832D01*
X0490930Y0173870D01*
X0490843Y0173907D01*
X0490744Y0173932D01*
X0490632Y0173938D01*
D02*
G37*
G36*
X0486696Y0172978D02*
X0486089Y0172892D01*
X0486077D01*
X0486046Y0172885D01*
X0485996Y0172873D01*
X0485934Y0172861D01*
X0485866Y0172842D01*
X0485792Y0172817D01*
X0485730Y0172792D01*
X0485668Y0172755D01*
X0485662Y0172749D01*
X0485643Y0172737D01*
X0485625Y0172712D01*
X0485600Y0172675D01*
X0485569Y0172625D01*
X0485550Y0172564D01*
X0485532Y0172489D01*
X0485526Y0172403D01*
Y0172396D01*
Y0172372D01*
X0485532Y0172341D01*
X0485544Y0172297D01*
X0485557Y0172248D01*
X0485581Y0172198D01*
X0485612Y0172149D01*
X0485656Y0172099D01*
X0485662Y0172093D01*
X0485680Y0172081D01*
X0485711Y0172062D01*
X0485748Y0172044D01*
X0485798Y0172025D01*
X0485860Y0172006D01*
X0485928Y0171994D01*
X0486009Y0171988D01*
X0486021D01*
X0486058Y0171994D01*
X0486114Y0172000D01*
X0486182Y0172013D01*
X0486256Y0172037D01*
X0486343Y0172074D01*
X0486423Y0172130D01*
X0486497Y0172198D01*
X0486504Y0172211D01*
X0486528Y0172235D01*
X0486559Y0172279D01*
X0486596Y0172341D01*
X0486634Y0172421D01*
X0486665Y0172508D01*
X0486689Y0172613D01*
X0486696Y0172724D01*
Y0172978D01*
D02*
G37*
G36*
X0480413Y0174854D02*
X0479942D01*
Y0173715D01*
X0480419D01*
X0480481Y0173721D01*
X0480555Y0173733D01*
X0480642Y0173752D01*
X0480735Y0173783D01*
X0480815Y0173820D01*
X0480896Y0173876D01*
X0480902Y0173882D01*
X0480927Y0173907D01*
X0480957Y0173944D01*
X0480995Y0174000D01*
X0481026Y0174062D01*
X0481056Y0174142D01*
X0481081Y0174235D01*
X0481087Y0174340D01*
Y0174346D01*
Y0174365D01*
X0481081Y0174390D01*
X0481075Y0174420D01*
X0481050Y0174501D01*
X0481032Y0174550D01*
X0481001Y0174600D01*
X0480970Y0174643D01*
X0480920Y0174693D01*
X0480871Y0174736D01*
X0480803Y0174773D01*
X0480728Y0174804D01*
X0480636Y0174829D01*
X0480530Y0174848D01*
X0480413Y0174854D01*
D02*
G37*
G36*
Y0173343D02*
X0479942D01*
Y0172081D01*
X0480561D01*
X0480623Y0172087D01*
X0480710Y0172099D01*
X0480796Y0172124D01*
X0480889Y0172149D01*
X0480982Y0172192D01*
X0481063Y0172248D01*
X0481069Y0172254D01*
X0481094Y0172279D01*
X0481125Y0172316D01*
X0481162Y0172372D01*
X0481199Y0172440D01*
X0481230Y0172520D01*
X0481255Y0172619D01*
X0481261Y0172724D01*
Y0172731D01*
Y0172749D01*
X0481255Y0172780D01*
X0481248Y0172824D01*
X0481236Y0172867D01*
X0481217Y0172923D01*
X0481193Y0172978D01*
X0481155Y0173034D01*
X0481112Y0173090D01*
X0481056Y0173145D01*
X0480988Y0173201D01*
X0480902Y0173244D01*
X0480809Y0173288D01*
X0480691Y0173319D01*
X0480561Y0173337D01*
X0480413Y0173343D01*
D02*
G37*
G36*
X0508540Y0173938D02*
X0508491D01*
X0508441Y0173925D01*
X0508373Y0173913D01*
X0508299Y0173888D01*
X0508212Y0173851D01*
X0508132Y0173802D01*
X0508051Y0173733D01*
X0508045Y0173727D01*
X0508020Y0173696D01*
X0507989Y0173653D01*
X0507946Y0173591D01*
X0507902Y0173517D01*
X0507865Y0173424D01*
X0507834Y0173319D01*
X0507810Y0173201D01*
X0509165D01*
Y0173207D01*
Y0173220D01*
Y0173232D01*
Y0173257D01*
X0509159Y0173325D01*
X0509147Y0173399D01*
X0509122Y0173492D01*
X0509097Y0173579D01*
X0509054Y0173665D01*
X0508998Y0173746D01*
X0508992Y0173752D01*
X0508967Y0173777D01*
X0508930Y0173808D01*
X0508881Y0173845D01*
X0508812Y0173876D01*
X0508732Y0173907D01*
X0508645Y0173932D01*
X0508540Y0173938D01*
D02*
G37*
G36*
X0495436Y0174909D02*
X0495380D01*
X0495343Y0174903D01*
X0495294Y0174897D01*
X0495244Y0174891D01*
X0495182Y0174879D01*
X0495114Y0174860D01*
X0494972Y0174811D01*
X0494897Y0174779D01*
X0494817Y0174742D01*
X0494743Y0174693D01*
X0494668Y0174637D01*
X0494600Y0174575D01*
X0494532Y0174507D01*
X0494526Y0174501D01*
X0494520Y0174489D01*
X0494501Y0174464D01*
X0494476Y0174433D01*
X0494452Y0174396D01*
X0494427Y0174346D01*
X0494396Y0174291D01*
X0494365Y0174229D01*
X0494328Y0174154D01*
X0494297Y0174080D01*
X0494272Y0173993D01*
X0494247Y0173900D01*
X0494223Y0173802D01*
X0494204Y0173690D01*
X0494198Y0173579D01*
X0494192Y0173461D01*
Y0173455D01*
Y0173430D01*
Y0173399D01*
X0494198Y0173356D01*
X0494204Y0173300D01*
X0494210Y0173232D01*
X0494223Y0173164D01*
X0494235Y0173090D01*
X0494272Y0172923D01*
X0494334Y0172743D01*
X0494371Y0172656D01*
X0494415Y0172576D01*
X0494470Y0172489D01*
X0494526Y0172415D01*
X0494532Y0172409D01*
X0494545Y0172396D01*
X0494563Y0172378D01*
X0494588Y0172353D01*
X0494619Y0172322D01*
X0494662Y0172291D01*
X0494712Y0172254D01*
X0494761Y0172217D01*
X0494823Y0172180D01*
X0494891Y0172143D01*
X0495040Y0172081D01*
X0495126Y0172056D01*
X0495213Y0172037D01*
X0495306Y0172025D01*
X0495405Y0172019D01*
X0495461D01*
X0495504Y0172025D01*
X0495547Y0172031D01*
X0495609Y0172037D01*
X0495671Y0172050D01*
X0495739Y0172068D01*
X0495882Y0172112D01*
X0495962Y0172143D01*
X0496036Y0172180D01*
X0496111Y0172223D01*
X0496185Y0172273D01*
X0496253Y0172328D01*
X0496321Y0172396D01*
X0496327Y0172403D01*
X0496333Y0172415D01*
X0496352Y0172433D01*
X0496371Y0172465D01*
X0496402Y0172508D01*
X0496426Y0172551D01*
X0496457Y0172607D01*
X0496488Y0172669D01*
X0496519Y0172743D01*
X0496550Y0172824D01*
X0496581Y0172910D01*
X0496606Y0173003D01*
X0496624Y0173102D01*
X0496643Y0173213D01*
X0496649Y0173331D01*
X0496655Y0173455D01*
Y0173461D01*
Y0173486D01*
Y0173523D01*
X0496649Y0173566D01*
X0496643Y0173628D01*
X0496637Y0173696D01*
X0496630Y0173770D01*
X0496612Y0173851D01*
X0496575Y0174018D01*
X0496519Y0174198D01*
X0496482Y0174284D01*
X0496439Y0174371D01*
X0496383Y0174451D01*
X0496327Y0174526D01*
X0496321Y0174532D01*
X0496315Y0174544D01*
X0496296Y0174563D01*
X0496265Y0174588D01*
X0496234Y0174612D01*
X0496197Y0174650D01*
X0496148Y0174680D01*
X0496098Y0174718D01*
X0496036Y0174755D01*
X0495968Y0174786D01*
X0495894Y0174823D01*
X0495814Y0174848D01*
X0495727Y0174872D01*
X0495640Y0174891D01*
X0495541Y0174903D01*
X0495436Y0174909D01*
D02*
G37*
G36*
X0483433Y0173938D02*
X0483396D01*
X0483372Y0173932D01*
X0483297Y0173925D01*
X0483211Y0173907D01*
X0483112Y0173876D01*
X0483006Y0173826D01*
X0482907Y0173758D01*
X0482858Y0173721D01*
X0482815Y0173671D01*
X0482802Y0173659D01*
X0482777Y0173622D01*
X0482746Y0173566D01*
X0482703Y0173486D01*
X0482660Y0173381D01*
X0482629Y0173257D01*
X0482604Y0173114D01*
X0482592Y0172947D01*
Y0172941D01*
Y0172929D01*
Y0172904D01*
X0482598Y0172873D01*
Y0172836D01*
X0482604Y0172792D01*
X0482623Y0172694D01*
X0482647Y0172582D01*
X0482691Y0172465D01*
X0482746Y0172347D01*
X0482821Y0172242D01*
X0482833Y0172229D01*
X0482864Y0172204D01*
X0482913Y0172161D01*
X0482982Y0172118D01*
X0483068Y0172068D01*
X0483174Y0172025D01*
X0483297Y0172000D01*
X0483433Y0171988D01*
X0483471D01*
X0483495Y0171994D01*
X0483570Y0172000D01*
X0483656Y0172019D01*
X0483749Y0172050D01*
X0483854Y0172093D01*
X0483947Y0172155D01*
X0484034Y0172235D01*
X0484040Y0172248D01*
X0484065Y0172285D01*
X0484102Y0172341D01*
X0484139Y0172421D01*
X0484176Y0172526D01*
X0484213Y0172650D01*
X0484238Y0172792D01*
X0484244Y0172960D01*
Y0172966D01*
Y0172978D01*
Y0173003D01*
Y0173040D01*
X0484238Y0173077D01*
X0484232Y0173121D01*
X0484220Y0173226D01*
X0484195Y0173343D01*
X0484158Y0173461D01*
X0484102Y0173579D01*
X0484034Y0173684D01*
X0484022Y0173696D01*
X0483997Y0173721D01*
X0483947Y0173764D01*
X0483879Y0173814D01*
X0483792Y0173857D01*
X0483693Y0173900D01*
X0483570Y0173925D01*
X0483433Y0173938D01*
D02*
G37*
G36*
X0497602Y0134876D02*
X0497565D01*
X0497541Y0134870D01*
X0497472Y0134863D01*
X0497392Y0134845D01*
X0497299Y0134808D01*
X0497200Y0134758D01*
X0497107Y0134696D01*
X0497064Y0134653D01*
X0497020Y0134604D01*
X0497014Y0134591D01*
X0496989Y0134554D01*
X0496952Y0134492D01*
X0496915Y0134412D01*
X0496878Y0134306D01*
X0496841Y0134176D01*
X0496816Y0134028D01*
X0496810Y0133861D01*
Y0133854D01*
Y0133842D01*
Y0133817D01*
X0496816Y0133786D01*
Y0133755D01*
X0496822Y0133712D01*
X0496835Y0133613D01*
X0496860Y0133502D01*
X0496897Y0133390D01*
X0496946Y0133279D01*
X0497014Y0133174D01*
X0497027Y0133161D01*
X0497051Y0133136D01*
X0497095Y0133093D01*
X0497157Y0133050D01*
X0497237Y0133006D01*
X0497330Y0132963D01*
X0497435Y0132938D01*
X0497559Y0132926D01*
X0497590D01*
X0497615Y0132932D01*
X0497677Y0132938D01*
X0497751Y0132957D01*
X0497838Y0132988D01*
X0497930Y0133025D01*
X0498017Y0133087D01*
X0498104Y0133167D01*
X0498110Y0133180D01*
X0498135Y0133211D01*
X0498172Y0133266D01*
X0498209Y0133335D01*
X0498246Y0133421D01*
X0498283Y0133526D01*
X0498308Y0133650D01*
X0498314Y0133780D01*
Y0134152D01*
Y0134158D01*
Y0134164D01*
Y0134201D01*
X0498302Y0134257D01*
X0498289Y0134331D01*
X0498265Y0134412D01*
X0498228Y0134498D01*
X0498178Y0134585D01*
X0498110Y0134665D01*
X0498104Y0134672D01*
X0498073Y0134696D01*
X0498030Y0134733D01*
X0497974Y0134771D01*
X0497899Y0134808D01*
X0497813Y0134845D01*
X0497714Y0134870D01*
X0497602Y0134876D01*
D02*
G37*
G36*
X0486590D02*
X0486559D01*
X0486535Y0134870D01*
X0486467Y0134863D01*
X0486386Y0134845D01*
X0486299Y0134814D01*
X0486200Y0134771D01*
X0486107Y0134709D01*
X0486021Y0134628D01*
X0486015Y0134616D01*
X0485990Y0134585D01*
X0485953Y0134535D01*
X0485916Y0134461D01*
X0485879Y0134374D01*
X0485841Y0134269D01*
X0485817Y0134152D01*
X0485810Y0134022D01*
Y0133669D01*
Y0133663D01*
Y0133656D01*
X0485817Y0133619D01*
X0485823Y0133557D01*
X0485835Y0133489D01*
X0485860Y0133403D01*
X0485897Y0133316D01*
X0485947Y0133229D01*
X0486015Y0133143D01*
X0486027Y0133136D01*
X0486052Y0133112D01*
X0486095Y0133074D01*
X0486157Y0133037D01*
X0486231Y0132994D01*
X0486318Y0132963D01*
X0486417Y0132938D01*
X0486528Y0132926D01*
X0486566D01*
X0486590Y0132932D01*
X0486652Y0132938D01*
X0486739Y0132963D01*
X0486826Y0132994D01*
X0486925Y0133044D01*
X0487017Y0133112D01*
X0487061Y0133155D01*
X0487098Y0133204D01*
Y0133211D01*
X0487104Y0133217D01*
X0487116Y0133236D01*
X0487129Y0133254D01*
X0487148Y0133285D01*
X0487166Y0133322D01*
X0487203Y0133409D01*
X0487240Y0133520D01*
X0487277Y0133650D01*
X0487302Y0133805D01*
X0487308Y0133984D01*
Y0133991D01*
Y0134003D01*
Y0134022D01*
Y0134053D01*
X0487302Y0134090D01*
X0487296Y0134127D01*
X0487284Y0134220D01*
X0487259Y0134325D01*
X0487228Y0134436D01*
X0487178Y0134542D01*
X0487116Y0134634D01*
X0487110Y0134647D01*
X0487079Y0134672D01*
X0487036Y0134709D01*
X0486980Y0134758D01*
X0486906Y0134801D01*
X0486813Y0134839D01*
X0486708Y0134863D01*
X0486590Y0134876D01*
D02*
G37*
G36*
X0509524D02*
X0509475D01*
X0509425Y0134863D01*
X0509357Y0134851D01*
X0509283Y0134826D01*
X0509196Y0134789D01*
X0509116Y0134740D01*
X0509035Y0134672D01*
X0509029Y0134665D01*
X0509004Y0134634D01*
X0508973Y0134591D01*
X0508930Y0134529D01*
X0508887Y0134455D01*
X0508850Y0134362D01*
X0508819Y0134257D01*
X0508794Y0134139D01*
X0510149D01*
Y0134145D01*
Y0134158D01*
Y0134170D01*
Y0134195D01*
X0510143Y0134263D01*
X0510131Y0134337D01*
X0510106Y0134430D01*
X0510081Y0134517D01*
X0510038Y0134604D01*
X0509982Y0134684D01*
X0509976Y0134690D01*
X0509951Y0134715D01*
X0509914Y0134746D01*
X0509865Y0134783D01*
X0509797Y0134814D01*
X0509716Y0134845D01*
X0509629Y0134870D01*
X0509524Y0134876D01*
D02*
G37*
G36*
X0500512D02*
X0500462D01*
X0500413Y0134863D01*
X0500345Y0134851D01*
X0500270Y0134826D01*
X0500184Y0134789D01*
X0500103Y0134740D01*
X0500023Y0134672D01*
X0500016Y0134665D01*
X0499992Y0134634D01*
X0499961Y0134591D01*
X0499917Y0134529D01*
X0499874Y0134455D01*
X0499837Y0134362D01*
X0499806Y0134257D01*
X0499781Y0134139D01*
X0501137D01*
Y0134145D01*
Y0134158D01*
Y0134170D01*
Y0134195D01*
X0501131Y0134263D01*
X0501118Y0134337D01*
X0501093Y0134430D01*
X0501069Y0134517D01*
X0501025Y0134604D01*
X0500970Y0134684D01*
X0500963Y0134690D01*
X0500939Y0134715D01*
X0500902Y0134746D01*
X0500852Y0134783D01*
X0500784Y0134814D01*
X0500703Y0134845D01*
X0500617Y0134870D01*
X0500512Y0134876D01*
D02*
G37*
G36*
X0493486D02*
X0493449D01*
X0493424Y0134870D01*
X0493350Y0134863D01*
X0493263Y0134845D01*
X0493164Y0134814D01*
X0493059Y0134764D01*
X0492960Y0134696D01*
X0492910Y0134659D01*
X0492867Y0134610D01*
X0492855Y0134597D01*
X0492830Y0134560D01*
X0492799Y0134504D01*
X0492756Y0134424D01*
X0492712Y0134319D01*
X0492681Y0134195D01*
X0492657Y0134053D01*
X0492644Y0133885D01*
Y0133879D01*
Y0133867D01*
Y0133842D01*
X0492650Y0133811D01*
Y0133774D01*
X0492657Y0133731D01*
X0492675Y0133632D01*
X0492700Y0133520D01*
X0492743Y0133403D01*
X0492799Y0133285D01*
X0492873Y0133180D01*
X0492886Y0133167D01*
X0492916Y0133143D01*
X0492966Y0133099D01*
X0493034Y0133056D01*
X0493121Y0133006D01*
X0493226Y0132963D01*
X0493350Y0132938D01*
X0493486Y0132926D01*
X0493523D01*
X0493548Y0132932D01*
X0493622Y0132938D01*
X0493709Y0132957D01*
X0493802Y0132988D01*
X0493907Y0133031D01*
X0494000Y0133093D01*
X0494086Y0133174D01*
X0494093Y0133186D01*
X0494117Y0133223D01*
X0494155Y0133279D01*
X0494192Y0133359D01*
X0494229Y0133465D01*
X0494266Y0133588D01*
X0494291Y0133731D01*
X0494297Y0133898D01*
Y0133904D01*
Y0133916D01*
Y0133941D01*
Y0133978D01*
X0494291Y0134015D01*
X0494284Y0134059D01*
X0494272Y0134164D01*
X0494247Y0134282D01*
X0494210Y0134399D01*
X0494155Y0134517D01*
X0494086Y0134622D01*
X0494074Y0134634D01*
X0494049Y0134659D01*
X0494000Y0134703D01*
X0493932Y0134752D01*
X0493845Y0134795D01*
X0493746Y0134839D01*
X0493622Y0134863D01*
X0493486Y0134876D01*
D02*
G37*
G36*
X0483545D02*
X0483508D01*
X0483483Y0134870D01*
X0483409Y0134863D01*
X0483322Y0134845D01*
X0483223Y0134814D01*
X0483118Y0134764D01*
X0483019Y0134696D01*
X0482969Y0134659D01*
X0482926Y0134610D01*
X0482913Y0134597D01*
X0482889Y0134560D01*
X0482858Y0134504D01*
X0482815Y0134424D01*
X0482771Y0134319D01*
X0482740Y0134195D01*
X0482715Y0134053D01*
X0482703Y0133885D01*
Y0133879D01*
Y0133867D01*
Y0133842D01*
X0482709Y0133811D01*
Y0133774D01*
X0482715Y0133731D01*
X0482734Y0133632D01*
X0482759Y0133520D01*
X0482802Y0133403D01*
X0482858Y0133285D01*
X0482932Y0133180D01*
X0482944Y0133167D01*
X0482975Y0133143D01*
X0483025Y0133099D01*
X0483093Y0133056D01*
X0483180Y0133006D01*
X0483285Y0132963D01*
X0483409Y0132938D01*
X0483545Y0132926D01*
X0483582D01*
X0483607Y0132932D01*
X0483681Y0132938D01*
X0483768Y0132957D01*
X0483861Y0132988D01*
X0483966Y0133031D01*
X0484059Y0133093D01*
X0484145Y0133174D01*
X0484152Y0133186D01*
X0484176Y0133223D01*
X0484213Y0133279D01*
X0484250Y0133359D01*
X0484288Y0133465D01*
X0484325Y0133588D01*
X0484350Y0133731D01*
X0484356Y0133898D01*
Y0133904D01*
Y0133916D01*
Y0133941D01*
Y0133978D01*
X0484350Y0134015D01*
X0484343Y0134059D01*
X0484331Y0134164D01*
X0484306Y0134282D01*
X0484269Y0134399D01*
X0484213Y0134517D01*
X0484145Y0134622D01*
X0484133Y0134634D01*
X0484108Y0134659D01*
X0484059Y0134703D01*
X0483990Y0134752D01*
X0483904Y0134795D01*
X0483805Y0134839D01*
X0483681Y0134863D01*
X0483545Y0134876D01*
D02*
G37*
%LPD*%
D11*
X0044291Y0029232D02*
D03*
X0049291D02*
D03*
X0113189D02*
D03*
X0118189D02*
D03*
X0182087D02*
D03*
X0187087D02*
D03*
X0250984D02*
D03*
X0255984D02*
D03*
X0319882D02*
D03*
X0324882D02*
D03*
X0388779D02*
D03*
X0393779D02*
D03*
X0044291Y0150689D02*
D03*
X0049291D02*
D03*
X0113189D02*
D03*
X0118189D02*
D03*
X0182087D02*
D03*
X0187087D02*
D03*
X0250984D02*
D03*
X0255984D02*
D03*
X0319882D02*
D03*
X0324882D02*
D03*
X0388779D02*
D03*
X0393779D02*
D03*
D12*
X0039291Y0030217D02*
D03*
X0108189D02*
D03*
X0177087D02*
D03*
X0245984D02*
D03*
X0314882D02*
D03*
X0383779D02*
D03*
X0039291Y0151673D02*
D03*
X0108189D02*
D03*
X0177087D02*
D03*
X0245984D02*
D03*
X0314882D02*
D03*
X0383779D02*
D03*
D17*
X0452362Y0282283D02*
X0452362Y-0019685D01*
X-0019685Y0282283D02*
X0452121D01*
X-0019685Y-0019685D02*
X0452362D01*
X-0019685D02*
Y0282283D01*
X0065085Y0108515D02*
G03*
X0051555Y0115996I-0006033J0005065D01*
G01*
X0037028Y0115996D02*
G03*
X0023499Y0108514I-0007497J-0002416D01*
G01*
X0047353Y0113293D02*
G03*
X0051555Y0115996I0000455J0003911D01*
G01*
X0037028Y0115996D02*
G03*
X0041231Y0113292I0003747J0001207D01*
G01*
X0047353Y0113293D02*
G03*
X0041231Y0113292I-0003057J-0026277D01*
G01*
X0065085Y0108515D02*
G03*
X0064514Y0104359I0003015J-0002531D01*
G01*
X0024070Y0104357D02*
G03*
X0023499Y0108514I-0003586J0001625D01*
G01*
X0023498Y0059592D02*
G03*
X0024069Y0063749I-0003015J0002532D01*
G01*
X0064512Y0063748D02*
G03*
X0065084Y0059591I0003586J-0001625D01*
G01*
X0023498Y0059592D02*
G03*
X0021654Y0054640I0006030J-0005065D01*
G01*
X0060421Y0046772D02*
G03*
X0065084Y0059591I-0001366J0007755D01*
G01*
X0021654Y0054528D02*
G03*
X0028161Y0046772I0007874J-0000001D01*
G01*
X0060421D02*
G03*
X0057165Y0043220I0000145J-0003401D01*
G01*
X0031417D02*
G03*
X0028161Y0046772I-0003401J0000150D01*
G01*
X0031417Y0022835D02*
G03*
X0034567Y0019685I0003145J-0000004D01*
G01*
X0054016D02*
G03*
X0057165Y0022835I0000004J0003145D01*
G01*
X0064512Y0063748D02*
G03*
X0064514Y0104359I-0044827J0020307D01*
G01*
X0024070Y0104357D02*
G03*
X0024069Y0063749I0044817J-0020305D01*
G01*
X0021654Y0054528D02*
Y0054640D01*
X0031417Y0022835D02*
Y0043220D01*
X0057165Y0022835D02*
Y0043220D01*
X0034567Y0019685D02*
X0054016D01*
X0133983Y0108515D02*
G03*
X0120453Y0115996I-0006033J0005065D01*
G01*
X0105925Y0115996D02*
G03*
X0092396Y0108514I-0007497J-0002416D01*
G01*
X0116251Y0113293D02*
G03*
X0120453Y0115996I0000455J0003911D01*
G01*
X0105925Y0115996D02*
G03*
X0110129Y0113292I0003747J0001207D01*
G01*
X0116251Y0113293D02*
G03*
X0110129Y0113292I-0003057J-0026277D01*
G01*
X0133983Y0108515D02*
G03*
X0133412Y0104359I0003015J-0002531D01*
G01*
X0092968Y0104357D02*
G03*
X0092396Y0108514I-0003586J0001625D01*
G01*
X0092395Y0059592D02*
G03*
X0092967Y0063749I-0003015J0002532D01*
G01*
X0133410Y0063748D02*
G03*
X0133982Y0059591I0003586J-0001625D01*
G01*
X0092395Y0059592D02*
G03*
X0090551Y0054640I0006030J-0005065D01*
G01*
X0129319Y0046772D02*
G03*
X0133982Y0059591I-0001366J0007755D01*
G01*
X0090551Y0054528D02*
G03*
X0097059Y0046772I0007874J-0000001D01*
G01*
X0129319D02*
G03*
X0126063Y0043220I0000145J-0003401D01*
G01*
X0100315D02*
G03*
X0097059Y0046772I-0003401J0000150D01*
G01*
X0100315Y0022835D02*
G03*
X0103464Y0019685I0003145J-0000004D01*
G01*
X0122913D02*
G03*
X0126063Y0022835I0000004J0003145D01*
G01*
X0133410Y0063748D02*
G03*
X0133412Y0104359I-0044827J0020307D01*
G01*
X0092968Y0104357D02*
G03*
X0092967Y0063749I0044817J-0020305D01*
G01*
X0090551Y0054528D02*
Y0054640D01*
X0100315Y0022835D02*
Y0043220D01*
X0126063Y0022835D02*
Y0043220D01*
X0103464Y0019685D02*
X0122913D01*
X0202880Y0108515D02*
G03*
X0189350Y0115996I-0006033J0005065D01*
G01*
X0174823Y0115996D02*
G03*
X0161294Y0108514I-0007497J-0002416D01*
G01*
X0185148Y0113293D02*
G03*
X0189350Y0115996I0000455J0003911D01*
G01*
X0174823Y0115996D02*
G03*
X0179026Y0113292I0003747J0001207D01*
G01*
X0185148Y0113293D02*
G03*
X0179026Y0113292I-0003057J-0026277D01*
G01*
X0202880Y0108515D02*
G03*
X0202309Y0104359I0003015J-0002531D01*
G01*
X0161865Y0104357D02*
G03*
X0161294Y0108514I-0003586J0001625D01*
G01*
X0161293Y0059592D02*
G03*
X0161864Y0063749I-0003015J0002532D01*
G01*
X0202308Y0063748D02*
G03*
X0202879Y0059591I0003586J-0001625D01*
G01*
X0161293Y0059592D02*
G03*
X0159449Y0054640I0006030J-0005065D01*
G01*
X0198216Y0046772D02*
G03*
X0202879Y0059591I-0001366J0007755D01*
G01*
X0159449Y0054528D02*
G03*
X0165957Y0046772I0007874J-0000001D01*
G01*
X0198216D02*
G03*
X0194961Y0043220I0000145J-0003401D01*
G01*
X0169212D02*
G03*
X0165957Y0046772I-0003401J0000150D01*
G01*
X0169213Y0022835D02*
G03*
X0172362Y0019685I0003145J-0000004D01*
G01*
X0191811D02*
G03*
X0194961Y0022835I0000004J0003145D01*
G01*
X0202308Y0063748D02*
G03*
X0202309Y0104359I-0044827J0020307D01*
G01*
X0161865Y0104357D02*
G03*
X0161864Y0063749I0044817J-0020305D01*
G01*
X0159449Y0054528D02*
Y0054640D01*
X0169213Y0022835D02*
Y0043220D01*
X0194961Y0022835D02*
Y0043220D01*
X0172362Y0019685D02*
X0191811D01*
X0271778Y0108515D02*
G03*
X0258248Y0115996I-0006033J0005065D01*
G01*
X0243721Y0115996D02*
G03*
X0230192Y0108514I-0007497J-0002416D01*
G01*
X0254046Y0113293D02*
G03*
X0258248Y0115996I0000455J0003911D01*
G01*
X0243721Y0115996D02*
G03*
X0247924Y0113292I0003747J0001207D01*
G01*
X0254046Y0113293D02*
G03*
X0247924Y0113292I-0003057J-0026277D01*
G01*
X0271778Y0108515D02*
G03*
X0271207Y0104359I0003015J-0002531D01*
G01*
X0230763Y0104357D02*
G03*
X0230192Y0108514I-0003586J0001625D01*
G01*
X0230190Y0059592D02*
G03*
X0230762Y0063749I-0003015J0002532D01*
G01*
X0271205Y0063748D02*
G03*
X0271777Y0059591I0003586J-0001625D01*
G01*
X0230190Y0059592D02*
G03*
X0228346Y0054640I0006030J-0005065D01*
G01*
X0267114Y0046772D02*
G03*
X0271777Y0059591I-0001366J0007755D01*
G01*
X0228346Y0054528D02*
G03*
X0234854Y0046772I0007874J-0000001D01*
G01*
X0267114D02*
G03*
X0263858Y0043220I0000145J-0003401D01*
G01*
X0238110D02*
G03*
X0234854Y0046772I-0003401J0000150D01*
G01*
X0238110Y0022835D02*
G03*
X0241260Y0019685I0003145J-0000004D01*
G01*
X0260709D02*
G03*
X0263858Y0022835I0000004J0003145D01*
G01*
X0271205Y0063748D02*
G03*
X0271207Y0104359I-0044827J0020307D01*
G01*
X0230763Y0104357D02*
G03*
X0230762Y0063749I0044817J-0020305D01*
G01*
X0228346Y0054528D02*
Y0054640D01*
X0238110Y0022835D02*
Y0043220D01*
X0263858Y0022835D02*
Y0043220D01*
X0241260Y0019685D02*
X0260709D01*
X0340675Y0108515D02*
G03*
X0327146Y0115996I-0006033J0005065D01*
G01*
X0312618Y0115996D02*
G03*
X0299089Y0108514I-0007497J-0002416D01*
G01*
X0322943Y0113293D02*
G03*
X0327146Y0115996I0000455J0003911D01*
G01*
X0312618Y0115996D02*
G03*
X0316822Y0113292I0003747J0001207D01*
G01*
X0322943Y0113293D02*
G03*
X0316822Y0113292I-0003057J-0026277D01*
G01*
X0340675Y0108515D02*
G03*
X0340104Y0104359I0003015J-0002531D01*
G01*
X0299661Y0104357D02*
G03*
X0299089Y0108514I-0003586J0001625D01*
G01*
X0299088Y0059592D02*
G03*
X0299660Y0063749I-0003015J0002532D01*
G01*
X0340103Y0063748D02*
G03*
X0340675Y0059591I0003586J-0001625D01*
G01*
X0299088Y0059592D02*
G03*
X0297244Y0054640I0006030J-0005065D01*
G01*
X0336012Y0046772D02*
G03*
X0340675Y0059591I-0001366J0007755D01*
G01*
X0297244Y0054528D02*
G03*
X0303752Y0046772I0007874J-0000001D01*
G01*
X0336012D02*
G03*
X0332756Y0043220I0000145J-0003401D01*
G01*
X0307008D02*
G03*
X0303752Y0046772I-0003401J0000150D01*
G01*
X0307008Y0022835D02*
G03*
X0310157Y0019685I0003145J-0000004D01*
G01*
X0329606D02*
G03*
X0332756Y0022835I0000004J0003145D01*
G01*
X0340103Y0063748D02*
G03*
X0340104Y0104359I-0044827J0020307D01*
G01*
X0299661Y0104357D02*
G03*
X0299660Y0063749I0044817J-0020305D01*
G01*
X0297244Y0054528D02*
Y0054640D01*
X0307008Y0022835D02*
Y0043220D01*
X0332756Y0022835D02*
Y0043220D01*
X0310157Y0019685D02*
X0329606D01*
X0409573Y0108515D02*
G03*
X0396043Y0115996I-0006033J0005065D01*
G01*
X0381516Y0115996D02*
G03*
X0367987Y0108514I-0007497J-0002416D01*
G01*
X0391841Y0113293D02*
G03*
X0396043Y0115996I0000455J0003911D01*
G01*
X0381516Y0115996D02*
G03*
X0385719Y0113292I0003747J0001207D01*
G01*
X0391841Y0113293D02*
G03*
X0385719Y0113292I-0003057J-0026277D01*
G01*
X0409573Y0108515D02*
G03*
X0409002Y0104359I0003015J-0002531D01*
G01*
X0368558Y0104357D02*
G03*
X0367987Y0108514I-0003586J0001625D01*
G01*
X0367986Y0059592D02*
G03*
X0368557Y0063749I-0003015J0002532D01*
G01*
X0409001Y0063748D02*
G03*
X0409572Y0059591I0003586J-0001625D01*
G01*
X0367986Y0059592D02*
G03*
X0366142Y0054640I0006030J-0005065D01*
G01*
X0404909Y0046772D02*
G03*
X0409572Y0059591I-0001366J0007755D01*
G01*
X0366142Y0054528D02*
G03*
X0372650Y0046772I0007874J-0000001D01*
G01*
X0404909D02*
G03*
X0401653Y0043220I0000145J-0003401D01*
G01*
X0375905D02*
G03*
X0372650Y0046772I-0003401J0000150D01*
G01*
X0375905Y0022835D02*
G03*
X0379055Y0019685I0003145J-0000004D01*
G01*
X0398504D02*
G03*
X0401653Y0022835I0000004J0003145D01*
G01*
X0409001Y0063748D02*
G03*
X0409002Y0104359I-0044827J0020307D01*
G01*
X0368558Y0104357D02*
G03*
X0368557Y0063749I0044817J-0020305D01*
G01*
X0366142Y0054528D02*
Y0054640D01*
X0375905Y0022835D02*
Y0043220D01*
X0401653Y0022835D02*
Y0043220D01*
X0379055Y0019685D02*
X0398504D01*
X0065085Y0229972D02*
G03*
X0051555Y0237453I-0006033J0005065D01*
G01*
X0037028Y0237452D02*
G03*
X0023499Y0229970I-0007497J-0002416D01*
G01*
X0047353Y0234750D02*
G03*
X0051555Y0237453I0000455J0003911D01*
G01*
X0037028Y0237452D02*
G03*
X0041231Y0234749I0003747J0001207D01*
G01*
X0047353Y0234750D02*
G03*
X0041231Y0234749I-0003057J-0026277D01*
G01*
X0065085Y0229972D02*
G03*
X0064514Y0225816I0003015J-0002531D01*
G01*
X0024070Y0225814D02*
G03*
X0023499Y0229970I-0003586J0001625D01*
G01*
X0023498Y0181049D02*
G03*
X0024069Y0185206I-0003015J0002532D01*
G01*
X0064512Y0185205D02*
G03*
X0065084Y0181048I0003586J-0001625D01*
G01*
X0023498Y0181049D02*
G03*
X0021654Y0176097I0006030J-0005065D01*
G01*
X0060421Y0168228D02*
G03*
X0065084Y0181048I-0001366J0007755D01*
G01*
X0021654Y0175984D02*
G03*
X0028161Y0168228I0007874J-0000001D01*
G01*
X0060421D02*
G03*
X0057165Y0164677I0000145J-0003401D01*
G01*
X0031417D02*
G03*
X0028161Y0168228I-0003401J0000150D01*
G01*
X0031417Y0144291D02*
G03*
X0034567Y0141142I0003145J-0000004D01*
G01*
X0054016D02*
G03*
X0057165Y0144291I0000004J0003145D01*
G01*
X0064512Y0185205D02*
G03*
X0064514Y0225816I-0044827J0020307D01*
G01*
X0024070Y0225814D02*
G03*
X0024069Y0185206I0044817J-0020305D01*
G01*
X0021654Y0175984D02*
Y0176097D01*
X0031417Y0144291D02*
Y0164677D01*
X0057165Y0144291D02*
Y0164677D01*
X0034567Y0141142D02*
X0054016D01*
X0133983Y0229972D02*
G03*
X0120453Y0237453I-0006033J0005065D01*
G01*
X0105925Y0237452D02*
G03*
X0092396Y0229970I-0007497J-0002416D01*
G01*
X0116251Y0234750D02*
G03*
X0120453Y0237453I0000455J0003911D01*
G01*
X0105925Y0237452D02*
G03*
X0110129Y0234749I0003747J0001207D01*
G01*
X0116251Y0234750D02*
G03*
X0110129Y0234749I-0003057J-0026277D01*
G01*
X0133983Y0229972D02*
G03*
X0133412Y0225816I0003015J-0002531D01*
G01*
X0092968Y0225814D02*
G03*
X0092396Y0229970I-0003586J0001625D01*
G01*
X0092395Y0181049D02*
G03*
X0092967Y0185206I-0003015J0002532D01*
G01*
X0133410Y0185205D02*
G03*
X0133982Y0181048I0003586J-0001625D01*
G01*
X0092395Y0181049D02*
G03*
X0090551Y0176097I0006030J-0005065D01*
G01*
X0129319Y0168228D02*
G03*
X0133982Y0181048I-0001366J0007755D01*
G01*
X0090551Y0175984D02*
G03*
X0097059Y0168228I0007874J-0000001D01*
G01*
X0129319D02*
G03*
X0126063Y0164677I0000145J-0003401D01*
G01*
X0100315D02*
G03*
X0097059Y0168228I-0003401J0000150D01*
G01*
X0100315Y0144291D02*
G03*
X0103464Y0141142I0003145J-0000004D01*
G01*
X0122913D02*
G03*
X0126063Y0144291I0000004J0003145D01*
G01*
X0133410Y0185205D02*
G03*
X0133412Y0225816I-0044827J0020307D01*
G01*
X0092968Y0225814D02*
G03*
X0092967Y0185206I0044817J-0020305D01*
G01*
X0090551Y0175984D02*
Y0176097D01*
X0100315Y0144291D02*
Y0164677D01*
X0126063Y0144291D02*
Y0164677D01*
X0103464Y0141142D02*
X0122913D01*
X0202880Y0229972D02*
G03*
X0189350Y0237453I-0006033J0005065D01*
G01*
X0174823Y0237452D02*
G03*
X0161294Y0229970I-0007497J-0002416D01*
G01*
X0185148Y0234750D02*
G03*
X0189350Y0237453I0000455J0003911D01*
G01*
X0174823Y0237452D02*
G03*
X0179026Y0234749I0003747J0001207D01*
G01*
X0185148Y0234750D02*
G03*
X0179026Y0234749I-0003057J-0026277D01*
G01*
X0202880Y0229972D02*
G03*
X0202309Y0225816I0003015J-0002531D01*
G01*
X0161865Y0225814D02*
G03*
X0161294Y0229970I-0003586J0001625D01*
G01*
X0161293Y0181049D02*
G03*
X0161864Y0185206I-0003015J0002532D01*
G01*
X0202308Y0185205D02*
G03*
X0202879Y0181048I0003586J-0001625D01*
G01*
X0161293Y0181049D02*
G03*
X0159449Y0176097I0006030J-0005065D01*
G01*
X0198216Y0168228D02*
G03*
X0202879Y0181048I-0001366J0007755D01*
G01*
X0159449Y0175984D02*
G03*
X0165957Y0168228I0007874J-0000001D01*
G01*
X0198216D02*
G03*
X0194961Y0164677I0000145J-0003401D01*
G01*
X0169212D02*
G03*
X0165957Y0168228I-0003401J0000150D01*
G01*
X0169213Y0144291D02*
G03*
X0172362Y0141142I0003145J-0000004D01*
G01*
X0191811D02*
G03*
X0194961Y0144291I0000004J0003145D01*
G01*
X0202308Y0185205D02*
G03*
X0202309Y0225816I-0044827J0020307D01*
G01*
X0161865Y0225814D02*
G03*
X0161864Y0185206I0044817J-0020305D01*
G01*
X0159449Y0175984D02*
Y0176097D01*
X0169213Y0144291D02*
Y0164677D01*
X0194961Y0144291D02*
Y0164677D01*
X0172362Y0141142D02*
X0191811D01*
X0271778Y0229972D02*
G03*
X0258248Y0237453I-0006033J0005065D01*
G01*
X0243721Y0237452D02*
G03*
X0230192Y0229970I-0007497J-0002416D01*
G01*
X0254046Y0234750D02*
G03*
X0258248Y0237453I0000455J0003911D01*
G01*
X0243721Y0237452D02*
G03*
X0247924Y0234749I0003747J0001207D01*
G01*
X0254046Y0234750D02*
G03*
X0247924Y0234749I-0003057J-0026277D01*
G01*
X0271778Y0229972D02*
G03*
X0271207Y0225816I0003015J-0002531D01*
G01*
X0230763Y0225814D02*
G03*
X0230192Y0229970I-0003586J0001625D01*
G01*
X0230190Y0181049D02*
G03*
X0230762Y0185206I-0003015J0002532D01*
G01*
X0271205Y0185205D02*
G03*
X0271777Y0181048I0003586J-0001625D01*
G01*
X0230190Y0181049D02*
G03*
X0228346Y0176097I0006030J-0005065D01*
G01*
X0267114Y0168228D02*
G03*
X0271777Y0181048I-0001366J0007755D01*
G01*
X0228346Y0175984D02*
G03*
X0234854Y0168228I0007874J-0000001D01*
G01*
X0267114D02*
G03*
X0263858Y0164677I0000145J-0003401D01*
G01*
X0238110D02*
G03*
X0234854Y0168228I-0003401J0000150D01*
G01*
X0238110Y0144291D02*
G03*
X0241260Y0141142I0003145J-0000004D01*
G01*
X0260709D02*
G03*
X0263858Y0144291I0000004J0003145D01*
G01*
X0271205Y0185205D02*
G03*
X0271207Y0225816I-0044827J0020307D01*
G01*
X0230763Y0225814D02*
G03*
X0230762Y0185206I0044817J-0020305D01*
G01*
X0228346Y0175984D02*
Y0176097D01*
X0238110Y0144291D02*
Y0164677D01*
X0263858Y0144291D02*
Y0164677D01*
X0241260Y0141142D02*
X0260709D01*
X0340675Y0229972D02*
G03*
X0327146Y0237453I-0006033J0005065D01*
G01*
X0312618Y0237452D02*
G03*
X0299089Y0229970I-0007497J-0002416D01*
G01*
X0322943Y0234750D02*
G03*
X0327146Y0237453I0000455J0003911D01*
G01*
X0312618Y0237452D02*
G03*
X0316822Y0234749I0003747J0001207D01*
G01*
X0322943Y0234750D02*
G03*
X0316822Y0234749I-0003057J-0026277D01*
G01*
X0340675Y0229972D02*
G03*
X0340104Y0225816I0003015J-0002531D01*
G01*
X0299661Y0225814D02*
G03*
X0299089Y0229970I-0003586J0001625D01*
G01*
X0299088Y0181049D02*
G03*
X0299660Y0185206I-0003015J0002532D01*
G01*
X0340103Y0185205D02*
G03*
X0340675Y0181048I0003586J-0001625D01*
G01*
X0299088Y0181049D02*
G03*
X0297244Y0176097I0006030J-0005065D01*
G01*
X0336012Y0168228D02*
G03*
X0340675Y0181048I-0001366J0007755D01*
G01*
X0297244Y0175984D02*
G03*
X0303752Y0168228I0007874J-0000001D01*
G01*
X0336012D02*
G03*
X0332756Y0164677I0000145J-0003401D01*
G01*
X0307008D02*
G03*
X0303752Y0168228I-0003401J0000150D01*
G01*
X0307008Y0144291D02*
G03*
X0310157Y0141142I0003145J-0000004D01*
G01*
X0329606D02*
G03*
X0332756Y0144291I0000004J0003145D01*
G01*
X0340103Y0185205D02*
G03*
X0340104Y0225816I-0044827J0020307D01*
G01*
X0299661Y0225814D02*
G03*
X0299660Y0185206I0044817J-0020305D01*
G01*
X0297244Y0175984D02*
Y0176097D01*
X0307008Y0144291D02*
Y0164677D01*
X0332756Y0144291D02*
Y0164677D01*
X0310157Y0141142D02*
X0329606D01*
X0409573Y0229972D02*
G03*
X0396043Y0237453I-0006033J0005065D01*
G01*
X0381516Y0237452D02*
G03*
X0367987Y0229970I-0007497J-0002416D01*
G01*
X0391841Y0234750D02*
G03*
X0396043Y0237453I0000455J0003911D01*
G01*
X0381516Y0237452D02*
G03*
X0385719Y0234749I0003747J0001207D01*
G01*
X0391841Y0234750D02*
G03*
X0385719Y0234749I-0003057J-0026277D01*
G01*
X0409573Y0229972D02*
G03*
X0409002Y0225816I0003015J-0002531D01*
G01*
X0368558Y0225814D02*
G03*
X0367987Y0229970I-0003586J0001625D01*
G01*
X0367986Y0181049D02*
G03*
X0368557Y0185206I-0003015J0002532D01*
G01*
X0409001Y0185205D02*
G03*
X0409572Y0181048I0003586J-0001625D01*
G01*
X0367986Y0181049D02*
G03*
X0366142Y0176097I0006030J-0005065D01*
G01*
X0404909Y0168228D02*
G03*
X0409572Y0181048I-0001366J0007755D01*
G01*
X0366142Y0175984D02*
G03*
X0372650Y0168228I0007874J-0000001D01*
G01*
X0404909D02*
G03*
X0401653Y0164677I0000145J-0003401D01*
G01*
X0375905D02*
G03*
X0372650Y0168228I-0003401J0000150D01*
G01*
X0375905Y0144291D02*
G03*
X0379055Y0141142I0003145J-0000004D01*
G01*
X0398504D02*
G03*
X0401653Y0144291I0000004J0003145D01*
G01*
X0409001Y0185205D02*
G03*
X0409002Y0225816I-0044827J0020307D01*
G01*
X0368558Y0225814D02*
G03*
X0368557Y0185206I0044817J-0020305D01*
G01*
X0366142Y0175984D02*
Y0176097D01*
X0375905Y0144291D02*
Y0164677D01*
X0401653Y0144291D02*
Y0164677D01*
X0379055Y0141142D02*
X0398504D01*
D21*
X0049291Y0040551D02*
D03*
X0044291D02*
D03*
X0039291D02*
D03*
X0118189D02*
D03*
X0113189D02*
D03*
X0108189D02*
D03*
X0187087D02*
D03*
X0182087D02*
D03*
X0177087D02*
D03*
X0255984D02*
D03*
X0250984D02*
D03*
X0245984D02*
D03*
X0324882D02*
D03*
X0319882D02*
D03*
X0314882D02*
D03*
X0393779D02*
D03*
X0388779D02*
D03*
X0383779D02*
D03*
X0049291Y0162008D02*
D03*
X0044291D02*
D03*
X0039291D02*
D03*
X0118189D02*
D03*
X0113189D02*
D03*
X0108189D02*
D03*
X0187087D02*
D03*
X0182087D02*
D03*
X0177087D02*
D03*
X0255984D02*
D03*
X0250984D02*
D03*
X0245984D02*
D03*
X0324882D02*
D03*
X0319882D02*
D03*
X0314882D02*
D03*
X0393779D02*
D03*
X0388779D02*
D03*
X0383779D02*
D03*
D39*
X0029626Y0087008D02*
D03*
Y0069291D02*
D03*
X0058957Y0087008D02*
D03*
Y0069291D02*
D03*
X0098524Y0087008D02*
D03*
Y0069291D02*
D03*
X0127854Y0087008D02*
D03*
Y0069291D02*
D03*
X0167421Y0087008D02*
D03*
Y0069291D02*
D03*
X0196752Y0087008D02*
D03*
Y0069291D02*
D03*
X0236319Y0087008D02*
D03*
Y0069291D02*
D03*
X0265650Y0087008D02*
D03*
Y0069291D02*
D03*
X0305217Y0087008D02*
D03*
Y0069291D02*
D03*
X0334547Y0087008D02*
D03*
Y0069291D02*
D03*
X0374114Y0087008D02*
D03*
Y0069291D02*
D03*
X0403445Y0087008D02*
D03*
Y0069291D02*
D03*
X0029626Y0208465D02*
D03*
Y0190748D02*
D03*
X0058957Y0208465D02*
D03*
Y0190748D02*
D03*
X0098524Y0208465D02*
D03*
Y0190748D02*
D03*
X0127854Y0208465D02*
D03*
Y0190748D02*
D03*
X0167421Y0208465D02*
D03*
Y0190748D02*
D03*
X0196752Y0208465D02*
D03*
Y0190748D02*
D03*
X0236319Y0208465D02*
D03*
Y0190748D02*
D03*
X0265650Y0208465D02*
D03*
Y0190748D02*
D03*
X0305217Y0208465D02*
D03*
Y0190748D02*
D03*
X0334547Y0208465D02*
D03*
Y0190748D02*
D03*
X0374114Y0208465D02*
D03*
Y0190748D02*
D03*
X0403445Y0208465D02*
D03*
Y0190748D02*
D03*
D40*
X0047244Y0051476D02*
D03*
X0041339D02*
D03*
Y0055807D02*
D03*
X0047244D02*
D03*
X0116142Y0051476D02*
D03*
X0110236D02*
D03*
Y0055807D02*
D03*
X0116142D02*
D03*
X0185039Y0051476D02*
D03*
X0179134D02*
D03*
Y0055807D02*
D03*
X0185039D02*
D03*
X0253937Y0051476D02*
D03*
X0248031D02*
D03*
Y0055807D02*
D03*
X0253937D02*
D03*
X0322835Y0051476D02*
D03*
X0316929D02*
D03*
Y0055807D02*
D03*
X0322835D02*
D03*
X0391732Y0051476D02*
D03*
X0385827D02*
D03*
Y0055807D02*
D03*
X0391732D02*
D03*
X0047244Y0172933D02*
D03*
X0041339D02*
D03*
Y0177264D02*
D03*
X0047244D02*
D03*
X0116142Y0172933D02*
D03*
X0110236D02*
D03*
Y0177264D02*
D03*
X0116142D02*
D03*
X0185039Y0172933D02*
D03*
X0179134D02*
D03*
Y0177264D02*
D03*
X0185039D02*
D03*
X0253937Y0172933D02*
D03*
X0248031D02*
D03*
Y0177264D02*
D03*
X0253937D02*
D03*
X0322835Y0172933D02*
D03*
X0316929D02*
D03*
Y0177264D02*
D03*
X0322835D02*
D03*
X0391732Y0172933D02*
D03*
X0385827D02*
D03*
Y0177264D02*
D03*
X0391732D02*
D03*
D41*
X0357421Y0209252D02*
D03*
X0358071Y0196260D02*
D03*
X0357677Y0212008D02*
D03*
X0363189Y0205315D02*
D03*
X0357303Y0204035D02*
D03*
X0357429Y0201476D02*
D03*
X0357283Y0206594D02*
D03*
X0357677Y0198819D02*
D03*
X0363799Y0197638D02*
D03*
X0363437Y0210542D02*
D03*
X0363260Y0202658D02*
D03*
X0363465Y0200197D02*
D03*
X0363244Y0207874D02*
D03*
Y0086417D02*
D03*
X0363465Y0078740D02*
D03*
X0363260Y0081201D02*
D03*
X0363437Y0089086D02*
D03*
X0363799Y0076181D02*
D03*
X0357677Y0077362D02*
D03*
X0357283Y0085138D02*
D03*
X0357429Y0080020D02*
D03*
X0357303Y0082579D02*
D03*
X0363189Y0083858D02*
D03*
X0357677Y0090551D02*
D03*
X0358071Y0074803D02*
D03*
X0357421Y0087795D02*
D03*
X0414315Y0207874D02*
D03*
X0414094Y0200197D02*
D03*
X0414299Y0202658D02*
D03*
X0414122Y0210542D02*
D03*
X0413760Y0197638D02*
D03*
X0419882Y0198819D02*
D03*
X0420276Y0206594D02*
D03*
X0420130Y0201476D02*
D03*
X0420256Y0204035D02*
D03*
X0414370Y0205315D02*
D03*
X0419882Y0212008D02*
D03*
X0419488Y0196260D02*
D03*
X0420138Y0209252D02*
D03*
X0414315Y0086417D02*
D03*
X0414094Y0078740D02*
D03*
X0414299Y0081201D02*
D03*
X0414122Y0089086D02*
D03*
X0413760Y0076181D02*
D03*
X0419882Y0077362D02*
D03*
X0420276Y0085138D02*
D03*
X0420130Y0080020D02*
D03*
X0420256Y0082579D02*
D03*
X0414370Y0083858D02*
D03*
X0419882Y0090551D02*
D03*
X0419488Y0074803D02*
D03*
X0420138Y0087795D02*
D03*
X0288524Y0209252D02*
D03*
X0289173Y0196260D02*
D03*
X0288779Y0212008D02*
D03*
X0294291Y0205315D02*
D03*
X0288405Y0204035D02*
D03*
X0288531Y0201476D02*
D03*
X0288386Y0206594D02*
D03*
X0288779Y0198819D02*
D03*
X0294902Y0197638D02*
D03*
X0294539Y0210542D02*
D03*
X0294362Y0202658D02*
D03*
X0294567Y0200197D02*
D03*
X0294346Y0207874D02*
D03*
Y0086417D02*
D03*
X0294567Y0078740D02*
D03*
X0294362Y0081201D02*
D03*
X0294539Y0089086D02*
D03*
X0294902Y0076181D02*
D03*
X0288779Y0077362D02*
D03*
X0288386Y0085138D02*
D03*
X0288531Y0080020D02*
D03*
X0288405Y0082579D02*
D03*
X0294291Y0083858D02*
D03*
X0288779Y0090551D02*
D03*
X0289173Y0074803D02*
D03*
X0288524Y0087795D02*
D03*
X0345417Y0207874D02*
D03*
X0345197Y0200197D02*
D03*
X0345402Y0202658D02*
D03*
X0345224Y0210542D02*
D03*
X0344862Y0197638D02*
D03*
X0350984Y0198819D02*
D03*
X0351378Y0206594D02*
D03*
X0351232Y0201476D02*
D03*
X0351358Y0204035D02*
D03*
X0345472Y0205315D02*
D03*
X0350984Y0212008D02*
D03*
X0350590Y0196260D02*
D03*
X0351240Y0209252D02*
D03*
X0345417Y0086417D02*
D03*
X0345197Y0078740D02*
D03*
X0345402Y0081201D02*
D03*
X0345224Y0089086D02*
D03*
X0344862Y0076181D02*
D03*
X0350984Y0077362D02*
D03*
X0351378Y0085138D02*
D03*
X0351232Y0080020D02*
D03*
X0351358Y0082579D02*
D03*
X0345472Y0083858D02*
D03*
X0350984Y0090551D02*
D03*
X0350590Y0074803D02*
D03*
X0351240Y0087795D02*
D03*
X0219626Y0209252D02*
D03*
X0220276Y0196260D02*
D03*
X0219882Y0212008D02*
D03*
X0225394Y0205315D02*
D03*
X0219508Y0204035D02*
D03*
X0219634Y0201476D02*
D03*
X0219488Y0206594D02*
D03*
X0219882Y0198819D02*
D03*
X0226004Y0197638D02*
D03*
X0225642Y0210542D02*
D03*
X0225465Y0202658D02*
D03*
X0225669Y0200197D02*
D03*
X0225449Y0207874D02*
D03*
Y0086417D02*
D03*
X0225669Y0078740D02*
D03*
X0225465Y0081201D02*
D03*
X0225642Y0089086D02*
D03*
X0226004Y0076181D02*
D03*
X0219882Y0077362D02*
D03*
X0219488Y0085138D02*
D03*
X0219634Y0080020D02*
D03*
X0219508Y0082579D02*
D03*
X0225394Y0083858D02*
D03*
X0219882Y0090551D02*
D03*
X0220276Y0074803D02*
D03*
X0219626Y0087795D02*
D03*
X0276520Y0207874D02*
D03*
X0276299Y0200197D02*
D03*
X0276504Y0202658D02*
D03*
X0276327Y0210542D02*
D03*
X0275965Y0197638D02*
D03*
X0282087Y0198819D02*
D03*
X0282480Y0206594D02*
D03*
X0282335Y0201476D02*
D03*
X0282461Y0204035D02*
D03*
X0276575Y0205315D02*
D03*
X0282087Y0212008D02*
D03*
X0281693Y0196260D02*
D03*
X0282343Y0209252D02*
D03*
X0276520Y0086417D02*
D03*
X0276299Y0078740D02*
D03*
X0276504Y0081201D02*
D03*
X0276327Y0089086D02*
D03*
X0275965Y0076181D02*
D03*
X0282087Y0077362D02*
D03*
X0282480Y0085138D02*
D03*
X0282335Y0080020D02*
D03*
X0282461Y0082579D02*
D03*
X0276575Y0083858D02*
D03*
X0282087Y0090551D02*
D03*
X0281693Y0074803D02*
D03*
X0282343Y0087795D02*
D03*
X0150728Y0209252D02*
D03*
X0151378Y0196260D02*
D03*
X0150984Y0212008D02*
D03*
X0156496Y0205315D02*
D03*
X0150610Y0204035D02*
D03*
X0150736Y0201476D02*
D03*
X0150591Y0206594D02*
D03*
X0150984Y0198819D02*
D03*
X0157106Y0197638D02*
D03*
X0156744Y0210542D02*
D03*
X0156567Y0202658D02*
D03*
X0156772Y0200197D02*
D03*
X0156551Y0207874D02*
D03*
Y0086417D02*
D03*
X0156772Y0078740D02*
D03*
X0156567Y0081201D02*
D03*
X0156744Y0089086D02*
D03*
X0157106Y0076181D02*
D03*
X0150984Y0077362D02*
D03*
X0150591Y0085138D02*
D03*
X0150736Y0080020D02*
D03*
X0150610Y0082579D02*
D03*
X0156496Y0083858D02*
D03*
X0150984Y0090551D02*
D03*
X0151378Y0074803D02*
D03*
X0150728Y0087795D02*
D03*
X0207622Y0207874D02*
D03*
X0207402Y0200197D02*
D03*
X0207606Y0202658D02*
D03*
X0207429Y0210542D02*
D03*
X0207067Y0197638D02*
D03*
X0213189Y0198819D02*
D03*
X0213583Y0206594D02*
D03*
X0213437Y0201476D02*
D03*
X0213563Y0204035D02*
D03*
X0207677Y0205315D02*
D03*
X0213189Y0212008D02*
D03*
X0212795Y0196260D02*
D03*
X0213445Y0209252D02*
D03*
X0207622Y0086417D02*
D03*
X0207402Y0078740D02*
D03*
X0207606Y0081201D02*
D03*
X0207429Y0089086D02*
D03*
X0207067Y0076181D02*
D03*
X0213189Y0077362D02*
D03*
X0213583Y0085138D02*
D03*
X0213437Y0080020D02*
D03*
X0213563Y0082579D02*
D03*
X0207677Y0083858D02*
D03*
X0213189Y0090551D02*
D03*
X0212795Y0074803D02*
D03*
X0213445Y0087795D02*
D03*
X0081831Y0209252D02*
D03*
X0082480Y0196260D02*
D03*
X0082087Y0212008D02*
D03*
X0087598Y0205315D02*
D03*
X0081713Y0204035D02*
D03*
X0081839Y0201476D02*
D03*
X0081693Y0206594D02*
D03*
X0082087Y0198819D02*
D03*
X0088209Y0197638D02*
D03*
X0087846Y0210542D02*
D03*
X0087669Y0202658D02*
D03*
X0087874Y0200197D02*
D03*
X0087653Y0207874D02*
D03*
Y0086417D02*
D03*
X0087874Y0078740D02*
D03*
X0087669Y0081201D02*
D03*
X0087846Y0089086D02*
D03*
X0088209Y0076181D02*
D03*
X0082087Y0077362D02*
D03*
X0081693Y0085138D02*
D03*
X0081839Y0080020D02*
D03*
X0081713Y0082579D02*
D03*
X0087598Y0083858D02*
D03*
X0082087Y0090551D02*
D03*
X0082480Y0074803D02*
D03*
X0081831Y0087795D02*
D03*
X0138724Y0207874D02*
D03*
X0138504Y0200197D02*
D03*
X0138709Y0202658D02*
D03*
X0138531Y0210542D02*
D03*
X0138169Y0197638D02*
D03*
X0144291Y0198819D02*
D03*
X0144685Y0206594D02*
D03*
X0144539Y0201476D02*
D03*
X0144665Y0204035D02*
D03*
X0138779Y0205315D02*
D03*
X0144291Y0212008D02*
D03*
X0143898Y0196260D02*
D03*
X0144547Y0209252D02*
D03*
X0138724Y0086417D02*
D03*
X0138504Y0078740D02*
D03*
X0138709Y0081201D02*
D03*
X0138531Y0089086D02*
D03*
X0138169Y0076181D02*
D03*
X0144291Y0077362D02*
D03*
X0144685Y0085138D02*
D03*
X0144539Y0080020D02*
D03*
X0144665Y0082579D02*
D03*
X0138779Y0083858D02*
D03*
X0144291Y0090551D02*
D03*
X0143898Y0074803D02*
D03*
X0144547Y0087795D02*
D03*
X0075650D02*
D03*
X0075000Y0074803D02*
D03*
X0075394Y0090551D02*
D03*
X0069882Y0083858D02*
D03*
X0075768Y0082579D02*
D03*
X0075642Y0080020D02*
D03*
X0075787Y0085138D02*
D03*
X0075394Y0077362D02*
D03*
X0069272Y0076181D02*
D03*
X0069634Y0089086D02*
D03*
X0069811Y0081201D02*
D03*
X0069606Y0078740D02*
D03*
X0069827Y0086417D02*
D03*
X0075650Y0209252D02*
D03*
X0075000Y0196260D02*
D03*
X0075394Y0212008D02*
D03*
X0069882Y0205315D02*
D03*
X0075768Y0204035D02*
D03*
X0075642Y0201476D02*
D03*
X0075787Y0206594D02*
D03*
X0075394Y0198819D02*
D03*
X0069272Y0197638D02*
D03*
X0069634Y0210542D02*
D03*
X0069811Y0202658D02*
D03*
X0069606Y0200197D02*
D03*
X0069827Y0207874D02*
D03*
X0012933Y0087795D02*
D03*
X0013583Y0074803D02*
D03*
X0013189Y0090551D02*
D03*
X0018701Y0083858D02*
D03*
X0012815Y0082579D02*
D03*
X0012941Y0080020D02*
D03*
X0012795Y0085138D02*
D03*
X0013189Y0077362D02*
D03*
X0019311Y0076181D02*
D03*
X0018949Y0089086D02*
D03*
X0018772Y0081201D02*
D03*
X0018976Y0078740D02*
D03*
X0018756Y0086417D02*
D03*
Y0207874D02*
D03*
X0018976Y0200197D02*
D03*
X0018772Y0202658D02*
D03*
X0018949Y0210542D02*
D03*
X0019311Y0197638D02*
D03*
X0013189Y0198819D02*
D03*
X0012795Y0206594D02*
D03*
X0012941Y0201476D02*
D03*
X0012815Y0204035D02*
D03*
X0018701Y0205315D02*
D03*
X0013189Y0212008D02*
D03*
X0013583Y0196260D02*
D03*
X0012933Y0209252D02*
D03*
D42*
X0285433Y0131299D02*
D03*
X0147638D02*
D03*
X0440551Y0270472D02*
D03*
Y-0007874D02*
D03*
X-0007874Y0270472D02*
D03*
Y-0007874D02*
D03*
D43*
X0029528Y0054528D02*
D03*
X0059055D02*
D03*
Y0113583D02*
D03*
X0029528D02*
D03*
X0098425Y0054528D02*
D03*
X0127953D02*
D03*
Y0113583D02*
D03*
X0098425D02*
D03*
X0167323Y0054528D02*
D03*
X0196850D02*
D03*
Y0113583D02*
D03*
X0167323D02*
D03*
X0236220Y0054528D02*
D03*
X0265748D02*
D03*
Y0113583D02*
D03*
X0236220D02*
D03*
X0305118Y0054528D02*
D03*
X0334646D02*
D03*
Y0113583D02*
D03*
X0305118D02*
D03*
X0374016Y0054528D02*
D03*
X0403543D02*
D03*
Y0113583D02*
D03*
X0374016D02*
D03*
X0029528Y0175984D02*
D03*
X0059055D02*
D03*
Y0235039D02*
D03*
X0029528D02*
D03*
X0098425Y0175984D02*
D03*
X0127953D02*
D03*
Y0235039D02*
D03*
X0098425D02*
D03*
X0167323Y0175984D02*
D03*
X0196850D02*
D03*
Y0235039D02*
D03*
X0167323D02*
D03*
X0236220Y0175984D02*
D03*
X0265748D02*
D03*
Y0235039D02*
D03*
X0236220D02*
D03*
X0305118Y0175984D02*
D03*
X0334646D02*
D03*
Y0235039D02*
D03*
X0305118D02*
D03*
X0374016Y0175984D02*
D03*
X0403543D02*
D03*
Y0235039D02*
D03*
X0374016D02*
D03*
D44*
X0034370Y0032283D02*
D03*
X0054213D02*
D03*
X0103268D02*
D03*
X0123110D02*
D03*
X0172165D02*
D03*
X0192008D02*
D03*
X0241063D02*
D03*
X0260906D02*
D03*
X0309961D02*
D03*
X0329803D02*
D03*
X0378858D02*
D03*
X0398701D02*
D03*
X0034370Y0153740D02*
D03*
X0054213D02*
D03*
X0103268D02*
D03*
X0123110D02*
D03*
X0172165D02*
D03*
X0192008D02*
D03*
X0241063D02*
D03*
X0260906D02*
D03*
X0309961D02*
D03*
X0329803D02*
D03*
X0378858D02*
D03*
X0398701D02*
D03*
D45*
X0055532Y0094384D02*
D03*
Y0100984D02*
D03*
X0050532D02*
D03*
X0060532Y0094384D02*
D03*
X0124429D02*
D03*
Y0100984D02*
D03*
X0119429D02*
D03*
X0129429Y0094384D02*
D03*
X0193327D02*
D03*
Y0100984D02*
D03*
X0188327D02*
D03*
X0198327Y0094384D02*
D03*
X0262224D02*
D03*
Y0100984D02*
D03*
X0257224D02*
D03*
X0267224Y0094384D02*
D03*
X0331122D02*
D03*
Y0100984D02*
D03*
X0326122D02*
D03*
X0336122Y0094384D02*
D03*
X0400020D02*
D03*
Y0100984D02*
D03*
X0395020D02*
D03*
X0405020Y0094384D02*
D03*
X0055532Y0215841D02*
D03*
Y0222441D02*
D03*
X0050532D02*
D03*
X0060532Y0215841D02*
D03*
X0124429D02*
D03*
Y0222441D02*
D03*
X0119429D02*
D03*
X0129429Y0215841D02*
D03*
X0193327D02*
D03*
Y0222441D02*
D03*
X0188327D02*
D03*
X0198327Y0215841D02*
D03*
X0262224D02*
D03*
Y0222441D02*
D03*
X0257224D02*
D03*
X0267224Y0215841D02*
D03*
X0331122D02*
D03*
Y0222441D02*
D03*
X0326122D02*
D03*
X0336122Y0215841D02*
D03*
X0400020D02*
D03*
Y0222441D02*
D03*
X0395020D02*
D03*
X0405020Y0215841D02*
D03*
D46*
X0060532Y0100984D02*
D03*
X0129429D02*
D03*
X0198327D02*
D03*
X0267224D02*
D03*
X0336122D02*
D03*
X0405020D02*
D03*
X0060532Y0222441D02*
D03*
X0129429D02*
D03*
X0198327D02*
D03*
X0267224D02*
D03*
X0336122D02*
D03*
X0405020D02*
D03*
M02*
