<svg version="1.1" xmlns="http://www.w3.org/2000/svg" xmlns:xlink="http://www.w3.org/1999/xlink" stroke-linecap="round" stroke-linejoin="round" stroke-width="0" fill-rule="evenodd" width="31.3907411092mm" height="24.4698mm" viewBox="-9945.7411092 -12215 31390.7411092 24469.8" id="Y03eC0qzQGNqyp8v-6TP">
  <defs>
    <mask id="Y03eC0qzQGNqyp8v-6TP_clear-1" fill="#000" stroke="#000">
      <g>
        <rect x="-9904.5" y="-9904.5" width="31349.5" height="19809" fill="#fff"/>
      </g>
    </mask>
  </defs>
  <g transform="translate(0,39.79999999999927) scale(1,-1)" fill="currentColor" stroke="currentColor">

    <!--outline of both chevrons-->
    <path d="M 9352.1 6611.8 A 450.0411092 450.0411092 0 1 1 9539.2 7492.1 M 9027.1 7642.9 A 2549.9911412 2549.9911412 0 0 1 9539.3 7492 M 8399.3 6943.7 A 799.95543 799.95543 0 0 1 9002.9 7652.9 M 8399.3 6943.8 A 3450.0143377 3450.0143377 0 0 1 9374 6607.3 
    M 7653 9003 A 800.018906 800.018906 0 0 1 6943.8 8399.4 M 6611.4 9351.9 A 3450.0208072 3450.0208072 0 0 1 6943.8 8399.3 M 7492 9539.1 A 450.0411092 450.0411092 0 0 1 6611.6 9352 M 7492 9539.3 A 2549.9805176 2549.9805176 0 0 1 7642.9 9027.1"
    fill="none" stroke-linecap="round" stroke-linejoin="round" stroke-width="100"/>
    
    <g mask="url(#Y03eC0qzQGNqyp8v-6TP_clear-1)">

      <!--in-fill for both chevrons -->
      <path d="M 6943.8 8399.3 6983.1 8517 7113.5 8727.4 7302 8887.9 7530.5 8983.1 7653 9003 7653 9003 7642.9 9027.1 7618.2 9089.2 7573.7 9215.3 7535.9 9343.6 7504.9 9473.6 7492 9539.2 7473.4 9626.8 7371.9 9774.3 7221.8 9871.8 7045.7 9904.4 6870.6 9867.2 6723.1 9765.7 6625.6 9615.6 6593 9439.5 6611.6 9352 6635.4 9227.6 6701 8983 6784.4 8743.8 6885.1 8511.4 6943.8 8399.3 6943.8 8399.3"/>
      <path d="M 8399.3 6944 8517 6983.3 8727.4 7113.7 8887.8 7302.2 8982.9 7530.7 9002.9 7653.2 9002.9 7653.2 9027.1 7643.1 9089.2 7618.4 9215.3 7573.9 9343.6 7536.1 9473.6 7505.1 9539.2 7492.2 9626.8 7473.6 9774.3 7372.2 9871.8 7222 9904.5 7046 9867.2 6870.9 9765.8 6723.4 9615.7 6625.9 9439.7 6593.2 9352.1 6611.8 9352.1 6611.8 9374 6607.5 9246.7 6630.9 8996.3 6696.9 8751.6 6781.4 8513.9 6884 8399.3 6944 8399.3 6944"/>
     
      <!-- ground symbol -->
      <path d="M 8248.5 7751.5 8047 7550 7550 8046.9 7751.5 8248.5 8248.5 7751.5"/>
    
    </g>

  </g>
</svg>
