<svg version="1.1" xmlns="http://www.w3.org/2000/svg" xmlns:xlink="http://www.w3.org/1999/xlink" stroke-linecap="round" stroke-linejoin="round" stroke-width="0" fill-rule="evenodd" width="31.3907411092mm" height="24.4698mm" viewBox="-9945.7411092 -12215 31390.7411092 24469.8" id="Y03eC0qzQGNqyp8v-6TP">
  <defs>
    <mask id="Y03eC0qzQGNqyp8v-6TP_clear-1" fill="#000" stroke="#000">
      <g>
        <rect x="-9904.5" y="-9904.5" width="31349.5" height="19809" fill="#fff"/>
      </g>
    </mask>
  </defs>
  <g transform="translate(0,39.79999999999927) scale(1,-1)" fill="currentColor" stroke="currentColor">

    <!--outline of both chevrons-->
    <path d="M -6611.6 9352.1 A 450.0411092 450.0411092 0 0 1 -7492 9539.3 M -7642.9 9027.1 A 2549.9911412 2549.9911412 0 0 1 -7492 9539.3 M -6943.8 8399.3 A 799.95543 799.95543 0 0 1 -7653 9002.9 M -6943.8 8399.3 A 3450.0143377 3450.0143377 0 0 1 -6607.3 9374 
    M -9002.9 7653 A 800.018906 800.018906 0 0 1 -8399.3 6943.8 M -9374 6607.3 A 3449.9694622 3449.9694622 0 0 1 -8399.3 6943.8 M -9539.2 7492 A 450.0411092 450.0411092 0 0 1 -9352.1 6611.6 M -9539.2 7492 A 2549.9805176 2549.9805176 0 0 1 -9027.1 7642.9" 
    fill="none" stroke-linecap="round" stroke-linejoin="round" stroke-width="100"/>
    
    <g mask="url(#Y03eC0qzQGNqyp8v-6TP_clear-1)">

      <!--in-fill for both chevrons -->
      <path d="M -8399.3 6943.8 -8517 6983.1 -8727.4 7113.5 -8887.8 7302 -8982.9 7530.5 -9002.9 7653 -9002.9 7653 -9027.1 7642.9 -9089.2 7618.2 -9215.3 7573.7 -9343.6 7535.9 -9473.6 7504.9 -9539.3 7492 -9539.2 7492 -9626.8 7473.4 -9774.3 7372 -9871.8 7221.8 -9904.5 7045.8 -9867.2 6870.7 -9765.8 6723.2 -9615.7 6625.6 -9439.7 6593 -9352.1 6611.6 -9352.1 6611.6 -9374 6607.3 -9246.7 6630.8 -8996.3 6696.7 -8751.6 6781.2 -8513.9 6883.8 -8399.3 6943.8 -8399.3 6943.8"/>
      <path d="M -6943.8 8399.3 -6983.1 8517 -7113.5 8727.4 -7302 8887.8 -7530.5 8982.9 -7653 9002.9 -7653 9002.9 -7642.9 9027.1 -7618.2 9089.2 -7573.7 9215.3 -7535.9 9343.6 -7504.9 9473.6 -7492 9539.3 -7473.4 9626.8 -7372 9774.3 -7221.8 9871.8 -7045.8 9904.5 -6870.7 9867.2 -6723.2 9765.8 -6625.6 9615.7 -6593 9439.7 -6611.6 9352.1 -6611.6 9352.1 -6607.3 9374 -6630.8 9246.7 -6696.7 8996.3 -6781.2 8751.6 -6883.8 8513.9 -6943.8 8399.3 -6943.8 8399.3"/> 
     
      <!-- data symbol -->
      <path d="M -8366.1 7484 -7973.4 7407.7 M -8366.1 7484 A 2999.9808683 2999.9808683 0 0 1 -7484 8366.1 L -7400.8 7974.8 M -7484 8366.1 -7883.5 8345.1 M -8352.1 7883.7 -8366.1 7484" fill="none" stroke-linecap="round" stroke-linejoin="round" stroke-width="200"/>

    </g>

  </g>
</svg>
