G04*
G04 #@! TF.GenerationSoftware,Altium Limited,Altium Designer,21.6.1 (37)*
G04*
G04 Layer_Color=16711935*
%FSAX25Y25*%
%MOIN*%
G70*
G04*
G04 #@! TF.SameCoordinates,2A6196F6-AC41-4C62-9EE7-3AB2130DBF51*
G04*
G04*
G04 #@! TF.FilePolarity,Negative*
G04*
G01*
G75*
%ADD12C,0.00394*%
%ADD68C,0.12205*%
%ADD70C,0.00591*%
%ADD71C,0.04961*%
%ADD72R,0.04961X0.04961*%
G04:AMPARAMS|DCode=73|XSize=49.21mil|YSize=72.84mil|CornerRadius=22.44mil|HoleSize=0mil|Usage=FLASHONLY|Rotation=0.000|XOffset=0mil|YOffset=0mil|HoleType=Round|Shape=RoundedRectangle|*
%AMROUNDEDRECTD73*
21,1,0.04921,0.02795,0,0,0.0*
21,1,0.00433,0.07284,0,0,0.0*
1,1,0.04488,0.00217,-0.01398*
1,1,0.04488,-0.00217,-0.01398*
1,1,0.04488,-0.00217,0.01398*
1,1,0.04488,0.00217,0.01398*
%
%ADD73ROUNDEDRECTD73*%
G04:AMPARAMS|DCode=74|XSize=49.21mil|YSize=92.52mil|CornerRadius=22.44mil|HoleSize=0mil|Usage=FLASHONLY|Rotation=0.000|XOffset=0mil|YOffset=0mil|HoleType=Round|Shape=RoundedRectangle|*
%AMROUNDEDRECTD74*
21,1,0.04921,0.04764,0,0,0.0*
21,1,0.00433,0.09252,0,0,0.0*
1,1,0.04488,0.00217,-0.02382*
1,1,0.04488,-0.00217,-0.02382*
1,1,0.04488,-0.00217,0.02382*
1,1,0.04488,0.00217,0.02382*
%
%ADD74ROUNDEDRECTD74*%
G04:AMPARAMS|DCode=75|XSize=5.91mil|YSize=5.91mil|CornerRadius=0mil|HoleSize=0mil|Usage=FLASHONLY|Rotation=0.000|XOffset=0mil|YOffset=0mil|HoleType=Round|Shape=RoundedRectangle|*
%AMROUNDEDRECTD75*
21,1,0.00591,0.00591,0,0,0.0*
21,1,0.00591,0.00591,0,0,0.0*
1,1,0.00000,0.00295,-0.00295*
1,1,0.00000,-0.00295,-0.00295*
1,1,0.00000,-0.00295,0.00295*
1,1,0.00000,0.00295,0.00295*
%
%ADD75ROUNDEDRECTD75*%
%ADD76C,0.02953*%
G04:AMPARAMS|DCode=95|XSize=35.43mil|YSize=135.83mil|CornerRadius=13.82mil|HoleSize=0mil|Usage=FLASHONLY|Rotation=270.000|XOffset=0mil|YOffset=0mil|HoleType=Round|Shape=RoundedRectangle|*
%AMROUNDEDRECTD95*
21,1,0.03543,0.10819,0,0,270.0*
21,1,0.00780,0.13583,0,0,270.0*
1,1,0.02764,-0.05409,-0.00390*
1,1,0.02764,-0.05409,0.00390*
1,1,0.02764,0.05409,0.00390*
1,1,0.02764,0.05409,-0.00390*
%
%ADD95ROUNDEDRECTD95*%
G04:AMPARAMS|DCode=96|XSize=35.43mil|YSize=116.14mil|CornerRadius=13.82mil|HoleSize=0mil|Usage=FLASHONLY|Rotation=270.000|XOffset=0mil|YOffset=0mil|HoleType=Round|Shape=RoundedRectangle|*
%AMROUNDEDRECTD96*
21,1,0.03543,0.08850,0,0,270.0*
21,1,0.00780,0.11614,0,0,270.0*
1,1,0.02764,-0.04425,-0.00390*
1,1,0.02764,-0.04425,0.00390*
1,1,0.02764,0.04425,0.00390*
1,1,0.02764,0.04425,-0.00390*
%
%ADD96ROUNDEDRECTD96*%
%ADD98C,0.04331*%
%ADD99C,0.05591*%
D12*
X-0066927Y0003150D02*
G03*
X-0063774Y0000000I0003145J-0000004D01*
G01*
Y0025748D02*
G03*
X-0066927Y0022598I-0000008J-0003145D01*
G01*
X-0047829Y0025748D02*
G03*
X-0043892Y0029689I-0000001J0003938D01*
G01*
Y0034803D02*
G03*
X-0047829Y0038740I-0003938J-0000001D01*
G01*
X-0066927Y0041890D02*
G03*
X-0063774Y0038740I0003145J-0000004D01*
G01*
Y0064488D02*
G03*
X-0066927Y0061339I-0000008J-0003145D01*
G01*
X-0047829Y0064488D02*
G03*
X-0047829Y0072366I-0000006J0003939D01*
G01*
X-0066919Y0080240D02*
G03*
X-0059045Y0072366I0007870J-0000004D01*
G01*
X-0059049Y0168038D02*
G03*
X-0066923Y0160164I0000003J-0007877D01*
G01*
X0059053Y0072366D02*
G03*
X0066927Y0080240I-0000010J0007884D01*
G01*
X0047837Y0072366D02*
G03*
X0047829Y0064488I-0000006J-0003939D01*
G01*
X0066927Y0061339D02*
G03*
X0063774Y0064488I-0003152J-0000002D01*
G01*
Y0038740D02*
G03*
X0066927Y0041890I0000001J0003152D01*
G01*
X0047829Y0038740D02*
G03*
X0043892Y0034803I0000001J-0003938D01*
G01*
Y0029689D02*
G03*
X0047829Y0025748I0003938J-0000002D01*
G01*
X0066927Y0022598D02*
G03*
X0063774Y0025748I-0003152J-0000002D01*
G01*
Y0000000D02*
G03*
X0066927Y0003150I0000001J0003152D01*
G01*
Y0160164D02*
G03*
X0059053Y0168038I-0007877J-0000003D01*
G01*
X-0063774Y0000000D02*
X0063774D01*
X-0066927Y0003150D02*
Y0022598D01*
X-0063774Y0025748D02*
X-0047829D01*
X-0043892Y0029689D02*
Y0034803D01*
X-0063774Y0038740D02*
X-0047829D01*
X-0066927Y0041890D02*
Y0061339D01*
X-0063774Y0064488D02*
X-0047829D01*
X-0059045Y0072366D02*
X-0047829D01*
X-0066920Y0086817D02*
X-0066919Y0080240D01*
X-0066920Y0086817D02*
X-0066920D01*
X-0066923Y0160161D02*
X-0066920Y0086817D01*
X-0059049Y0168035D02*
X0059053D01*
X0047837Y0072366D02*
X0059053D01*
X0047829Y0064488D02*
X0063774D01*
X0066927Y0041890D02*
Y0061339D01*
X0047829Y0038740D02*
X0063774D01*
X0043892Y0029689D02*
Y0034803D01*
X0047829Y0025748D02*
X0063774D01*
X0066927Y0003150D02*
Y0022598D01*
Y0080240D02*
Y0160161D01*
D68*
X-0059055Y0159004D02*
D03*
X0059055Y0080264D02*
D03*
Y0159004D02*
D03*
X-0059055Y0080264D02*
D03*
D70*
X0054331Y0022776D02*
D03*
Y0002933D02*
D03*
X-0054331Y0041717D02*
D03*
Y0061559D02*
D03*
X0054331D02*
D03*
Y0041717D02*
D03*
X-0054331Y0002933D02*
D03*
Y0022776D02*
D03*
X0011378Y0021870D02*
D03*
D71*
X0048913Y0108209D02*
D03*
Y0103209D02*
D03*
X0048912Y0093209D02*
D03*
X0055512Y0103209D02*
D03*
Y0098209D02*
D03*
X0048912D02*
D03*
X0055610Y0120748D02*
D03*
X0049010D02*
D03*
Y0125748D02*
D03*
X0055610Y0115748D02*
D03*
D72*
X0055512Y0093209D02*
D03*
X0049010Y0115748D02*
D03*
D73*
X-0017008Y0007500D02*
D03*
X0017008D02*
D03*
D74*
X-0017008Y0023957D02*
D03*
X0017008D02*
D03*
D75*
X-0011378Y0021870D02*
D03*
D76*
X-0001732Y0127165D02*
D03*
X-0007638D02*
D03*
X-0001732Y0133071D02*
D03*
X-0007638D02*
D03*
X-0001732Y0138976D02*
D03*
X-0007638D02*
D03*
X0001221Y0130118D02*
D03*
X-0004685D02*
D03*
X-0010591D02*
D03*
X0001221Y0136024D02*
D03*
X-0010591D02*
D03*
X-0004685D02*
D03*
D95*
X0057382Y0012855D02*
D03*
Y0007854D02*
D03*
X-0057382Y0051638D02*
D03*
Y0056638D02*
D03*
X0057382Y0051638D02*
D03*
Y0046638D02*
D03*
X-0057382Y0012855D02*
D03*
Y0017854D02*
D03*
D96*
X0056398D02*
D03*
X-0056398Y0046638D02*
D03*
X0056398Y0056638D02*
D03*
X-0056398Y0007854D02*
D03*
D98*
X0046063D02*
D03*
Y0012855D02*
D03*
Y0017854D02*
D03*
X-0046063Y0056638D02*
D03*
Y0051638D02*
D03*
Y0046638D02*
D03*
X0046063D02*
D03*
Y0051638D02*
D03*
Y0056638D02*
D03*
X-0046063Y0017854D02*
D03*
Y0012855D02*
D03*
Y0007854D02*
D03*
D99*
X-0040872Y0093898D02*
D03*
X-0040841Y0123066D02*
D03*
Y0129948D02*
D03*
X0022348Y0089232D02*
D03*
Y0065118D02*
D03*
Y0082743D02*
D03*
Y0076142D02*
D03*
Y0153504D02*
D03*
Y0146910D02*
D03*
Y0109213D02*
D03*
Y0102323D02*
D03*
Y0095728D02*
D03*
M02*
