G04*
G04 #@! TF.GenerationSoftware,Altium Limited,Altium Designer,21.9.2 (33)*
G04*
G04 Layer_Color=8388736*
%FSLAX42Y42*%
%MOMM*%
G71*
G04*
G04 #@! TF.SameCoordinates,3B3C94B3-70F9-448F-95CB-C861D5BFCF53*
G04*
G04*
G04 #@! TF.FilePolarity,Positive*
G04*
G01*
G75*
%ADD13C,0.10*%
G36*
X1100Y4019D02*
X1101Y4019D01*
X1102Y4019D01*
X1103Y4018D01*
X1104Y4018D01*
X1104Y4018D01*
X1104Y4017D01*
X1105Y4017D01*
X1105Y4015D01*
X1105Y4014D01*
X1106Y4013D01*
X1106Y4013D01*
X1106Y4013D01*
X1105Y4012D01*
X1105Y4011D01*
X1105Y4010D01*
X1104Y4009D01*
X1104Y4008D01*
X1103Y4008D01*
X1103Y4008D01*
X1102Y4007D01*
X1101Y4007D01*
X1100Y4007D01*
X1099Y4006D01*
X1098Y4006D01*
X1098Y4007D01*
X1097Y4007D01*
X1096Y4007D01*
X1095Y4008D01*
X1094Y4008D01*
X1094Y4008D01*
X1094Y4008D01*
X1094Y4009D01*
X1093Y4009D01*
X1093Y4011D01*
X1093Y4012D01*
X1092Y4013D01*
X1092Y4013D01*
X1092Y4014D01*
X1093Y4014D01*
X1093Y4015D01*
X1093Y4016D01*
X1094Y4017D01*
X1094Y4018D01*
X1094Y4018D01*
X1095Y4018D01*
X1096Y4019D01*
X1097Y4019D01*
X1098Y4020D01*
X1099Y4020D01*
X1100Y4019D01*
X1100Y4019D02*
G37*
G36*
X795Y3926D02*
X785Y3926D01*
X785Y3937D01*
X785Y3937D01*
X785Y3937D01*
X785Y3937D01*
X784Y3936D01*
X784Y3935D01*
X783Y3934D01*
X782Y3933D01*
X781Y3932D01*
X779Y3931D01*
X778Y3930D01*
X776Y3929D01*
X775Y3928D01*
X773Y3927D01*
X771Y3926D01*
X768Y3925D01*
X766Y3925D01*
X763Y3925D01*
X762Y3925D01*
X761Y3925D01*
X760Y3925D01*
X759Y3925D01*
X756Y3926D01*
X753Y3927D01*
X750Y3929D01*
X748Y3930D01*
X747Y3931D01*
X745Y3932D01*
X744Y3933D01*
X744Y3934D01*
X743Y3934D01*
X743Y3934D01*
X743Y3935D01*
X742Y3936D01*
X741Y3937D01*
X741Y3938D01*
X740Y3940D01*
X739Y3941D01*
X739Y3943D01*
X738Y3945D01*
X738Y3947D01*
X737Y3949D01*
X737Y3952D01*
X737Y3954D01*
X737Y3957D01*
X737Y3957D01*
X737Y3957D01*
X737Y3958D01*
X737Y3959D01*
X737Y3961D01*
X737Y3962D01*
X737Y3964D01*
X738Y3966D01*
X738Y3970D01*
X740Y3974D01*
X741Y3976D01*
X742Y3978D01*
X743Y3980D01*
X744Y3982D01*
X745Y3982D01*
X745Y3983D01*
X745Y3983D01*
X746Y3984D01*
X747Y3984D01*
X748Y3985D01*
X749Y3986D01*
X750Y3987D01*
X753Y3989D01*
X757Y3990D01*
X759Y3991D01*
X761Y3991D01*
X763Y3992D01*
X766Y3992D01*
X767Y3992D01*
X768Y3992D01*
X769Y3991D01*
X770Y3991D01*
X773Y3990D01*
X776Y3989D01*
X778Y3988D01*
X779Y3987D01*
X781Y3986D01*
X782Y3985D01*
X784Y3983D01*
X785Y3981D01*
X785Y3981D01*
X785Y4021D01*
X795Y4021D01*
X795Y3926D01*
X795Y3926D02*
G37*
G36*
X1158Y3992D02*
X1160Y3991D01*
X1162Y3991D01*
X1165Y3990D01*
X1167Y3989D01*
X1170Y3987D01*
X1171Y3986D01*
X1172Y3985D01*
X1172Y3985D01*
X1173Y3984D01*
X1174Y3982D01*
X1175Y3980D01*
X1176Y3977D01*
X1177Y3974D01*
X1177Y3970D01*
X1178Y3965D01*
X1178Y3926D01*
X1167Y3926D01*
X1167Y3963D01*
X1167Y3963D01*
X1167Y3964D01*
X1167Y3965D01*
X1167Y3966D01*
X1167Y3967D01*
X1167Y3969D01*
X1166Y3971D01*
X1165Y3973D01*
X1165Y3975D01*
X1164Y3977D01*
X1162Y3978D01*
X1161Y3980D01*
X1159Y3981D01*
X1157Y3982D01*
X1155Y3983D01*
X1153Y3983D01*
X1152Y3983D01*
X1151Y3983D01*
X1150Y3983D01*
X1148Y3982D01*
X1146Y3982D01*
X1144Y3981D01*
X1142Y3979D01*
X1140Y3977D01*
X1140Y3977D01*
X1139Y3976D01*
X1138Y3975D01*
X1137Y3973D01*
X1136Y3971D01*
X1136Y3969D01*
X1135Y3966D01*
X1135Y3963D01*
X1135Y3926D01*
X1125Y3926D01*
X1125Y3990D01*
X1135Y3990D01*
X1135Y3980D01*
X1135Y3980D01*
X1135Y3980D01*
X1135Y3980D01*
X1136Y3981D01*
X1137Y3981D01*
X1137Y3982D01*
X1138Y3983D01*
X1139Y3984D01*
X1140Y3986D01*
X1142Y3987D01*
X1143Y3988D01*
X1145Y3989D01*
X1147Y3990D01*
X1149Y3991D01*
X1151Y3991D01*
X1154Y3992D01*
X1156Y3992D01*
X1157Y3992D01*
X1158Y3992D01*
X1158Y3992D02*
G37*
G36*
X726Y3991D02*
X728Y3991D01*
X729Y3991D01*
X730Y3990D01*
X730Y3980D01*
X730Y3980D01*
X729Y3980D01*
X729Y3981D01*
X728Y3981D01*
X727Y3981D01*
X725Y3982D01*
X724Y3982D01*
X722Y3982D01*
X722Y3982D01*
X721Y3982D01*
X720Y3982D01*
X718Y3981D01*
X716Y3980D01*
X715Y3979D01*
X713Y3978D01*
X711Y3976D01*
X711Y3975D01*
X710Y3975D01*
X710Y3973D01*
X709Y3971D01*
X708Y3969D01*
X707Y3966D01*
X707Y3963D01*
X707Y3959D01*
X707Y3926D01*
X696Y3926D01*
X696Y3990D01*
X707Y3990D01*
X707Y3977D01*
X707Y3977D01*
X707Y3977D01*
X707Y3977D01*
X707Y3978D01*
X708Y3979D01*
X709Y3981D01*
X710Y3983D01*
X711Y3984D01*
X712Y3986D01*
X714Y3988D01*
X714Y3988D01*
X714Y3988D01*
X715Y3989D01*
X717Y3989D01*
X718Y3990D01*
X720Y3991D01*
X722Y3991D01*
X724Y3991D01*
X725Y3991D01*
X726Y3991D01*
X726Y3991D02*
G37*
G36*
X999Y3926D02*
X989Y3926D01*
X989Y3936D01*
X988Y3936D01*
X988Y3936D01*
X988Y3936D01*
X988Y3935D01*
X987Y3935D01*
X986Y3933D01*
X983Y3931D01*
X982Y3930D01*
X981Y3929D01*
X979Y3928D01*
X977Y3927D01*
X975Y3926D01*
X973Y3925D01*
X971Y3925D01*
X969Y3925D01*
X968Y3925D01*
X967Y3925D01*
X965Y3925D01*
X963Y3926D01*
X961Y3926D01*
X959Y3927D01*
X957Y3928D01*
X955Y3930D01*
X953Y3932D01*
X951Y3934D01*
X949Y3936D01*
X948Y3939D01*
X947Y3943D01*
X946Y3947D01*
X946Y3950D01*
X946Y3952D01*
X946Y3990D01*
X956Y3990D01*
X956Y3954D01*
X956Y3953D01*
X956Y3953D01*
X956Y3952D01*
X956Y3950D01*
X956Y3949D01*
X957Y3947D01*
X957Y3945D01*
X958Y3944D01*
X959Y3942D01*
X960Y3940D01*
X961Y3938D01*
X962Y3937D01*
X964Y3935D01*
X966Y3934D01*
X969Y3934D01*
X971Y3933D01*
X972Y3933D01*
X973Y3934D01*
X974Y3934D01*
X976Y3934D01*
X978Y3935D01*
X980Y3936D01*
X982Y3937D01*
X984Y3939D01*
X984Y3939D01*
X985Y3940D01*
X985Y3941D01*
X986Y3943D01*
X987Y3945D01*
X988Y3947D01*
X988Y3950D01*
X989Y3953D01*
X989Y3990D01*
X999Y3990D01*
X999Y3926D01*
X999Y3926D02*
G37*
G36*
X1104Y3926D02*
X1094Y3926D01*
X1094Y3990D01*
X1104Y3990D01*
X1104Y3926D01*
X1104Y3926D02*
G37*
G36*
X1073Y3926D02*
X1063Y3926D01*
X1063Y4021D01*
X1073Y4021D01*
X1073Y3926D01*
X1073Y3926D02*
G37*
G36*
X657Y3992D02*
X658Y3991D01*
X660Y3991D01*
X662Y3990D01*
X664Y3990D01*
X666Y3989D01*
X668Y3987D01*
X670Y3986D01*
X672Y3984D01*
X674Y3982D01*
X675Y3979D01*
X676Y3976D01*
X677Y3972D01*
X677Y3968D01*
X677Y3926D01*
X667Y3926D01*
X667Y3936D01*
X667Y3936D01*
X667Y3936D01*
X666Y3936D01*
X666Y3935D01*
X665Y3935D01*
X664Y3933D01*
X662Y3931D01*
X659Y3929D01*
X656Y3927D01*
X654Y3926D01*
X652Y3925D01*
X649Y3925D01*
X647Y3925D01*
X646Y3925D01*
X646Y3925D01*
X644Y3925D01*
X642Y3926D01*
X639Y3926D01*
X637Y3927D01*
X634Y3928D01*
X632Y3930D01*
X632Y3930D01*
X631Y3931D01*
X630Y3932D01*
X629Y3933D01*
X629Y3935D01*
X628Y3938D01*
X627Y3940D01*
X627Y3943D01*
X627Y3943D01*
X627Y3944D01*
X627Y3945D01*
X627Y3946D01*
X627Y3947D01*
X628Y3949D01*
X629Y3951D01*
X629Y3953D01*
X631Y3954D01*
X632Y3956D01*
X634Y3958D01*
X636Y3960D01*
X638Y3961D01*
X641Y3962D01*
X644Y3963D01*
X648Y3964D01*
X667Y3967D01*
X667Y3967D01*
X667Y3967D01*
X667Y3968D01*
X667Y3969D01*
X667Y3971D01*
X666Y3972D01*
X665Y3975D01*
X665Y3976D01*
X664Y3978D01*
X663Y3979D01*
X662Y3981D01*
X660Y3982D01*
X658Y3982D01*
X656Y3983D01*
X654Y3983D01*
X653Y3983D01*
X652Y3983D01*
X651Y3983D01*
X650Y3983D01*
X647Y3982D01*
X644Y3981D01*
X640Y3980D01*
X638Y3979D01*
X637Y3978D01*
X635Y3977D01*
X633Y3975D01*
X633Y3986D01*
X633Y3986D01*
X634Y3986D01*
X634Y3986D01*
X635Y3987D01*
X636Y3987D01*
X637Y3988D01*
X638Y3988D01*
X639Y3989D01*
X643Y3990D01*
X646Y3991D01*
X650Y3991D01*
X655Y3992D01*
X656Y3992D01*
X657Y3992D01*
X657Y3992D02*
G37*
G36*
X512Y4016D02*
X513Y4016D01*
X515Y4015D01*
X517Y4015D01*
X520Y4014D01*
X523Y4013D01*
X526Y4012D01*
X529Y4010D01*
X529Y4010D01*
X529Y4010D01*
X530Y4009D01*
X531Y4008D01*
X532Y4006D01*
X533Y4004D01*
X535Y4001D01*
X535Y3999D01*
X536Y3997D01*
X536Y3995D01*
X536Y3995D01*
X536Y3995D01*
X536Y3994D01*
X535Y3993D01*
X535Y3991D01*
X535Y3989D01*
X534Y3986D01*
X533Y3984D01*
X532Y3982D01*
X531Y3982D01*
X531Y3981D01*
X530Y3980D01*
X529Y3979D01*
X527Y3978D01*
X525Y3976D01*
X523Y3975D01*
X520Y3974D01*
X520Y3974D01*
X521Y3974D01*
X521Y3974D01*
X522Y3974D01*
X523Y3973D01*
X525Y3973D01*
X528Y3972D01*
X530Y3971D01*
X532Y3969D01*
X535Y3967D01*
X535Y3967D01*
X535Y3966D01*
X536Y3965D01*
X537Y3963D01*
X538Y3961D01*
X539Y3958D01*
X540Y3955D01*
X540Y3952D01*
X540Y3952D01*
X540Y3952D01*
X540Y3951D01*
X540Y3950D01*
X540Y3949D01*
X540Y3948D01*
X539Y3945D01*
X538Y3942D01*
X537Y3939D01*
X536Y3938D01*
X535Y3936D01*
X533Y3935D01*
X532Y3933D01*
X532Y3933D01*
X531Y3933D01*
X531Y3933D01*
X530Y3932D01*
X529Y3932D01*
X528Y3931D01*
X526Y3930D01*
X523Y3929D01*
X520Y3928D01*
X516Y3927D01*
X513Y3927D01*
X511Y3926D01*
X485Y3926D01*
X485Y4016D01*
X512Y4016D01*
X512Y4016D01*
X512Y4016D02*
G37*
G36*
X1033Y3990D02*
X1049Y3990D01*
X1049Y3981D01*
X1033Y3981D01*
X1033Y3945D01*
X1033Y3945D01*
X1033Y3944D01*
X1033Y3943D01*
X1033Y3942D01*
X1034Y3939D01*
X1034Y3937D01*
X1035Y3936D01*
X1035Y3936D01*
X1036Y3936D01*
X1036Y3936D01*
X1037Y3935D01*
X1038Y3934D01*
X1039Y3934D01*
X1041Y3934D01*
X1042Y3934D01*
X1043Y3934D01*
X1044Y3934D01*
X1045Y3934D01*
X1047Y3935D01*
X1048Y3935D01*
X1049Y3936D01*
X1049Y3927D01*
X1049Y3927D01*
X1048Y3927D01*
X1048Y3926D01*
X1047Y3926D01*
X1045Y3926D01*
X1044Y3925D01*
X1042Y3925D01*
X1040Y3925D01*
X1039Y3925D01*
X1038Y3925D01*
X1037Y3925D01*
X1036Y3926D01*
X1034Y3926D01*
X1033Y3927D01*
X1031Y3928D01*
X1030Y3928D01*
X1028Y3930D01*
X1027Y3931D01*
X1025Y3933D01*
X1024Y3935D01*
X1023Y3938D01*
X1023Y3940D01*
X1023Y3944D01*
X1023Y3981D01*
X1012Y3981D01*
X1012Y3990D01*
X1023Y3990D01*
X1023Y4006D01*
X1033Y4009D01*
X1033Y3990D01*
X1033Y3990D02*
G37*
G36*
X1224Y3992D02*
X1225Y3991D01*
X1226Y3991D01*
X1229Y3991D01*
X1232Y3990D01*
X1235Y3988D01*
X1237Y3987D01*
X1239Y3986D01*
X1240Y3985D01*
X1241Y3983D01*
X1242Y3983D01*
X1242Y3983D01*
X1242Y3983D01*
X1243Y3982D01*
X1243Y3981D01*
X1244Y3980D01*
X1244Y3979D01*
X1245Y3978D01*
X1246Y3976D01*
X1246Y3975D01*
X1247Y3973D01*
X1247Y3971D01*
X1248Y3968D01*
X1248Y3966D01*
X1248Y3964D01*
X1248Y3961D01*
X1248Y3956D01*
X1203Y3956D01*
X1203Y3956D01*
X1203Y3955D01*
X1203Y3955D01*
X1203Y3954D01*
X1204Y3953D01*
X1204Y3952D01*
X1204Y3950D01*
X1205Y3947D01*
X1206Y3944D01*
X1207Y3942D01*
X1209Y3939D01*
X1209Y3939D01*
X1210Y3938D01*
X1211Y3937D01*
X1213Y3936D01*
X1215Y3935D01*
X1218Y3934D01*
X1221Y3934D01*
X1224Y3933D01*
X1225Y3933D01*
X1226Y3934D01*
X1227Y3934D01*
X1228Y3934D01*
X1231Y3934D01*
X1234Y3935D01*
X1237Y3936D01*
X1240Y3938D01*
X1242Y3939D01*
X1244Y3941D01*
X1244Y3931D01*
X1244Y3931D01*
X1243Y3931D01*
X1243Y3931D01*
X1242Y3930D01*
X1241Y3930D01*
X1240Y3929D01*
X1239Y3929D01*
X1238Y3928D01*
X1236Y3927D01*
X1235Y3927D01*
X1231Y3926D01*
X1226Y3925D01*
X1222Y3925D01*
X1220Y3925D01*
X1219Y3925D01*
X1218Y3925D01*
X1217Y3925D01*
X1214Y3926D01*
X1210Y3927D01*
X1207Y3929D01*
X1205Y3930D01*
X1204Y3931D01*
X1202Y3932D01*
X1200Y3934D01*
X1200Y3934D01*
X1200Y3934D01*
X1200Y3935D01*
X1199Y3935D01*
X1199Y3936D01*
X1198Y3937D01*
X1197Y3939D01*
X1197Y3940D01*
X1196Y3942D01*
X1195Y3943D01*
X1194Y3945D01*
X1194Y3948D01*
X1193Y3950D01*
X1193Y3953D01*
X1193Y3955D01*
X1193Y3958D01*
X1193Y3958D01*
X1193Y3959D01*
X1193Y3959D01*
X1193Y3961D01*
X1193Y3962D01*
X1193Y3963D01*
X1193Y3965D01*
X1194Y3967D01*
X1195Y3970D01*
X1196Y3975D01*
X1197Y3977D01*
X1198Y3978D01*
X1200Y3981D01*
X1201Y3982D01*
X1201Y3982D01*
X1201Y3983D01*
X1202Y3983D01*
X1203Y3984D01*
X1203Y3984D01*
X1204Y3985D01*
X1206Y3986D01*
X1207Y3987D01*
X1210Y3989D01*
X1213Y3990D01*
X1215Y3991D01*
X1218Y3991D01*
X1220Y3992D01*
X1222Y3992D01*
X1223Y3992D01*
X1224Y3992D01*
X1224Y3992D02*
G37*
G36*
X893Y4017D02*
X894Y4017D01*
X896Y4017D01*
X898Y4016D01*
X901Y4016D01*
X903Y4015D01*
X905Y4014D01*
X908Y4013D01*
X910Y4012D01*
X913Y4011D01*
X915Y4009D01*
X917Y4007D01*
X920Y4005D01*
X920Y4005D01*
X920Y4004D01*
X921Y4003D01*
X921Y4003D01*
X922Y4001D01*
X923Y4000D01*
X924Y3998D01*
X925Y3996D01*
X926Y3994D01*
X927Y3991D01*
X928Y3989D01*
X929Y3986D01*
X930Y3983D01*
X930Y3979D01*
X931Y3976D01*
X931Y3972D01*
X931Y3972D01*
X931Y3971D01*
X931Y3970D01*
X931Y3969D01*
X931Y3967D01*
X930Y3965D01*
X930Y3962D01*
X929Y3960D01*
X929Y3957D01*
X928Y3954D01*
X927Y3951D01*
X926Y3948D01*
X925Y3945D01*
X923Y3943D01*
X921Y3940D01*
X919Y3938D01*
X919Y3937D01*
X919Y3937D01*
X918Y3936D01*
X917Y3936D01*
X916Y3935D01*
X915Y3934D01*
X913Y3932D01*
X911Y3931D01*
X909Y3930D01*
X907Y3929D01*
X904Y3928D01*
X901Y3927D01*
X898Y3926D01*
X895Y3925D01*
X892Y3925D01*
X888Y3925D01*
X887Y3925D01*
X886Y3925D01*
X885Y3925D01*
X884Y3925D01*
X882Y3926D01*
X880Y3926D01*
X877Y3927D01*
X875Y3927D01*
X872Y3928D01*
X870Y3929D01*
X867Y3930D01*
X865Y3932D01*
X862Y3933D01*
X860Y3935D01*
X858Y3937D01*
X858Y3938D01*
X857Y3938D01*
X857Y3939D01*
X856Y3940D01*
X855Y3941D01*
X854Y3942D01*
X853Y3944D01*
X852Y3946D01*
X851Y3948D01*
X850Y3951D01*
X849Y3953D01*
X848Y3956D01*
X848Y3959D01*
X847Y3963D01*
X847Y3966D01*
X846Y3970D01*
X846Y3970D01*
X846Y3971D01*
X847Y3972D01*
X847Y3974D01*
X847Y3975D01*
X847Y3978D01*
X847Y3980D01*
X848Y3982D01*
X849Y3985D01*
X849Y3988D01*
X850Y3991D01*
X851Y3994D01*
X853Y3996D01*
X854Y3999D01*
X856Y4002D01*
X858Y4004D01*
X858Y4005D01*
X859Y4005D01*
X859Y4006D01*
X860Y4006D01*
X861Y4007D01*
X863Y4008D01*
X865Y4010D01*
X866Y4011D01*
X869Y4012D01*
X871Y4013D01*
X874Y4014D01*
X876Y4015D01*
X879Y4016D01*
X883Y4017D01*
X886Y4017D01*
X890Y4017D01*
X892Y4017D01*
X893Y4017D01*
X893Y4017D02*
G37*
G36*
X587Y3992D02*
X588Y3991D01*
X590Y3991D01*
X593Y3991D01*
X597Y3989D01*
X600Y3988D01*
X602Y3987D01*
X604Y3986D01*
X606Y3984D01*
X607Y3983D01*
X607Y3983D01*
X607Y3982D01*
X608Y3982D01*
X608Y3981D01*
X609Y3980D01*
X610Y3979D01*
X610Y3978D01*
X611Y3977D01*
X612Y3975D01*
X613Y3973D01*
X613Y3971D01*
X614Y3969D01*
X614Y3967D01*
X615Y3964D01*
X615Y3961D01*
X615Y3958D01*
X615Y3958D01*
X615Y3958D01*
X615Y3957D01*
X615Y3956D01*
X615Y3955D01*
X615Y3953D01*
X614Y3952D01*
X614Y3950D01*
X613Y3946D01*
X612Y3942D01*
X611Y3940D01*
X609Y3938D01*
X608Y3936D01*
X607Y3934D01*
X606Y3934D01*
X606Y3934D01*
X606Y3933D01*
X605Y3933D01*
X604Y3932D01*
X603Y3931D01*
X602Y3930D01*
X600Y3930D01*
X599Y3929D01*
X597Y3928D01*
X595Y3927D01*
X593Y3926D01*
X591Y3926D01*
X589Y3925D01*
X586Y3925D01*
X583Y3925D01*
X582Y3925D01*
X581Y3925D01*
X580Y3925D01*
X579Y3925D01*
X577Y3926D01*
X575Y3926D01*
X572Y3927D01*
X568Y3929D01*
X566Y3930D01*
X564Y3931D01*
X563Y3932D01*
X561Y3934D01*
X561Y3934D01*
X560Y3934D01*
X560Y3935D01*
X560Y3935D01*
X559Y3936D01*
X558Y3937D01*
X557Y3939D01*
X557Y3940D01*
X556Y3942D01*
X555Y3944D01*
X554Y3945D01*
X554Y3948D01*
X553Y3952D01*
X553Y3955D01*
X552Y3958D01*
X552Y3958D01*
X552Y3958D01*
X552Y3959D01*
X553Y3960D01*
X553Y3961D01*
X553Y3963D01*
X553Y3965D01*
X554Y3967D01*
X554Y3971D01*
X556Y3975D01*
X557Y3977D01*
X558Y3979D01*
X560Y3981D01*
X561Y3983D01*
X561Y3983D01*
X562Y3983D01*
X562Y3983D01*
X563Y3984D01*
X564Y3985D01*
X565Y3985D01*
X566Y3986D01*
X567Y3987D01*
X569Y3988D01*
X571Y3989D01*
X573Y3990D01*
X575Y3990D01*
X577Y3991D01*
X580Y3991D01*
X582Y3992D01*
X585Y3992D01*
X586Y3992D01*
X587Y3992D01*
X587Y3992D02*
G37*
G36*
X895Y3892D02*
X896Y3892D01*
X899Y3892D01*
X903Y3891D01*
X906Y3891D01*
X910Y3890D01*
X913Y3889D01*
X913Y3877D01*
X913Y3877D01*
X913Y3878D01*
X912Y3878D01*
X911Y3878D01*
X911Y3879D01*
X910Y3879D01*
X908Y3880D01*
X907Y3880D01*
X904Y3881D01*
X900Y3882D01*
X896Y3883D01*
X892Y3883D01*
X890Y3883D01*
X889Y3883D01*
X888Y3882D01*
X887Y3882D01*
X885Y3882D01*
X883Y3881D01*
X879Y3880D01*
X877Y3879D01*
X875Y3878D01*
X873Y3877D01*
X871Y3876D01*
X869Y3874D01*
X867Y3872D01*
X867Y3872D01*
X866Y3872D01*
X866Y3871D01*
X865Y3870D01*
X865Y3869D01*
X864Y3868D01*
X863Y3867D01*
X862Y3865D01*
X861Y3863D01*
X860Y3861D01*
X860Y3859D01*
X859Y3856D01*
X858Y3854D01*
X858Y3851D01*
X858Y3848D01*
X857Y3845D01*
X857Y3845D01*
X857Y3844D01*
X857Y3843D01*
X858Y3842D01*
X858Y3841D01*
X858Y3839D01*
X858Y3838D01*
X859Y3836D01*
X860Y3831D01*
X861Y3827D01*
X862Y3825D01*
X863Y3823D01*
X865Y3821D01*
X866Y3819D01*
X866Y3819D01*
X867Y3818D01*
X867Y3818D01*
X868Y3817D01*
X869Y3817D01*
X870Y3816D01*
X871Y3815D01*
X873Y3814D01*
X874Y3813D01*
X876Y3812D01*
X878Y3811D01*
X880Y3811D01*
X882Y3810D01*
X885Y3810D01*
X887Y3809D01*
X890Y3809D01*
X891Y3809D01*
X892Y3809D01*
X893Y3809D01*
X895Y3810D01*
X896Y3810D01*
X898Y3810D01*
X901Y3811D01*
X905Y3812D01*
X909Y3813D01*
X913Y3815D01*
X913Y3805D01*
X913Y3805D01*
X913Y3805D01*
X912Y3805D01*
X911Y3804D01*
X910Y3804D01*
X909Y3803D01*
X908Y3803D01*
X906Y3803D01*
X905Y3802D01*
X903Y3802D01*
X901Y3801D01*
X899Y3801D01*
X894Y3800D01*
X888Y3800D01*
X888Y3800D01*
X887Y3800D01*
X885Y3800D01*
X884Y3800D01*
X882Y3801D01*
X880Y3801D01*
X877Y3802D01*
X875Y3802D01*
X873Y3803D01*
X870Y3804D01*
X868Y3805D01*
X865Y3806D01*
X862Y3808D01*
X860Y3810D01*
X858Y3812D01*
X858Y3812D01*
X857Y3813D01*
X857Y3813D01*
X856Y3814D01*
X855Y3816D01*
X854Y3817D01*
X853Y3819D01*
X852Y3821D01*
X851Y3823D01*
X850Y3825D01*
X849Y3828D01*
X848Y3831D01*
X848Y3834D01*
X847Y3837D01*
X847Y3841D01*
X846Y3844D01*
X846Y3845D01*
X846Y3845D01*
X847Y3846D01*
X847Y3848D01*
X847Y3850D01*
X847Y3852D01*
X848Y3854D01*
X848Y3857D01*
X849Y3859D01*
X850Y3862D01*
X851Y3865D01*
X852Y3868D01*
X853Y3871D01*
X855Y3874D01*
X857Y3876D01*
X859Y3879D01*
X860Y3879D01*
X860Y3880D01*
X861Y3880D01*
X862Y3881D01*
X863Y3882D01*
X865Y3883D01*
X866Y3884D01*
X868Y3886D01*
X871Y3887D01*
X873Y3888D01*
X876Y3889D01*
X879Y3890D01*
X882Y3891D01*
X885Y3892D01*
X888Y3892D01*
X892Y3892D01*
X894Y3892D01*
X895Y3892D01*
X895Y3892D02*
G37*
G36*
X795Y3801D02*
X785Y3801D01*
X785Y3812D01*
X785Y3812D01*
X785Y3812D01*
X785Y3812D01*
X784Y3811D01*
X784Y3810D01*
X783Y3809D01*
X782Y3808D01*
X781Y3807D01*
X779Y3806D01*
X778Y3805D01*
X776Y3804D01*
X775Y3803D01*
X773Y3802D01*
X771Y3801D01*
X768Y3800D01*
X766Y3800D01*
X763Y3800D01*
X762Y3800D01*
X761Y3800D01*
X760Y3800D01*
X759Y3800D01*
X756Y3801D01*
X753Y3802D01*
X750Y3804D01*
X748Y3805D01*
X747Y3806D01*
X745Y3807D01*
X744Y3808D01*
X744Y3809D01*
X743Y3809D01*
X743Y3809D01*
X743Y3810D01*
X742Y3811D01*
X741Y3812D01*
X741Y3813D01*
X740Y3815D01*
X739Y3816D01*
X739Y3818D01*
X738Y3820D01*
X738Y3822D01*
X737Y3824D01*
X737Y3827D01*
X737Y3829D01*
X737Y3832D01*
X737Y3832D01*
X737Y3832D01*
X737Y3833D01*
X737Y3834D01*
X737Y3836D01*
X737Y3837D01*
X737Y3839D01*
X738Y3841D01*
X738Y3845D01*
X740Y3849D01*
X741Y3851D01*
X742Y3853D01*
X743Y3855D01*
X744Y3857D01*
X745Y3857D01*
X745Y3858D01*
X745Y3858D01*
X746Y3859D01*
X747Y3859D01*
X748Y3860D01*
X749Y3861D01*
X750Y3862D01*
X753Y3864D01*
X757Y3865D01*
X759Y3866D01*
X761Y3866D01*
X763Y3867D01*
X766Y3867D01*
X767Y3867D01*
X768Y3867D01*
X769Y3866D01*
X770Y3866D01*
X773Y3865D01*
X776Y3864D01*
X778Y3863D01*
X779Y3862D01*
X781Y3861D01*
X782Y3860D01*
X784Y3858D01*
X785Y3856D01*
X785Y3856D01*
X785Y3896D01*
X795Y3896D01*
X795Y3801D01*
X795Y3801D02*
G37*
G36*
X726Y3866D02*
X728Y3866D01*
X729Y3866D01*
X730Y3865D01*
X730Y3855D01*
X730Y3855D01*
X729Y3855D01*
X729Y3856D01*
X728Y3856D01*
X727Y3856D01*
X725Y3857D01*
X724Y3857D01*
X722Y3857D01*
X722Y3857D01*
X721Y3857D01*
X720Y3857D01*
X718Y3856D01*
X716Y3855D01*
X715Y3854D01*
X713Y3853D01*
X711Y3851D01*
X711Y3850D01*
X710Y3850D01*
X710Y3848D01*
X709Y3846D01*
X708Y3844D01*
X707Y3841D01*
X707Y3838D01*
X707Y3834D01*
X707Y3801D01*
X696Y3801D01*
X696Y3865D01*
X707Y3865D01*
X707Y3852D01*
X707Y3852D01*
X707Y3852D01*
X707Y3852D01*
X707Y3853D01*
X708Y3854D01*
X709Y3856D01*
X710Y3858D01*
X711Y3859D01*
X712Y3861D01*
X714Y3863D01*
X714Y3863D01*
X714Y3863D01*
X715Y3864D01*
X717Y3864D01*
X718Y3865D01*
X720Y3866D01*
X722Y3866D01*
X724Y3866D01*
X725Y3866D01*
X726Y3866D01*
X726Y3866D02*
G37*
G36*
X1172Y3801D02*
X1162Y3801D01*
X1162Y3811D01*
X1162Y3811D01*
X1162Y3811D01*
X1161Y3811D01*
X1161Y3810D01*
X1160Y3810D01*
X1159Y3808D01*
X1157Y3806D01*
X1155Y3805D01*
X1154Y3804D01*
X1152Y3803D01*
X1151Y3802D01*
X1149Y3801D01*
X1147Y3800D01*
X1144Y3800D01*
X1142Y3800D01*
X1141Y3800D01*
X1140Y3800D01*
X1138Y3800D01*
X1137Y3801D01*
X1135Y3801D01*
X1133Y3802D01*
X1131Y3803D01*
X1128Y3805D01*
X1126Y3807D01*
X1124Y3809D01*
X1123Y3811D01*
X1121Y3814D01*
X1120Y3818D01*
X1119Y3822D01*
X1119Y3825D01*
X1119Y3827D01*
X1119Y3865D01*
X1129Y3865D01*
X1129Y3829D01*
X1129Y3828D01*
X1129Y3828D01*
X1129Y3827D01*
X1129Y3825D01*
X1130Y3824D01*
X1130Y3822D01*
X1130Y3820D01*
X1131Y3819D01*
X1132Y3817D01*
X1133Y3815D01*
X1134Y3813D01*
X1136Y3812D01*
X1137Y3810D01*
X1140Y3809D01*
X1142Y3809D01*
X1145Y3808D01*
X1145Y3808D01*
X1146Y3809D01*
X1147Y3809D01*
X1149Y3809D01*
X1151Y3810D01*
X1153Y3811D01*
X1155Y3812D01*
X1157Y3814D01*
X1157Y3814D01*
X1158Y3815D01*
X1159Y3816D01*
X1159Y3818D01*
X1160Y3820D01*
X1161Y3822D01*
X1162Y3825D01*
X1162Y3828D01*
X1162Y3865D01*
X1172Y3865D01*
X1172Y3801D01*
X1172Y3801D02*
G37*
G36*
X982Y3801D02*
X971Y3801D01*
X971Y3811D01*
X971Y3811D01*
X971Y3811D01*
X971Y3811D01*
X971Y3810D01*
X970Y3810D01*
X968Y3808D01*
X966Y3806D01*
X965Y3805D01*
X964Y3804D01*
X962Y3803D01*
X960Y3802D01*
X958Y3801D01*
X956Y3800D01*
X954Y3800D01*
X951Y3800D01*
X951Y3800D01*
X949Y3800D01*
X948Y3800D01*
X946Y3801D01*
X944Y3801D01*
X942Y3802D01*
X940Y3803D01*
X938Y3805D01*
X936Y3807D01*
X934Y3809D01*
X932Y3811D01*
X931Y3814D01*
X930Y3818D01*
X929Y3822D01*
X929Y3825D01*
X929Y3827D01*
X929Y3865D01*
X939Y3865D01*
X939Y3829D01*
X939Y3828D01*
X939Y3828D01*
X939Y3827D01*
X939Y3825D01*
X939Y3824D01*
X940Y3822D01*
X940Y3820D01*
X941Y3819D01*
X942Y3817D01*
X943Y3815D01*
X944Y3813D01*
X945Y3812D01*
X947Y3810D01*
X949Y3809D01*
X952Y3809D01*
X954Y3808D01*
X955Y3808D01*
X956Y3809D01*
X957Y3809D01*
X959Y3809D01*
X961Y3810D01*
X963Y3811D01*
X965Y3812D01*
X967Y3814D01*
X967Y3814D01*
X967Y3815D01*
X968Y3816D01*
X969Y3818D01*
X970Y3820D01*
X971Y3822D01*
X971Y3825D01*
X971Y3828D01*
X971Y3865D01*
X982Y3865D01*
X982Y3801D01*
X982Y3801D02*
G37*
G36*
X657Y3867D02*
X658Y3866D01*
X660Y3866D01*
X662Y3865D01*
X664Y3865D01*
X666Y3864D01*
X668Y3862D01*
X670Y3861D01*
X672Y3859D01*
X674Y3857D01*
X675Y3854D01*
X676Y3851D01*
X677Y3847D01*
X677Y3843D01*
X677Y3801D01*
X667Y3801D01*
X667Y3811D01*
X667Y3811D01*
X667Y3811D01*
X666Y3811D01*
X666Y3810D01*
X665Y3810D01*
X664Y3808D01*
X662Y3806D01*
X659Y3804D01*
X656Y3802D01*
X654Y3801D01*
X652Y3800D01*
X649Y3800D01*
X647Y3800D01*
X646Y3800D01*
X646Y3800D01*
X644Y3800D01*
X642Y3801D01*
X639Y3801D01*
X637Y3802D01*
X634Y3803D01*
X632Y3805D01*
X632Y3805D01*
X631Y3806D01*
X630Y3807D01*
X629Y3808D01*
X629Y3810D01*
X628Y3813D01*
X627Y3815D01*
X627Y3818D01*
X627Y3818D01*
X627Y3819D01*
X627Y3820D01*
X627Y3821D01*
X627Y3822D01*
X628Y3824D01*
X629Y3826D01*
X629Y3828D01*
X631Y3829D01*
X632Y3831D01*
X634Y3833D01*
X636Y3835D01*
X638Y3836D01*
X641Y3837D01*
X644Y3838D01*
X648Y3839D01*
X667Y3842D01*
X667Y3842D01*
X667Y3842D01*
X667Y3843D01*
X667Y3844D01*
X667Y3846D01*
X666Y3847D01*
X665Y3850D01*
X665Y3851D01*
X664Y3853D01*
X663Y3854D01*
X662Y3856D01*
X660Y3857D01*
X658Y3857D01*
X656Y3858D01*
X654Y3858D01*
X653Y3858D01*
X652Y3858D01*
X651Y3858D01*
X650Y3858D01*
X647Y3857D01*
X644Y3856D01*
X640Y3855D01*
X638Y3854D01*
X637Y3853D01*
X635Y3852D01*
X633Y3850D01*
X633Y3861D01*
X633Y3861D01*
X634Y3861D01*
X634Y3861D01*
X635Y3862D01*
X636Y3862D01*
X637Y3863D01*
X638Y3863D01*
X639Y3864D01*
X643Y3865D01*
X646Y3866D01*
X650Y3866D01*
X655Y3867D01*
X656Y3867D01*
X657Y3867D01*
X657Y3867D02*
G37*
G36*
X512Y3891D02*
X513Y3891D01*
X515Y3890D01*
X517Y3890D01*
X520Y3889D01*
X523Y3888D01*
X526Y3887D01*
X529Y3885D01*
X529Y3885D01*
X529Y3885D01*
X530Y3884D01*
X531Y3883D01*
X532Y3881D01*
X533Y3879D01*
X535Y3876D01*
X535Y3874D01*
X536Y3872D01*
X536Y3870D01*
X536Y3870D01*
X536Y3870D01*
X536Y3869D01*
X535Y3868D01*
X535Y3866D01*
X535Y3864D01*
X534Y3861D01*
X533Y3859D01*
X532Y3857D01*
X531Y3857D01*
X531Y3856D01*
X530Y3855D01*
X529Y3854D01*
X527Y3853D01*
X525Y3851D01*
X523Y3850D01*
X520Y3849D01*
X520Y3849D01*
X521Y3849D01*
X521Y3849D01*
X522Y3849D01*
X523Y3848D01*
X525Y3848D01*
X528Y3847D01*
X530Y3846D01*
X532Y3844D01*
X535Y3842D01*
X535Y3842D01*
X535Y3841D01*
X536Y3840D01*
X537Y3838D01*
X538Y3836D01*
X539Y3833D01*
X540Y3830D01*
X540Y3827D01*
X540Y3827D01*
X540Y3827D01*
X540Y3826D01*
X540Y3825D01*
X540Y3824D01*
X540Y3823D01*
X539Y3820D01*
X538Y3817D01*
X537Y3814D01*
X536Y3813D01*
X535Y3811D01*
X533Y3810D01*
X532Y3808D01*
X532Y3808D01*
X531Y3808D01*
X531Y3808D01*
X530Y3807D01*
X529Y3807D01*
X528Y3806D01*
X526Y3805D01*
X523Y3804D01*
X520Y3803D01*
X516Y3802D01*
X513Y3802D01*
X511Y3801D01*
X485Y3801D01*
X485Y3891D01*
X512Y3891D01*
X512Y3891D01*
X512Y3891D02*
G37*
G36*
X1206Y3865D02*
X1222Y3865D01*
X1222Y3856D01*
X1206Y3856D01*
X1206Y3820D01*
X1206Y3820D01*
X1206Y3819D01*
X1206Y3818D01*
X1207Y3817D01*
X1207Y3814D01*
X1208Y3812D01*
X1208Y3811D01*
X1209Y3811D01*
X1209Y3811D01*
X1209Y3811D01*
X1210Y3810D01*
X1211Y3809D01*
X1212Y3809D01*
X1214Y3809D01*
X1216Y3809D01*
X1216Y3809D01*
X1217Y3809D01*
X1218Y3809D01*
X1220Y3810D01*
X1221Y3810D01*
X1222Y3811D01*
X1222Y3802D01*
X1222Y3802D01*
X1222Y3802D01*
X1221Y3801D01*
X1220Y3801D01*
X1218Y3801D01*
X1217Y3800D01*
X1215Y3800D01*
X1213Y3800D01*
X1212Y3800D01*
X1211Y3800D01*
X1210Y3800D01*
X1209Y3801D01*
X1207Y3801D01*
X1206Y3802D01*
X1204Y3803D01*
X1203Y3803D01*
X1201Y3805D01*
X1200Y3806D01*
X1199Y3808D01*
X1198Y3810D01*
X1197Y3813D01*
X1196Y3815D01*
X1196Y3819D01*
X1196Y3856D01*
X1185Y3856D01*
X1185Y3865D01*
X1196Y3865D01*
X1196Y3881D01*
X1206Y3884D01*
X1206Y3865D01*
X1206Y3865D02*
G37*
G36*
X1016Y3865D02*
X1032Y3865D01*
X1032Y3856D01*
X1016Y3856D01*
X1016Y3820D01*
X1016Y3820D01*
X1016Y3819D01*
X1016Y3818D01*
X1016Y3817D01*
X1017Y3814D01*
X1017Y3812D01*
X1018Y3811D01*
X1018Y3811D01*
X1018Y3811D01*
X1019Y3811D01*
X1020Y3810D01*
X1021Y3809D01*
X1022Y3809D01*
X1023Y3809D01*
X1025Y3809D01*
X1026Y3809D01*
X1027Y3809D01*
X1028Y3809D01*
X1030Y3810D01*
X1031Y3810D01*
X1032Y3811D01*
X1032Y3802D01*
X1032Y3802D01*
X1031Y3802D01*
X1031Y3801D01*
X1029Y3801D01*
X1028Y3801D01*
X1026Y3800D01*
X1025Y3800D01*
X1022Y3800D01*
X1022Y3800D01*
X1021Y3800D01*
X1020Y3800D01*
X1018Y3801D01*
X1017Y3801D01*
X1016Y3802D01*
X1014Y3803D01*
X1012Y3803D01*
X1011Y3805D01*
X1010Y3806D01*
X1008Y3808D01*
X1007Y3810D01*
X1006Y3813D01*
X1006Y3815D01*
X1006Y3819D01*
X1006Y3856D01*
X995Y3856D01*
X995Y3865D01*
X1006Y3865D01*
X1006Y3881D01*
X1016Y3884D01*
X1016Y3865D01*
X1016Y3865D02*
G37*
G36*
X1076Y3867D02*
X1077Y3866D01*
X1079Y3866D01*
X1082Y3866D01*
X1085Y3864D01*
X1089Y3863D01*
X1091Y3862D01*
X1093Y3861D01*
X1094Y3859D01*
X1096Y3858D01*
X1096Y3858D01*
X1096Y3857D01*
X1097Y3857D01*
X1097Y3856D01*
X1098Y3855D01*
X1098Y3854D01*
X1099Y3853D01*
X1100Y3852D01*
X1101Y3850D01*
X1101Y3848D01*
X1102Y3846D01*
X1103Y3844D01*
X1103Y3842D01*
X1104Y3839D01*
X1104Y3836D01*
X1104Y3833D01*
X1104Y3833D01*
X1104Y3833D01*
X1104Y3832D01*
X1104Y3831D01*
X1104Y3830D01*
X1104Y3828D01*
X1103Y3827D01*
X1103Y3825D01*
X1102Y3821D01*
X1100Y3817D01*
X1099Y3815D01*
X1098Y3813D01*
X1097Y3811D01*
X1095Y3809D01*
X1095Y3809D01*
X1095Y3809D01*
X1094Y3808D01*
X1094Y3808D01*
X1093Y3807D01*
X1092Y3806D01*
X1091Y3805D01*
X1089Y3805D01*
X1088Y3804D01*
X1086Y3803D01*
X1084Y3802D01*
X1082Y3801D01*
X1080Y3801D01*
X1077Y3800D01*
X1075Y3800D01*
X1072Y3800D01*
X1071Y3800D01*
X1070Y3800D01*
X1069Y3800D01*
X1067Y3800D01*
X1066Y3801D01*
X1064Y3801D01*
X1060Y3802D01*
X1057Y3804D01*
X1055Y3805D01*
X1053Y3806D01*
X1051Y3807D01*
X1050Y3809D01*
X1049Y3809D01*
X1049Y3809D01*
X1049Y3810D01*
X1048Y3810D01*
X1048Y3811D01*
X1047Y3812D01*
X1046Y3814D01*
X1046Y3815D01*
X1045Y3817D01*
X1044Y3819D01*
X1043Y3820D01*
X1043Y3823D01*
X1042Y3827D01*
X1041Y3830D01*
X1041Y3833D01*
X1041Y3833D01*
X1041Y3833D01*
X1041Y3834D01*
X1041Y3835D01*
X1042Y3836D01*
X1042Y3838D01*
X1042Y3840D01*
X1042Y3842D01*
X1043Y3846D01*
X1045Y3850D01*
X1046Y3852D01*
X1047Y3854D01*
X1048Y3856D01*
X1050Y3858D01*
X1050Y3858D01*
X1050Y3858D01*
X1051Y3858D01*
X1051Y3859D01*
X1052Y3860D01*
X1054Y3860D01*
X1055Y3861D01*
X1056Y3862D01*
X1058Y3863D01*
X1060Y3864D01*
X1062Y3865D01*
X1064Y3865D01*
X1066Y3866D01*
X1068Y3866D01*
X1071Y3867D01*
X1074Y3867D01*
X1075Y3867D01*
X1076Y3867D01*
X1076Y3867D02*
G37*
G36*
X587Y3867D02*
X588Y3866D01*
X590Y3866D01*
X593Y3866D01*
X597Y3864D01*
X600Y3863D01*
X602Y3862D01*
X604Y3861D01*
X606Y3859D01*
X607Y3858D01*
X607Y3858D01*
X607Y3857D01*
X608Y3857D01*
X608Y3856D01*
X609Y3855D01*
X610Y3854D01*
X610Y3853D01*
X611Y3852D01*
X612Y3850D01*
X613Y3848D01*
X613Y3846D01*
X614Y3844D01*
X614Y3842D01*
X615Y3839D01*
X615Y3836D01*
X615Y3833D01*
X615Y3833D01*
X615Y3833D01*
X615Y3832D01*
X615Y3831D01*
X615Y3830D01*
X615Y3828D01*
X614Y3827D01*
X614Y3825D01*
X613Y3821D01*
X612Y3817D01*
X611Y3815D01*
X609Y3813D01*
X608Y3811D01*
X607Y3809D01*
X606Y3809D01*
X606Y3809D01*
X606Y3808D01*
X605Y3808D01*
X604Y3807D01*
X603Y3806D01*
X602Y3805D01*
X600Y3805D01*
X599Y3804D01*
X597Y3803D01*
X595Y3802D01*
X593Y3801D01*
X591Y3801D01*
X589Y3800D01*
X586Y3800D01*
X583Y3800D01*
X582Y3800D01*
X581Y3800D01*
X580Y3800D01*
X579Y3800D01*
X577Y3801D01*
X575Y3801D01*
X572Y3802D01*
X568Y3804D01*
X566Y3805D01*
X564Y3806D01*
X563Y3807D01*
X561Y3809D01*
X561Y3809D01*
X560Y3809D01*
X560Y3810D01*
X560Y3810D01*
X559Y3811D01*
X558Y3812D01*
X557Y3814D01*
X557Y3815D01*
X556Y3817D01*
X555Y3819D01*
X554Y3820D01*
X554Y3823D01*
X553Y3827D01*
X553Y3830D01*
X552Y3833D01*
X552Y3833D01*
X552Y3833D01*
X552Y3834D01*
X553Y3835D01*
X553Y3836D01*
X553Y3838D01*
X553Y3840D01*
X554Y3842D01*
X554Y3846D01*
X556Y3850D01*
X557Y3852D01*
X558Y3854D01*
X560Y3856D01*
X561Y3858D01*
X561Y3858D01*
X562Y3858D01*
X562Y3858D01*
X563Y3859D01*
X564Y3860D01*
X565Y3860D01*
X566Y3861D01*
X567Y3862D01*
X569Y3863D01*
X571Y3864D01*
X573Y3865D01*
X575Y3865D01*
X577Y3866D01*
X580Y3866D01*
X582Y3867D01*
X585Y3867D01*
X586Y3867D01*
X587Y3867D01*
X587Y3867D02*
G37*
%LPC*%
G36*
X767Y3983D02*
X766Y3983D01*
X765Y3983D01*
X764Y3983D01*
X762Y3982D01*
X759Y3981D01*
X757Y3980D01*
X754Y3978D01*
X753Y3977D01*
X752Y3976D01*
X752Y3976D01*
X751Y3975D01*
X751Y3973D01*
X750Y3971D01*
X749Y3969D01*
X748Y3965D01*
X747Y3961D01*
X747Y3957D01*
X747Y3957D01*
X747Y3957D01*
X747Y3956D01*
X747Y3955D01*
X747Y3955D01*
X747Y3953D01*
X748Y3951D01*
X748Y3948D01*
X749Y3945D01*
X750Y3942D01*
X752Y3940D01*
X752Y3939D01*
X753Y3939D01*
X754Y3938D01*
X756Y3937D01*
X758Y3936D01*
X760Y3934D01*
X763Y3934D01*
X766Y3933D01*
X767Y3933D01*
X767Y3934D01*
X769Y3934D01*
X771Y3934D01*
X773Y3935D01*
X775Y3936D01*
X778Y3938D01*
X780Y3940D01*
X780Y3940D01*
X781Y3941D01*
X782Y3942D01*
X782Y3944D01*
X783Y3946D01*
X784Y3949D01*
X785Y3952D01*
X785Y3955D01*
X785Y3965D01*
X785Y3965D01*
X785Y3965D01*
X785Y3966D01*
X785Y3967D01*
X785Y3969D01*
X784Y3971D01*
X783Y3973D01*
X782Y3976D01*
X780Y3978D01*
X780Y3978D01*
X779Y3978D01*
X778Y3979D01*
X776Y3980D01*
X775Y3981D01*
X772Y3982D01*
X770Y3983D01*
X767Y3983D01*
X767Y3983D02*
G37*
G36*
X667Y3959D02*
X652Y3956D01*
X651Y3956D01*
X651Y3956D01*
X649Y3956D01*
X648Y3956D01*
X646Y3955D01*
X644Y3955D01*
X643Y3954D01*
X641Y3953D01*
X641Y3953D01*
X640Y3953D01*
X640Y3952D01*
X639Y3951D01*
X638Y3950D01*
X638Y3948D01*
X638Y3946D01*
X637Y3944D01*
X637Y3944D01*
X637Y3943D01*
X638Y3942D01*
X638Y3941D01*
X638Y3940D01*
X639Y3939D01*
X640Y3938D01*
X641Y3936D01*
X641Y3936D01*
X641Y3936D01*
X642Y3935D01*
X643Y3935D01*
X644Y3934D01*
X646Y3934D01*
X648Y3934D01*
X650Y3933D01*
X650Y3933D01*
X651Y3934D01*
X652Y3934D01*
X654Y3934D01*
X656Y3935D01*
X658Y3936D01*
X660Y3937D01*
X662Y3939D01*
X662Y3939D01*
X663Y3940D01*
X664Y3941D01*
X665Y3942D01*
X665Y3944D01*
X666Y3947D01*
X667Y3949D01*
X667Y3952D01*
X667Y3959D01*
X667Y3959D02*
G37*
G36*
X507Y4006D02*
X496Y4006D01*
X496Y3977D01*
X508Y3977D01*
X509Y3978D01*
X511Y3978D01*
X513Y3978D01*
X516Y3979D01*
X518Y3980D01*
X520Y3981D01*
X520Y3982D01*
X521Y3982D01*
X521Y3983D01*
X522Y3985D01*
X523Y3986D01*
X524Y3988D01*
X524Y3991D01*
X525Y3993D01*
X525Y3993D01*
X525Y3994D01*
X524Y3994D01*
X524Y3995D01*
X524Y3997D01*
X523Y3999D01*
X522Y4000D01*
X522Y4001D01*
X520Y4002D01*
X519Y4003D01*
X517Y4004D01*
X516Y4005D01*
X513Y4006D01*
X510Y4006D01*
X507Y4006D01*
X507Y4006D02*
G37*
G36*
X507Y3968D02*
X496Y3968D01*
X496Y3936D01*
X511Y3936D01*
X513Y3936D01*
X515Y3936D01*
X517Y3937D01*
X520Y3938D01*
X522Y3939D01*
X524Y3940D01*
X524Y3940D01*
X525Y3941D01*
X526Y3942D01*
X527Y3943D01*
X527Y3945D01*
X528Y3947D01*
X529Y3950D01*
X529Y3952D01*
X529Y3952D01*
X529Y3953D01*
X529Y3954D01*
X529Y3955D01*
X528Y3956D01*
X528Y3957D01*
X527Y3959D01*
X526Y3960D01*
X525Y3961D01*
X524Y3963D01*
X522Y3964D01*
X520Y3965D01*
X518Y3967D01*
X515Y3967D01*
X511Y3968D01*
X507Y3968D01*
X507Y3968D02*
G37*
G36*
X1222Y3983D02*
X1221Y3983D01*
X1219Y3983D01*
X1218Y3982D01*
X1216Y3982D01*
X1214Y3981D01*
X1212Y3980D01*
X1209Y3978D01*
X1209Y3978D01*
X1209Y3977D01*
X1208Y3976D01*
X1207Y3974D01*
X1206Y3972D01*
X1205Y3970D01*
X1204Y3967D01*
X1203Y3964D01*
X1238Y3964D01*
X1238Y3964D01*
X1238Y3965D01*
X1238Y3965D01*
X1238Y3966D01*
X1238Y3967D01*
X1237Y3969D01*
X1237Y3972D01*
X1236Y3974D01*
X1235Y3976D01*
X1234Y3978D01*
X1233Y3978D01*
X1233Y3979D01*
X1232Y3980D01*
X1231Y3981D01*
X1229Y3981D01*
X1227Y3982D01*
X1225Y3983D01*
X1222Y3983D01*
X1222Y3983D02*
G37*
G36*
X889Y4008D02*
X888Y4008D01*
X887Y4008D01*
X885Y4007D01*
X884Y4007D01*
X883Y4007D01*
X881Y4006D01*
X877Y4005D01*
X875Y4004D01*
X873Y4003D01*
X871Y4002D01*
X870Y4001D01*
X868Y3999D01*
X866Y3997D01*
X866Y3997D01*
X866Y3997D01*
X865Y3996D01*
X865Y3996D01*
X864Y3995D01*
X863Y3993D01*
X863Y3992D01*
X862Y3990D01*
X861Y3989D01*
X860Y3987D01*
X860Y3984D01*
X859Y3982D01*
X858Y3980D01*
X858Y3977D01*
X858Y3974D01*
X857Y3971D01*
X857Y3971D01*
X857Y3970D01*
X857Y3969D01*
X858Y3968D01*
X858Y3967D01*
X858Y3965D01*
X858Y3963D01*
X859Y3961D01*
X860Y3957D01*
X861Y3953D01*
X862Y3950D01*
X863Y3948D01*
X865Y3946D01*
X866Y3944D01*
X866Y3944D01*
X866Y3944D01*
X867Y3943D01*
X868Y3943D01*
X868Y3942D01*
X869Y3941D01*
X871Y3940D01*
X872Y3939D01*
X874Y3938D01*
X875Y3937D01*
X879Y3936D01*
X881Y3935D01*
X883Y3935D01*
X886Y3934D01*
X888Y3934D01*
X890Y3934D01*
X891Y3934D01*
X892Y3935D01*
X893Y3935D01*
X895Y3935D01*
X897Y3936D01*
X900Y3937D01*
X902Y3937D01*
X904Y3938D01*
X906Y3939D01*
X908Y3941D01*
X910Y3942D01*
X912Y3944D01*
X912Y3944D01*
X912Y3944D01*
X912Y3945D01*
X913Y3946D01*
X914Y3947D01*
X914Y3948D01*
X915Y3949D01*
X916Y3951D01*
X917Y3953D01*
X917Y3955D01*
X918Y3957D01*
X919Y3959D01*
X919Y3962D01*
X920Y3965D01*
X920Y3968D01*
X920Y3971D01*
X920Y3971D01*
X920Y3972D01*
X920Y3972D01*
X920Y3974D01*
X920Y3975D01*
X920Y3977D01*
X919Y3979D01*
X919Y3981D01*
X918Y3985D01*
X917Y3990D01*
X916Y3992D01*
X915Y3994D01*
X913Y3996D01*
X912Y3998D01*
X912Y3998D01*
X911Y3998D01*
X911Y3999D01*
X910Y4000D01*
X909Y4000D01*
X908Y4001D01*
X907Y4002D01*
X906Y4003D01*
X904Y4004D01*
X903Y4005D01*
X901Y4006D01*
X899Y4006D01*
X896Y4007D01*
X894Y4007D01*
X892Y4008D01*
X889Y4008D01*
X889Y4008D02*
G37*
G36*
X584Y3983D02*
X583Y3983D01*
X583Y3983D01*
X581Y3983D01*
X579Y3982D01*
X576Y3981D01*
X573Y3980D01*
X571Y3978D01*
X570Y3978D01*
X568Y3976D01*
X568Y3976D01*
X568Y3975D01*
X567Y3974D01*
X566Y3972D01*
X565Y3969D01*
X564Y3966D01*
X563Y3962D01*
X563Y3958D01*
X563Y3958D01*
X563Y3957D01*
X563Y3957D01*
X563Y3956D01*
X563Y3955D01*
X563Y3954D01*
X564Y3951D01*
X564Y3949D01*
X565Y3946D01*
X567Y3943D01*
X569Y3940D01*
X569Y3940D01*
X570Y3939D01*
X571Y3938D01*
X573Y3937D01*
X575Y3936D01*
X578Y3934D01*
X581Y3934D01*
X584Y3933D01*
X585Y3933D01*
X586Y3934D01*
X588Y3934D01*
X590Y3934D01*
X592Y3935D01*
X595Y3936D01*
X597Y3938D01*
X599Y3940D01*
X600Y3940D01*
X600Y3941D01*
X601Y3942D01*
X602Y3944D01*
X603Y3947D01*
X604Y3950D01*
X605Y3954D01*
X605Y3958D01*
X605Y3958D01*
X605Y3959D01*
X605Y3959D01*
X605Y3960D01*
X605Y3961D01*
X604Y3962D01*
X604Y3965D01*
X604Y3968D01*
X603Y3971D01*
X601Y3974D01*
X599Y3977D01*
X599Y3977D01*
X599Y3978D01*
X597Y3979D01*
X596Y3980D01*
X593Y3981D01*
X591Y3982D01*
X588Y3983D01*
X584Y3983D01*
X584Y3983D02*
G37*
G36*
X767Y3858D02*
X766Y3858D01*
X765Y3858D01*
X764Y3858D01*
X762Y3857D01*
X759Y3856D01*
X757Y3855D01*
X754Y3853D01*
X753Y3852D01*
X752Y3851D01*
X752Y3851D01*
X751Y3850D01*
X751Y3848D01*
X750Y3846D01*
X749Y3844D01*
X748Y3840D01*
X747Y3836D01*
X747Y3832D01*
X747Y3832D01*
X747Y3832D01*
X747Y3831D01*
X747Y3830D01*
X747Y3830D01*
X747Y3828D01*
X748Y3826D01*
X748Y3823D01*
X749Y3820D01*
X750Y3817D01*
X752Y3815D01*
X752Y3814D01*
X753Y3814D01*
X754Y3813D01*
X756Y3812D01*
X758Y3811D01*
X760Y3809D01*
X763Y3809D01*
X766Y3808D01*
X767Y3808D01*
X767Y3809D01*
X769Y3809D01*
X771Y3809D01*
X773Y3810D01*
X775Y3811D01*
X778Y3813D01*
X780Y3815D01*
X780Y3815D01*
X781Y3816D01*
X782Y3817D01*
X782Y3819D01*
X783Y3821D01*
X784Y3824D01*
X785Y3827D01*
X785Y3830D01*
X785Y3840D01*
X785Y3840D01*
X785Y3840D01*
X785Y3841D01*
X785Y3842D01*
X785Y3844D01*
X784Y3846D01*
X783Y3848D01*
X782Y3851D01*
X780Y3853D01*
X780Y3853D01*
X779Y3853D01*
X778Y3854D01*
X776Y3855D01*
X775Y3856D01*
X772Y3857D01*
X770Y3858D01*
X767Y3858D01*
X767Y3858D02*
G37*
G36*
X667Y3834D02*
X652Y3831D01*
X651Y3831D01*
X651Y3831D01*
X649Y3831D01*
X648Y3831D01*
X646Y3830D01*
X644Y3830D01*
X643Y3829D01*
X641Y3828D01*
X641Y3828D01*
X640Y3828D01*
X640Y3827D01*
X639Y3826D01*
X638Y3825D01*
X638Y3823D01*
X638Y3821D01*
X637Y3819D01*
X637Y3819D01*
X637Y3818D01*
X638Y3817D01*
X638Y3816D01*
X638Y3815D01*
X639Y3814D01*
X640Y3813D01*
X641Y3811D01*
X641Y3811D01*
X641Y3811D01*
X642Y3810D01*
X643Y3810D01*
X644Y3809D01*
X646Y3809D01*
X648Y3809D01*
X650Y3808D01*
X650Y3808D01*
X651Y3809D01*
X652Y3809D01*
X654Y3809D01*
X656Y3810D01*
X658Y3811D01*
X660Y3812D01*
X662Y3814D01*
X662Y3814D01*
X663Y3815D01*
X664Y3816D01*
X665Y3817D01*
X665Y3819D01*
X666Y3822D01*
X667Y3824D01*
X667Y3827D01*
X667Y3834D01*
X667Y3834D02*
G37*
G36*
X507Y3881D02*
X496Y3881D01*
X496Y3852D01*
X508Y3852D01*
X509Y3853D01*
X511Y3853D01*
X513Y3853D01*
X516Y3854D01*
X518Y3855D01*
X520Y3856D01*
X520Y3857D01*
X521Y3857D01*
X521Y3858D01*
X522Y3860D01*
X523Y3861D01*
X524Y3863D01*
X524Y3866D01*
X525Y3868D01*
X525Y3868D01*
X525Y3869D01*
X524Y3869D01*
X524Y3870D01*
X524Y3872D01*
X523Y3874D01*
X522Y3875D01*
X522Y3876D01*
X520Y3877D01*
X519Y3878D01*
X517Y3879D01*
X516Y3880D01*
X513Y3881D01*
X510Y3881D01*
X507Y3881D01*
X507Y3881D02*
G37*
G36*
X507Y3843D02*
X496Y3843D01*
X496Y3811D01*
X511Y3811D01*
X513Y3811D01*
X515Y3811D01*
X517Y3812D01*
X520Y3813D01*
X522Y3814D01*
X524Y3815D01*
X524Y3815D01*
X525Y3816D01*
X526Y3817D01*
X527Y3818D01*
X527Y3820D01*
X528Y3822D01*
X529Y3825D01*
X529Y3827D01*
X529Y3827D01*
X529Y3828D01*
X529Y3829D01*
X529Y3830D01*
X528Y3831D01*
X528Y3832D01*
X527Y3834D01*
X526Y3835D01*
X525Y3836D01*
X524Y3838D01*
X522Y3839D01*
X520Y3840D01*
X518Y3842D01*
X515Y3842D01*
X511Y3843D01*
X507Y3843D01*
X507Y3843D02*
G37*
G36*
X1073Y3858D02*
X1072Y3858D01*
X1071Y3858D01*
X1070Y3858D01*
X1067Y3857D01*
X1065Y3856D01*
X1062Y3855D01*
X1060Y3853D01*
X1058Y3853D01*
X1057Y3851D01*
X1057Y3851D01*
X1056Y3850D01*
X1056Y3849D01*
X1054Y3847D01*
X1053Y3844D01*
X1053Y3841D01*
X1052Y3837D01*
X1052Y3833D01*
X1052Y3833D01*
X1052Y3832D01*
X1052Y3832D01*
X1052Y3831D01*
X1052Y3830D01*
X1052Y3829D01*
X1052Y3826D01*
X1053Y3824D01*
X1054Y3821D01*
X1056Y3818D01*
X1057Y3815D01*
X1058Y3815D01*
X1059Y3814D01*
X1060Y3813D01*
X1062Y3812D01*
X1064Y3811D01*
X1066Y3809D01*
X1070Y3809D01*
X1073Y3808D01*
X1074Y3808D01*
X1075Y3809D01*
X1076Y3809D01*
X1079Y3809D01*
X1081Y3810D01*
X1084Y3811D01*
X1086Y3813D01*
X1088Y3815D01*
X1088Y3815D01*
X1089Y3816D01*
X1090Y3817D01*
X1091Y3819D01*
X1092Y3822D01*
X1093Y3825D01*
X1093Y3829D01*
X1094Y3833D01*
X1094Y3833D01*
X1094Y3834D01*
X1094Y3834D01*
X1094Y3835D01*
X1093Y3836D01*
X1093Y3837D01*
X1093Y3840D01*
X1092Y3843D01*
X1091Y3846D01*
X1090Y3849D01*
X1088Y3852D01*
X1088Y3852D01*
X1087Y3853D01*
X1086Y3854D01*
X1084Y3855D01*
X1082Y3856D01*
X1080Y3857D01*
X1076Y3858D01*
X1073Y3858D01*
X1073Y3858D02*
G37*
G36*
X584Y3858D02*
X583Y3858D01*
X583Y3858D01*
X581Y3858D01*
X579Y3857D01*
X576Y3856D01*
X573Y3855D01*
X571Y3853D01*
X570Y3853D01*
X568Y3851D01*
X568Y3851D01*
X568Y3850D01*
X567Y3849D01*
X566Y3847D01*
X565Y3844D01*
X564Y3841D01*
X563Y3837D01*
X563Y3833D01*
X563Y3833D01*
X563Y3832D01*
X563Y3832D01*
X563Y3831D01*
X563Y3830D01*
X563Y3829D01*
X564Y3826D01*
X564Y3824D01*
X565Y3821D01*
X567Y3818D01*
X569Y3815D01*
X569Y3815D01*
X570Y3814D01*
X571Y3813D01*
X573Y3812D01*
X575Y3811D01*
X578Y3809D01*
X581Y3809D01*
X584Y3808D01*
X585Y3808D01*
X586Y3809D01*
X588Y3809D01*
X590Y3809D01*
X592Y3810D01*
X595Y3811D01*
X597Y3813D01*
X599Y3815D01*
X600Y3815D01*
X600Y3816D01*
X601Y3817D01*
X602Y3819D01*
X603Y3822D01*
X604Y3825D01*
X605Y3829D01*
X605Y3833D01*
X605Y3833D01*
X605Y3834D01*
X605Y3834D01*
X605Y3835D01*
X605Y3836D01*
X604Y3837D01*
X604Y3840D01*
X604Y3843D01*
X603Y3846D01*
X601Y3849D01*
X599Y3852D01*
X599Y3852D01*
X599Y3853D01*
X597Y3854D01*
X596Y3855D01*
X593Y3856D01*
X591Y3857D01*
X588Y3858D01*
X584Y3858D01*
X584Y3858D02*
G37*
%LPD*%
D13*
X5088Y1498D02*
X5106Y1480D01*
X5128Y1469D01*
X5153Y1465D01*
X5153Y1465D02*
X5647Y1465D01*
X5647Y1465D02*
X5672Y1469D01*
X5694Y1480D01*
X5712Y1498D01*
X5723Y1520D01*
X5727Y1545D01*
X5727Y1950D01*
X5727Y1950D02*
X5730Y1976D01*
X5740Y2000D01*
X5756Y2021D01*
X5777Y2037D01*
X5801Y2047D01*
X5827Y2050D01*
X5827Y2050D02*
X5973Y2050D01*
X5973Y2050D02*
X5999Y2047D01*
X6023Y2037D01*
X6044Y2021D01*
X6060Y2000D01*
X6070Y1976D01*
X6073Y1950D01*
X6073Y1950D02*
X6073Y1545D01*
X6077Y1520D01*
X6088Y1498D01*
X6106Y1480D01*
X6128Y1469D01*
X6153Y1465D01*
X6153Y1465D02*
X6647Y1465D01*
X6647Y1465D02*
X6672Y1469D01*
X6694Y1480D01*
X6712Y1498D01*
X6723Y1520D01*
X6727Y1545D01*
X6727Y1950D01*
X6727Y1950D02*
X6730Y1976D01*
X6740Y2000D01*
X6756Y2021D01*
X6777Y2037D01*
X6801Y2047D01*
X6827Y2050D01*
X6827Y2050D02*
X6973Y2050D01*
X6973Y2050D02*
X6999Y2047D01*
X7023Y2037D01*
X7044Y2021D01*
X7060Y2000D01*
X7070Y1976D01*
X7073Y1950D01*
X7073Y1950D02*
X7073Y1545D01*
X7077Y1520D01*
X7088Y1498D01*
X7106Y1480D01*
X7128Y1469D01*
X7153Y1465D01*
X7153Y1465D02*
X7647Y1465D01*
X7647Y1465D02*
X7672Y1469D01*
X7694Y1480D01*
X7712Y1498D01*
X7723Y1520D01*
X7727Y1545D01*
X7727Y1950D01*
X7727Y1950D02*
X7730Y1976D01*
X7740Y2000D01*
X7756Y2021D01*
X7777Y2037D01*
X7801Y2047D01*
X7827Y2050D01*
X7827Y2050D02*
X7973Y2050D01*
X7973Y2050D02*
X7999Y2047D01*
X8023Y2037D01*
X8044Y2021D01*
X8060Y2000D01*
X8070Y1976D01*
X8073Y1950D01*
X8073Y1950D02*
X8073Y1545D01*
X8077Y1520D01*
X8088Y1498D01*
X8106Y1480D01*
X8128Y1469D01*
X8153Y1465D01*
X8153Y1465D02*
X8647Y1465D01*
X8647Y1465D02*
X8672Y1469D01*
X8694Y1480D01*
X8712Y1498D01*
X8723Y1520D01*
X8727Y1545D01*
X8727Y1950D01*
X8727Y1950D02*
X8730Y1976D01*
X8740Y2000D01*
X8756Y2021D01*
X8777Y2037D01*
X8801Y2047D01*
X8827Y2050D01*
X8827Y2050D02*
X8973Y2050D01*
X8973Y2050D02*
X8999Y2047D01*
X9023Y2037D01*
X9044Y2021D01*
X9060Y2000D01*
X9070Y1976D01*
X9073Y1950D01*
X9073Y1950D02*
X9073Y1545D01*
X9077Y1520D01*
X9088Y1498D01*
X9106Y1480D01*
X9128Y1469D01*
X9153Y1465D01*
X9153Y1465D02*
X9647Y1465D01*
X9647Y1465D02*
X9672Y1469D01*
X9694Y1480D01*
X9712Y1498D01*
X9723Y1520D01*
X9727Y1545D01*
X9727Y1950D01*
X9727Y1950D02*
X9730Y1976D01*
X9740Y2000D01*
X9756Y2021D01*
X9777Y2037D01*
X9801Y2047D01*
X9827Y2050D01*
X9827Y2050D02*
X9973Y2050D01*
X9973Y2050D02*
X9999Y2047D01*
X10023Y2037D01*
X10044Y2021D01*
X10060Y2000D01*
X10070Y1976D01*
X10073Y1950D01*
X10073Y1950D02*
X10073Y1545D01*
X10077Y1520D01*
X10088Y1498D01*
X10106Y1480D01*
X10128Y1469D01*
X10153Y1465D01*
X10153Y1465D02*
X10647Y1465D01*
X10647Y1465D02*
X10672Y1469D01*
X10694Y1480D01*
X10712Y1498D01*
X10723Y1520D01*
X10727Y1545D01*
X10727Y1950D01*
X10727Y1950D02*
X10730Y1976D01*
X10740Y2000D01*
X10756Y2021D01*
X10777Y2037D01*
X10801Y2047D01*
X10827Y2050D01*
X10827Y2050D02*
X10973Y2050D01*
X10973Y2050D02*
X10999Y2047D01*
X11023Y2037D01*
X11044Y2021D01*
X11060Y2000D01*
X11070Y1976D01*
X11073Y1950D01*
X11073Y1950D02*
X11073Y1545D01*
X11077Y1520D01*
X11088Y1498D01*
X11106Y1480D01*
X11128Y1469D01*
X11153Y1465D01*
X11153Y1465D02*
X11647Y1465D01*
X11647Y1465D02*
X11672Y1469D01*
X11694Y1480D01*
X11712Y1498D01*
X11723Y1520D01*
X11727Y1545D01*
X11727Y1950D01*
X11727Y1950D02*
X11730Y1976D01*
X11740Y2000D01*
X11756Y2021D01*
X11777Y2037D01*
X11801Y2047D01*
X11827Y2050D01*
X11827Y2050D02*
X11973Y2050D01*
X11973Y2050D02*
X11999Y2047D01*
X12023Y2037D01*
X12044Y2021D01*
X12060Y2000D01*
X12070Y1976D01*
X12073Y1950D01*
X12073Y1950D02*
X12073Y1545D01*
X12077Y1520D01*
X12088Y1498D01*
X12106Y1480D01*
X12128Y1469D01*
X12153Y1465D01*
X12153Y1465D02*
X12647Y1465D01*
X12647Y1465D02*
X12672Y1469D01*
X12694Y1480D01*
X12712Y1498D01*
X12723Y1520D01*
X12727Y1545D01*
X12727Y1950D01*
X12727Y1950D02*
X12730Y1976D01*
X12740Y2000D01*
X12756Y2021D01*
X12777Y2037D01*
X12801Y2047D01*
X12827Y2050D01*
X12927Y2050D01*
X12953Y2052D01*
X12979Y2057D01*
X13004Y2065D01*
X13027Y2077D01*
X13049Y2091D01*
X13068Y2109D01*
X13086Y2128D01*
X13100Y2150D01*
X13112Y2173D01*
X13120Y2198D01*
X13125Y2224D01*
X13127Y2250D01*
X13127Y2750D01*
X13125Y2776D01*
X13120Y2802D01*
X13112Y2827D01*
X13100Y2850D01*
X13086Y2872D01*
X13068Y2891D01*
X13049Y2909D01*
X13027Y2923D01*
X13004Y2935D01*
X12979Y2943D01*
X12953Y2948D01*
X12927Y2950D01*
X12827Y2950D01*
X12827Y2950D02*
X12801Y2953D01*
X12777Y2963D01*
X12756Y2979D01*
X12740Y3000D01*
X12730Y3024D01*
X12727Y3050D01*
X12727Y3050D02*
X12727Y3455D01*
X12723Y3480D01*
X12712Y3502D01*
X12694Y3520D01*
X12672Y3531D01*
X12647Y3535D01*
X12647Y3535D02*
X12153Y3535D01*
X12153Y3535D02*
X12128Y3531D01*
X12106Y3520D01*
X12088Y3502D01*
X12077Y3480D01*
X12073Y3455D01*
X12073Y3050D01*
X12073Y3050D02*
X12070Y3024D01*
X12060Y3000D01*
X12044Y2979D01*
X12023Y2963D01*
X11999Y2953D01*
X11973Y2950D01*
X11973Y2950D02*
X11829Y2950D01*
X11829Y2950D02*
X11804Y2953D01*
X11779Y2963D01*
X11759Y2979D01*
X11743Y3000D01*
X11733Y3024D01*
X11729Y3050D01*
X11729Y3050D02*
X11729Y3455D01*
X11726Y3480D01*
X11714Y3502D01*
X11697Y3520D01*
X11674Y3531D01*
X11650Y3535D01*
X11650Y3535D02*
X11150Y3535D01*
X11150Y3535D02*
X11126Y3531D01*
X11103Y3520D01*
X11086Y3502D01*
X11074Y3480D01*
X11071Y3455D01*
X11071Y3050D01*
X11071Y3050D02*
X11067Y3024D01*
X11057Y3000D01*
X11041Y2979D01*
X11021Y2963D01*
X10996Y2953D01*
X10971Y2950D01*
X10971Y2950D02*
X10832Y2950D01*
X10832Y2950D02*
X10806Y2953D01*
X10782Y2963D01*
X10761Y2979D01*
X10745Y3000D01*
X10735Y3024D01*
X10732Y3050D01*
X10732Y3050D02*
X10732Y3455D01*
X10732Y3455D02*
X10728Y3480D01*
X10717Y3502D01*
X10699Y3520D01*
X10677Y3531D01*
X10652Y3535D01*
X10652Y3535D02*
X10148Y3535D01*
X10148Y3535D02*
X10123Y3531D01*
X10101Y3520D01*
X10083Y3502D01*
X10072Y3480D01*
X10068Y3455D01*
X10068Y3455D02*
X10068Y3050D01*
X10068Y3050D02*
X10065Y3024D01*
X10055Y3000D01*
X10039Y2979D01*
X10018Y2963D01*
X9994Y2953D01*
X9968Y2950D01*
X9968Y2950D02*
X9835Y2950D01*
X9835Y2950D02*
X9809Y2953D01*
X9785Y2963D01*
X9764Y2979D01*
X9748Y3000D01*
X9738Y3024D01*
X9735Y3050D01*
X9735Y3050D02*
X9735Y3455D01*
X9735Y3455D02*
X9731Y3480D01*
X9719Y3502D01*
X9702Y3520D01*
X9679Y3531D01*
X9654Y3535D01*
X9654Y3535D02*
X9146Y3535D01*
X9146Y3535D02*
X9121Y3531D01*
X9098Y3520D01*
X9081Y3502D01*
X9069Y3480D01*
X9065Y3455D01*
X9065Y3050D01*
X9065Y3050D02*
X9062Y3024D01*
X9052Y3000D01*
X9036Y2979D01*
X9015Y2963D01*
X8991Y2953D01*
X8965Y2950D01*
X8965Y2950D02*
X8837Y2950D01*
X8837Y2950D02*
X8811Y2953D01*
X8787Y2963D01*
X8766Y2979D01*
X8750Y3000D01*
X8740Y3024D01*
X8737Y3050D01*
X8737Y3050D02*
X8737Y3455D01*
X8733Y3480D01*
X8722Y3502D01*
X8704Y3520D01*
X8682Y3531D01*
X8657Y3535D01*
X8657Y3535D02*
X8143Y3535D01*
X8118Y3531D01*
X8096Y3520D01*
X8078Y3502D01*
X8067Y3480D01*
X8063Y3455D01*
X8063Y3050D01*
X8063Y3050D02*
X8060Y3024D01*
X8050Y3000D01*
X8034Y2979D01*
X8013Y2963D01*
X7989Y2953D01*
X7963Y2950D01*
X7963Y2950D02*
X7832Y2950D01*
X7832Y2950D02*
X7806Y2953D01*
X7782Y2963D01*
X7761Y2979D01*
X7745Y3000D01*
X7735Y3024D01*
X7732Y3050D01*
X7732Y3050D02*
X7727Y3455D01*
X7723Y3480D01*
X7712Y3502D01*
X7694Y3520D01*
X7672Y3531D01*
X7647Y3535D01*
X7647Y3535D02*
X7153Y3535D01*
X7153Y3535D02*
X7128Y3531D01*
X7106Y3520D01*
X7088Y3502D01*
X7077Y3480D01*
X7073Y3455D01*
X7068Y3050D01*
X7068Y3050D02*
X7065Y3024D01*
X7055Y3000D01*
X7039Y2979D01*
X7018Y2963D01*
X6994Y2953D01*
X6968Y2950D01*
X6968Y2950D02*
X6837Y2950D01*
X6837Y2950D02*
X6811Y2953D01*
X6787Y2963D01*
X6766Y2979D01*
X6750Y3000D01*
X6740Y3024D01*
X6737Y3050D01*
X6737Y3050D02*
X6727Y3455D01*
X6723Y3480D01*
X6712Y3502D01*
X6694Y3520D01*
X6672Y3531D01*
X6647Y3535D01*
X6647Y3535D02*
X6153Y3535D01*
X6153Y3535D02*
X6128Y3531D01*
X6106Y3520D01*
X6088Y3502D01*
X6077Y3480D01*
X6073Y3455D01*
X6063Y3050D01*
X6063Y3050D02*
X6060Y3024D01*
X6050Y3000D01*
X6034Y2979D01*
X6013Y2963D01*
X5989Y2953D01*
X5963Y2950D01*
X5963Y2950D02*
X5842Y2950D01*
X5842Y2950D02*
X5816Y2953D01*
X5792Y2963D01*
X5771Y2979D01*
X5755Y3000D01*
X5745Y3024D01*
X5742Y3050D01*
X5742Y3050D02*
X5727Y3455D01*
X5723Y3480D01*
X5712Y3502D01*
X5694Y3520D01*
X5672Y3531D01*
X5647Y3535D01*
X5647Y3535D02*
X5153Y3535D01*
X5153Y3535D02*
X5128Y3531D01*
X5106Y3520D01*
X5088Y3502D01*
X5077Y3480D01*
X5073Y3455D01*
X5058Y3050D01*
X5058Y3050D02*
X5055Y3024D01*
X5045Y3000D01*
X5029Y2979D01*
X5008Y2963D01*
X4984Y2953D01*
X4958Y2950D01*
X4958Y2950D02*
X4873Y2950D01*
X4847Y2948D01*
X4821Y2943D01*
X4796Y2935D01*
X4773Y2923D01*
X4751Y2909D01*
X4732Y2891D01*
X4714Y2872D01*
X4700Y2850D01*
X4688Y2827D01*
X4680Y2802D01*
X4675Y2776D01*
X4673Y2750D01*
X4673Y2250D01*
X4675Y2224D01*
X4680Y2198D01*
X4688Y2173D01*
X4700Y2150D01*
X4714Y2128D01*
X4732Y2109D01*
X4751Y2091D01*
X4773Y2077D01*
X4796Y2065D01*
X4821Y2057D01*
X4847Y2052D01*
X4873Y2050D01*
X4973Y2050D01*
X4973Y2050D02*
X4999Y2047D01*
X5023Y2037D01*
X5044Y2021D01*
X5060Y2000D01*
X5070Y1976D01*
X5073Y1950D01*
X5073Y1950D02*
X5073Y1545D01*
X5077Y1520D01*
X5088Y1498D01*
M02*
