G04*
G04 #@! TF.GenerationSoftware,Altium Limited,Altium Designer,21.8.1 (53)*
G04*
G04 Layer_Color=2752767*
%FSAX25Y25*%
%MOIN*%
G70*
G04*
G04 #@! TF.SameCoordinates,1CCF7041-1EFB-486E-B6D5-4B62EAFF3753*
G04*
G04*
G04 #@! TF.FilePolarity,Positive*
G04*
G01*
G75*
%ADD26C,0.00787*%
%ADD64C,0.00200*%
%ADD65C,0.00267*%
G36*
X0556099Y0220157D02*
X0556124D01*
X0556179Y0220132D01*
X0556210Y0220114D01*
X0556241Y0220089D01*
X0556247Y0220083D01*
X0556254Y0220077D01*
X0556285Y0220040D01*
X0556309Y0219978D01*
X0556316Y0219941D01*
X0556322Y0219903D01*
Y0219897D01*
Y0219885D01*
X0556316Y0219866D01*
X0556309Y0219842D01*
X0556291Y0219780D01*
X0556266Y0219749D01*
X0556241Y0219718D01*
X0556235D01*
X0556229Y0219705D01*
X0556192Y0219681D01*
X0556136Y0219656D01*
X0556099Y0219650D01*
X0556062Y0219643D01*
X0556043D01*
X0556025Y0219650D01*
X0556000D01*
X0555938Y0219674D01*
X0555907Y0219687D01*
X0555876Y0219711D01*
Y0219718D01*
X0555864Y0219724D01*
X0555851Y0219742D01*
X0555839Y0219761D01*
X0555814Y0219823D01*
X0555808Y0219860D01*
X0555802Y0219903D01*
Y0219910D01*
Y0219922D01*
X0555808Y0219941D01*
X0555814Y0219971D01*
X0555833Y0220027D01*
X0555851Y0220058D01*
X0555876Y0220089D01*
X0555882Y0220095D01*
X0555888Y0220101D01*
X0555926Y0220126D01*
X0555987Y0220151D01*
X0556025Y0220163D01*
X0556080D01*
X0556099Y0220157D01*
D02*
G37*
G36*
X0544109Y0216493D02*
X0543707D01*
Y0216914D01*
X0543694D01*
Y0216908D01*
X0543682Y0216895D01*
X0543663Y0216870D01*
X0543645Y0216839D01*
X0543614Y0216802D01*
X0543576Y0216765D01*
X0543533Y0216722D01*
X0543484Y0216678D01*
X0543428Y0216629D01*
X0543360Y0216586D01*
X0543292Y0216548D01*
X0543211Y0216511D01*
X0543131Y0216480D01*
X0543038Y0216456D01*
X0542939Y0216443D01*
X0542834Y0216437D01*
X0542790D01*
X0542753Y0216443D01*
X0542716Y0216449D01*
X0542667Y0216456D01*
X0542561Y0216480D01*
X0542438Y0216517D01*
X0542314Y0216579D01*
X0542246Y0216617D01*
X0542190Y0216660D01*
X0542128Y0216716D01*
X0542072Y0216771D01*
Y0216777D01*
X0542060Y0216790D01*
X0542048Y0216808D01*
X0542029Y0216833D01*
X0542010Y0216864D01*
X0541986Y0216908D01*
X0541961Y0216957D01*
X0541936Y0217013D01*
X0541905Y0217075D01*
X0541880Y0217143D01*
X0541856Y0217217D01*
X0541837Y0217297D01*
X0541819Y0217384D01*
X0541806Y0217483D01*
X0541800Y0217582D01*
X0541794Y0217687D01*
Y0217694D01*
Y0217712D01*
Y0217749D01*
X0541800Y0217793D01*
X0541806Y0217842D01*
X0541812Y0217904D01*
X0541819Y0217972D01*
X0541831Y0218046D01*
X0541868Y0218207D01*
X0541924Y0218374D01*
X0541961Y0218455D01*
X0542004Y0218535D01*
X0542048Y0218610D01*
X0542103Y0218684D01*
X0542109Y0218690D01*
X0542116Y0218703D01*
X0542134Y0218721D01*
X0542159Y0218746D01*
X0542190Y0218771D01*
X0542233Y0218802D01*
X0542277Y0218839D01*
X0542326Y0218876D01*
X0542450Y0218944D01*
X0542592Y0219006D01*
X0542673Y0219024D01*
X0542759Y0219043D01*
X0542846Y0219055D01*
X0542945Y0219062D01*
X0542995D01*
X0543032Y0219055D01*
X0543069Y0219049D01*
X0543118Y0219043D01*
X0543230Y0219012D01*
X0543354Y0218963D01*
X0543415Y0218932D01*
X0543477Y0218888D01*
X0543539Y0218845D01*
X0543595Y0218789D01*
X0543645Y0218727D01*
X0543694Y0218653D01*
X0543707D01*
Y0220213D01*
X0544109D01*
Y0216493D01*
D02*
G37*
G36*
X0558377Y0219055D02*
X0558451Y0219049D01*
X0558544Y0219031D01*
X0558643Y0219000D01*
X0558748Y0218950D01*
X0558853Y0218882D01*
X0558897Y0218845D01*
X0558940Y0218795D01*
X0558952Y0218783D01*
X0558977Y0218746D01*
X0559008Y0218684D01*
X0559052Y0218597D01*
X0559089Y0218492D01*
X0559126Y0218362D01*
X0559151Y0218207D01*
X0559157Y0218028D01*
Y0216493D01*
X0558754D01*
Y0217923D01*
Y0217929D01*
Y0217960D01*
X0558748Y0217997D01*
Y0218046D01*
X0558736Y0218108D01*
X0558723Y0218176D01*
X0558705Y0218251D01*
X0558680Y0218325D01*
X0558649Y0218399D01*
X0558612Y0218467D01*
X0558563Y0218535D01*
X0558507Y0218597D01*
X0558445Y0218647D01*
X0558364Y0218684D01*
X0558278Y0218715D01*
X0558173Y0218721D01*
X0558160D01*
X0558123Y0218715D01*
X0558067Y0218709D01*
X0557999Y0218690D01*
X0557919Y0218665D01*
X0557832Y0218622D01*
X0557752Y0218566D01*
X0557671Y0218492D01*
X0557665Y0218480D01*
X0557640Y0218455D01*
X0557609Y0218405D01*
X0557572Y0218337D01*
X0557535Y0218257D01*
X0557504Y0218158D01*
X0557479Y0218046D01*
X0557473Y0217923D01*
Y0216493D01*
X0557071D01*
Y0219006D01*
X0557473D01*
Y0218585D01*
X0557485D01*
X0557492Y0218591D01*
X0557498Y0218603D01*
X0557516Y0218628D01*
X0557541Y0218659D01*
X0557566Y0218696D01*
X0557603Y0218734D01*
X0557646Y0218777D01*
X0557696Y0218826D01*
X0557752Y0218870D01*
X0557814Y0218913D01*
X0557882Y0218950D01*
X0557956Y0218987D01*
X0558030Y0219018D01*
X0558117Y0219043D01*
X0558210Y0219055D01*
X0558309Y0219062D01*
X0558346D01*
X0558377Y0219055D01*
D02*
G37*
G36*
X0541379Y0219043D02*
X0541453Y0219037D01*
X0541497Y0219024D01*
X0541528Y0219012D01*
Y0218597D01*
X0541521Y0218603D01*
X0541509Y0218610D01*
X0541484Y0218622D01*
X0541453Y0218641D01*
X0541410Y0218653D01*
X0541354Y0218665D01*
X0541292Y0218672D01*
X0541224Y0218678D01*
X0541212D01*
X0541181Y0218672D01*
X0541131Y0218665D01*
X0541076Y0218647D01*
X0541001Y0218616D01*
X0540933Y0218573D01*
X0540859Y0218511D01*
X0540791Y0218430D01*
X0540785Y0218418D01*
X0540766Y0218387D01*
X0540735Y0218331D01*
X0540704Y0218257D01*
X0540673Y0218164D01*
X0540642Y0218046D01*
X0540624Y0217916D01*
X0540618Y0217768D01*
Y0216493D01*
X0540215D01*
Y0219006D01*
X0540618D01*
Y0218486D01*
X0540630D01*
Y0218492D01*
X0540636Y0218498D01*
X0540649Y0218529D01*
X0540667Y0218579D01*
X0540698Y0218641D01*
X0540729Y0218703D01*
X0540779Y0218771D01*
X0540828Y0218839D01*
X0540890Y0218901D01*
X0540896Y0218907D01*
X0540921Y0218925D01*
X0540958Y0218950D01*
X0541008Y0218975D01*
X0541063Y0219000D01*
X0541131Y0219024D01*
X0541206Y0219043D01*
X0541286Y0219049D01*
X0541342D01*
X0541379Y0219043D01*
D02*
G37*
G36*
X0552119Y0216493D02*
X0551716D01*
Y0216889D01*
X0551704D01*
Y0216883D01*
X0551692Y0216870D01*
X0551679Y0216846D01*
X0551654Y0216821D01*
X0551599Y0216746D01*
X0551512Y0216666D01*
X0551463Y0216623D01*
X0551407Y0216579D01*
X0551345Y0216542D01*
X0551271Y0216505D01*
X0551196Y0216480D01*
X0551116Y0216456D01*
X0551023Y0216443D01*
X0550930Y0216437D01*
X0550893D01*
X0550850Y0216443D01*
X0550788Y0216456D01*
X0550720Y0216468D01*
X0550645Y0216493D01*
X0550565Y0216524D01*
X0550485Y0216573D01*
X0550398Y0216629D01*
X0550317Y0216697D01*
X0550243Y0216784D01*
X0550175Y0216889D01*
X0550113Y0217006D01*
X0550070Y0217149D01*
X0550045Y0217316D01*
X0550033Y0217403D01*
Y0217502D01*
Y0219006D01*
X0550429D01*
Y0217564D01*
Y0217557D01*
Y0217533D01*
X0550435Y0217489D01*
X0550441Y0217440D01*
X0550447Y0217378D01*
X0550460Y0217316D01*
X0550478Y0217242D01*
X0550503Y0217167D01*
X0550540Y0217093D01*
X0550577Y0217025D01*
X0550627Y0216957D01*
X0550689Y0216895D01*
X0550757Y0216846D01*
X0550837Y0216808D01*
X0550936Y0216777D01*
X0551042Y0216771D01*
X0551054D01*
X0551091Y0216777D01*
X0551147Y0216784D01*
X0551209Y0216796D01*
X0551289Y0216827D01*
X0551370Y0216864D01*
X0551450Y0216914D01*
X0551524Y0216988D01*
X0551531Y0217000D01*
X0551555Y0217025D01*
X0551586Y0217075D01*
X0551623Y0217143D01*
X0551654Y0217223D01*
X0551685Y0217322D01*
X0551710Y0217434D01*
X0551716Y0217557D01*
Y0219006D01*
X0552119D01*
Y0216493D01*
D02*
G37*
G36*
X0556254D02*
X0555851D01*
Y0219006D01*
X0556254D01*
Y0216493D01*
D02*
G37*
G36*
X0555034D02*
X0554632D01*
Y0220213D01*
X0555034D01*
Y0216493D01*
D02*
G37*
G36*
X0538655Y0219055D02*
X0538711Y0219049D01*
X0538779Y0219031D01*
X0538854Y0219012D01*
X0538934Y0218981D01*
X0539021Y0218944D01*
X0539101Y0218895D01*
X0539182Y0218832D01*
X0539256Y0218758D01*
X0539324Y0218665D01*
X0539380Y0218560D01*
X0539423Y0218436D01*
X0539448Y0218294D01*
X0539460Y0218127D01*
Y0216493D01*
X0539058D01*
Y0216883D01*
X0539045D01*
Y0216877D01*
X0539033Y0216864D01*
X0539021Y0216839D01*
X0538996Y0216815D01*
X0538934Y0216740D01*
X0538854Y0216660D01*
X0538742Y0216579D01*
X0538612Y0216505D01*
X0538532Y0216480D01*
X0538451Y0216456D01*
X0538365Y0216443D01*
X0538272Y0216437D01*
X0538235D01*
X0538210Y0216443D01*
X0538142Y0216449D01*
X0538061Y0216462D01*
X0537962Y0216487D01*
X0537869Y0216517D01*
X0537770Y0216567D01*
X0537684Y0216629D01*
X0537677Y0216641D01*
X0537653Y0216666D01*
X0537615Y0216709D01*
X0537578Y0216771D01*
X0537541Y0216846D01*
X0537504Y0216932D01*
X0537479Y0217037D01*
X0537473Y0217155D01*
Y0217161D01*
Y0217186D01*
X0537479Y0217223D01*
X0537486Y0217267D01*
X0537498Y0217322D01*
X0537516Y0217384D01*
X0537541Y0217452D01*
X0537578Y0217520D01*
X0537622Y0217595D01*
X0537677Y0217669D01*
X0537746Y0217737D01*
X0537826Y0217799D01*
X0537919Y0217861D01*
X0538030Y0217910D01*
X0538154Y0217947D01*
X0538303Y0217978D01*
X0539058Y0218084D01*
Y0218090D01*
Y0218108D01*
X0539052Y0218145D01*
Y0218183D01*
X0539039Y0218232D01*
X0539033Y0218288D01*
X0538996Y0218405D01*
X0538965Y0218461D01*
X0538934Y0218517D01*
X0538891Y0218573D01*
X0538841Y0218622D01*
X0538779Y0218665D01*
X0538711Y0218696D01*
X0538631Y0218715D01*
X0538538Y0218721D01*
X0538494D01*
X0538463Y0218715D01*
X0538420D01*
X0538377Y0218703D01*
X0538266Y0218684D01*
X0538142Y0218647D01*
X0538005Y0218591D01*
X0537931Y0218554D01*
X0537863Y0218517D01*
X0537789Y0218467D01*
X0537721Y0218412D01*
Y0218826D01*
X0537727D01*
X0537739Y0218839D01*
X0537758Y0218851D01*
X0537789Y0218864D01*
X0537820Y0218882D01*
X0537863Y0218901D01*
X0537913Y0218919D01*
X0537968Y0218944D01*
X0538092Y0218987D01*
X0538241Y0219024D01*
X0538402Y0219049D01*
X0538575Y0219062D01*
X0538612D01*
X0538655Y0219055D01*
D02*
G37*
G36*
X0532967Y0220003D02*
X0533010D01*
X0533053Y0219996D01*
X0533152Y0219984D01*
X0533270Y0219953D01*
X0533394Y0219916D01*
X0533511Y0219860D01*
X0533617Y0219786D01*
X0533623D01*
X0533629Y0219773D01*
X0533660Y0219749D01*
X0533703Y0219699D01*
X0533753Y0219631D01*
X0533796Y0219544D01*
X0533840Y0219445D01*
X0533871Y0219334D01*
X0533883Y0219272D01*
Y0219204D01*
Y0219198D01*
Y0219192D01*
Y0219154D01*
X0533877Y0219099D01*
X0533864Y0219031D01*
X0533846Y0218944D01*
X0533815Y0218857D01*
X0533778Y0218771D01*
X0533722Y0218684D01*
X0533716Y0218672D01*
X0533691Y0218647D01*
X0533654Y0218610D01*
X0533604Y0218560D01*
X0533542Y0218511D01*
X0533468Y0218455D01*
X0533375Y0218412D01*
X0533276Y0218368D01*
Y0218362D01*
X0533295D01*
X0533314Y0218356D01*
X0533332Y0218350D01*
X0533400Y0218337D01*
X0533481Y0218313D01*
X0533567Y0218275D01*
X0533660Y0218232D01*
X0533753Y0218170D01*
X0533840Y0218090D01*
X0533852Y0218077D01*
X0533877Y0218046D01*
X0533908Y0218003D01*
X0533951Y0217935D01*
X0533988Y0217848D01*
X0534025Y0217749D01*
X0534050Y0217632D01*
X0534056Y0217502D01*
Y0217495D01*
Y0217483D01*
Y0217458D01*
X0534050Y0217427D01*
X0534044Y0217390D01*
X0534038Y0217347D01*
X0534013Y0217242D01*
X0533976Y0217124D01*
X0533920Y0217000D01*
X0533883Y0216945D01*
X0533840Y0216883D01*
X0533784Y0216827D01*
X0533728Y0216771D01*
X0533722D01*
X0533716Y0216759D01*
X0533697Y0216746D01*
X0533673Y0216728D01*
X0533641Y0216709D01*
X0533598Y0216685D01*
X0533505Y0216635D01*
X0533388Y0216579D01*
X0533252Y0216536D01*
X0533091Y0216505D01*
X0533010Y0216499D01*
X0532917Y0216493D01*
X0531890D01*
Y0220009D01*
X0532936D01*
X0532967Y0220003D01*
D02*
G37*
G36*
X0553462Y0219006D02*
X0554100D01*
Y0218659D01*
X0553462D01*
Y0217242D01*
Y0217229D01*
Y0217198D01*
X0553468Y0217155D01*
X0553474Y0217099D01*
X0553499Y0216982D01*
X0553518Y0216926D01*
X0553549Y0216883D01*
X0553555Y0216877D01*
X0553567Y0216864D01*
X0553586Y0216852D01*
X0553617Y0216833D01*
X0553654Y0216808D01*
X0553703Y0216796D01*
X0553765Y0216784D01*
X0553833Y0216777D01*
X0553858D01*
X0553889Y0216784D01*
X0553926Y0216790D01*
X0554013Y0216815D01*
X0554056Y0216833D01*
X0554100Y0216858D01*
Y0216511D01*
X0554093D01*
X0554075Y0216499D01*
X0554044Y0216493D01*
X0554000Y0216480D01*
X0553945Y0216468D01*
X0553883Y0216456D01*
X0553809Y0216449D01*
X0553722Y0216443D01*
X0553691D01*
X0553660Y0216449D01*
X0553617Y0216456D01*
X0553567Y0216468D01*
X0553511Y0216480D01*
X0553456Y0216505D01*
X0553394Y0216536D01*
X0553332Y0216573D01*
X0553270Y0216623D01*
X0553214Y0216678D01*
X0553165Y0216753D01*
X0553122Y0216833D01*
X0553090Y0216932D01*
X0553066Y0217044D01*
X0553060Y0217174D01*
Y0218659D01*
X0552632D01*
Y0219006D01*
X0553060D01*
Y0219619D01*
X0553462Y0219749D01*
Y0219006D01*
D02*
G37*
G36*
X0560989Y0219055D02*
X0561032Y0219049D01*
X0561076Y0219043D01*
X0561187Y0219024D01*
X0561311Y0218981D01*
X0561435Y0218925D01*
X0561496Y0218888D01*
X0561558Y0218845D01*
X0561614Y0218795D01*
X0561670Y0218740D01*
X0561676Y0218734D01*
X0561682Y0218727D01*
X0561695Y0218709D01*
X0561713Y0218684D01*
X0561732Y0218647D01*
X0561757Y0218610D01*
X0561781Y0218566D01*
X0561806Y0218511D01*
X0561831Y0218449D01*
X0561856Y0218387D01*
X0561880Y0218313D01*
X0561899Y0218232D01*
X0561917Y0218145D01*
X0561930Y0218059D01*
X0561942Y0217960D01*
Y0217854D01*
Y0217644D01*
X0560166D01*
Y0217638D01*
Y0217625D01*
Y0217607D01*
X0560172Y0217576D01*
X0560178Y0217539D01*
Y0217502D01*
X0560197Y0217403D01*
X0560228Y0217304D01*
X0560265Y0217192D01*
X0560320Y0217087D01*
X0560389Y0216994D01*
X0560401Y0216982D01*
X0560426Y0216957D01*
X0560475Y0216926D01*
X0560543Y0216883D01*
X0560630Y0216839D01*
X0560729Y0216808D01*
X0560847Y0216784D01*
X0560983Y0216771D01*
X0561026D01*
X0561057Y0216777D01*
X0561094D01*
X0561137Y0216784D01*
X0561243Y0216808D01*
X0561360Y0216839D01*
X0561490Y0216889D01*
X0561626Y0216957D01*
X0561695Y0217000D01*
X0561763Y0217050D01*
Y0216672D01*
X0561757D01*
X0561750Y0216660D01*
X0561732Y0216654D01*
X0561701Y0216635D01*
X0561670Y0216617D01*
X0561633Y0216598D01*
X0561583Y0216579D01*
X0561534Y0216555D01*
X0561472Y0216530D01*
X0561404Y0216511D01*
X0561255Y0216474D01*
X0561082Y0216449D01*
X0560890Y0216437D01*
X0560840D01*
X0560803Y0216443D01*
X0560760Y0216449D01*
X0560704Y0216456D01*
X0560587Y0216480D01*
X0560450Y0216517D01*
X0560314Y0216579D01*
X0560246Y0216623D01*
X0560178Y0216666D01*
X0560116Y0216716D01*
X0560054Y0216777D01*
X0560048Y0216784D01*
X0560042Y0216796D01*
X0560030Y0216815D01*
X0560005Y0216839D01*
X0559986Y0216877D01*
X0559961Y0216920D01*
X0559931Y0216969D01*
X0559906Y0217025D01*
X0559875Y0217087D01*
X0559850Y0217161D01*
X0559819Y0217242D01*
X0559800Y0217328D01*
X0559782Y0217421D01*
X0559763Y0217520D01*
X0559757Y0217625D01*
X0559751Y0217737D01*
Y0217743D01*
Y0217762D01*
Y0217793D01*
X0559757Y0217836D01*
X0559763Y0217885D01*
X0559769Y0217941D01*
X0559776Y0218009D01*
X0559794Y0218077D01*
X0559831Y0218226D01*
X0559887Y0218387D01*
X0559924Y0218467D01*
X0559974Y0218542D01*
X0560023Y0218622D01*
X0560079Y0218690D01*
X0560085Y0218696D01*
X0560098Y0218709D01*
X0560116Y0218727D01*
X0560141Y0218746D01*
X0560172Y0218777D01*
X0560209Y0218808D01*
X0560258Y0218839D01*
X0560308Y0218876D01*
X0560426Y0218944D01*
X0560568Y0219006D01*
X0560648Y0219024D01*
X0560729Y0219043D01*
X0560816Y0219055D01*
X0560909Y0219062D01*
X0560958D01*
X0560989Y0219055D01*
D02*
G37*
G36*
X0547947Y0220064D02*
X0548008Y0220058D01*
X0548083Y0220046D01*
X0548163Y0220027D01*
X0548250Y0220009D01*
X0548337Y0219984D01*
X0548436Y0219953D01*
X0548528Y0219910D01*
X0548628Y0219860D01*
X0548727Y0219804D01*
X0548819Y0219736D01*
X0548912Y0219662D01*
X0548999Y0219575D01*
X0549005Y0219569D01*
X0549017Y0219551D01*
X0549042Y0219526D01*
X0549067Y0219489D01*
X0549104Y0219439D01*
X0549141Y0219377D01*
X0549178Y0219309D01*
X0549222Y0219235D01*
X0549265Y0219142D01*
X0549302Y0219049D01*
X0549339Y0218944D01*
X0549376Y0218826D01*
X0549401Y0218709D01*
X0549426Y0218579D01*
X0549438Y0218436D01*
X0549445Y0218294D01*
Y0218282D01*
Y0218257D01*
Y0218214D01*
X0549438Y0218152D01*
X0549432Y0218077D01*
X0549420Y0217997D01*
X0549407Y0217904D01*
X0549389Y0217799D01*
X0549364Y0217694D01*
X0549333Y0217582D01*
X0549296Y0217471D01*
X0549253Y0217359D01*
X0549197Y0217242D01*
X0549135Y0217137D01*
X0549067Y0217031D01*
X0548986Y0216932D01*
X0548980Y0216926D01*
X0548968Y0216914D01*
X0548937Y0216889D01*
X0548906Y0216858D01*
X0548856Y0216815D01*
X0548801Y0216777D01*
X0548739Y0216728D01*
X0548665Y0216685D01*
X0548584Y0216641D01*
X0548491Y0216592D01*
X0548392Y0216555D01*
X0548281Y0216517D01*
X0548163Y0216480D01*
X0548039Y0216456D01*
X0547909Y0216443D01*
X0547767Y0216437D01*
X0547736D01*
X0547693Y0216443D01*
X0547643D01*
X0547581Y0216449D01*
X0547507Y0216462D01*
X0547427Y0216480D01*
X0547334Y0216499D01*
X0547241Y0216524D01*
X0547142Y0216555D01*
X0547043Y0216598D01*
X0546944Y0216641D01*
X0546845Y0216697D01*
X0546746Y0216765D01*
X0546653Y0216839D01*
X0546566Y0216926D01*
X0546560Y0216932D01*
X0546548Y0216951D01*
X0546523Y0216976D01*
X0546498Y0217013D01*
X0546461Y0217062D01*
X0546424Y0217124D01*
X0546387Y0217192D01*
X0546343Y0217273D01*
X0546300Y0217359D01*
X0546263Y0217452D01*
X0546226Y0217557D01*
X0546189Y0217675D01*
X0546164Y0217793D01*
X0546139Y0217923D01*
X0546127Y0218065D01*
X0546121Y0218207D01*
Y0218220D01*
Y0218245D01*
X0546127Y0218288D01*
Y0218350D01*
X0546133Y0218418D01*
X0546145Y0218505D01*
X0546158Y0218597D01*
X0546176Y0218696D01*
X0546201Y0218802D01*
X0546232Y0218913D01*
X0546269Y0219024D01*
X0546313Y0219136D01*
X0546368Y0219247D01*
X0546430Y0219359D01*
X0546498Y0219464D01*
X0546579Y0219563D01*
X0546585Y0219569D01*
X0546597Y0219588D01*
X0546628Y0219613D01*
X0546665Y0219643D01*
X0546709Y0219681D01*
X0546764Y0219724D01*
X0546832Y0219767D01*
X0546907Y0219817D01*
X0546993Y0219866D01*
X0547086Y0219910D01*
X0547185Y0219953D01*
X0547297Y0219990D01*
X0547421Y0220021D01*
X0547550Y0220052D01*
X0547687Y0220064D01*
X0547829Y0220071D01*
X0547897D01*
X0547947Y0220064D01*
D02*
G37*
G36*
X0535919Y0219055D02*
X0535963Y0219049D01*
X0536019Y0219043D01*
X0536142Y0219018D01*
X0536285Y0218975D01*
X0536427Y0218913D01*
X0536501Y0218876D01*
X0536569Y0218832D01*
X0536637Y0218777D01*
X0536699Y0218715D01*
X0536706Y0218709D01*
X0536712Y0218696D01*
X0536730Y0218678D01*
X0536749Y0218653D01*
X0536774Y0218616D01*
X0536798Y0218573D01*
X0536829Y0218523D01*
X0536860Y0218467D01*
X0536885Y0218399D01*
X0536916Y0218331D01*
X0536941Y0218251D01*
X0536966Y0218164D01*
X0536984Y0218071D01*
X0537003Y0217972D01*
X0537009Y0217867D01*
X0537015Y0217756D01*
Y0217749D01*
Y0217731D01*
Y0217700D01*
X0537009Y0217656D01*
X0537003Y0217607D01*
X0536997Y0217545D01*
X0536984Y0217483D01*
X0536972Y0217409D01*
X0536935Y0217260D01*
X0536873Y0217099D01*
X0536836Y0217019D01*
X0536786Y0216938D01*
X0536736Y0216864D01*
X0536675Y0216796D01*
X0536668Y0216790D01*
X0536656Y0216784D01*
X0536637Y0216765D01*
X0536613Y0216740D01*
X0536576Y0216716D01*
X0536539Y0216685D01*
X0536489Y0216648D01*
X0536433Y0216617D01*
X0536371Y0216586D01*
X0536303Y0216548D01*
X0536229Y0216517D01*
X0536149Y0216493D01*
X0536062Y0216468D01*
X0535969Y0216456D01*
X0535870Y0216443D01*
X0535765Y0216437D01*
X0535709D01*
X0535672Y0216443D01*
X0535629Y0216449D01*
X0535573Y0216456D01*
X0535511Y0216468D01*
X0535443Y0216480D01*
X0535300Y0216524D01*
X0535152Y0216586D01*
X0535078Y0216623D01*
X0535009Y0216672D01*
X0534941Y0216722D01*
X0534873Y0216784D01*
X0534867Y0216790D01*
X0534861Y0216802D01*
X0534842Y0216821D01*
X0534824Y0216846D01*
X0534799Y0216883D01*
X0534768Y0216926D01*
X0534737Y0216976D01*
X0534712Y0217031D01*
X0534682Y0217099D01*
X0534651Y0217167D01*
X0534620Y0217242D01*
X0534595Y0217328D01*
X0534558Y0217514D01*
X0534551Y0217613D01*
X0534545Y0217718D01*
Y0217724D01*
Y0217749D01*
Y0217780D01*
X0534551Y0217824D01*
X0534558Y0217873D01*
X0534564Y0217935D01*
X0534576Y0218003D01*
X0534589Y0218077D01*
X0534626Y0218238D01*
X0534688Y0218399D01*
X0534731Y0218480D01*
X0534774Y0218560D01*
X0534824Y0218635D01*
X0534886Y0218703D01*
X0534892Y0218709D01*
X0534904Y0218721D01*
X0534923Y0218734D01*
X0534948Y0218758D01*
X0534985Y0218783D01*
X0535028Y0218814D01*
X0535078Y0218851D01*
X0535133Y0218882D01*
X0535195Y0218913D01*
X0535269Y0218950D01*
X0535344Y0218981D01*
X0535430Y0219006D01*
X0535517Y0219031D01*
X0535616Y0219049D01*
X0535721Y0219055D01*
X0535827Y0219062D01*
X0535882D01*
X0535919Y0219055D01*
D02*
G37*
%LPC*%
G36*
X0542995Y0218721D02*
X0542957D01*
X0542933Y0218715D01*
X0542865Y0218709D01*
X0542784Y0218690D01*
X0542691Y0218653D01*
X0542592Y0218603D01*
X0542499Y0218542D01*
X0542456Y0218498D01*
X0542413Y0218449D01*
X0542407Y0218436D01*
X0542382Y0218399D01*
X0542345Y0218337D01*
X0542308Y0218257D01*
X0542270Y0218152D01*
X0542233Y0218022D01*
X0542208Y0217873D01*
X0542202Y0217706D01*
Y0217700D01*
Y0217687D01*
Y0217663D01*
X0542208Y0217632D01*
Y0217601D01*
X0542215Y0217557D01*
X0542227Y0217458D01*
X0542252Y0217347D01*
X0542289Y0217235D01*
X0542339Y0217124D01*
X0542407Y0217019D01*
X0542419Y0217006D01*
X0542444Y0216982D01*
X0542487Y0216938D01*
X0542549Y0216895D01*
X0542629Y0216852D01*
X0542722Y0216808D01*
X0542828Y0216784D01*
X0542951Y0216771D01*
X0542982D01*
X0543007Y0216777D01*
X0543069Y0216784D01*
X0543143Y0216802D01*
X0543230Y0216833D01*
X0543323Y0216870D01*
X0543409Y0216932D01*
X0543496Y0217013D01*
X0543502Y0217025D01*
X0543527Y0217056D01*
X0543564Y0217112D01*
X0543601Y0217180D01*
X0543638Y0217267D01*
X0543676Y0217372D01*
X0543700Y0217495D01*
X0543707Y0217625D01*
Y0217997D01*
Y0218003D01*
Y0218009D01*
Y0218046D01*
X0543694Y0218102D01*
X0543682Y0218176D01*
X0543657Y0218257D01*
X0543620Y0218343D01*
X0543570Y0218430D01*
X0543502Y0218511D01*
X0543496Y0218517D01*
X0543465Y0218542D01*
X0543422Y0218579D01*
X0543366Y0218616D01*
X0543292Y0218653D01*
X0543205Y0218690D01*
X0543106Y0218715D01*
X0542995Y0218721D01*
D02*
G37*
G36*
X0539058Y0217762D02*
X0538451Y0217675D01*
X0538439D01*
X0538408Y0217669D01*
X0538358Y0217656D01*
X0538296Y0217644D01*
X0538228Y0217625D01*
X0538154Y0217601D01*
X0538092Y0217576D01*
X0538030Y0217539D01*
X0538024Y0217533D01*
X0538005Y0217520D01*
X0537987Y0217495D01*
X0537962Y0217458D01*
X0537931Y0217409D01*
X0537913Y0217347D01*
X0537894Y0217273D01*
X0537888Y0217186D01*
Y0217180D01*
Y0217155D01*
X0537894Y0217124D01*
X0537906Y0217081D01*
X0537919Y0217031D01*
X0537944Y0216982D01*
X0537975Y0216932D01*
X0538018Y0216883D01*
X0538024Y0216877D01*
X0538043Y0216864D01*
X0538074Y0216846D01*
X0538111Y0216827D01*
X0538160Y0216808D01*
X0538222Y0216790D01*
X0538290Y0216777D01*
X0538371Y0216771D01*
X0538383D01*
X0538420Y0216777D01*
X0538476Y0216784D01*
X0538544Y0216796D01*
X0538618Y0216821D01*
X0538705Y0216858D01*
X0538785Y0216914D01*
X0538860Y0216982D01*
X0538866Y0216994D01*
X0538891Y0217019D01*
X0538922Y0217062D01*
X0538959Y0217124D01*
X0538996Y0217205D01*
X0539027Y0217291D01*
X0539052Y0217396D01*
X0539058Y0217508D01*
Y0217762D01*
D02*
G37*
G36*
X0532775Y0219637D02*
X0532304D01*
Y0218498D01*
X0532781D01*
X0532843Y0218505D01*
X0532917Y0218517D01*
X0533004Y0218535D01*
X0533097Y0218566D01*
X0533177Y0218603D01*
X0533258Y0218659D01*
X0533264Y0218665D01*
X0533289Y0218690D01*
X0533320Y0218727D01*
X0533357Y0218783D01*
X0533388Y0218845D01*
X0533419Y0218925D01*
X0533443Y0219018D01*
X0533450Y0219124D01*
Y0219130D01*
Y0219148D01*
X0533443Y0219173D01*
X0533437Y0219204D01*
X0533413Y0219284D01*
X0533394Y0219334D01*
X0533363Y0219384D01*
X0533332Y0219427D01*
X0533283Y0219476D01*
X0533233Y0219520D01*
X0533165Y0219557D01*
X0533091Y0219588D01*
X0532998Y0219613D01*
X0532893Y0219631D01*
X0532775Y0219637D01*
D02*
G37*
G36*
Y0218127D02*
X0532304D01*
Y0216864D01*
X0532924D01*
X0532985Y0216870D01*
X0533072Y0216883D01*
X0533159Y0216908D01*
X0533252Y0216932D01*
X0533344Y0216976D01*
X0533425Y0217031D01*
X0533431Y0217037D01*
X0533456Y0217062D01*
X0533487Y0217099D01*
X0533524Y0217155D01*
X0533561Y0217223D01*
X0533592Y0217304D01*
X0533617Y0217403D01*
X0533623Y0217508D01*
Y0217514D01*
Y0217533D01*
X0533617Y0217564D01*
X0533611Y0217607D01*
X0533598Y0217650D01*
X0533580Y0217706D01*
X0533555Y0217762D01*
X0533518Y0217817D01*
X0533474Y0217873D01*
X0533419Y0217929D01*
X0533351Y0217985D01*
X0533264Y0218028D01*
X0533171Y0218071D01*
X0533053Y0218102D01*
X0532924Y0218121D01*
X0532775Y0218127D01*
D02*
G37*
G36*
X0560902Y0218721D02*
X0560853D01*
X0560803Y0218709D01*
X0560735Y0218696D01*
X0560661Y0218672D01*
X0560574Y0218635D01*
X0560494Y0218585D01*
X0560413Y0218517D01*
X0560407Y0218511D01*
X0560382Y0218480D01*
X0560351Y0218436D01*
X0560308Y0218374D01*
X0560265Y0218300D01*
X0560228Y0218207D01*
X0560197Y0218102D01*
X0560172Y0217985D01*
X0561527D01*
Y0217991D01*
Y0218003D01*
Y0218016D01*
Y0218040D01*
X0561521Y0218108D01*
X0561509Y0218183D01*
X0561484Y0218275D01*
X0561459Y0218362D01*
X0561416Y0218449D01*
X0561360Y0218529D01*
X0561354Y0218535D01*
X0561329Y0218560D01*
X0561292Y0218591D01*
X0561243Y0218628D01*
X0561175Y0218659D01*
X0561094Y0218690D01*
X0561007Y0218715D01*
X0560902Y0218721D01*
D02*
G37*
G36*
X0547798Y0219693D02*
X0547742D01*
X0547705Y0219687D01*
X0547656Y0219681D01*
X0547606Y0219674D01*
X0547544Y0219662D01*
X0547476Y0219643D01*
X0547334Y0219594D01*
X0547260Y0219563D01*
X0547179Y0219526D01*
X0547105Y0219476D01*
X0547030Y0219421D01*
X0546962Y0219359D01*
X0546894Y0219291D01*
X0546888Y0219284D01*
X0546882Y0219272D01*
X0546863Y0219247D01*
X0546839Y0219216D01*
X0546814Y0219179D01*
X0546789Y0219130D01*
X0546758Y0219074D01*
X0546727Y0219012D01*
X0546690Y0218938D01*
X0546659Y0218864D01*
X0546634Y0218777D01*
X0546610Y0218684D01*
X0546585Y0218585D01*
X0546566Y0218474D01*
X0546560Y0218362D01*
X0546554Y0218245D01*
Y0218238D01*
Y0218214D01*
Y0218183D01*
X0546560Y0218139D01*
X0546566Y0218084D01*
X0546572Y0218016D01*
X0546585Y0217947D01*
X0546597Y0217873D01*
X0546634Y0217706D01*
X0546696Y0217527D01*
X0546733Y0217440D01*
X0546777Y0217359D01*
X0546832Y0217273D01*
X0546888Y0217198D01*
X0546894Y0217192D01*
X0546907Y0217180D01*
X0546925Y0217161D01*
X0546950Y0217137D01*
X0546981Y0217106D01*
X0547024Y0217075D01*
X0547074Y0217037D01*
X0547123Y0217000D01*
X0547185Y0216963D01*
X0547253Y0216926D01*
X0547402Y0216864D01*
X0547489Y0216839D01*
X0547575Y0216821D01*
X0547668Y0216808D01*
X0547767Y0216802D01*
X0547823D01*
X0547866Y0216808D01*
X0547909Y0216815D01*
X0547971Y0216821D01*
X0548033Y0216833D01*
X0548101Y0216852D01*
X0548244Y0216895D01*
X0548324Y0216926D01*
X0548398Y0216963D01*
X0548473Y0217006D01*
X0548547Y0217056D01*
X0548615Y0217112D01*
X0548683Y0217180D01*
X0548689Y0217186D01*
X0548696Y0217198D01*
X0548714Y0217217D01*
X0548733Y0217248D01*
X0548764Y0217291D01*
X0548788Y0217335D01*
X0548819Y0217390D01*
X0548850Y0217452D01*
X0548881Y0217527D01*
X0548912Y0217607D01*
X0548943Y0217694D01*
X0548968Y0217786D01*
X0548986Y0217885D01*
X0549005Y0217997D01*
X0549011Y0218114D01*
X0549017Y0218238D01*
Y0218245D01*
Y0218269D01*
Y0218306D01*
X0549011Y0218350D01*
X0549005Y0218412D01*
X0548999Y0218480D01*
X0548993Y0218554D01*
X0548974Y0218635D01*
X0548937Y0218802D01*
X0548881Y0218981D01*
X0548844Y0219068D01*
X0548801Y0219154D01*
X0548745Y0219235D01*
X0548689Y0219309D01*
X0548683Y0219315D01*
X0548677Y0219328D01*
X0548659Y0219346D01*
X0548628Y0219371D01*
X0548597Y0219396D01*
X0548559Y0219433D01*
X0548510Y0219464D01*
X0548460Y0219501D01*
X0548398Y0219538D01*
X0548330Y0219569D01*
X0548256Y0219606D01*
X0548176Y0219631D01*
X0548089Y0219656D01*
X0548002Y0219674D01*
X0547903Y0219687D01*
X0547798Y0219693D01*
D02*
G37*
G36*
X0535796Y0218721D02*
X0535758D01*
X0535734Y0218715D01*
X0535660Y0218709D01*
X0535573Y0218690D01*
X0535474Y0218659D01*
X0535368Y0218610D01*
X0535269Y0218542D01*
X0535220Y0218505D01*
X0535177Y0218455D01*
X0535164Y0218443D01*
X0535140Y0218405D01*
X0535109Y0218350D01*
X0535065Y0218269D01*
X0535022Y0218164D01*
X0534991Y0218040D01*
X0534966Y0217898D01*
X0534954Y0217731D01*
Y0217724D01*
Y0217712D01*
Y0217687D01*
X0534960Y0217656D01*
Y0217619D01*
X0534966Y0217576D01*
X0534985Y0217477D01*
X0535009Y0217366D01*
X0535053Y0217248D01*
X0535109Y0217130D01*
X0535183Y0217025D01*
X0535195Y0217013D01*
X0535226Y0216988D01*
X0535276Y0216945D01*
X0535344Y0216901D01*
X0535430Y0216852D01*
X0535536Y0216808D01*
X0535660Y0216784D01*
X0535796Y0216771D01*
X0535833D01*
X0535857Y0216777D01*
X0535932Y0216784D01*
X0536019Y0216802D01*
X0536111Y0216833D01*
X0536217Y0216877D01*
X0536309Y0216938D01*
X0536396Y0217019D01*
X0536402Y0217031D01*
X0536427Y0217068D01*
X0536464Y0217124D01*
X0536501Y0217205D01*
X0536539Y0217310D01*
X0536576Y0217434D01*
X0536600Y0217576D01*
X0536607Y0217743D01*
Y0217749D01*
Y0217762D01*
Y0217786D01*
Y0217824D01*
X0536600Y0217861D01*
X0536594Y0217904D01*
X0536582Y0218009D01*
X0536557Y0218127D01*
X0536520Y0218245D01*
X0536464Y0218362D01*
X0536396Y0218467D01*
X0536384Y0218480D01*
X0536359Y0218505D01*
X0536309Y0218548D01*
X0536241Y0218597D01*
X0536155Y0218641D01*
X0536056Y0218684D01*
X0535932Y0218709D01*
X0535796Y0218721D01*
D02*
G37*
%LPD*%
D26*
X-0019685Y-0019685D02*
X0520866D01*
Y0285827D02*
X0520866Y-0019685D01*
X-0019685Y0285827D02*
X0520866D01*
X-0019685Y-0019685D02*
Y0285827D01*
X0070887Y0110236D02*
G03*
X0067737Y0113386I-0003145J0000004D01*
G01*
X0070887Y0110236D02*
G03*
X0067737Y0113386I-0003145J0000004D01*
G01*
X0090302Y0087743D02*
G03*
X0078761Y0096063I-0002771J0008320D01*
G01*
X0090302Y0087743D02*
G03*
X0078761Y0096063I-0002771J0008320D01*
G01*
X0070887Y0094291D02*
G03*
X0078761Y0094291I0003937J0000000D01*
G01*
X0070887D02*
G03*
X0078761Y0094291I0003937J0000000D01*
G01*
X0090302Y0087743D02*
G03*
X0088054Y0082189I0001244J-0003735D01*
G01*
X0090302Y0087743D02*
G03*
X0088054Y0082189I0001244J-0003735D01*
G01*
X0037265Y0094291D02*
G03*
X0045139Y0094291I0003937J0000000D01*
G01*
X0037265D02*
G03*
X0045139Y0094291I0003937J0000000D01*
G01*
X0037265Y0096063D02*
G03*
X0025695Y0087724I-0008790J0000000D01*
G01*
X0048289Y0113386D02*
G03*
X0045139Y0110236I-0000004J-0003145D01*
G01*
X0037265Y0096063D02*
G03*
X0025695Y0087724I-0008790J0000000D01*
G01*
X0048289Y0113386D02*
G03*
X0045139Y0110236I-0000004J-0003145D01*
G01*
X0027942Y0082173D02*
G03*
X0025695Y0087724I-0003493J0001817D01*
G01*
X0027942Y0082173D02*
G03*
X0025695Y0087724I-0003493J0001817D01*
G01*
X0088054Y0050882D02*
G03*
X0088054Y0082189I-0030052J0015654D01*
G01*
X0088054Y0050882D02*
G03*
X0090302Y0045327I0003492J-0001819D01*
G01*
X0088054Y0050882D02*
G03*
X0090302Y0045327I0003492J-0001819D01*
G01*
X0088054Y0050882D02*
G03*
X0088054Y0082189I-0030052J0015654D01*
G01*
X0078761Y0038780D02*
G03*
X0070887Y0038780I-0003937J0000000D01*
G01*
X0078761D02*
G03*
X0070887Y0038780I-0003937J0000000D01*
G01*
X0078761Y0037008D02*
G03*
X0090302Y0045327I0008769J0000000D01*
G01*
X0078761Y0037008D02*
G03*
X0090302Y0045327I0008769J0000000D01*
G01*
X0067737Y0019685D02*
G03*
X0070887Y0022835I0000004J0003145D01*
G01*
X0067737Y0019685D02*
G03*
X0070887Y0022835I0000004J0003145D01*
G01*
X0045139D02*
G03*
X0048289Y0019685I0003145J-0000004D01*
G01*
X0045139Y0038780D02*
G03*
X0037265Y0038780I-0003937J0000000D01*
G01*
X0025695Y0045347D02*
G03*
X0027942Y0050898I-0001245J0003735D01*
G01*
X0025695Y0045347D02*
G03*
X0027942Y0050898I-0001245J0003735D01*
G01*
X0027942Y0082173D02*
G03*
X0027942Y0050898I0030060J-0015637D01*
G01*
X0045139Y0038780D02*
G03*
X0037265Y0038780I-0003937J0000000D01*
G01*
X0027942Y0082173D02*
G03*
X0027942Y0050898I0030060J-0015637D01*
G01*
X0045139Y0022835D02*
G03*
X0048289Y0019685I0003145J-0000004D01*
G01*
X0025695Y0045347D02*
G03*
X0037265Y0037008I0002780J-0008339D01*
G01*
X0025695Y0045347D02*
G03*
X0037265Y0037008I0002780J-0008339D01*
G01*
X0048289Y0113386D02*
X0067737D01*
X0070887Y0094291D02*
Y0110236D01*
X0070887Y0094291D02*
Y0110236D01*
X0048289Y0113386D02*
X0067737D01*
X0078761Y0094291D02*
Y0096063D01*
X0078761Y0094291D02*
Y0096063D01*
X0045139Y0094291D02*
Y0110236D01*
X0037265Y0094291D02*
Y0096063D01*
X0037265Y0094291D02*
Y0096063D01*
X0045139Y0094291D02*
Y0110236D01*
X0078761Y0037008D02*
Y0038780D01*
X0070887Y0022835D02*
Y0038780D01*
X0048289Y0019685D02*
X0067737D01*
X0078761Y0037008D02*
Y0038780D01*
X0048289Y0019685D02*
X0067737D01*
X0070887Y0022835D02*
Y0038780D01*
X0037265Y0037008D02*
Y0038780D01*
X0037265Y0037008D02*
Y0038780D01*
X0045139Y0022835D02*
Y0038780D01*
X0045139Y0022835D02*
Y0038780D01*
X0167186Y0110236D02*
G03*
X0164037Y0113386I-0003145J0000004D01*
G01*
X0167186Y0110236D02*
G03*
X0164037Y0113386I-0003145J0000004D01*
G01*
X0186601Y0087743D02*
G03*
X0175060Y0096063I-0002771J0008320D01*
G01*
X0186601Y0087743D02*
G03*
X0175060Y0096063I-0002771J0008320D01*
G01*
X0167186Y0094291D02*
G03*
X0175060Y0094291I0003937J0000000D01*
G01*
X0167186D02*
G03*
X0175060Y0094291I0003937J0000000D01*
G01*
X0186601Y0087743D02*
G03*
X0184353Y0082189I0001244J-0003735D01*
G01*
X0186601Y0087743D02*
G03*
X0184353Y0082189I0001244J-0003735D01*
G01*
X0133564Y0094291D02*
G03*
X0141438Y0094291I0003937J0000000D01*
G01*
X0133564D02*
G03*
X0141438Y0094291I0003937J0000000D01*
G01*
X0133564Y0096063D02*
G03*
X0121994Y0087724I-0008790J0000000D01*
G01*
X0144588Y0113386D02*
G03*
X0141438Y0110236I-0000004J-0003145D01*
G01*
X0133564Y0096063D02*
G03*
X0121994Y0087724I-0008790J0000000D01*
G01*
X0144588Y0113386D02*
G03*
X0141438Y0110236I-0000004J-0003145D01*
G01*
X0124241Y0082173D02*
G03*
X0121994Y0087724I-0003493J0001817D01*
G01*
X0124241Y0082173D02*
G03*
X0121994Y0087724I-0003493J0001817D01*
G01*
X0184353Y0050882D02*
G03*
X0184353Y0082189I-0030052J0015654D01*
G01*
X0184353Y0050882D02*
G03*
X0186601Y0045327I0003492J-0001819D01*
G01*
X0184353Y0050882D02*
G03*
X0186601Y0045327I0003492J-0001819D01*
G01*
X0184353Y0050882D02*
G03*
X0184353Y0082189I-0030052J0015654D01*
G01*
X0175060Y0038780D02*
G03*
X0167186Y0038780I-0003937J0000000D01*
G01*
X0175060D02*
G03*
X0167186Y0038780I-0003937J0000000D01*
G01*
X0175060Y0037008D02*
G03*
X0186601Y0045327I0008769J0000000D01*
G01*
X0175060Y0037008D02*
G03*
X0186601Y0045327I0008769J0000000D01*
G01*
X0164037Y0019685D02*
G03*
X0167186Y0022835I0000004J0003145D01*
G01*
X0164037Y0019685D02*
G03*
X0167186Y0022835I0000004J0003145D01*
G01*
X0141438D02*
G03*
X0144588Y0019685I0003145J-0000004D01*
G01*
X0141438Y0038780D02*
G03*
X0133564Y0038780I-0003937J0000000D01*
G01*
X0121994Y0045347D02*
G03*
X0124241Y0050898I-0001245J0003735D01*
G01*
X0121994Y0045347D02*
G03*
X0124241Y0050898I-0001245J0003735D01*
G01*
X0124241Y0082173D02*
G03*
X0124241Y0050898I0030060J-0015637D01*
G01*
X0141438Y0038780D02*
G03*
X0133564Y0038780I-0003937J0000000D01*
G01*
X0124241Y0082173D02*
G03*
X0124241Y0050898I0030060J-0015637D01*
G01*
X0141438Y0022835D02*
G03*
X0144588Y0019685I0003145J-0000004D01*
G01*
X0121994Y0045347D02*
G03*
X0133564Y0037008I0002780J-0008339D01*
G01*
X0121994Y0045347D02*
G03*
X0133564Y0037008I0002780J-0008339D01*
G01*
X0144588Y0113386D02*
X0164037D01*
X0167186Y0094291D02*
Y0110236D01*
X0167186Y0094291D02*
Y0110236D01*
X0144588Y0113386D02*
X0164037D01*
X0175060Y0094291D02*
Y0096063D01*
X0175060Y0094291D02*
Y0096063D01*
X0141438Y0094291D02*
Y0110236D01*
X0133564Y0094291D02*
Y0096063D01*
X0133564Y0094291D02*
Y0096063D01*
X0141438Y0094291D02*
Y0110236D01*
X0175060Y0037008D02*
Y0038780D01*
X0167186Y0022835D02*
Y0038780D01*
X0144588Y0019685D02*
X0164037D01*
X0175060Y0037008D02*
Y0038780D01*
X0144588Y0019685D02*
X0164037D01*
X0167186Y0022835D02*
Y0038780D01*
X0133564Y0037008D02*
Y0038780D01*
X0133564Y0037008D02*
Y0038780D01*
X0141438Y0022835D02*
Y0038780D01*
X0141438Y0022835D02*
Y0038780D01*
X0263485Y0110236D02*
G03*
X0260336Y0113386I-0003145J0000004D01*
G01*
X0263485Y0110236D02*
G03*
X0260336Y0113386I-0003145J0000004D01*
G01*
X0282900Y0087743D02*
G03*
X0271359Y0096063I-0002771J0008320D01*
G01*
X0282900Y0087743D02*
G03*
X0271359Y0096063I-0002771J0008320D01*
G01*
X0263485Y0094291D02*
G03*
X0271359Y0094291I0003937J0000000D01*
G01*
X0263485D02*
G03*
X0271359Y0094291I0003937J0000000D01*
G01*
X0282900Y0087743D02*
G03*
X0280653Y0082189I0001244J-0003735D01*
G01*
X0282900Y0087743D02*
G03*
X0280653Y0082189I0001244J-0003735D01*
G01*
X0229863Y0094291D02*
G03*
X0237737Y0094291I0003937J0000000D01*
G01*
X0229863D02*
G03*
X0237737Y0094291I0003937J0000000D01*
G01*
X0229863Y0096063D02*
G03*
X0218293Y0087724I-0008790J0000000D01*
G01*
X0240887Y0113386D02*
G03*
X0237737Y0110236I-0000004J-0003145D01*
G01*
X0229863Y0096063D02*
G03*
X0218293Y0087724I-0008790J0000000D01*
G01*
X0240887Y0113386D02*
G03*
X0237737Y0110236I-0000004J-0003145D01*
G01*
X0220541Y0082173D02*
G03*
X0218293Y0087724I-0003493J0001817D01*
G01*
X0220541Y0082173D02*
G03*
X0218293Y0087724I-0003493J0001817D01*
G01*
X0280653Y0050882D02*
G03*
X0280653Y0082189I-0030052J0015654D01*
G01*
X0280653Y0050882D02*
G03*
X0282900Y0045327I0003492J-0001819D01*
G01*
X0280653Y0050882D02*
G03*
X0282900Y0045327I0003492J-0001819D01*
G01*
X0280653Y0050882D02*
G03*
X0280653Y0082189I-0030052J0015654D01*
G01*
X0271359Y0038780D02*
G03*
X0263485Y0038780I-0003937J0000000D01*
G01*
X0271359D02*
G03*
X0263485Y0038780I-0003937J0000000D01*
G01*
X0271359Y0037008D02*
G03*
X0282900Y0045327I0008769J0000000D01*
G01*
X0271359Y0037008D02*
G03*
X0282900Y0045327I0008769J0000000D01*
G01*
X0260336Y0019685D02*
G03*
X0263485Y0022835I0000004J0003145D01*
G01*
X0260336Y0019685D02*
G03*
X0263485Y0022835I0000004J0003145D01*
G01*
X0237737D02*
G03*
X0240887Y0019685I0003145J-0000004D01*
G01*
X0237737Y0038780D02*
G03*
X0229863Y0038780I-0003937J0000000D01*
G01*
X0218293Y0045347D02*
G03*
X0220541Y0050898I-0001245J0003735D01*
G01*
X0218293Y0045347D02*
G03*
X0220541Y0050898I-0001245J0003735D01*
G01*
X0220541Y0082173D02*
G03*
X0220541Y0050898I0030060J-0015637D01*
G01*
X0237737Y0038780D02*
G03*
X0229863Y0038780I-0003937J0000000D01*
G01*
X0220541Y0082173D02*
G03*
X0220541Y0050898I0030060J-0015637D01*
G01*
X0237737Y0022835D02*
G03*
X0240887Y0019685I0003145J-0000004D01*
G01*
X0218293Y0045347D02*
G03*
X0229863Y0037008I0002780J-0008339D01*
G01*
X0218293Y0045347D02*
G03*
X0229863Y0037008I0002780J-0008339D01*
G01*
X0240887Y0113386D02*
X0260336D01*
X0263485Y0094291D02*
Y0110236D01*
X0263485Y0094291D02*
Y0110236D01*
X0240887Y0113386D02*
X0260336D01*
X0271359Y0094291D02*
Y0096063D01*
X0271359Y0094291D02*
Y0096063D01*
X0237737Y0094291D02*
Y0110236D01*
X0229863Y0094291D02*
Y0096063D01*
X0229863Y0094291D02*
Y0096063D01*
X0237737Y0094291D02*
Y0110236D01*
X0271359Y0037008D02*
Y0038780D01*
X0263485Y0022835D02*
Y0038780D01*
X0240887Y0019685D02*
X0260336D01*
X0271359Y0037008D02*
Y0038780D01*
X0240887Y0019685D02*
X0260336D01*
X0263485Y0022835D02*
Y0038780D01*
X0229863Y0037008D02*
Y0038780D01*
X0229863Y0037008D02*
Y0038780D01*
X0237737Y0022835D02*
Y0038780D01*
X0237737Y0022835D02*
Y0038780D01*
X0359785Y0110236D02*
G03*
X0356635Y0113386I-0003145J0000004D01*
G01*
X0359785Y0110236D02*
G03*
X0356635Y0113386I-0003145J0000004D01*
G01*
X0379199Y0087743D02*
G03*
X0367659Y0096063I-0002771J0008320D01*
G01*
X0379199Y0087743D02*
G03*
X0367659Y0096063I-0002771J0008320D01*
G01*
X0359785Y0094291D02*
G03*
X0367659Y0094291I0003937J0000000D01*
G01*
X0359785D02*
G03*
X0367659Y0094291I0003937J0000000D01*
G01*
X0379199Y0087743D02*
G03*
X0376952Y0082189I0001244J-0003735D01*
G01*
X0379199Y0087743D02*
G03*
X0376952Y0082189I0001244J-0003735D01*
G01*
X0326163Y0094291D02*
G03*
X0334037Y0094291I0003937J0000000D01*
G01*
X0326163D02*
G03*
X0334037Y0094291I0003937J0000000D01*
G01*
X0326163Y0096063D02*
G03*
X0314592Y0087724I-0008790J0000000D01*
G01*
X0337186Y0113386D02*
G03*
X0334037Y0110236I-0000004J-0003145D01*
G01*
X0326163Y0096063D02*
G03*
X0314592Y0087724I-0008790J0000000D01*
G01*
X0337186Y0113386D02*
G03*
X0334037Y0110236I-0000004J-0003145D01*
G01*
X0316840Y0082173D02*
G03*
X0314592Y0087724I-0003493J0001817D01*
G01*
X0316840Y0082173D02*
G03*
X0314592Y0087724I-0003493J0001817D01*
G01*
X0376952Y0050882D02*
G03*
X0376952Y0082189I-0030052J0015654D01*
G01*
X0376952Y0050882D02*
G03*
X0379199Y0045327I0003492J-0001819D01*
G01*
X0376952Y0050882D02*
G03*
X0379199Y0045327I0003492J-0001819D01*
G01*
X0376952Y0050882D02*
G03*
X0376952Y0082189I-0030052J0015654D01*
G01*
X0367659Y0038780D02*
G03*
X0359785Y0038780I-0003937J0000000D01*
G01*
X0367659D02*
G03*
X0359785Y0038780I-0003937J0000000D01*
G01*
X0367659Y0037008D02*
G03*
X0379199Y0045327I0008769J0000000D01*
G01*
X0367659Y0037008D02*
G03*
X0379199Y0045327I0008769J0000000D01*
G01*
X0356635Y0019685D02*
G03*
X0359785Y0022835I0000004J0003145D01*
G01*
X0356635Y0019685D02*
G03*
X0359785Y0022835I0000004J0003145D01*
G01*
X0334037D02*
G03*
X0337186Y0019685I0003145J-0000004D01*
G01*
X0334037Y0038780D02*
G03*
X0326163Y0038780I-0003937J0000000D01*
G01*
X0314592Y0045347D02*
G03*
X0316840Y0050898I-0001245J0003735D01*
G01*
X0314592Y0045347D02*
G03*
X0316840Y0050898I-0001245J0003735D01*
G01*
X0316840Y0082173D02*
G03*
X0316840Y0050898I0030060J-0015637D01*
G01*
X0334037Y0038780D02*
G03*
X0326163Y0038780I-0003937J0000000D01*
G01*
X0316840Y0082173D02*
G03*
X0316840Y0050898I0030060J-0015637D01*
G01*
X0334037Y0022835D02*
G03*
X0337186Y0019685I0003145J-0000004D01*
G01*
X0314592Y0045347D02*
G03*
X0326163Y0037008I0002780J-0008339D01*
G01*
X0314592Y0045347D02*
G03*
X0326163Y0037008I0002780J-0008339D01*
G01*
X0337186Y0113386D02*
X0356635D01*
X0359785Y0094291D02*
Y0110236D01*
X0359785Y0094291D02*
Y0110236D01*
X0337186Y0113386D02*
X0356635D01*
X0367659Y0094291D02*
Y0096063D01*
X0367659Y0094291D02*
Y0096063D01*
X0334037Y0094291D02*
Y0110236D01*
X0326163Y0094291D02*
Y0096063D01*
X0326163Y0094291D02*
Y0096063D01*
X0334037Y0094291D02*
Y0110236D01*
X0367659Y0037008D02*
Y0038780D01*
X0359785Y0022835D02*
Y0038780D01*
X0337186Y0019685D02*
X0356635D01*
X0367659Y0037008D02*
Y0038780D01*
X0337186Y0019685D02*
X0356635D01*
X0359785Y0022835D02*
Y0038780D01*
X0326163Y0037008D02*
Y0038780D01*
X0326163Y0037008D02*
Y0038780D01*
X0334037Y0022835D02*
Y0038780D01*
X0334037Y0022835D02*
Y0038780D01*
X0456084Y0110236D02*
G03*
X0452934Y0113386I-0003145J0000004D01*
G01*
X0456084Y0110236D02*
G03*
X0452934Y0113386I-0003145J0000004D01*
G01*
X0475498Y0087743D02*
G03*
X0463958Y0096063I-0002771J0008320D01*
G01*
X0475498Y0087743D02*
G03*
X0463958Y0096063I-0002771J0008320D01*
G01*
X0456084Y0094291D02*
G03*
X0463958Y0094291I0003937J0000000D01*
G01*
X0456084D02*
G03*
X0463958Y0094291I0003937J0000000D01*
G01*
X0475498Y0087743D02*
G03*
X0473251Y0082189I0001244J-0003735D01*
G01*
X0475498Y0087743D02*
G03*
X0473251Y0082189I0001244J-0003735D01*
G01*
X0422462Y0094291D02*
G03*
X0430336Y0094291I0003937J0000000D01*
G01*
X0422462D02*
G03*
X0430336Y0094291I0003937J0000000D01*
G01*
X0422462Y0096063D02*
G03*
X0410892Y0087724I-0008790J0000000D01*
G01*
X0433485Y0113386D02*
G03*
X0430336Y0110236I-0000004J-0003145D01*
G01*
X0422462Y0096063D02*
G03*
X0410892Y0087724I-0008790J0000000D01*
G01*
X0433485Y0113386D02*
G03*
X0430336Y0110236I-0000004J-0003145D01*
G01*
X0413139Y0082173D02*
G03*
X0410892Y0087724I-0003493J0001817D01*
G01*
X0413139Y0082173D02*
G03*
X0410892Y0087724I-0003493J0001817D01*
G01*
X0473251Y0050882D02*
G03*
X0473251Y0082189I-0030052J0015654D01*
G01*
X0473251Y0050882D02*
G03*
X0475498Y0045327I0003492J-0001819D01*
G01*
X0473251Y0050882D02*
G03*
X0475498Y0045327I0003492J-0001819D01*
G01*
X0473251Y0050882D02*
G03*
X0473251Y0082189I-0030052J0015654D01*
G01*
X0463958Y0038780D02*
G03*
X0456084Y0038780I-0003937J0000000D01*
G01*
X0463958D02*
G03*
X0456084Y0038780I-0003937J0000000D01*
G01*
X0463958Y0037008D02*
G03*
X0475498Y0045327I0008769J0000000D01*
G01*
X0463958Y0037008D02*
G03*
X0475498Y0045327I0008769J0000000D01*
G01*
X0452934Y0019685D02*
G03*
X0456084Y0022835I0000004J0003145D01*
G01*
X0452934Y0019685D02*
G03*
X0456084Y0022835I0000004J0003145D01*
G01*
X0430336D02*
G03*
X0433485Y0019685I0003145J-0000004D01*
G01*
X0430336Y0038780D02*
G03*
X0422462Y0038780I-0003937J0000000D01*
G01*
X0410892Y0045347D02*
G03*
X0413139Y0050898I-0001245J0003735D01*
G01*
X0410892Y0045347D02*
G03*
X0413139Y0050898I-0001245J0003735D01*
G01*
X0413139Y0082173D02*
G03*
X0413139Y0050898I0030060J-0015637D01*
G01*
X0430336Y0038780D02*
G03*
X0422462Y0038780I-0003937J0000000D01*
G01*
X0413139Y0082173D02*
G03*
X0413139Y0050898I0030060J-0015637D01*
G01*
X0430336Y0022835D02*
G03*
X0433485Y0019685I0003145J-0000004D01*
G01*
X0410892Y0045347D02*
G03*
X0422462Y0037008I0002780J-0008339D01*
G01*
X0410892Y0045347D02*
G03*
X0422462Y0037008I0002780J-0008339D01*
G01*
X0433485Y0113386D02*
X0452934D01*
X0456084Y0094291D02*
Y0110236D01*
X0456084Y0094291D02*
Y0110236D01*
X0433485Y0113386D02*
X0452934D01*
X0463958Y0094291D02*
Y0096063D01*
X0463958Y0094291D02*
Y0096063D01*
X0430336Y0094291D02*
Y0110236D01*
X0422462Y0094291D02*
Y0096063D01*
X0422462Y0094291D02*
Y0096063D01*
X0430336Y0094291D02*
Y0110236D01*
X0463958Y0037008D02*
Y0038780D01*
X0456084Y0022835D02*
Y0038780D01*
X0433485Y0019685D02*
X0452934D01*
X0463958Y0037008D02*
Y0038780D01*
X0433485Y0019685D02*
X0452934D01*
X0456084Y0022835D02*
Y0038780D01*
X0422462Y0037008D02*
Y0038780D01*
X0422462Y0037008D02*
Y0038780D01*
X0430336Y0022835D02*
Y0038780D01*
X0430336Y0022835D02*
Y0038780D01*
X0070887Y0243307D02*
G03*
X0067737Y0246457I-0003145J0000004D01*
G01*
X0070887Y0243307D02*
G03*
X0067737Y0246457I-0003145J0000004D01*
G01*
X0090302Y0220814D02*
G03*
X0078761Y0229134I-0002771J0008320D01*
G01*
X0090302Y0220814D02*
G03*
X0078761Y0229134I-0002771J0008320D01*
G01*
X0070887Y0227362D02*
G03*
X0078761Y0227362I0003937J0000000D01*
G01*
X0070887D02*
G03*
X0078761Y0227362I0003937J0000000D01*
G01*
X0090302Y0220814D02*
G03*
X0088054Y0215260I0001244J-0003735D01*
G01*
X0090302Y0220814D02*
G03*
X0088054Y0215260I0001244J-0003735D01*
G01*
X0037265Y0227362D02*
G03*
X0045139Y0227362I0003937J0000000D01*
G01*
X0037265D02*
G03*
X0045139Y0227362I0003937J0000000D01*
G01*
X0037265Y0229134D02*
G03*
X0025695Y0220795I-0008790J0000000D01*
G01*
X0048289Y0246457D02*
G03*
X0045139Y0243307I-0000004J-0003145D01*
G01*
X0037265Y0229134D02*
G03*
X0025695Y0220795I-0008790J0000000D01*
G01*
X0048289Y0246457D02*
G03*
X0045139Y0243307I-0000004J-0003145D01*
G01*
X0027942Y0215243D02*
G03*
X0025695Y0220795I-0003493J0001817D01*
G01*
X0027942Y0215243D02*
G03*
X0025695Y0220795I-0003493J0001817D01*
G01*
X0088054Y0183952D02*
G03*
X0088054Y0215260I-0030052J0015654D01*
G01*
X0088054Y0183952D02*
G03*
X0090302Y0178398I0003492J-0001819D01*
G01*
X0088054Y0183952D02*
G03*
X0090302Y0178398I0003492J-0001819D01*
G01*
X0088054Y0183952D02*
G03*
X0088054Y0215260I-0030052J0015654D01*
G01*
X0078761Y0171850D02*
G03*
X0070887Y0171850I-0003937J0000000D01*
G01*
X0078761D02*
G03*
X0070887Y0171850I-0003937J0000000D01*
G01*
X0078761Y0170079D02*
G03*
X0090302Y0178398I0008769J0000000D01*
G01*
X0078761Y0170079D02*
G03*
X0090302Y0178398I0008769J0000000D01*
G01*
X0067737Y0152756D02*
G03*
X0070887Y0155905I0000004J0003145D01*
G01*
X0067737Y0152756D02*
G03*
X0070887Y0155905I0000004J0003145D01*
G01*
X0045139D02*
G03*
X0048289Y0152756I0003145J-0000004D01*
G01*
X0045139Y0171850D02*
G03*
X0037265Y0171850I-0003937J0000000D01*
G01*
X0025695Y0178417D02*
G03*
X0027942Y0183969I-0001245J0003735D01*
G01*
X0025695Y0178417D02*
G03*
X0027942Y0183969I-0001245J0003735D01*
G01*
X0027942Y0215243D02*
G03*
X0027942Y0183969I0030060J-0015637D01*
G01*
X0045139Y0171850D02*
G03*
X0037265Y0171850I-0003937J0000000D01*
G01*
X0027942Y0215243D02*
G03*
X0027942Y0183969I0030060J-0015637D01*
G01*
X0045139Y0155905D02*
G03*
X0048289Y0152756I0003145J-0000004D01*
G01*
X0025695Y0178417D02*
G03*
X0037265Y0170079I0002780J-0008339D01*
G01*
X0025695Y0178417D02*
G03*
X0037265Y0170079I0002780J-0008339D01*
G01*
X0048289Y0246457D02*
X0067737D01*
X0070887Y0227362D02*
Y0243307D01*
X0070887Y0227362D02*
Y0243307D01*
X0048289Y0246457D02*
X0067737D01*
X0078761Y0227362D02*
Y0229134D01*
X0078761Y0227362D02*
Y0229134D01*
X0045139Y0227362D02*
Y0243307D01*
X0037265Y0227362D02*
Y0229134D01*
X0037265Y0227362D02*
Y0229134D01*
X0045139Y0227362D02*
Y0243307D01*
X0078761Y0170079D02*
Y0171850D01*
X0070887Y0155905D02*
Y0171850D01*
X0048289Y0152756D02*
X0067737D01*
X0078761Y0170079D02*
Y0171850D01*
X0048289Y0152756D02*
X0067737D01*
X0070887Y0155905D02*
Y0171850D01*
X0037265Y0170079D02*
Y0171850D01*
X0037265Y0170079D02*
Y0171850D01*
X0045139Y0155905D02*
Y0171850D01*
X0045139Y0155905D02*
Y0171850D01*
X0167186Y0243307D02*
G03*
X0164037Y0246457I-0003145J0000004D01*
G01*
X0167186Y0243307D02*
G03*
X0164037Y0246457I-0003145J0000004D01*
G01*
X0186601Y0220814D02*
G03*
X0175060Y0229134I-0002771J0008320D01*
G01*
X0186601Y0220814D02*
G03*
X0175060Y0229134I-0002771J0008320D01*
G01*
X0167186Y0227362D02*
G03*
X0175060Y0227362I0003937J0000000D01*
G01*
X0167186D02*
G03*
X0175060Y0227362I0003937J0000000D01*
G01*
X0186601Y0220814D02*
G03*
X0184353Y0215260I0001244J-0003735D01*
G01*
X0186601Y0220814D02*
G03*
X0184353Y0215260I0001244J-0003735D01*
G01*
X0133564Y0227362D02*
G03*
X0141438Y0227362I0003937J0000000D01*
G01*
X0133564D02*
G03*
X0141438Y0227362I0003937J0000000D01*
G01*
X0133564Y0229134D02*
G03*
X0121994Y0220795I-0008790J0000000D01*
G01*
X0144588Y0246457D02*
G03*
X0141438Y0243307I-0000004J-0003145D01*
G01*
X0133564Y0229134D02*
G03*
X0121994Y0220795I-0008790J0000000D01*
G01*
X0144588Y0246457D02*
G03*
X0141438Y0243307I-0000004J-0003145D01*
G01*
X0124241Y0215243D02*
G03*
X0121994Y0220795I-0003493J0001817D01*
G01*
X0124241Y0215243D02*
G03*
X0121994Y0220795I-0003493J0001817D01*
G01*
X0184353Y0183952D02*
G03*
X0184353Y0215260I-0030052J0015654D01*
G01*
X0184353Y0183952D02*
G03*
X0186601Y0178398I0003492J-0001819D01*
G01*
X0184353Y0183952D02*
G03*
X0186601Y0178398I0003492J-0001819D01*
G01*
X0184353Y0183952D02*
G03*
X0184353Y0215260I-0030052J0015654D01*
G01*
X0175060Y0171850D02*
G03*
X0167186Y0171850I-0003937J0000000D01*
G01*
X0175060D02*
G03*
X0167186Y0171850I-0003937J0000000D01*
G01*
X0175060Y0170079D02*
G03*
X0186601Y0178398I0008769J0000000D01*
G01*
X0175060Y0170079D02*
G03*
X0186601Y0178398I0008769J0000000D01*
G01*
X0164037Y0152756D02*
G03*
X0167186Y0155905I0000004J0003145D01*
G01*
X0164037Y0152756D02*
G03*
X0167186Y0155905I0000004J0003145D01*
G01*
X0141438D02*
G03*
X0144588Y0152756I0003145J-0000004D01*
G01*
X0141438Y0171850D02*
G03*
X0133564Y0171850I-0003937J0000000D01*
G01*
X0121994Y0178417D02*
G03*
X0124241Y0183969I-0001245J0003735D01*
G01*
X0121994Y0178417D02*
G03*
X0124241Y0183969I-0001245J0003735D01*
G01*
X0124241Y0215243D02*
G03*
X0124241Y0183969I0030060J-0015637D01*
G01*
X0141438Y0171850D02*
G03*
X0133564Y0171850I-0003937J0000000D01*
G01*
X0124241Y0215243D02*
G03*
X0124241Y0183969I0030060J-0015637D01*
G01*
X0141438Y0155905D02*
G03*
X0144588Y0152756I0003145J-0000004D01*
G01*
X0121994Y0178417D02*
G03*
X0133564Y0170079I0002780J-0008339D01*
G01*
X0121994Y0178417D02*
G03*
X0133564Y0170079I0002780J-0008339D01*
G01*
X0144588Y0246457D02*
X0164037D01*
X0167186Y0227362D02*
Y0243307D01*
X0167186Y0227362D02*
Y0243307D01*
X0144588Y0246457D02*
X0164037D01*
X0175060Y0227362D02*
Y0229134D01*
X0175060Y0227362D02*
Y0229134D01*
X0141438Y0227362D02*
Y0243307D01*
X0133564Y0227362D02*
Y0229134D01*
X0133564Y0227362D02*
Y0229134D01*
X0141438Y0227362D02*
Y0243307D01*
X0175060Y0170079D02*
Y0171850D01*
X0167186Y0155905D02*
Y0171850D01*
X0144588Y0152756D02*
X0164037D01*
X0175060Y0170079D02*
Y0171850D01*
X0144588Y0152756D02*
X0164037D01*
X0167186Y0155905D02*
Y0171850D01*
X0133564Y0170079D02*
Y0171850D01*
X0133564Y0170079D02*
Y0171850D01*
X0141438Y0155905D02*
Y0171850D01*
X0141438Y0155905D02*
Y0171850D01*
X0263485Y0243307D02*
G03*
X0260336Y0246457I-0003145J0000004D01*
G01*
X0263485Y0243307D02*
G03*
X0260336Y0246457I-0003145J0000004D01*
G01*
X0282900Y0220814D02*
G03*
X0271359Y0229134I-0002771J0008320D01*
G01*
X0282900Y0220814D02*
G03*
X0271359Y0229134I-0002771J0008320D01*
G01*
X0263485Y0227362D02*
G03*
X0271359Y0227362I0003937J0000000D01*
G01*
X0263485D02*
G03*
X0271359Y0227362I0003937J0000000D01*
G01*
X0282900Y0220814D02*
G03*
X0280653Y0215260I0001244J-0003735D01*
G01*
X0282900Y0220814D02*
G03*
X0280653Y0215260I0001244J-0003735D01*
G01*
X0229863Y0227362D02*
G03*
X0237737Y0227362I0003937J0000000D01*
G01*
X0229863D02*
G03*
X0237737Y0227362I0003937J0000000D01*
G01*
X0229863Y0229134D02*
G03*
X0218293Y0220795I-0008790J0000000D01*
G01*
X0240887Y0246457D02*
G03*
X0237737Y0243307I-0000004J-0003145D01*
G01*
X0229863Y0229134D02*
G03*
X0218293Y0220795I-0008790J0000000D01*
G01*
X0240887Y0246457D02*
G03*
X0237737Y0243307I-0000004J-0003145D01*
G01*
X0220541Y0215243D02*
G03*
X0218293Y0220795I-0003493J0001817D01*
G01*
X0220541Y0215243D02*
G03*
X0218293Y0220795I-0003493J0001817D01*
G01*
X0280653Y0183952D02*
G03*
X0280653Y0215260I-0030052J0015654D01*
G01*
X0280653Y0183952D02*
G03*
X0282900Y0178398I0003492J-0001819D01*
G01*
X0280653Y0183952D02*
G03*
X0282900Y0178398I0003492J-0001819D01*
G01*
X0280653Y0183952D02*
G03*
X0280653Y0215260I-0030052J0015654D01*
G01*
X0271359Y0171850D02*
G03*
X0263485Y0171850I-0003937J0000000D01*
G01*
X0271359D02*
G03*
X0263485Y0171850I-0003937J0000000D01*
G01*
X0271359Y0170079D02*
G03*
X0282900Y0178398I0008769J0000000D01*
G01*
X0271359Y0170079D02*
G03*
X0282900Y0178398I0008769J0000000D01*
G01*
X0260336Y0152756D02*
G03*
X0263485Y0155905I0000004J0003145D01*
G01*
X0260336Y0152756D02*
G03*
X0263485Y0155905I0000004J0003145D01*
G01*
X0237737D02*
G03*
X0240887Y0152756I0003145J-0000004D01*
G01*
X0237737Y0171850D02*
G03*
X0229863Y0171850I-0003937J0000000D01*
G01*
X0218293Y0178417D02*
G03*
X0220541Y0183969I-0001245J0003735D01*
G01*
X0218293Y0178417D02*
G03*
X0220541Y0183969I-0001245J0003735D01*
G01*
X0220541Y0215243D02*
G03*
X0220541Y0183969I0030060J-0015637D01*
G01*
X0237737Y0171850D02*
G03*
X0229863Y0171850I-0003937J0000000D01*
G01*
X0220541Y0215243D02*
G03*
X0220541Y0183969I0030060J-0015637D01*
G01*
X0237737Y0155905D02*
G03*
X0240887Y0152756I0003145J-0000004D01*
G01*
X0218293Y0178417D02*
G03*
X0229863Y0170079I0002780J-0008339D01*
G01*
X0218293Y0178417D02*
G03*
X0229863Y0170079I0002780J-0008339D01*
G01*
X0240887Y0246457D02*
X0260336D01*
X0263485Y0227362D02*
Y0243307D01*
X0263485Y0227362D02*
Y0243307D01*
X0240887Y0246457D02*
X0260336D01*
X0271359Y0227362D02*
Y0229134D01*
X0271359Y0227362D02*
Y0229134D01*
X0237737Y0227362D02*
Y0243307D01*
X0229863Y0227362D02*
Y0229134D01*
X0229863Y0227362D02*
Y0229134D01*
X0237737Y0227362D02*
Y0243307D01*
X0271359Y0170079D02*
Y0171850D01*
X0263485Y0155905D02*
Y0171850D01*
X0240887Y0152756D02*
X0260336D01*
X0271359Y0170079D02*
Y0171850D01*
X0240887Y0152756D02*
X0260336D01*
X0263485Y0155905D02*
Y0171850D01*
X0229863Y0170079D02*
Y0171850D01*
X0229863Y0170079D02*
Y0171850D01*
X0237737Y0155905D02*
Y0171850D01*
X0237737Y0155905D02*
Y0171850D01*
X0359785Y0243307D02*
G03*
X0356635Y0246457I-0003145J0000004D01*
G01*
X0359785Y0243307D02*
G03*
X0356635Y0246457I-0003145J0000004D01*
G01*
X0379199Y0220814D02*
G03*
X0367659Y0229134I-0002771J0008320D01*
G01*
X0379199Y0220814D02*
G03*
X0367659Y0229134I-0002771J0008320D01*
G01*
X0359785Y0227362D02*
G03*
X0367659Y0227362I0003937J0000000D01*
G01*
X0359785D02*
G03*
X0367659Y0227362I0003937J0000000D01*
G01*
X0379199Y0220814D02*
G03*
X0376952Y0215260I0001244J-0003735D01*
G01*
X0379199Y0220814D02*
G03*
X0376952Y0215260I0001244J-0003735D01*
G01*
X0326163Y0227362D02*
G03*
X0334037Y0227362I0003937J0000000D01*
G01*
X0326163D02*
G03*
X0334037Y0227362I0003937J0000000D01*
G01*
X0326163Y0229134D02*
G03*
X0314592Y0220795I-0008790J0000000D01*
G01*
X0337186Y0246457D02*
G03*
X0334037Y0243307I-0000004J-0003145D01*
G01*
X0326163Y0229134D02*
G03*
X0314592Y0220795I-0008790J0000000D01*
G01*
X0337186Y0246457D02*
G03*
X0334037Y0243307I-0000004J-0003145D01*
G01*
X0316840Y0215243D02*
G03*
X0314592Y0220795I-0003493J0001817D01*
G01*
X0316840Y0215243D02*
G03*
X0314592Y0220795I-0003493J0001817D01*
G01*
X0376952Y0183952D02*
G03*
X0376952Y0215260I-0030052J0015654D01*
G01*
X0376952Y0183952D02*
G03*
X0379199Y0178398I0003492J-0001819D01*
G01*
X0376952Y0183952D02*
G03*
X0379199Y0178398I0003492J-0001819D01*
G01*
X0376952Y0183952D02*
G03*
X0376952Y0215260I-0030052J0015654D01*
G01*
X0367659Y0171850D02*
G03*
X0359785Y0171850I-0003937J0000000D01*
G01*
X0367659D02*
G03*
X0359785Y0171850I-0003937J0000000D01*
G01*
X0367659Y0170079D02*
G03*
X0379199Y0178398I0008769J0000000D01*
G01*
X0367659Y0170079D02*
G03*
X0379199Y0178398I0008769J0000000D01*
G01*
X0356635Y0152756D02*
G03*
X0359785Y0155905I0000004J0003145D01*
G01*
X0356635Y0152756D02*
G03*
X0359785Y0155905I0000004J0003145D01*
G01*
X0334037D02*
G03*
X0337186Y0152756I0003145J-0000004D01*
G01*
X0334037Y0171850D02*
G03*
X0326163Y0171850I-0003937J0000000D01*
G01*
X0314592Y0178417D02*
G03*
X0316840Y0183969I-0001245J0003735D01*
G01*
X0314592Y0178417D02*
G03*
X0316840Y0183969I-0001245J0003735D01*
G01*
X0316840Y0215243D02*
G03*
X0316840Y0183969I0030060J-0015637D01*
G01*
X0334037Y0171850D02*
G03*
X0326163Y0171850I-0003937J0000000D01*
G01*
X0316840Y0215243D02*
G03*
X0316840Y0183969I0030060J-0015637D01*
G01*
X0334037Y0155905D02*
G03*
X0337186Y0152756I0003145J-0000004D01*
G01*
X0314592Y0178417D02*
G03*
X0326163Y0170079I0002780J-0008339D01*
G01*
X0314592Y0178417D02*
G03*
X0326163Y0170079I0002780J-0008339D01*
G01*
X0337186Y0246457D02*
X0356635D01*
X0359785Y0227362D02*
Y0243307D01*
X0359785Y0227362D02*
Y0243307D01*
X0337186Y0246457D02*
X0356635D01*
X0367659Y0227362D02*
Y0229134D01*
X0367659Y0227362D02*
Y0229134D01*
X0334037Y0227362D02*
Y0243307D01*
X0326163Y0227362D02*
Y0229134D01*
X0326163Y0227362D02*
Y0229134D01*
X0334037Y0227362D02*
Y0243307D01*
X0367659Y0170079D02*
Y0171850D01*
X0359785Y0155905D02*
Y0171850D01*
X0337186Y0152756D02*
X0356635D01*
X0367659Y0170079D02*
Y0171850D01*
X0337186Y0152756D02*
X0356635D01*
X0359785Y0155905D02*
Y0171850D01*
X0326163Y0170079D02*
Y0171850D01*
X0326163Y0170079D02*
Y0171850D01*
X0334037Y0155905D02*
Y0171850D01*
X0334037Y0155905D02*
Y0171850D01*
X0456084Y0243307D02*
G03*
X0452934Y0246457I-0003145J0000004D01*
G01*
X0456084Y0243307D02*
G03*
X0452934Y0246457I-0003145J0000004D01*
G01*
X0475498Y0220814D02*
G03*
X0463958Y0229134I-0002771J0008320D01*
G01*
X0475498Y0220814D02*
G03*
X0463958Y0229134I-0002771J0008320D01*
G01*
X0456084Y0227362D02*
G03*
X0463958Y0227362I0003937J0000000D01*
G01*
X0456084D02*
G03*
X0463958Y0227362I0003937J0000000D01*
G01*
X0475498Y0220814D02*
G03*
X0473251Y0215260I0001244J-0003735D01*
G01*
X0475498Y0220814D02*
G03*
X0473251Y0215260I0001244J-0003735D01*
G01*
X0422462Y0227362D02*
G03*
X0430336Y0227362I0003937J0000000D01*
G01*
X0422462D02*
G03*
X0430336Y0227362I0003937J0000000D01*
G01*
X0422462Y0229134D02*
G03*
X0410892Y0220795I-0008790J0000000D01*
G01*
X0433485Y0246457D02*
G03*
X0430336Y0243307I-0000004J-0003145D01*
G01*
X0422462Y0229134D02*
G03*
X0410892Y0220795I-0008790J0000000D01*
G01*
X0433485Y0246457D02*
G03*
X0430336Y0243307I-0000004J-0003145D01*
G01*
X0413139Y0215243D02*
G03*
X0410892Y0220795I-0003493J0001817D01*
G01*
X0413139Y0215243D02*
G03*
X0410892Y0220795I-0003493J0001817D01*
G01*
X0473251Y0183952D02*
G03*
X0473251Y0215260I-0030052J0015654D01*
G01*
X0473251Y0183952D02*
G03*
X0475498Y0178398I0003492J-0001819D01*
G01*
X0473251Y0183952D02*
G03*
X0475498Y0178398I0003492J-0001819D01*
G01*
X0473251Y0183952D02*
G03*
X0473251Y0215260I-0030052J0015654D01*
G01*
X0463958Y0171850D02*
G03*
X0456084Y0171850I-0003937J0000000D01*
G01*
X0463958D02*
G03*
X0456084Y0171850I-0003937J0000000D01*
G01*
X0463958Y0170079D02*
G03*
X0475498Y0178398I0008769J0000000D01*
G01*
X0463958Y0170079D02*
G03*
X0475498Y0178398I0008769J0000000D01*
G01*
X0452934Y0152756D02*
G03*
X0456084Y0155905I0000004J0003145D01*
G01*
X0452934Y0152756D02*
G03*
X0456084Y0155905I0000004J0003145D01*
G01*
X0430336D02*
G03*
X0433485Y0152756I0003145J-0000004D01*
G01*
X0430336Y0171850D02*
G03*
X0422462Y0171850I-0003937J0000000D01*
G01*
X0410892Y0178417D02*
G03*
X0413139Y0183969I-0001245J0003735D01*
G01*
X0410892Y0178417D02*
G03*
X0413139Y0183969I-0001245J0003735D01*
G01*
X0413139Y0215243D02*
G03*
X0413139Y0183969I0030060J-0015637D01*
G01*
X0430336Y0171850D02*
G03*
X0422462Y0171850I-0003937J0000000D01*
G01*
X0413139Y0215243D02*
G03*
X0413139Y0183969I0030060J-0015637D01*
G01*
X0430336Y0155905D02*
G03*
X0433485Y0152756I0003145J-0000004D01*
G01*
X0410892Y0178417D02*
G03*
X0422462Y0170079I0002780J-0008339D01*
G01*
X0410892Y0178417D02*
G03*
X0422462Y0170079I0002780J-0008339D01*
G01*
X0433485Y0246457D02*
X0452934D01*
X0456084Y0227362D02*
Y0243307D01*
X0456084Y0227362D02*
Y0243307D01*
X0433485Y0246457D02*
X0452934D01*
X0463958Y0227362D02*
Y0229134D01*
X0463958Y0227362D02*
Y0229134D01*
X0430336Y0227362D02*
Y0243307D01*
X0422462Y0227362D02*
Y0229134D01*
X0422462Y0227362D02*
Y0229134D01*
X0430336Y0227362D02*
Y0243307D01*
X0463958Y0170079D02*
Y0171850D01*
X0456084Y0155905D02*
Y0171850D01*
X0433485Y0152756D02*
X0452934D01*
X0463958Y0170079D02*
Y0171850D01*
X0433485Y0152756D02*
X0452934D01*
X0456084Y0155905D02*
Y0171850D01*
X0422462Y0170079D02*
Y0171850D01*
X0422462Y0170079D02*
Y0171850D01*
X0430336Y0155905D02*
Y0171850D01*
X0430336Y0155905D02*
Y0171850D01*
D64*
X0407369Y0065735D02*
Y0067335D01*
X0408969D01*
Y0065735D01*
X0407369D01*
X0401858D02*
Y0067335D01*
X0403457D01*
Y0065735D01*
X0401858D01*
X0402054Y0069279D02*
Y0070879D01*
X0403654D01*
Y0069279D01*
X0402054D01*
X0407566D02*
Y0070879D01*
X0409166D01*
Y0069279D01*
X0407566D01*
Y0062192D02*
Y0063792D01*
X0409166D01*
Y0062192D01*
X0407566D01*
X0402054D02*
Y0063792D01*
X0403654D01*
Y0062192D01*
X0402054D01*
X0402448Y0072822D02*
Y0074422D01*
X0404048D01*
Y0072822D01*
X0402448D01*
X0408058D02*
Y0074422D01*
X0409658D01*
Y0072822D01*
X0408058D01*
X0402448Y0058649D02*
Y0060249D01*
X0404048D01*
Y0058649D01*
X0402448D01*
X0408157D02*
Y0060249D01*
X0409757D01*
Y0058649D01*
X0408157D01*
Y0191720D02*
Y0193320D01*
X0409757D01*
Y0191720D01*
X0408157D01*
X0402448D02*
Y0193320D01*
X0404048D01*
Y0191720D01*
X0402448D01*
X0408058Y0205893D02*
Y0207493D01*
X0409658D01*
Y0205893D01*
X0408058D01*
X0402448D02*
Y0207493D01*
X0404048D01*
Y0205893D01*
X0402448D01*
X0402054Y0195263D02*
Y0196863D01*
X0403654D01*
Y0195263D01*
X0402054D01*
X0407566D02*
Y0196863D01*
X0409166D01*
Y0195263D01*
X0407566D01*
Y0202350D02*
Y0203950D01*
X0409166D01*
Y0202350D01*
X0407566D01*
X0402054D02*
Y0203950D01*
X0403654D01*
Y0202350D01*
X0402054D01*
X0401858Y0198806D02*
Y0200406D01*
X0403457D01*
Y0198806D01*
X0401858D01*
X0407369D02*
Y0200406D01*
X0408969D01*
Y0198806D01*
X0407369D01*
X0476759Y0191720D02*
Y0193320D01*
X0478359D01*
Y0191720D01*
X0476759D01*
X0482468D02*
Y0193320D01*
X0484068D01*
Y0191720D01*
X0482468D01*
X0476858Y0205893D02*
Y0207493D01*
X0478457D01*
Y0205893D01*
X0476858D01*
X0482468D02*
Y0207493D01*
X0484068D01*
Y0205893D01*
X0482468D01*
X0482861Y0195263D02*
Y0196863D01*
X0484461D01*
Y0195263D01*
X0482861D01*
X0477350D02*
Y0196863D01*
X0478950D01*
Y0195263D01*
X0477350D01*
Y0202350D02*
Y0203950D01*
X0478950D01*
Y0202350D01*
X0477350D01*
X0482861D02*
Y0203950D01*
X0484461D01*
Y0202350D01*
X0482861D01*
X0483058Y0198806D02*
Y0200406D01*
X0484658D01*
Y0198806D01*
X0483058D01*
X0477547D02*
Y0200406D01*
X0479146D01*
Y0198806D01*
X0477547D01*
X0476759Y0058649D02*
Y0060249D01*
X0478359D01*
Y0058649D01*
X0476759D01*
X0482468D02*
Y0060249D01*
X0484068D01*
Y0058649D01*
X0482468D01*
X0476858Y0072822D02*
Y0074422D01*
X0478457D01*
Y0072822D01*
X0476858D01*
X0482468D02*
Y0074422D01*
X0484068D01*
Y0072822D01*
X0482468D01*
X0482861Y0062192D02*
Y0063792D01*
X0484461D01*
Y0062192D01*
X0482861D01*
X0477350D02*
Y0063792D01*
X0478950D01*
Y0062192D01*
X0477350D01*
Y0069279D02*
Y0070879D01*
X0478950D01*
Y0069279D01*
X0477350D01*
X0482861D02*
Y0070879D01*
X0484461D01*
Y0069279D01*
X0482861D01*
X0483058Y0065735D02*
Y0067335D01*
X0484658D01*
Y0065735D01*
X0483058D01*
X0477547D02*
Y0067335D01*
X0479146D01*
Y0065735D01*
X0477547D01*
X0311011D02*
Y0067335D01*
X0312611D01*
Y0065735D01*
X0311011D01*
X0305499D02*
Y0067335D01*
X0307099D01*
Y0065735D01*
X0305499D01*
X0305696Y0069279D02*
Y0070879D01*
X0307296D01*
Y0069279D01*
X0305696D01*
X0311208D02*
Y0070879D01*
X0312808D01*
Y0069279D01*
X0311208D01*
Y0062192D02*
Y0063792D01*
X0312808D01*
Y0062192D01*
X0311208D01*
X0305696D02*
Y0063792D01*
X0307296D01*
Y0062192D01*
X0305696D01*
X0306090Y0072822D02*
Y0074422D01*
X0307690D01*
Y0072822D01*
X0306090D01*
X0311700D02*
Y0074422D01*
X0313300D01*
Y0072822D01*
X0311700D01*
X0306090Y0058649D02*
Y0060249D01*
X0307690D01*
Y0058649D01*
X0306090D01*
X0311798D02*
Y0060249D01*
X0313398D01*
Y0058649D01*
X0311798D01*
Y0191720D02*
Y0193320D01*
X0313398D01*
Y0191720D01*
X0311798D01*
X0306090D02*
Y0193320D01*
X0307690D01*
Y0191720D01*
X0306090D01*
X0311700Y0205893D02*
Y0207493D01*
X0313300D01*
Y0205893D01*
X0311700D01*
X0306090D02*
Y0207493D01*
X0307690D01*
Y0205893D01*
X0306090D01*
X0305696Y0195263D02*
Y0196863D01*
X0307296D01*
Y0195263D01*
X0305696D01*
X0311208D02*
Y0196863D01*
X0312808D01*
Y0195263D01*
X0311208D01*
Y0202350D02*
Y0203950D01*
X0312808D01*
Y0202350D01*
X0311208D01*
X0305696D02*
Y0203950D01*
X0307296D01*
Y0202350D01*
X0305696D01*
X0305499Y0198806D02*
Y0200406D01*
X0307099D01*
Y0198806D01*
X0305499D01*
X0311011D02*
Y0200406D01*
X0312611D01*
Y0198806D01*
X0311011D01*
X0380401Y0191720D02*
Y0193320D01*
X0382001D01*
Y0191720D01*
X0380401D01*
X0386109D02*
Y0193320D01*
X0387709D01*
Y0191720D01*
X0386109D01*
X0380499Y0205893D02*
Y0207493D01*
X0382099D01*
Y0205893D01*
X0380499D01*
X0386109D02*
Y0207493D01*
X0387709D01*
Y0205893D01*
X0386109D01*
X0386503Y0195263D02*
Y0196863D01*
X0388103D01*
Y0195263D01*
X0386503D01*
X0380991D02*
Y0196863D01*
X0382591D01*
Y0195263D01*
X0380991D01*
Y0202350D02*
Y0203950D01*
X0382591D01*
Y0202350D01*
X0380991D01*
X0386503D02*
Y0203950D01*
X0388103D01*
Y0202350D01*
X0386503D01*
X0386700Y0198806D02*
Y0200406D01*
X0388300D01*
Y0198806D01*
X0386700D01*
X0381188D02*
Y0200406D01*
X0382788D01*
Y0198806D01*
X0381188D01*
X0380401Y0058649D02*
Y0060249D01*
X0382001D01*
Y0058649D01*
X0380401D01*
X0386109D02*
Y0060249D01*
X0387709D01*
Y0058649D01*
X0386109D01*
X0380499Y0072822D02*
Y0074422D01*
X0382099D01*
Y0072822D01*
X0380499D01*
X0386109D02*
Y0074422D01*
X0387709D01*
Y0072822D01*
X0386109D01*
X0386503Y0062192D02*
Y0063792D01*
X0388103D01*
Y0062192D01*
X0386503D01*
X0380991D02*
Y0063792D01*
X0382591D01*
Y0062192D01*
X0380991D01*
Y0069279D02*
Y0070879D01*
X0382591D01*
Y0069279D01*
X0380991D01*
X0386503D02*
Y0070879D01*
X0388103D01*
Y0069279D01*
X0386503D01*
X0386700Y0065735D02*
Y0067335D01*
X0388300D01*
Y0065735D01*
X0386700D01*
X0381188D02*
Y0067335D01*
X0382788D01*
Y0065735D01*
X0381188D01*
X0214751D02*
Y0067335D01*
X0216351D01*
Y0065735D01*
X0214751D01*
X0209239D02*
Y0067335D01*
X0210839D01*
Y0065735D01*
X0209239D01*
X0209436Y0069279D02*
Y0070879D01*
X0211036D01*
Y0069279D01*
X0209436D01*
X0214948D02*
Y0070879D01*
X0216548D01*
Y0069279D01*
X0214948D01*
Y0062192D02*
Y0063792D01*
X0216548D01*
Y0062192D01*
X0214948D01*
X0209436D02*
Y0063792D01*
X0211036D01*
Y0062192D01*
X0209436D01*
X0209830Y0072822D02*
Y0074422D01*
X0211430D01*
Y0072822D01*
X0209830D01*
X0215440D02*
Y0074422D01*
X0217040D01*
Y0072822D01*
X0215440D01*
X0209830Y0058649D02*
Y0060249D01*
X0211430D01*
Y0058649D01*
X0209830D01*
X0215539D02*
Y0060249D01*
X0217139D01*
Y0058649D01*
X0215539D01*
Y0191720D02*
Y0193320D01*
X0217139D01*
Y0191720D01*
X0215539D01*
X0209830D02*
Y0193320D01*
X0211430D01*
Y0191720D01*
X0209830D01*
X0215440Y0205893D02*
Y0207493D01*
X0217040D01*
Y0205893D01*
X0215440D01*
X0209830D02*
Y0207493D01*
X0211430D01*
Y0205893D01*
X0209830D01*
X0209436Y0195263D02*
Y0196863D01*
X0211036D01*
Y0195263D01*
X0209436D01*
X0214948D02*
Y0196863D01*
X0216548D01*
Y0195263D01*
X0214948D01*
Y0202350D02*
Y0203950D01*
X0216548D01*
Y0202350D01*
X0214948D01*
X0209436D02*
Y0203950D01*
X0211036D01*
Y0202350D01*
X0209436D01*
X0209239Y0198806D02*
Y0200406D01*
X0210839D01*
Y0198806D01*
X0209239D01*
X0214751D02*
Y0200406D01*
X0216351D01*
Y0198806D01*
X0214751D01*
X0284141Y0191720D02*
Y0193320D01*
X0285741D01*
Y0191720D01*
X0284141D01*
X0289850D02*
Y0193320D01*
X0291450D01*
Y0191720D01*
X0289850D01*
X0284239Y0205893D02*
Y0207493D01*
X0285839D01*
Y0205893D01*
X0284239D01*
X0289850D02*
Y0207493D01*
X0291450D01*
Y0205893D01*
X0289850D01*
X0290243Y0195263D02*
Y0196863D01*
X0291843D01*
Y0195263D01*
X0290243D01*
X0284732D02*
Y0196863D01*
X0286332D01*
Y0195263D01*
X0284732D01*
Y0202350D02*
Y0203950D01*
X0286332D01*
Y0202350D01*
X0284732D01*
X0290243D02*
Y0203950D01*
X0291843D01*
Y0202350D01*
X0290243D01*
X0290440Y0198806D02*
Y0200406D01*
X0292040D01*
Y0198806D01*
X0290440D01*
X0284928D02*
Y0200406D01*
X0286528D01*
Y0198806D01*
X0284928D01*
X0284141Y0058649D02*
Y0060249D01*
X0285741D01*
Y0058649D01*
X0284141D01*
X0289850D02*
Y0060249D01*
X0291450D01*
Y0058649D01*
X0289850D01*
X0284239Y0072822D02*
Y0074422D01*
X0285839D01*
Y0072822D01*
X0284239D01*
X0289850D02*
Y0074422D01*
X0291450D01*
Y0072822D01*
X0289850D01*
X0290243Y0062192D02*
Y0063792D01*
X0291843D01*
Y0062192D01*
X0290243D01*
X0284732D02*
Y0063792D01*
X0286332D01*
Y0062192D01*
X0284732D01*
Y0069279D02*
Y0070879D01*
X0286332D01*
Y0069279D01*
X0284732D01*
X0290243D02*
Y0070879D01*
X0291843D01*
Y0069279D01*
X0290243D01*
X0290440Y0065735D02*
Y0067335D01*
X0292040D01*
Y0065735D01*
X0290440D01*
X0284928D02*
Y0067335D01*
X0286528D01*
Y0065735D01*
X0284928D01*
X0118393D02*
Y0067335D01*
X0119993D01*
Y0065735D01*
X0118393D01*
X0112881D02*
Y0067335D01*
X0114481D01*
Y0065735D01*
X0112881D01*
X0113078Y0069279D02*
Y0070879D01*
X0114678D01*
Y0069279D01*
X0113078D01*
X0118590D02*
Y0070879D01*
X0120190D01*
Y0069279D01*
X0118590D01*
Y0062192D02*
Y0063792D01*
X0120190D01*
Y0062192D01*
X0118590D01*
X0113078D02*
Y0063792D01*
X0114678D01*
Y0062192D01*
X0113078D01*
X0113472Y0072822D02*
Y0074422D01*
X0115072D01*
Y0072822D01*
X0113472D01*
X0119082D02*
Y0074422D01*
X0120682D01*
Y0072822D01*
X0119082D01*
X0113472Y0058649D02*
Y0060249D01*
X0115072D01*
Y0058649D01*
X0113472D01*
X0119180D02*
Y0060249D01*
X0120780D01*
Y0058649D01*
X0119180D01*
Y0191720D02*
Y0193320D01*
X0120780D01*
Y0191720D01*
X0119180D01*
X0113472D02*
Y0193320D01*
X0115072D01*
Y0191720D01*
X0113472D01*
X0119082Y0205893D02*
Y0207493D01*
X0120682D01*
Y0205893D01*
X0119082D01*
X0113472D02*
Y0207493D01*
X0115072D01*
Y0205893D01*
X0113472D01*
X0113078Y0195263D02*
Y0196863D01*
X0114678D01*
Y0195263D01*
X0113078D01*
X0118590D02*
Y0196863D01*
X0120190D01*
Y0195263D01*
X0118590D01*
Y0202350D02*
Y0203950D01*
X0120190D01*
Y0202350D01*
X0118590D01*
X0113078D02*
Y0203950D01*
X0114678D01*
Y0202350D01*
X0113078D01*
X0112881Y0198806D02*
Y0200406D01*
X0114481D01*
Y0198806D01*
X0112881D01*
X0118393D02*
Y0200406D01*
X0119993D01*
Y0198806D01*
X0118393D01*
X0187783Y0191720D02*
Y0193320D01*
X0189383D01*
Y0191720D01*
X0187783D01*
X0193491D02*
Y0193320D01*
X0195091D01*
Y0191720D01*
X0193491D01*
X0187881Y0205893D02*
Y0207493D01*
X0189481D01*
Y0205893D01*
X0187881D01*
X0193491D02*
Y0207493D01*
X0195091D01*
Y0205893D01*
X0193491D01*
X0193885Y0195263D02*
Y0196863D01*
X0195485D01*
Y0195263D01*
X0193885D01*
X0188373D02*
Y0196863D01*
X0189973D01*
Y0195263D01*
X0188373D01*
Y0202350D02*
Y0203950D01*
X0189973D01*
Y0202350D01*
X0188373D01*
X0193885D02*
Y0203950D01*
X0195485D01*
Y0202350D01*
X0193885D01*
X0194082Y0198806D02*
Y0200406D01*
X0195682D01*
Y0198806D01*
X0194082D01*
X0188570D02*
Y0200406D01*
X0190170D01*
Y0198806D01*
X0188570D01*
X0187783Y0058649D02*
Y0060249D01*
X0189383D01*
Y0058649D01*
X0187783D01*
X0193491D02*
Y0060249D01*
X0195091D01*
Y0058649D01*
X0193491D01*
X0187881Y0072822D02*
Y0074422D01*
X0189481D01*
Y0072822D01*
X0187881D01*
X0193491D02*
Y0074422D01*
X0195091D01*
Y0072822D01*
X0193491D01*
X0193885Y0062192D02*
Y0063792D01*
X0195485D01*
Y0062192D01*
X0193885D01*
X0188373D02*
Y0063792D01*
X0189973D01*
Y0062192D01*
X0188373D01*
Y0069279D02*
Y0070879D01*
X0189973D01*
Y0069279D01*
X0188373D01*
X0193885D02*
Y0070879D01*
X0195485D01*
Y0069279D01*
X0193885D01*
X0194082Y0065735D02*
Y0067335D01*
X0195682D01*
Y0065735D01*
X0194082D01*
X0188570D02*
Y0067335D01*
X0190170D01*
Y0065735D01*
X0188570D01*
X0092310D02*
Y0067335D01*
X0093910D01*
Y0065735D01*
X0092310D01*
X0097822D02*
Y0067335D01*
X0099422D01*
Y0065735D01*
X0097822D01*
X0097625Y0069279D02*
Y0070879D01*
X0099225D01*
Y0069279D01*
X0097625D01*
X0092113D02*
Y0070879D01*
X0093713D01*
Y0069279D01*
X0092113D01*
Y0062192D02*
Y0063792D01*
X0093713D01*
Y0062192D01*
X0092113D01*
X0097625D02*
Y0063792D01*
X0099225D01*
Y0062192D01*
X0097625D01*
X0097232Y0072822D02*
Y0074422D01*
X0098831D01*
Y0072822D01*
X0097232D01*
X0091621D02*
Y0074422D01*
X0093221D01*
Y0072822D01*
X0091621D01*
X0097232Y0058649D02*
Y0060249D01*
X0098831D01*
Y0058649D01*
X0097232D01*
X0091523D02*
Y0060249D01*
X0093123D01*
Y0058649D01*
X0091523D01*
X0092310Y0198806D02*
Y0200406D01*
X0093910D01*
Y0198806D01*
X0092310D01*
X0097822D02*
Y0200406D01*
X0099422D01*
Y0198806D01*
X0097822D01*
X0097625Y0202350D02*
Y0203950D01*
X0099225D01*
Y0202350D01*
X0097625D01*
X0092113D02*
Y0203950D01*
X0093713D01*
Y0202350D01*
X0092113D01*
Y0195263D02*
Y0196863D01*
X0093713D01*
Y0195263D01*
X0092113D01*
X0097625D02*
Y0196863D01*
X0099225D01*
Y0195263D01*
X0097625D01*
X0097232Y0205893D02*
Y0207493D01*
X0098831D01*
Y0205893D01*
X0097232D01*
X0091621D02*
Y0207493D01*
X0093221D01*
Y0205893D01*
X0091621D01*
X0097232Y0191720D02*
Y0193320D01*
X0098831D01*
Y0191720D01*
X0097232D01*
X0091523D02*
Y0193320D01*
X0093123D01*
Y0191720D01*
X0091523D01*
X0022133Y0198806D02*
Y0200406D01*
X0023733D01*
Y0198806D01*
X0022133D01*
X0016621D02*
Y0200406D01*
X0018221D01*
Y0198806D01*
X0016621D01*
X0016818Y0202350D02*
Y0203950D01*
X0018418D01*
Y0202350D01*
X0016818D01*
X0022330D02*
Y0203950D01*
X0023930D01*
Y0202350D01*
X0022330D01*
Y0195263D02*
Y0196863D01*
X0023930D01*
Y0195263D01*
X0022330D01*
X0016818D02*
Y0196863D01*
X0018418D01*
Y0195263D01*
X0016818D01*
X0017212Y0205893D02*
Y0207493D01*
X0018812D01*
Y0205893D01*
X0017212D01*
X0022822D02*
Y0207493D01*
X0024422D01*
Y0205893D01*
X0022822D01*
X0017212Y0191720D02*
Y0193320D01*
X0018812D01*
Y0191720D01*
X0017212D01*
X0022920D02*
Y0193320D01*
X0024521D01*
Y0191720D01*
X0022920D01*
Y0058649D02*
Y0060249D01*
X0024521D01*
Y0058649D01*
X0022920D01*
X0017212D02*
Y0060249D01*
X0018812D01*
Y0058649D01*
X0017212D01*
X0022822Y0072822D02*
Y0074422D01*
X0024422D01*
Y0072822D01*
X0022822D01*
X0017212D02*
Y0074422D01*
X0018812D01*
Y0072822D01*
X0017212D01*
X0016818Y0062192D02*
Y0063792D01*
X0018418D01*
Y0062192D01*
X0016818D01*
X0022330D02*
Y0063792D01*
X0023930D01*
Y0062192D01*
X0022330D01*
Y0069279D02*
Y0070879D01*
X0023930D01*
Y0069279D01*
X0022330D01*
X0016818D02*
Y0070879D01*
X0018418D01*
Y0069279D01*
X0016818D01*
X0016621Y0065735D02*
Y0067335D01*
X0018221D01*
Y0065735D01*
X0016621D01*
X0022133D02*
Y0067335D01*
X0023733D01*
Y0065735D01*
X0022133D01*
X0057915Y0076495D02*
X0057114Y0078095D01*
X0058714D01*
X0057915Y0076495D01*
X0047914D02*
X0047115Y0078095D01*
X0048715D01*
X0047914Y0076495D01*
X0067914D02*
X0067115Y0078095D01*
X0068714D01*
X0067914Y0076495D01*
X0053013Y0039751D02*
X0053413Y0040151D01*
X0053813D01*
X0053413Y0040551D01*
X0053813Y0040951D01*
X0053413D01*
X0053013Y0041351D01*
X0052613Y0040951D01*
X0052213D01*
X0052613Y0040551D01*
X0052213Y0040151D01*
X0052613D01*
X0053013Y0039751D01*
X0058013D02*
X0058413Y0040151D01*
X0058813D01*
X0058413Y0040551D01*
X0058813Y0040951D01*
X0058413D01*
X0058013Y0041351D01*
X0057613Y0040951D01*
X0057213D01*
X0057613Y0040551D01*
X0057213Y0040151D01*
X0057613D01*
X0058013Y0039751D01*
X0063013D02*
X0063413Y0040151D01*
X0063813D01*
X0063413Y0040551D01*
X0063813Y0040951D01*
X0063413D01*
X0063013Y0041351D01*
X0062613Y0040951D01*
X0062213D01*
X0062613Y0040551D01*
X0062213Y0040151D01*
X0062613D01*
X0063013Y0039751D01*
X0067134Y0031483D02*
X0067534Y0032283D01*
X0067134Y0033083D01*
X0067934Y0032683D01*
X0068734Y0033083D01*
X0068334Y0032283D01*
X0068734Y0031483D01*
X0067934Y0031883D01*
X0067134Y0031483D01*
X0047292D02*
X0047692Y0032283D01*
X0047292Y0033083D01*
X0048092Y0032683D01*
X0048892Y0033083D01*
X0048492Y0032283D01*
X0048892Y0031483D01*
X0048092Y0031883D01*
X0047292Y0031483D01*
X0063013Y0091720D02*
X0063413Y0092120D01*
X0063813D01*
X0063413Y0092520D01*
X0063813Y0092920D01*
X0063413D01*
X0063013Y0093320D01*
X0062613Y0092920D01*
X0062213D01*
X0062613Y0092520D01*
X0062213Y0092120D01*
X0062613D01*
X0063013Y0091720D01*
X0058013D02*
X0058413Y0092120D01*
X0058813D01*
X0058413Y0092520D01*
X0058813Y0092920D01*
X0058413D01*
X0058013Y0093320D01*
X0057613Y0092920D01*
X0057213D01*
X0057613Y0092520D01*
X0057213Y0092120D01*
X0057613D01*
X0058013Y0091720D01*
X0053013D02*
X0053413Y0092120D01*
X0053813D01*
X0053413Y0092520D01*
X0053813Y0092920D01*
X0053413D01*
X0053013Y0093320D01*
X0052613Y0092920D01*
X0052213D01*
X0052613Y0092520D01*
X0052213Y0092120D01*
X0052613D01*
X0053013Y0091720D01*
X0047292Y0099987D02*
X0047692Y0100787D01*
X0047292Y0101587D01*
X0048092Y0101187D01*
X0048892Y0101587D01*
X0048492Y0100787D01*
X0048892Y0099987D01*
X0048092Y0100387D01*
X0047292Y0099987D01*
X0067134D02*
X0067534Y0100787D01*
X0067134Y0101587D01*
X0067934Y0101187D01*
X0068734Y0101587D01*
X0068334Y0100787D01*
X0068734Y0099987D01*
X0067934Y0100387D01*
X0067134Y0099987D01*
X0087141Y0095663D02*
Y0095263D01*
X0087941D01*
Y0095663D01*
X0088341D01*
Y0096463D01*
X0087941D01*
Y0096863D01*
X0087141D01*
Y0096463D01*
X0086740D01*
Y0095663D01*
X0087141D01*
X0028085Y0036608D02*
Y0036208D01*
X0028885D01*
Y0036608D01*
X0029285D01*
Y0037408D01*
X0028885D01*
Y0037808D01*
X0028085D01*
Y0037408D01*
X0027685D01*
Y0036608D01*
X0028085D01*
Y0095663D02*
Y0095263D01*
X0028885D01*
Y0095663D01*
X0029285D01*
Y0096463D01*
X0028885D01*
Y0096863D01*
X0028085D01*
Y0096463D01*
X0027685D01*
Y0095663D01*
X0028085D01*
X0087141Y0036608D02*
Y0036208D01*
X0087941D01*
Y0036608D01*
X0088341D01*
Y0037408D01*
X0087941D01*
Y0037808D01*
X0087141D01*
Y0037408D01*
X0086740D01*
Y0036608D01*
X0087141D01*
X0077095Y0055401D02*
X0077495D01*
X0077895Y0055801D01*
X0078295Y0055401D01*
X0078695D01*
Y0055801D01*
X0078295Y0056201D01*
X0078695Y0056601D01*
Y0057001D01*
X0078295D01*
X0077895Y0056601D01*
X0077495Y0057001D01*
X0077095D01*
Y0056601D01*
X0077495Y0056201D01*
X0077095Y0055801D01*
Y0055401D01*
X0067235Y0055302D02*
X0067635D01*
X0068035Y0055702D01*
X0068435Y0055302D01*
X0068835D01*
Y0055702D01*
X0068435Y0056102D01*
X0068835Y0056502D01*
Y0056902D01*
X0068435D01*
X0068035Y0056502D01*
X0067635Y0056902D01*
X0067235D01*
Y0056502D01*
X0067635Y0056102D01*
X0067235Y0055702D01*
Y0055302D01*
X0071780Y0051956D02*
X0072180D01*
X0072580Y0052356D01*
X0072980Y0051956D01*
X0073380D01*
Y0052356D01*
X0072980Y0052756D01*
X0073380Y0053156D01*
Y0053556D01*
X0072980D01*
X0072580Y0053156D01*
X0072180Y0053556D01*
X0071780D01*
Y0053156D01*
X0072180Y0052756D01*
X0071780Y0052356D01*
Y0051956D01*
X0052488Y0052153D02*
X0052889D01*
X0053289Y0052553D01*
X0053689Y0052153D01*
X0054088D01*
Y0052553D01*
X0053689Y0052953D01*
X0054088Y0053353D01*
Y0053753D01*
X0053689D01*
X0053289Y0053353D01*
X0052889Y0053753D01*
X0052488D01*
Y0053353D01*
X0052889Y0052953D01*
X0052488Y0052553D01*
Y0052153D01*
X0035559Y0069771D02*
X0035959D01*
X0036359Y0070171D01*
X0036759Y0069771D01*
X0037159D01*
Y0070171D01*
X0036759Y0070571D01*
X0037159Y0070971D01*
Y0071371D01*
X0036759D01*
X0036359Y0070971D01*
X0035959Y0071371D01*
X0035559D01*
Y0070971D01*
X0035959Y0070571D01*
X0035559Y0070171D01*
Y0069771D01*
X0031622Y0055302D02*
X0032022D01*
X0032422Y0055702D01*
X0032822Y0055302D01*
X0033222D01*
Y0055702D01*
X0032822Y0056102D01*
X0033222Y0056502D01*
Y0056902D01*
X0032822D01*
X0032422Y0056502D01*
X0032022Y0056902D01*
X0031622D01*
Y0056502D01*
X0032022Y0056102D01*
X0031622Y0055702D01*
Y0055302D01*
X0040579Y0066031D02*
X0040979D01*
X0041379Y0066431D01*
X0041779Y0066031D01*
X0042179D01*
Y0066431D01*
X0041779Y0066831D01*
X0042179Y0067231D01*
Y0067631D01*
X0041779D01*
X0041379Y0067231D01*
X0040979Y0067631D01*
X0040579D01*
Y0067231D01*
X0040979Y0066831D01*
X0040579Y0066431D01*
Y0066031D01*
X0083296Y0075381D02*
X0083696D01*
X0084096Y0075781D01*
X0084496Y0075381D01*
X0084896D01*
Y0075781D01*
X0084496Y0076181D01*
X0084896Y0076581D01*
Y0076981D01*
X0084496D01*
X0084096Y0076581D01*
X0083696Y0076981D01*
X0083296D01*
Y0076581D01*
X0083696Y0076181D01*
X0083296Y0075781D01*
Y0075381D01*
X0064727Y0083354D02*
X0065127D01*
X0065527Y0083754D01*
X0065927Y0083354D01*
X0066327D01*
Y0083754D01*
X0065927Y0084153D01*
X0066327Y0084553D01*
Y0084953D01*
X0065927D01*
X0065527Y0084553D01*
X0065127Y0084953D01*
X0064727D01*
Y0084553D01*
X0065127Y0084153D01*
X0064727Y0083754D01*
Y0083354D01*
X0057213Y0028432D02*
X0057613D01*
X0058013Y0028832D01*
X0058413Y0028432D01*
X0058813D01*
Y0028832D01*
X0058413Y0029232D01*
X0058813Y0029632D01*
Y0030032D01*
X0058413D01*
X0058013Y0029632D01*
X0057613Y0030032D01*
X0057213D01*
Y0029632D01*
X0057613Y0029232D01*
X0057213Y0028832D01*
Y0028432D01*
Y0103039D02*
X0057613D01*
X0058013Y0103439D01*
X0058413Y0103039D01*
X0058813D01*
Y0103439D01*
X0058413Y0103839D01*
X0058813Y0104239D01*
Y0104639D01*
X0058413D01*
X0058013Y0104239D01*
X0057613Y0104639D01*
X0057213D01*
Y0104239D01*
X0057613Y0103839D01*
X0057213Y0103439D01*
Y0103039D01*
X0154214Y0076495D02*
X0153414Y0078095D01*
X0155014D01*
X0154214Y0076495D01*
X0144214D02*
X0143414Y0078095D01*
X0145014D01*
X0144214Y0076495D01*
X0164214D02*
X0163414Y0078095D01*
X0165014D01*
X0164214Y0076495D01*
X0149312Y0039751D02*
X0149712Y0040151D01*
X0150112D01*
X0149712Y0040551D01*
X0150112Y0040951D01*
X0149712D01*
X0149312Y0041351D01*
X0148912Y0040951D01*
X0148512D01*
X0148912Y0040551D01*
X0148512Y0040151D01*
X0148912D01*
X0149312Y0039751D01*
X0154312D02*
X0154712Y0040151D01*
X0155112D01*
X0154712Y0040551D01*
X0155112Y0040951D01*
X0154712D01*
X0154312Y0041351D01*
X0153912Y0040951D01*
X0153512D01*
X0153912Y0040551D01*
X0153512Y0040151D01*
X0153912D01*
X0154312Y0039751D01*
X0159312D02*
X0159712Y0040151D01*
X0160112D01*
X0159712Y0040551D01*
X0160112Y0040951D01*
X0159712D01*
X0159312Y0041351D01*
X0158912Y0040951D01*
X0158512D01*
X0158912Y0040551D01*
X0158512Y0040151D01*
X0158912D01*
X0159312Y0039751D01*
X0163433Y0031483D02*
X0163833Y0032283D01*
X0163433Y0033083D01*
X0164233Y0032683D01*
X0165033Y0033083D01*
X0164633Y0032283D01*
X0165033Y0031483D01*
X0164233Y0031883D01*
X0163433Y0031483D01*
X0143591D02*
X0143991Y0032283D01*
X0143591Y0033083D01*
X0144391Y0032683D01*
X0145191Y0033083D01*
X0144791Y0032283D01*
X0145191Y0031483D01*
X0144391Y0031883D01*
X0143591Y0031483D01*
X0159312Y0091720D02*
X0159712Y0092120D01*
X0160112D01*
X0159712Y0092520D01*
X0160112Y0092920D01*
X0159712D01*
X0159312Y0093320D01*
X0158912Y0092920D01*
X0158512D01*
X0158912Y0092520D01*
X0158512Y0092120D01*
X0158912D01*
X0159312Y0091720D01*
X0154312D02*
X0154712Y0092120D01*
X0155112D01*
X0154712Y0092520D01*
X0155112Y0092920D01*
X0154712D01*
X0154312Y0093320D01*
X0153912Y0092920D01*
X0153512D01*
X0153912Y0092520D01*
X0153512Y0092120D01*
X0153912D01*
X0154312Y0091720D01*
X0149312D02*
X0149712Y0092120D01*
X0150112D01*
X0149712Y0092520D01*
X0150112Y0092920D01*
X0149712D01*
X0149312Y0093320D01*
X0148912Y0092920D01*
X0148512D01*
X0148912Y0092520D01*
X0148512Y0092120D01*
X0148912D01*
X0149312Y0091720D01*
X0143591Y0099987D02*
X0143991Y0100787D01*
X0143591Y0101587D01*
X0144391Y0101187D01*
X0145191Y0101587D01*
X0144791Y0100787D01*
X0145191Y0099987D01*
X0144391Y0100387D01*
X0143591Y0099987D01*
X0163433D02*
X0163833Y0100787D01*
X0163433Y0101587D01*
X0164233Y0101187D01*
X0165033Y0101587D01*
X0164633Y0100787D01*
X0165033Y0099987D01*
X0164233Y0100387D01*
X0163433Y0099987D01*
X0183440Y0095663D02*
Y0095263D01*
X0184240D01*
Y0095663D01*
X0184640D01*
Y0096463D01*
X0184240D01*
Y0096863D01*
X0183440D01*
Y0096463D01*
X0183040D01*
Y0095663D01*
X0183440D01*
X0124385Y0036608D02*
Y0036208D01*
X0125185D01*
Y0036608D01*
X0125585D01*
Y0037408D01*
X0125185D01*
Y0037808D01*
X0124385D01*
Y0037408D01*
X0123985D01*
Y0036608D01*
X0124385D01*
Y0095663D02*
Y0095263D01*
X0125185D01*
Y0095663D01*
X0125585D01*
Y0096463D01*
X0125185D01*
Y0096863D01*
X0124385D01*
Y0096463D01*
X0123985D01*
Y0095663D01*
X0124385D01*
X0183440Y0036608D02*
Y0036208D01*
X0184240D01*
Y0036608D01*
X0184640D01*
Y0037408D01*
X0184240D01*
Y0037808D01*
X0183440D01*
Y0037408D01*
X0183040D01*
Y0036608D01*
X0183440D01*
X0173394Y0055401D02*
X0173794D01*
X0174194Y0055801D01*
X0174594Y0055401D01*
X0174994D01*
Y0055801D01*
X0174594Y0056201D01*
X0174994Y0056601D01*
Y0057001D01*
X0174594D01*
X0174194Y0056601D01*
X0173794Y0057001D01*
X0173394D01*
Y0056601D01*
X0173794Y0056201D01*
X0173394Y0055801D01*
Y0055401D01*
X0163534Y0055302D02*
X0163934D01*
X0164334Y0055702D01*
X0164734Y0055302D01*
X0165134D01*
Y0055702D01*
X0164734Y0056102D01*
X0165134Y0056502D01*
Y0056902D01*
X0164734D01*
X0164334Y0056502D01*
X0163934Y0056902D01*
X0163534D01*
Y0056502D01*
X0163934Y0056102D01*
X0163534Y0055702D01*
Y0055302D01*
X0168079Y0051956D02*
X0168479D01*
X0168879Y0052356D01*
X0169279Y0051956D01*
X0169679D01*
Y0052356D01*
X0169279Y0052756D01*
X0169679Y0053156D01*
Y0053556D01*
X0169279D01*
X0168879Y0053156D01*
X0168479Y0053556D01*
X0168079D01*
Y0053156D01*
X0168479Y0052756D01*
X0168079Y0052356D01*
Y0051956D01*
X0148788Y0052153D02*
X0149188D01*
X0149588Y0052553D01*
X0149988Y0052153D01*
X0150388D01*
Y0052553D01*
X0149988Y0052953D01*
X0150388Y0053353D01*
Y0053753D01*
X0149988D01*
X0149588Y0053353D01*
X0149188Y0053753D01*
X0148788D01*
Y0053353D01*
X0149188Y0052953D01*
X0148788Y0052553D01*
Y0052153D01*
X0131859Y0069771D02*
X0132259D01*
X0132659Y0070171D01*
X0133059Y0069771D01*
X0133459D01*
Y0070171D01*
X0133059Y0070571D01*
X0133459Y0070971D01*
Y0071371D01*
X0133059D01*
X0132659Y0070971D01*
X0132259Y0071371D01*
X0131859D01*
Y0070971D01*
X0132259Y0070571D01*
X0131859Y0070171D01*
Y0069771D01*
X0127922Y0055302D02*
X0128322D01*
X0128722Y0055702D01*
X0129122Y0055302D01*
X0129522D01*
Y0055702D01*
X0129122Y0056102D01*
X0129522Y0056502D01*
Y0056902D01*
X0129122D01*
X0128722Y0056502D01*
X0128322Y0056902D01*
X0127922D01*
Y0056502D01*
X0128322Y0056102D01*
X0127922Y0055702D01*
Y0055302D01*
X0136878Y0066031D02*
X0137278D01*
X0137678Y0066431D01*
X0138078Y0066031D01*
X0138478D01*
Y0066431D01*
X0138078Y0066831D01*
X0138478Y0067231D01*
Y0067631D01*
X0138078D01*
X0137678Y0067231D01*
X0137278Y0067631D01*
X0136878D01*
Y0067231D01*
X0137278Y0066831D01*
X0136878Y0066431D01*
Y0066031D01*
X0179595Y0075381D02*
X0179995D01*
X0180395Y0075781D01*
X0180795Y0075381D01*
X0181195D01*
Y0075781D01*
X0180795Y0076181D01*
X0181195Y0076581D01*
Y0076981D01*
X0180795D01*
X0180395Y0076581D01*
X0179995Y0076981D01*
X0179595D01*
Y0076581D01*
X0179995Y0076181D01*
X0179595Y0075781D01*
Y0075381D01*
X0161026Y0083354D02*
X0161426D01*
X0161826Y0083754D01*
X0162226Y0083354D01*
X0162626D01*
Y0083754D01*
X0162226Y0084153D01*
X0162626Y0084553D01*
Y0084953D01*
X0162226D01*
X0161826Y0084553D01*
X0161426Y0084953D01*
X0161026D01*
Y0084553D01*
X0161426Y0084153D01*
X0161026Y0083754D01*
Y0083354D01*
X0153512Y0028432D02*
X0153912D01*
X0154312Y0028832D01*
X0154712Y0028432D01*
X0155112D01*
Y0028832D01*
X0154712Y0029232D01*
X0155112Y0029632D01*
Y0030032D01*
X0154712D01*
X0154312Y0029632D01*
X0153912Y0030032D01*
X0153512D01*
Y0029632D01*
X0153912Y0029232D01*
X0153512Y0028832D01*
Y0028432D01*
Y0103039D02*
X0153912D01*
X0154312Y0103439D01*
X0154712Y0103039D01*
X0155112D01*
Y0103439D01*
X0154712Y0103839D01*
X0155112Y0104239D01*
Y0104639D01*
X0154712D01*
X0154312Y0104239D01*
X0153912Y0104639D01*
X0153512D01*
Y0104239D01*
X0153912Y0103839D01*
X0153512Y0103439D01*
Y0103039D01*
X0250513Y0076495D02*
X0249713Y0078095D01*
X0251313D01*
X0250513Y0076495D01*
X0240513D02*
X0239713Y0078095D01*
X0241313D01*
X0240513Y0076495D01*
X0260513D02*
X0259713Y0078095D01*
X0261313D01*
X0260513Y0076495D01*
X0245611Y0039751D02*
X0246011Y0040151D01*
X0246411D01*
X0246011Y0040551D01*
X0246411Y0040951D01*
X0246011D01*
X0245611Y0041351D01*
X0245211Y0040951D01*
X0244811D01*
X0245211Y0040551D01*
X0244811Y0040151D01*
X0245211D01*
X0245611Y0039751D01*
X0250611D02*
X0251011Y0040151D01*
X0251411D01*
X0251011Y0040551D01*
X0251411Y0040951D01*
X0251011D01*
X0250611Y0041351D01*
X0250211Y0040951D01*
X0249811D01*
X0250211Y0040551D01*
X0249811Y0040151D01*
X0250211D01*
X0250611Y0039751D01*
X0255611D02*
X0256011Y0040151D01*
X0256411D01*
X0256011Y0040551D01*
X0256411Y0040951D01*
X0256011D01*
X0255611Y0041351D01*
X0255211Y0040951D01*
X0254811D01*
X0255211Y0040551D01*
X0254811Y0040151D01*
X0255211D01*
X0255611Y0039751D01*
X0259733Y0031483D02*
X0260133Y0032283D01*
X0259733Y0033083D01*
X0260533Y0032683D01*
X0261333Y0033083D01*
X0260933Y0032283D01*
X0261333Y0031483D01*
X0260533Y0031883D01*
X0259733Y0031483D01*
X0239890D02*
X0240290Y0032283D01*
X0239890Y0033083D01*
X0240690Y0032683D01*
X0241490Y0033083D01*
X0241090Y0032283D01*
X0241490Y0031483D01*
X0240690Y0031883D01*
X0239890Y0031483D01*
X0255611Y0091720D02*
X0256011Y0092120D01*
X0256411D01*
X0256011Y0092520D01*
X0256411Y0092920D01*
X0256011D01*
X0255611Y0093320D01*
X0255211Y0092920D01*
X0254811D01*
X0255211Y0092520D01*
X0254811Y0092120D01*
X0255211D01*
X0255611Y0091720D01*
X0250611D02*
X0251011Y0092120D01*
X0251411D01*
X0251011Y0092520D01*
X0251411Y0092920D01*
X0251011D01*
X0250611Y0093320D01*
X0250211Y0092920D01*
X0249811D01*
X0250211Y0092520D01*
X0249811Y0092120D01*
X0250211D01*
X0250611Y0091720D01*
X0245611D02*
X0246011Y0092120D01*
X0246411D01*
X0246011Y0092520D01*
X0246411Y0092920D01*
X0246011D01*
X0245611Y0093320D01*
X0245211Y0092920D01*
X0244811D01*
X0245211Y0092520D01*
X0244811Y0092120D01*
X0245211D01*
X0245611Y0091720D01*
X0239890Y0099987D02*
X0240290Y0100787D01*
X0239890Y0101587D01*
X0240690Y0101187D01*
X0241490Y0101587D01*
X0241090Y0100787D01*
X0241490Y0099987D01*
X0240690Y0100387D01*
X0239890Y0099987D01*
X0259733D02*
X0260133Y0100787D01*
X0259733Y0101587D01*
X0260533Y0101187D01*
X0261333Y0101587D01*
X0260933Y0100787D01*
X0261333Y0099987D01*
X0260533Y0100387D01*
X0259733Y0099987D01*
X0279739Y0095663D02*
Y0095263D01*
X0280539D01*
Y0095663D01*
X0280939D01*
Y0096463D01*
X0280539D01*
Y0096863D01*
X0279739D01*
Y0096463D01*
X0279339D01*
Y0095663D01*
X0279739D01*
X0220684Y0036608D02*
Y0036208D01*
X0221484D01*
Y0036608D01*
X0221884D01*
Y0037408D01*
X0221484D01*
Y0037808D01*
X0220684D01*
Y0037408D01*
X0220284D01*
Y0036608D01*
X0220684D01*
Y0095663D02*
Y0095263D01*
X0221484D01*
Y0095663D01*
X0221884D01*
Y0096463D01*
X0221484D01*
Y0096863D01*
X0220684D01*
Y0096463D01*
X0220284D01*
Y0095663D01*
X0220684D01*
X0279739Y0036608D02*
Y0036208D01*
X0280539D01*
Y0036608D01*
X0280939D01*
Y0037408D01*
X0280539D01*
Y0037808D01*
X0279739D01*
Y0037408D01*
X0279339D01*
Y0036608D01*
X0279739D01*
X0269693Y0055401D02*
X0270093D01*
X0270493Y0055801D01*
X0270893Y0055401D01*
X0271293D01*
Y0055801D01*
X0270893Y0056201D01*
X0271293Y0056601D01*
Y0057001D01*
X0270893D01*
X0270493Y0056601D01*
X0270093Y0057001D01*
X0269693D01*
Y0056601D01*
X0270093Y0056201D01*
X0269693Y0055801D01*
Y0055401D01*
X0259833Y0055302D02*
X0260233D01*
X0260633Y0055702D01*
X0261033Y0055302D01*
X0261433D01*
Y0055702D01*
X0261033Y0056102D01*
X0261433Y0056502D01*
Y0056902D01*
X0261033D01*
X0260633Y0056502D01*
X0260233Y0056902D01*
X0259833D01*
Y0056502D01*
X0260233Y0056102D01*
X0259833Y0055702D01*
Y0055302D01*
X0264378Y0051956D02*
X0264778D01*
X0265178Y0052356D01*
X0265578Y0051956D01*
X0265978D01*
Y0052356D01*
X0265578Y0052756D01*
X0265978Y0053156D01*
Y0053556D01*
X0265578D01*
X0265178Y0053156D01*
X0264778Y0053556D01*
X0264378D01*
Y0053156D01*
X0264778Y0052756D01*
X0264378Y0052356D01*
Y0051956D01*
X0245087Y0052153D02*
X0245487D01*
X0245887Y0052553D01*
X0246287Y0052153D01*
X0246687D01*
Y0052553D01*
X0246287Y0052953D01*
X0246687Y0053353D01*
Y0053753D01*
X0246287D01*
X0245887Y0053353D01*
X0245487Y0053753D01*
X0245087D01*
Y0053353D01*
X0245487Y0052953D01*
X0245087Y0052553D01*
Y0052153D01*
X0228158Y0069771D02*
X0228558D01*
X0228958Y0070171D01*
X0229358Y0069771D01*
X0229758D01*
Y0070171D01*
X0229358Y0070571D01*
X0229758Y0070971D01*
Y0071371D01*
X0229358D01*
X0228958Y0070971D01*
X0228558Y0071371D01*
X0228158D01*
Y0070971D01*
X0228558Y0070571D01*
X0228158Y0070171D01*
Y0069771D01*
X0224221Y0055302D02*
X0224621D01*
X0225021Y0055702D01*
X0225421Y0055302D01*
X0225821D01*
Y0055702D01*
X0225421Y0056102D01*
X0225821Y0056502D01*
Y0056902D01*
X0225421D01*
X0225021Y0056502D01*
X0224621Y0056902D01*
X0224221D01*
Y0056502D01*
X0224621Y0056102D01*
X0224221Y0055702D01*
Y0055302D01*
X0233177Y0066031D02*
X0233577D01*
X0233978Y0066431D01*
X0234378Y0066031D01*
X0234777D01*
Y0066431D01*
X0234378Y0066831D01*
X0234777Y0067231D01*
Y0067631D01*
X0234378D01*
X0233978Y0067231D01*
X0233577Y0067631D01*
X0233177D01*
Y0067231D01*
X0233577Y0066831D01*
X0233177Y0066431D01*
Y0066031D01*
X0275894Y0075381D02*
X0276294D01*
X0276694Y0075781D01*
X0277094Y0075381D01*
X0277494D01*
Y0075781D01*
X0277094Y0076181D01*
X0277494Y0076581D01*
Y0076981D01*
X0277094D01*
X0276694Y0076581D01*
X0276294Y0076981D01*
X0275894D01*
Y0076581D01*
X0276294Y0076181D01*
X0275894Y0075781D01*
Y0075381D01*
X0257325Y0083354D02*
X0257725D01*
X0258125Y0083754D01*
X0258525Y0083354D01*
X0258925D01*
Y0083754D01*
X0258525Y0084153D01*
X0258925Y0084553D01*
Y0084953D01*
X0258525D01*
X0258125Y0084553D01*
X0257725Y0084953D01*
X0257325D01*
Y0084553D01*
X0257725Y0084153D01*
X0257325Y0083754D01*
Y0083354D01*
X0249811Y0028432D02*
X0250211D01*
X0250611Y0028832D01*
X0251011Y0028432D01*
X0251411D01*
Y0028832D01*
X0251011Y0029232D01*
X0251411Y0029632D01*
Y0030032D01*
X0251011D01*
X0250611Y0029632D01*
X0250211Y0030032D01*
X0249811D01*
Y0029632D01*
X0250211Y0029232D01*
X0249811Y0028832D01*
Y0028432D01*
Y0103039D02*
X0250211D01*
X0250611Y0103439D01*
X0251011Y0103039D01*
X0251411D01*
Y0103439D01*
X0251011Y0103839D01*
X0251411Y0104239D01*
Y0104639D01*
X0251011D01*
X0250611Y0104239D01*
X0250211Y0104639D01*
X0249811D01*
Y0104239D01*
X0250211Y0103839D01*
X0249811Y0103439D01*
Y0103039D01*
X0346812Y0076495D02*
X0346012Y0078095D01*
X0347612D01*
X0346812Y0076495D01*
X0336812D02*
X0336012Y0078095D01*
X0337612D01*
X0336812Y0076495D01*
X0356812D02*
X0356012Y0078095D01*
X0357612D01*
X0356812Y0076495D01*
X0341911Y0039751D02*
X0342311Y0040151D01*
X0342711D01*
X0342311Y0040551D01*
X0342711Y0040951D01*
X0342311D01*
X0341911Y0041351D01*
X0341511Y0040951D01*
X0341111D01*
X0341511Y0040551D01*
X0341111Y0040151D01*
X0341511D01*
X0341911Y0039751D01*
X0346911D02*
X0347311Y0040151D01*
X0347711D01*
X0347311Y0040551D01*
X0347711Y0040951D01*
X0347311D01*
X0346911Y0041351D01*
X0346511Y0040951D01*
X0346111D01*
X0346511Y0040551D01*
X0346111Y0040151D01*
X0346511D01*
X0346911Y0039751D01*
X0351911D02*
X0352311Y0040151D01*
X0352711D01*
X0352311Y0040551D01*
X0352711Y0040951D01*
X0352311D01*
X0351911Y0041351D01*
X0351511Y0040951D01*
X0351111D01*
X0351511Y0040551D01*
X0351111Y0040151D01*
X0351511D01*
X0351911Y0039751D01*
X0356032Y0031483D02*
X0356432Y0032283D01*
X0356032Y0033083D01*
X0356832Y0032683D01*
X0357632Y0033083D01*
X0357232Y0032283D01*
X0357632Y0031483D01*
X0356832Y0031883D01*
X0356032Y0031483D01*
X0336189D02*
X0336589Y0032283D01*
X0336189Y0033083D01*
X0336989Y0032683D01*
X0337789Y0033083D01*
X0337389Y0032283D01*
X0337789Y0031483D01*
X0336989Y0031883D01*
X0336189Y0031483D01*
X0351911Y0091720D02*
X0352311Y0092120D01*
X0352711D01*
X0352311Y0092520D01*
X0352711Y0092920D01*
X0352311D01*
X0351911Y0093320D01*
X0351511Y0092920D01*
X0351111D01*
X0351511Y0092520D01*
X0351111Y0092120D01*
X0351511D01*
X0351911Y0091720D01*
X0346911D02*
X0347311Y0092120D01*
X0347711D01*
X0347311Y0092520D01*
X0347711Y0092920D01*
X0347311D01*
X0346911Y0093320D01*
X0346511Y0092920D01*
X0346111D01*
X0346511Y0092520D01*
X0346111Y0092120D01*
X0346511D01*
X0346911Y0091720D01*
X0341911D02*
X0342311Y0092120D01*
X0342711D01*
X0342311Y0092520D01*
X0342711Y0092920D01*
X0342311D01*
X0341911Y0093320D01*
X0341511Y0092920D01*
X0341111D01*
X0341511Y0092520D01*
X0341111Y0092120D01*
X0341511D01*
X0341911Y0091720D01*
X0336189Y0099987D02*
X0336589Y0100787D01*
X0336189Y0101587D01*
X0336989Y0101187D01*
X0337789Y0101587D01*
X0337389Y0100787D01*
X0337789Y0099987D01*
X0336989Y0100387D01*
X0336189Y0099987D01*
X0356032D02*
X0356432Y0100787D01*
X0356032Y0101587D01*
X0356832Y0101187D01*
X0357632Y0101587D01*
X0357232Y0100787D01*
X0357632Y0099987D01*
X0356832Y0100387D01*
X0356032Y0099987D01*
X0376038Y0095663D02*
Y0095263D01*
X0376838D01*
Y0095663D01*
X0377238D01*
Y0096463D01*
X0376838D01*
Y0096863D01*
X0376038D01*
Y0096463D01*
X0375638D01*
Y0095663D01*
X0376038D01*
X0316983Y0036608D02*
Y0036208D01*
X0317783D01*
Y0036608D01*
X0318183D01*
Y0037408D01*
X0317783D01*
Y0037808D01*
X0316983D01*
Y0037408D01*
X0316583D01*
Y0036608D01*
X0316983D01*
Y0095663D02*
Y0095263D01*
X0317783D01*
Y0095663D01*
X0318183D01*
Y0096463D01*
X0317783D01*
Y0096863D01*
X0316983D01*
Y0096463D01*
X0316583D01*
Y0095663D01*
X0316983D01*
X0376038Y0036608D02*
Y0036208D01*
X0376838D01*
Y0036608D01*
X0377238D01*
Y0037408D01*
X0376838D01*
Y0037808D01*
X0376038D01*
Y0037408D01*
X0375638D01*
Y0036608D01*
X0376038D01*
X0365992Y0055401D02*
X0366392D01*
X0366792Y0055801D01*
X0367193Y0055401D01*
X0367593D01*
Y0055801D01*
X0367193Y0056201D01*
X0367593Y0056601D01*
Y0057001D01*
X0367193D01*
X0366792Y0056601D01*
X0366392Y0057001D01*
X0365992D01*
Y0056601D01*
X0366392Y0056201D01*
X0365992Y0055801D01*
Y0055401D01*
X0356132Y0055302D02*
X0356532D01*
X0356932Y0055702D01*
X0357332Y0055302D01*
X0357732D01*
Y0055702D01*
X0357332Y0056102D01*
X0357732Y0056502D01*
Y0056902D01*
X0357332D01*
X0356932Y0056502D01*
X0356532Y0056902D01*
X0356132D01*
Y0056502D01*
X0356532Y0056102D01*
X0356132Y0055702D01*
Y0055302D01*
X0360678Y0051956D02*
X0361077D01*
X0361477Y0052356D01*
X0361877Y0051956D01*
X0362278D01*
Y0052356D01*
X0361877Y0052756D01*
X0362278Y0053156D01*
Y0053556D01*
X0361877D01*
X0361477Y0053156D01*
X0361077Y0053556D01*
X0360678D01*
Y0053156D01*
X0361077Y0052756D01*
X0360678Y0052356D01*
Y0051956D01*
X0341386Y0052153D02*
X0341786D01*
X0342186Y0052553D01*
X0342586Y0052153D01*
X0342986D01*
Y0052553D01*
X0342586Y0052953D01*
X0342986Y0053353D01*
Y0053753D01*
X0342586D01*
X0342186Y0053353D01*
X0341786Y0053753D01*
X0341386D01*
Y0053353D01*
X0341786Y0052953D01*
X0341386Y0052553D01*
Y0052153D01*
X0324457Y0069771D02*
X0324857D01*
X0325257Y0070171D01*
X0325657Y0069771D01*
X0326057D01*
Y0070171D01*
X0325657Y0070571D01*
X0326057Y0070971D01*
Y0071371D01*
X0325657D01*
X0325257Y0070971D01*
X0324857Y0071371D01*
X0324457D01*
Y0070971D01*
X0324857Y0070571D01*
X0324457Y0070171D01*
Y0069771D01*
X0320520Y0055302D02*
X0320920D01*
X0321320Y0055702D01*
X0321720Y0055302D01*
X0322120D01*
Y0055702D01*
X0321720Y0056102D01*
X0322120Y0056502D01*
Y0056902D01*
X0321720D01*
X0321320Y0056502D01*
X0320920Y0056902D01*
X0320520D01*
Y0056502D01*
X0320920Y0056102D01*
X0320520Y0055702D01*
Y0055302D01*
X0329477Y0066031D02*
X0329877D01*
X0330277Y0066431D01*
X0330677Y0066031D01*
X0331077D01*
Y0066431D01*
X0330677Y0066831D01*
X0331077Y0067231D01*
Y0067631D01*
X0330677D01*
X0330277Y0067231D01*
X0329877Y0067631D01*
X0329477D01*
Y0067231D01*
X0329877Y0066831D01*
X0329477Y0066431D01*
Y0066031D01*
X0372193Y0075381D02*
X0372593D01*
X0372993Y0075781D01*
X0373393Y0075381D01*
X0373793D01*
Y0075781D01*
X0373393Y0076181D01*
X0373793Y0076581D01*
Y0076981D01*
X0373393D01*
X0372993Y0076581D01*
X0372593Y0076981D01*
X0372193D01*
Y0076581D01*
X0372593Y0076181D01*
X0372193Y0075781D01*
Y0075381D01*
X0353624Y0083354D02*
X0354024D01*
X0354424Y0083754D01*
X0354824Y0083354D01*
X0355224D01*
Y0083754D01*
X0354824Y0084153D01*
X0355224Y0084553D01*
Y0084953D01*
X0354824D01*
X0354424Y0084553D01*
X0354024Y0084953D01*
X0353624D01*
Y0084553D01*
X0354024Y0084153D01*
X0353624Y0083754D01*
Y0083354D01*
X0346111Y0028432D02*
X0346511D01*
X0346911Y0028832D01*
X0347311Y0028432D01*
X0347711D01*
Y0028832D01*
X0347311Y0029232D01*
X0347711Y0029632D01*
Y0030032D01*
X0347311D01*
X0346911Y0029632D01*
X0346511Y0030032D01*
X0346111D01*
Y0029632D01*
X0346511Y0029232D01*
X0346111Y0028832D01*
Y0028432D01*
Y0103039D02*
X0346511D01*
X0346911Y0103439D01*
X0347311Y0103039D01*
X0347711D01*
Y0103439D01*
X0347311Y0103839D01*
X0347711Y0104239D01*
Y0104639D01*
X0347311D01*
X0346911Y0104239D01*
X0346511Y0104639D01*
X0346111D01*
Y0104239D01*
X0346511Y0103839D01*
X0346111Y0103439D01*
Y0103039D01*
X0443111Y0076495D02*
X0442311Y0078095D01*
X0443911D01*
X0443111Y0076495D01*
X0433111D02*
X0432311Y0078095D01*
X0433911D01*
X0433111Y0076495D01*
X0453111D02*
X0452311Y0078095D01*
X0453911D01*
X0453111Y0076495D01*
X0438210Y0039751D02*
X0438610Y0040151D01*
X0439010D01*
X0438610Y0040551D01*
X0439010Y0040951D01*
X0438610D01*
X0438210Y0041351D01*
X0437810Y0040951D01*
X0437410D01*
X0437810Y0040551D01*
X0437410Y0040151D01*
X0437810D01*
X0438210Y0039751D01*
X0443210D02*
X0443610Y0040151D01*
X0444010D01*
X0443610Y0040551D01*
X0444010Y0040951D01*
X0443610D01*
X0443210Y0041351D01*
X0442810Y0040951D01*
X0442410D01*
X0442810Y0040551D01*
X0442410Y0040151D01*
X0442810D01*
X0443210Y0039751D01*
X0448210D02*
X0448610Y0040151D01*
X0449010D01*
X0448610Y0040551D01*
X0449010Y0040951D01*
X0448610D01*
X0448210Y0041351D01*
X0447810Y0040951D01*
X0447410D01*
X0447810Y0040551D01*
X0447410Y0040151D01*
X0447810D01*
X0448210Y0039751D01*
X0452331Y0031483D02*
X0452731Y0032283D01*
X0452331Y0033083D01*
X0453131Y0032683D01*
X0453931Y0033083D01*
X0453531Y0032283D01*
X0453931Y0031483D01*
X0453131Y0031883D01*
X0452331Y0031483D01*
X0432488D02*
X0432889Y0032283D01*
X0432488Y0033083D01*
X0433288Y0032683D01*
X0434089Y0033083D01*
X0433688Y0032283D01*
X0434089Y0031483D01*
X0433288Y0031883D01*
X0432488Y0031483D01*
X0448210Y0091720D02*
X0448610Y0092120D01*
X0449010D01*
X0448610Y0092520D01*
X0449010Y0092920D01*
X0448610D01*
X0448210Y0093320D01*
X0447810Y0092920D01*
X0447410D01*
X0447810Y0092520D01*
X0447410Y0092120D01*
X0447810D01*
X0448210Y0091720D01*
X0443210D02*
X0443610Y0092120D01*
X0444010D01*
X0443610Y0092520D01*
X0444010Y0092920D01*
X0443610D01*
X0443210Y0093320D01*
X0442810Y0092920D01*
X0442410D01*
X0442810Y0092520D01*
X0442410Y0092120D01*
X0442810D01*
X0443210Y0091720D01*
X0438210D02*
X0438610Y0092120D01*
X0439010D01*
X0438610Y0092520D01*
X0439010Y0092920D01*
X0438610D01*
X0438210Y0093320D01*
X0437810Y0092920D01*
X0437410D01*
X0437810Y0092520D01*
X0437410Y0092120D01*
X0437810D01*
X0438210Y0091720D01*
X0432488Y0099987D02*
X0432889Y0100787D01*
X0432488Y0101587D01*
X0433288Y0101187D01*
X0434089Y0101587D01*
X0433688Y0100787D01*
X0434089Y0099987D01*
X0433288Y0100387D01*
X0432488Y0099987D01*
X0452331D02*
X0452731Y0100787D01*
X0452331Y0101587D01*
X0453131Y0101187D01*
X0453931Y0101587D01*
X0453531Y0100787D01*
X0453931Y0099987D01*
X0453131Y0100387D01*
X0452331Y0099987D01*
X0472337Y0095663D02*
Y0095263D01*
X0473137D01*
Y0095663D01*
X0473537D01*
Y0096463D01*
X0473137D01*
Y0096863D01*
X0472337D01*
Y0096463D01*
X0471937D01*
Y0095663D01*
X0472337D01*
X0413282Y0036608D02*
Y0036208D01*
X0414082D01*
Y0036608D01*
X0414482D01*
Y0037408D01*
X0414082D01*
Y0037808D01*
X0413282D01*
Y0037408D01*
X0412882D01*
Y0036608D01*
X0413282D01*
Y0095663D02*
Y0095263D01*
X0414082D01*
Y0095663D01*
X0414482D01*
Y0096463D01*
X0414082D01*
Y0096863D01*
X0413282D01*
Y0096463D01*
X0412882D01*
Y0095663D01*
X0413282D01*
X0472337Y0036608D02*
Y0036208D01*
X0473137D01*
Y0036608D01*
X0473537D01*
Y0037408D01*
X0473137D01*
Y0037808D01*
X0472337D01*
Y0037408D01*
X0471937D01*
Y0036608D01*
X0472337D01*
X0462292Y0055401D02*
X0462692D01*
X0463092Y0055801D01*
X0463492Y0055401D01*
X0463892D01*
Y0055801D01*
X0463492Y0056201D01*
X0463892Y0056601D01*
Y0057001D01*
X0463492D01*
X0463092Y0056601D01*
X0462692Y0057001D01*
X0462292D01*
Y0056601D01*
X0462692Y0056201D01*
X0462292Y0055801D01*
Y0055401D01*
X0452431Y0055302D02*
X0452831D01*
X0453231Y0055702D01*
X0453631Y0055302D01*
X0454031D01*
Y0055702D01*
X0453631Y0056102D01*
X0454031Y0056502D01*
Y0056902D01*
X0453631D01*
X0453231Y0056502D01*
X0452831Y0056902D01*
X0452431D01*
Y0056502D01*
X0452831Y0056102D01*
X0452431Y0055702D01*
Y0055302D01*
X0456977Y0051956D02*
X0457377D01*
X0457777Y0052356D01*
X0458177Y0051956D01*
X0458577D01*
Y0052356D01*
X0458177Y0052756D01*
X0458577Y0053156D01*
Y0053556D01*
X0458177D01*
X0457777Y0053156D01*
X0457377Y0053556D01*
X0456977D01*
Y0053156D01*
X0457377Y0052756D01*
X0456977Y0052356D01*
Y0051956D01*
X0437685Y0052153D02*
X0438085D01*
X0438485Y0052553D01*
X0438885Y0052153D01*
X0439285D01*
Y0052553D01*
X0438885Y0052953D01*
X0439285Y0053353D01*
Y0053753D01*
X0438885D01*
X0438485Y0053353D01*
X0438085Y0053753D01*
X0437685D01*
Y0053353D01*
X0438085Y0052953D01*
X0437685Y0052553D01*
Y0052153D01*
X0420756Y0069771D02*
X0421156D01*
X0421556Y0070171D01*
X0421956Y0069771D01*
X0422356D01*
Y0070171D01*
X0421956Y0070571D01*
X0422356Y0070971D01*
Y0071371D01*
X0421956D01*
X0421556Y0070971D01*
X0421156Y0071371D01*
X0420756D01*
Y0070971D01*
X0421156Y0070571D01*
X0420756Y0070171D01*
Y0069771D01*
X0416819Y0055302D02*
X0417219D01*
X0417619Y0055702D01*
X0418019Y0055302D01*
X0418419D01*
Y0055702D01*
X0418019Y0056102D01*
X0418419Y0056502D01*
Y0056902D01*
X0418019D01*
X0417619Y0056502D01*
X0417219Y0056902D01*
X0416819D01*
Y0056502D01*
X0417219Y0056102D01*
X0416819Y0055702D01*
Y0055302D01*
X0425776Y0066031D02*
X0426176D01*
X0426576Y0066431D01*
X0426976Y0066031D01*
X0427376D01*
Y0066431D01*
X0426976Y0066831D01*
X0427376Y0067231D01*
Y0067631D01*
X0426976D01*
X0426576Y0067231D01*
X0426176Y0067631D01*
X0425776D01*
Y0067231D01*
X0426176Y0066831D01*
X0425776Y0066431D01*
Y0066031D01*
X0468493Y0075381D02*
X0468892D01*
X0469292Y0075781D01*
X0469693Y0075381D01*
X0470092D01*
Y0075781D01*
X0469693Y0076181D01*
X0470092Y0076581D01*
Y0076981D01*
X0469693D01*
X0469292Y0076581D01*
X0468892Y0076981D01*
X0468493D01*
Y0076581D01*
X0468892Y0076181D01*
X0468493Y0075781D01*
Y0075381D01*
X0449924Y0083354D02*
X0450323D01*
X0450724Y0083754D01*
X0451124Y0083354D01*
X0451523D01*
Y0083754D01*
X0451124Y0084153D01*
X0451523Y0084553D01*
Y0084953D01*
X0451124D01*
X0450724Y0084553D01*
X0450323Y0084953D01*
X0449924D01*
Y0084553D01*
X0450323Y0084153D01*
X0449924Y0083754D01*
Y0083354D01*
X0442410Y0028432D02*
X0442810D01*
X0443210Y0028832D01*
X0443610Y0028432D01*
X0444010D01*
Y0028832D01*
X0443610Y0029232D01*
X0444010Y0029632D01*
Y0030032D01*
X0443610D01*
X0443210Y0029632D01*
X0442810Y0030032D01*
X0442410D01*
Y0029632D01*
X0442810Y0029232D01*
X0442410Y0028832D01*
Y0028432D01*
Y0103039D02*
X0442810D01*
X0443210Y0103439D01*
X0443610Y0103039D01*
X0444010D01*
Y0103439D01*
X0443610Y0103839D01*
X0444010Y0104239D01*
Y0104639D01*
X0443610D01*
X0443210Y0104239D01*
X0442810Y0104639D01*
X0442410D01*
Y0104239D01*
X0442810Y0103839D01*
X0442410Y0103439D01*
Y0103039D01*
X0057915Y0209566D02*
X0057114Y0211166D01*
X0058714D01*
X0057915Y0209566D01*
X0047914D02*
X0047115Y0211166D01*
X0048715D01*
X0047914Y0209566D01*
X0067914D02*
X0067115Y0211166D01*
X0068714D01*
X0067914Y0209566D01*
X0053013Y0172822D02*
X0053413Y0173222D01*
X0053813D01*
X0053413Y0173622D01*
X0053813Y0174022D01*
X0053413D01*
X0053013Y0174422D01*
X0052613Y0174022D01*
X0052213D01*
X0052613Y0173622D01*
X0052213Y0173222D01*
X0052613D01*
X0053013Y0172822D01*
X0058013D02*
X0058413Y0173222D01*
X0058813D01*
X0058413Y0173622D01*
X0058813Y0174022D01*
X0058413D01*
X0058013Y0174422D01*
X0057613Y0174022D01*
X0057213D01*
X0057613Y0173622D01*
X0057213Y0173222D01*
X0057613D01*
X0058013Y0172822D01*
X0063013D02*
X0063413Y0173222D01*
X0063813D01*
X0063413Y0173622D01*
X0063813Y0174022D01*
X0063413D01*
X0063013Y0174422D01*
X0062613Y0174022D01*
X0062213D01*
X0062613Y0173622D01*
X0062213Y0173222D01*
X0062613D01*
X0063013Y0172822D01*
X0067134Y0164554D02*
X0067534Y0165354D01*
X0067134Y0166154D01*
X0067934Y0165754D01*
X0068734Y0166154D01*
X0068334Y0165354D01*
X0068734Y0164554D01*
X0067934Y0164954D01*
X0067134Y0164554D01*
X0047292D02*
X0047692Y0165354D01*
X0047292Y0166154D01*
X0048092Y0165754D01*
X0048892Y0166154D01*
X0048492Y0165354D01*
X0048892Y0164554D01*
X0048092Y0164954D01*
X0047292Y0164554D01*
X0063013Y0224791D02*
X0063413Y0225191D01*
X0063813D01*
X0063413Y0225591D01*
X0063813Y0225991D01*
X0063413D01*
X0063013Y0226391D01*
X0062613Y0225991D01*
X0062213D01*
X0062613Y0225591D01*
X0062213Y0225191D01*
X0062613D01*
X0063013Y0224791D01*
X0058013D02*
X0058413Y0225191D01*
X0058813D01*
X0058413Y0225591D01*
X0058813Y0225991D01*
X0058413D01*
X0058013Y0226391D01*
X0057613Y0225991D01*
X0057213D01*
X0057613Y0225591D01*
X0057213Y0225191D01*
X0057613D01*
X0058013Y0224791D01*
X0053013D02*
X0053413Y0225191D01*
X0053813D01*
X0053413Y0225591D01*
X0053813Y0225991D01*
X0053413D01*
X0053013Y0226391D01*
X0052613Y0225991D01*
X0052213D01*
X0052613Y0225591D01*
X0052213Y0225191D01*
X0052613D01*
X0053013Y0224791D01*
X0047292Y0233058D02*
X0047692Y0233858D01*
X0047292Y0234658D01*
X0048092Y0234258D01*
X0048892Y0234658D01*
X0048492Y0233858D01*
X0048892Y0233058D01*
X0048092Y0233458D01*
X0047292Y0233058D01*
X0067134D02*
X0067534Y0233858D01*
X0067134Y0234658D01*
X0067934Y0234258D01*
X0068734Y0234658D01*
X0068334Y0233858D01*
X0068734Y0233058D01*
X0067934Y0233458D01*
X0067134Y0233058D01*
X0087141Y0228734D02*
Y0228334D01*
X0087941D01*
Y0228734D01*
X0088341D01*
Y0229534D01*
X0087941D01*
Y0229934D01*
X0087141D01*
Y0229534D01*
X0086740D01*
Y0228734D01*
X0087141D01*
X0028085Y0169679D02*
Y0169279D01*
X0028885D01*
Y0169679D01*
X0029285D01*
Y0170479D01*
X0028885D01*
Y0170879D01*
X0028085D01*
Y0170479D01*
X0027685D01*
Y0169679D01*
X0028085D01*
Y0228734D02*
Y0228334D01*
X0028885D01*
Y0228734D01*
X0029285D01*
Y0229534D01*
X0028885D01*
Y0229934D01*
X0028085D01*
Y0229534D01*
X0027685D01*
Y0228734D01*
X0028085D01*
X0087141Y0169679D02*
Y0169279D01*
X0087941D01*
Y0169679D01*
X0088341D01*
Y0170479D01*
X0087941D01*
Y0170879D01*
X0087141D01*
Y0170479D01*
X0086740D01*
Y0169679D01*
X0087141D01*
X0077095Y0188472D02*
X0077495D01*
X0077895Y0188872D01*
X0078295Y0188472D01*
X0078695D01*
Y0188872D01*
X0078295Y0189272D01*
X0078695Y0189672D01*
Y0190072D01*
X0078295D01*
X0077895Y0189672D01*
X0077495Y0190072D01*
X0077095D01*
Y0189672D01*
X0077495Y0189272D01*
X0077095Y0188872D01*
Y0188472D01*
X0067235Y0188373D02*
X0067635D01*
X0068035Y0188773D01*
X0068435Y0188373D01*
X0068835D01*
Y0188773D01*
X0068435Y0189173D01*
X0068835Y0189573D01*
Y0189973D01*
X0068435D01*
X0068035Y0189573D01*
X0067635Y0189973D01*
X0067235D01*
Y0189573D01*
X0067635Y0189173D01*
X0067235Y0188773D01*
Y0188373D01*
X0071780Y0185027D02*
X0072180D01*
X0072580Y0185427D01*
X0072980Y0185027D01*
X0073380D01*
Y0185427D01*
X0072980Y0185827D01*
X0073380Y0186227D01*
Y0186627D01*
X0072980D01*
X0072580Y0186227D01*
X0072180Y0186627D01*
X0071780D01*
Y0186227D01*
X0072180Y0185827D01*
X0071780Y0185427D01*
Y0185027D01*
X0052488Y0185224D02*
X0052889D01*
X0053289Y0185624D01*
X0053689Y0185224D01*
X0054088D01*
Y0185624D01*
X0053689Y0186024D01*
X0054088Y0186424D01*
Y0186824D01*
X0053689D01*
X0053289Y0186424D01*
X0052889Y0186824D01*
X0052488D01*
Y0186424D01*
X0052889Y0186024D01*
X0052488Y0185624D01*
Y0185224D01*
X0035559Y0202842D02*
X0035959D01*
X0036359Y0203242D01*
X0036759Y0202842D01*
X0037159D01*
Y0203242D01*
X0036759Y0203642D01*
X0037159Y0204042D01*
Y0204442D01*
X0036759D01*
X0036359Y0204042D01*
X0035959Y0204442D01*
X0035559D01*
Y0204042D01*
X0035959Y0203642D01*
X0035559Y0203242D01*
Y0202842D01*
X0031622Y0188373D02*
X0032022D01*
X0032422Y0188773D01*
X0032822Y0188373D01*
X0033222D01*
Y0188773D01*
X0032822Y0189173D01*
X0033222Y0189573D01*
Y0189973D01*
X0032822D01*
X0032422Y0189573D01*
X0032022Y0189973D01*
X0031622D01*
Y0189573D01*
X0032022Y0189173D01*
X0031622Y0188773D01*
Y0188373D01*
X0040579Y0199102D02*
X0040979D01*
X0041379Y0199502D01*
X0041779Y0199102D01*
X0042179D01*
Y0199502D01*
X0041779Y0199902D01*
X0042179Y0200302D01*
Y0200702D01*
X0041779D01*
X0041379Y0200302D01*
X0040979Y0200702D01*
X0040579D01*
Y0200302D01*
X0040979Y0199902D01*
X0040579Y0199502D01*
Y0199102D01*
X0083296Y0208452D02*
X0083696D01*
X0084096Y0208852D01*
X0084496Y0208452D01*
X0084896D01*
Y0208852D01*
X0084496Y0209252D01*
X0084896Y0209652D01*
Y0210052D01*
X0084496D01*
X0084096Y0209652D01*
X0083696Y0210052D01*
X0083296D01*
Y0209652D01*
X0083696Y0209252D01*
X0083296Y0208852D01*
Y0208452D01*
X0064727Y0216424D02*
X0065127D01*
X0065527Y0216824D01*
X0065927Y0216424D01*
X0066327D01*
Y0216824D01*
X0065927Y0217224D01*
X0066327Y0217624D01*
Y0218024D01*
X0065927D01*
X0065527Y0217624D01*
X0065127Y0218024D01*
X0064727D01*
Y0217624D01*
X0065127Y0217224D01*
X0064727Y0216824D01*
Y0216424D01*
X0057213Y0161503D02*
X0057613D01*
X0058013Y0161903D01*
X0058413Y0161503D01*
X0058813D01*
Y0161903D01*
X0058413Y0162303D01*
X0058813Y0162703D01*
Y0163103D01*
X0058413D01*
X0058013Y0162703D01*
X0057613Y0163103D01*
X0057213D01*
Y0162703D01*
X0057613Y0162303D01*
X0057213Y0161903D01*
Y0161503D01*
Y0236109D02*
X0057613D01*
X0058013Y0236509D01*
X0058413Y0236109D01*
X0058813D01*
Y0236509D01*
X0058413Y0236910D01*
X0058813Y0237310D01*
Y0237709D01*
X0058413D01*
X0058013Y0237310D01*
X0057613Y0237709D01*
X0057213D01*
Y0237310D01*
X0057613Y0236910D01*
X0057213Y0236509D01*
Y0236109D01*
X0154214Y0209566D02*
X0153414Y0211166D01*
X0155014D01*
X0154214Y0209566D01*
X0144214D02*
X0143414Y0211166D01*
X0145014D01*
X0144214Y0209566D01*
X0164214D02*
X0163414Y0211166D01*
X0165014D01*
X0164214Y0209566D01*
X0149312Y0172822D02*
X0149712Y0173222D01*
X0150112D01*
X0149712Y0173622D01*
X0150112Y0174022D01*
X0149712D01*
X0149312Y0174422D01*
X0148912Y0174022D01*
X0148512D01*
X0148912Y0173622D01*
X0148512Y0173222D01*
X0148912D01*
X0149312Y0172822D01*
X0154312D02*
X0154712Y0173222D01*
X0155112D01*
X0154712Y0173622D01*
X0155112Y0174022D01*
X0154712D01*
X0154312Y0174422D01*
X0153912Y0174022D01*
X0153512D01*
X0153912Y0173622D01*
X0153512Y0173222D01*
X0153912D01*
X0154312Y0172822D01*
X0159312D02*
X0159712Y0173222D01*
X0160112D01*
X0159712Y0173622D01*
X0160112Y0174022D01*
X0159712D01*
X0159312Y0174422D01*
X0158912Y0174022D01*
X0158512D01*
X0158912Y0173622D01*
X0158512Y0173222D01*
X0158912D01*
X0159312Y0172822D01*
X0163433Y0164554D02*
X0163833Y0165354D01*
X0163433Y0166154D01*
X0164233Y0165754D01*
X0165033Y0166154D01*
X0164633Y0165354D01*
X0165033Y0164554D01*
X0164233Y0164954D01*
X0163433Y0164554D01*
X0143591D02*
X0143991Y0165354D01*
X0143591Y0166154D01*
X0144391Y0165754D01*
X0145191Y0166154D01*
X0144791Y0165354D01*
X0145191Y0164554D01*
X0144391Y0164954D01*
X0143591Y0164554D01*
X0159312Y0224791D02*
X0159712Y0225191D01*
X0160112D01*
X0159712Y0225591D01*
X0160112Y0225991D01*
X0159712D01*
X0159312Y0226391D01*
X0158912Y0225991D01*
X0158512D01*
X0158912Y0225591D01*
X0158512Y0225191D01*
X0158912D01*
X0159312Y0224791D01*
X0154312D02*
X0154712Y0225191D01*
X0155112D01*
X0154712Y0225591D01*
X0155112Y0225991D01*
X0154712D01*
X0154312Y0226391D01*
X0153912Y0225991D01*
X0153512D01*
X0153912Y0225591D01*
X0153512Y0225191D01*
X0153912D01*
X0154312Y0224791D01*
X0149312D02*
X0149712Y0225191D01*
X0150112D01*
X0149712Y0225591D01*
X0150112Y0225991D01*
X0149712D01*
X0149312Y0226391D01*
X0148912Y0225991D01*
X0148512D01*
X0148912Y0225591D01*
X0148512Y0225191D01*
X0148912D01*
X0149312Y0224791D01*
X0143591Y0233058D02*
X0143991Y0233858D01*
X0143591Y0234658D01*
X0144391Y0234258D01*
X0145191Y0234658D01*
X0144791Y0233858D01*
X0145191Y0233058D01*
X0144391Y0233458D01*
X0143591Y0233058D01*
X0163433D02*
X0163833Y0233858D01*
X0163433Y0234658D01*
X0164233Y0234258D01*
X0165033Y0234658D01*
X0164633Y0233858D01*
X0165033Y0233058D01*
X0164233Y0233458D01*
X0163433Y0233058D01*
X0183440Y0228734D02*
Y0228334D01*
X0184240D01*
Y0228734D01*
X0184640D01*
Y0229534D01*
X0184240D01*
Y0229934D01*
X0183440D01*
Y0229534D01*
X0183040D01*
Y0228734D01*
X0183440D01*
X0124385Y0169679D02*
Y0169279D01*
X0125185D01*
Y0169679D01*
X0125585D01*
Y0170479D01*
X0125185D01*
Y0170879D01*
X0124385D01*
Y0170479D01*
X0123985D01*
Y0169679D01*
X0124385D01*
Y0228734D02*
Y0228334D01*
X0125185D01*
Y0228734D01*
X0125585D01*
Y0229534D01*
X0125185D01*
Y0229934D01*
X0124385D01*
Y0229534D01*
X0123985D01*
Y0228734D01*
X0124385D01*
X0183440Y0169679D02*
Y0169279D01*
X0184240D01*
Y0169679D01*
X0184640D01*
Y0170479D01*
X0184240D01*
Y0170879D01*
X0183440D01*
Y0170479D01*
X0183040D01*
Y0169679D01*
X0183440D01*
X0173394Y0188472D02*
X0173794D01*
X0174194Y0188872D01*
X0174594Y0188472D01*
X0174994D01*
Y0188872D01*
X0174594Y0189272D01*
X0174994Y0189672D01*
Y0190072D01*
X0174594D01*
X0174194Y0189672D01*
X0173794Y0190072D01*
X0173394D01*
Y0189672D01*
X0173794Y0189272D01*
X0173394Y0188872D01*
Y0188472D01*
X0163534Y0188373D02*
X0163934D01*
X0164334Y0188773D01*
X0164734Y0188373D01*
X0165134D01*
Y0188773D01*
X0164734Y0189173D01*
X0165134Y0189573D01*
Y0189973D01*
X0164734D01*
X0164334Y0189573D01*
X0163934Y0189973D01*
X0163534D01*
Y0189573D01*
X0163934Y0189173D01*
X0163534Y0188773D01*
Y0188373D01*
X0168079Y0185027D02*
X0168479D01*
X0168879Y0185427D01*
X0169279Y0185027D01*
X0169679D01*
Y0185427D01*
X0169279Y0185827D01*
X0169679Y0186227D01*
Y0186627D01*
X0169279D01*
X0168879Y0186227D01*
X0168479Y0186627D01*
X0168079D01*
Y0186227D01*
X0168479Y0185827D01*
X0168079Y0185427D01*
Y0185027D01*
X0148788Y0185224D02*
X0149188D01*
X0149588Y0185624D01*
X0149988Y0185224D01*
X0150388D01*
Y0185624D01*
X0149988Y0186024D01*
X0150388Y0186424D01*
Y0186824D01*
X0149988D01*
X0149588Y0186424D01*
X0149188Y0186824D01*
X0148788D01*
Y0186424D01*
X0149188Y0186024D01*
X0148788Y0185624D01*
Y0185224D01*
X0131859Y0202842D02*
X0132259D01*
X0132659Y0203242D01*
X0133059Y0202842D01*
X0133459D01*
Y0203242D01*
X0133059Y0203642D01*
X0133459Y0204042D01*
Y0204442D01*
X0133059D01*
X0132659Y0204042D01*
X0132259Y0204442D01*
X0131859D01*
Y0204042D01*
X0132259Y0203642D01*
X0131859Y0203242D01*
Y0202842D01*
X0127922Y0188373D02*
X0128322D01*
X0128722Y0188773D01*
X0129122Y0188373D01*
X0129522D01*
Y0188773D01*
X0129122Y0189173D01*
X0129522Y0189573D01*
Y0189973D01*
X0129122D01*
X0128722Y0189573D01*
X0128322Y0189973D01*
X0127922D01*
Y0189573D01*
X0128322Y0189173D01*
X0127922Y0188773D01*
Y0188373D01*
X0136878Y0199102D02*
X0137278D01*
X0137678Y0199502D01*
X0138078Y0199102D01*
X0138478D01*
Y0199502D01*
X0138078Y0199902D01*
X0138478Y0200302D01*
Y0200702D01*
X0138078D01*
X0137678Y0200302D01*
X0137278Y0200702D01*
X0136878D01*
Y0200302D01*
X0137278Y0199902D01*
X0136878Y0199502D01*
Y0199102D01*
X0179595Y0208452D02*
X0179995D01*
X0180395Y0208852D01*
X0180795Y0208452D01*
X0181195D01*
Y0208852D01*
X0180795Y0209252D01*
X0181195Y0209652D01*
Y0210052D01*
X0180795D01*
X0180395Y0209652D01*
X0179995Y0210052D01*
X0179595D01*
Y0209652D01*
X0179995Y0209252D01*
X0179595Y0208852D01*
Y0208452D01*
X0161026Y0216424D02*
X0161426D01*
X0161826Y0216824D01*
X0162226Y0216424D01*
X0162626D01*
Y0216824D01*
X0162226Y0217224D01*
X0162626Y0217624D01*
Y0218024D01*
X0162226D01*
X0161826Y0217624D01*
X0161426Y0218024D01*
X0161026D01*
Y0217624D01*
X0161426Y0217224D01*
X0161026Y0216824D01*
Y0216424D01*
X0153512Y0161503D02*
X0153912D01*
X0154312Y0161903D01*
X0154712Y0161503D01*
X0155112D01*
Y0161903D01*
X0154712Y0162303D01*
X0155112Y0162703D01*
Y0163103D01*
X0154712D01*
X0154312Y0162703D01*
X0153912Y0163103D01*
X0153512D01*
Y0162703D01*
X0153912Y0162303D01*
X0153512Y0161903D01*
Y0161503D01*
Y0236109D02*
X0153912D01*
X0154312Y0236509D01*
X0154712Y0236109D01*
X0155112D01*
Y0236509D01*
X0154712Y0236910D01*
X0155112Y0237310D01*
Y0237709D01*
X0154712D01*
X0154312Y0237310D01*
X0153912Y0237709D01*
X0153512D01*
Y0237310D01*
X0153912Y0236910D01*
X0153512Y0236509D01*
Y0236109D01*
X0250513Y0209566D02*
X0249713Y0211166D01*
X0251313D01*
X0250513Y0209566D01*
X0240513D02*
X0239713Y0211166D01*
X0241313D01*
X0240513Y0209566D01*
X0260513D02*
X0259713Y0211166D01*
X0261313D01*
X0260513Y0209566D01*
X0245611Y0172822D02*
X0246011Y0173222D01*
X0246411D01*
X0246011Y0173622D01*
X0246411Y0174022D01*
X0246011D01*
X0245611Y0174422D01*
X0245211Y0174022D01*
X0244811D01*
X0245211Y0173622D01*
X0244811Y0173222D01*
X0245211D01*
X0245611Y0172822D01*
X0250611D02*
X0251011Y0173222D01*
X0251411D01*
X0251011Y0173622D01*
X0251411Y0174022D01*
X0251011D01*
X0250611Y0174422D01*
X0250211Y0174022D01*
X0249811D01*
X0250211Y0173622D01*
X0249811Y0173222D01*
X0250211D01*
X0250611Y0172822D01*
X0255611D02*
X0256011Y0173222D01*
X0256411D01*
X0256011Y0173622D01*
X0256411Y0174022D01*
X0256011D01*
X0255611Y0174422D01*
X0255211Y0174022D01*
X0254811D01*
X0255211Y0173622D01*
X0254811Y0173222D01*
X0255211D01*
X0255611Y0172822D01*
X0259733Y0164554D02*
X0260133Y0165354D01*
X0259733Y0166154D01*
X0260533Y0165754D01*
X0261333Y0166154D01*
X0260933Y0165354D01*
X0261333Y0164554D01*
X0260533Y0164954D01*
X0259733Y0164554D01*
X0239890D02*
X0240290Y0165354D01*
X0239890Y0166154D01*
X0240690Y0165754D01*
X0241490Y0166154D01*
X0241090Y0165354D01*
X0241490Y0164554D01*
X0240690Y0164954D01*
X0239890Y0164554D01*
X0255611Y0224791D02*
X0256011Y0225191D01*
X0256411D01*
X0256011Y0225591D01*
X0256411Y0225991D01*
X0256011D01*
X0255611Y0226391D01*
X0255211Y0225991D01*
X0254811D01*
X0255211Y0225591D01*
X0254811Y0225191D01*
X0255211D01*
X0255611Y0224791D01*
X0250611D02*
X0251011Y0225191D01*
X0251411D01*
X0251011Y0225591D01*
X0251411Y0225991D01*
X0251011D01*
X0250611Y0226391D01*
X0250211Y0225991D01*
X0249811D01*
X0250211Y0225591D01*
X0249811Y0225191D01*
X0250211D01*
X0250611Y0224791D01*
X0245611D02*
X0246011Y0225191D01*
X0246411D01*
X0246011Y0225591D01*
X0246411Y0225991D01*
X0246011D01*
X0245611Y0226391D01*
X0245211Y0225991D01*
X0244811D01*
X0245211Y0225591D01*
X0244811Y0225191D01*
X0245211D01*
X0245611Y0224791D01*
X0239890Y0233058D02*
X0240290Y0233858D01*
X0239890Y0234658D01*
X0240690Y0234258D01*
X0241490Y0234658D01*
X0241090Y0233858D01*
X0241490Y0233058D01*
X0240690Y0233458D01*
X0239890Y0233058D01*
X0259733D02*
X0260133Y0233858D01*
X0259733Y0234658D01*
X0260533Y0234258D01*
X0261333Y0234658D01*
X0260933Y0233858D01*
X0261333Y0233058D01*
X0260533Y0233458D01*
X0259733Y0233058D01*
X0279739Y0228734D02*
Y0228334D01*
X0280539D01*
Y0228734D01*
X0280939D01*
Y0229534D01*
X0280539D01*
Y0229934D01*
X0279739D01*
Y0229534D01*
X0279339D01*
Y0228734D01*
X0279739D01*
X0220684Y0169679D02*
Y0169279D01*
X0221484D01*
Y0169679D01*
X0221884D01*
Y0170479D01*
X0221484D01*
Y0170879D01*
X0220684D01*
Y0170479D01*
X0220284D01*
Y0169679D01*
X0220684D01*
Y0228734D02*
Y0228334D01*
X0221484D01*
Y0228734D01*
X0221884D01*
Y0229534D01*
X0221484D01*
Y0229934D01*
X0220684D01*
Y0229534D01*
X0220284D01*
Y0228734D01*
X0220684D01*
X0279739Y0169679D02*
Y0169279D01*
X0280539D01*
Y0169679D01*
X0280939D01*
Y0170479D01*
X0280539D01*
Y0170879D01*
X0279739D01*
Y0170479D01*
X0279339D01*
Y0169679D01*
X0279739D01*
X0269693Y0188472D02*
X0270093D01*
X0270493Y0188872D01*
X0270893Y0188472D01*
X0271293D01*
Y0188872D01*
X0270893Y0189272D01*
X0271293Y0189672D01*
Y0190072D01*
X0270893D01*
X0270493Y0189672D01*
X0270093Y0190072D01*
X0269693D01*
Y0189672D01*
X0270093Y0189272D01*
X0269693Y0188872D01*
Y0188472D01*
X0259833Y0188373D02*
X0260233D01*
X0260633Y0188773D01*
X0261033Y0188373D01*
X0261433D01*
Y0188773D01*
X0261033Y0189173D01*
X0261433Y0189573D01*
Y0189973D01*
X0261033D01*
X0260633Y0189573D01*
X0260233Y0189973D01*
X0259833D01*
Y0189573D01*
X0260233Y0189173D01*
X0259833Y0188773D01*
Y0188373D01*
X0264378Y0185027D02*
X0264778D01*
X0265178Y0185427D01*
X0265578Y0185027D01*
X0265978D01*
Y0185427D01*
X0265578Y0185827D01*
X0265978Y0186227D01*
Y0186627D01*
X0265578D01*
X0265178Y0186227D01*
X0264778Y0186627D01*
X0264378D01*
Y0186227D01*
X0264778Y0185827D01*
X0264378Y0185427D01*
Y0185027D01*
X0245087Y0185224D02*
X0245487D01*
X0245887Y0185624D01*
X0246287Y0185224D01*
X0246687D01*
Y0185624D01*
X0246287Y0186024D01*
X0246687Y0186424D01*
Y0186824D01*
X0246287D01*
X0245887Y0186424D01*
X0245487Y0186824D01*
X0245087D01*
Y0186424D01*
X0245487Y0186024D01*
X0245087Y0185624D01*
Y0185224D01*
X0228158Y0202842D02*
X0228558D01*
X0228958Y0203242D01*
X0229358Y0202842D01*
X0229758D01*
Y0203242D01*
X0229358Y0203642D01*
X0229758Y0204042D01*
Y0204442D01*
X0229358D01*
X0228958Y0204042D01*
X0228558Y0204442D01*
X0228158D01*
Y0204042D01*
X0228558Y0203642D01*
X0228158Y0203242D01*
Y0202842D01*
X0224221Y0188373D02*
X0224621D01*
X0225021Y0188773D01*
X0225421Y0188373D01*
X0225821D01*
Y0188773D01*
X0225421Y0189173D01*
X0225821Y0189573D01*
Y0189973D01*
X0225421D01*
X0225021Y0189573D01*
X0224621Y0189973D01*
X0224221D01*
Y0189573D01*
X0224621Y0189173D01*
X0224221Y0188773D01*
Y0188373D01*
X0233177Y0199102D02*
X0233577D01*
X0233978Y0199502D01*
X0234378Y0199102D01*
X0234777D01*
Y0199502D01*
X0234378Y0199902D01*
X0234777Y0200302D01*
Y0200702D01*
X0234378D01*
X0233978Y0200302D01*
X0233577Y0200702D01*
X0233177D01*
Y0200302D01*
X0233577Y0199902D01*
X0233177Y0199502D01*
Y0199102D01*
X0275894Y0208452D02*
X0276294D01*
X0276694Y0208852D01*
X0277094Y0208452D01*
X0277494D01*
Y0208852D01*
X0277094Y0209252D01*
X0277494Y0209652D01*
Y0210052D01*
X0277094D01*
X0276694Y0209652D01*
X0276294Y0210052D01*
X0275894D01*
Y0209652D01*
X0276294Y0209252D01*
X0275894Y0208852D01*
Y0208452D01*
X0257325Y0216424D02*
X0257725D01*
X0258125Y0216824D01*
X0258525Y0216424D01*
X0258925D01*
Y0216824D01*
X0258525Y0217224D01*
X0258925Y0217624D01*
Y0218024D01*
X0258525D01*
X0258125Y0217624D01*
X0257725Y0218024D01*
X0257325D01*
Y0217624D01*
X0257725Y0217224D01*
X0257325Y0216824D01*
Y0216424D01*
X0249811Y0161503D02*
X0250211D01*
X0250611Y0161903D01*
X0251011Y0161503D01*
X0251411D01*
Y0161903D01*
X0251011Y0162303D01*
X0251411Y0162703D01*
Y0163103D01*
X0251011D01*
X0250611Y0162703D01*
X0250211Y0163103D01*
X0249811D01*
Y0162703D01*
X0250211Y0162303D01*
X0249811Y0161903D01*
Y0161503D01*
Y0236109D02*
X0250211D01*
X0250611Y0236509D01*
X0251011Y0236109D01*
X0251411D01*
Y0236509D01*
X0251011Y0236910D01*
X0251411Y0237310D01*
Y0237709D01*
X0251011D01*
X0250611Y0237310D01*
X0250211Y0237709D01*
X0249811D01*
Y0237310D01*
X0250211Y0236910D01*
X0249811Y0236509D01*
Y0236109D01*
X0346812Y0209566D02*
X0346012Y0211166D01*
X0347612D01*
X0346812Y0209566D01*
X0336812D02*
X0336012Y0211166D01*
X0337612D01*
X0336812Y0209566D01*
X0356812D02*
X0356012Y0211166D01*
X0357612D01*
X0356812Y0209566D01*
X0341911Y0172822D02*
X0342311Y0173222D01*
X0342711D01*
X0342311Y0173622D01*
X0342711Y0174022D01*
X0342311D01*
X0341911Y0174422D01*
X0341511Y0174022D01*
X0341111D01*
X0341511Y0173622D01*
X0341111Y0173222D01*
X0341511D01*
X0341911Y0172822D01*
X0346911D02*
X0347311Y0173222D01*
X0347711D01*
X0347311Y0173622D01*
X0347711Y0174022D01*
X0347311D01*
X0346911Y0174422D01*
X0346511Y0174022D01*
X0346111D01*
X0346511Y0173622D01*
X0346111Y0173222D01*
X0346511D01*
X0346911Y0172822D01*
X0351911D02*
X0352311Y0173222D01*
X0352711D01*
X0352311Y0173622D01*
X0352711Y0174022D01*
X0352311D01*
X0351911Y0174422D01*
X0351511Y0174022D01*
X0351111D01*
X0351511Y0173622D01*
X0351111Y0173222D01*
X0351511D01*
X0351911Y0172822D01*
X0356032Y0164554D02*
X0356432Y0165354D01*
X0356032Y0166154D01*
X0356832Y0165754D01*
X0357632Y0166154D01*
X0357232Y0165354D01*
X0357632Y0164554D01*
X0356832Y0164954D01*
X0356032Y0164554D01*
X0336189D02*
X0336589Y0165354D01*
X0336189Y0166154D01*
X0336989Y0165754D01*
X0337789Y0166154D01*
X0337389Y0165354D01*
X0337789Y0164554D01*
X0336989Y0164954D01*
X0336189Y0164554D01*
X0351911Y0224791D02*
X0352311Y0225191D01*
X0352711D01*
X0352311Y0225591D01*
X0352711Y0225991D01*
X0352311D01*
X0351911Y0226391D01*
X0351511Y0225991D01*
X0351111D01*
X0351511Y0225591D01*
X0351111Y0225191D01*
X0351511D01*
X0351911Y0224791D01*
X0346911D02*
X0347311Y0225191D01*
X0347711D01*
X0347311Y0225591D01*
X0347711Y0225991D01*
X0347311D01*
X0346911Y0226391D01*
X0346511Y0225991D01*
X0346111D01*
X0346511Y0225591D01*
X0346111Y0225191D01*
X0346511D01*
X0346911Y0224791D01*
X0341911D02*
X0342311Y0225191D01*
X0342711D01*
X0342311Y0225591D01*
X0342711Y0225991D01*
X0342311D01*
X0341911Y0226391D01*
X0341511Y0225991D01*
X0341111D01*
X0341511Y0225591D01*
X0341111Y0225191D01*
X0341511D01*
X0341911Y0224791D01*
X0336189Y0233058D02*
X0336589Y0233858D01*
X0336189Y0234658D01*
X0336989Y0234258D01*
X0337789Y0234658D01*
X0337389Y0233858D01*
X0337789Y0233058D01*
X0336989Y0233458D01*
X0336189Y0233058D01*
X0356032D02*
X0356432Y0233858D01*
X0356032Y0234658D01*
X0356832Y0234258D01*
X0357632Y0234658D01*
X0357232Y0233858D01*
X0357632Y0233058D01*
X0356832Y0233458D01*
X0356032Y0233058D01*
X0376038Y0228734D02*
Y0228334D01*
X0376838D01*
Y0228734D01*
X0377238D01*
Y0229534D01*
X0376838D01*
Y0229934D01*
X0376038D01*
Y0229534D01*
X0375638D01*
Y0228734D01*
X0376038D01*
X0316983Y0169679D02*
Y0169279D01*
X0317783D01*
Y0169679D01*
X0318183D01*
Y0170479D01*
X0317783D01*
Y0170879D01*
X0316983D01*
Y0170479D01*
X0316583D01*
Y0169679D01*
X0316983D01*
Y0228734D02*
Y0228334D01*
X0317783D01*
Y0228734D01*
X0318183D01*
Y0229534D01*
X0317783D01*
Y0229934D01*
X0316983D01*
Y0229534D01*
X0316583D01*
Y0228734D01*
X0316983D01*
X0376038Y0169679D02*
Y0169279D01*
X0376838D01*
Y0169679D01*
X0377238D01*
Y0170479D01*
X0376838D01*
Y0170879D01*
X0376038D01*
Y0170479D01*
X0375638D01*
Y0169679D01*
X0376038D01*
X0365992Y0188472D02*
X0366392D01*
X0366792Y0188872D01*
X0367193Y0188472D01*
X0367593D01*
Y0188872D01*
X0367193Y0189272D01*
X0367593Y0189672D01*
Y0190072D01*
X0367193D01*
X0366792Y0189672D01*
X0366392Y0190072D01*
X0365992D01*
Y0189672D01*
X0366392Y0189272D01*
X0365992Y0188872D01*
Y0188472D01*
X0356132Y0188373D02*
X0356532D01*
X0356932Y0188773D01*
X0357332Y0188373D01*
X0357732D01*
Y0188773D01*
X0357332Y0189173D01*
X0357732Y0189573D01*
Y0189973D01*
X0357332D01*
X0356932Y0189573D01*
X0356532Y0189973D01*
X0356132D01*
Y0189573D01*
X0356532Y0189173D01*
X0356132Y0188773D01*
Y0188373D01*
X0360678Y0185027D02*
X0361077D01*
X0361477Y0185427D01*
X0361877Y0185027D01*
X0362278D01*
Y0185427D01*
X0361877Y0185827D01*
X0362278Y0186227D01*
Y0186627D01*
X0361877D01*
X0361477Y0186227D01*
X0361077Y0186627D01*
X0360678D01*
Y0186227D01*
X0361077Y0185827D01*
X0360678Y0185427D01*
Y0185027D01*
X0341386Y0185224D02*
X0341786D01*
X0342186Y0185624D01*
X0342586Y0185224D01*
X0342986D01*
Y0185624D01*
X0342586Y0186024D01*
X0342986Y0186424D01*
Y0186824D01*
X0342586D01*
X0342186Y0186424D01*
X0341786Y0186824D01*
X0341386D01*
Y0186424D01*
X0341786Y0186024D01*
X0341386Y0185624D01*
Y0185224D01*
X0324457Y0202842D02*
X0324857D01*
X0325257Y0203242D01*
X0325657Y0202842D01*
X0326057D01*
Y0203242D01*
X0325657Y0203642D01*
X0326057Y0204042D01*
Y0204442D01*
X0325657D01*
X0325257Y0204042D01*
X0324857Y0204442D01*
X0324457D01*
Y0204042D01*
X0324857Y0203642D01*
X0324457Y0203242D01*
Y0202842D01*
X0320520Y0188373D02*
X0320920D01*
X0321320Y0188773D01*
X0321720Y0188373D01*
X0322120D01*
Y0188773D01*
X0321720Y0189173D01*
X0322120Y0189573D01*
Y0189973D01*
X0321720D01*
X0321320Y0189573D01*
X0320920Y0189973D01*
X0320520D01*
Y0189573D01*
X0320920Y0189173D01*
X0320520Y0188773D01*
Y0188373D01*
X0329477Y0199102D02*
X0329877D01*
X0330277Y0199502D01*
X0330677Y0199102D01*
X0331077D01*
Y0199502D01*
X0330677Y0199902D01*
X0331077Y0200302D01*
Y0200702D01*
X0330677D01*
X0330277Y0200302D01*
X0329877Y0200702D01*
X0329477D01*
Y0200302D01*
X0329877Y0199902D01*
X0329477Y0199502D01*
Y0199102D01*
X0372193Y0208452D02*
X0372593D01*
X0372993Y0208852D01*
X0373393Y0208452D01*
X0373793D01*
Y0208852D01*
X0373393Y0209252D01*
X0373793Y0209652D01*
Y0210052D01*
X0373393D01*
X0372993Y0209652D01*
X0372593Y0210052D01*
X0372193D01*
Y0209652D01*
X0372593Y0209252D01*
X0372193Y0208852D01*
Y0208452D01*
X0353624Y0216424D02*
X0354024D01*
X0354424Y0216824D01*
X0354824Y0216424D01*
X0355224D01*
Y0216824D01*
X0354824Y0217224D01*
X0355224Y0217624D01*
Y0218024D01*
X0354824D01*
X0354424Y0217624D01*
X0354024Y0218024D01*
X0353624D01*
Y0217624D01*
X0354024Y0217224D01*
X0353624Y0216824D01*
Y0216424D01*
X0346111Y0161503D02*
X0346511D01*
X0346911Y0161903D01*
X0347311Y0161503D01*
X0347711D01*
Y0161903D01*
X0347311Y0162303D01*
X0347711Y0162703D01*
Y0163103D01*
X0347311D01*
X0346911Y0162703D01*
X0346511Y0163103D01*
X0346111D01*
Y0162703D01*
X0346511Y0162303D01*
X0346111Y0161903D01*
Y0161503D01*
Y0236109D02*
X0346511D01*
X0346911Y0236509D01*
X0347311Y0236109D01*
X0347711D01*
Y0236509D01*
X0347311Y0236910D01*
X0347711Y0237310D01*
Y0237709D01*
X0347311D01*
X0346911Y0237310D01*
X0346511Y0237709D01*
X0346111D01*
Y0237310D01*
X0346511Y0236910D01*
X0346111Y0236509D01*
Y0236109D01*
X0443111Y0209566D02*
X0442311Y0211166D01*
X0443911D01*
X0443111Y0209566D01*
X0433111D02*
X0432311Y0211166D01*
X0433911D01*
X0433111Y0209566D01*
X0453111D02*
X0452311Y0211166D01*
X0453911D01*
X0453111Y0209566D01*
X0438210Y0172822D02*
X0438610Y0173222D01*
X0439010D01*
X0438610Y0173622D01*
X0439010Y0174022D01*
X0438610D01*
X0438210Y0174422D01*
X0437810Y0174022D01*
X0437410D01*
X0437810Y0173622D01*
X0437410Y0173222D01*
X0437810D01*
X0438210Y0172822D01*
X0443210D02*
X0443610Y0173222D01*
X0444010D01*
X0443610Y0173622D01*
X0444010Y0174022D01*
X0443610D01*
X0443210Y0174422D01*
X0442810Y0174022D01*
X0442410D01*
X0442810Y0173622D01*
X0442410Y0173222D01*
X0442810D01*
X0443210Y0172822D01*
X0448210D02*
X0448610Y0173222D01*
X0449010D01*
X0448610Y0173622D01*
X0449010Y0174022D01*
X0448610D01*
X0448210Y0174422D01*
X0447810Y0174022D01*
X0447410D01*
X0447810Y0173622D01*
X0447410Y0173222D01*
X0447810D01*
X0448210Y0172822D01*
X0452331Y0164554D02*
X0452731Y0165354D01*
X0452331Y0166154D01*
X0453131Y0165754D01*
X0453931Y0166154D01*
X0453531Y0165354D01*
X0453931Y0164554D01*
X0453131Y0164954D01*
X0452331Y0164554D01*
X0432488D02*
X0432889Y0165354D01*
X0432488Y0166154D01*
X0433288Y0165754D01*
X0434089Y0166154D01*
X0433688Y0165354D01*
X0434089Y0164554D01*
X0433288Y0164954D01*
X0432488Y0164554D01*
X0448210Y0224791D02*
X0448610Y0225191D01*
X0449010D01*
X0448610Y0225591D01*
X0449010Y0225991D01*
X0448610D01*
X0448210Y0226391D01*
X0447810Y0225991D01*
X0447410D01*
X0447810Y0225591D01*
X0447410Y0225191D01*
X0447810D01*
X0448210Y0224791D01*
X0443210D02*
X0443610Y0225191D01*
X0444010D01*
X0443610Y0225591D01*
X0444010Y0225991D01*
X0443610D01*
X0443210Y0226391D01*
X0442810Y0225991D01*
X0442410D01*
X0442810Y0225591D01*
X0442410Y0225191D01*
X0442810D01*
X0443210Y0224791D01*
X0438210D02*
X0438610Y0225191D01*
X0439010D01*
X0438610Y0225591D01*
X0439010Y0225991D01*
X0438610D01*
X0438210Y0226391D01*
X0437810Y0225991D01*
X0437410D01*
X0437810Y0225591D01*
X0437410Y0225191D01*
X0437810D01*
X0438210Y0224791D01*
X0432488Y0233058D02*
X0432889Y0233858D01*
X0432488Y0234658D01*
X0433288Y0234258D01*
X0434089Y0234658D01*
X0433688Y0233858D01*
X0434089Y0233058D01*
X0433288Y0233458D01*
X0432488Y0233058D01*
X0452331D02*
X0452731Y0233858D01*
X0452331Y0234658D01*
X0453131Y0234258D01*
X0453931Y0234658D01*
X0453531Y0233858D01*
X0453931Y0233058D01*
X0453131Y0233458D01*
X0452331Y0233058D01*
X0472337Y0228734D02*
Y0228334D01*
X0473137D01*
Y0228734D01*
X0473537D01*
Y0229534D01*
X0473137D01*
Y0229934D01*
X0472337D01*
Y0229534D01*
X0471937D01*
Y0228734D01*
X0472337D01*
X0413282Y0169679D02*
Y0169279D01*
X0414082D01*
Y0169679D01*
X0414482D01*
Y0170479D01*
X0414082D01*
Y0170879D01*
X0413282D01*
Y0170479D01*
X0412882D01*
Y0169679D01*
X0413282D01*
Y0228734D02*
Y0228334D01*
X0414082D01*
Y0228734D01*
X0414482D01*
Y0229534D01*
X0414082D01*
Y0229934D01*
X0413282D01*
Y0229534D01*
X0412882D01*
Y0228734D01*
X0413282D01*
X0472337Y0169679D02*
Y0169279D01*
X0473137D01*
Y0169679D01*
X0473537D01*
Y0170479D01*
X0473137D01*
Y0170879D01*
X0472337D01*
Y0170479D01*
X0471937D01*
Y0169679D01*
X0472337D01*
X0462292Y0188472D02*
X0462692D01*
X0463092Y0188872D01*
X0463492Y0188472D01*
X0463892D01*
Y0188872D01*
X0463492Y0189272D01*
X0463892Y0189672D01*
Y0190072D01*
X0463492D01*
X0463092Y0189672D01*
X0462692Y0190072D01*
X0462292D01*
Y0189672D01*
X0462692Y0189272D01*
X0462292Y0188872D01*
Y0188472D01*
X0452431Y0188373D02*
X0452831D01*
X0453231Y0188773D01*
X0453631Y0188373D01*
X0454031D01*
Y0188773D01*
X0453631Y0189173D01*
X0454031Y0189573D01*
Y0189973D01*
X0453631D01*
X0453231Y0189573D01*
X0452831Y0189973D01*
X0452431D01*
Y0189573D01*
X0452831Y0189173D01*
X0452431Y0188773D01*
Y0188373D01*
X0456977Y0185027D02*
X0457377D01*
X0457777Y0185427D01*
X0458177Y0185027D01*
X0458577D01*
Y0185427D01*
X0458177Y0185827D01*
X0458577Y0186227D01*
Y0186627D01*
X0458177D01*
X0457777Y0186227D01*
X0457377Y0186627D01*
X0456977D01*
Y0186227D01*
X0457377Y0185827D01*
X0456977Y0185427D01*
Y0185027D01*
X0437685Y0185224D02*
X0438085D01*
X0438485Y0185624D01*
X0438885Y0185224D01*
X0439285D01*
Y0185624D01*
X0438885Y0186024D01*
X0439285Y0186424D01*
Y0186824D01*
X0438885D01*
X0438485Y0186424D01*
X0438085Y0186824D01*
X0437685D01*
Y0186424D01*
X0438085Y0186024D01*
X0437685Y0185624D01*
Y0185224D01*
X0420756Y0202842D02*
X0421156D01*
X0421556Y0203242D01*
X0421956Y0202842D01*
X0422356D01*
Y0203242D01*
X0421956Y0203642D01*
X0422356Y0204042D01*
Y0204442D01*
X0421956D01*
X0421556Y0204042D01*
X0421156Y0204442D01*
X0420756D01*
Y0204042D01*
X0421156Y0203642D01*
X0420756Y0203242D01*
Y0202842D01*
X0416819Y0188373D02*
X0417219D01*
X0417619Y0188773D01*
X0418019Y0188373D01*
X0418419D01*
Y0188773D01*
X0418019Y0189173D01*
X0418419Y0189573D01*
Y0189973D01*
X0418019D01*
X0417619Y0189573D01*
X0417219Y0189973D01*
X0416819D01*
Y0189573D01*
X0417219Y0189173D01*
X0416819Y0188773D01*
Y0188373D01*
X0425776Y0199102D02*
X0426176D01*
X0426576Y0199502D01*
X0426976Y0199102D01*
X0427376D01*
Y0199502D01*
X0426976Y0199902D01*
X0427376Y0200302D01*
Y0200702D01*
X0426976D01*
X0426576Y0200302D01*
X0426176Y0200702D01*
X0425776D01*
Y0200302D01*
X0426176Y0199902D01*
X0425776Y0199502D01*
Y0199102D01*
X0468493Y0208452D02*
X0468892D01*
X0469292Y0208852D01*
X0469693Y0208452D01*
X0470092D01*
Y0208852D01*
X0469693Y0209252D01*
X0470092Y0209652D01*
Y0210052D01*
X0469693D01*
X0469292Y0209652D01*
X0468892Y0210052D01*
X0468493D01*
Y0209652D01*
X0468892Y0209252D01*
X0468493Y0208852D01*
Y0208452D01*
X0449924Y0216424D02*
X0450323D01*
X0450724Y0216824D01*
X0451124Y0216424D01*
X0451523D01*
Y0216824D01*
X0451124Y0217224D01*
X0451523Y0217624D01*
Y0218024D01*
X0451124D01*
X0450724Y0217624D01*
X0450323Y0218024D01*
X0449924D01*
Y0217624D01*
X0450323Y0217224D01*
X0449924Y0216824D01*
Y0216424D01*
X0442410Y0161503D02*
X0442810D01*
X0443210Y0161903D01*
X0443610Y0161503D01*
X0444010D01*
Y0161903D01*
X0443610Y0162303D01*
X0444010Y0162703D01*
Y0163103D01*
X0443610D01*
X0443210Y0162703D01*
X0442810Y0163103D01*
X0442410D01*
Y0162703D01*
X0442810Y0162303D01*
X0442410Y0161903D01*
Y0161503D01*
Y0236109D02*
X0442810D01*
X0443210Y0236509D01*
X0443610Y0236109D01*
X0444010D01*
Y0236509D01*
X0443610Y0236910D01*
X0444010Y0237310D01*
Y0237709D01*
X0443610D01*
X0443210Y0237310D01*
X0442810Y0237709D01*
X0442410D01*
Y0237310D01*
X0442810Y0236910D01*
X0442410Y0236509D01*
Y0236109D01*
D65*
X0299324Y0132874D02*
G03*
X0299324Y0132874I-0000800J0000000D01*
G01*
X0203064D02*
G03*
X0203064Y0132874I-0000800J0000000D01*
G01*
X0509855Y0274016D02*
G03*
X0509855Y0274016I-0000800J0000000D01*
G01*
Y-0007874D02*
G03*
X0509855Y-0007874I-0000800J0000000D01*
G01*
X-0007074Y0274016D02*
G03*
X-0007074Y0274016I-0000800J0000000D01*
G01*
Y-0007874D02*
G03*
X-0007074Y-0007874I-0000800J0000000D01*
G01*
M02*
