G04*
G04 #@! TF.GenerationSoftware,Altium Limited,Altium Designer,21.5.1 (32)*
G04*
G04 Layer_Color=16711935*
%FSAX25Y25*%
%MOIN*%
G70*
G04*
G04 #@! TF.SameCoordinates,4E6474E7-3770-4CE9-8705-8CFC98EF6C10*
G04*
G04*
G04 #@! TF.FilePolarity,Negative*
G04*
G01*
G75*
%ADD12C,0.00787*%
%ADD53C,0.00591*%
G04:AMPARAMS|DCode=54|XSize=5.91mil|YSize=5.91mil|CornerRadius=0mil|HoleSize=0mil|Usage=FLASHONLY|Rotation=180.000|XOffset=0mil|YOffset=0mil|HoleType=Round|Shape=RoundedRectangle|*
%AMROUNDEDRECTD54*
21,1,0.00591,0.00591,0,0,180.0*
21,1,0.00591,0.00591,0,0,180.0*
1,1,0.00000,-0.00295,0.00295*
1,1,0.00000,0.00295,0.00295*
1,1,0.00000,0.00295,-0.00295*
1,1,0.00000,-0.00295,-0.00295*
%
%ADD54ROUNDEDRECTD54*%
G04:AMPARAMS|DCode=55|XSize=49.21mil|YSize=92.52mil|CornerRadius=22.44mil|HoleSize=0mil|Usage=FLASHONLY|Rotation=180.000|XOffset=0mil|YOffset=0mil|HoleType=Round|Shape=RoundedRectangle|*
%AMROUNDEDRECTD55*
21,1,0.04921,0.04764,0,0,180.0*
21,1,0.00433,0.09252,0,0,180.0*
1,1,0.04488,-0.00217,0.02382*
1,1,0.04488,0.00217,0.02382*
1,1,0.04488,0.00217,-0.02382*
1,1,0.04488,-0.00217,-0.02382*
%
%ADD55ROUNDEDRECTD55*%
G04:AMPARAMS|DCode=56|XSize=49.21mil|YSize=72.84mil|CornerRadius=22.44mil|HoleSize=0mil|Usage=FLASHONLY|Rotation=180.000|XOffset=0mil|YOffset=0mil|HoleType=Round|Shape=RoundedRectangle|*
%AMROUNDEDRECTD56*
21,1,0.04921,0.02795,0,0,180.0*
21,1,0.00433,0.07284,0,0,180.0*
1,1,0.04488,-0.00217,0.01398*
1,1,0.04488,0.00217,0.01398*
1,1,0.04488,0.00217,-0.01398*
1,1,0.04488,-0.00217,-0.01398*
%
%ADD56ROUNDEDRECTD56*%
%ADD57C,0.12205*%
%ADD58C,0.04961*%
%ADD59R,0.04961X0.04961*%
G04:AMPARAMS|DCode=73|XSize=35.43mil|YSize=135.83mil|CornerRadius=13.82mil|HoleSize=0mil|Usage=FLASHONLY|Rotation=180.000|XOffset=0mil|YOffset=0mil|HoleType=Round|Shape=RoundedRectangle|*
%AMROUNDEDRECTD73*
21,1,0.03543,0.10819,0,0,180.0*
21,1,0.00780,0.13583,0,0,180.0*
1,1,0.02764,-0.00390,0.05409*
1,1,0.02764,0.00390,0.05409*
1,1,0.02764,0.00390,-0.05409*
1,1,0.02764,-0.00390,-0.05409*
%
%ADD73ROUNDEDRECTD73*%
G04:AMPARAMS|DCode=74|XSize=35.43mil|YSize=116.14mil|CornerRadius=13.82mil|HoleSize=0mil|Usage=FLASHONLY|Rotation=180.000|XOffset=0mil|YOffset=0mil|HoleType=Round|Shape=RoundedRectangle|*
%AMROUNDEDRECTD74*
21,1,0.03543,0.08850,0,0,180.0*
21,1,0.00780,0.11614,0,0,180.0*
1,1,0.02764,-0.00390,0.04425*
1,1,0.02764,0.00390,0.04425*
1,1,0.02764,0.00390,-0.04425*
1,1,0.02764,-0.00390,-0.04425*
%
%ADD74ROUNDEDRECTD74*%
%ADD76C,0.04331*%
D12*
X-0017715Y0079726D02*
G03*
X-0021654Y0075787I0000000J-0003938D01*
G01*
X-0034152Y-0037918D02*
G03*
X-0037374Y-0043632I0004625J-0006373D01*
G01*
X0016811Y-0044291D02*
G03*
X0012874Y-0048228I0000000J-0003937D01*
G01*
X0021654Y0075787D02*
G03*
X0017715Y0079726I-0003938J0000000D01*
G01*
X0034152Y0037918D02*
G03*
X0032640Y0033797I0002312J-0003187D01*
G01*
X-0034152Y-0037918D02*
G03*
X-0032640Y-0033797I-0002312J0003187D01*
G01*
X0009729Y-0067323D02*
G03*
X0012874Y-0064177I0000000J0003145D01*
G01*
X0032640Y-0033797D02*
G03*
X0034152Y-0037918I0003824J-0000935D01*
G01*
X-0012874Y-0064177D02*
G03*
X-0009729Y-0067323I0003145J0000000D01*
G01*
X-0032640Y0033797D02*
G03*
X-0034152Y0037918I-0003824J0000935D01*
G01*
X0037367Y-0043558D02*
G03*
X0034152Y-0037918I-0007840J-0000734D01*
G01*
X-0029035Y0052150D02*
G03*
X-0034152Y0037918I-0000493J-0007859D01*
G01*
X-0012874Y-0048228D02*
G03*
X-0016811Y-0044291I-0003937J0000000D01*
G01*
X0021654Y0059953D02*
G03*
X0028362Y0052165I0007874J0000000D01*
G01*
X-0029035Y0052150D02*
G03*
X-0028362Y0052165I0000246J0003929D01*
G01*
X0022104Y-0046916D02*
G03*
X0037367Y-0043560I0007423J0002625D01*
G01*
X-0018392Y-0044291D02*
G03*
X-0022104Y-0046916I0000000J-0003937D01*
G01*
X0028362Y0052165D02*
G03*
X0029035Y0052150I0000426J0003914D01*
G01*
X0022104Y-0046916D02*
G03*
X0018392Y-0044291I-0003712J-0001312D01*
G01*
X-0037374Y-0043633D02*
G03*
X-0022104Y-0046916I0007846J-0000658D01*
G01*
X0034152Y0037918D02*
G03*
X0029035Y0052150I-0004625J0006373D01*
G01*
X-0028362Y0052165D02*
G03*
X-0021654Y0059953I-0001165J0007787D01*
G01*
Y0075787D01*
X0033507Y0029989D02*
X0033641Y0029344D01*
X-0033507Y0029989D02*
X-0033370Y0030630D01*
X0034269Y0026086D02*
X0034386Y0025428D01*
X-0034269Y0026086D02*
X-0034150Y0026743D01*
X0034924Y0022102D02*
X0035023Y0021431D01*
X0035118Y0020759D01*
X-0034924Y0022102D02*
X-0034823Y0022772D01*
X-0035840Y0014628D02*
X-0035773Y0015315D01*
X0036227Y0009787D02*
X0036270Y0009091D01*
X-0036182Y0010482D02*
X-0036133Y0011175D01*
X0036437Y0005603D02*
X0036461Y0004904D01*
X-0036410Y0006302D02*
X-0036380Y0007000D01*
X0036532Y0001402D02*
X0036537Y0000701D01*
X-0036524Y0002103D02*
X-0036513Y0002804D01*
X0036499Y-0003504D02*
X0036513Y-0002804D01*
X0036132Y-0011175D02*
X0036182Y-0010482D01*
X-0036228Y-0009787D02*
X-0036182Y-0010482D01*
X0035772Y-0015315D02*
X0035840Y-0014628D01*
X-0035905Y-0013940D02*
X-0035840Y-0014628D01*
X0035300Y-0019407D02*
X0035387Y-0018729D01*
X-0035470Y-0018049D02*
X-0035387Y-0018729D01*
X0034610Y-0024104D02*
X0034718Y-0023439D01*
X0033229Y-0031269D02*
X0033370Y-0030630D01*
X-0033641Y-0029344D02*
X-0033507Y-0029989D01*
X-0032792Y-0033169D02*
X-0032640Y-0033797D01*
X0016811Y-0044291D02*
X0018392D01*
X0032792Y0033169D02*
X0032940Y0032539D01*
X0033641Y0029344D02*
X0033773Y0028698D01*
X-0033370Y0030630D02*
X-0033230Y0031269D01*
X0034386Y0025428D02*
X0034500Y0024767D01*
X-0034150Y0026743D02*
X-0034027Y0027397D01*
X-0034823Y0022772D02*
X-0034718Y0023439D01*
X0035550Y0017368D02*
X0035627Y0016685D01*
X-0035387Y0018729D02*
X-0035301Y0019407D01*
X0035967Y0013250D02*
X0036025Y0012560D01*
X0036270Y0009091D02*
X0036310Y0008395D01*
X-0036380Y0007000D02*
X-0036346Y0007698D01*
X0036461Y0004904D02*
X0036481Y0004204D01*
X-0036513Y0002804D02*
X-0036499Y0003504D01*
X-0036537Y-0000701D02*
X-0036532Y-0001402D01*
X0036346Y-0007698D02*
X0036380Y-0007000D01*
X-0036461Y-0004904D02*
X-0036437Y-0005603D01*
X0036080Y-0011868D02*
X0036132Y-0011175D01*
X0035701Y-0016001D02*
X0035772Y-0015315D01*
X-0035967Y-0013250D02*
X-0035905Y-0013940D01*
X0035211Y-0020084D02*
X0035300Y-0019407D01*
X-0035550Y-0017368D02*
X-0035470Y-0018049D01*
X-0035023Y-0021431D02*
X-0034924Y-0022102D01*
X0033901Y-0028048D02*
X0034027Y-0027397D01*
X-0034386Y-0025428D02*
X-0034269Y-0026086D01*
X0033086Y-0031905D02*
X0033229Y-0031269D01*
X-0032941Y-0032539D02*
X-0032792Y-0033169D01*
X0012874Y-0064177D02*
Y-0048228D01*
X-0017715Y0079724D02*
X0017715D01*
X0032940Y0032539D02*
X0033086Y0031905D01*
X0033773Y0028698D02*
X0033901Y0028048D01*
X-0034718Y0023439D02*
X-0034610Y0024104D01*
X0035118Y0020759D02*
X0035211Y0020084D01*
X-0035301Y0019407D02*
X-0035211Y0020084D01*
X0035627Y0016685D02*
X0035701Y0016001D01*
X-0035773Y0015315D02*
X-0035702Y0016001D01*
X0036025Y0012560D02*
X0036080Y0011868D01*
X-0036133Y0011175D02*
X-0036081Y0011868D01*
X0036310Y0008395D02*
X0036346Y0007698D01*
X-0036499Y0003504D02*
X-0036481Y0004204D01*
X0036537Y0000701D02*
X0036538Y0000000D01*
X-0036538D02*
X-0036537Y-0000701D01*
X0036481Y-0004204D02*
X0036499Y-0003504D01*
X-0036481Y-0004204D02*
X-0036461Y-0004904D01*
X0036310Y-0008395D02*
X0036346Y-0007698D01*
X-0036270Y-0009091D02*
X-0036228Y-0009787D01*
X0036025Y-0012560D02*
X0036080Y-0011868D01*
X-0035628Y-0016685D02*
X-0035550Y-0017368D01*
X-0035119Y-0020759D02*
X-0035023Y-0021431D01*
X0034500Y-0024767D02*
X0034610Y-0024104D01*
X-0034500Y-0024767D02*
X-0034386Y-0025428D01*
X0033773Y-0028698D02*
X0033901Y-0028048D01*
X-0033773Y-0028698D02*
X-0033641Y-0029344D01*
X0032940Y-0032539D02*
X0033086Y-0031905D01*
X0021654Y0059953D02*
Y0075787D01*
X-0033230Y0031269D02*
X-0033086Y0031905D01*
X-0034027Y0027397D02*
X-0033902Y0028048D01*
X0034500Y0024767D02*
X0034610Y0024104D01*
X0035211Y0020084D02*
X0035300Y0019407D01*
X-0035211Y0020084D02*
X-0035119Y0020759D01*
X0035701Y0016001D02*
X0035772Y0015315D01*
X-0035702Y0016001D02*
X-0035628Y0016685D01*
X-0036081Y0011868D02*
X-0036025Y0012560D01*
X-0036346Y0007698D02*
X-0036310Y0008395D01*
X0036481Y0004204D02*
X0036499Y0003504D01*
X0036537Y-0000701D02*
X0036538Y0000000D01*
X0036461Y-0004904D02*
X0036481Y-0004204D01*
X-0036499Y-0003504D02*
X-0036481Y-0004204D01*
X0036270Y-0009091D02*
X0036310Y-0008395D01*
X-0036310D02*
X-0036270Y-0009091D01*
X-0036025Y-0012560D02*
X-0035967Y-0013250D01*
X0035627Y-0016685D02*
X0035701Y-0016001D01*
X0035118Y-0020759D02*
X0035211Y-0020084D01*
X0034386Y-0025428D02*
X0034500Y-0024767D01*
X-0034610Y-0024104D02*
X-0034500Y-0024767D01*
X0033641Y-0029344D02*
X0033773Y-0028698D01*
X-0033902Y-0028048D02*
X-0033773Y-0028698D01*
X-0033086Y-0031905D02*
X-0032941Y-0032539D01*
X-0009729Y-0067323D02*
X0009729D01*
X0033086Y0031905D02*
X0033229Y0031269D01*
X-0033086Y0031905D02*
X-0032941Y0032539D01*
X0033901Y0028048D02*
X0034027Y0027397D01*
X-0033902Y0028048D02*
X-0033773Y0028698D01*
X0034610Y0024104D02*
X0034718Y0023439D01*
X-0034610Y0024104D02*
X-0034500Y0024767D01*
X0035300Y0019407D02*
X0035387Y0018729D01*
X0036080Y0011868D02*
X0036132Y0011175D01*
X-0036025Y0012560D02*
X-0035967Y0013250D01*
X0036346Y0007698D02*
X0036380Y0007000D01*
X-0036310Y0008395D02*
X-0036270Y0009091D01*
X0036499Y0003504D02*
X0036513Y0002804D01*
X-0036481Y0004204D02*
X-0036461Y0004904D01*
X0036532Y-0001402D02*
X0036537Y-0000701D01*
X-0036538Y0000000D02*
X-0036537Y0000701D01*
X-0036346Y-0007698D02*
X-0036310Y-0008395D01*
X0035967Y-0013250D02*
X0036025Y-0012560D01*
X-0036081Y-0011868D02*
X-0036025Y-0012560D01*
X0035550Y-0017368D02*
X0035627Y-0016685D01*
X-0035702Y-0016001D02*
X-0035628Y-0016685D01*
X0035023Y-0021431D02*
X0035118Y-0020759D01*
X-0035211Y-0020084D02*
X-0035119Y-0020759D01*
X-0034027Y-0027397D02*
X-0033902Y-0028048D01*
X0032792Y-0033169D02*
X0032940Y-0032539D01*
X-0033230Y-0031269D02*
X-0033086Y-0031905D01*
X-0012874Y-0064177D02*
Y-0048228D01*
X0033229Y0031269D02*
X0033370Y0030630D01*
X0034027Y0027397D02*
X0034150Y0026743D01*
X-0033773Y0028698D02*
X-0033641Y0029344D01*
X0034718Y0023439D02*
X0034823Y0022772D01*
X-0034500Y0024767D02*
X-0034386Y0025428D01*
X-0035119Y0020759D02*
X-0035023Y0021431D01*
X0035772Y0015315D02*
X0035840Y0014628D01*
X-0035628Y0016685D02*
X-0035550Y0017368D01*
X0036132Y0011175D02*
X0036182Y0010482D01*
X-0036270Y0009091D02*
X-0036228Y0009787D01*
X0036380Y0007000D02*
X0036410Y0006302D01*
X-0036461Y0004904D02*
X-0036437Y0005603D01*
X0036513Y0002804D02*
X0036524Y0002103D01*
X-0036537Y0000701D02*
X-0036532Y0001402D01*
X0036437Y-0005603D02*
X0036461Y-0004904D01*
X-0036513Y-0002804D02*
X-0036499Y-0003504D01*
X0036227Y-0009787D02*
X0036270Y-0009091D01*
X0035905Y-0013940D02*
X0035967Y-0013250D01*
X-0036133Y-0011175D02*
X-0036081Y-0011868D01*
X0035470Y-0018049D02*
X0035550Y-0017368D01*
X-0035773Y-0015315D02*
X-0035702Y-0016001D01*
X-0035301Y-0019407D02*
X-0035211Y-0020084D01*
X0034269Y-0026086D02*
X0034386Y-0025428D01*
X-0034718Y-0023439D02*
X-0034610Y-0024104D01*
X0033507Y-0029989D02*
X0033641Y-0029344D01*
X0032640Y-0033797D02*
X0032792Y-0033169D01*
X-0018392Y-0044291D02*
X-0016811D01*
X-0032941Y0032539D02*
X-0032792Y0033169D01*
X0033370Y0030630D02*
X0033507Y0029989D01*
X-0034386Y0025428D02*
X-0034269Y0026086D01*
X-0035023Y0021431D02*
X-0034924Y0022102D01*
X0035387Y0018729D02*
X0035470Y0018049D01*
X-0035550Y0017368D02*
X-0035470Y0018049D01*
X0035840Y0014628D02*
X0035905Y0013940D01*
X-0035967Y0013250D02*
X-0035905Y0013940D01*
X0036182Y0010482D02*
X0036227Y0009787D01*
X-0036532Y0001402D02*
X-0036524Y0002103D01*
X0036524Y-0002103D02*
X0036532Y-0001402D01*
X-0036524Y-0002103D02*
X-0036513Y-0002804D01*
X0036410Y-0006302D02*
X0036437Y-0005603D01*
X-0036410Y-0006302D02*
X-0036380Y-0007000D01*
X-0036346Y-0007698D01*
X0036182Y-0010482D02*
X0036227Y-0009787D01*
X0035840Y-0014628D02*
X0035905Y-0013940D01*
X-0035387Y-0018729D02*
X-0035301Y-0019407D01*
X0034924Y-0022102D02*
X0035023Y-0021431D01*
X-0034823Y-0022772D02*
X-0034718Y-0023439D01*
X0034150Y-0026743D02*
X0034269Y-0026086D01*
X-0034150Y-0026743D02*
X-0034027Y-0027397D01*
X0033370Y-0030630D02*
X0033507Y-0029989D01*
X-0033370Y-0030630D02*
X-0033230Y-0031269D01*
X0037367Y-0043560D02*
Y-0043558D01*
X0032640Y0033797D02*
X0032792Y0033169D01*
X-0032792D02*
X-0032640Y0033797D01*
X-0033641Y0029344D02*
X-0033507Y0029989D01*
X0034150Y0026743D02*
X0034269Y0026086D01*
X0034823Y0022772D02*
X0034924Y0022102D01*
X0035470Y0018049D02*
X0035550Y0017368D01*
X-0035470Y0018049D02*
X-0035387Y0018729D01*
X0035905Y0013940D02*
X0035967Y0013250D01*
X-0035905Y0013940D02*
X-0035840Y0014628D01*
X-0036228Y0009787D02*
X-0036182Y0010482D01*
X0036410Y0006302D02*
X0036437Y0005603D01*
X-0036437D02*
X-0036410Y0006302D01*
X0036524Y0002103D02*
X0036532Y0001402D01*
X0036513Y-0002804D02*
X0036524Y-0002103D01*
X-0036532Y-0001402D02*
X-0036524Y-0002103D01*
X0036380Y-0007000D02*
X0036410Y-0006302D01*
X-0036437Y-0005603D02*
X-0036410Y-0006302D01*
X-0036182Y-0010482D02*
X-0036133Y-0011175D01*
X-0035840Y-0014628D02*
X-0035773Y-0015315D01*
X0035387Y-0018729D02*
X0035470Y-0018049D01*
X0034823Y-0022772D02*
X0034924Y-0022102D01*
X0034718Y-0023439D02*
X0034823Y-0022772D01*
X-0034924Y-0022102D02*
X-0034823Y-0022772D01*
X0034027Y-0027397D02*
X0034150Y-0026743D01*
X-0034269Y-0026086D02*
X-0034150Y-0026743D01*
X-0033507Y-0029989D02*
X-0033370Y-0030630D01*
X-0037374Y-0043633D02*
Y-0043632D01*
D53*
X-0011378Y0059035D02*
D03*
X0009921Y-0054724D02*
D03*
X-0009921D02*
D03*
D54*
X0011378Y0059035D02*
D03*
D55*
X-0017008Y0056949D02*
D03*
X0017008D02*
D03*
D56*
X-0017008Y0073405D02*
D03*
X0017008D02*
D03*
D57*
X0029528Y0044291D02*
D03*
Y-0044291D02*
D03*
X-0029528D02*
D03*
Y0044291D02*
D03*
D58*
X-0026555Y0018608D02*
D03*
Y0012008D02*
D03*
X-0031555D02*
D03*
X-0021555Y0018608D02*
D03*
D59*
Y0012008D02*
D03*
D73*
X0000000Y-0057776D02*
D03*
X-0005000D02*
D03*
D74*
X0005000Y-0056791D02*
D03*
D76*
X-0005000Y-0046457D02*
D03*
X0000000D02*
D03*
X0005000D02*
D03*
M02*
