G04*
G04 #@! TF.GenerationSoftware,Altium Limited,Altium Designer,21.9.2 (33)*
G04*
G04 Layer_Color=65535*
%FSAX25Y25*%
%MOIN*%
G70*
G04*
G04 #@! TF.SameCoordinates,B38DDDDE-E499-4E20-BA9E-D90CFE60B386*
G04*
G04*
G04 #@! TF.FilePolarity,Positive*
G04*
G01*
G75*
%ADD10C,0.01181*%
%ADD11C,0.00984*%
%ADD12C,0.00787*%
%ADD13C,0.00394*%
G36*
X0072142Y0146274D02*
X0072167D01*
X0072223Y0146249D01*
X0072254Y0146231D01*
X0072285Y0146206D01*
X0072291Y0146200D01*
X0072297Y0146194D01*
X0072328Y0146157D01*
X0072353Y0146095D01*
X0072359Y0146057D01*
X0072365Y0146020D01*
Y0146014D01*
Y0146002D01*
X0072359Y0145983D01*
X0072353Y0145958D01*
X0072334Y0145897D01*
X0072309Y0145866D01*
X0072285Y0145835D01*
X0072278D01*
X0072272Y0145822D01*
X0072235Y0145798D01*
X0072179Y0145773D01*
X0072142Y0145767D01*
X0072105Y0145760D01*
X0072086D01*
X0072068Y0145767D01*
X0072043D01*
X0071981Y0145791D01*
X0071950Y0145804D01*
X0071919Y0145828D01*
Y0145835D01*
X0071907Y0145841D01*
X0071895Y0145860D01*
X0071882Y0145878D01*
X0071857Y0145940D01*
X0071851Y0145977D01*
X0071845Y0146020D01*
Y0146027D01*
Y0146039D01*
X0071851Y0146057D01*
X0071857Y0146089D01*
X0071876Y0146144D01*
X0071895Y0146175D01*
X0071919Y0146206D01*
X0071925Y0146212D01*
X0071932Y0146219D01*
X0071969Y0146243D01*
X0072031Y0146268D01*
X0072068Y0146280D01*
X0072124D01*
X0072142Y0146274D01*
D02*
G37*
G36*
X0060152Y0142610D02*
X0059750D01*
Y0143031D01*
X0059737D01*
Y0143024D01*
X0059725Y0143012D01*
X0059706Y0142987D01*
X0059688Y0142956D01*
X0059657Y0142919D01*
X0059620Y0142882D01*
X0059576Y0142839D01*
X0059527Y0142795D01*
X0059471Y0142746D01*
X0059403Y0142703D01*
X0059335Y0142665D01*
X0059255Y0142628D01*
X0059174Y0142597D01*
X0059081Y0142573D01*
X0058982Y0142560D01*
X0058877Y0142554D01*
X0058834D01*
X0058797Y0142560D01*
X0058759Y0142566D01*
X0058710Y0142573D01*
X0058605Y0142597D01*
X0058481Y0142634D01*
X0058357Y0142696D01*
X0058289Y0142734D01*
X0058233Y0142777D01*
X0058171Y0142833D01*
X0058116Y0142888D01*
Y0142894D01*
X0058103Y0142907D01*
X0058091Y0142925D01*
X0058072Y0142950D01*
X0058054Y0142981D01*
X0058029Y0143024D01*
X0058004Y0143074D01*
X0057979Y0143130D01*
X0057948Y0143192D01*
X0057924Y0143260D01*
X0057899Y0143334D01*
X0057880Y0143414D01*
X0057862Y0143501D01*
X0057849Y0143600D01*
X0057843Y0143699D01*
X0057837Y0143804D01*
Y0143811D01*
Y0143829D01*
Y0143866D01*
X0057843Y0143910D01*
X0057849Y0143959D01*
X0057856Y0144021D01*
X0057862Y0144089D01*
X0057874Y0144163D01*
X0057911Y0144324D01*
X0057967Y0144492D01*
X0058004Y0144572D01*
X0058047Y0144652D01*
X0058091Y0144727D01*
X0058147Y0144801D01*
X0058153Y0144807D01*
X0058159Y0144819D01*
X0058178Y0144838D01*
X0058202Y0144863D01*
X0058233Y0144888D01*
X0058276Y0144919D01*
X0058320Y0144956D01*
X0058369Y0144993D01*
X0058493Y0145061D01*
X0058636Y0145123D01*
X0058716Y0145141D01*
X0058803Y0145160D01*
X0058889Y0145172D01*
X0058988Y0145179D01*
X0059038D01*
X0059075Y0145172D01*
X0059112Y0145166D01*
X0059162Y0145160D01*
X0059273Y0145129D01*
X0059397Y0145080D01*
X0059459Y0145049D01*
X0059521Y0145005D01*
X0059583Y0144962D01*
X0059638Y0144906D01*
X0059688Y0144844D01*
X0059737Y0144770D01*
X0059750D01*
Y0146330D01*
X0060152D01*
Y0142610D01*
D02*
G37*
G36*
X0074420Y0145172D02*
X0074494Y0145166D01*
X0074587Y0145148D01*
X0074686Y0145117D01*
X0074792Y0145067D01*
X0074897Y0144999D01*
X0074940Y0144962D01*
X0074983Y0144912D01*
X0074996Y0144900D01*
X0075020Y0144863D01*
X0075051Y0144801D01*
X0075095Y0144714D01*
X0075132Y0144609D01*
X0075169Y0144479D01*
X0075194Y0144324D01*
X0075200Y0144145D01*
Y0142610D01*
X0074798D01*
Y0144040D01*
Y0144046D01*
Y0144077D01*
X0074792Y0144114D01*
Y0144163D01*
X0074779Y0144225D01*
X0074767Y0144293D01*
X0074748Y0144368D01*
X0074723Y0144442D01*
X0074692Y0144516D01*
X0074655Y0144584D01*
X0074606Y0144652D01*
X0074550Y0144714D01*
X0074488Y0144764D01*
X0074408Y0144801D01*
X0074321Y0144832D01*
X0074216Y0144838D01*
X0074203D01*
X0074166Y0144832D01*
X0074111Y0144826D01*
X0074042Y0144807D01*
X0073962Y0144782D01*
X0073875Y0144739D01*
X0073795Y0144683D01*
X0073714Y0144609D01*
X0073708Y0144597D01*
X0073684Y0144572D01*
X0073652Y0144522D01*
X0073615Y0144454D01*
X0073578Y0144374D01*
X0073547Y0144275D01*
X0073523Y0144163D01*
X0073516Y0144040D01*
Y0142610D01*
X0073114D01*
Y0145123D01*
X0073516D01*
Y0144702D01*
X0073529D01*
X0073535Y0144708D01*
X0073541Y0144720D01*
X0073560Y0144745D01*
X0073584Y0144776D01*
X0073609Y0144813D01*
X0073646Y0144851D01*
X0073690Y0144894D01*
X0073739Y0144943D01*
X0073795Y0144987D01*
X0073857Y0145030D01*
X0073925Y0145067D01*
X0073999Y0145104D01*
X0074073Y0145135D01*
X0074160Y0145160D01*
X0074253Y0145172D01*
X0074352Y0145179D01*
X0074389D01*
X0074420Y0145172D01*
D02*
G37*
G36*
X0057422Y0145160D02*
X0057497Y0145154D01*
X0057540Y0145141D01*
X0057571Y0145129D01*
Y0144714D01*
X0057565Y0144720D01*
X0057552Y0144727D01*
X0057528Y0144739D01*
X0057497Y0144758D01*
X0057453Y0144770D01*
X0057398Y0144782D01*
X0057336Y0144789D01*
X0057268Y0144795D01*
X0057255D01*
X0057224Y0144789D01*
X0057175Y0144782D01*
X0057119Y0144764D01*
X0057045Y0144733D01*
X0056977Y0144690D01*
X0056902Y0144628D01*
X0056834Y0144547D01*
X0056828Y0144535D01*
X0056810Y0144504D01*
X0056779Y0144448D01*
X0056748Y0144374D01*
X0056717Y0144281D01*
X0056686Y0144163D01*
X0056667Y0144033D01*
X0056661Y0143885D01*
Y0142610D01*
X0056259D01*
Y0145123D01*
X0056661D01*
Y0144603D01*
X0056673D01*
Y0144609D01*
X0056679Y0144615D01*
X0056692Y0144646D01*
X0056710Y0144696D01*
X0056741Y0144758D01*
X0056772Y0144819D01*
X0056822Y0144888D01*
X0056871Y0144956D01*
X0056933Y0145018D01*
X0056940Y0145024D01*
X0056964Y0145042D01*
X0057001Y0145067D01*
X0057051Y0145092D01*
X0057107Y0145117D01*
X0057175Y0145141D01*
X0057249Y0145160D01*
X0057329Y0145166D01*
X0057385D01*
X0057422Y0145160D01*
D02*
G37*
G36*
X0068162Y0142610D02*
X0067760D01*
Y0143006D01*
X0067747D01*
Y0143000D01*
X0067735Y0142987D01*
X0067722Y0142963D01*
X0067698Y0142938D01*
X0067642Y0142864D01*
X0067555Y0142783D01*
X0067506Y0142740D01*
X0067450Y0142696D01*
X0067388Y0142659D01*
X0067314Y0142622D01*
X0067240Y0142597D01*
X0067159Y0142573D01*
X0067066Y0142560D01*
X0066974Y0142554D01*
X0066936D01*
X0066893Y0142560D01*
X0066831Y0142573D01*
X0066763Y0142585D01*
X0066689Y0142610D01*
X0066608Y0142641D01*
X0066528Y0142690D01*
X0066441Y0142746D01*
X0066361Y0142814D01*
X0066286Y0142901D01*
X0066218Y0143006D01*
X0066156Y0143123D01*
X0066113Y0143266D01*
X0066088Y0143433D01*
X0066076Y0143520D01*
Y0143619D01*
Y0145123D01*
X0066472D01*
Y0143681D01*
Y0143674D01*
Y0143650D01*
X0066478Y0143606D01*
X0066484Y0143557D01*
X0066491Y0143495D01*
X0066503Y0143433D01*
X0066522Y0143359D01*
X0066546Y0143284D01*
X0066584Y0143210D01*
X0066621Y0143142D01*
X0066670Y0143074D01*
X0066732Y0143012D01*
X0066800Y0142963D01*
X0066881Y0142925D01*
X0066980Y0142894D01*
X0067085Y0142888D01*
X0067097D01*
X0067134Y0142894D01*
X0067190Y0142901D01*
X0067252Y0142913D01*
X0067333Y0142944D01*
X0067413Y0142981D01*
X0067493Y0143031D01*
X0067568Y0143105D01*
X0067574Y0143117D01*
X0067599Y0143142D01*
X0067630Y0143192D01*
X0067667Y0143260D01*
X0067698Y0143340D01*
X0067729Y0143439D01*
X0067753Y0143551D01*
X0067760Y0143674D01*
Y0145123D01*
X0068162D01*
Y0142610D01*
D02*
G37*
G36*
X0072297D02*
X0071895D01*
Y0145123D01*
X0072297D01*
Y0142610D01*
D02*
G37*
G36*
X0071078D02*
X0070675D01*
Y0146330D01*
X0071078D01*
Y0142610D01*
D02*
G37*
G36*
X0054699Y0145172D02*
X0054754Y0145166D01*
X0054822Y0145148D01*
X0054897Y0145129D01*
X0054977Y0145098D01*
X0055064Y0145061D01*
X0055144Y0145011D01*
X0055225Y0144949D01*
X0055299Y0144875D01*
X0055367Y0144782D01*
X0055423Y0144677D01*
X0055466Y0144553D01*
X0055491Y0144411D01*
X0055503Y0144244D01*
Y0142610D01*
X0055101D01*
Y0143000D01*
X0055089D01*
Y0142993D01*
X0055076Y0142981D01*
X0055064Y0142956D01*
X0055039Y0142932D01*
X0054977Y0142857D01*
X0054897Y0142777D01*
X0054785Y0142696D01*
X0054655Y0142622D01*
X0054575Y0142597D01*
X0054495Y0142573D01*
X0054408Y0142560D01*
X0054315Y0142554D01*
X0054278D01*
X0054253Y0142560D01*
X0054185Y0142566D01*
X0054105Y0142579D01*
X0054005Y0142604D01*
X0053913Y0142634D01*
X0053814Y0142684D01*
X0053727Y0142746D01*
X0053721Y0142758D01*
X0053696Y0142783D01*
X0053659Y0142826D01*
X0053622Y0142888D01*
X0053584Y0142963D01*
X0053547Y0143049D01*
X0053523Y0143154D01*
X0053516Y0143272D01*
Y0143278D01*
Y0143303D01*
X0053523Y0143340D01*
X0053529Y0143384D01*
X0053541Y0143439D01*
X0053560Y0143501D01*
X0053584Y0143569D01*
X0053622Y0143637D01*
X0053665Y0143711D01*
X0053721Y0143786D01*
X0053789Y0143854D01*
X0053869Y0143916D01*
X0053962Y0143978D01*
X0054074Y0144027D01*
X0054197Y0144064D01*
X0054346Y0144095D01*
X0055101Y0144201D01*
Y0144207D01*
Y0144225D01*
X0055095Y0144262D01*
Y0144300D01*
X0055082Y0144349D01*
X0055076Y0144405D01*
X0055039Y0144522D01*
X0055008Y0144578D01*
X0054977Y0144634D01*
X0054934Y0144690D01*
X0054884Y0144739D01*
X0054822Y0144782D01*
X0054754Y0144813D01*
X0054674Y0144832D01*
X0054581Y0144838D01*
X0054538D01*
X0054507Y0144832D01*
X0054463D01*
X0054420Y0144819D01*
X0054309Y0144801D01*
X0054185Y0144764D01*
X0054049Y0144708D01*
X0053974Y0144671D01*
X0053906Y0144634D01*
X0053832Y0144584D01*
X0053764Y0144529D01*
Y0144943D01*
X0053770D01*
X0053783Y0144956D01*
X0053801Y0144968D01*
X0053832Y0144981D01*
X0053863Y0144999D01*
X0053906Y0145018D01*
X0053956Y0145036D01*
X0054012Y0145061D01*
X0054135Y0145104D01*
X0054284Y0145141D01*
X0054445Y0145166D01*
X0054618Y0145179D01*
X0054655D01*
X0054699Y0145172D01*
D02*
G37*
G36*
X0049010Y0146119D02*
X0049053D01*
X0049097Y0146113D01*
X0049196Y0146101D01*
X0049313Y0146070D01*
X0049437Y0146033D01*
X0049555Y0145977D01*
X0049660Y0145903D01*
X0049666D01*
X0049672Y0145890D01*
X0049703Y0145866D01*
X0049747Y0145816D01*
X0049796Y0145748D01*
X0049840Y0145661D01*
X0049883Y0145562D01*
X0049914Y0145451D01*
X0049926Y0145389D01*
Y0145321D01*
Y0145315D01*
Y0145308D01*
Y0145271D01*
X0049920Y0145216D01*
X0049908Y0145148D01*
X0049889Y0145061D01*
X0049858Y0144974D01*
X0049821Y0144888D01*
X0049765Y0144801D01*
X0049759Y0144789D01*
X0049734Y0144764D01*
X0049697Y0144727D01*
X0049648Y0144677D01*
X0049586Y0144628D01*
X0049512Y0144572D01*
X0049419Y0144529D01*
X0049320Y0144485D01*
Y0144479D01*
X0049338D01*
X0049357Y0144473D01*
X0049375Y0144467D01*
X0049443Y0144454D01*
X0049524Y0144430D01*
X0049611Y0144392D01*
X0049703Y0144349D01*
X0049796Y0144287D01*
X0049883Y0144207D01*
X0049895Y0144194D01*
X0049920Y0144163D01*
X0049951Y0144120D01*
X0049994Y0144052D01*
X0050032Y0143965D01*
X0050069Y0143866D01*
X0050093Y0143749D01*
X0050100Y0143619D01*
Y0143613D01*
Y0143600D01*
Y0143575D01*
X0050093Y0143544D01*
X0050087Y0143507D01*
X0050081Y0143464D01*
X0050056Y0143359D01*
X0050019Y0143241D01*
X0049963Y0143117D01*
X0049926Y0143062D01*
X0049883Y0143000D01*
X0049827Y0142944D01*
X0049771Y0142888D01*
X0049765D01*
X0049759Y0142876D01*
X0049740Y0142864D01*
X0049716Y0142845D01*
X0049685Y0142826D01*
X0049641Y0142802D01*
X0049549Y0142752D01*
X0049431Y0142696D01*
X0049295Y0142653D01*
X0049134Y0142622D01*
X0049053Y0142616D01*
X0048961Y0142610D01*
X0047933D01*
Y0146126D01*
X0048979D01*
X0049010Y0146119D01*
D02*
G37*
G36*
X0069505Y0145123D02*
X0070143D01*
Y0144776D01*
X0069505D01*
Y0143359D01*
Y0143346D01*
Y0143315D01*
X0069511Y0143272D01*
X0069518Y0143216D01*
X0069542Y0143099D01*
X0069561Y0143043D01*
X0069592Y0143000D01*
X0069598Y0142993D01*
X0069610Y0142981D01*
X0069629Y0142969D01*
X0069660Y0142950D01*
X0069697Y0142925D01*
X0069747Y0142913D01*
X0069809Y0142901D01*
X0069877Y0142894D01*
X0069901D01*
X0069932Y0142901D01*
X0069969Y0142907D01*
X0070056Y0142932D01*
X0070100Y0142950D01*
X0070143Y0142975D01*
Y0142628D01*
X0070137D01*
X0070118Y0142616D01*
X0070087Y0142610D01*
X0070044Y0142597D01*
X0069988Y0142585D01*
X0069926Y0142573D01*
X0069852Y0142566D01*
X0069765Y0142560D01*
X0069734D01*
X0069703Y0142566D01*
X0069660Y0142573D01*
X0069610Y0142585D01*
X0069555Y0142597D01*
X0069499Y0142622D01*
X0069437Y0142653D01*
X0069375Y0142690D01*
X0069313Y0142740D01*
X0069258Y0142795D01*
X0069208Y0142870D01*
X0069165Y0142950D01*
X0069134Y0143049D01*
X0069109Y0143161D01*
X0069103Y0143291D01*
Y0144776D01*
X0068676D01*
Y0145123D01*
X0069103D01*
Y0145736D01*
X0069505Y0145866D01*
Y0145123D01*
D02*
G37*
G36*
X0077032Y0145172D02*
X0077076Y0145166D01*
X0077119Y0145160D01*
X0077230Y0145141D01*
X0077354Y0145098D01*
X0077478Y0145042D01*
X0077540Y0145005D01*
X0077602Y0144962D01*
X0077657Y0144912D01*
X0077713Y0144857D01*
X0077719Y0144851D01*
X0077725Y0144844D01*
X0077738Y0144826D01*
X0077757Y0144801D01*
X0077775Y0144764D01*
X0077800Y0144727D01*
X0077825Y0144683D01*
X0077849Y0144628D01*
X0077874Y0144566D01*
X0077899Y0144504D01*
X0077924Y0144430D01*
X0077942Y0144349D01*
X0077961Y0144262D01*
X0077973Y0144176D01*
X0077986Y0144077D01*
Y0143972D01*
Y0143761D01*
X0076209D01*
Y0143755D01*
Y0143743D01*
Y0143724D01*
X0076215Y0143693D01*
X0076221Y0143656D01*
Y0143619D01*
X0076240Y0143520D01*
X0076271Y0143421D01*
X0076308Y0143309D01*
X0076364Y0143204D01*
X0076432Y0143111D01*
X0076444Y0143099D01*
X0076469Y0143074D01*
X0076518Y0143043D01*
X0076587Y0143000D01*
X0076673Y0142956D01*
X0076772Y0142925D01*
X0076890Y0142901D01*
X0077026Y0142888D01*
X0077069D01*
X0077100Y0142894D01*
X0077138D01*
X0077181Y0142901D01*
X0077286Y0142925D01*
X0077404Y0142956D01*
X0077534Y0143006D01*
X0077670Y0143074D01*
X0077738Y0143117D01*
X0077806Y0143167D01*
Y0142789D01*
X0077800D01*
X0077794Y0142777D01*
X0077775Y0142771D01*
X0077744Y0142752D01*
X0077713Y0142734D01*
X0077676Y0142715D01*
X0077627Y0142696D01*
X0077577Y0142672D01*
X0077515Y0142647D01*
X0077447Y0142628D01*
X0077298Y0142591D01*
X0077125Y0142566D01*
X0076933Y0142554D01*
X0076884D01*
X0076847Y0142560D01*
X0076803Y0142566D01*
X0076748Y0142573D01*
X0076630Y0142597D01*
X0076494Y0142634D01*
X0076358Y0142696D01*
X0076289Y0142740D01*
X0076221Y0142783D01*
X0076160Y0142833D01*
X0076098Y0142894D01*
X0076091Y0142901D01*
X0076085Y0142913D01*
X0076073Y0142932D01*
X0076048Y0142956D01*
X0076029Y0142993D01*
X0076005Y0143037D01*
X0075974Y0143086D01*
X0075949Y0143142D01*
X0075918Y0143204D01*
X0075893Y0143278D01*
X0075862Y0143359D01*
X0075844Y0143445D01*
X0075825Y0143538D01*
X0075807Y0143637D01*
X0075800Y0143743D01*
X0075794Y0143854D01*
Y0143860D01*
Y0143879D01*
Y0143910D01*
X0075800Y0143953D01*
X0075807Y0144002D01*
X0075813Y0144058D01*
X0075819Y0144126D01*
X0075838Y0144194D01*
X0075875Y0144343D01*
X0075930Y0144504D01*
X0075968Y0144584D01*
X0076017Y0144659D01*
X0076067Y0144739D01*
X0076122Y0144807D01*
X0076129Y0144813D01*
X0076141Y0144826D01*
X0076160Y0144844D01*
X0076184Y0144863D01*
X0076215Y0144894D01*
X0076252Y0144925D01*
X0076302Y0144956D01*
X0076351Y0144993D01*
X0076469Y0145061D01*
X0076611Y0145123D01*
X0076692Y0145141D01*
X0076772Y0145160D01*
X0076859Y0145172D01*
X0076952Y0145179D01*
X0077001D01*
X0077032Y0145172D01*
D02*
G37*
G36*
X0063990Y0146181D02*
X0064052Y0146175D01*
X0064126Y0146163D01*
X0064207Y0146144D01*
X0064293Y0146126D01*
X0064380Y0146101D01*
X0064479Y0146070D01*
X0064572Y0146027D01*
X0064671Y0145977D01*
X0064770Y0145921D01*
X0064863Y0145853D01*
X0064956Y0145779D01*
X0065042Y0145692D01*
X0065048Y0145686D01*
X0065061Y0145668D01*
X0065086Y0145643D01*
X0065110Y0145606D01*
X0065148Y0145556D01*
X0065185Y0145494D01*
X0065222Y0145426D01*
X0065265Y0145352D01*
X0065308Y0145259D01*
X0065346Y0145166D01*
X0065383Y0145061D01*
X0065420Y0144943D01*
X0065445Y0144826D01*
X0065469Y0144696D01*
X0065482Y0144553D01*
X0065488Y0144411D01*
Y0144399D01*
Y0144374D01*
Y0144331D01*
X0065482Y0144269D01*
X0065475Y0144194D01*
X0065463Y0144114D01*
X0065451Y0144021D01*
X0065432Y0143916D01*
X0065407Y0143811D01*
X0065377Y0143699D01*
X0065339Y0143588D01*
X0065296Y0143476D01*
X0065240Y0143359D01*
X0065178Y0143254D01*
X0065110Y0143148D01*
X0065030Y0143049D01*
X0065024Y0143043D01*
X0065011Y0143031D01*
X0064980Y0143006D01*
X0064949Y0142975D01*
X0064900Y0142932D01*
X0064844Y0142894D01*
X0064782Y0142845D01*
X0064708Y0142802D01*
X0064627Y0142758D01*
X0064535Y0142709D01*
X0064436Y0142672D01*
X0064324Y0142634D01*
X0064207Y0142597D01*
X0064083Y0142573D01*
X0063953Y0142560D01*
X0063810Y0142554D01*
X0063779D01*
X0063736Y0142560D01*
X0063687D01*
X0063625Y0142566D01*
X0063550Y0142579D01*
X0063470Y0142597D01*
X0063377Y0142616D01*
X0063284Y0142641D01*
X0063185Y0142672D01*
X0063086Y0142715D01*
X0062987Y0142758D01*
X0062888Y0142814D01*
X0062789Y0142882D01*
X0062696Y0142956D01*
X0062610Y0143043D01*
X0062603Y0143049D01*
X0062591Y0143068D01*
X0062566Y0143093D01*
X0062542Y0143130D01*
X0062504Y0143179D01*
X0062467Y0143241D01*
X0062430Y0143309D01*
X0062387Y0143390D01*
X0062343Y0143476D01*
X0062306Y0143569D01*
X0062269Y0143674D01*
X0062232Y0143792D01*
X0062207Y0143910D01*
X0062182Y0144040D01*
X0062170Y0144182D01*
X0062164Y0144324D01*
Y0144337D01*
Y0144361D01*
X0062170Y0144405D01*
Y0144467D01*
X0062176Y0144535D01*
X0062189Y0144622D01*
X0062201Y0144714D01*
X0062220Y0144813D01*
X0062244Y0144919D01*
X0062275Y0145030D01*
X0062312Y0145141D01*
X0062356Y0145253D01*
X0062411Y0145364D01*
X0062473Y0145476D01*
X0062542Y0145581D01*
X0062622Y0145680D01*
X0062628Y0145686D01*
X0062641Y0145705D01*
X0062672Y0145729D01*
X0062709Y0145760D01*
X0062752Y0145798D01*
X0062808Y0145841D01*
X0062876Y0145884D01*
X0062950Y0145934D01*
X0063037Y0145983D01*
X0063130Y0146027D01*
X0063228Y0146070D01*
X0063340Y0146107D01*
X0063464Y0146138D01*
X0063594Y0146169D01*
X0063730Y0146181D01*
X0063872Y0146187D01*
X0063940D01*
X0063990Y0146181D01*
D02*
G37*
G36*
X0051963Y0145172D02*
X0052006Y0145166D01*
X0052062Y0145160D01*
X0052186Y0145135D01*
X0052328Y0145092D01*
X0052470Y0145030D01*
X0052545Y0144993D01*
X0052613Y0144949D01*
X0052681Y0144894D01*
X0052743Y0144832D01*
X0052749Y0144826D01*
X0052755Y0144813D01*
X0052774Y0144795D01*
X0052792Y0144770D01*
X0052817Y0144733D01*
X0052842Y0144690D01*
X0052873Y0144640D01*
X0052904Y0144584D01*
X0052928Y0144516D01*
X0052959Y0144448D01*
X0052984Y0144368D01*
X0053009Y0144281D01*
X0053027Y0144188D01*
X0053046Y0144089D01*
X0053052Y0143984D01*
X0053058Y0143872D01*
Y0143866D01*
Y0143848D01*
Y0143817D01*
X0053052Y0143773D01*
X0053046Y0143724D01*
X0053040Y0143662D01*
X0053027Y0143600D01*
X0053015Y0143526D01*
X0052978Y0143377D01*
X0052916Y0143216D01*
X0052879Y0143136D01*
X0052829Y0143055D01*
X0052780Y0142981D01*
X0052718Y0142913D01*
X0052712Y0142907D01*
X0052699Y0142901D01*
X0052681Y0142882D01*
X0052656Y0142857D01*
X0052619Y0142833D01*
X0052582Y0142802D01*
X0052532Y0142764D01*
X0052477Y0142734D01*
X0052415Y0142703D01*
X0052346Y0142665D01*
X0052272Y0142634D01*
X0052192Y0142610D01*
X0052105Y0142585D01*
X0052012Y0142573D01*
X0051913Y0142560D01*
X0051808Y0142554D01*
X0051752D01*
X0051715Y0142560D01*
X0051672Y0142566D01*
X0051616Y0142573D01*
X0051554Y0142585D01*
X0051486Y0142597D01*
X0051344Y0142641D01*
X0051195Y0142703D01*
X0051121Y0142740D01*
X0051053Y0142789D01*
X0050985Y0142839D01*
X0050917Y0142901D01*
X0050910Y0142907D01*
X0050904Y0142919D01*
X0050886Y0142938D01*
X0050867Y0142963D01*
X0050842Y0143000D01*
X0050811Y0143043D01*
X0050780Y0143093D01*
X0050756Y0143148D01*
X0050725Y0143216D01*
X0050694Y0143284D01*
X0050663Y0143359D01*
X0050638Y0143445D01*
X0050601Y0143631D01*
X0050595Y0143730D01*
X0050589Y0143835D01*
Y0143842D01*
Y0143866D01*
Y0143897D01*
X0050595Y0143941D01*
X0050601Y0143990D01*
X0050607Y0144052D01*
X0050620Y0144120D01*
X0050632Y0144194D01*
X0050669Y0144355D01*
X0050731Y0144516D01*
X0050774Y0144597D01*
X0050818Y0144677D01*
X0050867Y0144751D01*
X0050929Y0144819D01*
X0050935Y0144826D01*
X0050948Y0144838D01*
X0050966Y0144851D01*
X0050991Y0144875D01*
X0051028Y0144900D01*
X0051071Y0144931D01*
X0051121Y0144968D01*
X0051177Y0144999D01*
X0051239Y0145030D01*
X0051313Y0145067D01*
X0051387Y0145098D01*
X0051474Y0145123D01*
X0051560Y0145148D01*
X0051659Y0145166D01*
X0051765Y0145172D01*
X0051870Y0145179D01*
X0051926D01*
X0051963Y0145172D01*
D02*
G37*
G36*
X0055175Y0128582D02*
X0055219Y0128576D01*
X0055262Y0128570D01*
X0055373Y0128545D01*
X0055497Y0128508D01*
X0055621Y0128446D01*
X0055683Y0128409D01*
X0055745Y0128360D01*
X0055800Y0128310D01*
X0055856Y0128248D01*
X0055862Y0128242D01*
X0055869Y0128236D01*
X0055881Y0128211D01*
X0055900Y0128186D01*
X0055918Y0128155D01*
X0055943Y0128112D01*
X0055968Y0128062D01*
X0055992Y0128013D01*
X0056017Y0127951D01*
X0056042Y0127883D01*
X0056067Y0127809D01*
X0056085Y0127728D01*
X0056116Y0127549D01*
X0056129Y0127450D01*
Y0127344D01*
Y0127338D01*
Y0127320D01*
Y0127283D01*
X0056122Y0127239D01*
Y0127190D01*
X0056110Y0127128D01*
X0056104Y0127060D01*
X0056091Y0126985D01*
X0056054Y0126824D01*
X0055999Y0126657D01*
X0055962Y0126577D01*
X0055924Y0126496D01*
X0055875Y0126416D01*
X0055819Y0126342D01*
X0055813Y0126335D01*
X0055807Y0126323D01*
X0055788Y0126304D01*
X0055763Y0126286D01*
X0055733Y0126255D01*
X0055695Y0126224D01*
X0055652Y0126187D01*
X0055603Y0126156D01*
X0055547Y0126119D01*
X0055485Y0126082D01*
X0055336Y0126026D01*
X0055256Y0126001D01*
X0055175Y0125983D01*
X0055082Y0125970D01*
X0054984Y0125964D01*
X0054934D01*
X0054903Y0125970D01*
X0054860Y0125976D01*
X0054816Y0125989D01*
X0054705Y0126014D01*
X0054587Y0126063D01*
X0054519Y0126100D01*
X0054457Y0126137D01*
X0054395Y0126187D01*
X0054340Y0126243D01*
X0054278Y0126304D01*
X0054228Y0126379D01*
X0054216D01*
Y0124868D01*
X0053814D01*
Y0128533D01*
X0054216D01*
Y0128087D01*
X0054228D01*
X0054234Y0128093D01*
X0054241Y0128112D01*
X0054259Y0128137D01*
X0054284Y0128168D01*
X0054315Y0128205D01*
X0054352Y0128248D01*
X0054395Y0128291D01*
X0054451Y0128341D01*
X0054507Y0128384D01*
X0054569Y0128428D01*
X0054643Y0128471D01*
X0054717Y0128508D01*
X0054804Y0128545D01*
X0054897Y0128570D01*
X0054990Y0128582D01*
X0055095Y0128589D01*
X0055144D01*
X0055175Y0128582D01*
D02*
G37*
G36*
X0068131Y0128570D02*
X0068205Y0128564D01*
X0068249Y0128551D01*
X0068280Y0128539D01*
Y0128124D01*
X0068273Y0128130D01*
X0068261Y0128137D01*
X0068236Y0128149D01*
X0068205Y0128168D01*
X0068162Y0128180D01*
X0068106Y0128192D01*
X0068044Y0128199D01*
X0067976Y0128205D01*
X0067964D01*
X0067933Y0128199D01*
X0067883Y0128192D01*
X0067828Y0128174D01*
X0067753Y0128143D01*
X0067685Y0128100D01*
X0067611Y0128038D01*
X0067543Y0127957D01*
X0067537Y0127945D01*
X0067518Y0127914D01*
X0067487Y0127858D01*
X0067456Y0127784D01*
X0067425Y0127691D01*
X0067394Y0127573D01*
X0067376Y0127444D01*
X0067370Y0127295D01*
Y0126020D01*
X0066967D01*
Y0128533D01*
X0067370D01*
Y0128013D01*
X0067382D01*
Y0128019D01*
X0067388Y0128025D01*
X0067401Y0128056D01*
X0067419Y0128106D01*
X0067450Y0128168D01*
X0067481Y0128230D01*
X0067531Y0128298D01*
X0067580Y0128366D01*
X0067642Y0128428D01*
X0067648Y0128434D01*
X0067673Y0128452D01*
X0067710Y0128477D01*
X0067760Y0128502D01*
X0067815Y0128527D01*
X0067883Y0128551D01*
X0067958Y0128570D01*
X0068038Y0128576D01*
X0068094D01*
X0068131Y0128570D01*
D02*
G37*
G36*
X0073337Y0125617D02*
X0073331Y0125611D01*
X0073324Y0125586D01*
X0073306Y0125543D01*
X0073281Y0125494D01*
X0073250Y0125438D01*
X0073207Y0125370D01*
X0073163Y0125302D01*
X0073114Y0125227D01*
X0073052Y0125153D01*
X0072990Y0125085D01*
X0072916Y0125017D01*
X0072835Y0124961D01*
X0072755Y0124912D01*
X0072662Y0124868D01*
X0072569Y0124844D01*
X0072464Y0124838D01*
X0072408D01*
X0072371Y0124844D01*
X0072291Y0124856D01*
X0072204Y0124875D01*
Y0125234D01*
X0072210D01*
X0072229Y0125227D01*
X0072254Y0125221D01*
X0072285Y0125215D01*
X0072359Y0125197D01*
X0072439Y0125190D01*
X0072452D01*
X0072489Y0125197D01*
X0072544Y0125209D01*
X0072613Y0125234D01*
X0072687Y0125277D01*
X0072724Y0125308D01*
X0072761Y0125345D01*
X0072798Y0125382D01*
X0072835Y0125432D01*
X0072866Y0125487D01*
X0072897Y0125549D01*
X0073102Y0126020D01*
X0072117Y0128533D01*
X0072563D01*
X0073244Y0126595D01*
Y0126589D01*
X0073250Y0126577D01*
X0073256Y0126558D01*
X0073263Y0126533D01*
X0073269Y0126496D01*
X0073281Y0126459D01*
X0073294Y0126403D01*
X0073312D01*
Y0126416D01*
X0073324Y0126453D01*
X0073337Y0126509D01*
X0073362Y0126589D01*
X0074073Y0128533D01*
X0074488D01*
X0073337Y0125617D01*
D02*
G37*
G36*
X0062907Y0126020D02*
X0062511D01*
X0061557Y0128533D01*
X0061997D01*
X0062641Y0126707D01*
X0062647Y0126701D01*
X0062653Y0126676D01*
X0062665Y0126633D01*
X0062678Y0126589D01*
X0062690Y0126533D01*
X0062709Y0126472D01*
X0062727Y0126354D01*
X0062733D01*
Y0126360D01*
X0062739Y0126385D01*
X0062746Y0126422D01*
X0062752Y0126465D01*
X0062764Y0126521D01*
X0062777Y0126577D01*
X0062814Y0126695D01*
X0063482Y0128533D01*
X0063903D01*
X0062907Y0126020D01*
D02*
G37*
G36*
X0070929Y0128582D02*
X0070985Y0128576D01*
X0071053Y0128558D01*
X0071127Y0128539D01*
X0071207Y0128508D01*
X0071294Y0128471D01*
X0071375Y0128421D01*
X0071455Y0128360D01*
X0071529Y0128285D01*
X0071597Y0128192D01*
X0071653Y0128087D01*
X0071697Y0127963D01*
X0071721Y0127821D01*
X0071734Y0127654D01*
Y0126020D01*
X0071331D01*
Y0126410D01*
X0071319D01*
Y0126403D01*
X0071307Y0126391D01*
X0071294Y0126366D01*
X0071269Y0126342D01*
X0071207Y0126267D01*
X0071127Y0126187D01*
X0071016Y0126106D01*
X0070886Y0126032D01*
X0070805Y0126007D01*
X0070725Y0125983D01*
X0070638Y0125970D01*
X0070545Y0125964D01*
X0070508D01*
X0070483Y0125970D01*
X0070415Y0125976D01*
X0070335Y0125989D01*
X0070236Y0126014D01*
X0070143Y0126044D01*
X0070044Y0126094D01*
X0069957Y0126156D01*
X0069951Y0126168D01*
X0069926Y0126193D01*
X0069889Y0126236D01*
X0069852Y0126298D01*
X0069815Y0126373D01*
X0069778Y0126459D01*
X0069753Y0126565D01*
X0069747Y0126682D01*
Y0126688D01*
Y0126713D01*
X0069753Y0126750D01*
X0069759Y0126794D01*
X0069771Y0126849D01*
X0069790Y0126911D01*
X0069815Y0126979D01*
X0069852Y0127047D01*
X0069895Y0127122D01*
X0069951Y0127196D01*
X0070019Y0127264D01*
X0070100Y0127326D01*
X0070192Y0127388D01*
X0070304Y0127437D01*
X0070428Y0127474D01*
X0070576Y0127505D01*
X0071331Y0127611D01*
Y0127617D01*
Y0127635D01*
X0071325Y0127673D01*
Y0127710D01*
X0071313Y0127759D01*
X0071307Y0127815D01*
X0071269Y0127933D01*
X0071238Y0127988D01*
X0071207Y0128044D01*
X0071164Y0128100D01*
X0071115Y0128149D01*
X0071053Y0128192D01*
X0070985Y0128223D01*
X0070904Y0128242D01*
X0070811Y0128248D01*
X0070768D01*
X0070737Y0128242D01*
X0070694D01*
X0070650Y0128230D01*
X0070539Y0128211D01*
X0070415Y0128174D01*
X0070279Y0128118D01*
X0070205Y0128081D01*
X0070137Y0128044D01*
X0070062Y0127994D01*
X0069994Y0127939D01*
Y0128353D01*
X0070000D01*
X0070013Y0128366D01*
X0070031Y0128378D01*
X0070062Y0128391D01*
X0070093Y0128409D01*
X0070137Y0128428D01*
X0070186Y0128446D01*
X0070242Y0128471D01*
X0070366Y0128514D01*
X0070514Y0128551D01*
X0070675Y0128576D01*
X0070848Y0128589D01*
X0070886D01*
X0070929Y0128582D01*
D02*
G37*
G36*
X0069115Y0126020D02*
X0068713D01*
Y0129740D01*
X0069115D01*
Y0126020D01*
D02*
G37*
G36*
X0050372Y0129164D02*
X0049357D01*
Y0126020D01*
X0048948D01*
Y0129164D01*
X0047933D01*
Y0129536D01*
X0050372D01*
Y0129164D01*
D02*
G37*
G36*
X0065407Y0128582D02*
X0065451Y0128576D01*
X0065494Y0128570D01*
X0065605Y0128551D01*
X0065729Y0128508D01*
X0065853Y0128452D01*
X0065915Y0128415D01*
X0065977Y0128372D01*
X0066033Y0128322D01*
X0066088Y0128267D01*
X0066094Y0128261D01*
X0066101Y0128254D01*
X0066113Y0128236D01*
X0066132Y0128211D01*
X0066150Y0128174D01*
X0066175Y0128137D01*
X0066200Y0128093D01*
X0066224Y0128038D01*
X0066249Y0127976D01*
X0066274Y0127914D01*
X0066299Y0127840D01*
X0066317Y0127759D01*
X0066336Y0127673D01*
X0066348Y0127586D01*
X0066361Y0127487D01*
Y0127382D01*
Y0127171D01*
X0064584D01*
Y0127165D01*
Y0127153D01*
Y0127134D01*
X0064590Y0127103D01*
X0064596Y0127066D01*
Y0127029D01*
X0064615Y0126930D01*
X0064646Y0126831D01*
X0064683Y0126719D01*
X0064739Y0126614D01*
X0064807Y0126521D01*
X0064819Y0126509D01*
X0064844Y0126484D01*
X0064894Y0126453D01*
X0064962Y0126410D01*
X0065048Y0126366D01*
X0065148Y0126335D01*
X0065265Y0126311D01*
X0065401Y0126298D01*
X0065445D01*
X0065475Y0126304D01*
X0065513D01*
X0065556Y0126311D01*
X0065661Y0126335D01*
X0065779Y0126366D01*
X0065909Y0126416D01*
X0066045Y0126484D01*
X0066113Y0126527D01*
X0066181Y0126577D01*
Y0126199D01*
X0066175D01*
X0066169Y0126187D01*
X0066150Y0126181D01*
X0066119Y0126162D01*
X0066088Y0126144D01*
X0066051Y0126125D01*
X0066002Y0126106D01*
X0065952Y0126082D01*
X0065890Y0126057D01*
X0065822Y0126038D01*
X0065674Y0126001D01*
X0065500Y0125976D01*
X0065308Y0125964D01*
X0065259D01*
X0065222Y0125970D01*
X0065178Y0125976D01*
X0065123Y0125983D01*
X0065005Y0126007D01*
X0064869Y0126044D01*
X0064733Y0126106D01*
X0064665Y0126150D01*
X0064596Y0126193D01*
X0064535Y0126243D01*
X0064473Y0126304D01*
X0064467Y0126311D01*
X0064460Y0126323D01*
X0064448Y0126342D01*
X0064423Y0126366D01*
X0064405Y0126403D01*
X0064380Y0126447D01*
X0064349Y0126496D01*
X0064324Y0126552D01*
X0064293Y0126614D01*
X0064268Y0126688D01*
X0064237Y0126769D01*
X0064219Y0126855D01*
X0064200Y0126948D01*
X0064182Y0127047D01*
X0064176Y0127153D01*
X0064169Y0127264D01*
Y0127270D01*
Y0127289D01*
Y0127320D01*
X0064176Y0127363D01*
X0064182Y0127412D01*
X0064188Y0127468D01*
X0064194Y0127536D01*
X0064213Y0127604D01*
X0064250Y0127753D01*
X0064306Y0127914D01*
X0064343Y0127994D01*
X0064392Y0128069D01*
X0064442Y0128149D01*
X0064498Y0128217D01*
X0064504Y0128223D01*
X0064516Y0128236D01*
X0064535Y0128254D01*
X0064559Y0128273D01*
X0064590Y0128304D01*
X0064627Y0128335D01*
X0064677Y0128366D01*
X0064727Y0128403D01*
X0064844Y0128471D01*
X0064986Y0128533D01*
X0065067Y0128551D01*
X0065148Y0128570D01*
X0065234Y0128582D01*
X0065327Y0128589D01*
X0065377D01*
X0065407Y0128582D01*
D02*
G37*
G36*
X0059793Y0129591D02*
X0059855Y0129585D01*
X0059929Y0129573D01*
X0060010Y0129554D01*
X0060096Y0129536D01*
X0060183Y0129511D01*
X0060282Y0129480D01*
X0060375Y0129437D01*
X0060474Y0129387D01*
X0060573Y0129331D01*
X0060666Y0129263D01*
X0060759Y0129189D01*
X0060845Y0129102D01*
X0060852Y0129096D01*
X0060864Y0129078D01*
X0060889Y0129053D01*
X0060913Y0129016D01*
X0060951Y0128966D01*
X0060988Y0128904D01*
X0061025Y0128836D01*
X0061068Y0128762D01*
X0061112Y0128669D01*
X0061149Y0128576D01*
X0061186Y0128471D01*
X0061223Y0128353D01*
X0061248Y0128236D01*
X0061273Y0128106D01*
X0061285Y0127963D01*
X0061291Y0127821D01*
Y0127809D01*
Y0127784D01*
Y0127741D01*
X0061285Y0127679D01*
X0061279Y0127604D01*
X0061266Y0127524D01*
X0061254Y0127431D01*
X0061235Y0127326D01*
X0061211Y0127221D01*
X0061180Y0127109D01*
X0061142Y0126998D01*
X0061099Y0126886D01*
X0061044Y0126769D01*
X0060982Y0126663D01*
X0060913Y0126558D01*
X0060833Y0126459D01*
X0060827Y0126453D01*
X0060814Y0126441D01*
X0060783Y0126416D01*
X0060752Y0126385D01*
X0060703Y0126342D01*
X0060647Y0126304D01*
X0060585Y0126255D01*
X0060511Y0126212D01*
X0060431Y0126168D01*
X0060338Y0126119D01*
X0060239Y0126082D01*
X0060127Y0126044D01*
X0060010Y0126007D01*
X0059886Y0125983D01*
X0059756Y0125970D01*
X0059614Y0125964D01*
X0059583D01*
X0059539Y0125970D01*
X0059490D01*
X0059428Y0125976D01*
X0059354Y0125989D01*
X0059273Y0126007D01*
X0059180Y0126026D01*
X0059087Y0126051D01*
X0058988Y0126082D01*
X0058889Y0126125D01*
X0058790Y0126168D01*
X0058691Y0126224D01*
X0058592Y0126292D01*
X0058499Y0126366D01*
X0058413Y0126453D01*
X0058407Y0126459D01*
X0058394Y0126478D01*
X0058369Y0126503D01*
X0058345Y0126540D01*
X0058307Y0126589D01*
X0058270Y0126651D01*
X0058233Y0126719D01*
X0058190Y0126800D01*
X0058147Y0126886D01*
X0058109Y0126979D01*
X0058072Y0127084D01*
X0058035Y0127202D01*
X0058010Y0127320D01*
X0057986Y0127450D01*
X0057973Y0127592D01*
X0057967Y0127734D01*
Y0127747D01*
Y0127771D01*
X0057973Y0127815D01*
Y0127877D01*
X0057979Y0127945D01*
X0057992Y0128032D01*
X0058004Y0128124D01*
X0058023Y0128223D01*
X0058047Y0128329D01*
X0058078Y0128440D01*
X0058116Y0128551D01*
X0058159Y0128663D01*
X0058215Y0128774D01*
X0058276Y0128886D01*
X0058345Y0128991D01*
X0058425Y0129090D01*
X0058431Y0129096D01*
X0058444Y0129115D01*
X0058475Y0129139D01*
X0058512Y0129171D01*
X0058555Y0129208D01*
X0058611Y0129251D01*
X0058679Y0129294D01*
X0058753Y0129344D01*
X0058840Y0129393D01*
X0058933Y0129437D01*
X0059032Y0129480D01*
X0059143Y0129517D01*
X0059267Y0129548D01*
X0059397Y0129579D01*
X0059533Y0129591D01*
X0059676Y0129598D01*
X0059744D01*
X0059793Y0129591D01*
D02*
G37*
G36*
X0052074Y0128582D02*
X0052118Y0128576D01*
X0052173Y0128570D01*
X0052297Y0128545D01*
X0052439Y0128502D01*
X0052582Y0128440D01*
X0052656Y0128403D01*
X0052724Y0128360D01*
X0052792Y0128304D01*
X0052854Y0128242D01*
X0052860Y0128236D01*
X0052867Y0128223D01*
X0052885Y0128205D01*
X0052904Y0128180D01*
X0052928Y0128143D01*
X0052953Y0128100D01*
X0052984Y0128050D01*
X0053015Y0127994D01*
X0053040Y0127926D01*
X0053071Y0127858D01*
X0053096Y0127778D01*
X0053120Y0127691D01*
X0053139Y0127598D01*
X0053157Y0127499D01*
X0053164Y0127394D01*
X0053170Y0127283D01*
Y0127276D01*
Y0127258D01*
Y0127227D01*
X0053164Y0127183D01*
X0053157Y0127134D01*
X0053151Y0127072D01*
X0053139Y0127010D01*
X0053127Y0126936D01*
X0053089Y0126787D01*
X0053027Y0126626D01*
X0052990Y0126546D01*
X0052941Y0126465D01*
X0052891Y0126391D01*
X0052829Y0126323D01*
X0052823Y0126317D01*
X0052811Y0126311D01*
X0052792Y0126292D01*
X0052767Y0126267D01*
X0052730Y0126243D01*
X0052693Y0126212D01*
X0052644Y0126174D01*
X0052588Y0126144D01*
X0052526Y0126113D01*
X0052458Y0126075D01*
X0052384Y0126044D01*
X0052303Y0126020D01*
X0052217Y0125995D01*
X0052124Y0125983D01*
X0052025Y0125970D01*
X0051919Y0125964D01*
X0051864D01*
X0051827Y0125970D01*
X0051783Y0125976D01*
X0051727Y0125983D01*
X0051666Y0125995D01*
X0051597Y0126007D01*
X0051455Y0126051D01*
X0051307Y0126113D01*
X0051232Y0126150D01*
X0051164Y0126199D01*
X0051096Y0126249D01*
X0051028Y0126311D01*
X0051022Y0126317D01*
X0051016Y0126329D01*
X0050997Y0126348D01*
X0050978Y0126373D01*
X0050954Y0126410D01*
X0050923Y0126453D01*
X0050892Y0126503D01*
X0050867Y0126558D01*
X0050836Y0126626D01*
X0050805Y0126695D01*
X0050774Y0126769D01*
X0050749Y0126855D01*
X0050712Y0127041D01*
X0050706Y0127140D01*
X0050700Y0127245D01*
Y0127252D01*
Y0127276D01*
Y0127307D01*
X0050706Y0127351D01*
X0050712Y0127400D01*
X0050719Y0127462D01*
X0050731Y0127530D01*
X0050743Y0127604D01*
X0050780Y0127765D01*
X0050842Y0127926D01*
X0050886Y0128007D01*
X0050929Y0128087D01*
X0050978Y0128162D01*
X0051040Y0128230D01*
X0051047Y0128236D01*
X0051059Y0128248D01*
X0051078Y0128261D01*
X0051102Y0128285D01*
X0051139Y0128310D01*
X0051183Y0128341D01*
X0051232Y0128378D01*
X0051288Y0128409D01*
X0051350Y0128440D01*
X0051424Y0128477D01*
X0051499Y0128508D01*
X0051585Y0128533D01*
X0051672Y0128558D01*
X0051771Y0128576D01*
X0051876Y0128582D01*
X0051981Y0128589D01*
X0052037D01*
X0052074Y0128582D01*
D02*
G37*
G36*
X0021525Y0110043D02*
X0021642Y0110031D01*
X0021758Y0110013D01*
X0021872Y0109987D01*
X0021985Y0109955D01*
X0022096Y0109916D01*
X0022204Y0109871D01*
X0022309Y0109818D01*
X0022411Y0109760D01*
X0022509Y0109696D01*
X0022603Y0109625D01*
X0022693Y0109550D01*
X0022778Y0109469D01*
X0022858Y0109383D01*
X0022932Y0109292D01*
X0023001Y0109197D01*
X0023065Y0109098D01*
X0023122Y0108995D01*
X0023172Y0108889D01*
X0023179Y0108874D01*
X0023179Y0108874D01*
X0023260Y0108691D01*
X0023359Y0108488D01*
X0023464Y0108288D01*
X0023577Y0108091D01*
X0023695Y0107898D01*
X0023820Y0107710D01*
X0023951Y0107525D01*
X0024087Y0107344D01*
X0024230Y0107169D01*
X0024378Y0106998D01*
X0024532Y0106832D01*
X0024691Y0106671D01*
X0024856Y0106515D01*
X0025025Y0106365D01*
X0025199Y0106221D01*
X0025378Y0106082D01*
X0025561Y0105949D01*
X0025749Y0105822D01*
X0025940Y0105702D01*
X0026135Y0105588D01*
X0026334Y0105480D01*
X0026537Y0105379D01*
X0026743Y0105284D01*
X0026951Y0105196D01*
X0027162Y0105115D01*
X0027376Y0105042D01*
X0027593Y0104975D01*
X0027811Y0104915D01*
X0028031Y0104862D01*
X0028253Y0104817D01*
X0028476Y0104779D01*
X0028700Y0104748D01*
X0028925Y0104725D01*
X0029147Y0104709D01*
X0029147Y0104709D01*
X0029171Y0104708D01*
X0029288Y0104697D01*
X0029404Y0104678D01*
X0029518Y0104653D01*
X0029631Y0104621D01*
X0029742Y0104582D01*
X0029850Y0104536D01*
X0029955Y0104484D01*
X0030057Y0104426D01*
X0030155Y0104361D01*
X0030250Y0104291D01*
X0030339Y0104215D01*
X0030424Y0104134D01*
X0030504Y0104048D01*
X0030579Y0103957D01*
X0030647Y0103863D01*
X0030711Y0103763D01*
X0030768Y0103661D01*
X0030818Y0103555D01*
X0030862Y0103446D01*
X0030900Y0103335D01*
X0030931Y0103222D01*
X0030955Y0103107D01*
X0030971Y0102991D01*
X0030981Y0102874D01*
X0030984Y0102756D01*
X0030980Y0102639D01*
X0030968Y0102522D01*
X0030950Y0102406D01*
X0030924Y0102292D01*
X0030892Y0102179D01*
X0030853Y0102068D01*
X0030808Y0101960D01*
X0030755Y0101855D01*
X0030697Y0101753D01*
X0030633Y0101655D01*
X0030562Y0101560D01*
X0030487Y0101471D01*
X0030406Y0101386D01*
X0030320Y0101306D01*
X0030229Y0101231D01*
X0030134Y0101163D01*
X0030035Y0101099D01*
X0029932Y0101042D01*
X0029826Y0100992D01*
X0029718Y0100948D01*
X0029606Y0100910D01*
X0029493Y0100879D01*
X0029378Y0100855D01*
X0029262Y0100838D01*
X0029145Y0100829D01*
X0029028Y0100826D01*
X0028934Y0100829D01*
X0028934Y0100830D01*
X0028781Y0100838D01*
X0028489Y0100862D01*
X0028198Y0100894D01*
X0027909Y0100934D01*
X0027620Y0100982D01*
X0027333Y0101038D01*
X0027047Y0101101D01*
X0026763Y0101172D01*
X0026482Y0101251D01*
X0026202Y0101337D01*
X0025925Y0101431D01*
X0025651Y0101532D01*
X0025379Y0101641D01*
X0025111Y0101757D01*
X0024845Y0101880D01*
X0024583Y0102010D01*
X0024325Y0102148D01*
X0024071Y0102292D01*
X0023820Y0102443D01*
X0023574Y0102601D01*
X0023332Y0102766D01*
X0023095Y0102937D01*
X0022862Y0103114D01*
X0022634Y0103298D01*
X0022412Y0103488D01*
X0022194Y0103683D01*
X0021982Y0103885D01*
X0021776Y0104092D01*
X0021575Y0104305D01*
X0021380Y0104523D01*
X0021191Y0104746D01*
X0021008Y0104974D01*
X0020831Y0105207D01*
X0020661Y0105445D01*
X0020497Y0105687D01*
X0020340Y0105934D01*
X0020189Y0106185D01*
X0020046Y0106440D01*
X0019909Y0106699D01*
X0019780Y0106961D01*
X0019657Y0107227D01*
X0019611Y0107334D01*
X0019611Y0107334D01*
X0019573Y0107427D01*
X0019535Y0107538D01*
X0019505Y0107651D01*
X0019481Y0107766D01*
X0019464Y0107882D01*
X0019454Y0107999D01*
X0019451Y0108117D01*
X0019456Y0108234D01*
X0019467Y0108351D01*
X0019486Y0108467D01*
X0019511Y0108581D01*
X0019543Y0108694D01*
X0019582Y0108805D01*
X0019628Y0108913D01*
X0019680Y0109018D01*
X0019738Y0109120D01*
X0019803Y0109218D01*
X0019873Y0109312D01*
X0019949Y0109402D01*
X0020030Y0109487D01*
X0020116Y0109567D01*
X0020207Y0109642D01*
X0020301Y0109711D01*
X0020401Y0109774D01*
X0020503Y0109830D01*
X0020609Y0109881D01*
X0020718Y0109925D01*
X0020829Y0109963D01*
X0020942Y0109994D01*
X0021057Y0110018D01*
X0021173Y0110035D01*
X0021290Y0110044D01*
X0021408Y0110047D01*
X0021525Y0110043D01*
D02*
G37*
G36*
X0023795Y0086417D02*
X0020646Y0088779D01*
X0023795Y0091142D01*
Y0086417D01*
D02*
G37*
G36*
X0016437Y0039852D02*
X0011713D01*
X0014075Y0043001D01*
X0016437Y0039852D01*
D02*
G37*
%LPC*%
G36*
X0059038Y0144838D02*
X0059001D01*
X0058976Y0144832D01*
X0058908Y0144826D01*
X0058828Y0144807D01*
X0058735Y0144770D01*
X0058636Y0144720D01*
X0058543Y0144659D01*
X0058499Y0144615D01*
X0058456Y0144566D01*
X0058450Y0144553D01*
X0058425Y0144516D01*
X0058388Y0144454D01*
X0058351Y0144374D01*
X0058314Y0144269D01*
X0058276Y0144139D01*
X0058252Y0143990D01*
X0058246Y0143823D01*
Y0143817D01*
Y0143804D01*
Y0143780D01*
X0058252Y0143749D01*
Y0143718D01*
X0058258Y0143674D01*
X0058270Y0143575D01*
X0058295Y0143464D01*
X0058332Y0143352D01*
X0058382Y0143241D01*
X0058450Y0143136D01*
X0058462Y0143123D01*
X0058487Y0143099D01*
X0058530Y0143055D01*
X0058592Y0143012D01*
X0058673Y0142969D01*
X0058766Y0142925D01*
X0058871Y0142901D01*
X0058995Y0142888D01*
X0059026D01*
X0059050Y0142894D01*
X0059112Y0142901D01*
X0059187Y0142919D01*
X0059273Y0142950D01*
X0059366Y0142987D01*
X0059453Y0143049D01*
X0059539Y0143130D01*
X0059545Y0143142D01*
X0059570Y0143173D01*
X0059607Y0143229D01*
X0059645Y0143297D01*
X0059682Y0143384D01*
X0059719Y0143489D01*
X0059744Y0143613D01*
X0059750Y0143743D01*
Y0144114D01*
Y0144120D01*
Y0144126D01*
Y0144163D01*
X0059737Y0144219D01*
X0059725Y0144293D01*
X0059700Y0144374D01*
X0059663Y0144460D01*
X0059614Y0144547D01*
X0059545Y0144628D01*
X0059539Y0144634D01*
X0059508Y0144659D01*
X0059465Y0144696D01*
X0059409Y0144733D01*
X0059335Y0144770D01*
X0059248Y0144807D01*
X0059149Y0144832D01*
X0059038Y0144838D01*
D02*
G37*
G36*
X0055101Y0143879D02*
X0054495Y0143792D01*
X0054482D01*
X0054451Y0143786D01*
X0054402Y0143773D01*
X0054340Y0143761D01*
X0054272Y0143743D01*
X0054197Y0143718D01*
X0054135Y0143693D01*
X0054074Y0143656D01*
X0054067Y0143650D01*
X0054049Y0143637D01*
X0054030Y0143613D01*
X0054005Y0143575D01*
X0053974Y0143526D01*
X0053956Y0143464D01*
X0053937Y0143390D01*
X0053931Y0143303D01*
Y0143297D01*
Y0143272D01*
X0053937Y0143241D01*
X0053950Y0143198D01*
X0053962Y0143148D01*
X0053987Y0143099D01*
X0054018Y0143049D01*
X0054061Y0143000D01*
X0054067Y0142993D01*
X0054086Y0142981D01*
X0054117Y0142963D01*
X0054154Y0142944D01*
X0054203Y0142925D01*
X0054265Y0142907D01*
X0054334Y0142894D01*
X0054414Y0142888D01*
X0054426D01*
X0054463Y0142894D01*
X0054519Y0142901D01*
X0054587Y0142913D01*
X0054662Y0142938D01*
X0054748Y0142975D01*
X0054829Y0143031D01*
X0054903Y0143099D01*
X0054909Y0143111D01*
X0054934Y0143136D01*
X0054965Y0143179D01*
X0055002Y0143241D01*
X0055039Y0143322D01*
X0055070Y0143408D01*
X0055095Y0143513D01*
X0055101Y0143625D01*
Y0143879D01*
D02*
G37*
G36*
X0048818Y0145754D02*
X0048348D01*
Y0144615D01*
X0048824D01*
X0048886Y0144622D01*
X0048961Y0144634D01*
X0049047Y0144652D01*
X0049140Y0144683D01*
X0049221Y0144720D01*
X0049301Y0144776D01*
X0049307Y0144782D01*
X0049332Y0144807D01*
X0049363Y0144844D01*
X0049400Y0144900D01*
X0049431Y0144962D01*
X0049462Y0145042D01*
X0049487Y0145135D01*
X0049493Y0145240D01*
Y0145247D01*
Y0145265D01*
X0049487Y0145290D01*
X0049481Y0145321D01*
X0049456Y0145401D01*
X0049437Y0145451D01*
X0049406Y0145500D01*
X0049375Y0145544D01*
X0049326Y0145593D01*
X0049276Y0145637D01*
X0049208Y0145674D01*
X0049134Y0145705D01*
X0049041Y0145729D01*
X0048936Y0145748D01*
X0048818Y0145754D01*
D02*
G37*
G36*
Y0144244D02*
X0048348D01*
Y0142981D01*
X0048967D01*
X0049029Y0142987D01*
X0049115Y0143000D01*
X0049202Y0143024D01*
X0049295Y0143049D01*
X0049388Y0143093D01*
X0049468Y0143148D01*
X0049474Y0143154D01*
X0049499Y0143179D01*
X0049530Y0143216D01*
X0049567Y0143272D01*
X0049604Y0143340D01*
X0049635Y0143421D01*
X0049660Y0143520D01*
X0049666Y0143625D01*
Y0143631D01*
Y0143650D01*
X0049660Y0143681D01*
X0049654Y0143724D01*
X0049641Y0143767D01*
X0049623Y0143823D01*
X0049598Y0143879D01*
X0049561Y0143934D01*
X0049518Y0143990D01*
X0049462Y0144046D01*
X0049394Y0144102D01*
X0049307Y0144145D01*
X0049214Y0144188D01*
X0049097Y0144219D01*
X0048967Y0144238D01*
X0048818Y0144244D01*
D02*
G37*
G36*
X0076946Y0144838D02*
X0076896D01*
X0076847Y0144826D01*
X0076779Y0144813D01*
X0076704Y0144789D01*
X0076617Y0144751D01*
X0076537Y0144702D01*
X0076457Y0144634D01*
X0076450Y0144628D01*
X0076426Y0144597D01*
X0076395Y0144553D01*
X0076351Y0144492D01*
X0076308Y0144417D01*
X0076271Y0144324D01*
X0076240Y0144219D01*
X0076215Y0144102D01*
X0077571D01*
Y0144108D01*
Y0144120D01*
Y0144132D01*
Y0144157D01*
X0077565Y0144225D01*
X0077552Y0144300D01*
X0077527Y0144392D01*
X0077503Y0144479D01*
X0077459Y0144566D01*
X0077404Y0144646D01*
X0077398Y0144652D01*
X0077373Y0144677D01*
X0077336Y0144708D01*
X0077286Y0144745D01*
X0077218Y0144776D01*
X0077138Y0144807D01*
X0077051Y0144832D01*
X0076946Y0144838D01*
D02*
G37*
G36*
X0063841Y0145810D02*
X0063786D01*
X0063749Y0145804D01*
X0063699Y0145798D01*
X0063649Y0145791D01*
X0063588Y0145779D01*
X0063520Y0145760D01*
X0063377Y0145711D01*
X0063303Y0145680D01*
X0063222Y0145643D01*
X0063148Y0145593D01*
X0063074Y0145538D01*
X0063006Y0145476D01*
X0062938Y0145408D01*
X0062931Y0145401D01*
X0062925Y0145389D01*
X0062907Y0145364D01*
X0062882Y0145333D01*
X0062857Y0145296D01*
X0062832Y0145247D01*
X0062801Y0145191D01*
X0062770Y0145129D01*
X0062733Y0145055D01*
X0062702Y0144981D01*
X0062678Y0144894D01*
X0062653Y0144801D01*
X0062628Y0144702D01*
X0062610Y0144590D01*
X0062603Y0144479D01*
X0062597Y0144361D01*
Y0144355D01*
Y0144331D01*
Y0144300D01*
X0062603Y0144256D01*
X0062610Y0144201D01*
X0062616Y0144132D01*
X0062628Y0144064D01*
X0062641Y0143990D01*
X0062678Y0143823D01*
X0062739Y0143643D01*
X0062777Y0143557D01*
X0062820Y0143476D01*
X0062876Y0143390D01*
X0062931Y0143315D01*
X0062938Y0143309D01*
X0062950Y0143297D01*
X0062969Y0143278D01*
X0062993Y0143254D01*
X0063024Y0143222D01*
X0063068Y0143192D01*
X0063117Y0143154D01*
X0063167Y0143117D01*
X0063228Y0143080D01*
X0063297Y0143043D01*
X0063445Y0142981D01*
X0063532Y0142956D01*
X0063618Y0142938D01*
X0063711Y0142925D01*
X0063810Y0142919D01*
X0063866D01*
X0063910Y0142925D01*
X0063953Y0142932D01*
X0064015Y0142938D01*
X0064077Y0142950D01*
X0064145Y0142969D01*
X0064287Y0143012D01*
X0064368Y0143043D01*
X0064442Y0143080D01*
X0064516Y0143123D01*
X0064590Y0143173D01*
X0064658Y0143229D01*
X0064727Y0143297D01*
X0064733Y0143303D01*
X0064739Y0143315D01*
X0064758Y0143334D01*
X0064776Y0143365D01*
X0064807Y0143408D01*
X0064832Y0143451D01*
X0064863Y0143507D01*
X0064894Y0143569D01*
X0064925Y0143643D01*
X0064956Y0143724D01*
X0064986Y0143811D01*
X0065011Y0143903D01*
X0065030Y0144002D01*
X0065048Y0144114D01*
X0065055Y0144231D01*
X0065061Y0144355D01*
Y0144361D01*
Y0144386D01*
Y0144423D01*
X0065055Y0144467D01*
X0065048Y0144529D01*
X0065042Y0144597D01*
X0065036Y0144671D01*
X0065017Y0144751D01*
X0064980Y0144919D01*
X0064925Y0145098D01*
X0064887Y0145185D01*
X0064844Y0145271D01*
X0064788Y0145352D01*
X0064733Y0145426D01*
X0064727Y0145432D01*
X0064720Y0145445D01*
X0064702Y0145463D01*
X0064671Y0145488D01*
X0064640Y0145513D01*
X0064603Y0145550D01*
X0064553Y0145581D01*
X0064504Y0145618D01*
X0064442Y0145655D01*
X0064374Y0145686D01*
X0064299Y0145723D01*
X0064219Y0145748D01*
X0064132Y0145773D01*
X0064046Y0145791D01*
X0063947Y0145804D01*
X0063841Y0145810D01*
D02*
G37*
G36*
X0051839Y0144838D02*
X0051802D01*
X0051777Y0144832D01*
X0051703Y0144826D01*
X0051616Y0144807D01*
X0051517Y0144776D01*
X0051412Y0144727D01*
X0051313Y0144659D01*
X0051263Y0144622D01*
X0051220Y0144572D01*
X0051208Y0144560D01*
X0051183Y0144522D01*
X0051152Y0144467D01*
X0051108Y0144386D01*
X0051065Y0144281D01*
X0051034Y0144157D01*
X0051010Y0144015D01*
X0050997Y0143848D01*
Y0143842D01*
Y0143829D01*
Y0143804D01*
X0051003Y0143773D01*
Y0143736D01*
X0051010Y0143693D01*
X0051028Y0143594D01*
X0051053Y0143482D01*
X0051096Y0143365D01*
X0051152Y0143247D01*
X0051226Y0143142D01*
X0051239Y0143130D01*
X0051270Y0143105D01*
X0051319Y0143062D01*
X0051387Y0143018D01*
X0051474Y0142969D01*
X0051579Y0142925D01*
X0051703Y0142901D01*
X0051839Y0142888D01*
X0051876D01*
X0051901Y0142894D01*
X0051975Y0142901D01*
X0052062Y0142919D01*
X0052155Y0142950D01*
X0052260Y0142993D01*
X0052353Y0143055D01*
X0052439Y0143136D01*
X0052446Y0143148D01*
X0052470Y0143185D01*
X0052508Y0143241D01*
X0052545Y0143322D01*
X0052582Y0143427D01*
X0052619Y0143551D01*
X0052644Y0143693D01*
X0052650Y0143860D01*
Y0143866D01*
Y0143879D01*
Y0143903D01*
Y0143941D01*
X0052644Y0143978D01*
X0052637Y0144021D01*
X0052625Y0144126D01*
X0052600Y0144244D01*
X0052563Y0144361D01*
X0052508Y0144479D01*
X0052439Y0144584D01*
X0052427Y0144597D01*
X0052402Y0144622D01*
X0052353Y0144665D01*
X0052285Y0144714D01*
X0052198Y0144758D01*
X0052099Y0144801D01*
X0051975Y0144826D01*
X0051839Y0144838D01*
D02*
G37*
G36*
X0054996Y0128248D02*
X0054965D01*
X0054940Y0128242D01*
X0054872Y0128236D01*
X0054792Y0128217D01*
X0054705Y0128186D01*
X0054606Y0128143D01*
X0054513Y0128081D01*
X0054426Y0128000D01*
X0054420Y0127988D01*
X0054395Y0127957D01*
X0054358Y0127908D01*
X0054321Y0127833D01*
X0054284Y0127747D01*
X0054247Y0127641D01*
X0054222Y0127524D01*
X0054216Y0127394D01*
Y0127041D01*
Y0127035D01*
Y0127029D01*
X0054222Y0126992D01*
X0054228Y0126930D01*
X0054241Y0126862D01*
X0054265Y0126775D01*
X0054303Y0126688D01*
X0054352Y0126602D01*
X0054420Y0126515D01*
X0054433Y0126509D01*
X0054457Y0126484D01*
X0054501Y0126447D01*
X0054562Y0126410D01*
X0054637Y0126366D01*
X0054724Y0126335D01*
X0054822Y0126311D01*
X0054934Y0126298D01*
X0054971D01*
X0054996Y0126304D01*
X0055058Y0126311D01*
X0055144Y0126335D01*
X0055231Y0126366D01*
X0055330Y0126416D01*
X0055423Y0126484D01*
X0055466Y0126527D01*
X0055503Y0126577D01*
Y0126583D01*
X0055510Y0126589D01*
X0055522Y0126608D01*
X0055534Y0126626D01*
X0055553Y0126657D01*
X0055572Y0126695D01*
X0055609Y0126781D01*
X0055646Y0126892D01*
X0055683Y0127023D01*
X0055708Y0127177D01*
X0055714Y0127357D01*
Y0127363D01*
Y0127375D01*
Y0127394D01*
Y0127425D01*
X0055708Y0127462D01*
X0055702Y0127499D01*
X0055689Y0127592D01*
X0055664Y0127697D01*
X0055633Y0127809D01*
X0055584Y0127914D01*
X0055522Y0128007D01*
X0055516Y0128019D01*
X0055485Y0128044D01*
X0055441Y0128081D01*
X0055386Y0128130D01*
X0055312Y0128174D01*
X0055219Y0128211D01*
X0055114Y0128236D01*
X0054996Y0128248D01*
D02*
G37*
G36*
X0071331Y0127289D02*
X0070725Y0127202D01*
X0070712D01*
X0070681Y0127196D01*
X0070632Y0127183D01*
X0070570Y0127171D01*
X0070502Y0127153D01*
X0070428Y0127128D01*
X0070366Y0127103D01*
X0070304Y0127066D01*
X0070297Y0127060D01*
X0070279Y0127047D01*
X0070260Y0127023D01*
X0070236Y0126985D01*
X0070205Y0126936D01*
X0070186Y0126874D01*
X0070167Y0126800D01*
X0070161Y0126713D01*
Y0126707D01*
Y0126682D01*
X0070167Y0126651D01*
X0070180Y0126608D01*
X0070192Y0126558D01*
X0070217Y0126509D01*
X0070248Y0126459D01*
X0070291Y0126410D01*
X0070297Y0126403D01*
X0070316Y0126391D01*
X0070347Y0126373D01*
X0070384Y0126354D01*
X0070434Y0126335D01*
X0070496Y0126317D01*
X0070564Y0126304D01*
X0070644Y0126298D01*
X0070657D01*
X0070694Y0126304D01*
X0070749Y0126311D01*
X0070818Y0126323D01*
X0070892Y0126348D01*
X0070978Y0126385D01*
X0071059Y0126441D01*
X0071133Y0126509D01*
X0071139Y0126521D01*
X0071164Y0126546D01*
X0071195Y0126589D01*
X0071232Y0126651D01*
X0071269Y0126732D01*
X0071300Y0126818D01*
X0071325Y0126924D01*
X0071331Y0127035D01*
Y0127289D01*
D02*
G37*
G36*
X0065321Y0128248D02*
X0065271D01*
X0065222Y0128236D01*
X0065154Y0128223D01*
X0065079Y0128199D01*
X0064993Y0128162D01*
X0064912Y0128112D01*
X0064832Y0128044D01*
X0064826Y0128038D01*
X0064801Y0128007D01*
X0064770Y0127963D01*
X0064727Y0127901D01*
X0064683Y0127827D01*
X0064646Y0127734D01*
X0064615Y0127629D01*
X0064590Y0127512D01*
X0065946D01*
Y0127518D01*
Y0127530D01*
Y0127542D01*
Y0127567D01*
X0065940Y0127635D01*
X0065927Y0127710D01*
X0065903Y0127803D01*
X0065878Y0127889D01*
X0065834Y0127976D01*
X0065779Y0128056D01*
X0065773Y0128062D01*
X0065748Y0128087D01*
X0065711Y0128118D01*
X0065661Y0128155D01*
X0065593Y0128186D01*
X0065513Y0128217D01*
X0065426Y0128242D01*
X0065321Y0128248D01*
D02*
G37*
G36*
X0059645Y0129220D02*
X0059589D01*
X0059552Y0129214D01*
X0059502Y0129208D01*
X0059453Y0129201D01*
X0059391Y0129189D01*
X0059323Y0129171D01*
X0059180Y0129121D01*
X0059106Y0129090D01*
X0059026Y0129053D01*
X0058951Y0129003D01*
X0058877Y0128948D01*
X0058809Y0128886D01*
X0058741Y0128818D01*
X0058735Y0128811D01*
X0058728Y0128799D01*
X0058710Y0128774D01*
X0058685Y0128743D01*
X0058660Y0128706D01*
X0058636Y0128657D01*
X0058605Y0128601D01*
X0058574Y0128539D01*
X0058536Y0128465D01*
X0058506Y0128391D01*
X0058481Y0128304D01*
X0058456Y0128211D01*
X0058431Y0128112D01*
X0058413Y0128000D01*
X0058407Y0127889D01*
X0058400Y0127771D01*
Y0127765D01*
Y0127741D01*
Y0127710D01*
X0058407Y0127666D01*
X0058413Y0127611D01*
X0058419Y0127542D01*
X0058431Y0127474D01*
X0058444Y0127400D01*
X0058481Y0127233D01*
X0058543Y0127053D01*
X0058580Y0126967D01*
X0058623Y0126886D01*
X0058679Y0126800D01*
X0058735Y0126725D01*
X0058741Y0126719D01*
X0058753Y0126707D01*
X0058772Y0126688D01*
X0058797Y0126663D01*
X0058828Y0126633D01*
X0058871Y0126602D01*
X0058920Y0126565D01*
X0058970Y0126527D01*
X0059032Y0126490D01*
X0059100Y0126453D01*
X0059248Y0126391D01*
X0059335Y0126366D01*
X0059422Y0126348D01*
X0059514Y0126335D01*
X0059614Y0126329D01*
X0059669D01*
X0059713Y0126335D01*
X0059756Y0126342D01*
X0059818Y0126348D01*
X0059880Y0126360D01*
X0059948Y0126379D01*
X0060090Y0126422D01*
X0060171Y0126453D01*
X0060245Y0126490D01*
X0060319Y0126533D01*
X0060394Y0126583D01*
X0060462Y0126639D01*
X0060530Y0126707D01*
X0060536Y0126713D01*
X0060542Y0126725D01*
X0060561Y0126744D01*
X0060579Y0126775D01*
X0060610Y0126818D01*
X0060635Y0126862D01*
X0060666Y0126917D01*
X0060697Y0126979D01*
X0060728Y0127053D01*
X0060759Y0127134D01*
X0060790Y0127221D01*
X0060814Y0127313D01*
X0060833Y0127412D01*
X0060852Y0127524D01*
X0060858Y0127641D01*
X0060864Y0127765D01*
Y0127771D01*
Y0127796D01*
Y0127833D01*
X0060858Y0127877D01*
X0060852Y0127939D01*
X0060845Y0128007D01*
X0060839Y0128081D01*
X0060821Y0128162D01*
X0060783Y0128329D01*
X0060728Y0128508D01*
X0060691Y0128595D01*
X0060647Y0128681D01*
X0060592Y0128762D01*
X0060536Y0128836D01*
X0060530Y0128842D01*
X0060523Y0128855D01*
X0060505Y0128873D01*
X0060474Y0128898D01*
X0060443Y0128923D01*
X0060406Y0128960D01*
X0060356Y0128991D01*
X0060307Y0129028D01*
X0060245Y0129065D01*
X0060177Y0129096D01*
X0060103Y0129133D01*
X0060022Y0129158D01*
X0059935Y0129183D01*
X0059849Y0129201D01*
X0059750Y0129214D01*
X0059645Y0129220D01*
D02*
G37*
G36*
X0051950Y0128248D02*
X0051913D01*
X0051889Y0128242D01*
X0051814Y0128236D01*
X0051727Y0128217D01*
X0051629Y0128186D01*
X0051523Y0128137D01*
X0051424Y0128069D01*
X0051375Y0128032D01*
X0051331Y0127982D01*
X0051319Y0127970D01*
X0051294Y0127933D01*
X0051263Y0127877D01*
X0051220Y0127796D01*
X0051177Y0127691D01*
X0051146Y0127567D01*
X0051121Y0127425D01*
X0051108Y0127258D01*
Y0127252D01*
Y0127239D01*
Y0127214D01*
X0051115Y0127183D01*
Y0127146D01*
X0051121Y0127103D01*
X0051139Y0127004D01*
X0051164Y0126892D01*
X0051208Y0126775D01*
X0051263Y0126657D01*
X0051338Y0126552D01*
X0051350Y0126540D01*
X0051381Y0126515D01*
X0051430Y0126472D01*
X0051499Y0126428D01*
X0051585Y0126379D01*
X0051690Y0126335D01*
X0051814Y0126311D01*
X0051950Y0126298D01*
X0051987D01*
X0052012Y0126304D01*
X0052087Y0126311D01*
X0052173Y0126329D01*
X0052266Y0126360D01*
X0052371Y0126403D01*
X0052464Y0126465D01*
X0052551Y0126546D01*
X0052557Y0126558D01*
X0052582Y0126595D01*
X0052619Y0126651D01*
X0052656Y0126732D01*
X0052693Y0126837D01*
X0052730Y0126961D01*
X0052755Y0127103D01*
X0052761Y0127270D01*
Y0127276D01*
Y0127289D01*
Y0127313D01*
Y0127351D01*
X0052755Y0127388D01*
X0052749Y0127431D01*
X0052737Y0127536D01*
X0052712Y0127654D01*
X0052675Y0127771D01*
X0052619Y0127889D01*
X0052551Y0127994D01*
X0052538Y0128007D01*
X0052514Y0128032D01*
X0052464Y0128075D01*
X0052396Y0128124D01*
X0052309Y0128168D01*
X0052210Y0128211D01*
X0052087Y0128236D01*
X0051950Y0128248D01*
D02*
G37*
G36*
X0023522Y0105642D02*
X0023453Y0105642D01*
X0023385Y0105634D01*
X0023317Y0105618D01*
X0023252Y0105595D01*
X0023190Y0105564D01*
X0023132Y0105527D01*
X0023078Y0105484D01*
X0023029Y0105435D01*
X0022987Y0105380D01*
X0022950Y0105322D01*
X0022921Y0105259D01*
X0022898Y0105194D01*
X0022883Y0105126D01*
X0022876Y0105057D01*
X0022876Y0104988D01*
X0022885Y0104920D01*
X0022900Y0104852D01*
X0022923Y0104787D01*
X0022954Y0104725D01*
X0022991Y0104667D01*
X0023034Y0104613D01*
X0023084Y0104564D01*
X0023138Y0104522D01*
X0023138Y0104522D01*
X0025073Y0103167D01*
X0025073Y0103167D01*
X0025132Y0103130D01*
X0025194Y0103101D01*
X0025260Y0103078D01*
X0025327Y0103063D01*
X0025396Y0103056D01*
X0025465Y0103057D01*
X0025534Y0103065D01*
X0025601Y0103080D01*
X0025666Y0103104D01*
X0025728Y0103134D01*
X0025787Y0103171D01*
X0025840Y0103215D01*
X0025889Y0103264D01*
X0025932Y0103318D01*
X0025968Y0103377D01*
X0025998Y0103439D01*
X0026020Y0103505D01*
X0026035Y0103572D01*
X0026042Y0103641D01*
X0026042Y0103710D01*
X0026034Y0103779D01*
X0026018Y0103846D01*
X0025995Y0103911D01*
X0025964Y0103973D01*
X0025927Y0104032D01*
X0025884Y0104085D01*
X0025835Y0104134D01*
X0025780Y0104177D01*
X0025780Y0104176D01*
X0023845Y0105531D01*
X0023845Y0105532D01*
X0023787Y0105568D01*
X0023724Y0105598D01*
X0023659Y0105620D01*
X0023591Y0105635D01*
X0023522Y0105642D01*
D02*
G37*
%LPD*%
D10*
X0007894Y0074252D02*
G03*
X0007894Y0074252I-0000394J0000000D01*
G01*
D11*
X0015866Y0062205D02*
G03*
X0015866Y0062205I-0000492J0000000D01*
G01*
X-0019685Y0082776D02*
G03*
X-0019685Y0082776I-0000394J0000000D01*
G01*
X-0027657Y0039272D02*
G03*
X-0027657Y0039272I-0000394J0000000D01*
G01*
X-0000886Y0079528D02*
G03*
X-0000886Y0079528I-0000394J0000000D01*
G01*
D12*
X0021063Y0053543D02*
X0026004D01*
X0021063Y0081102D02*
X0026004D01*
X0014665Y0043001D02*
X0016043D01*
X0012106D02*
X0016043D01*
X0014665D02*
X0016043D01*
X0020646Y0089370D02*
Y0090748D01*
Y0086811D02*
Y0090748D01*
Y0089370D02*
Y0090748D01*
D13*
X0000000Y0033268D02*
X0001476Y0035236D01*
X-0001476D02*
X0000000Y0033268D01*
X-0001476Y0035236D02*
X0001476D01*
X-0001476Y0033268D02*
X0001476D01*
X-0020091Y0096701D02*
X-0020204Y0096926D01*
X-0020428Y0097151D01*
X-0020653Y0097263D01*
X-0021103D01*
X-0021328Y0097151D01*
X-0021553Y0096926D01*
X-0021666Y0096701D01*
X-0021778Y0096364D01*
Y0095801D01*
X-0021666Y0095464D01*
X-0021553Y0095239D01*
X-0021328Y0095014D01*
X-0021103Y0094902D01*
X-0020653D01*
X-0020428Y0095014D01*
X-0020204Y0095239D01*
X-0020091Y0095464D01*
X-0019428Y0097263D02*
Y0094902D01*
X-0018078D01*
X-0017819Y0097263D02*
Y0094902D01*
X-0016245Y0097263D02*
X-0017819Y0095689D01*
X-0017257Y0096251D02*
X-0016245Y0094902D01*
X0010708Y0116859D02*
Y0117984D01*
X0009696Y0118096D01*
X0009808Y0117984D01*
X0009921Y0117646D01*
Y0117309D01*
X0009808Y0116972D01*
X0009584Y0116747D01*
X0009246Y0116634D01*
X0009021D01*
X0008684Y0116747D01*
X0008459Y0116972D01*
X0008346Y0117309D01*
Y0117646D01*
X0008459Y0117984D01*
X0008571Y0118096D01*
X0008796Y0118209D01*
X0010708Y0116106D02*
X0008346Y0115206D01*
X0010708Y0114306D02*
X0008346Y0115206D01*
X0001161Y0118209D02*
X-0001201D01*
X0001161D02*
Y0117421D01*
X0001048Y0117084D01*
X0000824Y0116859D01*
X0000599Y0116747D01*
X0000261Y0116634D01*
X-0000301D01*
X-0000638Y0116747D01*
X-0000863Y0116859D01*
X-0001088Y0117084D01*
X-0001201Y0117421D01*
Y0118209D01*
X0001161Y0115431D02*
X0001048Y0115656D01*
X0000824Y0115881D01*
X0000599Y0115993D01*
X0000261Y0116106D01*
X-0000301D01*
X-0000638Y0115993D01*
X-0000863Y0115881D01*
X-0001088Y0115656D01*
X-0001201Y0115431D01*
Y0114981D01*
X-0001088Y0114756D01*
X-0000863Y0114531D01*
X-0000638Y0114419D01*
X-0000301Y0114306D01*
X0000261D01*
X0000599Y0114419D01*
X0000824Y0114531D01*
X0001048Y0114756D01*
X0001161Y0114981D01*
Y0115431D01*
Y0113755D02*
X-0000526D01*
X-0000863Y0113643D01*
X-0001088Y0113418D01*
X-0001201Y0113080D01*
Y0112856D01*
X-0001088Y0112518D01*
X-0000863Y0112293D01*
X-0000526Y0112181D01*
X0001161D01*
Y0110741D02*
X-0001201D01*
X0001161Y0111529D02*
Y0109954D01*
X-0009244Y0116522D02*
X-0009019Y0116634D01*
X-0008794Y0116859D01*
X-0008682Y0117084D01*
Y0117534D01*
X-0008794Y0117759D01*
X-0009019Y0117984D01*
X-0009244Y0118096D01*
X-0009581Y0118209D01*
X-0010144D01*
X-0010481Y0118096D01*
X-0010706Y0117984D01*
X-0010931Y0117759D01*
X-0011043Y0117534D01*
Y0117084D01*
X-0010931Y0116859D01*
X-0010706Y0116634D01*
X-0010481Y0116522D01*
X-0010144D01*
Y0117084D02*
Y0116522D01*
X-0008682Y0115982D02*
X-0011043D01*
X-0008682D02*
X-0011043Y0114408D01*
X-0008682D02*
X-0011043D01*
X-0008682Y0113755D02*
X-0011043D01*
X-0008682D02*
Y0112968D01*
X-0008794Y0112631D01*
X-0009019Y0112406D01*
X-0009244Y0112293D01*
X-0009581Y0112181D01*
X-0010144D01*
X-0010481Y0112293D01*
X-0010706Y0112406D01*
X-0010931Y0112631D01*
X-0011043Y0112968D01*
Y0113755D01*
X-0025492Y0088287D02*
Y0085925D01*
Y0088287D02*
X-0024705D01*
X-0024367Y0088174D01*
X-0024143Y0087950D01*
X-0024030Y0087725D01*
X-0023918Y0087387D01*
Y0086825D01*
X-0024030Y0086488D01*
X-0024143Y0086263D01*
X-0024367Y0086038D01*
X-0024705Y0085925D01*
X-0025492D01*
X-0022714Y0088287D02*
X-0022939Y0088174D01*
X-0023164Y0087950D01*
X-0023277Y0087725D01*
X-0023389Y0087387D01*
Y0086825D01*
X-0023277Y0086488D01*
X-0023164Y0086263D01*
X-0022939Y0086038D01*
X-0022714Y0085925D01*
X-0022264D01*
X-0022040Y0086038D01*
X-0021815Y0086263D01*
X-0021702Y0086488D01*
X-0021590Y0086825D01*
Y0087387D01*
X-0021702Y0087725D01*
X-0021815Y0087950D01*
X-0022040Y0088174D01*
X-0022264Y0088287D01*
X-0022714D01*
X-0020251D02*
Y0085925D01*
X-0021039Y0088287D02*
X-0019464D01*
X-0017609Y0087950D02*
X-0017833Y0088174D01*
X-0018171Y0088287D01*
X-0018621D01*
X-0018958Y0088174D01*
X-0019183Y0087950D01*
Y0087725D01*
X-0019071Y0087500D01*
X-0018958Y0087387D01*
X-0018733Y0087275D01*
X-0018058Y0087050D01*
X-0017833Y0086937D01*
X-0017721Y0086825D01*
X-0017609Y0086600D01*
Y0086263D01*
X-0017833Y0086038D01*
X-0018171Y0085925D01*
X-0018621D01*
X-0018958Y0086038D01*
X-0019183Y0086263D01*
X-0016293Y0088287D02*
Y0085925D01*
X-0017080Y0088287D02*
X-0015506D01*
X-0013425Y0085925D02*
X-0014325Y0088287D01*
X-0015224Y0085925D01*
X-0014887Y0086712D02*
X-0013762D01*
X-0012874Y0088287D02*
Y0085925D01*
Y0088287D02*
X-0011862D01*
X-0011524Y0088174D01*
X-0011412Y0088062D01*
X-0011299Y0087837D01*
Y0087612D01*
X-0011412Y0087387D01*
X-0011524Y0087275D01*
X-0011862Y0087162D01*
X-0012874D01*
X-0012087D02*
X-0011299Y0085925D01*
X-0034152Y0029404D02*
G03*
X-0032640Y0033526I-0002312J0003187D01*
G01*
X-0034152Y0029404D02*
G03*
X-0037374Y0023691I0004625J-0006373D01*
G01*
Y0023689D02*
G03*
X-0022104Y0020407I0007846J-0000658D01*
G01*
X-0018392Y0023031D02*
G03*
X-0022104Y0020407I0000000J-0003937D01*
G01*
X-0012874Y0019094D02*
G03*
X-0016811Y0023031I-0003937J0000000D01*
G01*
X-0012874Y0003145D02*
G03*
X-0009729Y-0000000I0003145J0000000D01*
G01*
X0009729D02*
G03*
X0012874Y0003145I0000000J0003145D01*
G01*
X0016811Y0023031D02*
G03*
X0012874Y0019094I0000000J-0003937D01*
G01*
X0022104Y0020407D02*
G03*
X0018392Y0023031I-0003712J-0001312D01*
G01*
X0022104Y0020407D02*
G03*
X0037367Y0023763I0007423J0002625D01*
G01*
Y0023765D02*
G03*
X0034152Y0029404I-0007840J-0000734D01*
G01*
X0032640Y0033526D02*
G03*
X0034152Y0029404I0003824J-0000935D01*
G01*
X-0029035Y0119473D02*
G03*
X-0034152Y0105241I-0000493J-0007859D01*
G01*
X-0032640Y0101120D02*
G03*
X-0034152Y0105241I-0003824J0000935D01*
G01*
X0034152D02*
G03*
X0032640Y0101120I0002312J-0003187D01*
G01*
X0034152Y0105241D02*
G03*
X0029035Y0119473I-0004625J0006373D01*
G01*
X-0032792Y0100492D02*
X-0032640Y0101120D01*
X-0032940Y0099861D02*
X-0032792Y0100492D01*
X-0033086Y0099228D02*
X-0032940Y0099861D01*
X-0033230Y0098592D02*
X-0033086Y0099228D01*
X-0033370Y0097953D02*
X-0033230Y0098592D01*
X-0033507Y0097311D02*
X-0033370Y0097953D01*
X-0033641Y0096667D02*
X-0033507Y0097311D01*
X-0033773Y0096020D02*
X-0033641Y0096667D01*
X-0033901Y0095371D02*
X-0033773Y0096020D01*
X-0034027Y0094719D02*
X-0033901Y0095371D01*
X-0034150Y0094065D02*
X-0034027Y0094719D01*
X-0034269Y0093409D02*
X-0034150Y0094065D01*
X-0034386Y0092750D02*
X-0034269Y0093409D01*
X-0034500Y0092089D02*
X-0034386Y0092750D01*
X-0034610Y0091426D02*
X-0034500Y0092089D01*
X-0034718Y0090761D02*
X-0034610Y0091426D01*
X-0034823Y0090094D02*
X-0034718Y0090761D01*
X-0034924Y0089425D02*
X-0034823Y0090094D01*
X-0035023Y0088754D02*
X-0034924Y0089425D01*
X-0035118Y0088081D02*
X-0035023Y0088754D01*
X-0035211Y0087406D02*
X-0035118Y0088081D01*
X-0035300Y0086730D02*
X-0035211Y0087406D01*
X-0035387Y0086052D02*
X-0035300Y0086730D01*
X-0035470Y0085372D02*
X-0035387Y0086052D01*
X-0035550Y0084691D02*
X-0035470Y0085372D01*
X-0035627Y0084008D02*
X-0035550Y0084691D01*
X-0035702Y0083324D02*
X-0035627Y0084008D01*
X-0035772Y0082638D02*
X-0035702Y0083324D01*
X-0035840Y0081951D02*
X-0035772Y0082638D01*
X-0035905Y0081263D02*
X-0035840Y0081951D01*
X-0035967Y0080573D02*
X-0035905Y0081263D01*
X-0036025Y0079883D02*
X-0035967Y0080573D01*
X-0036080Y0079191D02*
X-0036025Y0079883D01*
X-0036133Y0078498D02*
X-0036080Y0079191D01*
X-0036182Y0077804D02*
X-0036133Y0078498D01*
X-0036228Y0077110D02*
X-0036182Y0077804D01*
X-0036270Y0076414D02*
X-0036228Y0077110D01*
X-0036310Y0075718D02*
X-0036270Y0076414D01*
X-0036346Y0075021D02*
X-0036310Y0075718D01*
X-0036380Y0074323D02*
X-0036346Y0075021D01*
X-0036410Y0073625D02*
X-0036380Y0074323D01*
X-0036437Y0072926D02*
X-0036410Y0073625D01*
X-0036461Y0072227D02*
X-0036437Y0072926D01*
X-0036481Y0071527D02*
X-0036461Y0072227D01*
X-0036499Y0070827D02*
X-0036481Y0071527D01*
X-0036513Y0070126D02*
X-0036499Y0070827D01*
X-0036524Y0069425D02*
X-0036513Y0070126D01*
X-0036532Y0068725D02*
X-0036524Y0069425D01*
X-0036537Y0068024D02*
X-0036532Y0068725D01*
X-0036538Y0067323D02*
X-0036537Y0068024D01*
X-0036538Y0067323D02*
X-0036537Y0066622D01*
X-0036532Y0065921D01*
X-0036524Y0065220D01*
X-0036513Y0064519D01*
X-0036499Y0063819D01*
X-0036481Y0063118D01*
X-0036461Y0062419D01*
X-0036437Y0061719D01*
X-0036410Y0061021D01*
X-0036380Y0060322D01*
X-0036346Y0059625D01*
X-0036310Y0058928D01*
X-0036270Y0058231D01*
X-0036228Y0057536D01*
X-0036182Y0056841D01*
X-0036133Y0056147D01*
X-0036080Y0055455D01*
X-0036025Y0054763D01*
X-0035967Y0054072D01*
X-0035905Y0053383D01*
X-0035840Y0052694D01*
X-0035772Y0052007D01*
X-0035702Y0051322D01*
X-0035627Y0050637D01*
X-0035550Y0049955D01*
X-0035470Y0049273D01*
X-0035387Y0048594D01*
X-0035300Y0047915D01*
X-0035211Y0047239D01*
X-0035118Y0046564D01*
X-0035023Y0045891D01*
X-0034924Y0045220D01*
X-0034823Y0044551D01*
X-0034718Y0043884D01*
X-0034610Y0043219D01*
X-0034500Y0042556D01*
X-0034386Y0041895D01*
X-0034269Y0041236D01*
X-0034150Y0040580D01*
X-0034027Y0039926D01*
X-0033901Y0039274D01*
X-0033773Y0038625D01*
X-0033641Y0037978D01*
X-0033507Y0037334D01*
X-0033370Y0036693D01*
X-0033230Y0036054D01*
X-0033086Y0035418D01*
X-0032940Y0034784D01*
X-0032792Y0034153D01*
X-0032640Y0033526D01*
X-0037374Y0023689D02*
Y0023691D01*
X-0018392Y0023031D02*
X-0016811D01*
X-0012874Y0003145D02*
Y0019094D01*
X0012874Y0003145D02*
Y0019094D01*
X0016811Y0023031D02*
X0018392D01*
X0037367Y0023763D02*
Y0023765D01*
X0032640Y0033526D02*
X0032792Y0034153D01*
X0032940Y0034784D01*
X0033086Y0035418D01*
X0033230Y0036054D01*
X0033370Y0036693D01*
X0033507Y0037334D01*
X0033641Y0037978D01*
X0033773Y0038625D01*
X0033901Y0039274D01*
X0034027Y0039926D01*
X0034150Y0040580D01*
X0034269Y0041236D01*
X0034386Y0041895D01*
X0034500Y0042556D01*
X0034610Y0043219D01*
X0034718Y0043884D01*
X0034823Y0044551D01*
X0034924Y0045220D01*
X0035023Y0045891D01*
X0035118Y0046564D01*
X0035211Y0047239D01*
X0035300Y0047915D01*
X0035387Y0048594D01*
X0035470Y0049273D01*
X0035550Y0049955D01*
X0035627Y0050637D01*
X0035702Y0051322D01*
X0035772Y0052007D01*
X0035840Y0052694D01*
X0035905Y0053383D01*
X0035967Y0054072D01*
X0036025Y0054763D01*
X0036080Y0055455D01*
X0036133Y0056147D01*
X0036182Y0056841D01*
X0036228Y0057536D01*
X0036270Y0058231D01*
X0036310Y0058928D01*
X0036346Y0059625D01*
X0036380Y0060322D01*
X0036410Y0061021D01*
X0036437Y0061719D01*
X0036461Y0062419D01*
X0036481Y0063118D01*
X0036499Y0063819D01*
X0036513Y0064519D01*
X0036524Y0065220D01*
X0036532Y0065921D01*
X0036537Y0066622D01*
X0036538Y0067323D01*
X0036537Y0068024D02*
X0036538Y0067323D01*
X0036532Y0068725D02*
X0036537Y0068024D01*
X0036524Y0069425D02*
X0036532Y0068725D01*
X0036513Y0070126D02*
X0036524Y0069425D01*
X0036499Y0070827D02*
X0036513Y0070126D01*
X0036481Y0071527D02*
X0036499Y0070827D01*
X0036461Y0072227D02*
X0036481Y0071527D01*
X0036437Y0072926D02*
X0036461Y0072227D01*
X0036410Y0073625D02*
X0036437Y0072926D01*
X0036380Y0074323D02*
X0036410Y0073625D01*
X0036346Y0075021D02*
X0036380Y0074323D01*
X0036310Y0075718D02*
X0036346Y0075021D01*
X0036270Y0076414D02*
X0036310Y0075718D01*
X0036228Y0077110D02*
X0036270Y0076414D01*
X0036182Y0077804D02*
X0036228Y0077110D01*
X0036133Y0078498D02*
X0036182Y0077804D01*
X0036080Y0079191D02*
X0036133Y0078498D01*
X0036025Y0079883D02*
X0036080Y0079191D01*
X0035967Y0080573D02*
X0036025Y0079883D01*
X0035905Y0081263D02*
X0035967Y0080573D01*
X0035840Y0081951D02*
X0035905Y0081263D01*
X0035772Y0082638D02*
X0035840Y0081951D01*
X0035702Y0083324D02*
X0035772Y0082638D01*
X0035627Y0084008D02*
X0035702Y0083324D01*
X0035550Y0084691D02*
X0035627Y0084008D01*
X0035470Y0085372D02*
X0035550Y0084691D01*
X0035387Y0086052D02*
X0035470Y0085372D01*
X0035300Y0086730D02*
X0035387Y0086052D01*
X0035211Y0087406D02*
X0035300Y0086730D01*
X0035118Y0088081D02*
X0035211Y0087406D01*
X0035023Y0088754D02*
X0035118Y0088081D01*
X0034924Y0089425D02*
X0035023Y0088754D01*
X0034823Y0090094D02*
X0034924Y0089425D01*
X0034718Y0090761D02*
X0034823Y0090094D01*
X0034610Y0091426D02*
X0034718Y0090761D01*
X0034500Y0092089D02*
X0034610Y0091426D01*
X0034386Y0092750D02*
X0034500Y0092089D01*
X0034269Y0093409D02*
X0034386Y0092750D01*
X0034150Y0094065D02*
X0034269Y0093409D01*
X0034027Y0094719D02*
X0034150Y0094065D01*
X0033901Y0095371D02*
X0034027Y0094719D01*
X0033773Y0096020D02*
X0033901Y0095371D01*
X0033641Y0096667D02*
X0033773Y0096020D01*
X0033507Y0097311D02*
X0033641Y0096667D01*
X0033370Y0097953D02*
X0033507Y0097311D01*
X0033230Y0098592D02*
X0033370Y0097953D01*
X0033086Y0099228D02*
X0033230Y0098592D01*
X0032940Y0099861D02*
X0033086Y0099228D01*
X0032792Y0100492D02*
X0032940Y0099861D01*
X0032640Y0101120D02*
X0032792Y0100492D01*
X-0009724Y0000000D02*
X0009724D01*
X-0029028Y0119472D02*
X0029035D01*
M02*
