M48
;Layer_Color=9474304
;FILE_FORMAT=2:5
INCH
;TYPE=PLATED
T1F00S00C0.01181
T2F00S00C0.02600
T3F00S00C0.02795
T4F00S00C0.08268
;TYPE=NON_PLATED
%
T01
X0000000Y-0054823
X-0000841Y-0034406
X-0000101Y-0025466
X-0005000
X-0006436Y-0015443
X-0003248Y-0014272
X0003094Y-0009461
X0008563Y-0008465
X0014266Y-0002751
X0002747Y0003952
X0003596Y0007160
X-0005414Y0012283
X-0017471Y0012558
X-0010289Y0019861
X-0009387Y-0001906
X-0011506Y-0020185
X0007331Y-0020824
T02
X0011240Y0010329
X0016240
Y0016929
X0011240
X0006240
T03
X-0005000Y-0043504
X0000000
X0005000
T04
X-0014764Y-0029528
X0014764
Y0029528
X-0014764
M30
