G04*
G04 #@! TF.GenerationSoftware,Altium Limited,Altium Designer,21.3.1 (25)*
G04*
G04 Layer_Color=32896*
%FSAX25Y25*%
%MOIN*%
G70*
G04*
G04 #@! TF.SameCoordinates,F5ED4B0F-9D4D-4CB6-A318-13B1BB274F9C*
G04*
G04*
G04 #@! TF.FilePolarity,Positive*
G04*
G01*
G75*
%ADD11C,0.00787*%
%ADD12C,0.00394*%
%ADD76C,0.00315*%
%ADD77R,0.06299X0.04232*%
G36*
X0002362Y0107480D02*
X0000197Y0107480D01*
X0000197Y0105118D01*
X-0000197D01*
Y0107480D01*
X-0002362D01*
Y0107972D01*
X0002362D01*
X0002362Y0107480D01*
D02*
G37*
G36*
X0136020Y0087185D02*
X0136045D01*
X0136101Y0087160D01*
X0136132Y0087141D01*
X0136162Y0087117D01*
X0136169Y0087111D01*
X0136175Y0087104D01*
X0136206Y0087067D01*
X0136231Y0087005D01*
X0136237Y0086968D01*
X0136243Y0086931D01*
Y0086925D01*
Y0086912D01*
X0136237Y0086894D01*
X0136231Y0086869D01*
X0136212Y0086807D01*
X0136187Y0086776D01*
X0136162Y0086745D01*
X0136156D01*
X0136150Y0086733D01*
X0136113Y0086708D01*
X0136057Y0086683D01*
X0136020Y0086677D01*
X0135983Y0086671D01*
X0135964D01*
X0135946Y0086677D01*
X0135921D01*
X0135859Y0086702D01*
X0135828Y0086714D01*
X0135797Y0086739D01*
Y0086745D01*
X0135785Y0086752D01*
X0135773Y0086770D01*
X0135760Y0086789D01*
X0135735Y0086851D01*
X0135729Y0086888D01*
X0135723Y0086931D01*
Y0086937D01*
Y0086949D01*
X0135729Y0086968D01*
X0135735Y0086999D01*
X0135754Y0087055D01*
X0135773Y0087086D01*
X0135797Y0087117D01*
X0135803Y0087123D01*
X0135810Y0087129D01*
X0135847Y0087154D01*
X0135909Y0087179D01*
X0135946Y0087191D01*
X0136002D01*
X0136020Y0087185D01*
D02*
G37*
G36*
X0124030Y0083520D02*
X0123628D01*
Y0083941D01*
X0123615D01*
Y0083935D01*
X0123603Y0083923D01*
X0123584Y0083898D01*
X0123566Y0083867D01*
X0123535Y0083830D01*
X0123498Y0083793D01*
X0123454Y0083749D01*
X0123405Y0083706D01*
X0123349Y0083657D01*
X0123281Y0083613D01*
X0123213Y0083576D01*
X0123133Y0083539D01*
X0123052Y0083508D01*
X0122959Y0083483D01*
X0122860Y0083471D01*
X0122755Y0083465D01*
X0122712D01*
X0122675Y0083471D01*
X0122637Y0083477D01*
X0122588Y0083483D01*
X0122483Y0083508D01*
X0122359Y0083545D01*
X0122235Y0083607D01*
X0122167Y0083644D01*
X0122111Y0083687D01*
X0122049Y0083743D01*
X0121994Y0083799D01*
Y0083805D01*
X0121981Y0083817D01*
X0121969Y0083836D01*
X0121950Y0083861D01*
X0121932Y0083892D01*
X0121907Y0083935D01*
X0121882Y0083985D01*
X0121857Y0084040D01*
X0121826Y0084102D01*
X0121802Y0084170D01*
X0121777Y0084245D01*
X0121758Y0084325D01*
X0121740Y0084412D01*
X0121727Y0084511D01*
X0121721Y0084610D01*
X0121715Y0084715D01*
Y0084721D01*
Y0084740D01*
Y0084777D01*
X0121721Y0084820D01*
X0121727Y0084870D01*
X0121734Y0084932D01*
X0121740Y0085000D01*
X0121752Y0085074D01*
X0121789Y0085235D01*
X0121845Y0085402D01*
X0121882Y0085483D01*
X0121925Y0085563D01*
X0121969Y0085637D01*
X0122025Y0085711D01*
X0122031Y0085718D01*
X0122037Y0085730D01*
X0122055Y0085749D01*
X0122080Y0085773D01*
X0122111Y0085798D01*
X0122154Y0085829D01*
X0122198Y0085866D01*
X0122247Y0085903D01*
X0122371Y0085971D01*
X0122513Y0086033D01*
X0122594Y0086052D01*
X0122681Y0086071D01*
X0122767Y0086083D01*
X0122866Y0086089D01*
X0122916D01*
X0122953Y0086083D01*
X0122990Y0086077D01*
X0123040Y0086071D01*
X0123151Y0086040D01*
X0123275Y0085990D01*
X0123337Y0085959D01*
X0123399Y0085916D01*
X0123461Y0085873D01*
X0123516Y0085817D01*
X0123566Y0085755D01*
X0123615Y0085681D01*
X0123628D01*
Y0087240D01*
X0124030D01*
Y0083520D01*
D02*
G37*
G36*
X0138298Y0086083D02*
X0138372Y0086077D01*
X0138465Y0086058D01*
X0138564Y0086027D01*
X0138669Y0085978D01*
X0138775Y0085910D01*
X0138818Y0085873D01*
X0138861Y0085823D01*
X0138874Y0085811D01*
X0138899Y0085773D01*
X0138929Y0085711D01*
X0138973Y0085625D01*
X0139010Y0085520D01*
X0139047Y0085390D01*
X0139072Y0085235D01*
X0139078Y0085055D01*
Y0083520D01*
X0138676D01*
Y0084950D01*
Y0084956D01*
Y0084987D01*
X0138669Y0085024D01*
Y0085074D01*
X0138657Y0085136D01*
X0138645Y0085204D01*
X0138626Y0085278D01*
X0138601Y0085352D01*
X0138570Y0085427D01*
X0138533Y0085495D01*
X0138484Y0085563D01*
X0138428Y0085625D01*
X0138366Y0085674D01*
X0138286Y0085711D01*
X0138199Y0085742D01*
X0138094Y0085749D01*
X0138081D01*
X0138044Y0085742D01*
X0137988Y0085736D01*
X0137920Y0085718D01*
X0137840Y0085693D01*
X0137753Y0085650D01*
X0137673Y0085594D01*
X0137592Y0085520D01*
X0137586Y0085507D01*
X0137561Y0085483D01*
X0137531Y0085433D01*
X0137493Y0085365D01*
X0137456Y0085284D01*
X0137425Y0085185D01*
X0137400Y0085074D01*
X0137394Y0084950D01*
Y0083520D01*
X0136992D01*
Y0086033D01*
X0137394D01*
Y0085612D01*
X0137407D01*
X0137413Y0085619D01*
X0137419Y0085631D01*
X0137438Y0085656D01*
X0137462Y0085687D01*
X0137487Y0085724D01*
X0137524Y0085761D01*
X0137568Y0085804D01*
X0137617Y0085854D01*
X0137673Y0085897D01*
X0137735Y0085941D01*
X0137803Y0085978D01*
X0137877Y0086015D01*
X0137951Y0086046D01*
X0138038Y0086071D01*
X0138131Y0086083D01*
X0138230Y0086089D01*
X0138267D01*
X0138298Y0086083D01*
D02*
G37*
G36*
X0121300Y0086071D02*
X0121375Y0086064D01*
X0121418Y0086052D01*
X0121449Y0086040D01*
Y0085625D01*
X0121443Y0085631D01*
X0121430Y0085637D01*
X0121405Y0085650D01*
X0121375Y0085668D01*
X0121331Y0085681D01*
X0121275Y0085693D01*
X0121214Y0085699D01*
X0121145Y0085705D01*
X0121133D01*
X0121102Y0085699D01*
X0121053Y0085693D01*
X0120997Y0085674D01*
X0120923Y0085644D01*
X0120855Y0085600D01*
X0120780Y0085538D01*
X0120712Y0085458D01*
X0120706Y0085445D01*
X0120687Y0085414D01*
X0120657Y0085359D01*
X0120626Y0085284D01*
X0120595Y0085192D01*
X0120564Y0085074D01*
X0120545Y0084944D01*
X0120539Y0084795D01*
Y0083520D01*
X0120137D01*
Y0086033D01*
X0120539D01*
Y0085514D01*
X0120551D01*
Y0085520D01*
X0120557Y0085526D01*
X0120570Y0085557D01*
X0120588Y0085606D01*
X0120619Y0085668D01*
X0120650Y0085730D01*
X0120700Y0085798D01*
X0120749Y0085866D01*
X0120811Y0085928D01*
X0120817Y0085934D01*
X0120842Y0085953D01*
X0120879Y0085978D01*
X0120929Y0086002D01*
X0120985Y0086027D01*
X0121053Y0086052D01*
X0121127Y0086071D01*
X0121207Y0086077D01*
X0121263D01*
X0121300Y0086071D01*
D02*
G37*
G36*
X0132040Y0083520D02*
X0131638D01*
Y0083916D01*
X0131625D01*
Y0083910D01*
X0131613Y0083898D01*
X0131600Y0083873D01*
X0131576Y0083848D01*
X0131520Y0083774D01*
X0131433Y0083694D01*
X0131384Y0083650D01*
X0131328Y0083607D01*
X0131266Y0083570D01*
X0131192Y0083533D01*
X0131118Y0083508D01*
X0131037Y0083483D01*
X0130944Y0083471D01*
X0130851Y0083465D01*
X0130814D01*
X0130771Y0083471D01*
X0130709Y0083483D01*
X0130641Y0083495D01*
X0130567Y0083520D01*
X0130486Y0083551D01*
X0130406Y0083601D01*
X0130319Y0083657D01*
X0130239Y0083725D01*
X0130164Y0083811D01*
X0130096Y0083916D01*
X0130034Y0084034D01*
X0129991Y0084176D01*
X0129966Y0084344D01*
X0129954Y0084430D01*
Y0084529D01*
Y0086033D01*
X0130350D01*
Y0084591D01*
Y0084585D01*
Y0084560D01*
X0130356Y0084517D01*
X0130362Y0084467D01*
X0130369Y0084405D01*
X0130381Y0084344D01*
X0130400Y0084269D01*
X0130424Y0084195D01*
X0130462Y0084121D01*
X0130499Y0084053D01*
X0130548Y0083985D01*
X0130610Y0083923D01*
X0130678Y0083873D01*
X0130759Y0083836D01*
X0130858Y0083805D01*
X0130963Y0083799D01*
X0130975D01*
X0131012Y0083805D01*
X0131068Y0083811D01*
X0131130Y0083824D01*
X0131210Y0083855D01*
X0131291Y0083892D01*
X0131371Y0083941D01*
X0131446Y0084016D01*
X0131452Y0084028D01*
X0131477Y0084053D01*
X0131508Y0084102D01*
X0131545Y0084170D01*
X0131576Y0084251D01*
X0131607Y0084350D01*
X0131631Y0084461D01*
X0131638Y0084585D01*
Y0086033D01*
X0132040D01*
Y0083520D01*
D02*
G37*
G36*
X0136175D02*
X0135773D01*
Y0086033D01*
X0136175D01*
Y0083520D01*
D02*
G37*
G36*
X0134955D02*
X0134553D01*
Y0087240D01*
X0134955D01*
Y0083520D01*
D02*
G37*
G36*
X0118577Y0086083D02*
X0118632Y0086077D01*
X0118701Y0086058D01*
X0118775Y0086040D01*
X0118855Y0086009D01*
X0118942Y0085971D01*
X0119022Y0085922D01*
X0119103Y0085860D01*
X0119177Y0085786D01*
X0119245Y0085693D01*
X0119301Y0085588D01*
X0119344Y0085464D01*
X0119369Y0085322D01*
X0119381Y0085154D01*
Y0083520D01*
X0118979D01*
Y0083910D01*
X0118967D01*
Y0083904D01*
X0118954Y0083892D01*
X0118942Y0083867D01*
X0118917Y0083842D01*
X0118855Y0083768D01*
X0118775Y0083687D01*
X0118663Y0083607D01*
X0118533Y0083533D01*
X0118453Y0083508D01*
X0118372Y0083483D01*
X0118286Y0083471D01*
X0118193Y0083465D01*
X0118156D01*
X0118131Y0083471D01*
X0118063Y0083477D01*
X0117982Y0083489D01*
X0117883Y0083514D01*
X0117791Y0083545D01*
X0117692Y0083595D01*
X0117605Y0083657D01*
X0117599Y0083669D01*
X0117574Y0083694D01*
X0117537Y0083737D01*
X0117500Y0083799D01*
X0117463Y0083873D01*
X0117425Y0083960D01*
X0117401Y0084065D01*
X0117394Y0084183D01*
Y0084189D01*
Y0084214D01*
X0117401Y0084251D01*
X0117407Y0084294D01*
X0117419Y0084350D01*
X0117438Y0084412D01*
X0117463Y0084480D01*
X0117500Y0084548D01*
X0117543Y0084622D01*
X0117599Y0084696D01*
X0117667Y0084764D01*
X0117747Y0084826D01*
X0117840Y0084888D01*
X0117952Y0084938D01*
X0118075Y0084975D01*
X0118224Y0085006D01*
X0118979Y0085111D01*
Y0085117D01*
Y0085136D01*
X0118973Y0085173D01*
Y0085210D01*
X0118960Y0085260D01*
X0118954Y0085315D01*
X0118917Y0085433D01*
X0118886Y0085489D01*
X0118855Y0085544D01*
X0118812Y0085600D01*
X0118762Y0085650D01*
X0118701Y0085693D01*
X0118632Y0085724D01*
X0118552Y0085742D01*
X0118459Y0085749D01*
X0118416D01*
X0118385Y0085742D01*
X0118342D01*
X0118298Y0085730D01*
X0118187Y0085711D01*
X0118063Y0085674D01*
X0117927Y0085619D01*
X0117852Y0085582D01*
X0117784Y0085544D01*
X0117710Y0085495D01*
X0117642Y0085439D01*
Y0085854D01*
X0117648D01*
X0117661Y0085866D01*
X0117679Y0085879D01*
X0117710Y0085891D01*
X0117741Y0085910D01*
X0117784Y0085928D01*
X0117834Y0085947D01*
X0117890Y0085971D01*
X0118013Y0086015D01*
X0118162Y0086052D01*
X0118323Y0086077D01*
X0118496Y0086089D01*
X0118533D01*
X0118577Y0086083D01*
D02*
G37*
G36*
X0112888Y0087030D02*
X0112931D01*
X0112975Y0087024D01*
X0113074Y0087011D01*
X0113191Y0086980D01*
X0113315Y0086943D01*
X0113433Y0086888D01*
X0113538Y0086813D01*
X0113544D01*
X0113550Y0086801D01*
X0113581Y0086776D01*
X0113625Y0086727D01*
X0113674Y0086659D01*
X0113717Y0086572D01*
X0113761Y0086473D01*
X0113792Y0086361D01*
X0113804Y0086300D01*
Y0086231D01*
Y0086225D01*
Y0086219D01*
Y0086182D01*
X0113798Y0086126D01*
X0113786Y0086058D01*
X0113767Y0085971D01*
X0113736Y0085885D01*
X0113699Y0085798D01*
X0113643Y0085711D01*
X0113637Y0085699D01*
X0113612Y0085674D01*
X0113575Y0085637D01*
X0113526Y0085588D01*
X0113464Y0085538D01*
X0113390Y0085483D01*
X0113297Y0085439D01*
X0113198Y0085396D01*
Y0085390D01*
X0113216D01*
X0113235Y0085383D01*
X0113253Y0085377D01*
X0113321Y0085365D01*
X0113402Y0085340D01*
X0113488Y0085303D01*
X0113581Y0085260D01*
X0113674Y0085198D01*
X0113761Y0085117D01*
X0113773Y0085105D01*
X0113798Y0085074D01*
X0113829Y0085031D01*
X0113872Y0084963D01*
X0113909Y0084876D01*
X0113947Y0084777D01*
X0113971Y0084659D01*
X0113978Y0084529D01*
Y0084523D01*
Y0084511D01*
Y0084486D01*
X0113971Y0084455D01*
X0113965Y0084418D01*
X0113959Y0084374D01*
X0113934Y0084269D01*
X0113897Y0084152D01*
X0113841Y0084028D01*
X0113804Y0083972D01*
X0113761Y0083910D01*
X0113705Y0083855D01*
X0113649Y0083799D01*
X0113643D01*
X0113637Y0083786D01*
X0113619Y0083774D01*
X0113594Y0083755D01*
X0113563Y0083737D01*
X0113520Y0083712D01*
X0113427Y0083663D01*
X0113309Y0083607D01*
X0113173Y0083564D01*
X0113012Y0083533D01*
X0112931Y0083526D01*
X0112839Y0083520D01*
X0111811D01*
Y0087036D01*
X0112857D01*
X0112888Y0087030D01*
D02*
G37*
G36*
X0133383Y0086033D02*
X0134021D01*
Y0085687D01*
X0133383D01*
Y0084269D01*
Y0084257D01*
Y0084226D01*
X0133389Y0084183D01*
X0133396Y0084127D01*
X0133420Y0084009D01*
X0133439Y0083954D01*
X0133470Y0083910D01*
X0133476Y0083904D01*
X0133488Y0083892D01*
X0133507Y0083879D01*
X0133538Y0083861D01*
X0133575Y0083836D01*
X0133625Y0083824D01*
X0133686Y0083811D01*
X0133755Y0083805D01*
X0133779D01*
X0133810Y0083811D01*
X0133847Y0083817D01*
X0133934Y0083842D01*
X0133977Y0083861D01*
X0134021Y0083886D01*
Y0083539D01*
X0134015D01*
X0133996Y0083526D01*
X0133965Y0083520D01*
X0133922Y0083508D01*
X0133866Y0083495D01*
X0133804Y0083483D01*
X0133730Y0083477D01*
X0133643Y0083471D01*
X0133612D01*
X0133581Y0083477D01*
X0133538Y0083483D01*
X0133488Y0083495D01*
X0133433Y0083508D01*
X0133377Y0083533D01*
X0133315Y0083564D01*
X0133253Y0083601D01*
X0133191Y0083650D01*
X0133136Y0083706D01*
X0133086Y0083780D01*
X0133043Y0083861D01*
X0133012Y0083960D01*
X0132987Y0084071D01*
X0132981Y0084201D01*
Y0085687D01*
X0132554D01*
Y0086033D01*
X0132981D01*
Y0086646D01*
X0133383Y0086776D01*
Y0086033D01*
D02*
G37*
G36*
X0140910Y0086083D02*
X0140954Y0086077D01*
X0140997Y0086071D01*
X0141108Y0086052D01*
X0141232Y0086009D01*
X0141356Y0085953D01*
X0141418Y0085916D01*
X0141480Y0085873D01*
X0141535Y0085823D01*
X0141591Y0085767D01*
X0141597Y0085761D01*
X0141604Y0085755D01*
X0141616Y0085736D01*
X0141634Y0085711D01*
X0141653Y0085674D01*
X0141678Y0085637D01*
X0141702Y0085594D01*
X0141727Y0085538D01*
X0141752Y0085476D01*
X0141777Y0085414D01*
X0141802Y0085340D01*
X0141820Y0085260D01*
X0141839Y0085173D01*
X0141851Y0085086D01*
X0141864Y0084987D01*
Y0084882D01*
Y0084672D01*
X0140087D01*
Y0084665D01*
Y0084653D01*
Y0084635D01*
X0140093Y0084604D01*
X0140099Y0084566D01*
Y0084529D01*
X0140118Y0084430D01*
X0140149Y0084331D01*
X0140186Y0084220D01*
X0140242Y0084114D01*
X0140310Y0084022D01*
X0140322Y0084009D01*
X0140347Y0083985D01*
X0140396Y0083954D01*
X0140464Y0083910D01*
X0140551Y0083867D01*
X0140650Y0083836D01*
X0140768Y0083811D01*
X0140904Y0083799D01*
X0140947D01*
X0140978Y0083805D01*
X0141015D01*
X0141059Y0083811D01*
X0141164Y0083836D01*
X0141282Y0083867D01*
X0141412Y0083916D01*
X0141548Y0083985D01*
X0141616Y0084028D01*
X0141684Y0084077D01*
Y0083700D01*
X0141678D01*
X0141672Y0083687D01*
X0141653Y0083681D01*
X0141622Y0083663D01*
X0141591Y0083644D01*
X0141554Y0083626D01*
X0141504Y0083607D01*
X0141455Y0083582D01*
X0141393Y0083557D01*
X0141325Y0083539D01*
X0141176Y0083502D01*
X0141003Y0083477D01*
X0140811Y0083465D01*
X0140762D01*
X0140725Y0083471D01*
X0140681Y0083477D01*
X0140626Y0083483D01*
X0140508Y0083508D01*
X0140372Y0083545D01*
X0140235Y0083607D01*
X0140167Y0083650D01*
X0140099Y0083694D01*
X0140037Y0083743D01*
X0139976Y0083805D01*
X0139969Y0083811D01*
X0139963Y0083824D01*
X0139951Y0083842D01*
X0139926Y0083867D01*
X0139907Y0083904D01*
X0139883Y0083947D01*
X0139852Y0083997D01*
X0139827Y0084053D01*
X0139796Y0084114D01*
X0139771Y0084189D01*
X0139740Y0084269D01*
X0139722Y0084356D01*
X0139703Y0084449D01*
X0139685Y0084548D01*
X0139678Y0084653D01*
X0139672Y0084764D01*
Y0084771D01*
Y0084789D01*
Y0084820D01*
X0139678Y0084864D01*
X0139685Y0084913D01*
X0139691Y0084969D01*
X0139697Y0085037D01*
X0139716Y0085105D01*
X0139753Y0085254D01*
X0139808Y0085414D01*
X0139846Y0085495D01*
X0139895Y0085569D01*
X0139945Y0085650D01*
X0140000Y0085718D01*
X0140006Y0085724D01*
X0140019Y0085736D01*
X0140037Y0085755D01*
X0140062Y0085773D01*
X0140093Y0085804D01*
X0140130Y0085835D01*
X0140180Y0085866D01*
X0140229Y0085903D01*
X0140347Y0085971D01*
X0140489Y0086033D01*
X0140570Y0086052D01*
X0140650Y0086071D01*
X0140737Y0086083D01*
X0140830Y0086089D01*
X0140879D01*
X0140910Y0086083D01*
D02*
G37*
G36*
X0127868Y0087092D02*
X0127930Y0087086D01*
X0128004Y0087073D01*
X0128085Y0087055D01*
X0128171Y0087036D01*
X0128258Y0087011D01*
X0128357Y0086980D01*
X0128450Y0086937D01*
X0128549Y0086888D01*
X0128648Y0086832D01*
X0128741Y0086764D01*
X0128833Y0086690D01*
X0128920Y0086603D01*
X0128926Y0086597D01*
X0128939Y0086578D01*
X0128963Y0086553D01*
X0128988Y0086516D01*
X0129025Y0086467D01*
X0129063Y0086405D01*
X0129100Y0086337D01*
X0129143Y0086263D01*
X0129186Y0086170D01*
X0129224Y0086077D01*
X0129261Y0085971D01*
X0129298Y0085854D01*
X0129323Y0085736D01*
X0129347Y0085606D01*
X0129360Y0085464D01*
X0129366Y0085322D01*
Y0085309D01*
Y0085284D01*
Y0085241D01*
X0129360Y0085179D01*
X0129353Y0085105D01*
X0129341Y0085024D01*
X0129329Y0084932D01*
X0129310Y0084826D01*
X0129285Y0084721D01*
X0129254Y0084610D01*
X0129217Y0084498D01*
X0129174Y0084387D01*
X0129118Y0084269D01*
X0129056Y0084164D01*
X0128988Y0084059D01*
X0128908Y0083960D01*
X0128902Y0083954D01*
X0128889Y0083941D01*
X0128858Y0083916D01*
X0128827Y0083886D01*
X0128778Y0083842D01*
X0128722Y0083805D01*
X0128660Y0083755D01*
X0128586Y0083712D01*
X0128505Y0083669D01*
X0128413Y0083619D01*
X0128314Y0083582D01*
X0128202Y0083545D01*
X0128085Y0083508D01*
X0127961Y0083483D01*
X0127831Y0083471D01*
X0127688Y0083465D01*
X0127657D01*
X0127614Y0083471D01*
X0127565D01*
X0127503Y0083477D01*
X0127428Y0083489D01*
X0127348Y0083508D01*
X0127255Y0083526D01*
X0127162Y0083551D01*
X0127063Y0083582D01*
X0126964Y0083626D01*
X0126865Y0083669D01*
X0126766Y0083725D01*
X0126667Y0083793D01*
X0126574Y0083867D01*
X0126488Y0083954D01*
X0126481Y0083960D01*
X0126469Y0083978D01*
X0126444Y0084003D01*
X0126419Y0084040D01*
X0126382Y0084090D01*
X0126345Y0084152D01*
X0126308Y0084220D01*
X0126265Y0084300D01*
X0126221Y0084387D01*
X0126184Y0084480D01*
X0126147Y0084585D01*
X0126110Y0084703D01*
X0126085Y0084820D01*
X0126060Y0084950D01*
X0126048Y0085093D01*
X0126042Y0085235D01*
Y0085247D01*
Y0085272D01*
X0126048Y0085315D01*
Y0085377D01*
X0126054Y0085445D01*
X0126067Y0085532D01*
X0126079Y0085625D01*
X0126098Y0085724D01*
X0126122Y0085829D01*
X0126153Y0085941D01*
X0126190Y0086052D01*
X0126234Y0086163D01*
X0126289Y0086275D01*
X0126351Y0086386D01*
X0126419Y0086492D01*
X0126500Y0086590D01*
X0126506Y0086597D01*
X0126518Y0086615D01*
X0126549Y0086640D01*
X0126587Y0086671D01*
X0126630Y0086708D01*
X0126686Y0086752D01*
X0126754Y0086795D01*
X0126828Y0086844D01*
X0126915Y0086894D01*
X0127007Y0086937D01*
X0127106Y0086980D01*
X0127218Y0087018D01*
X0127342Y0087049D01*
X0127472Y0087080D01*
X0127608Y0087092D01*
X0127750Y0087098D01*
X0127818D01*
X0127868Y0087092D01*
D02*
G37*
G36*
X0115841Y0086083D02*
X0115884Y0086077D01*
X0115940Y0086071D01*
X0116064Y0086046D01*
X0116206Y0086002D01*
X0116348Y0085941D01*
X0116423Y0085903D01*
X0116491Y0085860D01*
X0116559Y0085804D01*
X0116621Y0085742D01*
X0116627Y0085736D01*
X0116633Y0085724D01*
X0116652Y0085705D01*
X0116670Y0085681D01*
X0116695Y0085644D01*
X0116720Y0085600D01*
X0116751Y0085551D01*
X0116782Y0085495D01*
X0116806Y0085427D01*
X0116837Y0085359D01*
X0116862Y0085278D01*
X0116887Y0085192D01*
X0116905Y0085099D01*
X0116924Y0085000D01*
X0116930Y0084895D01*
X0116936Y0084783D01*
Y0084777D01*
Y0084758D01*
Y0084727D01*
X0116930Y0084684D01*
X0116924Y0084635D01*
X0116918Y0084573D01*
X0116905Y0084511D01*
X0116893Y0084436D01*
X0116856Y0084288D01*
X0116794Y0084127D01*
X0116757Y0084046D01*
X0116707Y0083966D01*
X0116658Y0083892D01*
X0116596Y0083824D01*
X0116590Y0083817D01*
X0116577Y0083811D01*
X0116559Y0083793D01*
X0116534Y0083768D01*
X0116497Y0083743D01*
X0116460Y0083712D01*
X0116410Y0083675D01*
X0116355Y0083644D01*
X0116293Y0083613D01*
X0116225Y0083576D01*
X0116150Y0083545D01*
X0116070Y0083520D01*
X0115983Y0083495D01*
X0115890Y0083483D01*
X0115791Y0083471D01*
X0115686Y0083465D01*
X0115630D01*
X0115593Y0083471D01*
X0115550Y0083477D01*
X0115494Y0083483D01*
X0115432Y0083495D01*
X0115364Y0083508D01*
X0115222Y0083551D01*
X0115073Y0083613D01*
X0114999Y0083650D01*
X0114931Y0083700D01*
X0114863Y0083749D01*
X0114795Y0083811D01*
X0114788Y0083817D01*
X0114782Y0083830D01*
X0114764Y0083848D01*
X0114745Y0083873D01*
X0114720Y0083910D01*
X0114689Y0083954D01*
X0114658Y0084003D01*
X0114634Y0084059D01*
X0114603Y0084127D01*
X0114572Y0084195D01*
X0114541Y0084269D01*
X0114516Y0084356D01*
X0114479Y0084542D01*
X0114473Y0084641D01*
X0114467Y0084746D01*
Y0084752D01*
Y0084777D01*
Y0084808D01*
X0114473Y0084851D01*
X0114479Y0084901D01*
X0114485Y0084963D01*
X0114497Y0085031D01*
X0114510Y0085105D01*
X0114547Y0085266D01*
X0114609Y0085427D01*
X0114652Y0085507D01*
X0114696Y0085588D01*
X0114745Y0085662D01*
X0114807Y0085730D01*
X0114813Y0085736D01*
X0114825Y0085749D01*
X0114844Y0085761D01*
X0114869Y0085786D01*
X0114906Y0085811D01*
X0114949Y0085842D01*
X0114999Y0085879D01*
X0115055Y0085910D01*
X0115117Y0085941D01*
X0115191Y0085978D01*
X0115265Y0086009D01*
X0115352Y0086033D01*
X0115438Y0086058D01*
X0115537Y0086077D01*
X0115643Y0086083D01*
X0115748Y0086089D01*
X0115804D01*
X0115841Y0086083D01*
D02*
G37*
G36*
X0126748Y0063587D02*
X0126803Y0063575D01*
X0126865Y0063563D01*
X0126933Y0063538D01*
X0127014Y0063507D01*
X0127088Y0063464D01*
X0127168Y0063414D01*
X0127243Y0063346D01*
X0127311Y0063259D01*
X0127373Y0063160D01*
X0127428Y0063049D01*
X0127465Y0062907D01*
X0127497Y0062752D01*
X0127503Y0062572D01*
Y0061025D01*
X0127100D01*
Y0062467D01*
Y0062473D01*
Y0062486D01*
Y0062504D01*
Y0062535D01*
X0127094Y0062609D01*
X0127082Y0062696D01*
X0127069Y0062795D01*
X0127045Y0062894D01*
X0127014Y0062987D01*
X0126970Y0063068D01*
X0126964Y0063074D01*
X0126946Y0063099D01*
X0126915Y0063129D01*
X0126865Y0063160D01*
X0126809Y0063197D01*
X0126735Y0063222D01*
X0126642Y0063247D01*
X0126537Y0063253D01*
X0126525D01*
X0126494Y0063247D01*
X0126444Y0063241D01*
X0126382Y0063222D01*
X0126314Y0063197D01*
X0126240Y0063154D01*
X0126166Y0063099D01*
X0126098Y0063018D01*
X0126091Y0063006D01*
X0126073Y0062975D01*
X0126042Y0062925D01*
X0126011Y0062857D01*
X0125974Y0062777D01*
X0125949Y0062684D01*
X0125924Y0062572D01*
X0125918Y0062455D01*
Y0061025D01*
X0125516D01*
Y0062517D01*
Y0062523D01*
Y0062548D01*
X0125510Y0062585D01*
Y0062634D01*
X0125497Y0062690D01*
X0125485Y0062752D01*
X0125466Y0062814D01*
X0125448Y0062888D01*
X0125417Y0062956D01*
X0125380Y0063018D01*
X0125330Y0063080D01*
X0125274Y0063136D01*
X0125212Y0063185D01*
X0125132Y0063222D01*
X0125045Y0063247D01*
X0124946Y0063253D01*
X0124934D01*
X0124903Y0063247D01*
X0124853Y0063241D01*
X0124792Y0063228D01*
X0124723Y0063197D01*
X0124649Y0063160D01*
X0124575Y0063105D01*
X0124507Y0063030D01*
X0124501Y0063018D01*
X0124482Y0062993D01*
X0124451Y0062944D01*
X0124420Y0062876D01*
X0124389Y0062795D01*
X0124358Y0062696D01*
X0124340Y0062585D01*
X0124333Y0062455D01*
Y0061025D01*
X0123931D01*
Y0063538D01*
X0124333D01*
Y0063136D01*
X0124346D01*
X0124352Y0063142D01*
X0124358Y0063154D01*
X0124377Y0063179D01*
X0124395Y0063210D01*
X0124457Y0063278D01*
X0124544Y0063365D01*
X0124655Y0063451D01*
X0124785Y0063519D01*
X0124866Y0063550D01*
X0124946Y0063575D01*
X0125033Y0063587D01*
X0125126Y0063594D01*
X0125169D01*
X0125219Y0063587D01*
X0125280Y0063575D01*
X0125349Y0063556D01*
X0125423Y0063532D01*
X0125497Y0063501D01*
X0125571Y0063451D01*
X0125578Y0063445D01*
X0125602Y0063427D01*
X0125633Y0063396D01*
X0125677Y0063352D01*
X0125720Y0063297D01*
X0125763Y0063235D01*
X0125807Y0063160D01*
X0125838Y0063074D01*
X0125844Y0063080D01*
X0125850Y0063099D01*
X0125868Y0063123D01*
X0125887Y0063154D01*
X0125918Y0063197D01*
X0125955Y0063241D01*
X0125998Y0063284D01*
X0126048Y0063334D01*
X0126104Y0063383D01*
X0126166Y0063427D01*
X0126234Y0063476D01*
X0126308Y0063513D01*
X0126389Y0063544D01*
X0126475Y0063569D01*
X0126574Y0063587D01*
X0126673Y0063594D01*
X0126710D01*
X0126748Y0063587D01*
D02*
G37*
G36*
X0139623Y0063575D02*
X0139697Y0063569D01*
X0139740Y0063556D01*
X0139771Y0063544D01*
Y0063129D01*
X0139765Y0063136D01*
X0139753Y0063142D01*
X0139728Y0063154D01*
X0139697Y0063173D01*
X0139654Y0063185D01*
X0139598Y0063197D01*
X0139536Y0063204D01*
X0139468Y0063210D01*
X0139456D01*
X0139425Y0063204D01*
X0139375Y0063197D01*
X0139319Y0063179D01*
X0139245Y0063148D01*
X0139177Y0063105D01*
X0139103Y0063043D01*
X0139035Y0062962D01*
X0139028Y0062950D01*
X0139010Y0062919D01*
X0138979Y0062863D01*
X0138948Y0062789D01*
X0138917Y0062696D01*
X0138886Y0062578D01*
X0138867Y0062449D01*
X0138861Y0062300D01*
Y0061025D01*
X0138459D01*
Y0063538D01*
X0138861D01*
Y0063018D01*
X0138874D01*
Y0063024D01*
X0138880Y0063030D01*
X0138892Y0063061D01*
X0138911Y0063111D01*
X0138942Y0063173D01*
X0138973Y0063235D01*
X0139022Y0063303D01*
X0139072Y0063371D01*
X0139134Y0063433D01*
X0139140Y0063439D01*
X0139165Y0063458D01*
X0139202Y0063482D01*
X0139251Y0063507D01*
X0139307Y0063532D01*
X0139375Y0063556D01*
X0139449Y0063575D01*
X0139530Y0063581D01*
X0139585D01*
X0139623Y0063575D01*
D02*
G37*
G36*
X0144828Y0060623D02*
X0144822Y0060616D01*
X0144816Y0060592D01*
X0144798Y0060548D01*
X0144773Y0060499D01*
X0144742Y0060443D01*
X0144699Y0060375D01*
X0144655Y0060307D01*
X0144606Y0060233D01*
X0144544Y0060158D01*
X0144482Y0060090D01*
X0144408Y0060022D01*
X0144327Y0059966D01*
X0144247Y0059917D01*
X0144154Y0059873D01*
X0144061Y0059849D01*
X0143956Y0059842D01*
X0143900D01*
X0143863Y0059849D01*
X0143782Y0059861D01*
X0143696Y0059880D01*
Y0060239D01*
X0143702D01*
X0143720Y0060233D01*
X0143745Y0060226D01*
X0143776Y0060220D01*
X0143851Y0060202D01*
X0143931Y0060195D01*
X0143943D01*
X0143980Y0060202D01*
X0144036Y0060214D01*
X0144104Y0060239D01*
X0144178Y0060282D01*
X0144216Y0060313D01*
X0144253Y0060350D01*
X0144290Y0060387D01*
X0144327Y0060437D01*
X0144358Y0060492D01*
X0144389Y0060554D01*
X0144593Y0061025D01*
X0143609Y0063538D01*
X0144055D01*
X0144736Y0061601D01*
Y0061594D01*
X0144742Y0061582D01*
X0144748Y0061563D01*
X0144754Y0061539D01*
X0144760Y0061501D01*
X0144773Y0061464D01*
X0144785Y0061409D01*
X0144804D01*
Y0061421D01*
X0144816Y0061458D01*
X0144828Y0061514D01*
X0144853Y0061594D01*
X0145565Y0063538D01*
X0145980D01*
X0144828Y0060623D01*
D02*
G37*
G36*
X0134398Y0061025D02*
X0134002D01*
X0133049Y0063538D01*
X0133488D01*
X0134132Y0061712D01*
X0134138Y0061706D01*
X0134144Y0061681D01*
X0134157Y0061638D01*
X0134169Y0061594D01*
X0134182Y0061539D01*
X0134200Y0061477D01*
X0134219Y0061359D01*
X0134225D01*
Y0061365D01*
X0134231Y0061390D01*
X0134237Y0061427D01*
X0134244Y0061471D01*
X0134256Y0061526D01*
X0134268Y0061582D01*
X0134306Y0061699D01*
X0134974Y0063538D01*
X0135395D01*
X0134398Y0061025D01*
D02*
G37*
G36*
X0142421Y0063587D02*
X0142476Y0063581D01*
X0142544Y0063563D01*
X0142619Y0063544D01*
X0142699Y0063513D01*
X0142786Y0063476D01*
X0142866Y0063427D01*
X0142947Y0063365D01*
X0143021Y0063290D01*
X0143089Y0063197D01*
X0143145Y0063092D01*
X0143188Y0062968D01*
X0143213Y0062826D01*
X0143225Y0062659D01*
Y0061025D01*
X0142823D01*
Y0061415D01*
X0142810D01*
Y0061409D01*
X0142798Y0061396D01*
X0142786Y0061371D01*
X0142761Y0061347D01*
X0142699Y0061272D01*
X0142619Y0061192D01*
X0142507Y0061111D01*
X0142377Y0061037D01*
X0142297Y0061012D01*
X0142216Y0060988D01*
X0142130Y0060975D01*
X0142037Y0060969D01*
X0142000D01*
X0141975Y0060975D01*
X0141907Y0060982D01*
X0141826Y0060994D01*
X0141727Y0061019D01*
X0141634Y0061050D01*
X0141535Y0061099D01*
X0141449Y0061161D01*
X0141443Y0061173D01*
X0141418Y0061198D01*
X0141381Y0061242D01*
X0141343Y0061303D01*
X0141306Y0061378D01*
X0141269Y0061464D01*
X0141244Y0061569D01*
X0141238Y0061687D01*
Y0061693D01*
Y0061718D01*
X0141244Y0061755D01*
X0141251Y0061799D01*
X0141263Y0061854D01*
X0141282Y0061916D01*
X0141306Y0061984D01*
X0141343Y0062052D01*
X0141387Y0062127D01*
X0141443Y0062201D01*
X0141511Y0062269D01*
X0141591Y0062331D01*
X0141684Y0062393D01*
X0141795Y0062442D01*
X0141919Y0062480D01*
X0142068Y0062510D01*
X0142823Y0062616D01*
Y0062622D01*
Y0062640D01*
X0142817Y0062678D01*
Y0062715D01*
X0142804Y0062764D01*
X0142798Y0062820D01*
X0142761Y0062937D01*
X0142730Y0062993D01*
X0142699Y0063049D01*
X0142656Y0063105D01*
X0142606Y0063154D01*
X0142544Y0063197D01*
X0142476Y0063228D01*
X0142396Y0063247D01*
X0142303Y0063253D01*
X0142260D01*
X0142229Y0063247D01*
X0142185D01*
X0142142Y0063235D01*
X0142031Y0063216D01*
X0141907Y0063179D01*
X0141771Y0063123D01*
X0141696Y0063086D01*
X0141628Y0063049D01*
X0141554Y0062999D01*
X0141486Y0062944D01*
Y0063358D01*
X0141492D01*
X0141504Y0063371D01*
X0141523Y0063383D01*
X0141554Y0063396D01*
X0141585Y0063414D01*
X0141628Y0063433D01*
X0141678Y0063451D01*
X0141734Y0063476D01*
X0141857Y0063519D01*
X0142006Y0063556D01*
X0142167Y0063581D01*
X0142340Y0063594D01*
X0142377D01*
X0142421Y0063587D01*
D02*
G37*
G36*
X0140607Y0061025D02*
X0140205D01*
Y0064745D01*
X0140607D01*
Y0061025D01*
D02*
G37*
G36*
X0112888Y0064535D02*
X0112931D01*
X0112975Y0064528D01*
X0113074Y0064516D01*
X0113191Y0064485D01*
X0113315Y0064448D01*
X0113433Y0064392D01*
X0113538Y0064318D01*
X0113544D01*
X0113550Y0064306D01*
X0113581Y0064281D01*
X0113625Y0064231D01*
X0113674Y0064163D01*
X0113717Y0064077D01*
X0113761Y0063977D01*
X0113792Y0063866D01*
X0113804Y0063804D01*
Y0063736D01*
Y0063730D01*
Y0063724D01*
Y0063687D01*
X0113798Y0063631D01*
X0113786Y0063563D01*
X0113767Y0063476D01*
X0113736Y0063389D01*
X0113699Y0063303D01*
X0113643Y0063216D01*
X0113637Y0063204D01*
X0113612Y0063179D01*
X0113575Y0063142D01*
X0113526Y0063092D01*
X0113464Y0063043D01*
X0113390Y0062987D01*
X0113297Y0062944D01*
X0113198Y0062900D01*
Y0062894D01*
X0113216D01*
X0113235Y0062888D01*
X0113253Y0062882D01*
X0113321Y0062869D01*
X0113402Y0062845D01*
X0113488Y0062808D01*
X0113581Y0062764D01*
X0113674Y0062702D01*
X0113761Y0062622D01*
X0113773Y0062609D01*
X0113798Y0062578D01*
X0113829Y0062535D01*
X0113872Y0062467D01*
X0113909Y0062380D01*
X0113947Y0062281D01*
X0113971Y0062164D01*
X0113978Y0062034D01*
Y0062028D01*
Y0062015D01*
Y0061990D01*
X0113971Y0061959D01*
X0113965Y0061922D01*
X0113959Y0061879D01*
X0113934Y0061774D01*
X0113897Y0061656D01*
X0113841Y0061532D01*
X0113804Y0061477D01*
X0113761Y0061415D01*
X0113705Y0061359D01*
X0113649Y0061303D01*
X0113643D01*
X0113637Y0061291D01*
X0113619Y0061279D01*
X0113594Y0061260D01*
X0113563Y0061242D01*
X0113520Y0061217D01*
X0113427Y0061167D01*
X0113309Y0061111D01*
X0113173Y0061068D01*
X0113012Y0061037D01*
X0112931Y0061031D01*
X0112839Y0061025D01*
X0111811D01*
Y0064541D01*
X0112857D01*
X0112888Y0064535D01*
D02*
G37*
G36*
X0119815Y0063538D02*
X0120452D01*
Y0063191D01*
X0119815D01*
Y0061774D01*
Y0061761D01*
Y0061730D01*
X0119821Y0061687D01*
X0119827Y0061631D01*
X0119852Y0061514D01*
X0119870Y0061458D01*
X0119901Y0061415D01*
X0119907Y0061409D01*
X0119920Y0061396D01*
X0119939Y0061384D01*
X0119969Y0061365D01*
X0120007Y0061340D01*
X0120056Y0061328D01*
X0120118Y0061316D01*
X0120186Y0061310D01*
X0120211D01*
X0120242Y0061316D01*
X0120279Y0061322D01*
X0120366Y0061347D01*
X0120409Y0061365D01*
X0120452Y0061390D01*
Y0061043D01*
X0120446D01*
X0120428Y0061031D01*
X0120397Y0061025D01*
X0120353Y0061012D01*
X0120298Y0061000D01*
X0120236Y0060988D01*
X0120161Y0060982D01*
X0120075Y0060975D01*
X0120044D01*
X0120013Y0060982D01*
X0119969Y0060988D01*
X0119920Y0061000D01*
X0119864Y0061012D01*
X0119808Y0061037D01*
X0119747Y0061068D01*
X0119685Y0061105D01*
X0119623Y0061155D01*
X0119567Y0061211D01*
X0119518Y0061285D01*
X0119474Y0061365D01*
X0119443Y0061464D01*
X0119419Y0061576D01*
X0119412Y0061706D01*
Y0063191D01*
X0118985D01*
Y0063538D01*
X0119412D01*
Y0064151D01*
X0119815Y0064281D01*
Y0063538D01*
D02*
G37*
G36*
X0118112D02*
X0118750D01*
Y0063191D01*
X0118112D01*
Y0061774D01*
Y0061761D01*
Y0061730D01*
X0118119Y0061687D01*
X0118125Y0061631D01*
X0118150Y0061514D01*
X0118168Y0061458D01*
X0118199Y0061415D01*
X0118205Y0061409D01*
X0118218Y0061396D01*
X0118236Y0061384D01*
X0118267Y0061365D01*
X0118304Y0061340D01*
X0118354Y0061328D01*
X0118416Y0061316D01*
X0118484Y0061310D01*
X0118509D01*
X0118540Y0061316D01*
X0118577Y0061322D01*
X0118663Y0061347D01*
X0118707Y0061365D01*
X0118750Y0061390D01*
Y0061043D01*
X0118744D01*
X0118725Y0061031D01*
X0118694Y0061025D01*
X0118651Y0061012D01*
X0118595Y0061000D01*
X0118533Y0060988D01*
X0118459Y0060982D01*
X0118372Y0060975D01*
X0118342D01*
X0118310Y0060982D01*
X0118267Y0060988D01*
X0118218Y0061000D01*
X0118162Y0061012D01*
X0118106Y0061037D01*
X0118044Y0061068D01*
X0117982Y0061105D01*
X0117921Y0061155D01*
X0117865Y0061211D01*
X0117815Y0061285D01*
X0117772Y0061365D01*
X0117741Y0061464D01*
X0117716Y0061576D01*
X0117710Y0061706D01*
Y0063191D01*
X0117283D01*
Y0063538D01*
X0117710D01*
Y0064151D01*
X0118112Y0064281D01*
Y0063538D01*
D02*
G37*
G36*
X0136899Y0063587D02*
X0136942Y0063581D01*
X0136986Y0063575D01*
X0137097Y0063556D01*
X0137221Y0063513D01*
X0137345Y0063458D01*
X0137407Y0063420D01*
X0137469Y0063377D01*
X0137524Y0063327D01*
X0137580Y0063272D01*
X0137586Y0063266D01*
X0137592Y0063259D01*
X0137605Y0063241D01*
X0137623Y0063216D01*
X0137642Y0063179D01*
X0137667Y0063142D01*
X0137691Y0063099D01*
X0137716Y0063043D01*
X0137741Y0062981D01*
X0137766Y0062919D01*
X0137791Y0062845D01*
X0137809Y0062764D01*
X0137828Y0062678D01*
X0137840Y0062591D01*
X0137852Y0062492D01*
Y0062387D01*
Y0062176D01*
X0136076D01*
Y0062170D01*
Y0062158D01*
Y0062139D01*
X0136082Y0062108D01*
X0136088Y0062071D01*
Y0062034D01*
X0136107Y0061935D01*
X0136138Y0061836D01*
X0136175Y0061724D01*
X0136231Y0061619D01*
X0136299Y0061526D01*
X0136311Y0061514D01*
X0136336Y0061489D01*
X0136385Y0061458D01*
X0136453Y0061415D01*
X0136540Y0061371D01*
X0136639Y0061340D01*
X0136757Y0061316D01*
X0136893Y0061303D01*
X0136936D01*
X0136967Y0061310D01*
X0137004D01*
X0137048Y0061316D01*
X0137153Y0061340D01*
X0137270Y0061371D01*
X0137400Y0061421D01*
X0137537Y0061489D01*
X0137605Y0061532D01*
X0137673Y0061582D01*
Y0061204D01*
X0137667D01*
X0137661Y0061192D01*
X0137642Y0061186D01*
X0137611Y0061167D01*
X0137580Y0061149D01*
X0137543Y0061130D01*
X0137493Y0061111D01*
X0137444Y0061087D01*
X0137382Y0061062D01*
X0137314Y0061043D01*
X0137165Y0061006D01*
X0136992Y0060982D01*
X0136800Y0060969D01*
X0136750D01*
X0136713Y0060975D01*
X0136670Y0060982D01*
X0136614Y0060988D01*
X0136497Y0061012D01*
X0136361Y0061050D01*
X0136224Y0061111D01*
X0136156Y0061155D01*
X0136088Y0061198D01*
X0136026Y0061248D01*
X0135964Y0061310D01*
X0135958Y0061316D01*
X0135952Y0061328D01*
X0135940Y0061347D01*
X0135915Y0061371D01*
X0135896Y0061409D01*
X0135872Y0061452D01*
X0135841Y0061501D01*
X0135816Y0061557D01*
X0135785Y0061619D01*
X0135760Y0061693D01*
X0135729Y0061774D01*
X0135711Y0061861D01*
X0135692Y0061953D01*
X0135673Y0062052D01*
X0135667Y0062158D01*
X0135661Y0062269D01*
Y0062275D01*
Y0062294D01*
Y0062325D01*
X0135667Y0062368D01*
X0135673Y0062418D01*
X0135680Y0062473D01*
X0135686Y0062541D01*
X0135704Y0062609D01*
X0135742Y0062758D01*
X0135797Y0062919D01*
X0135834Y0062999D01*
X0135884Y0063074D01*
X0135933Y0063154D01*
X0135989Y0063222D01*
X0135995Y0063228D01*
X0136008Y0063241D01*
X0136026Y0063259D01*
X0136051Y0063278D01*
X0136082Y0063309D01*
X0136119Y0063340D01*
X0136169Y0063371D01*
X0136218Y0063408D01*
X0136336Y0063476D01*
X0136478Y0063538D01*
X0136559Y0063556D01*
X0136639Y0063575D01*
X0136726Y0063587D01*
X0136819Y0063594D01*
X0136868D01*
X0136899Y0063587D01*
D02*
G37*
G36*
X0131285Y0064596D02*
X0131347Y0064590D01*
X0131421Y0064578D01*
X0131501Y0064559D01*
X0131588Y0064541D01*
X0131675Y0064516D01*
X0131774Y0064485D01*
X0131867Y0064442D01*
X0131966Y0064392D01*
X0132065Y0064337D01*
X0132158Y0064268D01*
X0132250Y0064194D01*
X0132337Y0064107D01*
X0132343Y0064101D01*
X0132356Y0064083D01*
X0132380Y0064058D01*
X0132405Y0064021D01*
X0132442Y0063971D01*
X0132479Y0063909D01*
X0132517Y0063841D01*
X0132560Y0063767D01*
X0132603Y0063674D01*
X0132640Y0063581D01*
X0132677Y0063476D01*
X0132715Y0063358D01*
X0132739Y0063241D01*
X0132764Y0063111D01*
X0132776Y0062968D01*
X0132783Y0062826D01*
Y0062814D01*
Y0062789D01*
Y0062746D01*
X0132776Y0062684D01*
X0132770Y0062609D01*
X0132758Y0062529D01*
X0132746Y0062436D01*
X0132727Y0062331D01*
X0132702Y0062226D01*
X0132671Y0062114D01*
X0132634Y0062003D01*
X0132591Y0061891D01*
X0132535Y0061774D01*
X0132473Y0061669D01*
X0132405Y0061563D01*
X0132325Y0061464D01*
X0132318Y0061458D01*
X0132306Y0061446D01*
X0132275Y0061421D01*
X0132244Y0061390D01*
X0132195Y0061347D01*
X0132139Y0061310D01*
X0132077Y0061260D01*
X0132003Y0061217D01*
X0131922Y0061173D01*
X0131830Y0061124D01*
X0131730Y0061087D01*
X0131619Y0061050D01*
X0131501Y0061012D01*
X0131378Y0060988D01*
X0131248Y0060975D01*
X0131105Y0060969D01*
X0131074D01*
X0131031Y0060975D01*
X0130981D01*
X0130920Y0060982D01*
X0130845Y0060994D01*
X0130765Y0061012D01*
X0130672Y0061031D01*
X0130579Y0061056D01*
X0130480Y0061087D01*
X0130381Y0061130D01*
X0130282Y0061173D01*
X0130183Y0061229D01*
X0130084Y0061297D01*
X0129991Y0061371D01*
X0129904Y0061458D01*
X0129898Y0061464D01*
X0129886Y0061483D01*
X0129861Y0061508D01*
X0129836Y0061545D01*
X0129799Y0061594D01*
X0129762Y0061656D01*
X0129725Y0061724D01*
X0129682Y0061805D01*
X0129638Y0061891D01*
X0129601Y0061984D01*
X0129564Y0062090D01*
X0129527Y0062207D01*
X0129502Y0062325D01*
X0129477Y0062455D01*
X0129465Y0062597D01*
X0129459Y0062739D01*
Y0062752D01*
Y0062777D01*
X0129465Y0062820D01*
Y0062882D01*
X0129471Y0062950D01*
X0129483Y0063037D01*
X0129496Y0063129D01*
X0129514Y0063228D01*
X0129539Y0063334D01*
X0129570Y0063445D01*
X0129607Y0063556D01*
X0129651Y0063668D01*
X0129706Y0063779D01*
X0129768Y0063891D01*
X0129836Y0063996D01*
X0129917Y0064095D01*
X0129923Y0064101D01*
X0129935Y0064120D01*
X0129966Y0064145D01*
X0130003Y0064175D01*
X0130047Y0064213D01*
X0130103Y0064256D01*
X0130171Y0064299D01*
X0130245Y0064349D01*
X0130332Y0064398D01*
X0130424Y0064442D01*
X0130523Y0064485D01*
X0130635Y0064522D01*
X0130759Y0064553D01*
X0130889Y0064584D01*
X0131025Y0064596D01*
X0131167Y0064603D01*
X0131235D01*
X0131285Y0064596D01*
D02*
G37*
G36*
X0122192Y0063587D02*
X0122235Y0063581D01*
X0122291Y0063575D01*
X0122415Y0063550D01*
X0122557Y0063507D01*
X0122699Y0063445D01*
X0122774Y0063408D01*
X0122842Y0063365D01*
X0122910Y0063309D01*
X0122972Y0063247D01*
X0122978Y0063241D01*
X0122984Y0063228D01*
X0123003Y0063210D01*
X0123021Y0063185D01*
X0123046Y0063148D01*
X0123071Y0063105D01*
X0123102Y0063055D01*
X0123133Y0062999D01*
X0123157Y0062931D01*
X0123188Y0062863D01*
X0123213Y0062783D01*
X0123238Y0062696D01*
X0123256Y0062603D01*
X0123275Y0062504D01*
X0123281Y0062399D01*
X0123287Y0062288D01*
Y0062281D01*
Y0062263D01*
Y0062232D01*
X0123281Y0062189D01*
X0123275Y0062139D01*
X0123269Y0062077D01*
X0123256Y0062015D01*
X0123244Y0061941D01*
X0123207Y0061792D01*
X0123145Y0061631D01*
X0123108Y0061551D01*
X0123058Y0061471D01*
X0123009Y0061396D01*
X0122947Y0061328D01*
X0122941Y0061322D01*
X0122928Y0061316D01*
X0122910Y0061297D01*
X0122885Y0061272D01*
X0122848Y0061248D01*
X0122811Y0061217D01*
X0122761Y0061180D01*
X0122705Y0061149D01*
X0122643Y0061118D01*
X0122575Y0061080D01*
X0122501Y0061050D01*
X0122421Y0061025D01*
X0122334Y0061000D01*
X0122241Y0060988D01*
X0122142Y0060975D01*
X0122037Y0060969D01*
X0121981D01*
X0121944Y0060975D01*
X0121901Y0060982D01*
X0121845Y0060988D01*
X0121783Y0061000D01*
X0121715Y0061012D01*
X0121573Y0061056D01*
X0121424Y0061118D01*
X0121350Y0061155D01*
X0121282Y0061204D01*
X0121214Y0061254D01*
X0121145Y0061316D01*
X0121139Y0061322D01*
X0121133Y0061334D01*
X0121115Y0061353D01*
X0121096Y0061378D01*
X0121071Y0061415D01*
X0121040Y0061458D01*
X0121009Y0061508D01*
X0120985Y0061563D01*
X0120954Y0061631D01*
X0120923Y0061699D01*
X0120892Y0061774D01*
X0120867Y0061861D01*
X0120830Y0062046D01*
X0120824Y0062145D01*
X0120817Y0062250D01*
Y0062257D01*
Y0062281D01*
Y0062312D01*
X0120824Y0062356D01*
X0120830Y0062405D01*
X0120836Y0062467D01*
X0120848Y0062535D01*
X0120861Y0062609D01*
X0120898Y0062770D01*
X0120960Y0062931D01*
X0121003Y0063012D01*
X0121046Y0063092D01*
X0121096Y0063167D01*
X0121158Y0063235D01*
X0121164Y0063241D01*
X0121177Y0063253D01*
X0121195Y0063266D01*
X0121220Y0063290D01*
X0121257Y0063315D01*
X0121300Y0063346D01*
X0121350Y0063383D01*
X0121405Y0063414D01*
X0121467Y0063445D01*
X0121542Y0063482D01*
X0121616Y0063513D01*
X0121703Y0063538D01*
X0121789Y0063563D01*
X0121888Y0063581D01*
X0121994Y0063587D01*
X0122099Y0063594D01*
X0122154D01*
X0122192Y0063587D01*
D02*
G37*
G36*
X0115841D02*
X0115884Y0063581D01*
X0115940Y0063575D01*
X0116064Y0063550D01*
X0116206Y0063507D01*
X0116348Y0063445D01*
X0116423Y0063408D01*
X0116491Y0063365D01*
X0116559Y0063309D01*
X0116621Y0063247D01*
X0116627Y0063241D01*
X0116633Y0063228D01*
X0116652Y0063210D01*
X0116670Y0063185D01*
X0116695Y0063148D01*
X0116720Y0063105D01*
X0116751Y0063055D01*
X0116782Y0062999D01*
X0116806Y0062931D01*
X0116837Y0062863D01*
X0116862Y0062783D01*
X0116887Y0062696D01*
X0116905Y0062603D01*
X0116924Y0062504D01*
X0116930Y0062399D01*
X0116936Y0062288D01*
Y0062281D01*
Y0062263D01*
Y0062232D01*
X0116930Y0062189D01*
X0116924Y0062139D01*
X0116918Y0062077D01*
X0116905Y0062015D01*
X0116893Y0061941D01*
X0116856Y0061792D01*
X0116794Y0061631D01*
X0116757Y0061551D01*
X0116707Y0061471D01*
X0116658Y0061396D01*
X0116596Y0061328D01*
X0116590Y0061322D01*
X0116577Y0061316D01*
X0116559Y0061297D01*
X0116534Y0061272D01*
X0116497Y0061248D01*
X0116460Y0061217D01*
X0116410Y0061180D01*
X0116355Y0061149D01*
X0116293Y0061118D01*
X0116225Y0061080D01*
X0116150Y0061050D01*
X0116070Y0061025D01*
X0115983Y0061000D01*
X0115890Y0060988D01*
X0115791Y0060975D01*
X0115686Y0060969D01*
X0115630D01*
X0115593Y0060975D01*
X0115550Y0060982D01*
X0115494Y0060988D01*
X0115432Y0061000D01*
X0115364Y0061012D01*
X0115222Y0061056D01*
X0115073Y0061118D01*
X0114999Y0061155D01*
X0114931Y0061204D01*
X0114863Y0061254D01*
X0114795Y0061316D01*
X0114788Y0061322D01*
X0114782Y0061334D01*
X0114764Y0061353D01*
X0114745Y0061378D01*
X0114720Y0061415D01*
X0114689Y0061458D01*
X0114658Y0061508D01*
X0114634Y0061563D01*
X0114603Y0061631D01*
X0114572Y0061699D01*
X0114541Y0061774D01*
X0114516Y0061861D01*
X0114479Y0062046D01*
X0114473Y0062145D01*
X0114467Y0062250D01*
Y0062257D01*
Y0062281D01*
Y0062312D01*
X0114473Y0062356D01*
X0114479Y0062405D01*
X0114485Y0062467D01*
X0114497Y0062535D01*
X0114510Y0062609D01*
X0114547Y0062770D01*
X0114609Y0062931D01*
X0114652Y0063012D01*
X0114696Y0063092D01*
X0114745Y0063167D01*
X0114807Y0063235D01*
X0114813Y0063241D01*
X0114825Y0063253D01*
X0114844Y0063266D01*
X0114869Y0063290D01*
X0114906Y0063315D01*
X0114949Y0063346D01*
X0114999Y0063383D01*
X0115055Y0063414D01*
X0115117Y0063445D01*
X0115191Y0063482D01*
X0115265Y0063513D01*
X0115352Y0063538D01*
X0115438Y0063563D01*
X0115537Y0063581D01*
X0115643Y0063587D01*
X0115748Y0063594D01*
X0115804D01*
X0115841Y0063587D01*
D02*
G37*
%LPC*%
G36*
X0122916Y0085749D02*
X0122879D01*
X0122854Y0085742D01*
X0122786Y0085736D01*
X0122705Y0085718D01*
X0122613Y0085681D01*
X0122513Y0085631D01*
X0122421Y0085569D01*
X0122377Y0085526D01*
X0122334Y0085476D01*
X0122328Y0085464D01*
X0122303Y0085427D01*
X0122266Y0085365D01*
X0122229Y0085284D01*
X0122192Y0085179D01*
X0122154Y0085049D01*
X0122130Y0084901D01*
X0122124Y0084733D01*
Y0084727D01*
Y0084715D01*
Y0084690D01*
X0122130Y0084659D01*
Y0084628D01*
X0122136Y0084585D01*
X0122148Y0084486D01*
X0122173Y0084374D01*
X0122210Y0084263D01*
X0122260Y0084152D01*
X0122328Y0084046D01*
X0122340Y0084034D01*
X0122365Y0084009D01*
X0122408Y0083966D01*
X0122470Y0083923D01*
X0122551Y0083879D01*
X0122643Y0083836D01*
X0122749Y0083811D01*
X0122873Y0083799D01*
X0122904D01*
X0122928Y0083805D01*
X0122990Y0083811D01*
X0123064Y0083830D01*
X0123151Y0083861D01*
X0123244Y0083898D01*
X0123331Y0083960D01*
X0123417Y0084040D01*
X0123424Y0084053D01*
X0123448Y0084084D01*
X0123485Y0084139D01*
X0123522Y0084207D01*
X0123560Y0084294D01*
X0123597Y0084399D01*
X0123621Y0084523D01*
X0123628Y0084653D01*
Y0085024D01*
Y0085031D01*
Y0085037D01*
Y0085074D01*
X0123615Y0085130D01*
X0123603Y0085204D01*
X0123578Y0085284D01*
X0123541Y0085371D01*
X0123492Y0085458D01*
X0123424Y0085538D01*
X0123417Y0085544D01*
X0123386Y0085569D01*
X0123343Y0085606D01*
X0123287Y0085644D01*
X0123213Y0085681D01*
X0123126Y0085718D01*
X0123027Y0085742D01*
X0122916Y0085749D01*
D02*
G37*
G36*
X0118979Y0084789D02*
X0118372Y0084703D01*
X0118360D01*
X0118329Y0084696D01*
X0118280Y0084684D01*
X0118218Y0084672D01*
X0118150Y0084653D01*
X0118075Y0084628D01*
X0118013Y0084604D01*
X0117952Y0084566D01*
X0117945Y0084560D01*
X0117927Y0084548D01*
X0117908Y0084523D01*
X0117883Y0084486D01*
X0117852Y0084436D01*
X0117834Y0084374D01*
X0117815Y0084300D01*
X0117809Y0084214D01*
Y0084207D01*
Y0084183D01*
X0117815Y0084152D01*
X0117828Y0084108D01*
X0117840Y0084059D01*
X0117865Y0084009D01*
X0117896Y0083960D01*
X0117939Y0083910D01*
X0117945Y0083904D01*
X0117964Y0083892D01*
X0117995Y0083873D01*
X0118032Y0083855D01*
X0118081Y0083836D01*
X0118143Y0083817D01*
X0118211Y0083805D01*
X0118292Y0083799D01*
X0118304D01*
X0118342Y0083805D01*
X0118397Y0083811D01*
X0118465Y0083824D01*
X0118540Y0083848D01*
X0118626Y0083886D01*
X0118707Y0083941D01*
X0118781Y0084009D01*
X0118787Y0084022D01*
X0118812Y0084046D01*
X0118843Y0084090D01*
X0118880Y0084152D01*
X0118917Y0084232D01*
X0118948Y0084319D01*
X0118973Y0084424D01*
X0118979Y0084535D01*
Y0084789D01*
D02*
G37*
G36*
X0112696Y0086665D02*
X0112226D01*
Y0085526D01*
X0112702D01*
X0112764Y0085532D01*
X0112839Y0085544D01*
X0112925Y0085563D01*
X0113018Y0085594D01*
X0113099Y0085631D01*
X0113179Y0085687D01*
X0113185Y0085693D01*
X0113210Y0085718D01*
X0113241Y0085755D01*
X0113278Y0085811D01*
X0113309Y0085873D01*
X0113340Y0085953D01*
X0113365Y0086046D01*
X0113371Y0086151D01*
Y0086157D01*
Y0086176D01*
X0113365Y0086201D01*
X0113358Y0086231D01*
X0113334Y0086312D01*
X0113315Y0086361D01*
X0113284Y0086411D01*
X0113253Y0086454D01*
X0113204Y0086504D01*
X0113154Y0086547D01*
X0113086Y0086584D01*
X0113012Y0086615D01*
X0112919Y0086640D01*
X0112814Y0086659D01*
X0112696Y0086665D01*
D02*
G37*
G36*
Y0085154D02*
X0112226D01*
Y0083892D01*
X0112845D01*
X0112907Y0083898D01*
X0112993Y0083910D01*
X0113080Y0083935D01*
X0113173Y0083960D01*
X0113266Y0084003D01*
X0113346Y0084059D01*
X0113352Y0084065D01*
X0113377Y0084090D01*
X0113408Y0084127D01*
X0113445Y0084183D01*
X0113482Y0084251D01*
X0113513Y0084331D01*
X0113538Y0084430D01*
X0113544Y0084535D01*
Y0084542D01*
Y0084560D01*
X0113538Y0084591D01*
X0113532Y0084635D01*
X0113520Y0084678D01*
X0113501Y0084733D01*
X0113476Y0084789D01*
X0113439Y0084845D01*
X0113396Y0084901D01*
X0113340Y0084956D01*
X0113272Y0085012D01*
X0113185Y0085055D01*
X0113092Y0085099D01*
X0112975Y0085130D01*
X0112845Y0085148D01*
X0112696Y0085154D01*
D02*
G37*
G36*
X0140824Y0085749D02*
X0140774D01*
X0140725Y0085736D01*
X0140656Y0085724D01*
X0140582Y0085699D01*
X0140496Y0085662D01*
X0140415Y0085612D01*
X0140334Y0085544D01*
X0140328Y0085538D01*
X0140304Y0085507D01*
X0140273Y0085464D01*
X0140229Y0085402D01*
X0140186Y0085328D01*
X0140149Y0085235D01*
X0140118Y0085130D01*
X0140093Y0085012D01*
X0141449D01*
Y0085018D01*
Y0085031D01*
Y0085043D01*
Y0085068D01*
X0141443Y0085136D01*
X0141430Y0085210D01*
X0141405Y0085303D01*
X0141381Y0085390D01*
X0141337Y0085476D01*
X0141282Y0085557D01*
X0141275Y0085563D01*
X0141251Y0085588D01*
X0141214Y0085619D01*
X0141164Y0085656D01*
X0141096Y0085687D01*
X0141015Y0085718D01*
X0140929Y0085742D01*
X0140824Y0085749D01*
D02*
G37*
G36*
X0127719Y0086721D02*
X0127664D01*
X0127627Y0086714D01*
X0127577Y0086708D01*
X0127527Y0086702D01*
X0127465Y0086690D01*
X0127397Y0086671D01*
X0127255Y0086621D01*
X0127181Y0086590D01*
X0127100Y0086553D01*
X0127026Y0086504D01*
X0126952Y0086448D01*
X0126884Y0086386D01*
X0126816Y0086318D01*
X0126809Y0086312D01*
X0126803Y0086300D01*
X0126785Y0086275D01*
X0126760Y0086244D01*
X0126735Y0086207D01*
X0126710Y0086157D01*
X0126679Y0086102D01*
X0126648Y0086040D01*
X0126611Y0085965D01*
X0126580Y0085891D01*
X0126556Y0085804D01*
X0126531Y0085711D01*
X0126506Y0085612D01*
X0126488Y0085501D01*
X0126481Y0085390D01*
X0126475Y0085272D01*
Y0085266D01*
Y0085241D01*
Y0085210D01*
X0126481Y0085167D01*
X0126488Y0085111D01*
X0126494Y0085043D01*
X0126506Y0084975D01*
X0126518Y0084901D01*
X0126556Y0084733D01*
X0126618Y0084554D01*
X0126655Y0084467D01*
X0126698Y0084387D01*
X0126754Y0084300D01*
X0126809Y0084226D01*
X0126816Y0084220D01*
X0126828Y0084207D01*
X0126847Y0084189D01*
X0126871Y0084164D01*
X0126902Y0084133D01*
X0126946Y0084102D01*
X0126995Y0084065D01*
X0127045Y0084028D01*
X0127106Y0083991D01*
X0127175Y0083954D01*
X0127323Y0083892D01*
X0127410Y0083867D01*
X0127497Y0083848D01*
X0127589Y0083836D01*
X0127688Y0083830D01*
X0127744D01*
X0127787Y0083836D01*
X0127831Y0083842D01*
X0127893Y0083848D01*
X0127954Y0083861D01*
X0128023Y0083879D01*
X0128165Y0083923D01*
X0128245Y0083954D01*
X0128320Y0083991D01*
X0128394Y0084034D01*
X0128468Y0084084D01*
X0128536Y0084139D01*
X0128604Y0084207D01*
X0128611Y0084214D01*
X0128617Y0084226D01*
X0128635Y0084245D01*
X0128654Y0084276D01*
X0128685Y0084319D01*
X0128710Y0084362D01*
X0128741Y0084418D01*
X0128772Y0084480D01*
X0128803Y0084554D01*
X0128833Y0084635D01*
X0128865Y0084721D01*
X0128889Y0084814D01*
X0128908Y0084913D01*
X0128926Y0085024D01*
X0128933Y0085142D01*
X0128939Y0085266D01*
Y0085272D01*
Y0085297D01*
Y0085334D01*
X0128933Y0085377D01*
X0128926Y0085439D01*
X0128920Y0085507D01*
X0128914Y0085582D01*
X0128895Y0085662D01*
X0128858Y0085829D01*
X0128803Y0086009D01*
X0128765Y0086095D01*
X0128722Y0086182D01*
X0128666Y0086263D01*
X0128611Y0086337D01*
X0128604Y0086343D01*
X0128598Y0086355D01*
X0128580Y0086374D01*
X0128549Y0086399D01*
X0128518Y0086423D01*
X0128481Y0086461D01*
X0128431Y0086492D01*
X0128382Y0086529D01*
X0128320Y0086566D01*
X0128252Y0086597D01*
X0128177Y0086634D01*
X0128097Y0086659D01*
X0128010Y0086683D01*
X0127924Y0086702D01*
X0127824Y0086714D01*
X0127719Y0086721D01*
D02*
G37*
G36*
X0115717Y0085749D02*
X0115680D01*
X0115655Y0085742D01*
X0115581Y0085736D01*
X0115494Y0085718D01*
X0115395Y0085687D01*
X0115290Y0085637D01*
X0115191Y0085569D01*
X0115141Y0085532D01*
X0115098Y0085483D01*
X0115085Y0085470D01*
X0115061Y0085433D01*
X0115030Y0085377D01*
X0114987Y0085297D01*
X0114943Y0085192D01*
X0114912Y0085068D01*
X0114887Y0084925D01*
X0114875Y0084758D01*
Y0084752D01*
Y0084740D01*
Y0084715D01*
X0114881Y0084684D01*
Y0084647D01*
X0114887Y0084604D01*
X0114906Y0084504D01*
X0114931Y0084393D01*
X0114974Y0084276D01*
X0115030Y0084158D01*
X0115104Y0084053D01*
X0115117Y0084040D01*
X0115147Y0084016D01*
X0115197Y0083972D01*
X0115265Y0083929D01*
X0115352Y0083879D01*
X0115457Y0083836D01*
X0115581Y0083811D01*
X0115717Y0083799D01*
X0115754D01*
X0115779Y0083805D01*
X0115853Y0083811D01*
X0115940Y0083830D01*
X0116033Y0083861D01*
X0116138Y0083904D01*
X0116231Y0083966D01*
X0116317Y0084046D01*
X0116323Y0084059D01*
X0116348Y0084096D01*
X0116385Y0084152D01*
X0116423Y0084232D01*
X0116460Y0084337D01*
X0116497Y0084461D01*
X0116522Y0084604D01*
X0116528Y0084771D01*
Y0084777D01*
Y0084789D01*
Y0084814D01*
Y0084851D01*
X0116522Y0084888D01*
X0116515Y0084932D01*
X0116503Y0085037D01*
X0116478Y0085154D01*
X0116441Y0085272D01*
X0116385Y0085390D01*
X0116317Y0085495D01*
X0116305Y0085507D01*
X0116280Y0085532D01*
X0116231Y0085575D01*
X0116163Y0085625D01*
X0116076Y0085668D01*
X0115977Y0085711D01*
X0115853Y0085736D01*
X0115717Y0085749D01*
D02*
G37*
G36*
X0142823Y0062294D02*
X0142216Y0062207D01*
X0142204D01*
X0142173Y0062201D01*
X0142123Y0062189D01*
X0142062Y0062176D01*
X0141993Y0062158D01*
X0141919Y0062133D01*
X0141857Y0062108D01*
X0141795Y0062071D01*
X0141789Y0062065D01*
X0141771Y0062052D01*
X0141752Y0062028D01*
X0141727Y0061990D01*
X0141696Y0061941D01*
X0141678Y0061879D01*
X0141659Y0061805D01*
X0141653Y0061718D01*
Y0061712D01*
Y0061687D01*
X0141659Y0061656D01*
X0141672Y0061613D01*
X0141684Y0061563D01*
X0141709Y0061514D01*
X0141740Y0061464D01*
X0141783Y0061415D01*
X0141789Y0061409D01*
X0141808Y0061396D01*
X0141839Y0061378D01*
X0141876Y0061359D01*
X0141925Y0061340D01*
X0141987Y0061322D01*
X0142055Y0061310D01*
X0142136Y0061303D01*
X0142148D01*
X0142185Y0061310D01*
X0142241Y0061316D01*
X0142309Y0061328D01*
X0142383Y0061353D01*
X0142470Y0061390D01*
X0142551Y0061446D01*
X0142625Y0061514D01*
X0142631Y0061526D01*
X0142656Y0061551D01*
X0142687Y0061594D01*
X0142724Y0061656D01*
X0142761Y0061737D01*
X0142792Y0061823D01*
X0142817Y0061929D01*
X0142823Y0062040D01*
Y0062294D01*
D02*
G37*
G36*
X0112696Y0064169D02*
X0112226D01*
Y0063030D01*
X0112702D01*
X0112764Y0063037D01*
X0112839Y0063049D01*
X0112925Y0063068D01*
X0113018Y0063099D01*
X0113099Y0063136D01*
X0113179Y0063191D01*
X0113185Y0063197D01*
X0113210Y0063222D01*
X0113241Y0063259D01*
X0113278Y0063315D01*
X0113309Y0063377D01*
X0113340Y0063458D01*
X0113365Y0063550D01*
X0113371Y0063656D01*
Y0063662D01*
Y0063680D01*
X0113365Y0063705D01*
X0113358Y0063736D01*
X0113334Y0063816D01*
X0113315Y0063866D01*
X0113284Y0063915D01*
X0113253Y0063959D01*
X0113204Y0064008D01*
X0113154Y0064052D01*
X0113086Y0064089D01*
X0113012Y0064120D01*
X0112919Y0064145D01*
X0112814Y0064163D01*
X0112696Y0064169D01*
D02*
G37*
G36*
Y0062659D02*
X0112226D01*
Y0061396D01*
X0112845D01*
X0112907Y0061402D01*
X0112993Y0061415D01*
X0113080Y0061440D01*
X0113173Y0061464D01*
X0113266Y0061508D01*
X0113346Y0061563D01*
X0113352Y0061569D01*
X0113377Y0061594D01*
X0113408Y0061631D01*
X0113445Y0061687D01*
X0113482Y0061755D01*
X0113513Y0061836D01*
X0113538Y0061935D01*
X0113544Y0062040D01*
Y0062046D01*
Y0062065D01*
X0113538Y0062096D01*
X0113532Y0062139D01*
X0113520Y0062182D01*
X0113501Y0062238D01*
X0113476Y0062294D01*
X0113439Y0062349D01*
X0113396Y0062405D01*
X0113340Y0062461D01*
X0113272Y0062517D01*
X0113185Y0062560D01*
X0113092Y0062603D01*
X0112975Y0062634D01*
X0112845Y0062653D01*
X0112696Y0062659D01*
D02*
G37*
G36*
X0136812Y0063253D02*
X0136763D01*
X0136713Y0063241D01*
X0136645Y0063228D01*
X0136571Y0063204D01*
X0136484Y0063167D01*
X0136404Y0063117D01*
X0136323Y0063049D01*
X0136317Y0063043D01*
X0136293Y0063012D01*
X0136261Y0062968D01*
X0136218Y0062907D01*
X0136175Y0062832D01*
X0136138Y0062739D01*
X0136107Y0062634D01*
X0136082Y0062517D01*
X0137438D01*
Y0062523D01*
Y0062535D01*
Y0062548D01*
Y0062572D01*
X0137431Y0062640D01*
X0137419Y0062715D01*
X0137394Y0062808D01*
X0137370Y0062894D01*
X0137326Y0062981D01*
X0137270Y0063061D01*
X0137264Y0063068D01*
X0137240Y0063092D01*
X0137202Y0063123D01*
X0137153Y0063160D01*
X0137085Y0063191D01*
X0137004Y0063222D01*
X0136918Y0063247D01*
X0136812Y0063253D01*
D02*
G37*
G36*
X0131136Y0064225D02*
X0131080D01*
X0131043Y0064219D01*
X0130994Y0064213D01*
X0130944Y0064206D01*
X0130882Y0064194D01*
X0130814Y0064175D01*
X0130672Y0064126D01*
X0130598Y0064095D01*
X0130517Y0064058D01*
X0130443Y0064008D01*
X0130369Y0063953D01*
X0130300Y0063891D01*
X0130233Y0063823D01*
X0130226Y0063816D01*
X0130220Y0063804D01*
X0130201Y0063779D01*
X0130177Y0063748D01*
X0130152Y0063711D01*
X0130127Y0063662D01*
X0130096Y0063606D01*
X0130065Y0063544D01*
X0130028Y0063470D01*
X0129997Y0063396D01*
X0129973Y0063309D01*
X0129948Y0063216D01*
X0129923Y0063117D01*
X0129904Y0063006D01*
X0129898Y0062894D01*
X0129892Y0062777D01*
Y0062770D01*
Y0062746D01*
Y0062715D01*
X0129898Y0062671D01*
X0129904Y0062616D01*
X0129911Y0062548D01*
X0129923Y0062480D01*
X0129935Y0062405D01*
X0129973Y0062238D01*
X0130034Y0062059D01*
X0130071Y0061972D01*
X0130115Y0061891D01*
X0130171Y0061805D01*
X0130226Y0061730D01*
X0130233Y0061724D01*
X0130245Y0061712D01*
X0130263Y0061693D01*
X0130288Y0061669D01*
X0130319Y0061638D01*
X0130362Y0061607D01*
X0130412Y0061569D01*
X0130462Y0061532D01*
X0130523Y0061495D01*
X0130591Y0061458D01*
X0130740Y0061396D01*
X0130827Y0061371D01*
X0130913Y0061353D01*
X0131006Y0061340D01*
X0131105Y0061334D01*
X0131161D01*
X0131204Y0061340D01*
X0131248Y0061347D01*
X0131309Y0061353D01*
X0131371Y0061365D01*
X0131439Y0061384D01*
X0131582Y0061427D01*
X0131662Y0061458D01*
X0131737Y0061495D01*
X0131811Y0061539D01*
X0131885Y0061588D01*
X0131953Y0061644D01*
X0132021Y0061712D01*
X0132028Y0061718D01*
X0132034Y0061730D01*
X0132052Y0061749D01*
X0132071Y0061780D01*
X0132102Y0061823D01*
X0132127Y0061867D01*
X0132158Y0061922D01*
X0132188Y0061984D01*
X0132220Y0062059D01*
X0132250Y0062139D01*
X0132281Y0062226D01*
X0132306Y0062318D01*
X0132325Y0062418D01*
X0132343Y0062529D01*
X0132349Y0062647D01*
X0132356Y0062770D01*
Y0062777D01*
Y0062801D01*
Y0062839D01*
X0132349Y0062882D01*
X0132343Y0062944D01*
X0132337Y0063012D01*
X0132331Y0063086D01*
X0132312Y0063167D01*
X0132275Y0063334D01*
X0132220Y0063513D01*
X0132182Y0063600D01*
X0132139Y0063687D01*
X0132083Y0063767D01*
X0132028Y0063841D01*
X0132021Y0063848D01*
X0132015Y0063860D01*
X0131997Y0063878D01*
X0131966Y0063903D01*
X0131935Y0063928D01*
X0131898Y0063965D01*
X0131848Y0063996D01*
X0131799Y0064033D01*
X0131737Y0064070D01*
X0131668Y0064101D01*
X0131594Y0064138D01*
X0131514Y0064163D01*
X0131427Y0064188D01*
X0131341Y0064206D01*
X0131241Y0064219D01*
X0131136Y0064225D01*
D02*
G37*
G36*
X0122068Y0063253D02*
X0122031D01*
X0122006Y0063247D01*
X0121932Y0063241D01*
X0121845Y0063222D01*
X0121746Y0063191D01*
X0121641Y0063142D01*
X0121542Y0063074D01*
X0121492Y0063037D01*
X0121449Y0062987D01*
X0121437Y0062975D01*
X0121412Y0062937D01*
X0121381Y0062882D01*
X0121337Y0062801D01*
X0121294Y0062696D01*
X0121263Y0062572D01*
X0121238Y0062430D01*
X0121226Y0062263D01*
Y0062257D01*
Y0062244D01*
Y0062220D01*
X0121232Y0062189D01*
Y0062151D01*
X0121238Y0062108D01*
X0121257Y0062009D01*
X0121282Y0061898D01*
X0121325Y0061780D01*
X0121381Y0061662D01*
X0121455Y0061557D01*
X0121467Y0061545D01*
X0121498Y0061520D01*
X0121548Y0061477D01*
X0121616Y0061433D01*
X0121703Y0061384D01*
X0121808Y0061340D01*
X0121932Y0061316D01*
X0122068Y0061303D01*
X0122105D01*
X0122130Y0061310D01*
X0122204Y0061316D01*
X0122291Y0061334D01*
X0122383Y0061365D01*
X0122489Y0061409D01*
X0122582Y0061471D01*
X0122668Y0061551D01*
X0122675Y0061563D01*
X0122699Y0061601D01*
X0122736Y0061656D01*
X0122774Y0061737D01*
X0122811Y0061842D01*
X0122848Y0061966D01*
X0122873Y0062108D01*
X0122879Y0062275D01*
Y0062281D01*
Y0062294D01*
Y0062318D01*
Y0062356D01*
X0122873Y0062393D01*
X0122866Y0062436D01*
X0122854Y0062541D01*
X0122829Y0062659D01*
X0122792Y0062777D01*
X0122736Y0062894D01*
X0122668Y0062999D01*
X0122656Y0063012D01*
X0122631Y0063037D01*
X0122582Y0063080D01*
X0122513Y0063129D01*
X0122427Y0063173D01*
X0122328Y0063216D01*
X0122204Y0063241D01*
X0122068Y0063253D01*
D02*
G37*
G36*
X0115717D02*
X0115680D01*
X0115655Y0063247D01*
X0115581Y0063241D01*
X0115494Y0063222D01*
X0115395Y0063191D01*
X0115290Y0063142D01*
X0115191Y0063074D01*
X0115141Y0063037D01*
X0115098Y0062987D01*
X0115085Y0062975D01*
X0115061Y0062937D01*
X0115030Y0062882D01*
X0114987Y0062801D01*
X0114943Y0062696D01*
X0114912Y0062572D01*
X0114887Y0062430D01*
X0114875Y0062263D01*
Y0062257D01*
Y0062244D01*
Y0062220D01*
X0114881Y0062189D01*
Y0062151D01*
X0114887Y0062108D01*
X0114906Y0062009D01*
X0114931Y0061898D01*
X0114974Y0061780D01*
X0115030Y0061662D01*
X0115104Y0061557D01*
X0115117Y0061545D01*
X0115147Y0061520D01*
X0115197Y0061477D01*
X0115265Y0061433D01*
X0115352Y0061384D01*
X0115457Y0061340D01*
X0115581Y0061316D01*
X0115717Y0061303D01*
X0115754D01*
X0115779Y0061310D01*
X0115853Y0061316D01*
X0115940Y0061334D01*
X0116033Y0061365D01*
X0116138Y0061409D01*
X0116231Y0061471D01*
X0116317Y0061551D01*
X0116323Y0061563D01*
X0116348Y0061601D01*
X0116385Y0061656D01*
X0116423Y0061737D01*
X0116460Y0061842D01*
X0116497Y0061966D01*
X0116522Y0062108D01*
X0116528Y0062275D01*
Y0062281D01*
Y0062294D01*
Y0062318D01*
Y0062356D01*
X0116522Y0062393D01*
X0116515Y0062436D01*
X0116503Y0062541D01*
X0116478Y0062659D01*
X0116441Y0062777D01*
X0116385Y0062894D01*
X0116317Y0062999D01*
X0116305Y0063012D01*
X0116280Y0063037D01*
X0116231Y0063080D01*
X0116163Y0063129D01*
X0116076Y0063173D01*
X0115977Y0063216D01*
X0115853Y0063241D01*
X0115717Y0063253D01*
D02*
G37*
%LPD*%
D11*
X0037691Y0008154D02*
G03*
X0029528Y0016318I-0008163J0000000D01*
G01*
X0021654Y0020253D02*
G03*
X0025591Y0016316I0003937J0000000D01*
G01*
X0041535Y0024190D02*
G03*
X0044685Y0027339I0000000J0003150D01*
G01*
Y0046788D02*
G03*
X0041535Y0049938I-0003150J0000000D01*
G01*
X0021654Y0053875D02*
G03*
X0025591Y0049938I0003937J0000000D01*
G01*
Y0024190D02*
G03*
X0021654Y0020253I0000000J-0003937D01*
G01*
X0029528Y0098416D02*
G03*
X0037691Y0106580I0000000J0008163D01*
G01*
X0021654Y0094483D02*
G03*
X0025591Y0090546I0003937J0000000D01*
G01*
Y0064798D02*
G03*
X0021654Y0060861I0000000J-0003937D01*
G01*
X0041535Y0064798D02*
G03*
X0044685Y0067948I0000000J0003150D01*
G01*
Y0087397D02*
G03*
X0041535Y0090546I-0003150J0000000D01*
G01*
X0025591Y0098420D02*
G03*
X0021654Y0094483I0000000J-0003937D01*
G01*
X-0021654Y0094490D02*
G03*
X-0025591Y0098427I-0003937J0000000D01*
G01*
X-0041535Y0090553D02*
G03*
X-0044685Y0087404I0000000J-0003150D01*
G01*
Y0067955D02*
G03*
X-0041535Y0064805I0003150J0000000D01*
G01*
X-0021654Y0060868D02*
G03*
X-0025591Y0064805I-0003937J0000000D01*
G01*
Y0090553D02*
G03*
X-0021654Y0094490I0000000J0003937D01*
G01*
X-0037691Y0106587D02*
G03*
X-0029528Y0098423I0008163J0000000D01*
G01*
Y0114750D02*
G03*
X-0037691Y0106587I0000000J-0008163D01*
G01*
X-0021654Y0020260D02*
G03*
X-0025591Y0024197I-0003937J0000000D01*
G01*
Y0049945D02*
G03*
X-0021654Y0053882I0000000J0003937D01*
G01*
X-0041535Y0049945D02*
G03*
X-0044685Y0046795I0000000J-0003150D01*
G01*
Y0027347D02*
G03*
X-0041535Y0024197I0003150J0000000D01*
G01*
X-0025591Y0016323D02*
G03*
X-0021654Y0020260I0000000J0003937D01*
G01*
X-0029528Y0016325D02*
G03*
X-0037691Y0008161I0000000J-0008163D01*
G01*
D02*
G03*
X-0029528Y-0000002I0008163J0000000D01*
G01*
X0029528Y-0000009D02*
G03*
X0037691Y0008154I0000000J0008163D01*
G01*
X0037689Y0106587D02*
G03*
X0029528Y0114748I-0008161J0000000D01*
G01*
X0025591Y0016318D02*
X0029528D01*
X0025591Y0024190D02*
X0041535D01*
X0044685Y0027276D02*
Y0046725D01*
X0025591Y0049938D02*
X0041535Y0049938D01*
X0025591Y0098418D02*
X0029528D01*
X0025591Y0064798D02*
X0041535Y0064798D01*
X0044685Y0068011D02*
Y0087459D01*
X0025591Y0090546D02*
X0041535D01*
X0021654Y0053875D02*
Y0060861D01*
X-0021654Y0053882D02*
Y0060868D01*
X-0041535Y0090553D02*
X-0025591D01*
X-0044685Y0068018D02*
Y0087467D01*
X-0041535Y0064805D02*
X-0025591Y0064805D01*
X-0029528Y0098425D02*
X-0025591D01*
X-0041535Y0049945D02*
X-0025591Y0049945D01*
X-0044685Y0027283D02*
Y0046732D01*
X-0041535Y0024197D02*
X-0025591D01*
X-0029528Y0016325D02*
X-0025591D01*
X-0029528Y0000000D02*
X0029528D01*
X-0029528Y0114748D02*
X0029528D01*
D12*
X0019390Y0055709D02*
G03*
X0019390Y0055709I-0000197J0000000D01*
G01*
X-0001476Y0012303D02*
X0001476D01*
X-0001476Y0010335D02*
X0001476D01*
X-0001476D02*
X0000000Y0012303D01*
X0001476Y0010335D01*
X0021059Y0088910D02*
Y0085911D01*
X0021246Y0085348D01*
X0021434Y0085161D01*
X0021808Y0084974D01*
X0022183D01*
X0022558Y0085161D01*
X0022746Y0085348D01*
X0022933Y0085911D01*
Y0086286D01*
X0017797Y0087598D02*
Y0084974D01*
Y0087035D02*
X0018172Y0087410D01*
X0018547Y0087598D01*
X0019109D01*
X0019484Y0087410D01*
X0019859Y0087035D01*
X0020046Y0086473D01*
Y0086098D01*
X0019859Y0085536D01*
X0019484Y0085161D01*
X0019109Y0084974D01*
X0018547D01*
X0018172Y0085161D01*
X0017797Y0085536D01*
X0014498Y0087035D02*
X0014873Y0087410D01*
X0015248Y0087598D01*
X0015811D01*
X0016185Y0087410D01*
X0016560Y0087035D01*
X0016748Y0086473D01*
Y0086098D01*
X0016560Y0085536D01*
X0016185Y0085161D01*
X0015811Y0084974D01*
X0015248D01*
X0014873Y0085161D01*
X0014498Y0085536D01*
X0011406Y0088910D02*
Y0084974D01*
Y0087035D02*
X0011781Y0087410D01*
X0012156Y0087598D01*
X0012718D01*
X0013093Y0087410D01*
X0013467Y0087035D01*
X0013655Y0086473D01*
Y0086098D01*
X0013467Y0085536D01*
X0013093Y0085161D01*
X0012718Y0084974D01*
X0012156D01*
X0011781Y0085161D01*
X0011406Y0085536D01*
X0008107Y0087598D02*
Y0084974D01*
Y0087035D02*
X0008482Y0087410D01*
X0008857Y0087598D01*
X0009419D01*
X0009794Y0087410D01*
X0010169Y0087035D01*
X0010356Y0086473D01*
Y0086098D01*
X0010169Y0085536D01*
X0009794Y0085161D01*
X0009419Y0084974D01*
X0008857D01*
X0008482Y0085161D01*
X0008107Y0085536D01*
X0004808Y0087035D02*
X0005183Y0087410D01*
X0005558Y0087598D01*
X0006120D01*
X0006495Y0087410D01*
X0006870Y0087035D01*
X0007057Y0086473D01*
Y0086098D01*
X0006870Y0085536D01*
X0006495Y0085161D01*
X0006120Y0084974D01*
X0005558D01*
X0005183Y0085161D01*
X0004808Y0085536D01*
X0003965Y0088910D02*
Y0084974D01*
X0001340Y0088910D02*
Y0084974D01*
X0003965Y0087035D02*
X0001340D01*
X-0000122Y0088910D02*
X-0000309Y0088722D01*
X-0000496Y0088910D01*
X-0000309Y0089097D01*
X-0000122Y0088910D01*
X-0000309Y0087598D02*
Y0084974D01*
X-0003439Y0087598D02*
Y0084599D01*
X-0003252Y0084036D01*
X-0003064Y0083849D01*
X-0002689Y0083661D01*
X-0002127D01*
X-0001752Y0083849D01*
X-0003439Y0087035D02*
X-0003064Y0087410D01*
X-0002689Y0087598D01*
X-0002127D01*
X-0001752Y0087410D01*
X-0001377Y0087035D01*
X-0001190Y0086473D01*
Y0086098D01*
X-0001377Y0085536D01*
X-0001752Y0085161D01*
X-0002127Y0084974D01*
X-0002689D01*
X-0003064Y0085161D01*
X-0003439Y0085536D01*
X-0004489Y0088910D02*
Y0084974D01*
Y0086848D02*
X-0005051Y0087410D01*
X-0005426Y0087598D01*
X-0005988D01*
X-0006363Y0087410D01*
X-0006551Y0086848D01*
Y0084974D01*
X-0007582Y0086848D02*
X-0009268D01*
X-0009831Y0087035D01*
X-0010018Y0087223D01*
X-0010206Y0087598D01*
Y0088160D01*
X-0010018Y0088535D01*
X-0009831Y0088722D01*
X-0009268Y0088910D01*
X-0007582D01*
Y0084974D01*
X-0012024Y0087598D02*
X-0011649Y0087410D01*
X-0011274Y0087035D01*
X-0011087Y0086473D01*
Y0086098D01*
X-0011274Y0085536D01*
X-0011649Y0085161D01*
X-0012024Y0084974D01*
X-0012586D01*
X-0012961Y0085161D01*
X-0013336Y0085536D01*
X-0013523Y0086098D01*
Y0086473D01*
X-0013336Y0087035D01*
X-0012961Y0087410D01*
X-0012586Y0087598D01*
X-0012024D01*
X-0014386D02*
X-0015135Y0084974D01*
X-0015885Y0087598D02*
X-0015135Y0084974D01*
X-0015885Y0087598D02*
X-0016635Y0084974D01*
X-0017384Y0087598D02*
X-0016635Y0084974D01*
X-0018303Y0086473D02*
X-0020552D01*
Y0086848D01*
X-0020365Y0087223D01*
X-0020177Y0087410D01*
X-0019802Y0087598D01*
X-0019240D01*
X-0018865Y0087410D01*
X-0018490Y0087035D01*
X-0018303Y0086473D01*
Y0086098D01*
X-0018490Y0085536D01*
X-0018865Y0085161D01*
X-0019240Y0084974D01*
X-0019802D01*
X-0020177Y0085161D01*
X-0020552Y0085536D01*
X-0021396Y0087598D02*
Y0084974D01*
Y0086473D02*
X-0021583Y0087035D01*
X-0021958Y0087410D01*
X-0022333Y0087598D01*
X-0022895D01*
X0009384Y0024294D02*
X0009946Y0024481D01*
X0010321Y0024856D01*
X0010508Y0025418D01*
Y0025605D01*
X0010321Y0026168D01*
X0009946Y0026543D01*
X0009384Y0026730D01*
X0009196D01*
X0008634Y0026543D01*
X0008259Y0026168D01*
X0008072Y0025605D01*
Y0025418D01*
X0008259Y0024856D01*
X0008634Y0024481D01*
X0009384Y0024294D01*
X0010321D01*
X0011258Y0024481D01*
X0011820Y0024856D01*
X0012008Y0025418D01*
Y0025793D01*
X0011820Y0026355D01*
X0011446Y0026543D01*
X0008072Y0022100D02*
X0008259Y0022663D01*
X0008822Y0023038D01*
X0009759Y0023225D01*
X0010321D01*
X0011258Y0023038D01*
X0011820Y0022663D01*
X0012008Y0022100D01*
Y0021726D01*
X0011820Y0021163D01*
X0011258Y0020788D01*
X0010321Y0020601D01*
X0009759D01*
X0008822Y0020788D01*
X0008259Y0021163D01*
X0008072Y0021726D01*
Y0022100D01*
Y0018595D02*
X0008259Y0019158D01*
X0008822Y0019533D01*
X0009759Y0019720D01*
X0010321D01*
X0011258Y0019533D01*
X0011820Y0019158D01*
X0012008Y0018595D01*
Y0018221D01*
X0011820Y0017658D01*
X0011258Y0017283D01*
X0010321Y0017096D01*
X0009759D01*
X0008822Y0017283D01*
X0008259Y0017658D01*
X0008072Y0018221D01*
Y0018595D01*
X0009384Y0016215D02*
X0012008D01*
X0010133D02*
X0009571Y0015653D01*
X0009384Y0015278D01*
Y0014716D01*
X0009571Y0014341D01*
X0010133Y0014153D01*
X0012008D01*
X0010133D02*
X0009571Y0013591D01*
X0009384Y0013216D01*
Y0012654D01*
X0009571Y0012279D01*
X0010133Y0012091D01*
X0012008D01*
Y0007855D02*
X0008072Y0009355D01*
X0012008Y0010854D01*
X0010696Y0010292D02*
Y0008418D01*
X0003052Y0031693D02*
X0006988D01*
X0003052D02*
Y0030006D01*
X0003240Y0029444D01*
X0003427Y0029256D01*
X0003802Y0029069D01*
X0004177D01*
X0004552Y0029256D01*
X0004739Y0029444D01*
X0004926Y0030006D01*
Y0031693D02*
Y0030006D01*
X0005114Y0029444D01*
X0005301Y0029256D01*
X0005676Y0029069D01*
X0006238D01*
X0006613Y0029256D01*
X0006801Y0029444D01*
X0006988Y0030006D01*
Y0031693D01*
X0004364Y0028188D02*
X0006238D01*
X0006801Y0028000D01*
X0006988Y0027626D01*
Y0027063D01*
X0006801Y0026688D01*
X0006238Y0026126D01*
X0004364D02*
X0006988D01*
X0004926Y0023033D02*
X0004552Y0023221D01*
X0004364Y0023783D01*
Y0024345D01*
X0004552Y0024908D01*
X0004926Y0025095D01*
X0005301Y0024908D01*
X0005489Y0024533D01*
X0005676Y0023596D01*
X0005864Y0023221D01*
X0006238Y0023033D01*
X0006426D01*
X0006801Y0023221D01*
X0006988Y0023783D01*
Y0024345D01*
X0006801Y0024908D01*
X0006426Y0025095D01*
X0004926Y0016867D02*
X0004552Y0017242D01*
X0004364Y0017616D01*
Y0018179D01*
X0004552Y0018554D01*
X0004926Y0018928D01*
X0005489Y0019116D01*
X0005864D01*
X0006426Y0018928D01*
X0006801Y0018554D01*
X0006988Y0018179D01*
Y0017616D01*
X0006801Y0017242D01*
X0006426Y0016867D01*
X0004364Y0016023D02*
X0006238D01*
X0006801Y0015836D01*
X0006988Y0015461D01*
Y0014899D01*
X0006801Y0014524D01*
X0006238Y0013961D01*
X0004364D02*
X0006988D01*
X0004364Y0012931D02*
X0006988D01*
X0005489D02*
X0004926Y0012743D01*
X0004552Y0012368D01*
X0004364Y0011993D01*
Y0011431D01*
Y0011075D02*
X0006988D01*
X0005489D02*
X0004926Y0010887D01*
X0004552Y0010513D01*
X0004364Y0010138D01*
Y0009575D01*
X0005489Y0009219D02*
Y0006970D01*
X0005114D01*
X0004739Y0007158D01*
X0004552Y0007345D01*
X0004364Y0007720D01*
Y0008282D01*
X0004552Y0008657D01*
X0004926Y0009032D01*
X0005489Y0009219D01*
X0005864D01*
X0006426Y0009032D01*
X0006801Y0008657D01*
X0006988Y0008282D01*
Y0007720D01*
X0006801Y0007345D01*
X0006426Y0006970D01*
X0004364Y0006127D02*
X0006988D01*
X0005114D02*
X0004552Y0005564D01*
X0004364Y0005189D01*
Y0004627D01*
X0004552Y0004252D01*
X0005114Y0004065D01*
X0006988D01*
X0003052Y0002472D02*
X0006238D01*
X0006801Y0002284D01*
X0006988Y0001909D01*
Y0001534D01*
X0004364Y0003034D02*
Y0001722D01*
D76*
X0014297Y0082710D02*
X0012235D01*
X0013360Y0081210D01*
X0012798D01*
X0012423Y0081023D01*
X0012235Y0080835D01*
X0012048Y0080273D01*
Y0079898D01*
X0012235Y0079336D01*
X0012610Y0078961D01*
X0013172Y0078773D01*
X0013735D01*
X0014297Y0078961D01*
X0014484Y0079148D01*
X0014672Y0079523D01*
X0011167Y0081960D02*
X0010792Y0082147D01*
X0010230Y0082710D01*
Y0078773D01*
X0008280Y0080460D02*
X0004907D01*
X0002620Y0082710D02*
X0003182Y0082522D01*
X0003557Y0081960D01*
X0003744Y0081023D01*
Y0080460D01*
X0003557Y0079523D01*
X0003182Y0078961D01*
X0002620Y0078773D01*
X0002245D01*
X0001683Y0078961D01*
X0001308Y0079523D01*
X0001120Y0080460D01*
Y0081023D01*
X0001308Y0081960D01*
X0001683Y0082522D01*
X0002245Y0082710D01*
X0002620D01*
X0000052Y0079148D02*
X0000239Y0078961D01*
X0000052Y0078773D01*
X-0000135Y0078961D01*
X0000052Y0079148D01*
X-0000998Y0081960D02*
X-0001373Y0082147D01*
X-0001935Y0082710D01*
Y0078773D01*
D77*
X-0005906Y0080758D02*
D03*
M02*
