G04*
G04 #@! TF.GenerationSoftware,Altium Limited,Altium Designer,21.3.1 (25)*
G04*
G04 Layer_Color=8388736*
%FSAX25Y25*%
%MOIN*%
G70*
G04*
G04 #@! TF.SameCoordinates,F5ED4B0F-9D4D-4CB6-A318-13B1BB274F9C*
G04*
G04*
G04 #@! TF.FilePolarity,Negative*
G04*
G01*
G75*
%ADD11C,0.00787*%
G04:AMPARAMS|DCode=25|XSize=35.43mil|YSize=135.83mil|CornerRadius=13.82mil|HoleSize=0mil|Usage=FLASHONLY|Rotation=90.000|XOffset=0mil|YOffset=0mil|HoleType=Round|Shape=RoundedRectangle|*
%AMROUNDEDRECTD25*
21,1,0.03543,0.10819,0,0,90.0*
21,1,0.00780,0.13583,0,0,90.0*
1,1,0.02764,0.05409,0.00390*
1,1,0.02764,0.05409,-0.00390*
1,1,0.02764,-0.05409,-0.00390*
1,1,0.02764,-0.05409,0.00390*
%
%ADD25ROUNDEDRECTD25*%
G04:AMPARAMS|DCode=26|XSize=35.43mil|YSize=116.14mil|CornerRadius=13.82mil|HoleSize=0mil|Usage=FLASHONLY|Rotation=90.000|XOffset=0mil|YOffset=0mil|HoleType=Round|Shape=RoundedRectangle|*
%AMROUNDEDRECTD26*
21,1,0.03543,0.08850,0,0,90.0*
21,1,0.00780,0.11614,0,0,90.0*
1,1,0.02764,0.04425,0.00390*
1,1,0.02764,0.04425,-0.00390*
1,1,0.02764,-0.04425,-0.00390*
1,1,0.02764,-0.04425,0.00390*
%
%ADD26ROUNDEDRECTD26*%
%ADD31R,0.05709X0.03347*%
%ADD32R,0.02953X0.02756*%
%ADD33R,0.02559X0.02756*%
%ADD34R,0.03740X0.03740*%
%ADD35R,0.03740X0.05315*%
%ADD36R,0.03583X0.05315*%
%ADD37R,0.03347X0.05315*%
%ADD38R,0.03347X0.04528*%
%ADD39R,0.02953X0.04134*%
%ADD40R,0.02165X0.05906*%
%ADD41R,0.01181X0.01575*%
%ADD42C,0.05591*%
%ADD43R,0.02756X0.02559*%
%ADD44R,0.02559X0.02756*%
%ADD45R,0.02953X0.03740*%
%ADD46R,0.02756X0.02559*%
%ADD47C,0.04961*%
%ADD48R,0.04961X0.04961*%
G04:AMPARAMS|DCode=49|XSize=49.21mil|YSize=72.84mil|CornerRadius=13.78mil|HoleSize=0mil|Usage=FLASHONLY|Rotation=0.000|XOffset=0mil|YOffset=0mil|HoleType=Round|Shape=RoundedRectangle|*
%AMROUNDEDRECTD49*
21,1,0.04921,0.04528,0,0,0.0*
21,1,0.02165,0.07284,0,0,0.0*
1,1,0.02756,0.01083,-0.02264*
1,1,0.02756,-0.01083,-0.02264*
1,1,0.02756,-0.01083,0.02264*
1,1,0.02756,0.01083,0.02264*
%
%ADD49ROUNDEDRECTD49*%
%ADD50C,0.00591*%
%ADD51C,0.04331*%
%ADD52C,0.12205*%
G36*
X0136020Y0087185D02*
X0136045D01*
X0136101Y0087160D01*
X0136132Y0087141D01*
X0136162Y0087117D01*
X0136169Y0087111D01*
X0136175Y0087104D01*
X0136206Y0087067D01*
X0136231Y0087005D01*
X0136237Y0086968D01*
X0136243Y0086931D01*
Y0086925D01*
Y0086912D01*
X0136237Y0086894D01*
X0136231Y0086869D01*
X0136212Y0086807D01*
X0136187Y0086776D01*
X0136162Y0086745D01*
X0136156D01*
X0136150Y0086733D01*
X0136113Y0086708D01*
X0136057Y0086683D01*
X0136020Y0086677D01*
X0135983Y0086671D01*
X0135964D01*
X0135946Y0086677D01*
X0135921D01*
X0135859Y0086702D01*
X0135828Y0086714D01*
X0135797Y0086739D01*
Y0086745D01*
X0135785Y0086752D01*
X0135773Y0086770D01*
X0135760Y0086789D01*
X0135735Y0086851D01*
X0135729Y0086888D01*
X0135723Y0086931D01*
Y0086937D01*
Y0086949D01*
X0135729Y0086968D01*
X0135735Y0086999D01*
X0135754Y0087055D01*
X0135773Y0087086D01*
X0135797Y0087117D01*
X0135803Y0087123D01*
X0135810Y0087129D01*
X0135847Y0087154D01*
X0135909Y0087179D01*
X0135946Y0087191D01*
X0136002D01*
X0136020Y0087185D01*
D02*
G37*
G36*
X0124030Y0083520D02*
X0123628D01*
Y0083941D01*
X0123615D01*
Y0083935D01*
X0123603Y0083923D01*
X0123584Y0083898D01*
X0123566Y0083867D01*
X0123535Y0083830D01*
X0123498Y0083793D01*
X0123454Y0083749D01*
X0123405Y0083706D01*
X0123349Y0083657D01*
X0123281Y0083613D01*
X0123213Y0083576D01*
X0123133Y0083539D01*
X0123052Y0083508D01*
X0122959Y0083483D01*
X0122860Y0083471D01*
X0122755Y0083465D01*
X0122712D01*
X0122675Y0083471D01*
X0122637Y0083477D01*
X0122588Y0083483D01*
X0122483Y0083508D01*
X0122359Y0083545D01*
X0122235Y0083607D01*
X0122167Y0083644D01*
X0122111Y0083687D01*
X0122049Y0083743D01*
X0121994Y0083799D01*
Y0083805D01*
X0121981Y0083817D01*
X0121969Y0083836D01*
X0121950Y0083861D01*
X0121932Y0083892D01*
X0121907Y0083935D01*
X0121882Y0083985D01*
X0121857Y0084040D01*
X0121826Y0084102D01*
X0121802Y0084170D01*
X0121777Y0084245D01*
X0121758Y0084325D01*
X0121740Y0084412D01*
X0121727Y0084511D01*
X0121721Y0084610D01*
X0121715Y0084715D01*
Y0084721D01*
Y0084740D01*
Y0084777D01*
X0121721Y0084820D01*
X0121727Y0084870D01*
X0121734Y0084932D01*
X0121740Y0085000D01*
X0121752Y0085074D01*
X0121789Y0085235D01*
X0121845Y0085402D01*
X0121882Y0085483D01*
X0121925Y0085563D01*
X0121969Y0085637D01*
X0122025Y0085711D01*
X0122031Y0085718D01*
X0122037Y0085730D01*
X0122055Y0085749D01*
X0122080Y0085773D01*
X0122111Y0085798D01*
X0122154Y0085829D01*
X0122198Y0085866D01*
X0122247Y0085903D01*
X0122371Y0085971D01*
X0122513Y0086033D01*
X0122594Y0086052D01*
X0122681Y0086071D01*
X0122767Y0086083D01*
X0122866Y0086089D01*
X0122916D01*
X0122953Y0086083D01*
X0122990Y0086077D01*
X0123040Y0086071D01*
X0123151Y0086040D01*
X0123275Y0085990D01*
X0123337Y0085959D01*
X0123399Y0085916D01*
X0123461Y0085873D01*
X0123516Y0085817D01*
X0123566Y0085755D01*
X0123615Y0085681D01*
X0123628D01*
Y0087240D01*
X0124030D01*
Y0083520D01*
D02*
G37*
G36*
X0138298Y0086083D02*
X0138372Y0086077D01*
X0138465Y0086058D01*
X0138564Y0086027D01*
X0138669Y0085978D01*
X0138775Y0085910D01*
X0138818Y0085873D01*
X0138861Y0085823D01*
X0138874Y0085811D01*
X0138899Y0085773D01*
X0138929Y0085711D01*
X0138973Y0085625D01*
X0139010Y0085520D01*
X0139047Y0085390D01*
X0139072Y0085235D01*
X0139078Y0085055D01*
Y0083520D01*
X0138676D01*
Y0084950D01*
Y0084956D01*
Y0084987D01*
X0138669Y0085024D01*
Y0085074D01*
X0138657Y0085136D01*
X0138645Y0085204D01*
X0138626Y0085278D01*
X0138601Y0085352D01*
X0138570Y0085427D01*
X0138533Y0085495D01*
X0138484Y0085563D01*
X0138428Y0085625D01*
X0138366Y0085674D01*
X0138286Y0085711D01*
X0138199Y0085742D01*
X0138094Y0085749D01*
X0138081D01*
X0138044Y0085742D01*
X0137988Y0085736D01*
X0137920Y0085718D01*
X0137840Y0085693D01*
X0137753Y0085650D01*
X0137673Y0085594D01*
X0137592Y0085520D01*
X0137586Y0085507D01*
X0137561Y0085483D01*
X0137531Y0085433D01*
X0137493Y0085365D01*
X0137456Y0085284D01*
X0137425Y0085185D01*
X0137400Y0085074D01*
X0137394Y0084950D01*
Y0083520D01*
X0136992D01*
Y0086033D01*
X0137394D01*
Y0085612D01*
X0137407D01*
X0137413Y0085619D01*
X0137419Y0085631D01*
X0137438Y0085656D01*
X0137462Y0085687D01*
X0137487Y0085724D01*
X0137524Y0085761D01*
X0137568Y0085804D01*
X0137617Y0085854D01*
X0137673Y0085897D01*
X0137735Y0085941D01*
X0137803Y0085978D01*
X0137877Y0086015D01*
X0137951Y0086046D01*
X0138038Y0086071D01*
X0138131Y0086083D01*
X0138230Y0086089D01*
X0138267D01*
X0138298Y0086083D01*
D02*
G37*
G36*
X0121300Y0086071D02*
X0121375Y0086064D01*
X0121418Y0086052D01*
X0121449Y0086040D01*
Y0085625D01*
X0121443Y0085631D01*
X0121430Y0085637D01*
X0121405Y0085650D01*
X0121375Y0085668D01*
X0121331Y0085681D01*
X0121275Y0085693D01*
X0121214Y0085699D01*
X0121145Y0085705D01*
X0121133D01*
X0121102Y0085699D01*
X0121053Y0085693D01*
X0120997Y0085674D01*
X0120923Y0085644D01*
X0120855Y0085600D01*
X0120780Y0085538D01*
X0120712Y0085458D01*
X0120706Y0085445D01*
X0120687Y0085414D01*
X0120657Y0085359D01*
X0120626Y0085284D01*
X0120595Y0085192D01*
X0120564Y0085074D01*
X0120545Y0084944D01*
X0120539Y0084795D01*
Y0083520D01*
X0120137D01*
Y0086033D01*
X0120539D01*
Y0085514D01*
X0120551D01*
Y0085520D01*
X0120557Y0085526D01*
X0120570Y0085557D01*
X0120588Y0085606D01*
X0120619Y0085668D01*
X0120650Y0085730D01*
X0120700Y0085798D01*
X0120749Y0085866D01*
X0120811Y0085928D01*
X0120817Y0085934D01*
X0120842Y0085953D01*
X0120879Y0085978D01*
X0120929Y0086002D01*
X0120985Y0086027D01*
X0121053Y0086052D01*
X0121127Y0086071D01*
X0121207Y0086077D01*
X0121263D01*
X0121300Y0086071D01*
D02*
G37*
G36*
X0132040Y0083520D02*
X0131638D01*
Y0083916D01*
X0131625D01*
Y0083910D01*
X0131613Y0083898D01*
X0131600Y0083873D01*
X0131576Y0083848D01*
X0131520Y0083774D01*
X0131433Y0083694D01*
X0131384Y0083650D01*
X0131328Y0083607D01*
X0131266Y0083570D01*
X0131192Y0083533D01*
X0131118Y0083508D01*
X0131037Y0083483D01*
X0130944Y0083471D01*
X0130851Y0083465D01*
X0130814D01*
X0130771Y0083471D01*
X0130709Y0083483D01*
X0130641Y0083495D01*
X0130567Y0083520D01*
X0130486Y0083551D01*
X0130406Y0083601D01*
X0130319Y0083657D01*
X0130239Y0083725D01*
X0130164Y0083811D01*
X0130096Y0083916D01*
X0130034Y0084034D01*
X0129991Y0084176D01*
X0129966Y0084344D01*
X0129954Y0084430D01*
Y0084529D01*
Y0086033D01*
X0130350D01*
Y0084591D01*
Y0084585D01*
Y0084560D01*
X0130356Y0084517D01*
X0130362Y0084467D01*
X0130369Y0084405D01*
X0130381Y0084344D01*
X0130400Y0084269D01*
X0130424Y0084195D01*
X0130462Y0084121D01*
X0130499Y0084053D01*
X0130548Y0083985D01*
X0130610Y0083923D01*
X0130678Y0083873D01*
X0130759Y0083836D01*
X0130858Y0083805D01*
X0130963Y0083799D01*
X0130975D01*
X0131012Y0083805D01*
X0131068Y0083811D01*
X0131130Y0083824D01*
X0131210Y0083855D01*
X0131291Y0083892D01*
X0131371Y0083941D01*
X0131446Y0084016D01*
X0131452Y0084028D01*
X0131477Y0084053D01*
X0131508Y0084102D01*
X0131545Y0084170D01*
X0131576Y0084251D01*
X0131607Y0084350D01*
X0131631Y0084461D01*
X0131638Y0084585D01*
Y0086033D01*
X0132040D01*
Y0083520D01*
D02*
G37*
G36*
X0136175D02*
X0135773D01*
Y0086033D01*
X0136175D01*
Y0083520D01*
D02*
G37*
G36*
X0134955D02*
X0134553D01*
Y0087240D01*
X0134955D01*
Y0083520D01*
D02*
G37*
G36*
X0118577Y0086083D02*
X0118632Y0086077D01*
X0118701Y0086058D01*
X0118775Y0086040D01*
X0118855Y0086009D01*
X0118942Y0085971D01*
X0119022Y0085922D01*
X0119103Y0085860D01*
X0119177Y0085786D01*
X0119245Y0085693D01*
X0119301Y0085588D01*
X0119344Y0085464D01*
X0119369Y0085322D01*
X0119381Y0085154D01*
Y0083520D01*
X0118979D01*
Y0083910D01*
X0118967D01*
Y0083904D01*
X0118954Y0083892D01*
X0118942Y0083867D01*
X0118917Y0083842D01*
X0118855Y0083768D01*
X0118775Y0083687D01*
X0118663Y0083607D01*
X0118533Y0083533D01*
X0118453Y0083508D01*
X0118372Y0083483D01*
X0118286Y0083471D01*
X0118193Y0083465D01*
X0118156D01*
X0118131Y0083471D01*
X0118063Y0083477D01*
X0117982Y0083489D01*
X0117883Y0083514D01*
X0117791Y0083545D01*
X0117692Y0083595D01*
X0117605Y0083657D01*
X0117599Y0083669D01*
X0117574Y0083694D01*
X0117537Y0083737D01*
X0117500Y0083799D01*
X0117463Y0083873D01*
X0117425Y0083960D01*
X0117401Y0084065D01*
X0117394Y0084183D01*
Y0084189D01*
Y0084214D01*
X0117401Y0084251D01*
X0117407Y0084294D01*
X0117419Y0084350D01*
X0117438Y0084412D01*
X0117463Y0084480D01*
X0117500Y0084548D01*
X0117543Y0084622D01*
X0117599Y0084696D01*
X0117667Y0084764D01*
X0117747Y0084826D01*
X0117840Y0084888D01*
X0117952Y0084938D01*
X0118075Y0084975D01*
X0118224Y0085006D01*
X0118979Y0085111D01*
Y0085117D01*
Y0085136D01*
X0118973Y0085173D01*
Y0085210D01*
X0118960Y0085260D01*
X0118954Y0085315D01*
X0118917Y0085433D01*
X0118886Y0085489D01*
X0118855Y0085544D01*
X0118812Y0085600D01*
X0118762Y0085650D01*
X0118701Y0085693D01*
X0118632Y0085724D01*
X0118552Y0085742D01*
X0118459Y0085749D01*
X0118416D01*
X0118385Y0085742D01*
X0118342D01*
X0118298Y0085730D01*
X0118187Y0085711D01*
X0118063Y0085674D01*
X0117927Y0085619D01*
X0117852Y0085582D01*
X0117784Y0085544D01*
X0117710Y0085495D01*
X0117642Y0085439D01*
Y0085854D01*
X0117648D01*
X0117661Y0085866D01*
X0117679Y0085879D01*
X0117710Y0085891D01*
X0117741Y0085910D01*
X0117784Y0085928D01*
X0117834Y0085947D01*
X0117890Y0085971D01*
X0118013Y0086015D01*
X0118162Y0086052D01*
X0118323Y0086077D01*
X0118496Y0086089D01*
X0118533D01*
X0118577Y0086083D01*
D02*
G37*
G36*
X0112888Y0087030D02*
X0112931D01*
X0112975Y0087024D01*
X0113074Y0087011D01*
X0113191Y0086980D01*
X0113315Y0086943D01*
X0113433Y0086888D01*
X0113538Y0086813D01*
X0113544D01*
X0113550Y0086801D01*
X0113581Y0086776D01*
X0113625Y0086727D01*
X0113674Y0086659D01*
X0113717Y0086572D01*
X0113761Y0086473D01*
X0113792Y0086361D01*
X0113804Y0086300D01*
Y0086231D01*
Y0086225D01*
Y0086219D01*
Y0086182D01*
X0113798Y0086126D01*
X0113786Y0086058D01*
X0113767Y0085971D01*
X0113736Y0085885D01*
X0113699Y0085798D01*
X0113643Y0085711D01*
X0113637Y0085699D01*
X0113612Y0085674D01*
X0113575Y0085637D01*
X0113526Y0085588D01*
X0113464Y0085538D01*
X0113390Y0085483D01*
X0113297Y0085439D01*
X0113198Y0085396D01*
Y0085390D01*
X0113216D01*
X0113235Y0085383D01*
X0113253Y0085377D01*
X0113321Y0085365D01*
X0113402Y0085340D01*
X0113488Y0085303D01*
X0113581Y0085260D01*
X0113674Y0085198D01*
X0113761Y0085117D01*
X0113773Y0085105D01*
X0113798Y0085074D01*
X0113829Y0085031D01*
X0113872Y0084963D01*
X0113909Y0084876D01*
X0113947Y0084777D01*
X0113971Y0084659D01*
X0113978Y0084529D01*
Y0084523D01*
Y0084511D01*
Y0084486D01*
X0113971Y0084455D01*
X0113965Y0084418D01*
X0113959Y0084374D01*
X0113934Y0084269D01*
X0113897Y0084152D01*
X0113841Y0084028D01*
X0113804Y0083972D01*
X0113761Y0083910D01*
X0113705Y0083855D01*
X0113649Y0083799D01*
X0113643D01*
X0113637Y0083786D01*
X0113619Y0083774D01*
X0113594Y0083755D01*
X0113563Y0083737D01*
X0113520Y0083712D01*
X0113427Y0083663D01*
X0113309Y0083607D01*
X0113173Y0083564D01*
X0113012Y0083533D01*
X0112931Y0083526D01*
X0112839Y0083520D01*
X0111811D01*
Y0087036D01*
X0112857D01*
X0112888Y0087030D01*
D02*
G37*
G36*
X0133383Y0086033D02*
X0134021D01*
Y0085687D01*
X0133383D01*
Y0084269D01*
Y0084257D01*
Y0084226D01*
X0133389Y0084183D01*
X0133396Y0084127D01*
X0133420Y0084009D01*
X0133439Y0083954D01*
X0133470Y0083910D01*
X0133476Y0083904D01*
X0133488Y0083892D01*
X0133507Y0083879D01*
X0133538Y0083861D01*
X0133575Y0083836D01*
X0133625Y0083824D01*
X0133686Y0083811D01*
X0133755Y0083805D01*
X0133779D01*
X0133810Y0083811D01*
X0133847Y0083817D01*
X0133934Y0083842D01*
X0133977Y0083861D01*
X0134021Y0083886D01*
Y0083539D01*
X0134015D01*
X0133996Y0083526D01*
X0133965Y0083520D01*
X0133922Y0083508D01*
X0133866Y0083495D01*
X0133804Y0083483D01*
X0133730Y0083477D01*
X0133643Y0083471D01*
X0133612D01*
X0133581Y0083477D01*
X0133538Y0083483D01*
X0133488Y0083495D01*
X0133433Y0083508D01*
X0133377Y0083533D01*
X0133315Y0083564D01*
X0133253Y0083601D01*
X0133191Y0083650D01*
X0133136Y0083706D01*
X0133086Y0083780D01*
X0133043Y0083861D01*
X0133012Y0083960D01*
X0132987Y0084071D01*
X0132981Y0084201D01*
Y0085687D01*
X0132554D01*
Y0086033D01*
X0132981D01*
Y0086646D01*
X0133383Y0086776D01*
Y0086033D01*
D02*
G37*
G36*
X0140910Y0086083D02*
X0140954Y0086077D01*
X0140997Y0086071D01*
X0141108Y0086052D01*
X0141232Y0086009D01*
X0141356Y0085953D01*
X0141418Y0085916D01*
X0141480Y0085873D01*
X0141535Y0085823D01*
X0141591Y0085767D01*
X0141597Y0085761D01*
X0141604Y0085755D01*
X0141616Y0085736D01*
X0141634Y0085711D01*
X0141653Y0085674D01*
X0141678Y0085637D01*
X0141702Y0085594D01*
X0141727Y0085538D01*
X0141752Y0085476D01*
X0141777Y0085414D01*
X0141802Y0085340D01*
X0141820Y0085260D01*
X0141839Y0085173D01*
X0141851Y0085086D01*
X0141864Y0084987D01*
Y0084882D01*
Y0084672D01*
X0140087D01*
Y0084665D01*
Y0084653D01*
Y0084635D01*
X0140093Y0084604D01*
X0140099Y0084566D01*
Y0084529D01*
X0140118Y0084430D01*
X0140149Y0084331D01*
X0140186Y0084220D01*
X0140242Y0084114D01*
X0140310Y0084022D01*
X0140322Y0084009D01*
X0140347Y0083985D01*
X0140396Y0083954D01*
X0140464Y0083910D01*
X0140551Y0083867D01*
X0140650Y0083836D01*
X0140768Y0083811D01*
X0140904Y0083799D01*
X0140947D01*
X0140978Y0083805D01*
X0141015D01*
X0141059Y0083811D01*
X0141164Y0083836D01*
X0141282Y0083867D01*
X0141412Y0083916D01*
X0141548Y0083985D01*
X0141616Y0084028D01*
X0141684Y0084077D01*
Y0083700D01*
X0141678D01*
X0141672Y0083687D01*
X0141653Y0083681D01*
X0141622Y0083663D01*
X0141591Y0083644D01*
X0141554Y0083626D01*
X0141504Y0083607D01*
X0141455Y0083582D01*
X0141393Y0083557D01*
X0141325Y0083539D01*
X0141176Y0083502D01*
X0141003Y0083477D01*
X0140811Y0083465D01*
X0140762D01*
X0140725Y0083471D01*
X0140681Y0083477D01*
X0140626Y0083483D01*
X0140508Y0083508D01*
X0140372Y0083545D01*
X0140235Y0083607D01*
X0140167Y0083650D01*
X0140099Y0083694D01*
X0140037Y0083743D01*
X0139976Y0083805D01*
X0139969Y0083811D01*
X0139963Y0083824D01*
X0139951Y0083842D01*
X0139926Y0083867D01*
X0139907Y0083904D01*
X0139883Y0083947D01*
X0139852Y0083997D01*
X0139827Y0084053D01*
X0139796Y0084114D01*
X0139771Y0084189D01*
X0139740Y0084269D01*
X0139722Y0084356D01*
X0139703Y0084449D01*
X0139685Y0084548D01*
X0139678Y0084653D01*
X0139672Y0084764D01*
Y0084771D01*
Y0084789D01*
Y0084820D01*
X0139678Y0084864D01*
X0139685Y0084913D01*
X0139691Y0084969D01*
X0139697Y0085037D01*
X0139716Y0085105D01*
X0139753Y0085254D01*
X0139808Y0085414D01*
X0139846Y0085495D01*
X0139895Y0085569D01*
X0139945Y0085650D01*
X0140000Y0085718D01*
X0140006Y0085724D01*
X0140019Y0085736D01*
X0140037Y0085755D01*
X0140062Y0085773D01*
X0140093Y0085804D01*
X0140130Y0085835D01*
X0140180Y0085866D01*
X0140229Y0085903D01*
X0140347Y0085971D01*
X0140489Y0086033D01*
X0140570Y0086052D01*
X0140650Y0086071D01*
X0140737Y0086083D01*
X0140830Y0086089D01*
X0140879D01*
X0140910Y0086083D01*
D02*
G37*
G36*
X0127868Y0087092D02*
X0127930Y0087086D01*
X0128004Y0087073D01*
X0128085Y0087055D01*
X0128171Y0087036D01*
X0128258Y0087011D01*
X0128357Y0086980D01*
X0128450Y0086937D01*
X0128549Y0086888D01*
X0128648Y0086832D01*
X0128741Y0086764D01*
X0128833Y0086690D01*
X0128920Y0086603D01*
X0128926Y0086597D01*
X0128939Y0086578D01*
X0128963Y0086553D01*
X0128988Y0086516D01*
X0129025Y0086467D01*
X0129063Y0086405D01*
X0129100Y0086337D01*
X0129143Y0086263D01*
X0129186Y0086170D01*
X0129224Y0086077D01*
X0129261Y0085971D01*
X0129298Y0085854D01*
X0129323Y0085736D01*
X0129347Y0085606D01*
X0129360Y0085464D01*
X0129366Y0085322D01*
Y0085309D01*
Y0085284D01*
Y0085241D01*
X0129360Y0085179D01*
X0129353Y0085105D01*
X0129341Y0085024D01*
X0129329Y0084932D01*
X0129310Y0084826D01*
X0129285Y0084721D01*
X0129254Y0084610D01*
X0129217Y0084498D01*
X0129174Y0084387D01*
X0129118Y0084269D01*
X0129056Y0084164D01*
X0128988Y0084059D01*
X0128908Y0083960D01*
X0128902Y0083954D01*
X0128889Y0083941D01*
X0128858Y0083916D01*
X0128827Y0083886D01*
X0128778Y0083842D01*
X0128722Y0083805D01*
X0128660Y0083755D01*
X0128586Y0083712D01*
X0128505Y0083669D01*
X0128413Y0083619D01*
X0128314Y0083582D01*
X0128202Y0083545D01*
X0128085Y0083508D01*
X0127961Y0083483D01*
X0127831Y0083471D01*
X0127688Y0083465D01*
X0127657D01*
X0127614Y0083471D01*
X0127565D01*
X0127503Y0083477D01*
X0127428Y0083489D01*
X0127348Y0083508D01*
X0127255Y0083526D01*
X0127162Y0083551D01*
X0127063Y0083582D01*
X0126964Y0083626D01*
X0126865Y0083669D01*
X0126766Y0083725D01*
X0126667Y0083793D01*
X0126574Y0083867D01*
X0126488Y0083954D01*
X0126481Y0083960D01*
X0126469Y0083978D01*
X0126444Y0084003D01*
X0126419Y0084040D01*
X0126382Y0084090D01*
X0126345Y0084152D01*
X0126308Y0084220D01*
X0126265Y0084300D01*
X0126221Y0084387D01*
X0126184Y0084480D01*
X0126147Y0084585D01*
X0126110Y0084703D01*
X0126085Y0084820D01*
X0126060Y0084950D01*
X0126048Y0085093D01*
X0126042Y0085235D01*
Y0085247D01*
Y0085272D01*
X0126048Y0085315D01*
Y0085377D01*
X0126054Y0085445D01*
X0126067Y0085532D01*
X0126079Y0085625D01*
X0126098Y0085724D01*
X0126122Y0085829D01*
X0126153Y0085941D01*
X0126190Y0086052D01*
X0126234Y0086163D01*
X0126289Y0086275D01*
X0126351Y0086386D01*
X0126419Y0086492D01*
X0126500Y0086590D01*
X0126506Y0086597D01*
X0126518Y0086615D01*
X0126549Y0086640D01*
X0126587Y0086671D01*
X0126630Y0086708D01*
X0126686Y0086752D01*
X0126754Y0086795D01*
X0126828Y0086844D01*
X0126915Y0086894D01*
X0127007Y0086937D01*
X0127106Y0086980D01*
X0127218Y0087018D01*
X0127342Y0087049D01*
X0127472Y0087080D01*
X0127608Y0087092D01*
X0127750Y0087098D01*
X0127818D01*
X0127868Y0087092D01*
D02*
G37*
G36*
X0115841Y0086083D02*
X0115884Y0086077D01*
X0115940Y0086071D01*
X0116064Y0086046D01*
X0116206Y0086002D01*
X0116348Y0085941D01*
X0116423Y0085903D01*
X0116491Y0085860D01*
X0116559Y0085804D01*
X0116621Y0085742D01*
X0116627Y0085736D01*
X0116633Y0085724D01*
X0116652Y0085705D01*
X0116670Y0085681D01*
X0116695Y0085644D01*
X0116720Y0085600D01*
X0116751Y0085551D01*
X0116782Y0085495D01*
X0116806Y0085427D01*
X0116837Y0085359D01*
X0116862Y0085278D01*
X0116887Y0085192D01*
X0116905Y0085099D01*
X0116924Y0085000D01*
X0116930Y0084895D01*
X0116936Y0084783D01*
Y0084777D01*
Y0084758D01*
Y0084727D01*
X0116930Y0084684D01*
X0116924Y0084635D01*
X0116918Y0084573D01*
X0116905Y0084511D01*
X0116893Y0084436D01*
X0116856Y0084288D01*
X0116794Y0084127D01*
X0116757Y0084046D01*
X0116707Y0083966D01*
X0116658Y0083892D01*
X0116596Y0083824D01*
X0116590Y0083817D01*
X0116577Y0083811D01*
X0116559Y0083793D01*
X0116534Y0083768D01*
X0116497Y0083743D01*
X0116460Y0083712D01*
X0116410Y0083675D01*
X0116355Y0083644D01*
X0116293Y0083613D01*
X0116225Y0083576D01*
X0116150Y0083545D01*
X0116070Y0083520D01*
X0115983Y0083495D01*
X0115890Y0083483D01*
X0115791Y0083471D01*
X0115686Y0083465D01*
X0115630D01*
X0115593Y0083471D01*
X0115550Y0083477D01*
X0115494Y0083483D01*
X0115432Y0083495D01*
X0115364Y0083508D01*
X0115222Y0083551D01*
X0115073Y0083613D01*
X0114999Y0083650D01*
X0114931Y0083700D01*
X0114863Y0083749D01*
X0114795Y0083811D01*
X0114788Y0083817D01*
X0114782Y0083830D01*
X0114764Y0083848D01*
X0114745Y0083873D01*
X0114720Y0083910D01*
X0114689Y0083954D01*
X0114658Y0084003D01*
X0114634Y0084059D01*
X0114603Y0084127D01*
X0114572Y0084195D01*
X0114541Y0084269D01*
X0114516Y0084356D01*
X0114479Y0084542D01*
X0114473Y0084641D01*
X0114467Y0084746D01*
Y0084752D01*
Y0084777D01*
Y0084808D01*
X0114473Y0084851D01*
X0114479Y0084901D01*
X0114485Y0084963D01*
X0114497Y0085031D01*
X0114510Y0085105D01*
X0114547Y0085266D01*
X0114609Y0085427D01*
X0114652Y0085507D01*
X0114696Y0085588D01*
X0114745Y0085662D01*
X0114807Y0085730D01*
X0114813Y0085736D01*
X0114825Y0085749D01*
X0114844Y0085761D01*
X0114869Y0085786D01*
X0114906Y0085811D01*
X0114949Y0085842D01*
X0114999Y0085879D01*
X0115055Y0085910D01*
X0115117Y0085941D01*
X0115191Y0085978D01*
X0115265Y0086009D01*
X0115352Y0086033D01*
X0115438Y0086058D01*
X0115537Y0086077D01*
X0115643Y0086083D01*
X0115748Y0086089D01*
X0115804D01*
X0115841Y0086083D01*
D02*
G37*
G36*
X0145837Y0048123D02*
X0145862D01*
X0145918Y0048098D01*
X0145949Y0048080D01*
X0145980Y0048055D01*
X0145986Y0048049D01*
X0145992Y0048043D01*
X0146023Y0048005D01*
X0146048Y0047943D01*
X0146054Y0047906D01*
X0146060Y0047869D01*
Y0047863D01*
Y0047851D01*
X0146054Y0047832D01*
X0146048Y0047807D01*
X0146029Y0047745D01*
X0146005Y0047714D01*
X0145980Y0047683D01*
X0145974D01*
X0145967Y0047671D01*
X0145930Y0047646D01*
X0145875Y0047622D01*
X0145837Y0047615D01*
X0145800Y0047609D01*
X0145782D01*
X0145763Y0047615D01*
X0145738D01*
X0145677Y0047640D01*
X0145646Y0047653D01*
X0145615Y0047677D01*
Y0047683D01*
X0145602Y0047690D01*
X0145590Y0047708D01*
X0145578Y0047727D01*
X0145553Y0047789D01*
X0145546Y0047826D01*
X0145540Y0047869D01*
Y0047875D01*
Y0047888D01*
X0145546Y0047906D01*
X0145553Y0047937D01*
X0145571Y0047993D01*
X0145590Y0048024D01*
X0145615Y0048055D01*
X0145621Y0048061D01*
X0145627Y0048067D01*
X0145664Y0048092D01*
X0145726Y0048117D01*
X0145763Y0048129D01*
X0145819D01*
X0145837Y0048123D01*
D02*
G37*
G36*
X0123269Y0048030D02*
X0123318D01*
X0123430Y0048018D01*
X0123553Y0048005D01*
X0123677Y0047980D01*
X0123795Y0047950D01*
X0123844Y0047931D01*
X0123894Y0047906D01*
Y0047442D01*
X0123888D01*
X0123881Y0047454D01*
X0123863Y0047461D01*
X0123838Y0047479D01*
X0123807Y0047491D01*
X0123770Y0047510D01*
X0123677Y0047553D01*
X0123566Y0047591D01*
X0123430Y0047628D01*
X0123269Y0047653D01*
X0123095Y0047659D01*
X0123046D01*
X0123009Y0047653D01*
X0122972D01*
X0122922Y0047646D01*
X0122823Y0047628D01*
X0122817D01*
X0122798Y0047622D01*
X0122774Y0047615D01*
X0122743Y0047609D01*
X0122668Y0047578D01*
X0122582Y0047541D01*
X0122575D01*
X0122563Y0047529D01*
X0122545Y0047516D01*
X0122520Y0047498D01*
X0122464Y0047442D01*
X0122408Y0047374D01*
Y0047368D01*
X0122396Y0047355D01*
X0122390Y0047337D01*
X0122377Y0047306D01*
X0122365Y0047269D01*
X0122359Y0047232D01*
X0122346Y0047133D01*
Y0047126D01*
Y0047108D01*
Y0047083D01*
X0122353Y0047052D01*
X0122365Y0046978D01*
X0122396Y0046897D01*
Y0046891D01*
X0122408Y0046879D01*
X0122415Y0046860D01*
X0122433Y0046835D01*
X0122483Y0046780D01*
X0122545Y0046718D01*
X0122551Y0046712D01*
X0122563Y0046705D01*
X0122582Y0046687D01*
X0122613Y0046668D01*
X0122650Y0046643D01*
X0122687Y0046619D01*
X0122786Y0046557D01*
X0122792Y0046551D01*
X0122811Y0046545D01*
X0122842Y0046526D01*
X0122879Y0046507D01*
X0122928Y0046483D01*
X0122984Y0046458D01*
X0123108Y0046396D01*
X0123114Y0046390D01*
X0123139Y0046377D01*
X0123176Y0046359D01*
X0123225Y0046334D01*
X0123281Y0046309D01*
X0123343Y0046272D01*
X0123467Y0046198D01*
X0123473Y0046192D01*
X0123498Y0046179D01*
X0123529Y0046161D01*
X0123572Y0046130D01*
X0123665Y0046055D01*
X0123764Y0045969D01*
X0123770Y0045963D01*
X0123789Y0045950D01*
X0123807Y0045919D01*
X0123838Y0045888D01*
X0123869Y0045845D01*
X0123906Y0045802D01*
X0123968Y0045690D01*
X0123974Y0045684D01*
X0123981Y0045665D01*
X0123993Y0045634D01*
X0124005Y0045591D01*
X0124018Y0045542D01*
X0124030Y0045480D01*
X0124042Y0045418D01*
Y0045344D01*
Y0045331D01*
Y0045300D01*
X0124036Y0045251D01*
X0124030Y0045189D01*
X0124018Y0045121D01*
X0123999Y0045046D01*
X0123974Y0044972D01*
X0123937Y0044904D01*
X0123931Y0044898D01*
X0123919Y0044873D01*
X0123894Y0044842D01*
X0123869Y0044799D01*
X0123826Y0044756D01*
X0123783Y0044706D01*
X0123727Y0044657D01*
X0123665Y0044607D01*
X0123659Y0044601D01*
X0123634Y0044588D01*
X0123597Y0044570D01*
X0123547Y0044545D01*
X0123492Y0044520D01*
X0123424Y0044496D01*
X0123343Y0044471D01*
X0123263Y0044452D01*
X0123250D01*
X0123225Y0044446D01*
X0123182Y0044440D01*
X0123120Y0044427D01*
X0123052Y0044421D01*
X0122972Y0044409D01*
X0122885Y0044403D01*
X0122736D01*
X0122668Y0044409D01*
X0122582Y0044415D01*
X0122563D01*
X0122538Y0044421D01*
X0122507Y0044427D01*
X0122427Y0044434D01*
X0122334Y0044452D01*
X0122328D01*
X0122309Y0044458D01*
X0122284Y0044465D01*
X0122254Y0044471D01*
X0122179Y0044489D01*
X0122093Y0044514D01*
X0122086D01*
X0122074Y0044520D01*
X0122055Y0044526D01*
X0122031Y0044539D01*
X0121969Y0044564D01*
X0121907Y0044601D01*
Y0045084D01*
X0121913Y0045077D01*
X0121925Y0045071D01*
X0121938Y0045059D01*
X0121963Y0045040D01*
X0122031Y0044997D01*
X0122111Y0044947D01*
X0122117D01*
X0122130Y0044941D01*
X0122154Y0044929D01*
X0122186Y0044916D01*
X0122266Y0044879D01*
X0122353Y0044848D01*
X0122359D01*
X0122377Y0044842D01*
X0122402Y0044836D01*
X0122433Y0044830D01*
X0122520Y0044805D01*
X0122613Y0044787D01*
X0122637D01*
X0122662Y0044780D01*
X0122693D01*
X0122767Y0044774D01*
X0122854Y0044768D01*
X0122916D01*
X0122984Y0044774D01*
X0123071Y0044787D01*
X0123163Y0044799D01*
X0123256Y0044824D01*
X0123343Y0044861D01*
X0123424Y0044904D01*
X0123430Y0044910D01*
X0123454Y0044929D01*
X0123485Y0044966D01*
X0123516Y0045009D01*
X0123553Y0045065D01*
X0123578Y0045139D01*
X0123603Y0045220D01*
X0123609Y0045313D01*
Y0045319D01*
Y0045337D01*
Y0045362D01*
X0123603Y0045399D01*
X0123584Y0045480D01*
X0123547Y0045560D01*
Y0045566D01*
X0123535Y0045579D01*
X0123522Y0045597D01*
X0123504Y0045622D01*
X0123448Y0045684D01*
X0123374Y0045752D01*
X0123368Y0045758D01*
X0123355Y0045771D01*
X0123331Y0045783D01*
X0123300Y0045808D01*
X0123263Y0045833D01*
X0123219Y0045864D01*
X0123114Y0045919D01*
X0123108Y0045926D01*
X0123089Y0045932D01*
X0123058Y0045950D01*
X0123015Y0045969D01*
X0122972Y0046000D01*
X0122916Y0046025D01*
X0122786Y0046093D01*
X0122780Y0046099D01*
X0122755Y0046111D01*
X0122718Y0046130D01*
X0122675Y0046148D01*
X0122625Y0046179D01*
X0122569Y0046210D01*
X0122445Y0046278D01*
X0122439Y0046284D01*
X0122421Y0046297D01*
X0122390Y0046315D01*
X0122353Y0046340D01*
X0122260Y0046408D01*
X0122167Y0046489D01*
X0122161Y0046495D01*
X0122148Y0046507D01*
X0122124Y0046532D01*
X0122099Y0046563D01*
X0122068Y0046606D01*
X0122037Y0046650D01*
X0121981Y0046749D01*
Y0046755D01*
X0121969Y0046773D01*
X0121963Y0046804D01*
X0121950Y0046848D01*
X0121938Y0046897D01*
X0121925Y0046959D01*
X0121919Y0047021D01*
X0121913Y0047095D01*
Y0047108D01*
Y0047139D01*
X0121919Y0047182D01*
X0121925Y0047238D01*
X0121938Y0047306D01*
X0121956Y0047374D01*
X0121981Y0047442D01*
X0122018Y0047510D01*
X0122025Y0047516D01*
X0122037Y0047541D01*
X0122062Y0047572D01*
X0122093Y0047615D01*
X0122130Y0047659D01*
X0122179Y0047708D01*
X0122235Y0047758D01*
X0122297Y0047801D01*
X0122303Y0047807D01*
X0122328Y0047820D01*
X0122365Y0047844D01*
X0122408Y0047869D01*
X0122470Y0047894D01*
X0122532Y0047925D01*
X0122606Y0047950D01*
X0122687Y0047974D01*
X0122699D01*
X0122724Y0047987D01*
X0122767Y0047993D01*
X0122829Y0048005D01*
X0122897Y0048018D01*
X0122972Y0048024D01*
X0123139Y0048036D01*
X0123225D01*
X0123269Y0048030D01*
D02*
G37*
G36*
X0131000Y0044458D02*
X0130598D01*
Y0044879D01*
X0130585D01*
Y0044873D01*
X0130573Y0044861D01*
X0130554Y0044836D01*
X0130536Y0044805D01*
X0130505Y0044768D01*
X0130468Y0044731D01*
X0130424Y0044688D01*
X0130375Y0044644D01*
X0130319Y0044595D01*
X0130251Y0044551D01*
X0130183Y0044514D01*
X0130103Y0044477D01*
X0130022Y0044446D01*
X0129929Y0044421D01*
X0129830Y0044409D01*
X0129725Y0044403D01*
X0129682D01*
X0129644Y0044409D01*
X0129607Y0044415D01*
X0129558Y0044421D01*
X0129453Y0044446D01*
X0129329Y0044483D01*
X0129205Y0044545D01*
X0129137Y0044582D01*
X0129081Y0044626D01*
X0129019Y0044681D01*
X0128963Y0044737D01*
Y0044743D01*
X0128951Y0044756D01*
X0128939Y0044774D01*
X0128920Y0044799D01*
X0128902Y0044830D01*
X0128877Y0044873D01*
X0128852Y0044923D01*
X0128827Y0044978D01*
X0128796Y0045040D01*
X0128772Y0045108D01*
X0128747Y0045183D01*
X0128728Y0045263D01*
X0128710Y0045350D01*
X0128697Y0045449D01*
X0128691Y0045548D01*
X0128685Y0045653D01*
Y0045659D01*
Y0045678D01*
Y0045715D01*
X0128691Y0045758D01*
X0128697Y0045808D01*
X0128703Y0045870D01*
X0128710Y0045938D01*
X0128722Y0046012D01*
X0128759Y0046173D01*
X0128815Y0046340D01*
X0128852Y0046421D01*
X0128895Y0046501D01*
X0128939Y0046575D01*
X0128995Y0046650D01*
X0129001Y0046656D01*
X0129007Y0046668D01*
X0129025Y0046687D01*
X0129050Y0046712D01*
X0129081Y0046736D01*
X0129124Y0046767D01*
X0129168Y0046804D01*
X0129217Y0046842D01*
X0129341Y0046910D01*
X0129483Y0046972D01*
X0129564Y0046990D01*
X0129651Y0047009D01*
X0129737Y0047021D01*
X0129836Y0047027D01*
X0129886D01*
X0129923Y0047021D01*
X0129960Y0047015D01*
X0130010Y0047009D01*
X0130121Y0046978D01*
X0130245Y0046928D01*
X0130307Y0046897D01*
X0130369Y0046854D01*
X0130430Y0046811D01*
X0130486Y0046755D01*
X0130536Y0046693D01*
X0130585Y0046619D01*
X0130598D01*
Y0048179D01*
X0131000D01*
Y0044458D01*
D02*
G37*
G36*
X0119053Y0047021D02*
X0119097Y0047015D01*
X0119140Y0047009D01*
X0119251Y0046984D01*
X0119375Y0046947D01*
X0119499Y0046885D01*
X0119561Y0046848D01*
X0119623Y0046798D01*
X0119678Y0046749D01*
X0119734Y0046687D01*
X0119740Y0046681D01*
X0119747Y0046674D01*
X0119759Y0046650D01*
X0119778Y0046625D01*
X0119796Y0046594D01*
X0119821Y0046551D01*
X0119846Y0046501D01*
X0119870Y0046452D01*
X0119895Y0046390D01*
X0119920Y0046322D01*
X0119945Y0046247D01*
X0119963Y0046167D01*
X0119994Y0045987D01*
X0120007Y0045888D01*
Y0045783D01*
Y0045777D01*
Y0045758D01*
Y0045721D01*
X0120000Y0045678D01*
Y0045628D01*
X0119988Y0045566D01*
X0119982Y0045498D01*
X0119969Y0045424D01*
X0119932Y0045263D01*
X0119877Y0045096D01*
X0119840Y0045015D01*
X0119802Y0044935D01*
X0119753Y0044855D01*
X0119697Y0044780D01*
X0119691Y0044774D01*
X0119685Y0044762D01*
X0119666Y0044743D01*
X0119641Y0044725D01*
X0119610Y0044694D01*
X0119573Y0044663D01*
X0119530Y0044626D01*
X0119480Y0044595D01*
X0119425Y0044557D01*
X0119363Y0044520D01*
X0119214Y0044465D01*
X0119134Y0044440D01*
X0119053Y0044421D01*
X0118960Y0044409D01*
X0118861Y0044403D01*
X0118812D01*
X0118781Y0044409D01*
X0118738Y0044415D01*
X0118694Y0044427D01*
X0118583Y0044452D01*
X0118465Y0044502D01*
X0118397Y0044539D01*
X0118335Y0044576D01*
X0118273Y0044626D01*
X0118218Y0044681D01*
X0118156Y0044743D01*
X0118106Y0044818D01*
X0118094D01*
Y0043307D01*
X0117692D01*
Y0046972D01*
X0118094D01*
Y0046526D01*
X0118106D01*
X0118112Y0046532D01*
X0118119Y0046551D01*
X0118137Y0046575D01*
X0118162Y0046606D01*
X0118193Y0046643D01*
X0118230Y0046687D01*
X0118273Y0046730D01*
X0118329Y0046780D01*
X0118385Y0046823D01*
X0118447Y0046866D01*
X0118521Y0046910D01*
X0118595Y0046947D01*
X0118682Y0046984D01*
X0118775Y0047009D01*
X0118868Y0047021D01*
X0118973Y0047027D01*
X0119022D01*
X0119053Y0047021D01*
D02*
G37*
G36*
X0147744D02*
X0147824Y0047015D01*
X0147911Y0047003D01*
X0148010Y0046978D01*
X0148109Y0046953D01*
X0148208Y0046916D01*
Y0046507D01*
X0148196Y0046514D01*
X0148159Y0046538D01*
X0148103Y0046563D01*
X0148029Y0046600D01*
X0147936Y0046631D01*
X0147824Y0046662D01*
X0147701Y0046681D01*
X0147571Y0046687D01*
X0147503D01*
X0147441Y0046674D01*
X0147366Y0046662D01*
X0147360D01*
X0147354Y0046656D01*
X0147317Y0046643D01*
X0147267Y0046619D01*
X0147212Y0046588D01*
X0147199Y0046582D01*
X0147175Y0046557D01*
X0147143Y0046520D01*
X0147113Y0046476D01*
X0147106Y0046464D01*
X0147094Y0046433D01*
X0147082Y0046390D01*
X0147075Y0046334D01*
Y0046328D01*
Y0046315D01*
Y0046297D01*
X0147082Y0046278D01*
X0147094Y0046223D01*
X0147113Y0046167D01*
X0147119Y0046154D01*
X0147137Y0046130D01*
X0147175Y0046093D01*
X0147218Y0046049D01*
X0147224D01*
X0147230Y0046043D01*
X0147267Y0046018D01*
X0147317Y0045987D01*
X0147385Y0045956D01*
X0147391D01*
X0147404Y0045950D01*
X0147422Y0045944D01*
X0147453Y0045932D01*
X0147521Y0045907D01*
X0147608Y0045870D01*
X0147614D01*
X0147639Y0045857D01*
X0147670Y0045845D01*
X0147707Y0045833D01*
X0147806Y0045789D01*
X0147905Y0045740D01*
X0147911D01*
X0147930Y0045727D01*
X0147954Y0045715D01*
X0147985Y0045696D01*
X0148060Y0045647D01*
X0148134Y0045585D01*
X0148140Y0045579D01*
X0148152Y0045573D01*
X0148165Y0045554D01*
X0148190Y0045529D01*
X0148233Y0045467D01*
X0148276Y0045387D01*
Y0045381D01*
X0148283Y0045368D01*
X0148295Y0045344D01*
X0148301Y0045313D01*
X0148313Y0045276D01*
X0148320Y0045232D01*
X0148326Y0045127D01*
Y0045121D01*
Y0045096D01*
X0148320Y0045059D01*
X0148313Y0045015D01*
X0148307Y0044966D01*
X0148289Y0044910D01*
X0148270Y0044861D01*
X0148239Y0044805D01*
X0148233Y0044799D01*
X0148227Y0044780D01*
X0148208Y0044756D01*
X0148184Y0044725D01*
X0148152Y0044688D01*
X0148115Y0044650D01*
X0148022Y0044576D01*
X0148016Y0044570D01*
X0147998Y0044564D01*
X0147973Y0044545D01*
X0147930Y0044526D01*
X0147886Y0044502D01*
X0147831Y0044483D01*
X0147775Y0044465D01*
X0147707Y0044446D01*
X0147701D01*
X0147676Y0044440D01*
X0147639Y0044434D01*
X0147595Y0044427D01*
X0147534Y0044415D01*
X0147472Y0044409D01*
X0147329Y0044403D01*
X0147267D01*
X0147193Y0044409D01*
X0147100Y0044421D01*
X0146995Y0044440D01*
X0146884Y0044465D01*
X0146772Y0044496D01*
X0146661Y0044545D01*
Y0044978D01*
X0146667D01*
X0146673Y0044966D01*
X0146692Y0044954D01*
X0146716Y0044941D01*
X0146784Y0044904D01*
X0146877Y0044861D01*
X0146983Y0044811D01*
X0147106Y0044774D01*
X0147243Y0044749D01*
X0147385Y0044737D01*
X0147434D01*
X0147465Y0044743D01*
X0147552Y0044756D01*
X0147651Y0044780D01*
X0147744Y0044824D01*
X0147787Y0044855D01*
X0147831Y0044886D01*
X0147862Y0044929D01*
X0147886Y0044972D01*
X0147905Y0045028D01*
X0147911Y0045090D01*
Y0045096D01*
Y0045108D01*
Y0045127D01*
X0147905Y0045145D01*
X0147892Y0045201D01*
X0147868Y0045257D01*
Y0045263D01*
X0147862Y0045269D01*
X0147837Y0045300D01*
X0147800Y0045344D01*
X0147744Y0045381D01*
X0147738D01*
X0147732Y0045393D01*
X0147695Y0045412D01*
X0147639Y0045449D01*
X0147564Y0045480D01*
X0147558D01*
X0147546Y0045486D01*
X0147527Y0045498D01*
X0147496Y0045511D01*
X0147428Y0045535D01*
X0147342Y0045573D01*
X0147335D01*
X0147311Y0045585D01*
X0147280Y0045597D01*
X0147243Y0045610D01*
X0147143Y0045653D01*
X0147045Y0045703D01*
X0147038Y0045709D01*
X0147026Y0045715D01*
X0147001Y0045727D01*
X0146970Y0045746D01*
X0146902Y0045796D01*
X0146834Y0045851D01*
X0146828Y0045857D01*
X0146822Y0045864D01*
X0146803Y0045882D01*
X0146784Y0045907D01*
X0146741Y0045969D01*
X0146704Y0046043D01*
Y0046049D01*
X0146698Y0046062D01*
X0146692Y0046086D01*
X0146686Y0046117D01*
X0146679Y0046154D01*
X0146673Y0046198D01*
X0146667Y0046303D01*
Y0046309D01*
Y0046334D01*
X0146673Y0046365D01*
X0146679Y0046408D01*
X0146686Y0046458D01*
X0146704Y0046507D01*
X0146723Y0046563D01*
X0146747Y0046613D01*
X0146754Y0046619D01*
X0146760Y0046637D01*
X0146778Y0046662D01*
X0146803Y0046693D01*
X0146871Y0046767D01*
X0146958Y0046842D01*
X0146964Y0046848D01*
X0146983Y0046854D01*
X0147007Y0046872D01*
X0147051Y0046891D01*
X0147094Y0046916D01*
X0147143Y0046941D01*
X0147267Y0046978D01*
X0147274D01*
X0147298Y0046984D01*
X0147329Y0046996D01*
X0147379Y0047003D01*
X0147428Y0047015D01*
X0147490Y0047021D01*
X0147626Y0047027D01*
X0147682D01*
X0147744Y0047021D01*
D02*
G37*
G36*
X0144389D02*
X0144469Y0047015D01*
X0144556Y0047003D01*
X0144655Y0046978D01*
X0144754Y0046953D01*
X0144853Y0046916D01*
Y0046507D01*
X0144841Y0046514D01*
X0144804Y0046538D01*
X0144748Y0046563D01*
X0144674Y0046600D01*
X0144581Y0046631D01*
X0144469Y0046662D01*
X0144346Y0046681D01*
X0144216Y0046687D01*
X0144148D01*
X0144086Y0046674D01*
X0144011Y0046662D01*
X0144005D01*
X0143999Y0046656D01*
X0143962Y0046643D01*
X0143912Y0046619D01*
X0143857Y0046588D01*
X0143844Y0046582D01*
X0143819Y0046557D01*
X0143789Y0046520D01*
X0143758Y0046476D01*
X0143751Y0046464D01*
X0143739Y0046433D01*
X0143727Y0046390D01*
X0143720Y0046334D01*
Y0046328D01*
Y0046315D01*
Y0046297D01*
X0143727Y0046278D01*
X0143739Y0046223D01*
X0143758Y0046167D01*
X0143764Y0046154D01*
X0143782Y0046130D01*
X0143819Y0046093D01*
X0143863Y0046049D01*
X0143869D01*
X0143875Y0046043D01*
X0143912Y0046018D01*
X0143962Y0045987D01*
X0144030Y0045956D01*
X0144036D01*
X0144049Y0045950D01*
X0144067Y0045944D01*
X0144098Y0045932D01*
X0144166Y0045907D01*
X0144253Y0045870D01*
X0144259D01*
X0144284Y0045857D01*
X0144315Y0045845D01*
X0144352Y0045833D01*
X0144451Y0045789D01*
X0144550Y0045740D01*
X0144556D01*
X0144575Y0045727D01*
X0144599Y0045715D01*
X0144630Y0045696D01*
X0144705Y0045647D01*
X0144779Y0045585D01*
X0144785Y0045579D01*
X0144798Y0045573D01*
X0144810Y0045554D01*
X0144835Y0045529D01*
X0144878Y0045467D01*
X0144921Y0045387D01*
Y0045381D01*
X0144928Y0045368D01*
X0144940Y0045344D01*
X0144946Y0045313D01*
X0144958Y0045276D01*
X0144965Y0045232D01*
X0144971Y0045127D01*
Y0045121D01*
Y0045096D01*
X0144965Y0045059D01*
X0144958Y0045015D01*
X0144952Y0044966D01*
X0144934Y0044910D01*
X0144915Y0044861D01*
X0144884Y0044805D01*
X0144878Y0044799D01*
X0144872Y0044780D01*
X0144853Y0044756D01*
X0144828Y0044725D01*
X0144798Y0044688D01*
X0144760Y0044650D01*
X0144667Y0044576D01*
X0144661Y0044570D01*
X0144643Y0044564D01*
X0144618Y0044545D01*
X0144575Y0044526D01*
X0144531Y0044502D01*
X0144476Y0044483D01*
X0144420Y0044465D01*
X0144352Y0044446D01*
X0144346D01*
X0144321Y0044440D01*
X0144284Y0044434D01*
X0144240Y0044427D01*
X0144178Y0044415D01*
X0144117Y0044409D01*
X0143974Y0044403D01*
X0143912D01*
X0143838Y0044409D01*
X0143745Y0044421D01*
X0143640Y0044440D01*
X0143529Y0044465D01*
X0143417Y0044496D01*
X0143306Y0044545D01*
Y0044978D01*
X0143312D01*
X0143318Y0044966D01*
X0143337Y0044954D01*
X0143361Y0044941D01*
X0143430Y0044904D01*
X0143522Y0044861D01*
X0143628Y0044811D01*
X0143751Y0044774D01*
X0143888Y0044749D01*
X0144030Y0044737D01*
X0144079D01*
X0144110Y0044743D01*
X0144197Y0044756D01*
X0144296Y0044780D01*
X0144389Y0044824D01*
X0144432Y0044855D01*
X0144476Y0044886D01*
X0144507Y0044929D01*
X0144531Y0044972D01*
X0144550Y0045028D01*
X0144556Y0045090D01*
Y0045096D01*
Y0045108D01*
Y0045127D01*
X0144550Y0045145D01*
X0144538Y0045201D01*
X0144513Y0045257D01*
Y0045263D01*
X0144507Y0045269D01*
X0144482Y0045300D01*
X0144445Y0045344D01*
X0144389Y0045381D01*
X0144383D01*
X0144377Y0045393D01*
X0144340Y0045412D01*
X0144284Y0045449D01*
X0144210Y0045480D01*
X0144203D01*
X0144191Y0045486D01*
X0144172Y0045498D01*
X0144141Y0045511D01*
X0144073Y0045535D01*
X0143987Y0045573D01*
X0143980D01*
X0143956Y0045585D01*
X0143925Y0045597D01*
X0143888Y0045610D01*
X0143789Y0045653D01*
X0143690Y0045703D01*
X0143683Y0045709D01*
X0143671Y0045715D01*
X0143646Y0045727D01*
X0143615Y0045746D01*
X0143547Y0045796D01*
X0143479Y0045851D01*
X0143473Y0045857D01*
X0143467Y0045864D01*
X0143448Y0045882D01*
X0143430Y0045907D01*
X0143386Y0045969D01*
X0143349Y0046043D01*
Y0046049D01*
X0143343Y0046062D01*
X0143337Y0046086D01*
X0143331Y0046117D01*
X0143324Y0046154D01*
X0143318Y0046198D01*
X0143312Y0046303D01*
Y0046309D01*
Y0046334D01*
X0143318Y0046365D01*
X0143324Y0046408D01*
X0143331Y0046458D01*
X0143349Y0046507D01*
X0143368Y0046563D01*
X0143392Y0046613D01*
X0143399Y0046619D01*
X0143405Y0046637D01*
X0143423Y0046662D01*
X0143448Y0046693D01*
X0143516Y0046767D01*
X0143603Y0046842D01*
X0143609Y0046848D01*
X0143628Y0046854D01*
X0143652Y0046872D01*
X0143696Y0046891D01*
X0143739Y0046916D01*
X0143789Y0046941D01*
X0143912Y0046978D01*
X0143919D01*
X0143943Y0046984D01*
X0143974Y0046996D01*
X0144024Y0047003D01*
X0144073Y0047015D01*
X0144135Y0047021D01*
X0144271Y0047027D01*
X0144327D01*
X0144389Y0047021D01*
D02*
G37*
G36*
X0140242Y0047009D02*
X0140316Y0047003D01*
X0140359Y0046990D01*
X0140390Y0046978D01*
Y0046563D01*
X0140384Y0046569D01*
X0140372Y0046575D01*
X0140347Y0046588D01*
X0140316Y0046606D01*
X0140273Y0046619D01*
X0140217Y0046631D01*
X0140155Y0046637D01*
X0140087Y0046643D01*
X0140075D01*
X0140044Y0046637D01*
X0139994Y0046631D01*
X0139938Y0046613D01*
X0139864Y0046582D01*
X0139796Y0046538D01*
X0139722Y0046476D01*
X0139654Y0046396D01*
X0139647Y0046384D01*
X0139629Y0046353D01*
X0139598Y0046297D01*
X0139567Y0046223D01*
X0139536Y0046130D01*
X0139505Y0046012D01*
X0139487Y0045882D01*
X0139480Y0045734D01*
Y0044458D01*
X0139078D01*
Y0046972D01*
X0139480D01*
Y0046452D01*
X0139493D01*
Y0046458D01*
X0139499Y0046464D01*
X0139511Y0046495D01*
X0139530Y0046545D01*
X0139561Y0046606D01*
X0139592Y0046668D01*
X0139641Y0046736D01*
X0139691Y0046804D01*
X0139753Y0046866D01*
X0139759Y0046872D01*
X0139784Y0046891D01*
X0139821Y0046916D01*
X0139870Y0046941D01*
X0139926Y0046965D01*
X0139994Y0046990D01*
X0140068Y0047009D01*
X0140149Y0047015D01*
X0140205D01*
X0140242Y0047009D01*
D02*
G37*
G36*
X0135605D02*
X0135680Y0047003D01*
X0135723Y0046990D01*
X0135754Y0046978D01*
Y0046563D01*
X0135748Y0046569D01*
X0135735Y0046575D01*
X0135711Y0046588D01*
X0135680Y0046606D01*
X0135636Y0046619D01*
X0135581Y0046631D01*
X0135519Y0046637D01*
X0135451Y0046643D01*
X0135438D01*
X0135407Y0046637D01*
X0135358Y0046631D01*
X0135302Y0046613D01*
X0135228Y0046582D01*
X0135160Y0046538D01*
X0135085Y0046476D01*
X0135017Y0046396D01*
X0135011Y0046384D01*
X0134993Y0046353D01*
X0134962Y0046297D01*
X0134931Y0046223D01*
X0134900Y0046130D01*
X0134869Y0046012D01*
X0134850Y0045882D01*
X0134844Y0045734D01*
Y0044458D01*
X0134442D01*
Y0046972D01*
X0134844D01*
Y0046452D01*
X0134856D01*
Y0046458D01*
X0134863Y0046464D01*
X0134875Y0046495D01*
X0134894Y0046545D01*
X0134924Y0046606D01*
X0134955Y0046668D01*
X0135005Y0046736D01*
X0135055Y0046804D01*
X0135116Y0046866D01*
X0135123Y0046872D01*
X0135147Y0046891D01*
X0135185Y0046916D01*
X0135234Y0046941D01*
X0135290Y0046965D01*
X0135358Y0046990D01*
X0135432Y0047009D01*
X0135512Y0047015D01*
X0135568D01*
X0135605Y0047009D01*
D02*
G37*
G36*
X0145992Y0044458D02*
X0145590D01*
Y0046972D01*
X0145992D01*
Y0044458D01*
D02*
G37*
G36*
X0128035D02*
X0127633D01*
Y0048179D01*
X0128035D01*
Y0044458D01*
D02*
G37*
G36*
X0114250Y0047603D02*
X0113235D01*
Y0044458D01*
X0112826D01*
Y0047603D01*
X0111811D01*
Y0047974D01*
X0114250D01*
Y0047603D01*
D02*
G37*
G36*
X0149477Y0046972D02*
X0150115D01*
Y0046625D01*
X0149477D01*
Y0045207D01*
Y0045195D01*
Y0045164D01*
X0149483Y0045121D01*
X0149490Y0045065D01*
X0149514Y0044947D01*
X0149533Y0044892D01*
X0149564Y0044848D01*
X0149570Y0044842D01*
X0149582Y0044830D01*
X0149601Y0044818D01*
X0149632Y0044799D01*
X0149669Y0044774D01*
X0149719Y0044762D01*
X0149780Y0044749D01*
X0149849Y0044743D01*
X0149873D01*
X0149904Y0044749D01*
X0149941Y0044756D01*
X0150028Y0044780D01*
X0150071Y0044799D01*
X0150115Y0044824D01*
Y0044477D01*
X0150109D01*
X0150090Y0044465D01*
X0150059Y0044458D01*
X0150016Y0044446D01*
X0149960Y0044434D01*
X0149898Y0044421D01*
X0149824Y0044415D01*
X0149737Y0044409D01*
X0149706D01*
X0149675Y0044415D01*
X0149632Y0044421D01*
X0149582Y0044434D01*
X0149527Y0044446D01*
X0149471Y0044471D01*
X0149409Y0044502D01*
X0149347Y0044539D01*
X0149285Y0044588D01*
X0149230Y0044644D01*
X0149180Y0044718D01*
X0149137Y0044799D01*
X0149106Y0044898D01*
X0149081Y0045009D01*
X0149075Y0045139D01*
Y0046625D01*
X0148648D01*
Y0046972D01*
X0149075D01*
Y0047584D01*
X0149477Y0047714D01*
Y0046972D01*
D02*
G37*
G36*
X0141894Y0047021D02*
X0141938Y0047015D01*
X0141981Y0047009D01*
X0142093Y0046990D01*
X0142216Y0046947D01*
X0142340Y0046891D01*
X0142402Y0046854D01*
X0142464Y0046811D01*
X0142520Y0046761D01*
X0142575Y0046705D01*
X0142581Y0046699D01*
X0142588Y0046693D01*
X0142600Y0046674D01*
X0142619Y0046650D01*
X0142637Y0046613D01*
X0142662Y0046575D01*
X0142687Y0046532D01*
X0142711Y0046476D01*
X0142736Y0046415D01*
X0142761Y0046353D01*
X0142786Y0046278D01*
X0142804Y0046198D01*
X0142823Y0046111D01*
X0142835Y0046025D01*
X0142848Y0045926D01*
Y0045820D01*
Y0045610D01*
X0141071D01*
Y0045604D01*
Y0045591D01*
Y0045573D01*
X0141077Y0045542D01*
X0141084Y0045505D01*
Y0045467D01*
X0141102Y0045368D01*
X0141133Y0045269D01*
X0141170Y0045158D01*
X0141226Y0045053D01*
X0141294Y0044960D01*
X0141306Y0044947D01*
X0141331Y0044923D01*
X0141381Y0044892D01*
X0141449Y0044848D01*
X0141535Y0044805D01*
X0141634Y0044774D01*
X0141752Y0044749D01*
X0141888Y0044737D01*
X0141932D01*
X0141963Y0044743D01*
X0142000D01*
X0142043Y0044749D01*
X0142148Y0044774D01*
X0142266Y0044805D01*
X0142396Y0044855D01*
X0142532Y0044923D01*
X0142600Y0044966D01*
X0142668Y0045015D01*
Y0044638D01*
X0142662D01*
X0142656Y0044626D01*
X0142637Y0044619D01*
X0142606Y0044601D01*
X0142575Y0044582D01*
X0142538Y0044564D01*
X0142489Y0044545D01*
X0142439Y0044520D01*
X0142377Y0044496D01*
X0142309Y0044477D01*
X0142161Y0044440D01*
X0141987Y0044415D01*
X0141795Y0044403D01*
X0141746D01*
X0141709Y0044409D01*
X0141665Y0044415D01*
X0141610Y0044421D01*
X0141492Y0044446D01*
X0141356Y0044483D01*
X0141220Y0044545D01*
X0141152Y0044588D01*
X0141084Y0044632D01*
X0141022Y0044681D01*
X0140960Y0044743D01*
X0140954Y0044749D01*
X0140947Y0044762D01*
X0140935Y0044780D01*
X0140910Y0044805D01*
X0140892Y0044842D01*
X0140867Y0044886D01*
X0140836Y0044935D01*
X0140811Y0044991D01*
X0140780Y0045053D01*
X0140755Y0045127D01*
X0140725Y0045207D01*
X0140706Y0045294D01*
X0140687Y0045387D01*
X0140669Y0045486D01*
X0140663Y0045591D01*
X0140656Y0045703D01*
Y0045709D01*
Y0045727D01*
Y0045758D01*
X0140663Y0045802D01*
X0140669Y0045851D01*
X0140675Y0045907D01*
X0140681Y0045975D01*
X0140700Y0046043D01*
X0140737Y0046192D01*
X0140793Y0046353D01*
X0140830Y0046433D01*
X0140879Y0046507D01*
X0140929Y0046588D01*
X0140984Y0046656D01*
X0140991Y0046662D01*
X0141003Y0046674D01*
X0141022Y0046693D01*
X0141046Y0046712D01*
X0141077Y0046742D01*
X0141114Y0046773D01*
X0141164Y0046804D01*
X0141214Y0046842D01*
X0141331Y0046910D01*
X0141473Y0046972D01*
X0141554Y0046990D01*
X0141634Y0047009D01*
X0141721Y0047021D01*
X0141814Y0047027D01*
X0141864D01*
X0141894Y0047021D01*
D02*
G37*
G36*
X0132882D02*
X0132925Y0047015D01*
X0132968Y0047009D01*
X0133080Y0046990D01*
X0133204Y0046947D01*
X0133327Y0046891D01*
X0133389Y0046854D01*
X0133451Y0046811D01*
X0133507Y0046761D01*
X0133563Y0046705D01*
X0133569Y0046699D01*
X0133575Y0046693D01*
X0133587Y0046674D01*
X0133606Y0046650D01*
X0133625Y0046613D01*
X0133649Y0046575D01*
X0133674Y0046532D01*
X0133699Y0046476D01*
X0133724Y0046415D01*
X0133748Y0046353D01*
X0133773Y0046278D01*
X0133792Y0046198D01*
X0133810Y0046111D01*
X0133823Y0046025D01*
X0133835Y0045926D01*
Y0045820D01*
Y0045610D01*
X0132059D01*
Y0045604D01*
Y0045591D01*
Y0045573D01*
X0132065Y0045542D01*
X0132071Y0045505D01*
Y0045467D01*
X0132089Y0045368D01*
X0132120Y0045269D01*
X0132158Y0045158D01*
X0132213Y0045053D01*
X0132281Y0044960D01*
X0132294Y0044947D01*
X0132318Y0044923D01*
X0132368Y0044892D01*
X0132436Y0044848D01*
X0132523Y0044805D01*
X0132622Y0044774D01*
X0132739Y0044749D01*
X0132876Y0044737D01*
X0132919D01*
X0132950Y0044743D01*
X0132987D01*
X0133030Y0044749D01*
X0133136Y0044774D01*
X0133253Y0044805D01*
X0133383Y0044855D01*
X0133519Y0044923D01*
X0133587Y0044966D01*
X0133656Y0045015D01*
Y0044638D01*
X0133649D01*
X0133643Y0044626D01*
X0133625Y0044619D01*
X0133594Y0044601D01*
X0133563Y0044582D01*
X0133526Y0044564D01*
X0133476Y0044545D01*
X0133426Y0044520D01*
X0133365Y0044496D01*
X0133297Y0044477D01*
X0133148Y0044440D01*
X0132975Y0044415D01*
X0132783Y0044403D01*
X0132733D01*
X0132696Y0044409D01*
X0132653Y0044415D01*
X0132597Y0044421D01*
X0132479Y0044446D01*
X0132343Y0044483D01*
X0132207Y0044545D01*
X0132139Y0044588D01*
X0132071Y0044632D01*
X0132009Y0044681D01*
X0131947Y0044743D01*
X0131941Y0044749D01*
X0131935Y0044762D01*
X0131922Y0044780D01*
X0131898Y0044805D01*
X0131879Y0044842D01*
X0131854Y0044886D01*
X0131823Y0044935D01*
X0131799Y0044991D01*
X0131768Y0045053D01*
X0131743Y0045127D01*
X0131712Y0045207D01*
X0131693Y0045294D01*
X0131675Y0045387D01*
X0131656Y0045486D01*
X0131650Y0045591D01*
X0131644Y0045703D01*
Y0045709D01*
Y0045727D01*
Y0045758D01*
X0131650Y0045802D01*
X0131656Y0045851D01*
X0131662Y0045907D01*
X0131668Y0045975D01*
X0131687Y0046043D01*
X0131724Y0046192D01*
X0131780Y0046353D01*
X0131817Y0046433D01*
X0131867Y0046507D01*
X0131916Y0046588D01*
X0131972Y0046656D01*
X0131978Y0046662D01*
X0131990Y0046674D01*
X0132009Y0046693D01*
X0132034Y0046712D01*
X0132065Y0046742D01*
X0132102Y0046773D01*
X0132151Y0046804D01*
X0132201Y0046842D01*
X0132318Y0046910D01*
X0132461Y0046972D01*
X0132541Y0046990D01*
X0132622Y0047009D01*
X0132709Y0047021D01*
X0132801Y0047027D01*
X0132851D01*
X0132882Y0047021D01*
D02*
G37*
G36*
X0125893D02*
X0125937Y0047015D01*
X0125992Y0047009D01*
X0126116Y0046984D01*
X0126259Y0046941D01*
X0126401Y0046879D01*
X0126475Y0046842D01*
X0126543Y0046798D01*
X0126611Y0046742D01*
X0126673Y0046681D01*
X0126679Y0046674D01*
X0126686Y0046662D01*
X0126704Y0046643D01*
X0126723Y0046619D01*
X0126748Y0046582D01*
X0126772Y0046538D01*
X0126803Y0046489D01*
X0126834Y0046433D01*
X0126859Y0046365D01*
X0126890Y0046297D01*
X0126915Y0046216D01*
X0126939Y0046130D01*
X0126958Y0046037D01*
X0126977Y0045938D01*
X0126983Y0045833D01*
X0126989Y0045721D01*
Y0045715D01*
Y0045696D01*
Y0045665D01*
X0126983Y0045622D01*
X0126977Y0045573D01*
X0126970Y0045511D01*
X0126958Y0045449D01*
X0126946Y0045375D01*
X0126908Y0045226D01*
X0126847Y0045065D01*
X0126809Y0044985D01*
X0126760Y0044904D01*
X0126710Y0044830D01*
X0126648Y0044762D01*
X0126642Y0044756D01*
X0126630Y0044749D01*
X0126611Y0044731D01*
X0126587Y0044706D01*
X0126549Y0044681D01*
X0126512Y0044650D01*
X0126463Y0044613D01*
X0126407Y0044582D01*
X0126345Y0044551D01*
X0126277Y0044514D01*
X0126203Y0044483D01*
X0126122Y0044458D01*
X0126036Y0044434D01*
X0125943Y0044421D01*
X0125844Y0044409D01*
X0125739Y0044403D01*
X0125683D01*
X0125646Y0044409D01*
X0125602Y0044415D01*
X0125547Y0044421D01*
X0125485Y0044434D01*
X0125417Y0044446D01*
X0125274Y0044489D01*
X0125126Y0044551D01*
X0125051Y0044588D01*
X0124983Y0044638D01*
X0124915Y0044688D01*
X0124847Y0044749D01*
X0124841Y0044756D01*
X0124835Y0044768D01*
X0124816Y0044787D01*
X0124798Y0044811D01*
X0124773Y0044848D01*
X0124742Y0044892D01*
X0124711Y0044941D01*
X0124686Y0044997D01*
X0124655Y0045065D01*
X0124624Y0045133D01*
X0124593Y0045207D01*
X0124569Y0045294D01*
X0124531Y0045480D01*
X0124525Y0045579D01*
X0124519Y0045684D01*
Y0045690D01*
Y0045715D01*
Y0045746D01*
X0124525Y0045789D01*
X0124531Y0045839D01*
X0124538Y0045901D01*
X0124550Y0045969D01*
X0124562Y0046043D01*
X0124600Y0046204D01*
X0124662Y0046365D01*
X0124705Y0046445D01*
X0124748Y0046526D01*
X0124798Y0046600D01*
X0124859Y0046668D01*
X0124866Y0046674D01*
X0124878Y0046687D01*
X0124897Y0046699D01*
X0124921Y0046724D01*
X0124959Y0046749D01*
X0125002Y0046780D01*
X0125051Y0046817D01*
X0125107Y0046848D01*
X0125169Y0046879D01*
X0125243Y0046916D01*
X0125318Y0046947D01*
X0125404Y0046972D01*
X0125491Y0046996D01*
X0125590Y0047015D01*
X0125695Y0047021D01*
X0125800Y0047027D01*
X0125856D01*
X0125893Y0047021D01*
D02*
G37*
G36*
X0115952D02*
X0115996Y0047015D01*
X0116051Y0047009D01*
X0116175Y0046984D01*
X0116317Y0046941D01*
X0116460Y0046879D01*
X0116534Y0046842D01*
X0116602Y0046798D01*
X0116670Y0046742D01*
X0116732Y0046681D01*
X0116738Y0046674D01*
X0116744Y0046662D01*
X0116763Y0046643D01*
X0116782Y0046619D01*
X0116806Y0046582D01*
X0116831Y0046538D01*
X0116862Y0046489D01*
X0116893Y0046433D01*
X0116918Y0046365D01*
X0116949Y0046297D01*
X0116973Y0046216D01*
X0116998Y0046130D01*
X0117017Y0046037D01*
X0117035Y0045938D01*
X0117042Y0045833D01*
X0117048Y0045721D01*
Y0045715D01*
Y0045696D01*
Y0045665D01*
X0117042Y0045622D01*
X0117035Y0045573D01*
X0117029Y0045511D01*
X0117017Y0045449D01*
X0117004Y0045375D01*
X0116967Y0045226D01*
X0116905Y0045065D01*
X0116868Y0044985D01*
X0116819Y0044904D01*
X0116769Y0044830D01*
X0116707Y0044762D01*
X0116701Y0044756D01*
X0116689Y0044749D01*
X0116670Y0044731D01*
X0116645Y0044706D01*
X0116608Y0044681D01*
X0116571Y0044650D01*
X0116522Y0044613D01*
X0116466Y0044582D01*
X0116404Y0044551D01*
X0116336Y0044514D01*
X0116262Y0044483D01*
X0116181Y0044458D01*
X0116095Y0044434D01*
X0116002Y0044421D01*
X0115903Y0044409D01*
X0115797Y0044403D01*
X0115742D01*
X0115705Y0044409D01*
X0115661Y0044415D01*
X0115605Y0044421D01*
X0115544Y0044434D01*
X0115475Y0044446D01*
X0115333Y0044489D01*
X0115185Y0044551D01*
X0115110Y0044588D01*
X0115042Y0044638D01*
X0114974Y0044688D01*
X0114906Y0044749D01*
X0114900Y0044756D01*
X0114894Y0044768D01*
X0114875Y0044787D01*
X0114857Y0044811D01*
X0114832Y0044848D01*
X0114801Y0044892D01*
X0114770Y0044941D01*
X0114745Y0044997D01*
X0114714Y0045065D01*
X0114683Y0045133D01*
X0114652Y0045207D01*
X0114628Y0045294D01*
X0114590Y0045480D01*
X0114584Y0045579D01*
X0114578Y0045684D01*
Y0045690D01*
Y0045715D01*
Y0045746D01*
X0114584Y0045789D01*
X0114590Y0045839D01*
X0114596Y0045901D01*
X0114609Y0045969D01*
X0114621Y0046043D01*
X0114658Y0046204D01*
X0114720Y0046365D01*
X0114764Y0046445D01*
X0114807Y0046526D01*
X0114857Y0046600D01*
X0114918Y0046668D01*
X0114925Y0046674D01*
X0114937Y0046687D01*
X0114955Y0046699D01*
X0114980Y0046724D01*
X0115017Y0046749D01*
X0115061Y0046780D01*
X0115110Y0046817D01*
X0115166Y0046848D01*
X0115228Y0046879D01*
X0115302Y0046916D01*
X0115376Y0046947D01*
X0115463Y0046972D01*
X0115550Y0046996D01*
X0115649Y0047015D01*
X0115754Y0047021D01*
X0115859Y0047027D01*
X0115915D01*
X0115952Y0047021D01*
D02*
G37*
G36*
X0150666Y0047962D02*
X0150690Y0047931D01*
X0150727Y0047881D01*
X0150777Y0047813D01*
X0150839Y0047727D01*
X0150901Y0047622D01*
X0150969Y0047504D01*
X0151043Y0047368D01*
X0151118Y0047213D01*
X0151186Y0047046D01*
X0151248Y0046866D01*
X0151309Y0046674D01*
X0151359Y0046470D01*
X0151396Y0046260D01*
X0151421Y0046031D01*
X0151427Y0045796D01*
Y0045789D01*
Y0045783D01*
Y0045764D01*
Y0045740D01*
Y0045709D01*
X0151421Y0045672D01*
X0151415Y0045585D01*
X0151402Y0045474D01*
X0151384Y0045350D01*
X0151365Y0045207D01*
X0151334Y0045053D01*
X0151291Y0044886D01*
X0151241Y0044718D01*
X0151179Y0044539D01*
X0151105Y0044359D01*
X0151019Y0044180D01*
X0150913Y0044000D01*
X0150796Y0043827D01*
X0150660Y0043660D01*
X0150300D01*
X0150307Y0043672D01*
X0150331Y0043703D01*
X0150368Y0043753D01*
X0150418Y0043821D01*
X0150480Y0043907D01*
X0150542Y0044013D01*
X0150610Y0044137D01*
X0150684Y0044273D01*
X0150759Y0044421D01*
X0150827Y0044588D01*
X0150889Y0044762D01*
X0150950Y0044947D01*
X0151000Y0045152D01*
X0151037Y0045356D01*
X0151062Y0045579D01*
X0151068Y0045802D01*
Y0045808D01*
Y0045814D01*
Y0045833D01*
Y0045857D01*
X0151062Y0045919D01*
X0151056Y0046012D01*
X0151043Y0046117D01*
X0151025Y0046241D01*
X0151006Y0046384D01*
X0150969Y0046538D01*
X0150932Y0046705D01*
X0150882Y0046879D01*
X0150814Y0047058D01*
X0150740Y0047238D01*
X0150653Y0047430D01*
X0150548Y0047615D01*
X0150430Y0047795D01*
X0150294Y0047974D01*
X0150660D01*
X0150666Y0047962D01*
D02*
G37*
G36*
X0138620D02*
X0138595Y0047931D01*
X0138552Y0047881D01*
X0138508Y0047807D01*
X0138447Y0047721D01*
X0138379Y0047615D01*
X0138310Y0047491D01*
X0138242Y0047355D01*
X0138168Y0047201D01*
X0138100Y0047034D01*
X0138032Y0046854D01*
X0137976Y0046662D01*
X0137927Y0046464D01*
X0137883Y0046253D01*
X0137858Y0046031D01*
X0137852Y0045802D01*
Y0045796D01*
Y0045789D01*
Y0045771D01*
Y0045746D01*
X0137858Y0045684D01*
X0137865Y0045597D01*
X0137877Y0045492D01*
X0137896Y0045368D01*
X0137914Y0045226D01*
X0137951Y0045077D01*
X0137988Y0044910D01*
X0138038Y0044743D01*
X0138100Y0044564D01*
X0138174Y0044384D01*
X0138267Y0044199D01*
X0138366Y0044013D01*
X0138484Y0043833D01*
X0138620Y0043660D01*
X0138261D01*
X0138255Y0043672D01*
X0138230Y0043697D01*
X0138193Y0043747D01*
X0138143Y0043815D01*
X0138088Y0043901D01*
X0138020Y0044000D01*
X0137951Y0044118D01*
X0137883Y0044254D01*
X0137809Y0044403D01*
X0137741Y0044564D01*
X0137679Y0044737D01*
X0137617Y0044929D01*
X0137568Y0045127D01*
X0137531Y0045337D01*
X0137506Y0045560D01*
X0137499Y0045796D01*
Y0045802D01*
Y0045808D01*
Y0045826D01*
Y0045851D01*
X0137506Y0045882D01*
Y0045919D01*
X0137512Y0046012D01*
X0137524Y0046117D01*
X0137543Y0046247D01*
X0137561Y0046390D01*
X0137592Y0046551D01*
X0137636Y0046718D01*
X0137685Y0046891D01*
X0137747Y0047071D01*
X0137821Y0047256D01*
X0137908Y0047442D01*
X0138007Y0047622D01*
X0138125Y0047801D01*
X0138261Y0047974D01*
X0138626D01*
X0138620Y0047962D01*
D02*
G37*
%LPC*%
G36*
X0122916Y0085749D02*
X0122879D01*
X0122854Y0085742D01*
X0122786Y0085736D01*
X0122705Y0085718D01*
X0122613Y0085681D01*
X0122513Y0085631D01*
X0122421Y0085569D01*
X0122377Y0085526D01*
X0122334Y0085476D01*
X0122328Y0085464D01*
X0122303Y0085427D01*
X0122266Y0085365D01*
X0122229Y0085284D01*
X0122192Y0085179D01*
X0122154Y0085049D01*
X0122130Y0084901D01*
X0122124Y0084733D01*
Y0084727D01*
Y0084715D01*
Y0084690D01*
X0122130Y0084659D01*
Y0084628D01*
X0122136Y0084585D01*
X0122148Y0084486D01*
X0122173Y0084374D01*
X0122210Y0084263D01*
X0122260Y0084152D01*
X0122328Y0084046D01*
X0122340Y0084034D01*
X0122365Y0084009D01*
X0122408Y0083966D01*
X0122470Y0083923D01*
X0122551Y0083879D01*
X0122643Y0083836D01*
X0122749Y0083811D01*
X0122873Y0083799D01*
X0122904D01*
X0122928Y0083805D01*
X0122990Y0083811D01*
X0123064Y0083830D01*
X0123151Y0083861D01*
X0123244Y0083898D01*
X0123331Y0083960D01*
X0123417Y0084040D01*
X0123424Y0084053D01*
X0123448Y0084084D01*
X0123485Y0084139D01*
X0123522Y0084207D01*
X0123560Y0084294D01*
X0123597Y0084399D01*
X0123621Y0084523D01*
X0123628Y0084653D01*
Y0085024D01*
Y0085031D01*
Y0085037D01*
Y0085074D01*
X0123615Y0085130D01*
X0123603Y0085204D01*
X0123578Y0085284D01*
X0123541Y0085371D01*
X0123492Y0085458D01*
X0123424Y0085538D01*
X0123417Y0085544D01*
X0123386Y0085569D01*
X0123343Y0085606D01*
X0123287Y0085644D01*
X0123213Y0085681D01*
X0123126Y0085718D01*
X0123027Y0085742D01*
X0122916Y0085749D01*
D02*
G37*
G36*
X0118979Y0084789D02*
X0118372Y0084703D01*
X0118360D01*
X0118329Y0084696D01*
X0118280Y0084684D01*
X0118218Y0084672D01*
X0118150Y0084653D01*
X0118075Y0084628D01*
X0118013Y0084604D01*
X0117952Y0084566D01*
X0117945Y0084560D01*
X0117927Y0084548D01*
X0117908Y0084523D01*
X0117883Y0084486D01*
X0117852Y0084436D01*
X0117834Y0084374D01*
X0117815Y0084300D01*
X0117809Y0084214D01*
Y0084207D01*
Y0084183D01*
X0117815Y0084152D01*
X0117828Y0084108D01*
X0117840Y0084059D01*
X0117865Y0084009D01*
X0117896Y0083960D01*
X0117939Y0083910D01*
X0117945Y0083904D01*
X0117964Y0083892D01*
X0117995Y0083873D01*
X0118032Y0083855D01*
X0118081Y0083836D01*
X0118143Y0083817D01*
X0118211Y0083805D01*
X0118292Y0083799D01*
X0118304D01*
X0118342Y0083805D01*
X0118397Y0083811D01*
X0118465Y0083824D01*
X0118540Y0083848D01*
X0118626Y0083886D01*
X0118707Y0083941D01*
X0118781Y0084009D01*
X0118787Y0084022D01*
X0118812Y0084046D01*
X0118843Y0084090D01*
X0118880Y0084152D01*
X0118917Y0084232D01*
X0118948Y0084319D01*
X0118973Y0084424D01*
X0118979Y0084535D01*
Y0084789D01*
D02*
G37*
G36*
X0112696Y0086665D02*
X0112226D01*
Y0085526D01*
X0112702D01*
X0112764Y0085532D01*
X0112839Y0085544D01*
X0112925Y0085563D01*
X0113018Y0085594D01*
X0113099Y0085631D01*
X0113179Y0085687D01*
X0113185Y0085693D01*
X0113210Y0085718D01*
X0113241Y0085755D01*
X0113278Y0085811D01*
X0113309Y0085873D01*
X0113340Y0085953D01*
X0113365Y0086046D01*
X0113371Y0086151D01*
Y0086157D01*
Y0086176D01*
X0113365Y0086201D01*
X0113358Y0086231D01*
X0113334Y0086312D01*
X0113315Y0086361D01*
X0113284Y0086411D01*
X0113253Y0086454D01*
X0113204Y0086504D01*
X0113154Y0086547D01*
X0113086Y0086584D01*
X0113012Y0086615D01*
X0112919Y0086640D01*
X0112814Y0086659D01*
X0112696Y0086665D01*
D02*
G37*
G36*
Y0085154D02*
X0112226D01*
Y0083892D01*
X0112845D01*
X0112907Y0083898D01*
X0112993Y0083910D01*
X0113080Y0083935D01*
X0113173Y0083960D01*
X0113266Y0084003D01*
X0113346Y0084059D01*
X0113352Y0084065D01*
X0113377Y0084090D01*
X0113408Y0084127D01*
X0113445Y0084183D01*
X0113482Y0084251D01*
X0113513Y0084331D01*
X0113538Y0084430D01*
X0113544Y0084535D01*
Y0084542D01*
Y0084560D01*
X0113538Y0084591D01*
X0113532Y0084635D01*
X0113520Y0084678D01*
X0113501Y0084733D01*
X0113476Y0084789D01*
X0113439Y0084845D01*
X0113396Y0084901D01*
X0113340Y0084956D01*
X0113272Y0085012D01*
X0113185Y0085055D01*
X0113092Y0085099D01*
X0112975Y0085130D01*
X0112845Y0085148D01*
X0112696Y0085154D01*
D02*
G37*
G36*
X0140824Y0085749D02*
X0140774D01*
X0140725Y0085736D01*
X0140656Y0085724D01*
X0140582Y0085699D01*
X0140496Y0085662D01*
X0140415Y0085612D01*
X0140334Y0085544D01*
X0140328Y0085538D01*
X0140304Y0085507D01*
X0140273Y0085464D01*
X0140229Y0085402D01*
X0140186Y0085328D01*
X0140149Y0085235D01*
X0140118Y0085130D01*
X0140093Y0085012D01*
X0141449D01*
Y0085018D01*
Y0085031D01*
Y0085043D01*
Y0085068D01*
X0141443Y0085136D01*
X0141430Y0085210D01*
X0141405Y0085303D01*
X0141381Y0085390D01*
X0141337Y0085476D01*
X0141282Y0085557D01*
X0141275Y0085563D01*
X0141251Y0085588D01*
X0141214Y0085619D01*
X0141164Y0085656D01*
X0141096Y0085687D01*
X0141015Y0085718D01*
X0140929Y0085742D01*
X0140824Y0085749D01*
D02*
G37*
G36*
X0127719Y0086721D02*
X0127664D01*
X0127627Y0086714D01*
X0127577Y0086708D01*
X0127527Y0086702D01*
X0127465Y0086690D01*
X0127397Y0086671D01*
X0127255Y0086621D01*
X0127181Y0086590D01*
X0127100Y0086553D01*
X0127026Y0086504D01*
X0126952Y0086448D01*
X0126884Y0086386D01*
X0126816Y0086318D01*
X0126809Y0086312D01*
X0126803Y0086300D01*
X0126785Y0086275D01*
X0126760Y0086244D01*
X0126735Y0086207D01*
X0126710Y0086157D01*
X0126679Y0086102D01*
X0126648Y0086040D01*
X0126611Y0085965D01*
X0126580Y0085891D01*
X0126556Y0085804D01*
X0126531Y0085711D01*
X0126506Y0085612D01*
X0126488Y0085501D01*
X0126481Y0085390D01*
X0126475Y0085272D01*
Y0085266D01*
Y0085241D01*
Y0085210D01*
X0126481Y0085167D01*
X0126488Y0085111D01*
X0126494Y0085043D01*
X0126506Y0084975D01*
X0126518Y0084901D01*
X0126556Y0084733D01*
X0126618Y0084554D01*
X0126655Y0084467D01*
X0126698Y0084387D01*
X0126754Y0084300D01*
X0126809Y0084226D01*
X0126816Y0084220D01*
X0126828Y0084207D01*
X0126847Y0084189D01*
X0126871Y0084164D01*
X0126902Y0084133D01*
X0126946Y0084102D01*
X0126995Y0084065D01*
X0127045Y0084028D01*
X0127106Y0083991D01*
X0127175Y0083954D01*
X0127323Y0083892D01*
X0127410Y0083867D01*
X0127497Y0083848D01*
X0127589Y0083836D01*
X0127688Y0083830D01*
X0127744D01*
X0127787Y0083836D01*
X0127831Y0083842D01*
X0127893Y0083848D01*
X0127954Y0083861D01*
X0128023Y0083879D01*
X0128165Y0083923D01*
X0128245Y0083954D01*
X0128320Y0083991D01*
X0128394Y0084034D01*
X0128468Y0084084D01*
X0128536Y0084139D01*
X0128604Y0084207D01*
X0128611Y0084214D01*
X0128617Y0084226D01*
X0128635Y0084245D01*
X0128654Y0084276D01*
X0128685Y0084319D01*
X0128710Y0084362D01*
X0128741Y0084418D01*
X0128772Y0084480D01*
X0128803Y0084554D01*
X0128833Y0084635D01*
X0128865Y0084721D01*
X0128889Y0084814D01*
X0128908Y0084913D01*
X0128926Y0085024D01*
X0128933Y0085142D01*
X0128939Y0085266D01*
Y0085272D01*
Y0085297D01*
Y0085334D01*
X0128933Y0085377D01*
X0128926Y0085439D01*
X0128920Y0085507D01*
X0128914Y0085582D01*
X0128895Y0085662D01*
X0128858Y0085829D01*
X0128803Y0086009D01*
X0128765Y0086095D01*
X0128722Y0086182D01*
X0128666Y0086263D01*
X0128611Y0086337D01*
X0128604Y0086343D01*
X0128598Y0086355D01*
X0128580Y0086374D01*
X0128549Y0086399D01*
X0128518Y0086423D01*
X0128481Y0086461D01*
X0128431Y0086492D01*
X0128382Y0086529D01*
X0128320Y0086566D01*
X0128252Y0086597D01*
X0128177Y0086634D01*
X0128097Y0086659D01*
X0128010Y0086683D01*
X0127924Y0086702D01*
X0127824Y0086714D01*
X0127719Y0086721D01*
D02*
G37*
G36*
X0115717Y0085749D02*
X0115680D01*
X0115655Y0085742D01*
X0115581Y0085736D01*
X0115494Y0085718D01*
X0115395Y0085687D01*
X0115290Y0085637D01*
X0115191Y0085569D01*
X0115141Y0085532D01*
X0115098Y0085483D01*
X0115085Y0085470D01*
X0115061Y0085433D01*
X0115030Y0085377D01*
X0114987Y0085297D01*
X0114943Y0085192D01*
X0114912Y0085068D01*
X0114887Y0084925D01*
X0114875Y0084758D01*
Y0084752D01*
Y0084740D01*
Y0084715D01*
X0114881Y0084684D01*
Y0084647D01*
X0114887Y0084604D01*
X0114906Y0084504D01*
X0114931Y0084393D01*
X0114974Y0084276D01*
X0115030Y0084158D01*
X0115104Y0084053D01*
X0115117Y0084040D01*
X0115147Y0084016D01*
X0115197Y0083972D01*
X0115265Y0083929D01*
X0115352Y0083879D01*
X0115457Y0083836D01*
X0115581Y0083811D01*
X0115717Y0083799D01*
X0115754D01*
X0115779Y0083805D01*
X0115853Y0083811D01*
X0115940Y0083830D01*
X0116033Y0083861D01*
X0116138Y0083904D01*
X0116231Y0083966D01*
X0116317Y0084046D01*
X0116323Y0084059D01*
X0116348Y0084096D01*
X0116385Y0084152D01*
X0116423Y0084232D01*
X0116460Y0084337D01*
X0116497Y0084461D01*
X0116522Y0084604D01*
X0116528Y0084771D01*
Y0084777D01*
Y0084789D01*
Y0084814D01*
Y0084851D01*
X0116522Y0084888D01*
X0116515Y0084932D01*
X0116503Y0085037D01*
X0116478Y0085154D01*
X0116441Y0085272D01*
X0116385Y0085390D01*
X0116317Y0085495D01*
X0116305Y0085507D01*
X0116280Y0085532D01*
X0116231Y0085575D01*
X0116163Y0085625D01*
X0116076Y0085668D01*
X0115977Y0085711D01*
X0115853Y0085736D01*
X0115717Y0085749D01*
D02*
G37*
G36*
X0129886Y0046687D02*
X0129849D01*
X0129824Y0046681D01*
X0129756Y0046674D01*
X0129675Y0046656D01*
X0129583Y0046619D01*
X0129483Y0046569D01*
X0129391Y0046507D01*
X0129347Y0046464D01*
X0129304Y0046415D01*
X0129298Y0046402D01*
X0129273Y0046365D01*
X0129236Y0046303D01*
X0129199Y0046223D01*
X0129162Y0046117D01*
X0129124Y0045987D01*
X0129100Y0045839D01*
X0129094Y0045672D01*
Y0045665D01*
Y0045653D01*
Y0045628D01*
X0129100Y0045597D01*
Y0045566D01*
X0129106Y0045523D01*
X0129118Y0045424D01*
X0129143Y0045313D01*
X0129180Y0045201D01*
X0129230Y0045090D01*
X0129298Y0044985D01*
X0129310Y0044972D01*
X0129335Y0044947D01*
X0129378Y0044904D01*
X0129440Y0044861D01*
X0129521Y0044818D01*
X0129613Y0044774D01*
X0129719Y0044749D01*
X0129842Y0044737D01*
X0129873D01*
X0129898Y0044743D01*
X0129960Y0044749D01*
X0130034Y0044768D01*
X0130121Y0044799D01*
X0130214Y0044836D01*
X0130300Y0044898D01*
X0130387Y0044978D01*
X0130393Y0044991D01*
X0130418Y0045022D01*
X0130455Y0045077D01*
X0130492Y0045145D01*
X0130530Y0045232D01*
X0130567Y0045337D01*
X0130591Y0045461D01*
X0130598Y0045591D01*
Y0045963D01*
Y0045969D01*
Y0045975D01*
Y0046012D01*
X0130585Y0046068D01*
X0130573Y0046142D01*
X0130548Y0046223D01*
X0130511Y0046309D01*
X0130462Y0046396D01*
X0130393Y0046476D01*
X0130387Y0046483D01*
X0130356Y0046507D01*
X0130313Y0046545D01*
X0130257Y0046582D01*
X0130183Y0046619D01*
X0130096Y0046656D01*
X0129997Y0046681D01*
X0129886Y0046687D01*
D02*
G37*
G36*
X0118874D02*
X0118843D01*
X0118818Y0046681D01*
X0118750Y0046674D01*
X0118669Y0046656D01*
X0118583Y0046625D01*
X0118484Y0046582D01*
X0118391Y0046520D01*
X0118304Y0046439D01*
X0118298Y0046427D01*
X0118273Y0046396D01*
X0118236Y0046346D01*
X0118199Y0046272D01*
X0118162Y0046185D01*
X0118125Y0046080D01*
X0118100Y0045963D01*
X0118094Y0045833D01*
Y0045480D01*
Y0045474D01*
Y0045467D01*
X0118100Y0045430D01*
X0118106Y0045368D01*
X0118119Y0045300D01*
X0118143Y0045214D01*
X0118181Y0045127D01*
X0118230Y0045040D01*
X0118298Y0044954D01*
X0118310Y0044947D01*
X0118335Y0044923D01*
X0118379Y0044886D01*
X0118440Y0044848D01*
X0118515Y0044805D01*
X0118601Y0044774D01*
X0118701Y0044749D01*
X0118812Y0044737D01*
X0118849D01*
X0118874Y0044743D01*
X0118936Y0044749D01*
X0119022Y0044774D01*
X0119109Y0044805D01*
X0119208Y0044855D01*
X0119301Y0044923D01*
X0119344Y0044966D01*
X0119381Y0045015D01*
Y0045022D01*
X0119388Y0045028D01*
X0119400Y0045046D01*
X0119412Y0045065D01*
X0119431Y0045096D01*
X0119449Y0045133D01*
X0119487Y0045220D01*
X0119524Y0045331D01*
X0119561Y0045461D01*
X0119586Y0045616D01*
X0119592Y0045796D01*
Y0045802D01*
Y0045814D01*
Y0045833D01*
Y0045864D01*
X0119586Y0045901D01*
X0119580Y0045938D01*
X0119567Y0046031D01*
X0119542Y0046136D01*
X0119511Y0046247D01*
X0119462Y0046353D01*
X0119400Y0046445D01*
X0119394Y0046458D01*
X0119363Y0046483D01*
X0119319Y0046520D01*
X0119264Y0046569D01*
X0119190Y0046613D01*
X0119097Y0046650D01*
X0118991Y0046674D01*
X0118874Y0046687D01*
D02*
G37*
G36*
X0141808D02*
X0141758D01*
X0141709Y0046674D01*
X0141641Y0046662D01*
X0141566Y0046637D01*
X0141480Y0046600D01*
X0141399Y0046551D01*
X0141319Y0046483D01*
X0141313Y0046476D01*
X0141288Y0046445D01*
X0141257Y0046402D01*
X0141214Y0046340D01*
X0141170Y0046266D01*
X0141133Y0046173D01*
X0141102Y0046068D01*
X0141077Y0045950D01*
X0142433D01*
Y0045956D01*
Y0045969D01*
Y0045981D01*
Y0046006D01*
X0142427Y0046074D01*
X0142414Y0046148D01*
X0142390Y0046241D01*
X0142365Y0046328D01*
X0142322Y0046415D01*
X0142266Y0046495D01*
X0142260Y0046501D01*
X0142235Y0046526D01*
X0142198Y0046557D01*
X0142148Y0046594D01*
X0142080Y0046625D01*
X0142000Y0046656D01*
X0141913Y0046681D01*
X0141808Y0046687D01*
D02*
G37*
G36*
X0132795D02*
X0132746D01*
X0132696Y0046674D01*
X0132628Y0046662D01*
X0132554Y0046637D01*
X0132467Y0046600D01*
X0132387Y0046551D01*
X0132306Y0046483D01*
X0132300Y0046476D01*
X0132275Y0046445D01*
X0132244Y0046402D01*
X0132201Y0046340D01*
X0132158Y0046266D01*
X0132120Y0046173D01*
X0132089Y0046068D01*
X0132065Y0045950D01*
X0133420D01*
Y0045956D01*
Y0045969D01*
Y0045981D01*
Y0046006D01*
X0133414Y0046074D01*
X0133402Y0046148D01*
X0133377Y0046241D01*
X0133352Y0046328D01*
X0133309Y0046415D01*
X0133253Y0046495D01*
X0133247Y0046501D01*
X0133222Y0046526D01*
X0133185Y0046557D01*
X0133136Y0046594D01*
X0133068Y0046625D01*
X0132987Y0046656D01*
X0132900Y0046681D01*
X0132795Y0046687D01*
D02*
G37*
G36*
X0125769D02*
X0125732D01*
X0125708Y0046681D01*
X0125633Y0046674D01*
X0125547Y0046656D01*
X0125448Y0046625D01*
X0125342Y0046575D01*
X0125243Y0046507D01*
X0125194Y0046470D01*
X0125151Y0046421D01*
X0125138Y0046408D01*
X0125113Y0046371D01*
X0125082Y0046315D01*
X0125039Y0046235D01*
X0124996Y0046130D01*
X0124965Y0046006D01*
X0124940Y0045864D01*
X0124928Y0045696D01*
Y0045690D01*
Y0045678D01*
Y0045653D01*
X0124934Y0045622D01*
Y0045585D01*
X0124940Y0045542D01*
X0124959Y0045443D01*
X0124983Y0045331D01*
X0125027Y0045214D01*
X0125082Y0045096D01*
X0125157Y0044991D01*
X0125169Y0044978D01*
X0125200Y0044954D01*
X0125250Y0044910D01*
X0125318Y0044867D01*
X0125404Y0044818D01*
X0125510Y0044774D01*
X0125633Y0044749D01*
X0125769Y0044737D01*
X0125807D01*
X0125831Y0044743D01*
X0125906Y0044749D01*
X0125992Y0044768D01*
X0126085Y0044799D01*
X0126190Y0044842D01*
X0126283Y0044904D01*
X0126370Y0044985D01*
X0126376Y0044997D01*
X0126401Y0045034D01*
X0126438Y0045090D01*
X0126475Y0045170D01*
X0126512Y0045276D01*
X0126549Y0045399D01*
X0126574Y0045542D01*
X0126580Y0045709D01*
Y0045715D01*
Y0045727D01*
Y0045752D01*
Y0045789D01*
X0126574Y0045826D01*
X0126568Y0045870D01*
X0126556Y0045975D01*
X0126531Y0046093D01*
X0126494Y0046210D01*
X0126438Y0046328D01*
X0126370Y0046433D01*
X0126357Y0046445D01*
X0126333Y0046470D01*
X0126283Y0046514D01*
X0126215Y0046563D01*
X0126128Y0046606D01*
X0126029Y0046650D01*
X0125906Y0046674D01*
X0125769Y0046687D01*
D02*
G37*
G36*
X0115828D02*
X0115791D01*
X0115766Y0046681D01*
X0115692Y0046674D01*
X0115605Y0046656D01*
X0115506Y0046625D01*
X0115401Y0046575D01*
X0115302Y0046507D01*
X0115253Y0046470D01*
X0115209Y0046421D01*
X0115197Y0046408D01*
X0115172Y0046371D01*
X0115141Y0046315D01*
X0115098Y0046235D01*
X0115055Y0046130D01*
X0115024Y0046006D01*
X0114999Y0045864D01*
X0114987Y0045696D01*
Y0045690D01*
Y0045678D01*
Y0045653D01*
X0114993Y0045622D01*
Y0045585D01*
X0114999Y0045542D01*
X0115017Y0045443D01*
X0115042Y0045331D01*
X0115085Y0045214D01*
X0115141Y0045096D01*
X0115216Y0044991D01*
X0115228Y0044978D01*
X0115259Y0044954D01*
X0115308Y0044910D01*
X0115376Y0044867D01*
X0115463Y0044818D01*
X0115568Y0044774D01*
X0115692Y0044749D01*
X0115828Y0044737D01*
X0115866D01*
X0115890Y0044743D01*
X0115964Y0044749D01*
X0116051Y0044768D01*
X0116144Y0044799D01*
X0116249Y0044842D01*
X0116342Y0044904D01*
X0116429Y0044985D01*
X0116435Y0044997D01*
X0116460Y0045034D01*
X0116497Y0045090D01*
X0116534Y0045170D01*
X0116571Y0045276D01*
X0116608Y0045399D01*
X0116633Y0045542D01*
X0116639Y0045709D01*
Y0045715D01*
Y0045727D01*
Y0045752D01*
Y0045789D01*
X0116633Y0045826D01*
X0116627Y0045870D01*
X0116614Y0045975D01*
X0116590Y0046093D01*
X0116553Y0046210D01*
X0116497Y0046328D01*
X0116429Y0046433D01*
X0116416Y0046445D01*
X0116392Y0046470D01*
X0116342Y0046514D01*
X0116274Y0046563D01*
X0116187Y0046606D01*
X0116088Y0046650D01*
X0115964Y0046674D01*
X0115828Y0046687D01*
D02*
G37*
%LPD*%
D11*
X0037691Y0008154D02*
G03*
X0029528Y0016318I-0008163J0000000D01*
G01*
X0021654Y0020253D02*
G03*
X0025591Y0016316I0003937J0000000D01*
G01*
X0041535Y0024190D02*
G03*
X0044685Y0027339I0000000J0003150D01*
G01*
Y0046788D02*
G03*
X0041535Y0049938I-0003150J0000000D01*
G01*
X0021654Y0053875D02*
G03*
X0025591Y0049938I0003937J0000000D01*
G01*
Y0024190D02*
G03*
X0021654Y0020253I0000000J-0003937D01*
G01*
X0029528Y0098416D02*
G03*
X0037691Y0106580I0000000J0008163D01*
G01*
X0021654Y0094483D02*
G03*
X0025591Y0090546I0003937J0000000D01*
G01*
Y0064798D02*
G03*
X0021654Y0060861I0000000J-0003937D01*
G01*
X0041535Y0064798D02*
G03*
X0044685Y0067948I0000000J0003150D01*
G01*
Y0087397D02*
G03*
X0041535Y0090546I-0003150J0000000D01*
G01*
X0025591Y0098420D02*
G03*
X0021654Y0094483I0000000J-0003937D01*
G01*
X-0021654Y0094490D02*
G03*
X-0025591Y0098427I-0003937J0000000D01*
G01*
X-0041535Y0090553D02*
G03*
X-0044685Y0087404I0000000J-0003150D01*
G01*
Y0067955D02*
G03*
X-0041535Y0064805I0003150J0000000D01*
G01*
X-0021654Y0060868D02*
G03*
X-0025591Y0064805I-0003937J0000000D01*
G01*
Y0090553D02*
G03*
X-0021654Y0094490I0000000J0003937D01*
G01*
X-0037691Y0106587D02*
G03*
X-0029528Y0098423I0008163J0000000D01*
G01*
Y0114750D02*
G03*
X-0037691Y0106587I0000000J-0008163D01*
G01*
X-0021654Y0020260D02*
G03*
X-0025591Y0024197I-0003937J0000000D01*
G01*
Y0049945D02*
G03*
X-0021654Y0053882I0000000J0003937D01*
G01*
X-0041535Y0049945D02*
G03*
X-0044685Y0046795I0000000J-0003150D01*
G01*
Y0027347D02*
G03*
X-0041535Y0024197I0003150J0000000D01*
G01*
X-0025591Y0016323D02*
G03*
X-0021654Y0020260I0000000J0003937D01*
G01*
X-0029528Y0016325D02*
G03*
X-0037691Y0008161I0000000J-0008163D01*
G01*
D02*
G03*
X-0029528Y-0000002I0008163J0000000D01*
G01*
X0029528Y-0000009D02*
G03*
X0037691Y0008154I0000000J0008163D01*
G01*
X0037689Y0106587D02*
G03*
X0029528Y0114748I-0008161J0000000D01*
G01*
X0025591Y0016318D02*
X0029528D01*
X0025591Y0024190D02*
X0041535D01*
X0044685Y0027276D02*
Y0046725D01*
X0025591Y0049938D02*
X0041535Y0049938D01*
X0025591Y0098418D02*
X0029528D01*
X0025591Y0064798D02*
X0041535Y0064798D01*
X0044685Y0068011D02*
Y0087459D01*
X0025591Y0090546D02*
X0041535D01*
X0021654Y0053875D02*
Y0060861D01*
X-0021654Y0053882D02*
Y0060868D01*
X-0041535Y0090553D02*
X-0025591D01*
X-0044685Y0068018D02*
Y0087467D01*
X-0041535Y0064805D02*
X-0025591Y0064805D01*
X-0029528Y0098425D02*
X-0025591D01*
X-0041535Y0049945D02*
X-0025591Y0049945D01*
X-0044685Y0027283D02*
Y0046732D01*
X-0041535Y0024197D02*
X-0025591D01*
X-0029528Y0016325D02*
X-0025591D01*
X-0029528Y0000000D02*
X0029528D01*
X-0029528Y0114748D02*
X0029528D01*
D25*
X0035138Y0042071D02*
D03*
Y0037071D02*
D03*
X-0035138Y0032071D02*
D03*
Y0037071D02*
D03*
Y0077677D02*
D03*
Y0072677D02*
D03*
X0035138Y0082677D02*
D03*
Y0077677D02*
D03*
D26*
X0034154Y0032071D02*
D03*
X-0034154Y0042071D02*
D03*
Y0082677D02*
D03*
X0034154Y0072677D02*
D03*
D31*
X-0001476Y0058957D02*
D03*
Y0051476D02*
D03*
D32*
X0006102Y0050689D02*
D03*
X0003543Y0057972D02*
D03*
X0008661D02*
D03*
D33*
X0006890Y0060827D02*
D03*
X0002953D02*
D03*
X0008858Y0045177D02*
D03*
X0012795D02*
D03*
D34*
X0004134Y0103740D02*
D03*
Y0110236D02*
D03*
D35*
X-0010827Y0023130D02*
D03*
X0010827D02*
D03*
D36*
X-0005984D02*
D03*
X0005984D02*
D03*
D37*
X-0001969D02*
D03*
X0001969D02*
D03*
D38*
X-0013386Y0042486D02*
D03*
X-0009646D02*
D03*
X-0005906D02*
D03*
Y0051935D02*
D03*
X-0013386D02*
D03*
D39*
X-0002067Y0035827D02*
D03*
X0005413D02*
D03*
X0001673Y0043701D02*
D03*
D40*
X-0008465Y0070571D02*
D03*
X-0005906D02*
D03*
X-0003347D02*
D03*
X-0000787D02*
D03*
X0001772D02*
D03*
X0004331D02*
D03*
X0006890D02*
D03*
X0009449D02*
D03*
X0012008D02*
D03*
X0014567D02*
D03*
Y0093209D02*
D03*
X0012008D02*
D03*
X0009449D02*
D03*
X0006890D02*
D03*
X0004331D02*
D03*
X0001772D02*
D03*
X-0000787D02*
D03*
X-0003347D02*
D03*
X-0005906D02*
D03*
X-0008465D02*
D03*
D41*
X0020079Y0045965D02*
D03*
X0018110D02*
D03*
X-0007972Y0027589D02*
D03*
X-0006004D02*
D03*
D42*
X-0013386Y0076378D02*
D03*
Y0083366D02*
D03*
D43*
X0010433Y0037402D02*
D03*
Y0033465D02*
D03*
D44*
X-0009941Y0038386D02*
D03*
X-0006004D02*
D03*
X-0013386Y0055610D02*
D03*
X-0009449D02*
D03*
X0001378Y0097933D02*
D03*
X0005315D02*
D03*
D45*
X0010039Y0041044D02*
D03*
X0015551D02*
D03*
D46*
X0000689Y0110138D02*
D03*
Y0106201D02*
D03*
X0001969Y0027657D02*
D03*
Y0031594D02*
D03*
X-0002067Y0031693D02*
D03*
Y0027756D02*
D03*
D47*
X-0008459Y0104429D02*
D03*
X-0015059D02*
D03*
Y0099429D02*
D03*
X-0008459Y0109429D02*
D03*
D48*
X-0015059D02*
D03*
D49*
X-0017008Y0007854D02*
D03*
X0017008D02*
D03*
Y0022815D02*
D03*
X-0017008D02*
D03*
D50*
X0032087Y0046992D02*
D03*
Y0027150D02*
D03*
X-0032087D02*
D03*
Y0046992D02*
D03*
Y0087598D02*
D03*
Y0067756D02*
D03*
X0032087Y0087598D02*
D03*
Y0067756D02*
D03*
D51*
X0023819Y0032071D02*
D03*
Y0037071D02*
D03*
Y0042071D02*
D03*
X-0023819D02*
D03*
Y0037071D02*
D03*
Y0032071D02*
D03*
Y0072677D02*
D03*
Y0077677D02*
D03*
Y0082677D02*
D03*
X0023819Y0072677D02*
D03*
Y0077677D02*
D03*
Y0082677D02*
D03*
D52*
X-0029528Y0106587D02*
D03*
Y0008161D02*
D03*
X0029528Y0106587D02*
D03*
Y0008161D02*
D03*
M02*
