G04*
G04 #@! TF.GenerationSoftware,Altium Limited,Altium Designer,21.9.2 (33)*
G04*
G04 Layer_Physical_Order=1*
G04 Layer_Color=255*
%FSAX25Y25*%
%MOIN*%
G70*
G04*
G04 #@! TF.SameCoordinates,9B662772-510A-46F8-AEF7-6368D3D20965*
G04*
G04*
G04 #@! TF.FilePolarity,Positive*
G04*
G01*
G75*
%ADD10C,0.01968*%
%ADD11C,0.01181*%
%ADD12C,0.00591*%
%ADD14C,0.00787*%
%ADD16C,0.03937*%
%ADD17R,0.03445X0.00787*%
%ADD18R,0.00787X0.03445*%
%ADD19R,0.01968X0.02165*%
%ADD21R,0.01181X0.05709*%
%ADD22R,0.02362X0.03543*%
%ADD23R,0.02362X0.06299*%
%ADD24R,0.02756X0.03937*%
%ADD25R,0.02165X0.01968*%
%ADD26R,0.01968X0.02165*%
%ADD27R,0.02165X0.01968*%
%ADD28R,0.03150X0.02362*%
%ADD29R,0.04134X0.02559*%
%ADD30R,0.04331X0.05315*%
%ADD31R,0.03543X0.02362*%
%ADD32R,0.02559X0.03150*%
%ADD34R,0.02362X0.03937*%
%ADD35R,0.06693X0.09449*%
G04:AMPARAMS|DCode=48|XSize=35.43mil|YSize=169.29mil|CornerRadius=13.82mil|HoleSize=0mil|Usage=FLASHONLY|Rotation=180.000|XOffset=0mil|YOffset=0mil|HoleType=Round|Shape=RoundedRectangle|*
%AMROUNDEDRECTD48*
21,1,0.03543,0.14165,0,0,180.0*
21,1,0.00780,0.16929,0,0,180.0*
1,1,0.02764,-0.00390,0.07083*
1,1,0.02764,0.00390,0.07083*
1,1,0.02764,0.00390,-0.07083*
1,1,0.02764,-0.00390,-0.07083*
%
%ADD48ROUNDEDRECTD48*%
G04:AMPARAMS|DCode=49|XSize=35.43mil|YSize=188.98mil|CornerRadius=13.82mil|HoleSize=0mil|Usage=FLASHONLY|Rotation=180.000|XOffset=0mil|YOffset=0mil|HoleType=Round|Shape=RoundedRectangle|*
%AMROUNDEDRECTD49*
21,1,0.03543,0.16134,0,0,180.0*
21,1,0.00780,0.18898,0,0,180.0*
1,1,0.02764,-0.00390,0.08067*
1,1,0.02764,0.00390,0.08067*
1,1,0.02764,0.00390,-0.08067*
1,1,0.02764,-0.00390,-0.08067*
%
%ADD49ROUNDEDRECTD49*%
%ADD63C,0.04370*%
%ADD66R,0.12598X0.12598*%
%ADD67R,0.01575X0.02756*%
%ADD68R,0.02756X0.01575*%
%ADD69C,0.00984*%
%ADD70C,0.01378*%
%ADD71C,0.02362*%
G04:AMPARAMS|DCode=72|XSize=43.31mil|YSize=66.93mil|CornerRadius=19.49mil|HoleSize=0mil|Usage=FLASHONLY|Rotation=180.000|XOffset=0mil|YOffset=0mil|HoleType=Round|Shape=RoundedRectangle|*
%AMROUNDEDRECTD72*
21,1,0.04331,0.02795,0,0,180.0*
21,1,0.00433,0.06693,0,0,180.0*
1,1,0.03898,-0.00217,0.01398*
1,1,0.03898,0.00217,0.01398*
1,1,0.03898,0.00217,-0.01398*
1,1,0.03898,-0.00217,-0.01398*
%
%ADD72ROUNDEDRECTD72*%
G04:AMPARAMS|DCode=73|XSize=43.31mil|YSize=86.61mil|CornerRadius=19.49mil|HoleSize=0mil|Usage=FLASHONLY|Rotation=180.000|XOffset=0mil|YOffset=0mil|HoleType=Round|Shape=RoundedRectangle|*
%AMROUNDEDRECTD73*
21,1,0.04331,0.04764,0,0,180.0*
21,1,0.00433,0.08661,0,0,180.0*
1,1,0.03898,-0.00217,0.02382*
1,1,0.03898,0.00217,0.02382*
1,1,0.03898,0.00217,-0.02382*
1,1,0.03898,-0.00217,-0.02382*
%
%ADD73ROUNDEDRECTD73*%
%ADD74C,0.11811*%
%ADD75R,0.04370X0.04370*%
G36*
X0067577Y0081501D02*
X0067620Y0081495D01*
X0067664Y0081489D01*
X0067775Y0081464D01*
X0067899Y0081427D01*
X0068023Y0081365D01*
X0068085Y0081327D01*
X0068146Y0081278D01*
X0068202Y0081229D01*
X0068258Y0081167D01*
X0068264Y0081160D01*
X0068270Y0081154D01*
X0068283Y0081129D01*
X0068301Y0081105D01*
X0068320Y0081074D01*
X0068344Y0081030D01*
X0068369Y0080981D01*
X0068394Y0080931D01*
X0068419Y0080870D01*
X0068444Y0080801D01*
X0068468Y0080727D01*
X0068487Y0080647D01*
X0068518Y0080467D01*
X0068530Y0080368D01*
Y0080263D01*
Y0080257D01*
Y0080238D01*
Y0080201D01*
X0068524Y0080158D01*
Y0080108D01*
X0068512Y0080046D01*
X0068505Y0079978D01*
X0068493Y0079904D01*
X0068456Y0079743D01*
X0068400Y0079576D01*
X0068363Y0079495D01*
X0068326Y0079415D01*
X0068276Y0079334D01*
X0068221Y0079260D01*
X0068214Y0079254D01*
X0068208Y0079242D01*
X0068190Y0079223D01*
X0068165Y0079204D01*
X0068134Y0079173D01*
X0068097Y0079142D01*
X0068054Y0079105D01*
X0068004Y0079074D01*
X0067948Y0079037D01*
X0067886Y0079000D01*
X0067738Y0078944D01*
X0067657Y0078920D01*
X0067577Y0078901D01*
X0067484Y0078889D01*
X0067385Y0078882D01*
X0067335D01*
X0067305Y0078889D01*
X0067261Y0078895D01*
X0067218Y0078907D01*
X0067106Y0078932D01*
X0066989Y0078982D01*
X0066921Y0079019D01*
X0066859Y0079056D01*
X0066797Y0079105D01*
X0066741Y0079161D01*
X0066679Y0079223D01*
X0066630Y0079297D01*
X0066618D01*
Y0077787D01*
X0066215D01*
Y0081451D01*
X0066618D01*
Y0081006D01*
X0066630D01*
X0066636Y0081012D01*
X0066642Y0081030D01*
X0066661Y0081055D01*
X0066686Y0081086D01*
X0066716Y0081123D01*
X0066754Y0081167D01*
X0066797Y0081210D01*
X0066853Y0081259D01*
X0066908Y0081303D01*
X0066970Y0081346D01*
X0067045Y0081389D01*
X0067119Y0081427D01*
X0067206Y0081464D01*
X0067298Y0081489D01*
X0067391Y0081501D01*
X0067497Y0081507D01*
X0067546D01*
X0067577Y0081501D01*
D02*
G37*
G36*
X0081690Y0081489D02*
X0081764Y0081482D01*
X0081808Y0081470D01*
X0081839Y0081458D01*
Y0081043D01*
X0081832Y0081049D01*
X0081820Y0081055D01*
X0081795Y0081068D01*
X0081764Y0081086D01*
X0081721Y0081099D01*
X0081665Y0081111D01*
X0081603Y0081117D01*
X0081535Y0081123D01*
X0081523D01*
X0081492Y0081117D01*
X0081442Y0081111D01*
X0081387Y0081092D01*
X0081313Y0081061D01*
X0081244Y0081018D01*
X0081170Y0080956D01*
X0081102Y0080876D01*
X0081096Y0080863D01*
X0081077Y0080832D01*
X0081046Y0080777D01*
X0081015Y0080702D01*
X0080984Y0080610D01*
X0080954Y0080492D01*
X0080935Y0080362D01*
X0080929Y0080213D01*
Y0078938D01*
X0080526D01*
Y0081451D01*
X0080929D01*
Y0080931D01*
X0080941D01*
Y0080937D01*
X0080947Y0080944D01*
X0080960Y0080975D01*
X0080978Y0081024D01*
X0081009Y0081086D01*
X0081040Y0081148D01*
X0081090Y0081216D01*
X0081139Y0081284D01*
X0081201Y0081346D01*
X0081207Y0081352D01*
X0081232Y0081371D01*
X0081269Y0081396D01*
X0081319Y0081420D01*
X0081374Y0081445D01*
X0081442Y0081470D01*
X0081517Y0081489D01*
X0081597Y0081495D01*
X0081653D01*
X0081690Y0081489D01*
D02*
G37*
G36*
X0076311Y0078536D02*
X0076305Y0078530D01*
X0076299Y0078505D01*
X0076280Y0078461D01*
X0076255Y0078412D01*
X0076224Y0078356D01*
X0076181Y0078288D01*
X0076138Y0078220D01*
X0076088Y0078146D01*
X0076026Y0078072D01*
X0075964Y0078004D01*
X0075890Y0077935D01*
X0075810Y0077880D01*
X0075729Y0077830D01*
X0075636Y0077787D01*
X0075543Y0077762D01*
X0075438Y0077756D01*
X0075383D01*
X0075345Y0077762D01*
X0075265Y0077775D01*
X0075178Y0077793D01*
Y0078152D01*
X0075184D01*
X0075203Y0078146D01*
X0075228Y0078140D01*
X0075259Y0078133D01*
X0075333Y0078115D01*
X0075414Y0078109D01*
X0075426D01*
X0075463Y0078115D01*
X0075519Y0078127D01*
X0075587Y0078152D01*
X0075661Y0078195D01*
X0075698Y0078226D01*
X0075735Y0078263D01*
X0075773Y0078301D01*
X0075810Y0078350D01*
X0075841Y0078406D01*
X0075871Y0078468D01*
X0076076Y0078938D01*
X0075092Y0081451D01*
X0075537D01*
X0076218Y0079514D01*
Y0079508D01*
X0076224Y0079495D01*
X0076231Y0079477D01*
X0076237Y0079452D01*
X0076243Y0079415D01*
X0076255Y0079378D01*
X0076268Y0079322D01*
X0076286D01*
Y0079334D01*
X0076299Y0079372D01*
X0076311Y0079427D01*
X0076336Y0079508D01*
X0077048Y0081451D01*
X0077462D01*
X0076311Y0078536D01*
D02*
G37*
G36*
X0073903Y0081501D02*
X0073959Y0081495D01*
X0074027Y0081476D01*
X0074101Y0081458D01*
X0074182Y0081427D01*
X0074268Y0081389D01*
X0074349Y0081340D01*
X0074429Y0081278D01*
X0074503Y0081204D01*
X0074572Y0081111D01*
X0074627Y0081006D01*
X0074671Y0080882D01*
X0074695Y0080739D01*
X0074708Y0080572D01*
Y0078938D01*
X0074305D01*
Y0079328D01*
X0074293D01*
Y0079322D01*
X0074281Y0079310D01*
X0074268Y0079285D01*
X0074244Y0079260D01*
X0074182Y0079186D01*
X0074101Y0079105D01*
X0073990Y0079025D01*
X0073860Y0078951D01*
X0073779Y0078926D01*
X0073699Y0078901D01*
X0073612Y0078889D01*
X0073519Y0078882D01*
X0073482D01*
X0073457Y0078889D01*
X0073389Y0078895D01*
X0073309Y0078907D01*
X0073210Y0078932D01*
X0073117Y0078963D01*
X0073018Y0079013D01*
X0072931Y0079074D01*
X0072925Y0079087D01*
X0072900Y0079111D01*
X0072863Y0079155D01*
X0072826Y0079217D01*
X0072789Y0079291D01*
X0072752Y0079378D01*
X0072727Y0079483D01*
X0072721Y0079601D01*
Y0079607D01*
Y0079632D01*
X0072727Y0079669D01*
X0072733Y0079712D01*
X0072746Y0079768D01*
X0072764Y0079830D01*
X0072789Y0079898D01*
X0072826Y0079966D01*
X0072869Y0080040D01*
X0072925Y0080114D01*
X0072993Y0080182D01*
X0073074Y0080244D01*
X0073167Y0080306D01*
X0073278Y0080356D01*
X0073402Y0080393D01*
X0073550Y0080424D01*
X0074305Y0080529D01*
Y0080535D01*
Y0080554D01*
X0074299Y0080591D01*
Y0080628D01*
X0074287Y0080678D01*
X0074281Y0080733D01*
X0074244Y0080851D01*
X0074213Y0080907D01*
X0074182Y0080962D01*
X0074138Y0081018D01*
X0074089Y0081068D01*
X0074027Y0081111D01*
X0073959Y0081142D01*
X0073878Y0081160D01*
X0073786Y0081167D01*
X0073742D01*
X0073711Y0081160D01*
X0073668D01*
X0073625Y0081148D01*
X0073513Y0081129D01*
X0073389Y0081092D01*
X0073253Y0081037D01*
X0073179Y0080999D01*
X0073111Y0080962D01*
X0073036Y0080913D01*
X0072968Y0080857D01*
Y0081272D01*
X0072975D01*
X0072987Y0081284D01*
X0073006Y0081297D01*
X0073036Y0081309D01*
X0073067Y0081327D01*
X0073111Y0081346D01*
X0073160Y0081365D01*
X0073216Y0081389D01*
X0073340Y0081433D01*
X0073488Y0081470D01*
X0073649Y0081495D01*
X0073823Y0081507D01*
X0073860D01*
X0073903Y0081501D01*
D02*
G37*
G36*
X0071012Y0079310D02*
X0072424D01*
Y0078938D01*
X0070598D01*
Y0082454D01*
X0071012D01*
Y0079310D01*
D02*
G37*
G36*
X0062774Y0082083D02*
X0061758D01*
Y0078938D01*
X0061350D01*
Y0082083D01*
X0060335D01*
Y0082454D01*
X0062774D01*
Y0082083D01*
D02*
G37*
G36*
X0078966Y0081501D02*
X0079010Y0081495D01*
X0079053Y0081489D01*
X0079165Y0081470D01*
X0079288Y0081427D01*
X0079412Y0081371D01*
X0079474Y0081334D01*
X0079536Y0081290D01*
X0079592Y0081241D01*
X0079647Y0081185D01*
X0079654Y0081179D01*
X0079660Y0081173D01*
X0079672Y0081154D01*
X0079691Y0081129D01*
X0079709Y0081092D01*
X0079734Y0081055D01*
X0079759Y0081012D01*
X0079784Y0080956D01*
X0079808Y0080894D01*
X0079833Y0080832D01*
X0079858Y0080758D01*
X0079877Y0080678D01*
X0079895Y0080591D01*
X0079907Y0080504D01*
X0079920Y0080405D01*
Y0080300D01*
Y0080089D01*
X0078143D01*
Y0080083D01*
Y0080071D01*
Y0080052D01*
X0078149Y0080021D01*
X0078156Y0079984D01*
Y0079947D01*
X0078174Y0079848D01*
X0078205Y0079749D01*
X0078242Y0079638D01*
X0078298Y0079532D01*
X0078366Y0079440D01*
X0078378Y0079427D01*
X0078403Y0079402D01*
X0078453Y0079372D01*
X0078521Y0079328D01*
X0078607Y0079285D01*
X0078707Y0079254D01*
X0078824Y0079229D01*
X0078960Y0079217D01*
X0079004D01*
X0079035Y0079223D01*
X0079072D01*
X0079115Y0079229D01*
X0079220Y0079254D01*
X0079338Y0079285D01*
X0079468Y0079334D01*
X0079604Y0079402D01*
X0079672Y0079446D01*
X0079740Y0079495D01*
Y0079118D01*
X0079734D01*
X0079728Y0079105D01*
X0079709Y0079099D01*
X0079678Y0079081D01*
X0079647Y0079062D01*
X0079610Y0079043D01*
X0079561Y0079025D01*
X0079511Y0079000D01*
X0079449Y0078975D01*
X0079381Y0078957D01*
X0079233Y0078920D01*
X0079059Y0078895D01*
X0078868Y0078882D01*
X0078818D01*
X0078781Y0078889D01*
X0078737Y0078895D01*
X0078682Y0078901D01*
X0078564Y0078926D01*
X0078428Y0078963D01*
X0078292Y0079025D01*
X0078224Y0079068D01*
X0078156Y0079111D01*
X0078094Y0079161D01*
X0078032Y0079223D01*
X0078026Y0079229D01*
X0078019Y0079242D01*
X0078007Y0079260D01*
X0077982Y0079285D01*
X0077964Y0079322D01*
X0077939Y0079365D01*
X0077908Y0079415D01*
X0077883Y0079470D01*
X0077852Y0079532D01*
X0077828Y0079607D01*
X0077797Y0079687D01*
X0077778Y0079774D01*
X0077759Y0079867D01*
X0077741Y0079966D01*
X0077735Y0080071D01*
X0077728Y0080182D01*
Y0080189D01*
Y0080207D01*
Y0080238D01*
X0077735Y0080281D01*
X0077741Y0080331D01*
X0077747Y0080387D01*
X0077753Y0080455D01*
X0077772Y0080523D01*
X0077809Y0080671D01*
X0077865Y0080832D01*
X0077902Y0080913D01*
X0077951Y0080987D01*
X0078001Y0081068D01*
X0078057Y0081136D01*
X0078063Y0081142D01*
X0078075Y0081154D01*
X0078094Y0081173D01*
X0078118Y0081191D01*
X0078149Y0081222D01*
X0078187Y0081253D01*
X0078236Y0081284D01*
X0078286Y0081321D01*
X0078403Y0081389D01*
X0078546Y0081451D01*
X0078626Y0081470D01*
X0078707Y0081489D01*
X0078793Y0081501D01*
X0078886Y0081507D01*
X0078936D01*
X0078966Y0081501D01*
D02*
G37*
G36*
X0064476D02*
X0064519Y0081495D01*
X0064575Y0081489D01*
X0064699Y0081464D01*
X0064841Y0081420D01*
X0064983Y0081358D01*
X0065058Y0081321D01*
X0065126Y0081278D01*
X0065194Y0081222D01*
X0065256Y0081160D01*
X0065262Y0081154D01*
X0065268Y0081142D01*
X0065287Y0081123D01*
X0065305Y0081099D01*
X0065330Y0081061D01*
X0065355Y0081018D01*
X0065386Y0080968D01*
X0065417Y0080913D01*
X0065441Y0080845D01*
X0065472Y0080777D01*
X0065497Y0080696D01*
X0065522Y0080610D01*
X0065540Y0080517D01*
X0065559Y0080418D01*
X0065565Y0080312D01*
X0065571Y0080201D01*
Y0080195D01*
Y0080176D01*
Y0080145D01*
X0065565Y0080102D01*
X0065559Y0080052D01*
X0065553Y0079991D01*
X0065540Y0079929D01*
X0065528Y0079854D01*
X0065491Y0079706D01*
X0065429Y0079545D01*
X0065392Y0079464D01*
X0065342Y0079384D01*
X0065293Y0079310D01*
X0065231Y0079242D01*
X0065225Y0079235D01*
X0065212Y0079229D01*
X0065194Y0079211D01*
X0065169Y0079186D01*
X0065132Y0079161D01*
X0065095Y0079130D01*
X0065045Y0079093D01*
X0064990Y0079062D01*
X0064928Y0079031D01*
X0064859Y0078994D01*
X0064785Y0078963D01*
X0064705Y0078938D01*
X0064618Y0078913D01*
X0064525Y0078901D01*
X0064426Y0078889D01*
X0064321Y0078882D01*
X0064265D01*
X0064228Y0078889D01*
X0064185Y0078895D01*
X0064129Y0078901D01*
X0064067Y0078913D01*
X0063999Y0078926D01*
X0063857Y0078969D01*
X0063708Y0079031D01*
X0063634Y0079068D01*
X0063566Y0079118D01*
X0063498Y0079167D01*
X0063430Y0079229D01*
X0063423Y0079235D01*
X0063417Y0079248D01*
X0063399Y0079266D01*
X0063380Y0079291D01*
X0063355Y0079328D01*
X0063324Y0079372D01*
X0063293Y0079421D01*
X0063269Y0079477D01*
X0063238Y0079545D01*
X0063207Y0079613D01*
X0063176Y0079687D01*
X0063151Y0079774D01*
X0063114Y0079959D01*
X0063108Y0080059D01*
X0063102Y0080164D01*
Y0080170D01*
Y0080195D01*
Y0080226D01*
X0063108Y0080269D01*
X0063114Y0080319D01*
X0063120Y0080380D01*
X0063133Y0080449D01*
X0063145Y0080523D01*
X0063182Y0080684D01*
X0063244Y0080845D01*
X0063287Y0080925D01*
X0063331Y0081006D01*
X0063380Y0081080D01*
X0063442Y0081148D01*
X0063448Y0081154D01*
X0063461Y0081167D01*
X0063479Y0081179D01*
X0063504Y0081204D01*
X0063541Y0081229D01*
X0063584Y0081259D01*
X0063634Y0081297D01*
X0063690Y0081327D01*
X0063752Y0081358D01*
X0063826Y0081396D01*
X0063900Y0081427D01*
X0063987Y0081451D01*
X0064073Y0081476D01*
X0064172Y0081495D01*
X0064278Y0081501D01*
X0064383Y0081507D01*
X0064439D01*
X0064476Y0081501D01*
D02*
G37*
G36*
X0084544Y0066515D02*
X0084569D01*
X0084624Y0066491D01*
X0084655Y0066472D01*
X0084686Y0066447D01*
X0084692Y0066441D01*
X0084698Y0066435D01*
X0084729Y0066398D01*
X0084754Y0066336D01*
X0084760Y0066299D01*
X0084767Y0066262D01*
Y0066255D01*
Y0066243D01*
X0084760Y0066224D01*
X0084754Y0066200D01*
X0084736Y0066138D01*
X0084711Y0066107D01*
X0084686Y0066076D01*
X0084680D01*
X0084674Y0066064D01*
X0084637Y0066039D01*
X0084581Y0066014D01*
X0084544Y0066008D01*
X0084507Y0066002D01*
X0084488D01*
X0084469Y0066008D01*
X0084445D01*
X0084383Y0066033D01*
X0084352Y0066045D01*
X0084321Y0066070D01*
Y0066076D01*
X0084308Y0066082D01*
X0084296Y0066101D01*
X0084284Y0066119D01*
X0084259Y0066181D01*
X0084253Y0066218D01*
X0084247Y0066262D01*
Y0066268D01*
Y0066280D01*
X0084253Y0066299D01*
X0084259Y0066330D01*
X0084277Y0066386D01*
X0084296Y0066416D01*
X0084321Y0066447D01*
X0084327Y0066453D01*
X0084333Y0066460D01*
X0084370Y0066484D01*
X0084432Y0066509D01*
X0084469Y0066522D01*
X0084525D01*
X0084544Y0066515D01*
D02*
G37*
G36*
X0072554Y0062851D02*
X0072151D01*
Y0063272D01*
X0072139D01*
Y0063266D01*
X0072127Y0063253D01*
X0072108Y0063229D01*
X0072089Y0063198D01*
X0072058Y0063161D01*
X0072021Y0063123D01*
X0071978Y0063080D01*
X0071929Y0063037D01*
X0071873Y0062987D01*
X0071805Y0062944D01*
X0071737Y0062907D01*
X0071656Y0062870D01*
X0071576Y0062839D01*
X0071483Y0062814D01*
X0071384Y0062801D01*
X0071279Y0062795D01*
X0071235D01*
X0071198Y0062801D01*
X0071161Y0062808D01*
X0071111Y0062814D01*
X0071006Y0062839D01*
X0070882Y0062876D01*
X0070759Y0062938D01*
X0070691Y0062975D01*
X0070635Y0063018D01*
X0070573Y0063074D01*
X0070517Y0063130D01*
Y0063136D01*
X0070505Y0063148D01*
X0070492Y0063167D01*
X0070474Y0063191D01*
X0070455Y0063222D01*
X0070430Y0063266D01*
X0070406Y0063315D01*
X0070381Y0063371D01*
X0070350Y0063433D01*
X0070325Y0063501D01*
X0070301Y0063575D01*
X0070282Y0063656D01*
X0070263Y0063742D01*
X0070251Y0063841D01*
X0070245Y0063940D01*
X0070239Y0064046D01*
Y0064052D01*
Y0064070D01*
Y0064108D01*
X0070245Y0064151D01*
X0070251Y0064200D01*
X0070257Y0064262D01*
X0070263Y0064330D01*
X0070276Y0064405D01*
X0070313Y0064566D01*
X0070369Y0064733D01*
X0070406Y0064813D01*
X0070449Y0064894D01*
X0070492Y0064968D01*
X0070548Y0065042D01*
X0070554Y0065048D01*
X0070560Y0065061D01*
X0070579Y0065079D01*
X0070604Y0065104D01*
X0070635Y0065129D01*
X0070678Y0065160D01*
X0070722Y0065197D01*
X0070771Y0065234D01*
X0070895Y0065302D01*
X0071037Y0065364D01*
X0071118Y0065383D01*
X0071204Y0065401D01*
X0071291Y0065414D01*
X0071390Y0065420D01*
X0071439D01*
X0071477Y0065414D01*
X0071514Y0065407D01*
X0071563Y0065401D01*
X0071675Y0065370D01*
X0071798Y0065321D01*
X0071860Y0065290D01*
X0071922Y0065246D01*
X0071984Y0065203D01*
X0072040Y0065148D01*
X0072089Y0065086D01*
X0072139Y0065011D01*
X0072151D01*
Y0066571D01*
X0072554D01*
Y0062851D01*
D02*
G37*
G36*
X0086822Y0065414D02*
X0086896Y0065407D01*
X0086989Y0065389D01*
X0087088Y0065358D01*
X0087193Y0065308D01*
X0087298Y0065240D01*
X0087342Y0065203D01*
X0087385Y0065154D01*
X0087397Y0065141D01*
X0087422Y0065104D01*
X0087453Y0065042D01*
X0087496Y0064956D01*
X0087533Y0064850D01*
X0087571Y0064720D01*
X0087595Y0064566D01*
X0087602Y0064386D01*
Y0062851D01*
X0087199D01*
Y0064281D01*
Y0064287D01*
Y0064318D01*
X0087193Y0064355D01*
Y0064405D01*
X0087181Y0064467D01*
X0087168Y0064535D01*
X0087150Y0064609D01*
X0087125Y0064683D01*
X0087094Y0064758D01*
X0087057Y0064826D01*
X0087007Y0064894D01*
X0086952Y0064956D01*
X0086890Y0065005D01*
X0086809Y0065042D01*
X0086723Y0065073D01*
X0086617Y0065079D01*
X0086605D01*
X0086568Y0065073D01*
X0086512Y0065067D01*
X0086444Y0065048D01*
X0086364Y0065024D01*
X0086277Y0064980D01*
X0086197Y0064925D01*
X0086116Y0064850D01*
X0086110Y0064838D01*
X0086085Y0064813D01*
X0086054Y0064764D01*
X0086017Y0064696D01*
X0085980Y0064615D01*
X0085949Y0064516D01*
X0085924Y0064405D01*
X0085918Y0064281D01*
Y0062851D01*
X0085515D01*
Y0065364D01*
X0085918D01*
Y0064943D01*
X0085930D01*
X0085936Y0064949D01*
X0085943Y0064962D01*
X0085961Y0064986D01*
X0085986Y0065017D01*
X0086011Y0065055D01*
X0086048Y0065092D01*
X0086091Y0065135D01*
X0086141Y0065185D01*
X0086197Y0065228D01*
X0086258Y0065271D01*
X0086326Y0065308D01*
X0086401Y0065346D01*
X0086475Y0065377D01*
X0086562Y0065401D01*
X0086655Y0065414D01*
X0086753Y0065420D01*
X0086791D01*
X0086822Y0065414D01*
D02*
G37*
G36*
X0069824Y0065401D02*
X0069898Y0065395D01*
X0069942Y0065383D01*
X0069972Y0065370D01*
Y0064956D01*
X0069966Y0064962D01*
X0069954Y0064968D01*
X0069929Y0064980D01*
X0069898Y0064999D01*
X0069855Y0065011D01*
X0069799Y0065024D01*
X0069737Y0065030D01*
X0069669Y0065036D01*
X0069657D01*
X0069626Y0065030D01*
X0069576Y0065024D01*
X0069521Y0065005D01*
X0069446Y0064974D01*
X0069378Y0064931D01*
X0069304Y0064869D01*
X0069236Y0064788D01*
X0069230Y0064776D01*
X0069211Y0064745D01*
X0069180Y0064689D01*
X0069149Y0064615D01*
X0069118Y0064522D01*
X0069087Y0064405D01*
X0069069Y0064275D01*
X0069063Y0064126D01*
Y0062851D01*
X0068660D01*
Y0065364D01*
X0069063D01*
Y0064844D01*
X0069075D01*
Y0064850D01*
X0069081Y0064856D01*
X0069094Y0064887D01*
X0069112Y0064937D01*
X0069143Y0064999D01*
X0069174Y0065061D01*
X0069223Y0065129D01*
X0069273Y0065197D01*
X0069335Y0065259D01*
X0069341Y0065265D01*
X0069366Y0065284D01*
X0069403Y0065308D01*
X0069453Y0065333D01*
X0069508Y0065358D01*
X0069576Y0065383D01*
X0069651Y0065401D01*
X0069731Y0065407D01*
X0069787D01*
X0069824Y0065401D01*
D02*
G37*
G36*
X0080563Y0062851D02*
X0080161D01*
Y0063247D01*
X0080149D01*
Y0063241D01*
X0080136Y0063229D01*
X0080124Y0063204D01*
X0080099Y0063179D01*
X0080044Y0063105D01*
X0079957Y0063024D01*
X0079907Y0062981D01*
X0079852Y0062938D01*
X0079790Y0062901D01*
X0079716Y0062863D01*
X0079641Y0062839D01*
X0079561Y0062814D01*
X0079468Y0062801D01*
X0079375Y0062795D01*
X0079338D01*
X0079295Y0062801D01*
X0079233Y0062814D01*
X0079165Y0062826D01*
X0079090Y0062851D01*
X0079010Y0062882D01*
X0078929Y0062931D01*
X0078843Y0062987D01*
X0078762Y0063055D01*
X0078688Y0063142D01*
X0078620Y0063247D01*
X0078558Y0063365D01*
X0078515Y0063507D01*
X0078490Y0063674D01*
X0078478Y0063761D01*
Y0063860D01*
Y0065364D01*
X0078874D01*
Y0063922D01*
Y0063916D01*
Y0063891D01*
X0078880Y0063848D01*
X0078886Y0063798D01*
X0078892Y0063736D01*
X0078905Y0063674D01*
X0078923Y0063600D01*
X0078948Y0063526D01*
X0078985Y0063451D01*
X0079022Y0063383D01*
X0079072Y0063315D01*
X0079134Y0063253D01*
X0079202Y0063204D01*
X0079282Y0063167D01*
X0079381Y0063136D01*
X0079487Y0063130D01*
X0079499D01*
X0079536Y0063136D01*
X0079592Y0063142D01*
X0079654Y0063154D01*
X0079734Y0063185D01*
X0079815Y0063222D01*
X0079895Y0063272D01*
X0079969Y0063346D01*
X0079975Y0063359D01*
X0080000Y0063383D01*
X0080031Y0063433D01*
X0080068Y0063501D01*
X0080099Y0063581D01*
X0080130Y0063680D01*
X0080155Y0063792D01*
X0080161Y0063916D01*
Y0065364D01*
X0080563D01*
Y0062851D01*
D02*
G37*
G36*
X0084698D02*
X0084296D01*
Y0065364D01*
X0084698D01*
Y0062851D01*
D02*
G37*
G36*
X0083479D02*
X0083077D01*
Y0066571D01*
X0083479D01*
Y0062851D01*
D02*
G37*
G36*
X0067100Y0065414D02*
X0067156Y0065407D01*
X0067224Y0065389D01*
X0067298Y0065370D01*
X0067379Y0065339D01*
X0067466Y0065302D01*
X0067546Y0065253D01*
X0067626Y0065191D01*
X0067701Y0065117D01*
X0067769Y0065024D01*
X0067825Y0064918D01*
X0067868Y0064795D01*
X0067893Y0064652D01*
X0067905Y0064485D01*
Y0062851D01*
X0067503D01*
Y0063241D01*
X0067490D01*
Y0063235D01*
X0067478Y0063222D01*
X0067466Y0063198D01*
X0067441Y0063173D01*
X0067379Y0063099D01*
X0067298Y0063018D01*
X0067187Y0062938D01*
X0067057Y0062863D01*
X0066976Y0062839D01*
X0066896Y0062814D01*
X0066809Y0062801D01*
X0066716Y0062795D01*
X0066679D01*
X0066655Y0062801D01*
X0066587Y0062808D01*
X0066506Y0062820D01*
X0066407Y0062845D01*
X0066314Y0062876D01*
X0066215Y0062925D01*
X0066128Y0062987D01*
X0066122Y0062999D01*
X0066097Y0063024D01*
X0066060Y0063068D01*
X0066023Y0063130D01*
X0065986Y0063204D01*
X0065949Y0063291D01*
X0065924Y0063396D01*
X0065918Y0063513D01*
Y0063520D01*
Y0063544D01*
X0065924Y0063581D01*
X0065930Y0063625D01*
X0065943Y0063680D01*
X0065961Y0063742D01*
X0065986Y0063810D01*
X0066023Y0063879D01*
X0066067Y0063953D01*
X0066122Y0064027D01*
X0066190Y0064095D01*
X0066271Y0064157D01*
X0066364Y0064219D01*
X0066475Y0064268D01*
X0066599Y0064306D01*
X0066747Y0064337D01*
X0067503Y0064442D01*
Y0064448D01*
Y0064467D01*
X0067497Y0064504D01*
Y0064541D01*
X0067484Y0064590D01*
X0067478Y0064646D01*
X0067441Y0064764D01*
X0067410Y0064819D01*
X0067379Y0064875D01*
X0067335Y0064931D01*
X0067286Y0064980D01*
X0067224Y0065024D01*
X0067156Y0065055D01*
X0067076Y0065073D01*
X0066983Y0065079D01*
X0066939D01*
X0066908Y0065073D01*
X0066865D01*
X0066822Y0065061D01*
X0066710Y0065042D01*
X0066587Y0065005D01*
X0066450Y0064949D01*
X0066376Y0064912D01*
X0066308Y0064875D01*
X0066234Y0064826D01*
X0066166Y0064770D01*
Y0065185D01*
X0066172D01*
X0066184Y0065197D01*
X0066203Y0065209D01*
X0066234Y0065222D01*
X0066265Y0065240D01*
X0066308Y0065259D01*
X0066357Y0065277D01*
X0066413Y0065302D01*
X0066537Y0065346D01*
X0066686Y0065383D01*
X0066847Y0065407D01*
X0067020Y0065420D01*
X0067057D01*
X0067100Y0065414D01*
D02*
G37*
G36*
X0061412Y0066361D02*
X0061455D01*
X0061498Y0066355D01*
X0061597Y0066342D01*
X0061715Y0066311D01*
X0061839Y0066274D01*
X0061956Y0066218D01*
X0062062Y0066144D01*
X0062068D01*
X0062074Y0066132D01*
X0062105Y0066107D01*
X0062148Y0066057D01*
X0062198Y0065989D01*
X0062241Y0065903D01*
X0062284Y0065804D01*
X0062315Y0065692D01*
X0062328Y0065630D01*
Y0065562D01*
Y0065556D01*
Y0065550D01*
Y0065513D01*
X0062322Y0065457D01*
X0062309Y0065389D01*
X0062291Y0065302D01*
X0062260Y0065215D01*
X0062223Y0065129D01*
X0062167Y0065042D01*
X0062161Y0065030D01*
X0062136Y0065005D01*
X0062099Y0064968D01*
X0062049Y0064918D01*
X0061987Y0064869D01*
X0061913Y0064813D01*
X0061820Y0064770D01*
X0061721Y0064727D01*
Y0064720D01*
X0061740D01*
X0061758Y0064714D01*
X0061777Y0064708D01*
X0061845Y0064696D01*
X0061926Y0064671D01*
X0062012Y0064634D01*
X0062105Y0064590D01*
X0062198Y0064529D01*
X0062284Y0064448D01*
X0062297Y0064436D01*
X0062322Y0064405D01*
X0062353Y0064361D01*
X0062396Y0064293D01*
X0062433Y0064207D01*
X0062470Y0064108D01*
X0062495Y0063990D01*
X0062501Y0063860D01*
Y0063854D01*
Y0063841D01*
Y0063817D01*
X0062495Y0063786D01*
X0062489Y0063749D01*
X0062483Y0063705D01*
X0062458Y0063600D01*
X0062421Y0063482D01*
X0062365Y0063359D01*
X0062328Y0063303D01*
X0062284Y0063241D01*
X0062229Y0063185D01*
X0062173Y0063130D01*
X0062167D01*
X0062161Y0063117D01*
X0062142Y0063105D01*
X0062117Y0063086D01*
X0062086Y0063068D01*
X0062043Y0063043D01*
X0061950Y0062993D01*
X0061833Y0062938D01*
X0061696Y0062894D01*
X0061536Y0062863D01*
X0061455Y0062857D01*
X0061362Y0062851D01*
X0060335D01*
Y0066367D01*
X0061381D01*
X0061412Y0066361D01*
D02*
G37*
G36*
X0081907Y0065364D02*
X0082544D01*
Y0065017D01*
X0081907D01*
Y0063600D01*
Y0063588D01*
Y0063557D01*
X0081913Y0063513D01*
X0081919Y0063458D01*
X0081944Y0063340D01*
X0081963Y0063284D01*
X0081993Y0063241D01*
X0082000Y0063235D01*
X0082012Y0063222D01*
X0082031Y0063210D01*
X0082061Y0063191D01*
X0082099Y0063167D01*
X0082148Y0063154D01*
X0082210Y0063142D01*
X0082278Y0063136D01*
X0082303D01*
X0082334Y0063142D01*
X0082371Y0063148D01*
X0082458Y0063173D01*
X0082501Y0063191D01*
X0082544Y0063216D01*
Y0062870D01*
X0082538D01*
X0082520Y0062857D01*
X0082489Y0062851D01*
X0082445Y0062839D01*
X0082390Y0062826D01*
X0082328Y0062814D01*
X0082253Y0062808D01*
X0082167Y0062801D01*
X0082136D01*
X0082105Y0062808D01*
X0082061Y0062814D01*
X0082012Y0062826D01*
X0081956Y0062839D01*
X0081901Y0062863D01*
X0081839Y0062894D01*
X0081777Y0062931D01*
X0081715Y0062981D01*
X0081659Y0063037D01*
X0081610Y0063111D01*
X0081566Y0063191D01*
X0081535Y0063291D01*
X0081511Y0063402D01*
X0081504Y0063532D01*
Y0065017D01*
X0081077D01*
Y0065364D01*
X0081504D01*
Y0065977D01*
X0081907Y0066107D01*
Y0065364D01*
D02*
G37*
G36*
X0089434Y0065414D02*
X0089477Y0065407D01*
X0089521Y0065401D01*
X0089632Y0065383D01*
X0089756Y0065339D01*
X0089880Y0065284D01*
X0089941Y0065246D01*
X0090003Y0065203D01*
X0090059Y0065154D01*
X0090115Y0065098D01*
X0090121Y0065092D01*
X0090127Y0065086D01*
X0090140Y0065067D01*
X0090158Y0065042D01*
X0090177Y0065005D01*
X0090201Y0064968D01*
X0090226Y0064925D01*
X0090251Y0064869D01*
X0090276Y0064807D01*
X0090300Y0064745D01*
X0090325Y0064671D01*
X0090344Y0064590D01*
X0090362Y0064504D01*
X0090375Y0064417D01*
X0090387Y0064318D01*
Y0064213D01*
Y0064002D01*
X0088611D01*
Y0063996D01*
Y0063984D01*
Y0063965D01*
X0088617Y0063934D01*
X0088623Y0063897D01*
Y0063860D01*
X0088642Y0063761D01*
X0088673Y0063662D01*
X0088710Y0063550D01*
X0088765Y0063445D01*
X0088833Y0063352D01*
X0088846Y0063340D01*
X0088871Y0063315D01*
X0088920Y0063284D01*
X0088988Y0063241D01*
X0089075Y0063198D01*
X0089174Y0063167D01*
X0089291Y0063142D01*
X0089428Y0063130D01*
X0089471D01*
X0089502Y0063136D01*
X0089539D01*
X0089582Y0063142D01*
X0089688Y0063167D01*
X0089805Y0063198D01*
X0089935Y0063247D01*
X0090071Y0063315D01*
X0090140Y0063359D01*
X0090208Y0063408D01*
Y0063030D01*
X0090201D01*
X0090195Y0063018D01*
X0090177Y0063012D01*
X0090146Y0062993D01*
X0090115Y0062975D01*
X0090078Y0062956D01*
X0090028Y0062938D01*
X0089978Y0062913D01*
X0089917Y0062888D01*
X0089849Y0062870D01*
X0089700Y0062832D01*
X0089527Y0062808D01*
X0089335Y0062795D01*
X0089285D01*
X0089248Y0062801D01*
X0089205Y0062808D01*
X0089149Y0062814D01*
X0089031Y0062839D01*
X0088895Y0062876D01*
X0088759Y0062938D01*
X0088691Y0062981D01*
X0088623Y0063024D01*
X0088561Y0063074D01*
X0088499Y0063136D01*
X0088493Y0063142D01*
X0088487Y0063154D01*
X0088474Y0063173D01*
X0088450Y0063198D01*
X0088431Y0063235D01*
X0088406Y0063278D01*
X0088375Y0063328D01*
X0088351Y0063383D01*
X0088320Y0063445D01*
X0088295Y0063520D01*
X0088264Y0063600D01*
X0088245Y0063687D01*
X0088227Y0063779D01*
X0088208Y0063879D01*
X0088202Y0063984D01*
X0088196Y0064095D01*
Y0064101D01*
Y0064120D01*
Y0064151D01*
X0088202Y0064194D01*
X0088208Y0064244D01*
X0088214Y0064299D01*
X0088221Y0064368D01*
X0088239Y0064436D01*
X0088276Y0064584D01*
X0088332Y0064745D01*
X0088369Y0064826D01*
X0088419Y0064900D01*
X0088468Y0064980D01*
X0088524Y0065048D01*
X0088530Y0065055D01*
X0088542Y0065067D01*
X0088561Y0065086D01*
X0088586Y0065104D01*
X0088617Y0065135D01*
X0088654Y0065166D01*
X0088703Y0065197D01*
X0088753Y0065234D01*
X0088871Y0065302D01*
X0089013Y0065364D01*
X0089093Y0065383D01*
X0089174Y0065401D01*
X0089261Y0065414D01*
X0089353Y0065420D01*
X0089403D01*
X0089434Y0065414D01*
D02*
G37*
G36*
X0076392Y0066423D02*
X0076453Y0066416D01*
X0076528Y0066404D01*
X0076608Y0066386D01*
X0076695Y0066367D01*
X0076781Y0066342D01*
X0076881Y0066311D01*
X0076973Y0066268D01*
X0077072Y0066218D01*
X0077171Y0066163D01*
X0077264Y0066094D01*
X0077357Y0066020D01*
X0077444Y0065934D01*
X0077450Y0065927D01*
X0077462Y0065909D01*
X0077487Y0065884D01*
X0077512Y0065847D01*
X0077549Y0065797D01*
X0077586Y0065736D01*
X0077623Y0065667D01*
X0077667Y0065593D01*
X0077710Y0065500D01*
X0077747Y0065407D01*
X0077784Y0065302D01*
X0077821Y0065185D01*
X0077846Y0065067D01*
X0077871Y0064937D01*
X0077883Y0064795D01*
X0077890Y0064652D01*
Y0064640D01*
Y0064615D01*
Y0064572D01*
X0077883Y0064510D01*
X0077877Y0064436D01*
X0077865Y0064355D01*
X0077852Y0064262D01*
X0077834Y0064157D01*
X0077809Y0064052D01*
X0077778Y0063940D01*
X0077741Y0063829D01*
X0077698Y0063718D01*
X0077642Y0063600D01*
X0077580Y0063495D01*
X0077512Y0063389D01*
X0077431Y0063291D01*
X0077425Y0063284D01*
X0077413Y0063272D01*
X0077382Y0063247D01*
X0077351Y0063216D01*
X0077301Y0063173D01*
X0077246Y0063136D01*
X0077184Y0063086D01*
X0077109Y0063043D01*
X0077029Y0062999D01*
X0076936Y0062950D01*
X0076837Y0062913D01*
X0076726Y0062876D01*
X0076608Y0062839D01*
X0076484Y0062814D01*
X0076354Y0062801D01*
X0076212Y0062795D01*
X0076181D01*
X0076138Y0062801D01*
X0076088D01*
X0076026Y0062808D01*
X0075952Y0062820D01*
X0075871Y0062839D01*
X0075779Y0062857D01*
X0075686Y0062882D01*
X0075587Y0062913D01*
X0075488Y0062956D01*
X0075389Y0062999D01*
X0075290Y0063055D01*
X0075191Y0063123D01*
X0075098Y0063198D01*
X0075011Y0063284D01*
X0075005Y0063291D01*
X0074993Y0063309D01*
X0074968Y0063334D01*
X0074943Y0063371D01*
X0074906Y0063420D01*
X0074869Y0063482D01*
X0074832Y0063550D01*
X0074788Y0063631D01*
X0074745Y0063718D01*
X0074708Y0063810D01*
X0074671Y0063916D01*
X0074634Y0064033D01*
X0074609Y0064151D01*
X0074584Y0064281D01*
X0074572Y0064423D01*
X0074565Y0064566D01*
Y0064578D01*
Y0064603D01*
X0074572Y0064646D01*
Y0064708D01*
X0074578Y0064776D01*
X0074590Y0064863D01*
X0074603Y0064956D01*
X0074621Y0065055D01*
X0074646Y0065160D01*
X0074677Y0065271D01*
X0074714Y0065383D01*
X0074757Y0065494D01*
X0074813Y0065605D01*
X0074875Y0065717D01*
X0074943Y0065822D01*
X0075024Y0065921D01*
X0075030Y0065927D01*
X0075042Y0065946D01*
X0075073Y0065971D01*
X0075110Y0066002D01*
X0075153Y0066039D01*
X0075209Y0066082D01*
X0075277Y0066126D01*
X0075352Y0066175D01*
X0075438Y0066224D01*
X0075531Y0066268D01*
X0075630Y0066311D01*
X0075741Y0066348D01*
X0075865Y0066379D01*
X0075995Y0066410D01*
X0076131Y0066423D01*
X0076274Y0066429D01*
X0076342D01*
X0076392Y0066423D01*
D02*
G37*
G36*
X0064364Y0065414D02*
X0064408Y0065407D01*
X0064463Y0065401D01*
X0064587Y0065377D01*
X0064729Y0065333D01*
X0064872Y0065271D01*
X0064946Y0065234D01*
X0065014Y0065191D01*
X0065082Y0065135D01*
X0065144Y0065073D01*
X0065150Y0065067D01*
X0065157Y0065055D01*
X0065175Y0065036D01*
X0065194Y0065011D01*
X0065219Y0064974D01*
X0065243Y0064931D01*
X0065274Y0064881D01*
X0065305Y0064826D01*
X0065330Y0064758D01*
X0065361Y0064689D01*
X0065386Y0064609D01*
X0065410Y0064522D01*
X0065429Y0064429D01*
X0065448Y0064330D01*
X0065454Y0064225D01*
X0065460Y0064114D01*
Y0064108D01*
Y0064089D01*
Y0064058D01*
X0065454Y0064015D01*
X0065448Y0063965D01*
X0065441Y0063903D01*
X0065429Y0063841D01*
X0065417Y0063767D01*
X0065380Y0063618D01*
X0065318Y0063458D01*
X0065280Y0063377D01*
X0065231Y0063297D01*
X0065181Y0063222D01*
X0065119Y0063154D01*
X0065113Y0063148D01*
X0065101Y0063142D01*
X0065082Y0063123D01*
X0065058Y0063099D01*
X0065021Y0063074D01*
X0064983Y0063043D01*
X0064934Y0063006D01*
X0064878Y0062975D01*
X0064816Y0062944D01*
X0064748Y0062907D01*
X0064674Y0062876D01*
X0064593Y0062851D01*
X0064507Y0062826D01*
X0064414Y0062814D01*
X0064315Y0062801D01*
X0064210Y0062795D01*
X0064154D01*
X0064117Y0062801D01*
X0064073Y0062808D01*
X0064018Y0062814D01*
X0063956Y0062826D01*
X0063888Y0062839D01*
X0063745Y0062882D01*
X0063597Y0062944D01*
X0063522Y0062981D01*
X0063454Y0063030D01*
X0063386Y0063080D01*
X0063318Y0063142D01*
X0063312Y0063148D01*
X0063306Y0063161D01*
X0063287Y0063179D01*
X0063269Y0063204D01*
X0063244Y0063241D01*
X0063213Y0063284D01*
X0063182Y0063334D01*
X0063157Y0063389D01*
X0063126Y0063458D01*
X0063095Y0063526D01*
X0063064Y0063600D01*
X0063040Y0063687D01*
X0063003Y0063872D01*
X0062996Y0063971D01*
X0062990Y0064077D01*
Y0064083D01*
Y0064108D01*
Y0064139D01*
X0062996Y0064182D01*
X0063003Y0064231D01*
X0063009Y0064293D01*
X0063021Y0064361D01*
X0063033Y0064436D01*
X0063071Y0064597D01*
X0063133Y0064758D01*
X0063176Y0064838D01*
X0063219Y0064918D01*
X0063269Y0064993D01*
X0063331Y0065061D01*
X0063337Y0065067D01*
X0063349Y0065079D01*
X0063368Y0065092D01*
X0063393Y0065117D01*
X0063430Y0065141D01*
X0063473Y0065172D01*
X0063522Y0065209D01*
X0063578Y0065240D01*
X0063640Y0065271D01*
X0063714Y0065308D01*
X0063789Y0065339D01*
X0063875Y0065364D01*
X0063962Y0065389D01*
X0064061Y0065407D01*
X0064166Y0065414D01*
X0064271Y0065420D01*
X0064327D01*
X0064364Y0065414D01*
D02*
G37*
%LPC*%
G36*
X0067397Y0081167D02*
X0067366D01*
X0067342Y0081160D01*
X0067274Y0081154D01*
X0067193Y0081136D01*
X0067106Y0081105D01*
X0067007Y0081061D01*
X0066915Y0080999D01*
X0066828Y0080919D01*
X0066822Y0080907D01*
X0066797Y0080876D01*
X0066760Y0080826D01*
X0066723Y0080752D01*
X0066686Y0080665D01*
X0066648Y0080560D01*
X0066624Y0080442D01*
X0066618Y0080312D01*
Y0079959D01*
Y0079953D01*
Y0079947D01*
X0066624Y0079910D01*
X0066630Y0079848D01*
X0066642Y0079780D01*
X0066667Y0079693D01*
X0066704Y0079607D01*
X0066754Y0079520D01*
X0066822Y0079433D01*
X0066834Y0079427D01*
X0066859Y0079402D01*
X0066902Y0079365D01*
X0066964Y0079328D01*
X0067038Y0079285D01*
X0067125Y0079254D01*
X0067224Y0079229D01*
X0067335Y0079217D01*
X0067373D01*
X0067397Y0079223D01*
X0067459Y0079229D01*
X0067546Y0079254D01*
X0067633Y0079285D01*
X0067732Y0079334D01*
X0067825Y0079402D01*
X0067868Y0079446D01*
X0067905Y0079495D01*
Y0079501D01*
X0067911Y0079508D01*
X0067924Y0079526D01*
X0067936Y0079545D01*
X0067954Y0079576D01*
X0067973Y0079613D01*
X0068010Y0079699D01*
X0068047Y0079811D01*
X0068085Y0079941D01*
X0068109Y0080096D01*
X0068116Y0080275D01*
Y0080281D01*
Y0080294D01*
Y0080312D01*
Y0080343D01*
X0068109Y0080380D01*
X0068103Y0080418D01*
X0068091Y0080510D01*
X0068066Y0080616D01*
X0068035Y0080727D01*
X0067985Y0080832D01*
X0067924Y0080925D01*
X0067917Y0080937D01*
X0067886Y0080962D01*
X0067843Y0080999D01*
X0067787Y0081049D01*
X0067713Y0081092D01*
X0067620Y0081129D01*
X0067515Y0081154D01*
X0067397Y0081167D01*
D02*
G37*
G36*
X0074305Y0080207D02*
X0073699Y0080120D01*
X0073686D01*
X0073655Y0080114D01*
X0073606Y0080102D01*
X0073544Y0080089D01*
X0073476Y0080071D01*
X0073402Y0080046D01*
X0073340Y0080021D01*
X0073278Y0079984D01*
X0073272Y0079978D01*
X0073253Y0079966D01*
X0073235Y0079941D01*
X0073210Y0079904D01*
X0073179Y0079854D01*
X0073160Y0079792D01*
X0073142Y0079718D01*
X0073136Y0079632D01*
Y0079625D01*
Y0079601D01*
X0073142Y0079570D01*
X0073154Y0079526D01*
X0073167Y0079477D01*
X0073191Y0079427D01*
X0073222Y0079378D01*
X0073265Y0079328D01*
X0073272Y0079322D01*
X0073290Y0079310D01*
X0073321Y0079291D01*
X0073358Y0079272D01*
X0073408Y0079254D01*
X0073470Y0079235D01*
X0073538Y0079223D01*
X0073618Y0079217D01*
X0073631D01*
X0073668Y0079223D01*
X0073724Y0079229D01*
X0073792Y0079242D01*
X0073866Y0079266D01*
X0073953Y0079303D01*
X0074033Y0079359D01*
X0074107Y0079427D01*
X0074114Y0079440D01*
X0074138Y0079464D01*
X0074169Y0079508D01*
X0074206Y0079570D01*
X0074244Y0079650D01*
X0074274Y0079737D01*
X0074299Y0079842D01*
X0074305Y0079953D01*
Y0080207D01*
D02*
G37*
G36*
X0078880Y0081167D02*
X0078830D01*
X0078781Y0081154D01*
X0078713Y0081142D01*
X0078638Y0081117D01*
X0078552Y0081080D01*
X0078471Y0081030D01*
X0078391Y0080962D01*
X0078385Y0080956D01*
X0078360Y0080925D01*
X0078329Y0080882D01*
X0078286Y0080820D01*
X0078242Y0080746D01*
X0078205Y0080653D01*
X0078174Y0080548D01*
X0078149Y0080430D01*
X0079505D01*
Y0080436D01*
Y0080449D01*
Y0080461D01*
Y0080486D01*
X0079499Y0080554D01*
X0079487Y0080628D01*
X0079462Y0080721D01*
X0079437Y0080808D01*
X0079394Y0080894D01*
X0079338Y0080975D01*
X0079332Y0080981D01*
X0079307Y0081006D01*
X0079270Y0081037D01*
X0079220Y0081074D01*
X0079152Y0081105D01*
X0079072Y0081136D01*
X0078985Y0081160D01*
X0078880Y0081167D01*
D02*
G37*
G36*
X0064352D02*
X0064315D01*
X0064290Y0081160D01*
X0064216Y0081154D01*
X0064129Y0081136D01*
X0064030Y0081105D01*
X0063925Y0081055D01*
X0063826Y0080987D01*
X0063776Y0080950D01*
X0063733Y0080900D01*
X0063721Y0080888D01*
X0063696Y0080851D01*
X0063665Y0080795D01*
X0063621Y0080715D01*
X0063578Y0080610D01*
X0063547Y0080486D01*
X0063522Y0080343D01*
X0063510Y0080176D01*
Y0080170D01*
Y0080158D01*
Y0080133D01*
X0063516Y0080102D01*
Y0080065D01*
X0063522Y0080021D01*
X0063541Y0079922D01*
X0063566Y0079811D01*
X0063609Y0079693D01*
X0063665Y0079576D01*
X0063739Y0079470D01*
X0063752Y0079458D01*
X0063783Y0079433D01*
X0063832Y0079390D01*
X0063900Y0079347D01*
X0063987Y0079297D01*
X0064092Y0079254D01*
X0064216Y0079229D01*
X0064352Y0079217D01*
X0064389D01*
X0064414Y0079223D01*
X0064488Y0079229D01*
X0064575Y0079248D01*
X0064668Y0079279D01*
X0064773Y0079322D01*
X0064866Y0079384D01*
X0064952Y0079464D01*
X0064959Y0079477D01*
X0064983Y0079514D01*
X0065021Y0079570D01*
X0065058Y0079650D01*
X0065095Y0079755D01*
X0065132Y0079879D01*
X0065157Y0080021D01*
X0065163Y0080189D01*
Y0080195D01*
Y0080207D01*
Y0080232D01*
Y0080269D01*
X0065157Y0080306D01*
X0065150Y0080349D01*
X0065138Y0080455D01*
X0065113Y0080572D01*
X0065076Y0080690D01*
X0065021Y0080808D01*
X0064952Y0080913D01*
X0064940Y0080925D01*
X0064915Y0080950D01*
X0064866Y0080993D01*
X0064798Y0081043D01*
X0064711Y0081086D01*
X0064612Y0081129D01*
X0064488Y0081154D01*
X0064352Y0081167D01*
D02*
G37*
G36*
X0071439Y0065079D02*
X0071402D01*
X0071378Y0065073D01*
X0071310Y0065067D01*
X0071229Y0065048D01*
X0071136Y0065011D01*
X0071037Y0064962D01*
X0070944Y0064900D01*
X0070901Y0064856D01*
X0070858Y0064807D01*
X0070851Y0064795D01*
X0070827Y0064758D01*
X0070789Y0064696D01*
X0070752Y0064615D01*
X0070715Y0064510D01*
X0070678Y0064380D01*
X0070653Y0064231D01*
X0070647Y0064064D01*
Y0064058D01*
Y0064046D01*
Y0064021D01*
X0070653Y0063990D01*
Y0063959D01*
X0070660Y0063916D01*
X0070672Y0063817D01*
X0070697Y0063705D01*
X0070734Y0063594D01*
X0070783Y0063482D01*
X0070851Y0063377D01*
X0070864Y0063365D01*
X0070889Y0063340D01*
X0070932Y0063297D01*
X0070994Y0063253D01*
X0071074Y0063210D01*
X0071167Y0063167D01*
X0071272Y0063142D01*
X0071396Y0063130D01*
X0071427D01*
X0071452Y0063136D01*
X0071514Y0063142D01*
X0071588Y0063161D01*
X0071675Y0063191D01*
X0071768Y0063229D01*
X0071854Y0063291D01*
X0071941Y0063371D01*
X0071947Y0063383D01*
X0071972Y0063414D01*
X0072009Y0063470D01*
X0072046Y0063538D01*
X0072083Y0063625D01*
X0072120Y0063730D01*
X0072145Y0063854D01*
X0072151Y0063984D01*
Y0064355D01*
Y0064361D01*
Y0064368D01*
Y0064405D01*
X0072139Y0064460D01*
X0072127Y0064535D01*
X0072102Y0064615D01*
X0072065Y0064702D01*
X0072015Y0064788D01*
X0071947Y0064869D01*
X0071941Y0064875D01*
X0071910Y0064900D01*
X0071867Y0064937D01*
X0071811Y0064974D01*
X0071737Y0065011D01*
X0071650Y0065048D01*
X0071551Y0065073D01*
X0071439Y0065079D01*
D02*
G37*
G36*
X0067503Y0064120D02*
X0066896Y0064033D01*
X0066884D01*
X0066853Y0064027D01*
X0066803Y0064015D01*
X0066741Y0064002D01*
X0066673Y0063984D01*
X0066599Y0063959D01*
X0066537Y0063934D01*
X0066475Y0063897D01*
X0066469Y0063891D01*
X0066450Y0063879D01*
X0066432Y0063854D01*
X0066407Y0063817D01*
X0066376Y0063767D01*
X0066357Y0063705D01*
X0066339Y0063631D01*
X0066333Y0063544D01*
Y0063538D01*
Y0063513D01*
X0066339Y0063482D01*
X0066351Y0063439D01*
X0066364Y0063389D01*
X0066388Y0063340D01*
X0066419Y0063291D01*
X0066463Y0063241D01*
X0066469Y0063235D01*
X0066487Y0063222D01*
X0066518Y0063204D01*
X0066556Y0063185D01*
X0066605Y0063167D01*
X0066667Y0063148D01*
X0066735Y0063136D01*
X0066816Y0063130D01*
X0066828D01*
X0066865Y0063136D01*
X0066921Y0063142D01*
X0066989Y0063154D01*
X0067063Y0063179D01*
X0067150Y0063216D01*
X0067230Y0063272D01*
X0067305Y0063340D01*
X0067311Y0063352D01*
X0067335Y0063377D01*
X0067366Y0063420D01*
X0067404Y0063482D01*
X0067441Y0063563D01*
X0067472Y0063649D01*
X0067497Y0063755D01*
X0067503Y0063866D01*
Y0064120D01*
D02*
G37*
G36*
X0061220Y0065996D02*
X0060749D01*
Y0064856D01*
X0061226D01*
X0061288Y0064863D01*
X0061362Y0064875D01*
X0061449Y0064894D01*
X0061542Y0064925D01*
X0061622Y0064962D01*
X0061703Y0065017D01*
X0061709Y0065024D01*
X0061734Y0065048D01*
X0061765Y0065086D01*
X0061802Y0065141D01*
X0061833Y0065203D01*
X0061864Y0065284D01*
X0061888Y0065377D01*
X0061895Y0065482D01*
Y0065488D01*
Y0065507D01*
X0061888Y0065531D01*
X0061882Y0065562D01*
X0061857Y0065643D01*
X0061839Y0065692D01*
X0061808Y0065742D01*
X0061777Y0065785D01*
X0061727Y0065835D01*
X0061678Y0065878D01*
X0061610Y0065915D01*
X0061536Y0065946D01*
X0061443Y0065971D01*
X0061337Y0065989D01*
X0061220Y0065996D01*
D02*
G37*
G36*
Y0064485D02*
X0060749D01*
Y0063222D01*
X0061368D01*
X0061430Y0063229D01*
X0061517Y0063241D01*
X0061604Y0063266D01*
X0061696Y0063291D01*
X0061789Y0063334D01*
X0061870Y0063389D01*
X0061876Y0063396D01*
X0061901Y0063420D01*
X0061932Y0063458D01*
X0061969Y0063513D01*
X0062006Y0063581D01*
X0062037Y0063662D01*
X0062062Y0063761D01*
X0062068Y0063866D01*
Y0063872D01*
Y0063891D01*
X0062062Y0063922D01*
X0062055Y0063965D01*
X0062043Y0064008D01*
X0062024Y0064064D01*
X0062000Y0064120D01*
X0061963Y0064176D01*
X0061919Y0064231D01*
X0061864Y0064287D01*
X0061796Y0064343D01*
X0061709Y0064386D01*
X0061616Y0064429D01*
X0061498Y0064460D01*
X0061368Y0064479D01*
X0061220Y0064485D01*
D02*
G37*
G36*
X0089347Y0065079D02*
X0089298D01*
X0089248Y0065067D01*
X0089180Y0065055D01*
X0089106Y0065030D01*
X0089019Y0064993D01*
X0088939Y0064943D01*
X0088858Y0064875D01*
X0088852Y0064869D01*
X0088827Y0064838D01*
X0088796Y0064795D01*
X0088753Y0064733D01*
X0088710Y0064658D01*
X0088673Y0064566D01*
X0088642Y0064460D01*
X0088617Y0064343D01*
X0089972D01*
Y0064349D01*
Y0064361D01*
Y0064374D01*
Y0064398D01*
X0089966Y0064467D01*
X0089954Y0064541D01*
X0089929Y0064634D01*
X0089904Y0064720D01*
X0089861Y0064807D01*
X0089805Y0064887D01*
X0089799Y0064894D01*
X0089774Y0064918D01*
X0089737Y0064949D01*
X0089688Y0064986D01*
X0089619Y0065017D01*
X0089539Y0065048D01*
X0089452Y0065073D01*
X0089347Y0065079D01*
D02*
G37*
G36*
X0076243Y0066051D02*
X0076187D01*
X0076150Y0066045D01*
X0076101Y0066039D01*
X0076051Y0066033D01*
X0075989Y0066020D01*
X0075921Y0066002D01*
X0075779Y0065952D01*
X0075704Y0065921D01*
X0075624Y0065884D01*
X0075550Y0065835D01*
X0075475Y0065779D01*
X0075407Y0065717D01*
X0075339Y0065649D01*
X0075333Y0065643D01*
X0075327Y0065630D01*
X0075308Y0065605D01*
X0075283Y0065575D01*
X0075259Y0065537D01*
X0075234Y0065488D01*
X0075203Y0065432D01*
X0075172Y0065370D01*
X0075135Y0065296D01*
X0075104Y0065222D01*
X0075079Y0065135D01*
X0075054Y0065042D01*
X0075030Y0064943D01*
X0075011Y0064832D01*
X0075005Y0064720D01*
X0074999Y0064603D01*
Y0064597D01*
Y0064572D01*
Y0064541D01*
X0075005Y0064498D01*
X0075011Y0064442D01*
X0075017Y0064374D01*
X0075030Y0064306D01*
X0075042Y0064231D01*
X0075079Y0064064D01*
X0075141Y0063885D01*
X0075178Y0063798D01*
X0075222Y0063718D01*
X0075277Y0063631D01*
X0075333Y0063557D01*
X0075339Y0063550D01*
X0075352Y0063538D01*
X0075370Y0063520D01*
X0075395Y0063495D01*
X0075426Y0063464D01*
X0075469Y0063433D01*
X0075519Y0063396D01*
X0075568Y0063359D01*
X0075630Y0063321D01*
X0075698Y0063284D01*
X0075847Y0063222D01*
X0075933Y0063198D01*
X0076020Y0063179D01*
X0076113Y0063167D01*
X0076212Y0063161D01*
X0076268D01*
X0076311Y0063167D01*
X0076354Y0063173D01*
X0076416Y0063179D01*
X0076478Y0063191D01*
X0076546Y0063210D01*
X0076689Y0063253D01*
X0076769Y0063284D01*
X0076843Y0063321D01*
X0076918Y0063365D01*
X0076992Y0063414D01*
X0077060Y0063470D01*
X0077128Y0063538D01*
X0077134Y0063544D01*
X0077140Y0063557D01*
X0077159Y0063575D01*
X0077178Y0063606D01*
X0077209Y0063649D01*
X0077233Y0063693D01*
X0077264Y0063749D01*
X0077295Y0063810D01*
X0077326Y0063885D01*
X0077357Y0063965D01*
X0077388Y0064052D01*
X0077413Y0064145D01*
X0077431Y0064244D01*
X0077450Y0064355D01*
X0077456Y0064473D01*
X0077462Y0064597D01*
Y0064603D01*
Y0064627D01*
Y0064665D01*
X0077456Y0064708D01*
X0077450Y0064770D01*
X0077444Y0064838D01*
X0077438Y0064912D01*
X0077419Y0064993D01*
X0077382Y0065160D01*
X0077326Y0065339D01*
X0077289Y0065426D01*
X0077246Y0065513D01*
X0077190Y0065593D01*
X0077134Y0065667D01*
X0077128Y0065674D01*
X0077122Y0065686D01*
X0077103Y0065705D01*
X0077072Y0065729D01*
X0077041Y0065754D01*
X0077004Y0065791D01*
X0076955Y0065822D01*
X0076905Y0065859D01*
X0076843Y0065896D01*
X0076775Y0065927D01*
X0076701Y0065965D01*
X0076621Y0065989D01*
X0076534Y0066014D01*
X0076447Y0066033D01*
X0076348Y0066045D01*
X0076243Y0066051D01*
D02*
G37*
G36*
X0064240Y0065079D02*
X0064203D01*
X0064179Y0065073D01*
X0064104Y0065067D01*
X0064018Y0065048D01*
X0063919Y0065017D01*
X0063813Y0064968D01*
X0063714Y0064900D01*
X0063665Y0064863D01*
X0063621Y0064813D01*
X0063609Y0064801D01*
X0063584Y0064764D01*
X0063553Y0064708D01*
X0063510Y0064627D01*
X0063467Y0064522D01*
X0063436Y0064398D01*
X0063411Y0064256D01*
X0063399Y0064089D01*
Y0064083D01*
Y0064070D01*
Y0064046D01*
X0063405Y0064015D01*
Y0063977D01*
X0063411Y0063934D01*
X0063430Y0063835D01*
X0063454Y0063724D01*
X0063498Y0063606D01*
X0063553Y0063489D01*
X0063628Y0063383D01*
X0063640Y0063371D01*
X0063671Y0063346D01*
X0063721Y0063303D01*
X0063789Y0063260D01*
X0063875Y0063210D01*
X0063981Y0063167D01*
X0064104Y0063142D01*
X0064240Y0063130D01*
X0064278D01*
X0064302Y0063136D01*
X0064377Y0063142D01*
X0064463Y0063161D01*
X0064556Y0063191D01*
X0064661Y0063235D01*
X0064754Y0063297D01*
X0064841Y0063377D01*
X0064847Y0063389D01*
X0064872Y0063427D01*
X0064909Y0063482D01*
X0064946Y0063563D01*
X0064983Y0063668D01*
X0065021Y0063792D01*
X0065045Y0063934D01*
X0065051Y0064101D01*
Y0064108D01*
Y0064120D01*
Y0064145D01*
Y0064182D01*
X0065045Y0064219D01*
X0065039Y0064262D01*
X0065027Y0064368D01*
X0065002Y0064485D01*
X0064965Y0064603D01*
X0064909Y0064720D01*
X0064841Y0064826D01*
X0064829Y0064838D01*
X0064804Y0064863D01*
X0064754Y0064906D01*
X0064686Y0064956D01*
X0064600Y0064999D01*
X0064500Y0065042D01*
X0064377Y0065067D01*
X0064240Y0065079D01*
D02*
G37*
%LPD*%
D10*
X-0023228Y-0029134D02*
X-0022987Y-0028892D01*
X-0011957Y-0020965D02*
X-0010039D01*
X-0019885Y-0028892D02*
X-0011957Y-0020965D01*
X-0022987Y-0028892D02*
X-0019885D01*
X-0001856Y0038780D02*
X-0001083D01*
X-0001035Y0039600D02*
Y0043877D01*
X-0002988Y0045830D02*
X-0001035Y0043877D01*
X-0001083Y0038780D02*
Y0039553D01*
X-0001035Y0039600D01*
X-0002988Y0045830D02*
Y0045929D01*
X-0002195Y0039119D02*
X-0001856Y0038780D01*
X-0005078Y0039119D02*
X-0002195D01*
X0014862Y0053178D02*
Y0055677D01*
Y0053178D02*
X0038817Y0029223D01*
Y0028890D02*
Y0029223D01*
X0009941Y0060599D02*
X0014862Y0055677D01*
X0009941Y0060599D02*
Y0062008D01*
X0015650Y0032466D02*
Y0038166D01*
X0008524Y0045292D02*
X0015650Y0038166D01*
X0008373Y0045495D02*
X0008524Y0045344D01*
X0028216Y0034558D02*
X0030413Y0032360D01*
X0023289Y0034558D02*
X0028216D01*
X0030413Y0031102D02*
Y0032360D01*
X0030451Y0031239D02*
X0032701Y0028989D01*
X0018011Y0029182D02*
Y0029280D01*
X0023289Y0034558D01*
X0040152Y-0005285D02*
X0043307Y-0002130D01*
X0032155Y-0005285D02*
X0040152D01*
X0043307Y-0002130D02*
Y0000299D01*
X0027756Y-0000886D02*
X0032155Y-0005285D01*
X0037106Y-0032087D02*
X0037894D01*
X0027756Y-0000886D02*
Y0007500D01*
X0037271Y0007517D02*
X0038583Y0008829D01*
X0037271Y0007480D02*
Y0007517D01*
X0043246Y0003764D02*
Y0007972D01*
X0017421Y-0032087D02*
X0020768D01*
X0037106D01*
X0043209Y0000373D02*
Y0003051D01*
X0038583Y0008829D02*
Y0011811D01*
X0038780Y0012008D01*
X0038878Y0011909D02*
X0043307D01*
X0010236Y-0012402D02*
X0012795Y-0009843D01*
Y-0007776D01*
Y-0007677D02*
X0016929Y-0003543D01*
X0023720D01*
X0023917Y-0003347D01*
X0025295D01*
X0022842Y-0007079D02*
X0025295D01*
X0010925Y-0018996D02*
X0022842Y-0007079D01*
X0010925Y-0019488D02*
Y-0018996D01*
X0015650Y0032466D02*
X0017874Y0030241D01*
X-0010630Y0042421D02*
X-0009154D01*
X-0005906Y0039173D01*
X-0005753D02*
X-0005132D01*
X-0005078Y0039119D01*
X-0005906Y0039173D02*
X-0005807D01*
X-0016878Y0042421D02*
X-0010630D01*
X0030307Y0043735D02*
X0030413D01*
X0012961Y0061063D02*
X0029607Y0044417D01*
X0029625D02*
X0030307Y0043735D01*
X0029607Y0044417D02*
X0029625D01*
X0030413Y0043735D02*
X0030489Y0043810D01*
X0038889D01*
X0039370Y0044291D01*
X0006988Y0049789D02*
X0007087Y0049888D01*
Y0055709D01*
X0006988Y0049213D02*
Y0049789D01*
Y0047262D02*
Y0049016D01*
Y0047262D02*
X0008373Y0045877D01*
Y0045495D02*
Y0045877D01*
X-0035932Y-0029125D02*
X-0023729D01*
X-0035940Y-0029117D02*
X-0035932Y-0029125D01*
X-0039567Y-0029134D02*
X-0039558Y-0029125D01*
X-0035949D01*
X-0035940Y-0029117D01*
X-0023729Y-0029125D02*
X-0023720Y-0029134D01*
X-0026024Y-0008013D02*
Y-0002697D01*
X-0010039Y-0020965D02*
X-0009843Y-0020768D01*
Y-0020177D01*
X-0023720Y-0032698D02*
Y-0029134D01*
X-0001354Y-0019441D02*
Y-0019342D01*
Y-0019539D02*
Y-0019441D01*
X-0009843Y-0020177D02*
X-0001992D01*
X-0001354Y-0019539D01*
X-0026024Y-0002697D02*
X-0025984Y-0002657D01*
X-0026083Y-0008072D02*
X-0026024Y-0008013D01*
X-0026083Y-0011811D02*
Y-0008072D01*
Y-0011811D02*
X-0025984D01*
X0008188Y-0036229D02*
Y-0036122D01*
X0010923Y-0040059D02*
Y-0034167D01*
X0008071Y-0041642D02*
Y-0036346D01*
X0008188Y-0036229D01*
X0010948Y-0033639D02*
X0010971Y-0033661D01*
X0010925Y-0030709D02*
X0010948Y-0030731D01*
Y-0033639D02*
Y-0030731D01*
X-0016898Y0020602D02*
X-0016831Y0020669D01*
X-0019608Y0020602D02*
X-0016898D01*
X-0025965Y-0001083D02*
X-0025768Y-0000886D01*
X-0025748D01*
X-0025965Y-0003051D02*
Y-0001083D01*
X-0021023Y0003839D02*
X-0019783D01*
X-0025748Y-0000886D02*
X-0021023Y0003839D01*
X0000017Y-0017706D02*
X0000093Y-0017630D01*
X0000017Y-0017971D02*
Y-0017706D01*
X-0001354Y-0019342D02*
X0000017Y-0017971D01*
X0032701Y0028989D02*
X0034880D01*
Y0022994D02*
Y0028989D01*
X-0040157Y0043504D02*
X-0039370Y0044291D01*
X-0040157Y0031693D02*
Y0043504D01*
X-0012286Y0053408D02*
Y0061400D01*
X-0038878Y0043799D02*
X-0027756D01*
X-0039370Y0044291D02*
X-0038878Y0043799D01*
X-0027081D02*
X-0027069Y0043787D01*
X-0027744Y0043799D02*
X-0027081D01*
X-0020339Y0043787D02*
X-0019291Y0044835D01*
X-0027069Y0043787D02*
X-0020339D01*
X-0019291Y0044835D02*
X-0016878Y0042421D01*
X-0019291Y0044835D02*
Y0047835D01*
X-0027756Y0047736D02*
X-0023130D01*
X-0009547Y0056791D02*
Y0065805D01*
X-0023031Y0047835D02*
Y0051595D01*
X-0021878Y0052748D02*
X-0016728D01*
X-0023031Y0051595D02*
X-0021878Y0052748D01*
X-0016728D02*
X-0015551Y0051571D01*
Y0047835D02*
Y0051571D01*
Y0047835D02*
X-0011516D01*
X-0009547Y0049803D01*
Y0056791D01*
X-0009677Y0065935D02*
Y0067272D01*
Y0065935D02*
X-0009547Y0065805D01*
X-0009510Y0063325D02*
X-0009350Y0063484D01*
X0009941Y0065748D02*
Y0066727D01*
X0006097Y0070571D02*
X0009941Y0066727D01*
X-0006426Y0070571D02*
X0006097D01*
X-0007579Y0069418D02*
X-0006426Y0070571D01*
X-0007579Y0069370D02*
Y0069418D01*
X-0009677Y0067272D02*
X-0007579Y0069370D01*
X-0005345Y0007018D02*
X-0005338Y0007011D01*
X-0002953Y0052826D02*
Y0055709D01*
X0025295Y-0003347D02*
X0027756Y-0000886D01*
X0026504Y0008752D02*
X0027756Y0007500D01*
X0023213Y0008752D02*
X0026504D01*
X0031988Y-0018214D02*
Y-0018036D01*
X0012106Y-0031890D02*
X0019587Y-0039370D01*
X0038316Y-0044291D02*
X0039370D01*
X0033395Y-0039370D02*
X0038316Y-0044291D01*
X0019587Y-0039370D02*
X0033395D01*
X0010925Y-0030709D02*
X0012106Y-0031890D01*
X-0027362Y-0037205D02*
Y-0036340D01*
X-0023720Y-0032698D01*
X-0006909Y-0039370D02*
X0000000Y-0046279D01*
Y-0046457D02*
Y-0046279D01*
X-0008543Y-0039370D02*
X-0006909D01*
X0003483Y-0042795D02*
X0006918D01*
X0008071Y-0041642D01*
X0000000Y-0046279D02*
X0003483Y-0042795D01*
X0010827Y-0045304D02*
Y-0040453D01*
X0005000Y-0046457D02*
X0009674D01*
X0010827Y-0045304D01*
X0038780Y0022835D02*
Y0028754D01*
X0038817Y0028792D01*
X0034880Y0022994D02*
X0035039Y0022835D01*
D11*
X0000984Y0026230D02*
X0002559D01*
X-0002119Y0003063D02*
Y0004771D01*
X0000197Y0007087D01*
X-0003642Y0001540D02*
X-0002119Y0003063D01*
X-0003642Y-0000055D02*
Y0001540D01*
X0023819Y0030986D02*
Y0031231D01*
X0002067Y0030936D02*
Y0031255D01*
X0002559Y0026230D02*
Y0030444D01*
X0001841Y0031482D02*
Y0031919D01*
X-0001083Y0034843D02*
X0001841Y0031919D01*
X0002067Y0030936D02*
X0002559Y0030444D01*
X0001841Y0031482D02*
X0002067Y0031255D01*
X-0023259Y0020986D02*
X-0019706Y0024539D01*
X-0023259Y0020669D02*
Y0020986D01*
X-0019706Y0024539D02*
X-0019608D01*
X-0019115Y0023827D02*
X-0018221Y0022933D01*
X-0013337D01*
X0017495Y0025662D02*
X0018463D01*
X0015734Y0022933D02*
X0018463Y0025662D01*
X0022484D01*
X0014862Y0022933D02*
X0015734D01*
X0022487Y0029654D02*
X0023819Y0030986D01*
X0022487Y0026161D02*
Y0029654D01*
X0000984Y-0005695D02*
Y0001552D01*
X0006116Y-0012317D02*
Y-0010827D01*
Y-0012317D02*
X0006299Y-0012500D01*
X0000984Y-0005695D02*
X0006116Y-0010827D01*
X0000984Y-0005695D02*
X0000984Y-0005695D01*
X0022487Y0026161D02*
X0022490Y0026158D01*
Y0025680D02*
Y0026158D01*
X0002165Y-0038681D02*
X0004478Y-0036368D01*
X0014074Y0029083D02*
X0017495Y0025662D01*
X0014074Y0029083D02*
Y0029182D01*
X0009741Y0024199D02*
X0010433Y0024891D01*
X0008858D02*
X0009550Y0024199D01*
X0009741D01*
X0010433Y0024891D02*
Y0026230D01*
X0008858Y0024891D02*
Y0026230D01*
X-0018563Y-0037205D02*
X-0015453D01*
X-0014075Y-0035827D01*
X-0013681D01*
X0002165Y-0038976D02*
Y-0038681D01*
X0010433Y0026230D02*
Y0028490D01*
X0011125Y0029182D02*
X0014074D01*
X0010433Y0028490D02*
X0011125Y0029182D01*
X-0026083Y-0015748D02*
X-0022539D01*
X-0018996Y-0012205D01*
Y-0010827D01*
X-0023425Y-0037205D02*
X-0018563D01*
X-0036440Y-0044291D02*
X-0033488Y-0041339D01*
X-0039370Y-0044291D02*
X-0036440D01*
X-0033488Y-0041339D02*
X-0010315D01*
X-0009528Y-0042126D01*
X-0008937D01*
X-0008347D02*
X-0005648Y-0044825D01*
Y-0045809D02*
X-0005000Y-0046457D01*
X-0005648Y-0045809D02*
Y-0044825D01*
X-0008937Y-0042126D02*
X-0008347D01*
D12*
X-0009319Y0023720D02*
X-0008563Y0024477D01*
Y0026132D02*
X-0008465Y0026230D01*
X-0010759Y0023720D02*
X-0009319D01*
X-0008563Y0024477D02*
Y0026132D01*
X-0012999Y0025960D02*
X-0010759Y0023720D01*
X-0015310Y0025960D02*
X-0012999D01*
D14*
X0002532Y0035307D02*
X0004134Y0033705D01*
Y0026230D02*
Y0033705D01*
X0005709Y0033760D02*
X0006594Y0034646D01*
Y0034744D01*
X0005709Y0026230D02*
Y0033760D01*
X0006594Y0034744D02*
X0007185Y0035335D01*
X0007283D01*
X0002854Y0048751D02*
Y0053611D01*
X0005646Y0040323D02*
Y0045960D01*
X0002854Y0048751D02*
X0005646Y0045960D01*
X-0029262Y0002611D02*
Y0005775D01*
X-0021552Y0013484D01*
X-0027195Y0004833D02*
X-0020118Y0011909D01*
X-0027195Y0004811D02*
Y0004833D01*
X-0020118Y0011909D02*
X-0013337D01*
X-0027195Y0013949D02*
Y0014100D01*
X-0024661Y0016634D02*
X-0013337D01*
X-0027195Y0014100D02*
X-0024661Y0016634D01*
X-0027601Y0010619D02*
X-0023161Y0015059D01*
X-0013337D01*
X-0028538Y0017807D02*
X-0028237Y0018108D01*
X-0027390D02*
X-0027290Y0018209D01*
X-0013337D01*
X-0028237Y0018108D02*
X-0027390D01*
X-0021552Y0013484D02*
X-0013337D01*
X0002434Y0035307D02*
X0002532D01*
X-0000027Y0060039D02*
X0000886Y0060952D01*
X-0002854Y0060433D02*
Y0063878D01*
X-0002461Y0060039D02*
X-0000027D01*
X-0000886Y0063878D02*
Y0067157D01*
X0001083Y0057579D02*
Y0063878D01*
X-0002854Y0060433D02*
X-0002461Y0060039D01*
X-0000425Y0067618D02*
X0002590D01*
X0003051Y0063856D02*
Y0067157D01*
X0002590Y0067618D02*
X0003051Y0067157D01*
X-0000886D02*
X-0000425Y0067618D01*
X0003051Y0057579D02*
X0004331Y0056299D01*
Y0055709D02*
Y0056299D01*
X0003051Y0057579D02*
Y0063856D01*
X0000886Y0063681D02*
X0001083Y0063878D01*
X0000886Y0060952D02*
Y0063681D01*
X-0000197Y0056299D02*
X0001083Y0057579D01*
X-0000197Y0055709D02*
Y0056299D01*
X0003024Y0039834D02*
X0003610D01*
X0006693Y0039862D02*
X0007283Y0039272D01*
X0006107Y0039862D02*
X0006693D01*
X0005646Y0040323D02*
X0006107Y0039862D01*
X0002434Y0039244D02*
X0003024Y0039834D01*
X0004071Y0040296D02*
Y0045375D01*
X0003610Y0039834D02*
X0004071Y0040296D01*
X0001280Y0048167D02*
X0004071Y0045375D01*
X0004331Y0055118D02*
Y0055709D01*
X0003316Y0054724D02*
X0003937D01*
X0000197Y0054724D02*
X0000818D01*
X-0000197Y0055118D02*
Y0055709D01*
X0002854Y0053611D02*
X0002854Y0053611D01*
X0001280Y0052959D02*
X0001280Y0052959D01*
X0001280Y0052959D02*
Y0054263D01*
X0002854Y0054263D02*
X0003316Y0054724D01*
X0003937D02*
X0004331Y0055118D01*
X0000818Y0054724D02*
X0001280Y0054263D01*
X0001280Y0048167D02*
Y0052959D01*
X0002854Y0053611D02*
Y0054263D01*
X-0000197Y0055118D02*
X0000197Y0054724D01*
D16*
X0032821Y-0048665D02*
G03*
X0024637Y-0044291I-0008184J-0005469D01*
G01*
X0038839Y0052147D02*
G03*
X0035869Y0051344I0000531J-0007857D01*
G01*
X-0024638Y-0044291D02*
G03*
X-0032821Y-0048665I0000000J-0009843D01*
G01*
X0032821Y-0048665D02*
G03*
X0043996Y-0037917I0006548J0004375D01*
G01*
X-0038878Y0052150D02*
G03*
X-0038839Y0052147I0000253J0003589D01*
G01*
X0021654Y0059953D02*
G03*
X0035869Y0051344I0009840J0000208D01*
G01*
X-0012874Y-0048228D02*
G03*
X-0016811Y-0044291I-0003938J-0000001D01*
G01*
X0042484Y-0033795D02*
G03*
X0043996Y-0037917I0003814J-0000939D01*
G01*
X-0038878Y0052150D02*
G03*
X-0043996Y0037917I-0000492J-0007859D01*
G01*
X0021654Y0085628D02*
G03*
X0017715Y0089567I-0003938J0000000D01*
G01*
X-0042484Y0033795D02*
G03*
X-0043996Y0037917I-0003814J0000939D01*
G01*
X-0017715Y0089567D02*
G03*
X-0021654Y0085628I0000000J-0003938D01*
G01*
X-0012874Y-0064177D02*
G03*
X-0009728Y-0067323I0003145J-0000000D01*
G01*
X0043996Y0037917D02*
G03*
X0042484Y0033795I0002302J-0003183D01*
G01*
X-0021654Y0059841D02*
G03*
X-0021654Y0059953I-0007879J0000117D01*
G01*
X0009728Y-0067323D02*
G03*
X0012874Y-0064177I0000000J0003145D01*
G01*
X-0043996Y-0037917D02*
G03*
X-0042484Y-0033795I-0002302J0003183D01*
G01*
X0043996Y0037917D02*
G03*
X0038878Y0052150I-0004626J0006373D01*
G01*
X0016811Y-0044291D02*
G03*
X0012874Y-0048228I0000001J-0003938D01*
G01*
X-0043996Y-0037917D02*
G03*
X-0047216Y-0043630I0004647J-0006384D01*
G01*
X-0035868Y0051344D02*
G03*
X-0021654Y0059841I0004377J0008816D01*
G01*
X-0047216Y-0043630D02*
G03*
X-0032821Y-0048665I0007848J-0000659D01*
G01*
X0038839Y0052147D02*
G03*
X0038878Y0052150I-0000214J0003592D01*
G01*
X-0035868Y0051344D02*
G03*
X-0038839Y0052147I-0003502J-0007054D01*
G01*
X-0012874Y-0064177D02*
Y-0048228D01*
X0042783Y-0032539D02*
X0042929Y-0031905D01*
X-0043213Y-0030630D02*
X-0043071Y-0031268D01*
X0043614Y-0028697D02*
X0043744Y-0028047D01*
X-0044110Y-0026087D02*
X-0043992Y-0026744D01*
X0044866Y-0021433D02*
X0044961Y-0020760D01*
X-0045228Y-0018728D02*
X-0045142Y-0019406D01*
X0045394Y-0017366D02*
X0045469Y-0016685D01*
X-0045681Y-0014630D02*
X-0045614Y-0015315D01*
X0045807Y-0013252D02*
X0045866Y-0012559D01*
X-0046024Y-0010480D02*
X-0045976Y-0011177D01*
X0046114Y-0009091D02*
X0046154Y-0008394D01*
X-0046252Y-0006303D02*
X-0046220Y-0007000D01*
X0046323Y0004205D02*
X0046343Y0003504D01*
X-0046303Y0004905D02*
X-0046279Y0005602D01*
X0046154Y0008394D02*
X0046189Y0007697D01*
X-0046114Y0009091D02*
X-0046071Y0009787D01*
X0045866Y0012559D02*
X0045921Y0011866D01*
X-0045811Y0013252D02*
X-0045748Y0013941D01*
X0044453Y0024102D02*
X0044559Y0023437D01*
X-0044228Y0025429D02*
X-0044110Y0026087D01*
X0043744Y0028047D02*
X0043870Y0027398D01*
X-0043484Y0029342D02*
X-0043350Y0029988D01*
X0042929Y0031905D02*
X0043071Y0031268D01*
X-0042634Y0033169D02*
X-0042484Y0033795D01*
X-0009728Y-0067323D02*
X0009728D01*
X-0043071Y-0031268D02*
X-0042929Y-0031905D01*
X-0043992Y-0026744D02*
X-0043870Y-0027398D01*
X0044342Y-0024768D02*
X0044453Y-0024102D01*
X-0044665Y-0022772D02*
X-0044559Y-0023437D01*
X0044961Y-0020760D02*
X0045055Y-0020083D01*
X0045469Y-0016685D02*
X0045543Y-0016000D01*
X0045866Y-0012559D02*
X0045921Y-0011866D01*
X-0045976Y-0011177D02*
X-0045921Y-0011866D01*
X-0046220Y-0007000D02*
X-0046189Y-0007697D01*
X0046303Y-0004905D02*
X0046323Y-0004205D01*
X-0046354Y-0002803D02*
X-0046343Y-0003504D01*
X0046378Y-0000701D02*
X0046382Y0000000D01*
X-0046378Y0000701D02*
X-0046374Y0001402D01*
X0046303Y0004905D02*
X0046323Y0004205D01*
X0046114Y0009091D02*
X0046154Y0008394D01*
X-0046154D02*
X-0046114Y0009091D01*
X-0045866Y0012559D02*
X-0045811Y0013252D01*
X0045469Y0016685D02*
X0045543Y0016000D01*
X-0045394Y0017366D02*
X-0045311Y0018051D01*
X0044961Y0020760D02*
X0045055Y0020083D01*
X-0044866Y0021433D02*
X-0044768Y0022102D01*
X0044342Y0024768D02*
X0044453Y0024102D01*
X0043614Y0028697D02*
X0043744Y0028047D01*
X-0043614Y0028697D02*
X-0043484Y0029342D01*
X-0042783Y0032539D02*
X-0042634Y0033169D01*
X0042929Y-0031905D02*
X0043071Y-0031268D01*
X-0042929Y-0031905D02*
X-0042783Y-0032539D01*
X0043744Y-0028047D02*
X0043870Y-0027398D01*
X-0043870D02*
X-0043744Y-0028047D01*
X0044453Y-0024102D02*
X0044559Y-0023437D01*
X-0044559D02*
X-0044453Y-0024102D01*
X0045055Y-0020083D02*
X0045142Y-0019406D01*
X-0045142D02*
X-0045055Y-0020083D01*
X-0045614Y-0015315D02*
X-0045543Y-0016000D01*
X0046154Y-0008394D02*
X0046189Y-0007697D01*
X-0046189D02*
X-0046154Y-0008394D01*
X0046323Y-0004205D02*
X0046343Y-0003504D01*
X-0046343D02*
X-0046323Y-0004205D01*
X0046378Y0000701D02*
X0046382Y0000000D01*
X0046374Y0001402D02*
X0046378Y0000701D01*
X-0046382Y0000000D02*
X-0046378Y0000701D01*
X-0046323Y0004205D02*
X-0046303Y0004905D01*
X0045807Y0013252D02*
X0045866Y0012559D01*
X0045394Y0017366D02*
X0045469Y0016685D01*
X-0045469D02*
X-0045394Y0017366D01*
X0044866Y0021433D02*
X0044961Y0020760D01*
X-0044961D02*
X-0044866Y0021433D01*
X0044228Y0025429D02*
X0044342Y0024768D01*
X-0044342D02*
X-0044228Y0025429D01*
X0042783Y0032539D02*
X0042929Y0031905D01*
X0012874Y-0064177D02*
Y-0048228D01*
X0043071Y-0031268D02*
X0043213Y-0030630D01*
X0043870Y-0027398D02*
X0043992Y-0026744D01*
X-0044453Y-0024102D02*
X-0044342Y-0024768D01*
X0044559Y-0023437D02*
X0044665Y-0022772D01*
X-0045055Y-0020083D02*
X-0044961Y-0020760D01*
X0045543Y-0016000D02*
X0045614Y-0015315D01*
X-0045543Y-0016000D02*
X-0045469Y-0016685D01*
X0045921Y-0011866D02*
X0045976Y-0011177D01*
X-0045921Y-0011866D02*
X-0045866Y-0012559D01*
X0046189Y-0007697D02*
X0046220Y-0007000D01*
X0046343Y-0003504D02*
X0046354Y-0002803D01*
X-0046382Y0000000D02*
X-0046378Y-0000701D01*
X-0046343Y0003504D02*
X-0046323Y0004205D01*
X0046279Y0005602D02*
X0046303Y0004905D01*
X-0046189Y0007697D02*
X-0046154Y0008394D01*
X0046071Y0009787D02*
X0046114Y0009091D01*
X-0045921Y0011866D02*
X-0045866Y0012559D01*
X0045748Y0013941D02*
X0045807Y0013252D01*
X0045311Y0018051D02*
X0045394Y0017366D01*
X-0045055Y0020083D02*
X-0044961Y0020760D01*
X-0044453Y0024102D02*
X-0044342Y0024768D01*
X0043484Y0029342D02*
X0043614Y0028697D01*
X-0043744Y0028047D02*
X-0043614Y0028697D01*
X0042634Y0033169D02*
X0042783Y0032539D01*
X-0042929Y0031905D02*
X-0042783Y0032539D01*
X0016811Y-0044291D02*
X0024637D01*
X-0042783Y-0032539D02*
X-0042634Y-0033169D01*
X0043213Y-0030630D02*
X0043350Y-0029988D01*
X-0043614Y-0028697D02*
X-0043484Y-0029342D01*
X-0043744Y-0028047D02*
X-0043614Y-0028697D01*
X0045142Y-0019406D02*
X0045228Y-0018728D01*
X-0045469Y-0016685D02*
X-0045394Y-0017366D01*
X0045614Y-0015315D02*
X0045681Y-0014630D01*
X-0045866Y-0012559D02*
X-0045811Y-0013252D01*
X0045976Y-0011177D02*
X0046024Y-0010480D01*
X-0046154Y-0008394D02*
X-0046114Y-0009091D01*
X0046220Y-0007000D02*
X0046252Y-0006303D01*
X-0046323Y-0004205D02*
X-0046303Y-0004905D01*
X0046366Y0002102D02*
X0046374Y0001402D01*
X-0046354Y0002803D02*
X-0046343Y0003504D01*
X0046252Y0006303D02*
X0046279Y0005602D01*
X-0046220Y0007000D02*
X-0046189Y0007697D01*
X0046024Y0010480D02*
X0046071Y0009787D01*
X-0045976Y0011177D02*
X-0045921Y0011866D01*
X0045681Y0014630D02*
X0045748Y0013941D01*
X-0045543Y0016000D02*
X-0045469Y0016685D01*
X0044768Y0022102D02*
X0044866Y0021433D01*
X-0044559Y0023437D02*
X-0044453Y0024102D01*
X0044110Y0026087D02*
X0044228Y0025429D01*
X-0043870Y0027398D02*
X-0043744Y0028047D01*
X0043350Y0029988D02*
X0043484Y0029342D01*
X-0043071Y0031268D02*
X-0042929Y0031905D01*
X0042484Y0033795D02*
X0042634Y0033169D01*
X0042484Y-0033795D02*
X0042634Y-0033169D01*
X-0042634D02*
X-0042484Y-0033795D01*
X-0043484Y-0029342D02*
X-0043350Y-0029988D01*
X0043992Y-0026744D02*
X0044110Y-0026087D01*
X-0044342Y-0024768D02*
X-0044228Y-0025429D01*
X0044665Y-0022772D02*
X0044768Y-0022102D01*
X-0044961Y-0020760D02*
X-0044866Y-0021433D01*
X0045228Y-0018728D02*
X0045311Y-0018051D01*
X0045681Y-0014630D02*
X0045748Y-0013941D01*
X-0045811Y-0013252D02*
X-0045748Y-0013941D01*
X-0046114Y-0009091D02*
X-0046071Y-0009787D01*
X-0046303Y-0004905D02*
X-0046279Y-0005602D01*
X0046354Y-0002803D02*
X0046366Y-0002102D01*
X-0046378Y-0000701D02*
X-0046374Y-0001402D01*
X0046354Y0002803D02*
X0046366Y0002102D01*
X0046220Y0007000D02*
X0046252Y0006303D01*
X-0046024Y0010480D02*
X-0045976Y0011177D01*
X-0045681Y0014630D02*
X-0045614Y0015315D01*
X-0045543Y0016000D01*
X0045228Y0018728D02*
X0045311Y0018051D01*
X-0045142Y0019406D02*
X-0045055Y0020083D01*
X0044665Y0022772D02*
X0044768Y0022102D01*
X0043992Y0026744D02*
X0044110Y0026087D01*
X0043213Y0030630D02*
X0043350Y0029988D01*
X-0043213Y0030630D02*
X-0043071Y0031268D01*
X-0017715Y0089567D02*
X0017715D01*
X0043350Y-0029988D02*
X0043484Y-0029342D01*
X-0043350Y-0029988D02*
X-0043213Y-0030630D01*
X0044110Y-0026087D02*
X0044228Y-0025429D01*
X-0044228D02*
X-0044110Y-0026087D01*
X0044768Y-0022102D02*
X0044866Y-0021433D01*
X-0044866D02*
X-0044768Y-0022102D01*
X0045311Y-0018051D02*
X0045394Y-0017366D01*
X-0045394D02*
X-0045311Y-0018051D01*
X0046024Y-0010480D02*
X0046071Y-0009787D01*
X0046252Y-0006303D02*
X0046279Y-0005602D01*
X-0046279D02*
X-0046252Y-0006303D01*
X0046366Y-0002102D02*
X0046374Y-0001402D01*
X-0046374D02*
X-0046366Y-0002102D01*
X0046343Y0003504D02*
X0046354Y0002803D01*
X-0046366Y0002102D02*
X-0046354Y0002803D01*
X-0046252Y0006303D02*
X-0046220Y0007000D01*
X0045976Y0011177D02*
X0046024Y0010480D01*
X0045614Y0015315D02*
X0045681Y0014630D01*
X-0045748Y0013941D02*
X-0045681Y0014630D01*
X0045142Y0019406D02*
X0045228Y0018728D01*
X-0045228D02*
X-0045142Y0019406D01*
X0044559Y0023437D02*
X0044665Y0022772D01*
X-0044665D02*
X-0044559Y0023437D01*
X-0043992Y0026744D02*
X-0043870Y0027398D01*
X0021654Y0059953D02*
Y0085628D01*
X-0021654Y0059953D02*
Y0085628D01*
X-0024638Y-0044291D02*
X-0016811D01*
X0042634Y-0033169D02*
X0042783Y-0032539D01*
X0043484Y-0029342D02*
X0043614Y-0028697D01*
X0044228Y-0025429D02*
X0044342Y-0024768D01*
X-0044768Y-0022102D02*
X-0044665Y-0022772D01*
X-0045311Y-0018051D02*
X-0045228Y-0018728D01*
X0045748Y-0013941D02*
X0045807Y-0013252D01*
X-0045748Y-0013941D02*
X-0045681Y-0014630D01*
X0046071Y-0009787D02*
X0046114Y-0009091D01*
X-0046071Y-0009787D02*
X-0046024Y-0010480D01*
X0046279Y-0005602D02*
X0046303Y-0004905D01*
X-0046366Y-0002102D02*
X-0046354Y-0002803D01*
X0046374Y-0001402D02*
X0046378Y-0000701D01*
X-0046374Y0001402D02*
X-0046366Y0002102D01*
X-0046279Y0005602D02*
X-0046252Y0006303D01*
X0046189Y0007697D02*
X0046220Y0007000D01*
X-0046071Y0009787D02*
X-0046024Y0010480D01*
X0045921Y0011866D02*
X0045976Y0011177D01*
X0045543Y0016000D02*
X0045614Y0015315D01*
X-0045311Y0018051D02*
X-0045228Y0018728D01*
X0045055Y0020083D02*
X0045142Y0019406D01*
X-0044768Y0022102D02*
X-0044665Y0022772D01*
X0043870Y0027398D02*
X0043992Y0026744D01*
X-0044110Y0026087D02*
X-0043992Y0026744D01*
X0043071Y0031268D02*
X0043213Y0030630D01*
X-0043350Y0029988D02*
X-0043213Y0030630D01*
D17*
X0013730Y0022933D02*
D03*
Y0021358D02*
D03*
Y0019783D02*
D03*
Y0018209D02*
D03*
Y0016634D02*
D03*
Y0015059D02*
D03*
Y0013484D02*
D03*
Y0011909D02*
D03*
Y0010335D02*
D03*
Y0008760D02*
D03*
Y0007185D02*
D03*
Y0005610D02*
D03*
Y0004035D02*
D03*
Y0002461D02*
D03*
X-0013337Y0022933D02*
D03*
Y0021358D02*
D03*
Y0019783D02*
D03*
Y0018209D02*
D03*
Y0016634D02*
D03*
Y0015059D02*
D03*
Y0013484D02*
D03*
Y0011909D02*
D03*
Y0010335D02*
D03*
Y0008760D02*
D03*
Y0007185D02*
D03*
Y0005610D02*
D03*
Y0004035D02*
D03*
Y0002461D02*
D03*
D18*
X0010433Y0026230D02*
D03*
X0008858D02*
D03*
X0007283D02*
D03*
X0005709D02*
D03*
X0004134D02*
D03*
X0002559D02*
D03*
X0000984D02*
D03*
X-0000591D02*
D03*
X0002559Y-0000837D02*
D03*
X0004134D02*
D03*
X0000984D02*
D03*
X0005709D02*
D03*
X0008858D02*
D03*
X0007283D02*
D03*
X0010433D02*
D03*
X-0002165Y0026230D02*
D03*
X-0003740D02*
D03*
X-0006890D02*
D03*
X-0008465D02*
D03*
X-0010039D02*
D03*
X-0005315D02*
D03*
X-0000591Y-0000837D02*
D03*
X-0002165D02*
D03*
X-0003740D02*
D03*
X-0006890D02*
D03*
X-0005315D02*
D03*
X-0008465D02*
D03*
X-0010039D02*
D03*
D19*
X0006988Y0049114D02*
D03*
X0010925D02*
D03*
X-0002988Y0045929D02*
D03*
X-0006925D02*
D03*
X-0039469Y-0010630D02*
D03*
X-0043406D02*
D03*
X0026427Y0025669D02*
D03*
X0022490D02*
D03*
X0039272Y0003051D02*
D03*
X0043209D02*
D03*
X0038817Y0028890D02*
D03*
X0034880D02*
D03*
X0026476Y0031102D02*
D03*
X0030413D02*
D03*
D21*
X0013484Y0063878D02*
D03*
X0010335D02*
D03*
X0005020D02*
D03*
X-0006791D02*
D03*
X-0010138D02*
D03*
X-0004823D02*
D03*
X0001083D02*
D03*
X0006988D02*
D03*
X0003051Y0063856D02*
D03*
X-0000886Y0063878D02*
D03*
X-0002854D02*
D03*
X-0008957D02*
D03*
X0012303D02*
D03*
X0009154D02*
D03*
X-0012106D02*
D03*
X-0013287D02*
D03*
D22*
X-0009843Y-0020177D02*
D03*
X-0017323D02*
D03*
X-0013583Y-0028051D02*
D03*
D23*
X-0025965Y-0003051D02*
D03*
X-0030965D02*
D03*
X-0035965D02*
D03*
X-0040965D02*
D03*
Y0024508D02*
D03*
X-0035965D02*
D03*
X-0030965D02*
D03*
X-0025965D02*
D03*
D24*
X-0015551Y0038386D02*
D03*
X-0023031D02*
D03*
Y0047835D02*
D03*
X-0019291D02*
D03*
X-0015551D02*
D03*
D25*
X0001673Y-0010925D02*
D03*
Y-0014862D02*
D03*
X-0034437Y-0014575D02*
D03*
Y-0010638D02*
D03*
X0019291Y-0000197D02*
D03*
Y0003740D02*
D03*
X0025984Y0013091D02*
D03*
Y0017028D02*
D03*
X0043307Y0011909D02*
D03*
Y0007972D02*
D03*
X0002434Y0039244D02*
D03*
Y0035307D02*
D03*
X0007283Y0039272D02*
D03*
Y0035335D02*
D03*
X-0018563Y-0037205D02*
D03*
Y-0033268D02*
D03*
X0002067Y-0025000D02*
D03*
Y-0028937D02*
D03*
X-0002165Y-0025000D02*
D03*
Y-0028937D02*
D03*
X-0007087Y-0032283D02*
D03*
Y-0036220D02*
D03*
D26*
X0002583Y-0019441D02*
D03*
X-0001354D02*
D03*
X-0040157Y0031693D02*
D03*
X-0036220D02*
D03*
X-0027362Y-0037205D02*
D03*
X-0023425D02*
D03*
X0023213Y0008752D02*
D03*
X0019276D02*
D03*
X0010236Y-0012500D02*
D03*
X0006299D02*
D03*
X0018011Y0029182D02*
D03*
X0014074D02*
D03*
X0012795Y-0007776D02*
D03*
X0008858D02*
D03*
X0015650Y0034252D02*
D03*
X0011713D02*
D03*
D27*
X-0026083Y-0015748D02*
D03*
Y-0011811D02*
D03*
X-0010630Y0042421D02*
D03*
Y0038484D02*
D03*
X-0027756Y0043799D02*
D03*
Y0047736D02*
D03*
X-0019608Y0020602D02*
D03*
Y0024539D02*
D03*
X-0019783Y0003839D02*
D03*
Y0007776D02*
D03*
X-0001181Y0038780D02*
D03*
Y0034843D02*
D03*
X-0005807Y0039173D02*
D03*
Y0035236D02*
D03*
D28*
X-0013681Y-0041339D02*
D03*
Y-0035827D02*
D03*
D29*
X-0039567Y-0020669D02*
D03*
X-0023228D02*
D03*
X-0039567Y-0029134D02*
D03*
X-0023228D02*
D03*
X0037106Y-0032087D02*
D03*
X0020768D02*
D03*
X0037106Y-0023622D02*
D03*
X0020768D02*
D03*
D30*
X0010925Y-0030709D02*
D03*
Y-0019488D02*
D03*
D31*
X0024508Y0003937D02*
D03*
Y-0003543D02*
D03*
X0033563Y0000197D02*
D03*
D32*
X0002165Y-0038976D02*
D03*
Y-0033071D02*
D03*
X-0002165D02*
D03*
Y-0038976D02*
D03*
D34*
X0038780Y0022835D02*
D03*
X0035039D02*
D03*
X0031299D02*
D03*
Y0012008D02*
D03*
X0035039D02*
D03*
X0038780D02*
D03*
D35*
X-0005118Y-0010827D02*
D03*
X-0019685D02*
D03*
D48*
X-0005000Y-0054134D02*
D03*
D49*
X0005000Y-0055118D02*
D03*
X0000000D02*
D03*
D63*
X-0005000Y-0046457D02*
D03*
X0000000D02*
D03*
X0005000D02*
D03*
X0030906Y-0011609D02*
D03*
Y-0018209D02*
D03*
X0025905D02*
D03*
X0035906Y-0011609D02*
D03*
D66*
X0000197Y0012697D02*
D03*
D67*
X0004331Y0055709D02*
D03*
X0007087D02*
D03*
X-0002953Y0055709D02*
D03*
X-0000197D02*
D03*
X-0012303Y0056791D02*
D03*
X-0009547D02*
D03*
X0008071Y-0040453D02*
D03*
X0010827D02*
D03*
D68*
X-0008937Y-0039370D02*
D03*
Y-0042126D02*
D03*
D69*
X0002559Y-0003489D02*
Y0002211D01*
X0002575Y-0004942D02*
Y-0003505D01*
X0002559Y-0003489D02*
X0002575Y-0003505D01*
X0002559Y0002211D02*
X0003628Y0003280D01*
X0002575Y-0004942D02*
X0005408Y-0007776D01*
X-0005413Y-0000738D02*
X-0005315Y-0000837D01*
X-0008530Y-0000771D02*
X-0008465Y-0000837D01*
X-0005413Y-0000738D02*
Y0001693D01*
X-0008530Y-0000771D02*
Y0002178D01*
X-0008595Y0002243D02*
X-0008530Y0002178D01*
X-0005739Y0002019D02*
X-0005413Y0001693D01*
X-0005739Y0002019D02*
Y0002392D01*
X0011017Y0049206D02*
Y0055336D01*
X0006513Y0058361D02*
X0007992D01*
X0011017Y0055336D01*
X0010925Y0049016D02*
X0011417Y0048524D01*
X0011516D01*
X0017945Y0041405D02*
Y0042094D01*
X0010925Y0049016D02*
Y0049114D01*
X0011516Y0048524D02*
X0017945Y0042094D01*
Y0041405D02*
X0018209Y0041142D01*
X-0001476Y0031320D02*
Y0031693D01*
X-0006962Y0045941D02*
X-0006892Y0046012D01*
X-0006858Y0048167D02*
Y0063715D01*
Y0045996D02*
Y0048167D01*
X0011575Y0018209D02*
X0013730D01*
X0010365Y0019046D02*
X0010738D01*
X0013730Y0018209D02*
X0013730Y0018209D01*
X0010738Y0019046D02*
X0011575Y0018209D01*
X0003628Y0003280D02*
Y0003653D01*
X0004134Y-0000837D02*
Y0001097D01*
X0005636Y0002598D01*
X0035039Y0006650D02*
Y0012008D01*
X0036576Y0005113D02*
X0037309D01*
X0039272Y0003150D01*
Y0003051D02*
Y0003150D01*
X0035039Y0006650D02*
X0036576Y0005113D01*
X0024915Y-0023376D02*
X0026074Y-0022218D01*
X0022195Y-0023376D02*
X0024915D01*
X0021949Y-0023622D02*
X0022195Y-0023376D01*
X0026074Y-0022218D02*
Y-0018377D01*
X0025905Y-0018209D02*
X0026074Y-0018377D01*
X0026237Y-0022055D02*
X0027803Y-0023622D01*
X0037106D01*
X-0006981Y0022893D02*
Y0026139D01*
X-0006890Y0026230D01*
X-0007072Y0022802D02*
X-0006981Y0022893D01*
X0009817Y0031877D02*
Y0032149D01*
X0007283Y0029823D02*
X0008046Y0030586D01*
X0009817Y0032149D02*
X0011287Y0033619D01*
X0008153Y0030586D02*
X0009444Y0031877D01*
X0008046Y0030586D02*
X0008153D01*
X0009444Y0031877D02*
X0009817D01*
X-0006892Y0046012D02*
Y0048133D01*
X-0006858Y0048167D01*
X0002583Y-0019441D02*
Y-0015674D01*
X0001772Y-0014862D02*
X0002583Y-0015674D01*
X0020272Y0010935D02*
X0021184Y0011847D01*
X0020092Y0019693D02*
X0021873Y0021474D01*
X0018046Y0019693D02*
X0020092D01*
X0018570Y0021858D02*
X0018943D01*
X0014961Y0021358D02*
X0018071D01*
X0018570Y0021858D01*
X0017956Y0019783D02*
X0018046Y0019693D01*
X0013730Y0019783D02*
X0017956D01*
X0031299Y0006841D02*
X0033563Y0004577D01*
Y0000197D02*
Y0004577D01*
X0031299Y0006841D02*
Y0012008D01*
X0006304Y-0034508D02*
Y-0012406D01*
X0004478Y-0036333D02*
X0006304Y-0034508D01*
X0013730Y0016634D02*
X0013730Y0016634D01*
X0011797Y0016634D02*
X0013730D01*
X0010236Y0015073D02*
X0011797Y0016634D01*
X0010236Y0014874D02*
Y0015073D01*
X0021873Y0021474D02*
X0022246D01*
X0010925Y0049114D02*
X0011017Y0049206D01*
X-0006925Y0045929D02*
X-0006858Y0045996D01*
Y0063715D02*
X-0006743Y0063830D01*
X0005408Y-0007776D02*
X0008858D01*
X-0011220Y0008760D02*
X-0009756Y0007295D01*
Y0005376D02*
Y0007295D01*
X-0013337Y0008760D02*
X-0011220D01*
X0001673Y-0014862D02*
X0001772D01*
X0006693Y-0005285D02*
Y-0005014D01*
X0005715Y-0004035D02*
X0006693Y-0005014D01*
X0005636Y0002598D02*
X0010140D01*
X0005715Y-0004035D02*
Y-0000843D01*
X0005709Y-0000837D02*
X0005715Y-0000843D01*
X-0000591Y-0008661D02*
X0001083Y-0010335D01*
X0001575Y-0010925D02*
X0001673D01*
X0001083Y-0010433D02*
X0001575Y-0010925D01*
X0001083Y-0010433D02*
Y-0010335D01*
X-0000591Y-0008661D02*
Y-0000837D01*
X-0015931Y-0005695D02*
X-0010356D01*
X-0019193Y-0008957D02*
X-0015931Y-0005695D01*
X-0010356D02*
X-0008583Y-0003922D01*
X-0002742D01*
X-0002165Y-0003345D02*
Y-0000837D01*
X-0002742Y-0003922D02*
X-0002165Y-0003345D01*
X-0019193Y-0010827D02*
Y-0008957D01*
X-0021277Y0028297D02*
X-0010616D01*
X-0021513Y0028061D02*
X-0021277Y0028297D01*
X-0005315Y0026230D02*
Y0028164D01*
X-0007378Y0030226D02*
X-0005315Y0028164D01*
X-0006939Y-0027605D02*
X-0006791Y-0027457D01*
X-0007087Y-0032283D02*
X-0006939Y-0032136D01*
Y-0027605D01*
X-0010749Y-0024627D02*
X-0009146D01*
X-0013583Y-0028642D02*
Y-0027461D01*
X-0010749Y-0024627D01*
X-0009146D02*
X-0009053Y-0024534D01*
X-0012185Y-0003155D02*
X-0011922Y-0003419D01*
X-0016709Y0000672D02*
X-0012881Y-0003155D01*
X-0012185D01*
X-0016709Y0000672D02*
Y0005005D01*
X0007283Y-0002770D02*
X0008939Y-0004426D01*
X0007283Y-0002770D02*
Y-0000837D01*
X0008939Y-0004426D02*
X0010169D01*
X0010433Y-0004689D01*
X0004478Y-0036368D02*
Y-0036333D01*
X0023795Y0015027D02*
X0025304Y0016535D01*
X0014961Y0015027D02*
X0023795D01*
X0025492Y0016535D02*
X0025984Y0017028D01*
X0025304Y0016535D02*
X0025492D01*
X-0040965Y-0001083D02*
X-0039305Y0000577D01*
Y0016828D01*
X-0017434Y0008760D02*
X-0017434Y0008760D01*
X-0013337D01*
X-0019685Y0007776D02*
X-0018701Y0008760D01*
X-0017434D01*
X-0020177Y0007776D02*
X-0019685D01*
X-0016709Y0005005D02*
X-0016103Y0005610D01*
X-0012205Y0002461D02*
X-0012106Y0002362D01*
Y0001161D02*
Y0002362D01*
X-0013337Y0002461D02*
X-0012205D01*
X-0012106Y0001161D02*
X-0012087Y0001142D01*
X-0016103Y0005610D02*
X-0013337D01*
X0026452Y0025595D02*
Y0031078D01*
X0026476Y0031102D01*
X0026427Y0025571D02*
X0026452Y0025595D01*
X-0025965Y0024508D02*
X-0025276Y0025197D01*
Y0027361D01*
X-0022410Y0030226D01*
X-0031653Y-0000394D02*
X-0030965Y-0001083D01*
X-0032836Y0000183D02*
Y0019408D01*
X-0030965Y-0003051D02*
Y-0001083D01*
X-0032260Y-0000394D02*
X-0031653D01*
X-0032836Y0000183D02*
X-0032260Y-0000394D01*
X-0036076Y-0002940D02*
Y0019075D01*
Y-0002940D02*
X-0035965Y-0003051D01*
X-0036188Y0019186D02*
X-0036076Y0019075D01*
X-0040965Y-0005020D02*
Y-0001083D01*
X-0010039Y0026230D02*
Y0027721D01*
X-0010616Y0028297D02*
X-0010039Y0027721D01*
X-0022410Y0030226D02*
X-0007378D01*
X-0025738Y0031703D02*
X-0006766D01*
X-0030965Y0026476D02*
X-0025738Y0031703D01*
X-0006766D02*
X-0003740Y0028677D01*
X-0035965Y0026476D02*
X-0029173Y0033268D01*
X-0006243D01*
X-0004935Y0034744D02*
X-0003065Y0032874D01*
X-0005610Y0034744D02*
X-0004935D01*
X-0005807Y0034941D02*
X-0005610Y0034744D01*
X-0006243Y0033268D02*
X-0002157Y0029182D01*
X-0003740Y0026230D02*
Y0028677D01*
X-0035965Y0024508D02*
Y0026476D01*
X-0030965Y0024508D02*
Y0026476D01*
X-0001476Y0031320D02*
X-0000591Y0030434D01*
X-0039469Y-0010630D02*
Y-0006516D01*
Y-0010638D02*
X-0034437D01*
X-0040965Y-0005020D02*
X-0039469Y-0006516D01*
X0019193Y-0000197D02*
X0019390D01*
X0013730Y0004035D02*
X0015993D01*
X0016570Y0002426D02*
X0019193Y-0000197D01*
X0015993Y0004035D02*
X0016570Y0003459D01*
Y0002426D02*
Y0003459D01*
X0023720Y0003248D02*
X0024459Y0003986D01*
X0022835Y0003248D02*
X0023720D01*
X0019390Y-0000197D02*
X0022835Y0003248D01*
X0019276Y0003756D02*
X0019291Y0003740D01*
X0019276Y0003756D02*
Y0008752D01*
X0019272Y0008756D02*
X0019276Y0008752D01*
X-0003030Y0032874D02*
X-0001784Y0031628D01*
X-0001541D01*
X-0000591Y0027461D02*
Y0030434D01*
X-0003065Y0032874D02*
X-0003030D01*
X-0002157Y0026239D02*
Y0029182D01*
X0026427Y0025571D02*
X0026919Y0025078D01*
X0027018D02*
X0029218Y0022878D01*
X0031256D01*
X0031299Y0022835D01*
X0026919Y0025078D02*
X0027018D01*
X0007283Y0026230D02*
Y0029823D01*
X0000192Y-0022809D02*
X0000456Y-0023073D01*
Y-0023487D02*
X0001969Y-0025000D01*
X0000456Y-0023487D02*
Y-0023073D01*
X0001969Y-0025000D02*
X0002067D01*
X0005020Y0059854D02*
X0006513Y0058361D01*
X0005020Y0059854D02*
Y0063878D01*
X-0002165Y0026230D02*
X-0002157Y0026239D01*
X-0004049Y-0023215D02*
X-0002264Y-0025000D01*
X-0004049Y-0023215D02*
Y-0023078D01*
X-0002264Y-0025000D02*
X-0002165D01*
X-0035851Y-0020669D02*
X-0034437Y-0019255D01*
X-0040059Y-0020669D02*
X-0035851D01*
X-0034437Y-0014575D02*
X-0034338D01*
X-0033488Y-0020669D02*
X-0023720D01*
X-0034437Y-0019255D02*
Y-0014575D01*
Y-0019720D02*
Y-0019255D01*
Y-0019720D02*
X-0033488Y-0020669D01*
X-0004475Y-0036372D02*
X-0002165Y-0038681D01*
X-0006936Y-0036372D02*
X-0004475D01*
X-0002165Y-0038976D02*
Y-0038681D01*
X0002067Y-0032776D02*
Y-0030020D01*
X-0007087Y-0036220D02*
X-0006936Y-0036372D01*
X-0002165Y-0032776D02*
Y-0030020D01*
X0001969Y-0028839D02*
X0002067Y-0028937D01*
X-0018465Y-0033268D02*
X-0014527Y-0029331D01*
X-0014272D02*
X-0013583Y-0028642D01*
X-0018563Y-0033268D02*
X-0018465D01*
X-0014527Y-0029331D02*
X-0014272D01*
X0031299Y0012008D02*
Y0022835D01*
X0025984Y0013091D02*
X0026083D01*
X0026575Y0012584D02*
Y0012598D01*
Y0012584D02*
X0027151Y0012008D01*
X0026083Y0013091D02*
X0026575Y0012598D01*
X0027151Y0012008D02*
X0031299D01*
X0013734Y0008756D02*
X0019272D01*
X0013730Y0008760D02*
X0013734Y0008756D01*
D70*
X-0008834Y0036713D02*
Y0036787D01*
X-0010531Y0038484D02*
X-0008834Y0036787D01*
X-0010630Y0038484D02*
X-0010531D01*
X0019276Y0008752D02*
X0019571Y0009047D01*
Y0010234D02*
X0020272Y0010935D01*
X0019571Y0009047D02*
Y0010234D01*
X-0002461Y-0014862D02*
X0001673D01*
X-0005118Y-0012205D02*
X-0002461Y-0014862D01*
X-0005118Y-0012205D02*
Y-0010827D01*
X-0040311Y-0025000D02*
X-0021555D01*
X-0036220Y0031594D02*
Y0031693D01*
X-0036417Y0031988D02*
X-0033465Y0034941D01*
X-0040472Y0027392D02*
X-0036565Y0031299D01*
X-0036516D01*
X-0036220Y0031594D01*
X-0020079Y0007480D02*
X-0019783Y0007776D01*
X-0021555Y-0025000D02*
X-0017323Y-0020768D01*
X-0043620Y-0011227D02*
Y-0011024D01*
X-0040472Y0025000D02*
Y0027392D01*
X-0042412Y0004667D02*
Y0018086D01*
X-0040965Y0019533D01*
X-0043620Y0003459D02*
X-0042412Y0004667D01*
X-0040965Y0019533D02*
Y0024508D01*
X-0040472Y0025000D01*
X-0043620Y-0011024D02*
Y0003459D01*
Y-0011024D02*
X-0043110D01*
X-0017323Y-0020768D02*
Y-0020177D01*
X-0042421Y-0022889D02*
X-0040311Y-0025000D01*
X-0042421Y-0022889D02*
Y-0022832D01*
X-0043110Y-0011737D02*
X-0042815Y-0012033D01*
Y-0022438D02*
X-0042421Y-0022832D01*
X-0042815Y-0022438D02*
Y-0012033D01*
X-0043110Y-0011737D02*
Y-0011024D01*
X-0033465Y0034941D02*
X-0018406D01*
X-0015551Y0037795D01*
X-0010728Y0038386D02*
X-0010630Y0038484D01*
X-0015551Y0038386D02*
X-0010728D01*
D71*
X-0005413Y0018307D02*
D03*
X0000197D02*
D03*
X0005807D02*
D03*
X-0005413Y0012697D02*
D03*
X0005807D02*
D03*
X-0005413Y0007087D02*
D03*
X0000197D02*
D03*
X0005807D02*
D03*
X0000145Y0002529D02*
D03*
X-0005739Y0002392D02*
D03*
X-0008595Y0002243D02*
D03*
X0030488Y0043810D02*
D03*
X0018209Y0041142D02*
D03*
X0023819Y0031231D02*
D03*
X0002067Y0031255D02*
D03*
X0010365Y0019046D02*
D03*
X0037271Y0007480D02*
D03*
X0043307Y0000299D02*
D03*
X0017421Y-0032087D02*
D03*
X-0007072Y0022802D02*
D03*
X0009817Y0031877D02*
D03*
X-0008834Y0036713D02*
D03*
X-0006858Y0048167D02*
D03*
X-0035940Y-0029117D02*
D03*
X-0026083Y-0008072D02*
D03*
X0021184Y0011847D02*
D03*
X0018943Y0021858D02*
D03*
X0008188Y-0036122D02*
D03*
X0010971Y-0033661D02*
D03*
X-0029262Y0002611D02*
D03*
X-0027195Y0004811D02*
D03*
X-0023259Y0020669D02*
D03*
X-0016831D02*
D03*
X0010236Y0014874D02*
D03*
X0022246Y0021474D02*
D03*
X0008449Y0045420D02*
D03*
X0003628Y0003653D02*
D03*
X-0009756Y0005376D02*
D03*
X0006693Y-0005285D02*
D03*
X0010140Y0002598D02*
D03*
X-0021513Y0028061D02*
D03*
X-0022317Y-0024907D02*
D03*
X-0006791Y-0027457D02*
D03*
X-0009053Y-0024534D02*
D03*
X0000093Y-0017630D02*
D03*
X-0011869Y-0003419D02*
D03*
X0010433Y-0004689D02*
D03*
X-0027195Y0013949D02*
D03*
X-0027601Y0010619D02*
D03*
X-0028538Y0017807D02*
D03*
X-0039305Y0016828D02*
D03*
X-0012087Y0001142D02*
D03*
X0010834Y-0011727D02*
D03*
X-0036188Y0019186D02*
D03*
X-0015310Y0025960D02*
D03*
X-0032836Y0019422D02*
D03*
X-0012286Y0053408D02*
D03*
X-0001541Y0031628D02*
D03*
X0025295Y-0007079D02*
D03*
X0004478Y-0036368D02*
D03*
X-0002953Y0052826D02*
D03*
X0000192Y-0022809D02*
D03*
X-0004049Y-0023078D02*
D03*
X0000000Y-0057776D02*
D03*
D72*
X0017106Y0083937D02*
D03*
X-0016909D02*
D03*
D73*
X0017106Y0067480D02*
D03*
X-0016909D02*
D03*
D74*
X0039370Y-0044291D02*
D03*
X-0039370D02*
D03*
Y0044291D02*
D03*
X0039370D02*
D03*
D75*
X0035906Y-0018209D02*
D03*
M02*
