G04*
G04 #@! TF.GenerationSoftware,Altium Limited,Altium Designer,21.8.1 (53)*
G04*
G04 Layer_Color=8388736*
%FSAX25Y25*%
%MOIN*%
G70*
G04*
G04 #@! TF.SameCoordinates,7A0B2967-6A00-4F57-884A-72BECA2B0823*
G04*
G04*
G04 #@! TF.FilePolarity,Negative*
G04*
G01*
G75*
%ADD12C,0.00787*%
%ADD30R,0.04921X0.05906*%
G04:AMPARAMS|DCode=31|XSize=35.43mil|YSize=169.29mil|CornerRadius=13.82mil|HoleSize=0mil|Usage=FLASHONLY|Rotation=270.000|XOffset=0mil|YOffset=0mil|HoleType=Round|Shape=RoundedRectangle|*
%AMROUNDEDRECTD31*
21,1,0.03543,0.14165,0,0,270.0*
21,1,0.00780,0.16929,0,0,270.0*
1,1,0.02764,-0.07083,-0.00390*
1,1,0.02764,-0.07083,0.00390*
1,1,0.02764,0.07083,0.00390*
1,1,0.02764,0.07083,-0.00390*
%
%ADD31ROUNDEDRECTD31*%
G04:AMPARAMS|DCode=32|XSize=35.43mil|YSize=188.98mil|CornerRadius=13.82mil|HoleSize=0mil|Usage=FLASHONLY|Rotation=270.000|XOffset=0mil|YOffset=0mil|HoleType=Round|Shape=RoundedRectangle|*
%AMROUNDEDRECTD32*
21,1,0.03543,0.16134,0,0,270.0*
21,1,0.00780,0.18898,0,0,270.0*
1,1,0.02764,-0.08067,-0.00390*
1,1,0.02764,-0.08067,0.00390*
1,1,0.02764,0.08067,0.00390*
1,1,0.02764,0.08067,-0.00390*
%
%ADD32ROUNDEDRECTD32*%
%ADD33R,0.02165X0.02165*%
%ADD34R,0.03150X0.04724*%
%ADD35R,0.03347X0.05709*%
%ADD36R,0.04134X0.02953*%
%ADD37R,0.02756X0.02559*%
%ADD38R,0.02559X0.02756*%
%ADD39R,0.03150X0.01968*%
%ADD40R,0.01968X0.03150*%
%ADD41R,0.03740X0.03740*%
%ADD42R,0.02559X0.02756*%
%ADD43R,0.03543X0.02953*%
%ADD44R,0.04528X0.03347*%
%ADD45R,0.01575X0.06102*%
%ADD46R,0.04528X0.02953*%
%ADD47R,0.02953X0.03740*%
%ADD48R,0.02953X0.04134*%
%ADD49C,0.04370*%
%ADD50C,0.00591*%
%ADD51C,0.12205*%
G04:AMPARAMS|DCode=52|XSize=49.21mil|YSize=72.84mil|CornerRadius=22.44mil|HoleSize=0mil|Usage=FLASHONLY|Rotation=0.000|XOffset=0mil|YOffset=0mil|HoleType=Round|Shape=RoundedRectangle|*
%AMROUNDEDRECTD52*
21,1,0.04921,0.02795,0,0,0.0*
21,1,0.00433,0.07284,0,0,0.0*
1,1,0.04488,0.00217,-0.01398*
1,1,0.04488,-0.00217,-0.01398*
1,1,0.04488,-0.00217,0.01398*
1,1,0.04488,0.00217,0.01398*
%
%ADD52ROUNDEDRECTD52*%
G04:AMPARAMS|DCode=53|XSize=49.21mil|YSize=92.52mil|CornerRadius=22.44mil|HoleSize=0mil|Usage=FLASHONLY|Rotation=0.000|XOffset=0mil|YOffset=0mil|HoleType=Round|Shape=RoundedRectangle|*
%AMROUNDEDRECTD53*
21,1,0.04921,0.04764,0,0,0.0*
21,1,0.00433,0.09252,0,0,0.0*
1,1,0.04488,0.00217,-0.02382*
1,1,0.04488,-0.00217,-0.02382*
1,1,0.04488,-0.00217,0.02382*
1,1,0.04488,0.00217,0.02382*
%
%ADD53ROUNDEDRECTD53*%
G04:AMPARAMS|DCode=54|XSize=5.91mil|YSize=5.91mil|CornerRadius=0mil|HoleSize=0mil|Usage=FLASHONLY|Rotation=0.000|XOffset=0mil|YOffset=0mil|HoleType=Round|Shape=RoundedRectangle|*
%AMROUNDEDRECTD54*
21,1,0.00591,0.00591,0,0,0.0*
21,1,0.00591,0.00591,0,0,0.0*
1,1,0.00000,0.00295,-0.00295*
1,1,0.00000,-0.00295,-0.00295*
1,1,0.00000,-0.00295,0.00295*
1,1,0.00000,0.00295,0.00295*
%
%ADD54ROUNDEDRECTD54*%
%ADD55R,0.04961X0.04961*%
%ADD56C,0.04961*%
G36*
X0068599Y0167500D02*
X0068624D01*
X0068679Y0167475D01*
X0068710Y0167456D01*
X0068741Y0167432D01*
X0068747Y0167426D01*
X0068754Y0167419D01*
X0068785Y0167382D01*
X0068809Y0167320D01*
X0068815Y0167283D01*
X0068822Y0167246D01*
Y0167240D01*
Y0167227D01*
X0068815Y0167209D01*
X0068809Y0167184D01*
X0068791Y0167122D01*
X0068766Y0167091D01*
X0068741Y0167060D01*
X0068735D01*
X0068729Y0167048D01*
X0068692Y0167023D01*
X0068636Y0166998D01*
X0068599Y0166992D01*
X0068562Y0166986D01*
X0068543D01*
X0068525Y0166992D01*
X0068500D01*
X0068438Y0167017D01*
X0068407Y0167029D01*
X0068376Y0167054D01*
Y0167060D01*
X0068364Y0167066D01*
X0068351Y0167085D01*
X0068339Y0167104D01*
X0068314Y0167166D01*
X0068308Y0167203D01*
X0068302Y0167246D01*
Y0167252D01*
Y0167264D01*
X0068308Y0167283D01*
X0068314Y0167314D01*
X0068333Y0167370D01*
X0068351Y0167401D01*
X0068376Y0167432D01*
X0068382Y0167438D01*
X0068388Y0167444D01*
X0068426Y0167469D01*
X0068487Y0167493D01*
X0068525Y0167506D01*
X0068580D01*
X0068599Y0167500D01*
D02*
G37*
G36*
X0056609Y0163835D02*
X0056207D01*
Y0164256D01*
X0056194D01*
Y0164250D01*
X0056182Y0164238D01*
X0056163Y0164213D01*
X0056145Y0164182D01*
X0056114Y0164145D01*
X0056077Y0164108D01*
X0056033Y0164064D01*
X0055984Y0164021D01*
X0055928Y0163971D01*
X0055860Y0163928D01*
X0055792Y0163891D01*
X0055711Y0163854D01*
X0055631Y0163823D01*
X0055538Y0163798D01*
X0055439Y0163786D01*
X0055334Y0163779D01*
X0055290D01*
X0055253Y0163786D01*
X0055216Y0163792D01*
X0055167Y0163798D01*
X0055061Y0163823D01*
X0054937Y0163860D01*
X0054814Y0163922D01*
X0054746Y0163959D01*
X0054690Y0164002D01*
X0054628Y0164058D01*
X0054572Y0164114D01*
Y0164120D01*
X0054560Y0164132D01*
X0054548Y0164151D01*
X0054529Y0164176D01*
X0054510Y0164207D01*
X0054486Y0164250D01*
X0054461Y0164299D01*
X0054436Y0164355D01*
X0054405Y0164417D01*
X0054380Y0164485D01*
X0054356Y0164559D01*
X0054337Y0164640D01*
X0054318Y0164727D01*
X0054306Y0164826D01*
X0054300Y0164925D01*
X0054294Y0165030D01*
Y0165036D01*
Y0165055D01*
Y0165092D01*
X0054300Y0165135D01*
X0054306Y0165185D01*
X0054312Y0165247D01*
X0054318Y0165315D01*
X0054331Y0165389D01*
X0054368Y0165550D01*
X0054424Y0165717D01*
X0054461Y0165797D01*
X0054504Y0165878D01*
X0054548Y0165952D01*
X0054603Y0166026D01*
X0054610Y0166033D01*
X0054616Y0166045D01*
X0054634Y0166064D01*
X0054659Y0166088D01*
X0054690Y0166113D01*
X0054733Y0166144D01*
X0054777Y0166181D01*
X0054826Y0166218D01*
X0054950Y0166287D01*
X0055092Y0166348D01*
X0055173Y0166367D01*
X0055259Y0166385D01*
X0055346Y0166398D01*
X0055445Y0166404D01*
X0055495D01*
X0055532Y0166398D01*
X0055569Y0166392D01*
X0055618Y0166385D01*
X0055730Y0166355D01*
X0055854Y0166305D01*
X0055915Y0166274D01*
X0055977Y0166231D01*
X0056039Y0166187D01*
X0056095Y0166132D01*
X0056145Y0166070D01*
X0056194Y0165996D01*
X0056207D01*
Y0167555D01*
X0056609D01*
Y0163835D01*
D02*
G37*
G36*
X0070877Y0166398D02*
X0070951Y0166392D01*
X0071044Y0166373D01*
X0071143Y0166342D01*
X0071248Y0166293D01*
X0071353Y0166225D01*
X0071397Y0166187D01*
X0071440Y0166138D01*
X0071452Y0166126D01*
X0071477Y0166088D01*
X0071508Y0166026D01*
X0071552Y0165940D01*
X0071589Y0165835D01*
X0071626Y0165705D01*
X0071650Y0165550D01*
X0071657Y0165370D01*
Y0163835D01*
X0071254D01*
Y0165265D01*
Y0165271D01*
Y0165302D01*
X0071248Y0165339D01*
Y0165389D01*
X0071236Y0165451D01*
X0071223Y0165519D01*
X0071205Y0165593D01*
X0071180Y0165667D01*
X0071149Y0165742D01*
X0071112Y0165810D01*
X0071062Y0165878D01*
X0071007Y0165940D01*
X0070945Y0165989D01*
X0070864Y0166026D01*
X0070778Y0166058D01*
X0070673Y0166064D01*
X0070660D01*
X0070623Y0166058D01*
X0070567Y0166051D01*
X0070499Y0166033D01*
X0070419Y0166008D01*
X0070332Y0165965D01*
X0070252Y0165909D01*
X0070171Y0165835D01*
X0070165Y0165822D01*
X0070140Y0165797D01*
X0070109Y0165748D01*
X0070072Y0165680D01*
X0070035Y0165599D01*
X0070004Y0165500D01*
X0069979Y0165389D01*
X0069973Y0165265D01*
Y0163835D01*
X0069571D01*
Y0166348D01*
X0069973D01*
Y0165928D01*
X0069985D01*
X0069992Y0165934D01*
X0069998Y0165946D01*
X0070016Y0165971D01*
X0070041Y0166002D01*
X0070066Y0166039D01*
X0070103Y0166076D01*
X0070146Y0166119D01*
X0070196Y0166169D01*
X0070252Y0166212D01*
X0070314Y0166255D01*
X0070382Y0166293D01*
X0070456Y0166330D01*
X0070530Y0166361D01*
X0070617Y0166385D01*
X0070710Y0166398D01*
X0070809Y0166404D01*
X0070846D01*
X0070877Y0166398D01*
D02*
G37*
G36*
X0053879Y0166385D02*
X0053953Y0166379D01*
X0053997Y0166367D01*
X0054028Y0166355D01*
Y0165940D01*
X0054021Y0165946D01*
X0054009Y0165952D01*
X0053984Y0165965D01*
X0053953Y0165983D01*
X0053910Y0165996D01*
X0053854Y0166008D01*
X0053792Y0166014D01*
X0053724Y0166020D01*
X0053712D01*
X0053681Y0166014D01*
X0053631Y0166008D01*
X0053576Y0165989D01*
X0053501Y0165958D01*
X0053433Y0165915D01*
X0053359Y0165853D01*
X0053291Y0165773D01*
X0053285Y0165760D01*
X0053266Y0165729D01*
X0053235Y0165674D01*
X0053204Y0165599D01*
X0053173Y0165506D01*
X0053142Y0165389D01*
X0053124Y0165259D01*
X0053118Y0165110D01*
Y0163835D01*
X0052715D01*
Y0166348D01*
X0053118D01*
Y0165828D01*
X0053130D01*
Y0165835D01*
X0053136Y0165841D01*
X0053149Y0165872D01*
X0053167Y0165921D01*
X0053198Y0165983D01*
X0053229Y0166045D01*
X0053279Y0166113D01*
X0053328Y0166181D01*
X0053390Y0166243D01*
X0053396Y0166249D01*
X0053421Y0166268D01*
X0053458Y0166293D01*
X0053508Y0166317D01*
X0053563Y0166342D01*
X0053631Y0166367D01*
X0053706Y0166385D01*
X0053786Y0166392D01*
X0053842D01*
X0053879Y0166385D01*
D02*
G37*
G36*
X0064619Y0163835D02*
X0064216D01*
Y0164231D01*
X0064204D01*
Y0164225D01*
X0064192Y0164213D01*
X0064179Y0164188D01*
X0064154Y0164163D01*
X0064099Y0164089D01*
X0064012Y0164009D01*
X0063963Y0163965D01*
X0063907Y0163922D01*
X0063845Y0163885D01*
X0063771Y0163848D01*
X0063696Y0163823D01*
X0063616Y0163798D01*
X0063523Y0163786D01*
X0063430Y0163779D01*
X0063393D01*
X0063350Y0163786D01*
X0063288Y0163798D01*
X0063220Y0163811D01*
X0063146Y0163835D01*
X0063065Y0163866D01*
X0062985Y0163916D01*
X0062898Y0163971D01*
X0062817Y0164040D01*
X0062743Y0164126D01*
X0062675Y0164231D01*
X0062613Y0164349D01*
X0062570Y0164491D01*
X0062545Y0164658D01*
X0062533Y0164745D01*
Y0164844D01*
Y0166348D01*
X0062929D01*
Y0164906D01*
Y0164900D01*
Y0164875D01*
X0062935Y0164832D01*
X0062941Y0164782D01*
X0062947Y0164720D01*
X0062960Y0164658D01*
X0062978Y0164584D01*
X0063003Y0164510D01*
X0063040Y0164436D01*
X0063077Y0164368D01*
X0063127Y0164299D01*
X0063189Y0164238D01*
X0063257Y0164188D01*
X0063337Y0164151D01*
X0063436Y0164120D01*
X0063542Y0164114D01*
X0063554D01*
X0063591Y0164120D01*
X0063647Y0164126D01*
X0063709Y0164139D01*
X0063789Y0164170D01*
X0063870Y0164207D01*
X0063950Y0164256D01*
X0064024Y0164330D01*
X0064031Y0164343D01*
X0064055Y0164368D01*
X0064086Y0164417D01*
X0064123Y0164485D01*
X0064154Y0164566D01*
X0064185Y0164665D01*
X0064210Y0164776D01*
X0064216Y0164900D01*
Y0166348D01*
X0064619D01*
Y0163835D01*
D02*
G37*
G36*
X0068754D02*
X0068351D01*
Y0166348D01*
X0068754D01*
Y0163835D01*
D02*
G37*
G36*
X0067534D02*
X0067132D01*
Y0167555D01*
X0067534D01*
Y0163835D01*
D02*
G37*
G36*
X0051155Y0166398D02*
X0051211Y0166392D01*
X0051279Y0166373D01*
X0051354Y0166355D01*
X0051434Y0166324D01*
X0051521Y0166287D01*
X0051601Y0166237D01*
X0051682Y0166175D01*
X0051756Y0166101D01*
X0051824Y0166008D01*
X0051880Y0165903D01*
X0051923Y0165779D01*
X0051948Y0165637D01*
X0051960Y0165469D01*
Y0163835D01*
X0051558D01*
Y0164225D01*
X0051545D01*
Y0164219D01*
X0051533Y0164207D01*
X0051521Y0164182D01*
X0051496Y0164157D01*
X0051434Y0164083D01*
X0051354Y0164002D01*
X0051242Y0163922D01*
X0051112Y0163848D01*
X0051032Y0163823D01*
X0050951Y0163798D01*
X0050864Y0163786D01*
X0050772Y0163779D01*
X0050735D01*
X0050710Y0163786D01*
X0050642Y0163792D01*
X0050561Y0163804D01*
X0050462Y0163829D01*
X0050369Y0163860D01*
X0050270Y0163909D01*
X0050184Y0163971D01*
X0050177Y0163984D01*
X0050153Y0164009D01*
X0050116Y0164052D01*
X0050078Y0164114D01*
X0050041Y0164188D01*
X0050004Y0164275D01*
X0049979Y0164380D01*
X0049973Y0164498D01*
Y0164504D01*
Y0164529D01*
X0049979Y0164566D01*
X0049986Y0164609D01*
X0049998Y0164665D01*
X0050016Y0164727D01*
X0050041Y0164795D01*
X0050078Y0164863D01*
X0050122Y0164937D01*
X0050177Y0165011D01*
X0050245Y0165079D01*
X0050326Y0165141D01*
X0050419Y0165203D01*
X0050530Y0165253D01*
X0050654Y0165290D01*
X0050803Y0165321D01*
X0051558Y0165426D01*
Y0165432D01*
Y0165451D01*
X0051552Y0165488D01*
Y0165525D01*
X0051539Y0165575D01*
X0051533Y0165630D01*
X0051496Y0165748D01*
X0051465Y0165804D01*
X0051434Y0165859D01*
X0051391Y0165915D01*
X0051341Y0165965D01*
X0051279Y0166008D01*
X0051211Y0166039D01*
X0051131Y0166058D01*
X0051038Y0166064D01*
X0050994D01*
X0050963Y0166058D01*
X0050920D01*
X0050877Y0166045D01*
X0050766Y0166026D01*
X0050642Y0165989D01*
X0050506Y0165934D01*
X0050431Y0165896D01*
X0050363Y0165859D01*
X0050289Y0165810D01*
X0050221Y0165754D01*
Y0166169D01*
X0050227D01*
X0050239Y0166181D01*
X0050258Y0166194D01*
X0050289Y0166206D01*
X0050320Y0166225D01*
X0050363Y0166243D01*
X0050413Y0166262D01*
X0050468Y0166287D01*
X0050592Y0166330D01*
X0050741Y0166367D01*
X0050902Y0166392D01*
X0051075Y0166404D01*
X0051112D01*
X0051155Y0166398D01*
D02*
G37*
G36*
X0045467Y0167345D02*
X0045510D01*
X0045553Y0167339D01*
X0045652Y0167326D01*
X0045770Y0167296D01*
X0045894Y0167258D01*
X0046011Y0167203D01*
X0046117Y0167128D01*
X0046123D01*
X0046129Y0167116D01*
X0046160Y0167091D01*
X0046203Y0167042D01*
X0046253Y0166974D01*
X0046296Y0166887D01*
X0046340Y0166788D01*
X0046371Y0166676D01*
X0046383Y0166615D01*
Y0166546D01*
Y0166540D01*
Y0166534D01*
Y0166497D01*
X0046377Y0166441D01*
X0046364Y0166373D01*
X0046346Y0166287D01*
X0046315Y0166200D01*
X0046278Y0166113D01*
X0046222Y0166026D01*
X0046216Y0166014D01*
X0046191Y0165989D01*
X0046154Y0165952D01*
X0046104Y0165903D01*
X0046042Y0165853D01*
X0045968Y0165797D01*
X0045875Y0165754D01*
X0045776Y0165711D01*
Y0165705D01*
X0045795D01*
X0045814Y0165698D01*
X0045832Y0165692D01*
X0045900Y0165680D01*
X0045981Y0165655D01*
X0046067Y0165618D01*
X0046160Y0165575D01*
X0046253Y0165513D01*
X0046340Y0165432D01*
X0046352Y0165420D01*
X0046377Y0165389D01*
X0046408Y0165346D01*
X0046451Y0165278D01*
X0046488Y0165191D01*
X0046525Y0165092D01*
X0046550Y0164974D01*
X0046556Y0164844D01*
Y0164838D01*
Y0164826D01*
Y0164801D01*
X0046550Y0164770D01*
X0046544Y0164733D01*
X0046538Y0164690D01*
X0046513Y0164584D01*
X0046476Y0164467D01*
X0046420Y0164343D01*
X0046383Y0164287D01*
X0046340Y0164225D01*
X0046284Y0164170D01*
X0046228Y0164114D01*
X0046222D01*
X0046216Y0164101D01*
X0046197Y0164089D01*
X0046172Y0164070D01*
X0046141Y0164052D01*
X0046098Y0164027D01*
X0046005Y0163978D01*
X0045888Y0163922D01*
X0045752Y0163879D01*
X0045591Y0163848D01*
X0045510Y0163841D01*
X0045417Y0163835D01*
X0044390D01*
Y0167351D01*
X0045436D01*
X0045467Y0167345D01*
D02*
G37*
G36*
X0065962Y0166348D02*
X0066600D01*
Y0166002D01*
X0065962D01*
Y0164584D01*
Y0164572D01*
Y0164541D01*
X0065968Y0164498D01*
X0065974Y0164442D01*
X0065999Y0164324D01*
X0066018Y0164269D01*
X0066049Y0164225D01*
X0066055Y0164219D01*
X0066067Y0164207D01*
X0066086Y0164194D01*
X0066117Y0164176D01*
X0066154Y0164151D01*
X0066203Y0164139D01*
X0066265Y0164126D01*
X0066333Y0164120D01*
X0066358D01*
X0066389Y0164126D01*
X0066426Y0164132D01*
X0066513Y0164157D01*
X0066556Y0164176D01*
X0066600Y0164200D01*
Y0163854D01*
X0066593D01*
X0066575Y0163841D01*
X0066544Y0163835D01*
X0066500Y0163823D01*
X0066445Y0163811D01*
X0066383Y0163798D01*
X0066309Y0163792D01*
X0066222Y0163786D01*
X0066191D01*
X0066160Y0163792D01*
X0066117Y0163798D01*
X0066067Y0163811D01*
X0066011Y0163823D01*
X0065956Y0163848D01*
X0065894Y0163879D01*
X0065832Y0163916D01*
X0065770Y0163965D01*
X0065714Y0164021D01*
X0065665Y0164095D01*
X0065622Y0164176D01*
X0065591Y0164275D01*
X0065566Y0164386D01*
X0065560Y0164516D01*
Y0166002D01*
X0065132D01*
Y0166348D01*
X0065560D01*
Y0166961D01*
X0065962Y0167091D01*
Y0166348D01*
D02*
G37*
G36*
X0073489Y0166398D02*
X0073532Y0166392D01*
X0073576Y0166385D01*
X0073687Y0166367D01*
X0073811Y0166324D01*
X0073935Y0166268D01*
X0073997Y0166231D01*
X0074058Y0166187D01*
X0074114Y0166138D01*
X0074170Y0166082D01*
X0074176Y0166076D01*
X0074182Y0166070D01*
X0074195Y0166051D01*
X0074213Y0166026D01*
X0074232Y0165989D01*
X0074256Y0165952D01*
X0074281Y0165909D01*
X0074306Y0165853D01*
X0074331Y0165791D01*
X0074356Y0165729D01*
X0074380Y0165655D01*
X0074399Y0165575D01*
X0074417Y0165488D01*
X0074430Y0165401D01*
X0074442Y0165302D01*
Y0165197D01*
Y0164987D01*
X0072666D01*
Y0164980D01*
Y0164968D01*
Y0164950D01*
X0072672Y0164918D01*
X0072678Y0164881D01*
Y0164844D01*
X0072697Y0164745D01*
X0072728Y0164646D01*
X0072765Y0164535D01*
X0072820Y0164429D01*
X0072888Y0164337D01*
X0072901Y0164324D01*
X0072926Y0164299D01*
X0072975Y0164269D01*
X0073043Y0164225D01*
X0073130Y0164182D01*
X0073229Y0164151D01*
X0073347Y0164126D01*
X0073483Y0164114D01*
X0073526D01*
X0073557Y0164120D01*
X0073594D01*
X0073637Y0164126D01*
X0073743Y0164151D01*
X0073860Y0164182D01*
X0073990Y0164231D01*
X0074126Y0164299D01*
X0074195Y0164343D01*
X0074263Y0164392D01*
Y0164015D01*
X0074256D01*
X0074250Y0164002D01*
X0074232Y0163996D01*
X0074201Y0163978D01*
X0074170Y0163959D01*
X0074133Y0163941D01*
X0074083Y0163922D01*
X0074034Y0163897D01*
X0073972Y0163872D01*
X0073904Y0163854D01*
X0073755Y0163817D01*
X0073582Y0163792D01*
X0073390Y0163779D01*
X0073340D01*
X0073303Y0163786D01*
X0073260Y0163792D01*
X0073204Y0163798D01*
X0073087Y0163823D01*
X0072950Y0163860D01*
X0072814Y0163922D01*
X0072746Y0163965D01*
X0072678Y0164009D01*
X0072616Y0164058D01*
X0072554Y0164120D01*
X0072548Y0164126D01*
X0072542Y0164139D01*
X0072530Y0164157D01*
X0072505Y0164182D01*
X0072486Y0164219D01*
X0072461Y0164262D01*
X0072430Y0164312D01*
X0072406Y0164368D01*
X0072375Y0164429D01*
X0072350Y0164504D01*
X0072319Y0164584D01*
X0072300Y0164671D01*
X0072282Y0164764D01*
X0072263Y0164863D01*
X0072257Y0164968D01*
X0072251Y0165079D01*
Y0165086D01*
Y0165104D01*
Y0165135D01*
X0072257Y0165179D01*
X0072263Y0165228D01*
X0072269Y0165284D01*
X0072276Y0165352D01*
X0072294Y0165420D01*
X0072331Y0165568D01*
X0072387Y0165729D01*
X0072424Y0165810D01*
X0072474Y0165884D01*
X0072523Y0165965D01*
X0072579Y0166033D01*
X0072585Y0166039D01*
X0072598Y0166051D01*
X0072616Y0166070D01*
X0072641Y0166088D01*
X0072672Y0166119D01*
X0072709Y0166150D01*
X0072759Y0166181D01*
X0072808Y0166218D01*
X0072926Y0166287D01*
X0073068Y0166348D01*
X0073149Y0166367D01*
X0073229Y0166385D01*
X0073316Y0166398D01*
X0073409Y0166404D01*
X0073458D01*
X0073489Y0166398D01*
D02*
G37*
G36*
X0060447Y0167407D02*
X0060509Y0167401D01*
X0060583Y0167388D01*
X0060663Y0167370D01*
X0060750Y0167351D01*
X0060837Y0167326D01*
X0060936Y0167296D01*
X0061028Y0167252D01*
X0061128Y0167203D01*
X0061227Y0167147D01*
X0061319Y0167079D01*
X0061412Y0167005D01*
X0061499Y0166918D01*
X0061505Y0166912D01*
X0061518Y0166893D01*
X0061542Y0166868D01*
X0061567Y0166831D01*
X0061604Y0166782D01*
X0061641Y0166720D01*
X0061678Y0166652D01*
X0061722Y0166577D01*
X0061765Y0166485D01*
X0061802Y0166392D01*
X0061839Y0166287D01*
X0061876Y0166169D01*
X0061901Y0166051D01*
X0061926Y0165921D01*
X0061938Y0165779D01*
X0061945Y0165637D01*
Y0165624D01*
Y0165599D01*
Y0165556D01*
X0061938Y0165494D01*
X0061932Y0165420D01*
X0061920Y0165339D01*
X0061908Y0165247D01*
X0061889Y0165141D01*
X0061864Y0165036D01*
X0061833Y0164925D01*
X0061796Y0164813D01*
X0061753Y0164702D01*
X0061697Y0164584D01*
X0061635Y0164479D01*
X0061567Y0164374D01*
X0061487Y0164275D01*
X0061480Y0164269D01*
X0061468Y0164256D01*
X0061437Y0164231D01*
X0061406Y0164200D01*
X0061357Y0164157D01*
X0061301Y0164120D01*
X0061239Y0164070D01*
X0061165Y0164027D01*
X0061084Y0163984D01*
X0060991Y0163934D01*
X0060892Y0163897D01*
X0060781Y0163860D01*
X0060663Y0163823D01*
X0060540Y0163798D01*
X0060409Y0163786D01*
X0060267Y0163779D01*
X0060236D01*
X0060193Y0163786D01*
X0060143D01*
X0060081Y0163792D01*
X0060007Y0163804D01*
X0059927Y0163823D01*
X0059834Y0163841D01*
X0059741Y0163866D01*
X0059642Y0163897D01*
X0059543Y0163941D01*
X0059444Y0163984D01*
X0059345Y0164040D01*
X0059246Y0164108D01*
X0059153Y0164182D01*
X0059066Y0164269D01*
X0059060Y0164275D01*
X0059048Y0164293D01*
X0059023Y0164318D01*
X0058998Y0164355D01*
X0058961Y0164405D01*
X0058924Y0164467D01*
X0058887Y0164535D01*
X0058843Y0164615D01*
X0058800Y0164702D01*
X0058763Y0164795D01*
X0058726Y0164900D01*
X0058689Y0165017D01*
X0058664Y0165135D01*
X0058639Y0165265D01*
X0058627Y0165408D01*
X0058621Y0165550D01*
Y0165562D01*
Y0165587D01*
X0058627Y0165630D01*
Y0165692D01*
X0058633Y0165760D01*
X0058645Y0165847D01*
X0058658Y0165940D01*
X0058676Y0166039D01*
X0058701Y0166144D01*
X0058732Y0166255D01*
X0058769Y0166367D01*
X0058812Y0166478D01*
X0058868Y0166590D01*
X0058930Y0166701D01*
X0058998Y0166806D01*
X0059079Y0166905D01*
X0059085Y0166912D01*
X0059097Y0166930D01*
X0059128Y0166955D01*
X0059165Y0166986D01*
X0059209Y0167023D01*
X0059264Y0167066D01*
X0059332Y0167110D01*
X0059407Y0167159D01*
X0059493Y0167209D01*
X0059586Y0167252D01*
X0059685Y0167296D01*
X0059797Y0167333D01*
X0059921Y0167364D01*
X0060050Y0167394D01*
X0060187Y0167407D01*
X0060329Y0167413D01*
X0060397D01*
X0060447Y0167407D01*
D02*
G37*
G36*
X0048419Y0166398D02*
X0048463Y0166392D01*
X0048518Y0166385D01*
X0048642Y0166361D01*
X0048785Y0166317D01*
X0048927Y0166255D01*
X0049001Y0166218D01*
X0049069Y0166175D01*
X0049137Y0166119D01*
X0049199Y0166058D01*
X0049206Y0166051D01*
X0049212Y0166039D01*
X0049230Y0166020D01*
X0049249Y0165996D01*
X0049274Y0165958D01*
X0049298Y0165915D01*
X0049329Y0165866D01*
X0049360Y0165810D01*
X0049385Y0165742D01*
X0049416Y0165674D01*
X0049441Y0165593D01*
X0049466Y0165506D01*
X0049484Y0165414D01*
X0049503Y0165315D01*
X0049509Y0165209D01*
X0049515Y0165098D01*
Y0165092D01*
Y0165073D01*
Y0165042D01*
X0049509Y0164999D01*
X0049503Y0164950D01*
X0049496Y0164888D01*
X0049484Y0164826D01*
X0049472Y0164751D01*
X0049435Y0164603D01*
X0049373Y0164442D01*
X0049336Y0164361D01*
X0049286Y0164281D01*
X0049237Y0164207D01*
X0049175Y0164139D01*
X0049168Y0164132D01*
X0049156Y0164126D01*
X0049137Y0164108D01*
X0049113Y0164083D01*
X0049076Y0164058D01*
X0049038Y0164027D01*
X0048989Y0163990D01*
X0048933Y0163959D01*
X0048871Y0163928D01*
X0048803Y0163891D01*
X0048729Y0163860D01*
X0048649Y0163835D01*
X0048562Y0163811D01*
X0048469Y0163798D01*
X0048370Y0163786D01*
X0048265Y0163779D01*
X0048209D01*
X0048172Y0163786D01*
X0048129Y0163792D01*
X0048073Y0163798D01*
X0048011Y0163811D01*
X0047943Y0163823D01*
X0047800Y0163866D01*
X0047652Y0163928D01*
X0047578Y0163965D01*
X0047510Y0164015D01*
X0047441Y0164064D01*
X0047373Y0164126D01*
X0047367Y0164132D01*
X0047361Y0164145D01*
X0047342Y0164163D01*
X0047324Y0164188D01*
X0047299Y0164225D01*
X0047268Y0164269D01*
X0047237Y0164318D01*
X0047212Y0164374D01*
X0047181Y0164442D01*
X0047150Y0164510D01*
X0047120Y0164584D01*
X0047095Y0164671D01*
X0047058Y0164857D01*
X0047052Y0164956D01*
X0047045Y0165061D01*
Y0165067D01*
Y0165092D01*
Y0165123D01*
X0047052Y0165166D01*
X0047058Y0165216D01*
X0047064Y0165278D01*
X0047076Y0165346D01*
X0047089Y0165420D01*
X0047126Y0165581D01*
X0047188Y0165742D01*
X0047231Y0165822D01*
X0047274Y0165903D01*
X0047324Y0165977D01*
X0047386Y0166045D01*
X0047392Y0166051D01*
X0047404Y0166064D01*
X0047423Y0166076D01*
X0047448Y0166101D01*
X0047485Y0166126D01*
X0047528Y0166156D01*
X0047578Y0166194D01*
X0047633Y0166225D01*
X0047695Y0166255D01*
X0047769Y0166293D01*
X0047844Y0166324D01*
X0047930Y0166348D01*
X0048017Y0166373D01*
X0048116Y0166392D01*
X0048221Y0166398D01*
X0048327Y0166404D01*
X0048382D01*
X0048419Y0166398D01*
D02*
G37*
G36*
X0078416Y0128438D02*
X0078441D01*
X0078497Y0128413D01*
X0078528Y0128395D01*
X0078559Y0128370D01*
X0078565Y0128364D01*
X0078571Y0128357D01*
X0078602Y0128320D01*
X0078627Y0128258D01*
X0078633Y0128221D01*
X0078639Y0128184D01*
Y0128178D01*
Y0128165D01*
X0078633Y0128147D01*
X0078627Y0128122D01*
X0078608Y0128060D01*
X0078583Y0128029D01*
X0078559Y0127998D01*
X0078552D01*
X0078546Y0127986D01*
X0078509Y0127961D01*
X0078453Y0127936D01*
X0078416Y0127930D01*
X0078379Y0127924D01*
X0078360D01*
X0078342Y0127930D01*
X0078317D01*
X0078255Y0127955D01*
X0078224Y0127967D01*
X0078193Y0127992D01*
Y0127998D01*
X0078181Y0128005D01*
X0078169Y0128023D01*
X0078156Y0128042D01*
X0078131Y0128104D01*
X0078125Y0128141D01*
X0078119Y0128184D01*
Y0128190D01*
Y0128203D01*
X0078125Y0128221D01*
X0078131Y0128252D01*
X0078150Y0128308D01*
X0078169Y0128339D01*
X0078193Y0128370D01*
X0078199Y0128376D01*
X0078206Y0128382D01*
X0078243Y0128407D01*
X0078305Y0128432D01*
X0078342Y0128444D01*
X0078398D01*
X0078416Y0128438D01*
D02*
G37*
G36*
X0055848Y0128345D02*
X0055897D01*
X0056008Y0128333D01*
X0056132Y0128320D01*
X0056256Y0128296D01*
X0056374Y0128265D01*
X0056423Y0128246D01*
X0056473Y0128221D01*
Y0127757D01*
X0056466D01*
X0056460Y0127769D01*
X0056442Y0127776D01*
X0056417Y0127794D01*
X0056386Y0127806D01*
X0056349Y0127825D01*
X0056256Y0127868D01*
X0056145Y0127905D01*
X0056008Y0127943D01*
X0055848Y0127967D01*
X0055674Y0127974D01*
X0055625D01*
X0055588Y0127967D01*
X0055550D01*
X0055501Y0127961D01*
X0055402Y0127943D01*
X0055396D01*
X0055377Y0127936D01*
X0055352Y0127930D01*
X0055321Y0127924D01*
X0055247Y0127893D01*
X0055160Y0127856D01*
X0055154D01*
X0055142Y0127844D01*
X0055123Y0127831D01*
X0055098Y0127813D01*
X0055043Y0127757D01*
X0054987Y0127689D01*
Y0127683D01*
X0054975Y0127670D01*
X0054969Y0127652D01*
X0054956Y0127621D01*
X0054944Y0127584D01*
X0054937Y0127547D01*
X0054925Y0127447D01*
Y0127441D01*
Y0127423D01*
Y0127398D01*
X0054931Y0127367D01*
X0054944Y0127293D01*
X0054975Y0127212D01*
Y0127206D01*
X0054987Y0127194D01*
X0054993Y0127175D01*
X0055012Y0127150D01*
X0055061Y0127095D01*
X0055123Y0127033D01*
X0055129Y0127027D01*
X0055142Y0127020D01*
X0055160Y0127002D01*
X0055191Y0126983D01*
X0055228Y0126959D01*
X0055266Y0126934D01*
X0055365Y0126872D01*
X0055371Y0126866D01*
X0055389Y0126859D01*
X0055420Y0126841D01*
X0055458Y0126822D01*
X0055507Y0126797D01*
X0055563Y0126773D01*
X0055686Y0126711D01*
X0055693Y0126705D01*
X0055717Y0126692D01*
X0055755Y0126674D01*
X0055804Y0126649D01*
X0055860Y0126624D01*
X0055922Y0126587D01*
X0056046Y0126513D01*
X0056052Y0126507D01*
X0056077Y0126494D01*
X0056107Y0126476D01*
X0056151Y0126445D01*
X0056244Y0126370D01*
X0056343Y0126284D01*
X0056349Y0126278D01*
X0056367Y0126265D01*
X0056386Y0126234D01*
X0056417Y0126203D01*
X0056448Y0126160D01*
X0056485Y0126117D01*
X0056547Y0126005D01*
X0056553Y0125999D01*
X0056559Y0125980D01*
X0056572Y0125950D01*
X0056584Y0125906D01*
X0056596Y0125857D01*
X0056609Y0125795D01*
X0056621Y0125733D01*
Y0125659D01*
Y0125646D01*
Y0125615D01*
X0056615Y0125566D01*
X0056609Y0125504D01*
X0056596Y0125436D01*
X0056578Y0125361D01*
X0056553Y0125287D01*
X0056516Y0125219D01*
X0056510Y0125213D01*
X0056497Y0125188D01*
X0056473Y0125157D01*
X0056448Y0125114D01*
X0056405Y0125071D01*
X0056361Y0125021D01*
X0056305Y0124971D01*
X0056244Y0124922D01*
X0056237Y0124916D01*
X0056213Y0124903D01*
X0056176Y0124885D01*
X0056126Y0124860D01*
X0056070Y0124835D01*
X0056002Y0124811D01*
X0055922Y0124786D01*
X0055841Y0124767D01*
X0055829D01*
X0055804Y0124761D01*
X0055761Y0124755D01*
X0055699Y0124742D01*
X0055631Y0124736D01*
X0055550Y0124724D01*
X0055464Y0124718D01*
X0055315D01*
X0055247Y0124724D01*
X0055160Y0124730D01*
X0055142D01*
X0055117Y0124736D01*
X0055086Y0124742D01*
X0055006Y0124749D01*
X0054913Y0124767D01*
X0054907D01*
X0054888Y0124773D01*
X0054863Y0124780D01*
X0054832Y0124786D01*
X0054758Y0124804D01*
X0054671Y0124829D01*
X0054665D01*
X0054653Y0124835D01*
X0054634Y0124841D01*
X0054610Y0124854D01*
X0054548Y0124879D01*
X0054486Y0124916D01*
Y0125399D01*
X0054492Y0125392D01*
X0054504Y0125386D01*
X0054517Y0125374D01*
X0054541Y0125355D01*
X0054610Y0125312D01*
X0054690Y0125262D01*
X0054696D01*
X0054708Y0125256D01*
X0054733Y0125244D01*
X0054764Y0125232D01*
X0054845Y0125194D01*
X0054931Y0125163D01*
X0054937D01*
X0054956Y0125157D01*
X0054981Y0125151D01*
X0055012Y0125145D01*
X0055098Y0125120D01*
X0055191Y0125101D01*
X0055216D01*
X0055241Y0125095D01*
X0055272D01*
X0055346Y0125089D01*
X0055433Y0125083D01*
X0055495D01*
X0055563Y0125089D01*
X0055649Y0125101D01*
X0055742Y0125114D01*
X0055835Y0125139D01*
X0055922Y0125176D01*
X0056002Y0125219D01*
X0056008Y0125225D01*
X0056033Y0125244D01*
X0056064Y0125281D01*
X0056095Y0125324D01*
X0056132Y0125380D01*
X0056157Y0125454D01*
X0056182Y0125535D01*
X0056188Y0125628D01*
Y0125634D01*
Y0125652D01*
Y0125677D01*
X0056182Y0125714D01*
X0056163Y0125795D01*
X0056126Y0125875D01*
Y0125881D01*
X0056114Y0125894D01*
X0056101Y0125912D01*
X0056083Y0125937D01*
X0056027Y0125999D01*
X0055953Y0126067D01*
X0055946Y0126073D01*
X0055934Y0126086D01*
X0055909Y0126098D01*
X0055878Y0126123D01*
X0055841Y0126148D01*
X0055798Y0126179D01*
X0055693Y0126234D01*
X0055686Y0126240D01*
X0055668Y0126247D01*
X0055637Y0126265D01*
X0055594Y0126284D01*
X0055550Y0126315D01*
X0055495Y0126339D01*
X0055365Y0126408D01*
X0055358Y0126414D01*
X0055334Y0126426D01*
X0055296Y0126445D01*
X0055253Y0126463D01*
X0055204Y0126494D01*
X0055148Y0126525D01*
X0055024Y0126593D01*
X0055018Y0126600D01*
X0054999Y0126612D01*
X0054969Y0126630D01*
X0054931Y0126655D01*
X0054839Y0126723D01*
X0054746Y0126804D01*
X0054739Y0126810D01*
X0054727Y0126822D01*
X0054702Y0126847D01*
X0054677Y0126878D01*
X0054647Y0126921D01*
X0054616Y0126965D01*
X0054560Y0127064D01*
Y0127070D01*
X0054548Y0127088D01*
X0054541Y0127119D01*
X0054529Y0127163D01*
X0054517Y0127212D01*
X0054504Y0127274D01*
X0054498Y0127336D01*
X0054492Y0127410D01*
Y0127423D01*
Y0127454D01*
X0054498Y0127497D01*
X0054504Y0127553D01*
X0054517Y0127621D01*
X0054535Y0127689D01*
X0054560Y0127757D01*
X0054597Y0127825D01*
X0054603Y0127831D01*
X0054616Y0127856D01*
X0054640Y0127887D01*
X0054671Y0127930D01*
X0054708Y0127974D01*
X0054758Y0128023D01*
X0054814Y0128073D01*
X0054876Y0128116D01*
X0054882Y0128122D01*
X0054907Y0128135D01*
X0054944Y0128159D01*
X0054987Y0128184D01*
X0055049Y0128209D01*
X0055111Y0128240D01*
X0055185Y0128265D01*
X0055266Y0128289D01*
X0055278D01*
X0055303Y0128302D01*
X0055346Y0128308D01*
X0055408Y0128320D01*
X0055476Y0128333D01*
X0055550Y0128339D01*
X0055717Y0128351D01*
X0055804D01*
X0055848Y0128345D01*
D02*
G37*
G36*
X0063579Y0124773D02*
X0063176D01*
Y0125194D01*
X0063164D01*
Y0125188D01*
X0063152Y0125176D01*
X0063133Y0125151D01*
X0063115Y0125120D01*
X0063084Y0125083D01*
X0063046Y0125046D01*
X0063003Y0125002D01*
X0062954Y0124959D01*
X0062898Y0124910D01*
X0062830Y0124866D01*
X0062762Y0124829D01*
X0062681Y0124792D01*
X0062601Y0124761D01*
X0062508Y0124736D01*
X0062409Y0124724D01*
X0062304Y0124718D01*
X0062260D01*
X0062223Y0124724D01*
X0062186Y0124730D01*
X0062137Y0124736D01*
X0062031Y0124761D01*
X0061908Y0124798D01*
X0061784Y0124860D01*
X0061716Y0124897D01*
X0061660Y0124941D01*
X0061598Y0124996D01*
X0061542Y0125052D01*
Y0125058D01*
X0061530Y0125071D01*
X0061518Y0125089D01*
X0061499Y0125114D01*
X0061480Y0125145D01*
X0061456Y0125188D01*
X0061431Y0125238D01*
X0061406Y0125293D01*
X0061375Y0125355D01*
X0061350Y0125423D01*
X0061326Y0125498D01*
X0061307Y0125578D01*
X0061288Y0125665D01*
X0061276Y0125764D01*
X0061270Y0125863D01*
X0061264Y0125968D01*
Y0125974D01*
Y0125993D01*
Y0126030D01*
X0061270Y0126073D01*
X0061276Y0126123D01*
X0061282Y0126185D01*
X0061288Y0126253D01*
X0061301Y0126327D01*
X0061338Y0126488D01*
X0061394Y0126655D01*
X0061431Y0126736D01*
X0061474Y0126816D01*
X0061518Y0126890D01*
X0061573Y0126965D01*
X0061579Y0126971D01*
X0061586Y0126983D01*
X0061604Y0127002D01*
X0061629Y0127027D01*
X0061660Y0127051D01*
X0061703Y0127082D01*
X0061747Y0127119D01*
X0061796Y0127156D01*
X0061920Y0127225D01*
X0062062Y0127287D01*
X0062143Y0127305D01*
X0062229Y0127324D01*
X0062316Y0127336D01*
X0062415Y0127342D01*
X0062465D01*
X0062502Y0127336D01*
X0062539Y0127330D01*
X0062588Y0127324D01*
X0062700Y0127293D01*
X0062824Y0127243D01*
X0062885Y0127212D01*
X0062947Y0127169D01*
X0063009Y0127126D01*
X0063065Y0127070D01*
X0063115Y0127008D01*
X0063164Y0126934D01*
X0063176D01*
Y0128494D01*
X0063579D01*
Y0124773D01*
D02*
G37*
G36*
X0051632Y0127336D02*
X0051675Y0127330D01*
X0051719Y0127324D01*
X0051830Y0127299D01*
X0051954Y0127262D01*
X0052078Y0127200D01*
X0052140Y0127163D01*
X0052201Y0127113D01*
X0052257Y0127064D01*
X0052313Y0127002D01*
X0052319Y0126996D01*
X0052325Y0126989D01*
X0052338Y0126965D01*
X0052356Y0126940D01*
X0052375Y0126909D01*
X0052400Y0126866D01*
X0052424Y0126816D01*
X0052449Y0126767D01*
X0052474Y0126705D01*
X0052499Y0126637D01*
X0052523Y0126562D01*
X0052542Y0126482D01*
X0052573Y0126302D01*
X0052585Y0126203D01*
Y0126098D01*
Y0126092D01*
Y0126073D01*
Y0126036D01*
X0052579Y0125993D01*
Y0125943D01*
X0052567Y0125881D01*
X0052561Y0125813D01*
X0052548Y0125739D01*
X0052511Y0125578D01*
X0052455Y0125411D01*
X0052418Y0125330D01*
X0052381Y0125250D01*
X0052332Y0125170D01*
X0052276Y0125095D01*
X0052270Y0125089D01*
X0052263Y0125077D01*
X0052245Y0125058D01*
X0052220Y0125040D01*
X0052189Y0125009D01*
X0052152Y0124978D01*
X0052109Y0124941D01*
X0052059Y0124910D01*
X0052004Y0124872D01*
X0051942Y0124835D01*
X0051793Y0124780D01*
X0051713Y0124755D01*
X0051632Y0124736D01*
X0051539Y0124724D01*
X0051440Y0124718D01*
X0051391D01*
X0051360Y0124724D01*
X0051316Y0124730D01*
X0051273Y0124742D01*
X0051162Y0124767D01*
X0051044Y0124817D01*
X0050976Y0124854D01*
X0050914Y0124891D01*
X0050852Y0124941D01*
X0050796Y0124996D01*
X0050735Y0125058D01*
X0050685Y0125132D01*
X0050673D01*
Y0123622D01*
X0050270D01*
Y0127287D01*
X0050673D01*
Y0126841D01*
X0050685D01*
X0050691Y0126847D01*
X0050697Y0126866D01*
X0050716Y0126890D01*
X0050741Y0126921D01*
X0050772Y0126959D01*
X0050809Y0127002D01*
X0050852Y0127045D01*
X0050908Y0127095D01*
X0050963Y0127138D01*
X0051025Y0127181D01*
X0051100Y0127225D01*
X0051174Y0127262D01*
X0051261Y0127299D01*
X0051354Y0127324D01*
X0051446Y0127336D01*
X0051552Y0127342D01*
X0051601D01*
X0051632Y0127336D01*
D02*
G37*
G36*
X0080323D02*
X0080403Y0127330D01*
X0080490Y0127318D01*
X0080589Y0127293D01*
X0080688Y0127268D01*
X0080787Y0127231D01*
Y0126822D01*
X0080775Y0126829D01*
X0080737Y0126853D01*
X0080682Y0126878D01*
X0080607Y0126915D01*
X0080515Y0126946D01*
X0080403Y0126977D01*
X0080279Y0126996D01*
X0080149Y0127002D01*
X0080081D01*
X0080019Y0126989D01*
X0079945Y0126977D01*
X0079939D01*
X0079933Y0126971D01*
X0079896Y0126959D01*
X0079846Y0126934D01*
X0079790Y0126903D01*
X0079778Y0126897D01*
X0079753Y0126872D01*
X0079722Y0126835D01*
X0079691Y0126791D01*
X0079685Y0126779D01*
X0079673Y0126748D01*
X0079660Y0126705D01*
X0079654Y0126649D01*
Y0126643D01*
Y0126630D01*
Y0126612D01*
X0079660Y0126593D01*
X0079673Y0126538D01*
X0079691Y0126482D01*
X0079698Y0126470D01*
X0079716Y0126445D01*
X0079753Y0126408D01*
X0079797Y0126364D01*
X0079803D01*
X0079809Y0126358D01*
X0079846Y0126333D01*
X0079896Y0126302D01*
X0079964Y0126271D01*
X0079970D01*
X0079982Y0126265D01*
X0080001Y0126259D01*
X0080032Y0126247D01*
X0080100Y0126222D01*
X0080186Y0126185D01*
X0080193D01*
X0080217Y0126172D01*
X0080248Y0126160D01*
X0080286Y0126148D01*
X0080385Y0126104D01*
X0080484Y0126055D01*
X0080490D01*
X0080508Y0126042D01*
X0080533Y0126030D01*
X0080564Y0126011D01*
X0080638Y0125962D01*
X0080713Y0125900D01*
X0080719Y0125894D01*
X0080731Y0125888D01*
X0080744Y0125869D01*
X0080768Y0125844D01*
X0080812Y0125782D01*
X0080855Y0125702D01*
Y0125696D01*
X0080861Y0125683D01*
X0080874Y0125659D01*
X0080880Y0125628D01*
X0080892Y0125591D01*
X0080898Y0125547D01*
X0080905Y0125442D01*
Y0125436D01*
Y0125411D01*
X0080898Y0125374D01*
X0080892Y0125330D01*
X0080886Y0125281D01*
X0080867Y0125225D01*
X0080849Y0125176D01*
X0080818Y0125120D01*
X0080812Y0125114D01*
X0080805Y0125095D01*
X0080787Y0125071D01*
X0080762Y0125040D01*
X0080731Y0125002D01*
X0080694Y0124965D01*
X0080601Y0124891D01*
X0080595Y0124885D01*
X0080576Y0124879D01*
X0080552Y0124860D01*
X0080508Y0124841D01*
X0080465Y0124817D01*
X0080409Y0124798D01*
X0080354Y0124780D01*
X0080286Y0124761D01*
X0080279D01*
X0080255Y0124755D01*
X0080217Y0124749D01*
X0080174Y0124742D01*
X0080112Y0124730D01*
X0080050Y0124724D01*
X0079908Y0124718D01*
X0079846D01*
X0079772Y0124724D01*
X0079679Y0124736D01*
X0079574Y0124755D01*
X0079462Y0124780D01*
X0079351Y0124811D01*
X0079239Y0124860D01*
Y0125293D01*
X0079246D01*
X0079252Y0125281D01*
X0079270Y0125269D01*
X0079295Y0125256D01*
X0079363Y0125219D01*
X0079456Y0125176D01*
X0079561Y0125126D01*
X0079685Y0125089D01*
X0079821Y0125064D01*
X0079964Y0125052D01*
X0080013D01*
X0080044Y0125058D01*
X0080131Y0125071D01*
X0080230Y0125095D01*
X0080323Y0125139D01*
X0080366Y0125170D01*
X0080409Y0125200D01*
X0080440Y0125244D01*
X0080465Y0125287D01*
X0080484Y0125343D01*
X0080490Y0125405D01*
Y0125411D01*
Y0125423D01*
Y0125442D01*
X0080484Y0125461D01*
X0080471Y0125516D01*
X0080446Y0125572D01*
Y0125578D01*
X0080440Y0125584D01*
X0080416Y0125615D01*
X0080378Y0125659D01*
X0080323Y0125696D01*
X0080317D01*
X0080310Y0125708D01*
X0080273Y0125727D01*
X0080217Y0125764D01*
X0080143Y0125795D01*
X0080137D01*
X0080125Y0125801D01*
X0080106Y0125813D01*
X0080075Y0125826D01*
X0080007Y0125850D01*
X0079920Y0125888D01*
X0079914D01*
X0079889Y0125900D01*
X0079858Y0125912D01*
X0079821Y0125925D01*
X0079722Y0125968D01*
X0079623Y0126018D01*
X0079617Y0126024D01*
X0079605Y0126030D01*
X0079580Y0126042D01*
X0079549Y0126061D01*
X0079481Y0126110D01*
X0079413Y0126166D01*
X0079407Y0126172D01*
X0079400Y0126179D01*
X0079382Y0126197D01*
X0079363Y0126222D01*
X0079320Y0126284D01*
X0079283Y0126358D01*
Y0126364D01*
X0079277Y0126377D01*
X0079270Y0126401D01*
X0079264Y0126432D01*
X0079258Y0126470D01*
X0079252Y0126513D01*
X0079246Y0126618D01*
Y0126624D01*
Y0126649D01*
X0079252Y0126680D01*
X0079258Y0126723D01*
X0079264Y0126773D01*
X0079283Y0126822D01*
X0079301Y0126878D01*
X0079326Y0126927D01*
X0079332Y0126934D01*
X0079339Y0126952D01*
X0079357Y0126977D01*
X0079382Y0127008D01*
X0079450Y0127082D01*
X0079537Y0127156D01*
X0079543Y0127163D01*
X0079561Y0127169D01*
X0079586Y0127188D01*
X0079629Y0127206D01*
X0079673Y0127231D01*
X0079722Y0127256D01*
X0079846Y0127293D01*
X0079852D01*
X0079877Y0127299D01*
X0079908Y0127311D01*
X0079957Y0127318D01*
X0080007Y0127330D01*
X0080069Y0127336D01*
X0080205Y0127342D01*
X0080261D01*
X0080323Y0127336D01*
D02*
G37*
G36*
X0076968D02*
X0077048Y0127330D01*
X0077135Y0127318D01*
X0077234Y0127293D01*
X0077333Y0127268D01*
X0077432Y0127231D01*
Y0126822D01*
X0077420Y0126829D01*
X0077382Y0126853D01*
X0077327Y0126878D01*
X0077253Y0126915D01*
X0077160Y0126946D01*
X0077048Y0126977D01*
X0076924Y0126996D01*
X0076794Y0127002D01*
X0076726D01*
X0076664Y0126989D01*
X0076590Y0126977D01*
X0076584D01*
X0076578Y0126971D01*
X0076541Y0126959D01*
X0076491Y0126934D01*
X0076435Y0126903D01*
X0076423Y0126897D01*
X0076398Y0126872D01*
X0076367Y0126835D01*
X0076336Y0126791D01*
X0076330Y0126779D01*
X0076318Y0126748D01*
X0076305Y0126705D01*
X0076299Y0126649D01*
Y0126643D01*
Y0126630D01*
Y0126612D01*
X0076305Y0126593D01*
X0076318Y0126538D01*
X0076336Y0126482D01*
X0076342Y0126470D01*
X0076361Y0126445D01*
X0076398Y0126408D01*
X0076442Y0126364D01*
X0076448D01*
X0076454Y0126358D01*
X0076491Y0126333D01*
X0076541Y0126302D01*
X0076609Y0126271D01*
X0076615D01*
X0076627Y0126265D01*
X0076646Y0126259D01*
X0076677Y0126247D01*
X0076745Y0126222D01*
X0076832Y0126185D01*
X0076838D01*
X0076863Y0126172D01*
X0076893Y0126160D01*
X0076931Y0126148D01*
X0077030Y0126104D01*
X0077129Y0126055D01*
X0077135D01*
X0077153Y0126042D01*
X0077178Y0126030D01*
X0077209Y0126011D01*
X0077283Y0125962D01*
X0077358Y0125900D01*
X0077364Y0125894D01*
X0077376Y0125888D01*
X0077389Y0125869D01*
X0077413Y0125844D01*
X0077457Y0125782D01*
X0077500Y0125702D01*
Y0125696D01*
X0077506Y0125683D01*
X0077519Y0125659D01*
X0077525Y0125628D01*
X0077537Y0125591D01*
X0077543Y0125547D01*
X0077550Y0125442D01*
Y0125436D01*
Y0125411D01*
X0077543Y0125374D01*
X0077537Y0125330D01*
X0077531Y0125281D01*
X0077513Y0125225D01*
X0077494Y0125176D01*
X0077463Y0125120D01*
X0077457Y0125114D01*
X0077451Y0125095D01*
X0077432Y0125071D01*
X0077407Y0125040D01*
X0077376Y0125002D01*
X0077339Y0124965D01*
X0077246Y0124891D01*
X0077240Y0124885D01*
X0077222Y0124879D01*
X0077197Y0124860D01*
X0077153Y0124841D01*
X0077110Y0124817D01*
X0077054Y0124798D01*
X0076999Y0124780D01*
X0076931Y0124761D01*
X0076924D01*
X0076900Y0124755D01*
X0076863Y0124749D01*
X0076819Y0124742D01*
X0076757Y0124730D01*
X0076695Y0124724D01*
X0076553Y0124718D01*
X0076491D01*
X0076417Y0124724D01*
X0076324Y0124736D01*
X0076219Y0124755D01*
X0076107Y0124780D01*
X0075996Y0124811D01*
X0075884Y0124860D01*
Y0125293D01*
X0075891D01*
X0075897Y0125281D01*
X0075915Y0125269D01*
X0075940Y0125256D01*
X0076008Y0125219D01*
X0076101Y0125176D01*
X0076206Y0125126D01*
X0076330Y0125089D01*
X0076466Y0125064D01*
X0076609Y0125052D01*
X0076658D01*
X0076689Y0125058D01*
X0076776Y0125071D01*
X0076875Y0125095D01*
X0076968Y0125139D01*
X0077011Y0125170D01*
X0077054Y0125200D01*
X0077085Y0125244D01*
X0077110Y0125287D01*
X0077129Y0125343D01*
X0077135Y0125405D01*
Y0125411D01*
Y0125423D01*
Y0125442D01*
X0077129Y0125461D01*
X0077116Y0125516D01*
X0077091Y0125572D01*
Y0125578D01*
X0077085Y0125584D01*
X0077061Y0125615D01*
X0077023Y0125659D01*
X0076968Y0125696D01*
X0076961D01*
X0076955Y0125708D01*
X0076918Y0125727D01*
X0076863Y0125764D01*
X0076788Y0125795D01*
X0076782D01*
X0076770Y0125801D01*
X0076751Y0125813D01*
X0076720Y0125826D01*
X0076652Y0125850D01*
X0076565Y0125888D01*
X0076559D01*
X0076534Y0125900D01*
X0076503Y0125912D01*
X0076466Y0125925D01*
X0076367Y0125968D01*
X0076268Y0126018D01*
X0076262Y0126024D01*
X0076250Y0126030D01*
X0076225Y0126042D01*
X0076194Y0126061D01*
X0076126Y0126110D01*
X0076058Y0126166D01*
X0076052Y0126172D01*
X0076045Y0126179D01*
X0076027Y0126197D01*
X0076008Y0126222D01*
X0075965Y0126284D01*
X0075928Y0126358D01*
Y0126364D01*
X0075922Y0126377D01*
X0075915Y0126401D01*
X0075909Y0126432D01*
X0075903Y0126470D01*
X0075897Y0126513D01*
X0075891Y0126618D01*
Y0126624D01*
Y0126649D01*
X0075897Y0126680D01*
X0075903Y0126723D01*
X0075909Y0126773D01*
X0075928Y0126822D01*
X0075946Y0126878D01*
X0075971Y0126927D01*
X0075977Y0126934D01*
X0075984Y0126952D01*
X0076002Y0126977D01*
X0076027Y0127008D01*
X0076095Y0127082D01*
X0076182Y0127156D01*
X0076188Y0127163D01*
X0076206Y0127169D01*
X0076231Y0127188D01*
X0076275Y0127206D01*
X0076318Y0127231D01*
X0076367Y0127256D01*
X0076491Y0127293D01*
X0076497D01*
X0076522Y0127299D01*
X0076553Y0127311D01*
X0076603Y0127318D01*
X0076652Y0127330D01*
X0076714Y0127336D01*
X0076850Y0127342D01*
X0076906D01*
X0076968Y0127336D01*
D02*
G37*
G36*
X0072820Y0127324D02*
X0072895Y0127318D01*
X0072938Y0127305D01*
X0072969Y0127293D01*
Y0126878D01*
X0072963Y0126884D01*
X0072950Y0126890D01*
X0072926Y0126903D01*
X0072895Y0126921D01*
X0072851Y0126934D01*
X0072796Y0126946D01*
X0072734Y0126952D01*
X0072666Y0126959D01*
X0072653D01*
X0072622Y0126952D01*
X0072573Y0126946D01*
X0072517Y0126927D01*
X0072443Y0126897D01*
X0072375Y0126853D01*
X0072300Y0126791D01*
X0072232Y0126711D01*
X0072226Y0126699D01*
X0072208Y0126667D01*
X0072177Y0126612D01*
X0072146Y0126538D01*
X0072115Y0126445D01*
X0072084Y0126327D01*
X0072065Y0126197D01*
X0072059Y0126049D01*
Y0124773D01*
X0071657D01*
Y0127287D01*
X0072059D01*
Y0126767D01*
X0072071D01*
Y0126773D01*
X0072078Y0126779D01*
X0072090Y0126810D01*
X0072109Y0126859D01*
X0072140Y0126921D01*
X0072171Y0126983D01*
X0072220Y0127051D01*
X0072269Y0127119D01*
X0072331Y0127181D01*
X0072338Y0127188D01*
X0072362Y0127206D01*
X0072399Y0127231D01*
X0072449Y0127256D01*
X0072505Y0127280D01*
X0072573Y0127305D01*
X0072647Y0127324D01*
X0072728Y0127330D01*
X0072783D01*
X0072820Y0127324D01*
D02*
G37*
G36*
X0068184D02*
X0068258Y0127318D01*
X0068302Y0127305D01*
X0068333Y0127293D01*
Y0126878D01*
X0068326Y0126884D01*
X0068314Y0126890D01*
X0068289Y0126903D01*
X0068258Y0126921D01*
X0068215Y0126934D01*
X0068159Y0126946D01*
X0068098Y0126952D01*
X0068029Y0126959D01*
X0068017D01*
X0067986Y0126952D01*
X0067936Y0126946D01*
X0067881Y0126927D01*
X0067807Y0126897D01*
X0067738Y0126853D01*
X0067664Y0126791D01*
X0067596Y0126711D01*
X0067590Y0126699D01*
X0067571Y0126667D01*
X0067540Y0126612D01*
X0067509Y0126538D01*
X0067479Y0126445D01*
X0067448Y0126327D01*
X0067429Y0126197D01*
X0067423Y0126049D01*
Y0124773D01*
X0067020D01*
Y0127287D01*
X0067423D01*
Y0126767D01*
X0067435D01*
Y0126773D01*
X0067441Y0126779D01*
X0067454Y0126810D01*
X0067472Y0126859D01*
X0067503Y0126921D01*
X0067534Y0126983D01*
X0067584Y0127051D01*
X0067633Y0127119D01*
X0067695Y0127181D01*
X0067701Y0127188D01*
X0067726Y0127206D01*
X0067763Y0127231D01*
X0067813Y0127256D01*
X0067868Y0127280D01*
X0067936Y0127305D01*
X0068011Y0127324D01*
X0068091Y0127330D01*
X0068147D01*
X0068184Y0127324D01*
D02*
G37*
G36*
X0078571Y0124773D02*
X0078169D01*
Y0127287D01*
X0078571D01*
Y0124773D01*
D02*
G37*
G36*
X0060614D02*
X0060211D01*
Y0128494D01*
X0060614D01*
Y0124773D01*
D02*
G37*
G36*
X0046829Y0127918D02*
X0045814D01*
Y0124773D01*
X0045405D01*
Y0127918D01*
X0044390D01*
Y0128289D01*
X0046829D01*
Y0127918D01*
D02*
G37*
G36*
X0082056Y0127287D02*
X0082693D01*
Y0126940D01*
X0082056D01*
Y0125522D01*
Y0125510D01*
Y0125479D01*
X0082062Y0125436D01*
X0082068Y0125380D01*
X0082093Y0125262D01*
X0082112Y0125207D01*
X0082143Y0125163D01*
X0082149Y0125157D01*
X0082161Y0125145D01*
X0082180Y0125132D01*
X0082211Y0125114D01*
X0082248Y0125089D01*
X0082297Y0125077D01*
X0082359Y0125064D01*
X0082427Y0125058D01*
X0082452D01*
X0082483Y0125064D01*
X0082520Y0125071D01*
X0082607Y0125095D01*
X0082650Y0125114D01*
X0082693Y0125139D01*
Y0124792D01*
X0082687D01*
X0082669Y0124780D01*
X0082638Y0124773D01*
X0082594Y0124761D01*
X0082539Y0124749D01*
X0082477Y0124736D01*
X0082402Y0124730D01*
X0082316Y0124724D01*
X0082285D01*
X0082254Y0124730D01*
X0082211Y0124736D01*
X0082161Y0124749D01*
X0082105Y0124761D01*
X0082050Y0124786D01*
X0081988Y0124817D01*
X0081926Y0124854D01*
X0081864Y0124903D01*
X0081808Y0124959D01*
X0081759Y0125033D01*
X0081716Y0125114D01*
X0081684Y0125213D01*
X0081660Y0125324D01*
X0081654Y0125454D01*
Y0126940D01*
X0081226D01*
Y0127287D01*
X0081654D01*
Y0127899D01*
X0082056Y0128029D01*
Y0127287D01*
D02*
G37*
G36*
X0074473Y0127336D02*
X0074516Y0127330D01*
X0074560Y0127324D01*
X0074671Y0127305D01*
X0074795Y0127262D01*
X0074919Y0127206D01*
X0074981Y0127169D01*
X0075043Y0127126D01*
X0075098Y0127076D01*
X0075154Y0127020D01*
X0075160Y0127014D01*
X0075166Y0127008D01*
X0075179Y0126989D01*
X0075197Y0126965D01*
X0075216Y0126927D01*
X0075241Y0126890D01*
X0075266Y0126847D01*
X0075290Y0126791D01*
X0075315Y0126729D01*
X0075340Y0126667D01*
X0075365Y0126593D01*
X0075383Y0126513D01*
X0075402Y0126426D01*
X0075414Y0126339D01*
X0075426Y0126240D01*
Y0126135D01*
Y0125925D01*
X0073650D01*
Y0125919D01*
Y0125906D01*
Y0125888D01*
X0073656Y0125857D01*
X0073662Y0125820D01*
Y0125782D01*
X0073681Y0125683D01*
X0073712Y0125584D01*
X0073749Y0125473D01*
X0073805Y0125368D01*
X0073873Y0125275D01*
X0073885Y0125262D01*
X0073910Y0125238D01*
X0073959Y0125207D01*
X0074028Y0125163D01*
X0074114Y0125120D01*
X0074213Y0125089D01*
X0074331Y0125064D01*
X0074467Y0125052D01*
X0074510D01*
X0074541Y0125058D01*
X0074578D01*
X0074622Y0125064D01*
X0074727Y0125089D01*
X0074845Y0125120D01*
X0074975Y0125170D01*
X0075111Y0125238D01*
X0075179Y0125281D01*
X0075247Y0125330D01*
Y0124953D01*
X0075241D01*
X0075235Y0124941D01*
X0075216Y0124934D01*
X0075185Y0124916D01*
X0075154Y0124897D01*
X0075117Y0124879D01*
X0075067Y0124860D01*
X0075018Y0124835D01*
X0074956Y0124811D01*
X0074888Y0124792D01*
X0074739Y0124755D01*
X0074566Y0124730D01*
X0074374Y0124718D01*
X0074325D01*
X0074287Y0124724D01*
X0074244Y0124730D01*
X0074188Y0124736D01*
X0074071Y0124761D01*
X0073935Y0124798D01*
X0073799Y0124860D01*
X0073730Y0124903D01*
X0073662Y0124947D01*
X0073600Y0124996D01*
X0073539Y0125058D01*
X0073532Y0125064D01*
X0073526Y0125077D01*
X0073514Y0125095D01*
X0073489Y0125120D01*
X0073470Y0125157D01*
X0073446Y0125200D01*
X0073415Y0125250D01*
X0073390Y0125306D01*
X0073359Y0125368D01*
X0073334Y0125442D01*
X0073303Y0125522D01*
X0073285Y0125609D01*
X0073266Y0125702D01*
X0073247Y0125801D01*
X0073241Y0125906D01*
X0073235Y0126018D01*
Y0126024D01*
Y0126042D01*
Y0126073D01*
X0073241Y0126117D01*
X0073247Y0126166D01*
X0073254Y0126222D01*
X0073260Y0126290D01*
X0073278Y0126358D01*
X0073316Y0126507D01*
X0073371Y0126667D01*
X0073409Y0126748D01*
X0073458Y0126822D01*
X0073507Y0126903D01*
X0073563Y0126971D01*
X0073569Y0126977D01*
X0073582Y0126989D01*
X0073600Y0127008D01*
X0073625Y0127027D01*
X0073656Y0127058D01*
X0073693Y0127088D01*
X0073743Y0127119D01*
X0073792Y0127156D01*
X0073910Y0127225D01*
X0074052Y0127287D01*
X0074133Y0127305D01*
X0074213Y0127324D01*
X0074300Y0127336D01*
X0074393Y0127342D01*
X0074442D01*
X0074473Y0127336D01*
D02*
G37*
G36*
X0065460D02*
X0065504Y0127330D01*
X0065547Y0127324D01*
X0065659Y0127305D01*
X0065782Y0127262D01*
X0065906Y0127206D01*
X0065968Y0127169D01*
X0066030Y0127126D01*
X0066086Y0127076D01*
X0066141Y0127020D01*
X0066148Y0127014D01*
X0066154Y0127008D01*
X0066166Y0126989D01*
X0066185Y0126965D01*
X0066203Y0126927D01*
X0066228Y0126890D01*
X0066253Y0126847D01*
X0066278Y0126791D01*
X0066302Y0126729D01*
X0066327Y0126667D01*
X0066352Y0126593D01*
X0066370Y0126513D01*
X0066389Y0126426D01*
X0066401Y0126339D01*
X0066414Y0126240D01*
Y0126135D01*
Y0125925D01*
X0064637D01*
Y0125919D01*
Y0125906D01*
Y0125888D01*
X0064643Y0125857D01*
X0064650Y0125820D01*
Y0125782D01*
X0064668Y0125683D01*
X0064699Y0125584D01*
X0064736Y0125473D01*
X0064792Y0125368D01*
X0064860Y0125275D01*
X0064872Y0125262D01*
X0064897Y0125238D01*
X0064947Y0125207D01*
X0065015Y0125163D01*
X0065101Y0125120D01*
X0065201Y0125089D01*
X0065318Y0125064D01*
X0065454Y0125052D01*
X0065498D01*
X0065529Y0125058D01*
X0065566D01*
X0065609Y0125064D01*
X0065714Y0125089D01*
X0065832Y0125120D01*
X0065962Y0125170D01*
X0066098Y0125238D01*
X0066166Y0125281D01*
X0066234Y0125330D01*
Y0124953D01*
X0066228D01*
X0066222Y0124941D01*
X0066203Y0124934D01*
X0066172Y0124916D01*
X0066141Y0124897D01*
X0066104Y0124879D01*
X0066055Y0124860D01*
X0066005Y0124835D01*
X0065943Y0124811D01*
X0065875Y0124792D01*
X0065727Y0124755D01*
X0065553Y0124730D01*
X0065361Y0124718D01*
X0065312D01*
X0065275Y0124724D01*
X0065232Y0124730D01*
X0065176Y0124736D01*
X0065058Y0124761D01*
X0064922Y0124798D01*
X0064786Y0124860D01*
X0064718Y0124903D01*
X0064650Y0124947D01*
X0064588Y0124996D01*
X0064526Y0125058D01*
X0064520Y0125064D01*
X0064513Y0125077D01*
X0064501Y0125095D01*
X0064476Y0125120D01*
X0064458Y0125157D01*
X0064433Y0125200D01*
X0064402Y0125250D01*
X0064377Y0125306D01*
X0064346Y0125368D01*
X0064322Y0125442D01*
X0064291Y0125522D01*
X0064272Y0125609D01*
X0064253Y0125702D01*
X0064235Y0125801D01*
X0064229Y0125906D01*
X0064223Y0126018D01*
Y0126024D01*
Y0126042D01*
Y0126073D01*
X0064229Y0126117D01*
X0064235Y0126166D01*
X0064241Y0126222D01*
X0064247Y0126290D01*
X0064266Y0126358D01*
X0064303Y0126507D01*
X0064359Y0126667D01*
X0064396Y0126748D01*
X0064445Y0126822D01*
X0064495Y0126903D01*
X0064551Y0126971D01*
X0064557Y0126977D01*
X0064569Y0126989D01*
X0064588Y0127008D01*
X0064613Y0127027D01*
X0064643Y0127058D01*
X0064681Y0127088D01*
X0064730Y0127119D01*
X0064780Y0127156D01*
X0064897Y0127225D01*
X0065040Y0127287D01*
X0065120Y0127305D01*
X0065201Y0127324D01*
X0065287Y0127336D01*
X0065380Y0127342D01*
X0065430D01*
X0065460Y0127336D01*
D02*
G37*
G36*
X0058472D02*
X0058515Y0127330D01*
X0058571Y0127324D01*
X0058695Y0127299D01*
X0058837Y0127256D01*
X0058980Y0127194D01*
X0059054Y0127156D01*
X0059122Y0127113D01*
X0059190Y0127058D01*
X0059252Y0126996D01*
X0059258Y0126989D01*
X0059264Y0126977D01*
X0059283Y0126959D01*
X0059302Y0126934D01*
X0059326Y0126897D01*
X0059351Y0126853D01*
X0059382Y0126804D01*
X0059413Y0126748D01*
X0059438Y0126680D01*
X0059469Y0126612D01*
X0059493Y0126531D01*
X0059518Y0126445D01*
X0059537Y0126352D01*
X0059555Y0126253D01*
X0059562Y0126148D01*
X0059568Y0126036D01*
Y0126030D01*
Y0126011D01*
Y0125980D01*
X0059562Y0125937D01*
X0059555Y0125888D01*
X0059549Y0125826D01*
X0059537Y0125764D01*
X0059524Y0125689D01*
X0059487Y0125541D01*
X0059425Y0125380D01*
X0059388Y0125300D01*
X0059339Y0125219D01*
X0059289Y0125145D01*
X0059227Y0125077D01*
X0059221Y0125071D01*
X0059209Y0125064D01*
X0059190Y0125046D01*
X0059165Y0125021D01*
X0059128Y0124996D01*
X0059091Y0124965D01*
X0059042Y0124928D01*
X0058986Y0124897D01*
X0058924Y0124866D01*
X0058856Y0124829D01*
X0058781Y0124798D01*
X0058701Y0124773D01*
X0058614Y0124749D01*
X0058521Y0124736D01*
X0058422Y0124724D01*
X0058317Y0124718D01*
X0058262D01*
X0058224Y0124724D01*
X0058181Y0124730D01*
X0058125Y0124736D01*
X0058064Y0124749D01*
X0057995Y0124761D01*
X0057853Y0124804D01*
X0057704Y0124866D01*
X0057630Y0124903D01*
X0057562Y0124953D01*
X0057494Y0125002D01*
X0057426Y0125064D01*
X0057420Y0125071D01*
X0057414Y0125083D01*
X0057395Y0125101D01*
X0057376Y0125126D01*
X0057352Y0125163D01*
X0057321Y0125207D01*
X0057290Y0125256D01*
X0057265Y0125312D01*
X0057234Y0125380D01*
X0057203Y0125448D01*
X0057172Y0125522D01*
X0057147Y0125609D01*
X0057110Y0125795D01*
X0057104Y0125894D01*
X0057098Y0125999D01*
Y0126005D01*
Y0126030D01*
Y0126061D01*
X0057104Y0126104D01*
X0057110Y0126154D01*
X0057116Y0126216D01*
X0057129Y0126284D01*
X0057141Y0126358D01*
X0057178Y0126519D01*
X0057240Y0126680D01*
X0057284Y0126760D01*
X0057327Y0126841D01*
X0057376Y0126915D01*
X0057438Y0126983D01*
X0057445Y0126989D01*
X0057457Y0127002D01*
X0057475Y0127014D01*
X0057500Y0127039D01*
X0057537Y0127064D01*
X0057581Y0127095D01*
X0057630Y0127132D01*
X0057686Y0127163D01*
X0057748Y0127194D01*
X0057822Y0127231D01*
X0057896Y0127262D01*
X0057983Y0127287D01*
X0058070Y0127311D01*
X0058169Y0127330D01*
X0058274Y0127336D01*
X0058379Y0127342D01*
X0058435D01*
X0058472Y0127336D01*
D02*
G37*
G36*
X0048531D02*
X0048574Y0127330D01*
X0048630Y0127324D01*
X0048754Y0127299D01*
X0048896Y0127256D01*
X0049038Y0127194D01*
X0049113Y0127156D01*
X0049181Y0127113D01*
X0049249Y0127058D01*
X0049311Y0126996D01*
X0049317Y0126989D01*
X0049323Y0126977D01*
X0049342Y0126959D01*
X0049360Y0126934D01*
X0049385Y0126897D01*
X0049410Y0126853D01*
X0049441Y0126804D01*
X0049472Y0126748D01*
X0049496Y0126680D01*
X0049527Y0126612D01*
X0049552Y0126531D01*
X0049577Y0126445D01*
X0049595Y0126352D01*
X0049614Y0126253D01*
X0049620Y0126148D01*
X0049626Y0126036D01*
Y0126030D01*
Y0126011D01*
Y0125980D01*
X0049620Y0125937D01*
X0049614Y0125888D01*
X0049608Y0125826D01*
X0049595Y0125764D01*
X0049583Y0125689D01*
X0049546Y0125541D01*
X0049484Y0125380D01*
X0049447Y0125300D01*
X0049398Y0125219D01*
X0049348Y0125145D01*
X0049286Y0125077D01*
X0049280Y0125071D01*
X0049268Y0125064D01*
X0049249Y0125046D01*
X0049224Y0125021D01*
X0049187Y0124996D01*
X0049150Y0124965D01*
X0049100Y0124928D01*
X0049045Y0124897D01*
X0048983Y0124866D01*
X0048915Y0124829D01*
X0048840Y0124798D01*
X0048760Y0124773D01*
X0048673Y0124749D01*
X0048580Y0124736D01*
X0048481Y0124724D01*
X0048376Y0124718D01*
X0048320D01*
X0048283Y0124724D01*
X0048240Y0124730D01*
X0048184Y0124736D01*
X0048122Y0124749D01*
X0048054Y0124761D01*
X0047912Y0124804D01*
X0047763Y0124866D01*
X0047689Y0124903D01*
X0047621Y0124953D01*
X0047553Y0125002D01*
X0047485Y0125064D01*
X0047479Y0125071D01*
X0047472Y0125083D01*
X0047454Y0125101D01*
X0047435Y0125126D01*
X0047411Y0125163D01*
X0047379Y0125207D01*
X0047349Y0125256D01*
X0047324Y0125312D01*
X0047293Y0125380D01*
X0047262Y0125448D01*
X0047231Y0125522D01*
X0047206Y0125609D01*
X0047169Y0125795D01*
X0047163Y0125894D01*
X0047157Y0125999D01*
Y0126005D01*
Y0126030D01*
Y0126061D01*
X0047163Y0126104D01*
X0047169Y0126154D01*
X0047175Y0126216D01*
X0047188Y0126284D01*
X0047200Y0126358D01*
X0047237Y0126519D01*
X0047299Y0126680D01*
X0047342Y0126760D01*
X0047386Y0126841D01*
X0047435Y0126915D01*
X0047497Y0126983D01*
X0047503Y0126989D01*
X0047516Y0127002D01*
X0047534Y0127014D01*
X0047559Y0127039D01*
X0047596Y0127064D01*
X0047640Y0127095D01*
X0047689Y0127132D01*
X0047745Y0127163D01*
X0047807Y0127194D01*
X0047881Y0127231D01*
X0047955Y0127262D01*
X0048042Y0127287D01*
X0048129Y0127311D01*
X0048228Y0127330D01*
X0048333Y0127336D01*
X0048438Y0127342D01*
X0048494D01*
X0048531Y0127336D01*
D02*
G37*
G36*
X0083244Y0128277D02*
X0083269Y0128246D01*
X0083306Y0128197D01*
X0083356Y0128128D01*
X0083418Y0128042D01*
X0083480Y0127936D01*
X0083548Y0127819D01*
X0083622Y0127683D01*
X0083696Y0127528D01*
X0083764Y0127361D01*
X0083826Y0127181D01*
X0083888Y0126989D01*
X0083938Y0126785D01*
X0083975Y0126575D01*
X0084000Y0126346D01*
X0084006Y0126110D01*
Y0126104D01*
Y0126098D01*
Y0126079D01*
Y0126055D01*
Y0126024D01*
X0084000Y0125987D01*
X0083993Y0125900D01*
X0083981Y0125789D01*
X0083962Y0125665D01*
X0083944Y0125522D01*
X0083913Y0125368D01*
X0083870Y0125200D01*
X0083820Y0125033D01*
X0083758Y0124854D01*
X0083684Y0124674D01*
X0083597Y0124495D01*
X0083492Y0124315D01*
X0083374Y0124142D01*
X0083238Y0123975D01*
X0082879D01*
X0082885Y0123987D01*
X0082910Y0124018D01*
X0082947Y0124068D01*
X0082997Y0124136D01*
X0083059Y0124223D01*
X0083121Y0124328D01*
X0083189Y0124451D01*
X0083263Y0124588D01*
X0083337Y0124736D01*
X0083405Y0124903D01*
X0083467Y0125077D01*
X0083529Y0125262D01*
X0083579Y0125467D01*
X0083616Y0125671D01*
X0083640Y0125894D01*
X0083647Y0126117D01*
Y0126123D01*
Y0126129D01*
Y0126148D01*
Y0126172D01*
X0083640Y0126234D01*
X0083634Y0126327D01*
X0083622Y0126432D01*
X0083603Y0126556D01*
X0083585Y0126699D01*
X0083548Y0126853D01*
X0083511Y0127020D01*
X0083461Y0127194D01*
X0083393Y0127373D01*
X0083319Y0127553D01*
X0083232Y0127745D01*
X0083127Y0127930D01*
X0083009Y0128110D01*
X0082873Y0128289D01*
X0083238D01*
X0083244Y0128277D01*
D02*
G37*
G36*
X0071199D02*
X0071174Y0128246D01*
X0071131Y0128197D01*
X0071087Y0128122D01*
X0071025Y0128035D01*
X0070957Y0127930D01*
X0070889Y0127806D01*
X0070821Y0127670D01*
X0070747Y0127516D01*
X0070679Y0127348D01*
X0070611Y0127169D01*
X0070555Y0126977D01*
X0070505Y0126779D01*
X0070462Y0126568D01*
X0070437Y0126346D01*
X0070431Y0126117D01*
Y0126110D01*
Y0126104D01*
Y0126086D01*
Y0126061D01*
X0070437Y0125999D01*
X0070443Y0125912D01*
X0070456Y0125807D01*
X0070474Y0125683D01*
X0070493Y0125541D01*
X0070530Y0125392D01*
X0070567Y0125225D01*
X0070617Y0125058D01*
X0070679Y0124879D01*
X0070753Y0124699D01*
X0070846Y0124513D01*
X0070945Y0124328D01*
X0071062Y0124148D01*
X0071199Y0123975D01*
X0070840D01*
X0070833Y0123987D01*
X0070809Y0124012D01*
X0070771Y0124062D01*
X0070722Y0124130D01*
X0070666Y0124216D01*
X0070598Y0124315D01*
X0070530Y0124433D01*
X0070462Y0124569D01*
X0070388Y0124718D01*
X0070320Y0124879D01*
X0070258Y0125052D01*
X0070196Y0125244D01*
X0070146Y0125442D01*
X0070109Y0125652D01*
X0070085Y0125875D01*
X0070078Y0126110D01*
Y0126117D01*
Y0126123D01*
Y0126141D01*
Y0126166D01*
X0070085Y0126197D01*
Y0126234D01*
X0070091Y0126327D01*
X0070103Y0126432D01*
X0070122Y0126562D01*
X0070140Y0126705D01*
X0070171Y0126866D01*
X0070214Y0127033D01*
X0070264Y0127206D01*
X0070326Y0127386D01*
X0070400Y0127571D01*
X0070487Y0127757D01*
X0070586Y0127936D01*
X0070703Y0128116D01*
X0070840Y0128289D01*
X0071205D01*
X0071199Y0128277D01*
D02*
G37*
%LPC*%
G36*
X0055495Y0166064D02*
X0055458D01*
X0055433Y0166058D01*
X0055365Y0166051D01*
X0055284Y0166033D01*
X0055191Y0165996D01*
X0055092Y0165946D01*
X0054999Y0165884D01*
X0054956Y0165841D01*
X0054913Y0165791D01*
X0054907Y0165779D01*
X0054882Y0165742D01*
X0054845Y0165680D01*
X0054808Y0165599D01*
X0054770Y0165494D01*
X0054733Y0165364D01*
X0054708Y0165216D01*
X0054702Y0165049D01*
Y0165042D01*
Y0165030D01*
Y0165005D01*
X0054708Y0164974D01*
Y0164943D01*
X0054715Y0164900D01*
X0054727Y0164801D01*
X0054752Y0164690D01*
X0054789Y0164578D01*
X0054839Y0164467D01*
X0054907Y0164361D01*
X0054919Y0164349D01*
X0054944Y0164324D01*
X0054987Y0164281D01*
X0055049Y0164238D01*
X0055129Y0164194D01*
X0055222Y0164151D01*
X0055327Y0164126D01*
X0055451Y0164114D01*
X0055482D01*
X0055507Y0164120D01*
X0055569Y0164126D01*
X0055643Y0164145D01*
X0055730Y0164176D01*
X0055823Y0164213D01*
X0055909Y0164275D01*
X0055996Y0164355D01*
X0056002Y0164368D01*
X0056027Y0164399D01*
X0056064Y0164454D01*
X0056101Y0164522D01*
X0056138Y0164609D01*
X0056176Y0164714D01*
X0056200Y0164838D01*
X0056207Y0164968D01*
Y0165339D01*
Y0165346D01*
Y0165352D01*
Y0165389D01*
X0056194Y0165445D01*
X0056182Y0165519D01*
X0056157Y0165599D01*
X0056120Y0165686D01*
X0056070Y0165773D01*
X0056002Y0165853D01*
X0055996Y0165859D01*
X0055965Y0165884D01*
X0055922Y0165921D01*
X0055866Y0165958D01*
X0055792Y0165996D01*
X0055705Y0166033D01*
X0055606Y0166058D01*
X0055495Y0166064D01*
D02*
G37*
G36*
X0051558Y0165104D02*
X0050951Y0165017D01*
X0050939D01*
X0050908Y0165011D01*
X0050858Y0164999D01*
X0050796Y0164987D01*
X0050728Y0164968D01*
X0050654Y0164943D01*
X0050592Y0164918D01*
X0050530Y0164881D01*
X0050524Y0164875D01*
X0050506Y0164863D01*
X0050487Y0164838D01*
X0050462Y0164801D01*
X0050431Y0164751D01*
X0050413Y0164690D01*
X0050394Y0164615D01*
X0050388Y0164529D01*
Y0164522D01*
Y0164498D01*
X0050394Y0164467D01*
X0050406Y0164423D01*
X0050419Y0164374D01*
X0050444Y0164324D01*
X0050475Y0164275D01*
X0050518Y0164225D01*
X0050524Y0164219D01*
X0050543Y0164207D01*
X0050574Y0164188D01*
X0050611Y0164170D01*
X0050660Y0164151D01*
X0050722Y0164132D01*
X0050790Y0164120D01*
X0050871Y0164114D01*
X0050883D01*
X0050920Y0164120D01*
X0050976Y0164126D01*
X0051044Y0164139D01*
X0051118Y0164163D01*
X0051205Y0164200D01*
X0051285Y0164256D01*
X0051360Y0164324D01*
X0051366Y0164337D01*
X0051391Y0164361D01*
X0051422Y0164405D01*
X0051459Y0164467D01*
X0051496Y0164547D01*
X0051527Y0164634D01*
X0051552Y0164739D01*
X0051558Y0164850D01*
Y0165104D01*
D02*
G37*
G36*
X0045275Y0166980D02*
X0044804D01*
Y0165841D01*
X0045281D01*
X0045343Y0165847D01*
X0045417Y0165859D01*
X0045504Y0165878D01*
X0045597Y0165909D01*
X0045677Y0165946D01*
X0045758Y0166002D01*
X0045764Y0166008D01*
X0045789Y0166033D01*
X0045820Y0166070D01*
X0045857Y0166126D01*
X0045888Y0166187D01*
X0045919Y0166268D01*
X0045943Y0166361D01*
X0045950Y0166466D01*
Y0166472D01*
Y0166491D01*
X0045943Y0166516D01*
X0045937Y0166546D01*
X0045913Y0166627D01*
X0045894Y0166676D01*
X0045863Y0166726D01*
X0045832Y0166769D01*
X0045783Y0166819D01*
X0045733Y0166862D01*
X0045665Y0166899D01*
X0045591Y0166930D01*
X0045498Y0166955D01*
X0045393Y0166974D01*
X0045275Y0166980D01*
D02*
G37*
G36*
Y0165469D02*
X0044804D01*
Y0164207D01*
X0045423D01*
X0045485Y0164213D01*
X0045572Y0164225D01*
X0045659Y0164250D01*
X0045752Y0164275D01*
X0045844Y0164318D01*
X0045925Y0164374D01*
X0045931Y0164380D01*
X0045956Y0164405D01*
X0045987Y0164442D01*
X0046024Y0164498D01*
X0046061Y0164566D01*
X0046092Y0164646D01*
X0046117Y0164745D01*
X0046123Y0164850D01*
Y0164857D01*
Y0164875D01*
X0046117Y0164906D01*
X0046111Y0164950D01*
X0046098Y0164993D01*
X0046080Y0165049D01*
X0046055Y0165104D01*
X0046018Y0165160D01*
X0045974Y0165216D01*
X0045919Y0165271D01*
X0045851Y0165327D01*
X0045764Y0165370D01*
X0045671Y0165414D01*
X0045553Y0165445D01*
X0045423Y0165463D01*
X0045275Y0165469D01*
D02*
G37*
G36*
X0073402Y0166064D02*
X0073353D01*
X0073303Y0166051D01*
X0073235Y0166039D01*
X0073161Y0166014D01*
X0073074Y0165977D01*
X0072994Y0165928D01*
X0072913Y0165859D01*
X0072907Y0165853D01*
X0072882Y0165822D01*
X0072851Y0165779D01*
X0072808Y0165717D01*
X0072765Y0165643D01*
X0072728Y0165550D01*
X0072697Y0165445D01*
X0072672Y0165327D01*
X0074028D01*
Y0165333D01*
Y0165346D01*
Y0165358D01*
Y0165383D01*
X0074021Y0165451D01*
X0074009Y0165525D01*
X0073984Y0165618D01*
X0073959Y0165705D01*
X0073916Y0165791D01*
X0073860Y0165872D01*
X0073854Y0165878D01*
X0073829Y0165903D01*
X0073792Y0165934D01*
X0073743Y0165971D01*
X0073675Y0166002D01*
X0073594Y0166033D01*
X0073507Y0166058D01*
X0073402Y0166064D01*
D02*
G37*
G36*
X0060298Y0167035D02*
X0060242D01*
X0060205Y0167029D01*
X0060156Y0167023D01*
X0060106Y0167017D01*
X0060044Y0167005D01*
X0059976Y0166986D01*
X0059834Y0166936D01*
X0059759Y0166905D01*
X0059679Y0166868D01*
X0059605Y0166819D01*
X0059531Y0166763D01*
X0059462Y0166701D01*
X0059394Y0166633D01*
X0059388Y0166627D01*
X0059382Y0166615D01*
X0059363Y0166590D01*
X0059339Y0166559D01*
X0059314Y0166522D01*
X0059289Y0166472D01*
X0059258Y0166417D01*
X0059227Y0166355D01*
X0059190Y0166280D01*
X0059159Y0166206D01*
X0059134Y0166119D01*
X0059110Y0166026D01*
X0059085Y0165928D01*
X0059066Y0165816D01*
X0059060Y0165705D01*
X0059054Y0165587D01*
Y0165581D01*
Y0165556D01*
Y0165525D01*
X0059060Y0165482D01*
X0059066Y0165426D01*
X0059072Y0165358D01*
X0059085Y0165290D01*
X0059097Y0165216D01*
X0059134Y0165049D01*
X0059196Y0164869D01*
X0059233Y0164782D01*
X0059277Y0164702D01*
X0059332Y0164615D01*
X0059388Y0164541D01*
X0059394Y0164535D01*
X0059407Y0164522D01*
X0059425Y0164504D01*
X0059450Y0164479D01*
X0059481Y0164448D01*
X0059524Y0164417D01*
X0059574Y0164380D01*
X0059623Y0164343D01*
X0059685Y0164306D01*
X0059753Y0164269D01*
X0059902Y0164207D01*
X0059989Y0164182D01*
X0060075Y0164163D01*
X0060168Y0164151D01*
X0060267Y0164145D01*
X0060323D01*
X0060366Y0164151D01*
X0060409Y0164157D01*
X0060471Y0164163D01*
X0060533Y0164176D01*
X0060601Y0164194D01*
X0060744Y0164238D01*
X0060824Y0164269D01*
X0060899Y0164306D01*
X0060973Y0164349D01*
X0061047Y0164399D01*
X0061115Y0164454D01*
X0061183Y0164522D01*
X0061189Y0164529D01*
X0061196Y0164541D01*
X0061214Y0164559D01*
X0061233Y0164590D01*
X0061264Y0164634D01*
X0061288Y0164677D01*
X0061319Y0164733D01*
X0061350Y0164795D01*
X0061381Y0164869D01*
X0061412Y0164950D01*
X0061443Y0165036D01*
X0061468Y0165129D01*
X0061487Y0165228D01*
X0061505Y0165339D01*
X0061511Y0165457D01*
X0061518Y0165581D01*
Y0165587D01*
Y0165612D01*
Y0165649D01*
X0061511Y0165692D01*
X0061505Y0165754D01*
X0061499Y0165822D01*
X0061493Y0165896D01*
X0061474Y0165977D01*
X0061437Y0166144D01*
X0061381Y0166324D01*
X0061344Y0166410D01*
X0061301Y0166497D01*
X0061245Y0166577D01*
X0061189Y0166652D01*
X0061183Y0166658D01*
X0061177Y0166670D01*
X0061159Y0166689D01*
X0061128Y0166714D01*
X0061097Y0166738D01*
X0061059Y0166776D01*
X0061010Y0166806D01*
X0060960Y0166844D01*
X0060899Y0166881D01*
X0060830Y0166912D01*
X0060756Y0166949D01*
X0060676Y0166974D01*
X0060589Y0166998D01*
X0060502Y0167017D01*
X0060403Y0167029D01*
X0060298Y0167035D01*
D02*
G37*
G36*
X0048296Y0166064D02*
X0048259D01*
X0048234Y0166058D01*
X0048160Y0166051D01*
X0048073Y0166033D01*
X0047974Y0166002D01*
X0047868Y0165952D01*
X0047769Y0165884D01*
X0047720Y0165847D01*
X0047677Y0165797D01*
X0047664Y0165785D01*
X0047640Y0165748D01*
X0047609Y0165692D01*
X0047565Y0165612D01*
X0047522Y0165506D01*
X0047491Y0165383D01*
X0047466Y0165240D01*
X0047454Y0165073D01*
Y0165067D01*
Y0165055D01*
Y0165030D01*
X0047460Y0164999D01*
Y0164962D01*
X0047466Y0164918D01*
X0047485Y0164820D01*
X0047510Y0164708D01*
X0047553Y0164590D01*
X0047609Y0164473D01*
X0047683Y0164368D01*
X0047695Y0164355D01*
X0047726Y0164330D01*
X0047776Y0164287D01*
X0047844Y0164244D01*
X0047930Y0164194D01*
X0048036Y0164151D01*
X0048160Y0164126D01*
X0048296Y0164114D01*
X0048333D01*
X0048357Y0164120D01*
X0048432Y0164126D01*
X0048518Y0164145D01*
X0048611Y0164176D01*
X0048717Y0164219D01*
X0048809Y0164281D01*
X0048896Y0164361D01*
X0048902Y0164374D01*
X0048927Y0164411D01*
X0048964Y0164467D01*
X0049001Y0164547D01*
X0049038Y0164652D01*
X0049076Y0164776D01*
X0049100Y0164918D01*
X0049106Y0165086D01*
Y0165092D01*
Y0165104D01*
Y0165129D01*
Y0165166D01*
X0049100Y0165203D01*
X0049094Y0165247D01*
X0049082Y0165352D01*
X0049057Y0165469D01*
X0049020Y0165587D01*
X0048964Y0165705D01*
X0048896Y0165810D01*
X0048884Y0165822D01*
X0048859Y0165847D01*
X0048809Y0165890D01*
X0048741Y0165940D01*
X0048655Y0165983D01*
X0048556Y0166026D01*
X0048432Y0166051D01*
X0048296Y0166064D01*
D02*
G37*
G36*
X0062465Y0127002D02*
X0062427D01*
X0062403Y0126996D01*
X0062335Y0126989D01*
X0062254Y0126971D01*
X0062161Y0126934D01*
X0062062Y0126884D01*
X0061969Y0126822D01*
X0061926Y0126779D01*
X0061883Y0126729D01*
X0061876Y0126717D01*
X0061852Y0126680D01*
X0061815Y0126618D01*
X0061778Y0126538D01*
X0061740Y0126432D01*
X0061703Y0126302D01*
X0061678Y0126154D01*
X0061672Y0125987D01*
Y0125980D01*
Y0125968D01*
Y0125943D01*
X0061678Y0125912D01*
Y0125881D01*
X0061685Y0125838D01*
X0061697Y0125739D01*
X0061722Y0125628D01*
X0061759Y0125516D01*
X0061808Y0125405D01*
X0061876Y0125300D01*
X0061889Y0125287D01*
X0061914Y0125262D01*
X0061957Y0125219D01*
X0062019Y0125176D01*
X0062099Y0125132D01*
X0062192Y0125089D01*
X0062297Y0125064D01*
X0062421Y0125052D01*
X0062452D01*
X0062477Y0125058D01*
X0062539Y0125064D01*
X0062613Y0125083D01*
X0062700Y0125114D01*
X0062793Y0125151D01*
X0062879Y0125213D01*
X0062966Y0125293D01*
X0062972Y0125306D01*
X0062997Y0125337D01*
X0063034Y0125392D01*
X0063071Y0125461D01*
X0063108Y0125547D01*
X0063146Y0125652D01*
X0063170Y0125776D01*
X0063176Y0125906D01*
Y0126278D01*
Y0126284D01*
Y0126290D01*
Y0126327D01*
X0063164Y0126383D01*
X0063152Y0126457D01*
X0063127Y0126538D01*
X0063090Y0126624D01*
X0063040Y0126711D01*
X0062972Y0126791D01*
X0062966Y0126797D01*
X0062935Y0126822D01*
X0062892Y0126859D01*
X0062836Y0126897D01*
X0062762Y0126934D01*
X0062675Y0126971D01*
X0062576Y0126996D01*
X0062465Y0127002D01*
D02*
G37*
G36*
X0051452D02*
X0051422D01*
X0051397Y0126996D01*
X0051329Y0126989D01*
X0051248Y0126971D01*
X0051162Y0126940D01*
X0051063Y0126897D01*
X0050970Y0126835D01*
X0050883Y0126754D01*
X0050877Y0126742D01*
X0050852Y0126711D01*
X0050815Y0126661D01*
X0050778Y0126587D01*
X0050741Y0126500D01*
X0050704Y0126395D01*
X0050679Y0126278D01*
X0050673Y0126148D01*
Y0125795D01*
Y0125789D01*
Y0125782D01*
X0050679Y0125745D01*
X0050685Y0125683D01*
X0050697Y0125615D01*
X0050722Y0125529D01*
X0050759Y0125442D01*
X0050809Y0125355D01*
X0050877Y0125269D01*
X0050889Y0125262D01*
X0050914Y0125238D01*
X0050957Y0125200D01*
X0051019Y0125163D01*
X0051094Y0125120D01*
X0051180Y0125089D01*
X0051279Y0125064D01*
X0051391Y0125052D01*
X0051428D01*
X0051452Y0125058D01*
X0051514Y0125064D01*
X0051601Y0125089D01*
X0051688Y0125120D01*
X0051787Y0125170D01*
X0051880Y0125238D01*
X0051923Y0125281D01*
X0051960Y0125330D01*
Y0125337D01*
X0051966Y0125343D01*
X0051979Y0125361D01*
X0051991Y0125380D01*
X0052010Y0125411D01*
X0052028Y0125448D01*
X0052065Y0125535D01*
X0052103Y0125646D01*
X0052140Y0125776D01*
X0052164Y0125931D01*
X0052171Y0126110D01*
Y0126117D01*
Y0126129D01*
Y0126148D01*
Y0126179D01*
X0052164Y0126216D01*
X0052158Y0126253D01*
X0052146Y0126346D01*
X0052121Y0126451D01*
X0052090Y0126562D01*
X0052041Y0126667D01*
X0051979Y0126760D01*
X0051973Y0126773D01*
X0051942Y0126797D01*
X0051898Y0126835D01*
X0051842Y0126884D01*
X0051768Y0126927D01*
X0051675Y0126965D01*
X0051570Y0126989D01*
X0051452Y0127002D01*
D02*
G37*
G36*
X0074387D02*
X0074337D01*
X0074287Y0126989D01*
X0074219Y0126977D01*
X0074145Y0126952D01*
X0074058Y0126915D01*
X0073978Y0126866D01*
X0073897Y0126797D01*
X0073891Y0126791D01*
X0073866Y0126760D01*
X0073836Y0126717D01*
X0073792Y0126655D01*
X0073749Y0126581D01*
X0073712Y0126488D01*
X0073681Y0126383D01*
X0073656Y0126265D01*
X0075012D01*
Y0126271D01*
Y0126284D01*
Y0126296D01*
Y0126321D01*
X0075006Y0126389D01*
X0074993Y0126463D01*
X0074968Y0126556D01*
X0074944Y0126643D01*
X0074900Y0126729D01*
X0074845Y0126810D01*
X0074838Y0126816D01*
X0074814Y0126841D01*
X0074777Y0126872D01*
X0074727Y0126909D01*
X0074659Y0126940D01*
X0074578Y0126971D01*
X0074492Y0126996D01*
X0074387Y0127002D01*
D02*
G37*
G36*
X0065374D02*
X0065324D01*
X0065275Y0126989D01*
X0065207Y0126977D01*
X0065132Y0126952D01*
X0065046Y0126915D01*
X0064965Y0126866D01*
X0064885Y0126797D01*
X0064879Y0126791D01*
X0064854Y0126760D01*
X0064823Y0126717D01*
X0064780Y0126655D01*
X0064736Y0126581D01*
X0064699Y0126488D01*
X0064668Y0126383D01*
X0064643Y0126265D01*
X0065999D01*
Y0126271D01*
Y0126284D01*
Y0126296D01*
Y0126321D01*
X0065993Y0126389D01*
X0065980Y0126463D01*
X0065956Y0126556D01*
X0065931Y0126643D01*
X0065888Y0126729D01*
X0065832Y0126810D01*
X0065826Y0126816D01*
X0065801Y0126841D01*
X0065764Y0126872D01*
X0065714Y0126909D01*
X0065646Y0126940D01*
X0065566Y0126971D01*
X0065479Y0126996D01*
X0065374Y0127002D01*
D02*
G37*
G36*
X0058348D02*
X0058311D01*
X0058286Y0126996D01*
X0058212Y0126989D01*
X0058125Y0126971D01*
X0058026Y0126940D01*
X0057921Y0126890D01*
X0057822Y0126822D01*
X0057772Y0126785D01*
X0057729Y0126736D01*
X0057717Y0126723D01*
X0057692Y0126686D01*
X0057661Y0126630D01*
X0057618Y0126550D01*
X0057574Y0126445D01*
X0057543Y0126321D01*
X0057519Y0126179D01*
X0057506Y0126011D01*
Y0126005D01*
Y0125993D01*
Y0125968D01*
X0057513Y0125937D01*
Y0125900D01*
X0057519Y0125857D01*
X0057537Y0125758D01*
X0057562Y0125646D01*
X0057605Y0125529D01*
X0057661Y0125411D01*
X0057735Y0125306D01*
X0057748Y0125293D01*
X0057779Y0125269D01*
X0057828Y0125225D01*
X0057896Y0125182D01*
X0057983Y0125132D01*
X0058088Y0125089D01*
X0058212Y0125064D01*
X0058348Y0125052D01*
X0058385D01*
X0058410Y0125058D01*
X0058484Y0125064D01*
X0058571Y0125083D01*
X0058664Y0125114D01*
X0058769Y0125157D01*
X0058862Y0125219D01*
X0058949Y0125300D01*
X0058955Y0125312D01*
X0058980Y0125349D01*
X0059017Y0125405D01*
X0059054Y0125485D01*
X0059091Y0125591D01*
X0059128Y0125714D01*
X0059153Y0125857D01*
X0059159Y0126024D01*
Y0126030D01*
Y0126042D01*
Y0126067D01*
Y0126104D01*
X0059153Y0126141D01*
X0059147Y0126185D01*
X0059134Y0126290D01*
X0059110Y0126408D01*
X0059072Y0126525D01*
X0059017Y0126643D01*
X0058949Y0126748D01*
X0058936Y0126760D01*
X0058912Y0126785D01*
X0058862Y0126829D01*
X0058794Y0126878D01*
X0058707Y0126921D01*
X0058608Y0126965D01*
X0058484Y0126989D01*
X0058348Y0127002D01*
D02*
G37*
G36*
X0048407D02*
X0048370D01*
X0048345Y0126996D01*
X0048271Y0126989D01*
X0048184Y0126971D01*
X0048085Y0126940D01*
X0047980Y0126890D01*
X0047881Y0126822D01*
X0047831Y0126785D01*
X0047788Y0126736D01*
X0047776Y0126723D01*
X0047751Y0126686D01*
X0047720Y0126630D01*
X0047677Y0126550D01*
X0047633Y0126445D01*
X0047602Y0126321D01*
X0047578Y0126179D01*
X0047565Y0126011D01*
Y0126005D01*
Y0125993D01*
Y0125968D01*
X0047571Y0125937D01*
Y0125900D01*
X0047578Y0125857D01*
X0047596Y0125758D01*
X0047621Y0125646D01*
X0047664Y0125529D01*
X0047720Y0125411D01*
X0047794Y0125306D01*
X0047807Y0125293D01*
X0047838Y0125269D01*
X0047887Y0125225D01*
X0047955Y0125182D01*
X0048042Y0125132D01*
X0048147Y0125089D01*
X0048271Y0125064D01*
X0048407Y0125052D01*
X0048444D01*
X0048469Y0125058D01*
X0048543Y0125064D01*
X0048630Y0125083D01*
X0048723Y0125114D01*
X0048828Y0125157D01*
X0048921Y0125219D01*
X0049007Y0125300D01*
X0049014Y0125312D01*
X0049038Y0125349D01*
X0049076Y0125405D01*
X0049113Y0125485D01*
X0049150Y0125591D01*
X0049187Y0125714D01*
X0049212Y0125857D01*
X0049218Y0126024D01*
Y0126030D01*
Y0126042D01*
Y0126067D01*
Y0126104D01*
X0049212Y0126141D01*
X0049206Y0126185D01*
X0049193Y0126290D01*
X0049168Y0126408D01*
X0049131Y0126525D01*
X0049076Y0126643D01*
X0049007Y0126748D01*
X0048995Y0126760D01*
X0048970Y0126785D01*
X0048921Y0126829D01*
X0048853Y0126878D01*
X0048766Y0126921D01*
X0048667Y0126965D01*
X0048543Y0126989D01*
X0048407Y0127002D01*
D02*
G37*
%LPD*%
D12*
X0024081Y0100993D02*
G03*
X0028698Y0101835I0001742J0003531D01*
G01*
X-0043880Y0084649D02*
G03*
X-0039949Y0088592I-0000006J0003937D01*
G01*
X-0065358Y0062047D02*
G03*
X-0062205Y0058898I0003145J-0000004D01*
G01*
X-0040742Y0012611D02*
G03*
X-0039950Y0014974I-0003145J0002369D01*
G01*
X0046256Y0058898D02*
G03*
X0042319Y0054961I0000001J-0003938D01*
G01*
X-0039949Y0015739D02*
G03*
X-0043880Y0019681I-0003937J0000006D01*
G01*
X0028698Y0002496D02*
G03*
X0040738Y0012611I0005751J0005378D01*
G01*
X0040738Y0091720D02*
G03*
X0028698Y0101835I-0006290J0004737D01*
G01*
X-0039950Y0089357D02*
G03*
X-0040742Y0091720I-0003937J-0000006D01*
G01*
X0042319Y0049370D02*
G03*
X0046256Y0045433I0003938J0000001D01*
G01*
X-0065358Y0022835D02*
G03*
X-0062205Y0019685I0003145J-0000004D01*
G01*
X0028698Y0002496D02*
G03*
X0024081Y0003337I-0002875J-0002689D01*
G01*
X-0028702Y0101835D02*
G03*
X-0040742Y0091720I-0005751J-0005378D01*
G01*
X0040738D02*
G03*
X0039946Y0089357I0003145J-0002369D01*
G01*
X0065354Y0042283D02*
G03*
X0062201Y0045433I-0003145J0000004D01*
G01*
X0039945Y0088592D02*
G03*
X0043876Y0084649I0003937J-0000006D01*
G01*
X-0062205Y0045433D02*
G03*
X-0065358Y0042283I-0000008J-0003145D01*
G01*
X-0024085Y0003337D02*
G03*
X0024081Y0003337I0024083J0048828D01*
G01*
X-0028702Y0101835D02*
G03*
X-0024085Y0100993I0002875J0002689D01*
G01*
X-0046260Y0045433D02*
G03*
X-0042323Y0049370I-0000001J0003938D01*
G01*
X0062201Y0019685D02*
G03*
X0065354Y0022835I0000008J0003145D01*
G01*
X-0024085Y0003337D02*
G03*
X-0028702Y0002496I-0001742J-0003531D01*
G01*
X0065354Y0081496D02*
G03*
X0062201Y0084646I-0003145J0000004D01*
G01*
X0043876Y0019681D02*
G03*
X0039945Y0015739I0000006J-0003937D01*
G01*
X-0040742Y0012611D02*
G03*
X-0028702Y0002496I0006290J-0004737D01*
G01*
X0024081Y0100993D02*
G03*
X-0024085Y0100993I-0024083J-0048828D01*
G01*
X-0062205Y0084646D02*
G03*
X-0065358Y0081496I-0000008J-0003145D01*
G01*
X0062201Y0058898D02*
G03*
X0065354Y0062047I0000008J0003145D01*
G01*
X-0042323Y0054961D02*
G03*
X-0046260Y0058898I-0003938J-0000001D01*
G01*
X0039946Y0014974D02*
G03*
X0040738Y0012611I0003937J0000006D01*
G01*
X-0062205Y0084646D02*
X-0046260D01*
X0065354Y0022835D02*
Y0042283D01*
X-0062205Y0019685D02*
X-0046260D01*
Y0084646D02*
X-0043880Y0084649D01*
X0046256Y0084646D02*
X0062201D01*
X-0065358Y0022835D02*
Y0042283D01*
X0046256Y0019685D02*
X0062201D01*
X0065354Y0062047D02*
Y0081496D01*
X0043876Y0019681D02*
X0046256Y0019685D01*
X-0039950Y0089357D02*
X-0039949Y0088592D01*
X0046256Y0058898D02*
X0062201D01*
X-0062205Y0045433D02*
X-0046260D01*
X-0042323Y0049370D02*
Y0054961D01*
X0039945Y0015739D02*
X0039946Y0014974D01*
X-0062205Y0058898D02*
X-0046260D01*
X0042319Y0049370D02*
Y0054961D01*
X-0039950Y0014974D02*
X-0039949Y0015739D01*
X0039945Y0088592D02*
X0039946Y0089357D01*
X0046256Y0045433D02*
X0062201D01*
X-0046260Y0019685D02*
X-0043880Y0019681D01*
X0043876Y0084649D02*
X0046256Y0084646D01*
X-0065358Y0062047D02*
Y0081496D01*
D30*
X-0032283Y0021063D02*
D03*
Y0032283D02*
D03*
D31*
X0052165Y0027402D02*
D03*
X-0052165Y0037402D02*
D03*
Y0076929D02*
D03*
X0052165Y0066929D02*
D03*
D32*
X0053150Y0037402D02*
D03*
Y0032402D02*
D03*
X-0053150Y0027402D02*
D03*
Y0032402D02*
D03*
Y0066929D02*
D03*
Y0071929D02*
D03*
X0053150Y0076929D02*
D03*
Y0071929D02*
D03*
D33*
X0012992Y0066732D02*
D03*
X0010827Y0070276D02*
D03*
X0006496D02*
D03*
X0008661Y0066732D02*
D03*
X0004331D02*
D03*
X0000000D02*
D03*
X-0004331D02*
D03*
X-0008661D02*
D03*
X-0012992D02*
D03*
X0017323D02*
D03*
Y0071063D02*
D03*
X-0017323Y0066732D02*
D03*
Y0071063D02*
D03*
X0010236Y0092716D02*
D03*
X0005315Y0086221D02*
D03*
Y0090551D02*
D03*
X0010236Y0084055D02*
D03*
Y0088386D02*
D03*
X0013780Y0086221D02*
D03*
Y0090551D02*
D03*
Y0094882D02*
D03*
Y0099213D02*
D03*
X0017323Y0088386D02*
D03*
Y0092716D02*
D03*
Y0097047D02*
D03*
Y0101378D02*
D03*
X-0013780Y0099213D02*
D03*
X-0010236Y0092716D02*
D03*
X-0013780Y0090551D02*
D03*
Y0094882D02*
D03*
X-0017323Y0092716D02*
D03*
Y0097047D02*
D03*
Y0101378D02*
D03*
X0017323Y0075394D02*
D03*
X0004331Y0073228D02*
D03*
X0010236Y0075394D02*
D03*
X0000000Y0073228D02*
D03*
X0005315Y0077559D02*
D03*
X0010236Y0079724D02*
D03*
X0013780Y0073228D02*
D03*
Y0077559D02*
D03*
Y0081890D02*
D03*
X0017323Y0079724D02*
D03*
Y0084055D02*
D03*
X-0005315Y0077559D02*
D03*
X-0004331Y0073228D02*
D03*
X0000000Y0077559D02*
D03*
Y0081890D02*
D03*
X0005315D02*
D03*
X-0005315D02*
D03*
Y0086221D02*
D03*
Y0090551D02*
D03*
X-0010827Y0070276D02*
D03*
X0002165D02*
D03*
X-0002165D02*
D03*
X-0006496D02*
D03*
X-0010236Y0075394D02*
D03*
Y0079724D02*
D03*
Y0084055D02*
D03*
Y0088386D02*
D03*
X-0013780Y0073228D02*
D03*
Y0077559D02*
D03*
Y0081890D02*
D03*
Y0086221D02*
D03*
X-0017323Y0075394D02*
D03*
Y0079724D02*
D03*
Y0084055D02*
D03*
Y0088386D02*
D03*
D34*
X-0026476Y0083760D02*
D03*
Y0067421D02*
D03*
X-0034941Y0083760D02*
D03*
Y0067421D02*
D03*
D35*
X0032579Y0044193D02*
D03*
X0040059D02*
D03*
D36*
X0030217Y0058465D02*
D03*
Y0050984D02*
D03*
X0039272Y0054724D02*
D03*
X-0018799Y0051083D02*
D03*
Y0043602D02*
D03*
X-0009744Y0047343D02*
D03*
X0012303Y0059941D02*
D03*
Y0052461D02*
D03*
X0021358Y0056201D02*
D03*
D37*
X0025822Y0058370D02*
D03*
Y0054433D02*
D03*
X0028638Y0045930D02*
D03*
X0024508Y0045965D02*
D03*
Y0049902D02*
D03*
X0028638Y0041993D02*
D03*
X0007480Y0056201D02*
D03*
X0024740Y0042289D02*
D03*
X-0025826Y0025689D02*
D03*
Y0029626D02*
D03*
X-0021752D02*
D03*
Y0025689D02*
D03*
X0024740Y0038352D02*
D03*
X0024508Y0069390D02*
D03*
Y0065453D02*
D03*
X0020669Y0039567D02*
D03*
Y0043504D02*
D03*
X0007480Y0060138D02*
D03*
X-0023622Y0042126D02*
D03*
Y0038189D02*
D03*
D38*
X-0019291D02*
D03*
X0024016Y0019783D02*
D03*
X0027953D02*
D03*
X-0015354Y0038189D02*
D03*
X0033366Y0037402D02*
D03*
X0029429D02*
D03*
D39*
X0039961Y0035827D02*
D03*
Y0038583D02*
D03*
X-0039961Y0035335D02*
D03*
Y0038091D02*
D03*
X0039961Y0074902D02*
D03*
Y0077658D02*
D03*
X-0039961Y0029348D02*
D03*
Y0026592D02*
D03*
Y0068602D02*
D03*
Y0065847D02*
D03*
Y0074606D02*
D03*
Y0077362D02*
D03*
X0039961Y0028740D02*
D03*
Y0025984D02*
D03*
Y0068307D02*
D03*
Y0065551D02*
D03*
D40*
X0007677Y0031004D02*
D03*
X0010433D02*
D03*
X0002756Y0031988D02*
D03*
X0000000D02*
D03*
X-0006693D02*
D03*
X-0003937D02*
D03*
D41*
X0028445Y0063769D02*
D03*
X0034350D02*
D03*
X-0025197Y0060925D02*
D03*
X-0031102D02*
D03*
D42*
X-0000394Y0047638D02*
D03*
X-0004331D02*
D03*
X-0000197Y0043602D02*
D03*
X-0004134D02*
D03*
X-0017224Y0056299D02*
D03*
X-0021161D02*
D03*
X-0039961Y0060925D02*
D03*
X-0036024D02*
D03*
X0030999Y0068501D02*
D03*
X0034936D02*
D03*
X-0012454Y0060650D02*
D03*
X-0008517D02*
D03*
X-0012454Y0056320D02*
D03*
X-0008517D02*
D03*
X0000512Y0051993D02*
D03*
X-0003425D02*
D03*
X0006102Y0035236D02*
D03*
X0010039D02*
D03*
D43*
X0002953Y0060650D02*
D03*
X-0002953D02*
D03*
Y0056320D02*
D03*
X0002953D02*
D03*
D44*
X0033366Y0032087D02*
D03*
Y0024606D02*
D03*
X0023917D02*
D03*
Y0028346D02*
D03*
Y0032087D02*
D03*
D45*
X-0013386Y0025295D02*
D03*
X-0010236D02*
D03*
X-0004921D02*
D03*
X0006890D02*
D03*
X0010236D02*
D03*
X0004921D02*
D03*
X-0000984D02*
D03*
X-0006890D02*
D03*
X-0002953Y0025318D02*
D03*
X0000984Y0025295D02*
D03*
X0002953D02*
D03*
X0009055D02*
D03*
X-0012205D02*
D03*
X-0009055D02*
D03*
X0012205D02*
D03*
X0013386D02*
D03*
D46*
X0005020Y0047244D02*
D03*
X0015846D02*
D03*
Y0039764D02*
D03*
Y0043504D02*
D03*
X0005020D02*
D03*
Y0039764D02*
D03*
D47*
X-0033661Y0038189D02*
D03*
X-0028150D02*
D03*
D48*
X-0033169Y0054823D02*
D03*
X-0029429Y0046949D02*
D03*
X-0036909D02*
D03*
D49*
X0044488Y0027402D02*
D03*
Y0032402D02*
D03*
Y0037402D02*
D03*
X-0044488D02*
D03*
Y0032402D02*
D03*
Y0027402D02*
D03*
Y0076929D02*
D03*
Y0071929D02*
D03*
Y0066929D02*
D03*
X0044488D02*
D03*
Y0071929D02*
D03*
Y0076929D02*
D03*
D50*
X0052756Y0042323D02*
D03*
Y0022480D02*
D03*
X-0052756D02*
D03*
Y0042323D02*
D03*
Y0062008D02*
D03*
Y0081850D02*
D03*
X0052756D02*
D03*
Y0062008D02*
D03*
X0011378Y0019606D02*
D03*
D51*
X0034449Y0096457D02*
D03*
Y0007874D02*
D03*
X-0034449Y0096457D02*
D03*
Y0007874D02*
D03*
D52*
X-0017008Y0005236D02*
D03*
X0017008D02*
D03*
D53*
X-0017008Y0021693D02*
D03*
X0017008D02*
D03*
D54*
X-0011378Y0019606D02*
D03*
D55*
X0030709Y0083333D02*
D03*
D56*
X0024109D02*
D03*
X0030709Y0073333D02*
D03*
Y0078333D02*
D03*
X0024109D02*
D03*
M02*
