G04*
G04 #@! TF.GenerationSoftware,Altium Limited,Altium Designer,21.8.1 (53)*
G04*
G04 Layer_Color=32896*
%FSAX25Y25*%
%MOIN*%
G70*
G04*
G04 #@! TF.SameCoordinates,7A0B2967-6A00-4F57-884A-72BECA2B0823*
G04*
G04*
G04 #@! TF.FilePolarity,Positive*
G04*
G01*
G75*
%ADD12C,0.00787*%
%ADD13C,0.00394*%
%ADD74C,0.00600*%
%ADD75R,0.27953X0.17815*%
%ADD76R,0.10094X0.06988*%
G36*
X0068599Y0167500D02*
X0068624D01*
X0068679Y0167475D01*
X0068710Y0167456D01*
X0068741Y0167432D01*
X0068747Y0167426D01*
X0068754Y0167419D01*
X0068785Y0167382D01*
X0068809Y0167320D01*
X0068815Y0167283D01*
X0068822Y0167246D01*
Y0167240D01*
Y0167227D01*
X0068815Y0167209D01*
X0068809Y0167184D01*
X0068791Y0167122D01*
X0068766Y0167091D01*
X0068741Y0167060D01*
X0068735D01*
X0068729Y0167048D01*
X0068692Y0167023D01*
X0068636Y0166998D01*
X0068599Y0166992D01*
X0068562Y0166986D01*
X0068543D01*
X0068525Y0166992D01*
X0068500D01*
X0068438Y0167017D01*
X0068407Y0167029D01*
X0068376Y0167054D01*
Y0167060D01*
X0068364Y0167066D01*
X0068351Y0167085D01*
X0068339Y0167104D01*
X0068314Y0167166D01*
X0068308Y0167203D01*
X0068302Y0167246D01*
Y0167252D01*
Y0167264D01*
X0068308Y0167283D01*
X0068314Y0167314D01*
X0068333Y0167370D01*
X0068351Y0167401D01*
X0068376Y0167432D01*
X0068382Y0167438D01*
X0068388Y0167444D01*
X0068426Y0167469D01*
X0068487Y0167493D01*
X0068525Y0167506D01*
X0068580D01*
X0068599Y0167500D01*
D02*
G37*
G36*
X0056609Y0163835D02*
X0056207D01*
Y0164256D01*
X0056194D01*
Y0164250D01*
X0056182Y0164238D01*
X0056163Y0164213D01*
X0056145Y0164182D01*
X0056114Y0164145D01*
X0056077Y0164108D01*
X0056033Y0164064D01*
X0055984Y0164021D01*
X0055928Y0163971D01*
X0055860Y0163928D01*
X0055792Y0163891D01*
X0055711Y0163854D01*
X0055631Y0163823D01*
X0055538Y0163798D01*
X0055439Y0163786D01*
X0055334Y0163779D01*
X0055290D01*
X0055253Y0163786D01*
X0055216Y0163792D01*
X0055167Y0163798D01*
X0055061Y0163823D01*
X0054937Y0163860D01*
X0054814Y0163922D01*
X0054746Y0163959D01*
X0054690Y0164002D01*
X0054628Y0164058D01*
X0054572Y0164114D01*
Y0164120D01*
X0054560Y0164132D01*
X0054548Y0164151D01*
X0054529Y0164176D01*
X0054510Y0164207D01*
X0054486Y0164250D01*
X0054461Y0164299D01*
X0054436Y0164355D01*
X0054405Y0164417D01*
X0054380Y0164485D01*
X0054356Y0164559D01*
X0054337Y0164640D01*
X0054318Y0164727D01*
X0054306Y0164826D01*
X0054300Y0164925D01*
X0054294Y0165030D01*
Y0165036D01*
Y0165055D01*
Y0165092D01*
X0054300Y0165135D01*
X0054306Y0165185D01*
X0054312Y0165247D01*
X0054318Y0165315D01*
X0054331Y0165389D01*
X0054368Y0165550D01*
X0054424Y0165717D01*
X0054461Y0165797D01*
X0054504Y0165878D01*
X0054548Y0165952D01*
X0054603Y0166026D01*
X0054610Y0166033D01*
X0054616Y0166045D01*
X0054634Y0166064D01*
X0054659Y0166088D01*
X0054690Y0166113D01*
X0054733Y0166144D01*
X0054777Y0166181D01*
X0054826Y0166218D01*
X0054950Y0166287D01*
X0055092Y0166348D01*
X0055173Y0166367D01*
X0055259Y0166385D01*
X0055346Y0166398D01*
X0055445Y0166404D01*
X0055495D01*
X0055532Y0166398D01*
X0055569Y0166392D01*
X0055618Y0166385D01*
X0055730Y0166355D01*
X0055854Y0166305D01*
X0055915Y0166274D01*
X0055977Y0166231D01*
X0056039Y0166187D01*
X0056095Y0166132D01*
X0056145Y0166070D01*
X0056194Y0165996D01*
X0056207D01*
Y0167555D01*
X0056609D01*
Y0163835D01*
D02*
G37*
G36*
X0070877Y0166398D02*
X0070951Y0166392D01*
X0071044Y0166373D01*
X0071143Y0166342D01*
X0071248Y0166293D01*
X0071353Y0166225D01*
X0071397Y0166187D01*
X0071440Y0166138D01*
X0071452Y0166126D01*
X0071477Y0166088D01*
X0071508Y0166026D01*
X0071552Y0165940D01*
X0071589Y0165835D01*
X0071626Y0165705D01*
X0071650Y0165550D01*
X0071657Y0165370D01*
Y0163835D01*
X0071254D01*
Y0165265D01*
Y0165271D01*
Y0165302D01*
X0071248Y0165339D01*
Y0165389D01*
X0071236Y0165451D01*
X0071223Y0165519D01*
X0071205Y0165593D01*
X0071180Y0165667D01*
X0071149Y0165742D01*
X0071112Y0165810D01*
X0071062Y0165878D01*
X0071007Y0165940D01*
X0070945Y0165989D01*
X0070864Y0166026D01*
X0070778Y0166058D01*
X0070673Y0166064D01*
X0070660D01*
X0070623Y0166058D01*
X0070567Y0166051D01*
X0070499Y0166033D01*
X0070419Y0166008D01*
X0070332Y0165965D01*
X0070252Y0165909D01*
X0070171Y0165835D01*
X0070165Y0165822D01*
X0070140Y0165797D01*
X0070109Y0165748D01*
X0070072Y0165680D01*
X0070035Y0165599D01*
X0070004Y0165500D01*
X0069979Y0165389D01*
X0069973Y0165265D01*
Y0163835D01*
X0069571D01*
Y0166348D01*
X0069973D01*
Y0165928D01*
X0069985D01*
X0069992Y0165934D01*
X0069998Y0165946D01*
X0070016Y0165971D01*
X0070041Y0166002D01*
X0070066Y0166039D01*
X0070103Y0166076D01*
X0070146Y0166119D01*
X0070196Y0166169D01*
X0070252Y0166212D01*
X0070314Y0166255D01*
X0070382Y0166293D01*
X0070456Y0166330D01*
X0070530Y0166361D01*
X0070617Y0166385D01*
X0070710Y0166398D01*
X0070809Y0166404D01*
X0070846D01*
X0070877Y0166398D01*
D02*
G37*
G36*
X0053879Y0166385D02*
X0053953Y0166379D01*
X0053997Y0166367D01*
X0054028Y0166355D01*
Y0165940D01*
X0054021Y0165946D01*
X0054009Y0165952D01*
X0053984Y0165965D01*
X0053953Y0165983D01*
X0053910Y0165996D01*
X0053854Y0166008D01*
X0053792Y0166014D01*
X0053724Y0166020D01*
X0053712D01*
X0053681Y0166014D01*
X0053631Y0166008D01*
X0053576Y0165989D01*
X0053501Y0165958D01*
X0053433Y0165915D01*
X0053359Y0165853D01*
X0053291Y0165773D01*
X0053285Y0165760D01*
X0053266Y0165729D01*
X0053235Y0165674D01*
X0053204Y0165599D01*
X0053173Y0165506D01*
X0053142Y0165389D01*
X0053124Y0165259D01*
X0053118Y0165110D01*
Y0163835D01*
X0052715D01*
Y0166348D01*
X0053118D01*
Y0165828D01*
X0053130D01*
Y0165835D01*
X0053136Y0165841D01*
X0053149Y0165872D01*
X0053167Y0165921D01*
X0053198Y0165983D01*
X0053229Y0166045D01*
X0053279Y0166113D01*
X0053328Y0166181D01*
X0053390Y0166243D01*
X0053396Y0166249D01*
X0053421Y0166268D01*
X0053458Y0166293D01*
X0053508Y0166317D01*
X0053563Y0166342D01*
X0053631Y0166367D01*
X0053706Y0166385D01*
X0053786Y0166392D01*
X0053842D01*
X0053879Y0166385D01*
D02*
G37*
G36*
X0064619Y0163835D02*
X0064216D01*
Y0164231D01*
X0064204D01*
Y0164225D01*
X0064192Y0164213D01*
X0064179Y0164188D01*
X0064154Y0164163D01*
X0064099Y0164089D01*
X0064012Y0164009D01*
X0063963Y0163965D01*
X0063907Y0163922D01*
X0063845Y0163885D01*
X0063771Y0163848D01*
X0063696Y0163823D01*
X0063616Y0163798D01*
X0063523Y0163786D01*
X0063430Y0163779D01*
X0063393D01*
X0063350Y0163786D01*
X0063288Y0163798D01*
X0063220Y0163811D01*
X0063146Y0163835D01*
X0063065Y0163866D01*
X0062985Y0163916D01*
X0062898Y0163971D01*
X0062817Y0164040D01*
X0062743Y0164126D01*
X0062675Y0164231D01*
X0062613Y0164349D01*
X0062570Y0164491D01*
X0062545Y0164658D01*
X0062533Y0164745D01*
Y0164844D01*
Y0166348D01*
X0062929D01*
Y0164906D01*
Y0164900D01*
Y0164875D01*
X0062935Y0164832D01*
X0062941Y0164782D01*
X0062947Y0164720D01*
X0062960Y0164658D01*
X0062978Y0164584D01*
X0063003Y0164510D01*
X0063040Y0164436D01*
X0063077Y0164368D01*
X0063127Y0164299D01*
X0063189Y0164238D01*
X0063257Y0164188D01*
X0063337Y0164151D01*
X0063436Y0164120D01*
X0063542Y0164114D01*
X0063554D01*
X0063591Y0164120D01*
X0063647Y0164126D01*
X0063709Y0164139D01*
X0063789Y0164170D01*
X0063870Y0164207D01*
X0063950Y0164256D01*
X0064024Y0164330D01*
X0064031Y0164343D01*
X0064055Y0164368D01*
X0064086Y0164417D01*
X0064123Y0164485D01*
X0064154Y0164566D01*
X0064185Y0164665D01*
X0064210Y0164776D01*
X0064216Y0164900D01*
Y0166348D01*
X0064619D01*
Y0163835D01*
D02*
G37*
G36*
X0068754D02*
X0068351D01*
Y0166348D01*
X0068754D01*
Y0163835D01*
D02*
G37*
G36*
X0067534D02*
X0067132D01*
Y0167555D01*
X0067534D01*
Y0163835D01*
D02*
G37*
G36*
X0051155Y0166398D02*
X0051211Y0166392D01*
X0051279Y0166373D01*
X0051354Y0166355D01*
X0051434Y0166324D01*
X0051521Y0166287D01*
X0051601Y0166237D01*
X0051682Y0166175D01*
X0051756Y0166101D01*
X0051824Y0166008D01*
X0051880Y0165903D01*
X0051923Y0165779D01*
X0051948Y0165637D01*
X0051960Y0165469D01*
Y0163835D01*
X0051558D01*
Y0164225D01*
X0051545D01*
Y0164219D01*
X0051533Y0164207D01*
X0051521Y0164182D01*
X0051496Y0164157D01*
X0051434Y0164083D01*
X0051354Y0164002D01*
X0051242Y0163922D01*
X0051112Y0163848D01*
X0051032Y0163823D01*
X0050951Y0163798D01*
X0050864Y0163786D01*
X0050772Y0163779D01*
X0050735D01*
X0050710Y0163786D01*
X0050642Y0163792D01*
X0050561Y0163804D01*
X0050462Y0163829D01*
X0050369Y0163860D01*
X0050270Y0163909D01*
X0050184Y0163971D01*
X0050177Y0163984D01*
X0050153Y0164009D01*
X0050116Y0164052D01*
X0050078Y0164114D01*
X0050041Y0164188D01*
X0050004Y0164275D01*
X0049979Y0164380D01*
X0049973Y0164498D01*
Y0164504D01*
Y0164529D01*
X0049979Y0164566D01*
X0049986Y0164609D01*
X0049998Y0164665D01*
X0050016Y0164727D01*
X0050041Y0164795D01*
X0050078Y0164863D01*
X0050122Y0164937D01*
X0050177Y0165011D01*
X0050245Y0165079D01*
X0050326Y0165141D01*
X0050419Y0165203D01*
X0050530Y0165253D01*
X0050654Y0165290D01*
X0050803Y0165321D01*
X0051558Y0165426D01*
Y0165432D01*
Y0165451D01*
X0051552Y0165488D01*
Y0165525D01*
X0051539Y0165575D01*
X0051533Y0165630D01*
X0051496Y0165748D01*
X0051465Y0165804D01*
X0051434Y0165859D01*
X0051391Y0165915D01*
X0051341Y0165965D01*
X0051279Y0166008D01*
X0051211Y0166039D01*
X0051131Y0166058D01*
X0051038Y0166064D01*
X0050994D01*
X0050963Y0166058D01*
X0050920D01*
X0050877Y0166045D01*
X0050766Y0166026D01*
X0050642Y0165989D01*
X0050506Y0165934D01*
X0050431Y0165896D01*
X0050363Y0165859D01*
X0050289Y0165810D01*
X0050221Y0165754D01*
Y0166169D01*
X0050227D01*
X0050239Y0166181D01*
X0050258Y0166194D01*
X0050289Y0166206D01*
X0050320Y0166225D01*
X0050363Y0166243D01*
X0050413Y0166262D01*
X0050468Y0166287D01*
X0050592Y0166330D01*
X0050741Y0166367D01*
X0050902Y0166392D01*
X0051075Y0166404D01*
X0051112D01*
X0051155Y0166398D01*
D02*
G37*
G36*
X0045467Y0167345D02*
X0045510D01*
X0045553Y0167339D01*
X0045652Y0167326D01*
X0045770Y0167296D01*
X0045894Y0167258D01*
X0046011Y0167203D01*
X0046117Y0167128D01*
X0046123D01*
X0046129Y0167116D01*
X0046160Y0167091D01*
X0046203Y0167042D01*
X0046253Y0166974D01*
X0046296Y0166887D01*
X0046340Y0166788D01*
X0046371Y0166676D01*
X0046383Y0166615D01*
Y0166546D01*
Y0166540D01*
Y0166534D01*
Y0166497D01*
X0046377Y0166441D01*
X0046364Y0166373D01*
X0046346Y0166287D01*
X0046315Y0166200D01*
X0046278Y0166113D01*
X0046222Y0166026D01*
X0046216Y0166014D01*
X0046191Y0165989D01*
X0046154Y0165952D01*
X0046104Y0165903D01*
X0046042Y0165853D01*
X0045968Y0165797D01*
X0045875Y0165754D01*
X0045776Y0165711D01*
Y0165705D01*
X0045795D01*
X0045814Y0165698D01*
X0045832Y0165692D01*
X0045900Y0165680D01*
X0045981Y0165655D01*
X0046067Y0165618D01*
X0046160Y0165575D01*
X0046253Y0165513D01*
X0046340Y0165432D01*
X0046352Y0165420D01*
X0046377Y0165389D01*
X0046408Y0165346D01*
X0046451Y0165278D01*
X0046488Y0165191D01*
X0046525Y0165092D01*
X0046550Y0164974D01*
X0046556Y0164844D01*
Y0164838D01*
Y0164826D01*
Y0164801D01*
X0046550Y0164770D01*
X0046544Y0164733D01*
X0046538Y0164690D01*
X0046513Y0164584D01*
X0046476Y0164467D01*
X0046420Y0164343D01*
X0046383Y0164287D01*
X0046340Y0164225D01*
X0046284Y0164170D01*
X0046228Y0164114D01*
X0046222D01*
X0046216Y0164101D01*
X0046197Y0164089D01*
X0046172Y0164070D01*
X0046141Y0164052D01*
X0046098Y0164027D01*
X0046005Y0163978D01*
X0045888Y0163922D01*
X0045752Y0163879D01*
X0045591Y0163848D01*
X0045510Y0163841D01*
X0045417Y0163835D01*
X0044390D01*
Y0167351D01*
X0045436D01*
X0045467Y0167345D01*
D02*
G37*
G36*
X0065962Y0166348D02*
X0066600D01*
Y0166002D01*
X0065962D01*
Y0164584D01*
Y0164572D01*
Y0164541D01*
X0065968Y0164498D01*
X0065974Y0164442D01*
X0065999Y0164324D01*
X0066018Y0164269D01*
X0066049Y0164225D01*
X0066055Y0164219D01*
X0066067Y0164207D01*
X0066086Y0164194D01*
X0066117Y0164176D01*
X0066154Y0164151D01*
X0066203Y0164139D01*
X0066265Y0164126D01*
X0066333Y0164120D01*
X0066358D01*
X0066389Y0164126D01*
X0066426Y0164132D01*
X0066513Y0164157D01*
X0066556Y0164176D01*
X0066600Y0164200D01*
Y0163854D01*
X0066593D01*
X0066575Y0163841D01*
X0066544Y0163835D01*
X0066500Y0163823D01*
X0066445Y0163811D01*
X0066383Y0163798D01*
X0066309Y0163792D01*
X0066222Y0163786D01*
X0066191D01*
X0066160Y0163792D01*
X0066117Y0163798D01*
X0066067Y0163811D01*
X0066011Y0163823D01*
X0065956Y0163848D01*
X0065894Y0163879D01*
X0065832Y0163916D01*
X0065770Y0163965D01*
X0065714Y0164021D01*
X0065665Y0164095D01*
X0065622Y0164176D01*
X0065591Y0164275D01*
X0065566Y0164386D01*
X0065560Y0164516D01*
Y0166002D01*
X0065132D01*
Y0166348D01*
X0065560D01*
Y0166961D01*
X0065962Y0167091D01*
Y0166348D01*
D02*
G37*
G36*
X0073489Y0166398D02*
X0073532Y0166392D01*
X0073576Y0166385D01*
X0073687Y0166367D01*
X0073811Y0166324D01*
X0073935Y0166268D01*
X0073997Y0166231D01*
X0074058Y0166187D01*
X0074114Y0166138D01*
X0074170Y0166082D01*
X0074176Y0166076D01*
X0074182Y0166070D01*
X0074195Y0166051D01*
X0074213Y0166026D01*
X0074232Y0165989D01*
X0074256Y0165952D01*
X0074281Y0165909D01*
X0074306Y0165853D01*
X0074331Y0165791D01*
X0074356Y0165729D01*
X0074380Y0165655D01*
X0074399Y0165575D01*
X0074417Y0165488D01*
X0074430Y0165401D01*
X0074442Y0165302D01*
Y0165197D01*
Y0164987D01*
X0072666D01*
Y0164980D01*
Y0164968D01*
Y0164950D01*
X0072672Y0164918D01*
X0072678Y0164881D01*
Y0164844D01*
X0072697Y0164745D01*
X0072728Y0164646D01*
X0072765Y0164535D01*
X0072820Y0164429D01*
X0072888Y0164337D01*
X0072901Y0164324D01*
X0072926Y0164299D01*
X0072975Y0164269D01*
X0073043Y0164225D01*
X0073130Y0164182D01*
X0073229Y0164151D01*
X0073347Y0164126D01*
X0073483Y0164114D01*
X0073526D01*
X0073557Y0164120D01*
X0073594D01*
X0073637Y0164126D01*
X0073743Y0164151D01*
X0073860Y0164182D01*
X0073990Y0164231D01*
X0074126Y0164299D01*
X0074195Y0164343D01*
X0074263Y0164392D01*
Y0164015D01*
X0074256D01*
X0074250Y0164002D01*
X0074232Y0163996D01*
X0074201Y0163978D01*
X0074170Y0163959D01*
X0074133Y0163941D01*
X0074083Y0163922D01*
X0074034Y0163897D01*
X0073972Y0163872D01*
X0073904Y0163854D01*
X0073755Y0163817D01*
X0073582Y0163792D01*
X0073390Y0163779D01*
X0073340D01*
X0073303Y0163786D01*
X0073260Y0163792D01*
X0073204Y0163798D01*
X0073087Y0163823D01*
X0072950Y0163860D01*
X0072814Y0163922D01*
X0072746Y0163965D01*
X0072678Y0164009D01*
X0072616Y0164058D01*
X0072554Y0164120D01*
X0072548Y0164126D01*
X0072542Y0164139D01*
X0072530Y0164157D01*
X0072505Y0164182D01*
X0072486Y0164219D01*
X0072461Y0164262D01*
X0072430Y0164312D01*
X0072406Y0164368D01*
X0072375Y0164429D01*
X0072350Y0164504D01*
X0072319Y0164584D01*
X0072300Y0164671D01*
X0072282Y0164764D01*
X0072263Y0164863D01*
X0072257Y0164968D01*
X0072251Y0165079D01*
Y0165086D01*
Y0165104D01*
Y0165135D01*
X0072257Y0165179D01*
X0072263Y0165228D01*
X0072269Y0165284D01*
X0072276Y0165352D01*
X0072294Y0165420D01*
X0072331Y0165568D01*
X0072387Y0165729D01*
X0072424Y0165810D01*
X0072474Y0165884D01*
X0072523Y0165965D01*
X0072579Y0166033D01*
X0072585Y0166039D01*
X0072598Y0166051D01*
X0072616Y0166070D01*
X0072641Y0166088D01*
X0072672Y0166119D01*
X0072709Y0166150D01*
X0072759Y0166181D01*
X0072808Y0166218D01*
X0072926Y0166287D01*
X0073068Y0166348D01*
X0073149Y0166367D01*
X0073229Y0166385D01*
X0073316Y0166398D01*
X0073409Y0166404D01*
X0073458D01*
X0073489Y0166398D01*
D02*
G37*
G36*
X0060447Y0167407D02*
X0060509Y0167401D01*
X0060583Y0167388D01*
X0060663Y0167370D01*
X0060750Y0167351D01*
X0060837Y0167326D01*
X0060936Y0167296D01*
X0061028Y0167252D01*
X0061128Y0167203D01*
X0061227Y0167147D01*
X0061319Y0167079D01*
X0061412Y0167005D01*
X0061499Y0166918D01*
X0061505Y0166912D01*
X0061518Y0166893D01*
X0061542Y0166868D01*
X0061567Y0166831D01*
X0061604Y0166782D01*
X0061641Y0166720D01*
X0061678Y0166652D01*
X0061722Y0166577D01*
X0061765Y0166485D01*
X0061802Y0166392D01*
X0061839Y0166287D01*
X0061876Y0166169D01*
X0061901Y0166051D01*
X0061926Y0165921D01*
X0061938Y0165779D01*
X0061945Y0165637D01*
Y0165624D01*
Y0165599D01*
Y0165556D01*
X0061938Y0165494D01*
X0061932Y0165420D01*
X0061920Y0165339D01*
X0061908Y0165247D01*
X0061889Y0165141D01*
X0061864Y0165036D01*
X0061833Y0164925D01*
X0061796Y0164813D01*
X0061753Y0164702D01*
X0061697Y0164584D01*
X0061635Y0164479D01*
X0061567Y0164374D01*
X0061487Y0164275D01*
X0061480Y0164269D01*
X0061468Y0164256D01*
X0061437Y0164231D01*
X0061406Y0164200D01*
X0061357Y0164157D01*
X0061301Y0164120D01*
X0061239Y0164070D01*
X0061165Y0164027D01*
X0061084Y0163984D01*
X0060991Y0163934D01*
X0060892Y0163897D01*
X0060781Y0163860D01*
X0060663Y0163823D01*
X0060540Y0163798D01*
X0060409Y0163786D01*
X0060267Y0163779D01*
X0060236D01*
X0060193Y0163786D01*
X0060143D01*
X0060081Y0163792D01*
X0060007Y0163804D01*
X0059927Y0163823D01*
X0059834Y0163841D01*
X0059741Y0163866D01*
X0059642Y0163897D01*
X0059543Y0163941D01*
X0059444Y0163984D01*
X0059345Y0164040D01*
X0059246Y0164108D01*
X0059153Y0164182D01*
X0059066Y0164269D01*
X0059060Y0164275D01*
X0059048Y0164293D01*
X0059023Y0164318D01*
X0058998Y0164355D01*
X0058961Y0164405D01*
X0058924Y0164467D01*
X0058887Y0164535D01*
X0058843Y0164615D01*
X0058800Y0164702D01*
X0058763Y0164795D01*
X0058726Y0164900D01*
X0058689Y0165017D01*
X0058664Y0165135D01*
X0058639Y0165265D01*
X0058627Y0165408D01*
X0058621Y0165550D01*
Y0165562D01*
Y0165587D01*
X0058627Y0165630D01*
Y0165692D01*
X0058633Y0165760D01*
X0058645Y0165847D01*
X0058658Y0165940D01*
X0058676Y0166039D01*
X0058701Y0166144D01*
X0058732Y0166255D01*
X0058769Y0166367D01*
X0058812Y0166478D01*
X0058868Y0166590D01*
X0058930Y0166701D01*
X0058998Y0166806D01*
X0059079Y0166905D01*
X0059085Y0166912D01*
X0059097Y0166930D01*
X0059128Y0166955D01*
X0059165Y0166986D01*
X0059209Y0167023D01*
X0059264Y0167066D01*
X0059332Y0167110D01*
X0059407Y0167159D01*
X0059493Y0167209D01*
X0059586Y0167252D01*
X0059685Y0167296D01*
X0059797Y0167333D01*
X0059921Y0167364D01*
X0060050Y0167394D01*
X0060187Y0167407D01*
X0060329Y0167413D01*
X0060397D01*
X0060447Y0167407D01*
D02*
G37*
G36*
X0048419Y0166398D02*
X0048463Y0166392D01*
X0048518Y0166385D01*
X0048642Y0166361D01*
X0048785Y0166317D01*
X0048927Y0166255D01*
X0049001Y0166218D01*
X0049069Y0166175D01*
X0049137Y0166119D01*
X0049199Y0166058D01*
X0049206Y0166051D01*
X0049212Y0166039D01*
X0049230Y0166020D01*
X0049249Y0165996D01*
X0049274Y0165958D01*
X0049298Y0165915D01*
X0049329Y0165866D01*
X0049360Y0165810D01*
X0049385Y0165742D01*
X0049416Y0165674D01*
X0049441Y0165593D01*
X0049466Y0165506D01*
X0049484Y0165414D01*
X0049503Y0165315D01*
X0049509Y0165209D01*
X0049515Y0165098D01*
Y0165092D01*
Y0165073D01*
Y0165042D01*
X0049509Y0164999D01*
X0049503Y0164950D01*
X0049496Y0164888D01*
X0049484Y0164826D01*
X0049472Y0164751D01*
X0049435Y0164603D01*
X0049373Y0164442D01*
X0049336Y0164361D01*
X0049286Y0164281D01*
X0049237Y0164207D01*
X0049175Y0164139D01*
X0049168Y0164132D01*
X0049156Y0164126D01*
X0049137Y0164108D01*
X0049113Y0164083D01*
X0049076Y0164058D01*
X0049038Y0164027D01*
X0048989Y0163990D01*
X0048933Y0163959D01*
X0048871Y0163928D01*
X0048803Y0163891D01*
X0048729Y0163860D01*
X0048649Y0163835D01*
X0048562Y0163811D01*
X0048469Y0163798D01*
X0048370Y0163786D01*
X0048265Y0163779D01*
X0048209D01*
X0048172Y0163786D01*
X0048129Y0163792D01*
X0048073Y0163798D01*
X0048011Y0163811D01*
X0047943Y0163823D01*
X0047800Y0163866D01*
X0047652Y0163928D01*
X0047578Y0163965D01*
X0047510Y0164015D01*
X0047441Y0164064D01*
X0047373Y0164126D01*
X0047367Y0164132D01*
X0047361Y0164145D01*
X0047342Y0164163D01*
X0047324Y0164188D01*
X0047299Y0164225D01*
X0047268Y0164269D01*
X0047237Y0164318D01*
X0047212Y0164374D01*
X0047181Y0164442D01*
X0047150Y0164510D01*
X0047120Y0164584D01*
X0047095Y0164671D01*
X0047058Y0164857D01*
X0047052Y0164956D01*
X0047045Y0165061D01*
Y0165067D01*
Y0165092D01*
Y0165123D01*
X0047052Y0165166D01*
X0047058Y0165216D01*
X0047064Y0165278D01*
X0047076Y0165346D01*
X0047089Y0165420D01*
X0047126Y0165581D01*
X0047188Y0165742D01*
X0047231Y0165822D01*
X0047274Y0165903D01*
X0047324Y0165977D01*
X0047386Y0166045D01*
X0047392Y0166051D01*
X0047404Y0166064D01*
X0047423Y0166076D01*
X0047448Y0166101D01*
X0047485Y0166126D01*
X0047528Y0166156D01*
X0047578Y0166194D01*
X0047633Y0166225D01*
X0047695Y0166255D01*
X0047769Y0166293D01*
X0047844Y0166324D01*
X0047930Y0166348D01*
X0048017Y0166373D01*
X0048116Y0166392D01*
X0048221Y0166398D01*
X0048327Y0166404D01*
X0048382D01*
X0048419Y0166398D01*
D02*
G37*
G36*
X0059326Y0143902D02*
X0059382Y0143890D01*
X0059444Y0143878D01*
X0059512Y0143853D01*
X0059592Y0143822D01*
X0059667Y0143779D01*
X0059747Y0143729D01*
X0059821Y0143661D01*
X0059890Y0143574D01*
X0059951Y0143475D01*
X0060007Y0143364D01*
X0060044Y0143221D01*
X0060075Y0143067D01*
X0060081Y0142887D01*
Y0141340D01*
X0059679D01*
Y0142782D01*
Y0142788D01*
Y0142801D01*
Y0142819D01*
Y0142850D01*
X0059673Y0142924D01*
X0059661Y0143011D01*
X0059648Y0143110D01*
X0059623Y0143209D01*
X0059592Y0143302D01*
X0059549Y0143383D01*
X0059543Y0143389D01*
X0059524Y0143413D01*
X0059493Y0143444D01*
X0059444Y0143475D01*
X0059388Y0143512D01*
X0059314Y0143537D01*
X0059221Y0143562D01*
X0059116Y0143568D01*
X0059103D01*
X0059072Y0143562D01*
X0059023Y0143556D01*
X0058961Y0143537D01*
X0058893Y0143512D01*
X0058819Y0143469D01*
X0058744Y0143413D01*
X0058676Y0143333D01*
X0058670Y0143321D01*
X0058652Y0143290D01*
X0058621Y0143240D01*
X0058590Y0143172D01*
X0058552Y0143092D01*
X0058528Y0142999D01*
X0058503Y0142887D01*
X0058497Y0142770D01*
Y0141340D01*
X0058094D01*
Y0142832D01*
Y0142838D01*
Y0142862D01*
X0058088Y0142900D01*
Y0142949D01*
X0058076Y0143005D01*
X0058064Y0143067D01*
X0058045Y0143129D01*
X0058026Y0143203D01*
X0057995Y0143271D01*
X0057958Y0143333D01*
X0057909Y0143395D01*
X0057853Y0143451D01*
X0057791Y0143500D01*
X0057711Y0143537D01*
X0057624Y0143562D01*
X0057525Y0143568D01*
X0057513D01*
X0057482Y0143562D01*
X0057432Y0143556D01*
X0057370Y0143543D01*
X0057302Y0143512D01*
X0057228Y0143475D01*
X0057153Y0143420D01*
X0057086Y0143345D01*
X0057079Y0143333D01*
X0057061Y0143308D01*
X0057030Y0143259D01*
X0056999Y0143191D01*
X0056968Y0143110D01*
X0056937Y0143011D01*
X0056918Y0142900D01*
X0056912Y0142770D01*
Y0141340D01*
X0056510D01*
Y0143853D01*
X0056912D01*
Y0143451D01*
X0056924D01*
X0056931Y0143457D01*
X0056937Y0143469D01*
X0056955Y0143494D01*
X0056974Y0143525D01*
X0057036Y0143593D01*
X0057123Y0143680D01*
X0057234Y0143766D01*
X0057364Y0143834D01*
X0057445Y0143865D01*
X0057525Y0143890D01*
X0057612Y0143902D01*
X0057704Y0143909D01*
X0057748D01*
X0057797Y0143902D01*
X0057859Y0143890D01*
X0057927Y0143871D01*
X0058002Y0143847D01*
X0058076Y0143816D01*
X0058150Y0143766D01*
X0058156Y0143760D01*
X0058181Y0143742D01*
X0058212Y0143710D01*
X0058255Y0143667D01*
X0058299Y0143612D01*
X0058342Y0143550D01*
X0058385Y0143475D01*
X0058416Y0143389D01*
X0058422Y0143395D01*
X0058429Y0143413D01*
X0058447Y0143438D01*
X0058466Y0143469D01*
X0058497Y0143512D01*
X0058534Y0143556D01*
X0058577Y0143599D01*
X0058627Y0143649D01*
X0058683Y0143698D01*
X0058744Y0143742D01*
X0058812Y0143791D01*
X0058887Y0143828D01*
X0058967Y0143859D01*
X0059054Y0143884D01*
X0059153Y0143902D01*
X0059252Y0143909D01*
X0059289D01*
X0059326Y0143902D01*
D02*
G37*
G36*
X0072201Y0143890D02*
X0072276Y0143884D01*
X0072319Y0143871D01*
X0072350Y0143859D01*
Y0143444D01*
X0072344Y0143451D01*
X0072331Y0143457D01*
X0072307Y0143469D01*
X0072276Y0143488D01*
X0072232Y0143500D01*
X0072177Y0143512D01*
X0072115Y0143519D01*
X0072047Y0143525D01*
X0072034D01*
X0072003Y0143519D01*
X0071954Y0143512D01*
X0071898Y0143494D01*
X0071824Y0143463D01*
X0071756Y0143420D01*
X0071681Y0143358D01*
X0071613Y0143277D01*
X0071607Y0143265D01*
X0071589Y0143234D01*
X0071558Y0143178D01*
X0071527Y0143104D01*
X0071496Y0143011D01*
X0071465Y0142894D01*
X0071446Y0142763D01*
X0071440Y0142615D01*
Y0141340D01*
X0071038D01*
Y0143853D01*
X0071440D01*
Y0143333D01*
X0071452D01*
Y0143339D01*
X0071459Y0143345D01*
X0071471Y0143376D01*
X0071490Y0143426D01*
X0071521Y0143488D01*
X0071552Y0143550D01*
X0071601Y0143618D01*
X0071650Y0143686D01*
X0071712Y0143748D01*
X0071719Y0143754D01*
X0071743Y0143772D01*
X0071781Y0143797D01*
X0071830Y0143822D01*
X0071886Y0143847D01*
X0071954Y0143871D01*
X0072028Y0143890D01*
X0072109Y0143896D01*
X0072164D01*
X0072201Y0143890D01*
D02*
G37*
G36*
X0077407Y0140937D02*
X0077401Y0140931D01*
X0077395Y0140907D01*
X0077376Y0140863D01*
X0077351Y0140814D01*
X0077321Y0140758D01*
X0077277Y0140690D01*
X0077234Y0140622D01*
X0077184Y0140548D01*
X0077122Y0140473D01*
X0077061Y0140405D01*
X0076986Y0140337D01*
X0076906Y0140281D01*
X0076825Y0140232D01*
X0076732Y0140188D01*
X0076640Y0140164D01*
X0076534Y0140157D01*
X0076479D01*
X0076442Y0140164D01*
X0076361Y0140176D01*
X0076275Y0140195D01*
Y0140554D01*
X0076281D01*
X0076299Y0140548D01*
X0076324Y0140541D01*
X0076355Y0140535D01*
X0076429Y0140516D01*
X0076510Y0140510D01*
X0076522D01*
X0076559Y0140516D01*
X0076615Y0140529D01*
X0076683Y0140554D01*
X0076757Y0140597D01*
X0076794Y0140628D01*
X0076832Y0140665D01*
X0076869Y0140702D01*
X0076906Y0140752D01*
X0076937Y0140807D01*
X0076968Y0140869D01*
X0077172Y0141340D01*
X0076188Y0143853D01*
X0076634D01*
X0077314Y0141916D01*
Y0141909D01*
X0077321Y0141897D01*
X0077327Y0141878D01*
X0077333Y0141853D01*
X0077339Y0141816D01*
X0077351Y0141779D01*
X0077364Y0141724D01*
X0077382D01*
Y0141736D01*
X0077395Y0141773D01*
X0077407Y0141829D01*
X0077432Y0141909D01*
X0078144Y0143853D01*
X0078559D01*
X0077407Y0140937D01*
D02*
G37*
G36*
X0066977Y0141340D02*
X0066581D01*
X0065628Y0143853D01*
X0066067D01*
X0066711Y0142027D01*
X0066717Y0142021D01*
X0066723Y0141996D01*
X0066736Y0141953D01*
X0066748Y0141909D01*
X0066760Y0141853D01*
X0066779Y0141792D01*
X0066798Y0141674D01*
X0066804D01*
Y0141680D01*
X0066810Y0141705D01*
X0066816Y0141742D01*
X0066822Y0141786D01*
X0066835Y0141841D01*
X0066847Y0141897D01*
X0066884Y0142015D01*
X0067553Y0143853D01*
X0067974D01*
X0066977Y0141340D01*
D02*
G37*
G36*
X0074999Y0143902D02*
X0075055Y0143896D01*
X0075123Y0143878D01*
X0075197Y0143859D01*
X0075278Y0143828D01*
X0075365Y0143791D01*
X0075445Y0143742D01*
X0075525Y0143680D01*
X0075600Y0143605D01*
X0075668Y0143512D01*
X0075723Y0143407D01*
X0075767Y0143283D01*
X0075792Y0143141D01*
X0075804Y0142974D01*
Y0141340D01*
X0075402D01*
Y0141730D01*
X0075389D01*
Y0141724D01*
X0075377Y0141711D01*
X0075365Y0141686D01*
X0075340Y0141662D01*
X0075278Y0141587D01*
X0075197Y0141507D01*
X0075086Y0141426D01*
X0074956Y0141352D01*
X0074875Y0141327D01*
X0074795Y0141303D01*
X0074708Y0141290D01*
X0074616Y0141284D01*
X0074578D01*
X0074554Y0141290D01*
X0074485Y0141297D01*
X0074405Y0141309D01*
X0074306Y0141334D01*
X0074213Y0141365D01*
X0074114Y0141414D01*
X0074028Y0141476D01*
X0074021Y0141488D01*
X0073997Y0141513D01*
X0073959Y0141556D01*
X0073922Y0141618D01*
X0073885Y0141693D01*
X0073848Y0141779D01*
X0073823Y0141885D01*
X0073817Y0142002D01*
Y0142008D01*
Y0142033D01*
X0073823Y0142070D01*
X0073829Y0142113D01*
X0073842Y0142169D01*
X0073860Y0142231D01*
X0073885Y0142299D01*
X0073922Y0142367D01*
X0073966Y0142442D01*
X0074021Y0142516D01*
X0074089Y0142584D01*
X0074170Y0142646D01*
X0074263Y0142708D01*
X0074374Y0142757D01*
X0074498Y0142794D01*
X0074647Y0142825D01*
X0075402Y0142931D01*
Y0142937D01*
Y0142955D01*
X0075396Y0142992D01*
Y0143030D01*
X0075383Y0143079D01*
X0075377Y0143135D01*
X0075340Y0143253D01*
X0075309Y0143308D01*
X0075278Y0143364D01*
X0075235Y0143420D01*
X0075185Y0143469D01*
X0075123Y0143512D01*
X0075055Y0143543D01*
X0074975Y0143562D01*
X0074882Y0143568D01*
X0074838D01*
X0074807Y0143562D01*
X0074764D01*
X0074721Y0143550D01*
X0074609Y0143531D01*
X0074485Y0143494D01*
X0074349Y0143438D01*
X0074275Y0143401D01*
X0074207Y0143364D01*
X0074133Y0143314D01*
X0074065Y0143259D01*
Y0143673D01*
X0074071D01*
X0074083Y0143686D01*
X0074102Y0143698D01*
X0074133Y0143710D01*
X0074164Y0143729D01*
X0074207Y0143748D01*
X0074256Y0143766D01*
X0074312Y0143791D01*
X0074436Y0143834D01*
X0074585Y0143871D01*
X0074746Y0143896D01*
X0074919Y0143909D01*
X0074956D01*
X0074999Y0143902D01*
D02*
G37*
G36*
X0073186Y0141340D02*
X0072783D01*
Y0145060D01*
X0073186D01*
Y0141340D01*
D02*
G37*
G36*
X0045467Y0144850D02*
X0045510D01*
X0045553Y0144843D01*
X0045652Y0144831D01*
X0045770Y0144800D01*
X0045894Y0144763D01*
X0046011Y0144707D01*
X0046117Y0144633D01*
X0046123D01*
X0046129Y0144621D01*
X0046160Y0144596D01*
X0046203Y0144546D01*
X0046253Y0144478D01*
X0046296Y0144392D01*
X0046340Y0144292D01*
X0046371Y0144181D01*
X0046383Y0144119D01*
Y0144051D01*
Y0144045D01*
Y0144039D01*
Y0144001D01*
X0046377Y0143946D01*
X0046364Y0143878D01*
X0046346Y0143791D01*
X0046315Y0143704D01*
X0046278Y0143618D01*
X0046222Y0143531D01*
X0046216Y0143519D01*
X0046191Y0143494D01*
X0046154Y0143457D01*
X0046104Y0143407D01*
X0046042Y0143358D01*
X0045968Y0143302D01*
X0045875Y0143259D01*
X0045776Y0143215D01*
Y0143209D01*
X0045795D01*
X0045814Y0143203D01*
X0045832Y0143197D01*
X0045900Y0143184D01*
X0045981Y0143160D01*
X0046067Y0143122D01*
X0046160Y0143079D01*
X0046253Y0143017D01*
X0046340Y0142937D01*
X0046352Y0142924D01*
X0046377Y0142894D01*
X0046408Y0142850D01*
X0046451Y0142782D01*
X0046488Y0142695D01*
X0046525Y0142596D01*
X0046550Y0142479D01*
X0046556Y0142349D01*
Y0142343D01*
Y0142330D01*
Y0142305D01*
X0046550Y0142274D01*
X0046544Y0142237D01*
X0046538Y0142194D01*
X0046513Y0142089D01*
X0046476Y0141971D01*
X0046420Y0141847D01*
X0046383Y0141792D01*
X0046340Y0141730D01*
X0046284Y0141674D01*
X0046228Y0141618D01*
X0046222D01*
X0046216Y0141606D01*
X0046197Y0141594D01*
X0046172Y0141575D01*
X0046141Y0141556D01*
X0046098Y0141532D01*
X0046005Y0141482D01*
X0045888Y0141426D01*
X0045752Y0141383D01*
X0045591Y0141352D01*
X0045510Y0141346D01*
X0045417Y0141340D01*
X0044390D01*
Y0144856D01*
X0045436D01*
X0045467Y0144850D01*
D02*
G37*
G36*
X0052393Y0143853D02*
X0053031D01*
Y0143506D01*
X0052393D01*
Y0142089D01*
Y0142076D01*
Y0142045D01*
X0052400Y0142002D01*
X0052406Y0141946D01*
X0052431Y0141829D01*
X0052449Y0141773D01*
X0052480Y0141730D01*
X0052486Y0141724D01*
X0052499Y0141711D01*
X0052517Y0141699D01*
X0052548Y0141680D01*
X0052585Y0141656D01*
X0052635Y0141643D01*
X0052697Y0141631D01*
X0052765Y0141624D01*
X0052790D01*
X0052820Y0141631D01*
X0052858Y0141637D01*
X0052944Y0141662D01*
X0052988Y0141680D01*
X0053031Y0141705D01*
Y0141358D01*
X0053025D01*
X0053006Y0141346D01*
X0052975Y0141340D01*
X0052932Y0141327D01*
X0052876Y0141315D01*
X0052814Y0141303D01*
X0052740Y0141297D01*
X0052653Y0141290D01*
X0052622D01*
X0052592Y0141297D01*
X0052548Y0141303D01*
X0052499Y0141315D01*
X0052443Y0141327D01*
X0052387Y0141352D01*
X0052325Y0141383D01*
X0052263Y0141420D01*
X0052201Y0141470D01*
X0052146Y0141525D01*
X0052096Y0141600D01*
X0052053Y0141680D01*
X0052022Y0141779D01*
X0051997Y0141891D01*
X0051991Y0142021D01*
Y0143506D01*
X0051564D01*
Y0143853D01*
X0051991D01*
Y0144466D01*
X0052393Y0144596D01*
Y0143853D01*
D02*
G37*
G36*
X0050691D02*
X0051329D01*
Y0143506D01*
X0050691D01*
Y0142089D01*
Y0142076D01*
Y0142045D01*
X0050697Y0142002D01*
X0050704Y0141946D01*
X0050728Y0141829D01*
X0050747Y0141773D01*
X0050778Y0141730D01*
X0050784Y0141724D01*
X0050796Y0141711D01*
X0050815Y0141699D01*
X0050846Y0141680D01*
X0050883Y0141656D01*
X0050933Y0141643D01*
X0050994Y0141631D01*
X0051063Y0141624D01*
X0051087D01*
X0051118Y0141631D01*
X0051155Y0141637D01*
X0051242Y0141662D01*
X0051285Y0141680D01*
X0051329Y0141705D01*
Y0141358D01*
X0051323D01*
X0051304Y0141346D01*
X0051273Y0141340D01*
X0051230Y0141327D01*
X0051174Y0141315D01*
X0051112Y0141303D01*
X0051038Y0141297D01*
X0050951Y0141290D01*
X0050920D01*
X0050889Y0141297D01*
X0050846Y0141303D01*
X0050796Y0141315D01*
X0050741Y0141327D01*
X0050685Y0141352D01*
X0050623Y0141383D01*
X0050561Y0141420D01*
X0050499Y0141470D01*
X0050444Y0141525D01*
X0050394Y0141600D01*
X0050351Y0141680D01*
X0050320Y0141779D01*
X0050295Y0141891D01*
X0050289Y0142021D01*
Y0143506D01*
X0049862D01*
Y0143853D01*
X0050289D01*
Y0144466D01*
X0050691Y0144596D01*
Y0143853D01*
D02*
G37*
G36*
X0069478Y0143902D02*
X0069521Y0143896D01*
X0069564Y0143890D01*
X0069676Y0143871D01*
X0069800Y0143828D01*
X0069924Y0143772D01*
X0069985Y0143735D01*
X0070047Y0143692D01*
X0070103Y0143642D01*
X0070159Y0143587D01*
X0070165Y0143581D01*
X0070171Y0143574D01*
X0070183Y0143556D01*
X0070202Y0143531D01*
X0070221Y0143494D01*
X0070245Y0143457D01*
X0070270Y0143413D01*
X0070295Y0143358D01*
X0070320Y0143296D01*
X0070344Y0143234D01*
X0070369Y0143160D01*
X0070388Y0143079D01*
X0070406Y0142992D01*
X0070419Y0142906D01*
X0070431Y0142807D01*
Y0142702D01*
Y0142491D01*
X0068655D01*
Y0142485D01*
Y0142473D01*
Y0142454D01*
X0068661Y0142423D01*
X0068667Y0142386D01*
Y0142349D01*
X0068686Y0142250D01*
X0068717Y0142151D01*
X0068754Y0142039D01*
X0068809Y0141934D01*
X0068877Y0141841D01*
X0068890Y0141829D01*
X0068915Y0141804D01*
X0068964Y0141773D01*
X0069032Y0141730D01*
X0069119Y0141686D01*
X0069218Y0141656D01*
X0069336Y0141631D01*
X0069472Y0141618D01*
X0069515D01*
X0069546Y0141624D01*
X0069583D01*
X0069626Y0141631D01*
X0069732Y0141656D01*
X0069849Y0141686D01*
X0069979Y0141736D01*
X0070115Y0141804D01*
X0070183Y0141847D01*
X0070252Y0141897D01*
Y0141519D01*
X0070245D01*
X0070239Y0141507D01*
X0070221Y0141501D01*
X0070190Y0141482D01*
X0070159Y0141464D01*
X0070122Y0141445D01*
X0070072Y0141426D01*
X0070023Y0141402D01*
X0069961Y0141377D01*
X0069893Y0141358D01*
X0069744Y0141321D01*
X0069571Y0141297D01*
X0069379Y0141284D01*
X0069329D01*
X0069292Y0141290D01*
X0069249Y0141297D01*
X0069193Y0141303D01*
X0069076Y0141327D01*
X0068939Y0141365D01*
X0068803Y0141426D01*
X0068735Y0141470D01*
X0068667Y0141513D01*
X0068605Y0141563D01*
X0068543Y0141624D01*
X0068537Y0141631D01*
X0068531Y0141643D01*
X0068518Y0141662D01*
X0068494Y0141686D01*
X0068475Y0141724D01*
X0068450Y0141767D01*
X0068419Y0141816D01*
X0068395Y0141872D01*
X0068364Y0141934D01*
X0068339Y0142008D01*
X0068308Y0142089D01*
X0068289Y0142175D01*
X0068271Y0142268D01*
X0068252Y0142367D01*
X0068246Y0142473D01*
X0068240Y0142584D01*
Y0142590D01*
Y0142609D01*
Y0142640D01*
X0068246Y0142683D01*
X0068252Y0142733D01*
X0068258Y0142788D01*
X0068265Y0142856D01*
X0068283Y0142924D01*
X0068320Y0143073D01*
X0068376Y0143234D01*
X0068413Y0143314D01*
X0068463Y0143389D01*
X0068512Y0143469D01*
X0068568Y0143537D01*
X0068574Y0143543D01*
X0068586Y0143556D01*
X0068605Y0143574D01*
X0068630Y0143593D01*
X0068661Y0143624D01*
X0068698Y0143655D01*
X0068747Y0143686D01*
X0068797Y0143723D01*
X0068915Y0143791D01*
X0069057Y0143853D01*
X0069137Y0143871D01*
X0069218Y0143890D01*
X0069305Y0143902D01*
X0069397Y0143909D01*
X0069447D01*
X0069478Y0143902D01*
D02*
G37*
G36*
X0063863Y0144911D02*
X0063925Y0144905D01*
X0064000Y0144893D01*
X0064080Y0144874D01*
X0064167Y0144856D01*
X0064253Y0144831D01*
X0064353Y0144800D01*
X0064445Y0144757D01*
X0064544Y0144707D01*
X0064643Y0144651D01*
X0064736Y0144583D01*
X0064829Y0144509D01*
X0064916Y0144422D01*
X0064922Y0144416D01*
X0064934Y0144398D01*
X0064959Y0144373D01*
X0064984Y0144336D01*
X0065021Y0144286D01*
X0065058Y0144224D01*
X0065095Y0144156D01*
X0065139Y0144082D01*
X0065182Y0143989D01*
X0065219Y0143896D01*
X0065256Y0143791D01*
X0065293Y0143673D01*
X0065318Y0143556D01*
X0065343Y0143426D01*
X0065355Y0143283D01*
X0065361Y0143141D01*
Y0143129D01*
Y0143104D01*
Y0143061D01*
X0065355Y0142999D01*
X0065349Y0142924D01*
X0065337Y0142844D01*
X0065324Y0142751D01*
X0065306Y0142646D01*
X0065281Y0142541D01*
X0065250Y0142429D01*
X0065213Y0142318D01*
X0065170Y0142206D01*
X0065114Y0142089D01*
X0065052Y0141983D01*
X0064984Y0141878D01*
X0064903Y0141779D01*
X0064897Y0141773D01*
X0064885Y0141761D01*
X0064854Y0141736D01*
X0064823Y0141705D01*
X0064773Y0141662D01*
X0064718Y0141624D01*
X0064656Y0141575D01*
X0064582Y0141532D01*
X0064501Y0141488D01*
X0064408Y0141439D01*
X0064309Y0141402D01*
X0064198Y0141365D01*
X0064080Y0141327D01*
X0063956Y0141303D01*
X0063826Y0141290D01*
X0063684Y0141284D01*
X0063653D01*
X0063610Y0141290D01*
X0063560D01*
X0063498Y0141297D01*
X0063424Y0141309D01*
X0063344Y0141327D01*
X0063251Y0141346D01*
X0063158Y0141371D01*
X0063059Y0141402D01*
X0062960Y0141445D01*
X0062861Y0141488D01*
X0062762Y0141544D01*
X0062663Y0141612D01*
X0062570Y0141686D01*
X0062483Y0141773D01*
X0062477Y0141779D01*
X0062465Y0141798D01*
X0062440Y0141823D01*
X0062415Y0141860D01*
X0062378Y0141909D01*
X0062341Y0141971D01*
X0062304Y0142039D01*
X0062260Y0142120D01*
X0062217Y0142206D01*
X0062180Y0142299D01*
X0062143Y0142404D01*
X0062106Y0142522D01*
X0062081Y0142640D01*
X0062056Y0142770D01*
X0062044Y0142912D01*
X0062037Y0143054D01*
Y0143067D01*
Y0143092D01*
X0062044Y0143135D01*
Y0143197D01*
X0062050Y0143265D01*
X0062062Y0143351D01*
X0062075Y0143444D01*
X0062093Y0143543D01*
X0062118Y0143649D01*
X0062149Y0143760D01*
X0062186Y0143871D01*
X0062229Y0143983D01*
X0062285Y0144094D01*
X0062347Y0144206D01*
X0062415Y0144311D01*
X0062495Y0144410D01*
X0062502Y0144416D01*
X0062514Y0144435D01*
X0062545Y0144459D01*
X0062582Y0144491D01*
X0062625Y0144528D01*
X0062681Y0144571D01*
X0062749Y0144614D01*
X0062824Y0144664D01*
X0062910Y0144713D01*
X0063003Y0144757D01*
X0063102Y0144800D01*
X0063213Y0144837D01*
X0063337Y0144868D01*
X0063467Y0144899D01*
X0063604Y0144911D01*
X0063746Y0144918D01*
X0063814D01*
X0063863Y0144911D01*
D02*
G37*
G36*
X0054770Y0143902D02*
X0054814Y0143896D01*
X0054869Y0143890D01*
X0054993Y0143865D01*
X0055136Y0143822D01*
X0055278Y0143760D01*
X0055352Y0143723D01*
X0055420Y0143680D01*
X0055488Y0143624D01*
X0055550Y0143562D01*
X0055556Y0143556D01*
X0055563Y0143543D01*
X0055581Y0143525D01*
X0055600Y0143500D01*
X0055625Y0143463D01*
X0055649Y0143420D01*
X0055680Y0143370D01*
X0055711Y0143314D01*
X0055736Y0143246D01*
X0055767Y0143178D01*
X0055792Y0143098D01*
X0055817Y0143011D01*
X0055835Y0142918D01*
X0055854Y0142819D01*
X0055860Y0142714D01*
X0055866Y0142603D01*
Y0142596D01*
Y0142578D01*
Y0142547D01*
X0055860Y0142503D01*
X0055854Y0142454D01*
X0055848Y0142392D01*
X0055835Y0142330D01*
X0055823Y0142256D01*
X0055786Y0142107D01*
X0055724Y0141946D01*
X0055686Y0141866D01*
X0055637Y0141786D01*
X0055588Y0141711D01*
X0055526Y0141643D01*
X0055519Y0141637D01*
X0055507Y0141631D01*
X0055488Y0141612D01*
X0055464Y0141587D01*
X0055427Y0141563D01*
X0055389Y0141532D01*
X0055340Y0141495D01*
X0055284Y0141464D01*
X0055222Y0141433D01*
X0055154Y0141395D01*
X0055080Y0141365D01*
X0054999Y0141340D01*
X0054913Y0141315D01*
X0054820Y0141303D01*
X0054721Y0141290D01*
X0054616Y0141284D01*
X0054560D01*
X0054523Y0141290D01*
X0054479Y0141297D01*
X0054424Y0141303D01*
X0054362Y0141315D01*
X0054294Y0141327D01*
X0054151Y0141371D01*
X0054003Y0141433D01*
X0053929Y0141470D01*
X0053860Y0141519D01*
X0053792Y0141569D01*
X0053724Y0141631D01*
X0053718Y0141637D01*
X0053712Y0141649D01*
X0053693Y0141668D01*
X0053675Y0141693D01*
X0053650Y0141730D01*
X0053619Y0141773D01*
X0053588Y0141823D01*
X0053563Y0141878D01*
X0053532Y0141946D01*
X0053501Y0142015D01*
X0053470Y0142089D01*
X0053446Y0142175D01*
X0053409Y0142361D01*
X0053402Y0142460D01*
X0053396Y0142565D01*
Y0142572D01*
Y0142596D01*
Y0142627D01*
X0053402Y0142671D01*
X0053409Y0142720D01*
X0053415Y0142782D01*
X0053427Y0142850D01*
X0053439Y0142924D01*
X0053477Y0143085D01*
X0053539Y0143246D01*
X0053582Y0143327D01*
X0053625Y0143407D01*
X0053675Y0143482D01*
X0053737Y0143550D01*
X0053743Y0143556D01*
X0053755Y0143568D01*
X0053774Y0143581D01*
X0053799Y0143605D01*
X0053836Y0143630D01*
X0053879Y0143661D01*
X0053929Y0143698D01*
X0053984Y0143729D01*
X0054046Y0143760D01*
X0054120Y0143797D01*
X0054195Y0143828D01*
X0054281Y0143853D01*
X0054368Y0143878D01*
X0054467Y0143896D01*
X0054572Y0143902D01*
X0054677Y0143909D01*
X0054733D01*
X0054770Y0143902D01*
D02*
G37*
G36*
X0048419D02*
X0048463Y0143896D01*
X0048518Y0143890D01*
X0048642Y0143865D01*
X0048785Y0143822D01*
X0048927Y0143760D01*
X0049001Y0143723D01*
X0049069Y0143680D01*
X0049137Y0143624D01*
X0049199Y0143562D01*
X0049206Y0143556D01*
X0049212Y0143543D01*
X0049230Y0143525D01*
X0049249Y0143500D01*
X0049274Y0143463D01*
X0049298Y0143420D01*
X0049329Y0143370D01*
X0049360Y0143314D01*
X0049385Y0143246D01*
X0049416Y0143178D01*
X0049441Y0143098D01*
X0049466Y0143011D01*
X0049484Y0142918D01*
X0049503Y0142819D01*
X0049509Y0142714D01*
X0049515Y0142603D01*
Y0142596D01*
Y0142578D01*
Y0142547D01*
X0049509Y0142503D01*
X0049503Y0142454D01*
X0049496Y0142392D01*
X0049484Y0142330D01*
X0049472Y0142256D01*
X0049435Y0142107D01*
X0049373Y0141946D01*
X0049336Y0141866D01*
X0049286Y0141786D01*
X0049237Y0141711D01*
X0049175Y0141643D01*
X0049168Y0141637D01*
X0049156Y0141631D01*
X0049137Y0141612D01*
X0049113Y0141587D01*
X0049076Y0141563D01*
X0049038Y0141532D01*
X0048989Y0141495D01*
X0048933Y0141464D01*
X0048871Y0141433D01*
X0048803Y0141395D01*
X0048729Y0141365D01*
X0048649Y0141340D01*
X0048562Y0141315D01*
X0048469Y0141303D01*
X0048370Y0141290D01*
X0048265Y0141284D01*
X0048209D01*
X0048172Y0141290D01*
X0048129Y0141297D01*
X0048073Y0141303D01*
X0048011Y0141315D01*
X0047943Y0141327D01*
X0047800Y0141371D01*
X0047652Y0141433D01*
X0047578Y0141470D01*
X0047510Y0141519D01*
X0047441Y0141569D01*
X0047373Y0141631D01*
X0047367Y0141637D01*
X0047361Y0141649D01*
X0047342Y0141668D01*
X0047324Y0141693D01*
X0047299Y0141730D01*
X0047268Y0141773D01*
X0047237Y0141823D01*
X0047212Y0141878D01*
X0047181Y0141946D01*
X0047150Y0142015D01*
X0047120Y0142089D01*
X0047095Y0142175D01*
X0047058Y0142361D01*
X0047052Y0142460D01*
X0047045Y0142565D01*
Y0142572D01*
Y0142596D01*
Y0142627D01*
X0047052Y0142671D01*
X0047058Y0142720D01*
X0047064Y0142782D01*
X0047076Y0142850D01*
X0047089Y0142924D01*
X0047126Y0143085D01*
X0047188Y0143246D01*
X0047231Y0143327D01*
X0047274Y0143407D01*
X0047324Y0143482D01*
X0047386Y0143550D01*
X0047392Y0143556D01*
X0047404Y0143568D01*
X0047423Y0143581D01*
X0047448Y0143605D01*
X0047485Y0143630D01*
X0047528Y0143661D01*
X0047578Y0143698D01*
X0047633Y0143729D01*
X0047695Y0143760D01*
X0047769Y0143797D01*
X0047844Y0143828D01*
X0047930Y0143853D01*
X0048017Y0143878D01*
X0048116Y0143896D01*
X0048221Y0143902D01*
X0048327Y0143909D01*
X0048382D01*
X0048419Y0143902D01*
D02*
G37*
G36*
X0027559Y0097591D02*
X0027621Y0097579D01*
X0027681Y0097561D01*
X0027740Y0097536D01*
X0027794Y0097505D01*
X0027845Y0097468D01*
X0027892Y0097426D01*
X0027934Y0097378D01*
X0027970Y0097327D01*
X0028000Y0097271D01*
X0028023Y0097213D01*
X0028040Y0097152D01*
X0028050Y0097089D01*
X0028053Y0097026D01*
X0028052Y0097013D01*
X0028053Y0097013D01*
X0028053Y0097012D01*
X0028050Y0096937D01*
X0028048Y0096711D01*
X0028054Y0096485D01*
X0028067Y0096259D01*
X0028087Y0096033D01*
X0028115Y0095809D01*
X0028150Y0095585D01*
X0028192Y0095363D01*
X0028242Y0095142D01*
X0028299Y0094923D01*
X0028363Y0094706D01*
X0028434Y0094491D01*
X0028512Y0094279D01*
X0028597Y0094069D01*
X0028689Y0093862D01*
X0028788Y0093658D01*
X0028893Y0093458D01*
X0029004Y0093261D01*
X0029122Y0093068D01*
X0029247Y0092879D01*
X0029377Y0092694D01*
X0029514Y0092514D01*
X0029656Y0092337D01*
X0029804Y0092166D01*
X0029957Y0092000D01*
X0030116Y0091839D01*
X0030280Y0091683D01*
X0030449Y0091532D01*
X0030623Y0091387D01*
X0030801Y0091248D01*
X0030984Y0091115D01*
X0031171Y0090988D01*
X0031363Y0090867D01*
X0031558Y0090752D01*
X0031757Y0090644D01*
X0031959Y0090542D01*
X0032164Y0090447D01*
X0032373Y0090359D01*
X0032584Y0090278D01*
X0032798Y0090203D01*
X0033014Y0090136D01*
X0033232Y0090076D01*
X0033452Y0090023D01*
X0033530Y0090007D01*
X0033530Y0090006D01*
X0033530Y0090006D01*
X0033545Y0090003D01*
X0033606Y0089985D01*
X0033664Y0089960D01*
X0033719Y0089929D01*
X0033770Y0089892D01*
X0033817Y0089849D01*
X0033859Y0089801D01*
X0033895Y0089749D01*
X0033925Y0089694D01*
X0033949Y0089635D01*
X0033966Y0089574D01*
X0033976Y0089511D01*
X0033979Y0089448D01*
X0033974Y0089385D01*
X0033963Y0089322D01*
X0033945Y0089262D01*
X0033920Y0089203D01*
X0033889Y0089148D01*
X0033852Y0089097D01*
X0033809Y0089050D01*
X0033762Y0089008D01*
X0033709Y0088972D01*
X0033654Y0088942D01*
X0033595Y0088919D01*
X0033534Y0088902D01*
X0033471Y0088892D01*
X0033408Y0088889D01*
X0033345Y0088893D01*
X0033296Y0088902D01*
X0033296Y0088901D01*
X0033296Y0088902D01*
X0033241Y0088913D01*
X0032995Y0088971D01*
X0032752Y0089037D01*
Y0089037D01*
X0032752Y0089037D01*
X0032748Y0089038D01*
X0032748Y0089038D01*
X0032682Y0089056D01*
X0032565Y0089082D01*
X0032445Y0089100D01*
X0032326Y0089111D01*
X0032205Y0089115D01*
X0032085Y0089111D01*
X0031965Y0089100D01*
X0031846Y0089082D01*
X0031728Y0089057D01*
X0031612Y0089025D01*
X0031498Y0088986D01*
X0031386Y0088940D01*
X0031278Y0088888D01*
X0031173Y0088828D01*
X0031072Y0088763D01*
X0030988Y0088702D01*
X0030988Y0088702D01*
X0030878Y0088620D01*
X0030737Y0088524D01*
X0030592Y0088434D01*
X0030443Y0088351D01*
X0030291Y0088274D01*
X0030135Y0088204D01*
X0029977Y0088141D01*
X0029816Y0088085D01*
X0029652Y0088035D01*
X0029487Y0087993D01*
X0029320Y0087959D01*
X0029151Y0087931D01*
X0028982Y0087911D01*
X0028811Y0087898D01*
X0028641Y0087893D01*
X0028470Y0087895D01*
X0028300Y0087905D01*
X0028130Y0087922D01*
X0027961Y0087947D01*
X0027793Y0087979D01*
X0027627Y0088018D01*
X0027463Y0088064D01*
X0027301Y0088117D01*
X0027141Y0088178D01*
X0026985Y0088245D01*
X0026831Y0088319D01*
X0026680Y0088400D01*
X0026534Y0088487D01*
X0026391Y0088581D01*
X0026252Y0088681D01*
X0026118Y0088786D01*
X0025989Y0088898D01*
X0025865Y0089015D01*
X0025746Y0089137D01*
X0025632Y0089264D01*
X0025524Y0089397D01*
X0025422Y0089533D01*
X0025326Y0089674D01*
X0025236Y0089820D01*
X0025153Y0089968D01*
X0025076Y0090121D01*
X0025006Y0090276D01*
X0024943Y0090435D01*
X0024886Y0090596D01*
X0024837Y0090759D01*
X0024795Y0090925D01*
X0024760Y0091092D01*
X0024733Y0091260D01*
X0024713Y0091430D01*
X0024700Y0091600D01*
X0024695Y0091771D01*
X0024697Y0091941D01*
X0024707Y0092112D01*
X0024724Y0092282D01*
X0024748Y0092451D01*
X0024780Y0092618D01*
X0024819Y0092784D01*
X0024866Y0092949D01*
X0024919Y0093111D01*
X0024980Y0093270D01*
X0025047Y0093427D01*
X0025121Y0093581D01*
X0025202Y0093731D01*
X0025289Y0093878D01*
X0025383Y0094021D01*
X0025483Y0094159D01*
X0025588Y0094293D01*
X0025700Y0094423D01*
X0025817Y0094547D01*
X0025939Y0094666D01*
X0026066Y0094780D01*
X0026175Y0094869D01*
X0026175Y0094869D01*
X0026256Y0094936D01*
X0026344Y0095018D01*
X0026426Y0095106D01*
X0026504Y0095198D01*
X0026575Y0095295D01*
X0026641Y0095396D01*
X0026700Y0095501D01*
X0026753Y0095610D01*
X0026799Y0095721D01*
X0026839Y0095835D01*
X0026871Y0095951D01*
X0026897Y0096068D01*
X0026915Y0096188D01*
X0026926Y0096307D01*
X0026930Y0096428D01*
X0026928Y0096494D01*
X0026928Y0096494D01*
X0026928Y0096498D01*
X0026928D01*
X0026923Y0096743D01*
X0026926Y0096996D01*
X0026929Y0097052D01*
X0026928Y0097052D01*
X0026928Y0097052D01*
X0026929Y0097052D01*
X0026932Y0097101D01*
X0026943Y0097163D01*
X0026961Y0097223D01*
X0026986Y0097281D01*
X0027017Y0097336D01*
X0027054Y0097387D01*
X0027097Y0097434D01*
X0027144Y0097475D01*
X0027196Y0097511D01*
X0027251Y0097541D01*
X0027310Y0097565D01*
X0027371Y0097582D01*
X0027433Y0097592D01*
X0027496Y0097595D01*
X0027559Y0097591D01*
D02*
G37*
G36*
X-0027344Y0097402D02*
X-0027282Y0097389D01*
X-0027222Y0097370D01*
X-0027164Y0097345D01*
X-0027109Y0097313D01*
X-0027058Y0097275D01*
X-0027012Y0097231D01*
X-0026971Y0097183D01*
X-0026936Y0097131D01*
X-0026906Y0097074D01*
X-0026884Y0097015D01*
X-0026868Y0096954D01*
X-0026858Y0096891D01*
X-0026857Y0096842D01*
X-0026857D01*
X-0026856Y0096786D01*
X-0026862Y0096533D01*
X-0026876Y0096281D01*
X-0026876Y0096281D01*
X-0026876Y0096281D01*
X-0026876Y0096277D01*
X-0026876Y0096277D01*
X-0026880Y0096209D01*
X-0026881Y0096089D01*
X-0026874Y0095969D01*
X-0026860Y0095849D01*
X-0026839Y0095730D01*
X-0026810Y0095613D01*
X-0026775Y0095498D01*
X-0026732Y0095385D01*
X-0026683Y0095275D01*
X-0026628Y0095168D01*
X-0026566Y0095065D01*
X-0026498Y0094966D01*
X-0026424Y0094871D01*
X-0026344Y0094780D01*
X-0026259Y0094695D01*
X-0026182Y0094626D01*
X-0026182Y0094626D01*
X-0026079Y0094535D01*
X-0025956Y0094417D01*
X-0025838Y0094294D01*
X-0025725Y0094166D01*
X-0025618Y0094033D01*
X-0025517Y0093895D01*
X-0025423Y0093753D01*
X-0025334Y0093607D01*
X-0025252Y0093458D01*
X-0025177Y0093305D01*
X-0025108Y0093148D01*
X-0025046Y0092989D01*
X-0024991Y0092828D01*
X-0024943Y0092664D01*
X-0024903Y0092498D01*
X-0024869Y0092330D01*
X-0024843Y0092162D01*
X-0024825Y0091992D01*
X-0024814Y0091822D01*
X-0024810Y0091651D01*
X-0024814Y0091481D01*
X-0024825Y0091310D01*
X-0024843Y0091141D01*
X-0024869Y0090972D01*
X-0024903Y0090804D01*
X-0024943Y0090639D01*
X-0024991Y0090475D01*
X-0025046Y0090313D01*
X-0025108Y0090154D01*
X-0025177Y0089998D01*
X-0025252Y0089845D01*
X-0025334Y0089695D01*
X-0025423Y0089549D01*
X-0025517Y0089407D01*
X-0025618Y0089270D01*
X-0025725Y0089137D01*
X-0025838Y0089008D01*
X-0025956Y0088885D01*
X-0026079Y0088767D01*
X-0026207Y0088655D01*
X-0026340Y0088548D01*
X-0026478Y0088447D01*
X-0026620Y0088352D01*
X-0026766Y0088263D01*
X-0026916Y0088181D01*
X-0027069Y0088106D01*
X-0027225Y0088037D01*
X-0027384Y0087975D01*
X-0027545Y0087920D01*
X-0027709Y0087873D01*
X-0027875Y0087832D01*
X-0028043Y0087799D01*
X-0028211Y0087773D01*
X-0028381Y0087754D01*
X-0028551Y0087743D01*
X-0028722Y0087739D01*
X-0028892Y0087743D01*
X-0029063Y0087754D01*
X-0029232Y0087773D01*
X-0029401Y0087799D01*
X-0029569Y0087832D01*
X-0029734Y0087873D01*
X-0029898Y0087920D01*
X-0030060Y0087975D01*
X-0030219Y0088037D01*
X-0030375Y0088106D01*
X-0030528Y0088181D01*
X-0030678Y0088263D01*
X-0030824Y0088352D01*
X-0030966Y0088447D01*
X-0031103Y0088548D01*
X-0031213Y0088636D01*
X-0031213Y0088636D01*
X-0031296Y0088701D01*
X-0031395Y0088770D01*
X-0031497Y0088832D01*
X-0031604Y0088889D01*
X-0031714Y0088938D01*
X-0031826Y0088981D01*
X-0031941Y0089018D01*
X-0032058Y0089047D01*
X-0032176Y0089069D01*
X-0032296Y0089084D01*
X-0032416Y0089092D01*
X-0032537Y0089092D01*
X-0032657Y0089085D01*
X-0032777Y0089071D01*
X-0032895Y0089050D01*
X-0032959Y0089034D01*
X-0032960Y0089034D01*
X-0032963Y0089033D01*
X-0032963Y0089033D01*
X-0033202Y0088978D01*
X-0033450Y0088928D01*
X-0033505Y0088919D01*
X-0033505Y0088919D01*
Y0088918D01*
X-0033505Y0088919D01*
X-0033554Y0088912D01*
X-0033617Y0088910D01*
X-0033680Y0088915D01*
X-0033742Y0088927D01*
X-0033802Y0088946D01*
X-0033859Y0088972D01*
X-0033914Y0089004D01*
X-0033964Y0089042D01*
X-0034010Y0089085D01*
X-0034051Y0089133D01*
X-0034086Y0089185D01*
X-0034115Y0089241D01*
X-0034138Y0089300D01*
X-0034154Y0089361D01*
X-0034163Y0089423D01*
X-0034165Y0089486D01*
X-0034160Y0089549D01*
X-0034148Y0089611D01*
X-0034129Y0089671D01*
X-0034103Y0089729D01*
X-0034071Y0089784D01*
X-0034034Y0089834D01*
X-0033990Y0089880D01*
X-0033942Y0089921D01*
X-0033890Y0089956D01*
X-0033834Y0089985D01*
X-0033775Y0090008D01*
X-0033714Y0090024D01*
X-0033700Y0090026D01*
X-0033700Y0090026D01*
X-0033700Y0090027D01*
X-0033626Y0090039D01*
X-0033404Y0090084D01*
X-0033184Y0090137D01*
X-0032966Y0090197D01*
X-0032750Y0090264D01*
X-0032536Y0090338D01*
X-0032324Y0090418D01*
X-0032116Y0090506D01*
X-0031910Y0090601D01*
X-0031708Y0090702D01*
X-0031509Y0090810D01*
X-0031313Y0090924D01*
X-0031122Y0091044D01*
X-0030935Y0091171D01*
X-0030751Y0091304D01*
X-0030573Y0091443D01*
X-0030398Y0091587D01*
X-0030229Y0091738D01*
X-0030065Y0091893D01*
X-0029906Y0092054D01*
X-0029752Y0092220D01*
X-0029603Y0092391D01*
X-0029461Y0092567D01*
X-0029324Y0092747D01*
X-0029193Y0092932D01*
X-0029069Y0093120D01*
X-0028950Y0093313D01*
X-0028838Y0093510D01*
X-0028732Y0093710D01*
X-0028633Y0093914D01*
X-0028541Y0094120D01*
X-0028456Y0094330D01*
X-0028377Y0094542D01*
X-0028306Y0094757D01*
X-0028241Y0094974D01*
X-0028184Y0095192D01*
X-0028133Y0095413D01*
X-0028091Y0095635D01*
X-0028055Y0095859D01*
X-0028027Y0096083D01*
X-0028006Y0096309D01*
X-0027992Y0096535D01*
X-0027986Y0096761D01*
X-0027986Y0096841D01*
X-0027986Y0096841D01*
X-0027986D01*
X-0027986Y0096856D01*
X-0027981Y0096919D01*
X-0027969Y0096981D01*
X-0027950Y0097042D01*
X-0027924Y0097100D01*
X-0027892Y0097154D01*
X-0027854Y0097205D01*
X-0027811Y0097251D01*
X-0027762Y0097292D01*
X-0027710Y0097328D01*
X-0027654Y0097357D01*
X-0027595Y0097380D01*
X-0027533Y0097396D01*
X-0027471Y0097405D01*
X-0027407Y0097407D01*
X-0027344Y0097402D01*
D02*
G37*
G36*
X-0028269Y0016393D02*
X-0028099Y0016382D01*
X-0027929Y0016364D01*
X-0027760Y0016338D01*
X-0027593Y0016304D01*
X-0027427Y0016264D01*
X-0027263Y0016216D01*
X-0027102Y0016161D01*
X-0026943Y0016099D01*
X-0026786Y0016030D01*
X-0026633Y0015955D01*
X-0026484Y0015873D01*
X-0026338Y0015784D01*
X-0026196Y0015689D01*
X-0026058Y0015589D01*
X-0025925Y0015482D01*
X-0025797Y0015369D01*
X-0025673Y0015251D01*
X-0025556Y0015128D01*
X-0025443Y0015000D01*
X-0025336Y0014866D01*
X-0025235Y0014729D01*
X-0025140Y0014587D01*
X-0025052Y0014441D01*
X-0024970Y0014291D01*
X-0024894Y0014138D01*
X-0024825Y0013982D01*
X-0024764Y0013823D01*
X-0024709Y0013661D01*
X-0024661Y0013498D01*
X-0024620Y0013332D01*
X-0024587Y0013164D01*
X-0024561Y0012996D01*
X-0024543Y0012826D01*
X-0024531Y0012656D01*
X-0024528Y0012485D01*
X-0024531Y0012314D01*
X-0024543Y0012144D01*
X-0024561Y0011974D01*
X-0024587Y0011806D01*
X-0024620Y0011638D01*
X-0024661Y0011473D01*
X-0024709Y0011309D01*
X-0024764Y0011147D01*
X-0024825Y0010988D01*
X-0024894Y0010832D01*
X-0024970Y0010679D01*
X-0025052Y0010529D01*
X-0025140Y0010383D01*
X-0025235Y0010241D01*
X-0025336Y0010104D01*
X-0025443Y0009971D01*
X-0025556Y0009842D01*
X-0025673Y0009719D01*
X-0025797Y0009601D01*
X-0025925Y0009488D01*
X-0026035Y0009400D01*
X-0026035Y0009400D01*
X-0026116Y0009334D01*
X-0026205Y0009252D01*
X-0026288Y0009165D01*
X-0026366Y0009073D01*
X-0026439Y0008977D01*
X-0026505Y0008877D01*
X-0026565Y0008772D01*
X-0026619Y0008664D01*
X-0026666Y0008553D01*
X-0026707Y0008440D01*
X-0026740Y0008324D01*
X-0026767Y0008207D01*
X-0026786Y0008088D01*
X-0026798Y0007968D01*
X-0026803Y0007848D01*
X-0026802Y0007782D01*
X-0026802Y0007781D01*
X-0026802Y0007777D01*
X-0026802D01*
X-0026799Y0007533D01*
X-0026805Y0007280D01*
X-0026807Y0007224D01*
X-0026807Y0007224D01*
X-0026811Y0007175D01*
X-0026823Y0007113D01*
X-0026842Y0007053D01*
X-0026867Y0006995D01*
X-0026898Y0006940D01*
X-0026936Y0006889D01*
X-0026979Y0006843D01*
X-0027026Y0006802D01*
X-0027079Y0006767D01*
X-0027134Y0006737D01*
X-0027193Y0006714D01*
X-0027254Y0006698D01*
X-0027316Y0006688D01*
X-0027379Y0006686D01*
X-0027442Y0006691D01*
X-0027504Y0006702D01*
X-0027565Y0006721D01*
X-0027622Y0006746D01*
X-0027677Y0006778D01*
X-0027728Y0006815D01*
X-0027774Y0006858D01*
X-0027815Y0006906D01*
X-0027851Y0006958D01*
X-0027880Y0007014D01*
X-0027903Y0007073D01*
X-0027920Y0007133D01*
X-0027929Y0007196D01*
X-0027931Y0007259D01*
X-0027930Y0007273D01*
X-0027931Y0007273D01*
X-0027931Y0007273D01*
X-0027927Y0007348D01*
X-0027924Y0007574D01*
X-0027927Y0007801D01*
X-0027938Y0008027D01*
X-0027957Y0008252D01*
X-0027983Y0008477D01*
X-0028016Y0008701D01*
X-0028056Y0008924D01*
X-0028104Y0009145D01*
X-0028159Y0009364D01*
X-0028221Y0009582D01*
X-0028291Y0009797D01*
X-0028367Y0010011D01*
X-0028450Y0010221D01*
X-0028540Y0010429D01*
X-0028637Y0010633D01*
X-0028740Y0010835D01*
X-0028850Y0011032D01*
X-0028966Y0011226D01*
X-0029089Y0011417D01*
X-0029218Y0011603D01*
X-0029353Y0011784D01*
X-0029493Y0011962D01*
X-0029640Y0012134D01*
X-0029792Y0012302D01*
X-0029949Y0012465D01*
X-0030112Y0012622D01*
X-0030279Y0012774D01*
X-0030452Y0012920D01*
X-0030629Y0013061D01*
X-0030811Y0013196D01*
X-0030997Y0013325D01*
X-0031187Y0013447D01*
X-0031381Y0013564D01*
X-0031579Y0013674D01*
X-0031780Y0013777D01*
X-0031985Y0013874D01*
X-0032193Y0013964D01*
X-0032403Y0014047D01*
X-0032616Y0014123D01*
X-0032832Y0014192D01*
X-0033049Y0014254D01*
X-0033269Y0014310D01*
X-0033347Y0014326D01*
X-0033347Y0014326D01*
X-0033347Y0014327D01*
X-0033362Y0014330D01*
X-0033422Y0014348D01*
X-0033480Y0014374D01*
X-0033535Y0014405D01*
X-0033586Y0014443D01*
X-0033633Y0014486D01*
X-0033674Y0014534D01*
X-0033710Y0014587D01*
X-0033739Y0014643D01*
X-0033762Y0014702D01*
X-0033779Y0014763D01*
X-0033788Y0014825D01*
X-0033791Y0014889D01*
X-0033786Y0014952D01*
X-0033774Y0015014D01*
X-0033755Y0015075D01*
X-0033730Y0015133D01*
X-0033698Y0015188D01*
X-0033661Y0015239D01*
X-0033618Y0015285D01*
X-0033570Y0015326D01*
X-0033517Y0015362D01*
X-0033461Y0015392D01*
X-0033402Y0015415D01*
X-0033341Y0015431D01*
X-0033279Y0015441D01*
X-0033215Y0015443D01*
X-0033152Y0015438D01*
X-0033104Y0015429D01*
X-0033104Y0015429D01*
X-0033049Y0015417D01*
X-0032803Y0015357D01*
X-0032560Y0015289D01*
X-0032560Y0015289D01*
X-0032560Y0015289D01*
X-0032557Y0015288D01*
X-0032556Y0015288D01*
X-0032491Y0015269D01*
X-0032374Y0015243D01*
X-0032255Y0015224D01*
X-0032135Y0015211D01*
X-0032014Y0015207D01*
X-0031894Y0015209D01*
X-0031774Y0015219D01*
X-0031655Y0015236D01*
X-0031536Y0015260D01*
X-0031420Y0015291D01*
X-0031306Y0015329D01*
X-0031194Y0015374D01*
X-0031085Y0015426D01*
X-0030980Y0015484D01*
X-0030878Y0015548D01*
X-0030794Y0015609D01*
X-0030794Y0015608D01*
X-0030683Y0015689D01*
X-0030542Y0015784D01*
X-0030396Y0015873D01*
X-0030246Y0015955D01*
X-0030093Y0016030D01*
X-0029937Y0016099D01*
X-0029778Y0016161D01*
X-0029616Y0016216D01*
X-0029452Y0016264D01*
X-0029286Y0016304D01*
X-0029119Y0016338D01*
X-0028950Y0016364D01*
X-0028781Y0016382D01*
X-0028610Y0016393D01*
X-0028440Y0016397D01*
X-0028269Y0016393D01*
D02*
G37*
G36*
X0030797Y0015606D02*
X0030797Y0015606D01*
X0030797Y0015606D01*
X0030797Y0015606D01*
D02*
G37*
G36*
X0030797Y0015606D02*
D01*
X0030797D01*
X0030797D01*
D02*
G37*
G36*
X-0033104Y0015429D02*
X-0033104D01*
X-0033104Y0015429D01*
X-0033104Y0015429D01*
D02*
G37*
G36*
X0028610Y0016393D02*
X0028781Y0016382D01*
X0028950Y0016364D01*
X0029119Y0016338D01*
X0029286Y0016304D01*
X0029452Y0016264D01*
X0029616Y0016216D01*
X0029778Y0016161D01*
X0029937Y0016099D01*
X0030093Y0016030D01*
X0030246Y0015955D01*
X0030396Y0015873D01*
X0030542Y0015784D01*
X0030683Y0015689D01*
X0030797Y0015606D01*
X0030797Y0015606D01*
X0030882Y0015545D01*
X0030984Y0015481D01*
X0031090Y0015422D01*
X0031198Y0015371D01*
X0031310Y0015326D01*
X0031424Y0015288D01*
X0031541Y0015256D01*
X0031659Y0015232D01*
X0031778Y0015215D01*
X0031898Y0015206D01*
X0032019Y0015203D01*
X0032139Y0015208D01*
X0032259Y0015220D01*
X0032378Y0015240D01*
X0032495Y0015266D01*
X0032559Y0015284D01*
X0032559Y0015284D01*
X0032563Y0015286D01*
X0032563Y0015285D01*
X0032799Y0015351D01*
X0033044Y0015412D01*
X0033099Y0015423D01*
X0033099Y0015424D01*
X0033099Y0015423D01*
X0033147Y0015432D01*
X0033210Y0015437D01*
X0033273Y0015435D01*
X0033336Y0015425D01*
X0033397Y0015409D01*
X0033455Y0015386D01*
X0033511Y0015357D01*
X0033563Y0015321D01*
X0033611Y0015280D01*
X0033654Y0015234D01*
X0033691Y0015183D01*
X0033723Y0015128D01*
X0033748Y0015070D01*
X0033767Y0015010D01*
X0033779Y0014948D01*
X0033783Y0014885D01*
X0033781Y0014822D01*
X0033771Y0014760D01*
X0033755Y0014699D01*
X0033732Y0014640D01*
X0033703Y0014584D01*
X0033667Y0014532D01*
X0033626Y0014484D01*
X0033580Y0014441D01*
X0033529Y0014404D01*
X0033474Y0014372D01*
X0033417Y0014347D01*
X0033356Y0014329D01*
X0033342Y0014326D01*
X0033342Y0014325D01*
X0033342Y0014325D01*
X0033269Y0014310D01*
X0033049Y0014254D01*
X0032832Y0014192D01*
X0032616Y0014123D01*
X0032403Y0014047D01*
X0032193Y0013964D01*
X0031985Y0013874D01*
X0031780Y0013777D01*
X0031579Y0013674D01*
X0031381Y0013564D01*
X0031187Y0013447D01*
X0031137Y0013415D01*
X0029993Y0014292D01*
X0030457Y0014896D01*
X0030457Y0014896D01*
X0030476Y0014926D01*
X0030490Y0014957D01*
X0030500Y0014991D01*
X0030503Y0015026D01*
X0030501Y0015061D01*
X0030494Y0015095D01*
X0030482Y0015127D01*
X0030464Y0015158D01*
X0030442Y0015185D01*
X0030416Y0015208D01*
X0030387Y0015227D01*
X0030355Y0015242D01*
X0030321Y0015251D01*
X0030287Y0015254D01*
X0030283Y0015254D01*
X0030283Y0015254D01*
X0027988Y0015280D01*
X0027987Y0015280D01*
X0027956Y0015279D01*
X0027922Y0015271D01*
X0027889Y0015259D01*
X0027859Y0015241D01*
X0027832Y0015219D01*
X0027808Y0015193D01*
X0027790Y0015164D01*
X0027775Y0015132D01*
X0027766Y0015099D01*
X0027763Y0015064D01*
X0027764Y0015029D01*
X0027771Y0014999D01*
X0027771Y0014998D01*
X0028389Y0012786D01*
X0028389Y0012785D01*
X0028390Y0012782D01*
X0028402Y0012750D01*
X0028420Y0012719D01*
X0028442Y0012692D01*
X0028468Y0012669D01*
X0028497Y0012650D01*
X0028529Y0012636D01*
X0028563Y0012627D01*
X0028597Y0012623D01*
X0028632Y0012625D01*
X0028666Y0012632D01*
X0028699Y0012644D01*
X0028729Y0012662D01*
X0028756Y0012684D01*
X0028780Y0012710D01*
X0028780Y0012710D01*
X0029243Y0013314D01*
X0030127Y0012636D01*
X0030112Y0012622D01*
X0029949Y0012465D01*
X0029792Y0012302D01*
X0029640Y0012134D01*
X0029493Y0011962D01*
X0029353Y0011784D01*
X0029218Y0011603D01*
X0029089Y0011417D01*
X0028966Y0011226D01*
X0028850Y0011032D01*
X0028740Y0010835D01*
X0028637Y0010633D01*
X0028540Y0010429D01*
X0028450Y0010221D01*
X0028367Y0010011D01*
X0028291Y0009797D01*
X0028221Y0009582D01*
X0028159Y0009364D01*
X0028104Y0009145D01*
X0028056Y0008924D01*
X0028016Y0008701D01*
X0027983Y0008477D01*
X0027957Y0008252D01*
X0027938Y0008027D01*
X0027927Y0007801D01*
X0027924Y0007574D01*
X0027927Y0007348D01*
X0027931Y0007269D01*
X0027931Y0007268D01*
X0027931Y0007268D01*
X0027932Y0007253D01*
X0027929Y0007190D01*
X0027920Y0007127D01*
X0027903Y0007066D01*
X0027880Y0007007D01*
X0027851Y0006951D01*
X0027815Y0006899D01*
X0027774Y0006850D01*
X0027727Y0006808D01*
X0027676Y0006770D01*
X0027621Y0006738D01*
X0027563Y0006713D01*
X0027503Y0006694D01*
X0027441Y0006682D01*
X0027377Y0006678D01*
X0027314Y0006680D01*
X0027251Y0006689D01*
X0027190Y0006706D01*
X0027131Y0006729D01*
X0027075Y0006759D01*
X0027023Y0006794D01*
X0026975Y0006836D01*
X0026932Y0006882D01*
X0026894Y0006933D01*
X0026862Y0006988D01*
X0026837Y0007046D01*
X0026818Y0007107D01*
X0026807Y0007169D01*
X0026803Y0007218D01*
X0026803Y0007218D01*
X0026803Y0007218D01*
X0026800Y0007274D01*
X0026795Y0007527D01*
X0026797Y0007779D01*
X0026797D01*
Y0007779D01*
X0026798Y0007783D01*
X0026797Y0007783D01*
X0026799Y0007851D01*
X0026794Y0007971D01*
X0026782Y0008091D01*
X0026763Y0008210D01*
X0026736Y0008328D01*
X0026702Y0008443D01*
X0026662Y0008557D01*
X0026615Y0008668D01*
X0026561Y0008776D01*
X0026501Y0008880D01*
X0026434Y0008980D01*
X0026362Y0009077D01*
X0026284Y0009168D01*
X0026201Y0009255D01*
X0026112Y0009337D01*
X0026032Y0009402D01*
X0026032Y0009403D01*
X0025925Y0009488D01*
X0025797Y0009601D01*
X0025673Y0009719D01*
X0025556Y0009842D01*
X0025443Y0009971D01*
X0025336Y0010104D01*
X0025235Y0010241D01*
X0025140Y0010383D01*
X0025052Y0010529D01*
X0024970Y0010679D01*
X0024894Y0010832D01*
X0024825Y0010988D01*
X0024764Y0011147D01*
X0024709Y0011309D01*
X0024661Y0011473D01*
X0024620Y0011638D01*
X0024587Y0011806D01*
X0024561Y0011974D01*
X0024543Y0012144D01*
X0024531Y0012314D01*
X0024528Y0012485D01*
X0024531Y0012656D01*
X0024543Y0012826D01*
X0024561Y0012996D01*
X0024587Y0013164D01*
X0024589Y0013175D01*
X0025626Y0012380D01*
X0025162Y0011775D01*
X0025162Y0011775D01*
X0025143Y0011746D01*
X0025128Y0011714D01*
X0025119Y0011680D01*
X0025116Y0011646D01*
X0025118Y0011611D01*
X0025125Y0011577D01*
X0025137Y0011544D01*
X0025155Y0011514D01*
X0025177Y0011487D01*
X0025203Y0011463D01*
X0025232Y0011444D01*
X0025264Y0011430D01*
X0025298Y0011421D01*
X0025332Y0011417D01*
X0025335Y0011417D01*
X0025336Y0011417D01*
X0027631Y0011391D01*
X0027632Y0011391D01*
X0027663Y0011393D01*
X0027697Y0011400D01*
X0027730Y0011413D01*
X0027760Y0011430D01*
X0027787Y0011452D01*
X0027810Y0011478D01*
X0027829Y0011507D01*
X0027844Y0011539D01*
X0027853Y0011573D01*
X0027856Y0011608D01*
X0027854Y0011643D01*
X0027848Y0011673D01*
X0027848Y0011673D01*
X0027230Y0013886D01*
X0027230Y0013886D01*
X0027229Y0013889D01*
X0027217Y0013922D01*
X0027199Y0013952D01*
X0027177Y0013979D01*
X0027151Y0014003D01*
X0027122Y0014022D01*
X0027090Y0014036D01*
X0027056Y0014045D01*
X0027022Y0014049D01*
X0026987Y0014047D01*
X0026953Y0014040D01*
X0026920Y0014027D01*
X0026890Y0014010D01*
X0026863Y0013988D01*
X0026839Y0013962D01*
X0026840Y0013961D01*
X0026376Y0013357D01*
X0025026Y0014393D01*
X0025052Y0014441D01*
X0025140Y0014587D01*
X0025235Y0014729D01*
X0025336Y0014866D01*
X0025443Y0015000D01*
X0025556Y0015128D01*
X0025673Y0015251D01*
X0025797Y0015369D01*
X0025925Y0015482D01*
X0026058Y0015589D01*
X0026196Y0015689D01*
X0026338Y0015784D01*
X0026484Y0015873D01*
X0026633Y0015955D01*
X0026786Y0016030D01*
X0026943Y0016099D01*
X0027102Y0016161D01*
X0027263Y0016216D01*
X0027427Y0016264D01*
X0027593Y0016304D01*
X0027760Y0016338D01*
X0027929Y0016364D01*
X0028099Y0016382D01*
X0028269Y0016393D01*
X0028440Y0016397D01*
X0028610Y0016393D01*
D02*
G37*
%LPC*%
G36*
X0055495Y0166064D02*
X0055458D01*
X0055433Y0166058D01*
X0055365Y0166051D01*
X0055284Y0166033D01*
X0055191Y0165996D01*
X0055092Y0165946D01*
X0054999Y0165884D01*
X0054956Y0165841D01*
X0054913Y0165791D01*
X0054907Y0165779D01*
X0054882Y0165742D01*
X0054845Y0165680D01*
X0054808Y0165599D01*
X0054770Y0165494D01*
X0054733Y0165364D01*
X0054708Y0165216D01*
X0054702Y0165049D01*
Y0165042D01*
Y0165030D01*
Y0165005D01*
X0054708Y0164974D01*
Y0164943D01*
X0054715Y0164900D01*
X0054727Y0164801D01*
X0054752Y0164690D01*
X0054789Y0164578D01*
X0054839Y0164467D01*
X0054907Y0164361D01*
X0054919Y0164349D01*
X0054944Y0164324D01*
X0054987Y0164281D01*
X0055049Y0164238D01*
X0055129Y0164194D01*
X0055222Y0164151D01*
X0055327Y0164126D01*
X0055451Y0164114D01*
X0055482D01*
X0055507Y0164120D01*
X0055569Y0164126D01*
X0055643Y0164145D01*
X0055730Y0164176D01*
X0055823Y0164213D01*
X0055909Y0164275D01*
X0055996Y0164355D01*
X0056002Y0164368D01*
X0056027Y0164399D01*
X0056064Y0164454D01*
X0056101Y0164522D01*
X0056138Y0164609D01*
X0056176Y0164714D01*
X0056200Y0164838D01*
X0056207Y0164968D01*
Y0165339D01*
Y0165346D01*
Y0165352D01*
Y0165389D01*
X0056194Y0165445D01*
X0056182Y0165519D01*
X0056157Y0165599D01*
X0056120Y0165686D01*
X0056070Y0165773D01*
X0056002Y0165853D01*
X0055996Y0165859D01*
X0055965Y0165884D01*
X0055922Y0165921D01*
X0055866Y0165958D01*
X0055792Y0165996D01*
X0055705Y0166033D01*
X0055606Y0166058D01*
X0055495Y0166064D01*
D02*
G37*
G36*
X0051558Y0165104D02*
X0050951Y0165017D01*
X0050939D01*
X0050908Y0165011D01*
X0050858Y0164999D01*
X0050796Y0164987D01*
X0050728Y0164968D01*
X0050654Y0164943D01*
X0050592Y0164918D01*
X0050530Y0164881D01*
X0050524Y0164875D01*
X0050506Y0164863D01*
X0050487Y0164838D01*
X0050462Y0164801D01*
X0050431Y0164751D01*
X0050413Y0164690D01*
X0050394Y0164615D01*
X0050388Y0164529D01*
Y0164522D01*
Y0164498D01*
X0050394Y0164467D01*
X0050406Y0164423D01*
X0050419Y0164374D01*
X0050444Y0164324D01*
X0050475Y0164275D01*
X0050518Y0164225D01*
X0050524Y0164219D01*
X0050543Y0164207D01*
X0050574Y0164188D01*
X0050611Y0164170D01*
X0050660Y0164151D01*
X0050722Y0164132D01*
X0050790Y0164120D01*
X0050871Y0164114D01*
X0050883D01*
X0050920Y0164120D01*
X0050976Y0164126D01*
X0051044Y0164139D01*
X0051118Y0164163D01*
X0051205Y0164200D01*
X0051285Y0164256D01*
X0051360Y0164324D01*
X0051366Y0164337D01*
X0051391Y0164361D01*
X0051422Y0164405D01*
X0051459Y0164467D01*
X0051496Y0164547D01*
X0051527Y0164634D01*
X0051552Y0164739D01*
X0051558Y0164850D01*
Y0165104D01*
D02*
G37*
G36*
X0045275Y0166980D02*
X0044804D01*
Y0165841D01*
X0045281D01*
X0045343Y0165847D01*
X0045417Y0165859D01*
X0045504Y0165878D01*
X0045597Y0165909D01*
X0045677Y0165946D01*
X0045758Y0166002D01*
X0045764Y0166008D01*
X0045789Y0166033D01*
X0045820Y0166070D01*
X0045857Y0166126D01*
X0045888Y0166187D01*
X0045919Y0166268D01*
X0045943Y0166361D01*
X0045950Y0166466D01*
Y0166472D01*
Y0166491D01*
X0045943Y0166516D01*
X0045937Y0166546D01*
X0045913Y0166627D01*
X0045894Y0166676D01*
X0045863Y0166726D01*
X0045832Y0166769D01*
X0045783Y0166819D01*
X0045733Y0166862D01*
X0045665Y0166899D01*
X0045591Y0166930D01*
X0045498Y0166955D01*
X0045393Y0166974D01*
X0045275Y0166980D01*
D02*
G37*
G36*
Y0165469D02*
X0044804D01*
Y0164207D01*
X0045423D01*
X0045485Y0164213D01*
X0045572Y0164225D01*
X0045659Y0164250D01*
X0045752Y0164275D01*
X0045844Y0164318D01*
X0045925Y0164374D01*
X0045931Y0164380D01*
X0045956Y0164405D01*
X0045987Y0164442D01*
X0046024Y0164498D01*
X0046061Y0164566D01*
X0046092Y0164646D01*
X0046117Y0164745D01*
X0046123Y0164850D01*
Y0164857D01*
Y0164875D01*
X0046117Y0164906D01*
X0046111Y0164950D01*
X0046098Y0164993D01*
X0046080Y0165049D01*
X0046055Y0165104D01*
X0046018Y0165160D01*
X0045974Y0165216D01*
X0045919Y0165271D01*
X0045851Y0165327D01*
X0045764Y0165370D01*
X0045671Y0165414D01*
X0045553Y0165445D01*
X0045423Y0165463D01*
X0045275Y0165469D01*
D02*
G37*
G36*
X0073402Y0166064D02*
X0073353D01*
X0073303Y0166051D01*
X0073235Y0166039D01*
X0073161Y0166014D01*
X0073074Y0165977D01*
X0072994Y0165928D01*
X0072913Y0165859D01*
X0072907Y0165853D01*
X0072882Y0165822D01*
X0072851Y0165779D01*
X0072808Y0165717D01*
X0072765Y0165643D01*
X0072728Y0165550D01*
X0072697Y0165445D01*
X0072672Y0165327D01*
X0074028D01*
Y0165333D01*
Y0165346D01*
Y0165358D01*
Y0165383D01*
X0074021Y0165451D01*
X0074009Y0165525D01*
X0073984Y0165618D01*
X0073959Y0165705D01*
X0073916Y0165791D01*
X0073860Y0165872D01*
X0073854Y0165878D01*
X0073829Y0165903D01*
X0073792Y0165934D01*
X0073743Y0165971D01*
X0073675Y0166002D01*
X0073594Y0166033D01*
X0073507Y0166058D01*
X0073402Y0166064D01*
D02*
G37*
G36*
X0060298Y0167035D02*
X0060242D01*
X0060205Y0167029D01*
X0060156Y0167023D01*
X0060106Y0167017D01*
X0060044Y0167005D01*
X0059976Y0166986D01*
X0059834Y0166936D01*
X0059759Y0166905D01*
X0059679Y0166868D01*
X0059605Y0166819D01*
X0059531Y0166763D01*
X0059462Y0166701D01*
X0059394Y0166633D01*
X0059388Y0166627D01*
X0059382Y0166615D01*
X0059363Y0166590D01*
X0059339Y0166559D01*
X0059314Y0166522D01*
X0059289Y0166472D01*
X0059258Y0166417D01*
X0059227Y0166355D01*
X0059190Y0166280D01*
X0059159Y0166206D01*
X0059134Y0166119D01*
X0059110Y0166026D01*
X0059085Y0165928D01*
X0059066Y0165816D01*
X0059060Y0165705D01*
X0059054Y0165587D01*
Y0165581D01*
Y0165556D01*
Y0165525D01*
X0059060Y0165482D01*
X0059066Y0165426D01*
X0059072Y0165358D01*
X0059085Y0165290D01*
X0059097Y0165216D01*
X0059134Y0165049D01*
X0059196Y0164869D01*
X0059233Y0164782D01*
X0059277Y0164702D01*
X0059332Y0164615D01*
X0059388Y0164541D01*
X0059394Y0164535D01*
X0059407Y0164522D01*
X0059425Y0164504D01*
X0059450Y0164479D01*
X0059481Y0164448D01*
X0059524Y0164417D01*
X0059574Y0164380D01*
X0059623Y0164343D01*
X0059685Y0164306D01*
X0059753Y0164269D01*
X0059902Y0164207D01*
X0059989Y0164182D01*
X0060075Y0164163D01*
X0060168Y0164151D01*
X0060267Y0164145D01*
X0060323D01*
X0060366Y0164151D01*
X0060409Y0164157D01*
X0060471Y0164163D01*
X0060533Y0164176D01*
X0060601Y0164194D01*
X0060744Y0164238D01*
X0060824Y0164269D01*
X0060899Y0164306D01*
X0060973Y0164349D01*
X0061047Y0164399D01*
X0061115Y0164454D01*
X0061183Y0164522D01*
X0061189Y0164529D01*
X0061196Y0164541D01*
X0061214Y0164559D01*
X0061233Y0164590D01*
X0061264Y0164634D01*
X0061288Y0164677D01*
X0061319Y0164733D01*
X0061350Y0164795D01*
X0061381Y0164869D01*
X0061412Y0164950D01*
X0061443Y0165036D01*
X0061468Y0165129D01*
X0061487Y0165228D01*
X0061505Y0165339D01*
X0061511Y0165457D01*
X0061518Y0165581D01*
Y0165587D01*
Y0165612D01*
Y0165649D01*
X0061511Y0165692D01*
X0061505Y0165754D01*
X0061499Y0165822D01*
X0061493Y0165896D01*
X0061474Y0165977D01*
X0061437Y0166144D01*
X0061381Y0166324D01*
X0061344Y0166410D01*
X0061301Y0166497D01*
X0061245Y0166577D01*
X0061189Y0166652D01*
X0061183Y0166658D01*
X0061177Y0166670D01*
X0061159Y0166689D01*
X0061128Y0166714D01*
X0061097Y0166738D01*
X0061059Y0166776D01*
X0061010Y0166806D01*
X0060960Y0166844D01*
X0060899Y0166881D01*
X0060830Y0166912D01*
X0060756Y0166949D01*
X0060676Y0166974D01*
X0060589Y0166998D01*
X0060502Y0167017D01*
X0060403Y0167029D01*
X0060298Y0167035D01*
D02*
G37*
G36*
X0048296Y0166064D02*
X0048259D01*
X0048234Y0166058D01*
X0048160Y0166051D01*
X0048073Y0166033D01*
X0047974Y0166002D01*
X0047868Y0165952D01*
X0047769Y0165884D01*
X0047720Y0165847D01*
X0047677Y0165797D01*
X0047664Y0165785D01*
X0047640Y0165748D01*
X0047609Y0165692D01*
X0047565Y0165612D01*
X0047522Y0165506D01*
X0047491Y0165383D01*
X0047466Y0165240D01*
X0047454Y0165073D01*
Y0165067D01*
Y0165055D01*
Y0165030D01*
X0047460Y0164999D01*
Y0164962D01*
X0047466Y0164918D01*
X0047485Y0164820D01*
X0047510Y0164708D01*
X0047553Y0164590D01*
X0047609Y0164473D01*
X0047683Y0164368D01*
X0047695Y0164355D01*
X0047726Y0164330D01*
X0047776Y0164287D01*
X0047844Y0164244D01*
X0047930Y0164194D01*
X0048036Y0164151D01*
X0048160Y0164126D01*
X0048296Y0164114D01*
X0048333D01*
X0048357Y0164120D01*
X0048432Y0164126D01*
X0048518Y0164145D01*
X0048611Y0164176D01*
X0048717Y0164219D01*
X0048809Y0164281D01*
X0048896Y0164361D01*
X0048902Y0164374D01*
X0048927Y0164411D01*
X0048964Y0164467D01*
X0049001Y0164547D01*
X0049038Y0164652D01*
X0049076Y0164776D01*
X0049100Y0164918D01*
X0049106Y0165086D01*
Y0165092D01*
Y0165104D01*
Y0165129D01*
Y0165166D01*
X0049100Y0165203D01*
X0049094Y0165247D01*
X0049082Y0165352D01*
X0049057Y0165469D01*
X0049020Y0165587D01*
X0048964Y0165705D01*
X0048896Y0165810D01*
X0048884Y0165822D01*
X0048859Y0165847D01*
X0048809Y0165890D01*
X0048741Y0165940D01*
X0048655Y0165983D01*
X0048556Y0166026D01*
X0048432Y0166051D01*
X0048296Y0166064D01*
D02*
G37*
G36*
X0075402Y0142609D02*
X0074795Y0142522D01*
X0074783D01*
X0074752Y0142516D01*
X0074702Y0142503D01*
X0074640Y0142491D01*
X0074572Y0142473D01*
X0074498Y0142448D01*
X0074436Y0142423D01*
X0074374Y0142386D01*
X0074368Y0142380D01*
X0074349Y0142367D01*
X0074331Y0142343D01*
X0074306Y0142305D01*
X0074275Y0142256D01*
X0074256Y0142194D01*
X0074238Y0142120D01*
X0074232Y0142033D01*
Y0142027D01*
Y0142002D01*
X0074238Y0141971D01*
X0074250Y0141928D01*
X0074263Y0141878D01*
X0074287Y0141829D01*
X0074318Y0141779D01*
X0074362Y0141730D01*
X0074368Y0141724D01*
X0074387Y0141711D01*
X0074417Y0141693D01*
X0074455Y0141674D01*
X0074504Y0141656D01*
X0074566Y0141637D01*
X0074634Y0141624D01*
X0074715Y0141618D01*
X0074727D01*
X0074764Y0141624D01*
X0074820Y0141631D01*
X0074888Y0141643D01*
X0074962Y0141668D01*
X0075049Y0141705D01*
X0075129Y0141761D01*
X0075204Y0141829D01*
X0075210Y0141841D01*
X0075235Y0141866D01*
X0075266Y0141909D01*
X0075303Y0141971D01*
X0075340Y0142052D01*
X0075371Y0142138D01*
X0075396Y0142244D01*
X0075402Y0142355D01*
Y0142609D01*
D02*
G37*
G36*
X0045275Y0144484D02*
X0044804D01*
Y0143345D01*
X0045281D01*
X0045343Y0143351D01*
X0045417Y0143364D01*
X0045504Y0143383D01*
X0045597Y0143413D01*
X0045677Y0143451D01*
X0045758Y0143506D01*
X0045764Y0143512D01*
X0045789Y0143537D01*
X0045820Y0143574D01*
X0045857Y0143630D01*
X0045888Y0143692D01*
X0045919Y0143772D01*
X0045943Y0143865D01*
X0045950Y0143971D01*
Y0143977D01*
Y0143995D01*
X0045943Y0144020D01*
X0045937Y0144051D01*
X0045913Y0144132D01*
X0045894Y0144181D01*
X0045863Y0144230D01*
X0045832Y0144274D01*
X0045783Y0144323D01*
X0045733Y0144367D01*
X0045665Y0144404D01*
X0045591Y0144435D01*
X0045498Y0144459D01*
X0045393Y0144478D01*
X0045275Y0144484D01*
D02*
G37*
G36*
Y0142974D02*
X0044804D01*
Y0141711D01*
X0045423D01*
X0045485Y0141717D01*
X0045572Y0141730D01*
X0045659Y0141754D01*
X0045752Y0141779D01*
X0045844Y0141823D01*
X0045925Y0141878D01*
X0045931Y0141885D01*
X0045956Y0141909D01*
X0045987Y0141946D01*
X0046024Y0142002D01*
X0046061Y0142070D01*
X0046092Y0142151D01*
X0046117Y0142250D01*
X0046123Y0142355D01*
Y0142361D01*
Y0142380D01*
X0046117Y0142411D01*
X0046111Y0142454D01*
X0046098Y0142497D01*
X0046080Y0142553D01*
X0046055Y0142609D01*
X0046018Y0142664D01*
X0045974Y0142720D01*
X0045919Y0142776D01*
X0045851Y0142832D01*
X0045764Y0142875D01*
X0045671Y0142918D01*
X0045553Y0142949D01*
X0045423Y0142968D01*
X0045275Y0142974D01*
D02*
G37*
G36*
X0069391Y0143568D02*
X0069342D01*
X0069292Y0143556D01*
X0069224Y0143543D01*
X0069150Y0143519D01*
X0069063Y0143482D01*
X0068983Y0143432D01*
X0068902Y0143364D01*
X0068896Y0143358D01*
X0068871Y0143327D01*
X0068840Y0143283D01*
X0068797Y0143221D01*
X0068754Y0143147D01*
X0068717Y0143054D01*
X0068686Y0142949D01*
X0068661Y0142832D01*
X0070016D01*
Y0142838D01*
Y0142850D01*
Y0142862D01*
Y0142887D01*
X0070010Y0142955D01*
X0069998Y0143030D01*
X0069973Y0143122D01*
X0069948Y0143209D01*
X0069905Y0143296D01*
X0069849Y0143376D01*
X0069843Y0143383D01*
X0069818Y0143407D01*
X0069781Y0143438D01*
X0069732Y0143475D01*
X0069664Y0143506D01*
X0069583Y0143537D01*
X0069496Y0143562D01*
X0069391Y0143568D01*
D02*
G37*
G36*
X0063715Y0144540D02*
X0063659D01*
X0063622Y0144534D01*
X0063573Y0144528D01*
X0063523Y0144521D01*
X0063461Y0144509D01*
X0063393Y0144491D01*
X0063251Y0144441D01*
X0063176Y0144410D01*
X0063096Y0144373D01*
X0063022Y0144323D01*
X0062947Y0144268D01*
X0062879Y0144206D01*
X0062811Y0144138D01*
X0062805Y0144132D01*
X0062799Y0144119D01*
X0062780Y0144094D01*
X0062756Y0144063D01*
X0062731Y0144026D01*
X0062706Y0143977D01*
X0062675Y0143921D01*
X0062644Y0143859D01*
X0062607Y0143785D01*
X0062576Y0143710D01*
X0062551Y0143624D01*
X0062527Y0143531D01*
X0062502Y0143432D01*
X0062483Y0143321D01*
X0062477Y0143209D01*
X0062471Y0143092D01*
Y0143085D01*
Y0143061D01*
Y0143030D01*
X0062477Y0142986D01*
X0062483Y0142931D01*
X0062489Y0142862D01*
X0062502Y0142794D01*
X0062514Y0142720D01*
X0062551Y0142553D01*
X0062613Y0142374D01*
X0062650Y0142287D01*
X0062694Y0142206D01*
X0062749Y0142120D01*
X0062805Y0142045D01*
X0062811Y0142039D01*
X0062824Y0142027D01*
X0062842Y0142008D01*
X0062867Y0141983D01*
X0062898Y0141953D01*
X0062941Y0141922D01*
X0062991Y0141885D01*
X0063040Y0141847D01*
X0063102Y0141810D01*
X0063170Y0141773D01*
X0063319Y0141711D01*
X0063405Y0141686D01*
X0063492Y0141668D01*
X0063585Y0141656D01*
X0063684Y0141649D01*
X0063740D01*
X0063783Y0141656D01*
X0063826Y0141662D01*
X0063888Y0141668D01*
X0063950Y0141680D01*
X0064018Y0141699D01*
X0064161Y0141742D01*
X0064241Y0141773D01*
X0064315Y0141810D01*
X0064390Y0141853D01*
X0064464Y0141903D01*
X0064532Y0141959D01*
X0064600Y0142027D01*
X0064606Y0142033D01*
X0064613Y0142045D01*
X0064631Y0142064D01*
X0064650Y0142095D01*
X0064681Y0142138D01*
X0064705Y0142182D01*
X0064736Y0142237D01*
X0064767Y0142299D01*
X0064798Y0142374D01*
X0064829Y0142454D01*
X0064860Y0142541D01*
X0064885Y0142633D01*
X0064903Y0142733D01*
X0064922Y0142844D01*
X0064928Y0142962D01*
X0064934Y0143085D01*
Y0143092D01*
Y0143116D01*
Y0143153D01*
X0064928Y0143197D01*
X0064922Y0143259D01*
X0064916Y0143327D01*
X0064910Y0143401D01*
X0064891Y0143482D01*
X0064854Y0143649D01*
X0064798Y0143828D01*
X0064761Y0143915D01*
X0064718Y0144001D01*
X0064662Y0144082D01*
X0064606Y0144156D01*
X0064600Y0144162D01*
X0064594Y0144175D01*
X0064575Y0144193D01*
X0064544Y0144218D01*
X0064513Y0144243D01*
X0064476Y0144280D01*
X0064427Y0144311D01*
X0064377Y0144348D01*
X0064315Y0144385D01*
X0064247Y0144416D01*
X0064173Y0144453D01*
X0064092Y0144478D01*
X0064006Y0144503D01*
X0063919Y0144521D01*
X0063820Y0144534D01*
X0063715Y0144540D01*
D02*
G37*
G36*
X0054647Y0143568D02*
X0054610D01*
X0054585Y0143562D01*
X0054510Y0143556D01*
X0054424Y0143537D01*
X0054325Y0143506D01*
X0054220Y0143457D01*
X0054120Y0143389D01*
X0054071Y0143351D01*
X0054028Y0143302D01*
X0054015Y0143290D01*
X0053990Y0143253D01*
X0053960Y0143197D01*
X0053916Y0143116D01*
X0053873Y0143011D01*
X0053842Y0142887D01*
X0053817Y0142745D01*
X0053805Y0142578D01*
Y0142572D01*
Y0142559D01*
Y0142534D01*
X0053811Y0142503D01*
Y0142466D01*
X0053817Y0142423D01*
X0053836Y0142324D01*
X0053860Y0142213D01*
X0053904Y0142095D01*
X0053960Y0141977D01*
X0054034Y0141872D01*
X0054046Y0141860D01*
X0054077Y0141835D01*
X0054127Y0141792D01*
X0054195Y0141748D01*
X0054281Y0141699D01*
X0054387Y0141656D01*
X0054510Y0141631D01*
X0054647Y0141618D01*
X0054684D01*
X0054708Y0141624D01*
X0054783Y0141631D01*
X0054869Y0141649D01*
X0054962Y0141680D01*
X0055067Y0141724D01*
X0055160Y0141786D01*
X0055247Y0141866D01*
X0055253Y0141878D01*
X0055278Y0141916D01*
X0055315Y0141971D01*
X0055352Y0142052D01*
X0055389Y0142157D01*
X0055427Y0142281D01*
X0055451Y0142423D01*
X0055458Y0142590D01*
Y0142596D01*
Y0142609D01*
Y0142633D01*
Y0142671D01*
X0055451Y0142708D01*
X0055445Y0142751D01*
X0055433Y0142856D01*
X0055408Y0142974D01*
X0055371Y0143092D01*
X0055315Y0143209D01*
X0055247Y0143314D01*
X0055235Y0143327D01*
X0055210Y0143351D01*
X0055160Y0143395D01*
X0055092Y0143444D01*
X0055006Y0143488D01*
X0054907Y0143531D01*
X0054783Y0143556D01*
X0054647Y0143568D01*
D02*
G37*
G36*
X0048296D02*
X0048259D01*
X0048234Y0143562D01*
X0048160Y0143556D01*
X0048073Y0143537D01*
X0047974Y0143506D01*
X0047868Y0143457D01*
X0047769Y0143389D01*
X0047720Y0143351D01*
X0047677Y0143302D01*
X0047664Y0143290D01*
X0047640Y0143253D01*
X0047609Y0143197D01*
X0047565Y0143116D01*
X0047522Y0143011D01*
X0047491Y0142887D01*
X0047466Y0142745D01*
X0047454Y0142578D01*
Y0142572D01*
Y0142559D01*
Y0142534D01*
X0047460Y0142503D01*
Y0142466D01*
X0047466Y0142423D01*
X0047485Y0142324D01*
X0047510Y0142213D01*
X0047553Y0142095D01*
X0047609Y0141977D01*
X0047683Y0141872D01*
X0047695Y0141860D01*
X0047726Y0141835D01*
X0047776Y0141792D01*
X0047844Y0141748D01*
X0047930Y0141699D01*
X0048036Y0141656D01*
X0048160Y0141631D01*
X0048296Y0141618D01*
X0048333D01*
X0048357Y0141624D01*
X0048432Y0141631D01*
X0048518Y0141649D01*
X0048611Y0141680D01*
X0048717Y0141724D01*
X0048809Y0141786D01*
X0048896Y0141866D01*
X0048902Y0141878D01*
X0048927Y0141916D01*
X0048964Y0141971D01*
X0049001Y0142052D01*
X0049038Y0142157D01*
X0049076Y0142281D01*
X0049100Y0142423D01*
X0049106Y0142590D01*
Y0142596D01*
Y0142609D01*
Y0142633D01*
Y0142671D01*
X0049100Y0142708D01*
X0049094Y0142751D01*
X0049082Y0142856D01*
X0049057Y0142974D01*
X0049020Y0143092D01*
X0048964Y0143209D01*
X0048896Y0143314D01*
X0048884Y0143327D01*
X0048859Y0143351D01*
X0048809Y0143395D01*
X0048741Y0143444D01*
X0048655Y0143488D01*
X0048556Y0143531D01*
X0048432Y0143556D01*
X0048296Y0143568D01*
D02*
G37*
G36*
X0026798Y0092502D02*
X0026729Y0092499D01*
X0026661Y0092488D01*
X0026594Y0092470D01*
X0026530Y0092444D01*
X0026469Y0092411D01*
X0026413Y0092371D01*
X0026361Y0092326D01*
X0026314Y0092275D01*
X0026274Y0092219D01*
X0026239Y0092159D01*
X0026212Y0092095D01*
X0026193Y0092029D01*
X0026180Y0091961D01*
X0026176Y0091892D01*
X0026179Y0091823D01*
X0026190Y0091755D01*
X0026208Y0091688D01*
X0026234Y0091624D01*
X0026267Y0091563D01*
X0026306Y0091506D01*
X0026307Y0091506D01*
X0027761Y0089645D01*
X0027761Y0089645D01*
X0027806Y0089593D01*
X0027857Y0089546D01*
X0027913Y0089505D01*
X0027974Y0089472D01*
X0028037Y0089444D01*
X0028103Y0089425D01*
X0028171Y0089412D01*
X0028240Y0089408D01*
X0028310Y0089411D01*
X0028378Y0089422D01*
X0028444Y0089440D01*
X0028508Y0089466D01*
X0028569Y0089499D01*
X0028626Y0089538D01*
X0028678Y0089584D01*
X0028725Y0089635D01*
X0028765Y0089691D01*
X0028799Y0089751D01*
X0028826Y0089815D01*
X0028846Y0089881D01*
X0028859Y0089949D01*
X0028863Y0090018D01*
X0028860Y0090087D01*
X0028849Y0090155D01*
X0028831Y0090222D01*
X0028805Y0090286D01*
X0028772Y0090347D01*
X0028732Y0090404D01*
X0028732Y0090403D01*
X0027278Y0092265D01*
X0027278Y0092265D01*
X0027233Y0092317D01*
X0027181Y0092364D01*
X0027125Y0092404D01*
X0027065Y0092439D01*
X0027002Y0092466D01*
X0026935Y0092485D01*
X0026867Y0092498D01*
X0026798Y0092502D01*
D02*
G37*
G36*
X-0026890Y0092286D02*
X-0026959Y0092283D01*
X-0027027Y0092273D01*
X-0027094Y0092256D01*
X-0027159Y0092231D01*
X-0027220Y0092199D01*
X-0027277Y0092161D01*
X-0027330Y0092116D01*
X-0027378Y0092065D01*
X-0027377Y0092065D01*
X-0028896Y0090256D01*
X-0028896Y0090256D01*
X-0028937Y0090201D01*
X-0028972Y0090141D01*
X-0029000Y0090078D01*
X-0029021Y0090012D01*
X-0029034Y0089944D01*
X-0029040Y0089875D01*
X-0029038Y0089806D01*
X-0029028Y0089737D01*
X-0029010Y0089671D01*
X-0028986Y0089606D01*
X-0028954Y0089545D01*
X-0028915Y0089487D01*
X-0028870Y0089435D01*
X-0028820Y0089387D01*
X-0028765Y0089346D01*
X-0028705Y0089311D01*
X-0028642Y0089283D01*
X-0028576Y0089262D01*
X-0028508Y0089249D01*
X-0028439Y0089243D01*
X-0028370Y0089245D01*
X-0028302Y0089255D01*
X-0028235Y0089273D01*
X-0028170Y0089298D01*
X-0028109Y0089330D01*
X-0028051Y0089368D01*
X-0027999Y0089413D01*
X-0027951Y0089463D01*
X-0027952Y0089464D01*
X-0026433Y0091273D01*
X-0026433Y0091273D01*
X-0026392Y0091328D01*
X-0026357Y0091388D01*
X-0026329Y0091451D01*
X-0026308Y0091517D01*
X-0026294Y0091585D01*
X-0026289Y0091654D01*
X-0026291Y0091723D01*
X-0026301Y0091791D01*
X-0026318Y0091858D01*
X-0026343Y0091923D01*
X-0026375Y0091984D01*
X-0026414Y0092041D01*
X-0026459Y0092094D01*
X-0026509Y0092141D01*
X-0026564Y0092183D01*
X-0026624Y0092218D01*
X-0026687Y0092246D01*
X-0026753Y0092267D01*
X-0026821Y0092280D01*
X-0026890Y0092286D01*
D02*
G37*
G36*
X-0028172Y0015035D02*
X-0028241Y0015033D01*
X-0028310Y0015022D01*
X-0028376Y0015004D01*
X-0028441Y0014979D01*
X-0028502Y0014947D01*
X-0028559Y0014908D01*
X-0028611Y0014863D01*
X-0028659Y0014812D01*
X-0028700Y0014756D01*
X-0028734Y0014696D01*
X-0028762Y0014633D01*
X-0028782Y0014567D01*
X-0028795Y0014499D01*
X-0028800Y0014430D01*
X-0028798Y0014361D01*
X-0028787Y0014293D01*
X-0028769Y0014226D01*
X-0028744Y0014162D01*
X-0028712Y0014100D01*
X-0028673Y0014043D01*
X-0028673Y0014044D01*
X-0028209Y0013439D01*
X-0028813Y0012975D01*
X-0028813Y0012976D01*
X-0028866Y0012931D01*
X-0028913Y0012880D01*
X-0028954Y0012824D01*
X-0028989Y0012764D01*
X-0029016Y0012701D01*
X-0029037Y0012635D01*
X-0029049Y0012567D01*
X-0029054Y0012498D01*
X-0029052Y0012429D01*
X-0029042Y0012361D01*
X-0029024Y0012294D01*
X-0028999Y0012229D01*
X-0028966Y0012168D01*
X-0028927Y0012111D01*
X-0028882Y0012059D01*
X-0028831Y0012012D01*
X-0028776Y0011971D01*
X-0028716Y0011936D01*
X-0028653Y0011909D01*
X-0028587Y0011888D01*
X-0028519Y0011875D01*
X-0028450Y0011870D01*
X-0028381Y0011873D01*
X-0028312Y0011883D01*
X-0028245Y0011901D01*
X-0028181Y0011926D01*
X-0028120Y0011958D01*
X-0028063Y0011998D01*
X-0028063Y0011998D01*
X-0027459Y0012462D01*
X-0026995Y0011857D01*
X-0026995Y0011857D01*
X-0026950Y0011805D01*
X-0026899Y0011757D01*
X-0026844Y0011716D01*
X-0026784Y0011682D01*
X-0026721Y0011654D01*
X-0026654Y0011634D01*
X-0026587Y0011621D01*
X-0026518Y0011616D01*
X-0026449Y0011618D01*
X-0026380Y0011629D01*
X-0026313Y0011647D01*
X-0026249Y0011672D01*
X-0026188Y0011704D01*
X-0026131Y0011743D01*
X-0026078Y0011788D01*
X-0026031Y0011839D01*
X-0025990Y0011895D01*
X-0025956Y0011954D01*
X-0025928Y0012018D01*
X-0025908Y0012084D01*
X-0025895Y0012152D01*
X-0025890Y0012221D01*
X-0025892Y0012290D01*
X-0025903Y0012358D01*
X-0025921Y0012425D01*
X-0025946Y0012489D01*
X-0025978Y0012550D01*
X-0026017Y0012608D01*
X-0026017Y0012607D01*
X-0026481Y0013212D01*
X-0025877Y0013676D01*
X-0025876Y0013675D01*
X-0025824Y0013720D01*
X-0025777Y0013771D01*
X-0025736Y0013827D01*
X-0025701Y0013886D01*
X-0025674Y0013950D01*
X-0025653Y0014016D01*
X-0025640Y0014084D01*
X-0025635Y0014153D01*
X-0025638Y0014222D01*
X-0025648Y0014290D01*
X-0025666Y0014357D01*
X-0025691Y0014421D01*
X-0025724Y0014482D01*
X-0025763Y0014540D01*
X-0025808Y0014592D01*
X-0025858Y0014639D01*
X-0025914Y0014680D01*
X-0025974Y0014715D01*
X-0026037Y0014742D01*
X-0026103Y0014763D01*
X-0026171Y0014775D01*
X-0026240Y0014781D01*
X-0026309Y0014778D01*
X-0026378Y0014768D01*
X-0026444Y0014750D01*
X-0026509Y0014725D01*
X-0026570Y0014692D01*
X-0026627Y0014653D01*
X-0026627Y0014653D01*
X-0027231Y0014189D01*
X-0027695Y0014794D01*
X-0027695Y0014794D01*
X-0027740Y0014846D01*
X-0027790Y0014893D01*
X-0027846Y0014934D01*
X-0027906Y0014969D01*
X-0027969Y0014997D01*
X-0028035Y0015017D01*
X-0028103Y0015030D01*
X-0028172Y0015035D01*
D02*
G37*
%LPD*%
D12*
X0021909Y0086876D02*
X0032709D01*
X0024081Y0100993D02*
G03*
X0028698Y0101835I0001742J0003531D01*
G01*
X-0043880Y0084649D02*
G03*
X-0039949Y0088592I-0000006J0003937D01*
G01*
X-0065358Y0062047D02*
G03*
X-0062205Y0058898I0003145J-0000004D01*
G01*
X-0040742Y0012611D02*
G03*
X-0039950Y0014974I-0003145J0002369D01*
G01*
X0046256Y0058898D02*
G03*
X0042319Y0054961I0000001J-0003938D01*
G01*
X-0039949Y0015739D02*
G03*
X-0043880Y0019681I-0003937J0000006D01*
G01*
X0028698Y0002496D02*
G03*
X0040738Y0012611I0005751J0005378D01*
G01*
X0040738Y0091720D02*
G03*
X0028698Y0101835I-0006290J0004737D01*
G01*
X-0039950Y0089357D02*
G03*
X-0040742Y0091720I-0003937J-0000006D01*
G01*
X0042319Y0049370D02*
G03*
X0046256Y0045433I0003938J0000001D01*
G01*
X-0065358Y0022835D02*
G03*
X-0062205Y0019685I0003145J-0000004D01*
G01*
X0028698Y0002496D02*
G03*
X0024081Y0003337I-0002875J-0002689D01*
G01*
X-0028702Y0101835D02*
G03*
X-0040742Y0091720I-0005751J-0005378D01*
G01*
X0040738D02*
G03*
X0039946Y0089357I0003145J-0002369D01*
G01*
X0065354Y0042283D02*
G03*
X0062201Y0045433I-0003145J0000004D01*
G01*
X0039945Y0088592D02*
G03*
X0043876Y0084649I0003937J-0000006D01*
G01*
X-0062205Y0045433D02*
G03*
X-0065358Y0042283I-0000008J-0003145D01*
G01*
X-0024085Y0003337D02*
G03*
X0024081Y0003337I0024083J0048828D01*
G01*
X-0028702Y0101835D02*
G03*
X-0024085Y0100993I0002875J0002689D01*
G01*
X-0046260Y0045433D02*
G03*
X-0042323Y0049370I-0000001J0003938D01*
G01*
X0062201Y0019685D02*
G03*
X0065354Y0022835I0000008J0003145D01*
G01*
X-0024085Y0003337D02*
G03*
X-0028702Y0002496I-0001742J-0003531D01*
G01*
X0065354Y0081496D02*
G03*
X0062201Y0084646I-0003145J0000004D01*
G01*
X0043876Y0019681D02*
G03*
X0039945Y0015739I0000006J-0003937D01*
G01*
X-0040742Y0012611D02*
G03*
X-0028702Y0002496I0006290J-0004737D01*
G01*
X0024081Y0100993D02*
G03*
X-0024085Y0100993I-0024083J-0048828D01*
G01*
X-0062205Y0084646D02*
G03*
X-0065358Y0081496I-0000008J-0003145D01*
G01*
X0062201Y0058898D02*
G03*
X0065354Y0062047I0000008J0003145D01*
G01*
X-0042323Y0054961D02*
G03*
X-0046260Y0058898I-0003938J-0000001D01*
G01*
X0039946Y0014974D02*
G03*
X0040738Y0012611I0003937J0000006D01*
G01*
X-0062205Y0084646D02*
X-0046260D01*
X0065354Y0022835D02*
Y0042283D01*
X-0062205Y0019685D02*
X-0046260D01*
Y0084646D02*
X-0043880Y0084649D01*
X0046256Y0084646D02*
X0062201D01*
X-0065358Y0022835D02*
Y0042283D01*
X0046256Y0019685D02*
X0062201D01*
X0065354Y0062047D02*
Y0081496D01*
X0043876Y0019681D02*
X0046256Y0019685D01*
X-0039950Y0089357D02*
X-0039949Y0088592D01*
X0046256Y0058898D02*
X0062201D01*
X-0062205Y0045433D02*
X-0046260D01*
X-0042323Y0049370D02*
Y0054961D01*
X0039945Y0015739D02*
X0039946Y0014974D01*
X-0062205Y0058898D02*
X-0046260D01*
X0042319Y0049370D02*
Y0054961D01*
X-0039950Y0014974D02*
X-0039949Y0015739D01*
X0039945Y0088592D02*
X0039946Y0089357D01*
X0046256Y0045433D02*
X0062201D01*
X-0046260Y0019685D02*
X-0043880Y0019681D01*
X0043876Y0084649D02*
X0046256Y0084646D01*
X-0065358Y0062047D02*
Y0081496D01*
D13*
X0011614Y0071981D02*
X0010433D01*
X0010040Y0072113D01*
X0009909Y0072244D01*
X0009777Y0072506D01*
Y0072900D01*
X0009909Y0073162D01*
X0010040Y0073293D01*
X0010433Y0073425D01*
X0011614D01*
Y0070669D01*
X0007586Y0073031D02*
X0007717Y0073293D01*
X0008111Y0073425D01*
X0008373D01*
X0008767Y0073293D01*
X0009029Y0072900D01*
X0009161Y0072244D01*
Y0071588D01*
X0009029Y0071063D01*
X0008767Y0070801D01*
X0008373Y0070669D01*
X0008242D01*
X0007849Y0070801D01*
X0007586Y0071063D01*
X0007455Y0071456D01*
Y0071588D01*
X0007586Y0071981D01*
X0007849Y0072244D01*
X0008242Y0072375D01*
X0008373D01*
X0008767Y0072244D01*
X0009029Y0071981D01*
X0009161Y0071588D01*
X0002756Y0071981D02*
X0001575D01*
X0001181Y0072113D01*
X0001050Y0072244D01*
X0000919Y0072506D01*
Y0072900D01*
X0001050Y0073162D01*
X0001181Y0073293D01*
X0001575Y0073425D01*
X0002756D01*
Y0070669D01*
X-0001272Y0073425D02*
X0000040D01*
X0000171Y0072244D01*
X0000040Y0072375D01*
X-0000354Y0072506D01*
X-0000747D01*
X-0001141Y0072375D01*
X-0001403Y0072113D01*
X-0001534Y0071719D01*
Y0071456D01*
X-0001403Y0071063D01*
X-0001141Y0070801D01*
X-0000747Y0070669D01*
X-0000354D01*
X0000040Y0070801D01*
X0000171Y0070932D01*
X0000302Y0071194D01*
X-0006398Y0071981D02*
X-0007579D01*
X-0007972Y0072113D01*
X-0008103Y0072244D01*
X-0008235Y0072506D01*
Y0072900D01*
X-0008103Y0073162D01*
X-0007972Y0073293D01*
X-0007579Y0073425D01*
X-0006398D01*
Y0070669D01*
X-0010163Y0073425D02*
X-0008851Y0071588D01*
X-0010819D01*
X-0010163Y0073425D02*
Y0070669D01*
X-0006398Y0052690D02*
X-0007579D01*
X-0007972Y0052821D01*
X-0008103Y0052952D01*
X-0008235Y0053215D01*
Y0053609D01*
X-0008103Y0053871D01*
X-0007972Y0054002D01*
X-0007579Y0054133D01*
X-0006398D01*
Y0051378D01*
X-0009114Y0054133D02*
X-0010557D01*
X-0009770Y0053084D01*
X-0010163D01*
X-0010426Y0052952D01*
X-0010557Y0052821D01*
X-0010688Y0052428D01*
Y0052165D01*
X-0010557Y0051772D01*
X-0010294Y0051509D01*
X-0009901Y0051378D01*
X-0009507D01*
X-0009114Y0051509D01*
X-0008982Y0051640D01*
X-0008851Y0051903D01*
X-0014567Y0071981D02*
X-0015748D01*
X-0016141Y0072113D01*
X-0016273Y0072244D01*
X-0016404Y0072506D01*
Y0072900D01*
X-0016273Y0073162D01*
X-0016141Y0073293D01*
X-0015748Y0073425D01*
X-0014567D01*
Y0070669D01*
X-0017020Y0072900D02*
X-0017283Y0073031D01*
X-0017676Y0073425D01*
Y0070669D01*
D74*
X0016060Y0033656D02*
X0018917D01*
X0019203Y0031085D01*
X0018917Y0031371D01*
X0018060Y0031657D01*
X0017203D01*
X0016346Y0031371D01*
X0015775Y0030800D01*
X0015489Y0029943D01*
Y0029371D01*
X0015775Y0028514D01*
X0016346Y0027943D01*
X0017203Y0027657D01*
X0018060D01*
X0018917Y0027943D01*
X0019203Y0028229D01*
X0019488Y0028800D01*
X0010147Y0033656D02*
X0013004Y0027657D01*
X0014146Y0033656D02*
X0010147D01*
X0008805Y0030228D02*
X0003663D01*
X0000178Y0033656D02*
X0001035Y0033371D01*
X0001606Y0032514D01*
X0001892Y0031085D01*
Y0030228D01*
X0001606Y0028800D01*
X0001035Y0027943D01*
X0000178Y0027657D01*
X-0000393D01*
X-0001250Y0027943D01*
X-0001822Y0028800D01*
X-0002107Y0030228D01*
Y0031085D01*
X-0001822Y0032514D01*
X-0001250Y0033371D01*
X-0000393Y0033656D01*
X0000178D01*
X-0003735Y0028229D02*
X-0003450Y0027943D01*
X-0003735Y0027657D01*
X-0004021Y0027943D01*
X-0003735Y0028229D01*
X-0005335Y0032514D02*
X-0005906Y0032799D01*
X-0006763Y0033656D01*
Y0027657D01*
X0028541Y0041530D02*
Y0036960D01*
X0028827Y0036103D01*
X0029112Y0035817D01*
X0029684Y0035531D01*
X0030255D01*
X0030826Y0035817D01*
X0031112Y0036103D01*
X0031398Y0036960D01*
Y0037531D01*
X0023571Y0039531D02*
Y0035531D01*
Y0038674D02*
X0024142Y0039245D01*
X0024713Y0039531D01*
X0025570D01*
X0026142Y0039245D01*
X0026713Y0038674D01*
X0026999Y0037817D01*
Y0037245D01*
X0026713Y0036388D01*
X0026142Y0035817D01*
X0025570Y0035531D01*
X0024713D01*
X0024142Y0035817D01*
X0023571Y0036388D01*
X0018543Y0038674D02*
X0019115Y0039245D01*
X0019686Y0039531D01*
X0020543D01*
X0021114Y0039245D01*
X0021685Y0038674D01*
X0021971Y0037817D01*
Y0037245D01*
X0021685Y0036388D01*
X0021114Y0035817D01*
X0020543Y0035531D01*
X0019686D01*
X0019115Y0035817D01*
X0018543Y0036388D01*
X0013830Y0041530D02*
Y0035531D01*
Y0038674D02*
X0014401Y0039245D01*
X0014973Y0039531D01*
X0015830D01*
X0016401Y0039245D01*
X0016972Y0038674D01*
X0017258Y0037817D01*
Y0037245D01*
X0016972Y0036388D01*
X0016401Y0035817D01*
X0015830Y0035531D01*
X0014973D01*
X0014401Y0035817D01*
X0013830Y0036388D01*
X0008803Y0039531D02*
Y0035531D01*
Y0038674D02*
X0009374Y0039245D01*
X0009945Y0039531D01*
X0010802D01*
X0011373Y0039245D01*
X0011945Y0038674D01*
X0012230Y0037817D01*
Y0037245D01*
X0011945Y0036388D01*
X0011373Y0035817D01*
X0010802Y0035531D01*
X0009945D01*
X0009374Y0035817D01*
X0008803Y0036388D01*
X0003775Y0038674D02*
X0004346Y0039245D01*
X0004918Y0039531D01*
X0005775D01*
X0006346Y0039245D01*
X0006917Y0038674D01*
X0007203Y0037817D01*
Y0037245D01*
X0006917Y0036388D01*
X0006346Y0035817D01*
X0005775Y0035531D01*
X0004918D01*
X0004346Y0035817D01*
X0003775Y0036388D01*
X0002489Y0041530D02*
Y0035531D01*
Y0041530D02*
X-0000081D01*
X-0000938Y0041245D01*
X-0001224Y0040959D01*
X-0001510Y0040388D01*
Y0039816D01*
X-0001224Y0039245D01*
X-0000938Y0038959D01*
X-0000081Y0038674D01*
X0002489D02*
X-0000081D01*
X-0000938Y0038388D01*
X-0001224Y0038102D01*
X-0001510Y0037531D01*
Y0036674D01*
X-0001224Y0036103D01*
X-0000938Y0035817D01*
X-0000081Y0035531D01*
X0002489D01*
X-0002852Y0039531D02*
Y0035531D01*
Y0037817D02*
X-0003138Y0038674D01*
X-0003709Y0039245D01*
X-0004280Y0039531D01*
X-0005137D01*
X-0009108D02*
Y0035531D01*
Y0038674D02*
X-0008537Y0039245D01*
X-0007965Y0039531D01*
X-0007108D01*
X-0006537Y0039245D01*
X-0005966Y0038674D01*
X-0005680Y0037817D01*
Y0037245D01*
X-0005966Y0036388D01*
X-0006537Y0035817D01*
X-0007108Y0035531D01*
X-0007965D01*
X-0008537Y0035817D01*
X-0009108Y0036388D01*
X-0011279Y0041530D02*
X-0011565Y0041245D01*
X-0011850Y0041530D01*
X-0011565Y0041816D01*
X-0011279Y0041530D01*
X-0011565Y0039531D02*
Y0035531D01*
X-0012907Y0039531D02*
Y0035531D01*
Y0038388D02*
X-0013764Y0039245D01*
X-0014335Y0039531D01*
X-0015192D01*
X-0015764Y0039245D01*
X-0016049Y0038388D01*
Y0035531D01*
X-0017620Y0041530D02*
Y0035531D01*
Y0041530D02*
X-0021620Y0035531D01*
Y0041530D02*
Y0035531D01*
X-0023276Y0041530D02*
Y0035531D01*
Y0041530D02*
X-0025847D01*
X-0026704Y0041245D01*
X-0026990Y0040959D01*
X-0027275Y0040388D01*
Y0039816D01*
X-0026990Y0039245D01*
X-0026704Y0038959D01*
X-0025847Y0038674D01*
X-0023276D01*
X-0025276D02*
X-0027275Y0035531D01*
X-0028618Y0041530D02*
Y0035531D01*
Y0041530D02*
X-0032332D01*
X-0028618Y0038674D02*
X-0030903D01*
D75*
X-0000197Y0011270D02*
D03*
D76*
X-0012823Y0030758D02*
D03*
M02*
