G04*
G04 #@! TF.GenerationSoftware,Altium Limited,Altium Designer,21.9.2 (33)*
G04*
G04 Layer_Physical_Order=1*
G04 Layer_Color=255*
%FSAX25Y25*%
%MOIN*%
G70*
G04*
G04 #@! TF.SameCoordinates,B38DDDDE-E499-4E20-BA9E-D90CFE60B386*
G04*
G04*
G04 #@! TF.FilePolarity,Positive*
G04*
G01*
G75*
%ADD10C,0.01181*%
%ADD13C,0.00394*%
%ADD14R,0.02362X0.05512*%
%ADD15R,0.05315X0.01575*%
%ADD16R,0.06102X0.05906*%
%ADD17R,0.02756X0.03937*%
%ADD18R,0.04331X0.05315*%
%ADD20R,0.02165X0.01968*%
%ADD22R,0.05315X0.04331*%
%ADD24R,0.02165X0.01968*%
%ADD25R,0.01968X0.02165*%
%ADD27R,0.02362X0.03543*%
%ADD28R,0.01968X0.02165*%
%ADD29R,0.03150X0.03543*%
%ADD30R,0.06102X0.04724*%
%ADD31R,0.06102X0.04724*%
G04:AMPARAMS|DCode=38|XSize=74.8mil|YSize=116.14mil|CornerRadius=29.17mil|HoleSize=0mil|Usage=FLASHONLY|Rotation=0.000|XOffset=0mil|YOffset=0mil|HoleType=Round|Shape=RoundedRectangle|*
%AMROUNDEDRECTD38*
21,1,0.07480,0.05780,0,0,0.0*
21,1,0.01646,0.11614,0,0,0.0*
1,1,0.05835,0.00823,-0.02890*
1,1,0.05835,-0.00823,-0.02890*
1,1,0.05835,-0.00823,0.02890*
1,1,0.05835,0.00823,0.02890*
%
%ADD38ROUNDEDRECTD38*%
G04:AMPARAMS|DCode=51|XSize=35.43mil|YSize=188.98mil|CornerRadius=13.82mil|HoleSize=0mil|Usage=FLASHONLY|Rotation=180.000|XOffset=0mil|YOffset=0mil|HoleType=Round|Shape=RoundedRectangle|*
%AMROUNDEDRECTD51*
21,1,0.03543,0.16134,0,0,180.0*
21,1,0.00780,0.18898,0,0,180.0*
1,1,0.02764,-0.00390,0.08067*
1,1,0.02764,0.00390,0.08067*
1,1,0.02764,0.00390,-0.08067*
1,1,0.02764,-0.00390,-0.08067*
%
%ADD51ROUNDEDRECTD51*%
G04:AMPARAMS|DCode=52|XSize=35.43mil|YSize=169.29mil|CornerRadius=13.82mil|HoleSize=0mil|Usage=FLASHONLY|Rotation=180.000|XOffset=0mil|YOffset=0mil|HoleType=Round|Shape=RoundedRectangle|*
%AMROUNDEDRECTD52*
21,1,0.03543,0.14165,0,0,180.0*
21,1,0.00780,0.16929,0,0,180.0*
1,1,0.02764,-0.00390,0.07083*
1,1,0.02764,0.00390,0.07083*
1,1,0.02764,0.00390,-0.07083*
1,1,0.02764,-0.00390,-0.07083*
%
%ADD52ROUNDEDRECTD52*%
%ADD62C,0.04370*%
%ADD64C,0.00100*%
%ADD65C,0.01600*%
%ADD66O,0.01000X0.01001*%
%ADD67R,0.01575X0.02756*%
%ADD68R,0.03150X0.03150*%
%ADD69R,0.02756X0.01575*%
%ADD70R,0.02362X0.03150*%
%ADD71C,0.02756*%
%ADD72C,0.01968*%
%ADD73C,0.02362*%
%ADD74C,0.03150*%
%ADD75R,0.04370X0.04370*%
%ADD76C,0.04724*%
%ADD77O,0.06102X0.05709*%
%ADD78R,0.07874X0.07874*%
%ADD79C,0.07874*%
%ADD80C,0.11811*%
%ADD81C,0.02362*%
G36*
X0055175Y0161260D02*
X0055219Y0161253D01*
X0055262Y0161247D01*
X0055373Y0161222D01*
X0055497Y0161185D01*
X0055621Y0161123D01*
X0055683Y0161086D01*
X0055745Y0161037D01*
X0055800Y0160987D01*
X0055856Y0160925D01*
X0055862Y0160919D01*
X0055869Y0160913D01*
X0055881Y0160888D01*
X0055900Y0160863D01*
X0055918Y0160833D01*
X0055943Y0160789D01*
X0055968Y0160740D01*
X0055992Y0160690D01*
X0056017Y0160628D01*
X0056042Y0160560D01*
X0056067Y0160486D01*
X0056085Y0160405D01*
X0056116Y0160226D01*
X0056129Y0160127D01*
Y0160022D01*
Y0160015D01*
Y0159997D01*
Y0159960D01*
X0056122Y0159916D01*
Y0159867D01*
X0056110Y0159805D01*
X0056104Y0159737D01*
X0056091Y0159663D01*
X0056054Y0159502D01*
X0055999Y0159335D01*
X0055962Y0159254D01*
X0055924Y0159174D01*
X0055875Y0159093D01*
X0055819Y0159019D01*
X0055813Y0159013D01*
X0055807Y0159000D01*
X0055788Y0158982D01*
X0055763Y0158963D01*
X0055733Y0158932D01*
X0055695Y0158901D01*
X0055652Y0158864D01*
X0055603Y0158833D01*
X0055547Y0158796D01*
X0055485Y0158759D01*
X0055336Y0158703D01*
X0055256Y0158678D01*
X0055175Y0158660D01*
X0055082Y0158647D01*
X0054984Y0158641D01*
X0054934D01*
X0054903Y0158647D01*
X0054860Y0158654D01*
X0054816Y0158666D01*
X0054705Y0158691D01*
X0054587Y0158740D01*
X0054519Y0158777D01*
X0054457Y0158815D01*
X0054395Y0158864D01*
X0054340Y0158920D01*
X0054278Y0158982D01*
X0054228Y0159056D01*
X0054216D01*
Y0157546D01*
X0053814D01*
Y0161210D01*
X0054216D01*
Y0160764D01*
X0054228D01*
X0054234Y0160771D01*
X0054241Y0160789D01*
X0054259Y0160814D01*
X0054284Y0160845D01*
X0054315Y0160882D01*
X0054352Y0160925D01*
X0054395Y0160969D01*
X0054451Y0161018D01*
X0054507Y0161062D01*
X0054569Y0161105D01*
X0054643Y0161148D01*
X0054717Y0161185D01*
X0054804Y0161222D01*
X0054897Y0161247D01*
X0054990Y0161260D01*
X0055095Y0161266D01*
X0055144D01*
X0055175Y0161260D01*
D02*
G37*
G36*
X0069289Y0161247D02*
X0069363Y0161241D01*
X0069406Y0161229D01*
X0069437Y0161216D01*
Y0160801D01*
X0069431Y0160808D01*
X0069419Y0160814D01*
X0069394Y0160826D01*
X0069363Y0160845D01*
X0069319Y0160857D01*
X0069264Y0160870D01*
X0069202Y0160876D01*
X0069134Y0160882D01*
X0069121D01*
X0069090Y0160876D01*
X0069041Y0160870D01*
X0068985Y0160851D01*
X0068911Y0160820D01*
X0068843Y0160777D01*
X0068769Y0160715D01*
X0068700Y0160634D01*
X0068694Y0160622D01*
X0068676Y0160591D01*
X0068645Y0160535D01*
X0068614Y0160461D01*
X0068583Y0160368D01*
X0068552Y0160251D01*
X0068533Y0160121D01*
X0068527Y0159972D01*
Y0158697D01*
X0068125D01*
Y0161210D01*
X0068527D01*
Y0160690D01*
X0068540D01*
Y0160696D01*
X0068546Y0160703D01*
X0068558Y0160733D01*
X0068577Y0160783D01*
X0068608Y0160845D01*
X0068639Y0160907D01*
X0068688Y0160975D01*
X0068738Y0161043D01*
X0068800Y0161105D01*
X0068806Y0161111D01*
X0068831Y0161130D01*
X0068868Y0161154D01*
X0068917Y0161179D01*
X0068973Y0161204D01*
X0069041Y0161229D01*
X0069115Y0161247D01*
X0069196Y0161253D01*
X0069251D01*
X0069289Y0161247D01*
D02*
G37*
G36*
X0063910Y0158295D02*
X0063903Y0158288D01*
X0063897Y0158264D01*
X0063879Y0158220D01*
X0063854Y0158171D01*
X0063823Y0158115D01*
X0063779Y0158047D01*
X0063736Y0157979D01*
X0063687Y0157905D01*
X0063625Y0157830D01*
X0063563Y0157762D01*
X0063489Y0157694D01*
X0063408Y0157638D01*
X0063328Y0157589D01*
X0063235Y0157546D01*
X0063142Y0157521D01*
X0063037Y0157515D01*
X0062981D01*
X0062944Y0157521D01*
X0062863Y0157533D01*
X0062777Y0157552D01*
Y0157911D01*
X0062783D01*
X0062801Y0157905D01*
X0062826Y0157898D01*
X0062857Y0157892D01*
X0062931Y0157874D01*
X0063012Y0157868D01*
X0063024D01*
X0063061Y0157874D01*
X0063117Y0157886D01*
X0063185Y0157911D01*
X0063260Y0157954D01*
X0063297Y0157985D01*
X0063334Y0158022D01*
X0063371Y0158059D01*
X0063408Y0158109D01*
X0063439Y0158165D01*
X0063470Y0158227D01*
X0063674Y0158697D01*
X0062690Y0161210D01*
X0063136D01*
X0063817Y0159273D01*
Y0159266D01*
X0063823Y0159254D01*
X0063829Y0159235D01*
X0063835Y0159211D01*
X0063841Y0159174D01*
X0063854Y0159136D01*
X0063866Y0159081D01*
X0063885D01*
Y0159093D01*
X0063897Y0159130D01*
X0063910Y0159186D01*
X0063934Y0159266D01*
X0064646Y0161210D01*
X0065061D01*
X0063910Y0158295D01*
D02*
G37*
G36*
X0061501Y0161260D02*
X0061557Y0161253D01*
X0061625Y0161235D01*
X0061700Y0161216D01*
X0061780Y0161185D01*
X0061867Y0161148D01*
X0061947Y0161099D01*
X0062028Y0161037D01*
X0062102Y0160962D01*
X0062170Y0160870D01*
X0062226Y0160764D01*
X0062269Y0160641D01*
X0062294Y0160498D01*
X0062306Y0160331D01*
Y0158697D01*
X0061904D01*
Y0159087D01*
X0061892D01*
Y0159081D01*
X0061879Y0159068D01*
X0061867Y0159044D01*
X0061842Y0159019D01*
X0061780Y0158944D01*
X0061700Y0158864D01*
X0061588Y0158784D01*
X0061458Y0158709D01*
X0061378Y0158685D01*
X0061297Y0158660D01*
X0061211Y0158647D01*
X0061118Y0158641D01*
X0061081D01*
X0061056Y0158647D01*
X0060988Y0158654D01*
X0060907Y0158666D01*
X0060808Y0158691D01*
X0060715Y0158722D01*
X0060616Y0158771D01*
X0060530Y0158833D01*
X0060523Y0158845D01*
X0060499Y0158870D01*
X0060462Y0158914D01*
X0060425Y0158976D01*
X0060387Y0159050D01*
X0060350Y0159136D01*
X0060325Y0159242D01*
X0060319Y0159359D01*
Y0159365D01*
Y0159390D01*
X0060325Y0159427D01*
X0060332Y0159471D01*
X0060344Y0159526D01*
X0060363Y0159588D01*
X0060387Y0159656D01*
X0060425Y0159724D01*
X0060468Y0159799D01*
X0060523Y0159873D01*
X0060592Y0159941D01*
X0060672Y0160003D01*
X0060765Y0160065D01*
X0060876Y0160114D01*
X0061000Y0160152D01*
X0061149Y0160182D01*
X0061904Y0160288D01*
Y0160294D01*
Y0160312D01*
X0061898Y0160350D01*
Y0160387D01*
X0061885Y0160436D01*
X0061879Y0160492D01*
X0061842Y0160610D01*
X0061811Y0160665D01*
X0061780Y0160721D01*
X0061737Y0160777D01*
X0061687Y0160826D01*
X0061625Y0160870D01*
X0061557Y0160901D01*
X0061477Y0160919D01*
X0061384Y0160925D01*
X0061341D01*
X0061310Y0160919D01*
X0061266D01*
X0061223Y0160907D01*
X0061112Y0160888D01*
X0060988Y0160851D01*
X0060852Y0160795D01*
X0060777Y0160758D01*
X0060709Y0160721D01*
X0060635Y0160671D01*
X0060567Y0160616D01*
Y0161030D01*
X0060573D01*
X0060585Y0161043D01*
X0060604Y0161055D01*
X0060635Y0161068D01*
X0060666Y0161086D01*
X0060709Y0161105D01*
X0060759Y0161123D01*
X0060814Y0161148D01*
X0060938Y0161191D01*
X0061087Y0161229D01*
X0061248Y0161253D01*
X0061421Y0161266D01*
X0061458D01*
X0061501Y0161260D01*
D02*
G37*
G36*
X0058611Y0159068D02*
X0060022D01*
Y0158697D01*
X0058196D01*
Y0162213D01*
X0058611D01*
Y0159068D01*
D02*
G37*
G36*
X0050372Y0161841D02*
X0049357D01*
Y0158697D01*
X0048948D01*
Y0161841D01*
X0047933D01*
Y0162213D01*
X0050372D01*
Y0161841D01*
D02*
G37*
G36*
X0066565Y0161260D02*
X0066608Y0161253D01*
X0066652Y0161247D01*
X0066763Y0161229D01*
X0066887Y0161185D01*
X0067011Y0161130D01*
X0067072Y0161092D01*
X0067134Y0161049D01*
X0067190Y0161000D01*
X0067246Y0160944D01*
X0067252Y0160938D01*
X0067258Y0160932D01*
X0067271Y0160913D01*
X0067289Y0160888D01*
X0067308Y0160851D01*
X0067333Y0160814D01*
X0067357Y0160771D01*
X0067382Y0160715D01*
X0067407Y0160653D01*
X0067432Y0160591D01*
X0067456Y0160517D01*
X0067475Y0160436D01*
X0067493Y0160350D01*
X0067506Y0160263D01*
X0067518Y0160164D01*
Y0160059D01*
Y0159848D01*
X0065742D01*
Y0159842D01*
Y0159830D01*
Y0159811D01*
X0065748Y0159780D01*
X0065754Y0159743D01*
Y0159706D01*
X0065773Y0159607D01*
X0065804Y0159508D01*
X0065841Y0159396D01*
X0065896Y0159291D01*
X0065965Y0159198D01*
X0065977Y0159186D01*
X0066002Y0159161D01*
X0066051Y0159130D01*
X0066119Y0159087D01*
X0066206Y0159044D01*
X0066305Y0159013D01*
X0066423Y0158988D01*
X0066559Y0158976D01*
X0066602D01*
X0066633Y0158982D01*
X0066670D01*
X0066714Y0158988D01*
X0066819Y0159013D01*
X0066936Y0159044D01*
X0067066Y0159093D01*
X0067203Y0159161D01*
X0067271Y0159204D01*
X0067339Y0159254D01*
Y0158876D01*
X0067333D01*
X0067326Y0158864D01*
X0067308Y0158858D01*
X0067277Y0158839D01*
X0067246Y0158821D01*
X0067209Y0158802D01*
X0067159Y0158784D01*
X0067110Y0158759D01*
X0067048Y0158734D01*
X0066980Y0158715D01*
X0066831Y0158678D01*
X0066658Y0158654D01*
X0066466Y0158641D01*
X0066416D01*
X0066379Y0158647D01*
X0066336Y0158654D01*
X0066280Y0158660D01*
X0066163Y0158685D01*
X0066026Y0158722D01*
X0065890Y0158784D01*
X0065822Y0158827D01*
X0065754Y0158870D01*
X0065692Y0158920D01*
X0065630Y0158982D01*
X0065624Y0158988D01*
X0065618Y0159000D01*
X0065605Y0159019D01*
X0065581Y0159044D01*
X0065562Y0159081D01*
X0065537Y0159124D01*
X0065507Y0159174D01*
X0065482Y0159229D01*
X0065451Y0159291D01*
X0065426Y0159365D01*
X0065395Y0159446D01*
X0065377Y0159533D01*
X0065358Y0159625D01*
X0065339Y0159724D01*
X0065333Y0159830D01*
X0065327Y0159941D01*
Y0159947D01*
Y0159966D01*
Y0159997D01*
X0065333Y0160040D01*
X0065339Y0160090D01*
X0065346Y0160145D01*
X0065352Y0160213D01*
X0065370Y0160282D01*
X0065407Y0160430D01*
X0065463Y0160591D01*
X0065500Y0160671D01*
X0065550Y0160746D01*
X0065599Y0160826D01*
X0065655Y0160894D01*
X0065661Y0160901D01*
X0065674Y0160913D01*
X0065692Y0160932D01*
X0065717Y0160950D01*
X0065748Y0160981D01*
X0065785Y0161012D01*
X0065834Y0161043D01*
X0065884Y0161080D01*
X0066002Y0161148D01*
X0066144Y0161210D01*
X0066224Y0161229D01*
X0066305Y0161247D01*
X0066392Y0161260D01*
X0066484Y0161266D01*
X0066534D01*
X0066565Y0161260D01*
D02*
G37*
G36*
X0052074D02*
X0052118Y0161253D01*
X0052173Y0161247D01*
X0052297Y0161222D01*
X0052439Y0161179D01*
X0052582Y0161117D01*
X0052656Y0161080D01*
X0052724Y0161037D01*
X0052792Y0160981D01*
X0052854Y0160919D01*
X0052860Y0160913D01*
X0052867Y0160901D01*
X0052885Y0160882D01*
X0052904Y0160857D01*
X0052928Y0160820D01*
X0052953Y0160777D01*
X0052984Y0160727D01*
X0053015Y0160671D01*
X0053040Y0160603D01*
X0053071Y0160535D01*
X0053096Y0160455D01*
X0053120Y0160368D01*
X0053139Y0160275D01*
X0053157Y0160176D01*
X0053164Y0160071D01*
X0053170Y0159960D01*
Y0159953D01*
Y0159935D01*
Y0159904D01*
X0053164Y0159861D01*
X0053157Y0159811D01*
X0053151Y0159749D01*
X0053139Y0159687D01*
X0053127Y0159613D01*
X0053089Y0159465D01*
X0053027Y0159303D01*
X0052990Y0159223D01*
X0052941Y0159143D01*
X0052891Y0159068D01*
X0052829Y0159000D01*
X0052823Y0158994D01*
X0052811Y0158988D01*
X0052792Y0158969D01*
X0052767Y0158944D01*
X0052730Y0158920D01*
X0052693Y0158889D01*
X0052644Y0158852D01*
X0052588Y0158821D01*
X0052526Y0158790D01*
X0052458Y0158753D01*
X0052384Y0158722D01*
X0052303Y0158697D01*
X0052217Y0158672D01*
X0052124Y0158660D01*
X0052025Y0158647D01*
X0051919Y0158641D01*
X0051864D01*
X0051827Y0158647D01*
X0051783Y0158654D01*
X0051727Y0158660D01*
X0051666Y0158672D01*
X0051597Y0158685D01*
X0051455Y0158728D01*
X0051307Y0158790D01*
X0051232Y0158827D01*
X0051164Y0158876D01*
X0051096Y0158926D01*
X0051028Y0158988D01*
X0051022Y0158994D01*
X0051016Y0159006D01*
X0050997Y0159025D01*
X0050978Y0159050D01*
X0050954Y0159087D01*
X0050923Y0159130D01*
X0050892Y0159180D01*
X0050867Y0159235D01*
X0050836Y0159303D01*
X0050805Y0159372D01*
X0050774Y0159446D01*
X0050749Y0159533D01*
X0050712Y0159718D01*
X0050706Y0159817D01*
X0050700Y0159923D01*
Y0159929D01*
Y0159953D01*
Y0159984D01*
X0050706Y0160028D01*
X0050712Y0160077D01*
X0050719Y0160139D01*
X0050731Y0160207D01*
X0050743Y0160282D01*
X0050780Y0160442D01*
X0050842Y0160603D01*
X0050886Y0160684D01*
X0050929Y0160764D01*
X0050978Y0160839D01*
X0051040Y0160907D01*
X0051047Y0160913D01*
X0051059Y0160925D01*
X0051078Y0160938D01*
X0051102Y0160962D01*
X0051139Y0160987D01*
X0051183Y0161018D01*
X0051232Y0161055D01*
X0051288Y0161086D01*
X0051350Y0161117D01*
X0051424Y0161154D01*
X0051499Y0161185D01*
X0051585Y0161210D01*
X0051672Y0161235D01*
X0051771Y0161253D01*
X0051876Y0161260D01*
X0051981Y0161266D01*
X0052037D01*
X0052074Y0161260D01*
D02*
G37*
G36*
X0072142Y0146274D02*
X0072167D01*
X0072223Y0146249D01*
X0072254Y0146231D01*
X0072285Y0146206D01*
X0072291Y0146200D01*
X0072297Y0146194D01*
X0072328Y0146157D01*
X0072353Y0146095D01*
X0072359Y0146057D01*
X0072365Y0146020D01*
Y0146014D01*
Y0146002D01*
X0072359Y0145983D01*
X0072353Y0145958D01*
X0072334Y0145897D01*
X0072309Y0145866D01*
X0072285Y0145835D01*
X0072278D01*
X0072272Y0145822D01*
X0072235Y0145798D01*
X0072179Y0145773D01*
X0072142Y0145767D01*
X0072105Y0145760D01*
X0072086D01*
X0072068Y0145767D01*
X0072043D01*
X0071981Y0145791D01*
X0071950Y0145804D01*
X0071919Y0145828D01*
Y0145835D01*
X0071907Y0145841D01*
X0071895Y0145860D01*
X0071882Y0145878D01*
X0071857Y0145940D01*
X0071851Y0145977D01*
X0071845Y0146020D01*
Y0146027D01*
Y0146039D01*
X0071851Y0146057D01*
X0071857Y0146089D01*
X0071876Y0146144D01*
X0071895Y0146175D01*
X0071919Y0146206D01*
X0071925Y0146212D01*
X0071932Y0146219D01*
X0071969Y0146243D01*
X0072031Y0146268D01*
X0072068Y0146280D01*
X0072124D01*
X0072142Y0146274D01*
D02*
G37*
G36*
X0060152Y0142610D02*
X0059750D01*
Y0143031D01*
X0059737D01*
Y0143024D01*
X0059725Y0143012D01*
X0059706Y0142987D01*
X0059688Y0142956D01*
X0059657Y0142919D01*
X0059620Y0142882D01*
X0059576Y0142839D01*
X0059527Y0142795D01*
X0059471Y0142746D01*
X0059403Y0142703D01*
X0059335Y0142665D01*
X0059255Y0142628D01*
X0059174Y0142597D01*
X0059081Y0142573D01*
X0058982Y0142560D01*
X0058877Y0142554D01*
X0058834D01*
X0058797Y0142560D01*
X0058759Y0142566D01*
X0058710Y0142573D01*
X0058605Y0142597D01*
X0058481Y0142634D01*
X0058357Y0142696D01*
X0058289Y0142734D01*
X0058233Y0142777D01*
X0058171Y0142833D01*
X0058116Y0142888D01*
Y0142894D01*
X0058103Y0142907D01*
X0058091Y0142925D01*
X0058072Y0142950D01*
X0058054Y0142981D01*
X0058029Y0143024D01*
X0058004Y0143074D01*
X0057979Y0143130D01*
X0057948Y0143192D01*
X0057924Y0143260D01*
X0057899Y0143334D01*
X0057880Y0143414D01*
X0057862Y0143501D01*
X0057849Y0143600D01*
X0057843Y0143699D01*
X0057837Y0143804D01*
Y0143811D01*
Y0143829D01*
Y0143866D01*
X0057843Y0143910D01*
X0057849Y0143959D01*
X0057856Y0144021D01*
X0057862Y0144089D01*
X0057874Y0144163D01*
X0057911Y0144324D01*
X0057967Y0144492D01*
X0058004Y0144572D01*
X0058047Y0144652D01*
X0058091Y0144727D01*
X0058147Y0144801D01*
X0058153Y0144807D01*
X0058159Y0144819D01*
X0058178Y0144838D01*
X0058202Y0144863D01*
X0058233Y0144888D01*
X0058276Y0144919D01*
X0058320Y0144956D01*
X0058369Y0144993D01*
X0058493Y0145061D01*
X0058636Y0145123D01*
X0058716Y0145141D01*
X0058803Y0145160D01*
X0058889Y0145172D01*
X0058988Y0145179D01*
X0059038D01*
X0059075Y0145172D01*
X0059112Y0145166D01*
X0059162Y0145160D01*
X0059273Y0145129D01*
X0059397Y0145080D01*
X0059459Y0145049D01*
X0059521Y0145005D01*
X0059583Y0144962D01*
X0059638Y0144906D01*
X0059688Y0144844D01*
X0059737Y0144770D01*
X0059750D01*
Y0146330D01*
X0060152D01*
Y0142610D01*
D02*
G37*
G36*
X0074420Y0145172D02*
X0074494Y0145166D01*
X0074587Y0145148D01*
X0074686Y0145117D01*
X0074792Y0145067D01*
X0074897Y0144999D01*
X0074940Y0144962D01*
X0074983Y0144912D01*
X0074996Y0144900D01*
X0075020Y0144863D01*
X0075051Y0144801D01*
X0075095Y0144714D01*
X0075132Y0144609D01*
X0075169Y0144479D01*
X0075194Y0144324D01*
X0075200Y0144145D01*
Y0142610D01*
X0074798D01*
Y0144040D01*
Y0144046D01*
Y0144077D01*
X0074792Y0144114D01*
Y0144163D01*
X0074779Y0144225D01*
X0074767Y0144293D01*
X0074748Y0144368D01*
X0074723Y0144442D01*
X0074692Y0144516D01*
X0074655Y0144584D01*
X0074606Y0144652D01*
X0074550Y0144714D01*
X0074488Y0144764D01*
X0074408Y0144801D01*
X0074321Y0144832D01*
X0074216Y0144838D01*
X0074203D01*
X0074166Y0144832D01*
X0074111Y0144826D01*
X0074042Y0144807D01*
X0073962Y0144782D01*
X0073875Y0144739D01*
X0073795Y0144683D01*
X0073714Y0144609D01*
X0073708Y0144597D01*
X0073684Y0144572D01*
X0073652Y0144522D01*
X0073615Y0144454D01*
X0073578Y0144374D01*
X0073547Y0144275D01*
X0073523Y0144163D01*
X0073516Y0144040D01*
Y0142610D01*
X0073114D01*
Y0145123D01*
X0073516D01*
Y0144702D01*
X0073529D01*
X0073535Y0144708D01*
X0073541Y0144720D01*
X0073560Y0144745D01*
X0073584Y0144776D01*
X0073609Y0144813D01*
X0073646Y0144851D01*
X0073690Y0144894D01*
X0073739Y0144943D01*
X0073795Y0144987D01*
X0073857Y0145030D01*
X0073925Y0145067D01*
X0073999Y0145104D01*
X0074073Y0145135D01*
X0074160Y0145160D01*
X0074253Y0145172D01*
X0074352Y0145179D01*
X0074389D01*
X0074420Y0145172D01*
D02*
G37*
G36*
X0057422Y0145160D02*
X0057497Y0145154D01*
X0057540Y0145141D01*
X0057571Y0145129D01*
Y0144714D01*
X0057565Y0144720D01*
X0057552Y0144727D01*
X0057528Y0144739D01*
X0057497Y0144758D01*
X0057453Y0144770D01*
X0057398Y0144782D01*
X0057336Y0144789D01*
X0057268Y0144795D01*
X0057255D01*
X0057224Y0144789D01*
X0057175Y0144782D01*
X0057119Y0144764D01*
X0057045Y0144733D01*
X0056977Y0144690D01*
X0056902Y0144628D01*
X0056834Y0144547D01*
X0056828Y0144535D01*
X0056810Y0144504D01*
X0056779Y0144448D01*
X0056748Y0144374D01*
X0056717Y0144281D01*
X0056686Y0144163D01*
X0056667Y0144033D01*
X0056661Y0143885D01*
Y0142610D01*
X0056259D01*
Y0145123D01*
X0056661D01*
Y0144603D01*
X0056673D01*
Y0144609D01*
X0056679Y0144615D01*
X0056692Y0144646D01*
X0056710Y0144696D01*
X0056741Y0144758D01*
X0056772Y0144819D01*
X0056822Y0144888D01*
X0056871Y0144956D01*
X0056933Y0145018D01*
X0056940Y0145024D01*
X0056964Y0145042D01*
X0057001Y0145067D01*
X0057051Y0145092D01*
X0057107Y0145117D01*
X0057175Y0145141D01*
X0057249Y0145160D01*
X0057329Y0145166D01*
X0057385D01*
X0057422Y0145160D01*
D02*
G37*
G36*
X0068162Y0142610D02*
X0067760D01*
Y0143006D01*
X0067747D01*
Y0143000D01*
X0067735Y0142987D01*
X0067722Y0142963D01*
X0067698Y0142938D01*
X0067642Y0142864D01*
X0067555Y0142783D01*
X0067506Y0142740D01*
X0067450Y0142696D01*
X0067388Y0142659D01*
X0067314Y0142622D01*
X0067240Y0142597D01*
X0067159Y0142573D01*
X0067066Y0142560D01*
X0066974Y0142554D01*
X0066936D01*
X0066893Y0142560D01*
X0066831Y0142573D01*
X0066763Y0142585D01*
X0066689Y0142610D01*
X0066608Y0142641D01*
X0066528Y0142690D01*
X0066441Y0142746D01*
X0066361Y0142814D01*
X0066286Y0142901D01*
X0066218Y0143006D01*
X0066156Y0143123D01*
X0066113Y0143266D01*
X0066088Y0143433D01*
X0066076Y0143520D01*
Y0143619D01*
Y0145123D01*
X0066472D01*
Y0143681D01*
Y0143674D01*
Y0143650D01*
X0066478Y0143606D01*
X0066484Y0143557D01*
X0066491Y0143495D01*
X0066503Y0143433D01*
X0066522Y0143359D01*
X0066546Y0143284D01*
X0066584Y0143210D01*
X0066621Y0143142D01*
X0066670Y0143074D01*
X0066732Y0143012D01*
X0066800Y0142963D01*
X0066881Y0142925D01*
X0066980Y0142894D01*
X0067085Y0142888D01*
X0067097D01*
X0067134Y0142894D01*
X0067190Y0142901D01*
X0067252Y0142913D01*
X0067333Y0142944D01*
X0067413Y0142981D01*
X0067493Y0143031D01*
X0067568Y0143105D01*
X0067574Y0143117D01*
X0067599Y0143142D01*
X0067630Y0143192D01*
X0067667Y0143260D01*
X0067698Y0143340D01*
X0067729Y0143439D01*
X0067753Y0143551D01*
X0067760Y0143674D01*
Y0145123D01*
X0068162D01*
Y0142610D01*
D02*
G37*
G36*
X0072297D02*
X0071895D01*
Y0145123D01*
X0072297D01*
Y0142610D01*
D02*
G37*
G36*
X0071078D02*
X0070675D01*
Y0146330D01*
X0071078D01*
Y0142610D01*
D02*
G37*
G36*
X0054699Y0145172D02*
X0054754Y0145166D01*
X0054822Y0145148D01*
X0054897Y0145129D01*
X0054977Y0145098D01*
X0055064Y0145061D01*
X0055144Y0145011D01*
X0055225Y0144949D01*
X0055299Y0144875D01*
X0055367Y0144782D01*
X0055423Y0144677D01*
X0055466Y0144553D01*
X0055491Y0144411D01*
X0055503Y0144244D01*
Y0142610D01*
X0055101D01*
Y0143000D01*
X0055089D01*
Y0142993D01*
X0055076Y0142981D01*
X0055064Y0142956D01*
X0055039Y0142932D01*
X0054977Y0142857D01*
X0054897Y0142777D01*
X0054785Y0142696D01*
X0054655Y0142622D01*
X0054575Y0142597D01*
X0054495Y0142573D01*
X0054408Y0142560D01*
X0054315Y0142554D01*
X0054278D01*
X0054253Y0142560D01*
X0054185Y0142566D01*
X0054105Y0142579D01*
X0054005Y0142604D01*
X0053913Y0142634D01*
X0053814Y0142684D01*
X0053727Y0142746D01*
X0053721Y0142758D01*
X0053696Y0142783D01*
X0053659Y0142826D01*
X0053622Y0142888D01*
X0053584Y0142963D01*
X0053547Y0143049D01*
X0053523Y0143154D01*
X0053516Y0143272D01*
Y0143278D01*
Y0143303D01*
X0053523Y0143340D01*
X0053529Y0143384D01*
X0053541Y0143439D01*
X0053560Y0143501D01*
X0053584Y0143569D01*
X0053622Y0143637D01*
X0053665Y0143711D01*
X0053721Y0143786D01*
X0053789Y0143854D01*
X0053869Y0143916D01*
X0053962Y0143978D01*
X0054074Y0144027D01*
X0054197Y0144064D01*
X0054346Y0144095D01*
X0055101Y0144201D01*
Y0144207D01*
Y0144225D01*
X0055095Y0144262D01*
Y0144300D01*
X0055082Y0144349D01*
X0055076Y0144405D01*
X0055039Y0144522D01*
X0055008Y0144578D01*
X0054977Y0144634D01*
X0054934Y0144690D01*
X0054884Y0144739D01*
X0054822Y0144782D01*
X0054754Y0144813D01*
X0054674Y0144832D01*
X0054581Y0144838D01*
X0054538D01*
X0054507Y0144832D01*
X0054463D01*
X0054420Y0144819D01*
X0054309Y0144801D01*
X0054185Y0144764D01*
X0054049Y0144708D01*
X0053974Y0144671D01*
X0053906Y0144634D01*
X0053832Y0144584D01*
X0053764Y0144529D01*
Y0144943D01*
X0053770D01*
X0053783Y0144956D01*
X0053801Y0144968D01*
X0053832Y0144981D01*
X0053863Y0144999D01*
X0053906Y0145018D01*
X0053956Y0145036D01*
X0054012Y0145061D01*
X0054135Y0145104D01*
X0054284Y0145141D01*
X0054445Y0145166D01*
X0054618Y0145179D01*
X0054655D01*
X0054699Y0145172D01*
D02*
G37*
G36*
X0049010Y0146119D02*
X0049053D01*
X0049097Y0146113D01*
X0049196Y0146101D01*
X0049313Y0146070D01*
X0049437Y0146033D01*
X0049555Y0145977D01*
X0049660Y0145903D01*
X0049666D01*
X0049672Y0145890D01*
X0049703Y0145866D01*
X0049747Y0145816D01*
X0049796Y0145748D01*
X0049840Y0145661D01*
X0049883Y0145562D01*
X0049914Y0145451D01*
X0049926Y0145389D01*
Y0145321D01*
Y0145315D01*
Y0145308D01*
Y0145271D01*
X0049920Y0145216D01*
X0049908Y0145148D01*
X0049889Y0145061D01*
X0049858Y0144974D01*
X0049821Y0144888D01*
X0049765Y0144801D01*
X0049759Y0144789D01*
X0049734Y0144764D01*
X0049697Y0144727D01*
X0049648Y0144677D01*
X0049586Y0144628D01*
X0049512Y0144572D01*
X0049419Y0144529D01*
X0049320Y0144485D01*
Y0144479D01*
X0049338D01*
X0049357Y0144473D01*
X0049375Y0144467D01*
X0049443Y0144454D01*
X0049524Y0144430D01*
X0049611Y0144392D01*
X0049703Y0144349D01*
X0049796Y0144287D01*
X0049883Y0144207D01*
X0049895Y0144194D01*
X0049920Y0144163D01*
X0049951Y0144120D01*
X0049994Y0144052D01*
X0050032Y0143965D01*
X0050069Y0143866D01*
X0050093Y0143749D01*
X0050100Y0143619D01*
Y0143613D01*
Y0143600D01*
Y0143575D01*
X0050093Y0143544D01*
X0050087Y0143507D01*
X0050081Y0143464D01*
X0050056Y0143359D01*
X0050019Y0143241D01*
X0049963Y0143117D01*
X0049926Y0143062D01*
X0049883Y0143000D01*
X0049827Y0142944D01*
X0049771Y0142888D01*
X0049765D01*
X0049759Y0142876D01*
X0049740Y0142864D01*
X0049716Y0142845D01*
X0049685Y0142826D01*
X0049641Y0142802D01*
X0049549Y0142752D01*
X0049431Y0142696D01*
X0049295Y0142653D01*
X0049134Y0142622D01*
X0049053Y0142616D01*
X0048961Y0142610D01*
X0047933D01*
Y0146126D01*
X0048979D01*
X0049010Y0146119D01*
D02*
G37*
G36*
X0069505Y0145123D02*
X0070143D01*
Y0144776D01*
X0069505D01*
Y0143359D01*
Y0143346D01*
Y0143315D01*
X0069511Y0143272D01*
X0069518Y0143216D01*
X0069542Y0143099D01*
X0069561Y0143043D01*
X0069592Y0143000D01*
X0069598Y0142993D01*
X0069610Y0142981D01*
X0069629Y0142969D01*
X0069660Y0142950D01*
X0069697Y0142925D01*
X0069747Y0142913D01*
X0069809Y0142901D01*
X0069877Y0142894D01*
X0069901D01*
X0069932Y0142901D01*
X0069969Y0142907D01*
X0070056Y0142932D01*
X0070100Y0142950D01*
X0070143Y0142975D01*
Y0142628D01*
X0070137D01*
X0070118Y0142616D01*
X0070087Y0142610D01*
X0070044Y0142597D01*
X0069988Y0142585D01*
X0069926Y0142573D01*
X0069852Y0142566D01*
X0069765Y0142560D01*
X0069734D01*
X0069703Y0142566D01*
X0069660Y0142573D01*
X0069610Y0142585D01*
X0069555Y0142597D01*
X0069499Y0142622D01*
X0069437Y0142653D01*
X0069375Y0142690D01*
X0069313Y0142740D01*
X0069258Y0142795D01*
X0069208Y0142870D01*
X0069165Y0142950D01*
X0069134Y0143049D01*
X0069109Y0143161D01*
X0069103Y0143291D01*
Y0144776D01*
X0068676D01*
Y0145123D01*
X0069103D01*
Y0145736D01*
X0069505Y0145866D01*
Y0145123D01*
D02*
G37*
G36*
X0077032Y0145172D02*
X0077076Y0145166D01*
X0077119Y0145160D01*
X0077230Y0145141D01*
X0077354Y0145098D01*
X0077478Y0145042D01*
X0077540Y0145005D01*
X0077602Y0144962D01*
X0077657Y0144912D01*
X0077713Y0144857D01*
X0077719Y0144851D01*
X0077725Y0144844D01*
X0077738Y0144826D01*
X0077757Y0144801D01*
X0077775Y0144764D01*
X0077800Y0144727D01*
X0077825Y0144683D01*
X0077849Y0144628D01*
X0077874Y0144566D01*
X0077899Y0144504D01*
X0077924Y0144430D01*
X0077942Y0144349D01*
X0077961Y0144262D01*
X0077973Y0144176D01*
X0077986Y0144077D01*
Y0143972D01*
Y0143761D01*
X0076209D01*
Y0143755D01*
Y0143743D01*
Y0143724D01*
X0076215Y0143693D01*
X0076221Y0143656D01*
Y0143619D01*
X0076240Y0143520D01*
X0076271Y0143421D01*
X0076308Y0143309D01*
X0076364Y0143204D01*
X0076432Y0143111D01*
X0076444Y0143099D01*
X0076469Y0143074D01*
X0076518Y0143043D01*
X0076587Y0143000D01*
X0076673Y0142956D01*
X0076772Y0142925D01*
X0076890Y0142901D01*
X0077026Y0142888D01*
X0077069D01*
X0077100Y0142894D01*
X0077138D01*
X0077181Y0142901D01*
X0077286Y0142925D01*
X0077404Y0142956D01*
X0077534Y0143006D01*
X0077670Y0143074D01*
X0077738Y0143117D01*
X0077806Y0143167D01*
Y0142789D01*
X0077800D01*
X0077794Y0142777D01*
X0077775Y0142771D01*
X0077744Y0142752D01*
X0077713Y0142734D01*
X0077676Y0142715D01*
X0077627Y0142696D01*
X0077577Y0142672D01*
X0077515Y0142647D01*
X0077447Y0142628D01*
X0077298Y0142591D01*
X0077125Y0142566D01*
X0076933Y0142554D01*
X0076884D01*
X0076847Y0142560D01*
X0076803Y0142566D01*
X0076748Y0142573D01*
X0076630Y0142597D01*
X0076494Y0142634D01*
X0076358Y0142696D01*
X0076289Y0142740D01*
X0076221Y0142783D01*
X0076160Y0142833D01*
X0076098Y0142894D01*
X0076091Y0142901D01*
X0076085Y0142913D01*
X0076073Y0142932D01*
X0076048Y0142956D01*
X0076029Y0142993D01*
X0076005Y0143037D01*
X0075974Y0143086D01*
X0075949Y0143142D01*
X0075918Y0143204D01*
X0075893Y0143278D01*
X0075862Y0143359D01*
X0075844Y0143445D01*
X0075825Y0143538D01*
X0075807Y0143637D01*
X0075800Y0143743D01*
X0075794Y0143854D01*
Y0143860D01*
Y0143879D01*
Y0143910D01*
X0075800Y0143953D01*
X0075807Y0144002D01*
X0075813Y0144058D01*
X0075819Y0144126D01*
X0075838Y0144194D01*
X0075875Y0144343D01*
X0075930Y0144504D01*
X0075968Y0144584D01*
X0076017Y0144659D01*
X0076067Y0144739D01*
X0076122Y0144807D01*
X0076129Y0144813D01*
X0076141Y0144826D01*
X0076160Y0144844D01*
X0076184Y0144863D01*
X0076215Y0144894D01*
X0076252Y0144925D01*
X0076302Y0144956D01*
X0076351Y0144993D01*
X0076469Y0145061D01*
X0076611Y0145123D01*
X0076692Y0145141D01*
X0076772Y0145160D01*
X0076859Y0145172D01*
X0076952Y0145179D01*
X0077001D01*
X0077032Y0145172D01*
D02*
G37*
G36*
X0063990Y0146181D02*
X0064052Y0146175D01*
X0064126Y0146163D01*
X0064207Y0146144D01*
X0064293Y0146126D01*
X0064380Y0146101D01*
X0064479Y0146070D01*
X0064572Y0146027D01*
X0064671Y0145977D01*
X0064770Y0145921D01*
X0064863Y0145853D01*
X0064956Y0145779D01*
X0065042Y0145692D01*
X0065048Y0145686D01*
X0065061Y0145668D01*
X0065086Y0145643D01*
X0065110Y0145606D01*
X0065148Y0145556D01*
X0065185Y0145494D01*
X0065222Y0145426D01*
X0065265Y0145352D01*
X0065308Y0145259D01*
X0065346Y0145166D01*
X0065383Y0145061D01*
X0065420Y0144943D01*
X0065445Y0144826D01*
X0065469Y0144696D01*
X0065482Y0144553D01*
X0065488Y0144411D01*
Y0144399D01*
Y0144374D01*
Y0144331D01*
X0065482Y0144269D01*
X0065475Y0144194D01*
X0065463Y0144114D01*
X0065451Y0144021D01*
X0065432Y0143916D01*
X0065407Y0143811D01*
X0065377Y0143699D01*
X0065339Y0143588D01*
X0065296Y0143476D01*
X0065240Y0143359D01*
X0065178Y0143254D01*
X0065110Y0143148D01*
X0065030Y0143049D01*
X0065024Y0143043D01*
X0065011Y0143031D01*
X0064980Y0143006D01*
X0064949Y0142975D01*
X0064900Y0142932D01*
X0064844Y0142894D01*
X0064782Y0142845D01*
X0064708Y0142802D01*
X0064627Y0142758D01*
X0064535Y0142709D01*
X0064436Y0142672D01*
X0064324Y0142634D01*
X0064207Y0142597D01*
X0064083Y0142573D01*
X0063953Y0142560D01*
X0063810Y0142554D01*
X0063779D01*
X0063736Y0142560D01*
X0063687D01*
X0063625Y0142566D01*
X0063550Y0142579D01*
X0063470Y0142597D01*
X0063377Y0142616D01*
X0063284Y0142641D01*
X0063185Y0142672D01*
X0063086Y0142715D01*
X0062987Y0142758D01*
X0062888Y0142814D01*
X0062789Y0142882D01*
X0062696Y0142956D01*
X0062610Y0143043D01*
X0062603Y0143049D01*
X0062591Y0143068D01*
X0062566Y0143093D01*
X0062542Y0143130D01*
X0062504Y0143179D01*
X0062467Y0143241D01*
X0062430Y0143309D01*
X0062387Y0143390D01*
X0062343Y0143476D01*
X0062306Y0143569D01*
X0062269Y0143674D01*
X0062232Y0143792D01*
X0062207Y0143910D01*
X0062182Y0144040D01*
X0062170Y0144182D01*
X0062164Y0144324D01*
Y0144337D01*
Y0144361D01*
X0062170Y0144405D01*
Y0144467D01*
X0062176Y0144535D01*
X0062189Y0144622D01*
X0062201Y0144714D01*
X0062220Y0144813D01*
X0062244Y0144919D01*
X0062275Y0145030D01*
X0062312Y0145141D01*
X0062356Y0145253D01*
X0062411Y0145364D01*
X0062473Y0145476D01*
X0062542Y0145581D01*
X0062622Y0145680D01*
X0062628Y0145686D01*
X0062641Y0145705D01*
X0062672Y0145729D01*
X0062709Y0145760D01*
X0062752Y0145798D01*
X0062808Y0145841D01*
X0062876Y0145884D01*
X0062950Y0145934D01*
X0063037Y0145983D01*
X0063130Y0146027D01*
X0063228Y0146070D01*
X0063340Y0146107D01*
X0063464Y0146138D01*
X0063594Y0146169D01*
X0063730Y0146181D01*
X0063872Y0146187D01*
X0063940D01*
X0063990Y0146181D01*
D02*
G37*
G36*
X0051963Y0145172D02*
X0052006Y0145166D01*
X0052062Y0145160D01*
X0052186Y0145135D01*
X0052328Y0145092D01*
X0052470Y0145030D01*
X0052545Y0144993D01*
X0052613Y0144949D01*
X0052681Y0144894D01*
X0052743Y0144832D01*
X0052749Y0144826D01*
X0052755Y0144813D01*
X0052774Y0144795D01*
X0052792Y0144770D01*
X0052817Y0144733D01*
X0052842Y0144690D01*
X0052873Y0144640D01*
X0052904Y0144584D01*
X0052928Y0144516D01*
X0052959Y0144448D01*
X0052984Y0144368D01*
X0053009Y0144281D01*
X0053027Y0144188D01*
X0053046Y0144089D01*
X0053052Y0143984D01*
X0053058Y0143872D01*
Y0143866D01*
Y0143848D01*
Y0143817D01*
X0053052Y0143773D01*
X0053046Y0143724D01*
X0053040Y0143662D01*
X0053027Y0143600D01*
X0053015Y0143526D01*
X0052978Y0143377D01*
X0052916Y0143216D01*
X0052879Y0143136D01*
X0052829Y0143055D01*
X0052780Y0142981D01*
X0052718Y0142913D01*
X0052712Y0142907D01*
X0052699Y0142901D01*
X0052681Y0142882D01*
X0052656Y0142857D01*
X0052619Y0142833D01*
X0052582Y0142802D01*
X0052532Y0142764D01*
X0052477Y0142734D01*
X0052415Y0142703D01*
X0052346Y0142665D01*
X0052272Y0142634D01*
X0052192Y0142610D01*
X0052105Y0142585D01*
X0052012Y0142573D01*
X0051913Y0142560D01*
X0051808Y0142554D01*
X0051752D01*
X0051715Y0142560D01*
X0051672Y0142566D01*
X0051616Y0142573D01*
X0051554Y0142585D01*
X0051486Y0142597D01*
X0051344Y0142641D01*
X0051195Y0142703D01*
X0051121Y0142740D01*
X0051053Y0142789D01*
X0050985Y0142839D01*
X0050917Y0142901D01*
X0050910Y0142907D01*
X0050904Y0142919D01*
X0050886Y0142938D01*
X0050867Y0142963D01*
X0050842Y0143000D01*
X0050811Y0143043D01*
X0050780Y0143093D01*
X0050756Y0143148D01*
X0050725Y0143216D01*
X0050694Y0143284D01*
X0050663Y0143359D01*
X0050638Y0143445D01*
X0050601Y0143631D01*
X0050595Y0143730D01*
X0050589Y0143835D01*
Y0143842D01*
Y0143866D01*
Y0143897D01*
X0050595Y0143941D01*
X0050601Y0143990D01*
X0050607Y0144052D01*
X0050620Y0144120D01*
X0050632Y0144194D01*
X0050669Y0144355D01*
X0050731Y0144516D01*
X0050774Y0144597D01*
X0050818Y0144677D01*
X0050867Y0144751D01*
X0050929Y0144819D01*
X0050935Y0144826D01*
X0050948Y0144838D01*
X0050966Y0144851D01*
X0050991Y0144875D01*
X0051028Y0144900D01*
X0051071Y0144931D01*
X0051121Y0144968D01*
X0051177Y0144999D01*
X0051239Y0145030D01*
X0051313Y0145067D01*
X0051387Y0145098D01*
X0051474Y0145123D01*
X0051560Y0145148D01*
X0051659Y0145166D01*
X0051765Y0145172D01*
X0051870Y0145179D01*
X0051926D01*
X0051963Y0145172D01*
D02*
G37*
G36*
X-0027210Y0089247D02*
X-0027097Y0089134D01*
X-0027035Y0088986D01*
Y0088906D01*
Y0088826D01*
X-0027097Y0088679D01*
X-0027210Y0088566D01*
X-0027357Y0088505D01*
X-0027437D01*
X-0027710Y0088478D01*
X-0028214Y0088269D01*
X-0028600Y0087883D01*
X-0028809Y0087379D01*
X-0028835Y0087106D01*
X-0028809Y0086834D01*
X-0028600Y0086329D01*
X-0028214Y0085944D01*
X-0027710Y0085735D01*
X-0027437Y0085708D01*
X-0027357D01*
X-0027210Y0085647D01*
X-0027097Y0085534D01*
X-0027035Y0085386D01*
Y0085306D01*
Y0085226D01*
X-0027097Y0085079D01*
X-0027210Y0084966D01*
X-0027357Y0084905D01*
X-0027810D01*
X-0028513Y0085150D01*
X-0029097Y0085613D01*
X-0029496Y0086242D01*
X-0029581Y0086605D01*
Y0086605D01*
X-0030845D01*
X-0031139Y0086899D01*
Y0087314D01*
X-0030845Y0087608D01*
X-0029581D01*
X-0029496Y0087971D01*
X-0029097Y0088600D01*
X-0028513Y0089063D01*
X-0027810Y0089308D01*
X-0027357D01*
X-0027210Y0089247D01*
D02*
G37*
%LPC*%
G36*
X0054996Y0160925D02*
X0054965D01*
X0054940Y0160919D01*
X0054872Y0160913D01*
X0054792Y0160894D01*
X0054705Y0160863D01*
X0054606Y0160820D01*
X0054513Y0160758D01*
X0054426Y0160678D01*
X0054420Y0160665D01*
X0054395Y0160634D01*
X0054358Y0160585D01*
X0054321Y0160511D01*
X0054284Y0160424D01*
X0054247Y0160319D01*
X0054222Y0160201D01*
X0054216Y0160071D01*
Y0159718D01*
Y0159712D01*
Y0159706D01*
X0054222Y0159669D01*
X0054228Y0159607D01*
X0054241Y0159539D01*
X0054265Y0159452D01*
X0054303Y0159365D01*
X0054352Y0159279D01*
X0054420Y0159192D01*
X0054433Y0159186D01*
X0054457Y0159161D01*
X0054501Y0159124D01*
X0054562Y0159087D01*
X0054637Y0159044D01*
X0054724Y0159013D01*
X0054822Y0158988D01*
X0054934Y0158976D01*
X0054971D01*
X0054996Y0158982D01*
X0055058Y0158988D01*
X0055144Y0159013D01*
X0055231Y0159044D01*
X0055330Y0159093D01*
X0055423Y0159161D01*
X0055466Y0159204D01*
X0055503Y0159254D01*
Y0159260D01*
X0055510Y0159266D01*
X0055522Y0159285D01*
X0055534Y0159303D01*
X0055553Y0159335D01*
X0055572Y0159372D01*
X0055609Y0159458D01*
X0055646Y0159570D01*
X0055683Y0159700D01*
X0055708Y0159854D01*
X0055714Y0160034D01*
Y0160040D01*
Y0160053D01*
Y0160071D01*
Y0160102D01*
X0055708Y0160139D01*
X0055702Y0160176D01*
X0055689Y0160269D01*
X0055664Y0160374D01*
X0055633Y0160486D01*
X0055584Y0160591D01*
X0055522Y0160684D01*
X0055516Y0160696D01*
X0055485Y0160721D01*
X0055441Y0160758D01*
X0055386Y0160808D01*
X0055312Y0160851D01*
X0055219Y0160888D01*
X0055114Y0160913D01*
X0054996Y0160925D01*
D02*
G37*
G36*
X0061904Y0159966D02*
X0061297Y0159879D01*
X0061285D01*
X0061254Y0159873D01*
X0061204Y0159861D01*
X0061142Y0159848D01*
X0061074Y0159830D01*
X0061000Y0159805D01*
X0060938Y0159780D01*
X0060876Y0159743D01*
X0060870Y0159737D01*
X0060852Y0159724D01*
X0060833Y0159700D01*
X0060808Y0159663D01*
X0060777Y0159613D01*
X0060759Y0159551D01*
X0060740Y0159477D01*
X0060734Y0159390D01*
Y0159384D01*
Y0159359D01*
X0060740Y0159328D01*
X0060752Y0159285D01*
X0060765Y0159235D01*
X0060790Y0159186D01*
X0060821Y0159136D01*
X0060864Y0159087D01*
X0060870Y0159081D01*
X0060889Y0159068D01*
X0060920Y0159050D01*
X0060957Y0159031D01*
X0061006Y0159013D01*
X0061068Y0158994D01*
X0061136Y0158982D01*
X0061217Y0158976D01*
X0061229D01*
X0061266Y0158982D01*
X0061322Y0158988D01*
X0061390Y0159000D01*
X0061464Y0159025D01*
X0061551Y0159062D01*
X0061632Y0159118D01*
X0061706Y0159186D01*
X0061712Y0159198D01*
X0061737Y0159223D01*
X0061768Y0159266D01*
X0061805Y0159328D01*
X0061842Y0159409D01*
X0061873Y0159495D01*
X0061898Y0159601D01*
X0061904Y0159712D01*
Y0159966D01*
D02*
G37*
G36*
X0066478Y0160925D02*
X0066429D01*
X0066379Y0160913D01*
X0066311Y0160901D01*
X0066237Y0160876D01*
X0066150Y0160839D01*
X0066070Y0160789D01*
X0065989Y0160721D01*
X0065983Y0160715D01*
X0065958Y0160684D01*
X0065927Y0160641D01*
X0065884Y0160579D01*
X0065841Y0160504D01*
X0065804Y0160412D01*
X0065773Y0160306D01*
X0065748Y0160189D01*
X0067103D01*
Y0160195D01*
Y0160207D01*
Y0160220D01*
Y0160244D01*
X0067097Y0160312D01*
X0067085Y0160387D01*
X0067060Y0160480D01*
X0067035Y0160566D01*
X0066992Y0160653D01*
X0066936Y0160733D01*
X0066930Y0160740D01*
X0066905Y0160764D01*
X0066868Y0160795D01*
X0066819Y0160833D01*
X0066751Y0160863D01*
X0066670Y0160894D01*
X0066584Y0160919D01*
X0066478Y0160925D01*
D02*
G37*
G36*
X0051950D02*
X0051913D01*
X0051889Y0160919D01*
X0051814Y0160913D01*
X0051727Y0160894D01*
X0051629Y0160863D01*
X0051523Y0160814D01*
X0051424Y0160746D01*
X0051375Y0160709D01*
X0051331Y0160659D01*
X0051319Y0160647D01*
X0051294Y0160610D01*
X0051263Y0160554D01*
X0051220Y0160474D01*
X0051177Y0160368D01*
X0051146Y0160244D01*
X0051121Y0160102D01*
X0051108Y0159935D01*
Y0159929D01*
Y0159916D01*
Y0159892D01*
X0051115Y0159861D01*
Y0159824D01*
X0051121Y0159780D01*
X0051139Y0159681D01*
X0051164Y0159570D01*
X0051208Y0159452D01*
X0051263Y0159335D01*
X0051338Y0159229D01*
X0051350Y0159217D01*
X0051381Y0159192D01*
X0051430Y0159149D01*
X0051499Y0159106D01*
X0051585Y0159056D01*
X0051690Y0159013D01*
X0051814Y0158988D01*
X0051950Y0158976D01*
X0051987D01*
X0052012Y0158982D01*
X0052087Y0158988D01*
X0052173Y0159006D01*
X0052266Y0159037D01*
X0052371Y0159081D01*
X0052464Y0159143D01*
X0052551Y0159223D01*
X0052557Y0159235D01*
X0052582Y0159273D01*
X0052619Y0159328D01*
X0052656Y0159409D01*
X0052693Y0159514D01*
X0052730Y0159638D01*
X0052755Y0159780D01*
X0052761Y0159947D01*
Y0159953D01*
Y0159966D01*
Y0159991D01*
Y0160028D01*
X0052755Y0160065D01*
X0052749Y0160108D01*
X0052737Y0160213D01*
X0052712Y0160331D01*
X0052675Y0160449D01*
X0052619Y0160566D01*
X0052551Y0160671D01*
X0052538Y0160684D01*
X0052514Y0160709D01*
X0052464Y0160752D01*
X0052396Y0160801D01*
X0052309Y0160845D01*
X0052210Y0160888D01*
X0052087Y0160913D01*
X0051950Y0160925D01*
D02*
G37*
G36*
X0059038Y0144838D02*
X0059001D01*
X0058976Y0144832D01*
X0058908Y0144826D01*
X0058828Y0144807D01*
X0058735Y0144770D01*
X0058636Y0144720D01*
X0058543Y0144659D01*
X0058499Y0144615D01*
X0058456Y0144566D01*
X0058450Y0144553D01*
X0058425Y0144516D01*
X0058388Y0144454D01*
X0058351Y0144374D01*
X0058314Y0144269D01*
X0058276Y0144139D01*
X0058252Y0143990D01*
X0058246Y0143823D01*
Y0143817D01*
Y0143804D01*
Y0143780D01*
X0058252Y0143749D01*
Y0143718D01*
X0058258Y0143674D01*
X0058270Y0143575D01*
X0058295Y0143464D01*
X0058332Y0143352D01*
X0058382Y0143241D01*
X0058450Y0143136D01*
X0058462Y0143123D01*
X0058487Y0143099D01*
X0058530Y0143055D01*
X0058592Y0143012D01*
X0058673Y0142969D01*
X0058766Y0142925D01*
X0058871Y0142901D01*
X0058995Y0142888D01*
X0059026D01*
X0059050Y0142894D01*
X0059112Y0142901D01*
X0059187Y0142919D01*
X0059273Y0142950D01*
X0059366Y0142987D01*
X0059453Y0143049D01*
X0059539Y0143130D01*
X0059545Y0143142D01*
X0059570Y0143173D01*
X0059607Y0143229D01*
X0059645Y0143297D01*
X0059682Y0143384D01*
X0059719Y0143489D01*
X0059744Y0143613D01*
X0059750Y0143743D01*
Y0144114D01*
Y0144120D01*
Y0144126D01*
Y0144163D01*
X0059737Y0144219D01*
X0059725Y0144293D01*
X0059700Y0144374D01*
X0059663Y0144460D01*
X0059614Y0144547D01*
X0059545Y0144628D01*
X0059539Y0144634D01*
X0059508Y0144659D01*
X0059465Y0144696D01*
X0059409Y0144733D01*
X0059335Y0144770D01*
X0059248Y0144807D01*
X0059149Y0144832D01*
X0059038Y0144838D01*
D02*
G37*
G36*
X0055101Y0143879D02*
X0054495Y0143792D01*
X0054482D01*
X0054451Y0143786D01*
X0054402Y0143773D01*
X0054340Y0143761D01*
X0054272Y0143743D01*
X0054197Y0143718D01*
X0054135Y0143693D01*
X0054074Y0143656D01*
X0054067Y0143650D01*
X0054049Y0143637D01*
X0054030Y0143613D01*
X0054005Y0143575D01*
X0053974Y0143526D01*
X0053956Y0143464D01*
X0053937Y0143390D01*
X0053931Y0143303D01*
Y0143297D01*
Y0143272D01*
X0053937Y0143241D01*
X0053950Y0143198D01*
X0053962Y0143148D01*
X0053987Y0143099D01*
X0054018Y0143049D01*
X0054061Y0143000D01*
X0054067Y0142993D01*
X0054086Y0142981D01*
X0054117Y0142963D01*
X0054154Y0142944D01*
X0054203Y0142925D01*
X0054265Y0142907D01*
X0054334Y0142894D01*
X0054414Y0142888D01*
X0054426D01*
X0054463Y0142894D01*
X0054519Y0142901D01*
X0054587Y0142913D01*
X0054662Y0142938D01*
X0054748Y0142975D01*
X0054829Y0143031D01*
X0054903Y0143099D01*
X0054909Y0143111D01*
X0054934Y0143136D01*
X0054965Y0143179D01*
X0055002Y0143241D01*
X0055039Y0143322D01*
X0055070Y0143408D01*
X0055095Y0143513D01*
X0055101Y0143625D01*
Y0143879D01*
D02*
G37*
G36*
X0048818Y0145754D02*
X0048348D01*
Y0144615D01*
X0048824D01*
X0048886Y0144622D01*
X0048961Y0144634D01*
X0049047Y0144652D01*
X0049140Y0144683D01*
X0049221Y0144720D01*
X0049301Y0144776D01*
X0049307Y0144782D01*
X0049332Y0144807D01*
X0049363Y0144844D01*
X0049400Y0144900D01*
X0049431Y0144962D01*
X0049462Y0145042D01*
X0049487Y0145135D01*
X0049493Y0145240D01*
Y0145247D01*
Y0145265D01*
X0049487Y0145290D01*
X0049481Y0145321D01*
X0049456Y0145401D01*
X0049437Y0145451D01*
X0049406Y0145500D01*
X0049375Y0145544D01*
X0049326Y0145593D01*
X0049276Y0145637D01*
X0049208Y0145674D01*
X0049134Y0145705D01*
X0049041Y0145729D01*
X0048936Y0145748D01*
X0048818Y0145754D01*
D02*
G37*
G36*
Y0144244D02*
X0048348D01*
Y0142981D01*
X0048967D01*
X0049029Y0142987D01*
X0049115Y0143000D01*
X0049202Y0143024D01*
X0049295Y0143049D01*
X0049388Y0143093D01*
X0049468Y0143148D01*
X0049474Y0143154D01*
X0049499Y0143179D01*
X0049530Y0143216D01*
X0049567Y0143272D01*
X0049604Y0143340D01*
X0049635Y0143421D01*
X0049660Y0143520D01*
X0049666Y0143625D01*
Y0143631D01*
Y0143650D01*
X0049660Y0143681D01*
X0049654Y0143724D01*
X0049641Y0143767D01*
X0049623Y0143823D01*
X0049598Y0143879D01*
X0049561Y0143934D01*
X0049518Y0143990D01*
X0049462Y0144046D01*
X0049394Y0144102D01*
X0049307Y0144145D01*
X0049214Y0144188D01*
X0049097Y0144219D01*
X0048967Y0144238D01*
X0048818Y0144244D01*
D02*
G37*
G36*
X0076946Y0144838D02*
X0076896D01*
X0076847Y0144826D01*
X0076779Y0144813D01*
X0076704Y0144789D01*
X0076617Y0144751D01*
X0076537Y0144702D01*
X0076457Y0144634D01*
X0076450Y0144628D01*
X0076426Y0144597D01*
X0076395Y0144553D01*
X0076351Y0144492D01*
X0076308Y0144417D01*
X0076271Y0144324D01*
X0076240Y0144219D01*
X0076215Y0144102D01*
X0077571D01*
Y0144108D01*
Y0144120D01*
Y0144132D01*
Y0144157D01*
X0077565Y0144225D01*
X0077552Y0144300D01*
X0077527Y0144392D01*
X0077503Y0144479D01*
X0077459Y0144566D01*
X0077404Y0144646D01*
X0077398Y0144652D01*
X0077373Y0144677D01*
X0077336Y0144708D01*
X0077286Y0144745D01*
X0077218Y0144776D01*
X0077138Y0144807D01*
X0077051Y0144832D01*
X0076946Y0144838D01*
D02*
G37*
G36*
X0063841Y0145810D02*
X0063786D01*
X0063749Y0145804D01*
X0063699Y0145798D01*
X0063649Y0145791D01*
X0063588Y0145779D01*
X0063520Y0145760D01*
X0063377Y0145711D01*
X0063303Y0145680D01*
X0063222Y0145643D01*
X0063148Y0145593D01*
X0063074Y0145538D01*
X0063006Y0145476D01*
X0062938Y0145408D01*
X0062931Y0145401D01*
X0062925Y0145389D01*
X0062907Y0145364D01*
X0062882Y0145333D01*
X0062857Y0145296D01*
X0062832Y0145247D01*
X0062801Y0145191D01*
X0062770Y0145129D01*
X0062733Y0145055D01*
X0062702Y0144981D01*
X0062678Y0144894D01*
X0062653Y0144801D01*
X0062628Y0144702D01*
X0062610Y0144590D01*
X0062603Y0144479D01*
X0062597Y0144361D01*
Y0144355D01*
Y0144331D01*
Y0144300D01*
X0062603Y0144256D01*
X0062610Y0144201D01*
X0062616Y0144132D01*
X0062628Y0144064D01*
X0062641Y0143990D01*
X0062678Y0143823D01*
X0062739Y0143643D01*
X0062777Y0143557D01*
X0062820Y0143476D01*
X0062876Y0143390D01*
X0062931Y0143315D01*
X0062938Y0143309D01*
X0062950Y0143297D01*
X0062969Y0143278D01*
X0062993Y0143254D01*
X0063024Y0143222D01*
X0063068Y0143192D01*
X0063117Y0143154D01*
X0063167Y0143117D01*
X0063228Y0143080D01*
X0063297Y0143043D01*
X0063445Y0142981D01*
X0063532Y0142956D01*
X0063618Y0142938D01*
X0063711Y0142925D01*
X0063810Y0142919D01*
X0063866D01*
X0063910Y0142925D01*
X0063953Y0142932D01*
X0064015Y0142938D01*
X0064077Y0142950D01*
X0064145Y0142969D01*
X0064287Y0143012D01*
X0064368Y0143043D01*
X0064442Y0143080D01*
X0064516Y0143123D01*
X0064590Y0143173D01*
X0064658Y0143229D01*
X0064727Y0143297D01*
X0064733Y0143303D01*
X0064739Y0143315D01*
X0064758Y0143334D01*
X0064776Y0143365D01*
X0064807Y0143408D01*
X0064832Y0143451D01*
X0064863Y0143507D01*
X0064894Y0143569D01*
X0064925Y0143643D01*
X0064956Y0143724D01*
X0064986Y0143811D01*
X0065011Y0143903D01*
X0065030Y0144002D01*
X0065048Y0144114D01*
X0065055Y0144231D01*
X0065061Y0144355D01*
Y0144361D01*
Y0144386D01*
Y0144423D01*
X0065055Y0144467D01*
X0065048Y0144529D01*
X0065042Y0144597D01*
X0065036Y0144671D01*
X0065017Y0144751D01*
X0064980Y0144919D01*
X0064925Y0145098D01*
X0064887Y0145185D01*
X0064844Y0145271D01*
X0064788Y0145352D01*
X0064733Y0145426D01*
X0064727Y0145432D01*
X0064720Y0145445D01*
X0064702Y0145463D01*
X0064671Y0145488D01*
X0064640Y0145513D01*
X0064603Y0145550D01*
X0064553Y0145581D01*
X0064504Y0145618D01*
X0064442Y0145655D01*
X0064374Y0145686D01*
X0064299Y0145723D01*
X0064219Y0145748D01*
X0064132Y0145773D01*
X0064046Y0145791D01*
X0063947Y0145804D01*
X0063841Y0145810D01*
D02*
G37*
G36*
X0051839Y0144838D02*
X0051802D01*
X0051777Y0144832D01*
X0051703Y0144826D01*
X0051616Y0144807D01*
X0051517Y0144776D01*
X0051412Y0144727D01*
X0051313Y0144659D01*
X0051263Y0144622D01*
X0051220Y0144572D01*
X0051208Y0144560D01*
X0051183Y0144522D01*
X0051152Y0144467D01*
X0051108Y0144386D01*
X0051065Y0144281D01*
X0051034Y0144157D01*
X0051010Y0144015D01*
X0050997Y0143848D01*
Y0143842D01*
Y0143829D01*
Y0143804D01*
X0051003Y0143773D01*
Y0143736D01*
X0051010Y0143693D01*
X0051028Y0143594D01*
X0051053Y0143482D01*
X0051096Y0143365D01*
X0051152Y0143247D01*
X0051226Y0143142D01*
X0051239Y0143130D01*
X0051270Y0143105D01*
X0051319Y0143062D01*
X0051387Y0143018D01*
X0051474Y0142969D01*
X0051579Y0142925D01*
X0051703Y0142901D01*
X0051839Y0142888D01*
X0051876D01*
X0051901Y0142894D01*
X0051975Y0142901D01*
X0052062Y0142919D01*
X0052155Y0142950D01*
X0052260Y0142993D01*
X0052353Y0143055D01*
X0052439Y0143136D01*
X0052446Y0143148D01*
X0052470Y0143185D01*
X0052508Y0143241D01*
X0052545Y0143322D01*
X0052582Y0143427D01*
X0052619Y0143551D01*
X0052644Y0143693D01*
X0052650Y0143860D01*
Y0143866D01*
Y0143879D01*
Y0143903D01*
Y0143941D01*
X0052644Y0143978D01*
X0052637Y0144021D01*
X0052625Y0144126D01*
X0052600Y0144244D01*
X0052563Y0144361D01*
X0052508Y0144479D01*
X0052439Y0144584D01*
X0052427Y0144597D01*
X0052402Y0144622D01*
X0052353Y0144665D01*
X0052285Y0144714D01*
X0052198Y0144758D01*
X0052099Y0144801D01*
X0051975Y0144826D01*
X0051839Y0144838D01*
D02*
G37*
%LPD*%
D10*
X-0032274Y0085637D02*
X-0030802Y0087109D01*
X-0032274Y0085344D02*
Y0085637D01*
X-0025591Y0037992D02*
X-0025197Y0038386D01*
X-0025689Y0037992D02*
X-0025591D01*
X-0025197Y0038386D02*
Y0038484D01*
X-0024409Y0039272D02*
Y0049705D01*
X-0025197Y0038484D02*
X-0024409Y0039272D01*
X-0014173Y0044685D02*
X-0010059D01*
X-0007500Y0047244D01*
Y0048819D01*
X-0027437Y0087106D02*
X-0027418Y0087125D01*
X-0024919D01*
X-0024900Y0087145D01*
X-0021457Y0035380D02*
Y0036220D01*
X-0025492Y0035085D02*
X-0021752D01*
X-0029528Y0023031D02*
Y0024997D01*
X-0023020Y0031504D02*
X-0019596D01*
X-0029528Y0024997D02*
X-0023020Y0031504D01*
X-0014272Y0060236D02*
X-0010668Y0063840D01*
Y0067323D01*
X0002500Y0048819D02*
Y0057404D01*
X-0014370Y0060236D02*
X-0014272D01*
X-0021752Y0035085D02*
X-0021457Y0035380D01*
X0007593Y0054276D02*
X0007685Y0054368D01*
X0007500Y0048819D02*
X0007593Y0048911D01*
Y0054276D01*
X0000036Y0030968D02*
X0005973D01*
X0000000Y0031004D02*
X0000036Y0030968D01*
X-0002500Y0040000D02*
X0000000Y0037500D01*
X-0002500Y0040000D02*
Y0048819D01*
X0007500Y0071260D02*
X0009843Y0073602D01*
Y0077559D01*
X0007500Y0069685D02*
Y0071260D01*
X-0007435Y0064024D02*
X-0007369Y0063958D01*
X-0007500Y0069685D02*
X-0007435Y0069620D01*
Y0064024D02*
Y0069620D01*
X0006102Y0082776D02*
Y0082972D01*
Y0082776D02*
X0007087Y0081791D01*
X0009574Y0077828D02*
X0009843Y0077559D01*
X0009574Y0077828D02*
Y0079501D01*
X0007087Y0081791D02*
X0007283D01*
X0009574Y0079501D01*
X-0005610Y0021476D02*
X-0005000Y0020866D01*
X-0011147Y0029004D02*
Y0029076D01*
Y0029004D02*
X-0005610Y0023467D01*
Y0021476D02*
Y0023467D01*
X-0011344Y0029273D02*
X-0011147Y0029076D01*
X-0011935Y0029273D02*
X-0011344D01*
X-0017365D02*
X-0011935D01*
X0005973Y0030968D02*
X0006009Y0030931D01*
X-0021457Y0036220D02*
X-0016732Y0040946D01*
Y0041501D01*
X-0016338Y0041895D01*
X-0019596Y0031504D02*
X-0016535Y0034565D01*
X-0019596Y0031504D02*
X-0017365Y0029273D01*
D13*
X-0034152Y0029404D02*
G03*
X-0032640Y0033526I-0002312J0003187D01*
G01*
X-0034152Y0029404D02*
G03*
X-0037374Y0023691I0004625J-0006373D01*
G01*
Y0023689D02*
G03*
X-0022104Y0020407I0007846J-0000658D01*
G01*
X-0018392Y0023031D02*
G03*
X-0022104Y0020407I0000000J-0003937D01*
G01*
X-0012874Y0019094D02*
G03*
X-0016811Y0023031I-0003937J0000000D01*
G01*
X-0012874Y0003145D02*
G03*
X-0009729Y-0000000I0003145J0000000D01*
G01*
X0009729D02*
G03*
X0012874Y0003145I0000000J0003145D01*
G01*
X0016811Y0023031D02*
G03*
X0012874Y0019094I0000000J-0003937D01*
G01*
X0022104Y0020407D02*
G03*
X0018392Y0023031I-0003712J-0001312D01*
G01*
X0022104Y0020407D02*
G03*
X0037367Y0023763I0007423J0002625D01*
G01*
Y0023765D02*
G03*
X0034152Y0029404I-0007840J-0000734D01*
G01*
X0032640Y0033526D02*
G03*
X0034152Y0029404I0003824J-0000935D01*
G01*
X-0029035Y0119473D02*
G03*
X-0034152Y0105241I-0000493J-0007859D01*
G01*
X-0032640Y0101120D02*
G03*
X-0034152Y0105241I-0003824J0000935D01*
G01*
X0034152D02*
G03*
X0032640Y0101120I0002312J-0003187D01*
G01*
X0034152Y0105241D02*
G03*
X0029035Y0119473I-0004625J0006373D01*
G01*
X-0032792Y0100492D02*
X-0032640Y0101120D01*
X-0032940Y0099861D02*
X-0032792Y0100492D01*
X-0033086Y0099228D02*
X-0032940Y0099861D01*
X-0033230Y0098592D02*
X-0033086Y0099228D01*
X-0033370Y0097953D02*
X-0033230Y0098592D01*
X-0033507Y0097311D02*
X-0033370Y0097953D01*
X-0033641Y0096667D02*
X-0033507Y0097311D01*
X-0033773Y0096020D02*
X-0033641Y0096667D01*
X-0033901Y0095371D02*
X-0033773Y0096020D01*
X-0034027Y0094719D02*
X-0033901Y0095371D01*
X-0034150Y0094065D02*
X-0034027Y0094719D01*
X-0034269Y0093409D02*
X-0034150Y0094065D01*
X-0034386Y0092750D02*
X-0034269Y0093409D01*
X-0034500Y0092089D02*
X-0034386Y0092750D01*
X-0034610Y0091426D02*
X-0034500Y0092089D01*
X-0034718Y0090761D02*
X-0034610Y0091426D01*
X-0034823Y0090094D02*
X-0034718Y0090761D01*
X-0034924Y0089425D02*
X-0034823Y0090094D01*
X-0035023Y0088754D02*
X-0034924Y0089425D01*
X-0035118Y0088081D02*
X-0035023Y0088754D01*
X-0035211Y0087406D02*
X-0035118Y0088081D01*
X-0035300Y0086730D02*
X-0035211Y0087406D01*
X-0035387Y0086052D02*
X-0035300Y0086730D01*
X-0035470Y0085372D02*
X-0035387Y0086052D01*
X-0035550Y0084691D02*
X-0035470Y0085372D01*
X-0035627Y0084008D02*
X-0035550Y0084691D01*
X-0035702Y0083324D02*
X-0035627Y0084008D01*
X-0035772Y0082638D02*
X-0035702Y0083324D01*
X-0035840Y0081951D02*
X-0035772Y0082638D01*
X-0035905Y0081263D02*
X-0035840Y0081951D01*
X-0035967Y0080573D02*
X-0035905Y0081263D01*
X-0036025Y0079883D02*
X-0035967Y0080573D01*
X-0036080Y0079191D02*
X-0036025Y0079883D01*
X-0036133Y0078498D02*
X-0036080Y0079191D01*
X-0036182Y0077804D02*
X-0036133Y0078498D01*
X-0036228Y0077110D02*
X-0036182Y0077804D01*
X-0036270Y0076414D02*
X-0036228Y0077110D01*
X-0036310Y0075718D02*
X-0036270Y0076414D01*
X-0036346Y0075021D02*
X-0036310Y0075718D01*
X-0036380Y0074323D02*
X-0036346Y0075021D01*
X-0036410Y0073625D02*
X-0036380Y0074323D01*
X-0036437Y0072926D02*
X-0036410Y0073625D01*
X-0036461Y0072227D02*
X-0036437Y0072926D01*
X-0036481Y0071527D02*
X-0036461Y0072227D01*
X-0036499Y0070827D02*
X-0036481Y0071527D01*
X-0036513Y0070126D02*
X-0036499Y0070827D01*
X-0036524Y0069425D02*
X-0036513Y0070126D01*
X-0036532Y0068725D02*
X-0036524Y0069425D01*
X-0036537Y0068024D02*
X-0036532Y0068725D01*
X-0036538Y0067323D02*
X-0036537Y0068024D01*
X-0036538Y0067323D02*
X-0036537Y0066622D01*
X-0036532Y0065921D01*
X-0036524Y0065220D01*
X-0036513Y0064519D01*
X-0036499Y0063819D01*
X-0036481Y0063118D01*
X-0036461Y0062419D01*
X-0036437Y0061719D01*
X-0036410Y0061021D01*
X-0036380Y0060322D01*
X-0036346Y0059625D01*
X-0036310Y0058928D01*
X-0036270Y0058231D01*
X-0036228Y0057536D01*
X-0036182Y0056841D01*
X-0036133Y0056147D01*
X-0036080Y0055455D01*
X-0036025Y0054763D01*
X-0035967Y0054072D01*
X-0035905Y0053383D01*
X-0035840Y0052694D01*
X-0035772Y0052007D01*
X-0035702Y0051322D01*
X-0035627Y0050637D01*
X-0035550Y0049955D01*
X-0035470Y0049273D01*
X-0035387Y0048594D01*
X-0035300Y0047915D01*
X-0035211Y0047239D01*
X-0035118Y0046564D01*
X-0035023Y0045891D01*
X-0034924Y0045220D01*
X-0034823Y0044551D01*
X-0034718Y0043884D01*
X-0034610Y0043219D01*
X-0034500Y0042556D01*
X-0034386Y0041895D01*
X-0034269Y0041236D01*
X-0034150Y0040580D01*
X-0034027Y0039926D01*
X-0033901Y0039274D01*
X-0033773Y0038625D01*
X-0033641Y0037978D01*
X-0033507Y0037334D01*
X-0033370Y0036693D01*
X-0033230Y0036054D01*
X-0033086Y0035418D01*
X-0032940Y0034784D01*
X-0032792Y0034153D01*
X-0032640Y0033526D01*
X-0037374Y0023689D02*
Y0023691D01*
X-0018392Y0023031D02*
X-0016811D01*
X-0012874Y0003145D02*
Y0019094D01*
X0012874Y0003145D02*
Y0019094D01*
X0016811Y0023031D02*
X0018392D01*
X0037367Y0023763D02*
Y0023765D01*
X0032640Y0033526D02*
X0032792Y0034153D01*
X0032940Y0034784D01*
X0033086Y0035418D01*
X0033230Y0036054D01*
X0033370Y0036693D01*
X0033507Y0037334D01*
X0033641Y0037978D01*
X0033773Y0038625D01*
X0033901Y0039274D01*
X0034027Y0039926D01*
X0034150Y0040580D01*
X0034269Y0041236D01*
X0034386Y0041895D01*
X0034500Y0042556D01*
X0034610Y0043219D01*
X0034718Y0043884D01*
X0034823Y0044551D01*
X0034924Y0045220D01*
X0035023Y0045891D01*
X0035118Y0046564D01*
X0035211Y0047239D01*
X0035300Y0047915D01*
X0035387Y0048594D01*
X0035470Y0049273D01*
X0035550Y0049955D01*
X0035627Y0050637D01*
X0035702Y0051322D01*
X0035772Y0052007D01*
X0035840Y0052694D01*
X0035905Y0053383D01*
X0035967Y0054072D01*
X0036025Y0054763D01*
X0036080Y0055455D01*
X0036133Y0056147D01*
X0036182Y0056841D01*
X0036228Y0057536D01*
X0036270Y0058231D01*
X0036310Y0058928D01*
X0036346Y0059625D01*
X0036380Y0060322D01*
X0036410Y0061021D01*
X0036437Y0061719D01*
X0036461Y0062419D01*
X0036481Y0063118D01*
X0036499Y0063819D01*
X0036513Y0064519D01*
X0036524Y0065220D01*
X0036532Y0065921D01*
X0036537Y0066622D01*
X0036538Y0067323D01*
X0036537Y0068024D02*
X0036538Y0067323D01*
X0036532Y0068725D02*
X0036537Y0068024D01*
X0036524Y0069425D02*
X0036532Y0068725D01*
X0036513Y0070126D02*
X0036524Y0069425D01*
X0036499Y0070827D02*
X0036513Y0070126D01*
X0036481Y0071527D02*
X0036499Y0070827D01*
X0036461Y0072227D02*
X0036481Y0071527D01*
X0036437Y0072926D02*
X0036461Y0072227D01*
X0036410Y0073625D02*
X0036437Y0072926D01*
X0036380Y0074323D02*
X0036410Y0073625D01*
X0036346Y0075021D02*
X0036380Y0074323D01*
X0036310Y0075718D02*
X0036346Y0075021D01*
X0036270Y0076414D02*
X0036310Y0075718D01*
X0036228Y0077110D02*
X0036270Y0076414D01*
X0036182Y0077804D02*
X0036228Y0077110D01*
X0036133Y0078498D02*
X0036182Y0077804D01*
X0036080Y0079191D02*
X0036133Y0078498D01*
X0036025Y0079883D02*
X0036080Y0079191D01*
X0035967Y0080573D02*
X0036025Y0079883D01*
X0035905Y0081263D02*
X0035967Y0080573D01*
X0035840Y0081951D02*
X0035905Y0081263D01*
X0035772Y0082638D02*
X0035840Y0081951D01*
X0035702Y0083324D02*
X0035772Y0082638D01*
X0035627Y0084008D02*
X0035702Y0083324D01*
X0035550Y0084691D02*
X0035627Y0084008D01*
X0035470Y0085372D02*
X0035550Y0084691D01*
X0035387Y0086052D02*
X0035470Y0085372D01*
X0035300Y0086730D02*
X0035387Y0086052D01*
X0035211Y0087406D02*
X0035300Y0086730D01*
X0035118Y0088081D02*
X0035211Y0087406D01*
X0035023Y0088754D02*
X0035118Y0088081D01*
X0034924Y0089425D02*
X0035023Y0088754D01*
X0034823Y0090094D02*
X0034924Y0089425D01*
X0034718Y0090761D02*
X0034823Y0090094D01*
X0034610Y0091426D02*
X0034718Y0090761D01*
X0034500Y0092089D02*
X0034610Y0091426D01*
X0034386Y0092750D02*
X0034500Y0092089D01*
X0034269Y0093409D02*
X0034386Y0092750D01*
X0034150Y0094065D02*
X0034269Y0093409D01*
X0034027Y0094719D02*
X0034150Y0094065D01*
X0033901Y0095371D02*
X0034027Y0094719D01*
X0033773Y0096020D02*
X0033901Y0095371D01*
X0033641Y0096667D02*
X0033773Y0096020D01*
X0033507Y0097311D02*
X0033641Y0096667D01*
X0033370Y0097953D02*
X0033507Y0097311D01*
X0033230Y0098592D02*
X0033370Y0097953D01*
X0033086Y0099228D02*
X0033230Y0098592D01*
X0032940Y0099861D02*
X0033086Y0099228D01*
X0032792Y0100492D02*
X0032940Y0099861D01*
X0032640Y0101120D02*
X0032792Y0100492D01*
X-0009724Y0000000D02*
X0009724D01*
X-0029028Y0119472D02*
X0029035D01*
D14*
X0002500Y0069685D02*
D03*
Y0048819D02*
D03*
X0007500Y0069685D02*
D03*
X-0002500D02*
D03*
X-0007500D02*
D03*
X0007500Y0048819D02*
D03*
X-0002500D02*
D03*
X-0007500D02*
D03*
D15*
X0020197Y0062205D02*
D03*
Y0064764D02*
D03*
Y0067323D02*
D03*
Y0069882D02*
D03*
Y0072441D02*
D03*
D16*
X0030827Y0063386D02*
D03*
Y0071260D02*
D03*
D17*
X-0020079Y0079232D02*
D03*
X-0023819Y0079232D02*
D03*
X-0027559Y0079232D02*
D03*
Y0069784D02*
D03*
X-0020079Y0069784D02*
D03*
D18*
X0014075Y0047112D02*
D03*
Y0035891D02*
D03*
D20*
X-0014370Y0060236D02*
D03*
Y0064173D02*
D03*
X0006009Y0030931D02*
D03*
Y0034868D02*
D03*
X-0025689Y0034055D02*
D03*
Y0037992D02*
D03*
X-0008661Y0085039D02*
D03*
Y0088976D02*
D03*
D22*
X0027756Y0088779D02*
D03*
X0016535D02*
D03*
D24*
X-0014173Y0069823D02*
D03*
Y0073760D02*
D03*
X-0032943Y0079268D02*
D03*
Y0075331D02*
D03*
D25*
X-0016338Y0041895D02*
D03*
X-0012401D02*
D03*
X-0001969Y0075718D02*
D03*
X0001969D02*
D03*
D27*
X-0028150Y0042618D02*
D03*
X-0020669D02*
D03*
X-0024409Y0050492D02*
D03*
D28*
X0009843Y0077559D02*
D03*
X0005906D02*
D03*
D29*
X-0001378Y0082972D02*
D03*
X0006102D02*
D03*
X0002362Y0090847D02*
D03*
D30*
X0030827Y0055906D02*
D03*
D31*
X0030827Y0078740D02*
D03*
D38*
X0010000Y0103327D02*
D03*
X0000000D02*
D03*
X-0010000D02*
D03*
D51*
X0000000Y0012205D02*
D03*
X0005000D02*
D03*
D52*
X-0005000Y0013189D02*
D03*
D62*
X-0025669Y0064080D02*
D03*
Y0057480D02*
D03*
X-0030669D02*
D03*
X-0020669Y0064080D02*
D03*
X0005000Y0020866D02*
D03*
X0000000D02*
D03*
X-0005000D02*
D03*
D64*
X-0030784Y0087461D02*
D03*
X-0031139Y0087106D02*
D03*
X-0030784Y0086752D02*
D03*
D65*
X-0027437Y0087106D02*
D03*
D66*
X-0030802Y0087109D02*
D03*
D67*
X0025223Y0046564D02*
D03*
X0022467D02*
D03*
D68*
X0000000Y0037500D02*
D03*
Y0031004D02*
D03*
D69*
X0014075Y0029035D02*
D03*
Y0026280D02*
D03*
X-0011935Y0032029D02*
D03*
Y0029273D02*
D03*
D70*
X-0015650Y0035531D02*
D03*
X-0021161D02*
D03*
D71*
X-0032943Y0065489D02*
Y0075331D01*
X-0025978Y0055124D02*
Y0058226D01*
X-0026614Y0058862D02*
Y0059160D01*
Y0058862D02*
X-0025978Y0058226D01*
X-0032943Y0065489D02*
X-0026614Y0059160D01*
X-0029867Y0041294D02*
X-0028937Y0042224D01*
X-0029867Y0039019D02*
Y0041294D01*
X-0028150Y0052953D02*
X-0025978Y0055124D01*
X-0028150Y0042618D02*
Y0052953D01*
X-0010282Y0081728D02*
Y0082264D01*
X-0014173Y0077836D02*
X-0010282Y0081728D01*
X0030827Y0053543D02*
Y0063386D01*
X-0016031Y0094340D02*
X-0010668Y0088976D01*
X-0016031Y0094340D02*
Y0110165D01*
X-0012122Y0114075D01*
X-0021666Y0083071D02*
X-0020571Y0081975D01*
Y0081122D02*
X-0020079Y0080630D01*
X-0025971Y0083071D02*
X-0021666D01*
X-0020079Y0079232D02*
Y0080630D01*
X-0021626Y0083033D02*
X-0019254Y0085404D01*
X-0021626Y0083033D02*
X-0021071D01*
X-0027559Y0079232D02*
Y0081483D01*
X-0025971Y0083071D01*
X-0014173Y0073760D02*
Y0077836D01*
X-0029528Y0111614D02*
X-0028760D01*
X-0015000Y0085404D02*
X-0011428Y0088976D01*
X-0019254Y0085404D02*
X-0015000D01*
X-0023819Y0076850D02*
Y0076981D01*
X-0020597Y0073760D02*
X-0014173D01*
X-0023819Y0076981D02*
X-0020597Y0073760D01*
X-0023819Y0076981D02*
Y0079232D01*
X-0032943Y0075331D02*
X-0025338D01*
X-0023819Y0076850D01*
X-0032943Y0079268D02*
X-0027594D01*
X-0027559Y0079232D01*
X-0002483Y0063980D02*
Y0069668D01*
X-0002500Y0069685D02*
X-0002483Y0069668D01*
X-0002500Y0069685D02*
Y0075186D01*
X-0001969Y0075718D01*
X-0002483Y0063980D02*
X-0001445Y0062943D01*
X-0010668Y0088976D02*
X-0008661D01*
X0010000Y0103327D02*
Y0110965D01*
Y0098327D02*
Y0103327D01*
X-0012122Y0114075D02*
X0006890D01*
X0010000Y0110965D01*
X0015737Y0089086D02*
Y0092590D01*
X0010000Y0098327D02*
X0015737Y0092590D01*
Y0089086D02*
X0016043Y0088779D01*
X0011375Y0053448D02*
Y0067969D01*
Y0053448D02*
X0012894Y0051929D01*
Y0048293D02*
Y0051929D01*
Y0048293D02*
X0014075Y0047112D01*
X0020197Y0073032D02*
Y0077165D01*
X0014862Y0087598D02*
X0016043Y0088779D01*
X0014075Y0086319D02*
X0014862Y0087106D01*
X0014075Y0070669D02*
Y0086319D01*
X0014862Y0087106D02*
Y0087598D01*
X0011375Y0067969D02*
X0014075Y0070669D01*
X0030827Y0063386D02*
Y0071260D01*
Y0081102D01*
D72*
X-0014905Y0064173D02*
X-0014370D01*
X-0019468Y0058681D02*
Y0059609D01*
X-0014905Y0064173D01*
X-0020675Y0057475D02*
X-0019468Y0058681D01*
X-0020669Y0042618D02*
Y0057480D01*
X-0015006Y0069784D02*
X-0014272Y0069049D01*
X-0020079Y0069784D02*
X-0015006D01*
X-0020079D02*
X-0019685Y0069390D01*
Y0068799D02*
Y0069390D01*
X-0014370Y0064173D02*
Y0068951D01*
X-0014272Y0069049D01*
X0025223Y0047940D02*
X0030827Y0053543D01*
X0025223Y0043048D02*
Y0047940D01*
X0024070Y0041895D02*
X0025223Y0043048D01*
X0013134Y0041895D02*
X0024070D01*
X-0013150Y0069823D02*
X-0010158Y0072815D01*
Y0074193D01*
X-0002165Y0082185D01*
X-0001378Y0082776D02*
Y0082972D01*
X-0001969Y0082185D02*
X-0001378Y0082776D01*
X-0002165Y0082185D02*
X-0001969D01*
X-0001378Y0082776D02*
X0003613Y0077785D01*
X-0012401Y0033182D02*
Y0041895D01*
X-0001697Y0090925D02*
X0002362D01*
X-0007583Y0085039D02*
X-0001697Y0090925D01*
X0000000Y0096742D02*
X0002296Y0094446D01*
X0000000Y0096742D02*
Y0098327D01*
X0002296Y0091109D02*
Y0094446D01*
X0019451Y0057480D02*
X0020197D01*
X0003613Y0077461D02*
X0005906D01*
X0003613D02*
Y0077785D01*
X0006108Y0034868D02*
X0007016D01*
X0006009D02*
X0006108D01*
X0013134Y0041895D01*
X0014075Y0026280D02*
X0023194D01*
X0014075Y0035399D02*
X0023194Y0026280D01*
X0023616D01*
X0014075Y0035399D02*
Y0035891D01*
X0010232Y0026691D02*
X0012577Y0029035D01*
X-0000401Y0023794D02*
X0002495Y0026691D01*
X0010232D01*
X0007016Y0034868D02*
X0012789Y0029095D01*
X0012577Y0029035D02*
X0014075D01*
X0005460Y0021326D02*
X0008924D01*
X0013681Y0026083D01*
X0005000Y0020866D02*
X0005460Y0021326D01*
X0026864Y0023031D02*
X0029528D01*
X0023616Y0026280D02*
X0026864Y0023031D01*
X0001969Y0075816D02*
X0003613Y0077461D01*
X0001969Y0075718D02*
Y0075816D01*
X0005906Y0077461D02*
Y0077559D01*
X-0008661Y0085039D02*
X-0007583D01*
X0001969Y0071791D02*
Y0075718D01*
Y0071791D02*
X0002500Y0071260D01*
Y0069685D02*
Y0071260D01*
X-0012328Y0032226D02*
X-0012132Y0032029D01*
X-0012328Y0032226D02*
Y0033109D01*
X-0012401Y0033182D02*
X-0012328Y0033109D01*
X-0012132Y0032029D02*
X-0008635D01*
X-0000401Y0023794D01*
Y0021267D02*
Y0023794D01*
Y0021267D02*
X0000000Y0020866D01*
D73*
X0022467Y0046564D02*
Y0052007D01*
X0020295Y0062303D02*
X0023506D01*
D74*
X0024921Y0054461D02*
Y0085945D01*
X0022467Y0052007D02*
X0024921Y0054461D01*
Y0085945D02*
X0026673Y0087697D01*
X0027264Y0088779D02*
X0027756D01*
X0026673Y0087697D02*
Y0088189D01*
X0027264Y0088779D01*
D75*
X-0020669Y0057480D02*
D03*
D76*
X0020197Y0077165D02*
D03*
Y0057480D02*
D03*
D77*
X0030827Y0081102D02*
D03*
Y0053543D02*
D03*
D78*
X-0027854Y0096161D02*
D03*
X0010000Y0098327D02*
D03*
D79*
X0000000D02*
D03*
X-0010000D02*
D03*
D80*
X-0029528Y0023031D02*
D03*
X0029528D02*
D03*
Y0111614D02*
D03*
X-0029528D02*
D03*
D81*
X-0032274Y0085344D02*
D03*
X-0024409Y0047112D02*
D03*
X-0014173Y0044685D02*
D03*
X-0010282Y0082264D02*
D03*
X-0024900Y0087145D02*
D03*
X-0010668Y0067323D02*
D03*
X0002500Y0057404D02*
D03*
X-0029867Y0039019D02*
D03*
X-0001445Y0062943D02*
D03*
X0007685Y0054368D02*
D03*
X-0007369Y0063958D02*
D03*
X-0012360Y0039019D02*
D03*
X0000000Y0009547D02*
D03*
M02*
